<svg xmlns="http://www.w3.org/2000/svg" width="611.5" height="310"><style xmlns="http://www.w3.org/1999/xhtml"/><path fill="#FFF" d="M0 0h611.5v310H0z"/><path fill-opacity="0" d="M202 0h146v22H202z"/><path fill-opacity="0" d="M202 0h146v22H202z"/><path fill-opacity="0" d="M213.688 0h122v22h-122z"/><path fill-opacity="0" d="M213.688 0h122v22h-122z"/><path fill="#FFF" stroke="#333" data-layerId="MpC983ytRzAX" stroke-dasharray="2,2" vector-effect="non-scaling-stroke" d="M0 0h100q0 0 0 0v100q0 0 0 0H0q0 0 0 0V0q0 0 0 0z" stroke-miterlimit="10" stroke-width="2" transform="matrix(.65 0 0 1.3 202 107)" data-width="65" data-height="130"/><path fill="#FFF" stroke="#333" data-layerId="MpC983ytRzAX" stroke-dasharray="1.7976931348623157e+308" vector-effect="non-scaling-stroke" d="M210 146.6h20q0 0 0 0v20q0 0 0 0h-20q0 0 0 0v-20q0 0 0 0zm0-30h20q0 0 0 0v20q0 0 0 0h-20q0 0 0 0v-20q0 0 0 0zm30 30h20q0 0 0 0v20q0 0 0 0h-20q0 0 0 0v-20q0 0 0 0zm0-30h20q0 0 0 0v20q0 0 0 0h-20q0 0 0 0v-20q0 0 0 0zm-30 60h20q0 0 0 0v20q0 0 0 0h-20q0 0 0 0v-20q0 0 0 0zm30 0h20q0 0 0 0v20q0 0 0 0h-20q0 0 0 0v-20q0 0 0 0z" stroke-miterlimit="10" stroke-width="2" data-width="20" data-height="20"/><path fill="#FFF" stroke="#333" data-layerId="MpC983ytRzAX" stroke-dasharray="1.7976931348623157e+308" vector-effect="non-scaling-stroke" d="M0 0h85.714C93.604 0 100 22.386 100 50s-6.396 50-14.286 50H0V0z" stroke-miterlimit="10" stroke-width="2" transform="matrix(.7 0 0 .2 0 116.6)" data-width="70" data-height="20"/><path fill-opacity="0" d="M9 120h51v14H9z"/><path fill-opacity="0" d="M9 120h51v14H9z"/><path fill-opacity="0" d="M18.262 120h32v14h-32z"/><path fill-opacity="0" d="M18.262 120h32v14h-32z"/><text font-family="Arial" font-size="12" x="9.262" y="11" data-layerId="MpC983ytRzAX" transform="translate(9 120)">GPOx</text><path fill="#FFF" stroke="#333" data-layerId="MpC983ytRzAX" stroke-dasharray="1.7976931348623157e+308" vector-effect="non-scaling-stroke" d="M0 0h100q0 0 0 0v100q0 0 0 0H0q0 0 0 0V0q0 0 0 0z" stroke-miterlimit="10" stroke-width="2" transform="matrix(.5 0 0 .2 100 116.6)" data-width="50" data-height="20"/><path fill-opacity="0" d="M111 120h29v14h-29z"/><path fill-opacity="0" d="M111 120h29v14h-29z"/><path fill-opacity="0" d="M111.15 120h29v14h-29z"/><path fill-opacity="0" d="M111.15 120h29v14h-29z"/><text font-family="Arial" font-size="12" x=".15" y="11" data-layerId="MpC983ytRzAX" transform="translate(111 120)">100 R</text><path fill="none" stroke="#000" stroke-dasharray="undefined" vector-effect="non-scaling-stroke" d="M70 126.6h30m50 0h60" stroke-miterlimit="10" stroke-width="2" data-layerId="MpC983ytRzAX"/><path fill="#FFF" stroke="#333" data-layerId="MpC983ytRzAX" stroke-dasharray="1.7976931348623157e+308" vector-effect="non-scaling-stroke" d="M0 0h85.714C93.604 0 100 22.386 100 50s-6.396 50-14.286 50H0V0z" stroke-miterlimit="10" stroke-width="2" transform="matrix(.7 0 0 .2 0 146.6)" data-width="70" data-height="20"/><path fill-opacity="0" d="M9 150h51v14H9z"/><path fill-opacity="0" d="M9 150h51v14H9z"/><path fill-opacity="0" d="M21.262 150h27v14h-27z"/><path fill-opacity="0" d="M21.262 150h27v14h-27z"/><text font-family="Arial" font-size="12" x="12.262" y="11" data-layerId="MpC983ytRzAX" transform="translate(9 150)">GPIx</text><path fill="none" stroke="#000" stroke-dasharray="undefined" vector-effect="non-scaling-stroke" d="M419.984 153.633h30.033M150 156.6h20q10 0 10 10v10q0 10 10 10h20" stroke-miterlimit="10" stroke-width="2" data-layerId="MpC983ytRzAX"/><path fill="#FFF" stroke="#333" data-layerId="MpC983ytRzAX" stroke-dasharray="1.7976931348623157e+308" vector-effect="non-scaling-stroke" d="M0 0h100q0 0 0 0v100q0 0 0 0H0q0 0 0 0V0q0 0 0 0z" stroke-miterlimit="10" stroke-width="2" transform="matrix(.98 0 0 .75 450 101.6)" data-width="98" data-height="75"/><path fill-opacity="0" d="M460 121h78v37h-78z"/><path fill-opacity="0" d="M460 121h78v18h-78z"/><path fill-opacity="0" d="M473.688 121h50v18h-50z"/><path fill-opacity="0" d="M473.688 121h50v18h-50z"/><text font-family="Arial" font-size="16" x="13.688" y="15" data-layerId="MpC983ytRzAX" transform="translate(460 121)">Sensor</text><path fill-opacity="0" d="M460 139.4h78v18h-78z"/><path fill-opacity="0" d="M472.788 139.4h53v18h-53z"/><path fill-opacity="0" d="M472.788 139.4h53v18h-53z"/><text font-family="Arial" font-size="16" x="12.788" y="33.4" data-layerId="MpC983ytRzAX" transform="translate(460 121)">module</text><path fill="#FFF" stroke="#333" data-layerId="MpC983ytRzAX" stroke-dasharray="1.7976931348623157e+308" vector-effect="non-scaling-stroke" d="M-12.5 0h125l-25 100h-75l-25-100z" stroke-miterlimit="10" stroke-width="2" transform="matrix(0 .47 -.41 0 589.5 114.1)" data-width="47" data-height="41"/><path fill="none" stroke="#000" stroke-dasharray="undefined" vector-effect="non-scaling-stroke" d="M259.976 123.567H450M260 186.6h45q10 0 10-10v-10q0-10 10-10h45m-.25 118.4H180q-10 0-10-10v-38.4q0-10 10-10h30m0-60h-19q-10 0-10-10v-75q0-10 10-10h298q10 0 10 10v30" stroke-miterlimit="10" stroke-width="2" data-layerId="MpC983ytRzAX"/><path fill="#FFF" stroke="#333" data-layerId="MpC983ytRzAX" stroke-dasharray="1.7976931348623157e+308" vector-effect="non-scaling-stroke" d="M0 0h100q0 0 0 0v100q0 0 0 0H0q0 0 0 0V0q0 0 0 0z" stroke-miterlimit="10" stroke-width="2" transform="matrix(.5 0 0 .2 370 146.6)" data-width="50" data-height="20"/><path fill-opacity="0" d="M380 150h30v14h-30z"/><path fill-opacity="0" d="M380 150h30v14h-30z"/><path fill-opacity="0" d="M380.65 150h29v14h-29z"/><path fill-opacity="0" d="M380.65 150h29v14h-29z"/><text font-family="Arial" font-size="12" x=".65" y="11" data-layerId="MpC983ytRzAX" transform="translate(380 150)">100 R</text><path fill-opacity="0" d="M187 237h86v28h-86z"/><path fill-opacity="0" d="M187 237h86v14h-86z"/><path fill-opacity="0" d="M199.975 237h60v14h-60z"/><path fill-opacity="0" d="M199.975 237h60v14h-60z"/><text font-family="Arial" font-size="12" x="12.975" y="11" data-layerId="MpC983ytRzAX" transform="translate(187 237)">Pin</text><text font-family="Arial" font-size="12" x="33.65" y="11" data-layerId="MpC983ytRzAX" transform="translate(187 237)">header</text><path fill-opacity="0" d="M187 250.6h86v14h-86z"/><path fill-opacity="0" d="M193.975 250.6h72v14h-72z"/><path fill-opacity="0" d="M193.975 250.6h72v14h-72z"/><text font-family="Arial" font-size="12" x="6.975" y="24.6" data-layerId="MpC983ytRzAX" transform="translate(187 237)">2</text><text font-family="Arial" font-size="12" x="13.637" y="24.6" data-layerId="MpC983ytRzAX" transform="translate(187 237)">.</text><text font-family="Arial" font-size="12" x="16.975" y="24.6" data-layerId="MpC983ytRzAX" transform="translate(187 237)">54 mm </text><text font-family="Arial" font-size="12" x="56.65" y="24.6" data-layerId="MpC983ytRzAX" transform="translate(187 237)"> pitch</text><path fill="#FFF" stroke="#333" data-layerId="MpC983ytRzAX" stroke-dasharray="1.7976931348623157e+308" vector-effect="non-scaling-stroke" d="M0 0h100q0 0 0 0v100q0 0 0 0H0q0 0 0 0V0q0 0 0 0z" stroke-miterlimit="10" stroke-width="2" transform="matrix(.5 0 0 .2 100 146.6)" data-width="50" data-height="20"/><path fill-opacity="0" d="M111 150h29v14h-29z"/><path fill-opacity="0" d="M111 150h29v14h-29z"/><path fill-opacity="0" d="M111.15 150h29v14h-29z"/><path fill-opacity="0" d="M111.15 150h29v14h-29z"/><text font-family="Arial" font-size="12" x=".15" y="11" data-layerId="MpC983ytRzAX" transform="translate(111 150)">100 R</text><path fill="none" stroke="#000" stroke-dasharray="undefined" vector-effect="non-scaling-stroke" d="M70 156.6h30.285" stroke-miterlimit="10" stroke-width="2" data-layerId="MpC983ytRzAX"/><path fill="#FFF" stroke="#333" data-layerId="MpC983ytRzAX" stroke-dasharray="1.7976931348623157e+308" vector-effect="non-scaling-stroke" d="M210 206.6h20q0 0 0 0v20q0 0 0 0h-20q0 0 0 0v-20q0 0 0 0zm30 0h20q0 0 0 0v20q0 0 0 0h-20q0 0 0 0v-20q0 0 0 0z" stroke-miterlimit="10" stroke-width="2" data-width="20" data-height="20"/><path fill-opacity="0" d="M358 172h86v15h-86z"/><path fill-opacity="0" d="M358 172h86v14h-86z"/><path fill-opacity="0" d="M359.313 172h83v14h-83z"/><path fill-opacity="0" d="M359.313 172h83v14h-83z"/><text font-family="Arial" font-size="12" x="1.313" y="11" data-layerId="MpC983ytRzAX" transform="translate(358 172)">IO_Cam_OUT0</text><path fill-opacity="0" d="M412 40h76v14h-76z"/><path fill-opacity="0" d="M412 40h76v14h-76z"/><path fill-opacity="0" d="M414.975 40h70v14h-70z"/><path fill-opacity="0" d="M414.975 40h70v14h-70z"/><text font-family="Arial" font-size="12" x="2.975" y="11" data-layerId="MpC983ytRzAX" transform="translate(412 40)">IO_Cam_IN1</text><path fill-opacity="0" d="M506 221h86v22h-86z"/><path fill-opacity="0" d="M506 221h86v14h-86z"/><path fill-opacity="0" d="M507.313 221h83v14h-83z"/><path fill-opacity="0" d="M507.313 221h83v14h-83z"/><text font-family="Arial" font-size="12" x="1.313" y="11" data-layerId="MpC983ytRzAX" transform="translate(506 221)">IO_Cam_OUT1</text><path fill-opacity="0" d="M372 110h73v14h-73z"/><path fill-opacity="0" d="M372 110h73v14h-73z"/><path fill-opacity="0" d="M373.475 110h70v14h-70z"/><text font-family="Arial" font-size="12" x="1.475" y="11" data-layerId="MpC983ytRzAX" transform="translate(372 110)">IO_Cam_IN0</text><path fill="#FFF" stroke="#333" data-layerId="MpC983ytRzAX" stroke-dasharray="1.7976931348623157e+308" vector-effect="non-scaling-stroke" d="M0 0h100q0 0 0 0v100q0 0 0 0H0q0 0 0 0V0q0 0 0 0z" stroke-miterlimit="10" stroke-width="2" transform="matrix(.5 0 0 .2 369.75 265)" data-width="50" data-height="20"/><path fill-opacity="0" d="M380 268h30v14h-30z"/><path fill-opacity="0" d="M380 268h30v14h-30z"/><path fill-opacity="0" d="M380.65 268h29v14h-29z"/><path fill-opacity="0" d="M380.65 268h29v14h-29z"/><text font-family="Arial" font-size="12" x=".65" y="11" data-layerId="MpC983ytRzAX" transform="translate(380 268)">100 R</text><path fill="none" stroke="#000" stroke-dasharray="undefined" vector-effect="non-scaling-stroke" d="M419.75 275H489q10 0 10-10v-88.4" stroke-miterlimit="10" stroke-width="2" data-layerId="MpC983ytRzAX"/><path fill-opacity="0" d="M193 93h19v14h-19z"/><path fill-opacity="0" d="M193 93h19v14h-19z"/><path fill-opacity="0" d="M199.162 93h6v14h-6z"/><path fill-opacity="0" d="M199.162 93h6v14h-6z"/><text font-family="Arial" font-size="12" font-weight="700" x="6.162" y="11" data-layerId="MpC983ytRzAX" transform="translate(193 93)">1</text><path fill-opacity="0" d="M260 93h15v14h-15z"/><path fill-opacity="0" d="M260 93h15v14h-15z"/><path fill-opacity="0" d="M264.162 93h7v14h-7z"/><path fill-opacity="0" d="M264.162 93h7v14h-7z"/><text font-family="Arial" font-size="12" font-weight="700" x="4.162" y="11" data-layerId="MpC983ytRzAX" transform="translate(260 93)">2</text><path fill-opacity="0" d="M269 150h39v14h-39z"/><path fill-opacity="0" d="M269 150h39v14h-39z"/><path fill-opacity="0" d="M269 150h26v14h-26z"/><path fill-opacity="0" d="M269 150h26v14h-26z"/><text font-family="Arial" font-size="12" font-weight="700" y="11" data-layerId="MpC983ytRzAX" transform="translate(269 150)">GND</text><path fill-opacity="0" d="M269 210h39v14h-39z"/><path fill-opacity="0" d="M269 210h39v14h-39z"/><path fill-opacity="0" d="M269 210h26v14h-26z"/><path fill-opacity="0" d="M269 210h26v14h-26z"/><text font-family="Arial" font-size="12" font-weight="700" y="11" data-layerId="MpC983ytRzAX" transform="translate(269 210)">GND</text></svg>