<svg version="1.1" id="Ebene_1" xmlns="http://www.w3.org/2000/svg" xmlns:xlink="http://www.w3.org/1999/xlink" x="0" y="0" viewBox="0 0 299.1 253.2" style="background-color:#fff" xml:space="preserve"><style>.st167{fill:#d0d0d0}.st266{font-family:Helvetica,Arial,sans-serif}.st267{font-size:7px}</style><defs><path id="SVGID_1_" d="M17.1 5.3h257.2v257.2H17.1z"/></defs><clipPath id="SVGID_2_"><use xlink:href="#SVGID_1_" overflow="visible"/></clipPath><g clip-path="url(#SVGID_2_)"><defs><path id="SVGID_3_" d="M17.1 5.3h257.2v257.2H17.1z"/></defs><clipPath id="SVGID_4_"><use xlink:href="#SVGID_3_" overflow="visible"/></clipPath><g clip-path="url(#SVGID_4_)"><defs><path id="SVGID_5_" d="M1.8-5.1h331.7v245.8H1.8z"/></defs><clipPath id="SVGID_6_"><use xlink:href="#SVGID_5_" overflow="visible"/></clipPath><g clip-path="url(#SVGID_6_)"><defs><path id="SVGID_7_" d="M1.8-7.1h331.7v293.4H1.8z"/></defs><clipPath id="SVGID_8_"><use xlink:href="#SVGID_7_" overflow="visible"/></clipPath><g clip-path="url(#SVGID_8_)"><defs><path id="SVGID_9_" d="M-139.9-267.9h595.2v842h-595.2z"/></defs><clipPath id="SVGID_10_"><use xlink:href="#SVGID_9_" overflow="visible"/></clipPath><path d="M204.2 64.1c-2.4 1.1-5.6.8-9.2-1.2-1.2-.7-2.4-1.6-3.5-2.6-1.2.7-5.4 3.2-5.4 3.2-1.2.6-2.9.5-4.7-.5-3.8-2.2-6.8-7.5-6.8-11.8 0-2 .7-3.5 1.7-4.2 0 0 4.2-2.6 5.4-3.2h.1c-.3-1.5-.5-3-.5-4.4 0-4.3 1.5-7.4 4-8.8l11.4-6.5c2.5-1.4 5.9-1.2 9.6 1 7.5 4.3 13.6 14.9 13.6 23.6 0 4.3-1.5 7.3-3.8 8.7" clip-path="url(#SVGID_10_)" fill="#f6f6f6"/><defs><path id="SVGID_11_" d="M-139.9-267.9h595.2v842h-595.2z"/></defs><clipPath id="SVGID_12_"><use xlink:href="#SVGID_11_" overflow="visible"/></clipPath><path d="M204.2 64.1c-2.4 1.1-5.6.8-9.2-1.2-1.2-.7-2.4-1.6-3.5-2.6-1.2.7-5.4 3.2-5.4 3.2-1.2.6-2.9.5-4.7-.5-3.8-2.2-6.8-7.5-6.8-11.8 0-2 .7-3.5 1.7-4.2 0 0 4.2-2.6 5.4-3.2h.1c-.3-1.5-.5-3-.5-4.4 0-4.3 1.5-7.4 4-8.8l11.4-6.5c2.5-1.4 5.9-1.2 9.6 1 7.5 4.3 13.6 14.9 13.6 23.6 0 4.3-1.5 7.3-3.8 8.7l-11.9 6.7z" clip-path="url(#SVGID_12_)" fill="none" stroke="#000" stroke-width=".412" stroke-miterlimit="10"/><defs><path id="SVGID_13_" d="M-139.9-267.9h595.2v842h-595.2z"/></defs><clipPath id="SVGID_14_"><use xlink:href="#SVGID_13_" overflow="visible"/></clipPath><path d="M175 51.8c0-3.9 2.7-5.5 6.1-3.5 3.4 1.9 6.1 6.7 6.1 10.6s-2.7 5.5-6.1 3.5c-3.4-2-6.1-6.7-6.1-10.6z" clip-path="url(#SVGID_14_)" fill="none" stroke="#000" stroke-width=".205" stroke-miterlimit="10"/><defs><path id="SVGID_15_" d="M-139.9-267.9h595.2v842h-595.2z"/></defs><clipPath id="SVGID_16_"><use xlink:href="#SVGID_15_" overflow="visible"/></clipPath><path d="M176.7 46.8c1.1-.8 2.8-.8 4.7-.1 4.1 1.5 8 6.2 8.8 10.4.4 2.4-.2 4.3-1.7 5.1" clip-path="url(#SVGID_16_)" fill="none" stroke="#000" stroke-width=".205" stroke-miterlimit="10"/><defs><path id="SVGID_17_" d="M-139.9-267.9h595.2v842h-595.2z"/></defs><clipPath id="SVGID_18_"><use xlink:href="#SVGID_17_" overflow="visible"/></clipPath><path d="M179.1 45.4c1.1-.7 2.8-.7 4.6 0 4.1 1.5 8 6.2 8.8 10.4.4 2.4-.2 4.3-1.7 5.1" clip-path="url(#SVGID_18_)" fill="none" stroke="#000" stroke-width=".205" stroke-miterlimit="10"/><defs><path id="SVGID_19_" d="M-139.9-267.9h595.2v842h-595.2z"/></defs><clipPath id="SVGID_20_"><use xlink:href="#SVGID_19_" overflow="visible"/></clipPath><path d="M183.8 42.7c1.1-.6 2.6-.7 4.4 0 4.1 1.5 8 6.2 8.8 10.4.4 2.4-.2 4.3-1.6 5.2" clip-path="url(#SVGID_20_)" fill="none" stroke="#000" stroke-width=".205" stroke-miterlimit="10"/><defs><path id="SVGID_21_" d="M-139.9-267.9h595.2v842h-595.2z"/></defs><clipPath id="SVGID_22_"><use xlink:href="#SVGID_21_" overflow="visible"/></clipPath><path d="M181.5 44c1.1-.6 2.7-.6 4.4 0 4.1 1.5 8 6.2 8.8 10.4.4 2.3-.1 4.2-1.4 5M188.4 40c1.1-.6 2.5-.6 4.3 0 4.1 1.5 8 6.2 8.8 10.4m9.4 9.9c2.4-1.5 3.6-4.4 3.6-8.7 0-8.7-6.1-19.3-13.6-23.6-3.8-2.2-7.2-2.4-9.6-1" clip-path="url(#SVGID_22_)" fill="none" stroke="#000" stroke-width=".205" stroke-miterlimit="10"/><defs><path id="SVGID_23_" d="M-139.9-267.9h595.2v842h-595.2z"/></defs><clipPath id="SVGID_24_"><use xlink:href="#SVGID_23_" overflow="visible"/></clipPath><path d="M193.1 59.6c.6.4 1 .7 1.6 1.1 6.3 3.6 11.4.7 11.4-6.6 0-7.2-5.1-16-11.4-19.7-6.3-3.6-11.4-.7-11.4 6.6 0 .6 0 1.3.1 1.9" clip-path="url(#SVGID_24_)" fill="none" stroke="#000" stroke-width=".205" stroke-miterlimit="10"/><defs><path id="SVGID_25_" d="M-139.9-267.9h595.2v842h-595.2z"/></defs><clipPath id="SVGID_26_"><use xlink:href="#SVGID_25_" overflow="visible"/></clipPath><path d="M205.8 63.2c2.5-1.4 4-4.5 4-8.8 0-8.7-6.1-19.3-13.6-23.6-4.6-2.6-8.6-2.4-11.1.2" clip-path="url(#SVGID_26_)" fill="none" stroke="#000" stroke-width=".205" stroke-miterlimit="10"/><defs><path id="SVGID_27_" d="M-139.9-267.9h595.2v842h-595.2z"/></defs><clipPath id="SVGID_28_"><use xlink:href="#SVGID_27_" overflow="visible"/></clipPath><path d="M186.1 41.4c1.1-.6 2.6-.7 4.4-.1 4.1 1.5 8 6.2 8.8 10.4.4 2.4-.2 4.4-1.6 5.2M176.3 47c1.2-.7 2.9-.6 4.8.5 3.8 2.2 6.8 7.5 6.8 11.8 0 2.2-.8 3.7-2 4.4" clip-path="url(#SVGID_28_)" fill="none" stroke="#000" stroke-width=".205" stroke-miterlimit="10"/><defs><path id="SVGID_29_" d="M-139.9-267.9h595.2v842h-595.2z"/></defs><clipPath id="SVGID_30_"><use xlink:href="#SVGID_29_" overflow="visible"/></clipPath><path d="M183.5 42.9s5.2-3.1 6.4-3.8 3-.6 4.9.5c3.8 2.2 6.8 7.5 6.8 11.8 0 2.1-.7 3.6-1.9 4.3-1.2.8-6.6 3.9-6.6 3.9" clip-path="url(#SVGID_30_)" fill="none" stroke="#000" stroke-width=".205" stroke-miterlimit="10"/><defs><path id="SVGID_31_" d="M-139.9-267.9h595.2v842h-595.2z"/></defs><clipPath id="SVGID_32_"><use xlink:href="#SVGID_31_" overflow="visible"/></clipPath><path d="M174.3 187.2v-8.5l-1.8-1v-11.2l-1.2-.7v-7.6l7.7-4.4 21.9 12.6v7.6l-1.4.8.1 9.7-1.8 1 .1 6.5-.6.3-3.3-1.8v3.7l-.5.3-2.8-1.6v3.2l-.5.3" clip-path="url(#SVGID_32_)" fill="#f6f6f6"/><defs><path id="SVGID_33_" d="M-139.9-267.9h595.2v842h-595.2z"/></defs><clipPath id="SVGID_34_"><use xlink:href="#SVGID_33_" overflow="visible"/></clipPath><path d="M174.3 187.2v-8.5l-1.8-1v-11.2l-1.2-.7v-7.6l7.7-4.4 21.9 12.6v7.6l-1.4.8.1 9.7-1.8 1 .1 6.5-.6.3-3.3-1.8v3.7l-.5.3-2.8-1.6v3.2l-.5.3-15.9-9.2" clip-path="url(#SVGID_34_)" fill="none" stroke="#000" stroke-width=".412" stroke-miterlimit="10"/><defs><path id="SVGID_35_" d="M-139.9-267.9h595.2v842h-595.2z"/></defs><clipPath id="SVGID_36_"><use xlink:href="#SVGID_35_" overflow="visible"/></clipPath><path d="M193.2 170.9v7.5l-1.3-.7v11.2l-1.7-1v8.5m.6-8.2l-.1 4.7m6.5-7.1l.1 6.5m-3.8-4.3v6.5m.5-6.8v2.8m-2.1-1.6l5.9-3.4m-.8-9.3l2.5-1.5m-3.6 2.1v1.3m1.1-1.9v1.2m3.9-11l-7.7 4.5-21.9-12.7m24.6 18.6l-2.7 1.6m3.8-1l-1.1.7-1-.7" clip-path="url(#SVGID_36_)" fill="none" stroke="#000" stroke-width=".205" stroke-miterlimit="10"/><defs><path id="SVGID_37_" d="M-139.9-267.9h595.2v842h-595.2z"/></defs><clipPath id="SVGID_38_"><use xlink:href="#SVGID_37_" overflow="visible"/></clipPath><path d="M174.2 119.4l.6-.3 23.1 13.3v36.4l-.5.3-23.2-13.4" clip-path="url(#SVGID_38_)" fill="#f6f6f6"/><defs><path id="SVGID_39_" d="M-139.9-267.9h595.2v842h-595.2z"/></defs><clipPath id="SVGID_40_"><use xlink:href="#SVGID_39_" overflow="visible"/></clipPath><path d="M174.2 119.4l.6-.3 23.1 13.3v36.4l-.5.3-23.2-13.4v-36.3z" clip-path="url(#SVGID_40_)" fill="none" stroke="#000" stroke-width=".412" stroke-miterlimit="10"/><defs><path id="SVGID_41_" d="M-139.9-267.9h595.2v842h-595.2z"/></defs><clipPath id="SVGID_42_"><use xlink:href="#SVGID_41_" overflow="visible"/></clipPath><path d="M195 147.9c-.6-.4-1.2-.1-1.2.7 0 .7.5 1.6 1.2 2 .6.4 1.2.1 1.2-.7 0-.7-.5-1.6-1.2-2zm-18.5-10.7c-.6-.4-1.2-.1-1.2.7 0 .7.5 1.6 1.2 2 .6.4 1.2.1 1.2-.7-.1-.8-.6-1.7-1.2-2z" clip-path="url(#SVGID_42_)" fill="none" stroke="#000" stroke-width=".205" stroke-miterlimit="10"/><defs><path id="SVGID_43_" d="M-139.9-267.9h595.2v842h-595.2z"/></defs><clipPath id="SVGID_44_"><use xlink:href="#SVGID_43_" overflow="visible"/></clipPath><path d="M175.7 122.7v-1.4l3.5 2m-1.3 8.1l-2.2-1.2v-1.9" clip-path="url(#SVGID_44_)" fill="none" stroke="#9d9d9c" stroke-width=".205" stroke-miterlimit="10"/><defs><path id="SVGID_45_" d="M-139.9-267.9h595.2v842h-595.2z"/></defs><clipPath id="SVGID_46_"><use xlink:href="#SVGID_45_" overflow="visible"/></clipPath><path d="M174.2 119.4l23.2 13.3v36.4m.5-36.7l-.5.3" clip-path="url(#SVGID_46_)" fill="none" stroke="#000" stroke-width=".205" stroke-miterlimit="10"/><defs><path id="SVGID_47_" d="M-139.9-267.9h595.2v842h-595.2z"/></defs><clipPath id="SVGID_48_"><use xlink:href="#SVGID_47_" overflow="visible"/></clipPath><path d="M186.5 162.7v-12.6c0-.6-.3-1-.7-1.2s-2.6-1.5-2.6-1.5l-.7-1.2v-2l.6-.3s2.4 1.4 2.7 1.5.6.3.6-.2v-3.8c0-.2-.7-1.1-.6-1.8v-.9s0-.2-.2-.3l-.3-.2s-.2-.2-.2-.4v-.7c0-.2.1-.2.2-.1s.4.3.4 0v-1m8.9 22.4l-1.4-.8c-.1-.1-.1.1-.1.1v.4l2.2 1.2v-1.9s0-.2-.1-.2l-.3-.2v1.4c-.2.1-.3 0-.3 0h0zm.1 6.6c.1.1.1.2.1.3v1.3l-.5-.3v-1.2c0-.3 0-.4.1-.4h.2c0 .2.1.3.1.3h0zm-1.2.9c-.1-.1-.1-.2-.1-.3v-1.2h.2l.1.1c.1.1.1.2.1.3v1.2c0 .1-.2 0-.3-.1z" clip-path="url(#SVGID_48_)" fill="none" stroke="#9d9d9c" stroke-width=".205" stroke-miterlimit="10"/><defs><path id="SVGID_49_" d="M-139.9-267.9h595.2v842h-595.2z"/></defs><clipPath id="SVGID_50_"><use xlink:href="#SVGID_49_" overflow="visible"/></clipPath><path d="M194 164.3c-.1-.2-.3-.3-.4-.4-.2-.1-.3-.1-.5 0-.1.1-.1.3-.1.5v1.5c0 .2.1.4.1.4l2 1.2v-1.9c0-.3 0-.5-.1-.7s-.3-.4-.5-.5c-.2-.2-.4-.2-.5-.1zm.3-8.4v-1.6c0-.1-.1-.2-.1-.2l-.3-.2v1.7l-.2-.1c-.1-.1-.1-.2-.1-.3v-1.5s0-.1-.1-.2l-.3-.2v2.2c0 .3.1.3.1.3l2 1.2v-2.4s0-.1-.1-.2l-.3-.2v2l-.6-.3h0zm.5 5.6v-1.1c0-.2 0-.6-.2-.8-.1 0-.2-.1-.3.6 0 .4 0 .6-.1.8s-.3.3-.5.1c-.4-.2-.6-.7-.6-1.4v-1.3l.3.2c.1.1.1.3.1.3v1.1c0 .2 0 .6.2.6.1 0 .1 0 .2-.6 0-.4.1-.6.1-.8.1-.2.3-.2.5-.1.2.2.6.5.6 1.5v1.1h-.3c.1 0 0 0 0-.2h0zm-2.5-12.6c-.2.1-.2.4-.2.4.2.7.5 1.5.5 1.5s-.3-1.1-.2-1.9c0-.1-.1-.1-.1 0z" clip-path="url(#SVGID_50_)" fill="none" stroke="#9d9d9c" stroke-width=".205" stroke-miterlimit="10"/><defs><path id="SVGID_51_" d="M-139.9-267.9h595.2v842h-595.2z"/></defs><clipPath id="SVGID_52_"><use xlink:href="#SVGID_51_" overflow="visible"/></clipPath><path d="M192.1 147.6c-.3.1-.2.8-.1 1.4 0-.1.1-.8 1 0 .6.5 1.2 1.3 1.3 1.3 0 0-1.6-2.8-2.2-2.7zm1.8 5.4l-.3-.2s-.1-.1-.1-.2v-1.3h.2c.1 0 .1.1.2.2s.1.3.1.5l-.1 1h0z" clip-path="url(#SVGID_52_)" fill="none" stroke="#9d9d9c" stroke-width=".205" stroke-miterlimit="10"/><defs><path id="SVGID_53_" d="M-139.9-267.9h595.2v842h-595.2z"/></defs><clipPath id="SVGID_54_"><use xlink:href="#SVGID_53_" overflow="visible"/></clipPath><path d="M194.3 151.8c0-.1-.1-.3-.1-.4 0-.1-.1-.2-.2-.2l-.3-.3c-.2-.1-.5-.1-.6 0s-.1.3-.1.5v1.5c0 .2.1.3.1.3l2 1.2v-.4s0-.1-.1-.2l-.7-.4v-.7l.7-.3h.1s.1 0 .1-.2v-.5l-.9.1h0zm-1.3 10.1v.2c0 .2 0 .3.2.4.3.3.7.9 1.2 1.4-.1-.2-.2-.5-.2-.8l-.5-.6h.6v.7c0 .5.2.8.3.9.3.3.5.6.5.6s.1.1.1 0v-.5l-.3-.4s-.2-.2-.2-.4v-1h.4c.1 0 .1 0 .1-.1v-.4H193h0zm-16.4-6.8v.5l.5.3m0-3.1l-.5-.2v.5m1.8 1v-.5l-.4-.2m0 3l.4.2v-.4m-.2-2.3v2.2l-1.3-.8v-2.1l1.3.7zm-1.6-6.6v.5l.5.2m0-3l-.5-.2v.5m1.8 1v-.5l-.4-.3m0 3.1l.4.2v-.5m-.2-2.2v2.1l-1.3-.7v-2.2l1.3.8zm4 12.2v.5l.4.3m0-3.1l-.4-.2v.5m1.8 1v-.5l-.5-.2m0 3l.5.2v-.5m-.3-2.2v2.2l-1.3-.8v-2.1l1.3.7zm-1.5-6.6v.5l.4.2m0-3l-.4-.2v.4m1.8 1.1v-.5l-.5-.3m0 3.1l.5.2v-.5m-.3-2.2v2.1l-1.3-.7v-2.2l1.3.8z" clip-path="url(#SVGID_54_)" fill="none" stroke="#9d9d9c" stroke-width=".205" stroke-miterlimit="10"/><defs><path id="SVGID_55_" d="M-139.9-267.9h595.2v842h-595.2z"/></defs><clipPath id="SVGID_56_"><use xlink:href="#SVGID_55_" overflow="visible"/></clipPath><path d="M176 155.3v-.3c.2.1.3 0 .3-.1s0-.2-.1-.2c0-.1-.1-.1-.1-.1h-.2s0 .1-.1.2c0 .1-.1.2-.1.2h-.1c-.1 0-.1 0-.2-.1-.1 0-.1-.1-.2-.2s-.1-.2-.1-.2v-.3c0-.2 0-.3.1-.3h.3v.3h-.2v.3c0 .1.1.1.1.1h.1s.1-.1.1-.2.1-.2.1-.2l.1-.1c.1 0 .1 0 .2.1l.3.3c.1.1.1.3.1.5 0 .4-.1.5-.4.3m-1-1.8v-.8l.1-.1h.2c.1 0 .2.1.3.1.1.1.2.1.3.2l.2.2c.1.1.1.2.1.2v.8m-.9-.7l.9.5v-.4s0-.1-.1-.1l-.1-.1-.2-.2c-.1-.1-.2-.1-.2-.1h-.1s-.1 0-.1.1l-.1.3zm1.1-1.6v.3l-.3-.1v.5l.3.3v.3l-1.4-1.3v-.3m.9.5l-.5-.1.5.5v-.4zm0-5.2l-.2-.1v-.6l.6.3c.1.1.1.2.2.3 0 .1.1.2.1.4 0 .1 0 .2-.1.3s-.1.1-.2.1-.2-.1-.4-.1c-.2-.1-.3-.2-.4-.3-.1-.1-.2-.2-.2-.4-.1-.1-.1-.3-.1-.4 0-.2 0-.3.1-.3.1-.1.2-.1.3 0l.1.3h-.2s-.1.1-.1.2 0 .2.1.3l.3.3c.2.1.3.1.4.1.1 0 .1-.1.1-.2v-.2c0-.1 0-.1-.1-.2l-.2-.1m.4-.2l-1.4-.8v-.2h.9l-.9-.6v-.2l1.4.8v.2l-.9.1.9.5m-1.4-1.9v-.8l.1-.1h.2c.1 0 .2.1.3.1.1.1.2.1.3.2l.2.2c.1.1.1.2.1.2v.8m-.9-.7l.9.5v-.4s0-.1-.1-.1l-.1-.1-.2-.2c-.1-.1-.2-.1-.2-.1h-.1s-.1 0-.1.1l-.1.3zm6.1 14.3v-.3c.2.1.3 0 .3-.1s0-.2-.1-.2c0-.1-.1-.1-.1-.1h-.2s0 .1-.1.2c0 .1-.1.2-.1.2h-.1c-.1 0-.1 0-.2-.1-.1 0-.1-.1-.2-.2s-.1-.2-.1-.2v-.3c0-.2 0-.3.1-.3h.3v.3h-.2v.3c0 .1.1.1.1.1h.1s.1-.1.1-.2.1-.2.1-.2l.1-.1c.1 0 .1 0 .2.1l.3.3c.1.1.1.3.1.5 0 .3-.1.4-.4.3m-.1-2.2l.1-.2c.2.1.3.3.3.4.1.1.1.3.1.4 0 .2-.1.3-.2.3s-.3 0-.5-.1-.4-.3-.6-.5c-.1-.2-.2-.4-.2-.5s0-.2.1-.3h.3l.1.3h-.2l-.1.1c0 .1 0 .2.1.3s.2.2.4.3.3.1.4.1c.1 0 .1-.1.1-.2s0-.1-.1-.2c.1 0 0-.1-.1-.2m.5-.2l-1.4-.8v-.2l1.2.6v-.6l.2.1m-.5-5.1l-.2-.1v-.6l.6.3c.1.1.1.2.2.3 0 .1.1.2.1.4 0 .1 0 .2-.1.3s-.1.1-.2.1-.2-.1-.4-.1c-.2-.1-.3-.2-.4-.3-.1-.1-.2-.2-.2-.4-.1-.1-.1-.3-.1-.4 0-.2 0-.3.1-.3.1-.1.2-.1.3 0l.1.3h-.2s-.1.1-.1.2 0 .2.1.3l.3.3c.2.1.3.1.4.1.1 0 .1-.1.1-.2v-.2c0-.1 0-.1-.1-.2l-.2-.1m.4-.2l-1.4-.8v-.3h1l-1-.5v-.3l1.4.8v.3h-.9l.9.5m-1.4-1.9v-.7l.1-.1h.2c.1 0 .2.1.3.1.1.1.2.1.3.2l.2.2c.1.1.1.2.1.2v.8m-.9-.8l.9.5v-.4s0-.1-.1-.1l-.1-.1-.2-.2c-.1-.1-.2-.1-.2-.1h-.1s-.1 0-.1.1l-.1.3zm.2-9.9l-1.4-.8v-.9l.1-.1c.1 0 .1 0 .2.1s.2.1.3.2c.1.1.1.2.1.3l.1-.1h.5v.3h-.6v.2l.6.3m-.7-.3v-.4s0-.1-.1-.1l-.1-.1h-.1l-.1.1v.4l.4.1zm.5-.7v-.3h.1s.1 0 .1-.1 0-.1-.1-.2c0-.1-.1-.1-.2-.2-.1 0-.1-.1-.2 0 0 0-.1 0-.1.1v.1l-.2-.2v-.2c0-.1-.1-.1-.1-.1h-.1v.2l.1.1v.2l-.3-.3c-.1-.1-.1-.2-.1-.3s0-.2.1-.2h.2c.1 0 .1.1.2.1 0 .1.1.1.1.2 0-.1.1-.1.1-.1.1 0 .1 0 .2.1l.3.3c.1.1.1.3.1.4 0 .1 0 .2-.1.2.1.3 0 .2-.1.2m2.2 2.5l-1.4-.8v-.9l.1-.1c.1 0 .1 0 .2.1s.2.1.3.2c.1.1.1.2.1.3l.1-.1h.5v.3h-.6v.2l.6.3m-.7-.2v-.4s0-.1-.1-.1l-.1-.1h-.1l-.1.1v.4l.4.1z" clip-path="url(#SVGID_56_)" fill="#9d9d9c"/><defs><path id="SVGID_57_" d="M-139.9-267.9h595.2v842h-595.2z"/></defs><clipPath id="SVGID_58_"><use xlink:href="#SVGID_57_" overflow="visible"/></clipPath><path d="M182.5 136.1l.2.1v.9c-.1-.1-.2-.1-.3-.2-.1-.1-.2-.3-.3-.5s-.2-.3-.2-.3l-.2-.2h-.1v.1c0 .1.1.2.2.3v.2l-.3-.3c-.1-.1-.1-.2-.1-.4 0-.1 0-.2.1-.2h.3c.1 0 .1.1.2.1s.1.1.2.2.1.2.2.3c.1.1.1.2.2.2 0 0 0 .1.1.1m1.9 2.9l-1.4-.8v-.9l.1-.1c.1 0 .1 0 .2.1s.2.1.3.2c.1.1.1.2.1.3l.1-.1h.5v.3h-.6v.2l.6.3m-.7-.2v-.4s0-.1-.1-.1l-.1-.1h-.2v.4l.4.2zm.8-1.2v.3l-1-.6c.1.1.2.3.2.4l-.2-.1c0-.1-.1-.2-.1-.3-.1-.1-.1-.2-.2-.3v-.2m8 6.3l-.7-.8h-.6v-.3h.4l-.4-.5v-.3l.6.8.7-.1v.3l-.4.1.4.5m-.2-1.9l.2.1v.9c-.1-.1-.2-.1-.3-.2-.1-.1-.2-.3-.3-.5s-.2-.3-.2-.3l-.2-.2h-.1v.1c0 .1.1.2.2.3v.2l-.3-.3c-.1-.1-.1-.2-.1-.4 0-.1 0-.2.1-.2h.3c.1 0 .1.1.2.1s.1.1.2.2.1.2.2.3c.1.1.1.2.2.2 0 0 0 .1.1.1m-14.2-5.8l-1.2-.6v.4l-.2-.2v-1l.2.1v.4l1.2.7m-.7-.9c-.2-.1-.3-.2-.4-.3-.1-.1-.2-.2-.2-.4-.1-.1-.1-.2-.1-.4s.1-.3.2-.4c.1 0 .3 0 .5.1s.4.3.5.5.2.4.2.5c0 .2-.1.3-.2.4-.1.2-.3.1-.5 0m0-.3c.2.1.3.1.4.1.1 0 .1-.1.1-.2s0-.2-.1-.3-.2-.2-.4-.3-.3-.1-.4-.1c-.1 0-.1.1-.1.2s0 .2.1.3.2.2.4.3m.7-.8l-1.4-.8v-.7c0-.1.1-.1.1-.1.1 0 .2 0 .3.1s.2.1.3.2c.1.1.1.2.1.2v.6l.5.3m-1.1-.7l.4.2v-.3s0-.1-.1-.1l-.1-.1h-.2v.3z" clip-path="url(#SVGID_58_)" fill="#9d9d9c"/><defs><path id="SVGID_59_" d="M-139.9-267.9h595.2v842h-595.2z"/></defs><clipPath id="SVGID_60_"><use xlink:href="#SVGID_59_" overflow="visible"/></clipPath><path d="M176.4 137.1c.6.4 1.2 1.3 1.2 2s-.5 1-1.2.7c-.6-.4-1.2-1.3-1.2-2 .1-.7.6-1 1.2-.7zm18.6 10.7c.6.4 1.2 1.3 1.2 2s-.5 1-1.2.7c-.6-.4-1.2-1.3-1.2-2s.6-1 1.2-.7zm.7-13.6v-1.4l-3.4-1.9m1.3 9.5l2.1 1.3v-1.8" clip-path="url(#SVGID_60_)" fill="none" stroke="#9d9d9c" stroke-width=".205" stroke-miterlimit="10"/><defs><path id="SVGID_61_" d="M-139.9-267.9h595.2v842h-595.2z"/></defs><clipPath id="SVGID_62_"><use xlink:href="#SVGID_61_" overflow="visible"/></clipPath><path d="M191.2 165.6v-19.8l3.5-2.1v-2.6" clip-path="url(#SVGID_62_)" fill="none" stroke="#9d9d9c" stroke-width=".205" stroke-miterlimit="10"/><defs><path id="SVGID_63_" d="M-139.9-267.9h595.2v842h-595.2z"/></defs><clipPath id="SVGID_64_"><use xlink:href="#SVGID_63_" overflow="visible"/></clipPath><path d="M192.9 147.4l3.2-1.9V140m-6.2 24.8v-20.1l2.5-1.4v-3.6m-4.3 24.1v-21.7l1.2-.7v-3.5m-10.9 15.7l2-1.1 1.3.8m1.3 3.4V154m-1.8-11.9l.6-.3 2.7 1.5.5-.2V140l-.9-1.5V135m-8.8-4.5v4.7l2.3 1.4v-4.8l-2.3-1.3z" clip-path="url(#SVGID_64_)" fill="none" stroke="#9d9d9c" stroke-width=".205" stroke-miterlimit="10"/><defs><path id="SVGID_65_" d="M-139.9-267.9h595.2v842h-595.2z"/></defs><clipPath id="SVGID_66_"><use xlink:href="#SVGID_65_" overflow="visible"/></clipPath><path d="M193 140.9l.9-.5.7.4 1.4-.8v-6l-20.5-11.9-1.4.8h-.1l.1 6.1 1.5.8v1l17.4 10.1" clip-path="url(#SVGID_66_)" fill="#f6f6f6"/><defs><path id="SVGID_67_" d="M-139.9-267.9h595.2v842h-595.2z"/></defs><clipPath id="SVGID_68_"><use xlink:href="#SVGID_67_" overflow="visible"/></clipPath><path d="M193 140.9l.9-.5.7.4 1.4-.8v-6h0l-20.5-11.9-1.4.8h-.1l.1 6.1 1.5.8v1l17.4 10.1" clip-path="url(#SVGID_68_)" fill="none" stroke="#000" stroke-width=".412" stroke-linejoin="bevel" stroke-miterlimit="10"/><defs><path id="SVGID_69_" d="M-139.9-267.9h595.2v842h-595.2z"/></defs><clipPath id="SVGID_70_"><use xlink:href="#SVGID_69_" overflow="visible"/></clipPath><path d="M174.7 127.9l19.2 11.3" clip-path="url(#SVGID_70_)" fill="#f0f0f0"/><defs><path id="SVGID_71_" d="M-139.9-267.9h595.2v842h-595.2z"/></defs><clipPath id="SVGID_72_"><use xlink:href="#SVGID_71_" overflow="visible"/></clipPath><path d="M174.7 127.9l19.2 11.3" clip-path="url(#SVGID_72_)" fill="none" stroke="#000" stroke-width=".205" stroke-linejoin="bevel" stroke-miterlimit="10"/><defs><path id="SVGID_73_" d="M-139.9-267.9h595.2v842h-595.2z"/></defs><clipPath id="SVGID_74_"><use xlink:href="#SVGID_73_" overflow="visible"/></clipPath><path d="M174.7 127.9v-3.8" clip-path="url(#SVGID_74_)" fill="#f0f0f0"/><defs><path id="SVGID_75_" d="M-139.9-267.9h595.2v842h-595.2z"/></defs><clipPath id="SVGID_76_"><use xlink:href="#SVGID_75_" overflow="visible"/></clipPath><path d="M174.7 127.9v-3.8" clip-path="url(#SVGID_76_)" fill="none" stroke="#000" stroke-width=".205" stroke-linejoin="bevel" stroke-miterlimit="10"/><defs><path id="SVGID_77_" d="M-139.9-267.9h595.2v842h-595.2z"/></defs><clipPath id="SVGID_78_"><use xlink:href="#SVGID_77_" overflow="visible"/></clipPath><path d="M175.8 127.3l18.1 10.6" clip-path="url(#SVGID_78_)" fill="#f0f0f0"/><defs><path id="SVGID_79_" d="M-139.9-267.9h595.2v842h-595.2z"/></defs><clipPath id="SVGID_80_"><use xlink:href="#SVGID_79_" overflow="visible"/></clipPath><path d="M175.8 127.3l18.1 10.6" clip-path="url(#SVGID_80_)" fill="none" stroke="#000" stroke-width=".205" stroke-linejoin="bevel" stroke-miterlimit="10"/><defs><path id="SVGID_81_" d="M-139.9-267.9h595.2v842h-595.2z"/></defs><clipPath id="SVGID_82_"><use xlink:href="#SVGID_81_" overflow="visible"/></clipPath><path d="M175.8 127.3v-3.1" clip-path="url(#SVGID_82_)" fill="#f0f0f0"/><defs><path id="SVGID_83_" d="M-139.9-267.9h595.2v842h-595.2z"/></defs><clipPath id="SVGID_84_"><use xlink:href="#SVGID_83_" overflow="visible"/></clipPath><path d="M175.8 127.3v-3.1m-.5-.5l-1.3-.8m1.3 1.6l-.6-.4m.6.4l.1-.8m-.1 0l1.2-.6m-1.2 1.4l1.2-.7m0 0v-.7m-.7 4.2l-1.1.6" clip-path="url(#SVGID_84_)" fill="none" stroke="#000" stroke-width=".205" stroke-linejoin="bevel" stroke-miterlimit="10"/><defs><path id="SVGID_85_" d="M-139.9-267.9h595.2v842h-595.2z"/></defs><clipPath id="SVGID_86_"><use xlink:href="#SVGID_85_" overflow="visible"/></clipPath><path d="M174.8 124v3.2l18 10.4 1.6-.9v-3.2l-18-10.5" clip-path="url(#SVGID_86_)" fill="#f6f6f6"/><defs><path id="SVGID_87_" d="M-139.9-267.9h595.2v842h-595.2z"/></defs><clipPath id="SVGID_88_"><use xlink:href="#SVGID_87_" overflow="visible"/></clipPath><path d="M174.8 124v3.2l18 10.4 1.6-.9v-3.2l-18-10.5" clip-path="url(#SVGID_88_)" fill="none" stroke="#000" stroke-width=".205" stroke-linejoin="bevel" stroke-miterlimit="10"/><defs><path id="SVGID_89_" d="M-139.9-267.9h595.2v842h-595.2z"/></defs><clipPath id="SVGID_90_"><use xlink:href="#SVGID_89_" overflow="visible"/></clipPath><path d="M178.3 128.1v-.9l-2.7-1.6v.9l2.7 1.6zm3.4 2v-1l-2.7-1.6v1l2.7 1.6zm3.4 1.9v-.9l-2.8-1.6v.9l2.8 1.6zm3.3 2v-1l-2.7-1.6v1l2.7 1.6zm3.4 1.9v-.9l-2.7-1.6v.9l2.7 1.6zm2.6-2.4l-1.6.9m-18-10.4l1.6-1m16.4 11.4v3.2m0-3.2l-18-10.4" clip-path="url(#SVGID_90_)" fill="none" stroke="#000" stroke-width=".205" stroke-linejoin="bevel" stroke-miterlimit="10"/><defs><path id="SVGID_91_" d="M-139.9-267.9h595.2v842h-595.2z"/></defs><clipPath id="SVGID_92_"><use xlink:href="#SVGID_91_" overflow="visible"/></clipPath><path d="M193 139.9l.9.5" clip-path="url(#SVGID_92_)" fill="#f0f0f0"/><defs><path id="SVGID_93_" d="M-139.9-267.9h595.2v842h-595.2z"/></defs><clipPath id="SVGID_94_"><use xlink:href="#SVGID_93_" overflow="visible"/></clipPath><path d="M193 139.9l.9.5m-.9-.5v1" clip-path="url(#SVGID_94_)" fill="none" stroke="#000" stroke-width=".205" stroke-linejoin="bevel" stroke-miterlimit="10"/><defs><path id="SVGID_95_" d="M-139.9-267.9h595.2v842h-595.2z"/></defs><clipPath id="SVGID_96_"><use xlink:href="#SVGID_95_" overflow="visible"/></clipPath><path d="M175.5 122.1L196 134v6l-1.4.8-1.6-.9.9-.7v-4l-.6-.3v-.8l1.1-.6-17.9-10.4" clip-path="url(#SVGID_96_)" fill="#f6f6f6"/><defs><path id="SVGID_97_" d="M-139.9-267.9h595.2v842h-595.2z"/></defs><clipPath id="SVGID_98_"><use xlink:href="#SVGID_97_" overflow="visible"/></clipPath><path d="M175.5 122.1L196 134v6l-1.4.8-1.6-.9" clip-path="url(#SVGID_98_)" fill="none" stroke="#000" stroke-width=".205" stroke-miterlimit="10"/><defs><path id="SVGID_99_" d="M-139.9-267.9h595.2v842h-595.2z"/></defs><clipPath id="SVGID_100_"><use xlink:href="#SVGID_99_" overflow="visible"/></clipPath><path d="M194.6 134.9l1.4-.9" clip-path="url(#SVGID_100_)" fill="none" stroke="#000" stroke-width=".205" stroke-linejoin="bevel" stroke-miterlimit="10"/><defs><path id="SVGID_101_" d="M-139.9-267.9h595.2v842h-595.2z"/></defs><clipPath id="SVGID_102_"><use xlink:href="#SVGID_101_" overflow="visible"/></clipPath><path d="M193.9 135.2v4" clip-path="url(#SVGID_102_)" fill="#f0f0f0"/><defs><path id="SVGID_103_" d="M-139.9-267.9h595.2v842h-595.2z"/></defs><clipPath id="SVGID_104_"><use xlink:href="#SVGID_103_" overflow="visible"/></clipPath><path d="M193.9 135.2v4" clip-path="url(#SVGID_104_)" fill="none" stroke="#000" stroke-width=".205" stroke-linejoin="bevel" stroke-miterlimit="10"/><defs><path id="SVGID_105_" d="M-139.9-267.9h595.2v842h-595.2z"/></defs><clipPath id="SVGID_106_"><use xlink:href="#SVGID_105_" overflow="visible"/></clipPath><path d="M194.6 140.8v-5.9" clip-path="url(#SVGID_106_)" fill="#f0f0f0"/><defs><path id="SVGID_107_" d="M-139.9-267.9h595.2v842h-595.2z"/></defs><clipPath id="SVGID_108_"><use xlink:href="#SVGID_107_" overflow="visible"/></clipPath><path d="M194.6 140.8v-5.9" clip-path="url(#SVGID_108_)" fill="none" stroke="#000" stroke-width=".205" stroke-linejoin="bevel" stroke-miterlimit="10"/><defs><path id="SVGID_109_" d="M-139.9-267.9h595.2v842h-595.2z"/></defs><clipPath id="SVGID_110_"><use xlink:href="#SVGID_109_" overflow="visible"/></clipPath><path d="M193 139.9l.9.5" clip-path="url(#SVGID_110_)" fill="#f0f0f0"/><defs><path id="SVGID_111_" d="M-139.9-267.9h595.2v842h-595.2z"/></defs><clipPath id="SVGID_112_"><use xlink:href="#SVGID_111_" overflow="visible"/></clipPath><path d="M193 139.9l.9.5m-.6-6.3l1.1-.6m.2 1.4l1.4-.9" clip-path="url(#SVGID_112_)" fill="none" stroke="#000" stroke-width=".205" stroke-linejoin="bevel" stroke-miterlimit="10"/><defs><path id="SVGID_113_" d="M-139.9-267.9h595.2v842h-595.2z"/></defs><clipPath id="SVGID_114_"><use xlink:href="#SVGID_113_" overflow="visible"/></clipPath><path d="M194.6 140.8v-5.9" clip-path="url(#SVGID_114_)" fill="#f0f0f0"/><defs><path id="SVGID_115_" d="M-139.9-267.9h595.2v842h-595.2z"/></defs><clipPath id="SVGID_116_"><use xlink:href="#SVGID_115_" overflow="visible"/></clipPath><path d="M194.6 140.8v-5.9m0 0l-1.3-.8m.6 1.1l-.6-.3m0 0v-.8m-.3 5.8v1" clip-path="url(#SVGID_116_)" fill="none" stroke="#000" stroke-width=".205" stroke-linejoin="bevel" stroke-miterlimit="10"/><defs><path id="SVGID_117_" d="M-139.9-267.9h595.2v842h-595.2z"/></defs><clipPath id="SVGID_118_"><use xlink:href="#SVGID_117_" overflow="visible"/></clipPath><path d="M193.9 139.2v-4l-.6-.3v-.8l1.1-.6-17.9-10.4" clip-path="url(#SVGID_118_)" fill="none" stroke="#000" stroke-width=".205" stroke-miterlimit="10"/></g></g></g></g><defs><path id="SVGID_119_" d="M17.1 5.3h257.2v257.2H17.1z"/></defs><clipPath id="SVGID_120_"><use xlink:href="#SVGID_119_" overflow="visible"/></clipPath><g clip-path="url(#SVGID_120_)"><defs><path id="SVGID_121_" d="M1.8-5.1h331.7v245.8H1.8z"/></defs><clipPath id="SVGID_122_"><use xlink:href="#SVGID_121_" overflow="visible"/></clipPath><g clip-path="url(#SVGID_122_)"><defs><path id="SVGID_123_" d="M1.8-7.1h331.7v293.4H1.8z"/></defs><clipPath id="SVGID_124_"><use xlink:href="#SVGID_123_" overflow="visible"/></clipPath><g clip-path="url(#SVGID_124_)"><defs><path id="SVGID_125_" d="M-139.9-267.9h595.2v842h-595.2z"/></defs><clipPath id="SVGID_126_"><use xlink:href="#SVGID_125_" overflow="visible"/></clipPath><path d="M63.6 248.1v9.2h164V246l-80.2-46.3" clip-path="url(#SVGID_126_)" fill="#fff"/></g></g></g><defs><path id="SVGID_127_" d="M63.6 183.8h164v73.5h-164z"/></defs><clipPath id="SVGID_128_"><use xlink:href="#SVGID_127_" overflow="visible"/></clipPath><g clip-path="url(#SVGID_128_)"><defs><path id="SVGID_129_" d="M17.1 5.3h257.2v257.2H17.1z"/></defs><clipPath id="SVGID_130_"><use xlink:href="#SVGID_129_" overflow="visible"/></clipPath><g clip-path="url(#SVGID_130_)"><defs><path id="SVGID_131_" d="M1.8-5.1h331.7v245.8H1.8z"/></defs><clipPath id="SVGID_132_"><use xlink:href="#SVGID_131_" overflow="visible"/></clipPath><g clip-path="url(#SVGID_132_)"><defs><path id="SVGID_133_" d="M1.8-7.1h331.7v293.4H1.8z"/></defs><clipPath id="SVGID_134_"><use xlink:href="#SVGID_133_" overflow="visible"/></clipPath><g clip-path="url(#SVGID_134_)"><defs><path id="SVGID_135_" d="M-139.9-267.9h595.2v842h-595.2z"/></defs><clipPath id="SVGID_136_"><use xlink:href="#SVGID_135_" overflow="visible"/></clipPath><path d="M144.8 361.6l-137-79.1v-2.2l139.6-80.6 137 79.1v2.2l-139.6 80.6" clip-path="url(#SVGID_136_)" fill="none" stroke="#9d9d9c" stroke-width=".205" stroke-miterlimit="10"/><defs><path id="SVGID_137_" d="M-139.9-267.9h595.2v842h-595.2z"/></defs><clipPath id="SVGID_138_"><use xlink:href="#SVGID_137_" overflow="visible"/></clipPath><path d="M160.1 226.9c.8.4.9 1.1.2 1.5s-1.8.3-2.6-.1-.9-1.1-.2-1.5c.6-.4 1.8-.3 2.6.1zm-9.4 5.4c.8.4.9 1.1.2 1.5s-1.8.3-2.6-.1-.9-1.1-.2-1.5 1.9-.3 2.6.1z" clip-path="url(#SVGID_138_)" fill="none" stroke="#9d9d9c" stroke-width=".205" stroke-linecap="round" stroke-linejoin="round" stroke-miterlimit="10"/><defs><path id="SVGID_139_" d="M-139.9-267.9h595.2v842h-595.2z"/></defs><clipPath id="SVGID_140_"><use xlink:href="#SVGID_139_" overflow="visible"/></clipPath><path d="M152.9 229.2h.1l.1-.1h.1l.1-.1h.2l.2-.1h.4l.1.3-.1.1h-.5l-.1.1h-.1l-.1.1-.1.1-.1.1-.1.1v.4l.1.1.1.2.1.1.2.1.2.1.2.1.2.1h1.2l.2-.1.2-.1.1-.1h.1v-.1l.1-.1v-.1l.6.1v.1l-.1.1-.1.1v.1h-.1v.1h-.1l-.1.1-.2.1-.3.1h-.3l-.3.1h-.4l-.3-.1h-.3l-.3-.1-.3-.1h-.1l-2.4 1.3-.4-.2 2.4-1.4h-.1l-.1-.2-.2-.2-.1-.2v-.5l.1-.2.2-.2" clip-path="url(#SVGID_140_)" fill="#f0f0f1"/><defs><path id="SVGID_141_" d="M-139.9-267.9h595.2v842h-595.2z"/></defs><clipPath id="SVGID_142_"><use xlink:href="#SVGID_141_" overflow="visible"/></clipPath><path d="M152.9 229.2h.1l.1-.1h.1l.1-.1h.2l.2-.1h.4l.1.3-.1.1h-.5l-.1.1h-.1l-.1.1-.1.1-.1.1-.1.1v.4l.1.1.1.2.1.1.2.1.2.1.2.1.2.1h1.2l.2-.1.2-.1.1-.1h.1v-.1l.1-.1v-.1l.6.1v.1l-.1.1-.1.1v.1h-.1v.1h-.1l-.1.1-.2.1-.3.1h-.3l-.3.1h-.4l-.3-.1h-.3l-.3-.1-.3-.1h-.1l-2.4 1.3-.4-.2 2.4-1.4h-.1l-.1-.2-.2-.2-.1-.2v-.5l.1-.2.2-.2.2-.1z" clip-path="url(#SVGID_142_)" fill="none" stroke="#9d9d9c" stroke-width=".205" stroke-miterlimit="10"/><defs><path id="SVGID_143_" d="M-139.9-267.9h595.2v842h-595.2z"/></defs><clipPath id="SVGID_144_"><use xlink:href="#SVGID_143_" overflow="visible"/></clipPath><path d="M158.1 227.4l.3-.2.4.2.4-.2.3.2-.3.2.4.3-.3.2-.4-.3-.4.2-.4-.2.4-.2" clip-path="url(#SVGID_144_)" fill="#f0f0f1"/><defs><path id="SVGID_145_" d="M-139.9-267.9h595.2v842h-595.2z"/></defs><clipPath id="SVGID_146_"><use xlink:href="#SVGID_145_" overflow="visible"/></clipPath><path d="M158.1 227.4l.3-.2.4.2.4-.2.3.2-.3.2.4.3-.3.2-.4-.3-.4.2-.4-.2.4-.2-.4-.2z" clip-path="url(#SVGID_146_)" fill="none" stroke="#9d9d9c" stroke-width=".205" stroke-miterlimit="10"/><defs><path id="SVGID_147_" d="M-139.9-267.9h595.2v842h-595.2z"/></defs><clipPath id="SVGID_148_"><use xlink:href="#SVGID_147_" overflow="visible"/></clipPath><path d="M154.1 229.9h.1l.1-.1h.3l2.8-1.6.5.2-2.8 1.7v.1l-.1.1-.1.1h-.6l-.1-.1h-.1v-.1h-.1v-.2l.1-.1" clip-path="url(#SVGID_148_)" fill="#f0f0f1"/><defs><path id="SVGID_149_" d="M-139.9-267.9h595.2v842h-595.2z"/></defs><clipPath id="SVGID_150_"><use xlink:href="#SVGID_149_" overflow="visible"/></clipPath><path d="M154.1 229.9h.1l.1-.1h.3l2.8-1.6.5.2-2.8 1.7v.1l-.1.1-.1.1h-.6l-.1-.1h-.1v-.1h-.1v-.2l.1-.1h0z" clip-path="url(#SVGID_150_)" fill="none" stroke="#9d9d9c" stroke-width=".205" stroke-miterlimit="10"/><defs><path id="SVGID_151_" d="M-139.9-267.9h595.2v842h-595.2z"/></defs><clipPath id="SVGID_152_"><use xlink:href="#SVGID_151_" overflow="visible"/></clipPath><path d="M149.3 203.5c1.3.7 1.4 1.8.3 2.5-1.1.6-3 .6-4.3-.2-1.3-.7-1.4-1.8-.3-2.5 1.1-.6 3-.5 4.3.2z" clip-path="url(#SVGID_152_)" fill="none" stroke="#9d9d9c" stroke-width=".205" stroke-linecap="round" stroke-linejoin="round" stroke-miterlimit="10"/><defs><path id="SVGID_153_" d="M-139.9-267.9h595.2v842h-595.2z"/></defs><clipPath id="SVGID_154_"><use xlink:href="#SVGID_153_" overflow="visible"/></clipPath><path d="M145 205.5c1.1-.6 3-.6 4.3.2.2.1.3.2.4.3m-63.9 36.1c1.3.7 1.4 1.8.3 2.5-1.1.6-3 .6-4.3-.2-1.3-.7-1.4-1.8-.3-2.5s3-.6 4.3.2z" clip-path="url(#SVGID_154_)" fill="none" stroke="#9d9d9c" stroke-width=".205" stroke-linecap="round" stroke-linejoin="round" stroke-miterlimit="10"/><defs><path id="SVGID_155_" d="M-139.9-267.9h595.2v842h-595.2z"/></defs><clipPath id="SVGID_156_"><use xlink:href="#SVGID_155_" overflow="visible"/></clipPath><path d="M216.5 242.7c0-.5.3-1 .9-1.4 1.4-.8 3.7-.7 5.3.2.8.5 1.3 1.1 1.3 1.7v4.9c0 .5-.3 1-.9 1.3-1.4.8-3.7.7-5.3-.2-.9-.5-1.3-1.1-1.3-1.7v-4.8" clip-path="url(#SVGID_156_)" fill="#fff"/><defs><path id="SVGID_157_" d="M-139.9-267.9h595.2v842h-595.2z"/></defs><clipPath id="SVGID_158_"><use xlink:href="#SVGID_157_" overflow="visible"/></clipPath><path d="M216.5 242.7c0-.5.3-1 .9-1.4 1.4-.8 3.7-.7 5.3.2.8.5 1.3 1.1 1.3 1.7v4.9c0 .5-.3 1-.9 1.3-1.4.8-3.7.7-5.3-.2-.9-.5-1.3-1.1-1.3-1.7v-4.8h0z" clip-path="url(#SVGID_158_)" fill="none" stroke="#9d9d9c" stroke-width=".205" stroke-miterlimit="10"/><defs><path id="SVGID_159_" d="M-139.9-267.9h595.2v842h-595.2z"/></defs><clipPath id="SVGID_160_"><use xlink:href="#SVGID_159_" overflow="visible"/></clipPath><path d="M222.7 241.6c1.6.9 1.7 2.3.4 3.1s-3.7.7-5.3-.2-1.7-2.3-.4-3.1c1.4-.8 3.7-.7 5.3.2z" clip-path="url(#SVGID_160_)" fill="none" stroke="#9d9d9c" stroke-width=".205" stroke-linecap="round" stroke-linejoin="round" stroke-miterlimit="10"/><defs><path id="SVGID_161_" d="M-139.9-267.9h595.2v842h-595.2z"/></defs><clipPath id="SVGID_162_"><use xlink:href="#SVGID_161_" overflow="visible"/></clipPath><path d="M221.7 242.1c.9.5 1 1.3.2 1.8s-2.2.4-3.1-.1c-.9-.5-1-1.3-.2-1.8s2.2-.4 3.1.1z" clip-path="url(#SVGID_162_)" fill="none" stroke="#9d9d9c" stroke-width=".205" stroke-linecap="round" stroke-linejoin="round" stroke-miterlimit="10"/><defs><path id="SVGID_163_" d="M-139.9-267.9h595.2v842h-595.2z"/></defs><clipPath id="SVGID_164_"><use xlink:href="#SVGID_163_" overflow="visible"/></clipPath><path d="M216.5 242.7c0-.5.3-1 .9-1.4 1.4-.8 3.7-.7 5.3.2.8.5 1.3 1.1 1.3 1.7v4.9c0 .5-.3 1-.9 1.3-1.4.8-3.7.7-5.3-.2-.9-.5-1.3-1.1-1.3-1.7v-4.8h0z" clip-path="url(#SVGID_164_)" fill="none" stroke="#9d9d9c" stroke-width=".205" stroke-linecap="round" stroke-linejoin="round" stroke-miterlimit="10"/><defs><path id="SVGID_165_" d="M-139.9-267.9h595.2v842h-595.2z"/></defs><clipPath id="SVGID_166_"><use xlink:href="#SVGID_165_" overflow="visible"/></clipPath><path d="M139.7 220.5l1.7-1 3.4 2v1l-1.6.9-3.5-2" clip-path="url(#SVGID_166_)" fill="#fff"/><defs><path id="SVGID_167_" d="M-139.9-267.9h595.2v842h-595.2z"/></defs><clipPath id="SVGID_168_"><use xlink:href="#SVGID_167_" overflow="visible"/></clipPath><path d="M139.7 220.5l1.7-1 3.4 2v1l-1.6.9-3.5-2v-.9z" clip-path="url(#SVGID_168_)" fill="none" stroke="#9d9d9c" stroke-width=".205" stroke-miterlimit="10"/><defs><path id="SVGID_169_" d="M-139.9-267.9h595.2v842h-595.2z"/></defs><clipPath id="SVGID_170_"><use xlink:href="#SVGID_169_" overflow="visible"/></clipPath><path d="M139.7 220.5l3.5 2 1.6-1" clip-path="url(#SVGID_170_)" fill="none" stroke="#9d9d9c" stroke-width=".205" stroke-linecap="round" stroke-linejoin="round" stroke-miterlimit="10"/><defs><path id="SVGID_171_" d="M-139.9-267.9h595.2v842h-595.2z"/></defs><clipPath id="SVGID_172_"><use xlink:href="#SVGID_171_" overflow="visible"/></clipPath><path d="M139.7 220.5l1.7-1 3.4 2v1l-1.6.9-3.5-2v-.9zm3.5 2.9v-.9" clip-path="url(#SVGID_172_)" fill="none" stroke="#9d9d9c" stroke-width=".205" stroke-linecap="round" stroke-linejoin="round" stroke-miterlimit="10"/><defs><path id="SVGID_173_" d="M-139.9-267.9h595.2v842h-595.2z"/></defs><clipPath id="SVGID_174_"><use xlink:href="#SVGID_173_" overflow="visible"/></clipPath><path d="M244.7 281.6l-26.1-14.8v-19.7l22-12.7 26.1 14.8v19.7" clip-path="url(#SVGID_174_)" fill="#fff"/><defs><path id="SVGID_175_" d="M-139.9-267.9h595.2v842h-595.2z"/></defs><clipPath id="SVGID_176_"><use xlink:href="#SVGID_175_" overflow="visible"/></clipPath><path d="M244.7 281.6l-26.1-14.8v-19.7l22-12.7 26.1 14.8v19.7l-22 12.7-26.1-14.8v-19.7l22-12.7 26.1 14.8v19.7l-22 12.7" clip-path="url(#SVGID_176_)" fill="none" stroke="#9d9d9c" stroke-width=".205" stroke-miterlimit="10"/><defs><path id="SVGID_177_" d="M-139.9-267.9h595.2v842h-595.2z"/></defs><clipPath id="SVGID_178_"><use xlink:href="#SVGID_177_" overflow="visible"/></clipPath><path d="M244.7 261.9l-26.1-14.8 22-12.7 26.1 14.8-22 12.7" clip-path="url(#SVGID_178_)" fill="none" stroke="#9d9d9c" stroke-width=".205" stroke-linecap="round" stroke-linejoin="round" stroke-miterlimit="10"/><defs><path id="SVGID_179_" d="M-139.9-267.9h595.2v842h-595.2z"/></defs><clipPath id="SVGID_180_"><use xlink:href="#SVGID_179_" overflow="visible"/></clipPath><path d="M145 209l10.7-6.2v-1.5l1.7-.9 1.3.7.8-.4v-1.5l1.7-1 14.5 8.4v8.7l-1.7 1-1.3-.8-.8.5v1.5l-1.6.9-1.3-.7-8 4.6-1-.6-4 2.3-11-6.3" clip-path="url(#SVGID_180_)" fill="#fff"/><defs><path id="SVGID_181_" d="M-139.9-267.9h595.2v842h-595.2z"/></defs><clipPath id="SVGID_182_"><use xlink:href="#SVGID_181_" overflow="visible"/></clipPath><path d="M145 209l10.7-6.2v-1.5l1.7-.9 1.3.7.8-.4v-1.5l1.7-1 14.5 8.4v8.7l-1.7 1-1.3-.8-.8.5v1.5l-1.6.9-1.3-.7-8 4.6-1-.6-4 2.3-11-6.3V209" clip-path="url(#SVGID_182_)" fill="none" stroke="#9d9d9c" stroke-width=".205" stroke-miterlimit="10"/><defs><path id="SVGID_183_" d="M-139.9-267.9h595.2v842h-595.2z"/></defs><clipPath id="SVGID_184_"><use xlink:href="#SVGID_183_" overflow="visible"/></clipPath><path d="M175.7 206.6l-1.7.9m0 0l-1.3-.7-2.1 1.2 1.3.8-1.6.9-1.3-.7-8 4.6-1-.6-4 2.3-11-6.3m29-1.5v8.8m-3.7-6.6v8.7m1.6-2.4v-7.3m-2.9 9V209m-8 4.6v8.7m-1-.6V213m-4 2.3v8.7m-.3-22.7l1.3.8-1.3.7m3.8-3.6l1.3.7m0 0l-1.3.7" clip-path="url(#SVGID_184_)" fill="none" stroke="#9d9d9c" stroke-width=".205" stroke-linecap="round" stroke-linejoin="round" stroke-miterlimit="10"/><defs><path id="SVGID_185_" d="M-139.9-267.9h595.2v842h-595.2z"/></defs><clipPath id="SVGID_186_"><use xlink:href="#SVGID_185_" overflow="visible"/></clipPath><path d="M145 209l10.7-6.2v-1.5l1.7-.9 1.3.7.8-.4v-1.5l1.7-1 14.5 8.4v8.7l-1.7 1-1.3-.8-.8.5v1.5l-1.6.9-1.3-.7-8 4.6-1-.6-4 2.3-11-6.3V209" clip-path="url(#SVGID_186_)" fill="none" stroke="#9d9d9c" stroke-width=".205" stroke-linecap="round" stroke-linejoin="round" stroke-miterlimit="10"/><defs><path id="SVGID_187_" d="M-139.9-267.9h595.2v842h-595.2z"/></defs><clipPath id="SVGID_188_"><use xlink:href="#SVGID_187_" overflow="visible"/></clipPath><path d="M108.9 221.9l20 11.6v7.4l-9.4 5.4-14.2-8.2v-2.6l-6.4-3.7-2.3 1.2-2.1-1.2v-3.2l-1.5-.9c-.3-.4-.5-.9-.5-1.6 0-2.1 1.7-4.9 3.9-6.1 1.3-.8 2.5-.8 3.2-.1l1.4.9 2.9-1.7 2.2 1.3v2.6l.5.3 2.3-1.4" clip-path="url(#SVGID_188_)" fill="#fff"/><defs><path id="SVGID_189_" d="M-139.9-267.9h595.2v842h-595.2z"/></defs><clipPath id="SVGID_190_"><use xlink:href="#SVGID_189_" overflow="visible"/></clipPath><path d="M108.9 221.9l20 11.6v7.4l-9.4 5.4-14.2-8.2v-2.6l-6.4-3.7-2.3 1.2-2.1-1.2v-3.2l-1.5-.9c-.3-.4-.5-.9-.5-1.6 0-2.1 1.7-4.9 3.9-6.1 1.3-.8 2.5-.8 3.2-.1l1.4.9 2.9-1.7 2.2 1.3v2.6l.5.3 2.3-1.4" clip-path="url(#SVGID_190_)" fill="none" stroke="#9d9d9c" stroke-width=".205" stroke-miterlimit="10"/><defs><path id="SVGID_191_" d="M-139.9-267.9h595.2v842h-595.2z"/></defs><clipPath id="SVGID_192_"><use xlink:href="#SVGID_191_" overflow="visible"/></clipPath><path d="M119.6 246.3v-7.4m-14.2-8.2l2.3-1.2-8.7-5-2.3 1.2m0 0v7.4m8.7 2.4v-4.8m0 0l14.2 8.2 9.3-5.4m-34.3-9l2.1 1.2m2.3 6.2v-7.4m4.9-2.9l2.3 1.3m0-2.5l-2.3 1.2m-9.3 2.9l6.5-3.8m-6.5 8v-4.2" clip-path="url(#SVGID_192_)" fill="none" stroke="#9d9d9c" stroke-width=".205" stroke-linecap="round" stroke-linejoin="round" stroke-miterlimit="10"/><defs><path id="SVGID_193_" d="M-139.9-267.9h595.2v842h-595.2z"/></defs><clipPath id="SVGID_194_"><use xlink:href="#SVGID_193_" overflow="visible"/></clipPath><path d="M108.9 221.9l20 11.6v7.4l-9.4 5.4-14.2-8.2v-2.6l-6.4-3.7-2.3 1.2-2.1-1.2v-3.2l-1.5-.9c-.3-.4-.5-.9-.5-1.6 0-2.1 1.7-4.9 3.9-6.1 1.3-.8 2.5-.8 3.2-.1l1.4.9 2.9-1.7 2.2 1.3v2.6l.5.3 2.3-1.4" clip-path="url(#SVGID_194_)" fill="none" stroke="#9d9d9c" stroke-width=".205" stroke-linecap="round" stroke-linejoin="round" stroke-miterlimit="10"/><defs><path id="SVGID_195_" d="M-139.9-267.9h595.2v842h-595.2z"/></defs><clipPath id="SVGID_196_"><use xlink:href="#SVGID_195_" overflow="visible"/></clipPath><path d="M199 266.1l-14 8-2.1-1.2V271L143 247.9l-1.7 1-2.1-1.2v-6.5l12-6.9 2 1.2v1.5l40.3 23.2 1.4-.7 2.1 1.2v2.1l2 1.1" clip-path="url(#SVGID_196_)" fill="#fff"/><defs><path id="SVGID_197_" d="M-139.9-267.9h595.2v842h-595.2z"/></defs><clipPath id="SVGID_198_"><use xlink:href="#SVGID_197_" overflow="visible"/></clipPath><path d="M199 266.1l-14 8-2.1-1.2V271L143 247.9l-1.7 1-2.1-1.2v-6.5l12-6.9 2 1.2v1.5l40.3 23.2 1.4-.7 2.1 1.2v2.1l2 1.1v2.2z" clip-path="url(#SVGID_198_)" fill="none" stroke="#9d9d9c" stroke-width=".205" stroke-miterlimit="10"/><defs><path id="SVGID_199_" d="M-139.9-267.9h595.2v842h-595.2z"/></defs><clipPath id="SVGID_200_"><use xlink:href="#SVGID_199_" overflow="visible"/></clipPath><path d="M153.2 235.5l-1.2.7m33 31.4l-2.1-1.2 1.7-1-41.6-24-1.7 1m1.7 5.5v-6.5" clip-path="url(#SVGID_200_)" fill="none" stroke="#9d9d9c" stroke-width=".205" stroke-linecap="round" stroke-linejoin="round" stroke-miterlimit="10"/><defs><path id="SVGID_201_" d="M-139.9-267.9h595.2v842h-595.2z"/></defs><clipPath id="SVGID_202_"><use xlink:href="#SVGID_201_" overflow="visible"/></clipPath><path d="M199 266.1l-14 8-2.1-1.2V271L143 247.9l-1.7 1-2.1-1.2v-6.5l12-6.9 2 1.2v1.5l40.3 23.2 1.4-.7 2.1 1.2v2.1l2 1.1v2.2zM153.2 237l-1.3-.8" clip-path="url(#SVGID_202_)" fill="none" stroke="#9d9d9c" stroke-width=".205" stroke-linecap="round" stroke-linejoin="round" stroke-miterlimit="10"/><defs><path id="SVGID_203_" d="M-139.9-267.9h595.2v842h-595.2z"/></defs><clipPath id="SVGID_204_"><use xlink:href="#SVGID_203_" overflow="visible"/></clipPath><path d="M148 224.3l-2.9-1.7-4.8 2.8v1.3l2.9 1.6 4.8-2.7" clip-path="url(#SVGID_204_)" fill="#fff"/><defs><path id="SVGID_205_" d="M-139.9-267.9h595.2v842h-595.2z"/></defs><clipPath id="SVGID_206_"><use xlink:href="#SVGID_205_" overflow="visible"/></clipPath><path d="M148 224.3l-2.9-1.7-4.8 2.8v1.3l2.9 1.6 4.8-2.7v-1.3z" clip-path="url(#SVGID_206_)" fill="none" stroke="#9d9d9c" stroke-width=".205" stroke-miterlimit="10"/><defs><path id="SVGID_207_" d="M-139.9-267.9h595.2v842h-595.2z"/></defs><clipPath id="SVGID_208_"><use xlink:href="#SVGID_207_" overflow="visible"/></clipPath><path d="M148 224.3l-4.8 2.7-2.9-1.6" clip-path="url(#SVGID_208_)" fill="none" stroke="#9d9d9c" stroke-width=".205" stroke-linecap="round" stroke-linejoin="round" stroke-miterlimit="10"/><defs><path id="SVGID_209_" d="M-139.9-267.9h595.2v842h-595.2z"/></defs><clipPath id="SVGID_210_"><use xlink:href="#SVGID_209_" overflow="visible"/></clipPath><path d="M148 224.3l-2.9-1.7-4.8 2.8v1.3l2.9 1.6 4.8-2.7v-1.3zm-4.8 4V227" clip-path="url(#SVGID_210_)" fill="none" stroke="#9d9d9c" stroke-width=".205" stroke-linecap="round" stroke-linejoin="round" stroke-miterlimit="10"/><defs><path id="SVGID_211_" d="M-139.9-267.9h595.2v842h-595.2z"/></defs><clipPath id="SVGID_212_"><use xlink:href="#SVGID_211_" overflow="visible"/></clipPath><path d="M128.7 225.7l1.6-.9 3.5 2v.9l-1.7 1-3.4-2" clip-path="url(#SVGID_212_)" fill="#fff"/><defs><path id="SVGID_213_" d="M-139.9-267.9h595.2v842h-595.2z"/></defs><clipPath id="SVGID_214_"><use xlink:href="#SVGID_213_" overflow="visible"/></clipPath><path d="M128.7 225.7l1.6-.9 3.5 2v.9l-1.7 1-3.4-2v-1z" clip-path="url(#SVGID_214_)" fill="none" stroke="#9d9d9c" stroke-width=".205" stroke-miterlimit="10"/><defs><path id="SVGID_215_" d="M-139.9-267.9h595.2v842h-595.2z"/></defs><clipPath id="SVGID_216_"><use xlink:href="#SVGID_215_" overflow="visible"/></clipPath><path d="M128.7 225.7l3.4 2 1.7-.9" clip-path="url(#SVGID_216_)" fill="none" stroke="#9d9d9c" stroke-width=".205" stroke-linecap="round" stroke-linejoin="round" stroke-miterlimit="10"/><defs><path id="SVGID_217_" d="M-139.9-267.9h595.2v842h-595.2z"/></defs><clipPath id="SVGID_218_"><use xlink:href="#SVGID_217_" overflow="visible"/></clipPath><path d="M128.7 225.7l1.6-.9 3.5 2v.9l-1.7 1-3.4-2v-1zm3.4 3v-1" clip-path="url(#SVGID_218_)" fill="none" stroke="#9d9d9c" stroke-width=".205" stroke-linecap="round" stroke-linejoin="round" stroke-miterlimit="10"/><defs><path id="SVGID_219_" d="M-139.9-267.9h595.2v842h-595.2z"/></defs><clipPath id="SVGID_220_"><use xlink:href="#SVGID_219_" overflow="visible"/></clipPath><path d="M127.8 212.3l1.5-.9 3.1 1.8v.9l-1.5.8-3.1-1.8" clip-path="url(#SVGID_220_)" fill="#fff"/><defs><path id="SVGID_221_" d="M-139.9-267.9h595.2v842h-595.2z"/></defs><clipPath id="SVGID_222_"><use xlink:href="#SVGID_221_" overflow="visible"/></clipPath><path d="M127.8 212.3l1.5-.9 3.1 1.8v.9l-1.5.8-3.1-1.8v-.8z" clip-path="url(#SVGID_222_)" fill="none" stroke="#9d9d9c" stroke-width=".205" stroke-miterlimit="10"/><defs><path id="SVGID_223_" d="M-139.9-267.9h595.2v842h-595.2z"/></defs><clipPath id="SVGID_224_"><use xlink:href="#SVGID_223_" overflow="visible"/></clipPath><path d="M127.8 212.3l3.1 1.8 1.5-.9" clip-path="url(#SVGID_224_)" fill="none" stroke="#9d9d9c" stroke-width=".205" stroke-linecap="round" stroke-linejoin="round" stroke-miterlimit="10"/><defs><path id="SVGID_225_" d="M-139.9-267.9h595.2v842h-595.2z"/></defs><clipPath id="SVGID_226_"><use xlink:href="#SVGID_225_" overflow="visible"/></clipPath><path d="M127.8 212.3l1.5-.9 3.1 1.8v.9l-1.5.8-3.1-1.8v-.8zm3.1 2.6v-.8" clip-path="url(#SVGID_226_)" fill="none" stroke="#9d9d9c" stroke-width=".205" stroke-linecap="round" stroke-linejoin="round" stroke-miterlimit="10"/><defs><path id="SVGID_227_" d="M-139.9-267.9h595.2v842h-595.2z"/></defs><clipPath id="SVGID_228_"><use xlink:href="#SVGID_227_" overflow="visible"/></clipPath><path d="M132.5 214.8l1-.5 2 1.1v.6l-1 .5-2-1.1" clip-path="url(#SVGID_228_)" fill="#fff"/><defs><path id="SVGID_229_" d="M-139.9-267.9h595.2v842h-595.2z"/></defs><clipPath id="SVGID_230_"><use xlink:href="#SVGID_229_" overflow="visible"/></clipPath><path d="M132.5 214.8l1-.5 2 1.1v.6l-1 .5-2-1.1v-.6z" clip-path="url(#SVGID_230_)" fill="none" stroke="#9d9d9c" stroke-width=".205" stroke-miterlimit="10"/><defs><path id="SVGID_231_" d="M-139.9-267.9h595.2v842h-595.2z"/></defs><clipPath id="SVGID_232_"><use xlink:href="#SVGID_231_" overflow="visible"/></clipPath><path d="M132.5 214.8l2 1.2 1-.6" clip-path="url(#SVGID_232_)" fill="none" stroke="#9d9d9c" stroke-width=".205" stroke-linecap="round" stroke-linejoin="round" stroke-miterlimit="10"/><defs><path id="SVGID_233_" d="M-139.9-267.9h595.2v842h-595.2z"/></defs><clipPath id="SVGID_234_"><use xlink:href="#SVGID_233_" overflow="visible"/></clipPath><path d="M132.5 214.8l1-.5 2 1.1v.6l-1 .5-2-1.1v-.6zm2.1 1.7v-.5" clip-path="url(#SVGID_234_)" fill="none" stroke="#9d9d9c" stroke-width=".205" stroke-linecap="round" stroke-linejoin="round" stroke-miterlimit="10"/><defs><path id="SVGID_235_" d="M-139.9-267.9h595.2v842h-595.2z"/></defs><clipPath id="SVGID_236_"><use xlink:href="#SVGID_235_" overflow="visible"/></clipPath><path d="M150.8 222.6l-1-.6-2 1.2v.6l1 .5 2-1.1" clip-path="url(#SVGID_236_)" fill="#fff"/><defs><path id="SVGID_237_" d="M-139.9-267.9h595.2v842h-595.2z"/></defs><clipPath id="SVGID_238_"><use xlink:href="#SVGID_237_" overflow="visible"/></clipPath><path d="M150.8 222.6l-1-.6-2 1.2v.6l1 .5 2-1.1v-.6z" clip-path="url(#SVGID_238_)" fill="none" stroke="#9d9d9c" stroke-width=".205" stroke-miterlimit="10"/><defs><path id="SVGID_239_" d="M-139.9-267.9h595.2v842h-595.2z"/></defs><clipPath id="SVGID_240_"><use xlink:href="#SVGID_239_" overflow="visible"/></clipPath><path d="M150.8 222.6l-2 1.2-1-.6" clip-path="url(#SVGID_240_)" fill="none" stroke="#9d9d9c" stroke-width=".205" stroke-linecap="round" stroke-linejoin="round" stroke-miterlimit="10"/><defs><path id="SVGID_241_" d="M-139.9-267.9h595.2v842h-595.2z"/></defs><clipPath id="SVGID_242_"><use xlink:href="#SVGID_241_" overflow="visible"/></clipPath><path d="M150.8 222.6l-1-.6-2 1.2v.6l1 .5 2-1.1v-.6zm-2 1.7v-.5" clip-path="url(#SVGID_242_)" fill="none" stroke="#9d9d9c" stroke-width=".205" stroke-linecap="round" stroke-linejoin="round" stroke-miterlimit="10"/><defs><path id="SVGID_243_" d="M-139.9-267.9h595.2v842h-595.2z"/></defs><clipPath id="SVGID_244_"><use xlink:href="#SVGID_243_" overflow="visible"/></clipPath><path d="M151.8 223.7l1.7-.9 3.4 2v1l-1.6.9-3.5-2" clip-path="url(#SVGID_244_)" fill="#fff"/><defs><path id="SVGID_245_" d="M-139.9-267.9h595.2v842h-595.2z"/></defs><clipPath id="SVGID_246_"><use xlink:href="#SVGID_245_" overflow="visible"/></clipPath><path d="M151.8 223.7l1.7-.9 3.4 2v1l-1.6.9-3.5-2v-1z" clip-path="url(#SVGID_246_)" fill="none" stroke="#9d9d9c" stroke-width=".205" stroke-miterlimit="10"/><defs><path id="SVGID_247_" d="M-139.9-267.9h595.2v842h-595.2z"/></defs><clipPath id="SVGID_248_"><use xlink:href="#SVGID_247_" overflow="visible"/></clipPath><path d="M151.8 223.7l3.5 2 1.6-.9" clip-path="url(#SVGID_248_)" fill="none" stroke="#9d9d9c" stroke-width=".205" stroke-linecap="round" stroke-linejoin="round" stroke-miterlimit="10"/><defs><path id="SVGID_249_" d="M-139.9-267.9h595.2v842h-595.2z"/></defs><clipPath id="SVGID_250_"><use xlink:href="#SVGID_249_" overflow="visible"/></clipPath><path d="M151.8 223.7l1.7-.9 3.4 2v1l-1.6.9-3.5-2v-1zm3.5 3v-1" clip-path="url(#SVGID_250_)" fill="none" stroke="#9d9d9c" stroke-width=".205" stroke-linecap="round" stroke-linejoin="round" stroke-miterlimit="10"/><defs><path id="SVGID_251_" d="M-139.9-267.9h595.2v842h-595.2z"/></defs><clipPath id="SVGID_252_"><use xlink:href="#SVGID_251_" overflow="visible"/></clipPath><path d="M168.7 225.1c0 .1.1.2.2.2l21.8 12.6c.2.1.6.1.9 0l10.3-6c.2-.1.2-.2.2-.3v-17.5c0-.1-.1-.2-.2-.2l-21.7-12.5c-.2-.1-.6-.1-.9 0l-10.3 6c-.1.1-.2.2-.2.3" clip-path="url(#SVGID_252_)" fill="#fff"/><defs><path id="SVGID_253_" d="M-139.9-267.9h595.2v842h-595.2z"/></defs><clipPath id="SVGID_254_"><use xlink:href="#SVGID_253_" overflow="visible"/></clipPath><path d="M168.7 225.1c0 .1.1.2.2.2l21.8 12.6c.2.1.6.1.9 0l10.3-6c.2-.1.2-.2.2-.3v-17.5c0-.1-.1-.2-.2-.2l-21.7-12.5c-.2-.1-.6-.1-.9 0l-10.3 6c-.1.1-.2.2-.2.3v17.4h-.1z" clip-path="url(#SVGID_254_)" fill="none" stroke="#9d9d9c" stroke-width=".205" stroke-miterlimit="10"/><defs><path id="SVGID_255_" d="M-139.9-267.9h595.2v842h-595.2z"/></defs><clipPath id="SVGID_256_"><use xlink:href="#SVGID_255_" overflow="visible"/></clipPath><path d="M168.7 207.7c0 .1.1.2.2.2l21.8 12.6c.2.1.6.1.9 0l10.3-6c.2-.1.2-.2.2-.3" clip-path="url(#SVGID_256_)" fill="#fff"/><defs><path id="SVGID_257_" d="M-139.9-267.9h595.2v842h-595.2z"/></defs><clipPath id="SVGID_258_"><use xlink:href="#SVGID_257_" overflow="visible"/></clipPath><path d="M168.7 207.7c0 .1.1.2.2.2l21.8 12.6c.2.1.6.1.9 0l10.3-6c.2-.1.2-.2.2-.3m-10.5 7.3v15.6m-1-15.6v15.6" clip-path="url(#SVGID_258_)" fill="none" stroke="#9d9d9c" stroke-width=".205" stroke-miterlimit="10"/><defs><path id="SVGID_259_" d="M-139.9-267.9h595.2v842h-595.2z"/></defs><clipPath id="SVGID_260_"><use xlink:href="#SVGID_259_" overflow="visible"/></clipPath><path d="M198.7 213.3l-1.8 1.1-18.2-10.5 1.8-1.1 18.2 10.5zm-3.3 2.1l-1.8 1-18.2-10.4 1.8-1.1 18.2 10.5zm-4 2l-1.8 1.1-18.1-10.5 1.8-1 18.1 10.4z" clip-path="url(#SVGID_260_)" fill="none" stroke="#9d9d9c" stroke-width=".205" stroke-miterlimit="10"/></g></g></g></g><defs><path id="SVGID_261_" d="M17.1 5.3h257.2v257.2H17.1z"/></defs><clipPath id="SVGID_262_"><use xlink:href="#SVGID_261_" overflow="visible"/></clipPath><g clip-path="url(#SVGID_262_)"><defs><path id="SVGID_263_" d="M1.8-5.1h331.7v245.8H1.8z"/></defs><clipPath id="SVGID_264_"><use xlink:href="#SVGID_263_" overflow="visible"/></clipPath><g clip-path="url(#SVGID_264_)"><defs><path id="SVGID_265_" d="M1.8-7.1h331.7v293.4H1.8z"/></defs><clipPath id="SVGID_266_"><use xlink:href="#SVGID_265_" overflow="visible"/></clipPath><g clip-path="url(#SVGID_266_)"><defs><path id="SVGID_267_" d="M-139.9-267.9h595.2v842h-595.2z"/></defs><clipPath id="SVGID_268_"><use xlink:href="#SVGID_267_" overflow="visible"/></clipPath><path d="M87.6 121.7l-21-12.1v-2.3l1.3.7v-3.5c0-.2-.2-.4-.2-.4s-.1-.1-.3-.2c-.1-.1-.2-.3-.2-.6v-1.5s.6-.4.6-.5c.1 0 .1-.1.1-.4v-2.5c0-.1.1-.2.2-.2l18 10.4c.1.1.2.3.2.4v2.5c0 .3.1.4.1.5.1.1.6 1.2.6 1.2v1.5c0 .3-.1.4-.2.3s-.3-.2-.3-.2-.2-.1-.2.1v3.5l1.3.7" clip-path="url(#SVGID_268_)" fill="#f6f6f6"/><defs><path id="SVGID_269_" d="M-139.9-267.9h595.2v842h-595.2z"/></defs><clipPath id="SVGID_270_"><use xlink:href="#SVGID_269_" overflow="visible"/></clipPath><path d="M87.6 121.7l-21-12.1v-2.3l1.3.7v-3.5c0-.2-.2-.4-.2-.4s-.1-.1-.3-.2c-.1-.1-.2-.3-.2-.6v-1.5s.6-.4.6-.5c.1 0 .1-.1.1-.4v-2.5c0-.1.1-.2.2-.2l18 10.4c.1.1.2.3.2.4v2.5c0 .3.1.4.1.5.1.1.6 1.2.6 1.2v1.5c0 .3-.1.4-.2.3s-.3-.2-.3-.2-.2-.1-.2.1v3.5l1.3.7v2.6z" clip-path="url(#SVGID_270_)" fill="none" stroke="#000" stroke-width=".412" stroke-miterlimit="10"/><defs><path id="SVGID_271_" d="M-139.9-267.9h595.2v842h-595.2z"/></defs><clipPath id="SVGID_272_"><use xlink:href="#SVGID_271_" overflow="visible"/></clipPath><path d="M198.3 99.8l-21-12.1V90l1.3.7v3.5c0 .2-.2.1-.2.1s-.1-.1-.3-.2c-.1-.1-.2 0-.2.3v1.5s.6 1.1.6 1.2c.1.1.1.3.1.5v2.5c0 .1.1.3.2.4l18 10.4c.1.1.2-.1.2-.2v-2.5c0-.3.1-.4.1-.4.1 0 .6-.5.6-.5v-1.4c0-.3-.1-.5-.2-.6-.1-.1-.3-.2-.3-.2s-.2-.2-.2-.4v-3.5l1.3.7" clip-path="url(#SVGID_272_)" fill="#f6f6f6"/><defs><path id="SVGID_273_" d="M-139.9-267.9h595.2v842h-595.2z"/></defs><clipPath id="SVGID_274_"><use xlink:href="#SVGID_273_" overflow="visible"/></clipPath><path d="M198.3 99.8l-21-12.1V90l1.3.7v3.5c0 .2-.2.1-.2.1s-.1-.1-.3-.2c-.1-.1-.2 0-.2.3v1.5s.6 1.1.6 1.2c.1.1.1.3.1.5v2.5c0 .1.1.3.2.4l18 10.4c.1.1.2-.1.2-.2v-2.5c0-.3.1-.4.1-.4.1 0 .6-.5.6-.5v-1.4c0-.3-.1-.5-.2-.6-.1-.1-.3-.2-.3-.2s-.2-.2-.2-.4v-3.5l1.3.7v-2.1h0zM87.6 121.7c0 57.8 110.7-90.3 110.7-22M71.1 122.5l20.7 11.8M172 70.9l20 11.5M177.2 84c.1 1.1.1 2.4.1 3.7m-89.9 31.6c26.2-14.1 69.6-59.2 84.6-48.4M66.6 109.7c0 7 1.6 11 4.5 12.7" clip-path="url(#SVGID_274_)" fill="none" stroke="#000" stroke-width=".412" stroke-miterlimit="10"/></g></g></g><defs><path id="SVGID_275_" d="M17.1 5.3h257.2v257.2H17.1z"/></defs><clipPath id="SVGID_276_"><use xlink:href="#SVGID_275_" overflow="visible"/></clipPath><g clip-path="url(#SVGID_276_)"><defs><path id="SVGID_277_" d="M17.1 5.3h257.2v257.2H17.1z"/></defs><clipPath id="SVGID_278_"><use xlink:href="#SVGID_277_" overflow="visible"/></clipPath><g clip-path="url(#SVGID_278_)"><defs><path id="SVGID_279_" d="M1.8-5.1h331.7v245.8H1.8z"/></defs><clipPath id="SVGID_280_"><use xlink:href="#SVGID_279_" overflow="visible"/></clipPath><g clip-path="url(#SVGID_280_)"><defs><path id="SVGID_281_" d="M1.8-7.1h331.7v293.4H1.8z"/></defs><clipPath id="SVGID_282_"><use xlink:href="#SVGID_281_" overflow="visible"/></clipPath><g clip-path="url(#SVGID_282_)"><defs><path id="SVGID_283_" d="M-139.9-267.9h595.2v842h-595.2z"/></defs><clipPath id="SVGID_284_"><use xlink:href="#SVGID_283_" overflow="visible"/></clipPath><path d="M64 41.7c-.1.1-.1.2-.1.4v31.8c0 .8.6 1.8 1.2 2.2L93 92.2c.3.2.7.2.9.1 0 0 9.2-5.3 9.5-5.4.2-.1.4-.4.4-.8V53.5c0-.8-.6-1.8-1.3-2.2L75.1 35.5c-.2-.1-.2-.1-.4 0" clip-path="url(#SVGID_284_)" fill="#f6f6f6"/><defs><path id="SVGID_285_" d="M-139.9-267.9h595.2v842h-595.2z"/></defs><clipPath id="SVGID_286_"><use xlink:href="#SVGID_285_" overflow="visible"/></clipPath><path d="M70.2 48.1l.6.3m0 0v1.3m0 0l-.6-.3m0 0v-1.3m-2.6 3l-.6-.4m0 0v-1.3m0 0l.6.4m0 0v1.3m.2 8.3l-.5-.3m0 0v-1.3m0 0l.5.3m0 0v1.3M83 69v1.4m0 0l-2.8-1.6m0 0v-1.4m0 0L83 69m3.8-12.7h0m0-.1h0m0-.1h0m0-.1h0m.1 0v-.1m0 0h0m.1 0h0m.1 0h0m.1 0h0m.1 0h0m.1.1h0m0 .1h0m.1 0h0m.1.1h0m.1.1h0m0 .1h0m.1.1h0m0 .1h0m0 .1h0m0 .1v.2m0 0h0m0 .1h0m-.1.1h0m-.1.1h0m-.1 0h0m-.1-.1h0m-.1 0h0m-.1-.1h0m-.1-.1h0m-.1-.1h0m-.1-.1h0m0-.1h0m-.1-.1h0m0-.1h0m0-.1h0m-2 0v-.7m0 0l1.1.7m0 0v.6m0 0l-1.1-.6m2.4 12v-.7m0 0l1.1.7m0 0v.6m0 0l-1.1-.6m-7.4-1.2v1.4m0 0L77 67m0 0v-1.4m0 0l2.8 1.6M74 53.3l.6.3m0 0v1.3l-.6-.3m0 0v-1.3m11.9 6.5l.6.3m0 0v1.3m0 0l-.6-.3m0 0v-1.3m-11.9 0l.6.3m0 0v1.3m0 0l-.6-.3m0 0v-1.3m0-9l.6.3m0 0v1.3m0 0l-.6-.3m0 0v-1.3m-3.2-3.1l-.6-.3m0 0v-1.3m0 0l.6.4m0 0v1.2m4.1 9.7l.6.3m0 0V59m0 0l-.6-.3m0 0v-1.3m12 2.9l.5.3m0 0v1.3m0 0l-.5-.3m0 0v-1.3m-8.2 4.3V64m0 0l1.2.6m0 0v.7m0 0l-1.2-.7m-12.3-10v-.7m0 0l1.1.7m0 0v.6m0 0l-1.1-.6m7.6 7.1l.6.3m0 0v1.3m0 0L74 63m0 0v-1.3m-7.6-6.1V55m0 0l1.1.6m0 0v.7m0 0l-1.1-.7m10.5 7.9v-.6m0 0l1.1.6m0 0v.7m0 0l-1.1-.7m-10 3.8v.7m0 0l-1.1-.7m0 0v-.7m0 0l1.1.7m3.8-17.1v.7m0 0l-1.1-.7m0 0v-.6m0 0l1.1.6m2.8 3.9v6.3m0 0l-5.4-3.2m0 0V51m0 0l5.4 3.1m-7.1-.5v-.7m0 0l1.1.6m0 0v.7m0 0l-1.1-.6m8.5.2l.6.4m0 0v1.3l-.6-.4m0 0v-1.3m-6.2 6.8v1.8m0 0l-2.4-1.3m0 0v-1.8l2.4 1.3m1.8-8.7v-.7m0 0l1.2.6m0 0v.7m0 0l-1.2-.6m16 11.6l-.6-.3m0 0v-1.3m0 0l.6.4m0 0v1.2m-10.1-1.6l-.6-.3m0 0v-1.3m0 0l.6.3m0 0v1.3m-10.7 6.4h0m.1-.1h0m0-.1h0m.1 0h0m.1-.1h0m.1.1h0m.1 0h0m.1.1h0m.1.1h0m0 .1h0m.1.1h0m0 .1h0m.1 0h0m0 .1h0m0 .1h0m0 .1h0m0 .1h0m-.1 0h0m0 .1h0m-.1 0h0m-.1 0h0m-.1 0h0m-.1-.1h0m-.1 0h0m0-.1h0m-.1-.1h0m-.1-.1h0m0-.1h0m0-.1h0m-.1-.1h0m16.7-.6v-.7m0 0l1.2.7m0 0v.6m0 0l-1.1-.6m-3.2-15.3v.7m0 0l-1.1-.6m0 0v-.7m0 0l1.1.6m-4.1 6.9v.6m0 0l-1.1-.6m0 0v-.7m0 0l1.2.7m1.5 2.9v-10m0 0l8.7 5m0 0v10m0 0l-8.7-5m-5.1-15v-.7m0 0l1.1.6m0 0v.7m0 0l-1.1-.6m2.9 11.2l-.6-.4m0 0v-1.2m0 0l.6.3m0 0v1.3m-4 17.6h0m0-.1v-.1m0 0h0m.1-.1h0m.1 0h0m.1 0h0m.1 0h0m.1 0h0m.1.1h0m.1.1h0m.1.1h0m.1.1h0m0 .1h0m.1.1h0m0 .1h0m0 .1h0m0 .1h0m0 .1h0m0 .1h0m0 .1h0m-.1.1h0m-.1 0h0m-.1 0h0m-.1 0h0m-.1-.1h0m-.1 0h0m-.1-.1h0m0-.1h0m-.1-.1h0m-.1-.1h0m0-.1h0m-.1-.1h0m0-.1h0m0-.1h0m10-10.5V65m0 0l1.1.7m0 0v.6m0 0l-1.1-.6m11.9 14.9v.7l-1.2-.7V80m0 0l1.2.6M68.6 68.3v.6m0 0l-1.1-.6m0 0v-.7m0 0l1.1.7m4.8-15.4v.6m-1.1-1.3l1.1.7m-1.1 0v-.7m1.1 1.3l-1.1-.6m4.1.6l-.6-.4m.6-.9v1.3m-.6-1.7l.6.4m-.6.9v-1.3m-9.7-.9l.6.3m-.6 1v-1.3m.6 1.6l-.6-.3m.6-1v1.3m21.6 16.9v.7m-1.1-1.3l1.1.6m-1.1.1v-.7m1.1 1.3l-1.1-.6m-15.4-7.1v1.8m-2.3-3.1l2.3 1.3m-2.3.5v-1.8m2.3 3.1l-2.3-1.3m16.6 8v1.3m-2.7-2.9l2.7 1.6m-2.7-.3v-1.3m2.7 2.9l-2.7-1.6m-17-13.9V56m1.1 1.3l-1.1-.6m1.1-.1v.7M66.4 56l1.1.6m8.3 6.1l.6.4m-.6.9v-1.3m.6 1.6l-.6-.3m.6-.9v1.2m9.6 1.9l.5.4m-.5.9v-1.3m.5 1.6l-.5-.3m.5-.9v1.2M66 63.4l2.7 1.6M66 66v-2.6m2.7 4.1L66 66m2.7-1v2.5m13.2-13.8V53m1.1 1.3l-1.1-.6m1.1-.1v.7M81.9 53l1.1.6m-8.1 6.7l.6.4m-.6.9v-1.3m.6 1.6l-.6-.3m.6-.9v1.2m11.7 5.5v-.7m1.1 1.3l-1.1-.6m1.1-.1v.7m-1.1-1.3l1.1.6M68.8 60l-.5-.3m.5-1V60m-.5-1.6l.5.3m-.5 1v-1.3m8.9-7.1v.7m-1.1-1.3l1.1.6m-1.1.1v-.7m1.1 1.3l-1.1-.6m-4.3 8.8V62m-2.3-3.1l2.3 1.3m-2.3.5v-1.8m2.3 3.1l-2.3-1.3m-2.4-9.2l.5.3m-.5.9v-1.2m.5 1.6l-.5-.4m.5-.9v1.3m23.1 26.5v.7M89.6 79l1.1.6m-1.1 0V79m1.1 1.3l-1.1-.7M86 64l.5.3m-.5 1V64m.5 1.6l-.5-.3m.5-1v1.3m-1.1 2.2v.7m-1.1-1.3l1.1.6m-1.1 0v-.6m1.1 1.3l-1.1-.7m-2.4-13.1V54m1.1 1.4l-1.1-.7m1.1 0v.7M81.9 54l1.1.7m-6.4 10.7v1.3m-2.8-2.9l2.8 1.6m-2.8-.3v-1.3m2.8 2.9l-2.8-1.6M90.3 79v-3.7m1.5 4.5l-1.5-.8m1.5-2.8v3.6m-1.5-4.5l1.5.9M80.1 53.7V53m1.1 1.3l-1.1-.6m1.1-.1v.7M80.1 53l1.1.6m1.3 13.2v-.7m1.1 1.3l-1.1-.6m1.1-.1v.7m-1.1-1.3l1.1.6M71.3 51v-3.2m2.3 4.5L71.3 51m2.3-1.9v3.2m-2.3-4.5l2.3 1.3m14.7 21.4v.6m-1.1-1.3l1.1.7m-1.1 0v-.7m1.1 1.3l-1.1-.6M73.4 48.3v-.7m1.1 1.4l-1.1-.7m1.1-.1v.8m-1.1-1.4l1.1.6m10.3 7.2v-.7M86 56l-1.2-.6m1.2-.1v.7m-1.2-1.3l1.2.6m-10.2 3l.6.3m-.6.9v-1.2m.6 1.6l-.6-.3m.6-1v1.3m-6.5-9.1v.7m-1.1-1.3l1.1.6m-1.1.1v-.7m1.1 1.3l-1.1-.6m-2.4 11.9v-1.2m1.9 2.2l-1.9-1m1.9-.1v1.1m-1.9-2.2l1.9 1.1m5.1 1.9l-1-.5m1-1.6v2.1m-1-2.6l1 .5m-1 1.6V62m-5.7-11.4l-.7-.4m.7-1v1.4m-.7-1.8l.7.4m-.7 1v-1.4m19.9 8.9l.6.3m-.6.9v-1.2m.6 1.6l-.6-.4m.6-.9v1.3m-11.6 2.9l.6.3m-.6 1v-1.3m.6 1.6l-.6-.3m.6-1v1.3m-8.7-5l-.5-.3m.5-.9v1.2m-.5-1.6l.5.4m-.5.9v-1.3m26.1 18.2v.7m-1.1-1.3l1.1.6m-1.1.1v-.7m1.1 1.3l-1.1-.6M75.8 54.4l.6.3m-.6.9v-1.2m.6 1.6l-.6-.4m.6-.9V56m-1.5-4.7l.6.4m-.6.9v-1.3m.6 1.7l-.6-.4m.6-.9V53m-5.9 18.1l1 .6m18.1 10.5v-5.4M71 65.8v.8m-1.4-.8l1.4.8m-.4 5.6v-.5m-1-.6v-5.3m17.7 9.4v.8m1.4 6.2l-1-.6m1-4.8l-1.4-.8m.4 6.1v-.5m3.1-23.3c-.6-.4-1.1-.1-1.1.6s.5 1.5 1.1 1.9c.6.3 1.1.1 1.1-.6s-.5-1.6-1.1-1.9z" clip-path="url(#SVGID_286_)" fill="none" stroke="#000" stroke-width=".205" stroke-linecap="round" stroke-linejoin="round" stroke-miterlimit="10"/><defs><path id="SVGID_287_" d="M-139.9-267.9h595.2v842h-595.2z"/></defs><clipPath id="SVGID_288_"><use xlink:href="#SVGID_287_" overflow="visible"/></clipPath><path d="M90.8 57c-1.2-.7-2.2-.1-2.2 1.2s1 3.1 2.2 3.7c1.2.7 2.2.1 2.2-1.2s-1-3-2.2-3.7zM67.2 44.7c.6.3 1.1 1.2 1.1 1.9s-.5 1-1.1.6c-.6-.3-1.1-1.2-1.1-1.9s.5-1 1.1-.6z" clip-path="url(#SVGID_288_)" fill="none" stroke="#000" stroke-width=".205" stroke-linecap="round" stroke-linejoin="round" stroke-miterlimit="10"/><defs><path id="SVGID_289_" d="M-139.9-267.9h595.2v842h-595.2z"/></defs><clipPath id="SVGID_290_"><use xlink:href="#SVGID_289_" overflow="visible"/></clipPath><path d="M67.2 43.4c1.2.7 2.2 2.4 2.2 3.7 0 1.4-1 1.9-2.2 1.2S65 45.9 65 44.6c.1-1.3 1-1.9 2.2-1.2zm0 31.2c.6.3 1.1.1 1.1-.6s-.5-1.5-1.1-1.9-1.1-.1-1.1.6.5 1.6 1.1 1.9z" clip-path="url(#SVGID_290_)" fill="none" stroke="#000" stroke-width=".205" stroke-linecap="round" stroke-linejoin="round" stroke-miterlimit="10"/><defs><path id="SVGID_291_" d="M-139.9-267.9h595.2v842h-595.2z"/></defs><clipPath id="SVGID_292_"><use xlink:href="#SVGID_291_" overflow="visible"/></clipPath><path d="M67.2 75.8c1.2.7 2.2.1 2.2-1.3s-1-3.1-2.2-3.7C66 70.1 65 70.7 65 72c.1 1.5 1 3.1 2.2 3.8zm23.6 12.4c-.6-.3-1.1-1.2-1.1-1.9s.5-1 1.1-.6c.6.3 1.1 1.2 1.1 1.9s-.5 1-1.1.6z" clip-path="url(#SVGID_292_)" fill="none" stroke="#000" stroke-width=".205" stroke-linecap="round" stroke-linejoin="round" stroke-miterlimit="10"/><defs><path id="SVGID_293_" d="M-139.9-267.9h595.2v842h-595.2z"/></defs><clipPath id="SVGID_294_"><use xlink:href="#SVGID_293_" overflow="visible"/></clipPath><path d="M90.8 89.4c-1.2-.7-2.2-2.4-2.2-3.7 0-1.4 1-1.9 2.2-1.2 1.2.7 2.2 2.4 2.2 3.7 0 1.4-1 1.9-2.2 1.2z" clip-path="url(#SVGID_294_)" fill="none" stroke="#000" stroke-width=".205" stroke-linecap="round" stroke-linejoin="round" stroke-miterlimit="10"/><defs><path id="SVGID_295_" d="M-139.9-267.9h595.2v842h-595.2z"/></defs><clipPath id="SVGID_296_"><use xlink:href="#SVGID_295_" overflow="visible"/></clipPath><path d="M69.9 47.5l-1.7-1.1" clip-path="url(#SVGID_296_)" fill="none" stroke="#000" stroke-width=".205" stroke-miterlimit="10"/><defs><path id="SVGID_297_" d="M-139.9-267.9h595.2v842h-595.2z"/></defs><clipPath id="SVGID_298_"><use xlink:href="#SVGID_297_" overflow="visible"/></clipPath><path d="M67.5 46l-.7-.4" clip-path="url(#SVGID_298_)" fill="none" stroke="#000" stroke-width=".205" stroke-miterlimit="10" stroke-dasharray=".401,.804"/><defs><path id="SVGID_299_" d="M-139.9-267.9h595.2v842h-595.2z"/></defs><clipPath id="SVGID_300_"><use xlink:href="#SVGID_299_" overflow="visible"/></clipPath><path d="M66.4 45.4l-1.8-1m2.6 4.6v-2" clip-path="url(#SVGID_300_)" fill="none" stroke="#000" stroke-width=".205" stroke-miterlimit="10"/><defs><path id="SVGID_301_" d="M-139.9-267.9h595.2v842h-595.2z"/></defs><clipPath id="SVGID_302_"><use xlink:href="#SVGID_301_" overflow="visible"/></clipPath><path d="M67.2 46.1v-.9" clip-path="url(#SVGID_302_)" fill="none" stroke="#000" stroke-width=".205" stroke-miterlimit="10" stroke-dasharray=".436,.87"/><defs><path id="SVGID_303_" d="M-139.9-267.9h595.2v842h-595.2z"/></defs><clipPath id="SVGID_304_"><use xlink:href="#SVGID_303_" overflow="visible"/></clipPath><path d="M67.2 44.8v-2.1m26.4 18.4l-1.8-1" clip-path="url(#SVGID_304_)" fill="none" stroke="#000" stroke-width=".205" stroke-miterlimit="10"/><defs><path id="SVGID_305_" d="M-139.9-267.9h595.2v842h-595.2z"/></defs><clipPath id="SVGID_306_"><use xlink:href="#SVGID_305_" overflow="visible"/></clipPath><path d="M91.1 59.7l-.7-.4" clip-path="url(#SVGID_306_)" fill="none" stroke="#000" stroke-width=".205" stroke-miterlimit="10" stroke-dasharray=".401,.803"/><defs><path id="SVGID_307_" d="M-139.9-267.9h595.2v842h-595.2z"/></defs><clipPath id="SVGID_308_"><use xlink:href="#SVGID_307_" overflow="visible"/></clipPath><path d="M90.1 59.1L88.3 58m2.5 4.7v-2.1" clip-path="url(#SVGID_308_)" fill="none" stroke="#000" stroke-width=".205" stroke-miterlimit="10"/><defs><path id="SVGID_309_" d="M-139.9-267.9h595.2v842h-595.2z"/></defs><clipPath id="SVGID_310_"><use xlink:href="#SVGID_309_" overflow="visible"/></clipPath><path d="M90.8 59.7v-.8" clip-path="url(#SVGID_310_)" fill="none" stroke="#000" stroke-width=".205" stroke-miterlimit="10" stroke-dasharray=".436,.87"/><defs><path id="SVGID_311_" d="M-139.9-267.9h595.2v842h-595.2z"/></defs><clipPath id="SVGID_312_"><use xlink:href="#SVGID_311_" overflow="visible"/></clipPath><path d="M90.8 58.4v-2M69.9 74.9l-1.7-1" clip-path="url(#SVGID_312_)" fill="none" stroke="#000" stroke-width=".205" stroke-miterlimit="10"/><defs><path id="SVGID_313_" d="M-139.9-267.9h595.2v842h-595.2z"/></defs><clipPath id="SVGID_314_"><use xlink:href="#SVGID_313_" overflow="visible"/></clipPath><path d="M67.5 73.5l-.7-.4" clip-path="url(#SVGID_314_)" fill="none" stroke="#000" stroke-width=".205" stroke-miterlimit="10" stroke-dasharray=".401,.804"/><defs><path id="SVGID_315_" d="M-139.9-267.9h595.2v842h-595.2z"/></defs><clipPath id="SVGID_316_"><use xlink:href="#SVGID_315_" overflow="visible"/></clipPath><path d="M66.4 72.9l-1.8-1m2.6 4.6v-2.1" clip-path="url(#SVGID_316_)" fill="none" stroke="#000" stroke-width=".205" stroke-miterlimit="10"/><defs><path id="SVGID_317_" d="M-139.9-267.9h595.2v842h-595.2z"/></defs><clipPath id="SVGID_318_"><use xlink:href="#SVGID_317_" overflow="visible"/></clipPath><path d="M67.2 73.6v-.9" clip-path="url(#SVGID_318_)" fill="none" stroke="#000" stroke-width=".205" stroke-miterlimit="10" stroke-dasharray=".436,.87"/><defs><path id="SVGID_319_" d="M-139.9-267.9h595.2v842h-595.2z"/></defs><clipPath id="SVGID_320_"><use xlink:href="#SVGID_319_" overflow="visible"/></clipPath><path d="M67.2 72.3v-2.1m26.4 18.4l-1.8-1.1" clip-path="url(#SVGID_320_)" fill="none" stroke="#000" stroke-width=".205" stroke-miterlimit="10"/><defs><path id="SVGID_321_" d="M-139.9-267.9h595.2v842h-595.2z"/></defs><clipPath id="SVGID_322_"><use xlink:href="#SVGID_321_" overflow="visible"/></clipPath><path d="M91.1 87.1l-.7-.4" clip-path="url(#SVGID_322_)" fill="none" stroke="#000" stroke-width=".205" stroke-miterlimit="10" stroke-dasharray=".401,.803"/><defs><path id="SVGID_323_" d="M-139.9-267.9h595.2v842h-595.2z"/></defs><clipPath id="SVGID_324_"><use xlink:href="#SVGID_323_" overflow="visible"/></clipPath><path d="M90.1 86.5l-1.8-1m2.5 4.6v-2" clip-path="url(#SVGID_324_)" fill="none" stroke="#000" stroke-width=".205" stroke-miterlimit="10"/><defs><path id="SVGID_325_" d="M-139.9-267.9h595.2v842h-595.2z"/></defs><clipPath id="SVGID_326_"><use xlink:href="#SVGID_325_" overflow="visible"/></clipPath><path d="M90.8 87.2v-.9" clip-path="url(#SVGID_326_)" fill="none" stroke="#000" stroke-width=".205" stroke-miterlimit="10" stroke-dasharray=".436,.87"/><defs><path id="SVGID_327_" d="M-139.9-267.9h595.2v842h-595.2z"/></defs><clipPath id="SVGID_328_"><use xlink:href="#SVGID_327_" overflow="visible"/></clipPath><path d="M90.8 85.9v-2m.8-26.6c.9.5 1.7 1.8 1.7 2.9v29c0 1.1-.8 1.5-1.7 1l-17.3-10s-.1-.7-.6-1-.6.3-.6.3l-6.6-3.8c-.9-.5-1.7-1.8-1.7-2.9v-29c0-1.1.8-1.5 1.7-1l14 8.1s.1.8.6 1c.4.2.6-.3.6-.3l9.9 5.7z" clip-path="url(#SVGID_328_)" fill="none" stroke="#000" stroke-width=".205" stroke-miterlimit="10"/><defs><path id="SVGID_329_" d="M-139.9-267.9h595.2v842h-595.2z"/></defs><clipPath id="SVGID_330_"><use xlink:href="#SVGID_329_" overflow="visible"/></clipPath><path d="M63.8 73.9c0 .8.6 1.8 1.2 2.2l27.9 16.1c.3.2.7.2.9.1.2-.1.4-.4.4-.8V59c0-.8-.6-1.8-1.2-2.2L65.6 41c-.2-.1-.2-.1-.4 0l-1.3.7c-.1.1-.1.2-.1.4v31.8z" clip-path="url(#SVGID_330_)" fill="none" stroke="#000" stroke-width=".205" stroke-linecap="round" stroke-linejoin="round" stroke-miterlimit="10"/></g></g></g></g><defs><path id="SVGID_331_" d="M94.8 60.3l.1 17.6 8.2-4.7V55.5"/></defs><clipPath id="SVGID_332_"><use xlink:href="#SVGID_331_" overflow="visible"/></clipPath><path d="M102.9 63.2l-.3.2v1.3c0 .2-.1.3-.1.3l-1.4.8c-.1.1-.1.2-.1.2v.3l2.1-1.2v-1.9c0 .1 0-.1-.2 0m-1.4 10.4c-.1.1-.1 0 0 0l-.1-1.4c0-.1.1-.1.2-.2h.1c.1 0 .1.2.1.3v1.1l-.3.2m.7-.4v-1.1c0-.3 0-.4.1-.5l.2-.2h.2c.1 0 .1.1.1.2v1.3l-.6.3m.3-2.3c-.2.1-.4.3-.5.6-.1 0-.2 0-.3.1-.2.1-.3.3-.4.5-.1.3-.1.5-.1.7v1.4c0 .2.1.2.1.2l2-1.1v-1.8c0-.3-.1-.4-.1-.5-.3-.2-.5-.2-.7-.1m.5-10.3l-.3.2v1.9l-.5.3v-1.6c0-.1-.1-.1-.1-.1l-.3.2v1.7l-.2.1c-.1.1-.1 0-.1-.1v-1.5s0-.1-.1-.1l-.3.2v2.1c0 .2.1.2.1.1l2-1.1v-2.3c-.1.1-.1-.1-.2 0m-.5 5.1c-.3.2-.5.4-.6.8-.1.3-.1.6-.1 1 0 .6-.1.7-.2.7-.2.1-.2-.2-.2-.4v-1.1s0-.2-.1-.1l-.3.2V68c0 .6.2.9.6.7.2-.1.4-.4.5-.7.1-.3.1-.5.1-.9 0-.7.2-.8.3-.9.2-.1.2.4.2.6v1.1c0 .1 0 .1.1.1l.3-.3v-1.1c0-1.1-.3-1-.6-.9" clip-path="url(#SVGID_332_)" fill="#d0d0d0"/><path class="st167" d="M100.4 58.2l-.1.2c-.2.3-.2.6-.2.6.2.5.5.9.5.9s-.4-.7-.2-1.7"/><defs><path id="SVGID_333_" d="M94.8 60.3l.1 17.6 8.2-4.7V55.5"/></defs><clipPath id="SVGID_334_"><use xlink:href="#SVGID_333_" overflow="visible"/></clipPath><path d="M100.2 57.2c-.1 0-.2.1-.2.2-.3.5-.2 1.1-.1 1.5 0-.1.1-.7.7-1 .1-.1.2-.1.4-.2.5-.2 1.2-.1 1.2-.1 0-.1-1.3-.8-2-.4m1.3 3.5s-.1.1 0 0l-.1-1.4c0-.1.1-.1.2-.2h.2c.1 0 .1.2.1.4v1l-.4.2m1.6-3.2l-.9 1.4c0-.1-.1-.2-.1-.3l-.2-.1c-.1 0-.2 0-.3.1-.2.1-.4.4-.5.7-.1.2-.1.4-.1.6v1.4c0 .2.1.1.1.1l2-1.1v-.4s0-.1-.1-.1l-.7.4v-.7l.7-1 .1-.1s.1-.1.1-.3l-.1-.6" clip-path="url(#SVGID_334_)" fill="#d0d0d0"/><path class="st167" d="M103.1 67.8l-2.1 2.4v.2c0 .2 0 .2.2.2h1.1c-.1-.1-.2-.2-.2-.5h-.5l.6-.7v.7c0 .4.2.5.3.5h.5v-.5h-.3s-.2 0-.2-.2v-1l.4-.4c.1-.1.1-.1.1-.3v-.1c.1-.1.1-.2.1-.3"/><defs><path id="SVGID_335_" d="M94.8 60.3l.1 17.6 8.2-4.7V55.5"/></defs><clipPath id="SVGID_336_"><use xlink:href="#SVGID_335_" overflow="visible"/></clipPath><path d="M99.8 69.6l-2 1.1c.4.2 1 .6 1.2.9.1.1.1.3.1.4 0 .6-.5 1.5-1.2 1.9s-1.2.1-1.2-.5.4-1.4 1.1-1.9c-.2-.2-.6-.4-.8-.5l-2.3 1.3v1l1.9-1.1c-.3.5-.6 1.1-.6 1.8 0 1 .7 1.5 1.9.8s1.9-2 1.9-3c0-.7-.3-.9-.7-1l.6-.4.1-.8m-1.1-.7c-.4.2-.6 0-.6-.6 0-.4.1-.7.1-1l.2-.1c.5-.3.8 0 .8.7.1.3-.1.8-.5 1m1.1-3.4l-2.1 1.2c-.5.3-.9.6-1.1 1.1-.3.4-.4 1-.4 1.6 0 .7.1 1 .3 1.4l.6-.6c-.1-.3-.2-.6-.2-1.1 0-.7.3-1.2.8-1.5h.1c-.1.4-.1.7-.1 1.2 0 1 .4 1.5 1.2 1 .7-.4 1.1-1.3 1.1-2.1 0-.6-.2-.9-.5-1l.5-.3-.2-.9M97 64.2l-.9.5c0 .7.3 1 .9 1l-.8.5v.9l3.6-2.1v-.9l-1.4.8c-.9.5-1.4.2-1.4-.7m-.1-2.8l-.7.4v1.1l-1 .6v.9l1-.6v.5l.7-.4v-.5l1.9-1.1c.8-.5 1.1-1.1 1.1-1.8 0-.4-.1-.6-.2-.7l-.7.4c.1.1.1.3.1.5 0 .3-.1.6-.5.8l-1.8 1 .1-1.1" clip-path="url(#SVGID_336_)" fill="#d0d0d0"/><defs><path id="SVGID_337_" d="M17.1 5.3h257.2v257.2H17.1z"/></defs><clipPath id="SVGID_338_"><use xlink:href="#SVGID_337_" overflow="visible"/></clipPath><g clip-path="url(#SVGID_338_)"><defs><path id="SVGID_339_" d="M17.1 5.3h257.2v257.2H17.1z"/></defs><clipPath id="SVGID_340_"><use xlink:href="#SVGID_339_" overflow="visible"/></clipPath><g clip-path="url(#SVGID_340_)"><defs><path id="SVGID_341_" d="M1.8-5.1h331.7v245.8H1.8z"/></defs><clipPath id="SVGID_342_"><use xlink:href="#SVGID_341_" overflow="visible"/></clipPath><g clip-path="url(#SVGID_342_)"><defs><path id="SVGID_343_" d="M1.8-7.1h331.7v293.4H1.8z"/></defs><clipPath id="SVGID_344_"><use xlink:href="#SVGID_343_" overflow="visible"/></clipPath><g clip-path="url(#SVGID_344_)"><defs><path id="SVGID_345_" d="M-139.9-267.9h595.2v842h-595.2z"/></defs><clipPath id="SVGID_346_"><use xlink:href="#SVGID_345_" overflow="visible"/></clipPath><path d="M93.9 92.3s9.2-5.3 9.5-5.4c.2-.1.4-.4.4-.8V53.5c0-.8-.6-1.8-1.2-2.2L75.1 35.5c-.2-.1-.2-.1-.4 0L65.2 41" clip-path="url(#SVGID_346_)" fill="none" stroke="#000" stroke-width=".205" stroke-linecap="round" stroke-linejoin="round" stroke-miterlimit="10"/><defs><path id="SVGID_347_" d="M-139.9-267.9h595.2v842h-595.2z"/></defs><clipPath id="SVGID_348_"><use xlink:href="#SVGID_347_" overflow="visible"/></clipPath><path d="M64 41.7c-.1.1-.1.2-.1.4v31.8c0 .8.6 1.8 1.2 2.2L93 92.2c.3.2.7.2.9.1 0 0 9.2-5.3 9.5-5.4.2-.1.4-.4.4-.8V53.5c0-.8-.6-1.8-1.3-2.2L75.1 35.5c-.2-.1-.2-.1-.4 0L64 41.7z" clip-path="url(#SVGID_348_)" fill="none" stroke="#000" stroke-width=".412" stroke-linecap="round" stroke-linejoin="round" stroke-miterlimit="10"/><defs><path id="SVGID_349_" d="M-139.9-267.9h595.2v842h-595.2z"/></defs><clipPath id="SVGID_350_"><use xlink:href="#SVGID_349_" overflow="visible"/></clipPath><path d="M94.1 56.4l8-4.6M95 58.4l8-4.6" clip-path="url(#SVGID_350_)" fill="none" stroke="#000" stroke-width=".205" stroke-linecap="round" stroke-linejoin="round" stroke-miterlimit="10"/><defs><path id="SVGID_351_" d="M-139.9-267.9h595.2v842h-595.2z"/></defs><clipPath id="SVGID_352_"><use xlink:href="#SVGID_351_" overflow="visible"/></clipPath><path d="M67.6 71.3l1.3-.8-.5-.3-1.3.8" clip-path="url(#SVGID_352_)" fill="#f0f0f0"/><defs><path id="SVGID_353_" d="M-139.9-267.9h595.2v842h-595.2z"/></defs><clipPath id="SVGID_354_"><use xlink:href="#SVGID_353_" overflow="visible"/></clipPath><path d="M67.6 71.3l1.3-.8-.5-.3-1.3.8.5.3z" clip-path="url(#SVGID_354_)" fill="none" stroke="#000" stroke-width=".205" stroke-linejoin="bevel" stroke-miterlimit="10"/><defs><path id="SVGID_355_" d="M-139.9-267.9h595.2v842h-595.2z"/></defs><clipPath id="SVGID_356_"><use xlink:href="#SVGID_355_" overflow="visible"/></clipPath><path d="M67.6 72l1.3-.7v-.8l-1.3.8" clip-path="url(#SVGID_356_)" fill="#f0f0f0"/><defs><path id="SVGID_357_" d="M-139.9-267.9h595.2v842h-595.2z"/></defs><clipPath id="SVGID_358_"><use xlink:href="#SVGID_357_" overflow="visible"/></clipPath><path d="M67.6 72l1.3-.7v-.8l-1.3.8v.7z" clip-path="url(#SVGID_358_)" fill="none" stroke="#000" stroke-width=".205" stroke-linejoin="bevel" stroke-miterlimit="10"/><defs><path id="SVGID_359_" d="M-139.9-267.9h595.2v842h-595.2z"/></defs><clipPath id="SVGID_360_"><use xlink:href="#SVGID_359_" overflow="visible"/></clipPath><path d="M68.4 69v-2.6l-1.3.8V71l1.3-.8" clip-path="url(#SVGID_360_)" fill="#f6f6f6"/><defs><path id="SVGID_361_" d="M-139.9-267.9h595.2v842h-595.2z"/></defs><clipPath id="SVGID_362_"><use xlink:href="#SVGID_361_" overflow="visible"/></clipPath><path d="M68.4 69v-2.6l-1.3.8V71l1.3-.8V69" clip-path="url(#SVGID_362_)" fill="none" stroke="#000" stroke-width=".205" stroke-linejoin="bevel" stroke-miterlimit="10"/><defs><path id="SVGID_363_" d="M-139.9-267.9h595.2v842h-595.2z"/></defs><clipPath id="SVGID_364_"><use xlink:href="#SVGID_363_" overflow="visible"/></clipPath><path d="M66.4 65.6l.1 5.8 1.1.6v-.7l-.5-.3v-3.7" clip-path="url(#SVGID_364_)" fill="#f6f6f6"/><defs><path id="SVGID_365_" d="M-139.9-267.9h595.2v842h-595.2z"/></defs><clipPath id="SVGID_366_"><use xlink:href="#SVGID_365_" overflow="visible"/></clipPath><path d="M66.4 65.6l.1 5.8 1.1.6v-.7l-.5-.3v-3.7" clip-path="url(#SVGID_366_)" fill="none" stroke="#000" stroke-width=".205" stroke-linejoin="bevel" stroke-miterlimit="10"/><defs><path id="SVGID_367_" d="M-139.9-267.9h595.2v842h-595.2z"/></defs><clipPath id="SVGID_368_"><use xlink:href="#SVGID_367_" overflow="visible"/></clipPath><path d="M84.3 83.6l2.4-1.4v-3.1l-2.4 1.4" clip-path="url(#SVGID_368_)" fill="#f6f6f6"/><defs><path id="SVGID_369_" d="M-139.9-267.9h595.2v842h-595.2z"/></defs><clipPath id="SVGID_370_"><use xlink:href="#SVGID_369_" overflow="visible"/></clipPath><path d="M84.3 83.6l2.4-1.4v-3.1l-2.4 1.4v3.1z" clip-path="url(#SVGID_370_)" fill="none" stroke="#000" stroke-width=".205" stroke-linejoin="bevel" stroke-miterlimit="10"/><defs><path id="SVGID_371_" d="M-139.9-267.9h595.2v842h-595.2z"/></defs><clipPath id="SVGID_372_"><use xlink:href="#SVGID_371_" overflow="visible"/></clipPath><path d="M84.3 80.5l2.4-1.4-17.4-10-2.4 1.4" clip-path="url(#SVGID_372_)" fill="#f6f6f6"/><defs><path id="SVGID_373_" d="M-139.9-267.9h595.2v842h-595.2z"/></defs><clipPath id="SVGID_374_"><use xlink:href="#SVGID_373_" overflow="visible"/></clipPath><path d="M84.3 80.5l2.4-1.4-17.4-10-2.4 1.4 17.4 10z" clip-path="url(#SVGID_374_)" fill="none" stroke="#000" stroke-width=".205" stroke-linejoin="bevel" stroke-miterlimit="10"/><defs><path id="SVGID_375_" d="M-139.9-267.9h595.2v842h-595.2z"/></defs><clipPath id="SVGID_376_"><use xlink:href="#SVGID_375_" overflow="visible"/></clipPath><path d="M84.3 83.6v-3.1l-17.4-10v3.1" clip-path="url(#SVGID_376_)" fill="#f6f6f6"/><defs><path id="SVGID_377_" d="M-139.9-267.9h595.2v842h-595.2z"/></defs><clipPath id="SVGID_378_"><use xlink:href="#SVGID_377_" overflow="visible"/></clipPath><path d="M84.3 83.6v-3.1l-17.4-10v3.1l17.4 10z" clip-path="url(#SVGID_378_)" fill="none" stroke="#000" stroke-width=".205" stroke-linejoin="bevel" stroke-miterlimit="10"/><defs><path id="SVGID_379_" d="M-139.9-267.9h595.2v842h-595.2z"/></defs><clipPath id="SVGID_380_"><use xlink:href="#SVGID_379_" overflow="visible"/></clipPath><path d="M85.5 79.1l1.5-.9v-3.1l-1.5 1" clip-path="url(#SVGID_380_)" fill="#f6f6f6"/><defs><path id="SVGID_381_" d="M-139.9-267.9h595.2v842h-595.2z"/></defs><clipPath id="SVGID_382_"><use xlink:href="#SVGID_381_" overflow="visible"/></clipPath><path d="M85.5 79.1l1.5-.9v-3.1l-1.5 1v3z" clip-path="url(#SVGID_382_)" fill="none" stroke="#000" stroke-width=".205" stroke-linejoin="bevel" stroke-miterlimit="10"/><defs><path id="SVGID_383_" d="M-139.9-267.9h595.2v842h-595.2z"/></defs><clipPath id="SVGID_384_"><use xlink:href="#SVGID_383_" overflow="visible"/></clipPath><path d="M85.5 76.1l1.5-1-17.3-9.9-1.6.9" clip-path="url(#SVGID_384_)" fill="#f6f6f6"/><defs><path id="SVGID_385_" d="M-139.9-267.9h595.2v842h-595.2z"/></defs><clipPath id="SVGID_386_"><use xlink:href="#SVGID_385_" overflow="visible"/></clipPath><path d="M85.5 76.1l1.5-1-17.3-9.9-1.6.9 17.4 10z" clip-path="url(#SVGID_386_)" fill="none" stroke="#000" stroke-width=".205" stroke-linejoin="bevel" stroke-miterlimit="10"/><defs><path id="SVGID_387_" d="M-139.9-267.9h595.2v842h-595.2z"/></defs><clipPath id="SVGID_388_"><use xlink:href="#SVGID_387_" overflow="visible"/></clipPath><path d="M85.5 79.1v-3l-17.4-10v3.1" clip-path="url(#SVGID_388_)" fill="#f6f6f6"/><defs><path id="SVGID_389_" d="M-139.9-267.9h595.2v842h-595.2z"/></defs><clipPath id="SVGID_390_"><use xlink:href="#SVGID_389_" overflow="visible"/></clipPath><path d="M85.5 79.1v-3l-17.4-10v3.1l17.4 9.9z" clip-path="url(#SVGID_390_)" fill="none" stroke="#000" stroke-width=".205" stroke-linejoin="bevel" stroke-miterlimit="10"/><defs><path id="SVGID_391_" d="M-139.9-267.9h595.2v842h-595.2z"/></defs><clipPath id="SVGID_392_"><use xlink:href="#SVGID_391_" overflow="visible"/></clipPath><path d="M68 66.5l1.3-.8-1.5-.8-1.4.7" clip-path="url(#SVGID_392_)" fill="#f6f6f6"/><defs><path id="SVGID_393_" d="M-139.9-267.9h595.2v842h-595.2z"/></defs><clipPath id="SVGID_394_"><use xlink:href="#SVGID_393_" overflow="visible"/></clipPath><path d="M68 66.5l1.3-.8-1.5-.8-1.4.7 1.6.9z" clip-path="url(#SVGID_394_)" fill="none" stroke="#000" stroke-width=".205" stroke-linejoin="bevel" stroke-miterlimit="10"/><defs><path id="SVGID_395_" d="M-139.9-267.9h595.2v842h-595.2z"/></defs><clipPath id="SVGID_396_"><use xlink:href="#SVGID_395_" overflow="visible"/></clipPath><path d="M86.6 82.2l1.3-.8-.4-.3-1.4.8" clip-path="url(#SVGID_396_)" fill="#f6f6f6"/><defs><path id="SVGID_397_" d="M-139.9-267.9h595.2v842h-595.2z"/></defs><clipPath id="SVGID_398_"><use xlink:href="#SVGID_397_" overflow="visible"/></clipPath><path d="M86.6 82.2l1.3-.8-.4-.3-1.4.8.5.3z" clip-path="url(#SVGID_398_)" fill="none" stroke="#000" stroke-width=".205" stroke-linejoin="bevel" stroke-miterlimit="10"/><defs><path id="SVGID_399_" d="M-139.9-267.9h595.2v842h-595.2z"/></defs><clipPath id="SVGID_400_"><use xlink:href="#SVGID_399_" overflow="visible"/></clipPath><path d="M85.7 76.7l1.3-.8V75l-1.3.8" clip-path="url(#SVGID_400_)" fill="#f6f6f6"/><defs><path id="SVGID_401_" d="M-139.9-267.9h595.2v842h-595.2z"/></defs><clipPath id="SVGID_402_"><use xlink:href="#SVGID_401_" overflow="visible"/></clipPath><path d="M85.7 76.7l1.3-.8V75l-1.3.8v.9z" clip-path="url(#SVGID_402_)" fill="none" stroke="#000" stroke-width=".205" stroke-linejoin="bevel" stroke-miterlimit="10"/><defs><path id="SVGID_403_" d="M-139.9-267.9h595.2v842h-595.2z"/></defs><clipPath id="SVGID_404_"><use xlink:href="#SVGID_403_" overflow="visible"/></clipPath><path d="M85.7 75.8L87 75 69.3 64.8l-1.3.8" clip-path="url(#SVGID_404_)" fill="#f6f6f6"/><defs><path id="SVGID_405_" d="M-139.9-267.9h595.2v842h-595.2z"/></defs><clipPath id="SVGID_406_"><use xlink:href="#SVGID_405_" overflow="visible"/></clipPath><path d="M85.7 75.8L87 75 69.3 64.8l-1.3.8 17.7 10.2z" clip-path="url(#SVGID_406_)" fill="none" stroke="#000" stroke-width=".205" stroke-linejoin="bevel" stroke-miterlimit="10"/><defs><path id="SVGID_407_" d="M-139.9-267.9h595.2v842h-595.2z"/></defs><clipPath id="SVGID_408_"><use xlink:href="#SVGID_407_" overflow="visible"/></clipPath><path d="M87.2 83.3l1.3-.8v-5.7l-1.3.8" clip-path="url(#SVGID_408_)" fill="#f6f6f6"/><defs><path id="SVGID_409_" d="M-139.9-267.9h595.2v842h-595.2z"/></defs><clipPath id="SVGID_410_"><use xlink:href="#SVGID_409_" overflow="visible"/></clipPath><path d="M87.2 83.3l1.3-.8v-5.7l-1.3.8v5.7z" clip-path="url(#SVGID_410_)" fill="none" stroke="#000" stroke-width=".205" stroke-linejoin="bevel" stroke-miterlimit="10"/><defs><path id="SVGID_411_" d="M-139.9-267.9h595.2v842h-595.2z"/></defs><clipPath id="SVGID_412_"><use xlink:href="#SVGID_411_" overflow="visible"/></clipPath><path d="M67.1 67.2l19.5 11.2v3.8l-.5-.3v.8l1.1.6v-5.7l-1.5-.9v-.9L68 65.6v.9l-1.6-.9" clip-path="url(#SVGID_412_)" fill="#f6f6f6"/><defs><path id="SVGID_413_" d="M-139.9-267.9h595.2v842h-595.2z"/></defs><clipPath id="SVGID_414_"><use xlink:href="#SVGID_413_" overflow="visible"/></clipPath><path d="M67.1 67.2l19.5 11.2v3.8l-.5-.3v.8l1.1.6v-5.7l-1.5-.9v-.9L68 65.6v.9l-1.6-.9" clip-path="url(#SVGID_414_)" fill="none" stroke="#000" stroke-width=".205" stroke-linejoin="bevel" stroke-miterlimit="10"/><defs><path id="SVGID_415_" d="M-139.9-267.9h595.2v842h-595.2z"/></defs><clipPath id="SVGID_416_"><use xlink:href="#SVGID_415_" overflow="visible"/></clipPath><path d="M87.2 77.6l1.3-.8-1.5-.9-1.3.8" clip-path="url(#SVGID_416_)" fill="#f6f6f6"/><defs><path id="SVGID_417_" d="M-139.9-267.9h595.2v842h-595.2z"/></defs><clipPath id="SVGID_418_"><use xlink:href="#SVGID_417_" overflow="visible"/></clipPath><path d="M87.2 77.6l1.3-.8-1.5-.9-1.3.8 1.5.9z" clip-path="url(#SVGID_418_)" fill="none" stroke="#000" stroke-width=".205" stroke-linejoin="bevel" stroke-miterlimit="10"/></g></g></g></g><defs><path id="SVGID_419_" d="M69.4 65.9l15.8 9 .8-.5-15.7-9"/></defs><clipPath id="SVGID_420_"><use xlink:href="#SVGID_419_" overflow="visible"/></clipPath><path d="M85.2 74.9l-.2-.1.8-.5.1.1h.1m-1.4.2l-.2-.1.9-.5.1.1m-1.4.1l.7-.5h.1v.1m-1.4.1l.7-.6.1.1h.1m-1.4.2l-.2-.1.8-.5h.1l.1.1m-1.4.1h-.2l.9-.5.1.1m-1.4.1l-.2-.1.9-.5.1.1m-2-.1l.7-.6h.1l.1.1m-.3.8l.7-.6.1.1h.1m-2-.2l-.2-.1.8-.5.1.1h.1m-1.4.2l-.2-.1.9-.5v.1h.1m-2-.2l.7-.5h.2m-.3.9l.7-.6h.1v.1m-1.9-.2l-.2-.1.8-.5.1.1h.1m-1.4.2l-.2-.1.9-.5.1.1m-1.4.1l.7-.5h.1m-1.4.2l.7-.6.1.1h.1m-1.4.2l-.2-.1.8-.5.2.1m-1.4.1h-.2l.9-.5.1.1m-1.4.1l-.2-.1.9-.5.1.1m-1.4.2l.7-.6.1.1m-1.4.1l.7-.5.2.1m-1.4.1l-.2-.1.8-.5.2.1m-1.4.2l-.2-.1.9-.5v.1h.1m-1.4.2l-.1-.1.8-.5.1.1m-1.4.1l.7-.6.2.1m-1.4.2l-.2-.1.8-.5.1.1h.1m-1.4.2l-.2-.1.9-.5.1.1" clip-path="url(#SVGID_420_)" fill="#545453"/><defs><path id="SVGID_421_" d="M17.1 5.3h257.2v257.2H17.1z"/></defs><clipPath id="SVGID_422_"><use xlink:href="#SVGID_421_" overflow="visible"/></clipPath><g clip-path="url(#SVGID_422_)"><defs><path id="SVGID_423_" d="M17.1 5.3h257.2v257.2H17.1z"/></defs><clipPath id="SVGID_424_"><use xlink:href="#SVGID_423_" overflow="visible"/></clipPath><g clip-path="url(#SVGID_424_)"><defs><path id="SVGID_425_" d="M1.8-5.1h331.7v245.8H1.8z"/></defs><clipPath id="SVGID_426_"><use xlink:href="#SVGID_425_" overflow="visible"/></clipPath><g clip-path="url(#SVGID_426_)"><defs><path id="SVGID_427_" d="M1.8-7.1h331.7v293.4H1.8z"/></defs><clipPath id="SVGID_428_"><use xlink:href="#SVGID_427_" overflow="visible"/></clipPath><g clip-path="url(#SVGID_428_)"><defs><path id="SVGID_429_" d="M-139.9-267.9h595.2v842h-595.2z"/></defs><clipPath id="SVGID_430_"><use xlink:href="#SVGID_429_" overflow="visible"/></clipPath><path d="M69 69.7l-.2-.1v-1.4l.2.1m.5 1.7l-.1-1.4.1.1m.6 1.6l-.1-1.4.1.1m.6 1.7l-.2-.1v-1.4l.2.1m.6 1.7l-.2-.1v-1.3l.2.1m.5 1.6l-.1-1.4.1.1" clip-path="url(#SVGID_430_)" fill="#545453"/><defs><path id="SVGID_431_" d="M-139.9-267.9h595.2v842h-595.2z"/></defs><clipPath id="SVGID_432_"><use xlink:href="#SVGID_431_" overflow="visible"/></clipPath><path d="M67.6 72.1v.9l2.6 1.5v-.9l-2.6-1.5zm3.2 1.8v1l2.7 1.5v-1l-2.7-1.5zm3.3 1.9v.9l2.6 1.5v-.9l-2.6-1.5zm3.3 1.9v.9l2.6 1.5v-.9l-2.6-1.5zm3.2 1.8v.9l2.7 1.6v-1l-2.7-1.5z" clip-path="url(#SVGID_432_)" fill="none" stroke="#000" stroke-width=".205" stroke-linejoin="bevel" stroke-miterlimit="10"/><defs><path id="SVGID_433_" d="M-139.9-267.9h595.2v842h-595.2z"/></defs><clipPath id="SVGID_434_"><use xlink:href="#SVGID_433_" overflow="visible"/></clipPath><path d="M72.4 71.7l-.1-1.5.1.1M73 72l-.2-.1v-1.3l.2.1m.6 1.6l-.2-.1v-1.3l.2.1m.5 1.7l-.1-1.5.1.1m.6 1.7l-.1-1.4h.1m.6 1.7l-.1-1.4.1.1m.6 1.6h-.2v-1.4l.2.1m.6 1.7l-.2-.1v-1.3h.2m.5 1.7l-.1-1.4.1.1m.6 1.6l-.1-1.4.1.1m.6 1.7l-.2-.1v-1.4l.2.1m.6 1.7l-.2-.1v-1.3l.2.1m.5 1.6l-.1-1.4.1.1m.6 1.7l-.1-1.5.1.1m.6 1.7l-.2-.1v-1.3l.2.1m.6 1.6l-.2-.1v-1.3l.2.1m.6 1.7l-.2-.1v-1.4l.2.1m.5 1.7l-.1-1.4.1.1m.6 1.6l-.1-1.4.1.1m.6 1.7l-.2-.1v-1.4l.2.1m.6 1.7l-.2-.1v-1.3h.2m.5 1.7l-.1-1.4.1.1" clip-path="url(#SVGID_434_)" fill="#545453"/><defs><path id="SVGID_435_" d="M-139.9-267.9h595.2v842h-595.2z"/></defs><clipPath id="SVGID_436_"><use xlink:href="#SVGID_435_" overflow="visible"/></clipPath><path d="M147.5 16.6c.3-1.4 1.1-2.4 2-3 1.4-.9 5.1-2.9 5.1-2.9 1.4-.5 3.2-.3 5.1.8 4.4 2.5 7.9 8.7 7.9 13.8 0 2.5-.8 4.2-2.2 5.1l-4.5 2.6c-1.1.7-2.4.8-4 .3l-12.1 7c-1.2.6-2.9.5-4.7-.5-3.8-2.2-6.8-7.5-6.8-11.8 0-2 .7-3.5 1.7-4.2 0 0 4.2-2.6 5.4-3.2" clip-path="url(#SVGID_436_)" fill="#f6f6f6"/><defs><path id="SVGID_437_" d="M-139.9-267.9h595.2v842h-595.2z"/></defs><clipPath id="SVGID_438_"><use xlink:href="#SVGID_437_" overflow="visible"/></clipPath><path d="M149.5 13.6c1.3-.8 3.6-.7 5.6.4 4.4 2.5 7.9 8.7 7.9 13.8 0 2.5-.7 4.3-2.1 5.1m-27.1-4.4c0-3.9 2.7-5.5 6.1-3.5 3.4 1.9 6.1 6.7 6.1 10.6s-2.7 5.5-6.1 3.5c-3.4-1.9-6.1-6.7-6.1-10.6z" clip-path="url(#SVGID_438_)" fill="none" stroke="#000" stroke-width=".205" stroke-miterlimit="10"/><defs><path id="SVGID_439_" d="M-139.9-267.9h595.2v842h-595.2z"/></defs><clipPath id="SVGID_440_"><use xlink:href="#SVGID_439_" overflow="visible"/></clipPath><path d="M135.5 23.5c1.1-.8 2.8-.8 4.7-.1 4.1 1.5 8 6.2 8.8 10.4.4 2.4-.2 4.3-1.7 5.1" clip-path="url(#SVGID_440_)" fill="none" stroke="#000" stroke-width=".205" stroke-miterlimit="10"/><defs><path id="SVGID_441_" d="M-139.9-267.9h595.2v842h-595.2z"/></defs><clipPath id="SVGID_442_"><use xlink:href="#SVGID_441_" overflow="visible"/></clipPath><path d="M137.9 22.1c1.1-.7 2.8-.7 4.6 0 4.1 1.5 8 6.2 8.8 10.4.4 2.4-.2 4.3-1.7 5.1" clip-path="url(#SVGID_442_)" fill="none" stroke="#000" stroke-width=".205" stroke-miterlimit="10"/><defs><path id="SVGID_443_" d="M-139.9-267.9h595.2v842h-595.2z"/></defs><clipPath id="SVGID_444_"><use xlink:href="#SVGID_443_" overflow="visible"/></clipPath><path d="M142.6 19.4c1.1-.6 2.6-.7 4.4 0 4.1 1.5 8 6.2 8.8 10.4.4 2.4-.2 4.3-1.6 5.1" clip-path="url(#SVGID_444_)" fill="none" stroke="#000" stroke-width=".205" stroke-miterlimit="10"/><defs><path id="SVGID_445_" d="M-139.9-267.9h595.2v842h-595.2z"/></defs><clipPath id="SVGID_446_"><use xlink:href="#SVGID_445_" overflow="visible"/></clipPath><path d="M140.4 20.7c1.1-.6 2.7-.6 4.4 0 4.1 1.5 8 6.2 8.8 10.4.4 2.3-.1 4.2-1.4 5m-4.7-19.5c1.1-.6 2.3-.5 4 .1 4.1 1.5 8 6.2 8.8 10.4" clip-path="url(#SVGID_446_)" fill="none" stroke="#000" stroke-width=".205" stroke-miterlimit="10"/><defs><path id="SVGID_447_" d="M-139.9-267.9h595.2v842h-595.2z"/></defs><clipPath id="SVGID_448_"><use xlink:href="#SVGID_447_" overflow="visible"/></clipPath><path d="M144.9 18.1c1.1-.6 2.6-.7 4.4-.1 4.1 1.5 8 6.2 8.8 10.4.4 2.4-.3 4.4-1.7 5.2m-21.3-9.9c1.2-.7 2.9-.6 4.8.5 3.8 2.2 6.8 7.5 6.8 11.8 0 2.2-.8 3.7-2 4.4" clip-path="url(#SVGID_448_)" fill="none" stroke="#000" stroke-width=".205" stroke-miterlimit="10"/><defs><path id="SVGID_449_" d="M-139.9-267.9h595.2v842h-595.2z"/></defs><clipPath id="SVGID_450_"><use xlink:href="#SVGID_449_" overflow="visible"/></clipPath><path d="M157 33.3s.3 0 1.5-.8 1.9-2.2 1.9-4.3c0-4.3-3-9.6-6.8-11.8-1.9-1.1-3.6-1.2-4.9-.5l-1.2.7" clip-path="url(#SVGID_450_)" fill="none" stroke="#000" stroke-width=".205" stroke-miterlimit="10"/><defs><path id="SVGID_451_" d="M-139.9-267.9h595.2v842h-595.2z"/></defs><clipPath id="SVGID_452_"><use xlink:href="#SVGID_451_" overflow="visible"/></clipPath><path d="M147.5 16.6c.3-1.4 1.1-2.4 2-3 1.4-.9 5.1-2.9 5.1-2.9 1.4-.5 3.2-.3 5.1.8 4.4 2.5 7.9 8.7 7.9 13.8 0 2.5-.8 4.2-2.2 5.1l-4.5 2.6c-1.1.7-2.4.8-4 .3l-12.1 7c-1.2.6-2.9.5-4.7-.5-3.8-2.2-6.8-7.5-6.8-11.8 0-2 .7-3.5 1.7-4.2 0 0 4.2-2.6 5.4-3.2l7.1-4z" clip-path="url(#SVGID_452_)" fill="none" stroke="#000" stroke-width=".205" stroke-miterlimit="10"/><defs><path id="SVGID_453_" d="M-139.9-267.9h595.2v842h-595.2z"/></defs><clipPath id="SVGID_454_"><use xlink:href="#SVGID_453_" overflow="visible"/></clipPath><path d="M147.5 16.6c.3-1.4 1.1-2.4 2-3 1.4-.9 5.1-2.9 5.1-2.9 1.4-.5 3.2-.3 5.1.8 4.4 2.5 7.9 8.7 7.9 13.8 0 2.5-.8 4.2-2.2 5.1l-4.5 2.6c-1.1.7-2.4.8-4 .3l-12.1 7c-1.2.6-2.9.5-4.7-.5-3.8-2.2-6.8-7.5-6.8-11.8 0-2 .7-3.5 1.7-4.2 0 0 4.2-2.6 5.4-3.2l7.1-4z" clip-path="url(#SVGID_454_)" fill="none" stroke="#000" stroke-width=".412" stroke-miterlimit="10"/><defs><path id="SVGID_455_" d="M-139.9-267.9h595.2v842h-595.2z"/></defs><clipPath id="SVGID_456_"><use xlink:href="#SVGID_455_" overflow="visible"/></clipPath><path d="M127.7 49.5c.6-.8 1-2 1-3.5 0-4.3-3.1-9.6-6.8-11.8-1.3-.7-2.5-1-3.5-.9l-3.2-1.1c1-.9 2.9-1.8 2.9-1.8 1.5-.8 3.6-.7 5.9.6 4.7 2.7 8.5 9.3 8.5 14.7 0 1.5-.3 2.7-.8 3.7-.3.5-.6 1-1 1.3-.7.7-3 2.2-4.1 2.2" clip-path="url(#SVGID_456_)" fill="#f6f6f6"/><defs><path id="SVGID_457_" d="M-139.9-267.9h595.2v842h-595.2z"/></defs><clipPath id="SVGID_458_"><use xlink:href="#SVGID_457_" overflow="visible"/></clipPath><path d="M127.7 49.5c-1 .1-2.2-.2-3.5-.9-3.8-2.2-6.8-7.5-6.8-11.8 0-1.4.3-2.7 1-3.5l-3.3-1.1c-.3.3-.7.7-.9 1.1-.6 1-.9 2.3-.9 3.9 0 5.4 3.8 12 8.5 14.7 1.7 1 3.4 1.3 4.7 1.1" clip-path="url(#SVGID_458_)" fill="#f6f6f6"/><defs><path id="SVGID_459_" d="M-139.9-267.9h595.2v842h-595.2z"/></defs><clipPath id="SVGID_460_"><use xlink:href="#SVGID_459_" overflow="visible"/></clipPath><path d="M127.7 49.5c-1 .1-2.2-.2-3.5-.9-3.8-2.2-6.8-7.5-6.8-11.8 0-1.4.3-2.7 1-3.5 1-.1 2.2.2 3.5.9 3.8 2.2 6.8 7.5 6.8 11.8-.1 1.5-.4 2.7-1 3.5z" clip-path="url(#SVGID_460_)" fill="none" stroke="#000" stroke-width=".412" stroke-linecap="square" stroke-linejoin="round" stroke-miterlimit="10"/><defs><path id="SVGID_461_" d="M-139.9-267.9h595.2v842h-595.2z"/></defs><clipPath id="SVGID_462_"><use xlink:href="#SVGID_461_" overflow="visible"/></clipPath><path d="M115.1 32.2c-.3.3-.7.7-.9 1.1-.6 1-.9 2.3-.9 3.9 0 5.4 3.8 12 8.5 14.7 1.7 1 3.4 1.3 4.7 1.1 1.1 0 3.4-1.5 4.1-2.2.4-.4.7-.8 1-1.3.5-1 .8-2.2.8-3.7 0-5.4-3.8-12-8.5-14.8-2.3-1.3-4.4-1.5-5.9-.6 0 0-1.9.9-2.9 1.8z" clip-path="url(#SVGID_462_)" fill="none" stroke="#000" stroke-width=".412" stroke-miterlimit="10"/><defs><path id="SVGID_463_" d="M-139.9-267.9h595.2v842h-595.2z"/></defs><clipPath id="SVGID_464_"><use xlink:href="#SVGID_463_" overflow="visible"/></clipPath><path d="M130.3 47c0 3.4-1.5 5.6-3.8 6-1.3.3-3-.1-4.7-1.1-4.7-2.7-8.5-9.3-8.5-14.7 0-2.2.7-3.9 1.8-5 1.6-1.4 4-1.5 6.8 0 4.6 2.8 8.4 9.4 8.4 14.8z" clip-path="url(#SVGID_464_)" fill="none" stroke="#000" stroke-width=".205" stroke-miterlimit="10"/><defs><path id="SVGID_465_" d="M-139.9-267.9h595.2v842h-595.2z"/></defs><clipPath id="SVGID_466_"><use xlink:href="#SVGID_465_" overflow="visible"/></clipPath><path d="M127.6 49.5c-1.2 1.6-3.4 1.9-5.8.4-3.8-2.2-6.8-7.5-6.8-11.8 0-2.7 1.1-4.5 3.4-4.9" clip-path="url(#SVGID_466_)" fill="none" stroke="#000" stroke-width=".205" stroke-miterlimit="10"/><defs><path id="SVGID_467_" d="M-139.9-267.9h595.2v842h-595.2z"/></defs><clipPath id="SVGID_468_"><use xlink:href="#SVGID_467_" overflow="visible"/></clipPath><path d="M127.7 49.5c.6-.8 1-2 1-3.5 0-4.3-3.1-9.6-6.8-11.8-1.3-.7-2.5-1-3.5-.9l-3.2-1.1c1-.9 2.9-1.8 2.9-1.8 1.5-.8 3.6-.7 5.9.6 4.7 2.7 8.5 9.3 8.5 14.7 0 1.5-.3 2.7-.8 3.7-.3.5-.6 1-1 1.3-.7.7-3 2.2-4.1 2.2" clip-path="url(#SVGID_468_)" fill="#f6f6f6"/><defs><path id="SVGID_469_" d="M-139.9-267.9h595.2v842h-595.2z"/></defs><clipPath id="SVGID_470_"><use xlink:href="#SVGID_469_" overflow="visible"/></clipPath><path d="M127.7 49.5c-1 .1-2.2-.2-3.5-.9-3.8-2.2-6.8-7.5-6.8-11.8 0-1.4.3-2.7 1-3.5l-3.3-1.1c-.3.3-.7.7-.9 1.1-.6 1-.9 2.3-.9 3.9 0 5.4 3.8 12 8.5 14.7 1.7 1 3.4 1.3 4.7 1.1" clip-path="url(#SVGID_470_)" fill="#f6f6f6"/><defs><path id="SVGID_471_" d="M-139.9-267.9h595.2v842h-595.2z"/></defs><clipPath id="SVGID_472_"><use xlink:href="#SVGID_471_" overflow="visible"/></clipPath><path d="M127.7 49.5c-1 .1-2.2-.2-3.5-.9-3.8-2.2-6.8-7.5-6.8-11.8 0-1.4.3-2.7 1-3.5 1-.1 2.2.2 3.5.9 3.8 2.2 6.8 7.5 6.8 11.8-.1 1.5-.4 2.7-1 3.5z" clip-path="url(#SVGID_472_)" fill="none" stroke="#000" stroke-width=".412" stroke-linecap="square" stroke-linejoin="round" stroke-miterlimit="10"/><defs><path id="SVGID_473_" d="M-139.9-267.9h595.2v842h-595.2z"/></defs><clipPath id="SVGID_474_"><use xlink:href="#SVGID_473_" overflow="visible"/></clipPath><path d="M115.1 32.2c-.3.3-.7.7-.9 1.1-.6 1-.9 2.3-.9 3.9 0 5.4 3.8 12 8.5 14.7 1.7 1 3.4 1.3 4.7 1.1 1.1 0 3.4-1.5 4.1-2.2.4-.4.7-.8 1-1.3.5-1 .8-2.2.8-3.7 0-5.4-3.8-12-8.5-14.8-2.3-1.3-4.4-1.5-5.9-.6 0 0-1.9.9-2.9 1.8z" clip-path="url(#SVGID_474_)" fill="none" stroke="#000" stroke-width=".412" stroke-miterlimit="10"/><defs><path id="SVGID_475_" d="M-139.9-267.9h595.2v842h-595.2z"/></defs><clipPath id="SVGID_476_"><use xlink:href="#SVGID_475_" overflow="visible"/></clipPath><path d="M130.3 47c0 3.4-1.5 5.6-3.8 6-1.3.3-3-.1-4.7-1.1-4.7-2.7-8.5-9.3-8.5-14.7 0-2.2.7-3.9 1.8-5 1.6-1.4 4-1.5 6.8 0 4.6 2.8 8.4 9.4 8.4 14.8z" clip-path="url(#SVGID_476_)" fill="none" stroke="#000" stroke-width=".205" stroke-miterlimit="10"/><defs><path id="SVGID_477_" d="M-139.9-267.9h595.2v842h-595.2z"/></defs><clipPath id="SVGID_478_"><use xlink:href="#SVGID_477_" overflow="visible"/></clipPath><path d="M127.6 49.5c-1.2 1.6-3.4 1.9-5.8.4-3.8-2.2-6.8-7.5-6.8-11.8 0-2.7 1.1-4.5 3.4-4.9" clip-path="url(#SVGID_478_)" fill="none" stroke="#000" stroke-width=".205" stroke-miterlimit="10"/></g></g></g></g><defs><path id="SVGID_479_" d="M17.1 5.3h257.2v257.2H17.1z"/></defs><clipPath id="SVGID_480_"><use xlink:href="#SVGID_479_" overflow="visible"/></clipPath><g clip-path="url(#SVGID_480_)"><defs><path id="SVGID_481_" d="M1.8-5.1h331.7v245.8H1.8z"/></defs><clipPath id="SVGID_482_"><use xlink:href="#SVGID_481_" overflow="visible"/></clipPath><g clip-path="url(#SVGID_482_)"><defs><path id="SVGID_483_" d="M1.8-7.1h331.7v293.4H1.8z"/></defs><clipPath id="SVGID_484_"><use xlink:href="#SVGID_483_" overflow="visible"/></clipPath><g clip-path="url(#SVGID_484_)"><defs><path id="SVGID_485_" d="M-139.9-267.9h595.2v842h-595.2z"/></defs><clipPath id="SVGID_486_"><use xlink:href="#SVGID_485_" overflow="visible"/></clipPath><path d="M187.1 107.3v11.1l2.5 1.4-4.1 8.6-4.5-13.1 2.8 1.7v-11.5m3.3 88.8v6.2l2.5 1.5-4.1 8.6-4.5-13.1 2.8 1.7v-6.7M121.6 40.7l-9.5 5.5-2.5-1.4-5.5 7.8 13.6-2.6-2.8-1.6 9.9-5.8m-49.8 58v-11l-2.5-1.5 4.1-8.6 4.5 13.1-2.8-1.6v11.4" clip-path="url(#SVGID_486_)" fill-rule="evenodd" clip-rule="evenodd"/><defs><path id="SVGID_487_" d="M-139.9-267.9h595.2v842h-595.2z"/></defs><clipPath id="SVGID_488_"><use xlink:href="#SVGID_487_" overflow="visible"/></clipPath><path d="M123 41.4l3.5-1.9" clip-path="url(#SVGID_488_)" fill="none" stroke="#000" stroke-width=".205" stroke-miterlimit="10" stroke-dasharray="3.964,3.964"/><defs><path id="SVGID_489_" d="M-139.9-267.9h595.2v842h-595.2z"/></defs><clipPath id="SVGID_490_"><use xlink:href="#SVGID_489_" overflow="visible"/></clipPath><path d="M130.2 37.4l2.3-1.2" clip-path="url(#SVGID_490_)" fill="none" stroke="#000" stroke-width=".205" stroke-miterlimit="10"/><defs><path id="SVGID_491_" d="M-139.9-267.9h595.2v842h-595.2z"/></defs><clipPath id="SVGID_492_"><use xlink:href="#SVGID_491_" overflow="visible"/></clipPath><path d="M135.3 34.8l1.9-1" clip-path="url(#SVGID_492_)" fill="none" stroke="#000" stroke-width=".205" stroke-miterlimit="10" stroke-dasharray=".631,3.152"/><defs><path id="SVGID_493_" d="M-139.9-267.9h595.2v842h-595.2z"/></defs><clipPath id="SVGID_494_"><use xlink:href="#SVGID_493_" overflow="visible"/></clipPath><path d="M138.6 33l2.3-1.2m30.6 28.9l2.3-1.3" clip-path="url(#SVGID_494_)" fill="none" stroke="#000" stroke-width=".205" stroke-miterlimit="10"/><defs><path id="SVGID_495_" d="M-139.9-267.9h595.2v842h-595.2z"/></defs><clipPath id="SVGID_496_"><use xlink:href="#SVGID_495_" overflow="visible"/></clipPath><path d="M176.1 58.1l1.6-.9" clip-path="url(#SVGID_496_)" fill="none" stroke="#000" stroke-width=".205" stroke-miterlimit="10" stroke-dasharray=".525,2.626"/><defs><path id="SVGID_497_" d="M-139.9-267.9h595.2v842h-595.2z"/></defs><clipPath id="SVGID_498_"><use xlink:href="#SVGID_497_" overflow="visible"/></clipPath><path d="M178.8 56.6l2.3-1.3m-9.6 5.4l-2.2-1.3" clip-path="url(#SVGID_498_)" fill="none" stroke="#000" stroke-width=".205" stroke-miterlimit="10"/><defs><path id="SVGID_499_" d="M-139.9-267.9h595.2v842h-595.2z"/></defs><clipPath id="SVGID_500_"><use xlink:href="#SVGID_499_" overflow="visible"/></clipPath><path d="M167.6 58.4l-1.2-.7" clip-path="url(#SVGID_500_)" fill="none" stroke="#000" stroke-width=".205" stroke-miterlimit="10" stroke-dasharray=".398,1.992"/><defs><path id="SVGID_501_" d="M-139.9-267.9h595.2v842h-595.2z"/></defs><clipPath id="SVGID_502_"><use xlink:href="#SVGID_501_" overflow="visible"/></clipPath><path d="M165.5 57.2L134 38.9" clip-path="url(#SVGID_502_)" fill="none" stroke="#000" stroke-width=".205" stroke-miterlimit="10" stroke-dasharray="4.981,1.992,.398,1.992"/><defs><path id="SVGID_503_" d="M-139.9-267.9h595.2v842h-595.2z"/></defs><clipPath id="SVGID_504_"><use xlink:href="#SVGID_503_" overflow="visible"/></clipPath><path d="M133.1 38.4l-2.2-1.3" clip-path="url(#SVGID_504_)" fill="none" stroke="#000" stroke-width=".205" stroke-miterlimit="10"/></g></g></g><defs><path id="SVGID_505_" d="M1.8-5.1h331.7v245.8H1.8z"/></defs><clipPath id="SVGID_506_"><use xlink:href="#SVGID_505_" overflow="visible"/></clipPath><g clip-path="url(#SVGID_506_)"><defs><path id="SVGID_507_" d="M1.8-7.1h331.7v293.4H1.8z"/></defs><clipPath id="SVGID_508_"><use xlink:href="#SVGID_507_" overflow="visible"/></clipPath><g clip-path="url(#SVGID_508_)"><defs><path id="SVGID_509_" d="M-139.9-267.9h595.2v842h-595.2z"/></defs><clipPath id="SVGID_510_"><use xlink:href="#SVGID_509_" overflow="visible"/></clipPath><path d="M209.1 39.8l-.2.1.3.5.2-.2M228.6 26l.2-.2.3.5-.2.1" clip-path="url(#SVGID_510_)"/><defs><path id="SVGID_511_" d="M-139.9-267.9h595.2v842h-595.2z"/></defs><clipPath id="SVGID_512_"><use xlink:href="#SVGID_511_" overflow="visible"/></clipPath><path d="M209.1 39.8l.3.4 19.5-13.8-.3-.4M78.5 154.2l-.1.2.4.3.1-.2m22.9-27.7l.1-.2.4.3-.1.2" clip-path="url(#SVGID_512_)"/><defs><path id="SVGID_513_" d="M-139.9-267.9h595.2v842h-595.2z"/></defs><clipPath id="SVGID_514_"><use xlink:href="#SVGID_513_" overflow="visible"/></clipPath><path d="M78.5 154.2l.4.3 23.3-27.4-.4-.3" clip-path="url(#SVGID_514_)"/></g></g><defs><path id="SVGID_515_" d="M1.8-5.1h331.7v245.8H1.8z"/></defs><clipPath id="SVGID_516_"><use xlink:href="#SVGID_515_" overflow="visible"/></clipPath><g clip-path="url(#SVGID_516_)"><defs><path id="SVGID_517_" d="M1.8-7.1h331.7v293.4H1.8z"/></defs><clipPath id="SVGID_518_"><use xlink:href="#SVGID_517_" overflow="visible"/></clipPath><g clip-path="url(#SVGID_518_)"><defs><path id="SVGID_519_" d="M-139.9-267.9h595.2v842h-595.2z"/></defs><clipPath id="SVGID_520_"><use xlink:href="#SVGID_519_" overflow="visible"/></clipPath><path d="M114.6 36.6l.2.1.3-.4-.2-.1M91.8 20.1l-.1-.1.3-.3.1.1" clip-path="url(#SVGID_520_)"/><defs><path id="SVGID_521_" d="M-139.9-267.9h595.2v842h-595.2z"/></defs><clipPath id="SVGID_522_"><use xlink:href="#SVGID_521_" overflow="visible"/></clipPath><path d="M114.6 36.6l.3-.4-22.8-16.4-.3.3m113.6 215.3l-.1.1.4.3.1-.1m22.8-27.8l.2-.1.3.3-.1.1" clip-path="url(#SVGID_522_)"/><defs><path id="SVGID_523_" d="M-139.9-267.9h595.2v842h-595.2z"/></defs><clipPath id="SVGID_524_"><use xlink:href="#SVGID_523_" overflow="visible"/></clipPath><path d="M205.4 235.4l.4.3 23.2-27.5-.4-.3m-32.4-60.5l-.1.2.3.3.1-.2m32-38.8l.1-.2.4.3-.1.2" clip-path="url(#SVGID_524_)"/><defs><path id="SVGID_525_" d="M-139.9-267.9h595.2v842h-595.2z"/></defs><clipPath id="SVGID_526_"><use xlink:href="#SVGID_525_" overflow="visible"/></clipPath><path d="M196.2 147.4l.3.3 32.4-38.5-.4-.3M47 76.6l-.1.2.4.3.1-.2m17.9-22.1l.1-.2.3.3-.1.2" clip-path="url(#SVGID_526_)"/><defs><path id="SVGID_527_" d="M-139.9-267.9h595.2v842h-595.2z"/></defs><clipPath id="SVGID_528_"><use xlink:href="#SVGID_527_" overflow="visible"/></clipPath><path d="M47 76.6l.4.3 18.2-21.8-.3-.3" clip-path="url(#SVGID_528_)"/></g></g><text transform="translate(28.615 19.692)" class="st266 st267">Lock ring M12x0.5</text><text transform="translate(232.233 26.328)" class="st266 st267">S-mount lens</text><text transform="translate(234.626 106.353)"><tspan x="0" y="0" class="st266 st267">BCON for MIPI to</tspan><tspan x="0" y="8.4" class="st266 st267">Mini-SAS adapter</tspan></text><text transform="translate(234.627 203.36)"><tspan x="0" y="0" class="st266 st267">Processing board</tspan><tspan x="0" y="8.4" class="st266 st267">(example)</tspan></text><text transform="translate(45.43 164.282)"><tspan x="0" y="0" class="st266 st267">Flexible flat</tspan><tspan x="0" y="8.4" class="st266 st267">cable</tspan></text><text transform="translate(10.054 82.743)"><tspan x="0" y="0" class="st266 st267">Basler</tspan><tspan x="0" y="8.4" class="st266 st267">dart BCON for</tspan><tspan x="0" y="16.8" class="st266 st267">MIPI camera</tspan></text></svg>