<svg version="1.1" id="Layer_1" xmlns="http://www.w3.org/2000/svg" xmlns:xlink="http://www.w3.org/1999/xlink" x="0" y="0" viewBox="0 0 400 380" style="background-color:#fff" xml:space="preserve"><style>.st7{font-family:Helvetica,Arial,sans-serif}.st8{font-size:13px}</style><path d="M58.6 267.1h322V17.8h-322v249.3z" fill="#fff"/><path d="M58.6 267.1h322M58.6 17.8h322m0 249.3V17.8m-322 249.3V17.8" fill="none" stroke="#000" stroke-linecap="square"/><path d="M58.6 267.1v-2.9m0-246.4v2.9m63.1 246.4v-2.9m0-246.4v2.9m63.2 246.4v-2.9m0-246.4v2.9M248 267.1v-2.9m0-246.4v2.9m63.1 246.4v-2.9m0-246.4v2.9m63.2 246.4v-2.9m0-246.4v2.9M58.6 267.1h2.9m319.1 0h-2.9M58.6 218.2h2.9m319.1 0h-2.9M58.6 169.3h2.9m319.1 0h-2.9M58.6 120.4h2.9m319.1 0h-2.9M58.6 71.5h2.9m319.1 0h-2.9M58.6 22.7h2.9m319.1 0h-2.9" stroke="#000" stroke-width=".5" stroke-linejoin="round"/><defs><path id="SVGID_1_" d="M58.6 17.8h322v249.3h-322z"/></defs><clipPath id="SVGID_2_"><use xlink:href="#SVGID_1_" overflow="visible"/></clipPath><path d="M58.6 267.1l8.8-10.9 8.8-11.2 8.8-11.5 8.8-11.8 8.8-12 8.8-12.3 8.8-12.7 7.6-11.1 7.6-11.4 7.6-11.6 7.6-11.9 7.6-12.2 7.6-12.5 7.6-12.6 2.5-3.7 2.5-3.4 2.5-3.1 2.5-2.9 2.5-2.7 3.8-3.8 3.8-3.5 3.8-3.2 3.8-3 3.8-2.8 3.8-2.6 5.1-3.2 5.1-3 5.1-2.8 5.1-2.6 5.1-2.5 6.3-2.9 6.3-2.7 6.3-2.5 6.3-2.3 6.3-2.2 7.6-2.4 7.6-2.2 7.6-2.1 7.6-1.9 8.8-2.1 8.8-1.9 8.8-1.7 10.1-1.8 10.1-1.6 10.1-1.5 11.4-1.5 11.4-1.3 5.1-.5h0" clip-path="url(#SVGID_2_)" fill="none" stroke="#006f9f" stroke-linecap="square" stroke-linejoin="round"/><defs><path id="SVGID_3_" d="M58.6 17.8h322v249.3h-322z"/></defs><clipPath id="SVGID_4_"><use xlink:href="#SVGID_3_" overflow="visible"/></clipPath><g clip-path="url(#SVGID_4_)"><path d="M171.3 107.2c.6 0 1.1-.2 1.5-.6s.6-1 .6-1.5c0-.6-.2-1.1-.6-1.5-.4-.4-1-.6-1.5-.6-.6 0-1.1.2-1.5.6s-.6 1-.6 1.5c0 .6.2 1.1.6 1.5.4.4.9.6 1.5.6z" fill="green" stroke="#000" stroke-width=".5" stroke-linejoin="round"/></g><text transform="translate(38.882 222.425)" class="st7 st8">50</text><text transform="translate(114.61 284.215)" class="st7 st8">50</text><text transform="translate(31.662 173.447)" class="st7 st8">100</text><text transform="translate(174.112 284.215)" class="st7 st8">100</text><text transform="translate(31.662 124.471)" class="st7 st8">150</text><text transform="translate(237.226 284.215)" class="st7 st8">150</text><text transform="translate(31.662 75.495)" class="st7 st8">200</text><text transform="translate(300.338 284.216)" class="st7 st8">200</text><text transform="translate(31.662 26.519)" class="st7 st8">250</text><text transform="translate(363.452 284.215)" class="st7 st8">250</text><text transform="translate(46.103 284.215)" class="st7 st8">0</text><text transform="translate(55.593 333.545)" class="st7 st8">Contrast = 0.3</text><text transform="translate(55.593 349.145)" class="st8" font-family="Helvetica,Arial,sans-serif" font-weight="700" fill="#f99d33">Brightness = 0.3</text><text transform="translate(55.593 364.745)" class="st7 st8">S-Curve contrast mode</text><text transform="translate(170.258 311.21)" class="st7 st8">Input pixel values</text><text transform="rotate(-90 111.901 90.31)" class="st7 st8">Output pixel values</text><text transform="translate(219.75 155.838)" class="st7" font-size="14">Pivot point</text><path d="M215.7 141.4L186 116.6" fill="none" stroke="#000" stroke-miterlimit="10"/><path d="M189.4 115.6l-10.1-4.7 6.4 9.2 3.7-4.5z"/><text transform="translate(237.226 349.145)" class="st7 st8">8-bit pixel values shown</text><text transform="translate(237.226 364.745)" class="st7 st8">as an example</text></svg>