<svg version="1.1" id="Layer_1" xmlns="http://www.w3.org/2000/svg" xmlns:xlink="http://www.w3.org/1999/xlink" x="0" y="0" viewBox="0 0 576 432" style="background-color:#fff" xml:space="preserve"><style>.st1{fill:#fff}.st3{stroke-opacity:.15;stroke-dasharray:32,0}.st3,.st4{fill:none;stroke:#262626;stroke-width:2}.st5{fill:#262626}.st6{font-family:Helvetica,Arial,sans-serif}.st7{font-size:14px}.st10,.st9{fill:none;stroke-width:4;stroke-linejoin:round}.st9{stroke:#f89c33}.st10{stroke:#14487e}</style><path class="st1" d="M0 0h576v432H0V0z"/><path shape-rendering="crispEdges" class="st1" d="M0 432h576V0H0v432z"/><defs><path id="SVGID_1_" d="M0 0h576v432H0z"/></defs><clipPath id="SVGID_2_"><use xlink:href="#SVGID_1_" overflow="visible"/></clipPath><g clip-path="url(#SVGID_2_)"><path shape-rendering="crispEdges" class="st1" d="M74.9 384h446.4V32.4H74.9V384z"/><path class="st3" d="M74.9 384V32.4M149.3 384V32.4M223.7 384V32.4M298.1 384V32.4M372.5 384V32.4M446.9 384V32.4M521.3 384V32.4"/><path class="st4" d="M74.9 384v-4.5m74.4 4.5v-4.5m74.4 4.5v-4.5m74.4 4.5v-4.5m74.4 4.5v-4.5m74.4 4.5v-4.5m74.4 4.5v-4.5"/><text transform="translate(70.38 408.995)" class="st5 st6 st7">0</text><text transform="translate(140.28 408.995)" class="st5 st6 st7">1</text><text transform="translate(149.28 408.995)" class="st5 st6 st7">0</text><text transform="translate(214.68 408.995)" class="st5 st6 st7">2</text><text transform="translate(223.68 408.995)" class="st5 st6 st7">0</text><text transform="translate(289.08 408.995)" class="st5 st6 st7">3</text><text transform="translate(298.08 408.995)" class="st5 st6 st7">0</text><text transform="translate(363.48 408.995)" class="st5 st6 st7">4</text><text transform="translate(372.48 408.995)" class="st5 st6 st7">0</text><text transform="translate(437.88 408.995)" class="st5 st6 st7">5</text><text transform="translate(446.88 408.995)" class="st5 st6 st7">0</text><text transform="translate(512.28 408.995)" class="st5 st6 st7">6</text><text transform="translate(521.28 408.995)" class="st5 st6 st7">0</text><path class="st3" d="M74.9 384h446.4M74.9 333.8h446.4M74.9 283.5h446.4M74.9 233.3h446.4M74.9 183.1h446.4M74.9 132.9h446.4M74.9 82.6h446.4M74.9 32.4h446.4"/><path class="st4" d="M74.9 384h4.4m-4.4-50.2h4.4m-4.4-50.3h4.4m-4.4-50.2h4.4m-4.4-50.2h4.4m-4.4-50.2h4.4m-4.4-50.3h4.4m-4.4-50.2h4.4"/><text transform="translate(43.873 390.508)" class="st5 st6 st7">-</text><text transform="translate(48.873 390.508)" class="st5 st6 st7">5</text><text transform="translate(57.873 390.508)" class="st5 st6 st7">0</text><text transform="translate(43.873 340.278)" class="st5 st6 st7">-</text><text transform="translate(48.873 340.278)" class="st5 st6 st7">4</text><text transform="translate(57.873 340.278)" class="st5 st6 st7">0</text><text transform="translate(43.873 290.049)" class="st5 st6 st7">-</text><text transform="translate(48.873 290.049)" class="st5 st6 st7">3</text><text transform="translate(57.873 290.049)" class="st5 st6 st7">0</text><text transform="translate(43.873 239.819)" class="st5 st6 st7">-</text><text transform="translate(48.873 239.819)" class="st5 st6 st7">2</text><text transform="translate(57.873 239.819)" class="st5 st6 st7">0</text><text transform="translate(43.873 189.589)" class="st5 st6 st7">-</text><text transform="translate(48.873 189.589)" class="st5 st6 st7">1</text><text transform="translate(57.873 189.589)" class="st5 st6 st7">0</text><text transform="translate(57.873 139.359)" class="st5 st6 st7">0</text><text transform="translate(48.873 89.13)" class="st5 st6 st7">1</text><text transform="translate(57.873 89.13)" class="st5 st6 st7">0</text><text transform="translate(48.873 38.9)" class="st5 st6 st7">2</text><text transform="translate(57.873 38.9)" class="st5 st6 st7">0</text><path d="M74.9 384h446.4m-446.4 0V32.4" fill="none" stroke="#262626" stroke-width="2" stroke-linecap="square" stroke-dasharray="32,0"/><text transform="translate(258.58 427.995)" class="st5 st6 st7">T</text><text transform="translate(269.58 427.995)" class="st5 st6 st7">i</text><text transform="translate(273.58 427.995)" class="st5 st6 st7">m</text><text transform="translate(287.58 427.995)" class="st5 st6 st7">e</text><text transform="translate(300.58 427.995)" class="st5 st6 st7">[</text><text transform="translate(305.58 427.995)" class="st5 st6 st7">m</text><text transform="translate(319.58 427.995)" class="st5 st6 st7">i</text><text transform="translate(323.58 427.995)" class="st5 st6 st7">n</text><text transform="translate(332.58 427.995)" class="st5 st6 st7">]</text><text transform="rotate(-90 168.538 133.666)" class="st5 st6 st7">M</text><text transform="rotate(-90 161.038 126.166)" class="st5 st6 st7">e</text><text transform="rotate(-90 156.538 121.666)" class="st5 st6 st7">a</text><text transform="rotate(-90 151.538 116.666)" class="st5 st6 st7">s</text><text transform="rotate(-90 147.038 112.166)" class="st5 st6 st7">u</text><text transform="rotate(-90 142.538 107.666)" class="st5 st6 st7">r</text><text transform="rotate(-90 139.538 104.666)" class="st5 st6 st7">e</text><text transform="rotate(-90 135.038 100.166)" class="st5 st6 st7">m</text><text transform="rotate(-90 128.038 93.166)" class="st5 st6 st7">e</text><text transform="rotate(-90 123.538 88.666)" class="st5 st6 st7">n</text><text transform="rotate(-90 119.038 84.166)" class="st5 st6 st7">t</text><text transform="rotate(-90 114.538 79.666)" class="st5 st6 st7">E</text><text transform="rotate(-90 109.038 74.166)" class="st5 st6 st7">r</text><text transform="rotate(-90 106.038 71.166)" class="st5 st6 st7">r</text><text transform="rotate(-90 103.038 68.166)" class="st5 st6 st7">o</text><text transform="rotate(-90 98.538 63.666)" class="st5 st6 st7">r</text><text transform="rotate(-90 93.538 58.666)" class="st5 st6 st7">[</text><text transform="rotate(-90 91.038 56.166)" class="st5 st6 st7">m</text><text transform="rotate(-90 84.038 49.166)" class="st5 st6 st7">m</text><text transform="rotate(-90 77.038 42.166)" class="st5 st6 st7">]</text><path class="st9" d="M76.6 384.4l.5-3.7.8-2.8.7-2.5.7-1.9.8-2.8.7-1.3.8-1.7.7-2 .8-1 .7-2 .8-1.8.7-1.3.7-1.5.8-1.5.7-1.4.8-1.1.7-1.6.8-1.6.7-1.1.7-1.6.8-.8.7-1.5.8-1.5.7-.9.8-1.4.7-1.2.8-1.2.7-1 .7-1.7.8-.7.7-1.2.8-1.2.7-.9.8-1.4.7-1 .8-1.2.7-1.3.7-1.3.8-.8.7-.7.8-1.4.7-1.3.8-.8.7-.6.7-1 .8-1.5.7-.7.8-1.2.7-.8.8-.9.7-.6.8-1.2.7-.9.7-.8.8-1 .7-.9.8-1.1.7-.5.8-1.4.7-.3.8-.7.7-.9.7-.7.8-1.1.7-1 .8-1.1.7-.7.8-.8.7-.6.7-.7.8-.8.7-.8.8-1 .7-.7.8-.6.7-.7.8-.7.7-.8.7-.6.8-1 .7-.6.8-.9.7-.6.8-.7.7-.9.8-.6.7-.8.7-.7.8-.7.7-.5.8-1 .7-.8.8-.6.7-.8.7-.6.8-.5.7-.9.8-.9.7-.4.8-.7.7-.6.8-.7.7-.7.7-.6.8-.6.7-.6.8-.6.7-.7.8-.4.7-1.1.8-.5.7-1 .7-.3.8-.8.7-.3.8-.8.7-.5.8-.7.7-.7.7-.6.8-.8.7-.1.8-.8.7-.6.8-.6.7-.6.8-.8.7-.5.7-.6.8-.7.7-.3.8-.6.7-.6.8-.5.7-.7.8-.2.7-.8.7-.6.8-.3.7-.7.8-.4.7-.5.8-.8.7-.4.7-.3.8-.8.7-.5.8-.4.7-.5.8-1 .7-.3.8-.6.7-.6.7-.4.8-.5.7-.5.8-.7.7-.5.8-.1.7-.8.8-.5.7-.5.7-.6.8-.2.7-.7.8-.5.7-.6.8-.4.7-.7.7-.6.8-.3.7-.7.8-.4.7-.5.8-.9.7-.3.8-.2.7-1.2.7.2.8-1 .7-.1.8-.9.7-.7.8-.4.7-.4.8-.6.7-.3.7-.6.8-.6.7-.3.8-.6.7-.3.8-.9.7-.3.7-.5.8-.6.7-.6.8-.4.7-.4.8-.5.7-.2.8-.7.7-.6.7-.6.8-.3.7-.6.8-.6.7-.5.8-.5.7-.1.8-.9.7-.4.7-.4.8-.7.7-.7h.8l.7-.6.8-.2.7-.7.7-.5.8-.4.7-.1.8-1 .7-.3.8-.1.7-.5.8-.4.7-.7.7-.5.8-.1.7-.6.8-.4.7-.4.8-.7.7.1.8-.7.7-.6.7-.1.8-.9.7.2.8-.9.7-.2.8-.1.7-.7.7-.5.8-.5.7.1.8-.7h.7l.8-.9.7-.2.8-.5.7-.5.7-.2.8-.6.7-.4.8-.2.7-.5.8-.4.7-.3.8-.7.7-.4.7-.5.8-.2.7-.1.8-.6.7-.3.8-.2.7-.4.7-.1.8-.5h.7l.8-.3.7-.7.8-.4.7-.3.8-.3.7-.4.7-.2.8-.2.7-.2.8-.6.7-.6h.8l.7-.3.8-.2.7-.3.7.3.8-1.1.7.4.8-1h.7l.8-.4.7-.5.7.1.8-.2.7-.8.8-.4.7.2.8-.6.7-.3.8-.3.7-.5.7.1.8-.3.7-.5.8-.6.7-.2.8-.3.7-.1.8-.7.7-.2.7-.4.8-.3.7.1.8-.5.7-.1.8-.3.7-.2.7.1.8-.4.7-.4h2.3l.7-.5.8-.3.7-.7.7-.1.8-.5.7.3.8-.8.7-.2.8-.1.7-.4.8-.1.7-.2.7-.5.8-.1.7-.3.8-.3.7-.1.8-.3.7-.3h.7l.8-.3.7-.3.8-.4.7.1.8-.5.7-.2.8-.1.7-.1.7-.4.8-.3.7-.2.8-.1.7-.4.8-.1.7-.2.8-.4.7-.7.7.3.8-.4.7-.5.8.3.7-.2.8-.3.7.3.7-.4.8-.5.7-.2.8-.2.7-.1.8-.5.7.1.8-.1.7-.3.7-.2.8-.3.7-.2.8-.4.7.1.8-.4.7-.1.8-.4h.7l.7-.2.8-.2.7-.3h.8l.7-.1.8-.6.7.1.7-.4.8.3.7-.4.8-.2.7.1.8-.4.7.2.8-.5.7-.1h.7l.8-.6.7-.1.8-.1.7-.3.8.1.7-.1.8-.5h.7l.7.3.8-.6h.7l.8-.4.7-.2.8-.1.7-.1.7-.4h.8l.7-.3.8.4.7-.5.8.2h.7l.8-.5h.7l.7-.4.8.1.7-.3.8-.3.7-.1.8.2.7-.3.8-.1.7.1.7-.4.8-.3.7.3.8-.4.7-.2.8-.4h.7l.7-.1.8-.1.7-.2.8-.2.7.1.8-.2h.7l.8-.1.7-.7.7.3.8-.2h1.5l.7-.3.8-.1.7.1.8-.2.7-.5.7.2.8-.5.7-.3.8.2.7-.1.8.2.7-.5.7.1.8-.3h.7l.8-.3.7.3.8.1.7-.2.8-.2.7.1.7-.4.8.1.7-.1.8-.2.7-.1.8-.5.7.3.8-.1.7-.1.7-.3h.8l.7-.3.8.1.7-.2.8.1.7-.1h.7l.8-.1.7-.1.8-.1.7.2.8-.3.7.1h.8l.7-.3.7-.1.8-.4.7.1.8-.1h.7l.8-.2.7-.3.8-.1.7-.2h.7l.8.1h1.5l.7-.3.8-.1.7-.2.7-.4.8.6.7-.1.8-.1.7-.5h3l.7-.1.8.3.7-.5.8-.5.7.2.8-.2.7.1.8-.1.7-.2.7-.1.8.1.7.2.8-.3.7-.2.8.1.7-.1.7.2.8-.4.7-.4.8.5h.7l.8-.4.7-.1.8-.3h.7l.7.5.8-.8.7.1h.8l.7-.3.8.3.7-.3h.8l.7.2.7-.3.8-.1.7.1.8-.1.7-.3.8-.1h.7l.7.1.8.1.7-.3.8.1.7-.4.8.5.7-.2.8-.5h1.4l.8-.3.7.3.8.1.7-.3.8-.1.7-.2.8-.1.7.2.7-.1.8-.3.7.2h1.5l.8.4.7-.7.7.1h.8l.7-.2h.8"/><path class="st10" d="M75.6 134.1l.8 2.2.7.8.8.5.7.2.7.3.8.4.7.9.8-.5.7-.1.8 1 .7-.1.8-.4.7.7.7-1 .8.3.7-.2.8.4.7.2h.8l.7.3.7-.6.8-.2.7.2.8.6.7-.7.8.2.7.2h.8l.7-.1.7.6.8-1.3h.7l.8.8.7-.3.8.6.7-.1.8-.3.7-.3.7.1.8-.4h.7l.8.1.7.4.8.5.7-.6.7-.2h.8l.7.3.8-.4h.7l.8.4.7-.3.8-.2.7.5.7.2.8-.6h.7l.8.3.7-.6.8.6.7.1.8-.7.7.1.7.5.8-.5.7.7.8.5.7-1 .8.4.7.3.7-.2h.8l.7-.6.8.1.7 1.1.8-1.1.7.5.8-.7.7.6.7.8.8-1.1.7.6.8-.7.7.6.8.7.7-.7.8.3.7.2.7-.2.8-.1h.7l.8.2.7-.2.8.3.7-.4.7-.1.8.1.7.1.8.2.7-.2.8-.6.7.6h.8l.7-.2.7.7.8-.6.7.3.8-.1.7.4.8-.1.7.3.8-.6.7-.2.7.1h.8l.7.5.8-.7.7.7.8-.5.7.4.7.1h.8l.7-.9.8.6.7-.3.8.4.7.4.8-.6.7-.3.7.1.8 1.2.7-.2.8-.5.7-.6.8.5.7.6.8-.1.7-.4.7-.3.8.1.7.5.8-.3.7-.6.8 1 .7-.8.7.9.8-.6.7.3.8-.6.7.7.8-.2.7-.7.8.6.7-.3.7-.7.8.9.7-.6.8.9.7-.5.8.6h.7l.8-.3.7-.2.7-.2.8-.2.7.3.8-.3.7-.5.8.9.7-.6.7.8.8-1 .7-.1.8.5.7-.3.8.4.7-.8.8.4h.7l.7.4.8-1 .7.3.8.6.7-.7h.8l.7.5.8-.6.7.6.7-.6.8-.6.7.7h.8l.7-.5.8-.6.7.3.7-.3.8.8.7-.3.8-.3h.7l.8-.8.7.7.8-.1.7.4.7-.9.8.4.7.5.8-1.4.7.3.8-.7.7.9.8-.3h.7l.7-1.3.8.8.7.2.8-.5.7.3.8-.1.7-1 .7 1.1.8-.2.7-.6.8.3.7.1.8-.4.7-.7.8-.2.7 1.1.7-.6.8.1.7.4.8-.7h.7l.8.6.7-.7.8-.2h.7l.7.1.8-.2.7-.2.8-.3.7.4.8-.3.7-.3.7-.3.8 1h.7l.8-.2.7-.7h.8l.7.2.8.1h.7l.7.4.8-.6.7.2.8-.1.7.4.8-.5.7-.6.8.3.7-.5.7.7.8-.6h.7l.8.1.7.3.8-.3.7-.6.7-.3.8.5h1.5l.7-.5.8-.2.7.6.8-.3.7-.3.7-.4.8 1.1.7-.4.8.1.7-.3.8.4.7-.1.8-.3h.7l.7-.8.8.9.7-.3.8.2.7-.9.8.8h.7l.7-.3.8-.4.7-.2.8-.3.7.5.8.2.7-.3.8-.1.7-.5.7.5.8.4.7-.5.8.1.7.3h.8l.7-.1.8-.3.7-.6.7.1.8.2.7.1.8-.6.7.1.8.2.7.4.7-.6.8.3h.7l.8-.4.7.6.8-.8h.7l.8.2.7-.1.7-.1.8-.2.7.8.8-.3.7-.3.8-.3.7.5.8-.1.7.1.7.1.8-.3.7.3.8-.4.7.7.8-.3.7-.3.7.1.8-.4.7.3.8.1.7-.2.8-.2.7.1.8.2.7.5.7-.9.8.3.7.1.8-.5.7.1h.8l.7.6.8-.3.7-.4h.7l.8.1.7.9.8-.8.7.2.8-.2.7.1h.7l.8-.3.7.3h.8l.7-.2.8-.3.7-.2.8.4.7-.4.7.1.8.5.7-.4h.8l.7-.5.8.4h.7l.8.2.7.3.7-.1h.8l.7-.4.8-.2.7.1.8.2.7.4.7-.3.8-.7.7.6.8-.1.7-.1.8.2.7.3.8-.8.7.3.7-.3.8.1.7-.1.8-.2.7.1.8.4.7-.2.8-.1.7-.4.7.7h.8l.7-.5.8.9.7.1h.8l.7-.2.7-.4.8-.3.7.6.8-.4.7.3.8.2.7-1 .8.2.7.4.7-.1.8-.4.7.6.8.3h1.5l.7-.5.8-.1.7.1.7.1.8-.4.7.4.8-.1h.7l.8.3.7-.3.7-.1.8.1.7-.2h.8l.7.6.8-.5.7.4h.8l.7.3.7-.3.8-.2.7.1.8-.6h.7l.8.9.7-.1.8-.1.7.4.7-.3.8.1h.7l.8-.6h.7l.8.1.7-.1.7-.2.8-.4.7.5.8.8.7-.1.8-.1h.7l.8.1.7-.1.7-.3.8-.3.7.5.8-.1.7-.6.8-.1.7.3.8.5h.7l.7-.4.8.7.7-.6h1.5l.8-.6.7.2.7-.3.8.7.7-.7.8.8.7-.7.8.5.7-.1.8.1.7.4.7-.8.8.5h.7l.8-.2.7.5.8.3.7-.2.8-1.2.7 1 .7.1.8-.2.7.3.8-.7.7 1 .8-.7.7-.2.7-.3.8 1.4.7-.5h.8l.7-.2.8.1h1.5l.7-.2.7-.1.8.2.7.4.8-1 .7-.2.8 1.1.7.1.8-.2.7-.4.7.4.8.1.7-.4.8-.2h.7l.8-.2.7.3.7-.3.8-.1.7.1.8.4.7-.6.8.9.7-.2.8-.1.7-.1.7-.4.8.3.7-.4.8.1.7-.2.8.5.7.3.8-.1.7-.9.7.9.8-.1h1.5l.7.1.8-.3.7-.1.7-.2.8.2.7-.6.8.7.7-.1.8-.2h.7l.8-.3.7.7.7.9.8-.7.7-.3.8.3h.7l.8.3.7-.4.8.1.7.3.7-.7.8-.2.7 1.1.8-.3.7-.1.8-.2.7.1.7.3.8.2.7-.3h.8"/></g><defs><path id="SVGID_3_" d="M0 0h576v432H0z"/></defs><clipPath id="SVGID_4_"><use xlink:href="#SVGID_3_" overflow="visible"/></clipPath><g clip-path="url(#SVGID_4_)"><path shape-rendering="crispEdges" class="st1" d="M89 91.5h247.6v-45H89v45z"/><path d="M89 91.5h247.6M89 46.5h247.6M89 91.5v-45m247.6 45v-45" fill="none" stroke="#262626" stroke-width=".5" stroke-linecap="square" stroke-dasharray="16,0"/><text transform="translate(123.683 62.254)" class="st6 st7">L</text><text transform="translate(131.683 62.254)" class="st6 st7">o</text><text transform="translate(138.683 62.254)" class="st6 st7">n</text><text transform="translate(146.683 62.254)" class="st6 st7">g</text><text transform="translate(154.683 62.254)" class="st6 st7">R</text><text transform="translate(164.683 62.254)" class="st6 st7">a</text><text transform="translate(172.683 62.254)" class="st6 st7">n</text><text transform="translate(180.683 62.254)" class="st6 st7">g</text><text transform="translate(188.683 62.254)" class="st6 st7">e</text><text transform="translate(199.683 62.254)" class="st6 st7">(</text><text transform="translate(204.683 62.254)" class="st6 st7">w</text><text transform="translate(214.683 62.254)" class="st6 st7">/</text><text transform="translate(218.683 62.254)" class="st6 st7">o</text><text transform="translate(229.683 62.254)" class="st6 st7">d</text><text transform="translate(237.683 62.254)" class="st6 st7">r</text><text transform="translate(242.683 62.254)" class="st6 st7">i</text><text transform="translate(245.683 62.254)" class="st6 st7">f</text><text transform="translate(249.683 62.254)" class="st6 st7">t</text><text transform="translate(257.683 62.254)" class="st6 st7">c</text><text transform="translate(264.683 62.254)" class="st6 st7">o</text><text transform="translate(271.683 62.254)" class="st6 st7">r</text><text transform="translate(276.683 62.254)" class="st6 st7">r</text><text transform="translate(281.683 62.254)" class="st6 st7">e</text><text transform="translate(288.683 62.254)" class="st6 st7">c</text><text transform="translate(295.683 62.254)" class="st6 st7">t</text><text transform="translate(299.683 62.254)" class="st6 st7">i</text><text transform="translate(302.683 62.254)" class="st6 st7">o</text><text transform="translate(309.683 62.254)" class="st6 st7">n</text><text transform="translate(317.683 62.254)" class="st6 st7">)</text><text transform="translate(123.683 84.738)" class="st6 st7">L</text><text transform="translate(131.683 84.738)" class="st6 st7">o</text><text transform="translate(138.683 84.738)" class="st6 st7">n</text><text transform="translate(146.683 84.738)" class="st6 st7">g</text><text transform="translate(154.683 84.738)" class="st6 st7">R</text><text transform="translate(164.683 84.738)" class="st6 st7">a</text><text transform="translate(172.683 84.738)" class="st6 st7">n</text><text transform="translate(180.683 84.738)" class="st6 st7">g</text><text transform="translate(188.683 84.738)" class="st6 st7">e</text><text transform="translate(199.683 84.738)" class="st6 st7">(</text><text transform="translate(204.683 84.738)" class="st6 st7">w</text><text transform="translate(214.683 84.738)" class="st6 st7">i</text><text transform="translate(217.683 84.738)" class="st6 st7">t</text><text transform="translate(221.683 84.738)" class="st6 st7">h</text><text transform="translate(233.683 84.738)" class="st6 st7">d</text><text transform="translate(241.683 84.738)" class="st6 st7">r</text><text transform="translate(246.683 84.738)" class="st6 st7">i</text><text transform="translate(249.683 84.738)" class="st6 st7">f</text><text transform="translate(253.683 84.738)" class="st6 st7">t</text><text transform="translate(261.683 84.738)" class="st6 st7">c</text><text transform="translate(268.683 84.738)" class="st6 st7">o</text><text transform="translate(275.683 84.738)" class="st6 st7">r</text><text transform="translate(280.683 84.738)" class="st6 st7">r</text><text transform="translate(285.683 84.738)" class="st6 st7">e</text><text transform="translate(292.683 84.738)" class="st6 st7">c</text><text transform="translate(299.683 84.738)" class="st6 st7">t</text><text transform="translate(303.683 84.738)" class="st6 st7">i</text><text transform="translate(306.683 84.738)" class="st6 st7">o</text><text transform="translate(313.683 84.738)" class="st6 st7">n</text><text transform="translate(321.683 84.738)" class="st6 st7">)</text><path class="st9" d="M93.1 57.8h26.5"/><path class="st10" d="M93.1 80.2h26.5"/></g></svg>