<svg version="1.1" id="Layer_1" xmlns="http://www.w3.org/2000/svg" xmlns:xlink="http://www.w3.org/1999/xlink" x="0" y="0" viewBox="0 0 576 432" style="background-color:#fff" xml:space="preserve"><style>.st1{fill:#fff}.st3{stroke-opacity:.15;stroke-dasharray:32,0}.st3,.st4{fill:none;stroke:#262626;stroke-width:2}.st5{fill:#262626}.st6{font-family:Helvetica,Arial,sans-serif}.st7{font-size:14px}.st10,.st9{fill:none;stroke-width:4;stroke-linejoin:round}.st9{stroke:#f89c33}.st10{stroke:#14487e}</style><path class="st1" d="M0 0h576v432H0V0z"/><path shape-rendering="crispEdges" class="st1" d="M0 432h576V0H0v432z"/><defs><path id="SVGID_1_" d="M0 0h576v432H0z"/></defs><clipPath id="SVGID_2_"><use xlink:href="#SVGID_1_" overflow="visible"/></clipPath><g clip-path="url(#SVGID_2_)"><path shape-rendering="crispEdges" class="st1" d="M74.9 384h446.4V32.4H74.9V384z"/><path class="st3" d="M74.9 384V32.4M149.3 384V32.4M223.7 384V32.4M298.1 384V32.4M372.5 384V32.4M446.9 384V32.4M521.3 384V32.4"/><path class="st4" d="M74.9 384v-4.5m74.4 4.5v-4.5m74.4 4.5v-4.5m74.4 4.5v-4.5m74.4 4.5v-4.5m74.4 4.5v-4.5m74.4 4.5v-4.5"/><text transform="translate(65.88 408.995)" class="st5 st6 st7">2</text><text transform="translate(74.88 408.995)" class="st5 st6 st7">0</text><text transform="translate(140.28 408.995)" class="st5 st6 st7">2</text><text transform="translate(149.28 408.995)" class="st5 st6 st7">5</text><text transform="translate(214.68 408.995)" class="st5 st6 st7">3</text><text transform="translate(223.68 408.995)" class="st5 st6 st7">0</text><text transform="translate(289.08 408.995)" class="st5 st6 st7">3</text><text transform="translate(298.08 408.995)" class="st5 st6 st7">5</text><text transform="translate(363.48 408.995)" class="st5 st6 st7">4</text><text transform="translate(372.48 408.995)" class="st5 st6 st7">0</text><text transform="translate(437.88 408.995)" class="st5 st6 st7">4</text><text transform="translate(446.88 408.995)" class="st5 st6 st7">5</text><text transform="translate(512.28 408.995)" class="st5 st6 st7">5</text><text transform="translate(521.28 408.995)" class="st5 st6 st7">0</text><path class="st3" d="M74.9 384h446.4M74.9 333.8h446.4M74.9 283.5h446.4M74.9 233.3h446.4M74.9 183.1h446.4M74.9 132.9h446.4M74.9 82.6h446.4M74.9 32.4h446.4"/><path class="st4" d="M74.9 384h4.4m-4.4-50.2h4.4m-4.4-50.3h4.4m-4.4-50.2h4.4m-4.4-50.2h4.4m-4.4-50.2h4.4m-4.4-50.3h4.4m-4.4-50.2h4.4"/><text transform="translate(43.873 390.508)" class="st5 st6 st7">-</text><text transform="translate(48.873 390.508)" class="st5 st6 st7">5</text><text transform="translate(57.873 390.508)" class="st5 st6 st7">0</text><text transform="translate(43.873 340.278)" class="st5 st6 st7">-</text><text transform="translate(48.873 340.278)" class="st5 st6 st7">4</text><text transform="translate(57.873 340.278)" class="st5 st6 st7">0</text><text transform="translate(43.873 290.049)" class="st5 st6 st7">-</text><text transform="translate(48.873 290.049)" class="st5 st6 st7">3</text><text transform="translate(57.873 290.049)" class="st5 st6 st7">0</text><text transform="translate(43.873 239.819)" class="st5 st6 st7">-</text><text transform="translate(48.873 239.819)" class="st5 st6 st7">2</text><text transform="translate(57.873 239.819)" class="st5 st6 st7">0</text><text transform="translate(43.873 189.589)" class="st5 st6 st7">-</text><text transform="translate(48.873 189.589)" class="st5 st6 st7">1</text><text transform="translate(57.873 189.589)" class="st5 st6 st7">0</text><text transform="translate(57.873 139.359)" class="st5 st6 st7">0</text><text transform="translate(48.873 89.13)" class="st5 st6 st7">1</text><text transform="translate(57.873 89.13)" class="st5 st6 st7">0</text><text transform="translate(48.873 38.9)" class="st5 st6 st7">2</text><text transform="translate(57.873 38.9)" class="st5 st6 st7">0</text><path d="M74.9 384h446.4m-446.4 0V32.4" fill="none" stroke="#262626" stroke-width="2" stroke-linecap="square" stroke-dasharray="32,0"/><text transform="translate(179.08 427.995)" class="st5 st6 st7">S</text><text transform="translate(191.08 427.995)" class="st5 st6 st7">e</text><text transform="translate(200.08 427.995)" class="st5 st6 st7">n</text><text transform="translate(209.08 427.995)" class="st5 st6 st7">s</text><text transform="translate(218.08 427.995)" class="st5 st6 st7">o</text><text transform="translate(227.08 427.995)" class="st5 st6 st7">r</text><text transform="translate(233.08 427.995)" class="st5 st6 st7">b</text><text transform="translate(243.08 427.995)" class="st5 st6 st7">o</text><text transform="translate(252.08 427.995)" class="st5 st6 st7">a</text><text transform="translate(262.08 427.995)" class="st5 st6 st7">r</text><text transform="translate(268.08 427.995)" class="st5 st6 st7">d</text><text transform="translate(282.08 427.995)" class="st5 st6 st7">T</text><text transform="translate(293.08 427.995)" class="st5 st6 st7">e</text><text transform="translate(302.08 427.995)" class="st5 st6 st7">m</text><text transform="translate(316.08 427.995)" class="st5 st6 st7">p</text><text transform="translate(326.08 427.995)" class="st5 st6 st7">e</text><text transform="translate(335.08 427.995)" class="st5 st6 st7">r</text><text transform="translate(341.08 427.995)" class="st5 st6 st7">a</text><text transform="translate(351.08 427.995)" class="st5 st6 st7">t</text><text transform="translate(356.08 427.995)" class="st5 st6 st7">u</text><text transform="translate(365.08 427.995)" class="st5 st6 st7">r</text><text transform="translate(371.08 427.995)" class="st5 st6 st7">e</text><text transform="translate(384.08 427.995)" class="st5 st6 st7">[</text><text transform="translate(389.08 427.995)" class="st5 st6 st7">°</text><text transform="translate(400.08 427.995)" class="st5 st6 st7">C</text><text transform="translate(412.08 427.995)" class="st5 st6 st7">]</text><text transform="rotate(-90 168.538 133.666)" class="st5 st6 st7">M</text><text transform="rotate(-90 161.038 126.166)" class="st5 st6 st7">e</text><text transform="rotate(-90 156.538 121.666)" class="st5 st6 st7">a</text><text transform="rotate(-90 151.538 116.666)" class="st5 st6 st7">s</text><text transform="rotate(-90 147.038 112.166)" class="st5 st6 st7">u</text><text transform="rotate(-90 142.538 107.666)" class="st5 st6 st7">r</text><text transform="rotate(-90 139.538 104.666)" class="st5 st6 st7">e</text><text transform="rotate(-90 135.038 100.166)" class="st5 st6 st7">m</text><text transform="rotate(-90 128.038 93.166)" class="st5 st6 st7">e</text><text transform="rotate(-90 123.538 88.666)" class="st5 st6 st7">n</text><text transform="rotate(-90 119.038 84.166)" class="st5 st6 st7">t</text><text transform="rotate(-90 114.538 79.666)" class="st5 st6 st7">E</text><text transform="rotate(-90 109.038 74.166)" class="st5 st6 st7">r</text><text transform="rotate(-90 106.038 71.166)" class="st5 st6 st7">r</text><text transform="rotate(-90 103.038 68.166)" class="st5 st6 st7">o</text><text transform="rotate(-90 98.538 63.666)" class="st5 st6 st7">r</text><text transform="rotate(-90 93.538 58.666)" class="st5 st6 st7">[</text><text transform="rotate(-90 91.038 56.166)" class="st5 st6 st7">m</text><text transform="rotate(-90 84.038 49.166)" class="st5 st6 st7">m</text><text transform="rotate(-90 77.038 42.166)" class="st5 st6 st7">]</text><path class="st9" d="M112.7 384.4l1.3-3.7 1.8-2.8 3.7-2.5 2-1.9 3.7-2.8 1.8-1.3 1.9-1.7 3.7-2v-1l3.7-2 1.8-1.8 2-1.3v-1.5l1.7-1.5 3.8-1.4v-1.1l1.9-1.6 1.8-1.6 1.9-1.1 1.8-1.6 1.9-.8 1.8-1.5 2-1.5 1.7-.9v-1.4l3.8-1.2v-1.2l1.9-1 1.8-1.7v-.7l1.9-1.2 1.8-1.2 1.9-.9 1.8-1.4 2-1 1.7-1.2 2-1.3v-1.3l1.8-.8 1.9-.7 1.8-1.4v-1.3l1.9-.8 1.8-.6 1.9-1v-1.5l1.8-.7 2-1.2 1.7-.8v-.9l2-.6 1.8-1.2 1.9-.9v-.8l1.8-1 1.9-.9 1.8-1.1v-.5l1.9-1.4 1.8-.3v-.7l2-.9v-.7l1.7-1.1 2-1v-1.1l1.8-.7 1.9-.8v-.6l1.8-.7 1.9-.8 1.8-.8v-1l1.9-.7v-.6l1.8-.7 2-.7v-.8l1.7-.6v-1l2-.6 1.8-.9 1.9-.6v-1.6l3.7-.6v-1.5l1.8-.7 1.9-.5v-1l1.8-.8 2-.6v-.8l1.7-.6v-.5l1.8-.9v-.9l2-.4 1.9-.7v-.6l1.8-.7v-.7l1.8-.6v-.6l1.9-.6 1.9-.6v-1.1l1.8-1.1v-.5l1.8-1v-.3l3.9-.8v-1.1l1.8-.5v-.7l1.7-.7v-.6l2-.8v-.1l1.9-.8v-.6l1.8-.6v-.6l1.8-.8v-.5l1.9-.6v-.7l2-.3 1.7-.6-1.7-.6 1.7-.5 1.8-.7v-.2l2-.8v-.6l1.9-.3v-.7l1.8-.4v-1.3l1.8-.4v-.3l1.9-.8v-.5l1.9-.4v-1.5l1.8-.3v-.6l1.8-.6v-.9l1.9-.5v-1.2l2-.1 1.8-.8v-1l1.7-.6 2-.2v-1.2l1.9-.6v-.4l1.8-.7v-1.6l1.8-.4v-1.4l1.9-.3v-.2l2-1.2v.2l1.7-1v-1l1.8-.7v-.4l2-.4v-.9l1.9-.6v-.9l1.8-.6v-1.2l1.8-.3v-1.1l1.9-.6v-.4l1.9-.4v-1.4l1.8-.6v-.9l1.8-.6v-.6l1.9-.5v-1.5l2-.4v-.4l1.8-.7v-1.3l1.7-.2v-.7l2-.5v-1.8l1.9-.1 1.8-.5v-1.7l1.8-.6v-.8l1.9-.7v.1-.7l2-.6v-1l1.7.2v-1.9l1.8-.5v-.5.1l2-.7v-1.1l1.9-.5v-1.3l1.8-.4v-1.1l1.8-.3v-.7l1.9-.4v-.8l1.9-.6-1.9-.3 1.9-.2v-1h1.8v-1.4l2-.3v-1.1l1.7-.2v-1.2h2v-.8.3l1.8-1.1v.4-1.4l1.9-.5v.1-1.4l1.8.2v-.6l1.9-.3v-.8.1-.8l1.8-.6v-1.3l1.9-.2v-.7.1-.5l1.8-.1v-.5.1l2-.4v-.4h1.7v-2.1l2 .3v-1.6l1.8-.2v-1.3l1.9-.3v-.9l1.8-.4v.1-.9l1.9-.4v-1l1.8-.1v-1.3.3-.4l1.9-.5v.3l-1.9-.2 1.9-.3 1.8.3-1.8-.4v-.7l1.8-.2v-.6.1l2-.1v-.3l-2-.2 2-.3v-.6.1-.4l1.7-.1v-.8l2-.3v-.7.1-.4.3l1.8-.4v-.2.1-.4.2-.5l1.9-.1h-1.9l1.9-.6v-.5.1l1.8-.1v-.5.3-1.3l1.9-.1v-.7.4-.5.2-.5l1.8-.4v.1-.7.2-.4.1l1.9-.4v-.3.3l-1.9-.4 1.9-.2v-.8l1.8-.2-1.8.1 1.8-.2v-.8.3-.2h2v-.4.1-.7.2-.5l1.7-.3-1.7.2 1.7-.1v.2-.5.1-.3l2-.3-2 .3 2 .1-2-.2 2-.2v.1l-2-.4 2 .1v-.9.3-.1l1.8-.1-1.8-.3h1.8l-1.8-.3v.1l1.8-.2-1.8.1 1.8-.1v-.3.2-.3.1-.4l1.9-.4v.1-.7l-1.9-.2h1.9v.1-.3l1.8-.1v-.6.6-.8.3l1.9-.5-1.9-.5 1.9.2v-.2.1l-1.9-.1 1.9-.2v-.1.3-.5.1-.1.2-.8.5l1.8-.4-1.8-.1v-.3h1.8l-1.8.5 1.8-.8v.1-.3.3-.3l1.9.2-1.9-.3v-.1.1l1.9-.1-1.9-.3 1.9-.1v.2-.3.1-.4.5-1 .4-.6l1.8-.1-1.8.2 1.8-.1v-.3.6-.7.1-.2"/><path class="st10" d="M108.4 134.1l3.7 2.2 3.7.8 3.7.5 3.7.2 3.8.3 1.9.4 3.7.9 1.8-.5 1.9-.1 1.8 1 2-.1 1.7-.4 2 .7 1.8-1 1.9.3 1.8-.2 1.9.4 1.8.2h1.9l1.8.3 2-.6 1.7-.2 2 .2 1.8.6v-.7l1.9.2 3.7.2 1.8-.1 1.9.6v-1.3h1.8l2 .8 1.7-.3 2 .6v-.1l1.8-.3 1.9-.3 1.8.1 1.9-.4 1.8.1 1.9.4 1.8.5 2-.6v-.2h1.7l2 .3v-.4h1.8l1.9.4 1.8-.3v-.2l1.9.5 1.8.2 1.9-.6 1.8.3v-.6l2 .6 1.7.1 2-.7v.1l1.8.5 1.9-.5 1.8.7v.5-1l1.9.4 1.8.3v-.2h1.9l1.8-.6v.1l2 1.1 1.7-1.1v.5l2-.7 1.8.6 1.9.8v-1.1l1.8.6 1.9-.7v1.3l1.8-.7 1.9.3 1.8.2v-.2l2-.1 1.7.2v-.2.3l3.8-.4v-.1.1l1.9.1v.2l1.8-.2 1.8-.6v.6h1.9v-.2l1.9.7v-.6l1.8.3 1.8-.1v.4l1.9-.1v.3l2-.6v-.2.1h1.8l1.7.5v-.7l2 .7v-.5l1.9.4v.1h1.8v-.9.6l1.8-.3 1.9.4v.4l2-.6v-.3.1l1.7 1.2 1.8-.2v-1.1l2 .5v.6l1.9-.1 1.8-.4v-.3.1l1.8.5v-.9l1.9 1v-.8.9l1.9-.6 1.8.3v-.6l1.8.7v-.2l1.9-.7v.6l2-.3v-.7.9l1.8-.6v.9-.5l1.7.6 2-.3v-.2l1.9-.2v-.2.3l1.8-.3v-.5.9l1.8-.6v.8l1.9-1v-.1.5-.3l2 .4 1.7-.8v.4l1.8.4v-1 .3l2 .6v-.7h1.9v.5l1.8-.6-1.8.6 1.8-.6v-.6l1.8.7v-.5l1.9-.6v.3-.3l1.9.8v-.6h1.8v-.8.7l1.8-.1v.4-.9l1.9.4v.5-1.4l2 .3v-.7.9-.3h1.8v-1.3.8l1.7.2v-.5.3l2-.1v-1 1.1l1.9-.2v-.6.3l1.8.1v-1.3l1.8 1.1v-.6l1.9.1-1.9.4 1.9-.7v.6l2-.7v-.2.1l1.7-.2v-.5l1.8.4v-.9l2 1v-.9h1.9v.3l1.8.4v-.6.2-.1l1.8.4v-1.1.3l1.9-.5v.7-.6h1.9v.4-.9l1.8-.3v.5l2-.5v-.2.6-.6l1.7-.4v1.1-.4.1-.3l2 .4v-1.2l1.8.9v-.3.2-.9.8h1.9v-.7l1.8-.2v-.3.7l1.9-.3-1.9-.1 1.9-.5v.9-.5l1.8.1v.3l1.9-.1v-.9.4l1.8-.6v.7l2-.6v.3-.4.6-.8h1.7v.2-.4.8l2-.3v-.6.5-.1l1.8.1v.1-.3.3-.4l1.9.7v-.6.1-.4l1.8.3-1.8.1 1.8-.2v-.2.8l1.9-.9v.4-.5.7l1.8-.3v-.4 1l1.9-.8v.2-.2.1l1.8-.3v.3-.7.4l2-.4-2 .1 2 .5v-.9l1.7.4h-1.7l1.7.2v.3-.1l2-.4-2-.2 2 .1v.6-1 .6l1.8-.1v-.1.5-.8.3-.3l1.9.1v-.3.5-.2l1.8-.1-1.8-.4 1.8.7 1.9-.5-1.9.9v.1-.2l1.9-.4v-.3.6-.4.5-1l1.8.2v.4-.5.9l1.9-.5v-.1.2-.4.4-.1h1.8l-1.8.3v-.3l1.8-.1v.1-.2.6-.5l2 .4h-2l2 .3-2-.3 2-.2v.1-.6.9-.2.4l1.7-.3v.1-.6h-1.7l1.7.1v-.7 1.3l2-.1v-.1.1-.7.5-.7l1.8-.1-1.8.3v.5h1.8v-.4.7-1.2.2-.3.7-.7.8l1.9-.7v.5-.1.5-.8.5-.2.5l1.8.3-1.8-.2v-1.2l1.8 1v.1-.2.3-.7 1l1.9-.7v-.5l-1.9 1.4 1.9-.5h-1.9l1.9-.2v.1-.3.6-1.2 1.1l1.8.1-1.8-.2v-.4l1.8.4v.1-.8.3-.3l1.9-.1-1.9.1 1.9.4v-.6l-1.9.9v-.2l1.9-.1v-.5.3-.4.1-.2.8-1l1.8.9v-.1.1-.6.2l2-.6v.7-.3h-2v-.3l2 .7v.9-1 .6-.4.4-.9 1.1l1.7-.3v-.1l-1.7-.2v.4l1.7.2v-.3"/></g><defs><path id="SVGID_3_" d="M0 0h576v432H0z"/></defs><clipPath id="SVGID_4_"><use xlink:href="#SVGID_3_" overflow="visible"/></clipPath><g clip-path="url(#SVGID_4_)"><path shape-rendering="crispEdges" class="st1" d="M89 91.5h247.6v-45H89v45z"/><path d="M89 91.5h247.6M89 46.5h247.6M89 91.5v-45m247.6 45v-45" fill="none" stroke="#262626" stroke-width=".5" stroke-linecap="square" stroke-dasharray="16,0"/><text transform="translate(123.683 62.254)" class="st6 st7">L</text><text transform="translate(131.683 62.254)" class="st6 st7">o</text><text transform="translate(138.683 62.254)" class="st6 st7">n</text><text transform="translate(146.683 62.254)" class="st6 st7">g</text><text transform="translate(154.683 62.254)" class="st6 st7">R</text><text transform="translate(164.683 62.254)" class="st6 st7">a</text><text transform="translate(172.683 62.254)" class="st6 st7">n</text><text transform="translate(180.683 62.254)" class="st6 st7">g</text><text transform="translate(188.683 62.254)" class="st6 st7">e</text><text transform="translate(199.683 62.254)" class="st6 st7">(</text><text transform="translate(204.683 62.254)" class="st6 st7">w</text><text transform="translate(214.683 62.254)" class="st6 st7">/</text><text transform="translate(218.683 62.254)" class="st6 st7">o</text><text transform="translate(229.683 62.254)" class="st6 st7">d</text><text transform="translate(237.683 62.254)" class="st6 st7">r</text><text transform="translate(242.683 62.254)" class="st6 st7">i</text><text transform="translate(245.683 62.254)" class="st6 st7">f</text><text transform="translate(249.683 62.254)" class="st6 st7">t</text><text transform="translate(257.683 62.254)" class="st6 st7">c</text><text transform="translate(264.683 62.254)" class="st6 st7">o</text><text transform="translate(271.683 62.254)" class="st6 st7">r</text><text transform="translate(276.683 62.254)" class="st6 st7">r</text><text transform="translate(281.683 62.254)" class="st6 st7">e</text><text transform="translate(288.683 62.254)" class="st6 st7">c</text><text transform="translate(295.683 62.254)" class="st6 st7">t</text><text transform="translate(299.683 62.254)" class="st6 st7">i</text><text transform="translate(302.683 62.254)" class="st6 st7">o</text><text transform="translate(309.683 62.254)" class="st6 st7">n</text><text transform="translate(317.683 62.254)" class="st6 st7">)</text><text transform="translate(123.683 84.738)" class="st6 st7">L</text><text transform="translate(131.683 84.738)" class="st6 st7">o</text><text transform="translate(138.683 84.738)" class="st6 st7">n</text><text transform="translate(146.683 84.738)" class="st6 st7">g</text><text transform="translate(154.683 84.738)" class="st6 st7">R</text><text transform="translate(164.683 84.738)" class="st6 st7">a</text><text transform="translate(172.683 84.738)" class="st6 st7">n</text><text transform="translate(180.683 84.738)" class="st6 st7">g</text><text transform="translate(188.683 84.738)" class="st6 st7">e</text><text transform="translate(199.683 84.738)" class="st6 st7">(</text><text transform="translate(204.683 84.738)" class="st6 st7">w</text><text transform="translate(214.683 84.738)" class="st6 st7">i</text><text transform="translate(217.683 84.738)" class="st6 st7">t</text><text transform="translate(221.683 84.738)" class="st6 st7">h</text><text transform="translate(233.683 84.738)" class="st6 st7">d</text><text transform="translate(241.683 84.738)" class="st6 st7">r</text><text transform="translate(246.683 84.738)" class="st6 st7">i</text><text transform="translate(249.683 84.738)" class="st6 st7">f</text><text transform="translate(253.683 84.738)" class="st6 st7">t</text><text transform="translate(261.683 84.738)" class="st6 st7">c</text><text transform="translate(268.683 84.738)" class="st6 st7">o</text><text transform="translate(275.683 84.738)" class="st6 st7">r</text><text transform="translate(280.683 84.738)" class="st6 st7">r</text><text transform="translate(285.683 84.738)" class="st6 st7">e</text><text transform="translate(292.683 84.738)" class="st6 st7">c</text><text transform="translate(299.683 84.738)" class="st6 st7">t</text><text transform="translate(303.683 84.738)" class="st6 st7">i</text><text transform="translate(306.683 84.738)" class="st6 st7">o</text><text transform="translate(313.683 84.738)" class="st6 st7">n</text><text transform="translate(321.683 84.738)" class="st6 st7">)</text><path class="st9" d="M93.1 57.8h26.5"/><path class="st10" d="M93.1 80.2h26.5"/></g></svg>