<svg version="1.1" id="Layer_1" xmlns="http://www.w3.org/2000/svg" xmlns:xlink="http://www.w3.org/1999/xlink" x="0" y="0" viewBox="0 0 576 432" style="background-color:#fff" xml:space="preserve"><style>.st0{fill:#fff}.st2{stroke-opacity:.15;stroke-dasharray:32,0}.st2,.st3{fill:none;stroke:#262626;stroke-width:2}.st4{font-family:Helvetica,Arial,sans-serif}.st5{font-size:14px}.st6{fill:#262626}.st8,.st9{fill:none;stroke:#f89c33;stroke-width:4;stroke-linejoin:round}.st9{stroke:#14487e}</style><path class="st0" d="M0 0h576v432H0z"/><path shape-rendering="crispEdges" class="st0" d="M0 432h576V0H0z"/><defs><path id="SVGID_1_" d="M0 0h576v432H0z"/></defs><clipPath id="SVGID_2_"><use xlink:href="#SVGID_1_" overflow="visible"/></clipPath><g clip-path="url(#SVGID_2_)"><path shape-rendering="crispEdges" class="st0" d="M74.9 384h446.4V32.4H74.9z"/><path class="st2" d="M74.9 384V32.4M149.3 384V32.4M223.7 384V32.4M298.1 384V32.4M372.5 384V32.4M446.9 384V32.4M521.3 384V32.4"/><path class="st3" d="M74.9 384v-4.5m74.4 4.5v-4.5m74.4 4.5v-4.5m74.4 4.5v-4.5m74.4 4.5v-4.5m74.4 4.5v-4.5m74.4 4.5v-4.5"/><text transform="translate(70.38 408.995)" class="st6 st4 st5">0</text><text transform="translate(140.28 408.995)" class="st6 st4 st5">5</text><text transform="translate(149.28 408.995)" class="st6 st4 st5">0</text><text transform="translate(210.18 408.995)" class="st6 st4 st5">1</text><text transform="translate(219.18 408.995)" class="st6 st4 st5">0</text><text transform="translate(228.18 408.995)" class="st6 st4 st5">0</text><text transform="translate(284.58 408.995)" class="st6 st4 st5">1</text><text transform="translate(293.58 408.995)" class="st6 st4 st5">5</text><text transform="translate(302.58 408.995)" class="st6 st4 st5">0</text><text transform="translate(358.98 408.995)" class="st6 st4 st5">2</text><text transform="translate(367.98 408.995)" class="st6 st4 st5">0</text><text transform="translate(376.98 408.995)" class="st6 st4 st5">0</text><text transform="translate(433.38 408.995)" class="st6 st4 st5">2</text><text transform="translate(442.38 408.995)" class="st6 st4 st5">5</text><text transform="translate(451.38 408.995)" class="st6 st4 st5">0</text><text transform="translate(507.78 408.995)" class="st6 st4 st5">3</text><text transform="translate(516.78 408.995)" class="st6 st4 st5">0</text><text transform="translate(525.78 408.995)" class="st6 st4 st5">0</text><path class="st2" d="M74.9 384h446.4M74.9 313.7h446.4M74.9 243.4h446.4M74.9 173h446.4M74.9 102.7h446.4M74.9 32.4h446.4"/><path class="st3" d="M74.9 384h4.4m-4.4-70.3h4.4m-4.4-70.3h4.4M74.9 173h4.4m-4.4-70.3h4.4m-4.4-70.3h4.4"/><text transform="translate(48.873 390.509)" class="st6 st4 st5">2</text><text transform="translate(57.873 390.509)" class="st6 st4 st5">0</text><text transform="translate(48.873 320.187)" class="st6 st4 st5">3</text><text transform="translate(57.873 320.187)" class="st6 st4 st5">0</text><text transform="translate(48.873 249.865)" class="st6 st4 st5">4</text><text transform="translate(57.873 249.865)" class="st6 st4 st5">0</text><text transform="translate(48.873 179.544)" class="st6 st4 st5">5</text><text transform="translate(57.873 179.544)" class="st6 st4 st5">0</text><text transform="translate(48.873 109.222)" class="st6 st4 st5">6</text><text transform="translate(57.873 109.222)" class="st6 st4 st5">0</text><text transform="translate(48.873 38.9)" class="st6 st4 st5">7</text><text transform="translate(57.873 38.9)" class="st6 st4 st5">0</text><path d="M74.9 384h446.4m-446.4 0V32.4" fill="none" stroke="#262626" stroke-width="2" stroke-linecap="square" stroke-dasharray="32,0"/><text transform="translate(258.58 427.995)" class="st6 st4 st5">T</text><text transform="translate(269.58 427.995)" class="st6 st4 st5">i</text><text transform="translate(273.58 427.995)" class="st6 st4 st5">m</text><text transform="translate(287.58 427.995)" class="st6 st4 st5">e</text><text transform="translate(300.58 427.995)" class="st6 st4 st5">[</text><text transform="translate(305.58 427.995)" class="st6 st4 st5">m</text><text transform="translate(319.58 427.995)" class="st6 st4 st5">i</text><text transform="translate(323.58 427.995)" class="st6 st4 st5">n</text><text transform="translate(332.58 427.995)" class="st6 st4 st5">]</text><text transform="rotate(-90 157.788 117.916)" class="st6 st4 st5">T</text><text transform="rotate(-90 152.288 112.416)" class="st6 st4 st5">e</text><text transform="rotate(-90 147.788 107.916)" class="st6 st4 st5">m</text><text transform="rotate(-90 140.788 100.916)" class="st6 st4 st5">p</text><text transform="rotate(-90 135.788 95.916)" class="st6 st4 st5">e</text><text transform="rotate(-90 131.288 91.416)" class="st6 st4 st5">r</text><text transform="rotate(-90 128.288 88.416)" class="st6 st4 st5">a</text><text transform="rotate(-90 123.288 83.416)" class="st6 st4 st5">t</text><text transform="rotate(-90 120.788 80.916)" class="st6 st4 st5">u</text><text transform="rotate(-90 116.288 76.416)" class="st6 st4 st5">r</text><text transform="rotate(-90 113.288 73.416)" class="st6 st4 st5">e</text><text transform="rotate(-90 106.788 66.916)" class="st6 st4 st5">[</text><text transform="rotate(-90 104.288 64.416)" class="st6 st4 st5">°</text><text transform="rotate(-90 98.788 58.916)" class="st6 st4 st5">C</text><text transform="rotate(-90 92.788 52.916)" class="st6 st4 st5">]</text><path class="st8" d="M75 369l.2-1.7.1-.9.2-1.7.1-1.8.2-.9.1-1.8.2-.8.1-.9.2-.9.1-.9.2-1.7.1-.9.2-.9.1-.8.2-.9.1-.9.2-.9.1-.9.2-.9.1-.8h.2l.1-1.8h.2l.1-.9.1-.8.2-.9.1-.9.2-.9.1-.8.2-1h.1l.2-.8.1-.9.2-.9.1-.9.2-.8.1-.9.2-.9h.1l.2-.9.1-.8.2-.9h.1l.2-.9.1-.9.2-.8.1-1h.2l.1-.8.2-.9.1-.9.2-.9h.1l.2-.8.1-.9h.2l.1-.9.2-.9.1-.8.2-1h.1l.2-.8.1-.9h.2l.1-.9.1-.9.2-.8.1-.9h.2l.1-.9.2-.9h.1l.2-.8h.1l.2-.9.1-.9.2-.9h.1l.2-.8.1-1h.2l.1-.8.2-.9.1-.9h.3l.2-.9.1-.8.2-.9h.1l.2-.9.1-.8h.2l.1-.9h.2l.1-.9.2-.9.1-.8h.2l.1-1h.2l.1-.9h.2l.1-.8.2-.9h.1l.2-.9h.1l.1-.9h.2l.1-.8.2-.9h.1l.2-.9h.1l.2-.9.1-.8h.2l.1-.9h.3l.2-.9.1-.9h.2l.1-.9.2-.8h.1l.2-.9h.1l.2-.9h.1l.2-.9h.1l.2-.8h.1l.2-.9h.1l.2-.9.1-.9h.3l.2-.8h.1l.2-.9h.3l.1-1h.2l.1-.8h.1l.2-.9h.1l.2-.9.1-.9h.3l.2-.8h.1l.2-.9h.1l.2-.9h.3l.1-.9.2-.8h.3l.1-.9h.2l.1-.9h.2l.1-.9h.3l.2-.9h.1l.2-.8h.3l.1-.9.2-.9h.4l.2-.9h.1l.2-.8h.3l.1-.9.1-.9h.3l.2-.9h.3l.1-.8h.3l.2-.9h.3l.1-1 .2-.8h.4l.2-.8h.1l.2-1h.3l.1-.9h.3l.2-.8h.3l.1-.9h.3l.2-.9h.3l.1-.9h.3l.2-.8h.3l.1-.9h.2l.1-.9h.4l.2-.9h.3l.1-.9h.5l.1-.9h.3l.2-.8h.3l.1-.9h.5l.1-.9h.3l.2-.9h.1l.2-.8.1.8.2-.8h.1l.2-.9h.1l.2-.9.1.9.2-.9h.4l.2-.9h.1l.2-.8h.7l.1-1h.2l.1-.8.2.8.1-.8h.2l.1-.9.2.9.1-.9h.6l.2-.9h.4l.2-.9h.3l.1-.8h.6l.2-.9h.4l.2-.9.1.9.2-.9h.4l.2-.9h.4l.1-.8h.5l.1-.9h.6l.2-.9h.7l.2-.9h.4l.2-.8h.6l.1-1 .2 1 .1-1h.6l.2-.8h.6l.1-.9h.7l.2-.9.1.9.2-.9h.3l.1-.9h.8l.1-.8h1.1l.1-.9h.8l.1-.9h.9l.2-.9h.3l.1-.8.2.8h.1l.2-.8h.8l.2-1 .1 1 .2-1h.4l.2-.8h.1l.2.8h.1l.2-.8h.4l.2-.9.1.9.2-.9h.6l.1-.9h.8l.1-.9h.3l.2.9.1-.9h.3l.2-.8.1.8.1-.8.2.8.1-.8h.3l.2-.9.1.9h.3l.2-.9h1.3l.2-.9h.1l.2.9.1-.9h1.1l.1-.9h1.4l.1-.8.2.8.1-.8h1.5l.1-.9.2.9h.4l.2-.9.1.9h.2l.1-.9h.2l.1.9.2-.9h1.2l.1-.9.2.9.1-.9.2.9.1-.9h.9l.1-.9.2.9.1-.9h1.7l.1-.8h.9l.2.8.1-.8h1.2l.2-1h1.6l.1-.8.2.8h.1l.2-.8.1.8h.2l.1-.8h1.7l.1-.9.2.9h.1l.2-.9.1.9.2-.9h1.5l.1-.9h3.1l.2-.9h.3l.1.9.2-.9.1.9.2-.9h1.6l.2-.8h2.3l.2-.9h4.3l.2-.9h.4l.1.9.2-.9.1.9h.2l.1-.9h.3l.2.9.1-.9h4.1l.1-.9h.3l.1.9.2-.9.1.9.2-.9h.1l.2.9.1-.9h1.5l.2-.8.1.8h.8l.1-.8.2.8.1-.8.2.8h.1l.2-.8h3.1l.1-.9.2.9h.4l.2-.9.1.9.2-.9.1.9h.3l.2-.9.1.9.2-.9h.1l.2.9.1-.9h5.7l.1-.9.2.9.1-.9h.2l.1.9.2-.9.1.9.2-.9h5.9l.2-.9.1.9.2-.9h.1l.2.9h.1l.2-.9.1.9.2-.9h.3l.1.9h.4l.2-.9h3.1l.2-.8.1.8.2-.8.1.8h1.1l.1-.8h.3l.2.8h.4l.2-.8.1.8h.9l.1-.8.2.8h1l.2-.8h.4l.2.8.1-.8.2.8.1-.8.2.8.1-.8h.3l.2.8.1-.8h4.9l.2.8.1-.8h1.1l.1.8.2-.8h3.8l.2-1 .1 1h1.5l.2-1h.6l.1 1h.2l.1-1h.3l.2 1 .1-1h.4l.2 1 .1-1h.9l.2 1 .1-1 .2 1h.1l.2-1h.4l.2 1 .1-1h.5l.1 1 .2-1h4.7l.2-.8.1.8.2-.8.1.8.2-.8h.6l.1.8h.2l.1-.8.2.8h.6l.1-.8h.3l.2.8h.1l.2-.8.1.8h.2l.1-.8.1.8.2-.8.1.8h.2l.1-.8.2.8h.3l.1-.8h.8l.1.8.2-.8h.4l.2.8h1.3l.2-.8h.1l.2.8h.1l.2-.8.1.8.2-.8.1.8.2-.8h.1l.2.8.1-.8.2.8h.1l.1-.8h.8l.1.8.2-.8h4.3l.2.8.1-.8h2.1l.1-.9h.2l.1.9h1.7l.1-.9h.2l.1.9h.2l.1-.9.2.9.1-.9.2.9h.3l.1-.9h.2l.1.9h.2l.1-.9.1.9h.2l.1-.9.2.9h.1l.2-.9.1.9.2-.9h.1l.2.9h1l.2-.9.1.9h1.5l.2-.9.1.9h2.7l.1-.9.2.9.1-.9.2.9h.6l.1-.9.2.9h.4l.2-.9.1.9.2-.9.1.9h.2l.1-.9.2.9h.1l.2-.9h.3l.1.9h.2l.1-.9.2.9.1-.9h.8l.1.9h.1l.2-.9h.3l.1.9h.2l.1-.9h5.4l.1.9.2-.9.1.9.2-.9h4.2l.1-.9.2.9h.1l.2-.9.1.9.2-.9.1.9h.2l.1-.9.1.9.2-.9h.1l.2.9h.1l.2-.9.1.9.2-.9.1.9h.2l.1-.9.2.9h.1l.2-.9h.4l.2.9.1-.9.2.9.1-.9h.2l.1.9.2-.9.1.9h.2l.1-.9h.2l.1.9.2-.9h1.2l.1.9h.6l.1-.9h.2l.1.9.2-.9.1.9h.2l.1-.9.2.9.1-.9h.5l.1.9.2-.9h9.8l.1-.9.2.9h1.8l.1-.9.2.9.1-.9.2.9h1.3l.2-.9.1.9h.6l.2-.9h.1l.2.9h.4l.2-.9.1.9.1-.9h.2l.1.9.2-.9.1.9.2-.9h.4l.2.9.1-.9h.3l.2.9.1-.9h.9l.2.9h.1l.2-.9h.4l.2.9h.3l.1-.9.2.9.1-.9.2.9h.7l.2-.9h.1l.2.9h4.4l.2-.9.1.9h1.2l.2-.9.1.9.1-.9.2.9h.1l.2-.9.1.9h1.4l.1-.9h.3l.2.9.1-.9h.2l.1.9.2-.9.1.9.2-.9h.3l.1.9.2-.9.1.9.2-.9h.1l.2.9h.1l.2-.9h.3l.1.9h.2l.1-.9.2.9h.1l.2-.9.1.9.1-.9h.2l.1.9.2-.9h.1l.2.9.1-.9.2.9.1-.9.2.9.1-.9h.2l.1.9h.2l.1-.9.2.9.1-.9h.5l.1.9.2-.9h7.6l.1.9.2-.9h.1l.2.9h.1l.2-.9.1.9.2-.9.1.9h.2l.1-.9h.3l.1.9.2-.9h.3l.1.9h.2l.1-.9h.6l.2.9.1-.9h.2l.1.9h.3l.2-.9.1.9h.2l.1-.9.2.9.1-.9.2.9h1.5l.1-.9.2.9h.1l.2-.9.1.9h1.2l.1-.9.2.9h1l.2-.9.1.9h4.6l.2.9.1-.9h.8l.1.9h.2l.1-.9h.2l.1.9.2-.9.1.9.2-.9.1.9h.2l.1-.9h6.3l.1.9.2-.9h.7l.2.9.1-.9.2.9.1-.9.2.9.1-.9.2.9.1-.9h.3l.1.9.2-.9h10.7l.2.9.1-.9.2-.9.1.9.2-.9.1.9.2-.9h.1l.1.9h.3l.2-.9h.1l.2.9.1-.9.2.9.1-.9h.8l.1.9.2-.9h.1l.2.9h.1l.2-.9h2.7l.1-.8.1.8h.2l.1-.8.2.8h.7l.2-.8h.1l.2.8h.6l.1-.8.2.8h.7l.2-.8h.1l.2.8h1.3l.2-.8.1.8h4.9l.2-.8.1.8h12.8l.2-.8.1.8h1.5l.1-.8.2.8.1-.8.2.8h.7l.2-.8.1.8h.3l.2-.8.1.8h.2l.1-.8.2.8h.1l.2-.8h.1l.2.8.1-.8h.6l.2.8h.3l.1-.8h.3l.2.8h.1l.2-.8h.3l.1.8.1-.8.2.8h.4l.2-.8h.4l.2.8h.3l.1-.8.2.8h.4l.2-.8.1.8.2-.8h.1l.2.8.1-.8h.3l.2.8.1-.8h.6l.2.8h.1l.2-.8.1.8.2-.8h.7l.2.8h.1l.1-.8h.6l.2.8.1-.8h.2l.1.8h.2l.1-.8h1.1l.1.8.2-.8h.3l.1.8h.3l.2-.8h.4l.2.8.1-.8.2.8h.1l.2-.8.1.8.2-.8h.1l.2.8h1l.1-.8.2.8h3.3l.1.9.2-.9h1.5l.1-.8h.2l.1.8.1-.8.2.8h.1l.2-.8h.1l.2.8.1-.8h.2l.1.8.2-.8.1.8.2-.8.1.8h.2l.1-.8.2.8.1-.8h.8l.1.8.2-.8.1.8h.2l.1-.8h.5l.1.8.2-.8h.3l.1.8h.5l.1-.8h.2l.1.8.1-.8h.2l.1.8h.8l.1-.8.2.8.1-.8.2.8h.9l.1-.8.2.8h2.8l.2-.8.1.8h3.6l.1-.8.2.8h6.5l.2-.8.1.8h1.1l.1-.8h.2l.1.8h1l.2-.8.1.8h1.1l.1-.8h.5l.1.8h.2l.1-.8h8.1l.1.8.2-.8.1.8h.2l.1-.8.2.8.1-.8h.4l.2.8.1-.8h.2l.1.8h.2l.1-.8.2.8.1-.8.2.8.1-.8.2.8h.1l.2-.8.1.8h.6l.2-.8.1.8h.2l.1-.8h.2l.1.8.2-.8.1.8h.3l.2-.8.1.8h3.4l.2-.8.1.8h1.2l.2-.8.1.8h.6l.2-.8.1.8h.3l.2-.8.1.8.2-.8h1l.1.8h.2l.1-.8h.5l.1.8h.2l.1-.8.2.8h.1l.2-.8h.6l.1.8.2-.8.1.8h.3l.2-.8.1.8.2-.8.1.8.2-.8h.1l.2.8.1-.8h.2l.1.8h.8l.1-.8.2.8h.1l.1-.8.2.8.1-.8.2.8.1-.8h.2l.1.8h.3l.2-.8.1.8h.2l.1-.8.2.8.1-.8.2.8.1-.8h.2l.1.8h.2l.1-.8.2.8h.1l.2-.8.1.8h.2l.1-.8.2.8h.1l.2-.8.1.8.2-.8.1.8.2-.8h.1l.2.8.1-.8h.9l.1.8.2-.8h3.1l.2.8.1-.8h.2l.1.8.2-.8h.1l.2.8h.1l.2-.8h1l.2.8.1-.8h3l.1-.9.2.9.1-.9.2.9h.9l.1-.9h.2l.1.9.2-.9.1.9h.8l.1-.9.2.9h.4l.1-.9.2.9h.1l.2-.9h.1l.2.9.1-.9h.3l.2.9h.1l.2-.9.1.9.2-.9h.6l.1.9.2-.9h.1l.2.9.1-.9h.9l.2.9.1-.9h.3l.2.9.1-.9h.3l.2.9h.1l.1-.9.2.9h.6l.1-.9h.2l.1.9.2-.9.1.9h.8"/><path class="st9" d="M75 347.9l.2-23.7.1-5.2.2-3.6.1-2.6.2-1.8.1-1.7.2-.9.1-1.7.2-1 .1-1.7.2-.9.1-1.7.2-.9.1-.9.2-.8.1-.9.2-1.8h.1l.2-1.8.1-.9.2-.8.1-.9.2-.9.1-.9.1-.8.2-.9.1-.9.2-.9.1-.8.2-.9.1-.9h.2l.1-.9.2-.9.1-.8.2-.9.1-.9.2-.9.1-.8.2-.9h.1l.2-.9.1-.9.2-.8h.1l.2-.9.1-1 .2-.8.1-.9h.2l.1-.9.2-.9.1-.8h.2l.1-.9.2-.9.1-.9.2-.8h.1l.2-.9.1-.9h.2l.1-.9.2-.9h.1l.1-.8.2-.9h.1l.2-.9.1-.9.2-.8h.3l.1-.9.2-.9.1-.9h.2l.1-.8.2-.9h.1l.2-1 .1-.8h.2l.1-.8h.2l.1-1 .2-.9h.1l.2-.8.1-.9h.2l.1-.9.2-.9h.1l.2-.8h.1l.2-.9h.1l.2-.9.1-.9h.2l.1-.9h.2l.1-.9.2-.8h.1l.2-.9h.1l.1-.9h.2l.1-.9h.2l.1-.8.2-.9h.1l.2-.9h.1l.2-.9h.1l.2-.8h.1l.2-1h.1l.2-.8h.1l.2-.9h.3l.1-.9.2-.9h.3l.1-.8h.2l.1-.9.2-.9h.1l.2-.9h.1l.2-.8h.1l.2-.9h.1l.2-.9h.3l.1-.9h.3l.1-.8.2-1h.1l.2-.8h.3l.1-.9h.2l.1-.9h.3l.2-.9h.1l.2-.8h.1l.2-.9h.1l.2-.9h.3l.1-.9h.2l.1-.8h.3l.2-1h.1l.2-.8h.3l.1-.9h.2l.1-.9h.3l.2-.9h.3l.1-.8h.2l.1-.9h.1l.2-.9h.3l.1-.9h.3l.2-.8h.4l.2-.9h.3l.1-.9.2-.9h.3l.1-.8h.3l.2-1h.3l.1-.8h.3l.2-.9h.1l.2-.9h.6l.1-.9h.3l.2-.8h.4l.2-.9h.1l.1-.9h.5l.1-.9h.3l.2-.8h.4l.2-.9h.3l.1-.9h.5l.1-.9h.2l.1-.8h.3l.2-1h.7l.2-.8h.4l.2-.9h.3l.1-.9h.6l.1-.9h.2l.1-.8h.9l.2-.9h.3l.1-.9h.5l.1-.9.2.9h.1l.2-.9h.1l.2-.8.1.8.2-.8h.3l.1-1h.5l.1-.8.2.8.1-.8h.5l.1-.9h.5l.1-.9h.3l.1-.9h.3l.2.9.1-1.7.2.8h.1l.2-.8h.3l.1-.9h.3l.2.9h.1l.2-.9h.4l.2-.9h.1l.2.9.1-1.8.2.9.1-.9h.6l.2.9.1-1.7h.8l.1-.9.2.9.1-.9h.4l.2-.9.1.9.2-.9h.1l.2-.9.1.9.2-.9h.1l.2-.8.1.8h.5l.1-.8h.6l.2-1h.9l.1-.8.2.8h.1l.2-.8h.6l.1-.9.2.9.1-.9h.7l.2-.9h.9l.1-.9h1.2l.2-.8.1.8.2-.8h.7l.2-.9h.3l.1-.9.2.9h.1l.2-.9h.9l.1-.9.2.9.1-.9h.9l.1-.8h1.5l.2-1h.4l.2 1 .1-1h1.1l.1-.8h.6l.2.8.1-.8h.5l.1-.9.2.9.1-.9.1.9.2-.9h.1l.2.9.1-.9h1.7l.1-.9h1.4l.1-.9.2.9h.1l.2-.9h1.3l.2-.8.1.8h.3l.1-.8h1.7l.1-.9.2.9.1-.9.2.9.1-.9h2.4l.2-.9h.1l.2.9.1-.9h1.3l.2-.9.1.9h.2l.1-.9.2.9.1-.9.2.9.1-.9h.2l.1.9.2-.9h1.2l.1-.8h2.3l.1-.9.1.9.2-.9.1.9.2-.9h.1l.2.9.1-.9h1.4l.1-.9.2.9h.7l.2-.9h1.5l.1-.9h.2l.1.9.2-.9.1.9.2-.9h3.5l.2-.8.1.8.2-.8h.6l.1.8.2-.8h5.2l.1-1h3l.1-.8.2.8h.1l.2-.8.1.8.2-.8.1.8h.2l.1-.8.2.8h.3l.1-.8.2.8.1-.8h.5l.1-.9.2.9h2.2l.2-.9h.4l.1.9h.2l.1-.9.2.9.1-.9h.9l.2.9.1-.9h3.9l.1-.9.2.9h1.9l.2-.9.1.9.2-.9.1.9.2-.9h4.7l.2-.9.1.9h.2l.1-.9.2.9h1.5l.1-.9h.3l.2.9.1-.9h.6l.2.9.1-.9h1.9l.2-.8.1.8.2-.8h.1l.2.8h.1l.2-.8h.4l.2.8h.1l.2-.8.1.8.2-.8h.3l.1.8h.2l.1-.8.2.8h.1l.2-.8h.1l.2.8h.3l.1-.8.2.8h.4l.2-.8.1.8.2-.8.1.8.1-.8.2.8h.3l.1-.8h.2l.1.8h.6l.2-.8h.9l.1.8.2-.8h8.3l.2-.9.1.9h.6l.1-.9.2.9.1-.9.2.9h1.2l.1-.9.2.9.1-.9h.6l.2.9.1-.9h.2l.1.9.2-.9h4.6l.1.9.2-.9h4l.1-.9.2.9h.1l.2-.9.1.9.2-.9h.3l.1.9.2-.9h.3l.1.9h.3l.2-.9h.9l.1.9.2-.9h.1l.2.9h.1l.2-.9h.3l.1.9h.3l.2-.9h.3l.1.9h.2l.1-.9h.2l.1.9.1-.9h.2l.1.9.2-.9h.4l.2.9.1-.9h1.5l.2.9.1-.9h1.8l.2.9.1-.9h1.2l.1.9.2-.9h3.9l.1-.9.2.9h1.6l.1-.9.2.9h1l.2-.9.1.9h.2l.1-.9h.2l.1.9.2-.9.1.9h1.2l.2-.9h.1l.2.9.1-.9h.6l.2.9.1-.9.2.9h.1l.2-.9h.3l.1.9.1-.9.2.9h.1l.2-.9h.1l.2.9h.3l.1-.9.2.9h.1l.2-.9h.4l.2.9h.1l.2-.9h.3l.1.9h.3l.2-.9h.1l.2.9.1-.9.2.9h.1l.2-.9.1.9h.2l.1-.9.2.9.1-.9.2.9h1.4l.2-.9.1.9h.3l.2-.9.1.9.2-.9h.3l.1.9h.2l.1-.9h.2l.1.9.2-.9h.4l.2.9.1-.9h1.8l.2.9.1-.9h1l.2.9.1-.9h.6l.2.9.1-.9h7.3l.2-.8h.1l.2.8.1-.8.2.8h.6l.1-.8.2.8.1-.8h.3l.2.8h.4l.2-.8h.4l.2.8.1-.8h.3l.1.8.2-.8h.4l.2.8.1-.8h1.2l.2.8.1-.8h2l.1.8.2-.8h1.4l.2.8.1-.8h.9l.2.8.1-.8.2.8.1-.8h5.2l.2-.9.1.9.2-.9.1.9h1.8l.2-.9.1.9h1.5l.2-.9.1.9h.2l.1-.9.1.9.2-.9.1.9.2-.9.1.9.2-.9h.6l.1.9h.2l.1-.9.2.9.1-.9.2.9.1-.9h.2l.1.9.2-.9h.1l.2.9h.4l.2-.9h.1l.2.9.1-.9h.2l.1.9.2-.9.1.9h.2l.1-.9.2.9h.1l.2-.9h.4l.1.9.2-.9h.1l.2.9.1-.9h.3l.2.9.1-.9h2.3l.1.9.2-.9h.1l.2.9h.3l.1-.9h.2l.1.9h.3l.2-.9h.4l.2.9h1.3l.1-.9.2.9h2.1l.1-.9.2.9h.6l.1-.9h.2l.1.9h.3l.2-.9h.1l.2.9.1-.9h.2l.1.9h.3l.1-.9h.8l.1.9h.2l.1-.9h.2l.1.9.2-.9h1.2l.1.9h.2l.1-.9h.6l.2.9h.1l.2-.9h1l.2.9h.1l.2-.9h.4l.1.9.2-.9h.6l.1.9.2-.9h10l.1.9.2-.9.1.9.2-.9.1.9.2-.9h.4l.1.9.2-.9h.7l.2.9.1-.9h.2l.1.9.2-.9.1.9.2-.9.1.9.2-.9.1.9h.5l.1-.9.2.9.1-.9.2.9.1-.9h.2l.1.9.2-.9.1.9.2-.9h.1l.2.9h.1l.2-.9h.1l.2.9.1-.9.2.9h.4l.1-.9.2.9h.1l.2-.9h.3l.1.9h1.7l.1-.9.2.9h.4l.2-.9.1.9h9.4l.1-.9.2.9h4.8l.1.8.2-.8h5.2l.1.8.2-.8h3.5l.2-.9.1.9h.5l.1-.9.2.9h.3l.1-.9.2.9h.3l.1-.9.2.9.1-.9h.2l.1.9.2-.9h.1l.2.9.1-.9h4l.2-.9.1.9.2-.9.1.9h.2l.1-.9.2.9h.1l.2-.9.1.9h.3l.2-.9.1.9.1-.9.2.9h.7l.2-.9.1.9h1.1l.1-.9.2.9.1-.9.2.9.1-.9.2.9h.1l.2-.9.1.9h.2l.1-.9h.2l.1.9h2.2l.2.9.1-.9h4.2l.2-.9.1.9h6.7l.2-.9.1.9h3.7l.2-.9.1.9h.9l.2-.9h.1l.2.9h.1l.2-.9h.1l.2.9h.3l.1-.9.2.9.1-.9.1.9.2-.9h.6l.1.9h.2l.1-.9h.5l.1.9.2-.9.1.9.2-.9h3.7l.1.9h.2l.1-.9.2.9h.1l.2-.9h2.7l.1.9.2-.9h1.6l.2.9h.1l.2-.9h1.4l.2.9.1-.9h1.4l.1.9h.2l.1-.9.2.9.1-.9.2.9h.3l.1-.9h.2l.1.9.2-.9h.1l.2.9h.1l.2-.9h.1l.2.9h.1l.2-.9.1.9h2.2l.2-.9.1.9h2.3l.1-.9.2.9h.3l.1-.9h.5l.1.9.2-.9.1.9.2-.9h2.6l.2.9.1-.9h.2l.1.9.2-.9h1.6l.2.9.1-.9h.6l.2.9h.5l.2-.9.1.9h.3l.2-.9.1.9h1.2l.2-.9.1.9h2.1l.2-.9.1.9.2-.9.1.9h.3l.2-.9.1.9h.1l.2-.9.1.9.2-.9.1.9h.5l.1-.9h.2l.1.9h.2l.1-.9.2.9.1-.9h.2l.1.9h.2l.1-.9.2.9h.6l.1-.9.2.9h.3l.1-.9h.2l.1.9h.2l.1-.9.2.9h.1l.2-.9.1.9h.2l.1-.9.2.9h3.7l.1-.9.2.9.1-.9h.2l.1.9h.5l.1-.9.2.9.1-.9.2.9h.1l.2-.9.1.9h.2l.1-.9h.4l.2.9.1-.9.2.9.1-.9.2.9.1-.9h1.1l.1.9h.2l.1-.9h8.7l.1.9.2-.9h1l.1.9h.2l.1-.9h.3l.2.9h.1l.2-.9h.1l.2.9h.3l.1-.9.2.9.1-.9h.3l.2.9h.4l.2-.9.1.9h.5l.1-.9.2.9h.1l.2-.9h.1l.2.9h.3l.1-.9h.3l.2.9h1.3l.1-.9.2.9h.7l.2-.9.1.9h.3l.2-.9h.3l.1.9.2-.9h.6l.1.9.2-.9h2.3l.2.9.1-.9h.8l.1.9.2-.9.1.9.2-.9h.7l.2.9.1-.9.2.9.1-.9.2.9h.1l.2-.9h.1l.2.9.1-.9h.3l.2.9.1-.9.2.9h.3l.1-.9h.3l.2.9h.1l.1-.9.2.9.1-.9h.5l.1.9.2-.9.1.9.2-.9.1.9h.2l.1-.9.2.9h.4l.2-.9h.3l.1.9.2-.9h4.1l.2.9.1-.9h6.1l.2-.9.1.9h.5l.1-.9h.2l.1.9h.5l.1-.9.2.9h.3l.1-.9h.3l.2.9h.1l.2-.9.1.9h.2l.1-.9h.3l.2.9.1-.9.2.9h.1l.2-.9h1.1l.2.9.1-.9h.3l.2.9.1-.9h.3l.2.9.1-.9h.5l.1.9.2-.9h.7l.2.9.1-.9h.6l.2.9h.1l.2-.9h.1l.2.9h.4l.2-.9.1.9h.9l.1-.9.2.9h.1l.2-.9h.3l.1.9h.3l.2-.9"/></g><defs><path id="SVGID_3_" d="M0 0h576v432H0z"/></defs><clipPath id="SVGID_4_"><use xlink:href="#SVGID_3_" overflow="visible"/></clipPath><g clip-path="url(#SVGID_4_)"><path shape-rendering="crispEdges" class="st0" d="M89 87.4h151.9V46.5H89z"/><path d="M89 87.4h151.9M89 46.5h151.9M89 87.4V46.5m151.9 40.9V46.5" fill="none" stroke="#262626" stroke-width=".5" stroke-linecap="square" stroke-dasharray="16,0"/><text transform="translate(123.683 62.225)" class="st4 st5">S</text><text transform="translate(132.683 62.225)" class="st4 st5">e</text><text transform="translate(139.683 62.225)" class="st4 st5">n</text><text transform="translate(147.683 62.225)" class="st4 st5">s</text><text transform="translate(154.683 62.225)" class="st4 st5">o</text><text transform="translate(161.683 62.225)" class="st4 st5">r</text><text transform="translate(170.683 62.225)" class="st4 st5">b</text><text transform="translate(178.683 62.225)" class="st4 st5">o</text><text transform="translate(185.683 62.225)" class="st4 st5">a</text><text transform="translate(193.683 62.225)" class="st4 st5">r</text><text transform="translate(198.683 62.225)" class="st4 st5">d</text><text transform="translate(123.683 82.652)" class="st4 st5">I</text><text transform="translate(127.683 82.652)" class="st4 st5">l</text><text transform="translate(130.683 82.652)" class="st4 st5">l</text><text transform="translate(133.683 82.652)" class="st4 st5">u</text><text transform="translate(141.683 82.652)" class="st4 st5">m</text><text transform="translate(152.683 82.652)" class="st4 st5">i</text><text transform="translate(155.683 82.652)" class="st4 st5">n</text><text transform="translate(163.683 82.652)" class="st4 st5">a</text><text transform="translate(171.683 82.652)" class="st4 st5">t</text><text transform="translate(175.683 82.652)" class="st4 st5">i</text><text transform="translate(178.683 82.652)" class="st4 st5">o</text><text transform="translate(185.683 82.652)" class="st4 st5">n</text><text transform="translate(197.683 82.652)" class="st4 st5">b</text><text transform="translate(205.683 82.652)" class="st4 st5">o</text><text transform="translate(212.683 82.652)" class="st4 st5">a</text><text transform="translate(220.683 82.652)" class="st4 st5">r</text><text transform="translate(225.683 82.652)" class="st4 st5">d</text><path class="st8" d="M93.1 56.7h26.5"/><path class="st9" d="M93.1 77.2h26.5"/></g></svg>