<svg version="1.1" id="Ebene_1" xmlns="http://www.w3.org/2000/svg" xmlns:xlink="http://www.w3.org/1999/xlink" x="0" y="0" viewBox="0 0 262.5 118.5" style="background-color:#fff" xml:space="preserve"><style>.st10{font-family:Helvetica,Arial,sans-serif}.st11{font-size:5px}</style><defs><path id="SVGID_1_" d="M-200.2-267.7h563.8v684.5h-563.8z"/></defs><clipPath id="SVGID_2_"><use xlink:href="#SVGID_1_" overflow="visible"/></clipPath><path d="M42.5 7.5h158.9v.6H42.5v-.6zm0 16h158.9v.7H42.5v-.7zm0 16.1h158.9v.6H42.5v-.6zm0 16.1h158.9v.7H42.5v-.7zm0 15.9h158.9v.7H42.5v-.7z" clip-path="url(#SVGID_2_)" fill="#d4e3f4"/><defs><path id="SVGID_3_" d="M-200.2-267.7h563.8v684.5h-563.8z"/></defs><clipPath id="SVGID_4_"><use xlink:href="#SVGID_3_" overflow="visible"/></clipPath><path d="M201.7 7.8v80.3h-.7V7.8h.7zm-39.7 0v80.3h-.7V7.8h.7zm-39.7 0v80.3h-.7V7.8h.7zm-39.8 0v80.3h-.7V7.8h.7z" clip-path="url(#SVGID_4_)" fill="#d4e3f4"/><path d="M42.1 7.8h.7v80.3h-.7V7.8z" fill="#8eb4e3"/><path d="M42.5 87.8h158.9v.6H42.5v-.6z" fill="#d4e3f4"/><path d="M220.3 41.7h17.6v1.9h-17.6v-1.9z"/><defs><path id="SVGID_5_" d="M-200.2-267.7h563.8v684.5h-563.8z"/></defs><clipPath id="SVGID_6_"><use xlink:href="#SVGID_5_" overflow="visible"/></clipPath><path d="M220.3 56.1h17.6c.6 0 1 .5 1 1s-.4 1-1 1h-17.6c-.5 0-1-.5-1-1s.5-1 1-1z" clip-path="url(#SVGID_6_)" fill="#4f81bd"/><path d="M220.3 70.5h17.6v1.9h-17.6v-1.9z" fill="#c0504d"/><path d="M63 88.1h3.5l.9-.2 1-.1 1.1-.8 1-1.1 1-1.7 1.6-4.4 2.5-11.9 2-15.8 1.5-17 .9-10.5.7-8.1.9-6 .6-2.4.3-.3h1.6l.5.7.3 2.9.9 6.6.5 6 .4 5.3.7 8.4 1.1 10 1.3 9.8 1.3 7.7 1.8 7.3 1.2 3.8 1.5 2.6.9.6 1.8.5 1.8-.5 2-2 3.6-5.3 3.2-4.2 5.2-5 1.6-1.1 2.2-.6 5.2-.6 5.4.2 3.1 1 3 1 2.3.9 2.6 1.2 3.4 2.2 5.6 3.5 4.6 2.8 6.5 3.6 7.1 3.5 5.5 1.8 5.6 1.2 5.4 1.2 5.1.6 3.1.5 2.7.6 2.7.9 1.6.1 1.7.1 1.2.2" fill="none" stroke="#1d1d1b" stroke-width="2" stroke-miterlimit="10"/><path d="M70.4 88.1l3.2-.8 1.9-1.4 2.5-2.6 1.5-3.9 1.7-7.5 1.5-10.7.9-12.4.9-11.1.6-9.6.3-8.6.7-8 .5-2 .3-1.2 1-.3 1.2.3.3 1.4.5 2.6 1.5 17.9 1.7 16.4 1.7 12 1.3 7 1.8 7.8 1.2 3.6 1 2.5.7 1.1 1.1 1.6 1.3 1.2 1.1.7 1 .6 1.8.6 1.6.7 1.6.5.5.3.8.3 1.5.7 1.6.3h1.8l1.3.2h1" fill="none" stroke="#4f81bd" stroke-width="2" stroke-miterlimit="10"/><path d="M132.1 88.7l2.2-.6 2.6-1.1 1.5-1.1.7-.7 1.6-1.6 1.4-1.9 1.5-4 2-10.9 1.8-12.4 1.7-16.4 1.2-14 .9-9.7.5-4 .6-2.2.3-.6 1.1-.1.8.9.6 4 1.1 12.4.6 10.7 1.3 20.3 1.4 13.7 1.2 9.5.9 3.5 1.1 1.8 1.1 1.2 1.1.6 3 .7 2.1.6 1.7.2 1.8.3.9.3" fill="none" stroke="#c0504d" stroke-width="2" stroke-miterlimit="10"/><text transform="translate(242.77 43.666)" class="st10 st11">White</text><text transform="translate(242.769 58.366)" class="st10 st11">Blue</text><text transform="translate(242.769 72.4)" class="st10 st11">Red</text><text transform="translate(110.326 111.582)" class="st10 st11">Wavelength (nm)</text><text transform="matrix(-.00354 -1 1 -.00354 12.943 88.4)" class="st10 st11">Relative Emission Intensity (a.u.)</text><text transform="translate(30.696 9.641)" class="st10 st11">1</text><text transform="translate(28.928 24.415)" class="st10 st11">0.8</text><text transform="translate(28.928 40.599)" class="st10 st11">0.6</text><text transform="translate(28.928 57.633)" class="st10 st11">0.4</text><text transform="translate(28.928 73.223)" class="st10 st11">0.2</text><text transform="translate(28.928 87.8)" class="st10 st11">0</text><text transform="translate(39.898 101.147)" class="st10 st11">350</text><text transform="translate(75.757 101.147)" class="st10 st11">450</text><text transform="translate(117.436 101.147)" class="st10 st11">550</text><text transform="translate(157.366 101.147)" class="st10 st11">650</text><text transform="translate(197.025 101.147)" class="st10 st11">750</text></svg>