<svg style="background-color:#fff" version="1.1" id="Ebene_1" xmlns="http://www.w3.org/2000/svg" x="0" y="0" viewBox="0 0 322.8 170.3" xml:space="preserve"><style>.st4{fill:none;stroke:#1d1d1b}.st8{fill:#1d1d1b}.st9{font-family:Helvetica,Arial,sans-serif}.st10{font-size:8px}.st11{font-size:9px}.st12{fill:none;stroke:#1d1d1b;stroke-width:2;stroke-linecap:round}</style><linearGradient id="SVGID_1_" gradientUnits="userSpaceOnUse" x1="61.1" y1="33.275" x2="61.1" y2="33.275" gradientTransform="matrix(1 0 0 -1 0 176.549)"><stop offset="0" stop-color="#fff"/><stop offset="1"/></linearGradient><path d="M61.1 139.9v6.8" fill="url(#SVGID_1_)" stroke="#1d1d1b"/><linearGradient id="SVGID_2_" gradientUnits="userSpaceOnUse" x1="176.5" y1="33.275" x2="176.5" y2="33.275" gradientTransform="matrix(1 0 0 -1 0 176.549)"><stop offset="0" stop-color="#fff"/><stop offset="1"/></linearGradient><path d="M176.5 139.9v6.8" fill="url(#SVGID_2_)" stroke="#1d1d1b"/><linearGradient id="SVGID_3_" gradientUnits="userSpaceOnUse" x1="118.8" y1="33.275" x2="118.8" y2="33.275" gradientTransform="matrix(1 0 0 -1 0 176.549)"><stop offset="0" stop-color="#fff"/><stop offset="1"/></linearGradient><path d="M118.8 139.9v6.8" fill="url(#SVGID_3_)" stroke="#1d1d1b"/><linearGradient id="SVGID_4_" gradientUnits="userSpaceOnUse" x1="89.9" y1="33.275" x2="89.9" y2="33.275" gradientTransform="matrix(1 0 0 -1 0 176.549)"><stop offset="0" stop-color="#fff"/><stop offset="1"/></linearGradient><path d="M89.9 139.9v6.8" fill="url(#SVGID_4_)" stroke="#1d1d1b"/><path class="st4" d="M205.3 139.9v6.8"/><linearGradient id="SVGID_5_" gradientUnits="userSpaceOnUse" x1="147.6" y1="33.275" x2="147.6" y2="33.275" gradientTransform="matrix(1 0 0 -1 0 176.549)"><stop offset="0" stop-color="#fff"/><stop offset="1"/></linearGradient><path d="M147.6 139.9v6.8" fill="url(#SVGID_5_)" stroke="#1d1d1b"/><linearGradient id="SVGID_6_" gradientUnits="userSpaceOnUse" x1="234.2" y1="33.275" x2="234.2" y2="33.275" gradientTransform="matrix(1 0 0 -1 0 176.549)"><stop offset="0" stop-color="#fff"/><stop offset="1"/></linearGradient><path d="M234.2 139.9v6.8" fill="url(#SVGID_6_)" stroke="#1d1d1b"/><path class="st4" d="M24.4 139.6h297"/><linearGradient id="SVGID_7_" gradientUnits="userSpaceOnUse" x1="320.7" y1="33.275" x2="320.7" y2="33.275" gradientTransform="matrix(1 0 0 -1 0 176.549)"><stop offset="0" stop-color="#fff"/><stop offset="1"/></linearGradient><path d="M320.7 139.9v6.8" fill="url(#SVGID_7_)" stroke="#1d1d1b"/><text transform="translate(146.86 167.71)" class="st8 st9 st10">Image Height [mm]</text><path class="st8" d="M319.8 152.5c-.3-.1-.6-.3-.7-.5-.2-.2-.2-.5-.2-.8 0-.5.2-.9.5-1.2s.8-.5 1.3-.5c.6 0 1 .2 1.4.5.3.3.5.7.5 1.2 0 .3-.1.6-.2.8-.2.2-.4.4-.7.5.4.1.7.3.9.6.2.3.3.6.3 1 0 .5-.2 1-.6 1.4s-.9.6-1.5.6-1.1-.2-1.5-.6c-.4-.4-.6-.8-.6-1.4 0-.4.1-.8.3-1.1.1-.2.4-.4.8-.5zm-.4 1.6c0 .2.1.4.2.7.1.2.3.4.5.5s.4.2.7.2c.4 0 .7-.1.9-.4.2-.2.4-.6.4-.9 0-.4-.1-.7-.4-.9s-.6-.4-1-.4-.7.1-.9.4c-.3.1-.4.4-.4.8zm.2-3c0 .3.1.6.3.7.2.2.4.3.8.3.3 0 .6-.1.7-.3.2-.2.3-.4.3-.7s-.1-.5-.3-.7c-.2-.2-.4-.3-.7-.3-.3 0-.6.1-.8.3-.2.2-.3.5-.3.7z"/><path class="st4" d="M31.7 10.4h-7.2m7.2 31.3h-7.2m7.2 32.5h-7.2m7.2 31.4h-7.2"/><path class="st8" d="M32.7 152.8c0-.8.1-1.4.2-1.8.2-.5.4-.8.7-1.1s.7-.4 1.2-.4c.3 0 .6.1.9.2.3.1.5.3.6.6.2.3.3.6.4 1 .1.4.1.9.1 1.5 0 .8-.1 1.4-.2 1.8-.2.5-.4.8-.7 1.1s-.7.4-1.2.4c-.6 0-1.1-.2-1.5-.7-.3-.5-.5-1.4-.5-2.6zm.8 0c0 1.1.1 1.8.4 2.1.2.3.6.5.9.5.4 0 .7-.2.9-.5.2-.4.4-1.1.4-2.1 0-1.1-.1-1.8-.4-2.1-.2-.3-.6-.5-.9-.5-.4 0-.7.2-.9.5-.3.3-.4 1-.4 2.1z"/><path class="st4" d="M32.3 10.4v137.2"/><text transform="translate(16.782 142.08)" class="st8 st9 st11">0</text><text transform="translate(12.532 109.164)" class="st8 st9 st11">20</text><text transform="translate(12.2 77.498)" class="st8 st9 st11">40</text><text transform="translate(12.032 45.164)" class="st8 st9 st11">60</text><text transform="translate(12.032 12.997)" class="st8 st9 st11">80</text><text transform="rotate(-90 49.18 42.316)" class="st8 st9 st10">SFR [%]</text><text transform="translate(66.866 120.83)" class="st8 st9 st11">Sagittal</text><text transform="translate(66.866 132.33)" class="st8 st9 st11">Tangential</text><path class="st4" d="M41 108.9h73.5v27.8H41v-27.8z"/><path class="st12" d="M45.5 117.2h16.9"/><path d="M45.4 128.7h16.8" fill="none" stroke="#1d1d1b" stroke-width="2" stroke-linecap="round" stroke-dasharray="4"/><text transform="translate(46.866 12.662)" class="st8 st9 st10">45 LP/mm</text><text transform="translate(98.532 12.33)" class="st8 st9 st10">55 LP/mm</text><text transform="translate(46.866 70.163)" class="st8 st9 st10">64 LP/mm</text><path class="st4" d="M44.2 10.5l-6 8"/><path class="st8" d="M37.2 16.5l.8-.1.3 2 2-.3.1.8-2.8.4-.4-2.8z"/><path class="st4" d="M97.2 10.5l-54.7 25"/><path class="st8" d="M42.6 33.3l.8.3-.7 1.8 1.9.7-.3.8-2.7-1 1-2.6z"/><path class="st4" d="M45.2 67.5l-8-19.6"/><path class="st8" d="M39.5 48l-.4.8-1.8-.8-.8 1.9-.8-.3 1.1-2.7 2.7 1.1z"/><linearGradient id="SVGID_8_" gradientUnits="userSpaceOnUse" x1="291.8" y1="33.275" x2="291.8" y2="33.275" gradientTransform="matrix(1 0 0 -1 0 176.549)"><stop offset="0" stop-color="#fff"/><stop offset="1"/></linearGradient><path d="M291.8 139.9v6.8" fill="url(#SVGID_8_)" stroke="#1d1d1b"/><linearGradient id="SVGID_9_" gradientUnits="userSpaceOnUse" x1="263" y1="33.275" x2="263" y2="33.275" gradientTransform="matrix(1 0 0 -1 0 176.549)"><stop offset="0" stop-color="#fff"/><stop offset="1"/></linearGradient><path d="M263 139.9v6.8" fill="url(#SVGID_9_)" stroke="#1d1d1b"/><linearGradient id="SVGID_10_" gradientUnits="userSpaceOnUse" x1="32.3" y1="33.275" x2="32.3" y2="33.275" gradientTransform="matrix(1 0 0 -1 0 176.549)"><stop offset="0" stop-color="#fff"/><stop offset="1"/></linearGradient><path d="M32.3 139.9v6.8" fill="url(#SVGID_10_)" stroke="#1d1d1b"/><path d="M32.5 24.2s37.9 13.7 53.1 14c15.3.3 69.8 1 81.1-7 0 0 7-4.7 15.6 4s18.3 9.7 18.3 9.7l19.3 3.7s14.3 2 15.9 1c0 0 14-1 17.6 5.3 3.7 6.3 57.1 42.7 65.8 32" opacity=".17" fill="none" stroke="#1d1d1b" stroke-width="2" stroke-linecap="round"/><path class="st12" d="M32.9 41.9s79.7 34.7 118 13.7c0 0 16.3-4.3 26.7 3.7S203.3 71 203.3 71s104.7 51.3 117 40"/><path d="M32.9 34.9s75.4 29.4 115.5 13.2c0 0 11.7-7.3 30 2.3 0 0 16.4 6.6 21 5.6 0 0 12.3-3 22.4 4.6 0 0 85.1 48.8 98.1 36.6" opacity=".5" fill="none" stroke="#1d1d1b" stroke-width="2" stroke-linecap="round"/><path d="M32.9 35.5s63.8 36.6 135.9 15.1c0 0 51-11.8 77.2 14.8 0 0 53.7 71.6 75.5 48.1" opacity=".49" fill="none" stroke="#1d1d1b" stroke-width="2" stroke-dasharray="4"/><path d="M32.9 42.5s95.9 43.4 151 12.9c0 0 21.4-4.1 42.4 8.5 0 0 60.5 47.8 65.5 51.5 0 0 23.1 15.9 28.7 6.8" fill="none" stroke="#1d1d1b" stroke-width="2" stroke-dasharray="4"/><path d="M32.9 24.9s100.2 38.4 146.3 12c0 0 42.8-14 73.8 23.6 0 0 44.8 46.6 45.8 46.6s13.4 8.6 21.4 0" opacity=".2" fill="none" stroke="#1d1d1b" stroke-width="2" stroke-dasharray="4"/></svg>