<svg version="1.1" id="Layer_1" xmlns="http://www.w3.org/2000/svg" x="0" y="0" viewBox="0 0 768 576" style="background-color:#fff" xml:space="preserve"><style>.st2{stroke-opacity:.15;stroke-dasharray:42.6667,0}.st2,.st3{fill:none;stroke:#262626;stroke-width:2.6667;stroke-miterlimit:5.3333}.st4{fill:#262626}.st5{font-family:Helvetica,Arial,sans-serif}.st6{font-size:18px}.st8,.st9{fill:none;stroke:#0071bc;stroke-width:2.6667;stroke-linejoin:round;stroke-miterlimit:5.3333}.st9{stroke:#d85218}.st11{font-size:14px}</style><path d="M0 0h768v576H0z" fill="none"/><path shape-rendering="crispEdges" d="M99.8 512.6H695V43.2H99.8v469.4z" fill="#fff"/><path class="st2" d="M99.8 512.6V43.2M199 512.6V43.2m99.2 469.4V43.2m99.2 469.4V43.2m99.2 469.4V43.2m99.2 469.4V43.2M695 512.6V43.2"/><path class="st3" d="M99.8 512.6v-6m99.2 6v-6m99.2 6v-6m99.2 6v-6m99.2 6v-6m99.2 6v-6m99.2 6v-6"/><text transform="translate(83.84 541.31)" class="st4 st5 st6">4</text><text transform="translate(94.507 541.31)" class="st4 st5 st6">0</text><text transform="translate(105.174 541.31)" class="st4 st5 st6">0</text><text transform="translate(183.04 541.31)" class="st4 st5 st6">6</text><text transform="translate(193.707 541.31)" class="st4 st5 st6">0</text><text transform="translate(204.374 541.31)" class="st4 st5 st6">0</text><text transform="translate(282.24 541.31)" class="st4 st5 st6">8</text><text transform="translate(292.907 541.31)" class="st4 st5 st6">0</text><text transform="translate(303.574 541.31)" class="st4 st5 st6">0</text><text transform="translate(376.107 541.31)" class="st4 st5 st6">1</text><text transform="translate(386.773 541.31)" class="st4 st5 st6">0</text><text transform="translate(397.44 541.31)" class="st4 st5 st6">0</text><text transform="translate(408.107 541.31)" class="st4 st5 st6">0</text><text transform="translate(475.307 541.31)" class="st4 st5 st6">1</text><text transform="translate(485.974 541.31)" class="st4 st5 st6">2</text><text transform="translate(496.64 541.31)" class="st4 st5 st6">0</text><text transform="translate(507.307 541.31)" class="st4 st5 st6">0</text><text transform="translate(574.507 541.31)" class="st4 st5 st6">1</text><text transform="translate(585.174 541.31)" class="st4 st5 st6">4</text><text transform="translate(595.84 541.31)" class="st4 st5 st6">0</text><text transform="translate(606.507 541.31)" class="st4 st5 st6">0</text><text transform="translate(673.707 541.31)" class="st4 st5 st6">1</text><text transform="translate(684.374 541.31)" class="st4 st5 st6">6</text><text transform="translate(695.04 541.31)" class="st4 st5 st6">0</text><text transform="translate(705.707 541.31)" class="st4 st5 st6">0</text><path class="st2" d="M99.8 512.6H695m-595.2-67H695M99.8 378.5H695m-595.2-67H695M99.8 244.4H695M99.8 177.3H695m-595.2-67H695M99.8 43.2H695"/><path class="st3" d="M99.8 512.6h6m-6-67h6m-6-67.1h6m-6-67h6m-6-67.1h6m-6-67.1h6m-6-67h6m-6-67.1h6"/><text transform="translate(79.832 519.974)" class="st4 st5 st6">0</text><text transform="translate(79.832 452.91)" class="st4 st5 st6">1</text><text transform="translate(79.832 385.848)" class="st4 st5 st6">2</text><text transform="translate(79.832 318.785)" class="st4 st5 st6">3</text><text transform="translate(79.832 251.722)" class="st4 st5 st6">4</text><text transform="translate(79.832 184.658)" class="st4 st5 st6">5</text><text transform="translate(79.832 117.596)" class="st4 st5 st6">6</text><text transform="translate(79.832 50.533)" class="st4 st5 st6">7</text><path d="M99.8 512.6H695m-595.2 0V43.2" fill="none" stroke="#262626" stroke-width="2.667" stroke-linecap="square" stroke-miterlimit="5.333" stroke-dasharray="42.6667,0"/><path class="st8" d="M218.9 500.8l12.4-6 12.4-7.2 12.4-11.4 12.4-7.6 12.4 4.2 12.4-1.9 12.4-1.6 12.4 3.5 12.4-1.5 12.4-1.1 12.4-3.2 12.4 2.3 12.4-1.3 12.4 1.1 12.4-1.6 12.4 5.5 12.4-2.7 12.4 3.4 12.4.7 12.4 3.1 12.4-1.9 12.4 3.1 12.4-2.8 12.4.7 12.4-2 12.4-.1 12.4-2 12.4.4 12.4-1.2h12.4l12.4.1 12.4-1.3 12.4.8 12.4-2"/><path class="st9" d="M156.9 507.1l12.4-7 12.4-7.5 12.4-9.1 12.4-9.5 12.4-2.4 12.4 2.3 12.4-1.9 12.4 4.7 12.4 3.2 12.4 1.3 12.4-.7 12.4 2.4 12.4-2 12.4.4 12.4-.3 12.4-.4 12.4-1.5 12.4-1.7 12.4-5 12.4-5.5 12.4-1.7 12.4-1.1 12.4.1 12.4 4.6 12.4 4.4 12.4-.5 12.4 1.3 12.4-.8 12.4-1.2 12.4-.1 12.4-2.1 12.4.7 12.4 2.4 12.4-.3 12.4-1.6 12.4 1.1 12.4-7.5 12.4-.4 12.4-.5"/><path d="M118.7 113.7h217.7M118.7 62h217.7m-217.7 51.7V62m217.6 51.7V62" fill="none" stroke="#262626" stroke-width=".667" stroke-linecap="square" stroke-miterlimit="5.333" stroke-dasharray="21.3333,0"/><path class="st8" d="M124.1 74.9h35.3"/><path class="st9" d="M124.1 100.8h35.3"/><text transform="translate(167.692 79.615)" class="st5 st11">ShortRange</text><text transform="translate(167.692 104.753)" class="st5 st11">ShortRange + FastMode</text><text transform="rotate(-90 213.115 152.192)" class="st5 st6">Temporal Noise [mm]</text><text transform="translate(343.385 564.693)" class="st5 st6">Distance [mm]</text></svg>