<svg version="1.1" id="Layer_1" xmlns="http://www.w3.org/2000/svg" x="0" y="0" viewBox="0 0 563 182" style="background-color:#fff" xml:space="preserve"><style>.st0{stroke-width:.5}.st0,.st1,.st2,.st3{fill:none;stroke:#000;stroke-miterlimit:3.8637}.st1{stroke-width:.4252}.st2{stroke-width:.3402}.st3{stroke-width:.25;stroke-dasharray:12,2,2,2}.st9{font-family:Helvetica,Arial,sans-serif}.st10{font-size:10px}.st11{font-size:8px}</style><g id="Ebene_1"><path class="st0" d="M260.2 90.8h186.2m-186.2 19.6h169.5m0 0h17.1M148.1 79.3l2.9-2.4h55.2l2.7 1.9v44.9l-2.7 1.8h-55l-3.1-2.4V79.3zm2.8-2.4v48.6m55.3 0V76.9M76 76.4h55.2l2.7 2v44.8l-2.7 1.8h-55m-.3-48.6V125m55.3 0V76.4"/><path class="st1" d="M259.7 88.7v24.1"/><path class="st0" d="M450.1 90.8H511m-60.9 19.6h60.6"/><path class="st2" d="M82.3 58.7h185.1"/><path d="M82.3 56.9v3.5l-6.2-1.7 6.2-1.8zm170.4 0v3.5l6.2-1.7-6.2-1.8z"/><path class="st2" d="M76.3 71.9V11m183.5 75.5V57.2"/><path class="st3" d="M446.8 88v26.8"/><path d="M449.8 88v26.8" fill="none" stroke="#000" stroke-width=".25" stroke-miterlimit="3.864" stroke-dasharray="12,2,2,2,2,2"/><path class="st2" d="M66.1 120.8V83m9.4 42H64.6"/><path d="M64.3 83.3h3.5l-1.7-6.5-1.8 6.5z"/><path class="st2" d="M75.5 76.5H64.6"/><path d="M67.8 118h-3.5l1.7 6.5 1.8-6.5z"/><path class="st3" d="M298.7 102L71 101.5"/><path class="st1" d="M512.7 101.3c-1.8-3.8-5.2-7.2-1.7-10.5 3.9 1.3 3 5.8 1.7 10.5m-2 9.1c3.9-3.2 3.4-6.2 2-9.1"/><path d="M509.6 95.3l25.3-2.3m-23 7.3l21.5-1.3m-20 4.8l20.7.7m-20.7 2.5l22 4.3" fill="none"/><path class="st2" d="M82.3 14.7h461.1"/><path d="M82.3 13v3.4l-6.2-1.7 6.2-1.7z"/><path class="st2" d="M535.8 92V11.5"/><path d="M529.4 16.4V13l6.2 1.7-6.2 1.7z"/><path class="st2" d="M298.7 110.5V90.8m131 19.7V90.8"/><path class="st3" d="M544.9 102l-115.2-.5"/><path class="st2" d="M488.7 126.3V49"/><path d="M487 116.5h3.4l-1.7-6.1-1.7 6.1zm3.4-31.1H487l1.7 6.2 1.7-6.2z"/><path d="M133.9 117h14.2m0-32.5h-14.2m75 0l50.8 4.2m-158 36.3V76.4m24.2 48.6V76.4m133.8 36.4l-50.8 4.2" fill="none" stroke="#020405" stroke-width=".5" stroke-linecap="round" stroke-linejoin="round" stroke-miterlimit="10"/><path d="M102 76.5l24.1 16.1m-17.8-16l17.8 12m-11.8-12l11.8 7.9m-5.8-7.9l5.8 3.9m-24.1 0l24.1 16.2M102 84.5l24.1 16.2M102 88.6l24.1 16.2M102 92.6l24.1 16.2M102 96.7l24.1 16.2M102 100.7l24.1 16.2M102 104.8l24.1 16.2M102 108.8l24.1 16.2M102 112.9l18.1 12.1m-18.1-8.1l12.1 8.1m-12.1-4l6 4m18.1-48.5L102 92.6m17.8-16l-17.8 12m11.7-12L102 84.5m5.7-7.9l-5.7 3.9m24.1 0L102 96.7m24.1-12.2L102 100.7m24.1-12.1L102 104.8m24.1-12.2L102 108.8m24.1-12.1L102 112.9m24.1-12.2L102 116.9m24.1-12.1L102 121m24.1-12.2L102 125m24.1-12.1L108 125m18.1-8.1L114 125m12.1-4l-6.1 4" fill="none" stroke="#000" stroke-width=".25" stroke-miterlimit="3.864"/><path class="st1" d="M298.7 90.8h130.9V159H298.7V90.8z"/><path d="M46.8 47l29.5 29.4" fill="none" stroke="#000" stroke-width=".227" stroke-miterlimit="3.864"/></g><g id="text"><text transform="translate(1.228 32.448)" class="st9 st10">Hirose</text><text transform="translate(1.228 43.448)" class="st9 st10">6-pin plug</text><text transform="translate(169.099 55)" class="st9 st11">36</text><text transform="rotate(-90 86.37 24.58)" class="st9 st11">11.6</text><text transform="rotate(-90 277.683 -207.03)" class="st9 st11">4.9</text><text transform="translate(301.057 130.667)" class="st9 st10">Label with order number,</text><text transform="translate(301.057 141.667)" class="st9 st10">manufacturing date, and</text><text transform="translate(301.057 152.667)" class="st9 st10">pin-to-wire color assignment</text><text transform="translate(341.806 103.793)" class="st9" font-size="7">2000...xx/yy</text><text transform="translate(232.473 9.666)" class="st9 st10">Length depending on order number</text><text transform="translate(509.643 125.666)" class="st9 st10">Open end</text><text transform="translate(476.143 177.667)" class="st9 st10">Dimensions in mm</text></g></svg>