<svg version="1.1" id="Ebene_1" xmlns="http://www.w3.org/2000/svg" x="0" y="0" viewBox="0 0 375.1 342.8" style="background-color:#fff" xml:space="preserve"><style>.st0,.st2{stroke:#000;stroke-linecap:round;stroke-linejoin:round;stroke-miterlimit:10}.st0{fill:none;stroke-width:1.08}.st2{stroke-width:.54}.st2,.st9{fill:none}.st10{font-family:Helvetica,Arial,sans-serif}.st11{font-size:18px}</style><g id="blaze_iso"><path class="st0" d="M636.2 65.3V65l.3-1m0 0l-.3 1.3"/><path fill="none" stroke="#000" stroke-width=".25" stroke-linecap="round" stroke-linejoin="round" stroke-miterlimit="10" d="M154.3 22h.7l.6.3"/><path class="st0" d="M143.2 156.7v-.3M96 128.1h-.3m46.8 27l-2.6-1.7m2.6 48.1v-.3m0-43.2v-2.9m-46.5-27h-.3m.3 0l-.9.3 46.4 27 1-.3m-47.4-26.7v46.5m47.4 26.6l-1 .4v-46.5m-46.4 19.5l46.4 27"/><path class="st2" d="M140.2 201.2h-.3"/><path class="st0" d="M139.9 153.4l.7.3h.6m1.7 3l-.4.6v.7m-1.3 44.2l-.6-.7-.7-.3"/><path class="st2" d="M141.2 202.2l1.3-.7"/><path class="st0" d="M97.3 176.5l-.6-.3H96"/><path class="st2" d="M96.7 175.9l-.7.3m-1.6-2.9l.7-.4"/><path class="st0" d="M94.4 173.3l.3-.4v-.6"/><path class="st2" d="M95.1 172l-.4.3m0-42h.4"/><path class="st0" d="M94.7 130.3v-.6l-.3-1"/><path class="st2" d="M95.7 128.1l-1.3.6"/><path class="st0" d="M139.9 201.2l-42.6-24.7m43.9-22.8h.3m1.7 3h-.3m.3 46.1l-.7.4h-.6l-.7-1m-45.2-26h-.6l-1-1-.3-1.3.3-.6m.3-1v-42m-.3-1.6l-.3-1 .3-.6.3-.3"/><path class="st2" d="M141.2 202.2l-1.9 1.6m-.4-.3l1-2.3"/><path class="st0" d="M138.9 203.5l.4.3.9 1 1.3.6h1l.7-.9v-1.3l-.3-1.7-.4-.3m0 0V158"/><path class="st2" d="M142.9 156.7v2.3"/><path class="st0" d="M142.5 159.3l.4-.3.3-1v-1.3l-.7-1.6-1-1.4-1.3-.9h-.9"/><path class="st2" d="M141.2 153.7l-1.9-.9"/><path class="st0" d="M139.9 153.4l-1-.6m.4 0h-.4m0 0L96 128.1m0 0l-.3-.4-1-1.3-1.3-.6-.9.3-.7.7-.3 1.6.6 1.3"/><path class="st2" d="M94.4 128.7l-2.3 1m2.6.6h-2.6"/><path class="st0" d="M92.1 129.7v.6m0 0v42"/><path class="st2" d="M94.7 172.3h-2.6m2.3 1l-2.3-.7"/><path class="st0" d="M92.1 172.3v.3l-.6 1 .3 1.3.7 1.6.9 1.3 1.3.7 1 .3"/><path class="st2" d="M96 176.2l-.3 2.6m1.6-2.3l-1.3 2.3"/><path class="st0" d="M95.7 178.8h.3m0 0l42.9 24.7m144.4-69.6l-36.8 21.2m0 0L74.9 56.2 112 34.8m-1.3 0L73.6 55.9 71 57.5m216.2 82.3l-36.8 21.1m0 0l-2.6-4.5 36.8-21.2m3.2 164.5l-37 21.4m0 0V162.9l37-21.5m-.6 159.6l.6-1.3M112 34.8h-1.3m173.9 100.4l-1.3-1.3m4.5 7.5l-.6-1.6m-41 16.9l3.3 5.5v159.3l-3.3 1.9L73.6 224l-2.9-5.6V58.8l2.9-1.6 172.6 99.5m1.6 167l2.6-1.6 36.8-21.1M73.6 55.9l1.3.3m171.6 98.9l1.3 1.3m0 167.3h-1.3l-.3-.3m4.2-162.5l.4 2m0 158.2l-.4 1m-4.2 1.3l1.6.3m2.6-1.6l-.9-.6m1.3-158.6l-1.3-.7m0 159.3l1.3-.4m-1.3-158.9l.9-1.3m-2.6-4.5l-1.6.3M74.9 56.2l-1.3 1m172.6 99.5l.3-1.6M73.6 57.2v-1.3m209.7 78L112 34.8m175.2 105l-2.6-4.6m3.2 164.5V141.4m-125.8 25l-.6-.9m47.8 75l-.7-.6m0 0"/><path class="st2" d="M206.9 240.9l1.6-1m-1.3-.3l-1 .6m-43.2-25l1-.3m-.3-.4l-1.3.7m-2.3-3.9l1.3-.7m0-.6l-1 .6m0-42.2l1-.7m.6-1.3l-1.9 1"/><path class="st0" d="M206.2 191.8h1.3m2 3.2l-.3.7-.4.6m.7 45.2l-.3.7h-.7l-1-.4-.6-.9-.7-.7m0 0l-43.2-25m0 0h-1.6l-1-.7-.6-1.3v-1.3l.3-.6.3-.7m0 0v-42.2m0 0l-.3-1-.3-1v-.9l.3-.7h.6"/><path class="st2" d="M206.9 240.9l-1.6.9.9-1.6m3-44.5l-.4 1.6"/><path class="st0" d="M208.8 197.3v-1m-2.6-4.5l-.9-.7"/><path class="st2" d="M205.3 191.1l1.6.7m-46.5-23.4h-1.9l1.6-1m0 43.9l-1.6-.7h1.9m2.6 4.6l-1 1.6.4-1.6"/><path class="st0" d="M162 216.8l43.3 25m-46.8-31.2l-.7 1v1.3l.7 2 1.3 1.3 1.3.6h.9m-3.5-48.4v42.2m3.5-44.5l-.9-1.3-1.3-.6h-1.3l-.7.9v1.7l.7 1.6m46.8 22.7l-43.3-25m46.8 31.2l.7-1V195l-.7-1.9-1.3-1.3-1.3-.7h-.9m3.5 48.5v-42.3m-3.5 44.5l.9 1.3 1.3.7h1.3l.7-1v-1.6l-.7-1.6"/><path class="st0" d="M207.9 240.2v-46.5l-46.5-26.9v46.4l46.5 27m.9-47.1l-.9.6m.9 45.9l-.9.6M162 166.4l-.6.4"/><path class="st2" d="M340.5 118l-37.1 21.8M137.3 31.5l39-22.4m151.8 87.4l-39 22.8m3.6 1.9l37.4-21.4m-26.7 43.9l39-22.5m0 135.6l-39 22.7"/><path class="st0" d="M303.4 280.2l38.4-22.1M175 8.8l-38.7 22.4m199.6 84.2l4.6 2.6m-10.4-13l.3 2.3.6 2.6 1.3 2.2 2 2 1.6 1.3m-35.7 10.7l-1.3-1.3m4.5 7.5l-.6-1.6M176.3 9.1l151.8 87.4M112 34.8l15.2-9.1m171.7 99.1l-15.3 9.1m44.5-37.4l1 1 .6 1 .4 1.3m12.3 21.4v135.6m-54.6-115.4l15.6-9.1m0 158.6l-15.6 8.8M340.5 118l.9 1 .7.9.3 1.3m0 135.6l-.3.6-.3.7m-58.2-124.2l1.3 1.3 15.3-9.1m2.6 4.6l-15.3 8.7.3 2m0 158.3l-.3 1.3 15.3-9.1.6-1M127.2 25.7h-.9l-15.6 8.8 1.3.3m63-26h.7l.6.3m166.1 112.1v-.9m-1.9-2.3l.9.6m1 1.7l-.3-1-.7-.7"/><path class="st0" d="M336.9 116l-2.3-1.6-1.9-2.3-1.3-2.6-1-2.9-.3-2.6m0 1v-6.2m-2-2.3l.7.7m1.3 1.6l-.4-1-.9-.6"/><path class="st2" d="M335.9 115.4l-29.2 16.9m23.4-27.3l-29.3 16.9"/><path class="st0" d="M133.4 37.4l-1.6.6h-2l-1.6-.6-1.3-.7-.3-1.3.6-.9 1.3-1 2-.3 1.9.3 1.3.6 1 1v1.3l-1.3 1m151.5 87.4l-1.6.3-2 .4-1.9-.7-1.3-1-.4-.9.7-1 1.3-1 1.9-.3 2 .3 1.6.7.7.9v1.3l-1 1m8.4 159.9l.4-1.6.9-1.9 1.3-1.3 1.7-.7.9.3.7 1v1.6l-.7 2-.9 1.6-1.7 1h-1.3l-.9-.7-.4-1.3m0-134.9l.4-1.9.9-1.6 1.3-1.3 1.7-.7.9.3.7 1v1.6l-.7 2-.9 1.3-1.7 1.3h-1.3l-.9-.7-.4-1.3m-4.2-30.5l9.8 5.5m4.5 7.5v11.4m-176.2-118l10.1 5.8m166.1 248v11.4m-.6-160.2l-2.6-4.6m-16.6 7.8L112 34.8m175.8 264.9V141.4m-.3-2l-2.6-4.2m2.3 165.8h.3M110.7 34.5v.3"/><path class="st2" d="M130.8 25.4l1.3-.4 1.6.4 1.7 1.3 1.6 1.6 1.3 1.9"/><path class="st0" d="M130.8 25.4l-2.3 1.3m9.8 3.2l-.7-1.3-.6-1-1-.9-1-.7-1.3-.6-.9-.4h-1l-1 .4"/><path class="st2" d="M305 279.2l1 2.3.7 1.9v2l-.4 1.6-.9 1"/><path class="st0" d="M305.4 288l.6-.7.7-.6.3-1.3v-2.3l-.7-1.3-.3-1.3-.6-1.3m0 8.8l-2 1.3"/><path class="st2" d="M298.2 122.2l1.6-.3 1.7.3 1.6 1.3 1.6 1.6 1.3 2.3.7 2v2.2l-.4 1.7-.9.9"/><path class="st0" d="M305.4 134.2l.6-.6.7-.7.3-.9v-1.3l-.3-2.3-1-2.3-1.6-2.3-2-1.3-1-.6h-1.9l-1 .3m7.2 12l-2 1.3m-5.2-13.3l-1.9 1M329.7 80l-15.2 8.7m12.6-10l1-.4h1l1 .4.3.6-.7.7m-17.8 7.1l15.2-8.4m-4.8-3l-15 8.8m12.4-10.4l.9-.3 1.3.3.7.3.3.7-.6.6m-17.9 7.2l15.3-8.8m-4.6-2.6l-15.3 8.8m12.4-10.4l1-.3 1.3.3.9.3v.7l-.3.6m-17.9 7.2l15-8.8m-4.6-2.6l-15.2 8.8m12.3-10.4l1.3-.4 1 .4 1 .3v.6l-.4.7m-17.8 7.1l14.9-8.7m-4.5-2.6l-15 8.7m12.4-10.4l.9-.3 1.3.3.7.4.3.6-.6.7m-17.6 7.1l15-8.8m68.9 40l-27.3 15.9m24.7-17.5l.9-.3h1.3l.7.6.3.7-.6.6"/><path class="st0" d="M359.3 97.2l-22.1 12.7 4.6 2.6 22.1-12.7m-7.5-4.2l1.3-.4h1l.9.7v.6l-.3.7m-29.2 8.8l4.2 2.2 22.1-12.6m-4.6-2.6l-21.7 12.3m19.1-14l1-.3h1.3l.7.7.3.6-.7.7m-21.7 9.4l19.1-11.1m-4.8-2.6l-15 8.8m12.4-10.4l.9-.3h1.3l.7.6.3.7-.6.6m-17.6 7.2l15-8.8m-4.6-2.9L321.9 93m12.4-10.1l1.3-.3h1l.9.3v1l-.3.3m-17.9 7.1l15-8.4"/><path class="st2" d="M329.7 85.5V80m-7.4 1.3v-5.6m-7.2 1.3v-5.5m-14.9-3.2v-5.2"/><path class="st0" d="M366.5 237.3l-24.1 14"/><path class="st2" d="M366.5 237.3V101.4"/><path class="st0" d="M367.1 236.3v.3l-.6.7"/><path class="st2" d="M351.8 98.2V93m-7.4.9v-5.2m-7.2 1v-5.5m-29.6-11.4v-5.5m51.7 35.1v-5.2"/><path class="st0" d="M330.4 85.2v-5.9m-7.5 1.6v-5.8m-7.5 1.6v-5.8m-14.6-3v-5.8m66.3 174.2V100.4m-14.6-2.6V92m-7.5 1.6v-5.8m-7.5 1.6v-5.9m-29.2-11v-5.9m51.3 35.5v-5.9"/></g><g id="arrows"><path fill="none" stroke="#65a639" stroke-width="3" stroke-miterlimit="10" d="M127.2 153.7v130.7"/><path fill="#65a639" d="M122 282.8l5.2 9.1 5.3-9.1z"/><path fill="none" stroke="#3a6bc1" stroke-width="3" stroke-miterlimit="10" d="M127.6 153.9L23.2 214.2"/><path fill="#3a6bc1" d="M21.9 208.9l-5.2 9h10.5z"/><path fill="none" stroke="#f44" stroke-width="3" stroke-miterlimit="10" d="M127.2 154.6L16.6 90.7"/><path fill="#f44" d="M20.6 87H10.1l5.2 9z"/></g><path class="st9" d="M11.9 102.5h25.2V130H11.9z"/><text transform="translate(11.873 115.378)" class="st10 st11">x+</text><path class="st9" d="M12.4 188.8h20v18.8h-20z"/><text transform="translate(12.382 201.722)" class="st10 st11">z+</text><text transform="translate(103.306 280.338)" class="st10 st11">y+</text></svg>