<svg style="background-color:#fff" version="1.1" id="Layer_1" xmlns="http://www.w3.org/2000/svg" x="0" y="0" viewBox="0 0 550 140" xml:space="preserve"><style>.st2{font-family:Helvetica,Arial,sans-serif}.st3{font-size:11px}.st4{font-family:Helvetica,Arial,sans-serif;font-weight:700}.st5{font-size:14px}</style><g stroke="#1d1d1b" stroke-miterlimit="10"><path d="M4.5 23.8h474.7v34.8H4.5V23.8z" fill="#bde4f7"/><path d="M4.5 23.8h474.7v104.3H4.5V23.8zm0 34.7h474.7M4.5 93.3h474.7M61.9 23.8v104.3M96.7 23.8v104.3m34.7-104.3v104.3m34.8-104.3v104.3M201 23.8v104.3m34.8-104.3v104.3m34.8-104.3v104.3m34.7-104.3v104.3m34.8-104.3v104.3m34.8-104.3v104.3m34.8-104.3v104.3m34.8-104.3v104.3" fill="none"/></g><text transform="translate(65.377 44.45)" class="st2 st3">Bit 11</text><text transform="translate(99.823 44.45)" class="st2 st3">Bit 10</text><text transform="translate(138.462 44.45)" class="st2 st3">Bit 9</text><text transform="translate(173.219 44.45)" class="st2 st3">Bit 8</text><text transform="translate(206.975 44.45)" class="st2 st3">Bit 7</text><text transform="translate(242.06 44.45)" class="st2 st3">Bit 6</text><text transform="translate(276.802 44.45)" class="st2 st3">Bit 5</text><text transform="translate(311.652 44.45)" class="st2 st3">Bit 4</text><text transform="translate(346.898 44.45)" class="st2 st3">Bit 3</text><text transform="translate(381.154 44.45)" class="st2 st3">Bit 2</text><text transform="translate(416.121 44.45)" class="st2 st3">Bit 1</text><text transform="translate(450.878 44.45)" class="st2 st3">Bit 0</text><text transform="translate(17.83 78.922)" class="st2 st3">Binary</text><text transform="translate(14.153 114.314)" class="st2 st3">Decimal</text><text transform="translate(74.523 81.22)" class="st4 st5">1</text><text transform="translate(109.288 81.22)" class="st4 st5">0</text><text transform="translate(144.053 81.22)" class="st4 st5">1</text><text transform="translate(178.818 81.22)" class="st4 st5">1</text><text transform="translate(213.583 81.22)" class="st4 st5">0</text><text transform="translate(248.347 81.22)" class="st4 st5">0</text><text transform="translate(283.112 81.22)" class="st4 st5">0</text><text transform="translate(317.877 81.22)" class="st4 st5">1</text><text transform="translate(352.642 81.22)" class="st4 st5">0</text><text transform="translate(387.406 81.22)" class="st4 st5">1</text><text transform="translate(422.172 81.22)" class="st4 st5">1</text><text transform="translate(456.937 81.22)" class="st4 st5">1</text><text transform="translate(64.041 115.314)" class="st2" font-size="13.8" fill="#1a171b">2048</text><text transform="translate(109.374 115.314)" class="st2 st5">0</text><text transform="translate(136.277 115.314)" class="st2 st5">512</text><text transform="translate(171.042 115.314)" class="st2 st5">256</text><text transform="translate(213.668 115.314)" class="st2 st5">0</text><text transform="translate(248.433 115.314)" class="st2 st5">0</text><text transform="translate(283.197 115.314)" class="st2 st5">0</text><text transform="translate(314.032 115.314)" class="st2 st5">16</text><text transform="translate(352.727 115.314)" class="st2 st5">0</text><text transform="translate(387.492 115.314)" class="st2 st5">4</text><text transform="translate(422.257 115.314)" class="st2 st5">2</text><text transform="translate(457.022 115.314)" class="st2 st5">1</text><text transform="translate(67.47 16.274)" class="st4 st3">MSB</text><text transform="translate(451.924 16.274)" class="st4 st3">LSB</text><text transform="translate(484.778 109.175)"><tspan x="0" y="0" class="st2 st3">Original pixel</tspan><tspan x="0" y="13.2" class="st2 st3">value:</tspan></text><text transform="translate(516.078 122.375)" class="st4 st3">2839</text></svg>