<svg version="1.1" id="Ebene_1" xmlns="http://www.w3.org/2000/svg" x="0" y="0" viewBox="0 0 1380 842.8" style="background-color:#fff" xml:space="preserve"><style>.st2{fill:#1a1a18}.st3{font-family:Helvetica,Arial,sans-serif}.st4{font-size:32px}.st5{fill:#1d1d1b}.st10,.st13,.st6,.st8{fill:none;stroke-linecap:round;stroke-linejoin:round}.st6,.st8{stroke:#000}.st10,.st8{stroke-width:.75}.st10{stroke:#1a1a18}.st13{stroke:#000;stroke-width:1.38}</style><g id="lens_X10-5014-2M"><g id="lens_outline"><path d="M447.9 702.4l-7.5-7.8c-.3-.3-.7-.5-1.1-.5h-58.6v-9.2c0-.8-.7-1.5-1.5-1.5H374c-.8 0-1.5.7-1.5 1.5v8.9l-.4.3h-63l-.4-.3v-8.2c0-.8-.7-1.5-1.5-1.5h-3.1c-.8 0-1.5.7-1.5 1.5v8.4l-.2.2h-29.3l-1-.7c-.6-.5-1.5-.4-2 .1l-.6.6h-5.3l-4.3-4.3v-16c0-.8-.7-1.5-1.5-1.5h-34.3l-2.5-2.3V220.8l2.5-2.3h34.3c.8 0 1.5-.7 1.5-1.5v-16l4.3-4.3h5.3l.6.6c.5.6 1.4.6 2 .1l1-.7h29.3l.2.2v8.7c0 .8.7 1.5 1.5 1.5h3.1c.8 0 1.5-.7 1.5-1.5V197l.4-.3H372l.4.3v9c0 .8.7 1.5 1.5 1.5h5.2c.8 0 1.5-.7 1.5-1.5v-9.2h58.6c.4 0 .8-.2 1.1-.5l7.5-7.8h193.6l7.4 7.4v11.8c0 .8.7 1.5 1.5 1.5h28.8l1.2 1.2v16.3c0 .8.7 1.5 1.5 1.5h1c.8 0 1.5-.7 1.5-1.5v-13.5l5.7-5.7h42.3l5.7 5.7V263c0 .8.7 1.5 1.5 1.5h1.3l.3.4v46.8c0 .8.7 1.5 1.5 1.5h11.1c.8 0 1.5-.7 1.5-1.5v-3H779l5.7 5.7v262.1l-5.7 5.7h-23.8v-3c0-.8-.7-1.5-1.5-1.5h-11.1c-.8 0-1.5.7-1.5 1.5V626l-.3.4h-1.3c-.8 0-1.5.7-1.5 1.5v49.8l-5.7 5.7H690l-5.7-5.7v-13.5c0-.8-.7-1.5-1.5-1.5h-1c-.8 0-1.5.7-1.5 1.5v16.3l-1.2 1.2h-28.8c-.8 0-1.5.7-1.5 1.5V695l-7.4 7.4H447.9z" fill="#f2f2f2"/><path d="M640.9 190l6.5 6.5v11.2c0 1.7 1.3 3 3 3h28.1l.3.3v15.7c0 1.7 1.3 3 3 3h1c1.7 0 3-1.3 3-3v-12.9l4.8-4.8h41l4.8 4.8V263c0 1.7 1.3 3 3 3h.1v45.7c0 1.7 1.3 3 3 3h11.1c1.7 0 3-1.3 3-3v-1.5h21.7l4.8 4.8v260.8l-4.8 4.8h-21.6v-1.5c0-1.7-1.3-3-3-3h-11.1c-1.7 0-3 1.3-3 3v45.7h-.1c-1.7 0-3 1.3-3 3V677l-4.8 4.8h-41.1l-4.8-4.8v-12.9c0-1.7-1.3-3-3-3h-1c-1.7 0-3 1.3-3 3v15.7l-.3.3h-28.2c-1.7 0-3 1.3-3 3v11.2l-6.5 6.5H448.5l-7.1-7.4c-.6-.6-1.4-.9-2.2-.9h-57.1v-7.7c0-1.7-1.3-3-3-3H374c-1.7 0-3 1.3-3 3v7.7h-60.7v-7c0-1.7-1.3-3-3-3h-3.1c-1.7 0-3 1.3-3 3v7h-27.5l-.6-.4c-1.2-.9-2.9-.8-3.9.3l-.2.2h-4l-3.4-3.4v-15.3c0-1.7-1.3-3-3-3h-33.8l-1.6-1.5V221.5l1.6-1.4h33.8c1.7 0 3-1.3 3-3v-15.3l3.4-3.4h4.1l.2.2c1.1 1.1 2.7 1.2 3.9.3l.6-.4h27.5v7.4c0 1.7 1.3 3 3 3h3.1c1.7 0 3-1.3 3-3v-7.4H371v7.7c0 1.7 1.3 3 3 3h5.2c1.7 0 3-1.3 3-3v-7.7h57.1c.8 0 1.6-.3 2.2-.9l7-7.4h192.4m1.2-3.2H447.2l-8 8.3h-60.1V206H374v-9.7l-1.4-1h-64l-1.4 1v9.3h-3.1v-9.3l-1-1h-30.5l-1.4 1-1-1h-6.6l-5.2 5.2v16.6h-34.9l-3.5 3.1v450.5l3.5 3.1h34.9v16.6l5.2 5.2h6.6l1-1 1.4 1H303l1-1v-9h3.1v9l1.4 1h63.9l1.4-1V685h5.2v10.7h60.1l8 8.3H642l8.3-8.3v-12.5h29.4l2.1-2.1v-16.9h1v14.2l6.6 6.6H733l6.6-6.6V628h2.1l1-1.4v-47.3h11.1v4.5h25.9l6.6-6.6V313.8l-6.6-6.6h-25.9v4.5h-11.1v-47.3l-1-1.4h-2.1v-50.4L733 206h-43.6l-6.6 6.6v14.2h-1v-16.9l-2.1-2.1h-29.4v-12.4l-8.2-8.4z"/></g><path d="M779.6 583.7V307.3m6.6 269.8V313.8m-32.5 269.9V307.3m-12.1 320.6V263m1.1 363.5V264.4m-62.9-56.7v475.5m2-2.1V209.8m7.6 475.1V206m-6.5 472.3V212.6M733 684.9V206m6.5 472.3V212.6m-97.4 491.3V187m8.3 508.6V195.3M447.2 703.9V187m-7.9 508.6V195.3m-60.2 500.3V195.3m-70.4 500.3V195.3m-1.4 499.3V196.3m65.3 499.3V195.3m1.4 499.3V196.3M272.7 695.6V195.3m-1.4 499.3V196.3m31.8 499.3V195.3m1.1 499.3V196.3m-33.9 499.3V195.3m-6.6 500.3V195.3m-5.1 495.1V200.5m-38.4 470.3V220.2m566 356.9l-6.6 6.6m-25.9-276.4h25.9l6.6 6.5m-32.5 269.9h25.9m-36.9-272h11m-11 267.5h11m-11 47.3l-1.1 1.4M739.5 263h2.1l1.1 1.4m-3.2 363.5h2.1m-59.8 53.2l-2 2.1m2-473.4l-2-2.1h-29.4m0 475.5h29.4m9.6-477.2l-6.5 6.6m0 465.7l6.5 6.6m0-478.9H733m-43.6 478.9H733l6.5-6.6M733 206l6.5 6.6m-57.7 14.1h1.1m-1.1 437.5h1.1m-32.5 31.4l-8.3 8.3m8.3-508.6l-8.3-8.3H447.2m0 516.9h194.9M439.3 195.3l7.9-8.3m-7.9 508.6l7.9 8.3m-7.9-508.6h-60.2m0 500.3h60.2M379.1 206H374m0 478.9h5.1m-71.8-488.6l1.4-1m-1.4 499.3l1.4 1m63.9-500.3h-63.9m0 500.3h63.9l1.4-1m-1.4-499.3l1.4 1m-66.7 9.4h-3.1m0 479.9h3.1m-36-489.3l1.4-1m-1.4 499.3l1.4 1m0-500.3h30.4m-30.4 500.3h30.4l1.1-1m-1.1-499.3l1.1 1m-32.9 498.3l-1 1m1-499.3l-1-1h-6.6m0 500.3h6.6m-11.7-495.1l5.1-5.2m-5.1 495.1l5.1 5.2m-40-478.5l-3.5 3.1m0 450.6l3.5 3.1m0-456.8h34.9m-34.9 456.8h34.9m208-228.4h.3" fill="none" stroke="#000" stroke-width=".25" stroke-linecap="round" stroke-linejoin="round" id="lens_lines"/></g><g id="bemaßung"><g id="text"><text transform="rotate(-90 269.065 202.295)" class="st2 st3 st4">Ø</text><text transform="rotate(-90 256.62 189.85)" class="st5 st3 st4">46</text><text transform="translate(464.63 90.55)" class="st2 st3 st4">48</text><text transform="matrix(.93 0 0 1 793.65 90.55)" class="st2 st3 st4">17.526</text><text transform="matrix(.93 0 0 1 831.82 150.74)" class="st2 st3 st4">13.5</text><path class="st2" d="M1117.9 785.4v-22.9h2.9l11.2 18v-18h2.7v22.9h-2.9l-11.2-18v18h-2.7zm20.2-8.3c0-3.1.8-5.3 2.4-6.8 1.3-1.2 3.1-1.9 4.8-1.8 2-.1 3.9.8 5.2 2.2 1.4 1.7 2.1 3.9 2 6.2.1 1.7-.2 3.4-.9 5-.6 1.2-1.5 2.2-2.6 2.8-1.1.7-2.4 1-3.7 1-2 .1-3.9-.7-5.2-2.2-1.3-1.5-2-3.6-2-6.4zm2.7 0c-.1 1.7.3 3.4 1.3 4.8 1.4 1.8 4 2.1 5.8.7.3-.2.5-.5.7-.7 1-1.4 1.4-3.1 1.3-4.9.1-1.7-.3-3.3-1.3-4.7-1.4-1.8-4-2.1-5.8-.7-.3.2-.5.5-.7.7-1 1.4-1.4 3.1-1.3 4.8zm20.5 5.8l.4 2.5c-.7.2-1.3.2-2 .3-.8 0-1.5-.1-2.2-.5-.5-.3-.9-.7-1.1-1.3-.3-1.1-.4-2.2-.3-3.3V771h-1.9v-2.2h1.9v-4.1l2.6-1.7v5.8h2.6v2.2h-2.6v9.7c0 .5 0 1 .1 1.5.1.2.2.4.4.5.3.1.6.2.9.2.5.1.8 0 1.2 0zm16.6 0l.4 2.5c-.7.2-1.3.2-2 .3-.8 0-1.5-.1-2.2-.5-.5-.3-.9-.7-1.1-1.3-.3-1.1-.4-2.2-.3-3.3V771h-1.9v-2.2h1.9v-4.1l2.6-1.7v5.8h2.6v2.2h-2.6v9.7c0 .5 0 1 .1 1.5.1.2.2.4.4.5.3.1.6.2.9.2.4.1.8 0 1.2 0zm1.5-5.8c0-3.1.8-5.3 2.4-6.8 1.3-1.2 3.1-1.9 4.8-1.8 2-.1 3.9.8 5.2 2.2 1.4 1.7 2.1 3.9 2 6.2.1 1.7-.2 3.4-.9 5-.6 1.2-1.5 2.2-2.6 2.8-1.1.7-2.4 1-3.7 1-2 .1-3.9-.7-5.2-2.2-1.3-1.5-1.9-3.6-2-6.4zm2.7 0c-.1 1.7.3 3.4 1.3 4.8.8 1 2 1.6 3.3 1.6 1.3 0 2.5-.6 3.2-1.6 1-1.4 1.4-3.1 1.3-4.9.1-1.7-.3-3.3-1.3-4.7-.8-1-2-1.6-3.2-1.6-1.3 0-2.5.6-3.3 1.6-.9 1.4-1.4 3.1-1.3 4.8zm22.1 3.3l2.6-.4c.1 2 1.7 3.6 3.7 3.5h.3c1 .1 1.9-.2 2.7-.8.5-.5.9-1.1.9-1.8 0-.6-.3-1.2-.8-1.5-.8-.4-1.7-.8-2.7-1-1.4-.3-2.7-.8-4-1.3-.7-.3-1.3-.9-1.7-1.6-.4-.7-.6-1.4-.6-2.2 0-1.4.6-2.8 1.8-3.6.5-.4 1.1-.6 1.7-.8.7-.2 1.5-.3 2.3-.3 1.1 0 2.2.2 3.2.6.8.3 1.5.8 2 1.5.5.8.8 1.7.9 2.6l-2.6.4c-.1-.8-.4-1.5-1-2-.7-.5-1.5-.8-2.4-.7-.9-.1-1.8.1-2.6.6-.5.4-.8.9-.8 1.5 0 .4.1.7.3 1 .3.3.6.6 1 .8.3.1 1 .4 2.3.7 1.3.3 2.6.8 3.9 1.3.7.3 1.3.8 1.7 1.5.4.7.7 1.6.6 2.4 0 2-1.2 3.8-3 4.6-1 .5-2.1.7-3.3.7-1.6.1-3.3-.4-4.6-1.3-1-1.4-1.6-2.8-1.8-4.4zm26-1.1l2.6.4c-.2 1.7-.9 3.3-2.2 4.5-1.2 1.1-2.7 1.7-4.3 1.6-2 .1-3.8-.7-5.1-2.2-1.4-1.8-2.1-4.1-1.9-6.4 0-1.6.2-3.2.8-4.7.5-1.3 1.4-2.3 2.5-3 1.1-.7 2.4-1 3.7-1 1.5-.1 3 .4 4.1 1.4 1.1 1 1.8 2.4 2 3.9l-2.5.4c-.2-1-.6-1.8-1.3-2.5-.6-.6-1.4-.9-2.2-.8-1.3 0-2.4.5-3.2 1.5-.9 1.4-1.4 3.1-1.2 4.8 0 2.2.4 3.8 1.2 4.9.7 1 1.9 1.5 3.1 1.5 1 0 1.9-.3 2.6-1 .7-1 1.2-2.1 1.3-3.3zm14.9 4c-.8.8-1.8 1.4-2.8 1.9-.9.4-1.9.6-2.9.5-1.4.1-2.8-.4-3.9-1.3-.9-.9-1.4-2.1-1.4-3.4 0-.8.2-1.5.5-2.2.3-.6.8-1.2 1.3-1.6.6-.4 1.2-.7 1.9-.9.8-.2 1.5-.3 2.3-.4 1.6-.2 3.2-.5 4.7-1v-.7c.1-.9-.2-1.7-.7-2.4-.8-.7-1.9-1.1-3-1-1-.1-1.9.2-2.7.7-.7.7-1.2 1.5-1.3 2.5l-2.6-.4c.2-1 .6-2 1.2-2.9.6-.7 1.4-1.3 2.3-1.6 1.1-.4 2.3-.6 3.5-.6 1.1 0 2.2.1 3.2.5.7.2 1.3.7 1.8 1.3.4.6.7 1.2.8 1.9.1.9.2 1.7.1 2.6v3.8c0 1.7 0 3.3.2 5 .1.7.3 1.4.7 2h-2.7c-.3-.8-.5-1.5-.5-2.3zm-.2-6.2c-1.4.5-2.8.9-4.3 1.1-.8.1-1.5.3-2.3.6-.4.2-.8.5-1 .9-.2.4-.4.9-.4 1.3 0 .7.3 1.4.8 1.9.6.5 1.5.8 2.3.8.9 0 1.9-.2 2.7-.7.8-.5 1.4-1.2 1.7-2 .3-.9.5-1.9.4-2.8l.1-1.1zm6.6 8.3v-22.9h2.6v22.9h-2.6zm17.2-5.4l2.7.4c-.3 1.6-1.2 3-2.4 4-3 2.2-7.2 1.8-9.8-.8-1.4-1.8-2.1-4-2-6.3-.1-2.3.6-4.7 2-6.5 1.3-1.5 3.2-2.4 5.2-2.3 1.9-.1 3.8.8 5.1 2.3 1.4 1.8 2.1 4.1 2 6.4v.8H1260c0 1.5.5 3 1.4 4.2.8.9 2 1.5 3.2 1.5.9 0 1.8-.3 2.5-.8.8-.9 1.4-1.8 1.6-2.9zm-8.5-4.5h8.6c0-1.1-.4-2.2-1-3.1-.7-1-2-1.6-3.2-1.6-1.1 0-2.2.5-3 1.3-.9.9-1.4 2.1-1.4 3.4zm-142.3 48.3v-22.9h7.3c1.3 0 2.5.1 3.8.3 1.2.3 2.2.8 3.1 1.6 1.2 1.1 2 2.4 2.5 3.9.6 1.8.9 3.6.8 5.5 0 1.6-.2 3.1-.6 4.6-.3 1.2-.8 2.3-1.5 3.3-1 1.6-2.6 2.8-4.5 3.2-1.1.3-2.3.4-3.4.4l-7.5.1zm2.8-2.7h4.6c1.1 0 2.2-.1 3.3-.4.7-.2 1.4-.6 1.9-1.2.7-.8 1.3-1.8 1.6-2.9.4-1.4.6-2.9.6-4.4.1-1.9-.3-3.8-1.1-5.5-.6-1.1-1.5-2.1-2.7-2.6-1.2-.4-2.4-.5-3.6-.5h-4.5l-.1 17.5zm18.4-17v-3.2h2.6v3.2h-2.6zm0 19.7v-16.6h2.6v16.6h-2.6zm6.6 0v-16.6h2.3v2.3c.5-.8 1.1-1.5 1.9-2 .8-.5 1.8-.8 2.8-.7 1 0 2 .2 2.8.8.7.5 1.3 1.3 1.6 2.1.9-1.8 2.8-2.9 4.8-2.9 1.3-.1 2.6.4 3.5 1.4.9 1.2 1.4 2.7 1.2 4.2v11.4h-2.6v-10.5c0-.8 0-1.6-.3-2.4-.2-.5-.5-.9-.9-1.2-.5-.3-1-.5-1.6-.5-1 0-2 .4-2.7 1.2-.8 1.1-1.2 2.4-1.1 3.7v9.6h-2.6V813c.1-1-.2-2-.6-2.8-.5-.7-1.3-1-2.1-.9-.7 0-1.4.2-2 .6-.6.4-1.1 1.1-1.4 1.8-.3 1.1-.5 2.3-.4 3.5v8.6h-2.6zm35.3-5.3l2.7.4c-.3 1.6-1.2 3-2.4 4-1.3 1-2.8 1.5-4.4 1.4-2 .1-4-.7-5.4-2.2-1.4-1.8-2.1-4-2-6.3-.1-2.3.6-4.6 2-6.5 1.3-1.5 3.2-2.4 5.2-2.3 1.9-.1 3.8.8 5.1 2.3 1.4 1.8 2.1 4.1 2 6.4v.8h-11.5c0 1.5.5 3 1.4 4.2.8.9 2 1.5 3.2 1.5.9 0 1.8-.3 2.4-.8.9-1 1.4-1.9 1.7-2.9zm-8.6-4.6h8.6c0-1.1-.4-2.2-1-3.2-.8-1-2-1.6-3.2-1.6-1.1 0-2.2.5-3 1.3-.9 1-1.3 2.2-1.4 3.5zm14.6 9.9v-16.6h2.4v2.4c1-1.8 2.9-2.8 4.9-2.7.9 0 1.8.2 2.6.5.7.3 1.3.8 1.8 1.4.4.6.7 1.3.8 2.1.1.9.2 1.8.1 2.7v10.2h-2.5v-10.1c0-.9-.1-1.7-.3-2.6-.2-.6-.6-1-1.1-1.4-.5-.3-1.2-.5-1.8-.5-1.1 0-2.1.4-2.9 1.2-.8.8-1.2 2.2-1.2 4.3v9.1h-2.8zm15.5-5l2.6-.4c.1 2 1.8 3.5 3.7 3.5h.3c1 .1 1.9-.2 2.7-.8.5-.5.9-1.1.9-1.8 0-.6-.3-1.2-.8-1.5-.8-.4-1.7-.8-2.7-1-1.4-.3-2.7-.8-4-1.3-.7-.3-1.3-.9-1.7-1.6-.4-.7-.6-1.4-.6-2.2 0-1.4.6-2.8 1.8-3.6.5-.4 1.1-.6 1.7-.8.7-.2 1.5-.3 2.3-.3 1.1 0 2.2.2 3.2.6.8.3 1.5.8 2 1.5.5.8.8 1.7.9 2.6l-2.6.4c-.1-.8-.4-1.5-1-2-.7-.5-1.5-.8-2.4-.7-.9-.1-1.8.1-2.6.6-.5.4-.8.9-.8 1.5 0 .4.1.7.3 1 .3.3.6.6 1 .8.3.1 1 .3 2.3.7 1.3.3 2.6.8 3.9 1.3.7.3 1.3.8 1.7 1.5.4.7.7 1.6.6 2.4 0 2-1.2 3.8-3 4.6-1 .5-2.1.7-3.3.7-1.6.1-3.3-.4-4.6-1.3-.9-1.5-1.6-2.9-1.8-4.4zm16-14.7v-3.2h2.6v3.2h-2.6zm0 19.7v-16.6h2.6v16.6h-2.6zm5.6-8.3c0-3.1.8-5.4 2.4-6.8 1.3-1.2 3.1-1.9 4.8-1.8 2-.1 3.9.8 5.2 2.2 1.4 1.7 2.1 3.9 2 6.2.1 1.7-.2 3.4-.9 5-.6 1.2-1.5 2.2-2.6 2.9-1.1.7-2.4 1-3.7 1-2 .1-3.9-.7-5.2-2.2-1.3-1.6-2-3.7-2-6.5zm2.7 0c-.1 1.7.3 3.4 1.3 4.8 1.4 1.8 4 2.1 5.8.7.3-.2.5-.5.7-.7 1-1.4 1.4-3.1 1.3-4.8.1-1.7-.3-3.3-1.3-4.7-1.4-1.8-4-2.1-5.8-.7-.3.2-.5.4-.7.7-1 1.3-1.4 3-1.3 4.7zm14.8 8.3v-16.6h2.4v2.4c1-1.7 2.9-2.8 4.9-2.7.9 0 1.8.2 2.6.5.7.3 1.3.8 1.8 1.4.4.6.7 1.3.8 2.1.1.9.2 1.8.2 2.7v10.2h-2.6v-10.1c0-.9-.1-1.7-.3-2.6-.2-.6-.6-1-1.1-1.4-.5-.3-1.2-.5-1.8-.5-1.1 0-2.1.4-2.9 1.2-.8.8-1.2 2.2-1.2 4.3v9.1h-2.8zm15.5-5l2.6-.4c.1 2 1.8 3.5 3.7 3.5h.3c1 .1 1.9-.2 2.7-.8.5-.5.9-1.1.9-1.8 0-.6-.3-1.2-.8-1.5-.8-.4-1.7-.8-2.7-1-1.4-.3-2.7-.8-4-1.3-.7-.3-1.3-.9-1.7-1.6-.4-.7-.6-1.4-.6-2.2 0-1.4.6-2.8 1.8-3.6.5-.4 1.1-.6 1.7-.8.7-.2 1.5-.3 2.3-.3 1.1 0 2.2.2 3.2.6.8.3 1.5.8 2 1.5.5.8.8 1.7.9 2.6l-2.6.4c-.1-.8-.4-1.5-1-2-.7-.5-1.5-.8-2.4-.7-.9-.1-1.8.1-2.6.6-.5.4-.8.9-.8 1.5 0 .4.1.7.3 1 .3.3.6.6 1 .8.3.1 1 .3 2.3.7 1.3.3 2.6.8 3.9 1.3.7.3 1.3.8 1.7 1.5.4.7.6 1.6.6 2.4 0 .9-.3 1.9-.8 2.7-.5.8-1.3 1.5-2.2 1.9-1 .5-2.1.7-3.3.7-1.6.1-3.3-.4-4.6-1.3-.9-1.4-1.6-2.8-1.8-4.4zm24.2-14.7v-3.2h2.7v3.2h-2.7zm0 19.7v-16.6h2.7v16.6h-2.7zm6.6 0v-16.6h2.3v2.4c1-1.8 2.9-2.8 4.9-2.7.9 0 1.8.2 2.6.5.7.3 1.3.8 1.8 1.4.4.6.7 1.3.8 2.1.1.9.2 1.8.1 2.7v10.2h-2.6v-10.1c0-.9-.1-1.7-.3-2.6-.2-.6-.6-1-1.1-1.4-.5-.3-1.2-.5-1.8-.5-1.1 0-2.1.4-2.9 1.2-.8.8-1.2 2.2-1.2 4.3v9.1h-2.6zm24.9 0v-16.6h2.3v2.3c.5-.8 1.1-1.5 1.9-2 .8-.5 1.8-.8 2.8-.7 1 0 2 .2 2.8.8.7.5 1.3 1.3 1.6 2.1.9-1.8 2.8-2.9 4.8-2.9 1.3-.1 2.6.4 3.5 1.4.9 1.2 1.4 2.7 1.2 4.2v11.4h-2.6v-10.5c0-.8-.1-1.6-.3-2.4-.2-.5-.5-.9-.9-1.2-.5-.3-1-.5-1.6-.5-1 0-2 .4-2.7 1.2-.8 1.1-1.2 2.4-1.1 3.7v9.6h-2.6V813c.1-1-.2-2-.6-2.8-.5-.7-1.3-1-2.1-.9-.7 0-1.4.2-2 .6-.6.4-1.1 1.1-1.3 1.8-.3 1.1-.5 2.3-.4 3.5v8.6h-2.7zm24.7 0v-16.6h2.3v2.3c.5-.8 1.1-1.5 1.9-2 .8-.5 1.8-.8 2.8-.7 1 0 2 .2 2.8.8.7.5 1.3 1.3 1.6 2.1.9-1.8 2.8-2.9 4.8-2.9 1.3-.1 2.6.4 3.5 1.4.9 1.2 1.4 2.7 1.2 4.2v11.4h-2.6v-10.5c0-.8-.1-1.6-.3-2.4-.2-.5-.5-.9-.9-1.2-.5-.3-1-.5-1.6-.5-1 0-2 .4-2.7 1.2-.8 1.1-1.2 2.4-1.1 3.7v9.6h-2.6V813c.1-1-.2-2-.6-2.8-.5-.7-1.3-1-2.1-.9-.7 0-1.4.2-2 .6-.6.4-1.1 1.1-1.4 1.8-.3 1.1-.5 2.3-.4 3.5v8.6h-2.6z"/><text transform="matrix(.93 0 0 1 1114.62 197.02)" class="st2 st3 st4">Sensor Position</text><text transform="matrix(.93 0 0 1 757.67 172.86)" class="st2 st3 st4">4</text><text transform="rotate(-90 300.645 170.715)" class="st2 st3 st4">Ø</text><text transform="rotate(-90 288.2 158.27)" class="st5 st3 st4">42</text><text transform="rotate(-90 350.565 161.705)" class="st2 st3 st4">M40.5x 0.5</text><text transform="rotate(-90 727.93 -256.57)" class="st2 st3 st4">Ø</text><text transform="rotate(-90 715.485 -269.015)" class="st5 st3 st4">44</text><path class="st2" d="M844.8 518.5v2.8h-17.9c.7.8 1.4 1.7 1.9 2.7.6 1 1.1 2 1.5 3h-2.7c-.7-1.5-1.6-2.9-2.7-4.1-.9-1-1.9-1.9-3.1-2.5v-1.8l23-.1zM830 506.2l-4.3-.2-3.8-.8V502l3.8.8 4.3 1.6v1.8zm0 4.4l-4.3-.2-3.8-.8v-3.2l3.8.8 4.3 1.6v1.8zm7.9-10.4h-2.8v-8.6h2.8v8.6zm.9-10.9l-.4-2.8c1.3-.2 2.5-.8 3.5-1.6.7-.8 1-1.8 1-2.8 0-1.3-.5-2.5-1.4-3.4-.9-.9-2.1-1.4-3.4-1.4-1.2 0-2.3.4-3.2 1.3-.8.9-1.3 2-1.3 3.2 0 .7.1 1.3.3 2l-2.5-.3v-.5c0-1.1-.3-2.3-.9-3.2-.6-1-1.7-1.5-2.9-1.4-1 0-1.9.4-2.6 1-.7.7-1 1.7-1 2.7 0 1 .3 2 1 2.7.8.8 1.9 1.3 3.1 1.4l-.5 2.8c-1.7-.2-3.2-1.1-4.4-2.4-1.1-1.3-1.6-2.9-1.6-4.5 0-1.2.3-2.4.8-3.5.5-1 1.2-1.8 2.2-2.4.9-.6 1.9-.8 3-.8 1 0 1.9.3 2.7.8.9.6 1.5 1.4 1.9 2.4.2-1.3.9-2.4 1.9-3.2 1.1-.8 2.4-1.2 3.7-1.1 1.9 0 3.8.8 5.1 2.2 1.4 1.5 2.2 3.5 2.1 5.5.1 1.8-.6 3.6-1.8 5-1 1.3-2.7 2.1-4.4 2.3zm3.3-32.6h2.7v15.1c-.7 0-1.3-.1-2-.3-1.1-.4-2.1-1.1-3-1.9-1.3-1.1-2.4-2.4-3.5-3.7-1.4-1.9-3.1-3.6-4.9-5-1-.8-2.1-1.2-3.4-1.3-1.1 0-2.1.4-2.8 1.2-1.6 1.8-1.5 4.6.1 6.4.9.9 2.1 1.3 3.4 1.2l-.3 2.9c-1.9-.1-3.6-.9-4.9-2.2-1.2-1.5-1.8-3.3-1.7-5.2-.1-1.9.6-3.8 1.8-5.2 1.2-1.3 2.8-2 4.5-1.9.9 0 1.9.2 2.7.6 1 .5 2 1.1 2.8 1.9 1.4 1.4 2.8 2.8 4 4.3 1.4 1.7 2.4 2.8 2.9 3.3s1 .8 1.5 1.2l.1-11.4zm-20.2-28.1v-3h13.2c1.9-.1 3.7.2 5.5.8 1.4.5 2.5 1.5 3.3 2.8.9 1.6 1.4 3.5 1.3 5.4.1 1.8-.3 3.6-1.1 5.3-.7 1.3-1.8 2.4-3.2 2.9-1.8.7-3.8.9-5.8.9h-13.2v-3h13.2c1.5.1 3-.1 4.4-.5.9-.4 1.7-1 2.2-1.9.5-1 .8-2.2.8-3.3 0-2.2-.5-3.8-1.5-4.8s-3-1.4-5.8-1.4l-13.3-.2zm22.9-8h-22.9v-3.1l18-12h-18v-2.9h22.9v3.1l-18 12h18v2.9zm-6.9-21.7h-2.8v-8.6h2.8v8.6zm4.2-25.8h2.7v15.1c-.7 0-1.3-.1-2-.3-1.1-.4-2.1-1.1-3-1.9-1.3-1.1-2.4-2.3-3.5-3.7-1.4-1.9-3.1-3.6-4.9-5-1-.8-2.1-1.2-3.4-1.3-1.1 0-2.1.4-2.8 1.2-.8.8-1.2 2-1.2 3.1-.1 1.2.4 2.4 1.2 3.3.9.8 2.1 1.3 3.4 1.2l-.3 2.9c-1.9-.1-3.6-.9-4.9-2.2-1.2-1.5-1.8-3.3-1.7-5.2-.1-1.9.6-3.8 1.8-5.2 1.2-1.3 2.8-2 4.5-1.9.9 0 1.9.2 2.7.6 1 .5 2 1.1 2.8 1.9 1.4 1.4 2.8 2.8 4 4.3 1.4 1.7 2.4 2.8 2.9 3.3s1 .8 1.5 1.2l.2-11.4zm2.7-1.6l-22.9-8.8v-3.3l22.9-9.4v3.5l-6.9 2.7v9.6l6.9 2.5v3.2zm-9.4-6.6v-7.8l-6.3 2.4c-1.9.7-3.5 1.3-4.8 1.6 1.5.3 3 .7 4.4 1.2l6.7 2.6zm54.5 140.7c-2.1 1.6-4.4 3-6.9 3.9-2.6 1.1-5.4 1.6-8.2 1.6-2.4 0-4.8-.4-7.1-1.2-2.8-1-5.5-2.5-7.9-4.3v-2c1.5.9 3.1 1.7 4.6 2.5 1.4.6 3 1.1 4.5 1.5 1.9.4 3.9.7 5.9.7 5.3-.1 10.5-1.7 15-4.7l.1 2zm-14.7-21.9l.8-3c2.2.5 4.2 1.7 5.7 3.4 1.3 1.7 2.1 3.9 2 6.1.1 2.1-.4 4.2-1.5 6-1.1 1.6-2.6 2.8-4.4 3.5-1.9.8-4 1.2-6.1 1.2-2.2.1-4.3-.4-6.2-1.4-1.7-.9-3.1-2.2-4-3.9-.9-1.7-1.4-3.6-1.4-5.6-.1-2.1.5-4.1 1.8-5.8 1.2-1.6 3-2.8 4.9-3.3l.7 3c-1.4.4-2.7 1.2-3.6 2.3-.8 1.1-1.2 2.4-1.1 3.8-.1 1.6.4 3.1 1.3 4.4.8 1.2 2 2.1 3.4 2.5 1.4.5 2.9.7 4.4.7 1.7 0 3.5-.3 5.1-.9 1.4-.5 2.5-1.4 3.3-2.6.7-1.2 1.1-2.5 1.1-3.9 0-1.6-.5-3.1-1.5-4.3-1.5-1.1-3-2-4.7-2.2zm1.1-5.4h-2.8v-8.6h2.8v8.6zm6.9-12h-22.9v-4.6l16.2-5.4c1.5-.5 2.6-.9 3.4-1.1-.8-.3-2.1-.7-3.7-1.2l-15.9-5.5v-4.1h22.9v2.9H864l19.2 6.7v2.7l-19.5 6.6h19.5v3zm-8.3-25.3c-3.1 0-5.3-.9-6.8-2.6-1.2-1.5-1.9-3.3-1.8-5.2-.1-2.1.7-4.1 2.2-5.6 1.7-1.5 3.9-2.3 6.2-2.2 1.7-.1 3.4.3 5 1 1.2.6 2.2 1.6 2.8 2.8.7 1.2 1 2.6 1 4 .1 2.1-.7 4.2-2.2 5.6-1.4 1.5-3.6 2.2-6.4 2.2zm0-2.9c1.7.1 3.4-.4 4.8-1.4 1.9-1.7 2.1-4.6.5-6.5-.1-.2-.3-.3-.5-.5-1.4-1-3.1-1.5-4.9-1.4-1.7-.1-3.3.4-4.7 1.4-1.9 1.7-2.1 4.6-.5 6.5.1.2.3.3.5.5 1.4 1 3.1 1.5 4.8 1.4zm8.3-26.8h-2.4c1.8 1.1 2.9 3.1 2.8 5.3 0 .9-.2 1.9-.6 2.7-.3.7-.8 1.4-1.4 1.9-.6.4-1.3.7-2.1.9-.9.1-1.7.2-2.6.2h-10.3v-2.8h9.2c1 0 2 0 3-.2.7-.2 1.3-.6 1.8-1.1.4-.6.7-1.4.6-2.1 0-.8-.2-1.7-.7-2.4-.4-.7-1-1.3-1.8-1.6-1-.4-2.1-.5-3.2-.5h-8.9v-2.8h16.6v2.5zm0-7h-16.6v-2.5h2.4c-1.8-1.2-2.8-3.2-2.7-5.3 0-.9.2-1.9.5-2.8.3-.7.8-1.4 1.4-1.9.6-.4 1.3-.7 2.1-.9.9-.1 1.8-.2 2.7-.1h10.2v2.8h-10.1c-.9 0-1.7.1-2.6.3-.6.2-1 .6-1.4 1.2-.4.6-.5 1.3-.5 2 0 1.1.4 2.3 1.1 3.1.8.9 2.2 1.3 4.3 1.3h9.1l.1 2.8zm-2.5-23.9l2.5-.4c.2.7.2 1.4.3 2.1 0 .8-.1 1.6-.5 2.4-.3.5-.7.9-1.3 1.2-1.1.3-2.2.4-3.3.3h-9.5v2.1h-2.2V386h-4.1l-1.7-2.8h5.8v-2.8h2.2v2.8h9.7c.5 0 1 0 1.5-.1.2-.1.4-.3.5-.5.2-.3.2-.7.2-1 0-.4 0-.8-.1-1.2zm9.2-4.6v2c-4.5-2.9-9.7-4.6-15-4.7-2 0-3.9.2-5.8.7-1.5.3-3.1.8-4.5 1.5-.9.4-2.5 1.3-4.7 2.5v-2c2.4-1.8 5-3.3 7.9-4.3 5-1.7 10.4-1.6 15.3.4 2.4 1 4.7 2.3 6.8 3.9z"/><text transform="rotate(-90 761.635 -276.935)" class="st2 st3 st4">Ø</text><text transform="rotate(-90 749.19 -289.38)" class="st5 st3 st4">47.5</text><path class="st2" d="M934.3 339.3h6.7v210.6h-6.7z"/></g><g id="arrows"><path class="st6" d="M86.6 222.4v444.9"/><path d="M77.8 228.3l8.8-32.5 8.7 32.5zm0 433.1l8.8 32.5 8.7-32.5z"/><path class="st6" d="M149.7 243.3v402.4"/><path d="M141 249.3l8.7-32.6 8.7 32.6zm0 390.5l8.7 32.5 8.7-32.5z"/><path class="st6" d="M199.8 253.3v384.3"/><path d="M191.1 259.3l8.7-32.6 8.7 32.6zm0 372.4l8.7 32.5 8.7-32.5z"/><path class="st6" d="M893.8 333.9v223.5"/><path d="M885.1 339.8l8.7-32.5 8.7 32.5zm0 211.7l8.7 32.5 8.7-32.5z"/><path class="st6" d="M1046.3 213.3V677"/><path d="M1037.6 219.2l8.7-32.5 8.8 32.5zm0 451.9l8.7 32.5 8.8-32.5z"/><path class="st6" d="M248.8 101.7h467.3"/><path d="M254.7 110.4l-32.5-8.7 32.5-8.7zm455.4 0l32.6-8.7-32.6-8.7z"/><path class="st6" d="M650.4 163.2h65.7"/><path d="M710.1 171.9l32.6-8.7-32.6-8.7z"/><path class="st6" d="M769.2 101.7h139.6"/><path d="M775.2 110.4l-32.5-8.7 32.5-8.7zm127.7 0l32.5-8.7-32.5-8.7z"/><path class="st6" d="M812.8 165.6h96"/><path d="M818.7 174.3l-32.5-8.7 32.5-8.7zm84.2 0l32.5-8.7-32.5-8.7z"/></g><g id="lines"><path d="M221.6 224.7h-55.4m55.4 440.9h-55.4" stroke-width=".83" fill="none" stroke="#000" stroke-linecap="round" stroke-linejoin="round"/><path class="st8" d="M225.7 673.9H121m104.7-457.2H121m144.7 479H69.8M274.7 195H69.8m152.4 24.9V81.6m520.5 182.5V81.6m192.7 363.5V81.6M735 684.6h267.4M733 205.7h269.4"/><path d="M767.1 307.6h150.5M767.1 583.1h150.5" stroke-width=".56" fill="none" stroke="#000" stroke-linecap="round" stroke-linejoin="round"/><path class="st8" d="M644.1 703.6h413.6M644.1 186.7h413.6M785.2 351V134.5m150.2 310.6V134.5"/><g id="center_line"><path class="st10" d="M798.7 445.5h-10"/><path fill="none" stroke="#1a1a18" stroke-width=".75" stroke-linecap="round" stroke-linejoin="round" stroke-dasharray="2.04,5.1" d="M783.6 445.5H779"/><path fill="none" stroke="#1a1a18" stroke-width=".75" stroke-linecap="round" stroke-linejoin="round" stroke-dasharray="20.4,5.1,2.04,5.1" d="M776.4 445.5H224.1"/><path class="st10" d="M221.5 445.5h-10"/></g></g><path class="st13" d="M1046.7 200.5v-13.8"/><path d="M1049.4 200.5l-2.8-13.8z"/><path class="st13" d="M1049.4 200.5l-2.8-13.8z"/><path d="M1049.4 200.5l-2.8-13.8-2.7 13.8z"/><path class="st13" d="M1049.4 200.5l-2.8-13.8-2.7 13.8z"/><path class="st13" d="M1049.4 200.5l-2.8-13.8-2.7 13.8h5.5m-2.7 0v489.6"/><path d="M939.9 432l-4.5 13.1z"/><path class="st13" d="M939.9 432l-4.5 13.1z"/><path class="st6" d="M993.3 232.2v424.4"/><path d="M984.6 238.2l8.7-32.5 8.7 32.5zm0 412.5l8.7 32.5 8.7-32.5z"/><path class="st6" d="M949.1 422.9l144.8-235.5h10.9"/><path d="M959.6 422.4l-24.5 23.1 9.7-32.3z"/></g></svg>