<svg style="background-color:#fff" version="1.1" id="Ebene_1" xmlns="http://www.w3.org/2000/svg" x="0" y="0" viewBox="0 0 794.3 317.6" xml:space="preserve"><style>.st0,.st1{fill:none;stroke:#000}.st0{stroke-linecap:round;stroke-linejoin:round;stroke-miterlimit:10;stroke-width:.4252}.st1{stroke-width:.2835}.st1,.st8{stroke-miterlimit:10}.st8,.st9{fill:none;stroke:#000;stroke-width:.2835;stroke-linecap:round;stroke-linejoin:round}.st11{fill:#020203}.st12{font-family:Helvetica,Arial,sans-serif}.st13{font-size:18px}.st14{font-size:12px}.st15{font-size:11.9906px}</style><g id="lens"><path class="st0" d="M630.6 241.8c-.1.1-.2.2-.4.3m11.1.5l.3-.3M630.3 52c.1.1.2.2.4.3m11 4.7c-49.7 0-90 40.3-90 90s40.3 90 90 90"/><path class="st0" d="M641.7 55.8c-50.4 0-91.2 40.8-91.2 91.2s40.8 91.2 91.2 91.2m-21 1c3 .7 6.1 1.2 9.1 1.6m-29.8-8.9c2.8 1.4 5.6 2.6 8.5 3.7M581.6 220c2.4 2 4.9 3.8 7.4 5.5m-22.7-21.4c1.9 2.5 3.9 4.8 6 7.1m-17.1-26c1.2 2.8 2.6 5.6 4.2 8.3m-10.7-29.3c.6 3 1.3 6 2.1 9m-3.6-30.9c-.2 3.1-.2 6.2 0 9.3m3.6-30.9c-.9 3-1.6 6-2.1 9m10.7-29.3c-1.5 2.7-2.9 5.5-4.2 8.3m17.1-26c-2.1 2.3-4.1 4.6-6 7.1M589 68.4c-2.6 1.7-5 3.6-7.4 5.5m26.9-15.5c-2.9 1.1-5.7 2.3-8.5 3.7m29.9-9c-3.1.4-6.1.9-9.1 1.6m2.9 183.9l3.6.6M603 232c1.1.5 2.2 1 3.3 1.4m-21.8-12.7c1 .7 1.9 1.5 2.9 2.2M569 205.6c.8.9 1.5 1.9 2.3 2.8m-13.8-21.2c.5 1.1 1.1 2.2 1.6 3.2m-8.7-23.7c.3 1.2.5 2.4.8 3.5m-2.8-25v3.6m2.9-25.1c-.3 1.2-.6 2.3-.8 3.5m8.6-23.7c-.6 1.1-1.1 2.1-1.6 3.2m13.9-21.1c-.8.9-1.6 1.8-2.3 2.8M587.4 71c-1 .7-1.9 1.4-2.9 2.2m21.9-12.7c-1.1.5-2.2.9-3.3 1.4m24.2-7.2l-3.6.6m17.9-3.6l-.3-.4m-11 .7c-3.5.4-6.9 1-10.3 1.8m-11.3 3.3c.1.1.3.1.4.2m10.5-3.1c.1-.1.2-.3.2-.4m-11.1 3.4c-3.3 1.2-6.5 2.6-9.6 4.1m-10.3 5.8c.2 0 .3.1.5.1m9.5-5.5c.1-.1.1-.3.1-.4m-10 5.9c-2.9 1.9-5.7 4-8.4 6.2m-8.7 8.2h.5m8-7.6v-.5m-8.4 8.1c-2.4 2.5-4.6 5.2-6.7 8m-6.6 9.8c.2 0 .3-.1.5-.1m6-9.2c0-.2 0-.3-.1-.5m-6.3 9.8c-1.7 3-3.3 6.2-4.7 9.4m-4.2 11c.1-.1.3-.1.4-.2m3.8-10.3c-.1-.1-.1-.3-.2-.4m-3.8 10.9c-1 3.3-1.8 6.7-2.4 10.2m-1.5 11.7c.1-.1.2-.2.4-.3m1.2-10.9c-.1-.1-.2-.3-.3-.4m-1.2 11.6c-.2 3.5-.2 7 0 10.5m1.2 11.7c.1-.1.2-.2.3-.4m-1.3-10.9l-.3-.3m1.4 11.6c.6 3.4 1.4 6.8 2.4 10.2m3.9 11.1c.1-.1.1-.3.2-.4m-3.8-10.4c-.1-.1-.3-.1-.4-.2m4.2 10.9c1.4 3.2 3 6.3 4.7 9.4m6.4 9.9c0-.2.1-.3.1-.5m-6.1-9.1c-.1 0-.3-.1-.4-.1m6.5 9.6c2.1 2.8 4.3 5.5 6.7 8m8.4 8.2v-.5m-8-7.5h-.5m8.6 7.9c2.7 2.2 5.5 4.3 8.4 6.3m10.1 5.9c0-.1-.1-.3-.1-.4m-9.6-5.5c-.2 0-.3.1-.5.1m10.3 5.8c3.1 1.6 6.3 2.9 9.6 4.1m11.3 3.5c-.1-.1-.2-.3-.2-.4m-10.6-3.2c-.1.1-.3.1-.4.2m11.2 3.3c3.4.8 6.8 1.4 10.3 1.8m11.2-190.6c-3.5 0-7 .2-10.4.6"/><path class="st0" d="M630.8 52l-.7.9-1.2 1-1.5.8-.9.4-.9.1-1.1.2h-1.1l-1.6-.3-1.4-.5-1.1-.6m0 0c-3.4.8-6.7 1.8-10 3m-.1 0l-.5 1.1-.8 1.2-1.4 1.2-.8.5-.9.4-1 .5-.9.2h-1.8l-1.5-.1-1.2-.3m.1-.1c-3.1 1.6-6.1 3.3-9.1 5.2m0 0l-.3 1.3-.5 1.3-1.1 1.5-.7.7-.8.6-.8.7-1 .4-1.6.6-1.5.1-1.2-.1m.1 0c-2.7 2.3-5.2 4.7-7.6 7.2m0 .1v1.2l-.3 1.3-.7 1.8-.4.8-.7.8-.6.8-.8.7-1.5.8-1.4.5-1.3.2m.1 0c-2.1 2.8-4 5.7-5.8 8.7m0 0l.3 1.3.1 1.4-.3 1.8-.2.9-.4 1-.6.9-.5.8-1.4 1.3-1.2.8-1.1.4m0 0c-1.4 3.2-2.6 6.5-3.6 9.8m0 0l.5 1.1.4 1.5.3 1.7v1l-.3 1.1-.2.9-.4 1-1 1.4-1.1 1-.9.8m0 0c-.6 3.4-1 6.9-1.2 10.4m0 0l.8.9.7 1.3.6 1.7.2 1 .1 1-.1 1.1-.2 1-.6 1.6-.7 1.2-.8.9m0 .1c.2 3.5.6 7 1.2 10.4m0-.1l.9.8 1.1 1.1 1 1.5.4.8.2 1.1.3 1.1v.9l-.3 1.8-.4 1.3-.5 1.1m0 0c1 3.3 2.2 6.6 3.6 9.8m0 .1l1.1.5 1.2.8 1.4 1.2.5.7.6 1 .4 1 .2 1 .3 1.6-.1 1.5-.3 1.2m0 0c1.8 3 3.7 5.9 5.8 8.7m-.1.1l1.3.2 1.4.4 1.5 1 .8.5.6.8.7.9.4.9.7 1.6.1 1.5.2 1.2m-.1-.1c2.4 2.5 4.9 4.9 7.6 7.2m0 .1h1.2l1.5.1 1.6.4 1 .6.8.5.8.7.7.6 1.1 1.5.5 1.4.3 1.2m0 0c2.9 1.9 5.9 3.7 9.1 5.2m-.1.1l1.2-.4 1.5-.2 1.8.2.9.1 1 .4.9.5.8.6 1.4 1.2.8 1.1.5 1m.1.1c3.3 1.2 6.6 2.2 10 3m0 .1l1.1-.7 1.4-.6 1.6-.2h1.1l1.1.1.9.3.9.2 1.5 1 1.1.9.8 1m.1-.1c3.5.4 7 .6 10.4.6M547 147v-3.2m94.7-60.3c-35.1 0-63.5 28.4-63.5 63.5s28.4 63.5 63.5 63.5M547 150.1V147m8.4 39c.1.3.2.5.4.8m3.5-86.5c0 .1-.1.1-.1.2m-.1 0l-.1.2m8.4 105c.2.3.5.6.7.9m-1.9-2.5l1.2 1.5m-8.5-12.6c.1.2.3.5.4.7m-.8-1.6l.4.8m-2.1-4c.5 1.1 1.1 2.2 1.7 3.2m-2.2-4l.4.8m-.9-2c.2.4.4.8.5 1.1m-1.3-2.8c.1.3.3.6.4.9m-.3-77.4s-.1 0 0 0m.6-1.5c-.2.4-.4.8-.5 1.2m1-2l-.4.8m2-4.1c-.6 1.1-1.1 2.2-1.6 3.2m2-4.1l-.4 1m1-2.1c-.2.4-.4.7-.6 1.1m-8 69.7l-1.1-5m-.5-2.8c.2.9.3 1.8.5 2.7m0-39.7l1.1-4.9m-1.1 4.9c-.2.9-.4 1.8-.5 2.7m10.5-29.3l.2.1m8.7 106h.2m-11.9-18.5l.1-.2m1.8-85.7l.1.2m-7.9 69.3l-.2.2m.2-49.7h-.2"/><path class="st0" d="M641.7 85.3c-34 0-61.6 27.6-61.6 61.6s27.6 61.6 61.6 61.6"/><path class="st0" d="M641.7 87.8c-32.7 0-59.2 26.5-59.2 59.2s26.5 59.2 59.2 59.2"/><path class="st0" d="M641.7 81c-36.4 0-65.9 29.5-66 65.9 0 36.4 29.5 66 65.9 66"/><path class="st0" d="M641.7 79c-37.5 0-68 30.4-68 68 0 37.5 30.4 68 68 68"/><path class="st0" d="M641.6 218.5l-7.7-.5-7.4-1.3-7.3-1.9-7-2.7-6.5-3.4-6.1-4-5.8-4.6-5.2-5.4-4.9-5.9-4.2-6.5-3.4-6.9-2.7-7.2-1.7-7.3-1.1-7.4-.3-7.3.4-7.1 1-6.4 1.6-6.3 2.2-6.2 2.8-6.1 3.4-5.7 3.8-5.4 4.3-5 4.6-4.6 5.1-4 5.1-3.5 5.6-3 5.8-2.6 6-2 6.5-1.5 6.5-.9 6.6-.3"/><path class="st0" d="M641.7 74.4c-40.1 0-72.6 32.5-72.6 72.6s32.5 72.6 72.5 72.6"/><path class="st0" d="M641.7 69.1c-43 0-77.8 34.8-77.8 77.8s34.8 77.8 77.8 77.8"/><path class="st0" d="M641.7 67.9c-43.7 0-79 35.4-79.1 79 0 43.7 35.4 79 79 79.1m-94.5-82.2v-1.6m0 7.9v1.7m94.5-100.1l.3-.3m-.2 154.8c32.7 0 59.2-26.5 59.2-59.2s-26.5-59.2-59.2-59.2"/><path class="st0" d="M641.7 208.6c34 0 61.6-27.6 61.6-61.6s-27.6-61.6-61.6-61.6"/><path class="st0" d="M641.7 238.2c50.4 0 91.2-40.8 91.2-91.2s-40.8-91.2-91.2-91.2"/><path class="st0" d="M724.6 194.6l-1.2.4-1.2.5-1.5 1.1-.6.7-.6.9-.5.9-.4.9-.4 1.7-.2 1.5.2 1.2m15.2-30.2l-1.1.5-1 1-1.3 1.3-.4.8-.4 1.1-.4.9-.1 1v1.7l.3 1.5.4 1.2m7.8-33l-.9.9-.9 1.1-.8 1.6-.2 1-.3 1v1.1l.1 1 .3 1.7.7 1.2.6 1.1m1.4-11.7c.2-3.5.2-7 0-10.5m-1.4-11.7l-.6 1.1-.7 1.4-.3 1.6-.1 1.1v1l.3 1 .2.9.8 1.6.9 1.3.9.8m-7.8-33l-.4 1.2-.3 1.4v1.8l.1.9.4 1.1.4.9.4.8 1.3 1.4 1 .9 1.1.7m-15.2-30.2l-.2 1.2.2 1.3.4 1.8.4.9.5 1 .6.8.6.7 1.5 1 1.2.7 1.2.3m-72.8-46.5c-3.1-.3-6.2-.5-9.2-.5m30.6 5.4c-2.9-1-5.9-1.9-8.9-2.7m28.6 12.4c-2.6-1.7-5.3-3.2-8-4.6m25 18.6c-2.1-2.2-4.4-4.3-6.7-6.4m20 23.8c-1.6-2.7-3.3-5.2-5.1-7.7M732 119c-.9-3-2-5.9-3.2-8.7m7.2 30.3c-.2-3.1-.6-6.2-1.1-9.2m.1 31.1c.5-3 .9-6.1 1.1-9.2m-7.2 30.3c1.2-2.8 2.3-5.8 3.2-8.7M718 202.8c1.8-2.5 3.5-5.1 5.1-7.7m-20 23.8c2.3-2 4.6-4.1 6.7-6.4m-24.9 18.6c2.7-1.4 5.4-3 8-4.6m-28.6 12.3c3-.7 6-1.6 8.9-2.7m-30.7 5.4c3.1 0 6.2-.2 9.2-.5m-2.8-187.1c-1.2-.1-2.4-.2-3.6-.2m24.9 4.4c-1.1-.4-2.3-.7-3.5-1m23.2 9.9c-1-.6-2.1-1.2-3.1-1.8m20.3 15.1c-.9-.8-1.7-1.7-2.6-2.5m16.2 19.4c-.6-1-1.3-2-2-3m11.3 22.6c-.4-1.1-.8-2.3-1.2-3.4m5.8 24.5c-.1-1.2-.3-2.4-.4-3.6m0 25.3c.2-1.2.3-2.4.4-3.6m-5.8 24.6c.4-1.1.8-2.3 1.2-3.4m-11.3 22.6c.7-1 1.3-2 2-3m-16.3 19.3c.9-.8 1.8-1.6 2.6-2.5m-20.2 15.1c1.1-.6 2.1-1.2 3.1-1.8m-23.2 10c1.2-.3 2.3-.7 3.5-1m-24.9 4.4c1.2 0 2.4-.1 3.6-.2m48.7 18.2l12.5-7.2m.4-1.2l.1-.5m-.3.1l.3-.1m-.3.1l-.1.5-.1.2v-.6m-.7.4l.7-.4m-.7.4l-.1.6-.3.1v-.4m-1.2.7l1.2-.7m-1.2.7l-.2.5-.2.2-.2-.4m-1.3.8l1.3-.8m-1.3.8l-.2.5-.2.3-.3-.4m-1.6.9l1.6-.9m-1.6.9v.4l-.4.3-.3-.3m-1.6 1l1.6-1m-1.6 1l.1.4-.2.1-.6-.1m-1.5.8l1.5-.8m-1.5.8l.3.3-.3.1-.5-.1m-1.1.6l1.1-.6m-1.1.6l.4.3-.3.1-.5-.1m-.8.4l.8-.4m-.8.4l.5.1-.1.2-.5-.2m-.3.2l.3-.2m-.3.2l.5.1m-9.4-18.1l12.5-7.3m-12.8 8.5l-.3.6m0 0l.3-.2m0 0l.3-.6h.1l-.1.5m0 0l.7-.4m0 0l.2-.7.2-.1v.5m0 0l1.2-.6m0 0l.1-.6.3-.1.1.4m0 0l1.5-1m0 0v-.4l.4-.2.3.4m0 0l1.5-1m0 0v-.5l.4-.2.4.3m0 0l1.5-.9m0 0l-.2-.4.4-.2.4.2m0 0l1.5-.8m0 0l-.3-.3.3-.3.6.3m0 0l1.2-.7m0 0l-.4-.3.1-.1.7.1m0 0l.6-.4m0 0l-.5-.2h.1l.7.1m0 0l.2-.1m0 0l-.6-.2M711 81.1v.5m7.1 8.4c.2 0 .3 0 .5.1m5.9 8.8c0 .1-.1.3-.1.4m4.9 9.8c.1.1.3.1.4.2m3.5 10c-.1.1-.2.3-.2.4m2.5 10.7c.1.1.3.2.4.3m0 32.7c-.1.1-.3.2-.4.3m-2.5 10.6c.1.1.1.3.2.4m-3.5 9.9c-.1.1-.3.1-.4.2m-4.9 9.8c0 .1.1.3.1.4m-6 8.9c-.2 0-.3 0-.5.1m-7 8.4v.5m-12.8 46.3l12.4-7.1m.4-1.2l.1-.6m-.2.1l.2-.1m-.2.1l-.3.6v.1-.5m-.4.3l.4-.3m-.8.7l-.1.2-.2.2v-.3m-1.2.8l-.1.3-.3.1v-.3m-1.6 1v.3l-.4.1v-.1m-1.8.9v.3l-.4.2-.1-.1m-1.8.9l.2.2-.4.3-.2-.2m-1.6 1l.1.1-.2.1h-.3m-1.2.7l.3.1-.3.2-.3-.2m-1.1.4l.4-.2m-.4.2l.6.2-.2.1-.5-.1m-.3.1l.3-.1m-.3.1l.6.2m13.3-9l.3.6m-.9.8v.1m-1.5.7v.3m-2.1.9l.2.2m-.4 0v.1m-1.9.9l.1.2m-.4 0v.2m-1.9.8l.2.2m-.4.1v.2m-2.1.9l.2.1m-1.7.7l.2.3m-1.6-.3l.2.5m.3.2l.1.1m-.9-.8l.4.7m-.8-.8l.5.9m14.2-9.4l.5.9m-.6-.5l.4.6m-.3.5v.1m-68.6-8.4c3.5 0 7-.2 10.4-.6m11.7-1.9c-.1-.1-.3-.2-.4-.2m-10.9 1.9c-.1.1-.2.2-.3.4m11.6-2.2c3.4-.8 6.7-1.8 10-3m10.8-4.6c-.1-.1-.3-.1-.4-.2m-10.2 4.4c-.1.1-.1.3-.2.4m10.8-4.7c.3-.1.6-.3.9-.4m7.3-4.3c.3-.2.6-.4.8-.5m9.5-7h-.5m-8.8 6.6c0 .2-.1.3-.1.5m9.4-7.2c2.7-2.3 5.2-4.7 7.6-7.2m7.6-9c2.1-2.8 4-5.7 5.8-8.7m5.2-10.5c1.4-3.2 2.6-6.5 3.6-9.8m2.7-11.5c.6-3.4 1-6.9 1.2-10.4m-.2-.4l.3.3m.1-11.7l-.3.3m.2-.3c-.2-3.5-.6-7-1.2-10.4m-2.8-11.5c-1-3.3-2.2-6.6-3.6-9.8m-5.2-10.5c-1.8-3-3.7-5.9-5.8-8.7m-7.6-9.1c-2.4-2.5-4.9-4.9-7.6-7.2m-9.4-7.1c0 .2.1.3.1.5m8.8 6.5h.5m-9.4-6.9c-2.9-1.9-5.9-3.7-9.1-5.2M674.1 57c.1.1.1.3.2.4m10.1 4.3c.1 0 .3-.1.4-.2M674.1 57c-3.3-1.2-6.6-2.2-10-3m-11.5-2.1c.1.1.2.2.3.4m10.8 1.9c.1-.1.3-.2.4-.2m-11.6-2.1c-3.5-.4-7-.6-10.4-.6m-.2 191.5l-.3-.3m58.7-9.3l.2.1m9.6 16.6l.1.1m-9-16.8l9.4 16.2m-24.2-7.7l9.5 16.2m-8.9-17v.1m9.6 16.7l.1.2m-9.7-16.5l9.3 16.2m-8.6-16.6l9.4 16.2m-9-16.5l9.4 16.2m-8.2-16.8l9.3 16.2m-8.8-16.5l9.3 16.2m-7.8-17.2l9.3 16.4m-8.6-16.6l9.3 16.2m-7.8-17.2l9.4 16.2m-8.6-16.6l9.3 16.2m-7.8-17.1l9.4 16.2m-8.8-16.6l9.5 16.2m-8-17l9.3 16.2m-8.7-16.5l9.3 16.2m-8.1-16.9l9.3 16.2m-8.9-16.5l9.3 16.2m-8.7-16.6l9.4 16.2M663.4 53.8c-3.4-.8-6.8-1.4-10.3-1.8"/><path class="st0" d="M674.7 57.3l-1.2.4-1.4.4h-2.7l-1.1-.3-.9-.4-.9-.4-1.4-1.1-.9-1.1-.8-.9m20.9 7.5c-3.1-1.6-6.3-2.9-9.6-4.1m28.2 16.2c-2.7-2.2-5.5-4.3-8.4-6.3m16.9 14.4h-1.2l-1.4-.4-1.6-.7-.8-.6-.8-.6-.8-.8-.5-.9-.9-1.4-.4-1.5-.1-1.2m15.3 16.1c-2.1-2.8-4.3-5.5-6.7-8m17.9 27.2c-1.4-3.2-3-6.3-4.7-9.4m11.1 30.6c-.6-3.4-1.4-6.8-2.4-10.2m0 54.3c1-3.3 1.8-6.7 2.4-10.2m-11.1 30.6c1.7-3 3.3-6.2 4.7-9.4m-76.3 56.8c3.5-.4 6.9-1 10.3-1.8m0 .1l.8-1.1.9-1.1 1.4-.9.9-.6.9-.4 1.1-.1 1-.1 1.7.1 1.4.3 1.2.5m0-.1c3.3-1.2 6.5-2.6 9.6-4.1m10.2-5.9c2.9-1.9 5.7-4 8.4-6.2m0 0l.1-1.2.4-1.4.9-1.6.5-.8.8-.8.8-.7.8-.5 1.6-.7 1.4-.3 1.2-.1m.1 0c2.4-2.5 4.6-5.2 6.7-8M653.1 52l-1 .7-1.2.6-1.5.6-.9.1h-2l-1-.2-1.6-.6-1.3-.8-1-.7"/><path class="st0" d="M641.7 236.9c49.7 0 90-40.3 90-90s-40.3-90-90-90m-.1 185.4l1-.8 1.3-.8 1.6-.5 1-.1 1.1-.2.9.2.9.1 1.5.4 1.2.7 1 .6m31.2-9.3l.4-1.2.8-1.2 1.1-1.4.8-.6.8-.6.9-.4 1-.4 1.7-.2h1.5l1.2.1m0-159.4l-1.2.2h-1.5l-1.7-.4-1-.3-.9-.5-.8-.5-.8-.7-1.1-1.4-.8-1.2-.4-1.2"/><path class="st0" d="M641.7 210.5c35.1 0 63.5-28.4 63.5-63.5s-28.4-63.5-63.5-63.5"/><path class="st0" d="M641.7 226c43.7 0 79-35.4 79.1-79 0-43.7-35.4-79-79-79.1"/><path class="st0" d="M641.7 224.8c43 0 77.8-34.8 77.8-77.8s-34.8-77.8-77.8-77.8"/><path class="st0" d="M641.7 219.5c40.1 0 72.6-32.5 72.6-72.6s-32.5-72.6-72.5-72.6"/><path class="st0" d="M641.6 75.6l7.2.3 7.1 1.1 6.8 1.7 6.6 2.5 6.1 2.9 5.8 3.4 5.5 4.1 5.3 4.7 4.7 5.2 4.3 5.7 3.7 6.2 3.1 6.5 2.3 6.6 1.7 6.9 1 6.9.2 6.7-.2 6.8-1 6.7-1.7 6.9-2.3 6.8-3.1 6.5-3.7 6-4.3 5.8-4.7 5.2-5.3 4.7-5.5 4-5.8 3.5-6.1 3-6.6 2.3-6.8 1.8-7.1 1-7.2.5"/><path class="st0" d="M641.7 214.9c37.5 0 68-30.4 68-68 0-37.5-30.4-68-68-68"/><path class="st0" d="M641.7 212.9c36.4 0 65.9-29.5 66-65.9 0-36.4-29.5-66-65.9-66m55.8 177.3l-1.2-.3m13.7-6.9l.4-1.2m-11-17.3l1.1.4m-13.6 6.9l-.3 1.2m5.9-14.4l4.4 7.4m-11.8-3.1l4.3 7.4m8.7 20.8l-1.2-.2m13.6-6.9l.4-1.2m-26.2-19.6l.4-.3m7.4-4.2l.6-.2m-8.4-163.9l8.4 4.8m-20 201l3.1-.9m1.5-.4l.1-.1m1.7-.5l2.9-.9 2.9-1.1m1.4-.5l.3-.2m1.5-.5l2.8-1.1 2.9-1.3m1.3-.7l.3-.1m1.5-.7l2.7-1.4 2.7-1.4m1.5-.9l.1-.1m1.3-.8l2.7-1.5 2.6-1.7m1.4-1l.2-.1m1.2-.8l2.6-1.8 2.4-1.9m1.3-1.1l.2-.1m1.2-.9l2.5-1.9m0 0c6.1-5.2 11.7-11 16.7-17.3m-303.5-78.2l5.1-5.1m-14.7 5.1l14.8-14.7m-24.3 14.7l24.5-24.4m-34.1 24.4l34.1-34m4.5-4.5l3.7-3.8m2.4-2.3l3.1-3.2m-57.4 47.8L450 95.7m-60.6 50.9l51-50.9m-60.5 50.9L433.6 93m-63.3 53.6l51.1-50.9m.6-.8l1.7-1.6m-63 53.3l56.2-56m-65.6 56L416.9 81m-75.2 65.6l74.1-74.1m-83.7 74.1l84.8-84.8m-94.2 84.8l91.8-91.8m-101.4 91.8l93.5-93.4m-103.1 93.4l90-89.9m.9-1l2.7-2.5m-103.2 93.4L389.6 51m-105.1 95.6l86-86m3.1-3.1L380 51m-105.1 95.6l91.9-91.8m-101.5 91.8L361 51m-44 5.8l5.8-5.8M189 146.6l94.5-94.5m-104.1 94.5L274.1 52m-96.4 86.9l84-84.1m.5-.4l2.3-2.3m-86.3 76.7l76.7-76.7m-75.7 66.1l66.3-66.1m-64.7 55.1l53.6-53.6m-51.3 41.7l41.7-41.7m-42.9 33.3l33.3-33.3M174 85.3l31.8-31.7m-36.9 27.1l27.3-27.1m-35.7 26l26.1-26M152 78.7l23.1-23.2M147.2 74l18.5-18.5m-28.7 19l18.8-18.9M141 61l5.5-5.5m109.3 91.1l32.6-32.5m.5-.6l60.4-60.3m-103 93.4l32.5-32.5m10.1-10L341.8 51m-105.1 95.6l32.5-32.5m19.7-19.6L332.4 51m-105.3 95.6l32.5-32.5M281 92.9l35.2-35.3m-98.6 89l32.6-32.5m21.2-21.2l40.7-40.8m-104 94.5l40.5-40.4m13.2-13.3l40.9-40.8m-104.2 94.5l50.1-50m3.7-3.7l38.4-38.4M67.5 225.7l-6.1-6.1m15.7 6.1l-6.3-6.3m-.8-.8l-.3-.3m10.1.5l-4.2-4.2m12.3 2.9l-3.8-3.8m13.4 3.8l-4.9-4.9m14.5 4.9l-9.3-9.2m18.7 9.2l-10.8-11m40.8 31.4l-5.5-5.6m-14.9-14.8l-17.9-18m47.6 38.2l-11.2-11.3m-8.9-8.9l-30-30m60 50.4l-11.5-11.5m-9.1-8.9l-41-41.2m71 61.6L156.4 219m-1.7-1.5L103 165.6m86.2 76.7l-86.8-86.8m96.3 86.8L103 146.6m105.3 95.7l-95.7-95.7m105.2 95.7l-95.6-95.7m105.2 95.7l-95.8-95.7M236.5 242l-95.3-95.4m104.3 94.6l-94.7-94.6m104.1 94.6l-94.6-94.6m104.2 94.6l-94.6-94.6m104.2 94.6l-94.7-94.6m104.1 94.6L189 146.6m131.2 93.1l-3.2-3.2m51 3.2l-93.1-93.1m102.6 93.1l-93-93.1m102.6 93.1l-93.2-93.1m103.2 93.6l-2.7-2.6m-.9-1l-90-90m103.1 93.6l-93.5-93.6m101.4 91.9l-91.8-91.9m94.2 84.9l-84.8-84.9m84.8 75.3l-75.2-75.3m75.2 65.7l-65.6-65.7m65.6 56.2l-56.2-56.2m63.5 53.9l-2.2-2.2m-.6-.7l-51.1-51m62.9 53.5l-53.3-53.5m60.5 51l-51-51m60.6 51l-51.1-51m57.4 47.9l-3.1-3.2m-2.4-2.3l-3.7-3.8m-4.5-4.4l-34.1-34.2m34.1 24.4l-24.5-24.4m24.3 14.8l-14.8-14.8m14.7 5.3l-5.1-5.3m-144.1 94.6l-47-46.9m-3.8-3.7l-43.8-44m104.2 94.6l-47.1-46.9M242.3 181l-34.2-34.4m104 94.6l-46.9-46.9m-21.4-21.4l-26.2-26.3m98.6 89.1l-41.5-41.4m-21.3-21.4l-26.3-26.3m102.7 93.1l-45.6-45.4M263 172.9l-26.3-26.3m102.7 93.1l-45.6-45.4m-21.2-21.4l-26.3-26.3m102.6 93.1l-53.4-53.3M282 172.9l-26.2-26.3m102.6 93.1l-62.9-62.9m-3.9-3.9l-26.3-26.3m177.5-37.5h.8l7.2-2.2V102h5.5v-5.1l-1.2-1.2H439v-1.8l-1-1m0 0l-1.1.8-1.1-.8-.9.8-1.1-.8-1.1.8-1.1-.8-1.1.8-1-.8-1.1.8-1.1-.8-.9.8-1.1-.8-1.1.8-1.1-.8-1.1.8"/><path class="st0" d="M422 93.7v2h-5.1V73.6l-2-2.2m-.6-.8c0 .3.2.7.4.9m-.4-.9v-.8m.5-1c-.2.2-.4.6-.4.9m.5-.9l2-2.1v-9.3l-4.2-4.2h-16.2l-2.1 2v4.7h-.9m0 0v-2.4M308.8 52h1v.1h5l1.4 1.2v3.8h-.1v.5h.9V51h30.2l3 3h6.8l2.9-3h6.9v9.6h6.8V51h19.9v6.6m-84.7-5.5h-3.5m0-.1h-1.5m0 .1h-1.4V52h-1.1v.1h-5.5l-1.7 1.6v1.4h-.5V54l1.9-1.9h-1.9l-2.1 2m-1 .6c.4 0 .8-.2 1.1-.5m-1.2.5h-.4m-1.2-.5c.3.3.7.5 1.1.5m-1-.6l-2-2h-2l2 1.9v1.1h-.5v-1.4l-1.7-1.6h-8.3V52H270v.1h-7.8v2.7h-6.9v-2.7h-12.7l-1.2 1.2v1.4h-.1v1.2h-2.5v-2.3h-35.6v.1h-2v2H200v-2h-2.2v-.1h-16.3l-4.4 1.9h-14.8v.8h-6.5v-.8h-13.5l-1.3 1.2v2.7m0 0v8.2m0 0h-3l-1.2 1.2v5.3l1.1 1.1.9-.8 1.1.9 1.1-.9m0 0l1 .9 1.1-.9m0 0l1.1.9m0 0l1.1-.9m0 0V74h4.2v4.7h4.3v.9h8.6v1.1h8.5v2.2h1.9l-.1.2V85l11.5 2.5h.6m.1-.1c-4.9 19.4-7.4 39.3-7.4 59.3m-.1-.1h264.9m.4-38.3l.1-.2v1m-155.9-57h6.7m-2.5 0v2.3m0-2.3v2.3m-1.8-.3h1.8m-1.8-2v2.3m0-2.3v2.3m4.5-.7h.3m-7.7 0h.2m15.8-1.7h1.4m5 0h-1.5m-52 .1h6.6-6.3 6.6m22.5 0h.2m10.6 0h.3m20.4 5.5v-.5m50.6-6.1h6.8m19.9 8.9v-2.3m23.4 9.1v6.9m33.9 28.4h4.3m0 44.6h1.2m-12.7 0h11.5m0-40.9l-4.3 1.3m-8 39.6h.8m-262.1-93l.1-.2.4-.1 1.5-.7 1.7-.6 1.9-.8m255.2 95.4h.4"/><path class="st0" d="M197.8 53.6l.3-.2.5-.1 1-.1h2l.8.1.5.1.3.2m239.5 54.7v38.3M141 67.6v-8.2m100.3-3.5v-1.2m213.8 51V102M200 53.7h.9m-13.8-2.5h49.2m0 0l.9.9.8.8.6.4.2.3m-66.1 93V85m-27.4 61.6V74.4m25.6 72.2V82.9m-8.5 63.7V80.7m-8.6 65.9v-67m-4.3 67V78.7m-5.8 67.9v-14.2l.1-6.7v-24.1l.1-5.2V83.7l.2-3.1v-5l.1-.3m-1.6 71.3v-14.3l.1-6.9v-18.6l.2-5.6V86.8l.1-3.8v-7.1l.1-1.1v-.4m-1.6 72.2v-7.2l.1-7v-25.2l.2-5.6V87.3l.1-3.6v-7.2l.1-.9v-.3m-1.6 71.3v-7.2l.2-7.1v-19.7l.1-5.8V91.1l.1-4.3v-9.3l.2-1.6v-1.5m-1.7 72.2l.2-7.2v-20.3l.1-6.1V91.7l.1-4.4v-6.7l.2-2.3v-3m-1.6 71.3l.1-7.2v-20.5l.1-6.3V96l.2-4.9V79.9l.1-2.4v-3.1m-.9.8l-.2.4v25.8l-.1 5.5v39.7m-.8 0V74.1m319.5 72.5V102m-12.7 44.6v-37.5m11.5 37.5v-40.9M317 239.7h32.8l.4-.4h6.8l.4.4h36.1v-6.3h.9v4.7l2.1 2.1h16.2l4.2-4.2v-38.4h5.1v2.9"/><path class="st0" d="M438.5 199.9l-.5-.2-1.1.8-1.1-.8-.9.8-1.1-.8-1.1.8-1.1-.8-1.1.8-1-.8-1.1.8-1.1-.8-.9.8-1.1-.8-1.1.8-1.1-.8-1.1.8m16.5-.6l.5-.5v-1.8h16.1l1.2-1.2v-5.1h-5.5v-4.9l-7.2-2.1h-.8v.6h-.1m-.4-38.3H102.2m-.1 0c0 20 2.5 39.9 7.4 59.3m.1 0h-.6l-11.6 2.4v1.9l.2.3h-1.9v2.1h-8.5v1.1h-8.7v.9h-4.2v4.8H70V218l-1.1 1-1.1-1-1.1 1-.9-1m0 0l-1.1 1"/><path class="st0" d="M317 239.7v-4h-.8v4.3l-1.4 1.2h-72.2l-1.2-1.2v-2.5h-2.6v2.2l-2.5 2.6h-49.2l-10-4.4h-14.8v-.9h-6.5v.9h-13.5l-1.3-1.3v-9l1.3-1.2h14.1v-8.9H79.8v7l-1.3 1.2H62.8l-1.4-1.2v-5.4l.7-.5.4.4 1.1-1 1.1 1m32.7-10.7v-61.7m0 0h4.8m340.1 0h14m-394.9 0h36m345.3 38.3v-38.3m.9 37.7v-37.7m7.2 39.8v-.1l4.3 1.3v-41m1.2 44.7v-44.7m-1.2 44.7h-4.3m-57.3 50.9v-2.5m-33.6 2.5l-.9-1-.8-.8-.6-.4-.2-.3m36.1 2.5h-33.6m-12.7 0l1-1 .8-.8.5-.4.3-.3m-2.6 2.5H317v-2.5m138.1-48.4v-3.7m-312.8 38.8v-8.9m-1.3 10.1v-10.1m-79.6 1.6v-72.5"/><path class="st0" d="M62.5 219v-1.5l.2-1.6v-9.4l.1-4.3v-15.6l.1-6V161l.2-7.1v-7.3m.5 71.4v-1.2l.1-1.8v-9l.2-4.3v-15.5l.1-5.9v-19.4l.1-7.1v-7.2m.6 72.4v-3.1l.1-2.5v-11.2l.2-4.8v-16.8l.1-6.2v-20.5l.1-7.3m.6 71.4v-3l.1-2.3v-11l.1-4.7v-16.7l.2-6v-20.5l.1-7.2m.4 72.4l.1-.4v-5.2l.2-3.1v-12.9l.1-5.3v-17.7l.2-6.5v-21.3m.5 71.4l.1-.3v-5l.2-3.1V197l.1-5.3v-17.4l.1-6.6v-21.1m.6 72.4v-.4l.1-1.1v-7.2l.1-3.8v-14.4l.2-5.5v-18.7l.1-6.9v-14.4M70 218v-71.4m4.3 68v-68m4.2 67.1v-67.1m8.7 66v-66m8.5 63.9v-63.9m321.2-73V56.8"/></g><g id="Mittellinien"><path class="st1" d="M522.1 146.5h7"/><path d="M531.9 146.5h1.9" fill="none" stroke="#000" stroke-width=".283" stroke-miterlimit="10" stroke-dasharray=".5485,2.7426"/><path d="M535.2 146.5H751" fill="none" stroke="#000" stroke-width=".283" stroke-miterlimit="10" stroke-dasharray="13.713,2.7426,.5485,2.7426"/><path class="st1" d="M752.4 146.5h7.1m-642.2 0h7.1"/><path d="M127.2 146.5h1.9" fill="none" stroke="#000" stroke-width=".283" stroke-miterlimit="10" stroke-dasharray=".5556,2.7779"/><path d="M130.5 146.5h318.6" fill="none" stroke="#000" stroke-width=".283" stroke-miterlimit="10" stroke-dasharray="13.8896,2.7779,.5556,2.7779"/><path class="st1" d="M450.5 146.5h7.1M640.8 39.2v7.1"/><path d="M640.8 49v1.9" fill="none" stroke="#000" stroke-width=".283" stroke-miterlimit="10" stroke-dasharray=".54,2.7"/><path d="M640.8 52.3v193" fill="none" stroke="#000" stroke-width=".283" stroke-miterlimit="10" stroke-dasharray="13.4998,2.7,.54,2.7"/><path class="st1" d="M640.8 246.6v7.1"/></g><g id="Bemassung"><path class="st1" d="M18.6 59v176.3"/><path d="M16.1 60.7l2.5-9.2 2.4 9.2h-4.9zm0 173l2.5 9.2 2.4-9.2h-4.9z"/><path class="st1" d="M43.6 83.6v127.5"/><path d="M41.1 85.3l2.5-9.2 2.4 9.2h-4.9zm0 124.1l2.5 9.2 2.4-9.2h-4.9z"/><path class="st8" d="M62 218.7H39.5M136.6 76H39.5M187 51.2H14.4m173.9 191l-174.1 1"/><path class="st9" d="M484.2 101v91.3"/><path d="M481.8 102.7l2.4-9.2 2.5 9.2h-4.9zm0 87.9l2.4 9.2 2.5-9.2h-4.9z"/><path class="st8" d="M437.9 92.7h50.5m-49.8 107.5h49.8"/><path class="st9" d="M408.9 267.8H69.7"/><path d="M407.2 265.4l9.3 2.4-9.3 2.5v-4.9zm-336.8 0l-9.2 2.4 9.2 2.5v-4.9z"/><path class="st9" d="M463.3 267.8H481"/><path d="M465 270.3l-9.2-2.5 9.2-2.4v4.9z"/><path class="st8" d="M456.3 194.3V272"/><path class="st9" d="M482.6 292.1h-57.8"/><path d="M480.9 289.7l9.2 2.4-9.2 2.5v-4.9zm-54.4 0l-9.2 2.4 9.2 2.5v-4.9z"/><path class="st8" d="M417.2 225.1v71.2"/><path class="st9" d="M482.9 18.4h-18.2"/><path d="M481.2 16l9.2 2.4-9.2 2.5V16zm-14.8 0l-9.2 2.4 9.2 2.5V16z"/><path class="st8" d="M490.9 296.3V14.2m-35.4 4.2h-37.9m-.8 39.2V14.2m39.5 82.1V14.2"/><path class="st9" d="M408.4 18.4H145.3"/><path d="M406.7 16l9.2 2.4-9.2 2.5V16zM147 16l-9.2 2.4 9.2 2.5V16z"/><path class="st8" d="M137 76V15.2m302.3 78.7V33.8"/><path class="st9" d="M493.5 134.3l33.3-121.8h5.3"/><path d="M496.3 133.4l-4.8 8.2.1-9.5 4.7 1.3z"/><path class="st8" d="M61.4 219.9V272m394.4-4.2h-41"/><path class="st9" d="M447.6 38.1h30.7"/><path d="M449.3 40.6l-9.2-2.5 9.2-2.5v5z"/><path class="st9" d="M409.2 38.1h-36.9"/><path d="M407.5 35.6l9.3 2.5-9.3 2.5v-5z"/><path class="st8" d="M440.1 38.1h-23.5"/><path d="M487.4 143l7 7m-7 0l7-7" fill="none" stroke="#000" stroke-width=".992" stroke-miterlimit="10"/><path class="st1" d="M722.6 227.7L677 180.8"/><path d="M723.4 223.8l6.2 11.1-10.9-6.5 4.7-4.6z"/><path class="st1" d="M641.4 146.9l14.8 13.7"/></g><g id="Text"><text transform="matrix(1 0 -.00479 1 249.247 189.468)" class="st11 st12 st13">Mod</text><text transform="rotate(-90 87.13 72.45)" class="st11 st12 st14">Ø 45</text><text transform="rotate(-90 325.012 -141.858)" class="st11 st12 st14">1-32 UN-2A</text><text transform="rotate(-90 328.662 -150.208)" class="st11 st12 st14">(C-mount)</text><text transform="rotate(-90 109.032 68.79)" class="st11 st12 st14">M34 x 0.5</text><text transform="translate(274.13 14.68)" class="st11 st12 st14">65.9</text><text transform="translate(423.754 14.844)" class="st11 st12 st14">9.3</text><text transform="translate(535.967 16.367)" class="st11 st12 st14">Sensor position</text><text transform="translate(419.408 34.395)" class="st11 st12 st14">5.2</text><text transform="translate(425.36 264.048)" class="st11 st12 st14">9.3</text><text transform="translate(462.998 14.844)" class="st11 st12 st14">8.3</text><text transform="translate(251.694 264.081)" class="st11 st12 st14">83.6</text><text transform="translate(435.41 289.296)" class="st11 st12 st14">17.526</text><text transform="translate(436.81 302.796)" class="st11 st12 st14">(in air)</text><text transform="translate(259.574 109.903)" class="st11 st12 st13">Inf.</text><text transform="translate(650.145 172.778)" class="st11 st12 st14">R29.7</text></g><text transform="translate(693.009 298.08)" class="st12 st15">Not to scale</text><text transform="translate(692.78 313.48)" class="st12 st15">Dimensions in mm</text></svg>