<svg style="background-color:#fff" version="1.1" id="Layer_1" xmlns="http://www.w3.org/2000/svg" xmlns:xlink="http://www.w3.org/1999/xlink" x="0" y="0" viewBox="0 0 350 150" xml:space="preserve"><style>.st0,.st3{fill:none}.st3{stroke:#000}.st13{fill:#dedfde}.st14{fill:none;stroke:#131718;stroke-width:.5;stroke-miterlimit:3.864}.st15{fill:#fff}.st16{font-family:Helvetica,Arial,sans-serif}.st17{font-size:10px}.st18{font-size:8px}.st19{enable-background:new}.st20{font-size:9px}</style><pattern y="150" width="73" height="73" patternUnits="userSpaceOnUse" id="i" viewBox="44.3 -120.6 73 73" overflow="visible"><path class="st0" d="M44.3-120.6h73v73h-73z"/><path class="st0" d="M44.3-47.6h73v-73h-73v73z"/><defs><path id="SVGID_1_" d="M101.9-152.6h72v72h-72z"/></defs><clipPath id="SVGID_2_"><use xlink:href="#SVGID_1_" overflow="visible"/></clipPath><path d="M94.4-91.1l18 18m-18-24l24 24m-24-30l30 30m-30-36l36 36m-36-42l42 42m-42-48l48 48m-48-54l54 54m-54-60l60 60m-60-66l66 66m-66-72l72 72m-72-78l78 78m-78-84l84 84m-78-84l78 78m-72-78l72 72m-66-72l66 66" clip-path="url(#SVGID_2_)" fill="none" stroke="#000" stroke-width=".3" stroke-linejoin="round"/><defs><path id="SVGID_3_" d="M101.9-152.6h72v72h-72z"/></defs><clipPath id="SVGID_4_"><use xlink:href="#SVGID_3_" overflow="visible"/></clipPath><path d="M73.1-94.1l10 10" clip-path="url(#SVGID_4_)" fill="none" stroke="#000" stroke-width=".3" stroke-linejoin="bevel"/><path id="a_1_" class="st3" d="M101.9-80.6h72v-72h-72v72z"/><defs><path id="SVGID_5_" d="M28.9-152.6h72v72h-72z"/></defs><clipPath id="SVGID_6_"><use xlink:href="#SVGID_5_" overflow="visible"/></clipPath><path d="M21.4-97.1l24 24m-24-30l30 30m-30-36l36 36m-36-42l42 42m-42-48l48 48m-48-54l54 54m-54-60l60 60m-60-66l66 66m-66-72l72 72m-72-78l78 78m-78-84l84 84m-78-84l78 78m-72-78l72 72m-66-72l66 66m-60-66l60 60m-54-60l54 54m-48-54l48 48m-42-48l42 42" clip-path="url(#SVGID_6_)" fill="none" stroke="#000" stroke-width=".3" stroke-linejoin="round"/><path id="c_1_" class="st3" d="M28.9-80.6h72v-72h-72v72z"/><defs><path id="SVGID_7_" d="M101.9-79.6h72v72h-72z"/></defs><clipPath id="SVGID_8_"><use xlink:href="#SVGID_7_" overflow="visible"/></clipPath><path d="M78.1-73.6l6-6m-6 0l6 6" clip-path="url(#SVGID_8_)" fill="#fff" stroke="#000" stroke-width=".3" stroke-linejoin="bevel"/><defs><path id="SVGID_9_" d="M101.9-79.6h72v72h-72z"/></defs><clipPath id="SVGID_10_"><use xlink:href="#SVGID_9_" overflow="visible"/></clipPath><path d="M94.4-48.1l48 48m-48-54l54 54m-54-60l60 60m-60-66l66 66m-66-72l72 72m-72-78l78 78m-78-84l84 84m-78-84l78 78m-72-78l72 72m-66-72l66 66" clip-path="url(#SVGID_10_)" fill="none" stroke="#000" stroke-width=".3" stroke-linejoin="round"/><path id="e_1_" class="st3" d="M101.9-7.6h72v-72h-72v72z"/><defs><path id="SVGID_11_" d="M28.9-79.6h72v72h-72z"/></defs><clipPath id="SVGID_12_"><use xlink:href="#SVGID_11_" overflow="visible"/></clipPath><path d="M5.1-73.6l6-6m-6 0l6 6" clip-path="url(#SVGID_12_)" fill="#fff" stroke="#000" stroke-width=".3" stroke-linejoin="bevel"/><defs><path id="SVGID_13_" d="M28.9-79.6h72v72h-72z"/></defs><clipPath id="SVGID_14_"><use xlink:href="#SVGID_13_" overflow="visible"/></clipPath><path d="M21.4-18.1l18 18m-18-24l24 24m-24-30l30 30m-30-36l36 36m-36-42l42 42m-42-48l48 48m-48-54l54 54m-54-60l60 60m-60-66l66 66m-66-72l72 72m-72-78l78 78m-78-84l84 84m-78-84l78 78m-72-78l72 72m-66-72l66 66m-60-66l60 60m-54-60l54 54m-48-54l48 48m-42-48l42 42m-36-42l36 36m-30-36l30 30m-24-30l24 24m-18-24l18 18m-12-18l12 12" clip-path="url(#SVGID_14_)" fill="none" stroke="#000" stroke-width=".3" stroke-linejoin="round"/><defs><path id="SVGID_15_" d="M28.9-79.6h72v72h-72z"/></defs><clipPath id="SVGID_16_"><use xlink:href="#SVGID_15_" overflow="visible"/></clipPath><path d="M.1-21.1l10 10" clip-path="url(#SVGID_16_)" fill="none" stroke="#000" stroke-width=".3" stroke-linejoin="bevel"/><path id="g_1_" class="st3" d="M28.9-7.6h72v-72h-72v72z"/></pattern><pattern id="SVGID_17_" xlink:href="#i" patternTransform="matrix(1 0 0 -1 -179.8 -16491.143)"/><path d="M215.2 56.9h12.5v32.4h-12.5V56.9z" fill="url(#SVGID_17_)" stroke="#000" stroke-width=".5" stroke-miterlimit="10"/><path d="M52.9 89.3h48.6V56.9h56.7v32.4h56.9V56.9h56.6v32.4h-.2 70.3" fill="none" stroke="#000" stroke-width=".709" stroke-miterlimit="3.864"/><path d="M259.3 29h29.1M222 66.4l37.3-37.3" fill="none" stroke="#000" stroke-width=".5" stroke-miterlimit="3.864"/><path class="st13" d="M157.5 113.1h70.2v18.3h-70.2v-18.3z"/><path class="st14" d="M157.5 113.1h70.2v18.3h-70.2v-18.3z"/><path class="st15" d="M101.5 113.1h56.7v18.3h-56.7v-18.3z"/><path class="st14" d="M101.5 113.1h56.7v18.3h-56.7v-18.3z"/><path class="st14" d="M101.6 100.3h126.1v31.2H101.6v-31.2z"/><path class="st13" d="M271.6 113.1h70.2v18.3h-70.2v-18.3z"/><path class="st14" d="M271.6 113.1h70.2v18.3h-70.2v-18.3z"/><path class="st15" d="M227.7 113.1h44v18.3h-44v-18.3z"/><path class="st14" d="M227.7 113.1h44v18.3h-44v-18.3z"/><path class="st14" d="M227.7 100.3h114.1v31.2H227.7v-31.2z"/><text transform="translate(229.281 126.098)" class="st16 st17">Exposure</text><text transform="translate(228.281 141.5)" class="st16 st18">(shortened)</text><text transform="translate(128.281 109.75)" class="st16 st18">Frame acquisition N</text><text transform="translate(246.781 109.75)" class="st16 st18">Frame acquisition N + 1</text><text transform="translate(109.597 126.098)" class="st16 st17">Exposure</text><text transform="translate(170.347 126.098)" class="st16 st17">Readout</text><text transform="translate(288.3 126.098)" class="st16 st17">Readout</text><text transform="translate(293.75 25.25)" class="st19"><tspan x="0" y="0" class="st16 st17">This part of</tspan><tspan x="0" y="12" class="st16 st17">the signal</tspan><tspan x="0" y="24" class="st16 st17">is ignored</tspan></text><text transform="translate(2 73.75)" class="st19"><tspan x="0" y="0" class="st16 st20">Hardware Frame Start</tspan><tspan x="0" y="10.8" class="st16 st20">trigger signal</tspan></text></svg>