<svg xmlns="http://www.w3.org/2000/svg" viewBox="0 0 670 286.5" style="background-color:#fff"><style>.st1{fill:none;stroke:#000;stroke-width:.25;stroke-linecap:round;stroke-linejoin:round;stroke-miterlimit:10}.st2{fill-rule:evenodd;clip-rule:evenodd}.st3{fill:none;stroke:#000;stroke-width:.25}.st4{fill:#fff}.st5,.st6{stroke:#1d1d1b;stroke-miterlimit:10}.st5{stroke-width:.25}.st5,.st6,.st9{fill:none;stroke-linecap:round;stroke-linejoin:round}.st6{stroke-width:.5}.st9{stroke-miterlimit:10;stroke:#1d1d1b;stroke-width:.42}.st13{font-family:Helvetica,Arial,sans-serif}.st14{font-size:10px}.st15{font-size:7px}</style><g id="Ebene_1"><path d="M2.9 13.4h548.5" fill="none"/><path d="M136.4 63V33.8"/><path class="st1" d="M136.4 63V33.8"/><path d="M31.2 36.7H9.3"/><path class="st1" d="M31.2 36.7H6"/><path d="M35.5 52.6V35.5"/><path class="st1" d="M35.5 52.6V32.5"/><path d="M132.4 36.7H39.7"/><path class="st1" d="M165.4 36.7H39.7"/><path class="st2" d="M132.2 36v1.3l4.2-.6"/><path d="M1.8 36.7l4.2.6v-1.4l-4.2.8z"/><path class="st3" d="M1.8 36.7l4.2.6v-1.4l-4.2.8z"/><path d="M35.6 36.7l4.2.6v-1.4l-4.2.8z"/><path class="st3" d="M35.6 36.7l4.2.6v-1.4l-4.2.8z"/><path d="M1.8 13.3L6 14v-1.4l-4.2.7z"/><path class="st3" d="M1.8 13.3L6 14v-1.4l-4.2.7z"/><path d="M35.5 36.6l-4.2-.7v1.4l4.2-.7z"/><path class="st3" d="M35.5 36.6l-4.2-.7v1.4l4.2-.7z"/><path d="M68.3 75.6v-2.8c0-.2-.3-.3-.3-.3h-.6v4.3h3.3s.3 0 .3-.3V76h-2.4c-.4-.1-.3-.4-.3-.4m-10.7-1.2c.2-.3.3-.5.3-.8 0-.4-.2-.7-.4-.9-.3-.3-.7-.3-1.1-.3h-2.5c-.4 0-.5.3-.5.3v4h3.2c.4 0 .8-.1 1-.3.3-.2.4-.6.4-1 .1-.4-.1-.8-.4-1"/><path class="st4" d="M54.3 73.5c0-.2.2-.2.3-.2h1.7c.3 0 .4 0 .4.1.1 0 .2.2.2.3 0 .1 0 .2-.1.3-.1.1-.3.1-.5.1h-2v-.6zm2.8 2.2c-.1.1-.3.1-.5.1h-2.3v-1h2c.5 0 .7.1.7.2 0 0 .1.1.1.3.1.3 0 .4 0 .4"/><path d="M72.2 74.9H75c.2 0 .2-.2.2-.2v-.6h-3v-.6c0-.2.2-.2.3-.2h2.6s.2 0 .2-.2v-.6h-3.7c-.4 0-.4.3-.4.3v4h4s.2 0 .2-.2V76H72v-1.1h.2zm-9 1H65c.3 0 1.1 0 1.2-.4v-.1c0-.2-.1-.5-1.2-.5-.6 0-1.1 0-1.5-.2-.5-.2-.7-.5-.7-1 0-.8.6-1.2 1.8-1.3h2.3v.6c0 .3-.3.3-.3.3h-1.9c-.3 0-.9.1-.9.4v.1c0 .1.2.3 1.1.3h.1c.6 0 1.2.1 1.6.3.5.2.7.6.7 1.1v.1c0 .5-.3 1.1-1.9 1.1h-2.1l-.3-.6c-.1.1-.1-.2.2-.2M82.3 71c-.4-.4-.9-.4-.9-.4-1 .4-2 1.1-2 1.1s1.5-.7 3.1-.4c-.1 0-.2-.2-.2-.3"/><path d="M84.2 70.6c-.4-.7-1.7-.4-2.4-.2.2.1 1.5.2 1 2-.3 1.1-1.1 2.4-1 2.5 0 .1 3.1-3.1 2.4-4.3M79.3 75c.2 0 .4-.1.6-.3l.3-.3c.1-.2.2-.4.2-.7 0-.5-.2-.9-.6-1.1-.3-.2-.7-.2-.9-.2h-2.5c-.3 0-.3.3-.3.3v4h.7s.2 0 .2-.3V75h1.3l1.2 1.3c.1.1.1.2.1.2s.2.2.5.2h.9L79.3 75z"/><path class="st4" d="M76.8 74.2v-.7s0-.2.3-.2h1.7c.2 0 .4 0 .5.1.1 0 .1.2.1.3 0 .1 0 .3-.1.3-.1.1-.4.2-.7.2h-1.8z"/><path d="M60.7 72.5h-.4c-.4 0-.4.1-.5.3-.2.5-.8 1.4-1.2 2.3.2-.2.6-.4 1.1-.4l.6-1 .6 1.3h-1.3c-.8.1-1.1.4-1.2.6l-.5 1s-.1.1.1.1h.8l.3-.7s.1-.3.5-.3h1.7s.3.6.4.7c.1.1.1.2.4.2h.7l-2.1-4.1zm558.2 27.1H616c-.2 0-.3.3-.3.3v.6h4.3v-3.4s0-.3-.3-.3h-.6v2.4c.1.5-.2.4-.2.4m-1.2 10.9c-.3-.2-.5-.3-.8-.3-.4 0-.7.2-.9.4-.3.4-.3.8-.3 1.1v2.5c0 .4.3.5.3.5h4v-3.2c0-.4-.1-.8-.3-1-.2-.3-.6-.4-1-.4-.4-.1-.8.1-1 .4"/><path class="st4" d="M616.8 113.8c-.2 0-.2-.2-.2-.3v-1.8c0-.3 0-.4.1-.4 0-.1.2-.2.3-.2s.2 0 .3.1.1.3.1.5v2h-.6v.1zm2.3-2.7c.1.1.1.3.1.5v2.3h-1v-2c0-.5.1-.7.2-.7 0 0 .1-.1.3-.1.2-.2.3-.1.4 0"/><path d="M618.2 95.7v-2.8c0-.2-.2-.2-.2-.2h-.6v3h-.6c-.2 0-.2-.2-.2-.3v-2.7s0-.2-.2-.2h-.6v3.8c0 .4.3.4.3.4h4v-4.1s0-.2-.2-.2h-.6v3.4h-1.1v-.1zm1.1 9.1V103c0-.3 0-1.1-.4-1.2h-.1c-.2 0-.5.1-.5 1.3 0 .6 0 1.1-.2 1.5-.2.5-.5.7-1 .7-.8 0-1.2-.7-1.3-1.8v-2.3h.5c.3 0 .3.3.3.3v1.9c0 .4.1.9.4.9h.1c.1 0 .3-.2.3-1.1v-.1c0-.7.1-1.2.3-1.6.2-.5.6-.7 1.1-.7h.1c.5 0 1.1.3 1.2 2v2.1l-.6.3c0-.1-.2 0-.2-.4m-5-19.3c-.4.4-.4.9-.4.9.4 1 1.1 2.1 1.1 2.1s-.7-1.6-.4-3.1c-.1-.1-.2 0-.3.1"/><path d="M613.8 83.6c-.7.5-.4 1.7-.2 2.5.1-.2.2-1.5 2.1-1 1.1.3 2.5 1.1 2.5 1 .1-.1-3.2-3.3-4.4-2.5m4.5 4.9c0-.2-.1-.4-.3-.6l-.3-.3c-.2-.1-.4-.2-.7-.2-.5 0-.9.2-1.1.6-.2.3-.2.7-.2 1v2.5c0 .3.3.3.3.3h4.1v-.7s0-.2-.3-.2h-1.4v-1.3l1.3-1.2c.1-.1.2-.1.2-.1s.2-.2.2-.5v-.9l-1.8 1.6z"/><path class="st4" d="M617.5 91h-.7s-.2 0-.2-.3V89c0-.2 0-.4.1-.5s.2-.1.3-.1.3 0 .3.1c.1.1.2.4.2.8V91z"/><path d="M615.7 107.4v.4c0 .4.1.4.3.5.5.2 1.4.8 2.3 1.2-.2-.2-.4-.6-.4-1.2l-1-.6 1.3-.6v1.3c.1.8.5 1.1.6 1.3l1 .5s.2.1.2-.1v-.8l-.7-.3s-.3-.1-.3-.5v-1.7s.6-.3.7-.4c.1-.1.2-.1.2-.4v-.7l-4.2 2.1z"/><path class="st2" d="M552.9 162.2v-1.7l5.1.8m-17.6.9v-1.7l-5.1.8m-22.9-47.9h-2.5l1.3 5.1m1.2 19.1h-2.5l1.3-5.2m59.3-19h-1.6l.8 5.1m.8-38.6h-1.6l.8-5.2M552.9 47v-1.7l5.2.9m-5.3-11.9v-1.7l5.2.8m-5.2-19.1v-1.7l5.2.9M540.1 47v-1.7l-5.2.9m-32.2-11.9v-1.7l-5.1.8"/><path d="M136.4 36.7l4.2.6v-1.4zm19.1.6l4.2-.6-4.2-.8z"/><path class="st2" d="M659 111.3h-1.4l.8 4.3m.6-51.3h-1.4l.8-4.3m.6 69.3h-1.4l.8-4.3m-149.3 60.5h-1.9l.9-5.6m1 51.3h-1.9l.9 5.6m14.1-45.6h-1.9l1-5.7m.9 39.4h-1.9l1 5.7m-181.4 8.2l-1.6.9-1.6-5.4m18.3-11.6h-1.9l.9 5.4m1 8.2h-1.9l.9-5.5m95.7-17v1.8l-5.4-.9m-16.4-.9v1.8l5.5-.9m5.4-25.7v1.8l5.5-.9m-58.1-.9v1.8l-5.5-.9m68.1 43l-1.3 1.4-3.6-4.6m-6.1-24.7v1.8l5.5-.9m-26.1-.9v1.8l-5.5-.9m-5.9-.9v1.8l5.5-.9m-16.1-.9v1.8l-5.5-.9m-14.9-.9v1.8l5.5-.9m-370-88.5v-1.6l-4.9.8m20.3.8v-1.6l5 .8"/><path class="st5" d="M558 119.8v46.7m-23-46.9v46.9m45.8-5.2h-40.4m1.5-28.9h-38.3m25.9-13.9h-25.7m7.4-5.1v-5.2m0 29.4v28.3m48.9-47.4h14.8m-14.2-43.8h14.2m-5.2 43.8V74.7m-34.8-2.6V42.4m23.2 3.8h-23.2m23.1 25v-62"/><path class="st6" d="M116.2 66.8h-3.3m16.6 0h-3.3m-10 16.1h-3.3m16.6 0h-3.3m371.4-16.1H136.5m361.1 16.1H136.5"/><path class="st5" d="M1.8 56.2V9m157.9 55.8V33.7"/><path class="st6" d="M89.6 94.4l-2.2.7-2.2.5-2.3.2-2.3.1m0-42.6l2.3.1 2.3.3 2.2.5 2.2.6M36.8 95.9l-.4-.1-.4-.1-.3-.3-.2-.4-.1-.5m0-39.8l.1-.5.2-.4.3-.2.4-.2.4-.1m14.6 12.3l.1-.5.2-.5.4-.5.4-.3.5-.2.5-.1M35.4 74.6V54.7m16 19.9v-9M36.8 53.3h4.1m43.4 10.2l.5.1c1 .3 1.5 1 1.5 2v9M53.5 63.5h30.8m2 20.1v.5l-.2.5-.4.5-.4.3-.5.2-.5.1m-30.8 0l-.5-.1-.5-.2-.4-.3-.4-.5-.2-.5-.1-.5M36.8 95.9h4.1m10.5-21.3v9m2.1 2.1h30.8m2-11.1v9m-50.9-9v19.9m77.5-33.2v11.6m-93.6-5.2v-5.6m-4.5 0v5.6M2.2 74.6V59.4m1.3-1.3h31.9M2.2 59.4l.1-.4.1-.4.3-.2.4-.2.4-.1m11.3 4v-.2l.2-.2.3-.1h3.4l.3.1.2.2.1.2m5.1-.6l-.6-.2-.4-.5-.1-.5.1-.5.4-.4.6-.3.7-.1.8.1.6.3.4.4.1.5-.1.5-.4.5-.6.2-.8.1zM3.5 91.1h31.9M2.2 74.6v15.2m1.3 1.3l-.4-.1-.4-.1-.3-.3-.1-.4-.1-.4M18.7 81l.3.1.2.2.1.2m-4.5 0v-.2l.2-.2.3-.1m-.5 3.3h4.5m-4 3.3l-.3-.1-.2-.2v-.2m4.5-5.6v5.6m-.6.5h-3.4m4-.5l-.1.2-.2.2-.3.1m-3.9-.5v-5.6m.5-.5h3.4m-3.4-12.8l-.3-.1-.2-.2v-.2m4.5-2.8h-4.5m.5 3.3h3.4m.6-.5l-.1.2-.2.2-.3.1m5.7 19.5l-.6.3-.4.4-.1.5.1.5.4.4.6.3.7.1.8-.1.6-.3.4-.4.1-.5-.1-.5-.4-.4-.6-.3-.8-.1zm91.8-26.2v11.4m3.4-11.1v11.1m3.3-10.9v10.9m3.3-10.6v10.6m3.3-10.4v10.4m7-7.3v18.1m-7-10.8h-3.3m3.3 3.4h-3.3m-13.3 0v11.6m3.3-11.6v11.4m3.4-11.4v11.1m-3.4-14.5h-3.3m3.3 3.4h-3.3m10 0v10.9m3.3-10.9v10.6m3.3-10.6v10.4m4.4-23.9l.6.1c1.1.4 1.6.9 1.9 2.1l.1.6m0 18.1l-.1.6c-.3 1.1-.8 1.7-1.9 2.1l-.6.1m-11-13.6v3.4m-3.3-3.4v3.4m-3.4-14.8l10 .8m3.3.2l4.4.3m-4.4 23.9l4.4-.3m-17.7 1.3l10-.8M40.9 53.3v42.6m2.8 0V53.3m-2.8 41.8h2.8m-2.8-41h2.8m0-.8h36.9M43.7 95.9h36.9m9-1.5l17.8-6.1"/><path class="st6" d="M107.4 76.3l-.8.6-.8.6c-2 1.6-3.3 3.8-4.3 6.1l-.8 1.3-1 1.3c-2.3 3.1-4.7 5.5-8.1 7.3l-1.7.8-1.8.6m1.5-40.1l17.8 6.1m0 12l-.8-.6-.8-.6c-2-1.5-3.2-3.9-4.3-6.1l-.8-1.3-1-1.4c-2.1-3-4.8-5.6-8.1-7.3l-1.7-.8-1.8-.6m19.3 34.1V60.9l5.5.4m0 26.6l-5.5.4"/><path d="M159.7 68.1h46.7v13.5h-46.7V68.1z" fill="none" stroke="#1d1d1b" stroke-width=".25" stroke-dasharray="3,1.5"/><path class="st6" d="M119.6 67.1s1.5-.6 3.3 0m-3.3 15.6s1.5.6 3.3 0"/><path class="st5" d="M497.6 62.9V29.3"/><path class="st6" d="M544.4 132.4v-13.6m1.4 0v13.6m.7 0v-13.6m1.2 13.6v-13.6m-24.9-31.6v.1m-.8-.7l.2.4.2.2.4.1m-.7-24l-.1.1"/><path class="st6" d="M522.8 62.7l-.4.1-.2.3-.2.3v23.8m-8-14.8h-2m-7.2 0h-2.1m0 5.2h2.1m7.2 0h2m44.1-2.6v42.5m-1.2 1.3l.4-.1.4-.3.3-.4.1-.5m-9.4 8.2l.2.1c1.3.2 1.9.1 1.3 1.5l-1.5 2.6m-5.1-6.2v.4m.5 5.1l-.5-3.9m.3-1.3l.2 1.2m4.8-2.3v-.2 3m0-3.5l-.2-.1m.2.8v-.7m0 .7h-.2m-4.8 1.1v-.3m-.3 0v.4m.3-.4h-.3m.3.3l.2 1.2m0 4l-.5-3.9m0 0v-1.2l.3-.1m.2-5.2v13.6m.5.3h-.3l-.2-.3h.3m1.6.3h-1.4l-.2-.3h1.4m2.9 0l-.2.3h-.8"/><path class="st6" d="M545.8 132.4l.2.3h.5v-.3m1.2 0v.3h-1.2m-.7-.3h1.9m1-13.6v13.6h-1m1-10.3zm.1.1h.1m-.2-.1zm-2.3 3v3.2m10.5-9.5H536M558.1 75h-23.2m16.8 43.8V75m-10.3 43.8V75m-22.7-11.9V87m-2.1-.2V63.2m-2.6.2v9m-2 14v-8.8m-2.6 8.6V63.8m-2.1.1v22.2m-2.5-13.7v-8.3M502.7 83h2.1m-2.1-16.2h2.1m2.5 16.2h2.1m-2.1-16.2h2.1m2.6 0h2M512 83h2m2.6 0h2.1m-2.1-16.2h2.1m-6.7 5.6v-8.8m2-.2v9m-9.2 0v-8.3m-2.1 8.3v-8.1l-3.9.3-.5.1-.4.3-.3.4v19.2l.3.4.4.3.5.1 3.9.3v-8.1m11.3 0v9m-2-14.2v-8.8m-7.2 14v8.3m30.1 31.6l.1.5.3.4.4.3.5.1m10.3-56.1h-23.7M558.1 75l-.1-1.6c-.7-5.5-5-9.8-10.5-10.5l-1.6-.1m-11 32.2l-.1-1.3c-.5-3.2-3.2-5.9-6.4-6.4l-1.2-.1m-5.2 0l-8-.6m8.8-23.9l-8.8.7m-2 .2l-7.2.5m7.2 22.3l-7.2-.5"/><path class="st5" d="M558 33.4h-60.4"/><path class="st6" d="M534.9 75v42.5M546.1 75h-.5m-18.4 12.2H522m74.5 27.4v.1m1.2 1.3l-.5-.1-.4-.3-.3-.4v-.5m4.8 1.3h-3.6m38.7 0h-3.6m11.3-43.8h-10.3"/><path class="st5" d="M617.1 120.8v3.2"/><path class="st6" d="M645.4 114.7V73.5M590 116h54.1m0 0l.5-.1.4-.3.3-.4.1-.5m0-41.2l-.1-.5-.3-.5-.4-.2-.5-.1m-54.1 0h10.3m-11.6 1.3v41.2l.1.5.3.4.4.3.5.1m0-43.8l-.5.1-.4.2-.3.5-.1.5m47.7 42.5l.5-.1.4-.3.3-.4V73.5m-41.1 41.1V73.5m41.1 0V73l-.3-.5-.4-.2-.5-.1m-38.7 0l-.5.1-.4.2-.3.5v.5m48.9-1.3h-10.3m7.6 43.8v7.7m-4.9 0V116m3.3 7.7l-3.3-.9m4.9.4l-4.9-1.3m4.9.2l-4.9-1.3m4.9.3l-4.9-1.3m4.9.4l-4.9-1.3m4.9.2l-4.9-1.3m4.9.3l-4.9-1.3m4.9.4l-4.3-1.2m4.3.1l-.4-.1m-.4 8.5h-3.3l-.8-.8"/><path class="st6" d="M641.9 124.5l.8-.8h-4.9m-10.4-7.7h-20.6m27-43.8l-.2-2c-3.7-13.7-29.5-13.7-33.1 0l-.2 2m45.1 0h-10.3m1.3-7.7l-1.3 1.2v6.5m9-7.7l1.3 1.2v6.5m-1.3-7.7h-2.6m-5.1 0h2.5v3.8m2.6-3.8v3.8h-2.6M599 72.2h-10.3m7.6 43.9v7.5m-4.9 0V116m3.3 7.6l-3.3-.8m4.9.3l-4.9-1.3m4.9.3l-4.9-1.3m4.9.3l-4.9-1.3m4.9.3l-4.9-1.3m4.9.3l-4.9-1.3m4.9.3l-4.9-1.3m4.9.3l-4-1.1m4 .1l-.1-.1m-.7 8.4h-3.3l-.8-.8"/><path class="st6" d="M595.5 124.4l.8-.8h-4.9m7.6-51.4h-10.3m1.3-7.8l-1.3 1.3v6.5m9.1-7.8l1.2 1.3v6.5m-1.2-7.8h-2.7m-5.1 0h2.6v3.9m2.5-3.9v3.9h-2.5"/><path d="M616.8 120.7v3.2" fill="none" stroke="#1d1d1b" stroke-width=".24" stroke-linecap="round" stroke-linejoin="round" stroke-miterlimit="10"/><path class="st9" d="M602.3 116v13.4m28.9 0V116M617 127.1v.2m1.1-.2v.2m-1.1-10.5v5.7m1.1 0v-5.7H617m0 5.7v.4m1.1 0v-.4H617m0 .4v.2"/><path class="st9" d="M618.1 123.1v-.2H617m0 1.4v2.8m1.1-2.8v2.8H617m0-3.4v.6h1.1v-.6m-1.1-.2v.2h1.1v-.2m-1.1-.4h1v.4h-1zm12 4v.2m1.1-.2v.2m-1.1-10.5v5.7m1.1 0v-5.7H629m0 5.7v.4m1.1 0v-.4H629m0 .4v.2m1.1 0v-.2H629m0 1.4v2.8m1.1-2.8v2.8H629m0-3.4v.6h1.1v-.6m-1.1-.6v.4m1.1 0v-.4H629m0 .6v-.2h1.1"/><path class="st9" d="M629 123.7h1.1v-.2m-1.1-6.6v11m-12-11v11m1.1 0v-11m12 11v-11m2.1 12.5l-.2.3h-.8v-.3m0 .3h-28.9v-.3m-1 0l.3.3h.7m-1-13.7v13.4h1m28.9 0h1V116"/><path class="st9" d="M629.8 128h-.5l-.3-.1-.1-.3v-10.5l.1-.2.3-.1h.5l.3.1.1.2v10.5l-.1.3zm-12.9-.4v-10.5l.1-.2.3-.1h.5l.3.1.1.2v10.5l-.1.3-.3.1h-.5l-.3-.1zm-14.6 1.8h28.9m-5.6-10.1h.3l.2.2.2.3v.2m-.7 6.1l-.3-.1-.3-.1-.1-.2-.1-.4m-3.3-6h.3l.3.2.1.3.1.2m-15.7 6.1l-.3-.1-.3-.1-.1-.2-.1-.4m15.7.8l-.3-.1-.2-.1-.2-.2v-.4m-14.2-6h.3l.2.2.2.3v.2m18.3-.6v-.1m-.8.7l.1-.2.1-.3.3-.2h.3m-4.1 6.7v.1m.8-.8l-.1.4-.1.2-.3.1-.3.1m4.1 0v-.1"/><path class="st9" d="M626.3 125.3v.4l-.2.2-.2.1-.3.1m-4.1-6.8v.1m-.7.6v-.2l.2-.3.2-.2h.3m-14.9 6.7v.1m.7-.8v.4l-.2.2-.2.1-.3.1m0-6.7v-.1m-.8.7l.1-.2.1-.3.3-.2h.3m18.3 6h-.1m.1-5.3h-.1v5.3m-2.6-5.3h.1m-.1 5.3h.1V120m3.9 0h.1m-.1 5.3h.1V120"/><path class="st9" d="M624.9 120v5.3l.2.5.5.2.4-.2.2-.5V120l-.2-.4-.4-.2-.5.2zm-2.7 0l-.2-.4-.5-.2-.4.2-.2.4m0 5.3l.2.5.4.2.5-.2.2-.5V120m-1.4 0h.1v5.3h-.1zm-13.6 0h.1m-.1 5.3h.1V120m-.7 6l.4-.2.2-.5V120l-.2-.4-.4-.2-.4.2-.3.4m0 5.3l.3.5.4.2m-.8-6h.1v5.3h-.1zm11.2 7.3h1.1m10.9 0h1.1"/><path class="st5" d="M648.3 115.6h14.3M623.1 60h39.5m-4.2 51.3v-47"/><path class="st6" d="M627.4 116V84.2l-.1-.6m-20.5 0V116m20.5-32.4l-.2-.6-.5-.6-.5-.4-.6-.3h-16.9l-.6.3-.5.4-.5.6-.2.6"/><path class="st5" d="M658.4 143v-13.7m-13.1-4.7h17.3"/><path class="st6" d="M557.2 197.3v2.9m0 1.7v3.2m0 1.6v3.2m0 1.6v3.2m0 1.7v2.9m0-22h.8m0-5.8V225m-.8-5.7h.8m-11.5-12.9h-.1v-3.1m1.1 15h.2m-.2.4h.2m-2 0h.3m-.4-.1h.4m-.4-.1h.4m0 .2v-.4m1.5 0h-1m0 .4h1v-.4m-1.3.4h-.2v-.4m.2.4h.3v-.4"/><path class="st6" d="M546.3 218.3h-.1v.4m1.3-3.3h.2m-.2-.4h.2m-2 0h.3m-.4.1h.4m-.3.3h.3m-.4-.1h.4m0 .1h-.1m.1-.4h-.1m.1.4h-.1m.1-.4v.4m.5 0h1m-1-.4h1v.4m-1.5 0h.2m0-.4h-.2v.4m.2-.4h.3v.4h-.3zm1.3-3.3h.2m-.2.4h.2m-2-.4h.3m-.4.1h.4m-.3.3h.3m-.4-.2h.4m0-.2h-.1m.1.4h-.1m.1-.4h-.1m.1.4v-.4m1.5 0h-1m0 .4h1v-.4m-1.5 0h.2m0 .4h-.2v-.4m.2 0h.3m-.3.4h.3v-.4m-.3.4v-.4m1.3-10.6h.2m-.2.4h.2m-2.1-.3h.4m-.3.3h.3m-.4-.1h.4m0 .1v-.4m1.5 0h-1m0 .4h1v-.4m-1.3.4h-.2v-.4m.2.4h.3v-.4m-.2 0h-.1v.4m1.3-3.8h.2m-.2.4h.2m-2 0h.3m-.4-.1h.4m-.3-.3h.2m-.3.2h.4m0 .2v-.4m1.5 0h-1m0 .4h1v-.4m-1.5 0h.2m0 .4h-.2v-.4m.2.4h.3v-.4"/><path class="st6" d="M546.3 197.7h-.1v.4m1.3-3.7h.2m-.2.4h.2m-2.1-.3h.4m-.3.3h.3m-.4-.1h.4m0 .1v-.4m1.5 0h-1m0 .4h1v-.4m-1.3.4h-.2v-.4m.2 0h.1m-.1.4h.3v-.4m-.3.4v-.4m1.5 5h-.2m.2.4h-.2m-1.5 0h-.3m.3-.1h-.4m.4-.3h-.3m-.1.2h.4m0-.2h-.1m.1.4h-.1m.1-.4h-.1m.1.4v-.4m1.5 0h-1m0 .4h1v-.4m-1.3 0h-.2m.2.4h-.2v-.4m.5 0h-.3m0 .4h.3v-.4m-.3.4v-.4m1.5 17.3h-.2m.2.4h-.2m-1.5 0h-.3m.3-.2h-.4m.4-.2h-.3m-.1.1h.4m0-.1h-.1m.1.4h-.1m.1-.4h-.1m.1.4v-.4m1.5 0h-1m0 .4h1v-.4m-1.3 0h-.2m.2.4h-.2v-.4m.2 0h.3v.4h-.3zm1.3-3.4h.2m-.2.4h.2m-2-.4h.3m-.4.2h.4m-.3.2h.3m-.4-.1h.4m0-.3h-.1m.1.4h-.1m.1-.4h-.1m.1.4v-.4m1.5 0h-1m0 .4h1v-.4m-1.5 0h.2m0 .4h-.2v-.4m.2 0h.3v.4h-.3zm.3-13.5h.5m-.5 1.2h.5m0-6.6h-.5m.5 5h-.5m0-2.9h.5m-.5 1.6h.5m-.5-3.3h.5m0 2.9h-.5m.5 3.8h-.5m.5-5.5h-.5m0 6.7h1.7m-.7-9.5h-1m1.7 9.5v-8.9l-.1-.3-.2-.3h-.4m-.5 1.2h-.1m.1 1.7v-.1m0 .5h-.1m.1 1.2h-.1m.1.4h-.1m.1 1.3h-.1m.1 1.7v-.1m0 .5h-.1m.1 17.3h-.5m0-1.7h.5m-.5 1.2h.5m0-1.7h-.5m0-2.9h.5m0 1.2h-.5m0-2.8h.5m0 1.2h-.5m.5-1.7h-.5m0 3.8h.5m1.2 4.6v-9.6m-1.2 7.9h-.1m.1.5v-.1m0-7v-.1m0 .5h-.1m.1 1.2h-.1m.1 1.7v-.1m0 1.8v-.1m0 .5h-.1m-.7 0h.3m-.3 1.2h.3v-1.2m0-14.4v-1.2h-.3m0 21.7l.2.2.2.1m-.1-3.5h1.7m-2-20.2h.3m-.3 1.2h.3v-1.2m-.3 13.5h.3v-1.2h-.3m0-.5h.3v-1.2m-.3-11h.3v-1.3h-.3m0 18.5h.3v-1.2h-.3m0-19.4h.3v-1.2h-.3m0 20.1h.3v-1.2h-.3m2-3.3v-3.5m-3.3 15l1.3 1.3.1-.1m-.1-13l.3.3h1.7l-.3-.3m-1.7-12.4h.3v-1.2h-.3m-.9-3.3h-.3l-.3.3v.3m1.8-.6h-1.2v.2m-.6 28.1v.3l.2.1.2-.1m-.2-13.3l1.3-1.4m2 15.7V220l-.3.2m-3.2-11.3v12.6h.2m-.2-19.4v.2l.3.3.3.1m2.2 20.8l.4-.2.2-.2.1-.3h-.3"/><path class="st6" d="M544.9 193.8h-.2v8.3h.2m1.7 4.8h1.6l-.3.3m-1.3-.3l-.2.1-.2.1.1.2m.3-.4v.3m-1.3-4.5h1.2l-.3-.2m-.9 0v.2m2.2 20.8v-.3m-.9 0v.3h.9m-2.4-14.9l-.2-.1-.2.4h.2m1.3-14.5h.3v-1.2l-.3.2"/><path class="st6" d="M545.3 194.4h.9v-1h-.9l-.2.1-.2.3v8.3l.2.2.2.2h.9v-1h-.9v-.5h.9v-1.2h-.9v-.4h.9v-1.3h-.9v-.4h.9v-1.2h-.9v-.5h.9v-1.2h-.9zm1.2 24.4h-.3m0 1.4l.3-.2v-1.2"/><path class="st6" d="M545.3 211.6h.9v-1.5h1.7v-2.9h-1.3l-.3.1-1.2 1.3-.2.3v12.6l.2.3 1.2 1.3.3.1h.9l.3-.1.1-.3v-2.6h-1.7v-1.4h-.9v-.5h.9v-1.2h-.9v-.5h.9v-1.2h-.9v-.5h.9v-1.2h-.9v-.4h.9v-1.2h-.9zm-.3-19h.1m3.7 4.7v.6m0-.6v-.1m0 15.3v.6m0-.6v-.1m0 4.8v.6m0-4.7v.6m0-.6h-.1m.1-15.2v.6m0-.6h-.1m0 19.3h.1m0-.6v.6m-4.8-18.6h-.4m.4-1.3h-.4v1.3m.4 19.2h-.4m.5 1.2h-.5v-1.2m.5 1.2v-1.2m0-20.5v1.3m2.4 7.8h-.4l-.3.3.1.2m-1.5 1.2l1.4-1.4m-1.4 8.5h-.3v-6.4m4.6-15.2v-.4l-.2-.3-.4-.3h-.4m-3.6 9.6l.1.4.2.3.3.3.4.1m2.6 20.7l.4-.1.4-.2.2-.3v-.4h-.2m.2 0v-29.4h-.2m-3.9 14.6l-.2-.1-.2.3-.1.4h.3m1.4 14.9l.3.2.4.1m1.2-31.1v-.3h-2.6m1.4 31.2v.2h1.2v-.2m-3.6-30.2v8.6h.3"/><path class="st6" d="M545.1 192.9v-.3h-.4l-.3.3-.2.3-.1.4h.3m0 28.7l1.4 1.4.1-.2m-1.8-1.9l.1.4.2.3.2-.2m-.2-6.9h-.3v6.4h.3m2.9-15.8v-2m-.5 2.6l.2-.1.3-.2v-.3h.3m-.8.8v-.2h-.3v.2m-1.4-3.6v.3h1.7m.5.5v-.3l-.3-.2h-.2m.5.5h.3m-.8-.8v.3m-.6 20l-1.5-1.3"/><path class="st6" d="M546.8 206.6h-.3l-.3.1-.3.2-1.3 1.3-.2.6v6.4h.2v-6.4l.1-.4 1.5-1.4.3-.1h.3l.4-.1.3-.2.2-.4.2-.4v-2l-.2-.4-.2-.3-.3-.3h-2.1"/><path class="st6" d="M544.6 202.2l.1.4.4.2m-.5-.6v-8.6m.5-.5l-.4.1-.1.4m.5-.5h2.6m.5.5l-.1-.4-.4-.1m.5.5V223m-.5.5l.4-.2.1-.3m-.5.5h-1.2l-.3-.2"/><path class="st6" d="M544.7 222l-.1-.4v-6.4h-.2v6.4l.2.5 1.3 1.4.3.2.3.1h1.2l.4-.1.3-.3.1-.4v-29.4l-.1-.4-.3-.2-.4-.1h-2.6l-.4.1-.2.2-.1.4v8.6l.1.4.2.3.4.1h1.7"/><path class="st6" d="M547.6 203.8l-.1-.4-.3-.3-.4-.1m.8.8v2m-.8.8l.4-.1.3-.3.1-.4m-.1-9.7h.2m-.2.4h.2m-2-.4h.3m-.4.1h.4m-.3.3h.3m-.4-.2h.4m0-.2h-.1m.1.4h-.1m.1-.4h-.1m.1.4v-.4m1.5 0h-1m0 .4h1v-.4m-1.5 0h.2m0 .4h-.2v-.4m.2 0h.3m-.3.4h.3v-.4m-.3.4v-.4m1.5 22.6v-.4m-1.7 0v.4m1.7-3.3v-.4m-1.7 0v.4m1.7-3.3v-.4m-1.7 0v.4m1.7-10.6v-.4m-1.7 0v.4m1.7-3.4v-.4m-1.7 0v.4m1.7-3.3v-.4m-1.7 0v.4m1.7 5v-.4m-1.7 0v.4m1.7 17.3v-.4m-1.7 0v.4m1.7-3.4v-.4m-1.7 0v.4m2.7 4.3l.1-.1m-.1-19.2l.1-.1m-.1 15.3l.1-.1m0-16.6h-.1m.1 15.2h-.1m0 5.6h.1m0-4.1v-.1m-.1.1h.1m0-15.3l-.1.1m.1-.1v-.1m0 18.1l-.1-.1m-1-20v-.4m-1.7 0v.4m.4 26.3v-3.2m0-3.2v-16.2m0-3.2v-3.2m1.3 14.5h-3.2m1.9 20.6l-.7.1-.6.2c-2 1.3-1.6 4 .6 4.7l.7.1.7-.1c2.3-.7 2.5-3.6.6-4.7l-.6-.2-.7-.1z"/><path class="st6" d="M541.3 232.3l.3 1c1.8 4.4 7.9 4.4 9.7 0l.3-1m-.1-48.1l-.3-1c-1.8-4.4-7.8-4.4-9.7 0l-.3 1"/><path class="st6" d="M546.4 182.5l-.7.1-.6.3c-2 1.3-1.6 4 .6 4.7l.7.1.7-.1c2.3-.7 2.6-3.6.6-4.7l-.6-.3-.7-.1zm11.6 9l-.1-.8-.3-.8-.4-.7-.6-.7-.7-.4-.8-.3m0 41l.8-.3.7-.5.6-.6.4-.7.3-.8.1-.9"/><path class="st6" d="M555.9 228.5l-1 .3c-1.5.4-3.2 2.1-3.5 3.6l-.2 1m0-50.2l.2 1c.4 1.5 2 3.3 3.5 3.7l1 .2m-21.1 3.4V225m3-37.2l-.9.3-.7.4-.6.7-.4.7-.3.8-.1.8m0 33.5l.1.9.3.8.4.7.6.6.7.5.9.3"/><path class="st6" d="M541.6 233.4l-.2-1c-.6-1.8-1.8-3-3.5-3.6l-1-.3m0-40.4l1-.2c1.7-.5 3-2 3.5-3.7l.2-1"/><path class="st5" d="M546.6 179.9h-44.2m5.7 5.6v45.7m38.5-45.7h-31m5.7 5.7v33.7m24.3 6.6h-31m32 5.4h-44.2"/><path class="st6" d="M339.5 230.8H329m10.5-2.7H329m5.2 6.8l1-.1 1-.3c5-2.1 4.3-9.3-1-10.4l-1-.1-1 .1c-5.3 1.1-6 8.3-1 10.4l1 .3 1 .1z"/><path class="st6" d="M338.1 228.1l-.4-.8c-1.7-2.6-5.2-2.6-6.9 0l-.4.8m0 2.7l.4.9c1.6 2.5 5.3 2.5 6.9 0l.4-.9"/><path class="st5" d="M347.7 256.3l-8.6-17"/><path class="st6" d="M334.2 229.3v.4m-.2-.2h.5"/><path class="st5" d="M342.5 228.1h17m-17 2.7h17m-5.5-8.1v-5.5"/><path d="M354 236.3v12.1" fill="none" stroke="#1d1d1b" stroke-width=".25"/><path class="st6" d="M388.9 225h22.7m0 5.3h-22.7m0-8.1v10.9m-8.2-1.3l1.4 1.3h6.8m-8.2-9.5l1.4-1.4m52.1 2.9h9.3m0 5.2h-9.3m9.3-3.6l-.9 3.6m.2-5.2l-1.3 5.2m.3-5.2l-1.4 5.2m.4-5.2l-1.4 5.2m.3-5.2l-1.4 5.2m.3-5.2l-1.4 5.2m.4-5.2l-1.4 5.2m.3-5.2l-1.4 5.2m.4-5.2l-1.3 4.6m.2-4.6l-.2.7m-.8 3.8h-21.8m0-3.8h21.8m-21.8 4.5V225m22.6 5.3l-.8-.7m0-3.8l.8-.7v5.2m-.8-4.5v3.8m10.9-3.7v3.5l-.8.9m.8-4.4l-.8-.8v5.2"/><path class="st5" d="M433.4 223v-13.8m-1.2 5.5h40m-44.3 0h-5.4m21.8 8.5v-35.8m-63.6 33.5v-33.5m58.1 2.5h-52.6"/><path class="st6" d="M388.9 222.2h-6.8m-1.4 1.4v2.7m0 5.5V229h4.1m-4.1-2.7h4.1v2.7"/><path class="st5" d="M411.4 222v-17.8M389 220.1v-15.8m48.8 1.6h-20.6m-11.4 0h-10.6m-20.4 0h-16.3m87.9 26l8 7h4.6M5.4 131.7v-17.6m25.3 17.6v-17.6m-20.4 2.5h15.4"/><path class="st6" d="M30.8 162.6V136M5.3 162.6V136m0 26.6l.1 1.3c.7 3.7 3.3 6.4 7.1 7.1l1.3.1m8.5 0l1.3-.1c3.6-.5 6.5-3.5 7.1-7.1l.1-1.3m-17 8.5h8.5m8.5-35.1l-.1-1.3c-.5-3.6-3.5-6.5-7.1-7.1l-1.3-.1m-8.5 0l-1.3.1c-3.8.7-6.3 3.4-7.1 7.1l-.1 1.3m8.5-8.5h8.5"/><path class="st5" d="M7 13.3h546.8"/><path d="M12.5 133.3h4.7v32.1h-4.7v-32.1z" fill="#136db4"/><path d="M17.6 153.5v-2.8m0 6.3v-.1m0 .8v-.7m0 .8v-.1m0 2.9v-2.8m0-17V138m0 2.9v-.1m0 .8v-.7m0 .8v-.1m0 6.3v-2.8m.5 3.4h-.6m1.1 0h-.5m0 1.7h-.6m1.1 0h-.5m-.6.5h.1m0 2.8h-.1m.6.6h.5m-1.1 0h.6m0 1.7h-.6m1.1 0h-.5m-.6 1.1h.1m0 .1h-.1m0 .7h.1m-.1.1h.1m0 2.8h-.1m.6-.8h.5m-.8 0h.3m.5 1.7h-.5m0 0h-.6m.6-24.4h-.6m1.1 0h-.5m0 1.7h.5m-.8 0h.3m-.6-.8h.1m0 2.8h-.1m0 .1h.1m-.1.7h.1m0 .1h-.1m.6 1.1h-.6m1.1 0h-.5m0 1.7h.5m-1.1 0h.6m-.6.6h.1m0 2.8h-.1m.6 2.3l.2-.2m0-1.4l-.2-.1m.7.1l-.2-.1m0 1.7l.2-.2m0 4.3l-.2-.2m0 1.7l.2-.1m-.7-1.6l.2.2m-.2 1.5l.2-.1m.5 4.2l-.2-.1m0 1.7l.2-.2m-.7-1.5l.2.1m-.2 1.6l.2-.2m-.2-22.5l.2-.1m0-1.4l-.2-.2m.7.2l-.2-.2m0 1.7l.2-.1m-.7 5.8l.2-.1m0-1.5l-.2-.1m.7.1l-.2-.1m0 1.7l.2-.1m.8 5.6h.4m-1.9 0h1.5m-1.9 0h.4m0-1.4h-.4m1.9 0h-1.5m1.9 0h-.4m0 1.4v-1.4m-1.5 5.7h-.4m1.9 0h-1.5m1.9 0h-.4m0 1.4v-1.4m.4 1.4h-.4m-1.5 0h1.5m-1.9 0h.4m0 4.2h-.4m1.9 0h-1.5m1.9 0h-.4m0 1.4v-1.4m.4 1.4h-.4m-1.5 0h1.5m-1.9 0h.4m1.5-22.6h.4m-1.9 0h1.5m-1.9 0h.4m0-1.4h-.4m1.9 0h-1.5m1.9 0h-.4m0 1.4v-1.4m0 7.1h.4m-1.9 0h1.5m-1.9 0h.4m0-1.5h-.4m1.9 0h-1.5m1.9 0h-.4m0 1.5v-1.5m-1.5 5.7c-.3 0-.5.3-.5.7s.2.7.5.7m-.6-.1c.1 0 .2.1.2.1m0-1.4c-.1 0-.2 0-.2.1m0 6.9c.1 0 .2.1.2.1m0-1.4c-.1 0-.2 0-.2.1m.6-.1c-.3 0-.5.3-.5.7s.2.7.5.7m-.6 5.6c.1 0 .2.1.2.1m.4-1.5c-.2 0-.4.2-.5.4m0 .3c0 .4.2.7.5.7m-.5-23c.1.3.3.5.5.4m0-1.4c-.3 0-.5.3-.5.7m0 .7c.1 0 .1 0 0 0m.1-1.4c-.1 0-.2 0-.2.1m.6 5.5c-.3 0-.5.3-.5.7s.2.7.5.7m-.6 0c.1 0 .2.1.2.1m0-1.5c-.1 0-.2 0-.2.1m2.5 7v-1.4m0 7.1v-1.4m0 7v-1.4m0-21.2v-1.4m0 7.1v-1.5m-2.2 3c0-.1-.1-.1-.1-.1m.1 1.2v-1.1m-.2 1.3c.1 0 .1-.1.1-.1m-.1-7c.1 0 .1-.1.1-.1m.1-1.2c0-.1-.1-.1-.1-.1m.1.1v1.2m0 11.6c0-.1-.1-.1-.1-.1m.1 1.2v-1.1m-.2 1.2c.1 0 .1-.1.1-.1m.1 5.9c0-.1-.1-.1-.1-.1m-.1 1.4c.1 0 .1-.1.1-.1m.1 0v-1.2m5.1 6.7h-4.8m0-32h4.8m0 32l-.2-.5m0 0h-4.6m5.4 0l-.6.5m0-32l.6.5m-.8 0l.2-.5m-4.8.5h4.6m.8 28.7v2.3m0-17.3v3.6m0-17.3v2.3m-10.9 28.7v-31m10.3 30.7l-.2.3m.2-2.3v2m-5.4-2h5.4m.6 2.3l-.6-.3m0-30.4l.6-.3m-.8 0l.2.3m0 2h-5.4m5.4-2v2m.6 26.4h-.6m.1-3.8h-.9m0-1.8h.9m0-15.2h-.9m0-1.8h.9m-.1-3.8h.6m-5.7 22.6h4.3m0-18.8h-4.3m-.3 1.8h4.6m1.4 3.9h-5.9m0 1.8h5.9m0 3.8h-5.9m0 1.9h5.9m-1.4 3.8h-4.6m-4.3-23.6l-.6.5m4.6-.5h-4m4 32v-32m-4 32h4m-4.6-.5l.6.5m4.3-2.3v-27.4m4.6 21.3v1.8m.4-11.2v3.6m-.4-11.2v1.8m1.4 17.9v2.9m0-26.4v2.9m0 3.6v3m0 0v1.8m0 3.7v.1m-1-.1h1m0-3.6h-1m1-.1v.1m0 3.7v1.9m0 0v2.9m-5.4 7h-.6m.6 2.3V163m-.9 2.3h.9m0-32h-.9m.9 2.3v-2.3m-.6 2.3h.6m6.3 29.3v-31.1m-.2 31.1v-31.1m.2 31.1h-.2m0-31.1h.2M23 166.3c.8 0 1.4-.6 1.4-1.4m0-31.1c0-.8-.6-1.4-1.4-1.4m.6 1.4v31.1m-.6-31.7h-9.9m10.5.6c0-.3-.3-.6-.6-.6m0 32.2c.3 0 .6-.3.6-.6m-10.5.6H23m-10.5-31.6v31.1m-.5 0v-31.1m0 31.1c0 .6.5 1.2 1.2 1.2m9.8-.1h-9.9m9.9 0c.6 0 1.2-.5 1.2-1.2m0-31c0-.6-.5-1.2-1.2-1.2m-9.9 0H23m-9.9 0c-.6 0-1.2.5-1.2 1.2M23 166.3v-.3m0-33.4v-.3m-9.9 34H23m-9.9-34H23m.6 6.6l-.2.3m-.4 2.5c0 .3.2.6.3.8M23 140v1.7m.4-2.5c-.2.2-.4.5-.3.8m.3 2.4l.2.3m-.1 8.3h.1m0-3.4h-.1m-.1 8.6l.2-.3m-.2.3c-.2.2-.4.5-.3.8m.3 2.4l.2.3m-.6-1.1c0 .3.2.6.3.8M23 157v1.6m-11.3-24.8h.3m-.3 31.1v-31.1m.3 31.1h-.3m0 0c0 .8.6 1.4 1.4 1.4m0-.3v.3m0-34v.3m0-.3c-.8 0-1.4.6-1.4 1.4m.8 31.2c0 .3.3.6.6.6m0-32.3c-.3 0-.6.3-.6.6" stroke="#000" stroke-width=".25" fill="none" stroke-linecap="round" stroke-linejoin="round"/></g><g id="Text"><text transform="translate(181.041 10.254)" class="st13 st14">Length (in m) depending on order number</text><text transform="translate(558.79 159.047)" class="st13 st14">8.5±0.3</text><text transform="rotate(90 186.133 328.091)" class="st13 st14">5.4</text><text transform="translate(532.284 43.99)" class="st13 st14">9±0.3</text><text transform="rotate(90 245.031 326.74)" class="st13 st14">17±0.3</text><text transform="rotate(90 181.162 337.27)" class="st13 st15">+0.2</text><text transform="rotate(90 177.662 334.77)" class="st13 st15">-0</text><text transform="translate(77.425 34.462)" class="st13 st14">36.5±0.3</text><text transform="translate(166.19 38.232)" class="st13 st14">(30)</text><text transform="translate(.87 33.838)" class="st13 st14">11.75</text><text transform="translate(26.094 28.85)" class="st13 st15">+0.2</text><text transform="translate(27.118 34.945)" class="st13 st15">-0.0</text><text transform="translate(509.296 31.316)" class="st13 st14">23.5±0.3</text><text transform="translate(161.548 74.002)" class="st13 st15">20000</text><text transform="translate(181.503 74.002)" class="st13 st15">XXXXX</text><text transform="translate(161.548 80.001)" class="st13 st15">xx.xM XYZ</text><text transform="rotate(90 297.178 363.117)" class="st13 st14">21.75±0.3</text><text transform="rotate(90 266.708 394.356)" class="st13 st14">(3.3)</text><text transform="rotate(90 164.966 357.932)" class="st13 st14">18±0.3</text><text transform="rotate(90 158.542 351.38)" class="st13 st14">22±0.3</text><text transform="translate(346.91 263.137)" class="st13 st14">Ø4</text><text transform="rotate(90 56.678 299.831)" class="st13 st14">1</text><text transform="translate(393.446 187.986)" class="st13 st14">23.3±0.2</text><text transform="translate(450.69 212.603)" class="st13 st14">4±0.2</text><text transform="translate(459.846 241.316)" class="st13 st14">M2 x 0.4</text><text transform="translate(415.946 203.486)" class="st13 st15">12±0.2</text><text transform="translate(389.071 203.236)" class="st13 st15">8.3±0.2</text><text transform="translate(349.696 204.11)" class="st13 st14">3±0.2</text><text transform="translate(5.795 114.24)" class="st13 st14">9±0.3</text><text transform="translate(4.759 200.5)" class="st13 st14">Length Tolerances</text><text transform="translate(4.759 224.5)" class="st13 st14">&lt;150 mm:</text><text transform="translate(52.259 224.5)" class="st13 st14">± 10</text><text transform="translate(4.759 236.5)" class="st13 st14">≥</text><text transform="translate(10.259 236.5)" class="st13 st14">150 mm &lt;250 mm:</text><text transform="translate(96.659 236.5)" class="st13 st14">± 15</text><text transform="translate(4.759 248.5)" class="st13 st14">≥</text><text transform="translate(10.259 248.5)" class="st13 st14">250 mm &lt;500 mm:</text><text transform="translate(96.659 248.5)" class="st13 st14">± 20</text><text transform="translate(4.759 260.5)" class="st13 st14">≥</text><text transform="translate(10.259 260.5)" class="st13 st14">500 mm &lt;100 mm:</text><text transform="translate(96.659 260.5)" class="st13 st14">± 30</text><text transform="translate(4.759 272.5)" class="st13 st14">≥</text><text transform="translate(10.259 272.5)" class="st13 st14">1000 mm &lt;5000 mm:</text><text transform="translate(107.759 272.5)" class="st13 st14">± 50</text><text transform="translate(4.759 284.5)" class="st13 st14">≥</text><text transform="translate(10.259 284.5)" class="st13 st14">5000 mm:</text><text transform="translate(57.459 284.5)" class="st13 st14">± 100</text></g></svg>