<svg version="1.1" id="Layer_1" xmlns="http://www.w3.org/2000/svg" xmlns:xlink="http://www.w3.org/1999/xlink" x="0" y="0" viewBox="0 0 768 576" style="background-color:#fff" xml:space="preserve"><style>.st1{fill:#fff}.st2{stroke-opacity:.15;stroke-dasharray:42.6667,0}.st2,.st3{fill:none;stroke:#262626;stroke-width:2.6667;stroke-miterlimit:5.3333}.st4{fill:#262626}.st5{font-family:Helvetica,Arial,sans-serif}.st6{font-size:18px}.st8,.st9{fill:none;stroke:#0071bc;stroke-width:2.6667;stroke-linejoin:round;stroke-miterlimit:5.3333}.st9{stroke:#d85218}.st12{font-size:14px}</style><path shape-rendering="crispEdges" class="st1" d="M99.8 512.6H695V43.2H99.8v469.4z"/><path class="st2" d="M99.8 512.6V43.2m119.1 469.4V43.2m119 469.4V43.2M457 512.6V43.2m119 469.4V43.2m119 469.4V43.2"/><path class="st3" d="M99.8 512.6v-6m119.1 6v-6m119 6v-6m119.1 6v-6m119 6v-6m119 6v-6"/><text transform="translate(78.507 541.31)" class="st4 st5 st6">1</text><text transform="translate(89.174 541.31)" class="st4 st5 st6">0</text><text transform="translate(99.84 541.31)" class="st4 st5 st6">0</text><text transform="translate(110.507 541.31)" class="st4 st5 st6">0</text><text transform="translate(197.547 541.31)" class="st4 st5 st6">2</text><text transform="translate(208.214 541.31)" class="st4 st5 st6">0</text><text transform="translate(218.88 541.31)" class="st4 st5 st6">0</text><text transform="translate(229.547 541.31)" class="st4 st5 st6">0</text><text transform="translate(316.587 541.31)" class="st4 st5 st6">3</text><text transform="translate(327.254 541.31)" class="st4 st5 st6">0</text><text transform="translate(337.92 541.31)" class="st4 st5 st6">0</text><text transform="translate(348.587 541.31)" class="st4 st5 st6">0</text><text transform="translate(435.627 541.31)" class="st4 st5 st6">4</text><text transform="translate(446.294 541.31)" class="st4 st5 st6">0</text><text transform="translate(456.96 541.31)" class="st4 st5 st6">0</text><text transform="translate(467.627 541.31)" class="st4 st5 st6">0</text><text transform="translate(554.667 541.31)" class="st4 st5 st6">5</text><text transform="translate(565.334 541.31)" class="st4 st5 st6">0</text><text transform="translate(576 541.31)" class="st4 st5 st6">0</text><text transform="translate(586.667 541.31)" class="st4 st5 st6">0</text><text transform="translate(673.707 541.31)" class="st4 st5 st6">6</text><text transform="translate(684.374 541.31)" class="st4 st5 st6">0</text><text transform="translate(695.04 541.31)" class="st4 st5 st6">0</text><text transform="translate(705.707 541.31)" class="st4 st5 st6">0</text><path class="st2" d="M99.8 485H695M99.8 416H695M99.8 347H695M99.8 277.9H695m-595.2-69H695M99.8 139.8H695m-595.2-69H695"/><path class="st3" d="M99.8 485h6m-6-69h6m-6-69h6m-6-69.1h6m-6-69h6m-6-69.1h6m-6-69h6"/><text transform="translate(62.499 492.358)" class="st4 st5 st6">-</text><text transform="translate(69.166 492.358)" class="st4 st5 st6">1</text><text transform="translate(79.832 492.358)" class="st4 st5 st6">5</text><text transform="translate(62.499 423.324)" class="st4 st5 st6">-</text><text transform="translate(69.166 423.324)" class="st4 st5 st6">1</text><text transform="translate(79.832 423.324)" class="st4 st5 st6">0</text><text transform="translate(73.166 354.288)" class="st4 st5 st6">-</text><text transform="translate(79.832 354.288)" class="st4 st5 st6">5</text><text transform="translate(79.832 285.254)" class="st4 st5 st6">0</text><text transform="translate(79.832 216.219)" class="st4 st5 st6">5</text><text transform="translate(69.166 147.183)" class="st4 st5 st6">1</text><text transform="translate(79.832 147.183)" class="st4 st5 st6">0</text><text transform="translate(69.166 78.147)" class="st4 st5 st6">1</text><text transform="translate(79.832 78.147)" class="st4 st5 st6">5</text><path d="M99.8 512.6H695m-595.2 0V43.2" fill="none" stroke="#262626" stroke-width="2.667" stroke-linecap="square" stroke-miterlimit="5.333" stroke-dasharray="42.6667,0"/><path class="st8" d="M140.3 285.2l3 5.9 3-2.1 3-2.2 3 3.9 3 1.4 3-1.8 3 2.5 3 6.5 3 4.5 3-4.4 3 3.9 3 7.5 3 4.5 3 5 3 11 3 9 3-.1 3 3 3 .9 3 3.7 3-3.6 3 1.9 3-.1 3-.4 3-9.9 3-2.6 3-.8 3-4.5 3-4.1 3 .5 3-5 3-9.1 3-9.7 3-5.7 3-1.9 3-1.7 3 .7 3 6.7 3 4.4 3-3.3 3 2.4 3 5.6 3 2.1 3 2.9 3 9.5 3 8.4 3 2.6 3 5.8 3 5.1 3 7.5 3 .4 3 1 3-1.1 3-3.9 3-14 3-7.5 3-3.6 3-6.2 3-5.1 3 1.3 3-3.9 3-4.8 3-6.7 3-2.5 3-1.5 3-.9 3-1.9 3 5.2 3 3.2 3-1.6 3 5.4 3 10.1 3 6.8 3 5.7 3 9.8 3 2.6 3-2.7 3-5.2 3-3.4 3-2.7 3-2.5 3-2.7 3 2.5 3-.3 3-6.4 3-2.1 3 1.7 3-2.8 3-3.7h3l3-8.2 3-6.8 3-9.5 3-3.2 3-2.3 3 3.2 3-1.1 3 6.3 3 1.3 3-1 3 2.3 3 7.2 3 4.9 3 5.8 3 9.7 3 4.5 3 2.7 3-.5 3 2.4 3 2.1 3 2.2 3-2.4 3 1.3 3-4.1 3-9.6 3-6.8 3-2.6 3-4.6 3-4.4 3 .1 3-7.3 3-3.3 3-6.5 3-.6 3-1.7 3 4.6 3-2.7 3 4.5 3-1.1 3-1.6 3 .7 3 6.4 3 3.6 3 4.9 3 7.7 3 .8 3 1.7 3-1.3 3 2.4 3 1.2 3 4.6 3-2.4 3 1.5 3-4.6 3-8.2 3-6.7 3-3 3-5 3-4.6 3-1.7 3-10.3 3-4.8 3-7.9 3-1.6 3-3.8 3 4.5 3-1.9 3 4.1 3-2.2h3l3 1.1 3 4.5 3 3.9 3 5.9 3 7.2 3 .4 3 3.4 3-.9 3 2.2 3 .2 3 4.5 3-3.9 3-.2 3-7.1 3-7.9 3-7.4 3-3.4 3-4.2 3-2.8 3-2 3-9.5 3-5.2 3-7 3-2.1 3-3.6 3 4.6"/><path class="st9" d="M134.4 284.6l6 13.1 6 17.3 6 23.3 6 24.9 6 21 6 17.1 6 12.6 6 4.6 6 2.8 6 4.6 6 7.4 6 8 6 6.8 6 1 6-9.4 6-17.6 6-16.6 6-10.9 6-2.3 6 2.6 6 1.3 6-4.5 6-9.4 6-12.3 6-11.4 6-7.5 6-3.8 6-4.3 6-6.9 6-9.3 6-11.1 6-11.9 6-10.5 6-10.5 6-11.3 6-11.1 6-8.4 6-5.7 6-1 6 4.3 6 8.5 6 10.5 6 13.5 6 16.2 6 17.1 6 13.4 6 2.5 6-7.1 6-15.4 6-19.8 6-17.3 6-7.4 6 1.5 6 8.2 6 10.9 6 9.3 6 6.6 6 4.5 6 5.5 6 7.3 6 10.6 6 11.6 6 8.6 6 1 6-3.4 6-6.2 6-6.1 6-5.2 6-4.8 6-8.3 6-12.7 6-18.3 6-21 6-19.7 6-16.1 6-13.9 6-11.1 6-10.2 6-9.4 6-8.9 6-6.7 6-5.1 6-4.9 6-7 6-9.1 6-12.6 6-14 6-12.6 6-9.3 6-7.9 6-3.9 6-1.8 6 1.7 6 4.9"/><defs><path id="SVGID_1_" d="M0 0h768v576H0z"/></defs><clipPath id="SVGID_2_"><use xlink:href="#SVGID_1_" overflow="visible"/></clipPath><g clip-path="url(#SVGID_2_)"><path shape-rendering="crispEdges" class="st1" d="M118.7 113.7H335V62H118.7v51.7z"/><path d="M118.7 113.7H335M118.7 62H335m-216.3 51.7V62M335 113.7V62" fill="none" stroke="#262626" stroke-width=".667" stroke-linecap="square" stroke-miterlimit="5.333" stroke-dasharray="21.3333,0"/><path class="st8" d="M124.1 74.9h35.3"/><path class="st9" d="M124.1 100.8h35.3"/></g><text transform="translate(167.515 79.7)" class="st5 st12">LongRange</text><text transform="translate(167.515 104.838)" class="st5 st12">LongRange + FastMode</text><text transform="rotate(-90 210.748 154.432)" class="st5 st6">Measurement Error [mm]</text><text transform="translate(338.778 564.567)" class="st5 st6">Distance [mm]</text></svg>