<svg style="background-color:#fff" version="1.1" id="Ebene_1" xmlns="http://www.w3.org/2000/svg" x="0" y="0" viewBox="0 0 751.2 297.6" xml:space="preserve"><style>.st0{fill:none;stroke:#000;stroke-width:.4252;stroke-linecap:round;stroke-linejoin:round}.st0,.st1{stroke-miterlimit:10}.st1,.st2,.st3{fill:none;stroke:#000;stroke-width:.2835}.st2{stroke-miterlimit:10;stroke-dasharray:.5847,2.9235}.st3{stroke-dasharray:14.6176,2.9235,.5847,2.9235}.st3,.st4{stroke-miterlimit:10}.st4,.st5{fill:none;stroke:#000;stroke-width:.2835;stroke-linecap:round;stroke-linejoin:round}.st7{font-family:Helvetica,Arial,sans-serif}.st8{font-size:15.75px}.st9{font-size:12px}.st10{font-size:11.9906px}</style><g id="Lens"><path class="st0" d="M364.4 136.4l7.3-7.3m-16.9 7.3l17.5-17.7m-27.1 17.7l28.7-28.8m-38.2 28.8L382 89.9m-55.8 46.5l48.4-48.5m-58 48.5L365 87.9m-57.9 48.5l53.3-53.5m-62.9 53.5l53.1-53.1M288 136.4l56.7-56.7m-66.3 56.7l66.3-66.3m-75.8 66.3l75.8-75.9m-85.4 75.9l81.8-82m-91.4 82l82-82m-91.4 82l82.5-82.7m-92.1 82.7l86.1-86.2m-95.7 86.2l86.2-86.2m-95.6 86.2l82.9-83.1m.6-.6l2.5-2.5m-14.6 5.2l1.9-2.1m-140.1 83.1l81.8-82m-91.4 82l81.8-82m-91.4 82l81.8-81.9m-91.4 81.9l81.9-82m-91.4 82l81.9-82m-89.3 79.8l82.2-82.4m-82 72.7l73-73.1m-72.5 63.1l62.9-63.1m-62.2 52.8l52.8-52.8m-51.7 42.2l42.1-42.2M103 82.6l31.2-31.2m-33 23.5l9.6-9.6m.6-.6L123 53.2m-21.1 11.5L112 54.4m-16.3 6.9l6-5.9m-12.3 2.7l3.6-3.7m109.1 82l24.6-24.7m6.7-6.8l49.3-49.1m-90.2 80.6l24.7-24.7m16.2-16.4l45.2-45.1m-95.7 86.2l24.7-24.7m21.2-21.2l40.3-40.3m-95.6 86.2l24.5-24.7m21.4-21.2l40.1-40.3m-95.6 86.2l29.1-29.3m16.8-16.6l35.9-36.1m-91.4 82L193 97.6m7.2-7.1l36-36.1M93 218.2l-4.3-4.4m13 3.6l-6-6.1m-4-3.9l-2.6-2.7m22.9 13.5l-10.1-10.3m-.7-.5L90.9 197m32.1 22.4l-31.3-31.2m43.7 34.2l-45.1-45.1m54.7 45.1l-55.8-55.7m65.4 55.7l-66-65.9m75.4 65.9l-75.8-75.9m85.4 75.9L88 136.8m93.4 83.9l-84.3-84.3m124.3 114.7l-2-2m-30.9-30.9l-81.9-81.8M231 251.1l-11.6-11.6M198 218.2l-81.9-81.8m120.1 110.4l-16.3-16.3m-12.4-12.3l-81.8-81.8m110.5 100.8l-12.6-12.6m66.8 28.7l-9.9-9.9m16.9 7.4l-16.9-17m16.9 7.5l-12.6-12.7m10.4-8.7l-83.5-83.5m93 83.5l-83.6-83.5m93.2 83.5l-83.6-83.5m92.1 82.4l-82.5-82.4m91.4 81.8l-82-81.8m91.4 81.8l-81.8-81.8m85.4 75.7l-75.8-75.7m74.5 64.9l-65-64.9m66.3 56.7L288 136.4m63.5 54l-54-54m63.2 53.6l-1.2-1.3m-.1-.1l-52.3-52.2m57.9 48.3l-48.4-48.3m58 48.3l-48.4-48.3m55.8 46.3l-46.3-46.3m38.2 28.6l-28.7-28.6m27.1 17.4l-17.5-17.4m16.7 7.1l-7.1-7.1m-147.3 81.8l-31.5-31.5m-.9-1.1l-49.4-49.2m96.6 87l-36.7-36.7m-10.5-10.5l-39.8-39.8m91.3 81.8l-31.5-31.5m-20-20.1l-30.4-30.2m91.4 81.8l-31.5-31.5M193 165.4l-29.1-29m93.1 83.5l-33.2-33.2m-21.3-21.3l-29-29m93.1 83.5l-33.2-33.2m-21.3-21.3l-29.2-29m93.2 83.5l-38.4-38.3m-16-16.2l-29.2-29m100.7 90.9L237.7 172m-6.4-6.6l-29.2-29m7.3-81.9h-6.2m0-.1h-19.1v1.1h-1.3v-2.3l-1.8-1.8h-54.5l-6.2 3h-14.9v1H99v-1H86.3l-2.2 2.2v1.3l.4.3"/><path class="st0" d="M84.5 58.2l.3-.5.7 1m0 0h.9m0 0l.5-1 .7 1m0 0h.8m0 0l.7-1 .5 1m0 0h1m0 0l.7-1 .5 1m0 0l.8-.8v-1.1h2.2v4.5h2.7v3.4h21.8v.6h-17.9l-.8.9v8.3l2.5 1.6h.8m.1 0c-3.2 19.9-4.8 40-4.8 60.1m-.1.2h272.3m3.9-36.4c-2.6 11.9-4 24-4 36.2"/><path class="st0" d="M375.3 100v.2h.7l5.6-2.9v-5l.4-.4v-2.8l-1.2-1.2h-19.1v-4.3l-.2-.2m0 0l-.4.6-.9-1.6m0 0h-1.5m0 0l-1 1.6-.9-1.6m0 0h-1.5m0 0l-.9 1.6-1-1.6m0 0h-1.5m0 0L351 84l-.9-1.6m0 0h-1.5m0 0l-1 1.6-.8-1.5m0 0v1.9h-2.1V56.6l-2.2-2.2h-19l-4.4-4.2h-23.9v6.4h-.4v-3.3h-4.1v1.4h-5v-1.4h-2.6v3.3h-.4v-6.4h-23.9l-4.3 4.2h-18.7m0 .1h-1m0-.1h-2.6m0 .1h-1.5m0-.1h-2.1v.1h-1.1v-.1h-18.1m172.2 82h.4V91.9m-.4 44.5V97.3m-6.3 39.1v-36.2m.1 36.2h.6m-288.9 0h.8m-2 0h1.2m-2.2 0h1m-1.8 0h.8m18.9-59.7v-.6m-3.2 27.6V74.5m-3.1 61.9V64.7m-2.7 71.7V61.3m-2.2 75.1V57.9m-1.9 78.5v-22.9l.2-7.1v-19l.1-5.9v-14l.1-3.5v-5.8l.2-.5m-2.7 78.7V121l.1-7.5V93.4l.1-6V71.6l.2-4.1v-8.1l.1-1.2v-.5m-2.7 78.7v-7.9l.1-7.5V99.8l.2-6.4V76.3l.1-4.7V61.3l.1-1.9v-1.7m-2.8 78.7V57.9m45-7.1l-1.7.6m-1.9.4l1-.4m53.3-.6l.7.6m.9.4l-.4-.4m-51.9-.6h50.7m51.6 3.7h.8m-1.5-.1h-.7m-25.6.1l-.7-.1h-.7.2"/><path class="st0" d="M292.4 53.3l1-1 .9-.9.7-.8.2-.4m-12.5 0l.3.4.8.8.8.9.9 1m-76.1 1.1h-.3l-1.1.1m20.4 0h.2m2.1-.1h1.5m2.6 0h.2m0 .1l.6-.1h.2m0 0h.2m47-1.1h.1m11.7 0h.2m.2-3.1h.2m-8.8 3.1h-1.1m6.9 0h-1.1m-8.7-3.1h.1m8 3.1h-.3v1.4m0-1.4h-1.1v1.4"/><path class="st0" d="M289.3 53.3h-1.8v1.4m0-1.4h-1.8m-50.9 1.2h.2v-.1m147 34.7l-1.2-1.2m.8 4.6v-.2M104 76.1c-3.2 19.9-4.8 40-4.8 60.1m1.4-70l.8-.9h17.9m-35.2-8.7l2.2-2.2H99m6.4 1H99m26.5-3.6l-5.2 2.6h-14.9m77.4-1.2l-1.4-1.4m2.7 3.7h-1.3m48.6-1h-.7m-2.1 0h-1.1m2.5-.1h-1.4m-19.2.1h-6.2m158.5 29.1l-.2-.2m-13.9.6l1-1.6M351 84l.9-1.6m2.5 1.6l.9-1.6m2.4 1.6l1-1.6m2.4 1.6l.4-.6m-11.4-1h-1.5m4.8 0h-1.5m4.9 0h-1.5m4.9 0h-1.5m-11.9 2h-2.1m0-27.8l-2.2-2.2h-19l-4.4-4.2m-64.6 4.2H236m-1 0h-3.6m-3.9 0h-18.1m-6.4 0h-18.9m70.4 0l4.3-4.2m36.2 3.1v3.3m-12-3.3v3.3m97.8 31.3h-19.1m-79.1-37.7h-23.8m60.3 0h-23.7m-59.6 4.3h-.8m27.8 165.3v.1m0 0h22v12h-3.1m0 0l-1.2 1.4m0 0v18.6m0 0l1.2 1.4m0 0h14.5m0 0l1.2-1.4m0 0v-18.6m0 0l-1.2-1.4m0 0h-3v-12h28.5l1.8-1.7h19l2.2-2.2v-8.1m0 0l-1.7-1.7 1.7.9m0 0v-1.8h-1.3v-7.1h1.3v-1.6m0 0l-1.7.8 1.7-1.8m0 0v-7.4h2.1v2.2h1.5m0 0l1.1-1.8.9 1.8m0 0h1.4m0 0l1.1-1.8.9 1.8m0 0h1.3m0 0l1.1-1.8 1 1.8m0 0h1.3m0 0l1.1-1.8.9 1.8m0 0l1.3-1.4v-4.3h19.1l1.2-1.2v-2.7l-.4-.6v-4.8l-5.6-3h-.6m0 0l-1.9-9.2-1.2-9.2-.6-9-.3-8.6m0 0H88m0 0l.3 14.5.9 15 1.5 15.3 2.2 15.4"/><path class="st0" d="M92.9 196.6h-1.2l-2.6 1.5v8.3l.8 1h18v.5H97.5v3.4h-2.7v4.6h-2.2v-1.1l-.1-.1"/><path class="st0" d="M92.5 214.7l-.3.2-.5-1.1m0 0h-1m0 0l-.5 1.1-.7-1.1m0 0h-.8m0 0l-.7 1.1-.7-1.1m0 0h-.8m0 0l-.6 1.1-.6-1.1"/><path class="st0" d="M85.3 213.8h-.4l-.8 1v1.2l2.2 2.2H99v-.8h6.4v.8h14.9l8.8 4.2h20.7m0 0v.1m0 0h3.4m0 0v-.1m0 0h26.6l3-3v-2.3h1.3v1.1h39.5v11.7h-3m0 0l-1.2 1.1m0 0v18.9m0 0l1.2 1.2m0 0h14.3m0 0l1.3-1.2m0 0v-18.8m0 0l-1.3-1.2m0 0h-3v-11.7h22.6l1.7 1.7h2.7m0 0v-.1m0 0h3.9M89.1 198.1v-33.5m282.3-28.2H382m-297.1 0h-.7m.7 0h1m1.2 0h-1.2m2 0h-.8m288.3 36v-36m-30.7 60v-.8m0 12.3v-.8m-23 12.8l-.3.3-.6.5-.7.7-1 .8m-23.7 0l-1.2-1.1-1-.9m25.9 2h-23.7m-32.6-2.4l-.4.1-.5.2h-.9"/><path class="st0" d="M262.8 219.9l-.6.2H261m-2.2 2.1l-.8-.8-.8-.7-.6-.5-.4-.3m26.4 2.3h-23.8m25.9-2l-.9.9-1.2 1.1m-21.6-2.1h-1.3l-.8-.2"/><path class="st0" d="M261 220.1h-1.1l-.7-.2-.3-.1m-18.2-1.6h-1.1M88 136.3c0 20.2 1.6 40.3 4.8 60.2m-3.7 9.9l.8 1m89.9 15h-26.6m-3.4 0h-20.7m252.5-47v-39m.4 44.4v-44.4m-1.2 48.4v-.1M97.5 207.9v-.5m-2.7 3.9v-3.9m-2.2 7.4v-7.4m-7.7 6.4v-77.4m-.8 42.1l.1-42.1m1.7 78.5v-.2l.1-1.1v-4.3l.1-3.4V192l.2-5.8v-26.5l.1-7.7v-15.6"/><path class="st0" d="M88 214.9v-.9l.2-1.2v-7.3l.1-3.5v-18l.1-5.1V155m1.8 59.9v-2.8l.1-1.4v-3.3m-6.2 7.4v-78.4 15.2m139.3 66.6h.2m158-38.1v.1m.4 3.3l-1.2 1.3h-19.1m0 4.2l-1.3 1.4m-.9-1.8l-1.1 1.8h-1.3m-1-1.8l-1.1 1.8h-1.3m-.9-1.8l-1.1 1.8h-1.4m-.9-1.8l-1.1 1.8h-1.5m0-2.2h-2.1m0 27.8l-2.2 2.2h-19l-1.8 1.7m-213.8-12.5h-18m92.9 12l-3 3M99 218.2H86.3m19.1-.8H99m21.3.8h-14.9m149.1 0l1.7 1.7m-135.9-1.7l8.8 4.2m-45-6.4l2.2 2.2m97.8-1.1h-1.3m71.7 1.1h-13.8m-1.1 0h-7.7m-8.5 0h-39.3m160.6-12.9v-7.1m0-1.6v-.2m-47.3 55.5v-18.6m-16.9 18.6l.4.4m16.6-.4l-.5.4.4-.4m-16.9 0v-18.6m16.9 0l-.4-.4.5.4m-17 0l.4-.4m16.6.4v18.6m45.9-51.4h1.3m-1.3 2.5h1.3m-125.3 46.9h-.2m1.3 1.2h.1m-.1-21.2h.1m-1.4 1.2l.2-.1m-.2.1v18.8m-66-27.4h-3.4M343 197.2l1.7-.8m-1.7 9.9l1.7.8m-63 46.2l-.8-1m15.3 1l.8-1m-.8-20.4l.8 1m-15.3-1l-.8 1m12.3-13v12m-8.5-12v12m-64.2 19.2l-1.3-1.2m15.7 1.2l1.3-1.2m-1.3-20l1.3 1.2m-15.7-1.2l-1.3 1.2m12.7-12.9v11.7m-8.5-11.7v11.7m-4.2 1.2v18.8m17-18.8v18.8m323.7-24.6l1.4-.9 1.6-.7m2.4 2.1c1.8.1 3.6.2 5.4.2m.1-163.7l-7.2.4-7.3 1.1-7.2 1.6-6.9 2.4-6.6 3-6.3 3.6-6 4.2-5.6 4.7-5 5.3-4.6 5.7-4.1 6.2-3.4 6.5-2.8 6.7-2.2 6.9-1.4 7.1-.8 7.3-.2 7.3.7 7.3 1.2 7.2 1.9 7.1 2.6 6.8 3.2 6.6 3.8 6.2 4.4 5.8 4.9 5.5 5.4 4.9 5.9 4.5 6.2 3.7 6.7 3.3 6.7 2.5 7 1.9 7.3 1.2m-.1.1c3.2.4 6.5.6 9.7.6"/><path class="st0" d="M570.8 60.2c-44 0-79.7 35.7-79.7 79.7s35.7 79.7 79.7 79.7"/><path class="st0" d="M570.8 58.1c-45.2 0-81.9 36.6-81.9 81.9s36.6 81.9 81.9 81.9m-4.5-168l.8.7.9.6 1.4.7 1.4.4m-4.6-2.3c-2.8.1-5.5.4-8.2.8"/><path class="st0" d="M546.5 57.3l1.1.6 1.5.5 1.6.1h1.1l1-.1 1-.3.8-.4 1.5-1 1.1-.9.8-1.1m-11.5 2.7c-2.6.8-5.3 1.7-7.8 2.7m-10.5 5l1.2.3 1.5.1 1.6-.1.9-.3 1-.4.9-.5.8-.6 1.3-1.2.8-1.2.5-1.2m-10.6 5.2c-2.4 1.4-4.7 2.8-7 4.4M512 77h1.3l1.5-.3 1.6-.5.8-.4.9-.7.8-.7.6-.8.9-1.5.5-1.3.3-1.2m-9.2 7.5c-2 1.9-3.9 3.9-5.8 5.9m-7 9.2l1.2-.2 1.3-.6 1.5-.9.7-.7.7-.8.5-.8.5-1 .6-1.6.1-1.5v-1.2m-7.2 9.4c-1.5 2.3-2.9 4.7-4.2 7.1m-4.8 10.7l1.1-.6 1.2-.8 1.2-1.3.6-.9.4-.9.4-.9.2-1 .2-1.7-.2-1.4-.4-1.2m-4.7 10.7c-1 2.6-1.8 5.2-2.5 7.9m-2.2 11.5l.9-.8 1-1.1.9-1.5.3-.9.3-1 .1-1v-1l-.3-1.7-.4-1.4-.7-1.1m-2.2 11.5c-.3 2.7-.5 5.5-.6 8.3"/><path class="st0" d="M485.3 149.5l.8-1 .6-1.3.4-1.6.2-1.1v-2l-.3-1-.7-1.6-.8-1.2-.8-1m.5 11.8c.3 2.7.7 5.5 1.3 8.2m3.2 11.2l.5-1.1.5-1.4.1-1.8-.1-.9-.3-1-.3-1.1-.4-.8-1.1-1.5-1.1-.9-.9-.7m3.2 11.3c.9 2.6 2 5.1 3.2 7.6m5.6 10.3l.3-1.2v-1.5l-.3-1.8-.3-.9-.5-1-.5-.8-.6-.8-1.3-1.1-1.2-.8-1.3-.4m5.7 10.3c1.5 2.3 3.1 4.6 4.8 6.7m8 8.7l-.1-1.3-.3-1.4-.6-1.7-.6-.8-.7-.8-.6-.7-.8-.6-1.5-.8-1.5-.4-1.2-.2m7.9 8.7c2 1.9 4.1 3.7 6.3 5.4m9.7 6.6l-.4-1.2-.6-1.4-1.1-1.3-.6-.7-.8-.7-1-.5-.8-.4-1.7-.4-1.4-.2-1.3.2m9.7 6.6c2.4 1.4 4.8 2.7 7.3 3.8m11 4.1l-.6-1-1-1.1-1.3-1.2-.8-.4-1-.6-.9-.2-1-.2h-1.7l-1.5.2-1.1.4m10.9 4.2c2.6.8 5.3 1.5 8 2m11.6 1.6l-.8-1-1.1-.9-1.6-.8-.9-.3-1-.1-1.1-.2-.9.2-1.8.3-1.3.5-1.1.7m17.1-169.7l-1.8 1.2m-11-.9c-2.1.3-4.1.7-6.2 1.2m0-.2l-.9 1.4-1.3 1.2m-10.9 1.6c-2 .8-3.9 1.6-5.8 2.6m0-.2l-.5 1.5-1 1.5m-10.3 4.1c-1.7 1.2-3.4 2.5-5 3.8m.1.1l-.3 1.5-.5 1.6m-9.1 6.4c-1.4 1.6-2.7 3.2-4 4.9"/><path class="st0" d="M502.3 87.8l.1 1.6-.1 1.8m-7.4 8.2c-1 1.9-1.9 3.7-2.8 5.7m0 0l.4 1.4.3 1.8m-5.2 9.7c-.5 2-1 4.1-1.4 6.1m0 0l.8 1.3.5 1.7m-2.8 10.7c-.1 2.1 0 4.2.1 6.3m0 0l1.1 1.1 1 1.4m-.3 11.1c.4 2.1.9 4.1 1.5 6.1m0 0l1.3.8 1.3 1.2m2.2 10.8c.9 1.9 1.9 3.8 2.9 5.6m0 .1l1.5.4 1.6.9m4.6 10c1.3 1.6 2.7 3.2 4.1 4.8m.1-.1l1.4.2 1.8.5m6.7 8.7c1.7 1.3 3.4 2.5 5.1 3.7m.1 0l1.6-.2h1.6m8.7 6.9c1.9.9 3.8 1.7 5.8 2.4m.1 0l1.4-.6 1.7-.2m10 4.6c2.1.4 4.1.8 6.2 1m10.9-145.5c-33.2 0-60.1 26.9-60.1 60.1s26.9 60.1 60.1 60.2"/><path class="st0" d="M570.8 78.2c-34.1 0-61.8 27.6-61.8 61.8 0 34.1 27.6 61.8 61.8 61.8"/><path class="st0" d="M570.8 65c-41.4 0-75 33.6-75 75s33.6 75 75 75"/><path class="st0" d="M570.8 79.8c-33.2 0-60.1 26.9-60.1 60.1s26.9 60.1 60.1 60.2"/><path class="st0" d="M570.8 69.8c-38.7 0-70.1 31.4-70.1 70.1s31.4 70.1 70.1 70.1"/><path class="st0" d="M570.8 68.3c-39.6 0-71.6 32.1-71.6 71.6s32.1 71.6 71.6 71.6M525.6 66.6l1.9-1.1m-5.8 3.7l1.8-1.3h.1m4.4 146.8l1.9.9m4.1 2.2l-1.9-1m124.6-71l-1.2-1.6m-84.7 65.9c38.7 0 70.1-31.4 70.1-70.1s-31.4-70.1-70.1-70.1"/><path class="st0" d="M570.8 201.7c34.1 0 61.8-27.6 61.8-61.8 0-34.1-27.6-61.8-61.8-61.8"/><path class="st0" d="M570.8 200.1c33.2 0 60.1-26.9 60.1-60.1S604 79.9 570.8 79.8m0-3.2c.9 0 1.6-.7 1.6-1.6s-.7-1.6-1.6-1.6m0 133c.9 0 1.6-.7 1.6-1.6 0-.9-.7-1.6-1.6-1.6m14.5 21.6l-1-.7-1.3-.6-1.8-.4h-2l-.9.1-1 .3-1.6.8-1.2.8-.8.9m11.6-1.2c2.7-.5 5.4-1.1 8.1-1.8m11.1-3.9l-1.1-.4-1.5-.2h-1.8l-.9.1-1 .3-.9.4-.9.4-1.4 1.1-.9 1.2-.7 1.1m11-3.9c2.5-1.1 5-2.3 7.4-3.6m10.1-6.3l-1.2-.2h-1.5l-1.8.5-.8.4-.9.4-.8.6-.7.7-1.1 1.4-.7 1.2-.4 1.2m9.8-6.2c2.2-1.6 4.4-3.4 6.4-5.2m8.3-8.5l-1.3.2-1.3.4-1.6.7-.8.6-.7.7-.7.7-.5.8-.8 1.6-.4 1.5v1.2m8-8.4c1.8-2.1 3.5-4.3 5-6.6m6.1-10.1l-1.2.4-1.2.8-1.4 1.1-.6.7-.6.9-.4 1-.4.8-.4 1.7v1.5l.3 1.2m5.9-10c1.3-2.5 2.4-5 3.4-7.5m3.6-11.4l-1 .9-1.1.9-1.1 1.3-.4 1-.4.9-.3 1-.1.9.1 1.8.3 1.5.4 1m3.5-11.1c.7-2.7 1.2-5.4 1.6-8.1m1-11.8l-1 .9-.8 1.3-.7 1.6-.2.9-.2 1.1v.9l.2 1 .4 1.7.7 1.4.6.9m.8-11.6c0-2.8-.1-5.5-.4-8.3m-1.7-11.6l-.7 1-.4 1.4-.4 1.7v1l.1 1.1.3.9.3 1 .8 1.6.9 1.1 1 .8m-2-11.6c-.6-2.7-1.4-5.3-2.3-8m-4.4-10.8l-.4 1.2-.1 1.5.1 1.6.2 1 .4 1 .4 1 .5.8 1.2 1.2 1.1.9 1.1.6m-4.5-10.8c-1.2-2.5-2.6-4.9-4-7.2m0-.1l-1.2-.3-1.4-.6-1.3-1-.7-.7-.7-.8-.5-.8-.4-.9-.6-1.7-.1-1.4v-1.3m0 .1c-1.8-2.1-3.6-4.2-5.6-6.1m-8.9-7.7l.3 1.2.4 1.3 1 1.5.5.8.8.7.8.7.8.4 1.7.7 1.4.2h1.3m-9-7.5c-2.2-1.7-4.5-3.2-6.8-4.7"/><path class="st0" d="M605.3 61.1l.5 1 .8 1.4 1.2 1.2.7.5 1 .6.9.5.9.3 1.8.1h1.3l1.4-.2m-10.5-5.4c-2.5-1.1-5.1-2.1-7.7-2.9m-11.4-3l.7 1 1.1 1.1 1.5.9.8.4 1.1.3.9.3h1l1.7-.2 1.5-.4 1.1-.5m-11.4-2.8c-2.7-.5-5.5-.9-8.2-1.1m72.2 52.3l-1.5-.5-1.3-1.1m-7-15.8l-1.5-.2-1.6-.7m-10.4-13.6h-1.7l-1.7-.3"/><path class="st0" d="M610.3 63.3l-1.5.5-1.8.1m-15.5-7.6l-1.4.8-1.6.4m-8.6 168l1.1-1.1 1.5-1.1m17-2.1l.6-1.5 1.3-1.4m16-5.9l.4-1.6.8-1.5m14.2-9.6l.1-1.6.4-1.8m11.7-12.5l-.3-1.7-.1-1.7m8.5-15l-.7-1.3-.4-1.8m3.8-36.4l-1.3-1-1.2-1.3m3.2 8.5c-.2-2.1-.5-4.2-.8-6.3m-3.3-13.2c-.7-2-1.4-4-2.2-5.9m5.8 45.4c.3-2.1.5-4.2.7-6.3m-5.8 25.6c.8-2 1.5-3.9 2.1-5.9m-11.5 23.6c1.2-1.7 2.3-3.5 3.4-5.3M628.2 204c1.6-1.4 3.1-2.9 4.5-4.4m-20.8 16c1.8-1 3.7-2.1 5.4-3.2M593.4 223c2-.6 4-1.2 6-1.9m-25.8 4.9c2.1-.1 4.2-.2 6.3-.4m-2-171.4c-2.1-.2-4.2-.3-6.3-.3m25.9 4.3c-2-.7-4-1.2-6.1-1.7m24.3 10c-1.8-1.1-3.6-2.1-5.5-3.1m21.2 15.5c-1.5-1.5-3-2.9-4.6-4.3m17 19.9c-1.1-1.8-2.3-3.5-3.5-5.2m-69.5 122.3c39.6 0 71.6-32.1 71.6-71.6 0-39.6-32.1-71.6-71.6-71.6"/><path class="st0" d="M570.8 215c41.4 0 75-33.6 75-75s-33.6-75-75-75"/><path class="st0" d="M570.8 217.5c33.6 0 63.4-21.6 73.8-53.6 10.4-32-1-67-28.2-86.7m-45.6-14.9l6.3.2 6.2.8 6 1.3 5.8 1.7 5.7 2 5.4 2.6 5.1 2.8 5 3.4"/><path class="st0" d="M570.8 219.7c44 0 79.7-35.7 79.7-79.7s-35.7-79.7-79.7-79.7"/><path class="st0" d="M570.8 221.8c45.2 0 81.9-36.6 81.9-81.9 0-45.2-36.6-81.9-81.9-81.9m.9-4.2l-.9.8m0 1.7h2.3l1.1-.2 1.1-.3 1.5-.8 1.2-.8M570.8 226h2.8m114.2-78.8v-14.5m-1.3 7.7l.4-.2v-.4m-.4 2.4v-1.8m0 1.8l.4.1v.4l-.4.3m0 0v1.6m0 0h.4v.3l-.4.4m0 0v1.3m0 0l.4-.2v.2l-.4.4m0 0v.9m0 0l.4-.3v.1l-.4.4m0 0v.3m0 0l.4-.4m-.4-16.6l.4.4-.4-.4m0 .4v-.4m0 .4l.4.4v.1l-.4-.2m0 .8v-.8m0 .8l.4.4v.2l-.4-.2m0 1.3v-1.3m0 1.3l.4.4v.4l-.4-.1m0 1.6v-1.6m0 1.6l.4.4v.4h-.4m0 1.9v-1.9m0 1.9l.4.2m-2 8.1h1.6m-1.9.2h1.9m-2.1.3h2.1m0-17h-2.1 2.1m-.9 15.8v-14.5m-1.2-.1l.4.3v-.2m-.4 1.1v-1.2m0 1.2l.4.4v.3l-.4-.1m0 1.4v-1.4m0 1.4l.4.4v.5h-.4m0 1.7v-1.7m0 1.7l.4.3v.4l-.4.1m0 1.9v-1.9m0 1.9h.4v.5l-.4.2m0 0v1.7m0 0h.4v.4l-.4.4m0 0v1.5m0 0l.4-.2v.4l-.4.4m0 0v1.1m0 0l.4-.5v.3l-.4.4m0 0v.6m0 0l.4-.4v.1l-.4.4m0-16.9v-.1m0 .1l.4.4v.2l-.4-.4m0 .5v-.5m0 .5l.4.5m-20.4 14.5v-14.5m1.2 15.7l-.4-.4v-.1l.4.4m0-.6v.6m0-.6l-.4-.4v-.3l.4.5m0-1.1v1.1m0-1.1l-.4-.4v-.4l.4.2m0-1.5v1.5m0-1.5l-.4-.4v-.4h.4m0-1.7v1.7m0-1.7l-.4-.2v-.5h.4m0 0v-1.9m0 0l-.4-.1v-.4l.4-.3m0 0v-1.7m0 0h-.4v-.5l.4-.4m0 0v-1.4m0 0l-.4.1v-.3l.4-.4m0 0v-1.2m0 0l-.4.3v-.2l.4-.5m0 0v-.5m0 0l-.4.4v-.2l.4-.4m0 0v-.1m0 10.4h18.8m-18.8 5.9h18.8m-18.8.7h18.8m-18.8-16.2h18.8m-19.2.5h.3m-.3 13.3h19.6m-19.6-2.1h19.6m-19.6-5.2h19.6m-19.6-2.5h19.6m-19.6-2h19.6m3 13l-.9.8m.9-15.3l-.9-.9m-1.3 15.4l-1.2 1.2m1.2-15.7l-1.2-1.3m-20 1.3l1.2-1.3m-1.2 15.8l1.2 1.2m-8.8-12.7h7.6m-9.9 8.5h9.9m1.2 4.2h18.8m-18.8-17h18.8m1.3 33.7l.7-3.5m.3-1.6v-.3m.4-1.7l.2-1.4.6-5.5m.3-1.8v-.2m.1-1.8l.3-7m0-1.8v-.2m0-1.8l-.3-5.5-.1-1.4m-.2-1.7l-.1-.3m-.1-1.7l-.5-3.6m-5.9 57.3c1.7-4.7 3.2-9.6 4.3-14.5"/></g><g id="Mittellinien"><path class="st1" d="M475.4 136.1h7.1"/><path class="st2" d="M485.4 136.1h2.1"/><path class="st3" d="M488.9 136.1h166.9"/><path class="st1" d="M657.3 136.1h7.1m-94.5-94.5v7.1"/><path class="st2" d="M569.9 51.6v2.1"/><path class="st3" d="M569.9 55.1v167"/><path class="st1" d="M569.9 223.5v7.1"/></g><g id="Bemassung_1_"><path class="st1" d="M18.6 58.3V215"/><path d="M16.1 60l2.5-9.2L21 60h-4.9zm0 153.3l2.5 9.2 2.4-9.2h-4.9z"/><path class="st1" d="M41.1 62.3v148.6"/><path d="M38.6 64l2.5-9.2 2.4 9.2h-4.9zm0 145.3l2.5 9.2 2.4-9.2h-4.9z"/><path class="st1" d="M60.6 65.6v142.1"/><path d="M58.1 67.2l2.5-9.2 2.4 9.2h-4.9zm0 138.8l2.5 9.2L63 206h-4.9z"/><path class="st4" d="M90.2 214.9H56.5M91.3 57.7H56.5m29.8-3.3H36m50.3 163.8H36m93.1-167.4H14.2m137.4 171.7H14.2"/><path class="st5" d="M413.4 90.7v91.2"/><path d="M410.9 92.3l2.5-9.2 2.4 9.2h-4.9zm0 87.9l2.5 9.3 2.4-9.3h-4.9z"/><path class="st4" d="M348.6 82.4h69m-69.3 108h69.3"/><path class="st5" d="M336.4 257.5h-244"/><path d="M334.7 255l9.2 2.5-9.2 2.4V255zm-240.6 0l-9.2 2.5 9.2 2.4V255z"/><path class="st5" d="M368.7 257.5h36.9"/><path d="M370.4 259.9l-9.3-2.4 9.3-2.5v4.9z"/><path class="st4" d="M361.7 189v72.6"/><path class="st5" d="M410.9 281.8h-57.8"/><path d="M409.2 279.3l9.2 2.5-9.2 2.4v-4.9zm-54.4 0l-9.2 2.5 9.2 2.4v-4.9z"/><path class="st4" d="M344.7 192v93.9"/><path class="st5" d="M410.9 14.4h-20.4"/><path d="M409.2 11.9l9.2 2.5-9.2 2.5v-5zm-17 0l-9.3 2.5 9.3 2.5v-5z"/><path class="st4" d="M419.2 285.9V10.1"/><path class="st5" d="M373.7 14.4h-20.6"/><path d="M372.1 11.9l9.2 2.5-9.2 2.5v-5zm-17.3 0l-9.2 2.5 9.2 2.5v-5z"/><path class="st4" d="M344.7 56.6V10.1M382 91.8V10.1"/><path class="st5" d="M336.4 35.4h-244"/><path d="M334.7 32.9l9.2 2.5-9.2 2.4v-4.9zm-240.6 0l-9.2 2.5 9.2 2.4v-4.9z"/><path class="st4" d="M84.1 56.6V31.1m277.6 52.5V31.1"/><path class="st5" d="M422.7 124l26.8-97.5h5.3"/><path d="M425.5 123l-4.8 8.2v-9.5l4.8 1.3z"/><path class="st4" d="M84.1 216v45.6m277-4.1h-17.2"/><path class="st5" d="M369.4 35.4h36.9"/><path d="M371 37.9l-9.2-2.5 9.2-2.5v5z"/><path class="st4" d="M361.8 35.4h-17.2"/><path d="M415.7 132.6l7 7m-7 0l7-7" fill="none" stroke="#000" stroke-width=".992" stroke-miterlimit="10"/><path class="st1" d="M693.1 176.1l19.8 6h34.6"/><path d="M694.3 179.9l-10.8-6.7 12.7.4-1.9 6.3z"/></g><g id="Text"><text transform="matrix(1 0 -.00479 1 198.04 182.674)" class="st7 st8">Mod</text><text transform="rotate(-90 84.66 69.98)" class="st7 st9">Ø 40.5</text><text transform="rotate(-90 283.663 -111.208)" class="st7 st9">1-32 UN 2A</text><text transform="rotate(-90 288.713 -120.558)" class="st7 st9">(C-mount)</text><text transform="rotate(-90 96.435 58.204)" class="st7 st9">Ø 38.5</text><text transform="rotate(-90 112.614 55.364)" class="st7 st9">M37.0 x 0.5</text><text transform="translate(202.698 31.808)" class="st7 st9">61.3</text><text transform="translate(356.29 10.711)" class="st7 st9">8.8</text><text transform="translate(459.102 28.978)" class="st7 st9">Sensor position</text><text transform="translate(349.294 31.68)" class="st7 st9">4</text><text transform="translate(349.294 253.68)" class="st7 st9">4</text><text transform="translate(393.55 10.711)" class="st7 st9">8.7</text><text transform="translate(180.828 253.713)" class="st7 st9">61.3</text><text transform="translate(363.694 278.928)" class="st7 st9">17.526</text><text transform="translate(365.094 292.428)" class="st7 st9">(in air)</text><text transform="translate(202.495 106.173)" class="st7 st8">Inf.</text><text transform="translate(712.843 177.205)" class="st7 st9">R27.7</text></g><text transform="translate(648.78 276.856)" class="st7 st10">Not to scale</text><text transform="translate(648.55 292.256)" class="st7 st10">Dimensions in mm</text></svg>