<svg style="background-color:#fff" version="1.1" id="Layer_1" xmlns="http://www.w3.org/2000/svg" x="0" y="0" viewBox="0 0 550 140" xml:space="preserve"><style>.st2{font-family:Helvetica,Arial,sans-serif;font-weight:700}.st3{font-size:11px}.st4{font-family:Helvetica,Arial,sans-serif}.st5{fill:#e2001a}.st6{font-size:14px}</style><g stroke="#1d1d1b" stroke-miterlimit="10"><path d="M4.5 23.5h474.7v34.8H4.5V23.5z" fill="#bde4f7"/><path d="M4.5 23.5h474.7v104.3H4.5V23.5zm0 34.8h474.7M4.5 93.1h474.7M61.9 23.5v104.4M96.7 23.5v104.4m34.7-104.4v104.4m34.8-104.4v104.4M201 23.5v104.4m34.8-104.4v104.4m34.8-104.4v104.4m34.7-104.4v104.4m34.8-104.4v104.4m34.8-104.4v104.4m34.8-104.4v104.4m34.8-104.4v104.4" fill="none"/></g><text transform="translate(67.47 17)" class="st2 st3">MSB</text><text transform="translate(451.924 17)" class="st2 st3">LSB</text><text transform="translate(65.377 44.215)" class="st4 st3">Bit 11</text><text transform="translate(99.823 44.215)" class="st4 st3">Bit 10</text><text transform="translate(138.462 44.215)" class="st4 st3">Bit 9</text><text transform="translate(173.219 44.215)" class="st4 st3">Bit 8</text><text transform="translate(206.975 44.215)" class="st4 st3">Bit 7</text><text transform="translate(242.06 44.215)" class="st4 st3">Bit 6</text><text transform="translate(276.802 44.215)" class="st4 st3">Bit 5</text><text transform="translate(311.652 44.215)" class="st4 st3">Bit 4</text><text transform="translate(346.898 44.215)" class="st4 st3">Bit 3</text><text transform="translate(381.154 44.215)" class="st4 st3">Bit 2</text><text transform="translate(416.121 44.215)" class="st4 st3">Bit 1</text><text transform="translate(450.878 44.215)" class="st4 st3">Bit 0</text><text transform="translate(17.83 78.687)" class="st4 st3">Binary</text><text transform="translate(14.153 114.08)" class="st4 st3">Decimal</text><text transform="translate(74.523 80.985)" class="st5 st2 st6">1</text><text transform="translate(109.288 80.985)" class="st5 st2 st6">1</text><text transform="translate(144.053 80.985)" class="st5 st2 st6">1</text><text transform="translate(178.818 80.985)" class="st5 st2 st6">1</text><text transform="translate(213.583 80.985)" class="st5 st2 st6">1</text><text transform="translate(248.347 80.985)" class="st5 st2 st6">1</text><text transform="translate(283.112 80.985)" class="st5 st2 st6">1</text><text transform="translate(317.877 80.985)" class="st5 st2 st6">1</text><text transform="translate(352.642 80.985)" class="st5 st2 st6">1</text><text transform="translate(387.406 80.985)" class="st5 st2 st6">1</text><text transform="translate(422.172 80.985)" class="st5 st2 st6">1</text><text transform="translate(456.937 80.985)" class="st5 st2 st6">1</text><text transform="translate(64.041 115.08)" class="st4" font-size="13.8">2048</text><text transform="translate(97.582 115.08)" class="st4 st6">1024</text><text transform="translate(136.277 115.08)" class="st4 st6">512</text><text transform="translate(171.042 115.08)" class="st4 st6">256</text><text transform="translate(205.807 115.08)" class="st4 st6">128</text><text transform="translate(244.502 115.08)" class="st4 st6">64</text><text transform="translate(279.267 115.08)" class="st4 st6">32</text><text transform="translate(314.032 115.08)" class="st4 st6">16</text><text transform="translate(352.727 115.08)" class="st4 st6">8</text><text transform="translate(387.492 115.08)" class="st4 st6">4</text><text transform="translate(422.257 115.08)" class="st4 st6">2</text><text transform="translate(457.022 115.08)" class="st4 st6">1</text><text transform="translate(484.777 108.94)"><tspan x="0" y="0" class="st4 st3">New pixel</tspan><tspan x="0" y="13.2" class="st4 st3">value:</tspan></text><text transform="translate(517.077 122.14)" class="st2 st3">4095</text></svg>