<svg style="background-color:#fff" version="1.1" id="Ebene_1" xmlns="http://www.w3.org/2000/svg" xmlns:xlink="http://www.w3.org/1999/xlink" x="0" y="0" viewBox="0 0 235 147.5" xml:space="preserve"><style>.st0{fill:none;stroke:#000;stroke-linecap:round;stroke-linejoin:round;stroke-miterlimit:10}.st4{font-family:Helvetica,Arial,sans-serif}.st5{font-size:9.0031px}</style><path class="st0" d="M35.5 3.8v110.7M28.7 3.8H36m-7.3 21.7H36m-7.3 21.8H36M28.7 69H36m-7.3 21.8H36m-7.3 21.7H36"/><defs><path id="SVGID_1_" d="M34.1 114.4h200.1v1.3H34.1z"/></defs><clipPath id="SVGID_2_"><use xlink:href="#SVGID_1_" overflow="visible"/></clipPath><path d="M34.7 115H234" clip-path="url(#SVGID_2_)" fill="none" stroke="#000" stroke-linecap="round" stroke-linejoin="round" stroke-miterlimit="10"/><path class="st0" d="M216.2 121.8v-7.3m-35.7 7.3v-7.3m-35.8 7.3v-7.3m-35.5 7.3v-7.3m-35.7 7.3v-7.3m-35.8 7.3v-7.3"/><defs><path id="SVGID_3_" d="M36.6 2.7h197.6v33.5H36.6z"/></defs><clipPath id="SVGID_4_"><use xlink:href="#SVGID_3_" overflow="visible"/></clipPath><path d="M37.7 3.8l19.8.4L77 5l19.7 2.2 19.5 2.3 19.8 3.3 19.5 3.9 19.7 3 19.5 3.3 19.8 5.7L234 35" clip-path="url(#SVGID_4_)" fill="none" stroke="#000" stroke-width="2" stroke-linecap="round" stroke-linejoin="round" stroke-miterlimit="10"/><path class="st0" d="M41 94h46.5v15.2H41V94z"/><path d="M44.7 101.7h16.5" fill="none" stroke="#000" stroke-width="2" stroke-linecap="round" stroke-linejoin="round" stroke-miterlimit="10"/><text transform="translate(62.266 104.266)" class="st4 st5">ƒ/2.6</text><text transform="translate(10.49 7.726)" class="st4 st5">100</text><text transform="translate(15.468 29.504)" class="st4 st5">8</text><text transform="translate(20.468 29.504)" class="st4 st5">0</text><text transform="translate(15.468 51.229)" class="st4 st5">6</text><text transform="translate(20.468 51.229)" class="st4 st5">0</text><text transform="translate(15.468 73.25)" class="st4 st5">4</text><text transform="translate(20.468 73.25)" class="st4 st5">0</text><text transform="translate(15.468 94.795)" class="st4 st5">2</text><text transform="translate(20.468 94.795)" class="st4 st5">0</text><text transform="translate(20.51 116.52)" class="st4 st5">0</text><text transform="rotate(-90 59.789 49.977)" class="st4 st5">Relative Illumination [%]</text><text transform="translate(34.986 133.266)" class="st4 st5">0</text><text transform="translate(70.899 133.266)" class="st4 st5">1</text><text transform="translate(106.44 133.266)" class="st4 st5">2</text><text transform="translate(142.21 133.265)" class="st4 st5">3</text><text transform="translate(177.523 133.265)" class="st4 st5">4</text><text transform="translate(213.752 133.265)" class="st4 st5">5</text><text transform="translate(94.663 144.265)" class="st4 st5">Image Height [mm]</text></svg>