<svg style="background-color:#fff" version="1.1" id="Layer_1" xmlns="http://www.w3.org/2000/svg" xmlns:xlink="http://www.w3.org/1999/xlink" x="0" y="0" viewBox="0 0 400 380" xml:space="preserve"><style>.st6{font-family:Helvetica,Arial,sans-serif}.st7{font-size:13px}</style><path d="M58.6 267.1h322V17.8h-322v249.3z" fill="#fff"/><path d="M58.6 267.1h322M58.6 17.8h322m0 249.3V17.8m-322 249.3V17.8" fill="none" stroke="#000" stroke-linecap="square"/><path d="M58.6 267.1v-2.9m0-246.4v2.9m63.1 246.4v-2.9m0-246.4v2.9m63.2 246.4v-2.9m0-246.4v2.9M248 267.1v-2.9m0-246.4v2.9m63.1 246.4v-2.9m0-246.4v2.9m63.2 246.4v-2.9m0-246.4v2.9M58.6 267.1h2.9m319.1 0h-2.9M58.6 218.2h2.9m319.1 0h-2.9M58.6 169.3h2.9m319.1 0h-2.9M58.6 120.4h2.9m319.1 0h-2.9M58.6 71.5h2.9m319.1 0h-2.9M58.6 22.7h2.9m319.1 0h-2.9" stroke="#000" stroke-width=".5" stroke-linejoin="round"/><defs><path id="SVGID_1_" d="M58.2 17.1h322v249.3h-322z"/></defs><clipPath id="SVGID_2_"><use xlink:href="#SVGID_1_" overflow="visible"/></clipPath><path d="M58.2 266.3l7.6-2.8 7.6-2.9 7.6-3.1 7.6-3.3 7.6-3.5 6.3-3.1 6.3-3.2 6.3-3.4 6.3-3.6 6.3-3.8 6.3-4 6.3-4.2 5.1-3.5 5.1-3.7 5.1-3.9 5.1-4.1 5-4.3 5.1-4.5 5.1-4.7 5.1-5 5.1-5.3 3.8-4.2 3.8-4.3 3.8-4.5 3.8-4.8 3.8-5 3.8-5.3 3.8-5.6 3.8-5.9 3.8-6.3 3.8-6.2 3.8-5.8 3.8-5.5 3.8-5.2 3.8-4.9 3.8-4.7 3.8-4.5 3.8-4.3 5.1-5.4 5.1-5.1L266 84l5.1-4.6 5.1-4.4 5.1-4.2 5.1-4 5-3.8 5.1-3.6 6.3-4.3 6.3-4.1 6.3-3.9 6.3-3.7 6.3-3.5 6.3-3.3 6.3-3.1 6.3-3 7.6-3.4 7.6-3.2 7.6-3 7.6-2.8 3.8-1.4h0" clip-path="url(#SVGID_2_)" fill="none" stroke="#0090d4" stroke-linecap="square" stroke-linejoin="round"/><defs><path id="SVGID_3_" d="M58.2 17.8h322v249.3h-322z"/></defs><clipPath id="SVGID_4_"><use xlink:href="#SVGID_3_" overflow="visible"/></clipPath><g clip-path="url(#SVGID_4_)"><path d="M219.2 144.6c.6 0 1.1-.2 1.5-.6.4-.4.6-1 .6-1.5 0-.6-.2-1.1-.6-1.5-.4-.4-1-.6-1.5-.6s-1.1.2-1.5.6c-.4.4-.6 1-.6 1.5 0 .6.2 1.1.6 1.5.3.4.9.6 1.5.6z" fill="green" stroke="#000" stroke-width=".5" stroke-linejoin="round"/></g><text transform="translate(38.882 222.425)" class="st6 st7">50</text><text transform="translate(114.61 284.215)" class="st6 st7">50</text><text transform="translate(31.662 173.447)" class="st6 st7">100</text><text transform="translate(174.112 284.215)" class="st6 st7">100</text><text transform="translate(31.662 124.471)" class="st6 st7">150</text><text transform="translate(237.226 284.215)" class="st6 st7">150</text><text transform="translate(31.662 75.495)" class="st6 st7">200</text><text transform="translate(300.338 284.216)" class="st6 st7">200</text><text transform="translate(31.662 26.519)" class="st6 st7">250</text><text transform="translate(363.452 284.215)" class="st6 st7">250</text><text transform="translate(46.103 284.215)" class="st6 st7">0</text><text transform="translate(55.593 333.545)" class="st6 st7">Contrast = 0.3</text><text transform="translate(55.593 349.145)" class="st7" font-family="Helvetica,Arial,sans-serif" font-weight="700" fill="#00305f">Brightness = 0</text><text transform="translate(55.593 364.745)" class="st6 st7">S-Curve contrast mode</text><text transform="translate(170.258 311.21)" class="st6 st7">Input pixel values</text><text transform="rotate(-90 111.901 90.31)" class="st6 st7">Output pixel values</text><text transform="translate(266 177.447)" class="st6" font-size="12">Pivot point</text><path d="M261 167l-28.9-17" fill="none" stroke="#000" stroke-miterlimit="10"/><path d="M235.3 148.5l-10.8-3 7.9 8 2.9-5z"/><text transform="translate(246.369 349.635)"><tspan x="0" y="0" class="st6 st7">8-bit pixel values shown</tspan><tspan x="0" y="15.6" class="st6 st7">as an example</tspan></text></svg>