<svg version="1.1" id="Ebene_1" xmlns="http://www.w3.org/2000/svg" xmlns:xlink="http://www.w3.org/1999/xlink" x="0" y="0" viewBox="0 0 595.3 453" xml:space="preserve"><style>.st1{fill:#fff}.st2{stroke-width:4}.st2,.st3,.st4,.st5,.st6{fill:none;stroke:#000;stroke-miterlimit:10}.st3{stroke-width:2}.st4,.st5,.st6{stroke-width:2.955}.st5{stroke-dasharray:8.409,8.409}.st6{stroke-dasharray:9.142,9.142}.st8,.st9{clip-path:url(#SVGID_2_);fill:#fff}.st9{fill:none;stroke:#000;stroke-width:3.836;stroke-miterlimit:10}.st11{font-family:Helvetica,Arial,sans-serif}.st12{font-size:36px}</style><path fill="#ececed" d="M406.5 86.2h146v135h-146z"/><path class="st1" d="M251.7 100.2h181V139h-181z"/><path class="st2" d="M251.7 100.2h181V139h-181z"/><path class="st1" d="M493.2 156v-12.8l-59.7-30V126z"/><path class="st3" d="M493.2 156v-12.8l-59.7-30V126z"/><path class="st1" d="M493.2 163.2v-12.8l-59.7 30v12.8z"/><path class="st3" d="M493.2 163.2v-12.8l-59.7 30v12.8z"/><path class="st1" d="M251.7 167.4h181v38.8h-181z"/><path class="st2" d="M251.7 167.4h181v38.8h-181z"/><path class="st4" d="M412.1 221.2h-4.4v-4.4"/><path class="st5" d="M407.7 208.4V94.9"/><path class="st4" d="M407.7 90.7v-4.5h4.4"/><path class="st6" d="M421.2 86.2h123.5"/><path class="st4" d="M549.2 86.2h4.5v4.5"/><path class="st5" d="M553.7 99.1v113.5"/><path class="st4" d="M553.7 216.8v4.4h-4.5"/><path class="st6" d="M540.1 221.2H416.7"/><defs><path id="SVGID_1_" d="M0 0h595.3v453H0z"/></defs><clipPath id="SVGID_2_"><use xlink:href="#SVGID_1_" overflow="visible"/></clipPath><path d="M493.2 167.1c-7.6 0-13.7-6.1-13.7-13.7s6.1-13.7 13.7-13.7 13.7 6.1 13.7 13.7-6.1 13.7-13.7 13.7" clip-path="url(#SVGID_2_)"/><path class="st8" d="M251.7 261.7h302v26.6h-302z"/><path class="st9" d="M251.7 261.7h302v26.6h-302z"/><path class="st8" d="M251.7 302.9h302v26.6h-302z"/><path class="st9" d="M251.7 302.9h302v26.6h-302z"/><path class="st8" d="M251.7 343h302v26.6h-302z"/><path class="st9" d="M251.7 343h302v26.6h-302z"/><path clip-path="url(#SVGID_2_)" fill="none" stroke="#000" stroke-width="7.795" stroke-miterlimit="10" d="M-39 66.5h290.7v349H-39z"/><path class="st8" d="M257.7 382.7h296v26.6h-296z"/><path class="st9" d="M251.7 382.7h302v26.6h-302z"/><path class="st8" d="M-39 66.5h290.7v349H-39z"/><text transform="translate(197.131 129.661)" class="st11 st12">br</text><text transform="translate(410.726 61.677)"><tspan x="0" y="0" class="st11 st12">Insul</tspan><tspan x="76" y="0" class="st11 st12">a</tspan><tspan x="96" y="0" class="st11 st12">tion</tspan></text><text transform="translate(195.063 195.177)" class="st11 st12">wt</text></svg>