<svg style="background-color:#fff" version="1.1" id="Ebene_1" xmlns="http://www.w3.org/2000/svg" xmlns:xlink="http://www.w3.org/1999/xlink" x="0" y="0" viewBox="0 0 356.2 167.9" xml:space="preserve"><style>.st0{stroke-width:.999}.st0,.st11,.st9{fill:none;stroke:#000;stroke-linecap:round;stroke-linejoin:round;stroke-miterlimit:10}.st9{stroke-width:1.999}.st11{stroke-width:.5}.st12{font-family:Helvetica,Arial,sans-serif}.st13{font-size:9.0005px}</style><path class="st0" d="M33.2 5v129M26 5h7.8M26 36.8h7.8M26 68.5h7.8M26 100.2h7.8m-7.8 32h7.8"/><defs><path id="SVGID_1_" d="M32.1 133.9h323.3v1.3H32.1z"/></defs><clipPath id="SVGID_2_"><use xlink:href="#SVGID_1_" overflow="visible"/></clipPath><path d="M32.7 134.5h322.5" clip-path="url(#SVGID_2_)" fill="none" stroke="#000" stroke-width=".999" stroke-linecap="round" stroke-linejoin="round" stroke-miterlimit="10"/><path class="st0" d="M326.3 142v-8m-58.1 8v-8m-58.2 8v-8m-58 8v-8m-58.2 8v-8m-58.1 8v-8"/><defs><path id="SVGID_3_" d="M34.7 54.2h320.8v28.4H34.7z"/></defs><clipPath id="SVGID_4_"><use xlink:href="#SVGID_3_" overflow="visible"/></clipPath><path d="M35.7 55.2l11 .5 11.1.6 10.9.2 11 .7 11.1.6 10.9.7 11.3 1 11 1 10.7 1.5 11.3 1.5 11 1.8 11 1.7 11 2 11 1.7 22 3 11 1.5 11 1 11.3 1.1 10.9.9 10.8.8 11.3.7 10.9.8 11 .5 22 .5h22.1l10.9-.3" clip-path="url(#SVGID_4_)" fill="none" stroke="#777" stroke-width="1.999" stroke-linecap="round" stroke-linejoin="round" stroke-miterlimit="10"/><path d="M35.7 55.2h7.1m6.9.3l7 .2m7.1.3l4.9.3 2 .2m7 .5l2 .2 5.1.3m6.9.7l6.8 1.1m7 .9l7 1m6.8.8l4.7.7 2.2.5m7 1l1.5.3 5.3 1m7 1.5l6.8 1m6.9 1.2l7 1.3m6.8 1.2l4.5.8 2.5.5m6.8 1.3l1.7.4 5.2.8M202 77l7 1.2m6.7 1.5l6.8 1.5m7 1.5l4.5 1 2.3.5m6.7 1.5l2.3.6 4.7.9m6.7 1.5l6.8 1.5m7 1.5l6.7 1.8M284 95l5.2 1.2 1.5.6m7.1 1.5l2.4.7 4.3 1m6.8 1.5l6.7 1.7m7 1.5l6.7 1.8m6.8 1.7l5.8 1.5.9.3" fill="none" stroke="#777" stroke-width="1.999" stroke-linecap="round" stroke-linejoin="round" stroke-miterlimit="10"/><defs><path id="SVGID_5_" d="M350.9 110.7h4.6v2.9h-4.6z"/></defs><clipPath id="SVGID_6_"><use xlink:href="#SVGID_5_" overflow="visible"/></clipPath><path d="M352 111.8l3.2.7" clip-path="url(#SVGID_6_)" fill="none" stroke="#777" stroke-width="1.999" stroke-linecap="round" stroke-linejoin="round" stroke-miterlimit="10"/><defs><path id="SVGID_7_" d="M34.7 76.2h320.8v23.7H34.7z"/></defs><clipPath id="SVGID_8_"><use xlink:href="#SVGID_7_" overflow="visible"/></clipPath><path d="M35.7 77.3l11 .4 22 .5 11 .8 11.1.5 10.9.8 11.3.9 11 .8 10.7 1.3 11.3 1.5 11 1.5 11 1.5 11 1.7 11 1.5 11 1.3 11 1.2 11 1 11 1 11.3.7 10.9.6 10.8.7 11.3.5 10.9.3 22.1.4h10.9l22.1-.4 10.9-.6" clip-path="url(#SVGID_8_)" fill="none" stroke="#bbb" stroke-width="1.999" stroke-linecap="round" stroke-linejoin="round" stroke-miterlimit="10"/><path d="M35.7 77.3h7.1m6.9.2l7 .2m7.1.3l4.9.2 2 .3m7 .3l2 .2 5.1.5m6.9.5l6.8.7m7 .8l7 .7m7 .8l4.5.7 2.5.3m6.7 1l1.5.2 5.6.8m6.9 1l6.8 1.2m7 1.1l7 .9m7 1l4 .8 2.7.5m7 1l1.3.3 5.5.9m7 1l7 1.3m6.7 1l6.8 1.2h.2m6.8 1.3l4 .8 3 .4m7 1.1l1.3.2 5.4 1m7 1.2l6.8 1m7 1.3l6.8 1 .2.3m6.7.9l4 .8 3 .5m7.1 1.2h.9l5.8 1.1m7 1.2l6.7 1.2m7 1l6.5 1.3h.6m6.7 1.3l3.8.4 3.2.5" fill="none" stroke="#bbb" stroke-width="1.999" stroke-linecap="round" stroke-linejoin="round" stroke-miterlimit="10"/><defs><path id="SVGID_9_" d="M353.1 120.4h2.3v2.2h-2.3z"/></defs><clipPath id="SVGID_10_"><use xlink:href="#SVGID_9_" overflow="visible"/></clipPath><path d="M354.2 121.5h1" clip-path="url(#SVGID_10_)" fill="none" stroke="#bbb" stroke-width="1.999" stroke-linecap="round" stroke-linejoin="round" stroke-miterlimit="10"/><defs><path id="SVGID_11_" d="M34.7 26.7h320.8v30.7H34.7z"/></defs><clipPath id="SVGID_12_"><use xlink:href="#SVGID_11_" overflow="visible"/></clipPath><path d="M35.7 27.8l11 .5 11 .7c40.7.5 81.2 5 121.3 11.5l11 1.7 22 3 11 1.3 11 1.3 11.3 1 11 1.2 10.7 1 11.3.8 11 1 11 .8 11 .7 11 .5 11 .7 11 .2 11 .5" clip-path="url(#SVGID_12_)" fill="none" stroke="#000" stroke-width="1.999" stroke-linecap="round" stroke-linejoin="round" stroke-miterlimit="10"/><path class="st9" d="M35.7 27.8h7.1m6.9.2l7 .2m7.1.5l4.9.3h2m7 .5l2 .2 5.1.5m6.7 1l7 1.1m7 .9l6.7 1m7.1 1.1l4.7.7 2.2.5m6.8 1l1.7.5 5.3 1m6.7 1.2l7.1 1.3m6.7 1.3l7 .9m7 1.3l4.5 1 2.2.5m7.1 1.2l1.7.3 5 1m7 1.3l6.7 1.2m7 1.5l6.8 1.5m6.7 1.5l4.8 1.2 2.3.3m6.7 1.8l2.3.4 4.5 1.3m6.7 1.5l7 1.7m6.7 1.5l6.8 1.8m6.7 2l5.5 1.2 1.3.6m6.7 1.7l3 .7L304 75m6.7 1.7l.6.3 6.2 1.8m6.7 1.9l6.6 2m6.7 2.1l6.8 1.9"/><defs><path id="SVGID_13_" d="M349.9 87.9h5.6v3.5h-5.6z"/></defs><clipPath id="SVGID_14_"><use xlink:href="#SVGID_13_" overflow="visible"/></clipPath><path d="M351 89l4.2 1.2" clip-path="url(#SVGID_14_)" fill="none" stroke="#000" stroke-width="1.999" stroke-linecap="round" stroke-linejoin="round" stroke-miterlimit="10"/><path class="st11" d="M66.5 19.2l-26 6.5"/><path d="M41.3 24l-4.8 2.7h5.2l-.4-2.7"/><path class="st11" d="M78.8 46.2L41 54"/><path d="M41.5 52.2l-4.7 2.6 5.2.2-.5-2.8"/><path class="st11" d="M73.5 91.2L42 79.7"/><path d="M43.5 78.8l-5.5-.6 4.5 3.3 1-2.7"/><text transform="rotate(-90 46.844 39.12)" class="st12 st13">SFR</text><text transform="rotate(-90 36.594 28.87)" class="st12 st13">[%]</text><text transform="translate(13.243 103.966)" class="st12 st13">20</text><text transform="translate(13.243 71.987)" class="st12 st13">40</text><text transform="translate(13.243 39.764)" class="st12 st13">60</text><text transform="translate(13.243 7.723)" class="st12 st13">80</text><text transform="translate(17.744 136.484)" class="st12 st13">0</text><text transform="translate(152.265 164.99)" class="st12 st13">Image Height [mm]</text><text transform="translate(33.225 152.271)" class="st12 st13">0</text><path class="st0" d="M42 103.7h73.7v27.8H42v-27.8z"/><path class="st9" d="M45.8 112h18"/><text transform="translate(67.963 115.485)" class="st12 st13">Sagittal</text><path class="st9" d="M45.8 123.5h6.9m7 0h4.1"/><text transform="translate(67.463 127.006)" class="st12 st13">Tangential</text><text transform="translate(72.464 20.988)" class="st12 st13">60 LP/mm</text><text transform="translate(76.72 94.73)" class="st12 st13">120 LP/mm</text><text transform="translate(82.238 48.773)" class="st12 st13">90 LP/mm</text><text transform="translate(91.723 152.271)" class="st12 st13">1</text><text transform="translate(149.462 152.271)" class="st12 st13">2</text><text transform="translate(207.226 152.27)" class="st12 st13">3</text><text transform="translate(265.797 152.27)" class="st12 st13">4</text><text transform="translate(324.223 152.271)" class="st12 st13">5</text></svg>