<svg version="1.1" id="Ebene_1" xmlns="http://www.w3.org/2000/svg" x="0" y="0" viewBox="0 0 652 334.5" style="background-color:#fff" xml:space="preserve"><style>.st1{fill:none;stroke:#000;stroke-width:.4252;stroke-miterlimit:10}.st1,.st2{stroke-linecap:round;stroke-linejoin:round}.st2,.st3{fill:none;stroke:#000;stroke-width:.2835;stroke-miterlimit:10}.st4{font-family:Helvetica,Arial,sans-serif}.st5{font-size:16px}.st6{font-size:12px}.st10,.st7,.st9{fill:none;stroke:#000;stroke-width:.2835;stroke-linecap:round;stroke-linejoin:round}.st9{stroke-dasharray:.5932,4.4488}.st10{stroke-dasharray:8.8976,4.4488,.5932,4.4488}.st15{font-size:11.9906px}</style><g id="blaze"><path class="st1" d="M273.5 143.2l2.7-2.7m-15.3 2.7l13.6-13.7m-26.4 13.7l23.4-23.4m1.2-1.3l1.1-1.1m-38.5 25.8l32.4-32.3m-45 32.3l36-36m-48.8 36l42.3-42.3m-55.1 42.3l49-49m.4-.2l5.4-5.4m-67.5 54.6L240 87.5m-68.2 55.7l54.7-54.8M159 143.2l55.6-55.7m-68.4 55.7l55.3-55.3m-67.9 55.3l55.3-55.3m-68.1 55.3l55.3-55.3M108 143.2l54.6-54.6m-88.4 50.2L123 90.2m-47.4 34.4L117 83.2M80.5 107l30.8-30.6m-23.8 11l18-18m-18.7 5.9l13-12.8m-20.4 7.6l11.9-11.9M74 62.7l4.5-4.5m16.8 85l14.5-14.6m16.8-16.6L152 86.5m-69.3 56.7l19.2-19.6m9.2-8.9l28.3-28.2M78.5 228.3l-4.5-4.7m17.3 4.7l-11.9-12.1m20.4 7.6l-17.5-17.3m23.2 10.5l-27.9-27.9m33.7 21l-41.2-41.2m46.9 34.2l-49.8-49.9m79.2 66.5l-8.7-8.7M123 196.3l-53.1-53.1m79 66.4l-8.3-8.5m-15.2-40.6L108 143.2m56.7 56.7l-26.2-26.3m37.6 24.8l-55.3-55.2m87.9 75.2l-10.8-10.8m-9-9.2l-55.3-55.2m72.5 59.9l-59.9-59.9m68.4 55.6L159 143.2m67.5 54.7l-54.7-54.7m68.2 55.6l-55.6-55.6m67.5 54.5l-5.4-5.2m-.4-.4l-49-48.9m56.4 43.5l-43.6-43.5m48.8 36l-36-36m45 32.4l-32.4-32.4m35.8 23l-23-23m26.1 13.3l-13.3-13.3m14.7 2.1l-2.1-2.1m-134.1 56.7l-21.8-21.7M100 160.8l-17.3-17.6m69.3 56.7l-22.1-22.1m-15.5-15.3l-19.1-19.3m151.2-47.9h-.4v-7.4l-.2-.4H231l-.9.9h-4.7l-.7-.9h-15.1l-.2.4v1.6h-.6v-1.1l-.5-.5h-7.4m0 0h-.7m0 0H198m0 0h-.9m0 0h-25.2v2.3h-.1v-2.3l-1.5-1.4h-2.9m0 0V89m0 0h-.1v-.4h-8v.6h-.3m0 0v-2.7m0 0h-24.1l-7.8 3v1.1h-3.9L96 58.2H84.6v.5h-4.3v-.5H68.8l-2 2v1.1l.9.7h4.9v-1.6H74v4.8l.7.7h4v3.5l.9.9h8.6v.5h-1.4v5.8l1.1.9-.7.7v1.6h1v2.9h-1v4.1l2.1 2.4m.1 0c-10.1 16.2-15.4 34.9-15.4 54m0 0h202.3m0 .1c0-8.4-1.8-16.7-5.2-24.4m0-.2l2.7-.4v-3.9h1.3l1.1-1.1v-1.8l-.6-.6h-10.8v-2.8l-.9-.9h-7.5v1.2h-2.9v-4.1l-.4-.4v-1.1h-.9v-5h.9v-.9l.4-.5v-6.2l-2.4-2.1h-4.5l-.1.2v7m-85.4-8.7l-1.4-.1h-.7m8.3 2.1h-.2m0 0H164m-1.4 0h1.4m-1.4 0h-3.3m0 0v-.9m0 0h3.3m1.4 0h3.1m0 .9v-.9m-6-1.1l.9.4 1.3.2 1.1-.2 1.1-.4 1.2-.1h.7m29.9 1.4h.7m-13.1 0h-4.3m14.6 0h.7m1.2 0h.2m2.9 0h.7m9.9-1.4l-1.2 1m15.1 0l-1.3-1m0 0h-12.6m21.3 0l-1.1 1m14.9 0l-1.1-1m0 0h-12.7M79.6 109.7V70.3M74.7 130V65.9m-7 77.3V62m4.9 81.2V62m180.9 42.3v-7.9M87.2 82.7v-2.9"/><path class="st1" d="M167.1 87.7H164v.9m-1.4 0v-.9h-3.3m93.8 15.1v-5m-165.9-11v6m186.6 21.6h1.3l.7-.6m0 0h.4l.5.6v3.4l-2.9.5m-207 24.9V61.3m7.2 81.9v-78m4.7 47V69.4m197.5 44.4v-.5m.1 29.9h.4v-25.4m-68 88.4l-.6-.6h-2v-7.2h2.2l.5-.5v-1.1h.6v1.6l.2.4h15.1l.7-.9h4.7l.9.9h14.9l.2-.4V191h.4v7.1l.1.3h4.5l2.4-2.3v-18.2h2.9v1.3h7.5l.9-.9v-2.7h10.8l.6-.8V173l-1.1-1h-1.8v-3.8l-2.7-.6m-72.7 51.5l.5.6h9.7l.6-.6m-36.9-23h.1v2.3h28.5v7.2h-2l-.5.6m72.6-38.5c3.5-7.7 5.2-16 5.2-24.4m.1-.1H66.6m0 0c0 19.1 5.3 37.8 15.4 54m.1 0l-2.1 2.3v4.1h1.9l.6 2.9H80v1.8l.7.6-1.1.9v5.7h2v.6h-2l-.9.9v3.4h-4l-.7.9v4.7h-1.4v-1.7h-4.9l-.9.9v1.1l2 2h11.5v-.7h4.3v.7H96l27.2-32.4h3.9v.9l7.8 3.1h5.5m-1.8 19.8h9.6m-2-19.8h20v-.4h2.5v.4h1.6l1.5-1.5v-2.3M80 206.5v-2.9"/><path class="st1" d="M273.3 168.2v-.2l2.9.5v-25.3m-1.1 28.8h-1.8m2.9 1v-29.8m-.6 29.3l-.5-.5m-43.9 26.8l.9.7m0 0h12.7m0 0l.9-.7m-22.3.7l.9-.7m-14.4 0l.9.7m0 0h12.6m-25.5 19.6l-.2-.2m11.3 0l-.3.2m0-12.9l.3.1m-11.3 0l.2-.1m-118.3 9.9v-6.3m-.9 7.2v-25.6m-4 29v-37.5m-7 41.4v-66.9m-.9 67.8v-76.6m71.1 70.5l-.2-.2m10.5.8l.9-.8m-10.5.8h-.1m.1-14.1v-.2h1.8m5.8 0h1.8l.2.2m.5.6l.4.1m-.4-.1l.4.1m-10.5-.7l-.9.7m28.5-6.4h2.5m107.5-31.4v3.6l-.6.4m-194 43.6v-.6m-9 8.8v-47.1m65.1 29.1v12.6m11.4 0v-12.6m48.6 0v12.6m11.3-12.6v12.6m-70.5.8l-.6-.6m10.3-13.5l.5.6m-2.5-6.3v5.5m-5.8-5.5v5.5M526 228.3c47 0 85.1-38.1 85.1-85s-38.1-85.1-85-85.1m-.1 141.7c1.4 0 2.8-.1 4.1-.2m-3.2-1.1c.8 0 1.6 0 2.4-.1m11.9-2c.8-.2 1.5-.5 2.3-.7m10.9-5.1c.7-.4 1.4-.8 2-1.3m9.3-7.7c.6-.6 1.1-1.2 1.6-1.8m7-9.8c.4-.7.8-1.4 1.1-2.1m4.3-11.3c.2-.8.4-1.6.5-2.3m1.1-12.1c0-.8 0-1.6-.1-2.4m-2-11.8c-.2-.8-.5-1.5-.7-2.3m-5.1-11c-.4-.7-.8-1.4-1.3-2m-7.7-9.3c-.6-.6-1.2-1.1-1.8-1.6m-9.8-7c-.7-.4-1.4-.8-2.1-1.1m-11.3-4.2c-.8-.2-1.6-.4-2.3-.5"/><path class="st1" d="M534.9 87.2l.9 1.1 1.2.7m.1 0c.2.1.3.2.5.2m1.2.3h.6m0 0l1.6-.2 1.3-.5m6.8 2.5l.5 1.3 1.1 1.1m.1.1c.1.1.3.2.5.3m1 .6c.2.1.4.1.5.2m.1 0l1.4.2 1.5-.2m5.9 4.2l.2 1.4.7 1.3m.1.1c.1.2.2.3.3.4m1 .9c.2.1.3.2.5.3m-.1-.1l1.4.7 1.5.2m4.5 5.6v1.4l.3 1.4m0 .1c.1.2.1.4.2.5m.7 1.1c.1.1.2.3.4.4m0-.1l1.3.9 1.2.6m3.1 6.6l-.6 1.3v1.6m.1 0c0 .2 0 .4.1.6m.3 1.2c.1.2.2.3.3.5m0 0l.9 1.3 1 .7m-19.2-29.7h1.1m-13.4-7.9l1.1-.2m-15.1-4.1l1.1-.6m32.1 51.7c-2.2 0-4.1 1.8-4.1 4s1.8 4.1 4 4.1 4.1-1.8 4.1-4-1.8-4.1-4-4.1m-6.1-37.4c-3-2.7-6.3-5-9.8-7m8.7 4.5c-1.9-1.5-3.9-2.9-5.9-4.2"/><path class="st1" d="M566.7 141.7l-.5 1.6 1.6.6-.5 1.4 1.8.4.3-1.5 1.5.4.5-1.6-1.6-.4.4-1.6-1.7-.4-.3 1.5-1.5-.4m15.8 3.2c.1-1.9 0-3.8-.1-5.7M549 91.5c-2.2-1-4.5-1.8-6.8-2.5m8.5 4.7c-3.6-1.8-7.4-3.2-11.3-4.2m32.4 20.5c-1.4-2-3-3.8-4.7-5.6m5 8.4c-2.2-3.4-4.8-6.5-7.7-9.3m14.4 19.5c-.9-2.3-1.9-4.5-3-6.6m2.7 9.4c-1.3-3.8-3-7.5-5-11m7.7 25.1c-.2-4-.9-8-2-11.9"/><path class="st1" d="M582.4 137.2l-.7 1.3-.6 1.4m1.2-2.6c-.3-2.4-.7-4.8-1.2-7.2m.9 21.9l-1 1.1-.9 1.2m1.8-2.2c.4-2.4.6-4.8.7-7.3"/><path class="st1" d="M581.3 142.3l.6 1.4.7 1.1m-2.4 9.6c.8-3.9 1.2-8 1.1-12m-3.6 23.8l-1.1.7-1.2.9m2.3-1.5c1-2.2 1.8-4.5 2.5-6.8m-.5-2.8l.2 1.4.3 1.3m-4.7 8.6c1.8-3.6 3.2-7.4 4.2-11.3m-9.7 22.1l-1.3.4-1.4.7m2.7-1c1.5-1.9 2.9-3.9 4.2-5.9m.1-3l-.2 1.6.2 1.3m-6.9 7.1c2.7-3 5-6.3 7-9.8m-15 18.9h-1.5l-1.4.1m2.7-.1c2-1.4 3.8-3 5.6-4.7m.9-2.7l-.6 1.4-.2 1.3m-8.4 5c3.4-2.2 6.5-4.8 9.3-7.7m-19.4 14.4l-1.4-.4-1.5-.2m2.7.6c2.3-.9 4.5-1.9 6.6-3m1.7-2.4l-1.1 1.1-.5 1.2m-9.4 2.8c3.8-1.3 7.5-3 11-5m-3.7-46.1c.1-.9.1-1.9 0-2.8m4.6 2.7h-4.5m3.7.1v-2.8m-3.7-.2h4.5m-16.3 56.6c1.9-.4 3.7-1 5.5-1.6m8.3-3.6c1.7-.9 3.3-1.9 4.9-3m7-5.7c1.4-1.3 2.7-2.7 4-4.1m5.4-7.4c1-1.6 1.9-3.3 2.8-5m3.2-8.4c.5-1.8 1-3.7 1.4-5.6m-.6-23.7c-.4-1.9-1-3.7-1.6-5.5m-3.6-8.4c-.9-1.7-1.9-3.3-3-4.9m-5.7-7c-1.3-1.4-2.7-2.7-4.1-4m-7.4-5.3c-1.6-1-3.3-1.9-5-2.8m-8.5-3.3c-1.8-.5-3.7-1-5.6-1.4m35.3 23.3l1.1.4m5.7 12.6l.9.7m2.2 13.7l.9.7m-1.5 13.9l.6.9m-4.9 12.9l.2 1.1m-8.1 11.4v1m-10.8 8.9l-.2 1m-12.8 5.6l-.5 1.1m-13.7 2.2l-.7.7"/><path class="st1" d="M541.2 196.3l-1.3 1-.7 1.1m-9.9.1c4-.2 8-.9 11.9-2"/><path class="st1" d="M532 199.5l-1.3-.7-1.4-.4m2.6 1.2c2.4-.3 4.8-.7 7.2-1.2m4.4-2.8c-.2 0-.4 0-.6.1m-1.2.3c-.2.1-.3.2-.5.3m15.2-6.9c-.2.1-.4.1-.5.2m-1.1.7c-.1.1-.3.2-.4.4m13-10.9c-.2.1-.3.2-.4.3m-1 1c-.1.2-.2.3-.3.5m9.7-13.7c-.1.1-.2.3-.3.5m-.6 1.1c-.1.2-.1.4-.2.5m5.9-15.6c-.1.2-.2.3-.2.5m-.3 1.2v.6m1.5-16.8c0 .2-.1.4-.1.6m.1 1.3c0 .2.1.4.1.6m-46.5-55.1c-2.4-.4-4.8-.6-7.3-.7m.1.1H526"/><path class="st1" d="M526 196.1c29.2 0 52.8-23.6 52.8-52.8S555.1 90.4 526 90.4"/><path class="st1" d="M526 179.2c19.8 0 35.9-16.1 35.9-35.9s-16.1-35.9-35.9-35.9"/><path class="st1" d="M526 178.4c19.4 0 35.2-15.8 35.2-35.2S545.5 108 526 108"/><path class="st1" d="M526 175.6c17.8 0 32.3-14.5 32.3-32.3S543.8 111 526 111"/><path class="st1" d="M526 175c17.5 0 31.8-14.2 31.8-31.8 0-17.5-14.2-31.8-31.8-31.8"/><path class="st1" d="M526 173.2c16.6 0 30-13.4 30-30s-13.4-30-30-30m0 59.5c15.7 0 28.6-12.3 29.4-28m0-2.9c-.8-15.7-13.7-28-29.4-28m25.4 28c-.8-13.5-11.9-24.1-25.4-24.1"/><path class="st1" d="M526 167.6c13.5 0 24.4-10.9 24.4-24.4s-10.9-24.4-24.4-24.4m0 49.9c13.5 0 24.7-10.6 25.4-24M526 172.1c15.4 0 28.1-12.1 28.9-27.5m-.1-2.8c-.8-15.4-13.4-27.5-28.9-27.5m1.1 84.1l-.9.4m3.2-.5c-.2 0-.4-.1-.6-.1m-1.3.1c-.2 0-.4.1-.6.1m-.7-110.9l1.4-1m9.6 2.5c-3.6-.7-7.4-1.1-11.1-1.1m0 110.7h.9m-77.3-50.5v.6m-.2-9.7v4.5m.7 5.8l.2.2m0-.2v.2m0-.2l-.2-.2v-.2l.2.2m0-.2v.2"/><path class="st1" d="M526 58.2c-47 0-85.1 38.1-85.1 85s38.1 85.1 85 85.1M463.6 146v2.6m-.7.1v.4"/><path class="st1" d="M462.9 149.1l.2-.4v.2l-.2.4m0 0v.2m0 0l.2-.4m30.7-51.7l.4-1m12.6-5.8l.5-.9m13.7-2.3l.9-.8m4.1 0c-1.4 0-2.8.1-4.1.2M449.4 148v-9.7m.7 10.3l.2.3m0 0v-.2m0 0l-.2-.3v-.2l.2.4m0 0v-.8m0 0l-.2-.1v-.2l.2.2m0 0v-.9m0 0l-.2-.4v-.2h.2m0 0v-1.1m0 0l-.2-.1v-.2l.2-.2m0 0v-1.1m0 0l-.2-.2v-.3h.2m0 0v-1.3m0 0h-.2v-.3l.2-.2m0-1.1v1.1m0-1.1h-.2v-.2l.2-.3m0-.8v.8m0-.8h-.2v-.1l.2-.2m0-.6v.6m0-.6l-.2.2v-.2l.2-.1m0-.2v.2m0-.2l-.2.2m13.5 10.2v-9.7m-.5-.5l-.4-.2m0 0v.2m0 0l.4.1v.2l-.4-.2m0 0v.6m0 0l.4.2v.1h-.4m0 0v.8m0 0l.4.3v.2h-.4m0 0v1.1m0 0l.4.2v.3h-.4m0 0v1.3m0 0h.4v.3l-.4.2m0 1.1v-1.1m0 1.1l.4.2v.2l-.4.1m0 1.1v-1.1m0 1.1h.4v.2l-.4.4m0 .9v-.9m0 .9l.4-.2v.2l-.4.1m0 .8v-.8m0 .8l.4-.4v.2l-.4.3m0 .2v-.2m0 .2l.4-.3M525 87.9c-.8 0-1.6 0-2.4.1m-11.8 2c-.8.2-1.5.5-2.3.7m-11 5.1c-.7.4-1.4.8-2 1.3m-9.3 7.7c-.6.6-1.1 1.2-1.6 1.8m-7 9.8c-.4.7-.8 1.4-1.1 2.1m-4.2 11.3c-.2.8-.4 1.6-.5 2.3m-1.2 12.1c0 .8 0 1.6.1 2.4m2 11.9c.2.8.5 1.5.7 2.3m5.1 10.9c.4.7.8 1.4 1.3 2m7.7 9.3c.6.6 1.2 1.1 1.8 1.6m9.8 7c.7.4 1.4.8 2.1 1.1m11.3 4.3c.8.2 1.6.4 2.3.5M501 108.2c1.1 1.9 3.6 2.6 5.5 1.5s2.6-3.6 1.5-5.5-3.6-2.6-5.5-1.5-2.6 3.6-1.5 5.5m7 74.2c1.1-1.9.5-4.4-1.5-5.5-1.9-1.1-4.4-.5-5.5 1.5-1.1 1.9-.5 4.4 1.5 5.5s4.4.4 5.5-1.5m-17.7 4.9c1.9 1.5 3.9 2.9 5.9 4.2m23.9-104.7l1.1.7 1.3.5m2.7-.1l.9-.4m-.1.4h-.9m-2.5.1c-4 .2-8 .9-11.9 2m-2.2.8c.2 0 .4 0 .6-.1m1.1-.4c.2-.1.3-.2.5-.3m-2.2.7c-3.8 1.3-7.5 3-11 5m-2 1.4c.2-.1.4-.1.5-.2m1.1-.7c.1-.1.3-.2.4-.4m-2 1.3c-3.4 2.2-6.5 4.8-9.3 7.7m-1.6 1.7c.2-.1.3-.2.4-.3m.9-1c.1-.2.2-.3.3-.5m-1.7 1.8c-2.7 3-5 6.3-7 9.8m-1 2.2c.1-.1.2-.3.3-.5m.6-1.1c.1-.2.1-.4.2-.5m-1.1 2.1c-1.8 3.6-3.2 7.4-4.2 11.3m-.4 2.4c.1-.2.2-.3.2-.5m.3-1.3v-.6m-.7 2.4c-.8 3.9-1.2 8-1.1 12m.3 2.4c0-.2.1-.4.1-.6m-.1-1.3c0-.2-.1-.4-.1-.6m-.1 2.5c.2 4 .9 8 2 11.9m.8 2.3c0-.2 0-.4-.1-.6m-.4-1.2c-.1-.2-.2-.3-.3-.5m.8 2.3c1.3 3.8 3 7.5 5 11m1.3 1.9c-.1-.2-.1-.4-.2-.5m-.7-1.1c-.1-.1-.2-.3-.4-.4m1.3 2.1c2.2 3.4 4.8 6.5 7.7 9.3m1.9 1.4c-.1-.2-.2-.3-.3-.4m-1-.9c-.2-.1-.3-.2-.5-.3m1.6 1.8c3 2.7 6.3 5 9.8 7m2.3.9c-.1-.1-.3-.2-.5-.3m-1-.7c-.2-.1-.4-.1-.5-.2m1.9 1.4c3.6 1.8 7.4 3.2 11.3 4.2m2.4.3c-.2-.1-.3-.2-.5-.2m-1.3-.3h-.6m2.4.7c3.6.7 7.4 1.1 11.1 1.1"/><path class="st1" d="M517.1 199.1l-.9-.9-1.3-.9m2.2 1.9c2.4.4 4.8.6 7.3.7m1.7-1.1l-1.7 1.1m-51.3-36.4l.4-1.3v-1.6m-.4 2.9c.9 2.3 1.9 4.5 3 6.6m2.4 1.5l-1-.9-1.3-.5m-3.4-11.7l-.9-1.3-1.1-.9m-1.3-7.2l.8-1.1.5-1.4m-1.1 2.6c.3 2.4.7 4.8 1.2 7.2m-.8-22.1l.9-.9.9-1.2m-1.9 2.2c-.4 2.4-.6 4.8-.7 7.3m1.5 2.4l-.7-1.5-.7-1.1m4.8-21.4l1.3-.5 1.1-1.1m-2.4 1.7c-1 2.2-1.8 4.5-2.5 6.8m.7 2.8l-.2-1.6-.5-1.2m10.3-19.5l1.2-.3 1.5-.8m-2.7 1.2c-1.5 1.9-2.9 3.9-4.2 5.9m-.2 2.8l.2-1.4-.2-1.4m15-16.2l1.4.1 1.5-.3m-2.8.4c-2 1.4-3.8 3-5.6 4.7m-.8 2.6l.5-1.4.2-1.5m18.7-11.7l1.3.4 1.4.2m-2.7-.4c-2.3.9-4.5 1.9-6.6 3m-1.5 2.4l.9-1.2.6-1.3m11.7-3.2l1.2-.9.9-1.1M520 87c-2.4.3-4.8.7-7.2 1.2m-.2 108.6l-1.5.2-1.2.5M503 195l-.7-1.3-1.1-1m1.7 2.3c2.2 1 4.5 1.8 6.8 2.5m-29.5-21v-1.3l-.4-1.6m.4 2.9c1.4 2 3 3.8 4.7 5.6m2.6.8l-1.4-.5-1.3-.2m5.4 5.1l-.1-1.3-.8-1.4m9.9 7l-1.6-.4-1.2.2m.2-46.7c.8 15.7 13.7 28 29.4 28m-28.9-28c.8 15.4 13.4 27.5 28.8 27.5m-28.8-27.6h-.4m3.8.1c.7 13.5 11.9 24.1 25.4 24.1m-25.4-24.2h-3.4"/><path class="st1" d="M526 118.9c-13.5 0-24.4 10.9-24.4 24.4s10.9 24.4 24.4 24.4m0-49.9c-13.5 0-24.7 10.6-25.4 24m-.1-.1h.5m.1.1c-.1.9-.1 1.9 0 2.8m-.1 0h-.5m25.5-30.2c-15.4 0-28.1 12.1-28.9 27.5m0-.2h3.4m25.5-27.9c-15.7 0-28.6 12.3-29.4 28m.1-.1h.4m-34.2 7.8h-12.6m12.6-.4h-12.6m19.1-3c0 .4 0 .9.1 1.3m2.2-20.3c-.5 1.8-1 3.7-1.4 5.6m7.5-19.1c-1 1.6-1.9 3.3-2.8 5m12.1-16.5c-1.4 1.3-2.7 2.7-4 4.1M499 93.5c-1.7.9-3.3 1.9-4.9 3m18.8-8.3c-1.9.4-3.7 1-5.5 1.6m17 110h1.6m-16.2-2.3c1.8.5 3.7 1 5.6 1.4m-19.1-7.4c1.6 1 3.3 1.9 5 2.8m-16.5-12.2c1.3 1.4 2.7 2.7 4.1 4m-12.7-15.9c.9 1.7 1.9 3.3 3 4.9m-8.3-18.7c.4 1.9 1 3.7 1.6 5.5m1 .5l-1.1-.5m-2.1-13.7l-.9-.9m1.4-13.7l-.5-1.1m5-12.9l-.4-1.1m8.1-11.2v-1.2m33.3 92.1l-.9.8m-12.9-5.1l-1.3.4m-11.1-8.1H489m-8.8-10.8l-1.1-.4m-16.4-26.3h-12.4m12.4-1h-12.4m12.4-.9h-12.4m12.4-.6h-12.4m12.4-1.1h-12.4m12.4-.5h-12.4m12.4-1.1h-12.4m12.8-.5h-13m12.6 0h-12.4m12.4-1.3h-12.4m12.8 0h-13m12.6-.5h-12.4m12.4-1.1h-12.4m12.4-.5h-12.4m12.4-.8h-12.4m12.4-.3h-12.4m12.4-.6h-12.4m12.4-.3h-12.4m54.2-29l1.6-.4-.4-1.4 1.5-.5-.6-1.7-1.4.4-.4-1.4-1.6.5.4 1.4-1.5.4.4 1.6 1.4-.3.6 1.4m2.5 70.6l-1.3-1.3-1.1 1.1-1-1.1-1.3 1.3 1.1 1-1.1 1.1 1.3 1.3 1-1.1 1.1 1.1 1.3-1.3-1.3-1.1 1.3-1"/><path class="st1" d="M526 90.4c-29.2 0-52.8 23.6-52.8 52.8S496.8 196 526 196"/><path class="st1" d="M526 107.3c-19.8 0-35.9 16.1-35.9 35.9s16.1 35.9 35.9 35.9"/><path class="st1" d="M526 108.1c-19.4 0-35.2 15.8-35.2 35.2s15.7 35.2 35.2 35.2"/><path class="st1" d="M526 110.9c-17.8 0-32.3 14.5-32.3 32.3s14.5 32.3 32.3 32.3"/><path class="st1" d="M526 111.5c-17.5 0-31.8 14.2-31.8 31.8 0 17.5 14.2 31.8 31.8 31.8m-28.7-33.3v2.8"/><path class="st1" d="M526 113.3c-16.6 0-30 13.4-30 30s13.4 30 30 30m-76.4-24.6l.5.6m13.5-.7l-.5.5m6.3-2.5h-5.8m-14.2-8.3l.7-.5m-.7 10.2l.7.6m13.5-.6l-.5.6m.5-10.3l-.5-.5m7.7 8.2h-7.2m5.8-5.7h-5.8"/></g><g id="Bemassung"><path class="st2" d="M276.7 168.6v129m-23.2-189.2v217.8M66.8 225.3v27.1M67.7 62H43.6m24.1 162.4H43.6M68.8 58.2H14.4m54.4 170.1H14.4m288.8-85.1v154.4m0-154.4v183m-39.3-147h99.2m-99.2-72h99.2m-59.9 36V48.3m-236.4 13V10.9m186.7 79.4V10.9m0 79.4V10.9m22.7 102.4V10.9m-11.4 97.2V31.4"/><path class="st3" d="M648.1 102.3h-34.9l-12.2 5.8"/><path d="M601.3 105.6l-6 5.1 7.8-1.4-1.8-3.7z"/><path class="st3" d="M525.6 142.9l69.7-32.2"/></g><g id="Text"><text transform="matrix(1 0 -.00479 1 102.877 175.605)" class="st4 st5">Mod</text><text transform="rotate(-90 85.9 73.603)" class="st4 st6">Ø 60</text><text transform="rotate(-90 255.895 -80.093)" class="st4 st6">1-32 UN 2A</text><text transform="rotate(-90 260.745 -89.643)" class="st4 st6">(C-mount)</text><text transform="rotate(-90 114.67 72.795)" class="st4 st6">M58.0 x 0.75</text><text transform="translate(144.339 12.581)" class="st4 st6">65.84</text><text transform="translate(289.511 12.298)" class="st4 st6">8.02</text><text transform="translate(357.125 60)" class="st4 st6">Sensor position</text><text transform="translate(255.392 32.796)" class="st4 st6">4</text><text transform="translate(256.708 240.61)" class="st4 st6">8.2</text><text transform="translate(306.711 46.932)" class="st4 st6">9.51</text><text transform="translate(145.647 240.644)" class="st4 st6">65.84</text><text transform="translate(312.098 285.773)" class="st4 st6">9.33</text><text transform="translate(156.16 313.73)" class="st4 st6">17.526 (in air)</text><text transform="translate(104.013 125.912)" class="st4 st5">Inf.</text><text transform="translate(623.565 98.692)" class="st4 st6">R27</text></g><g id="Pfeile"><path class="st7" d="M284.1 246.9h16.2"/><path d="M285.8 249.3l-9.2-2.4 9.2-2.5v4.9z"/><path class="st7" d="M284.2 291.9h11.4"/><path d="M285.9 294.3l-9.2-2.4 9.2-2.5v4.9zm8 0l9.3-2.4-9.3-2.5v4.9z"/><path class="st7" d="M261 320.7h34.6"/><path d="M262.7 323.1l-9.2-2.4 9.2-2.5v4.9zm31.2 0l9.3-2.4-9.3-2.5v4.9z"/><path class="st2" d="M154.7 320.7h98.8"/><path class="st7" d="M74.2 246.9h171.7"/><path d="M75.9 249.3l-9.2-2.4 9.2-2.5v4.9zm168.4 0l9.2-2.4-9.2-2.5v4.9z"/><path class="st7" d="M49.2 216.9V69.8"/><path d="M51.6 215.2l-2.4 9.2-2.5-9.2h4.9zm0-143.7l-2.4-9.2-2.5 9.2h4.9z"/><path class="st7" d="M20 220.7V65.9"/><path d="M22.5 219l-2.5 9.2-2.5-9.2h5zm0-151.4L20 58.3l-2.5 9.3h5z"/><path class="st7" d="M357.5 171.7v-57"/><path d="M360 170l-2.5 9.2-2.5-9.2h5zm0-53.6l-2.5-9.2-2.5 9.2h5z"/><path class="st7" d="M283.7 53.9h11.9"/><path d="M285.4 56.4l-9.2-2.5 9.2-2.5v5zm8.5 0l9.3-2.5-9.3-2.5v5z"/><path class="st7" d="M74.2 16.6h171.5"/><path d="M75.9 19.1l-9.2-2.5 9.2-2.4v4.9zm168.1 0l9.2-2.5-9.2-2.4v4.9z"/><path class="st2" d="M253.5 37h11.3"/><path class="st7" d="M317.2 16.5h-33.5"/><path d="M285.4 14l-9.2 2.5 9.2 2.4V14z"/><path class="st2" d="M276.6 246.9h-23.1m49.7 45h34.4m-7.1-238h-27.3m0 89.3l36.1-87.9h13.9m-50 97.1v-9.2m-50-126.7h23m0 37.4h-14.3"/><path class="st7" d="M272.4 37h6.6"/><path d="M274.1 39.5l-9.2-2.5 9.2-2.5v5z"/><path class="st7" d="M227 37h18.9"/><path d="M244.3 39.5l9.2-2.5-9.2-2.5v5z"/><path d="M299.7 139.7l7 7m-7 0l7-7m-7 0l7 7m-7 0l7-7" fill="none" stroke="#000" stroke-width=".992" stroke-miterlimit="10"/></g><g id="Mittellinien_1_"><path class="st7" d="M526.1 235l-.1-4.2"/><path class="st9" d="M526 226.3v-2.8"/><path class="st10" d="M526 221.3V58"/><path class="st7" d="M526 55.8v-4.3m-91.7 91.8h4.2"/><path class="st9" d="M443 143.3h2.8"/><path class="st10" d="M448 143.3l163.3-.1"/><path class="st7" d="M613.5 143.2h4.3m-328.9.1h-4.2"/><path d="M280.3 143.3h-2.8" fill="none" stroke="#000" stroke-width=".283" stroke-linecap="round" stroke-linejoin="round" stroke-dasharray=".5817,4.3631"/><path d="M275.4 143.3l-214.3-.1" fill="none" stroke="#000" stroke-width=".283" stroke-linecap="round" stroke-linejoin="round" stroke-dasharray="8.7261,4.3631,.5817,4.3631"/><path class="st7" d="M59 143.2h-4.3m541-32.7c1 2.1 1.9 4.3 2.7 6.6"/><path d="M599.2 119.7l.6 1.8" fill="none" stroke="#000" stroke-width=".283" stroke-linecap="round" stroke-linejoin="round" stroke-dasharray=".5468,2.7339"/><path d="M600.2 122.8c1.7 6.4 2.6 13.2 2.6 20.1 0 42.7-34.6 77.2-77.2 77.2-39.8 0-72.6-30.1-76.8-68.8" fill="none" stroke="#000" stroke-width=".283" stroke-linecap="round" stroke-linejoin="round" stroke-dasharray="13.6695,2.7339,.5468,2.7339"/><path class="st7" d="M448.7 150c-.2-2.3-.3-4.7-.3-7.1"/></g><text transform="translate(548.609 314.302)" class="st4 st15">Not to scale</text><text transform="translate(548.379 329.702)" class="st4 st15">Dimensions in mm</text></svg>