<svg style="background-color:#fff" version="1.1" id="Ebene_1" xmlns="http://www.w3.org/2000/svg" xmlns:xlink="http://www.w3.org/1999/xlink" x="0" y="0" viewBox="0 0 234.9 147.2" xml:space="preserve"><style>.st0{fill:none;stroke:#000;stroke-width:.999;stroke-linecap:round;stroke-linejoin:round;stroke-miterlimit:10}.st4{font-family:Helvetica,Arial,sans-serif}.st5{font-size:9.0031px}</style><path class="st0" d="M41.2 4.7v110.8m-6.7-2h7.2m-7.2-18h7.2m-7.2-18.2h7.2m-7.2-18h7.2M34.5 41h7.2m-7.2-18h7.2M34.5 4.7h7.2"/><defs><path id="SVGID_1_" d="M41.1 58.7h193.8V60H41.1z"/></defs><clipPath id="SVGID_2_"><use xlink:href="#SVGID_1_" overflow="visible"/></clipPath><path d="M41.7 59.3h193" clip-path="url(#SVGID_2_)" fill="none" stroke="#000" stroke-width=".999" stroke-linecap="round" stroke-linejoin="round" stroke-miterlimit="10"/><defs><path id="SVGID_3_" d="M39.9 115.4H235v1.3H39.9z"/></defs><clipPath id="SVGID_4_"><use xlink:href="#SVGID_3_" overflow="visible"/></clipPath><path d="M40.5 116h194.2" clip-path="url(#SVGID_4_)" fill="none" stroke="#000" stroke-width=".999" stroke-linecap="round" stroke-linejoin="round" stroke-miterlimit="10"/><path class="st0" d="M217.2 122.8v-7.3m-34.5 7.3v-7.3m-34.8 7.3v-7.3m-34.9 7.3v-7.3m-34.5 7.3v-7.3m-35 7.3v-7.3"/><defs><path id="SVGID_5_" d="M42.4 58.2h192.5v37H42.4z"/></defs><clipPath id="SVGID_6_"><use xlink:href="#SVGID_5_" overflow="visible"/></clipPath><path d="M43.5 59.3H54l1.7.2h8.2l2.3.2h4l2.2.2h4l4 .5h2l2.2.3h2l2 .2 2.2.2 2 .2h2c5.5.6 11 1.5 16.5 1.7l2 .5 2 .2c5.6.7 11 1.8 16.7 2.2l2 .5 2 .2 2.3.5 2 .2 2 .5 2.2.5c5.5.2 9.1 2.3 14.3 2.8l4 1c5.8 1.3 11.6 2.4 17.3 4.3l2 .5 2 .7 2.3.2 2 .8 2 .5 2.3.8 2 .5 2 .5 2.2.8 2 .7 2 .5 2.2.7 2 .5 2.5.8c5.6 2 11.4 3.9 17 5.8l2.2.7 2 1 2 .5 1.7.8" clip-path="url(#SVGID_6_)" fill="none" stroke="#000" stroke-width="1.999" stroke-linecap="round" stroke-linejoin="round" stroke-miterlimit="10"/><text transform="translate(95.752 105.77)" class="st4 st5">6</text><text transform="translate(93.249 105.77)" class="st4 st5">.</text><text transform="translate(88.243 105.77)" class="st4 st5">0</text><text transform="translate(95.752 105.77)" class="st4 st5">4</text><text transform="translate(93.249 105.77)" class="st4 st5">.</text><text transform="translate(88.243 105.77)" class="st4 st5">0</text><text transform="translate(95.752 105.77)" class="st4 st5">2</text><text transform="translate(93.249 105.77)" class="st4 st5">.</text><text transform="translate(88.243 105.77)" class="st4 st5">0</text><text transform="translate(95.752 105.77)" class="st4 st5">0</text><text transform="translate(93.249 105.77)" class="st4 st5">.</text><text transform="translate(88.243 105.77)" class="st4 st5">0</text><text transform="translate(97.25 105.77)" class="st4 st5">2</text><text transform="translate(94.747 105.77)" class="st4 st5">.</text><text transform="translate(89.741 105.77)" class="st4 st5">0</text><text transform="translate(86.743 105.77)" class="st4 st5">-</text><text transform="translate(97.25 105.77)" class="st4 st5">4</text><text transform="translate(94.747 105.77)" class="st4 st5">.</text><text transform="translate(89.741 105.77)" class="st4 st5">0</text><text transform="translate(86.744 105.77)" class="st4 st5">-</text><text transform="translate(97.25 105.77)" class="st4 st5">6</text><text transform="translate(94.747 105.77)" class="st4 st5">.</text><text transform="translate(89.742 105.77)" class="st4 st5">0</text><text transform="translate(86.744 105.77)" class="st4 st5">-</text><text transform="translate(129.993 105.77)" class="st4 st5">]</text><text transform="translate(122.494 105.77)" class="st4 st5">m</text><text transform="translate(114.994 105.77)" class="st4 st5">m</text><text transform="translate(112.491 105.77)" class="st4 st5">[</text><text transform="translate(107.486 105.77)" class="st4 st5">t</text><text transform="translate(102.48 105.77)" class="st4 st5">h</text><text transform="translate(97.474 105.77)" class="st4 st5">g</text><text transform="translate(95.476 105.77)" class="st4 st5">i</text><text transform="translate(90.47 105.77)" class="st4 st5">e</text><text transform="translate(83.97 105.77)" class="st4 st5">H</text><text transform="translate(76.46 105.77)" class="st4 st5">e</text><text transform="translate(71.455 105.77)" class="st4 st5">g</text><text transform="translate(66.45 105.77)" class="st4 st5">a</text><text transform="translate(58.95 105.77)" class="st4 st5">m</text><text transform="translate(56.447 105.77)" class="st4 st5">I</text><text transform="translate(91.967 105.77)" class="st4 st5">0</text><text transform="translate(91.967 105.77)" class="st4 st5">1</text><text transform="translate(91.967 105.77)" class="st4 st5">2</text><text transform="translate(91.967 105.77)" class="st4 st5">3</text><text transform="translate(91.967 105.77)" class="st4 st5">4</text><text transform="translate(91.967 105.77)" class="st4 st5">5</text><text transform="translate(134.037 105.77)" class="st4 st5">]</text><text transform="translate(126.033 105.77)" class="st4 st5">%</text><text transform="translate(123.53 105.77)" class="st4 st5">[</text><text transform="translate(116.022 105.77)" class="st4 st5">n</text><text transform="translate(111.016 105.77)" class="st4 st5">o</text><text transform="translate(109.017 105.77)" class="st4 st5">i</text><text transform="translate(106.514 105.77)" class="st4 st5">t</text><text transform="translate(103.516 105.77)" class="st4 st5">r</text><text transform="translate(98.51 105.77)" class="st4 st5">o</text><text transform="translate(96.008 105.77)" class="st4 st5">t</text><text transform="translate(91.506 105.77)" class="st4 st5">s</text><text transform="translate(89.507 105.77)" class="st4 st5">i</text><text transform="translate(83.007 105.77)" class="st4 st5">D</text><text transform="translate(78.506 105.77)" class="st4 st5">l</text><text transform="translate(73.5 105.77)" class="st4 st5">a</text><text transform="translate(68.999 105.77)" class="st4 st5">c</text><text transform="translate(67 105.77)" class="st4 st5">i</text><text transform="translate(64.497 105.77)" class="st4 st5">t</text><text transform="translate(59.491 105.77)" class="st4 st5">p</text><text transform="translate(52.487 105.77)" class="st4 st5">O</text><path d="M45.7 94.3h98v18h-98v-18z" fill="#fff"/><path class="st0" d="M47 95.8h95.2v15H47v-15z"/><text transform="translate(49.483 105.77)" class="st4 st5">Simulated WD = 0.9 m</text><text transform="translate(18.225 7.726)" class="st4 st5">0.6</text><text transform="translate(18.225 43.964)" class="st4 st5">0.2</text><text transform="translate(18.225 62.267)" class="st4 st5">0.0</text><text transform="translate(15.227 80.507)" class="st4 st5">-0.2</text><text transform="translate(15.227 116.745)" class="st4 st5">-0.6</text><text transform="translate(75.7 133.73)" class="st4 st5">1</text><text transform="translate(105.465 144.227)" class="st4 st5">Image Height [mm]</text><text transform="translate(214.727 133.73)" class="st4 st5">5</text><text transform="translate(146.333 133.73)" class="st4 st5">3</text><text transform="translate(15.227 98.51)" class="st4 st5">-0.4</text><text transform="translate(18.225 25.972)" class="st4 st5">0.4</text><text transform="translate(111.016 133.731)" class="st4 st5">2</text><text transform="translate(179.834 133.73)" class="st4 st5">4</text><text transform="translate(41.2 133.731)" class="st4 st5">0</text><text transform="rotate(-90 56.928 46.373)" class="st4" font-size="9">Optical Distortion [%]</text></svg>