<svg style="background-color:#fff" version="1.1" id="Ebene_1" xmlns="http://www.w3.org/2000/svg" xmlns:xlink="http://www.w3.org/1999/xlink" x="0" y="0" viewBox="0 0 238.4 147.4" xml:space="preserve"><style>.st1{fill:none;stroke:#000;stroke-linecap:square;stroke-miterlimit:10}.st2{font-family:Helvetica,Arial,sans-serif}.st3{font-size:9px}</style><defs><path id="SVGID_1_" d="M0 0h235v143.5H0z"/></defs><clipPath id="SVGID_2_"><use xlink:href="#SVGID_1_" overflow="visible"/></clipPath><path d="M31.5 0v110.8" clip-path="url(#SVGID_2_)" fill="none" stroke="#000" stroke-linecap="square" stroke-miterlimit="10"/><path class="st1" d="M24.8 97.8H32"/><text transform="translate(13.5 101)" class="st2 st3">-4</text><path class="st1" d="M24.8 76H32"/><text transform="translate(13.5 79.25)" class="st2 st3">-2</text><path class="st1" d="M24.8 54.3H32"/><text transform="translate(16.5 57.5)" class="st2 st3">0</text><path class="st1" d="M24.8 32.8H32"/><text transform="translate(16.5 36)" class="st2 st3">2</text><path class="st1" d="M24.8 11H32"/><text transform="translate(16.5 14.25)" class="st2 st3">4</text><defs><path id="SVGID_3_" d="M0 0h235v143.5H0z"/></defs><clipPath id="SVGID_4_"><use xlink:href="#SVGID_3_" overflow="visible"/></clipPath><path d="M32 54.3h202.5" clip-path="url(#SVGID_4_)" fill="none" stroke="#000" stroke-linecap="square" stroke-miterlimit="10"/><defs><path id="SVGID_5_" d="M0 0h235v143.5H0z"/></defs><clipPath id="SVGID_6_"><use xlink:href="#SVGID_5_" overflow="visible"/></clipPath><path d="M31 111h203.5" clip-path="url(#SVGID_6_)" fill="none" stroke="#000" stroke-linecap="square" stroke-miterlimit="10"/><path class="st1" d="M216.2 117.8v-7"/><text transform="translate(213.75 129.5)" class="st2 st3">5</text><path class="st1" d="M180 117.8v-7"/><text transform="translate(177.25 129.5)" class="st2 st3">4</text><path class="st1" d="M143.5 117.8v-7"/><text transform="translate(140.75 129.5)" class="st2 st3">3</text><path class="st1" d="M107 117.8v-7"/><text transform="translate(104.25 129.5)" class="st2 st3">2</text><path class="st1" d="M70.5 117.8v-7"/><text transform="translate(67.75 129.5)" class="st2 st3">1</text><path class="st1" d="M34 117.8v-7"/><text transform="translate(31.25 129.5)" class="st2 st3">0</text><defs><path id="SVGID_7_" d="M0 0h235v143.5H0z"/></defs><clipPath id="SVGID_8_"><use xlink:href="#SVGID_7_" overflow="visible"/></clipPath><path d="M34 54.3l10.5.2L55 55l10.8 1 10.5 1 10.5 1.5 10.5 2 10.7 2 10.5 2.5 10.5 2.5 10.5 3 10.8 3 10.5 3.3 10.5 3.2 10.5 3.5 10.4 3.5 10.8 3.5 10.5 3.3 10.5 3.5 10.5 3.2" clip-path="url(#SVGID_8_)" fill="none" stroke="#000" stroke-width="2" stroke-linecap="square" stroke-miterlimit="10"/><path d="M35 90.5h108.8V108H35V90.5z" fill-rule="evenodd" clip-rule="evenodd" fill="#fff"/><path class="st1" d="M36.3 92h106v14.8h-106V92z"/><text transform="translate(38.75 102.5)" class="st2 st3">Measured at WD = 0.5 m</text><text transform="translate(86.25 142.06)" class="st2" font-size="9.003">Image Height [mm]</text><text transform="rotate(-90 54.932 46.07)" class="st2 st3">Optical Distortion [%]</text></svg>