<svg version="1.1" id="Ebene_1" xmlns="http://www.w3.org/2000/svg" xmlns:xlink="http://www.w3.org/1999/xlink" x="0" y="0" viewBox="0 0 295.9 113.6" style="background-color:#fff" xml:space="preserve"><style>.st3{fill:#bfbfbf}.st10{font-family:Helvetica,Arial,sans-serif}.st11{font-size:5px}</style><defs><path id="SVGID_1_" d="M-179.3-278.4h563.8v684.5h-563.8z"/></defs><clipPath id="SVGID_2_"><use xlink:href="#SVGID_1_" overflow="visible"/></clipPath><path d="M56 12h175v.7H56V12zm0 13.5h175v.7H56v-.7zm0 13.4h175v.6H56v-.6zm0 13.5h175v.7H56v-.7zm0 13.4h175v.7H56v-.7z" clip-path="url(#SVGID_2_)" fill="#d9d9d9"/><defs><path id="SVGID_3_" d="M-179.3-278.4h563.8v684.5h-563.8z"/></defs><clipPath id="SVGID_4_"><use xlink:href="#SVGID_3_" overflow="visible"/></clipPath><path d="M231.3 9v70.4h-.7V9h.7zm-43.8 0v70.4h-.6V9h.6zm-43.6 0v70.4h-.7V9h.7zm-43.7 0v70.4h-.7V9h.7z" clip-path="url(#SVGID_4_)" fill="#d9d9d9"/><path class="st3" d="M55.7 9h.7v70.4h-.7V9z"/><path class="st3" d="M56 79.2h175v.6H56v-.6z"/><defs><path id="SVGID_5_" d="M-179.3-278.4h563.8v684.5h-563.8z"/></defs><clipPath id="SVGID_6_"><use xlink:href="#SVGID_5_" overflow="visible"/></clipPath><path d="M248.5 32.8h17.6c.4 0 .7.4.7.7 0 .4-.4.7-.7.7h-17.6c-.4 0-.7-.4-.7-.7s.3-.7.7-.7z" clip-path="url(#SVGID_6_)"/><defs><path id="SVGID_7_" d="M-179.3-278.4h563.8v684.5h-563.8z"/></defs><clipPath id="SVGID_8_"><use xlink:href="#SVGID_7_" overflow="visible"/></clipPath><path d="M248.5 45.4h17.6c.4 0 .7.4.7.7 0 .4-.4.7-.7.7h-17.6c-.4 0-.7-.4-.7-.7s.3-.7.7-.7z" clip-path="url(#SVGID_8_)" fill="#4f81bd"/><defs><path id="SVGID_9_" d="M-179.3-278.4h563.8v684.5h-563.8z"/></defs><clipPath id="SVGID_10_"><use xlink:href="#SVGID_9_" overflow="visible"/></clipPath><path d="M248.5 58h17.6c.4 0 .7.4.7.7 0 .4-.4.7-.7.7h-17.6c-.4 0-.7-.4-.7-.7s.3-.7.7-.7z" clip-path="url(#SVGID_10_)" fill="#c0504d"/><path d="M56.4 79.5l3.5-.6 1.6-1.1 1.5-.7 1.2-1.2 1.2-1.9 1.1-2.3 1.4-5.2 2.4-13.1 2-18.9 1-11.5 1-8 .3-2 .4-.8 1.2-.2.6.4.2 1 1.1 8 2 12 2.8 13.5 1.7 7.4 1.7 4.9 1 1.2h1.2l1.5-.7 1.4-1.2 4.7-5.3 9.2-9.1 2.1-1.2 1.3-.9 2.6-1.2 2-.6 2.4-.4 3.1-.3 7.8.1 6.9-.2 5-.5 2.4-.2 2.6.1 1.7.5 2.5 1.1 3.8 2.5 3.8 2.7 4.6 5.6 6 7 9.6 8.9 4.4 2.8 1.5.8 2.2 1.2 2.3 1 2.1.8 2.5.9 2.7.7 3.3.8 2.7.5 4.2.6 6.6.6 11.9 1.1h9.9" fill="none" stroke="#1d1d1b" stroke-width="2" stroke-miterlimit="10"/><path d="M68.3 78.5l2.7-1.2.7-.6 1.1-1.3 1.1-2.2 1.1-2.6 1.9-7.8 1.3-8.5 1.1-7.9 1.4-12.9.9-8.3.7-5.2 1-6 .4-1.2 1 .2 1.4.2.8 3 1.9 15 1.7 14.1L93 59.2l1.8 6.1 2.3 5.7 1.5 2.4 1.5 1.5.9.7 1.7 1 1.7.7 2.3.6 1.9 1h4.3l17.2-.1H155l6 .1 10.2.1 12.4-.2h15l8.3.1h24" fill="none" stroke="#4f81bd" stroke-width="2" stroke-miterlimit="10"/><path d="M59.9 78.9h46.9l22.5-.1 11.1-.6 2.6-.9 1.2-.6 1.9-1.3 2.2-2.6 1.8-3.3 1.4-4.4 1.7-6.6 2.1-12.9 1.2-12.2.8-7.9.8-8.2.5-3.2.1-1.2.4-1 .7-.2.9.7.6 2.9 1.1 14.7 1.3 19.6 1.5 13.8 1.6 7.7 1.2 3.1.9 1.6 1.8 1.5 2.4.9 4 .4 7.7.2m-3.7.1h14.3l21.2.1 13.5-.1M0 0" fill="none" stroke="#c0504d" stroke-width="2" stroke-miterlimit="10"/><text transform="translate(272.787 34.736)" class="st10 st11">White</text><text transform="translate(272.787 47.467)" class="st10 st11">Blue</text><text transform="translate(272.788 59.684)" class="st10 st11">Red</text><text transform="rotate(-90.203 50.578 31.06)" class="st10 st11">Relative Emission Intensity (a.u.)</text><text transform="translate(129.16 104.968)" class="st10 st11">Wavelength (nm)</text><text transform="translate(44.65 12.8)" class="st10 st11">1</text><text transform="translate(41.856 26.854)" class="st10 st11">0.8</text><text transform="translate(41.856 39.96)" class="st10 st11">0.6</text><text transform="translate(41.856 53.097)" class="st10 st11">0.4</text><text transform="translate(41.856 67.662)" class="st10 st11">0.2</text><text transform="translate(44.65 79.8)" class="st10 st11">0</text><text transform="translate(53.26 90.554)" class="st10 st11">400</text><text transform="translate(96.423 90.554)" class="st10 st11">500</text><text transform="translate(140.44 90.554)" class="st10 st11">600</text><text transform="translate(183.109 90.555)" class="st10 st11">700</text><text transform="translate(226.538 90.555)" class="st10 st11">800</text></svg>