<svg version="1.1" id="Layer_1" xmlns="http://www.w3.org/2000/svg" x="0" y="0" viewBox="0 0 691.7 490.2" style="background-color:#fff" xml:space="preserve"><style>.st1{font-family:Helvetica,Arial,sans-serif}.st2{font-size:8px}.st3{fill:none;stroke:#009749;stroke-miterlimit:3.864}.st4{fill:#009749}.st5{fill:none;stroke:#009749;stroke-width:.4;stroke-miterlimit:3.864}.st6{fill:#fff}.st7{font-size:9px}.st8{fill:none;stroke:#f89945;stroke-miterlimit:3.864}.st9{fill:#f89945}.st10,.st11{fill:none;stroke:#f89945;stroke-width:.4;stroke-miterlimit:3.864}.st11{stroke:#369}.st12{fill:#369}.st13,.st14{fill:none;stroke:#369;stroke-miterlimit:3.864}.st14{stroke:#ac314e;stroke-width:.4}.st15{fill:#ac314e}.st16,.st17{fill:none;stroke:#ac314e;stroke-miterlimit:3.864}.st17{stroke:#000;stroke-width:.5}.st19{font-size:14px}</style><path d="M213.6 327.9h191.9v119.6H213.6V327.9zm-.1-168.5h191.9v71.8H213.5v-71.8zm311.7 0h83.7v71.8h-83.7v-71.8zm0 168.2h83.7v119.9h-83.7V327.6z" fill="#bebebe"/><text transform="translate(97.013 83.824)" class="st1 st2">0</text><text transform="translate(109.013 83.824)" class="st1 st2">1</text><text transform="translate(88.355 96.423)" class="st1 st2">0</text><text transform="translate(121.013 83.824)" class="st1 st2">2</text><text transform="translate(133.013 83.824)" class="st1 st2">3</text><text transform="translate(145.013 83.824)" class="st1 st2">4</text><text transform="translate(157.013 83.824)" class="st1 st2">5</text><text transform="translate(169.013 83.824)" class="st1 st2">6</text><text transform="translate(181.013 83.824)" class="st1 st2">7</text><text transform="translate(193.013 83.824)" class="st1 st2">8</text><text transform="translate(204.413 83.824)" class="st1 st2">9</text><text transform="translate(215.013 83.824)" class="st1 st2">10</text><text transform="translate(227.013 83.824)" class="st1 st2">1</text><text transform="translate(230.235 83.824)" class="st1 st2">1</text><text transform="translate(239.013 83.824)" class="st1 st2">12</text><text transform="translate(251.013 83.824)" class="st1 st2">13</text><text transform="translate(263.013 83.824)" class="st1 st2">14</text><text transform="translate(275.013 83.824)" class="st1 st2">15</text><text transform="translate(287.013 83.824)" class="st1 st2">16</text><text transform="translate(299.013 83.824)" class="st1 st2">17</text><text transform="translate(311.013 83.824)" class="st1 st2">18</text><text transform="translate(323.013 83.824)" class="st1 st2">19</text><text transform="translate(335.013 83.824)" class="st1 st2">20</text><text transform="translate(347.013 83.824)" class="st1 st2">21</text><text transform="translate(359.013 83.824)" class="st1 st2">22</text><text transform="translate(371.013 83.824)" class="st1 st2">23</text><text transform="translate(383.012 83.824)" class="st1 st2">24</text><text transform="translate(395.012 83.824)" class="st1 st2">25</text><text transform="translate(407.012 83.824)" class="st1 st2">26</text><text transform="translate(419.012 83.824)" class="st1 st2">27</text><text transform="translate(431.012 83.824)" class="st1 st2">28</text><text transform="translate(443.012 83.824)" class="st1 st2">29</text><text transform="translate(455.013 83.824)" class="st1 st2">30</text><text transform="translate(88.255 108.423)" class="st1 st2">1</text><text transform="translate(88.355 120.423)" class="st1 st2">2</text><text transform="translate(88.355 132.423)" class="st1 st2">3</text><text transform="translate(88.355 144.423)" class="st1 st2">4</text><text transform="translate(88.355 156.423)" class="st1 st2">5</text><text transform="translate(88.355 168.423)" class="st1 st2">6</text><text transform="translate(88.355 180.423)" class="st1 st2">7</text><text transform="translate(88.355 192.423)" class="st1 st2">8</text><text transform="translate(88.355 204.423)" class="st1 st2">9</text><text transform="translate(84.71 216.423)" class="st1 st2">10</text><text transform="translate(85.133 228.423)" class="st1 st2">1</text><text transform="translate(88.355 228.423)" class="st1 st2">1</text><text transform="translate(84.71 240.423)" class="st1 st2">12</text><text transform="translate(84.71 252.423)" class="st1 st2">13</text><text transform="translate(84.71 264.423)" class="st1 st2">14</text><text transform="translate(84.71 276.423)" class="st1 st2">15</text><text transform="translate(84.71 288.423)" class="st1 st2">16</text><text transform="translate(84.71 300.423)" class="st1 st2">17</text><text transform="translate(84.71 312.423)" class="st1 st2">18</text><text transform="translate(84.71 324.423)" class="st1 st2">19</text><path class="st3" d="M35.1 86.8H21.4"/><text transform="translate(85.004 335.912)" class="st1 st2">20</text><text transform="translate(85.004 347.912)" class="st1 st2">21</text><text transform="translate(85.004 359.912)" class="st1 st2">22</text><text transform="translate(85.004 371.912)" class="st1 st2">23</text><text transform="translate(85.004 383.912)" class="st1 st2">24</text><text transform="translate(85.004 395.912)" class="st1 st2">25</text><text transform="translate(85.004 407.912)" class="st1 st2">26</text><text transform="translate(85.004 455.912)" class="st1 st2">30</text><text transform="translate(85.004 419.912)" class="st1 st2">27</text><text transform="translate(85.004 431.912)" class="st1 st2">28</text><text transform="translate(85.004 443.912)" class="st1 st2">29</text><path class="st4" d="M29.7 166.7H26l1.8-6.6 1.9 6.6zm.1 57.8h-3.7l1.8 6.5 1.9-6.5z"/><path class="st5" d="M27.8 92.2v63"/><path class="st4" d="M29.6 94.2h-3.7l1.8-6.6 1.9 6.6zm0 58.3h-3.7l1.8 6.5 1.9-6.5z"/><path class="st5" d="M27.9 166.7v59.6"/><path class="st6" d="M11.4 109h33.8v25H11.4v-25z"/><text transform="translate(14.33 119.377)" class="st1 st7">Row 1</text><text transform="translate(15.73 130.177)" class="st1 st7">Offset</text><path class="st6" d="M11.4 182.5h33.8v25H11.4v-25z"/><text transform="translate(14.33 192.684)" class="st1 st7">Row 1</text><text transform="translate(19.73 203.484)" class="st1 st7">Size</text><path class="st8" d="M66.5 86.8H52.4"/><path class="st9" d="M60.6 320.3H57l1.7 6.6z"/><path class="st10" d="M58.8 90.7v232.6"/><path class="st9" d="M60.6 93.7H57l1.7-6.6z"/><path class="st6" d="M42 265h33.8v25H42v-25z"/><text transform="translate(45.236 275.377)" class="st1 st7">Row 2</text><text transform="translate(46.636 286.177)" class="st1 st7">Offset</text><path class="st9" d="M60.7 440.1h-3.6l1.7 6.6zm0-104.3H57l1.7-6.7z"/><path class="st10" d="M58.8 336v107.4"/><path class="st6" d="M42 374.2h33.8v25H42v-25z"/><text transform="translate(45.236 383.997)" class="st1 st7">Row 2</text><text transform="translate(50.636 394.797)" class="st1 st7">Size</text><path class="st11" d="M218.8 29.1h180.4"/><path class="st12" d="M220.8 27.3V31l-6.6-1.8zm178.1-.1v3.7l6.5-1.8z"/><path class="st6" d="M290.3 16H335v22.2h-44.7V16z"/><text transform="translate(292.603 24.955)" class="st1 st7">Column 1</text><text transform="translate(303.358 35.755)" class="st1 st7">Size</text><path class="st13" d="M84.9 22v13.7"/><path class="st11" d="M90.3 28.9h116.6"/><path class="st12" d="M92.3 27v3.7l-6.6-1.8zm113.6 0v3.7l6.5-1.8z"/><path class="st6" d="M130.5 16h44.7v22.2h-44.7V16z"/><text transform="translate(132.803 24.955)" class="st1 st7">Column 1</text><text transform="translate(140.257 35.755)" class="st1 st7">Offset</text><path class="st14" d="M531.8 56.1h69.8"/><path class="st15" d="M531.8 54.3V58l-6.6-1.8zm69.9-.1v3.7l6.5-1.8z"/><path class="st6" d="M544.9 43.3h44.7v22.2h-44.7V43.3z"/><text transform="translate(547.723 52.277)" class="st1 st7">Column 2</text><text transform="translate(559.479 63.077)" class="st1 st7">Size</text><path class="st16" d="M85 49.2v13.7"/><path class="st14" d="M92.3 56.2h426.6"/><path class="st15" d="M92.3 54.3V58l-6.6-1.8zm425.6 0V58l6.5-1.8z"/><path class="st6" d="M441.5 43.3h44.7v22.2h-44.7V43.3z"/><text transform="translate(444.803 52.277)" class="st1 st7">Column 2</text><text transform="translate(452.257 63.077)" class="st1 st7">Offset</text><path class="st17" d="M95.2 89.5h8v8h-8zm12 0h8v8h-8zm12 0h8v8h-8v-8zm12 0h8v8h-8v-8zm12 0h8v8h-8v-8zm12 0h8v8h-8v-8zm12 0h8v8h-8v-8zm12 0h8v8h-8v-8zm12 0h8v8h-8v-8zm12 0h8v8h-8v-8zm12 0h8v8h-8v-8zm12 0h8v8h-8v-8zm12 0h8v8h-8v-8zm12 0h8v8h-8v-8zm12 0h8v8h-8v-8zm12 0h8v8h-8v-8zm12 0h8v8h-8v-8zm12 0h8v8h-8v-8zm12 0h8v8h-8v-8zm12 0h8v8h-8v-8zm12 0h8v8h-8v-8zm12 0h8v8h-8v-8zm12 0h8v8h-8v-8zm12 0h8v8h-8v-8zm12 0h8v8h-8v-8zm12 0h8v8h-8v-8zm12 0h8v8h-8v-8zm12 0h8v8h-8v-8zm12 0h8v8h-8v-8zm12 0h8v8h-8v-8zm12 0h8v8h-8v-8zm12 0h8v8h-8v-8zm-372 12h8v8h-8v-8zm12 0h8v8h-8v-8zm12 0h8v8h-8v-8zm12 0h8v8h-8v-8zm12 0h8v8h-8v-8zm12 0h8v8h-8v-8zm12 0h8v8h-8v-8zm12 0h8v8h-8v-8zm12 0h8v8h-8v-8zm12 0h8v8h-8v-8zm12 0h8v8h-8v-8zm12 0h8v8h-8v-8zm12 0h8v8h-8v-8zm12 0h8v8h-8v-8zm12 0h8v8h-8v-8zm12 0h8v8h-8v-8zm12 0h8v8h-8v-8zm12 0h8v8h-8v-8zm12 0h8v8h-8v-8zm12 0h8v8h-8v-8zm12 0h8v8h-8v-8zm12 0h8v8h-8v-8zm12 0h8v8h-8v-8zm12 0h8v8h-8v-8zm12 0h8v8h-8v-8zm12 0h8v8h-8v-8zm12 0h8v8h-8v-8zm12 0h8v8h-8v-8zm12 0h8v8h-8v-8zm12 0h8v8h-8v-8zm12 0h8v8h-8v-8zm12 0h8v8h-8v-8zm-372 12h8v8h-8v-8zm12 0h8v8h-8v-8zm12 0h8v8h-8v-8zm12 0h8v8h-8v-8zm12 0h8v8h-8v-8zm12 0h8v8h-8v-8zm12 0h8v8h-8v-8zm12 0h8v8h-8v-8zm12 0h8v8h-8v-8zm12 0h8v8h-8v-8zm12 0h8v8h-8v-8zm12 0h8v8h-8v-8zm12 0h8v8h-8v-8zm12 0h8v8h-8v-8zm12 0h8v8h-8v-8zm12 0h8v8h-8v-8zm12 0h8v8h-8v-8zm12 0h8v8h-8v-8zm12 0h8v8h-8v-8zm12 0h8v8h-8v-8zm12 0h8v8h-8v-8zm12 0h8v8h-8v-8zm12 0h8v8h-8v-8zm12 0h8v8h-8v-8zm12 0h8v8h-8v-8zm12 0h8v8h-8v-8zm12 0h8v8h-8v-8zm12 0h8v8h-8v-8zm12 0h8v8h-8v-8zm12 0h8v8h-8v-8zm12 0h8v8h-8v-8zm12 0h8v8h-8v-8zm-372 12h8v8h-8v-8zm12 0h8v8h-8v-8zm12 0h8v8h-8v-8zm12 0h8v8h-8v-8zm12 0h8v8h-8v-8zm12 0h8v8h-8v-8zm12 0h8v8h-8v-8zm12 0h8v8h-8v-8zm12 0h8v8h-8v-8zm12 0h8v8h-8v-8zm12 0h8v8h-8v-8zm12 0h8v8h-8v-8zm12 0h8v8h-8v-8zm12 0h8v8h-8v-8zm12 0h8v8h-8v-8zm12 0h8v8h-8v-8zm12 0h8v8h-8v-8zm12 0h8v8h-8v-8zm12 0h8v8h-8v-8zm12 0h8v8h-8v-8zm12 0h8v8h-8v-8zm12 0h8v8h-8v-8zm12 0h8v8h-8v-8zm12 0h8v8h-8v-8zm12 0h8v8h-8v-8zm12 0h8v8h-8v-8zm12 0h8v8h-8v-8zm12 0h8v8h-8v-8zm12 0h8v8h-8v-8zm12 0h8v8h-8v-8zm12 0h8v8h-8v-8zm12 0h8v8h-8v-8zm-372 12h8v8h-8v-8zm12 0h8v8h-8v-8zm12 0h8v8h-8v-8zm12 0h8v8h-8v-8zm12 0h8v8h-8v-8zm12 0h8v8h-8v-8zm12 0h8v8h-8v-8zm12 0h8v8h-8v-8zm12 0h8v8h-8v-8zm12 0h8v8h-8v-8zm12 0h8v8h-8v-8zm12 0h8v8h-8v-8zm12 0h8v8h-8v-8zm12 0h8v8h-8v-8zm12 0h8v8h-8v-8zm12 0h8v8h-8v-8zm12 0h8v8h-8v-8zm12 0h8v8h-8v-8zm12 0h8v8h-8v-8zm12 0h8v8h-8v-8zm12 0h8v8h-8v-8zm12 0h8v8h-8v-8zm12 0h8v8h-8v-8zm12 0h8v8h-8v-8zm12 0h8v8h-8v-8zm12 0h8v8h-8v-8zm12 0h8v8h-8v-8zm12 0h8v8h-8v-8zm12 0h8v8h-8v-8zm12 0h8v8h-8v-8zm12 0h8v8h-8v-8zm12 0h8v8h-8v-8zm-372 12h8v8h-8v-8zm12 0h8v8h-8v-8zm12 0h8v8h-8v-8zm12 0h8v8h-8v-8zm12 0h8v8h-8v-8zm12 0h8v8h-8v-8zm12 0h8v8h-8v-8zm12 0h8v8h-8v-8zm12 0h8v8h-8v-8zm12 0h8v8h-8v-8zm12 0h8v8h-8v-8zm12 0h8v8h-8v-8zm12 0h8v8h-8v-8zm12 0h8v8h-8v-8zm12 0h8v8h-8v-8zm12 0h8v8h-8v-8zm12 0h8v8h-8v-8zm12 0h8v8h-8v-8zm12 0h8v8h-8v-8zm12 0h8v8h-8v-8zm12 0h8v8h-8v-8zm12 0h8v8h-8v-8zm12 0h8v8h-8v-8zm12 0h8v8h-8v-8zm12 0h8v8h-8v-8zm12 0h8v8h-8v-8zm12 0h8v8h-8v-8zm12 0h8v8h-8v-8zm12 0h8v8h-8v-8zm12 0h8v8h-8v-8zm12 0h8v8h-8v-8zm12 0h8v8h-8v-8zm-372 12h8v8h-8v-8zm12 0h8v8h-8v-8zm12 0h8v8h-8v-8zm12 0h8v8h-8v-8zm12 0h8v8h-8v-8zm12 0h8v8h-8v-8zm12 0h8v8h-8v-8zm12 0h8v8h-8v-8zm12 0h8v8h-8v-8zm12 0h8v8h-8v-8zm12 0h8v8h-8v-8zm12 0h8v8h-8v-8zm12 0h8v8h-8v-8zm12 0h8v8h-8v-8zm12 0h8v8h-8v-8zm12 0h8v8h-8v-8zm12 0h8v8h-8v-8zm12 0h8v8h-8v-8zm12 0h8v8h-8v-8zm12 0h8v8h-8v-8zm12 0h8v8h-8v-8zm12 0h8v8h-8v-8zm12 0h8v8h-8v-8zm12 0h8v8h-8v-8zm12 0h8v8h-8v-8zm12 0h8v8h-8v-8zm12 0h8v8h-8v-8zm12 0h8v8h-8v-8zm12 0h8v8h-8v-8zm12 0h8v8h-8v-8zm12 0h8v8h-8v-8zm12 0h8v8h-8v-8zm-372 12h8v8h-8v-8zm12 0h8v8h-8v-8zm12 0h8v8h-8v-8zm12 0h8v8h-8v-8zm12 0h8v8h-8v-8zm12 0h8v8h-8v-8zm12 0h8v8h-8v-8zm12 0h8v8h-8v-8zm12 0h8v8h-8v-8zm12 0h8v8h-8v-8zm12 0h8v8h-8v-8zm12 0h8v8h-8v-8zm12 0h8v8h-8v-8zm12 0h8v8h-8v-8zm12 0h8v8h-8v-8zm12 0h8v8h-8v-8zm12 0h8v8h-8v-8zm12 0h8v8h-8v-8zm12 0h8v8h-8v-8zm12 0h8v8h-8v-8zm12 0h8v8h-8v-8zm12 0h8v8h-8v-8zm12 0h8v8h-8v-8zm12 0h8v8h-8v-8zm12 0h8v8h-8v-8zm12 0h8v8h-8v-8zm12 0h8v8h-8v-8zm12 0h8v8h-8v-8zm12 0h8v8h-8v-8zm12 0h8v8h-8v-8zm12 0h8v8h-8v-8zm12 0h8v8h-8v-8zm-372 12h8v8h-8v-8zm12 0h8v8h-8v-8zm12 0h8v8h-8v-8zm12 0h8v8h-8v-8zm12 0h8v8h-8v-8zm12 0h8v8h-8v-8zm12 0h8v8h-8v-8zm12 0h8v8h-8v-8zm12 0h8v8h-8v-8zm12 0h8v8h-8v-8zm12 0h8v8h-8v-8zm12 0h8v8h-8v-8zm12 0h8v8h-8v-8zm12 0h8v8h-8v-8zm12 0h8v8h-8v-8zm12 0h8v8h-8v-8zm12 0h8v8h-8v-8zm12 0h8v8h-8v-8zm12 0h8v8h-8v-8zm12 0h8v8h-8v-8zm12 0h8v8h-8v-8zm12 0h8v8h-8v-8zm12 0h8v8h-8v-8zm12 0h8v8h-8v-8zm12 0h8v8h-8v-8zm12 0h8v8h-8v-8zm12 0h8v8h-8v-8zm12 0h8v8h-8v-8zm12 0h8v8h-8v-8zm12 0h8v8h-8v-8zm12 0h8v8h-8v-8zm12 0h8v8h-8v-8zm-372 12h8v8h-8v-8zm12 0h8v8h-8v-8zm12 0h8v8h-8v-8zm12 0h8v8h-8v-8zm12 0h8v8h-8v-8zm12 0h8v8h-8v-8zm12 0h8v8h-8v-8zm12 0h8v8h-8v-8zm12 0h8v8h-8v-8zm12 0h8v8h-8v-8zm12 0h8v8h-8v-8zm12 0h8v8h-8v-8zm12 0h8v8h-8v-8zm12 0h8v8h-8v-8zm12 0h8v8h-8v-8zm12 0h8v8h-8v-8zm12 0h8v8h-8v-8zm12 0h8v8h-8v-8zm12 0h8v8h-8v-8zm12 0h8v8h-8v-8zm12 0h8v8h-8v-8zm12 0h8v8h-8v-8zm12 0h8v8h-8v-8zm12 0h8v8h-8v-8zm12 0h8v8h-8v-8zm12 0h8v8h-8v-8zm12 0h8v8h-8v-8zm12 0h8v8h-8v-8zm12 0h8v8h-8v-8zm12 0h8v8h-8v-8zm12 0h8v8h-8v-8zm12 0h8v8h-8v-8zm-372 12h8v8h-8v-8zm12 0h8v8h-8v-8zm12 0h8v8h-8v-8zm12 0h8v8h-8v-8zm12 0h8v8h-8v-8zm12 0h8v8h-8v-8zm12 0h8v8h-8v-8zm12 0h8v8h-8v-8zm12 0h8v8h-8v-8zm12 0h8v8h-8v-8zm12 0h8v8h-8v-8zm12 0h8v8h-8v-8zm12 0h8v8h-8v-8zm12 0h8v8h-8v-8zm12 0h8v8h-8v-8zm12 0h8v8h-8v-8zm12 0h8v8h-8v-8zm12 0h8v8h-8v-8zm12 0h8v8h-8v-8zm12 0h8v8h-8v-8zm12 0h8v8h-8v-8zm12 0h8v8h-8v-8zm12 0h8v8h-8v-8zm12 0h8v8h-8v-8zm12 0h8v8h-8v-8zm12 0h8v8h-8v-8zm12 0h8v8h-8v-8zm12 0h8v8h-8v-8zm12 0h8v8h-8v-8zm12 0h8v8h-8v-8zm12 0h8v8h-8v-8zm12 0h8v8h-8v-8zm-372 12h8v8h-8v-8zm12 0h8v8h-8v-8zm12 0h8v8h-8v-8zm12 0h8v8h-8v-8zm12 0h8v8h-8v-8zm12 0h8v8h-8v-8zm12 0h8v8h-8v-8zm12 0h8v8h-8v-8zm12 0h8v8h-8v-8zm12 0h8v8h-8v-8zm12 0h8v8h-8v-8zm12 0h8v8h-8v-8zm12 0h8v8h-8v-8zm12 0h8v8h-8v-8zm12 0h8v8h-8v-8zm12 0h8v8h-8v-8zm12 0h8v8h-8v-8zm12 0h8v8h-8v-8zm12 0h8v8h-8v-8zm12 0h8v8h-8v-8zm12 0h8v8h-8v-8zm12 0h8v8h-8v-8zm12 0h8v8h-8v-8zm12 0h8v8h-8v-8zm12 0h8v8h-8v-8zm12 0h8v8h-8v-8zm12 0h8v8h-8v-8zm12 0h8v8h-8v-8zm12 0h8v8h-8v-8zm12 0h8v8h-8v-8zm12 0h8v8h-8v-8zm12 0h8v8h-8v-8zm-372 12h8v8h-8v-8zm12 0h8v8h-8v-8zm12 0h8v8h-8v-8zm12 0h8v8h-8v-8zm12 0h8v8h-8v-8zm12 0h8v8h-8v-8zm12 0h8v8h-8v-8zm12 0h8v8h-8v-8zm12 0h8v8h-8v-8zm12 0h8v8h-8v-8zm12 0h8v8h-8v-8zm12 0h8v8h-8v-8zm12 0h8v8h-8v-8zm12 0h8v8h-8v-8zm12 0h8v8h-8v-8zm12 0h8v8h-8v-8zm12 0h8v8h-8v-8zm12 0h8v8h-8v-8zm12 0h8v8h-8v-8zm12 0h8v8h-8v-8zm12 0h8v8h-8v-8zm12 0h8v8h-8v-8zm12 0h8v8h-8v-8zm12 0h8v8h-8v-8zm12 0h8v8h-8v-8zm12 0h8v8h-8v-8zm12 0h8v8h-8v-8zm12 0h8v8h-8v-8zm12 0h8v8h-8v-8zm12 0h8v8h-8v-8zm12 0h8v8h-8v-8zm12 0h8v8h-8v-8zm-372 12h8v8h-8v-8zm12 0h8v8h-8v-8zm12 0h8v8h-8v-8zm12 0h8v8h-8v-8zm12 0h8v8h-8v-8zm12 0h8v8h-8v-8zm12 0h8v8h-8v-8zm12 0h8v8h-8v-8zm12 0h8v8h-8v-8zm12 0h8v8h-8v-8zm12 0h8v8h-8v-8zm12 0h8v8h-8v-8zm12 0h8v8h-8v-8zm12 0h8v8h-8v-8zm12 0h8v8h-8v-8zm12 0h8v8h-8v-8zm12 0h8v8h-8v-8zm12 0h8v8h-8v-8zm12 0h8v8h-8v-8zm12 0h8v8h-8v-8zm12 0h8v8h-8v-8zm12 0h8v8h-8v-8zm12 0h8v8h-8v-8zm12 0h8v8h-8v-8zm12 0h8v8h-8v-8zm12 0h8v8h-8v-8zm12 0h8v8h-8v-8zm12 0h8v8h-8v-8zm12 0h8v8h-8v-8zm12 0h8v8h-8v-8zm12 0h8v8h-8v-8zm12 0h8v8h-8v-8zm-372 12h8v8h-8v-8zm12 0h8v8h-8v-8zm12 0h8v8h-8v-8zm12 0h8v8h-8v-8zm12 0h8v8h-8v-8zm12 0h8v8h-8v-8zm12 0h8v8h-8v-8zm12 0h8v8h-8v-8zm12 0h8v8h-8v-8zm12 0h8v8h-8v-8zm12 0h8v8h-8v-8zm12 0h8v8h-8v-8zm12 0h8v8h-8v-8zm12 0h8v8h-8v-8zm12 0h8v8h-8v-8zm12 0h8v8h-8v-8zm12 0h8v8h-8v-8zm12 0h8v8h-8v-8zm12 0h8v8h-8v-8zm12 0h8v8h-8v-8zm12 0h8v8h-8v-8zm12 0h8v8h-8v-8zm12 0h8v8h-8v-8zm12 0h8v8h-8v-8zm12 0h8v8h-8v-8zm12 0h8v8h-8v-8zm12 0h8v8h-8v-8zm12 0h8v8h-8v-8zm12 0h8v8h-8v-8zm12 0h8v8h-8v-8zm12 0h8v8h-8v-8zm12 0h8v8h-8v-8zm-372 12h8v8h-8v-8zm12 0h8v8h-8v-8zm12 0h8v8h-8v-8zm12 0h8v8h-8v-8zm12 0h8v8h-8v-8zm12 0h8v8h-8v-8zm12 0h8v8h-8v-8zm12 0h8v8h-8v-8zm12 0h8v8h-8v-8zm12 0h8v8h-8v-8zm12 0h8v8h-8v-8zm12 0h8v8h-8v-8zm12 0h8v8h-8v-8zm12 0h8v8h-8v-8zm12 0h8v8h-8v-8zm12 0h8v8h-8v-8zm12 0h8v8h-8v-8zm12 0h8v8h-8v-8zm12 0h8v8h-8v-8zm12 0h8v8h-8v-8zm12 0h8v8h-8v-8zm12 0h8v8h-8v-8zm12 0h8v8h-8v-8zm12 0h8v8h-8v-8zm12 0h8v8h-8v-8zm12 0h8v8h-8v-8zm12 0h8v8h-8v-8zm12 0h8v8h-8v-8zm12 0h8v8h-8v-8zm12 0h8v8h-8v-8zm12 0h8v8h-8v-8zm12 0h8v8h-8v-8zm-372 12h8v8h-8v-8zm12 0h8v8h-8v-8zm12 0h8v8h-8v-8zm12 0h8v8h-8v-8zm12 0h8v8h-8v-8zm12 0h8v8h-8v-8zm12 0h8v8h-8v-8zm12 0h8v8h-8v-8zm12 0h8v8h-8v-8zm12 0h8v8h-8v-8zm12 0h8v8h-8v-8zm12 0h8v8h-8v-8zm12 0h8v8h-8v-8zm12 0h8v8h-8v-8zm12 0h8v8h-8v-8zm12 0h8v8h-8v-8zm12 0h8v8h-8v-8zm12 0h8v8h-8v-8zm12 0h8v8h-8v-8zm12 0h8v8h-8v-8zm12 0h8v8h-8v-8zm12 0h8v8h-8v-8zm12 0h8v8h-8v-8zm12 0h8v8h-8v-8zm12 0h8v8h-8v-8zm12 0h8v8h-8v-8zm12 0h8v8h-8v-8zm12 0h8v8h-8v-8zm12 0h8v8h-8v-8zm12 0h8v8h-8v-8zm12 0h8v8h-8v-8zm12 0h8v8h-8v-8zm-372 12h8v8h-8v-8zm12 0h8v8h-8v-8zm12 0h8v8h-8v-8zm12 0h8v8h-8v-8zm12 0h8v8h-8v-8zm12 0h8v8h-8v-8zm12 0h8v8h-8v-8zm12 0h8v8h-8v-8zm12 0h8v8h-8v-8zm12 0h8v8h-8v-8zm12 0h8v8h-8v-8zm12 0h8v8h-8v-8zm12 0h8v8h-8v-8zm12 0h8v8h-8v-8zm12 0h8v8h-8v-8zm12 0h8v8h-8v-8zm12 0h8v8h-8v-8zm12 0h8v8h-8v-8zm12 0h8v8h-8v-8zm12 0h8v8h-8v-8zm12 0h8v8h-8v-8zm12 0h8v8h-8v-8zm12 0h8v8h-8v-8zm12 0h8v8h-8v-8zm12 0h8v8h-8v-8zm12 0h8v8h-8v-8zm12 0h8v8h-8v-8zm12 0h8v8h-8v-8zm12 0h8v8h-8v-8zm12 0h8v8h-8v-8zm12 0h8v8h-8v-8zm12 0h8v8h-8v-8zm-372 12h8v8h-8v-8zm12 0h8v8h-8v-8zm12 0h8v8h-8v-8zm12 0h8v8h-8v-8zm12 0h8v8h-8v-8zm12 0h8v8h-8v-8zm12 0h8v8h-8v-8zm12 0h8v8h-8v-8zm12 0h8v8h-8v-8zm12 0h8v8h-8v-8zm12 0h8v8h-8v-8zm12 0h8v8h-8v-8zm12 0h8v8h-8v-8zm12 0h8v8h-8v-8zm12 0h8v8h-8v-8zm12 0h8v8h-8v-8zm12 0h8v8h-8v-8zm12 0h8v8h-8v-8zm12 0h8v8h-8v-8zm12 0h8v8h-8v-8zm12 0h8v8h-8v-8zm12 0h8v8h-8v-8zm12 0h8v8h-8v-8zm12 0h8v8h-8v-8zm12 0h8v8h-8v-8zm12 0h8v8h-8v-8zm12 0h8v8h-8v-8zm12 0h8v8h-8v-8zm12 0h8v8h-8v-8zm12 0h8v8h-8v-8zm12 0h8v8h-8v-8zm12 0h8v8h-8v-8zm-372 12h8v8h-8v-8zm12 0h8v8h-8v-8zm12 0h8v8h-8v-8zm12 0h8v8h-8v-8zm12 0h8v8h-8v-8zm12 0h8v8h-8v-8zm12 0h8v8h-8v-8zm12 0h8v8h-8v-8zm12 0h8v8h-8v-8zm12 0h8v8h-8v-8zm12 0h8v8h-8v-8zm12 0h8v8h-8v-8zm12 0h8v8h-8v-8zm12 0h8v8h-8v-8zm12 0h8v8h-8v-8zm12 0h8v8h-8v-8zm12 0h8v8h-8v-8zm12 0h8v8h-8v-8zm12 0h8v8h-8v-8zm12 0h8v8h-8v-8zm12 0h8v8h-8v-8zm12 0h8v8h-8v-8zm12 0h8v8h-8v-8zm12 0h8v8h-8v-8zm12 0h8v8h-8v-8zm12 0h8v8h-8v-8zm12 0h8v8h-8v-8zm12 0h8v8h-8v-8zm12 0h8v8h-8v-8zm12 0h8v8h-8v-8zm12 0h8v8h-8v-8zm12 0h8v8h-8v-8zm-372 12h8v8h-8v-8zm12 0h8v8h-8v-8zm12 0h8v8h-8v-8zm12 0h8v8h-8v-8zm12 0h8v8h-8v-8zm12 0h8v8h-8v-8zm12 0h8v8h-8v-8zm12 0h8v8h-8v-8zm12 0h8v8h-8v-8zm12 0h8v8h-8v-8zm12 0h8v8h-8v-8zm12 0h8v8h-8v-8zm12 0h8v8h-8v-8zm12 0h8v8h-8v-8zm12 0h8v8h-8v-8zm12 0h8v8h-8v-8zm12 0h8v8h-8v-8zm12 0h8v8h-8v-8zm12 0h8v8h-8v-8zm12 0h8v8h-8v-8zm12 0h8v8h-8v-8zm12 0h8v8h-8v-8zm12 0h8v8h-8v-8zm12 0h8v8h-8v-8zm12 0h8v8h-8v-8zm12 0h8v8h-8v-8zm12 0h8v8h-8v-8zm12 0h8v8h-8v-8zm12 0h8v8h-8v-8zm12 0h8v8h-8v-8zm12 0h8v8h-8v-8zm12 0h8v8h-8v-8zm-372 12h8v8h-8v-8zm12 0h8v8h-8v-8zm12 0h8v8h-8v-8zm12 0h8v8h-8v-8zm12 0h8v8h-8v-8zm12 0h8v8h-8v-8zm12 0h8v8h-8v-8zm12 0h8v8h-8v-8zm12 0h8v8h-8v-8zm12 0h8v8h-8v-8zm12 0h8v8h-8v-8zm12 0h8v8h-8v-8zm12 0h8v8h-8v-8zm12 0h8v8h-8v-8zm12 0h8v8h-8v-8zm12 0h8v8h-8v-8zm12 0h8v8h-8v-8zm12 0h8v8h-8v-8zm12 0h8v8h-8v-8zm12 0h8v8h-8v-8zm12 0h8v8h-8v-8zm12 0h8v8h-8v-8zm12 0h8v8h-8v-8zm12 0h8v8h-8v-8zm12 0h8v8h-8v-8zm12 0h8v8h-8v-8zm12 0h8v8h-8v-8zm12 0h8v8h-8v-8zm12 0h8v8h-8v-8zm12 0h8v8h-8v-8zm12 0h8v8h-8v-8zm12 0h8v8h-8v-8zm-372 12h8v8h-8v-8zm12 0h8v8h-8v-8zm12 0h8v8h-8v-8zm12 0h8v8h-8v-8zm12 0h8v8h-8v-8zm12 0h8v8h-8v-8zm12 0h8v8h-8v-8zm12 0h8v8h-8v-8zm12 0h8v8h-8v-8zm12 0h8v8h-8v-8zm12 0h8v8h-8v-8zm12 0h8v8h-8v-8zm12 0h8v8h-8v-8zm12 0h8v8h-8v-8zm12 0h8v8h-8v-8zm12 0h8v8h-8v-8zm12 0h8v8h-8v-8zm12 0h8v8h-8v-8zm12 0h8v8h-8v-8zm12 0h8v8h-8v-8zm12 0h8v8h-8v-8zm12 0h8v8h-8v-8zm12 0h8v8h-8v-8zm12 0h8v8h-8v-8zm12 0h8v8h-8v-8zm12 0h8v8h-8v-8zm12 0h8v8h-8v-8zm12 0h8v8h-8v-8zm12 0h8v8h-8v-8zm12 0h8v8h-8v-8zm12 0h8v8h-8v-8zm12 0h8v8h-8v-8zm-372 12h8v8h-8v-8zm12 0h8v8h-8v-8zm12 0h8v8h-8v-8zm12 0h8v8h-8v-8zm12 0h8v8h-8v-8zm12 0h8v8h-8v-8zm12 0h8v8h-8v-8zm12 0h8v8h-8v-8zm12 0h8v8h-8v-8zm12 0h8v8h-8v-8zm12 0h8v8h-8v-8zm12 0h8v8h-8v-8zm12 0h8v8h-8v-8zm12 0h8v8h-8v-8zm12 0h8v8h-8v-8zm12 0h8v8h-8v-8zm12 0h8v8h-8v-8zm12 0h8v8h-8v-8zm12 0h8v8h-8v-8zm12 0h8v8h-8v-8zm12 0h8v8h-8v-8zm12 0h8v8h-8v-8zm12 0h8v8h-8v-8zm12 0h8v8h-8v-8zm12 0h8v8h-8v-8zm12 0h8v8h-8v-8zm12 0h8v8h-8v-8zm12 0h8v8h-8v-8zm12 0h8v8h-8v-8zm12 0h8v8h-8v-8zm12 0h8v8h-8v-8zm12 0h8v8h-8v-8zm-372 12h8v8h-8v-8zm12 0h8v8h-8v-8zm12 0h8v8h-8v-8zm12 0h8v8h-8v-8zm12 0h8v8h-8v-8zm12 0h8v8h-8v-8zm12 0h8v8h-8v-8zm12 0h8v8h-8v-8zm12 0h8v8h-8v-8zm12 0h8v8h-8v-8zm12 0h8v8h-8v-8zm12 0h8v8h-8v-8zm12 0h8v8h-8v-8zm12 0h8v8h-8v-8zm12 0h8v8h-8v-8zm12 0h8v8h-8v-8zm12 0h8v8h-8v-8zm12 0h8v8h-8v-8zm12 0h8v8h-8v-8zm12 0h8v8h-8v-8zm12 0h8v8h-8v-8zm12 0h8v8h-8v-8zm12 0h8v8h-8v-8zm12 0h8v8h-8v-8zm12 0h8v8h-8v-8zm12 0h8v8h-8v-8zm12 0h8v8h-8v-8zm12 0h8v8h-8v-8zm12 0h8v8h-8v-8zm12 0h8v8h-8v-8zm12 0h8v8h-8v-8zm12 0h8v8h-8v-8zm-372 12h8v8h-8v-8zm12 0h8v8h-8v-8zm12 0h8v8h-8v-8zm12 0h8v8h-8v-8zm12 0h8v8h-8v-8zm12 0h8v8h-8v-8zm12 0h8v8h-8v-8zm12 0h8v8h-8v-8zm12 0h8v8h-8v-8zm12 0h8v8h-8v-8zm12 0h8v8h-8v-8zm12 0h8v8h-8v-8zm12 0h8v8h-8v-8zm12 0h8v8h-8v-8zm12 0h8v8h-8v-8zm12 0h8v8h-8v-8zm12 0h8v8h-8v-8zm12 0h8v8h-8v-8zm12 0h8v8h-8v-8zm12 0h8v8h-8v-8zm12 0h8v8h-8v-8zm12 0h8v8h-8v-8zm12 0h8v8h-8v-8zm12 0h8v8h-8v-8zm12 0h8v8h-8v-8zm12 0h8v8h-8v-8zm12 0h8v8h-8v-8zm12 0h8v8h-8v-8zm12 0h8v8h-8v-8zm12 0h8v8h-8v-8zm12 0h8v8h-8v-8zm12 0h8v8h-8v-8zm-372 12h8v8h-8v-8zm12 0h8v8h-8v-8zm12 0h8v8h-8v-8zm12 0h8v8h-8v-8zm12 0h8v8h-8v-8zm12 0h8v8h-8v-8zm12 0h8v8h-8v-8zm12 0h8v8h-8v-8zm12 0h8v8h-8v-8zm12 0h8v8h-8v-8zm12 0h8v8h-8v-8zm12 0h8v8h-8v-8zm12 0h8v8h-8v-8zm12 0h8v8h-8v-8zm12 0h8v8h-8v-8zm12 0h8v8h-8v-8zm12 0h8v8h-8v-8zm12 0h8v8h-8v-8zm12 0h8v8h-8v-8zm12 0h8v8h-8v-8zm12 0h8v8h-8v-8zm12 0h8v8h-8v-8zm12 0h8v8h-8v-8zm12 0h8v8h-8v-8zm12 0h8v8h-8v-8zm12 0h8v8h-8v-8zm12 0h8v8h-8v-8zm12 0h8v8h-8v-8zm12 0h8v8h-8v-8zm12 0h8v8h-8v-8zm12 0h8v8h-8v-8zm12 0h8v8h-8v-8zm-372 12h8v8h-8v-8zm12 0h8v8h-8v-8zm12 0h8v8h-8v-8zm12 0h8v8h-8v-8zm12 0h8v8h-8v-8zm12 0h8v8h-8v-8zm12 0h8v8h-8v-8zm12 0h8v8h-8v-8zm12 0h8v8h-8v-8zm12 0h8v8h-8v-8zm12 0h8v8h-8v-8zm12 0h8v8h-8v-8zm12 0h8v8h-8v-8zm12 0h8v8h-8v-8zm12 0h8v8h-8v-8zm12 0h8v8h-8v-8zm12 0h8v8h-8v-8zm12 0h8v8h-8v-8zm12 0h8v8h-8v-8zm12 0h8v8h-8v-8zm12 0h8v8h-8v-8zm12 0h8v8h-8v-8zm12 0h8v8h-8v-8zm12 0h8v8h-8v-8zm12 0h8v8h-8v-8zm12 0h8v8h-8v-8zm12 0h8v8h-8v-8zm12 0h8v8h-8v-8zm12 0h8v8h-8v-8zm12 0h8v8h-8v-8zm12 0h8v8h-8v-8zm12 0h8v8h-8v-8zm-372 12h8v8h-8v-8zm12 0h8v8h-8v-8zm12 0h8v8h-8v-8zm12 0h8v8h-8v-8zm12 0h8v8h-8v-8zm12 0h8v8h-8v-8zm12 0h8v8h-8v-8zm12 0h8v8h-8v-8zm12 0h8v8h-8v-8zm12 0h8v8h-8v-8zm12 0h8v8h-8v-8zm12 0h8v8h-8v-8zm12 0h8v8h-8v-8zm12 0h8v8h-8v-8zm12 0h8v8h-8v-8zm12 0h8v8h-8v-8zm12 0h8v8h-8v-8zm12 0h8v8h-8v-8zm12 0h8v8h-8v-8zm12 0h8v8h-8v-8zm12 0h8v8h-8v-8zm12 0h8v8h-8v-8zm12 0h8v8h-8v-8zm12 0h8v8h-8v-8zm12 0h8v8h-8v-8zm12 0h8v8h-8v-8zm12 0h8v8h-8v-8zm12 0h8v8h-8v-8zm12 0h8v8h-8v-8zm12 0h8v8h-8v-8zm12 0h8v8h-8v-8zm12 0h8v8h-8v-8zm-372 12h8v8h-8v-8zm12 0h8v8h-8v-8zm12 0h8v8h-8v-8zm12 0h8v8h-8v-8zm12 0h8v8h-8v-8zm12 0h8v8h-8v-8zm12 0h8v8h-8v-8zm12 0h8v8h-8v-8zm12 0h8v8h-8v-8zm12 0h8v8h-8v-8zm12 0h8v8h-8v-8zm12 0h8v8h-8v-8zm12 0h8v8h-8v-8zm12 0h8v8h-8v-8zm12 0h8v8h-8v-8zm12 0h8v8h-8v-8zm12 0h8v8h-8v-8zm12 0h8v8h-8v-8zm12 0h8v8h-8v-8zm12 0h8v8h-8v-8zm12 0h8v8h-8v-8zm12 0h8v8h-8v-8zm12 0h8v8h-8v-8zm12 0h8v8h-8v-8zm12 0h8v8h-8v-8zm12 0h8v8h-8v-8zm12 0h8v8h-8v-8zm12 0h8v8h-8v-8zm12 0h8v8h-8v-8zm12 0h8v8h-8v-8zm12 0h8v8h-8v-8zm12 0h8v8h-8v-8zm-372 12h8v8h-8v-8zm12 0h8v8h-8v-8zm12 0h8v8h-8v-8zm12 0h8v8h-8v-8zm12 0h8v8h-8v-8zm12 0h8v8h-8v-8zm12 0h8v8h-8v-8zm12 0h8v8h-8v-8zm12 0h8v8h-8v-8zm12 0h8v8h-8v-8zm12 0h8v8h-8v-8zm12 0h8v8h-8v-8zm12 0h8v8h-8v-8zm12 0h8v8h-8v-8zm12 0h8v8h-8v-8zm12 0h8v8h-8v-8zm12 0h8v8h-8v-8zm12 0h8v8h-8v-8zm12 0h8v8h-8v-8zm12 0h8v8h-8v-8zm12 0h8v8h-8v-8zm12 0h8v8h-8v-8zm12 0h8v8h-8v-8zm12 0h8v8h-8v-8zm12 0h8v8h-8v-8zm12 0h8v8h-8v-8zm12 0h8v8h-8v-8zm12 0h8v8h-8v-8zm12 0h8v8h-8v-8zm12 0h8v8h-8v-8zm12 0h8v8h-8v-8zm12 0h8v8h-8v-8zm-372 12h8v8h-8v-8zm12 0h8v8h-8v-8zm12 0h8v8h-8v-8zm12 0h8v8h-8v-8zm12 0h8v8h-8v-8zm12 0h8v8h-8v-8zm12 0h8v8h-8v-8zm12 0h8v8h-8v-8zm12 0h8v8h-8v-8zm12 0h8v8h-8v-8zm12 0h8v8h-8v-8zm12 0h8v8h-8v-8zm12 0h8v8h-8v-8zm12 0h8v8h-8v-8zm12 0h8v8h-8v-8zm12 0h8v8h-8v-8zm12 0h8v8h-8v-8zm12 0h8v8h-8v-8zm12 0h8v8h-8v-8zm12 0h8v8h-8v-8zm12 0h8v8h-8v-8zm12 0h8v8h-8v-8zm12 0h8v8h-8v-8zm12 0h8v8h-8v-8zm12 0h8v8h-8v-8zm12 0h8v8h-8v-8zm12 0h8v8h-8v-8zm12 0h8v8h-8v-8zm12 0h8v8h-8v-8zm12 0h8v8h-8v-8zm12 0h8v8h-8v-8zm12 0h8v8h-8v-8zm11.7-372h8v8h-8zm12 0h8v8h-8zm12 0h8v8h-8zm12 0h8v8h-8zm12 0h8v8h-8zm12 0h8v8h-8zm12 0h8v8h-8zm12 0h8v8h-8zm12 0h8v8h-8zm12 0h8v8h-8zm12 0h8v8h-8zm12 0h8v8h-8v-8zm12 0h8v8h-8zm12 0h8v8h-8zm12 0h8v8h-8zm12 0h8v8h-8zm-180 12h8v8h-8zm12 0h8v8h-8zm12 0h8v8h-8zm12 0h8v8h-8zm12 0h8v8h-8zm12 0h8v8h-8zm12 0h8v8h-8zm12 0h8v8h-8zm12 0h8v8h-8zm12 0h8v8h-8zm12 0h8v8h-8zm12 0h8v8h-8zm12 0h8v8h-8zm12 0h8v8h-8zm12 0h8v8h-8zm12 0h8v8h-8zm-180 12h8v8h-8zm12 0h8v8h-8zm12 0h8v8h-8zm12 0h8v8h-8zm12 0h8v8h-8zm12 0h8v8h-8zm12 0h8v8h-8zm12 0h8v8h-8zm12 0h8v8h-8zm12 0h8v8h-8zm12 0h8v8h-8zm12 0h8v8h-8zm12 0h8v8h-8zm12 0h8v8h-8zm12 0h8v8h-8zm12 0h8v8h-8zm-180 12h8v8h-8zm12 0h8v8h-8zm12 0h8v8h-8zm12 0h8v8h-8zm12 0h8v8h-8zm12 0h8v8h-8zm12 0h8v8h-8zm12 0h8v8h-8zm12 0h8v8h-8zm12 0h8v8h-8zm12 0h8v8h-8zm12 0h8v8h-8zm12 0h8v8h-8zm12 0h8v8h-8zm12 0h8v8h-8zm12 0h8v8h-8zm-180 12h8v8h-8zm12 0h8v8h-8zm12 0h8v8h-8zm12 0h8v8h-8zm12 0h8v8h-8zm12 0h8v8h-8zm12 0h8v8h-8zm12 0h8v8h-8zm12 0h8v8h-8zm12 0h8v8h-8zm12 0h8v8h-8zm12 0h8v8h-8zm12 0h8v8h-8zm12 0h8v8h-8zm12 0h8v8h-8zm12 0h8v8h-8zm-180 12h8v8h-8zm12 0h8v8h-8zm12 0h8v8h-8zm12 0h8v8h-8zm12 0h8v8h-8zm12 0h8v8h-8zm12 0h8v8h-8zm12 0h8v8h-8zm12 0h8v8h-8zm12 0h8v8h-8zm12 0h8v8h-8zm12 0h8v8h-8zm12 0h8v8h-8zm12 0h8v8h-8zm12 0h8v8h-8zm12 0h8v8h-8zm-180 12h8v8h-8zm12 0h8v8h-8zm12 0h8v8h-8zm12 0h8v8h-8zm12 0h8v8h-8zm12 0h8v8h-8zm12 0h8v8h-8zm12 0h8v8h-8zm12 0h8v8h-8zm12 0h8v8h-8zm12 0h8v8h-8zm12 0h8v8h-8zm12 0h8v8h-8zm12 0h8v8h-8zm12 0h8v8h-8zm12 0h8v8h-8zm-180 12h8v8h-8zm12 0h8v8h-8zm12 0h8v8h-8zm12 0h8v8h-8zm12 0h8v8h-8zm12 0h8v8h-8zm12 0h8v8h-8zm12 0h8v8h-8zm12 0h8v8h-8zm12 0h8v8h-8zm12 0h8v8h-8zm12 0h8v8h-8zm12 0h8v8h-8zm12 0h8v8h-8zm12 0h8v8h-8zm12 0h8v8h-8zm-180 12h8v8h-8zm12 0h8v8h-8zm12 0h8v8h-8zm12 0h8v8h-8zm12 0h8v8h-8zm12 0h8v8h-8zm12 0h8v8h-8zm12 0h8v8h-8zm12 0h8v8h-8zm12 0h8v8h-8zm12 0h8v8h-8zm12 0h8v8h-8zm12 0h8v8h-8zm12 0h8v8h-8zm12 0h8v8h-8zm12 0h8v8h-8zm-180 12h8v8h-8zm12 0h8v8h-8zm12 0h8v8h-8zm12 0h8v8h-8zm12 0h8v8h-8zm12 0h8v8h-8zm12 0h8v8h-8zm12 0h8v8h-8zm12 0h8v8h-8zm12 0h8v8h-8zm12 0h8v8h-8zm12 0h8v8h-8zm12 0h8v8h-8zm12 0h8v8h-8zm12 0h8v8h-8zm12 0h8v8h-8zm-180 12h8v8h-8zm12 0h8v8h-8zm12 0h8v8h-8zm12 0h8v8h-8zm12 0h8v8h-8zm12 0h8v8h-8zm12 0h8v8h-8zm12 0h8v8h-8zm12 0h8v8h-8zm12 0h8v8h-8zm12 0h8v8h-8zm12 0h8v8h-8zm12 0h8v8h-8zm12 0h8v8h-8zm12 0h8v8h-8zm12 0h8v8h-8zm-180 12h8v8h-8zm12 0h8v8h-8zm12 0h8v8h-8zm12 0h8v8h-8zm12 0h8v8h-8zm12 0h8v8h-8zm12 0h8v8h-8zm12 0h8v8h-8zm12 0h8v8h-8zm12 0h8v8h-8zm12 0h8v8h-8zm12 0h8v8h-8zm12 0h8v8h-8zm12 0h8v8h-8zm12 0h8v8h-8zm12 0h8v8h-8zm-180 12h8v8h-8zm12 0h8v8h-8zm12 0h8v8h-8zm12 0h8v8h-8zm12 0h8v8h-8zm12 0h8v8h-8zm12 0h8v8h-8zm12 0h8v8h-8zm12 0h8v8h-8zm12 0h8v8h-8zm12 0h8v8h-8zm12 0h8v8h-8zm12 0h8v8h-8zm12 0h8v8h-8zm12 0h8v8h-8zm12 0h8v8h-8zm-180 12h8v8h-8zm12 0h8v8h-8zm12 0h8v8h-8zm12 0h8v8h-8zm12 0h8v8h-8zm12 0h8v8h-8zm12 0h8v8h-8zm12 0h8v8h-8zm12 0h8v8h-8zm12 0h8v8h-8zm12 0h8v8h-8zm12 0h8v8h-8zm12 0h8v8h-8zm12 0h8v8h-8zm12 0h8v8h-8zm12 0h8v8h-8zm-180 12h8v8h-8zm12 0h8v8h-8zm12 0h8v8h-8zm12 0h8v8h-8zm12 0h8v8h-8zm12 0h8v8h-8zm12 0h8v8h-8zm12 0h8v8h-8zm12 0h8v8h-8zm12 0h8v8h-8zm12 0h8v8h-8zm12 0h8v8h-8zm12 0h8v8h-8zm12 0h8v8h-8zm12 0h8v8h-8zm12 0h8v8h-8zm-180 12h8v8h-8zm12 0h8v8h-8zm12 0h8v8h-8zm12 0h8v8h-8zm12 0h8v8h-8zm12 0h8v8h-8zm12 0h8v8h-8zm12 0h8v8h-8zm12 0h8v8h-8zm12 0h8v8h-8zm12 0h8v8h-8zm12 0h8v8h-8zm12 0h8v8h-8zm12 0h8v8h-8zm12 0h8v8h-8zm12 0h8v8h-8zm-180 12h8v8h-8zm12 0h8v8h-8zm12 0h8v8h-8zm12 0h8v8h-8zm12 0h8v8h-8zm12 0h8v8h-8zm12 0h8v8h-8zm12 0h8v8h-8zm12 0h8v8h-8zm12 0h8v8h-8zm12 0h8v8h-8zm12 0h8v8h-8zm12 0h8v8h-8zm12 0h8v8h-8zm12 0h8v8h-8zm12 0h8v8h-8zm-180 12h8v8h-8zm12 0h8v8h-8zm12 0h8v8h-8zm12 0h8v8h-8zm12 0h8v8h-8zm12 0h8v8h-8zm12 0h8v8h-8zm12 0h8v8h-8zm12 0h8v8h-8zm12 0h8v8h-8zm12 0h8v8h-8zm12 0h8v8h-8v-8zm12 0h8v8h-8zm12 0h8v8h-8zm12 0h8v8h-8zm12 0h8v8h-8zm-180 12h8v8h-8zm12 0h8v8h-8zm12 0h8v8h-8zm12 0h8v8h-8zm12 0h8v8h-8zm12 0h8v8h-8zm12 0h8v8h-8zm12 0h8v8h-8zm12 0h8v8h-8zm12 0h8v8h-8zm12 0h8v8h-8zm12 0h8v8h-8zm12 0h8v8h-8zm12 0h8v8h-8zm12 0h8v8h-8zm12 0h8v8h-8zm-180 12h8v8h-8zm12 0h8v8h-8zm12 0h8v8h-8zm12 0h8v8h-8zm12 0h8v8h-8zm12 0h8v8h-8zm12 0h8v8h-8zm12 0h8v8h-8zm12 0h8v8h-8zm12 0h8v8h-8zm12 0h8v8h-8zm12 0h8v8h-8zm12 0h8v8h-8zm12 0h8v8h-8zm12 0h8v8h-8zm12 0h8v8h-8zm-180 12h8v8h-8zm12 0h8v8h-8zm12 0h8v8h-8zm12 0h8v8h-8zm12 0h8v8h-8zm12 0h8v8h-8zm12 0h8v8h-8zm12 0h8v8h-8zm12 0h8v8h-8zm12 0h8v8h-8zm12 0h8v8h-8zm12 0h8v8h-8zm12 0h8v8h-8zm12 0h8v8h-8zm12 0h8v8h-8zm12 0h8v8h-8zm-180 12h8v8h-8zm12 0h8v8h-8zm12 0h8v8h-8zm12 0h8v8h-8zm12 0h8v8h-8zm12 0h8v8h-8zm12 0h8v8h-8zm12 0h8v8h-8zm12 0h8v8h-8zm12 0h8v8h-8zm12 0h8v8h-8zm12 0h8v8h-8zm12 0h8v8h-8zm12 0h8v8h-8zm12 0h8v8h-8zm12 0h8v8h-8zm-180 12h8v8h-8zm12 0h8v8h-8zm12 0h8v8h-8zm12 0h8v8h-8zm12 0h8v8h-8zm12 0h8v8h-8zm12 0h8v8h-8zm12 0h8v8h-8zm12 0h8v8h-8zm12 0h8v8h-8zm12 0h8v8h-8zm12 0h8v8h-8zm12 0h8v8h-8zm12 0h8v8h-8zm12 0h8v8h-8zm12 0h8v8h-8zm-180 12h8v8h-8zm12 0h8v8h-8zm12 0h8v8h-8zm12 0h8v8h-8zm12 0h8v8h-8zm12 0h8v8h-8zm12 0h8v8h-8zm12 0h8v8h-8zm12 0h8v8h-8zm12 0h8v8h-8zm12 0h8v8h-8zm12 0h8v8h-8zm12 0h8v8h-8zm12 0h8v8h-8zm12 0h8v8h-8zm12 0h8v8h-8zm-180 12h8v8h-8zm12 0h8v8h-8zm12 0h8v8h-8zm12 0h8v8h-8zm12 0h8v8h-8zm12 0h8v8h-8zm12 0h8v8h-8zm12 0h8v8h-8zm12 0h8v8h-8zm12 0h8v8h-8zm12 0h8v8h-8zm12 0h8v8h-8zm12 0h8v8h-8zm12 0h8v8h-8zm12 0h8v8h-8zm12 0h8v8h-8zm-180 12h8v8h-8zm12 0h8v8h-8zm12 0h8v8h-8zm12 0h8v8h-8zm12 0h8v8h-8zm12 0h8v8h-8zm12 0h8v8h-8zm12 0h8v8h-8zm12 0h8v8h-8zm12 0h8v8h-8zm12 0h8v8h-8zm12 0h8v8h-8zm12 0h8v8h-8zm12 0h8v8h-8zm12 0h8v8h-8zm12 0h8v8h-8zm-180 12h8v8h-8zm12 0h8v8h-8zm12 0h8v8h-8zm12 0h8v8h-8zm12 0h8v8h-8zm12 0h8v8h-8zm12 0h8v8h-8zm12 0h8v8h-8zm12 0h8v8h-8zm12 0h8v8h-8zm12 0h8v8h-8zm12 0h8v8h-8zm12 0h8v8h-8zm12 0h8v8h-8zm12 0h8v8h-8zm12 0h8v8h-8zm-180 12h8v8h-8zm12 0h8v8h-8zm12 0h8v8h-8zm12 0h8v8h-8zm12 0h8v8h-8zm12 0h8v8h-8zm12 0h8v8h-8zm12 0h8v8h-8zm12 0h8v8h-8zm12 0h8v8h-8zm12 0h8v8h-8zm12 0h8v8h-8zm12 0h8v8h-8zm12 0h8v8h-8zm12 0h8v8h-8zm12 0h8v8h-8zm-180 12h8v8h-8zm12 0h8v8h-8zm12 0h8v8h-8zm12 0h8v8h-8zm12 0h8v8h-8zm12 0h8v8h-8zm12 0h8v8h-8zm12 0h8v8h-8zm12 0h8v8h-8zm12 0h8v8h-8zm12 0h8v8h-8zm12 0h8v8h-8zm12 0h8v8h-8zm12 0h8v8h-8zm12 0h8v8h-8zm12 0h8v8h-8zm-180 12h8v8h-8zm12 0h8v8h-8zm12 0h8v8h-8zm12 0h8v8h-8zm12 0h8v8h-8zm12 0h8v8h-8zm12 0h8v8h-8zm12 0h8v8h-8zm12 0h8v8h-8zm12 0h8v8h-8zm12 0h8v8h-8zm12 0h8v8h-8zm12 0h8v8h-8zm12 0h8v8h-8zm12 0h8v8h-8zm12 0h8v8h-8zm-180 12h8v8h-8zm12 0h8v8h-8zm12 0h8v8h-8zm12 0h8v8h-8zm12 0h8v8h-8zm12 0h8v8h-8zm12 0h8v8h-8zm12 0h8v8h-8zm12 0h8v8h-8zm12 0h8v8h-8zm12 0h8v8h-8zm12 0h8v8h-8zm12 0h8v8h-8zm12 0h8v8h-8zm12 0h8v8h-8zm12 0h8v8h-8zm-180 12h8v8h-8zm12 0h8v8h-8zm12 0h8v8h-8zm12 0h8v8h-8zm12 0h8v8h-8zm12 0h8v8h-8zm12 0h8v8h-8zm12 0h8v8h-8zm12 0h8v8h-8zm12 0h8v8h-8zm12 0h8v8h-8zm12 0h8v8h-8zm12 0h8v8h-8zm12 0h8v8h-8zm12 0h8v8h-8zm12 0h8v8h-8z" id="Sensor_Array"/><path d="M80.2 473.4H677l.3-389.1h-9.7L664.8 298l6.3 69.9-6 61.7 3 38.6-75-1.3-120 2.6-132-2.6-212.9 1.3-45.6-.4-2.4 5.6z" fill-rule="evenodd" clip-rule="evenodd" fill="#fff"/><path class="st3" d="M682 159.4H11.4m670.6 72H11.5"/><path class="st8" d="M682 327.6H42m640 119.9H42"/><path class="st17" d="M95 467.9l26.1.3 212.7-1.3 136.8 2.6 121.6-2.6 76 1.3-3-38.4 6.1-61.4-6.4-69.1 2.9-210"/><path class="st13" d="M213.4 9.2v469m192-469v469"/><path class="st16" d="M524.9 31.9v446.3m84-446.3v446.3"/><text transform="translate(85.004 468.513)" class="st1 st2">31</text><path class="st6" d="M270.3 185h76.6v21.3h-76.6V185z"/><text transform="translate(276.645 200.338)" class="st1 st19">Region 11</text><path class="st6" d="M528.3 185h76.6v21.3h-76.6V185z"/><text transform="translate(534.643 200.338)" class="st1 st19">Region 21</text><path class="st6" d="M528.3 376.4h76.6v21.3h-76.6v-21.3z"/><text transform="translate(534.643 391.788)" class="st1 st19">Region 22</text><path class="st6" d="M270.3 376.4h76.6v21.3h-76.6v-21.3z"/><text transform="translate(276.645 391.788)" class="st1 st19">Region 12</text><text transform="translate(466.936 83.824)" class="st1 st2">31</text><text transform="translate(478.936 83.824)" class="st1 st2">32</text><text transform="translate(490.936 83.824)" class="st1 st2">33</text><text transform="translate(502.936 83.824)" class="st1 st2">34</text><text transform="translate(514.937 83.824)" class="st1 st2">35</text><text transform="translate(526.974 83.824)" class="st1 st2">36</text><text transform="translate(538.975 83.824)" class="st1 st2">37</text><text transform="translate(550.897 83.824)" class="st1 st2">38</text><text transform="translate(562.897 83.824)" class="st1 st2">39</text><text transform="translate(574.897 83.824)" class="st1 st2">40</text><text transform="translate(586.897 83.824)" class="st1 st2">41</text><text transform="translate(598.898 83.824)" class="st1 st2">42</text><text transform="translate(610.897 83.824)" class="st1 st2">43</text><text transform="translate(622.897 83.824)" class="st1 st2">44</text><text transform="translate(634.897 83.824)" class="st1 st2">45</text><text transform="translate(646.897 83.824)" class="st1 st2">46</text><text transform="translate(658.898 83.824)" class="st1 st2">47</text></svg>