<svg style="background-color:#fff" version="1.1" id="Ebene_1" xmlns="http://www.w3.org/2000/svg" x="0" y="0" viewBox="0 0 325.1 144.1" xml:space="preserve"><style>.st0{fill:none;stroke:#1d1d1b}.st1{fill:#1d1d1b}.st2{font-family:Helvetica,Arial,sans-serif}.st3{font-size:8px}.st7{fill:none;stroke:#1d1d1b;stroke-width:2;stroke-linecap:round}</style><path class="st0" d="M34.3 91.2H27m7.3-22H27m7.3-22H27m7.3-21.9H27m7.3-22H27"/><text transform="rotate(-90 57.011 50.146)" class="st1 st2 st3">Relative Illumination [%]</text><path class="st0" d="M27 115.2h297"/><text transform="translate(146.694 141.52)" class="st1 st2 st3">Image Height [mm]</text><path class="st1" d="M13.5 6.5h-.8v-5c-.2.2-.4.4-.8.5-.3.2-.6.3-.8.4v-.8c.4-.2.8-.5 1.2-.8s.5-.5.7-.8h.5v6.5zm2-3.2c0-.8.1-1.4.2-1.8.2-.5.4-.8.7-1.1.3-.3.7-.4 1.2-.4.3 0 .6.1.9.2.3.1.5.3.6.6.2.3.3.6.4 1 .1.4.1.9.1 1.5 0 .8-.1 1.4-.2 1.8-.2.5-.4.8-.7 1.1-.3.3-.7.4-1.2.4-.6 0-1.1-.2-1.5-.7-.3-.5-.5-1.4-.5-2.6zm.8 0c0 1.1.1 1.8.4 2.1.2.3.6.5.9.5.4 0 .7-.2.9-.5.2-.4.4-1.1.4-2.1 0-1.1-.1-1.8-.4-2.1-.2-.3-.6-.5-.9-.5-.4 0-.7.2-.9.5-.3.3-.4 1-.4 2.1zm4.2 0c0-.8.1-1.4.2-1.8.2-.5.4-.8.7-1.1.3-.3.7-.4 1.2-.4.3 0 .6.1.9.2.3.1.5.3.6.6.2.3.3.6.4 1 .1.4.1.9.1 1.5 0 .8-.1 1.4-.2 1.8-.2.5-.4.8-.7 1.1-.3.3-.7.4-1.2.4-.6 0-1.1-.2-1.5-.7-.3-.5-.5-1.4-.5-2.6zm.8 0c0 1.1.1 1.8.4 2.1.2.3.6.5.9.5.4 0 .7-.2.9-.5.2-.4.4-1.1.4-2.1 0-1.1-.1-1.8-.4-2.1-.2-.3-.6-.5-.9-.5-.4 0-.7.2-.9.5-.3.3-.4 1-.4 2.1zm-4.6 21.6c-.3-.1-.6-.3-.7-.5-.2-.2-.2-.5-.2-.8 0-.5.2-.9.5-1.2.3-.3.8-.5 1.3-.5.6 0 1 .2 1.4.5.3.3.5.7.5 1.2 0 .3-.1.6-.2.8-.2.2-.4.4-.7.5.4.1.7.3.9.6.2.3.3.6.3 1 0 .6-.2 1-.6 1.4-.4.4-.9.6-1.5.6s-1.1-.2-1.5-.6c-.4-.4-.6-.8-.6-1.4 0-.4.1-.8.3-1.1.1-.2.4-.4.8-.5zm-.4 1.7c0 .2.1.4.2.7.1.2.3.4.5.5.2.1.4.2.7.2.4 0 .7-.1.9-.4.2-.2.4-.6.4-.9 0-.4-.1-.7-.4-.9-.3-.2-.6-.4-1-.4s-.7.1-.9.4c-.3.1-.4.4-.4.8zm.3-3c0 .3.1.6.3.7.2.2.4.3.8.3.3 0 .6-.1.7-.3.2-.2.3-.4.3-.7 0-.3-.1-.5-.3-.7-.2-.2-.4-.3-.7-.3-.3 0-.6.1-.8.3-.2.2-.3.4-.3.7zm3.9 1.7c0-.8.1-1.4.2-1.8.2-.5.4-.8.7-1.1.3-.3.7-.4 1.2-.4.3 0 .6.1.9.2.3.1.5.3.6.6.2.3.3.6.4 1 .1.4.1.9.1 1.5 0 .8-.1 1.4-.2 1.8-.2.5-.4.8-.7 1.1-.3.3-.7.4-1.2.4-.6 0-1.1-.2-1.5-.7-.3-.6-.5-1.4-.5-2.6zm.8 0c0 1.1.1 1.8.4 2.1.2.3.6.5.9.5.4 0 .7-.2.9-.5.2-.3.4-1.1.4-2.1 0-1.1-.1-1.8-.4-2.1-.2-.3-.6-.5-.9-.5-.4 0-.7.2-.9.5-.3.3-.4 1-.4 2.1zm-1.7 20.2l-.8.1c-.1-.3-.2-.5-.3-.7-.2-.2-.5-.3-.8-.3-.3 0-.5.1-.7.2-.2.2-.4.4-.6.8-.1.3-.2.8-.2 1.5.2-.3.4-.5.7-.6.3-.1.6-.2.9-.2.5 0 1 .2 1.4.6.4.4.6.9.6 1.5 0 .4-.1.8-.3 1.1-.2.3-.4.6-.7.8-.3.2-.7.3-1 .3-.7 0-1.2-.2-1.6-.7-.4-.5-.6-1.3-.6-2.4 0-1.2.2-2.2.7-2.7.4-.5.9-.7 1.6-.7.5 0 .9.1 1.3.4.1.1.3.5.4 1zm-3.2 2.8c0 .3.1.5.2.8.1.2.3.4.5.6.2.1.4.2.7.2.3 0 .6-.1.9-.4.2-.3.4-.6.4-1.1 0-.4-.1-.8-.4-1.1-.2-.3-.5-.4-.9-.4s-.7.1-.9.4c-.4.3-.5.6-.5 1zm4.1-1.1c0-.8.1-1.4.2-1.8.2-.5.4-.8.7-1.1.3-.3.7-.4 1.2-.4.3 0 .6.1.9.2.3.1.5.3.6.6.2.3.3.6.4 1 .1.4.1.9.1 1.5 0 .8-.1 1.4-.2 1.8-.2.5-.4.8-.7 1.1-.3.3-.7.4-1.2.4-.6 0-1.1-.2-1.5-.7-.3-.5-.5-1.4-.5-2.6zm.8 0c0 1.1.1 1.8.4 2.1.2.3.6.5.9.5.4 0 .7-.2.9-.5.2-.4.4-1.1.4-2.1 0-1.1-.1-1.8-.4-2.1-.2-.3-.6-.5-.9-.5-.4 0-.7.2-.9.5-.3.3-.4 1.1-.4 2.1zM18 72.4v-1.5h-2.8v-.7l2.9-4.2h.6v4.2h.9v.7h-.9v1.5H18zm0-2.3v-2.9l-2 2.9h2zm2.5-.9c0-.8.1-1.4.2-1.8.2-.5.4-.8.7-1.1.3-.3.7-.4 1.2-.4.3 0 .6.1.9.2.3.1.5.3.6.6.2.3.3.6.4 1 .1.4.1.9.1 1.5 0 .8-.1 1.4-.2 1.8-.2.5-.4.8-.7 1.1-.3.3-.7.4-1.2.4-.6 0-1.1-.2-1.5-.7-.3-.5-.5-1.4-.5-2.6zm.8 0c0 1.1.1 1.8.4 2.1.2.3.6.5.9.5.4 0 .7-.2.9-.5.2-.4.4-1.1.4-2.1 0-1.1-.1-1.8-.4-2.1-.2-.3-.6-.5-.9-.5-.4 0-.7.2-.9.5-.3.3-.4 1-.4 2.1zm-1.7 24.4v.8h-4.3c0-.2 0-.4.1-.5.1-.3.3-.6.5-.9.2-.3.6-.6 1-1 .7-.6 1.2-1 1.4-1.4.2-.3.4-.7.4-1 0-.3-.1-.6-.3-.8-.2-.2-.5-.3-.9-.3s-.7.1-.9.3c-.2.2-.3.5-.3 1l-.8-.1c.1-.6.3-1.1.6-1.4.4-.3.9-.5 1.5-.5s1.1.2 1.5.5c.4.3.5.8.5 1.3 0 .3-.1.5-.2.8-.1.2-.3.5-.5.8-.2.3-.7.7-1.2 1.1-.5.4-.8.7-.9.8-.1.1-.2.3-.3.4h3.1zm.9-2.4c0-.8.1-1.4.2-1.8.2-.5.4-.8.7-1.1.3-.3.7-.4 1.2-.4.3 0 .6.1.9.2.3.1.5.3.6.6.2.3.3.6.4 1 .1.4.1.9.1 1.5 0 .8-.1 1.4-.2 1.8-.2.5-.4.8-.7 1.1-.3.3-.7.4-1.2.4-.6 0-1.1-.2-1.5-.7-.3-.6-.5-1.4-.5-2.6zm.8 0c0 1.1.1 1.8.4 2.1.2.3.6.5.9.5.4 0 .7-.2.9-.5.2-.4.4-1.1.4-2.1 0-1.1-.1-1.8-.4-2.1-.2-.3-.6-.5-.9-.5-.4 0-.7.2-.9.5-.3.3-.4 1-.4 2.1zm-1.1 21.3c0-.8.1-1.4.2-1.8.2-.5.4-.8.7-1.1.3-.3.7-.4 1.2-.4.3 0 .6.1.9.2.3.1.5.3.6.6.2.3.3.6.4 1s.1.9.1 1.5c0 .8-.1 1.4-.2 1.8-.2.5-.4.8-.7 1.1-.3.3-.7.4-1.2.4-.6 0-1.1-.2-1.5-.7-.2-.5-.5-1.4-.5-2.6zm.9 0c0 1.1.1 1.8.4 2.1.2.3.6.5.9.5.4 0 .7-.2.9-.5.2-.4.4-1.1.4-2.1 0-1.1-.1-1.8-.4-2.1-.2-.3-.6-.5-.9-.5-.4 0-.7.2-.9.5-.3.3-.4 1-.4 2.1z"/><text transform="translate(65.865 107.658)"><tspan x="0" y="0" class="st1" font-size="11" font-family="Helvetica,Arial,sans-serif" font-style="italic">f</tspan><tspan x="3.1" y="0" class="st1 st2" font-size="9">/1.4</tspan></text><path class="st7" d="M44.1 104.9h15.5"/><path fill="none" stroke="#1d1d1b" stroke-linecap="round" d="M40.4 96.2h45.8v15.5H40.4z"/><path class="st0" d="M34.3 122.8V1.8"/><linearGradient id="SVGID_1_" gradientUnits="userSpaceOnUse" x1="63.441" y1="119.064" x2="63.441" y2="119.064"><stop offset="0" stop-color="#fff"/><stop offset="1"/></linearGradient><path fill="url(#SVGID_1_)" stroke="#1d1d1b" d="M63.4 115.7v6.8"/><linearGradient id="SVGID_2_" gradientUnits="userSpaceOnUse" x1="178.805" y1="119.064" x2="178.805" y2="119.064"><stop offset="0" stop-color="#fff"/><stop offset="1"/></linearGradient><path fill="url(#SVGID_2_)" stroke="#1d1d1b" d="M178.8 115.7v6.8"/><linearGradient id="SVGID_3_" gradientUnits="userSpaceOnUse" x1="121.124" y1="119.064" x2="121.124" y2="119.064"><stop offset="0" stop-color="#fff"/><stop offset="1"/></linearGradient><path fill="url(#SVGID_3_)" stroke="#1d1d1b" d="M121.1 115.7v6.8"/><linearGradient id="SVGID_4_" gradientUnits="userSpaceOnUse" x1="92.282" y1="119.064" x2="92.282" y2="119.064"><stop offset="0" stop-color="#fff"/><stop offset="1"/></linearGradient><path fill="url(#SVGID_4_)" stroke="#1d1d1b" d="M92.3 115.7v6.8"/><path class="st0" d="M207.6 115.7v6.8"/><linearGradient id="SVGID_5_" gradientUnits="userSpaceOnUse" x1="149.964" y1="119.064" x2="149.964" y2="119.064"><stop offset="0" stop-color="#fff"/><stop offset="1"/></linearGradient><path fill="url(#SVGID_5_)" stroke="#1d1d1b" d="M150 115.7v6.8"/><linearGradient id="SVGID_6_" gradientUnits="userSpaceOnUse" x1="236.487" y1="119.064" x2="236.487" y2="119.064"><stop offset="0" stop-color="#fff"/><stop offset="1"/></linearGradient><path fill="url(#SVGID_6_)" stroke="#1d1d1b" d="M236.5 115.7v6.8"/><linearGradient id="SVGID_7_" gradientUnits="userSpaceOnUse" x1="323.01" y1="119.064" x2="323.01" y2="119.064"><stop offset="0" stop-color="#fff"/><stop offset="1"/></linearGradient><path fill="url(#SVGID_7_)" stroke="#1d1d1b" d="M323 115.7v6.8"/><path class="st1" d="M322.1 128.3c-.3-.1-.6-.3-.7-.5-.2-.2-.2-.5-.2-.8 0-.5.2-.9.5-1.2.3-.3.8-.5 1.3-.5.6 0 1 .2 1.4.5.3.3.5.7.5 1.2 0 .3-.1.6-.2.8-.2.2-.4.4-.7.5.4.1.7.3.9.6.2.3.3.6.3 1 0 .5-.2 1-.6 1.4-.4.4-.9.6-1.5.6s-1.1-.2-1.5-.6c-.4-.4-.6-.8-.6-1.4 0-.4.1-.8.3-1.1.1-.2.4-.4.8-.5zm-.4 1.6c0 .2.1.4.2.7.1.2.3.4.5.5.2.1.4.2.7.2.4 0 .7-.1.9-.4.2-.2.4-.6.4-.9 0-.4-.1-.7-.4-.9-.3-.2-.6-.4-1-.4s-.7.1-.9.4c-.3.1-.4.4-.4.8zm.3-3c0 .3.1.6.3.7.2.2.4.3.8.3.3 0 .6-.1.7-.3.2-.2.3-.4.3-.7 0-.3-.1-.5-.3-.7-.2-.2-.4-.3-.7-.3-.3 0-.6.1-.8.3-.2.2-.3.5-.3.7zm-287 1.7c0-.8.1-1.4.2-1.8.2-.5.4-.8.7-1.1.3-.3.7-.4 1.2-.4.3 0 .6.1.9.2.3.1.5.3.6.6.2.3.3.6.4 1 .1.4.1.9.1 1.5 0 .8-.1 1.4-.2 1.8-.2.5-.4.8-.7 1.1-.3.3-.7.4-1.2.4-.6 0-1.1-.2-1.5-.7-.3-.5-.5-1.4-.5-2.6zm.8 0c0 1.1.1 1.8.4 2.1.2.3.6.5.9.5.4 0 .7-.2.9-.5.2-.4.4-1.1.4-2.1 0-1.1-.1-1.8-.4-2.1-.2-.3-.6-.5-.9-.5-.4 0-.7.2-.9.5-.3.3-.4 1-.4 2.1z"/><linearGradient id="SVGID_8_" gradientUnits="userSpaceOnUse" x1="294.169" y1="119.064" x2="294.169" y2="119.064"><stop offset="0" stop-color="#fff"/><stop offset="1"/></linearGradient><path fill="url(#SVGID_8_)" stroke="#1d1d1b" d="M294.2 115.7v6.8"/><linearGradient id="SVGID_9_" gradientUnits="userSpaceOnUse" x1="265.328" y1="119.064" x2="265.328" y2="119.064"><stop offset="0" stop-color="#fff"/><stop offset="1"/></linearGradient><path fill="url(#SVGID_9_)" stroke="#1d1d1b" d="M265.3 115.7v6.8"/><linearGradient id="SVGID_10_" gradientUnits="userSpaceOnUse" x1="34.601" y1="119.064" x2="34.601" y2="119.064"><stop offset="0" stop-color="#fff"/><stop offset="1"/></linearGradient><path fill="url(#SVGID_10_)" stroke="#1d1d1b" d="M34.6 115.7v6.8"/><path class="st7" d="M321.7 61.2l-55.6-17c-1.5-.5-4-1.1-5.5-1.4l-53.8-11.4c-1.5-.3-4-.9-5.5-1.2L152.8 19c-1.5-.4-4-.8-5.6-1.1L90.5 8.6c-1.5-.3-4.1-.6-5.6-.7L35 3.8"/></svg>