<svg style="background-color:#fff" version="1.1" id="Ebene_1" xmlns="http://www.w3.org/2000/svg" xmlns:xlink="http://www.w3.org/1999/xlink" x="0" y="0" viewBox="0 0 356.7 134.4" xml:space="preserve"><style>.st0,.st7{fill:none;stroke:#000;stroke-width:.999;stroke-linecap:round;stroke-linejoin:round;stroke-miterlimit:10}.st7{stroke-width:1.999}.st9{font-family:Helvetica,Arial,sans-serif}.st10{font-size:9.0019px}.st12{fill:none;stroke:#000;stroke-width:.5;stroke-linecap:round;stroke-linejoin:round;stroke-miterlimit:10}</style><path class="st0" d="M34.5 5.5v97M27.2 5.3H35M27.2 37H35m-7.8 31.7H35m-7.8 32.1H35"/><defs><path id="SVGID_1_" d="M33.3 102.4h323.3v1.3H33.3z"/></defs><clipPath id="SVGID_2_"><use xlink:href="#SVGID_1_" overflow="visible"/></clipPath><path d="M33.9 103h322.5" clip-path="url(#SVGID_2_)" fill="none" stroke="#000" stroke-width=".999" stroke-linecap="round" stroke-linejoin="round" stroke-miterlimit="10"/><path class="st0" d="M327.5 110.5v-8m-58.1 8v-8m-58.2 8v-8m-58 8v-8m-58.2 8v-8m-58.1 8v-8"/><defs><path id="SVGID_3_" d="M35.9 54.2h320.8v16H35.9z"/></defs><clipPath id="SVGID_4_"><use xlink:href="#SVGID_3_" overflow="visible"/></clipPath><path d="M36.9 56.3H59l10.9-.3 11.1-.3h22.2l11-.2h22l11-.3 22 .5 11 .3 22 1 11 .8 11 .7 11.2.8 11.1 1.2 10.9 1 11 .8 11.1.9 10.9.8 11 .7 11.1 1 10.9.8 11 1 11.1.8 10.9.7" clip-path="url(#SVGID_4_)" fill="none" stroke="#777" stroke-width="1.999" stroke-linecap="round" stroke-linejoin="round" stroke-miterlimit="10"/><path d="M36.9 56.3H44m7 0l6.9-.3m7.1 0h4.9l2.1.3m6.9 0H86m7 0h6.9m7.1.2h7m6.9.2l4.3.3h2.8m7 .2h.9l6 .6m7.1.2l7 .5m6.9.5l6.3.5h.8m6.7.7l3.5.3 3.5.5m7 .5l.5.2 6.5.6m7 .9l7 .8m6.7 1l5.8.7 1.3.3m6.9 1l2.8.2 4.2.5m6.8 1h.3l6.7 1.1m7 .9l6.7 1m7 1.1l5.6.7 1.5.2m6.9 1l2.5.5 4.3.6m7 1.2l7 1m6.8 1l6.9 1.3m7 1l5 .9 1.8.3m7 1l2.3.5 4.5.8" fill="none" stroke="#777" stroke-width="1.999" stroke-linecap="round" stroke-linejoin="round" stroke-miterlimit="10"/><defs><path id="SVGID_5_" d="M35.9 69.2h320.8v13.3H35.9z"/></defs><clipPath id="SVGID_6_"><use xlink:href="#SVGID_5_" overflow="visible"/></clipPath><path d="M36.9 71.5H48l11-.2h10.9L81 71l11-.3h22.2l11-.2h10.7l11.3-.3h11l22 .5 11 .3 22 1 11 .8 11 .7 11.3.8 10.9.9 10.8.8 11.3.7 10.9.6 11 .7 11.1.8 10.9.4 11 .8 11.1.5 10.9.8" clip-path="url(#SVGID_6_)" fill="none" stroke="#bbb" stroke-width="1.999" stroke-linecap="round" stroke-linejoin="round" stroke-miterlimit="10"/><path d="M36.9 71.5H44m7 0h6.9m7.1 0h7m6.9 0H81l5 .2m7 0h6.9m7.1 0l7 .3m6.9 0l4.3.2h2.8m7 .3h1.2l5.7.3m7.1.2l7 .5m6.9.2l6.3.6h.8m7 .4l3.2.3 3.7.2m7.1.8h.2l6.8.5m6.7.5l7 .7m7 .8l5.5.5 1.5.2m7 .6l2.7.2 4.3.5m7 .8l7 .7m6.7.5l7.1 1m6.9.5l5.1.5 1.9.3m7.1.7l1.9.3 5 .5m6.8.7l7 .8m7 .7l7 .5m7 .7l4.2.6 2.8.2m7 .7l1.3.3 5.4.5" fill="none" stroke="#bbb" stroke-width="1.999" stroke-linecap="round" stroke-linejoin="round" stroke-miterlimit="10"/><defs><path id="SVGID_7_" d="M35.9 30.6h320.8v18.7H35.9z"/></defs><clipPath id="SVGID_8_"><use xlink:href="#SVGID_7_" overflow="visible"/></clipPath><path d="M36.9 32h33l11.1-.3h11l10.9.3h33l11.3.3 11 .2 11 .5 11 .5 11 .7 11 .5 11 1 11 .8 11 1.2 11.3 1 10.9 1.3 10.8 1 11.3 1 10.9 1 11 .7 11.1 1 10.9 1.1 11 .7 11.1.8 10.9.9" clip-path="url(#SVGID_8_)" fill="none" stroke="#000" stroke-width="1.999" stroke-linecap="round" stroke-linejoin="round" stroke-miterlimit="10"/><path class="st7" d="M36.9 32H44m7 0h6.9m7.1 0h7m6.9 0H86m7 .3l6.9.2m7.1 0l7 .2m6.9.3l4.3.2h2.8m7 .3l.9.3 6 .2m7.1.5l7 .2m6.9.8l6.3.5h.8m6.7.8l3.5.2 3.5.5m7 .8h.5l6.5.7m7 1l6.7 1m7 1l5.8 1 1.3.2m6.7 1.1l3 .4 4 .8m6.7 1l.6.2 6.4 1M260 49l6.7 1.3m7 1.5l5.8.9.9.3m7 1.2l3 .6 3.8.7m7 1.5h.2l6.6 1.5m6.7 1.2l7 1.5m6.7 1.8l6 1.2.8.3m7 1.5l3.3.8 3.4.7"/><defs><path id="SVGID_9_" d="M354.6 68.1h2.1v2.5h-2.1z"/></defs><clipPath id="SVGID_10_"><use xlink:href="#SVGID_9_" overflow="visible"/></clipPath><path d="M355.7 69.2l.7.3" clip-path="url(#SVGID_10_)" fill="none" stroke="#000" stroke-width="1.999" stroke-linecap="round" stroke-linejoin="round" stroke-miterlimit="10"/><text transform="rotate(-90 38.747 31.022)" class="st9 st10">SFR</text><text transform="rotate(-90 28.497 20.772)" class="st9 st10">[%]</text><text transform="translate(14.505 71.99)" class="st9 st10">20</text><text transform="translate(14.505 40.005)" class="st9 st10">40</text><text transform="translate(14.505 7.724)" class="st9 st10">60</text><text transform="translate(19.97 104.026)" class="st9 st10">0</text><text transform="translate(152.99 131.51)" class="st9 st10">Image Height [mm]</text><text transform="translate(33.95 120.527)" class="st9 st10">0</text><text transform="translate(71.451 24.468)" class="st9 st10">60 LP/mm</text><text transform="translate(75.952 92.27)" class="st9 st10">120 LP/mm</text><text transform="translate(82.487 50.033)" class="st9 st10">90 LP/mm</text><defs><path id="SVGID_11_" d="M282.1 4.9h74.6v29h-74.6z"/></defs><clipPath id="SVGID_12_"><use xlink:href="#SVGID_11_" overflow="visible"/></clipPath><path d="M282.7 5.5h73.5v27.7h-73.5V5.5z" clip-path="url(#SVGID_12_)" fill="none" stroke="#000" stroke-width=".999" stroke-linecap="round" stroke-linejoin="round" stroke-miterlimit="10"/><path class="st7" d="M286.4 13.7h18"/><text transform="translate(308.445 17.268)" class="st9 st10">Sagittal</text><path class="st7" d="M286.4 25.2h7m7.1 0h3.9"/><text transform="translate(308.945 28.728)" class="st9 st10">Tangential</text><path class="st12" d="M66.9 20.5l-25.2 9"/><path d="M42.2 28l-4.5 3 5.5-.5-1-2.5"/><path class="st12" d="M80.2 47.7l-38 7.8"/><path d="M42.9 54L38 56.3l5.5.4-.6-2.7"/><path class="st12" d="M74.2 90L42.5 73.7"/><path d="M44 73l-5.3-1.3 4 3.8L44 73"/><text transform="translate(150.946 120.527)" class="st9 st10">2</text><text transform="translate(208.215 120.527)" class="st9 st10">3</text><text transform="translate(91.985 120.528)" class="st9 st10">1</text><text transform="translate(266.685 120.527)" class="st9 st10">4</text><text transform="translate(324.969 120.527)" class="st9 st10">5</text></svg>