<svg style="background-color:#fff" version="1.1" id="Ebene_1" xmlns="http://www.w3.org/2000/svg" x="0" y="0" viewBox="0 0 326.2 147.1" xml:space="preserve"><style>.st0{fill:none;stroke:#1d1d1b}.st1{fill:#1d1d1b}.st2{font-family:Helvetica,Arial,sans-serif}.st3{font-size:9px}.st13{fill:none;stroke:#1d1d1b;stroke-width:2;stroke-linecap:round}</style><path class="st0" d="M35.1 91.2h-7.2m7.2-22h-7.2m7.2-22h-7.2m7.2-21.9h-7.2m7.2-22h-7.2"/><text transform="rotate(-90 57.44 49.717)" class="st1 st2 st3">Relative Illumination [%]</text><path class="st1" d="M33.5 128.3c0-.8.1-1.4.2-1.8.2-.5.4-.8.7-1.1.3-.3.7-.4 1.2-.4.3 0 .6.1.9.2.3.1.5.3.6.6.2.3.3.6.4 1 .1.4.1.9.1 1.5 0 .8-.1 1.4-.2 1.8-.2.5-.4.8-.7 1.1-.3.3-.7.4-1.2.4-.6 0-1.1-.2-1.5-.7-.3-.5-.5-1.3-.5-2.6zm.8 0c0 1.1.1 1.8.4 2.1.2.3.6.5.9.5.4 0 .7-.2.9-.5.2-.4.4-1.1.4-2.1 0-1.1-.1-1.8-.4-2.1-.2-.3-.6-.5-.9-.5-.4 0-.7.2-.9.5-.3.4-.4 1.1-.4 2.1z"/><path class="st0" d="M27.9 115.2h297"/><linearGradient id="SVGID_1_" gradientUnits="userSpaceOnUse" x1="109.209" y1="118.814" x2="109.209" y2="118.814"><stop offset="0" stop-color="#fff"/><stop offset="1"/></linearGradient><path fill="url(#SVGID_1_)" stroke="#1d1d1b" d="M109.2 115.4v6.8"/><linearGradient id="SVGID_2_" gradientUnits="userSpaceOnUse" x1="73.391" y1="119.082" x2="73.391" y2="119.082"><stop offset="0" stop-color="#fff"/><stop offset="1"/></linearGradient><path fill="url(#SVGID_2_)" stroke="#1d1d1b" d="M73.4 115.7v6.8"/><linearGradient id="SVGID_3_" gradientUnits="userSpaceOnUse" x1="180.845" y1="119.082" x2="180.845" y2="119.082"><stop offset="0" stop-color="#fff"/><stop offset="1"/></linearGradient><path fill="url(#SVGID_3_)" stroke="#1d1d1b" d="M180.8 115.7v6.8"/><linearGradient id="SVGID_4_" gradientUnits="userSpaceOnUse" x1="145.027" y1="119.082" x2="145.027" y2="119.082"><stop offset="0" stop-color="#fff"/><stop offset="1"/></linearGradient><path fill="url(#SVGID_4_)" stroke="#1d1d1b" d="M145 115.7v6.8"/><path class="st0" d="M252.5 115.7v6.8"/><linearGradient id="SVGID_5_" gradientUnits="userSpaceOnUse" x1="216.663" y1="119.082" x2="216.663" y2="119.082"><stop offset="0" stop-color="#fff"/><stop offset="1"/></linearGradient><path fill="url(#SVGID_5_)" stroke="#1d1d1b" d="M216.7 115.7v6.8"/><linearGradient id="SVGID_6_" gradientUnits="userSpaceOnUse" x1="324.118" y1="118.814" x2="324.118" y2="118.814"><stop offset="0" stop-color="#fff"/><stop offset="1"/></linearGradient><path fill="url(#SVGID_6_)" stroke="#1d1d1b" d="M324.1 115.4v6.8"/><linearGradient id="SVGID_7_" gradientUnits="userSpaceOnUse" x1="288.3" y1="118.814" x2="288.3" y2="118.814"><stop offset="0" stop-color="#fff"/><stop offset="1"/></linearGradient><path fill="url(#SVGID_7_)" stroke="#1d1d1b" d="M288.3 115.4v6.8"/><text transform="translate(143.474 144.158)" class="st1 st2 st3">Image Height [mm]</text><path class="st1" d="M74.6 131.5h-.8v-5c-.2.2-.4.4-.8.5-.3.2-.6.3-.8.4v-.8c.4-.2.8-.5 1.2-.8.3-.3.6-.6.7-.9h.5v6.6zm36.7-.7v.8H107c0-.2 0-.4.1-.5.1-.3.3-.6.5-.9.2-.3.6-.6 1-1 .7-.6 1.2-1 1.4-1.4.2-.3.4-.7.4-1 0-.3-.1-.6-.3-.8-.2-.2-.5-.3-.9-.3s-.7.1-.9.3c-.2.2-.3.5-.3 1l-.8-.1c.1-.6.3-1.1.6-1.4.4-.3.9-.5 1.5-.5s1.1.2 1.5.5c.4.3.5.8.5 1.3 0 .3-.1.5-.2.8-.1.2-.3.5-.5.8-.2.3-.7.7-1.2 1.1-.5.4-.8.7-.9.8-.1.1-.2.3-.3.4h3.1zm31.6-1l.8-.1c.1.4.2.8.5 1 .2.2.5.3.8.3.4 0 .7-.1.9-.4.3-.3.4-.6.4-1s-.1-.7-.4-.9c-.2-.2-.5-.4-.9-.4-.2 0-.3 0-.6.1l.1-.7h.1c.3 0 .6-.1.9-.3.3-.2.4-.4.4-.8 0-.3-.1-.5-.3-.7-.2-.2-.5-.3-.8-.3-.3 0-.6.1-.8.3-.2.2-.3.5-.4.9l-.8-.1c.1-.5.3-.9.7-1.2.3-.3.8-.4 1.3-.4.4 0 .7.1 1 .2.3.2.5.4.7.6.2.3.2.5.2.8 0 .3-.1.5-.2.8-.1.2-.4.4-.7.5.4.1.7.3.9.5.2.3.3.6.3 1 0 .6-.2 1-.6 1.4-.4.4-.9.6-1.6.6-.6 0-1-.2-1.4-.5-.2-.2-.4-.6-.5-1.2zm38.5 1.7V130h-2.8v-.7l2.9-4.2h.6v4.2h.9v.7h-.9v1.5h-.7zm0-2.2v-2.9l-2 2.9h2zm33.1.5l.8-.1c.1.4.2.7.4.9.2.2.5.3.8.3.4 0 .7-.1 1-.4.3-.3.4-.7.4-1.1 0-.5-.1-.8-.4-1.1-.3-.3-.6-.4-1-.4-.3 0-.5.1-.7.2-.2.1-.4.3-.5.5l-.7-.1.6-3.3h3.2v.8h-2.6l-.3 1.7c.4-.3.8-.4 1.2-.4.6 0 1 .2 1.4.6.4.4.6.9.6 1.5s-.2 1.1-.5 1.5c-.4.5-1 .8-1.7.8-.6 0-1.1-.2-1.4-.5-.3-.4-.5-.8-.6-1.4zm40-3.1l-.8.1c-.1-.3-.2-.5-.3-.7-.2-.2-.5-.3-.8-.3-.3 0-.5.1-.7.2-.2.2-.4.4-.6.8-.1.3-.2.8-.2 1.5.2-.3.4-.5.7-.6.3-.1.6-.2.9-.2.5 0 1 .2 1.4.6.4.4.6.9.6 1.5 0 .4-.1.8-.3 1.1-.2.3-.4.6-.7.8-.3.2-.7.3-1 .3-.7 0-1.2-.2-1.6-.7-.4-.5-.6-1.3-.6-2.4 0-1.2.2-2.2.7-2.7.4-.5.9-.7 1.6-.7.5 0 .9.1 1.3.4s.3.5.4 1zm-3.2 2.7c0 .3.1.5.2.8.1.2.3.4.5.6.2.1.4.2.7.2.3 0 .6-.1.9-.4.2-.3.4-.6.4-1.1 0-.4-.1-.8-.4-1.1-.2-.3-.5-.4-.9-.4s-.7.1-.9.4-.5.6-.5 1zm34.9-3.5v-.8h4.2v.6c-.4.4-.8 1-1.2 1.7-.4.7-.7 1.5-.9 2.2-.2.5-.3 1.1-.3 1.8h-.8c0-.5.1-1.1.3-1.8.2-.7.5-1.4.8-2.1.4-.7.7-1.2 1.1-1.7h-3.2zm37 2.1c-.3-.1-.6-.3-.7-.5-.2-.2-.2-.5-.2-.8 0-.5.2-.9.5-1.2.3-.3.8-.5 1.3-.5.6 0 1 .2 1.4.5.3.3.5.7.5 1.2 0 .3-.1.6-.2.8-.2.2-.4.4-.7.5.4.1.7.3.9.6.2.3.3.6.3 1 0 .6-.2 1-.6 1.4-.4.4-.9.6-1.5.6s-1.1-.2-1.5-.6c-.4-.4-.6-.8-.6-1.4 0-.4.1-.8.3-1.1.1-.2.4-.4.8-.5zm-.4 1.7c0 .2.1.4.2.7.1.2.3.4.5.5.2.1.4.2.7.2.4 0 .7-.1.9-.4.2-.2.4-.6.4-.9 0-.4-.1-.7-.4-.9-.3-.2-.6-.4-1-.4s-.7.1-.9.4c-.3.1-.4.4-.4.8zm.3-3c0 .3.1.6.3.7.2.2.4.3.8.3.3 0 .6-.1.7-.3.2-.2.3-.4.3-.7 0-.3-.1-.5-.3-.7-.2-.2-.4-.3-.7-.3-.3 0-.6.1-.8.3-.2.2-.3.4-.3.7z"/><path class="st0" d="M35.2 2.4l.4 120.1V3.9"/><path class="st1" d="M14.3 6.5h-.8v-5c-.2.2-.4.4-.8.5-.3.2-.6.3-.8.4v-.8c.4-.2.8-.5 1.2-.8s.6-.6.7-.9h.5v6.6zm2-3.2c0-.8.1-1.4.2-1.8.2-.5.5-.9.8-1.1.3-.3.7-.4 1.2-.4.3 0 .6.1.9.2.3.1.5.3.6.6.2.3.3.6.4 1 .1.4.1.9.1 1.5 0 .8-.1 1.4-.2 1.8-.2.5-.4.8-.7 1.1-.3.3-.7.4-1.2.4-.6 0-1.1-.2-1.5-.7-.3-.5-.6-1.4-.6-2.6zm.9 0c0 1.1.1 1.8.4 2.1.2.3.6.5.9.5.4 0 .7-.2.9-.5.2-.4.4-1.1.4-2.1 0-1.1-.1-1.8-.4-2.1-.2-.3-.6-.5-.9-.5-.4 0-.7.2-.9.5-.3.3-.4 1-.4 2.1zm4.2 0c0-.8.1-1.4.2-1.8.1-.5.4-.9.7-1.1.3-.3.7-.4 1.2-.4.3 0 .6.1.9.2.3.1.5.3.6.6.2.3.3.6.4 1 .1.4.1.9.1 1.5 0 .8-.1 1.4-.2 1.8-.2.5-.4.8-.7 1.1-.3.3-.7.4-1.2.4-.6 0-1.1-.2-1.5-.7-.3-.5-.5-1.4-.5-2.6zm.8 0c0 1.1.1 1.8.4 2.1.2.3.6.5.9.5.4 0 .7-.2.9-.5.2-.4.4-1.1.4-2.1 0-1.1-.1-1.8-.4-2.1-.2-.3-.6-.5-.9-.5-.4 0-.7.2-.9.5-.3.3-.4 1-.4 2.1zm-4.6 21.6c-.3-.1-.6-.3-.7-.5-.2-.2-.2-.5-.2-.8 0-.5.2-.9.5-1.2.3-.3.8-.5 1.3-.5.6 0 1 .2 1.4.5.3.3.5.7.5 1.2 0 .3-.1.6-.2.8-.2.2-.4.4-.7.5.4.1.7.3.9.6.2.3.3.6.3 1 0 .6-.2 1-.6 1.4-.4.4-.9.6-1.5.6s-1.1-.2-1.5-.6c-.4-.4-.6-.8-.6-1.4 0-.4.1-.8.3-1.1.1-.2.4-.4.8-.5zm-.4 1.7c0 .2.1.4.2.7.1.2.3.4.5.5.2.1.4.2.7.2.4 0 .7-.1.9-.4.2-.2.4-.6.4-.9 0-.4-.1-.7-.4-.9-.3-.2-.6-.4-1-.4s-.7.1-.9.4c-.3.1-.4.4-.4.8zm.2-3c0 .3.1.6.3.7.2.2.4.3.8.3.3 0 .6-.1.7-.3.2-.2.3-.4.3-.7 0-.3-.1-.5-.3-.7-.2-.2-.4-.3-.7-.3-.3 0-.6.1-.8.3-.2.2-.3.4-.3.7zm4 1.7c0-.8.1-1.4.2-1.8.2-.5.4-.8.7-1.1.3-.3.7-.4 1.2-.4.3 0 .6.1.9.2.3.1.5.3.6.6.2.3.3.6.4 1 .1.4.1.9.1 1.5 0 .8-.1 1.4-.2 1.8-.2.5-.4.8-.7 1.1-.3.3-.7.4-1.2.4-.6 0-1.1-.2-1.5-.7-.3-.6-.5-1.4-.5-2.6zm.8 0c0 1.1.1 1.8.4 2.1.2.3.6.5.9.5.4 0 .7-.2.9-.5.2-.3.4-1.1.4-2.1 0-1.1-.1-1.8-.4-2.1-.2-.3-.6-.5-.9-.5-.4 0-.7.2-.9.5-.3.3-.4 1-.4 2.1zm-1.7 20.2l-.8.1c-.1-.3-.2-.5-.3-.7-.2-.2-.5-.3-.8-.3-.3 0-.5.1-.7.2-.2.2-.4.4-.6.8-.1.3-.2.8-.2 1.5.2-.3.4-.5.7-.6.3-.1.6-.2.9-.2.5 0 1 .2 1.4.6.4.4.6.9.6 1.5 0 .4-.1.8-.3 1.1-.2.3-.4.6-.7.8-.3.2-.7.3-1 .3-.7 0-1.2-.2-1.6-.7-.4-.5-.6-1.3-.6-2.4 0-1.2.2-2.2.7-2.7.4-.5.9-.7 1.6-.7.5 0 .9.1 1.3.4.1.1.3.5.4 1zm-3.3 2.8c0 .3.1.5.2.8.1.2.3.4.5.6.2.1.4.2.7.2.3 0 .6-.1.9-.4.2-.3.4-.6.4-1.1 0-.4-.1-.8-.4-1.1-.2-.3-.5-.4-.9-.4s-.7.1-.9.4c-.4.3-.5.6-.5 1zm4.2-1.1c0-.8.1-1.4.2-1.8.2-.5.4-.8.7-1.1.3-.3.7-.4 1.2-.4.3 0 .6.1.9.2.3.1.5.3.6.6.2.3.3.6.4 1 .1.4.1.9.1 1.5 0 .8-.1 1.4-.2 1.8-.2.5-.4.8-.7 1.1-.3.3-.7.4-1.2.4-.6 0-1.1-.2-1.5-.7-.3-.5-.5-1.4-.5-2.6zm.8 0c0 1.1.1 1.8.4 2.1.2.3.6.5.9.5.4 0 .7-.2.9-.5.2-.4.4-1.1.4-2.1 0-1.1-.1-1.8-.4-2.1-.2-.3-.6-.5-.9-.5-.4 0-.7.2-.9.5-.3.3-.4 1.1-.4 2.1zm-3.3 25.2v-1.5h-2.8v-.7L19 66h.6v4.2h.9v.7h-.9v1.5h-.7zm0-2.3v-2.9l-2 2.9h2zm2.5-.9c0-.8.1-1.4.2-1.8.2-.5.4-.8.7-1.1.3-.3.7-.4 1.2-.4.3 0 .6.1.9.2.3.1.5.3.6.6.2.3.3.6.4 1 .1.4.1.9.1 1.5 0 .8-.1 1.4-.2 1.8-.2.5-.4.8-.7 1.1-.3.3-.7.4-1.2.4-.6 0-1.1-.2-1.5-.7-.3-.5-.5-1.4-.5-2.6zm.8 0c0 1.1.1 1.8.4 2.1.2.3.6.5.9.5.4 0 .7-.2.9-.5.2-.4.4-1.1.4-2.1 0-1.1-.1-1.8-.4-2.1-.2-.3-.6-.5-.9-.5-.4 0-.7.2-.9.5-.3.3-.4 1-.4 2.1zm-1.7 24.4v.8h-4.3c0-.2 0-.4.1-.5.1-.3.3-.6.5-.9.2-.3.6-.6 1-1 .7-.6 1.2-1 1.4-1.4.2-.3.4-.7.4-1 0-.3-.1-.6-.3-.8-.2-.2-.5-.3-.9-.3s-.7.1-.9.3c-.2.2-.3.5-.3 1l-.8-.1c.1-.6.3-1.1.6-1.4.4-.3.9-.5 1.5-.5s1.1.2 1.5.5c.4.3.5.8.5 1.3 0 .3-.1.5-.2.8-.1.2-.3.5-.5.8-.2.3-.7.7-1.2 1.1-.5.4-.8.7-.9.8-.1.1-.2.3-.3.4h3.1zm.9-2.4c0-.8.1-1.4.2-1.8.2-.5.4-.8.7-1.1.3-.3.7-.4 1.2-.4.3 0 .6.1.9.2.3.1.5.3.6.6.2.3.3.6.4 1 .1.4.1.9.1 1.5 0 .8-.1 1.4-.2 1.8-.2.5-.4.8-.7 1.1-.3.3-.7.4-1.2.4-.6 0-1.1-.2-1.5-.7-.3-.6-.5-1.4-.5-2.6zm.8 0c0 1.1.1 1.8.4 2.1.2.3.6.5.9.5.4 0 .7-.2.9-.5.2-.4.4-1.1.4-2.1 0-1.1-.1-1.8-.4-2.1-.2-.3-.6-.5-.9-.5-.4 0-.7.2-.9.5-.3.3-.4 1-.4 2.1zm-1.1 21.3c0-.8.1-1.4.2-1.8.2-.5.4-.8.7-1.1.3-.3.7-.4 1.2-.4.3 0 .6.1.9.2.3.1.5.3.6.6.2.3.3.6.4 1s.1.9.1 1.5c0 .8-.1 1.4-.2 1.8-.2.5-.4.8-.7 1.1-.3.3-.7.4-1.2.4-.6 0-1.1-.2-1.5-.7-.3-.5-.5-1.4-.5-2.6zm.8 0c0 1.1.1 1.8.4 2.1.2.3.6.5.9.5.4 0 .7-.2.9-.5.2-.4.4-1.1.4-2.1 0-1.1-.1-1.8-.4-2.1-.2-.3-.6-.5-.9-.5-.4 0-.7.2-.9.5-.3.3-.4 1-.4 2.1z"/><text transform="translate(66.724 107.658)"><tspan x="0" y="0" class="st1" font-size="11" font-family="Helvetica,Arial,sans-serif" font-style="italic">f</tspan><tspan x="3.1" y="0" class="st1 st2 st3">/1.4</tspan></text><path class="st13" d="M45 104.9h15.5"/><path fill="none" stroke="#1d1d1b" stroke-linecap="round" d="M41.2 96.2H87v15.5H41.2z"/><path class="st13" d="M37.9 3.8s175.1-1.9 286 9.7"/></svg>