<svg version="1.1" id="Ebene_1" xmlns="http://www.w3.org/2000/svg" x="0" y="0" viewBox="0 0 474 452" style="background-color:#fff" xml:space="preserve"><style>.st0{fill:#f6f6f6}.st1,.st2{fill:none;stroke:#1a171b;stroke-width:.6;stroke-linecap:round;stroke-linejoin:round;stroke-miterlimit:10}.st2{stroke:#000;stroke-width:.1}.st4{font-family:Helvetica,Arial,sans-serif}.st5{font-size:10px}.st6,.st8{fill:none;stroke:#000;stroke-width:.3;stroke-linecap:round;stroke-linejoin:round}.st8{stroke-miterlimit:10}.st13{font-size:14px}</style><path class="st0" d="M76.8 154.4h341.1v168.1H273l-.9.2-.9.5-.6.8-.1 1v34.2l-1.7 1.7h-17.6l-1.5-1.6v-21.5l-.3-.9-.6-1-.8-.6-1.1-.2-.9.2-1 .6-.6 1-.2.9v21.5l-1.5 1.5h-30.5l-1.6-1.6V328l-.2-1.4-.6-1.4-.8-1-1.2-1-1.3-.5-1.5-.2-1.4.2-1.3.5-1.1 1-1 1-.4 1.4-.3 1.4v19.2h-23.9v-21.5l-.2-1.2-.6-.9-1.1-.8-1.1-.2h-49.3l-1.2.2-1.1.8-.6.9-.2 1.2v21.7H76.8z"/><path class="st1" d="M76.8 154.4h341.1v168.1H273l-.9.2-.9.5-.6.8-.1 1v34.2l-1.7 1.7h-17.6l-1.5-1.6v-21.5l-.3-.9-.6-1-.8-.6-1.1-.2-.9.2-1 .6-.6 1-.2.9v21.5l-1.5 1.5h-30.5l-1.6-1.6V328l-.2-1.4-.6-1.4-.8-1-1.2-1-1.3-.5-1.5-.2-1.4.2-1.3.5-1.1 1-1 1-.4 1.4-.3 1.4v19.2h-23.9v-21.5l-.2-1.2-.6-.9-1.1-.8-1.1-.2h-49.3l-1.2.2-1.1.8-.6.9-.2 1.2v21.7H76.8z"/><path class="st2" d="M120.8 323.1v-.1l-.2.1z"/><path class="st2" d="M120.8 323l-.2-.2v.3zm-.2-.2l-.2.2.2.1zm-.3.3l.1.2.2-.2zm.1.2h.2v-.2z"/><path class="st1" d="M78.2 180.2l-.1-.3-.1.3zm-.1-.3l-.1-.1v.4zm-.1-.1l-.3.1.3.3zm-.3.1v.3h.3zm0 .3v.1l.3-.1zm0 .1l.3.1v-.2zm.3.1l.1-.1-.1-.1z"/><path class="st1" d="M78.1 180.3l.1-.1H78zm-5.9 164.6h4.6M34.2 46.2v-2.6m.1 3.2h1.8m-1.9-.6H69m-34.7 0v.6m1.8 0l1.1-.6"/><path class="st0" d="M69 46.2l.4.3.2.3V390v-.2l-1.2 13.9h2.7l1.1-13.7v-53.1h4.6l.7-.3.6-.6.1-.7V70.2l-.1-.7-.6-.6-.7-.1h-4.6V45l-.1-.7-.6-.5-.7-.2H34.2"/><path class="st1" d="M69 46.2l.4.3.2.3V390v-.2l-1.2 13.9h2.7l1.1-13.7v-53.1h4.6l.7-.3.6-.6.1-.7V70.2l-.1-.7-.6-.6-.7-.1h-4.6V45l-.1-.7-.6-.5-.7-.2H34.2"/><path class="st0" d="M76.8 187.6h92.3v48.8H76.8z"/><path fill="none" stroke="#1a171b" stroke-width=".495" stroke-linecap="round" stroke-linejoin="round" stroke-miterlimit="10" d="M76.8 187.6h92.3v48.8H76.8z"/><path class="st2" d="M236.9 346.3h1.9v11.5h-1.9zm27 0h1.9v11.5h-1.9zm-9 0h1.9v11.5h-1.9zm6 0h1.9v11.5h-1.9zm-30 0h1.9v11.5h-1.9zm27 0h1.9v11.5h-1.9zm-36 0h1.9v11.5h-1.9zm30 0h1.9v11.5h-1.9zm-12 0h1.9v11.5h-1.9zm-6 0h1.9v11.5h-1.9zm-15 0h1.9v11.5h-1.9zm-3 0h1.9v11.5h-1.9zm12 0h1.9v11.5h-1.9zm-15 0h1.9v11.5h-1.9zm12 0h1.9v11.5h-1.9zm42 .2h1.9v9.5h-1.9z"/><text transform="translate(214.32 16.682)" class="st4 st5">128.6</text><text transform="translate(231.31 128.812)" class="st4 st5">114.4</text><text transform="rotate(-90 128.17 103.346)" class="st4 st5">120</text><text transform="rotate(-90 360.6 -98.414)" class="st4 st5">68.8</text><path class="st6" d="M41.7 20.7h367.7"/><path d="M43.5 23.3l-9.8-2.6 9.8-2.6zm364.1 0l9.8-2.6-9.8-2.6z"/><path fill="none" stroke="#000" stroke-width=".261" stroke-linecap="round" stroke-linejoin="round" d="M85.1 133.2h325.6"/><path d="M86.7 135.4l-8.5-2.2 8.5-2.3zm322.4 0l8.5-2.2-8.5-2.3z"/><text transform="translate(131.708 443.69)" class="st4 st5">46.1</text><path class="st6" d="M81.4 433.6h120.7"/><path d="M83.2 436.2l-9.7-2.6 9.7-2.7zm117.1 0l9.8-2.6-9.8-2.7z"/><path class="st6" d="M28.2 395.3V51.1"/><path d="M30.8 393.5l-2.6 9.7-2.7-9.7zm0-340.6l-2.6-9.8-2.7 9.8z"/><path class="st6" d="M447.9 352.6V162.3"/><path d="M450.6 350.8l-2.7 9.8-2.6-9.8zm0-186.7l-2.7-9.7-2.6 9.7z"/><path class="st8" d="M34.2 46.2V14.7"/><path fill="none" stroke="#000" stroke-width=".228" stroke-linecap="round" stroke-linejoin="round" stroke-miterlimit="10" d="M71.1 403.7H13.9"/><path fill="none" stroke="#000" stroke-width=".261" stroke-linecap="round" stroke-linejoin="round" stroke-miterlimit="10" d="M417.4 155.4V9.7"/><path class="st8" d="M72.2 441.2v-84.5m137.9 84.5v-84.5"/><path fill="none" stroke="#000" stroke-width=".274" stroke-linecap="round" stroke-linejoin="round" stroke-miterlimit="10" d="M71.1 43.6H13.9"/><path d="M466.7 154.4h-48.5m48.5 206.5H268.8" stroke-width=".292" stroke-miterlimit="10" fill="none" stroke="#000" stroke-linecap="round" stroke-linejoin="round"/><text transform="translate(349.178 411.548)" class="st4 st13">Not to scale</text><text transform="translate(348.478 430.95)" class="st4 st13">Dimensions in mm</text></svg>