<svg style="background-color:#fff" version="1.1" id="Ebene_1" xmlns="http://www.w3.org/2000/svg" x="0" y="0" viewBox="0 0 589.6 249.4" xml:space="preserve"><style>.st0,.st1,.st8{stroke-miterlimit:10}.st0{fill:none;stroke:#000;stroke-linecap:round;stroke-linejoin:round;stroke-width:.4252}.st1,.st8{stroke-width:.2835}.st1{fill:none;stroke:#000}.st8{stroke-linecap:round;stroke-linejoin:round}.st10,.st8,.st9{fill:none;stroke:#000}.st9{stroke-linecap:round;stroke-linejoin:round;stroke-width:.2835}.st10{stroke-width:.9921;stroke-miterlimit:10}.st11{font-family:Helvetica,Arial,sans-serif}.st12{font-size:16px}.st13{font-size:12px}.st14{font-size:11.9906px}</style><g id="Lens"><path class="st0" d="M278.3 119l8.3-8.4m-17.9 8.4l17.7-17.7m16.7-16.9l1.9-1.7M259.1 119l34-34m.6-.6L305 73.1M249.6 119l34.1-34m.4-.6L299.5 69m.1 0l3-2.9M240.1 119l51.3-51.4m1-1.1l1.7-1.5m-63.6 54L290 59.3M221 119l61.6-61.7M211.4 119l61.7-61.7M201.9 119l61.6-61.7M239 53.2L251.3 41m-16.2 6.6l16.2-16.2M235.1 38l10.6-10.7m-10.6 1.1l1.2-1.1M135 119l61.7-61.7M125.6 119l61.5-61.7M116 119l69.8-69.8m-71 61.3l53.3-53.2m9.2-9.2l12.3-12.3m-74 64.4L156 59.7m1.3-1.2l1.2-1.2m14.9-14.9l16.2-16.2M117.2 89L150 56.2m23.4-23.3l7.5-7.5m-63.8 54.2l23.5-23.4m-28.9 19.2l7.9-8m.3-.1L131 56.2m-20.5 10.9l8.5-8.5m.9-.9l1.5-1.5m-16.1 6.6l5.6-5.5m81.4 61.7l22.5-22.6m7.4-7.4L255 56.2M182.8 119l22.4-22.6m17-16.8l25.3-25.3M173.2 119l22.4-22.6M217 75.2l19-19M163.6 119l22.5-22.6m21.3-21.2l19-19M154.2 119l27.7-27.7m15.9-16.1L215.2 58m-70.6 61l37.3-37.3m6.3-6.5l18.1-17.9M82.1 180.5l-5.5-5.5m15.1 5.5l-6.8-6.6m8.5-1l-7.9-8m14.4 4.7l-10.6-10.5m32.1 22.5l-1.5-1.5m-13.2-13.2l-14.3-14.3m38.6 29l-11.1-11m-3.6-3.7l-25.7-25.6m50 40.3l-.7-.6m-2.4-2.3l-48-48m60.2 50.7l-60.6-60.7m69.4 59.8l-1.2-1.2m-1.3-1.2L96.8 119m71.3 61.5L106.4 119m71.2 61.5L116 119m71.1 61.5L125.6 119m91.2 62.6l-1.2-1.3m29.9 1.3l-3.1-3.1m21.1 2L201.9 119m71.2 61.5l-18.5-18.4m-2.3-2.2L211.4 119m71.2 61.5l-18.5-18.4m-9.1-9.2L221 119m69 59.5l-16.3-16.4m-9.2-9.2l-34-33.9m62.5 52.8l-12.4-12.4m-7.6-7.5l-1.9-2m-1.5-1.3l-.2-.3m-8.7-8.8L240.1 119m63.5 54l-1.4-1.6m-1.1-1.1l-17-16.9m-23-23.1L249.6 119m55.4 45.8l-1.2-1.3m-.2-.1l-9.9-10M261.3 121l-2.2-2m45.9 36.2l-1.9-1.8m-106.4 27.1l-25.2-25.2m-9.3-9.3L135 119m71.3 61.5l-25.4-25.2m-18.7-18.8L144.6 119m70.6 60.9l-24.7-24.6M169.3 134l-15.1-15m72.2 62.6l-26.3-26.3M178.8 134l-15.2-15m70.7 60.9l-24.8-24.6M188.4 134l-15.2-15m68.7 59.1l-26.5-26.7M197.9 134l-15.1-15m72.2 62.6l-39.6-39.7m-8-7.9l-15.1-15m-18.9-73.2l.9.8h3v10.7h-18.9l-1.1 1.1v2H156v-3.1l-1-1.1h-34l-1.1 1.1v10.1h-.9V57.3h-17l-2.1 2.2v3.3h10.6V73h1.2v4.5l6.6 2.6h.7v-.4h.1m70.5-53.5l-.8-.8h-14.5l-.9.8m61.3 21.1l1.2 1.2h3.1v7.7h-13.4v.4h-4.3v-.4h-4.7l-1 1.1v1.1l-1.1-1.1h-28.7V46.6h3l.8-.8m-70.5 33.9c-2.9 12.8-4.4 26-4.4 39.2m172.1.1l-.3-13-.5-12.8m0 0h.6l5.7-1.5v-2.1h2.8v-1.7h3.4V85h-16.7v-.6H305V65h-.5l-1.1 4m0 0l-1.1-4m0 0h-1.8l-1 4-1.1-4h-1.6m0 0l-1.1 4m-44.4-21.3l-.8.8h-3v7.7h9.6l1 1.1H288l2.1 2.2V65h.6l1.1 4 1-4h1.8l1.1 4m-60.6-40.9l.8-.8h14.6l.8.8m-136.7 88.3h-2.9V77.5m-1.2 41.5V73m-10.6 46V62.8m125.7-6.6h-4.3m65.5 62.8H305m-16.9-3.1h4.2V91.7m-4.2 27.3v-3.1m7 3.1V89.6m3.4 29.4V87.9M189.6 26.2l.4.4m-17 0l.4-.4m0 19.6l-.4-.4m17 0l-.4.4m-16.6-.4V26.6m17 18.8V26.6m61.3 1.5l.4.4m-17 0l.4-.4m16.6 19.2l-.4.4m-16.6-.4V28.5m17 18.8V28.5M305 119V84.4M303.4 69l.9-4m-4.8 4l1-4m-4.8 4l1.1-4m-5 4l1-4m-11 88.4l-1.2 1.2v7.5h-28.5l1.2-9.2H273v-3h-3.4v-1.6h-2.8v-2.2l-5.7-1.5h-.7m0 0l.6-12.8.3-12.8m-172.2-.1c0 13.2 1.5 26.4 4.4 39.3"/><path class="st0" d="M93.6 158.3h-.2v-.6h-.6l-6.6 2.6v4.6h-1.3V175H74.4v3.4l2 2.1h17v-10.1h6.5v-3.5h20v13.6l1.1 1.1h13.8v-2.9h5.1v2.9h9.3v-.2h4.2v.2h1.6l1-1.1v-3.1h1.3v2.1l1.1 1h56.1l1.1-1v1l1 1.1h13.1V178h.4v1.9h11.8V178h.5v3.6h14.7l1-1.1H288l2.1-2.1v-8.9l.9 3.5h1.6l1.2-4.2.9 4.2h1.8l1.1-4.2 1 4.2h1.7m0 0l1.2-4.2m0 0l.9 4.2h1.8m0 0l.8-3m0 0v-6.5h-1.4v-5.1h1.4v-5h-23.2m-128.4 28.2h-4.2"/><path class="st0" d="M84.9 164.9V119H74.4v56m10.5-56h29.7m-28.4 41.3v-38.9m0 0h2.9M305 119h-6.5m-31.7 27.1V122h-4.2v-3m7 29.3V119m3.4 30.9V119m7.6 35.6V119m1.2 34.4V119m22.4 54v-.1m.5-1.8h.3m-63.2 8.8v1.3m-11.7 0v-1.3m12.3 1.7h-.6l-.5-.1h-.8l-1-.1h-7.1l-1 .1h-.7l-.6.1h-.4m75.3-10.5V170m0-16.6V119m-70.1 60.9v1.3m6.9 0h-4.7v-1.3m-7 1.3h4.8m-100.1.4h5.1M305 170l-.8 2.9m-2.7-4.1l-1.2 4.1m-2.7-4.1l-1.1 4.1m-2.7-4.1l-1.1 4.1m12.3-9.4v-5.1m209.6-101v-1m-8.5.5l.8.5 1.2.2 1.1-.4.7-.7m-3.9.4c-1.6.2-3.2.5-4.8.8m-3.7 1l.9.5 1.2-.1 1.1-.6.6-.8m-3.8 1c-1.6.4-3.1.9-4.6 1.5m-3.7 1.4l1.1.4 1.1-.2 1-.7.5-.8m-3.7 1.4c-4.2 1.8-8.1 4.1-11.8 6.8m-3 2.4h1.1l1.1-.5.6-.9.3-1m-3.1 2.4c-1.2 1-2.4 2.1-3.6 3.2m-2.6 2.8l.9-.2 1-.5.7-1.1.1-.9m-2.8 2.7c-1.1 1.2-2.1 2.4-3.1 3.7m.1.1v1l-.6 1.1-.8.7-.9.3m-.1 0c-.9 1.3-1.8 2.7-2.6 4.1m.1 0l.2 1-.3 1.2-.8.8-1 .4m0 .1c-.7 1.5-1.4 2.9-2 4.4m0 0l.4 1.1-.1 1-.7 1-.9.5m0 .1c-.5 1.5-1 3.1-1.3 4.7"/><path class="st0" d="M453.7 104.1l.4 1v1.2l-.5 1-.7.6m-.1.1c-.3 1.6-.5 3.2-.7 4.8m.2 0l.5.8.1 1.2-.2 1.1-.7.8m-.1 0c-.1 1.6-.1 3.2 0 4.9m.1 0l.7.6.2 1.3-.1 1-.5.8m-.1.1c.2 1.6.4 3.2.7 4.8m0 0l.8.7.4 1.1v1.2l-.4.8m0 0c.4 1.6.8 3.1 1.3 4.7m.1 0l.8.5.7 1 .1 1.2-.3 1m-.1 0c.6 1.5 1.3 3 2 4.4m0 0l1 .4.8 1 .3 1-.2 1m-.1 0c.8 1.4 1.7 2.8 2.6 4.1m.1.1l.9.2 1 .8.4 1.1v1m-.1 0c1 1.3 2 2.5 3.1 3.7m.1.1l.9.1 1.1.7.6.9.1 1.1m-.1-.1c1.2 1.1 2.4 2.2 3.6 3.2m.1.1h1l1.1.4.8 1 .2.9m-.1.1c3.7 2.7 7.6 5 11.8 6.8m.1 0l.9-.3 1.2.2 1 .6.5.9m-.1 0c1.5.6 3.1 1.1 4.6 1.5m.1.1l1-.6 1 .2 1.1.5.7.8m-.1 0c1.6.3 3.2.6 4.8.8m0 0l1-.5 1-.1 1.1.2.8.8m4.6.2v-1.1m-61.7-50.5c.2 1 .4 1.9.6 2.9m-1.5-9.8c0 .7.1 1.4.2 2.1m0-12.6c-.1.7-.1 1.4-.2 2m1.4-9.8c-.2 1-.4 2-.6 2.9"/><path class="st0" d="M514.6 57.4c-34 0-61.6 27.6-61.6 61.6s27.6 61.6 61.6 61.6"/><path class="st0" d="M514.6 63c-31 0-56.1 25.1-56.1 56.1s25.1 56.1 56.1 56.1"/><path class="st0" d="M514.6 73.1c-25.4 0-46 20.6-46 46s20.6 46 46 46m-7.3 15.5l.6.8m-8.5-2.5l.5 1.1m-8.2-3.6l.4 1.2m-22.6-16.1l-.9.2m-3.9-6.3l-1.2-.1m-3.3-6.7l-1.1-.3m50.8-91.8c-.7.1-1.4.1-2.1.2m-.5.9l.6-.8m-8.7 2.4l.7-1.1m1.4-.3l-1.5.3m-8.1 3.5l.4-1.1m.8-.3c-.3.1-.6.2-.8.3m-23.5 16l1.1.1m-1.2-.1l-.4.4m-4.6 5.9l1.2-.1m-1.3.1c-.2.3-.5.7-.7 1m-3.6 6l1.1-.2m-1.1.2c-.3.5-.6 1.1-.8 1.6m-2.5 5.9l.9-.3m-.9.2c-.3.7-.5 1.5-.8 2.3m-1.5 5.5l.5-.2m-.5 28.2l.6.3m.9 5.4c.2.7.5 1.5.8 2.2m0 0l.9.2m1.6 5.7c.3.5.5 1 .8 1.5m3.6 6.1l.6.9m4.8 5.9c.1.1.2.3.4.4m23.5 16l.9.3m6.9 2.1l1.5.3m6.5 1.1c.7.1 1.4.1 2.1.2m2.2-103.8v-4.6m0 91.7v-4.6"/><path class="st0" d="M512 77.8c-21.8 1.3-38.8 19.4-38.8 41.3s17 40 38.8 41.3m.1-.1v-1.6m0-80.9v1.6m-.1 79.3c.8.1 1.7.1 2.6.1"/><path class="st0" d="M514.6 80.3c-21.4 0-38.8 17.4-38.8 38.8s17.4 38.8 38.8 38.8m0-78.6c-.9 0-1.7 0-2.6.1"/><path class="st0" d="M514.6 59.6c-32.8 0-59.5 26.6-59.5 59.5 0 32.8 26.6 59.5 59.5 59.5m0-122.2c-1.5 0-3.1.1-4.6.2m0 125c1.5.1 3 .2 4.6.2m-34.3-10.2l1.8 1.1m4 2.3l-1.7-.9v-.2m-63.3-47.6v-14.5m.8 15.3l.4.4m0-.3v.3m0-.3l-.4-.4v-.1l.4.3m0-.8v.8m0-.8l-.4-.5v-.2l.4.2m0-1.3v1.3m0-1.3l-.4-.4v-.4l.4.1m0-1.6v1.6m0-1.6l-.4-.4v-.4h.4m0-1.9v1.9m0-1.9l-.4-.1v-.4l.4-.3m0 0v-1.8m0 0l-.4-.1v-.4l.4-.3m0 0v-1.6m0 0l-.4.1v-.4l.4-.4m0 0v-1.3m0 0l-.4.3v-.3l.4-.4m0 0v-.8m0 0l-.4.2v-.1l.4-.4m0 0v-.3m0 0l-.4.4m20.4 15.3v-14.5m-.8-.8l-.4-.4m0 .3v-.3m0 .3l.4.4v.1l-.4-.2m0 .8v-.8m0 .8l.4.4v.3l-.4-.3m0 1.3v-1.3m0 1.3l.4.4v.4l-.4-.1m0 1.6v-1.6m0 1.6l.4.3v.4l-.4.1m0 1.8v-1.8m0 1.8l.4.3v.4l-.4.1m0 0v1.9m0 0h.4v.4l-.4.4m0 0v1.6m0 0l.4-.1v.4l-.4.4m0 0v1.3m0 0l.4-.2v.2l-.4.5m0 0v.8m0 0l.4-.3v.1l-.4.4m0 0v.3m0 0l.4-.4m-.4.4h-18.8m18.8-.5h-18.8m18.8-1.3h-18.8m18.8-1.3h-18.8m18.8-.7h-18.8m18.8-1.6h-18.8m18.8-.8h-18.8m18.8-1.9h-18.8m18.8-.8h-18.8m18.8-1.8h-18.8m18.8-.8h-18.8m18.8-1.6h-18.8m18.8-.7h-18.8m18.8-1.3h-18.8m18.8-1.2h-18.8m18.8-.6h-18.8m19.2.7h-.2m-19.3 0h-.1m19.6 1.1h-19.6m19.6 8.9h-19.6m19.6 4.4h-19.6m19.6 1.1h-.2m-19.3 0h-.1m22.4-3.5v3m0-11.5v-3m-1-.8l-.4-.4m0 .3v-.3m0 1.4v-.8m0 3.2V112m0 2.8v-.4m0 8.9v.4m0-.1v2.7m0-.1v.8m0 .2v.3m0 0l.4-.4m-.4.4h-1.8m1.8-.5h-1.3m1.3-.8h-.6m.6-2.5h-.6m.6-9.3h-.6m.6-.7h-.6m.6-1.7h-.6m.6-.8h-1.3m1.3-.6h-1.8m43.3-46.5l1.7-1m-4 2.3l-1.8 1.1m5.8 108.5h.2m-65.2-63.2l.8-.8m-.8 15.3l.8.8m20.4-.8l-.8.8m.8-15.3l-.8-.8m11.4 12.3h-10.6m10.6-8.5h-10.6m2 11.5l-1 .8m1-15.3l-1-.8m42.8-47.9h.2m28.3 118.7h.3m.7-.7l.4.7m61.3-61.5v2.2m-.4-10.3c-.1-1.3-.3-2.6-.5-3.9m0 21.4c.2-1.3.4-2.6.5-3.9m-9.6 27.4l-.4-1.1m-4.5 7.7l-.3-1.2m-5.4 7l-.1-1.1m-6.3 6.1v-.7m-7.1 5l.2-.6m-7.6 3.8v-.1m-11.9 2.7l.2.4m31-109.9l.2 1 .6.9 1.1.5 1 .2m-10-7.9l.4 1.1.8.8 1.1.4.9-.1m-10.9-6.2l.5.9.8.7 1.2.3 1-.3M532 58.8l.7.9 1 .6 1.2.1.9-.4m-12.3-3l.7.7 1.1.5 1.2-.1.8-.4m-12.5-1.3l.8.6 1.2.3 1.1-.3.8-.5"/><path class="st0" d="M514.6 178.5c32.8 0 59.5-26.6 59.5-59.5 0-32.8-26.6-59.5-59.5-59.5"/><path class="st0" d="M514.6 180.7c34 0 61.6-27.6 61.6-61.6s-27.6-61.6-61.6-61.6m.2-1.1h-.2m0 124.3v1.1m.3 0l.8-.7 1.1-.3 1.2.3.8.5m-.1 0c1.6-.1 3.2-.3 4.8-.5"/><path class="st0" d="M523.7 181.1l.6-.7 1.1-.5 1.1.1 1 .4m-.1 0c1.6-.3 3.2-.7 4.7-1.2m.1 0l.5-.8 1-.5 1.2-.2.9.4m0 0c1.5-.5 3-1.2 4.5-1.8m.1-.1l.4-.9 1-.7 1-.3 1.1.2m-.1 0l4.2-2.4m.1 0l.3-1 .8-.8 1.1-.4h1m-.1 0c1.3-.9 2.6-1.9 3.8-3m.1 0l.2-.9.6-1.1 1.1-.5h1m0-.1c1.2-1.1 2.3-2.3 3.4-3.5m-.1 0l.2-1 .5-1.1 1-.7.9-.1m-.1-.1c1-1.3 2-2.6 2.8-3.9m.1.1l-.1-1.1.4-1.1.8-.8 1-.4m0 0c.8-1.4 1.6-2.8 2.3-4.3m0 0l-.3-1 .3-1.2.6-.9 1-.4m-.1 0c.6-1.5 1.2-3 1.7-4.6m0 0l-.4-1 .1-1.2.6-.9.8-.7m0 0c.4-1.6.7-3.2 1-4.7m.1 0l-.6-.8-.1-1.3.4-1 .8-.7m-.1-.1c.5-4.5.5-9.1 0-13.6m.1 0l-.8-.6-.4-1.1.1-1.2.6-1m-.1.1c-.3-1.6-.6-3.2-1-4.7m0-.1l-.8-.5-.6-1.1-.1-1.2.4-1m0 .1c-.5-1.5-1-3.1-1.7-4.6"/><path class="st0" d="M572.7 95.4l-1-.6-.6-.9-.3-1.1.3-1.1m-.1.1c-.7-1.5-1.5-2.9-2.3-4.3m.1-.1l-1-.3-.8-.8-.4-1.2.1-.9m0 0c-.9-1.3-1.9-2.7-2.9-3.9m.1 0l-1.1-.3-.9-.7-.6-1.1v-.9m0 0c-1.1-1.2-2.2-2.4-3.4-3.5m-2.9-2.6c-1.2-1-2.5-2-3.8-3M548 66c-1.4-.9-2.8-1.7-4.2-2.4m-3.5-1.7c-1.5-.7-3-1.3-4.5-1.8m-3.8-1.3c-1.6-.5-3.1-.8-4.7-1.2m-3.8-.6c-1.6-.2-3.2-.4-4.8-.5m-4.1 118.7c31 0 56.1-25.1 56.1-56.1S545.6 63 514.6 63"/><path class="st0" d="M514.6 165c25.4 0 46-20.6 46-46s-20.6-46-46-46m2.5 6.4c-.8-.1-1.7-.1-2.6-.1m.1 79.5c.9 0 1.7 0 2.6-.1"/><path class="st0" d="M514.6 157.9c21.4 0 38.8-17.4 38.8-38.8S536 80.3 514.6 80.3m2.6 80v-1.6"/><path class="st0" d="M517.1 160.4c21.8-1.3 38.8-19.4 38.8-41.3s-17-40-38.8-41.3m.1 0v1.6M515.6 57l.4-.6m1.2 16.8v4.6m0 82.5v4.6m6.6-107.5l.3-.4m19.1 6.2l.2.4m6.9 3.8v.8m6.4 4.4l-.1.9m5.8 4.9l-.3 1.2m5.2 5.4l-.4 1.1m4.3 5.9l-.4.8m.4 53.3l-.3-.6m.1.8c0-.1.1-.2.1-.2m-4.4 7.8c.2-.2.3-.5.5-.7m-5.9 7.6c.3-.4.6-.7 1-1.1m-7.2 7.2c.5-.4 1-.9 1.5-1.4m-8.6 6.6c.8-.5 1.5-1 2.2-1.5m-9.9 5.6c1-.4 2-.9 2.9-1.4m-27.2 7c.9 0 1.8-.1 2.8-.1m13.3-2.4c1.2-.4 2.5-.8 3.7-1.2m-11.7 2.9l3.3-.6m43.8-88.3c0-.1-.1-.2-.1-.3m-3.9-6.9c-.2-.3-.3-.5-.5-.8m-4.4-5.7c-.3-.4-.7-.8-1-1.1m-4.7-4.7c-.5-.5-1.1-.9-1.6-1.4m-4.8-3.7c-.7-.5-1.5-1-2.3-1.5m-4.6-2.7c-1-.5-2-1-3-1.4m-4.5-1.9c-1.2-.4-2.5-.8-3.7-1.2m-4.8-1.1c-1.1-.2-2.2-.4-3.2-.6m-5.4-.6c-.9-.1-1.8-.1-2.7-.1m61.3 61.4v-2.2M427.4 83.2l-1.1 3m-.5 1.6v.3m-.5 1.5l-.7 1.6-1.1 4.4m-.4 1.7v.2m-.4 1.5l-.1.4-1 6m-.3 1.4v.3m-.1 1.6l-.5 6.4m0 1.6v.3m0 1.6l.1 5.9.1.4m.2 1.7v.2m.2 1.6l.4 4.5.5 1.8m.2 1.6l.2.2m.2 1.7l.7 3.1m9.1-69.2c-2 3.6-3.8 7.3-5.3 11.1"/></g><g id="Mittellinien"><path class="st1" d="M411.9 119h7.1"/><path d="M421.6 119h1.9" fill="none" stroke="#000" stroke-width=".283" stroke-miterlimit="10" stroke-dasharray=".5333,2.6663"/><path d="M424.8 119h152.3" fill="none" stroke="#000" stroke-width=".283" stroke-miterlimit="10" stroke-dasharray="13.3314,2.6663,.5333,2.6663"/><path class="st1" d="M578.4 119h7.1m-517.9 0h7.1"/><path d="M77.5 119h2" fill="none" stroke="#000" stroke-width=".283" stroke-miterlimit="10" stroke-dasharray=".5665,2.8323"/><path d="M80.9 119h222.9" fill="none" stroke="#000" stroke-width=".283" stroke-miterlimit="10" stroke-dasharray="14.1616,2.8323,.5665,2.8323"/><path class="st1" d="M305.2 119h7.1m202.3-70.1V56"/><path d="M514.6 58.8v1.9" fill="none" stroke="#000" stroke-width=".283" stroke-miterlimit="10" stroke-dasharray=".5539,2.7696"/><path d="M514.6 62.1v118.3" fill="none" stroke="#000" stroke-width=".283" stroke-miterlimit="10" stroke-dasharray="13.8482,2.7696,.5539,2.7696"/><path class="st1" d="M514.6 181.7v7.1"/></g><g id="Bemassung"><path class="st1" d="M18.6 64.5v108.2"/><path d="M16.1 66.2l2.5-9.2 2.4 9.2h-4.9zm0 104.8l2.5 9.2L21 171h-4.9z"/><path class="st1" d="M43.6 70.5v96.7"/><path d="M41.1 72.2l2.5-9.3 2.4 9.3h-4.9zm0 93.3l2.5 9.2 2.4-9.2h-4.9z"/><path class="st8" d="M75 174.8H39.5m60-111.9h-60M102 57H14.2m73.4 123.2H14.2"/><path class="st9" d="M347 73.5v91.3"/><path d="M344.5 75.2L347 66l2.5 9.2h-5zm0 87.9l2.5 9.2 2.5-9.2h-5z"/><path class="st8" d="M305.5 64.7H351m-45.5 108H351"/><path class="st9" d="M282.8 209.2h-200"/><path d="M281.1 206.7l9.2 2.5-9.2 2.4v-4.9zm-196.7 0l-9.2 2.5 9.2 2.4v-4.9z"/><path class="st9" d="M311.9 209.2h22.2"/><path d="M313.6 211.6l-9.2-2.4 9.2-2.5v4.9z"/><path class="st8" d="M304.9 171.5v41.8"/><path class="st9" d="M355.6 233.5h-57.8"/><path d="M353.9 231l9.2 2.5-9.2 2.4V231zm-54.4 0l-9.2 2.5 9.2 2.4V231z"/><path class="st8" d="M290.2 178.3v59.3"/><path class="st9" d="M338 18.5h-24.7"/><path d="M315 16.1l-9.2 2.4L315 21v-4.9z"/><path class="st9" d="M356.7 43.2h-43.4"/><path d="M355 40.7l9.3 2.5-9.3 2.5v-5zm-40 0l-9.2 2.5 9.2 2.5v-5z"/><path class="st8" d="M363.9 237.6V40.5m-73.7 19.1V14.2"/><path class="st9" d="M282.2 18.3h-174"/><path d="M280.5 15.8l9.2 2.5-9.2 2.4v-4.9zm-170.6 0l-9.3 2.5 9.3 2.4v-4.9z"/><path class="st8" d="M99.9 62.9V15.2M305 66.5V15.1"/><path class="st9" d="M367.4 106.9l18-63.5h5.3"/><path d="M370.3 105.9l-4.9 8.2.1-9.5 4.8 1.3z"/><path class="st8" d="M74.5 175.9v37.4m229.9-4.1h-15.8m16.5-190.9h-14.7"/><path class="st10" d="M360.4 115.5l7 7m-7 0l7-7m-7 0l7 7m-7 0l7-7"/><path class="st1" d="M439.2 82l42.6 20.5"/><path d="M439.8 85.9l-9.6-8.3 12.5 2.4-2.9 5.9z"/><path class="st8" d="M514.8 118.9l-9.5-4.9"/><path class="st10" d="M360.4 115.5l7 7m-7 0l7-7m-7 0l7 7m-7 0l7-7"/></g><g id="Text"><text transform="matrix(1 0 -.00479 1 172.893 149.733)" class="st11 st12">Mod</text><text transform="rotate(-90 73.39 58.71)" class="st11 st13">Ø 29</text><text transform="rotate(-90 241.393 -85.718)" class="st11 st13">1-32 UN-2A</text><text transform="rotate(-90 246.243 -95.268)" class="st11 st13">(C-mount)</text><text transform="rotate(-90 95.292 55.05)" class="st11 st13">M27 x 0.5</text><text transform="translate(183.517 14.696)" class="st11 st13">44.7</text><text transform="translate(396.69 47.281)" class="st11 st13">Sensor position</text><text transform="translate(318.872 14.68)" class="st11 st13">3.5</text><text transform="translate(317.15 205.387)" class="st11 st13">3.5</text><text transform="translate(325.433 38.604)" class="st11 st13">14</text><text transform="translate(171.093 205.42)" class="st11 st13">50.7</text><text transform="translate(308.42 230.635)" class="st11 st13">17.526</text><text transform="translate(309.82 244.135)" class="st11 st13">(in air)</text><text transform="translate(193.178 90.083)" class="st11 st12">Inf.</text><text transform="translate(480.43 112.56)" class="st11 st13">R22.1</text></g><text transform="translate(489.22 228.773)" class="st11 st14">Not to scale</text><text transform="translate(488.99 244.173)" class="st11 st14">Dimensions in mm</text></svg>