<svg style="background-color:#fff" version="1.1" id="Ebene_1" xmlns="http://www.w3.org/2000/svg" x="0" y="0" viewBox="0 0 322.8 171.4" xml:space="preserve"><style>.st4{fill:none;stroke:#1d1d1b}.st8{fill:#1d1d1b}.st9{font-family:Helvetica,Arial,sans-serif}.st10{font-size:8px}.st11{font-size:9px}.st12,.st13{fill:none;stroke:#1d1d1b;stroke-width:2;stroke-linecap:round}.st13{stroke-dasharray:4}</style><linearGradient id="SVGID_1_" gradientUnits="userSpaceOnUse" x1="61.1" y1="34.422" x2="61.1" y2="34.422" gradientTransform="matrix(1 0 0 -1 0 178.842)"><stop offset="0" stop-color="#fff"/><stop offset="1"/></linearGradient><path d="M61.1 141v6.8" fill="url(#SVGID_1_)" stroke="#1d1d1b"/><linearGradient id="SVGID_2_" gradientUnits="userSpaceOnUse" x1="176.5" y1="34.422" x2="176.5" y2="34.422" gradientTransform="matrix(1 0 0 -1 0 178.842)"><stop offset="0" stop-color="#fff"/><stop offset="1"/></linearGradient><path d="M176.5 141v6.8" fill="url(#SVGID_2_)" stroke="#1d1d1b"/><linearGradient id="SVGID_3_" gradientUnits="userSpaceOnUse" x1="118.8" y1="34.422" x2="118.8" y2="34.422" gradientTransform="matrix(1 0 0 -1 0 178.842)"><stop offset="0" stop-color="#fff"/><stop offset="1"/></linearGradient><path d="M118.8 141v6.8" fill="url(#SVGID_3_)" stroke="#1d1d1b"/><linearGradient id="SVGID_4_" gradientUnits="userSpaceOnUse" x1="89.9" y1="34.422" x2="89.9" y2="34.422" gradientTransform="matrix(1 0 0 -1 0 178.842)"><stop offset="0" stop-color="#fff"/><stop offset="1"/></linearGradient><path d="M89.9 141v6.8" fill="url(#SVGID_4_)" stroke="#1d1d1b"/><path class="st4" d="M205.3 141v6.8"/><linearGradient id="SVGID_5_" gradientUnits="userSpaceOnUse" x1="147.6" y1="34.422" x2="147.6" y2="34.422" gradientTransform="matrix(1 0 0 -1 0 178.842)"><stop offset="0" stop-color="#fff"/><stop offset="1"/></linearGradient><path d="M147.6 141v6.8" fill="url(#SVGID_5_)" stroke="#1d1d1b"/><linearGradient id="SVGID_6_" gradientUnits="userSpaceOnUse" x1="234.2" y1="34.422" x2="234.2" y2="34.422" gradientTransform="matrix(1 0 0 -1 0 178.842)"><stop offset="0" stop-color="#fff"/><stop offset="1"/></linearGradient><path d="M234.2 141v6.8" fill="url(#SVGID_6_)" stroke="#1d1d1b"/><path class="st4" d="M24.4 140.7h297"/><linearGradient id="SVGID_7_" gradientUnits="userSpaceOnUse" x1="320.7" y1="34.422" x2="320.7" y2="34.422" gradientTransform="matrix(1 0 0 -1 0 178.842)"><stop offset="0" stop-color="#fff"/><stop offset="1"/></linearGradient><path d="M320.7 141v6.8" fill="url(#SVGID_7_)" stroke="#1d1d1b"/><text transform="translate(146.86 168.857)" class="st8 st9 st10">Image Height [mm]</text><path class="st8" d="M319.8 153.6c-.3-.1-.6-.3-.7-.5-.2-.2-.2-.5-.2-.8 0-.5.2-.9.5-1.2s.8-.5 1.3-.5c.6 0 1 .2 1.4.5.3.3.5.7.5 1.2 0 .3-.1.6-.2.8-.2.2-.4.4-.7.5.4.1.7.3.9.6.2.3.3.6.3 1 0 .5-.2 1-.6 1.4s-.9.6-1.5.6-1.1-.2-1.5-.6c-.4-.4-.6-.8-.6-1.4 0-.4.1-.8.3-1.1.1-.2.4-.4.8-.5zm-.4 1.6c0 .2.1.4.2.7.1.2.3.4.5.5s.4.2.7.2c.4 0 .7-.1.9-.4.2-.2.4-.6.4-.9 0-.4-.1-.7-.4-.9s-.6-.4-1-.4-.7.1-.9.4c-.3.1-.4.4-.4.8zm.2-3c0 .3.1.6.3.7.2.2.4.3.8.3.3 0 .6-.1.7-.3.2-.2.3-.4.3-.7s-.1-.5-.3-.7c-.2-.2-.4-.3-.7-.3-.3 0-.6.1-.8.3-.2.2-.3.5-.3.7z"/><path class="st4" d="M31.7 11.5h-7.2m7.2 31.3h-7.2m7.2 32.5h-7.2m7.2 31.4h-7.2"/><path class="st8" d="M32.7 153.9c0-.8.1-1.4.2-1.8.2-.5.4-.8.7-1.1s.7-.4 1.2-.4c.3 0 .6.1.9.2.3.1.5.3.6.6.2.3.3.6.4 1 .1.4.1.9.1 1.5 0 .8-.1 1.4-.2 1.8-.2.5-.4.8-.7 1.1s-.7.4-1.2.4c-.6 0-1.1-.2-1.5-.7-.3-.5-.5-1.4-.5-2.6zm.8 0c0 1.1.1 1.8.4 2.1.2.3.6.5.9.5.4 0 .7-.2.9-.5.2-.4.4-1.1.4-2.1 0-1.1-.1-1.8-.4-2.1-.2-.3-.6-.5-.9-.5-.4 0-.7.2-.9.5-.3.3-.4 1-.4 2.1z"/><path class="st4" d="M32.3 11.5v137.2"/><text transform="translate(16.782 143.226)" class="st8 st9 st11">0</text><text transform="translate(12.532 110.31)" class="st8 st9 st11">20</text><text transform="translate(12.2 78.644)" class="st8 st9 st11">40</text><text transform="translate(12.032 46.31)" class="st8 st9 st11">60</text><text transform="translate(12.032 14.143)" class="st8 st9 st11">80</text><text transform="rotate(-90 49.754 42.89)" class="st8 st9 st10">SFR [%]</text><text transform="translate(66.866 121.976)" class="st8 st9 st11">Sagittal</text><text transform="translate(66.866 133.476)" class="st8 st9 st11">Tangential</text><path class="st4" d="M41 110h73.5v27.8H41V110z"/><path class="st12" d="M45.5 118.3h16.9"/><path class="st13" d="M45.4 129.8h16.8"/><text transform="translate(46.866 13.808)" class="st8 st9 st10">45 LP/mm</text><text transform="translate(98.532 13.476)" class="st8 st9 st10">55 LP/mm</text><text transform="translate(46.866 71.31)" class="st8 st9 st10">64 LP/mm</text><path class="st4" d="M44.2 11.6l-6 8"/><path class="st8" d="M37.2 17.6l.8-.1.3 2 2-.3.1.8-2.8.4-.4-2.8z"/><path class="st4" d="M97.2 11.6L42.5 35"/><path class="st8" d="M42.7 32.7l.8.3-.8 1.9 1.9.7-.3.8-2.7-1 1.1-2.7z"/><path class="st4" d="M45.9 68l-10-16"/><path class="st8" d="M38.1 51.7l-.2.9-1.9-.5-.5 2-.8-.2.6-2.8 2.8.6z"/><linearGradient id="SVGID_8_" gradientUnits="userSpaceOnUse" x1="291.8" y1="34.422" x2="291.8" y2="34.422" gradientTransform="matrix(1 0 0 -1 0 178.842)"><stop offset="0" stop-color="#fff"/><stop offset="1"/></linearGradient><path d="M291.8 141v6.8" fill="url(#SVGID_8_)" stroke="#1d1d1b"/><linearGradient id="SVGID_9_" gradientUnits="userSpaceOnUse" x1="263" y1="34.422" x2="263" y2="34.422" gradientTransform="matrix(1 0 0 -1 0 178.842)"><stop offset="0" stop-color="#fff"/><stop offset="1"/></linearGradient><path d="M263 141v6.8" fill="url(#SVGID_9_)" stroke="#1d1d1b"/><linearGradient id="SVGID_10_" gradientUnits="userSpaceOnUse" x1="32.3" y1="34.422" x2="32.3" y2="34.422" gradientTransform="matrix(1 0 0 -1 0 178.842)"><stop offset="0" stop-color="#fff"/><stop offset="1"/></linearGradient><path d="M32.3 141v6.8" fill="url(#SVGID_10_)" stroke="#1d1d1b"/><path class="st12" d="M32.5 26S161.8 4.7 204.2 48c0 0 24.3 20.3 58.3 10 0 0 24.3-6.3 28.7 16 0 0 1 18.3 29.7 58.3"/><path d="M320.9 134.6s-38.1-58.3-58.7-56.7c0 0-59 4.7-112.7-34.7 0 0-32.5-20.3-116-3.7" opacity=".5" fill="none" stroke="#1d1d1b" stroke-width="2" stroke-linecap="round"/><path d="M320.9 138s-39.5-64.2-56.8-51.9c-17.3 12.2-87.7-17-87.7-17s-52.8-33-143.2-19.8" opacity=".2" fill="none" stroke="#1d1d1b" stroke-width="2" stroke-linecap="round"/><path class="st13" d="M33.2 26.6s141.5-9.8 172.7 26.7c0 0 37.3 49.9 83 50.7h3.7s24.9 3 28.9 4"/><path d="M32.9 39.6S173.6 52.2 206 72.9c32.4 20.8 33.7 41.8 114.6 49.7" opacity=".5" fill="none" stroke="#1d1d1b" stroke-width="2" stroke-linecap="round" stroke-dasharray="4"/><path d="M32.5 48.6s167.4 26.2 172.1 26.6c-.7.2 1.1.7 4 1l2.7 5.5s60.9 53.8 109.8 45.9" opacity=".19" fill="none" stroke="#1d1d1b" stroke-width="2" stroke-linecap="round" stroke-dasharray="4"/></svg>