<svg version="1.1" id="Ebene_1" xmlns="http://www.w3.org/2000/svg" x="0" y="0" viewBox="0 0 865.2 444.8" style="background-color:#fff" xml:space="preserve"><style>.st1,.st3{fill:none;stroke-width:.4252;stroke-miterlimit:10}.st1{stroke-linecap:round;stroke-linejoin:round;stroke:#000}.st3{stroke:#1d1d1b}.st4,.st5{fill:none;stroke:#000;stroke-width:.2835;stroke-linecap:round;stroke-linejoin:round}.st5{stroke-width:.283;stroke-miterlimit:10}.st6{font-family:Helvetica,Arial,sans-serif}.st7{font-size:14px}</style><g id="BCR-70x"><path class="st1" d="M228 276.7v1.4m0-1.4h4.7m-4.7 82.5v1.4m0 0h4.6m-4.6-1.4V353m0-68.6v-6.3m0 6.3v1.4m0 65.7v1.5m4.7-67.2H228m0 65.7v-65.7m186.8-7.7v81.1m0-81.1v-1.4m-4.5 0h4.5m-4.5 83.9h4.5m0 0v-1.4m-4.5-52.6v1.4m-177.7 0v-1.4m177.7-11.3v1.4m-177.7 0v-1.4m177.7-5.7v1.4m-177.7 0v-1.4m177.7 25.5v1.4m-177.7 0v-1.4m177.7-2.8v1.4m-177.7 0v-1.4m177.7-25.5v1.4m-177.7 0v-1.4m177.7 14.1v1.5m-177.7 0v-1.5m177.7-2.8v1.4m-177.7 0v-1.4m177.7 31.2v1.4m-177.7 0v-1.4m177.7-5.7v1.4m-177.7 0v-1.4m177.7 2.9v1.4m-177.7 0v-1.4m177.7-34.1v1.5m-177.7 0v-1.5m177.7 17v1.5m-177.7 0v-1.5m177.7 11.4v1.4m-177.7 0v-1.4m177.7-2.8v1.4m-177.7 0V318m177.7-14.2v1.4m-177.7 0v-1.4m177.7 28.3v1.4m-177.7 0v-1.4m177.7 2.9v1.4m-177.7 0V335m177.7 2.8v1.4m-177.7 0v-1.4m177.7 8.5v1.4m-177.7 0v-1.4m177.7-5.7v1.4m-177.7 0v-1.4m177.7 2.9v1.4m-177.7 0v-1.4m177.7 5.6v1.5m-177.7 0v-1.5m177.7-45.3v-1.4m0 0H232.6m0 0v1.4m177.7-8.5v-1.4m0 0H232.6m0 0v1.4m177.7 5.6v-1.4m0 0H232.6m0 0v1.4m177.7-8.5V291m0 0H232.6m0 0v1.4m177.7-5.6v-9.2m-177.7 9.2v-9.2m177.7 20.5v-1.4m0 0H232.6m0 0v1.4m177.7-20.5v-1.5m-177.7 0v1.5m177.7 0H232.6m0-1.5h177.7m0 33.3V308m0 0H232.6m0 0v1.4m177.7-2.8v-1.4m0 0H232.6m0 0v1.4m177.7 5.7v-1.4m0 0H232.6m0 0v1.4m177.7-22.7v-1.4m0 0H232.6m0 0v1.4m177.7 25.5v-1.4m0 0H232.6m0 0v1.4m177.7 2.9v-1.5m0 0H232.6m0 0v1.5m177.7 9.9v1.4m-177.7-1.4h177.7m-177.7 1.4v-1.4m177.7 5.6v1.5m-177.7-1.5h177.7M232.6 335v-1.5m177.7-8.5v1.5M232.6 325h177.7m-177.7 1.5V325m177.7 5.7v1.4m-177.7-1.4h177.7m-177.7 1.4v-1.4m177.7-11.3v1.4m-177.7-1.4h177.7m-177.7 1.4v-1.4m177.7 2.8v1.4m-177.7-1.4h177.7m-177.7 1.4v-1.4m177.7 22.7v1.4m-177.7-1.4h177.7m-177.7 1.4v-1.4m177.7-8.5v1.4m-177.7-1.4h177.7m-177.7 1.4v-1.4m177.7 2.8v1.4m-177.7-1.4h177.7m-177.7 1.4v-1.4m177.7 8.5v1.4m-177.7-1.4h177.7m-177.7 1.4v-1.4m177.7-5.7v1.5M232.6 342h177.7m-177.7 1.5V342m177.7 19.2v-1.4m-177.7 0v1.4m0 0h177.7m-177.7-1.4v-9.2m177.7 9.2v-9.2m-177.7 0h177.7m5.4-4.3h-.9m.9-48.2h-.9m.9 0v48.2m246.7.4v-49m4.6-4.5h1.7m-2.3 4.2v-4.2m0 0h2.9m-3.7-.9l.8.9m2.9 4.2h-2.9m-.8.9l.8-.9m2.9-4.2v4.2m.8.9l-.8-.9m0-4.2l.8-.9m-4.5 6v-6m0 0h4.5m0 0v6m0 0h-4.5m-26.1-.6h23.2m0 0v49m0 0h-23.2m0 0v-49m45.2-20.1v82.2m-1.4-83.7l.3.1.2.1.3.1.2.2.2.2.1.2.1.3v.3m-5-1.5h3.6m-3.6 0v.6h-1.4v-.6m-1.4 0h1.4m-1.4 0v.6h-1.4v-.6m-10.6 0h10.6m-10.6 0v.6h-1.5v-.6m-1.4 0h1.4m-1.4 0v.6h-1.4v-.6m-1.4 0h1.4m-1.4 0v.6h-1.4v-.6m-1.5 0h1.5m-1.5 0v.6h-1.4v-.6m-1.4 0h1.4m-1.4 0v.6h-1.4v-.6m-8.9 0h8.9m-8.9 0v.6h-7.4v-.6m-6.4 0h6.4m-7.8 1.5v-.3l.1-.3.1-.2.2-.2.2-.2.3-.1.2-.1.3-.1m-1.4 10.7v-9.2m0 9.2h.7m0 0h.3l.2.2.2.2v.6l-.2.2-.2.1-.3.1m0 0h-.7m0 1.4v-1.4m0 1.4h.7m0 0l.3.1.2.1.2.2v.6l-.2.2-.2.2h-.3m0 0h-.7m0 1.4V291m0 1.4h.7m0 0l.3.1.2.1.2.3v.5l-.2.3-.2.1-.3.1m0 0h-.7m0 1.4v-1.4m0 1.4h.7m0 0h.3l.2.2.2.2v.6l-.2.2-.2.1-.3.1m0 0h-.7m0 1.4v-1.4m0 1.4h.7m0 0l.3.1.2.1.2.2v.6l-.2.2-.2.2h-.3m0 0h-.7m0 1.4v-1.4m0 1.4h.7m0 0l.3.1.2.2.2.2v.5l-.2.3-.2.1-.3.1m0 0h-.7m0 1.4v-1.4m0 1.4h.7m0 0h.3l.2.2.2.2v.6l-.2.2-.2.1-.3.1m0 0h-.7m0 1.4v-1.4m0 1.4h.7m0 0l.3.1.2.1.2.3v.5l-.2.2-.2.2h-.3m0 0h-.7m0 1.4V308m0 1.4h.7m0 0l.3.1.2.2.2.2v.5l-.2.3-.2.1-.3.1m0 0h-.7m0 1.4v-1.4m0 1.4h.7m0 0h.3l.2.2.2.2v.6l-.2.2-.2.1-.3.1m0 0h-.7m0 1.4v-1.4m0 1.4h.7m0 0l.3.1.2.1.2.3v.5l-.2.2-.2.2h-.3m0 0h-.7m0 1.5v-1.5m0 1.5h.7m0 0h.3l.2.2.2.2v.5l-.2.3-.2.1-.3.1m-.7 0h.7m-.7 0v1.4m.7 0h-.7m.7 0h.3l.2.2.2.2v.6l-.2.2-.2.2h-.3m-.7 0h.7m-.7 0v1.4m.7 0h-.7m.7 0l.3.1.2.1.2.3v.5l-.2.2-.2.2h-.3m-.7 0h.7m-.7 0v1.5m.7 0h-.7m.7 0h.3l.2.2.2.2v.5l-.2.3-.2.1-.3.1m-.7 0h.7m-.7 0v1.4m.7 0h-.7m.7 0h.3l.2.2.2.2v.6l-.2.2-.2.2h-.3m-.7 0h.7m-.7 0v1.4m.7 0h-.7m.7 0l.3.1.2.1.2.3v.5l-.2.2-.2.2h-.3m-.7 0h.7m-.7 0v1.5m.7 0h-.7m.7 0h.3l.2.2.2.2v.5l-.2.3-.2.1-.3.1m-.7 0h.7m-.7 0v1.4m.7 0h-.7m.7 0l.3.1.2.1.2.2v.6l-.2.2-.2.2h-.3m-.7 0h.7m-.7 0v1.4m.7 0h-.7m.7 0l.3.1.2.1.2.3v.5l-.2.2-.2.2h-.3m-.7 0h.7m-.7 0v1.5m.7 0h-.7m.7 0h.3l.2.2.2.2v.5l-.2.3-.2.1-.3.1m-.7 0h.7m-.7 0v1.4m.7 0h-.7m.7 0l.3.1.2.1.2.2v.6l-.2.2-.2.2h-.3m-.7 0h.7m-.7 0v1.4m.7 0h-.7m.7 0l.3.1.2.1.2.3v.5l-.2.2-.2.2-.3.1m-.7 0h.7m-.7 9.2v-9.2m1.4 10.6h-.3l-.2-.1-.3-.2-.2-.1-.2-.2-.1-.3-.1-.3v-.2m7.8 1.4h-6.4m13.8 0v-.6h-7.4v.6m16.3 0h-8.9m10.3 0v-.6h-1.4v.6m1.4 0h1.4m1.4 0v-.6h-1.4v.6m1.4 0h1.5m1.4 0v-.6h-1.4v.6m1.4 0h1.4m1.4 0v-.6h-1.4v.6m1.4 0h1.4m1.5 0v-.6h-1.5v.6m12.1 0h-10.6m12 0v-.6h-1.4v.6m1.4 0h1.4m1.4 0v-.6h-1.4v.6m1.4 0h3.6m1.4-1.4v.2l-.1.3-.1.3-.2.2-.2.1-.3.2-.2.1h-.3m-43.4-63.1h-.4m20.8 6.4v-2.8m0 0v2.8m0-3.6v4.3m-3.4 31.2h3.4m0 3.5v-2.8m0 0v2.8m0-3.5v4.2m-20.4-42.5v48.2m17-5v2.2m0-2.9v-4.2m0-31.2v-4.3m0 0v2.2m0 0v2.8m0 0v4.3m0 0v2.8m0 0v4.2m0 0v2.9m0 0v4.2m0 0v2.9m0 0v4.2m0 0v2.9m0 0v4.2m0 0v2.8m0-40.4h3.4m-15.1 0h11.7m0 4.3v31.2m3.4 0h-3.4m3.4 4.2v-4.2m-3.4 4.2h3.4m-3.4 0v2.9m0 0h-11.7m0-2.2v2.2m0-9.2v4.2m0-11.3v4.2m0-11.3v4.2m0-11.3v4.2m0-11.3v4.3m0-9.3v2.2m0-2.2h15.1m0 4.3v-4.3m-3.4 4.3h3.4m2-7.1h-22.4m14 0h8.5m-22.5 48.2h22.5m-9-40.4h3.5m0-2.8h-3.5m0 2.8h3.5m-11.7 0h3.9m-3.9 0h3.9m0-2.8h-3.9m-1.9 2.8v1.4m1.9-4.2h-1.9m0-1.4h-1.7m1.7 0v1.4m0 2.8h1.9m-1.9 1.4v-1.4m-1.7 1.4h1.7m-1.7 0v-5.6m1.7 0h-1.7m1.7 1.4v-1.4m1.9 1.4h-1.9"/><circle class="st1" cx="651.3" cy="304.5" r="2.6"/><circle class="st1" cx="651.3" cy="304.5" r="1.7"/><path class="st1" d="M650.3 303.5h2v2h-2v-2zm3.1 37.8h3.5m0-2.8h-3.5m0 2.8h3.5m-11.7 0h3.9m-3.9 0h3.9m0-2.8h-3.9m-1.9 2.8v1.4m1.9-4.2h-1.9m0-1.4h-1.7m1.7 0v1.4m0 2.8h1.9m-1.9 1.4v-1.4m-1.7 1.4h1.7m-1.7 0v-5.6m1.7 0h-1.7m1.7 1.4v-1.4m1.9 1.4h-1.9"/><circle class="st1" cx="651.3" cy="339.9" r="2.6"/><circle class="st1" cx="651.3" cy="339.9" r="1.7"/><path class="st1" d="M650.3 338.9h2v2h-2v-2zm3.1-4.7h3.5m0-2.8h-3.5m0 2.8h3.5m-11.7 0h3.9m-3.9 0h3.9m0-2.8h-3.9m-1.9 2.8v1.4m1.9-4.2h-1.9m0-1.4h-1.7m1.7 0v1.4m0 2.8h1.9m-1.9 1.4v-1.4m-1.7 1.4h1.7m-1.7 0V330m1.7 0h-1.7m1.7 1.4V330m1.9 1.4h-1.9"/><circle class="st1" cx="651.3" cy="332.8" r="2.6"/><circle class="st1" cx="651.3" cy="332.8" r="1.7"/><path class="st1" d="M650.3 331.8h2v2h-2v-2zm3.1-4.7h3.5m0-2.8h-3.5m0 2.8h3.5m-11.7 0h3.9m-3.9 0h3.9m0-2.8h-3.9m-1.9 2.8v1.4m1.9-4.2h-1.9m0-1.4h-1.7m1.7 0v1.4m0 2.8h1.9m-1.9 1.4v-1.4m-1.7 1.4h1.7m-1.7 0v-5.6m1.7 0h-1.7m1.7 1.4v-1.4m1.9 1.4h-1.9"/><circle class="st1" cx="651.3" cy="325.7" r="2.6"/><circle class="st1" cx="651.3" cy="325.7" r="1.7"/><path class="st1" d="M650.3 324.8h2v2h-2v-2zm3.1-4.7h3.5m0-2.8h-3.5m0 2.8h3.5m-11.7 0h3.9m-3.9 0h3.9m0-2.8h-3.9m-1.9 2.8v1.4m1.9-4.2h-1.9m0-1.4h-1.7m1.7 0v1.4m0 2.8h1.9m-1.9 1.4v-1.4m-1.7 1.4h1.7m-1.7 0v-5.6m1.7 0h-1.7m1.7 1.4v-1.4m1.9 1.4h-1.9"/><circle class="st1" cx="651.3" cy="318.7" r="2.6"/><circle class="st1" cx="651.3" cy="318.7" r="1.7"/><path class="st1" d="M650.3 317.7h2v2h-2v-2zm3.1-4.7h3.5m0-2.8h-3.5m0 2.8h3.5m-11.7 0h3.9m-3.9 0h3.9m0-2.8h-3.9m-1.9 2.8v1.4m1.9-4.2h-1.9m0-1.4h-1.7m1.7 0v1.4m0 2.8h1.9m-1.9 1.4V313m-1.7 1.4h1.7m-1.7 0v-5.6m1.7 0h-1.7m1.7 1.4v-1.4m1.9 1.4h-1.9"/><circle class="st1" cx="651.3" cy="311.6" r="2.6"/><circle class="st1" cx="651.3" cy="311.6" r="1.7"/><path class="st1" d="M650.3 310.6h2v2h-2v-2zm-10.4-12.5v48.6m-478-4.2v-10m-33.4-23.4h9.9m70.5 23.4v.5l.1 1v1.4l-.3 1.5-.6 1.3m0 0l-.4 1.2-.2 1.3.2.9.1.6.2.3m-2.9-5.8l.5-1.2v-1.9l-.2-.8-.1-.3m-.9 9.8l-.2-.4v-2.5l.5-1.5.4-1.2m22.8-4.2h-19m-.9 10h19.9m-22.6-10h-43.4m0 10h42.5m-75.9-33.4l.2 3.8.6 3.6 1 3.6 1.5 3.4 1.8 3.3 2.1 3 2.6 2.9 2.7 2.4 3 2.2 3.3 1.8 3.5 1.4 3.6 1.1 3.7.7 3.8.2m0-10l-3.2-.3-3-.6-2.8-.9-2.7-1.3-2.6-1.7-2.4-2.1-1.9-2.2-1.7-2.6-1.3-2.7-1.1-3-.6-3-.2-3m536.4-32.6v-21.3m-8.5-.2v20.9m-31-31.9h-14.2m14.2 2.8V244m.3 2.8h-.3m21-34.5l-20.7 34.5m20.7-36.9v2.4m-1.2-2.4h1.2m-1.2-8.4v8.4m22.7-8.4h-22.7m22.7 52.4v-52.4m-1.4 53.9l1.4-1.5m-55.2 1.5h53.8m-55.3-1.5l1.5 1.5m-1.5-11.4v9.9"/><path d="M635.3 246.8V244h-14.2v9.9l1.5 1.5h53.8l1.4-1.5v-52.4h-22.7v8.4h1.2v2.4l-20.7 34.5h-.3z" fill="none"/><path class="st1" d="M197.5 196l.5.3.6.9.3 1v1.1l-.3 1.2-.5 1m0 0l-.9.9-.9.8-1.2.3h-1l-1.1-.3-.4-.3m1-73.2l.6-.2h1.1l1 .3.9.6.8.9.6 1.1m0 0l.3 1.2v1.2l-.5 1-.6.9-.7.8-.5.1m-70.3 83.9l-.2.4-.4 1.1-.9.7-.9.5-1.2.3-1.2-.2m0 0l-1.2-.3-1.1-.6-.7-.9-.5-.9-.1-1v-.6m-29.6-97.1l-.4-.3-.5-1-.3-1.1.2-1 .3-1.2.7-.9m0 0l.9-.9 1.1-.5 1-.3h1.1l1 .5.5.3m-12.5 60.4l-.6.2-1-.2-.9-.3-1.1-.6-.7-1-.5-1.1m0 0l-.1-1.2v-1.2l.4-1 .6-.9.9-.6.5-.2m87.7 32.6l.3.4.2 1.1v1l-.5 1.1-.7.9-.9.7m0 0l-1.1.6-1.2.2-1.2-.2-.9-.3-.9-.7-.3-.3M143.7 81.4l.1-.6.5-.9.9-.8.9-.4 1.2-.2h1.2m0 0l1.2.5 1 .6.8.9.4.9.2 1-.2.6m-53.1 6.2l-.3-.6v-1.1l.2-1 .6-.9.9-.9 1-.6m0 0l1.1-.5h1.2l1.2.3.9.5.7.7.2.5m66.7 134.7l.2.4.1 1.1-.1 1-.5 1.1-.7.9-.9.7"/><path class="st1" d="M171.3 225.5l-1.2.5-1.2.1-1.1-.1-1-.5-.8-.7-.3-.5m-97.9-63.9l-.5-.1-1-.3-.8-.6-.7-.9-.5-1.2-.1-1.2m0 0l.1-1.2.5-1.1.7-.9.8-.7 1-.3h.5m26.7 57.3l-.3.3-.9.6-1.1.1H91l-1-.4-1.1-.6m0 0l-.7-.9-.6-1.1-.3-1v-1.1l.4-1 .3-.5m44.1-123v-.4l.5-1.1.6-.7 1-.8 1.1-.3 1.2-.1m0 0l1.2.1 1 .5.9.7.6.9.3 1.1.2.4m-23.1 149l-.2.4-.6.9-.9.8-1 .3-1.2.1-1.2-.1m0 0l-1.1-.5-.9-.7-.7-.9-.5-.9v-1.1l.2-.6M74.5 127l-.4-.3-.8-.8-.3-1-.1-1.1.1-1.2.5-1.2m0 0l.7-.9.9-.7 1.1-.5 1-.1 1.1.1.4.3m-5.4 63h-.6l-1 .2-1.1-.5-.9-.6-.7-.9-.6-1"/><path class="st1" d="M68.4 179.8l-.3-1.2v-1.1l.4-1.2.6-.9.8-.6.4-.3m98.6-61.8l.4-.4.9-.5 1.1-.1 1.2.1 1 .5.9.7m0 0l.9.9.5 1.1.1 1-.1 1.2-.5.9-.3.5m-59.7-15.5l-.1-.6.1-1 .5-1.1.7-.7.9-.8 1.1-.4m0 0l1.2-.2 1.2.2 1 .4.9.6.6.9.2.5m52.2-7.2l.3-.5.9-.6 1-.3h1.2l1.1.3 1 .6m0 0l.9.9.6 1.1.3 1v1.1l-.3 1-.3.5m-96 116.4l-.4.4-.9.5-1.1.1h-1l-1.2-.4-.9-.8m0 0l-.9-.9-.5-1-.3-1.1.2-1 .3-1.1.4-.4m60.5 21.7l-.2.6-.3.9-.6.9-.9.8-1 .4-1.2.3m0 0l-1.2-.1-1.1-.5-1-.6-.6-.9-.5-.9v-.6M97 101.5l-.3-.6-.1-.9.1-1.2.5-1.1.7-.9.9-.7"/><path class="st1" d="M98.8 96.1l1.1-.5 1.2-.1 1.2.1.9.5.9.6.3.4m82.9 43.5h.6l1.1.2.9.4.9.8.6 1 .4 1.1m0 0v1.2l-.1 1.2-.5 1-.7.8-.9.6-.5.1m-40.2-46.8l.2-.4.7-.9.9-.6 1.1-.3h1.2l1.2.3m0 0l1 .6.9.7.6.9.3 1.1v1l-.1.6m42.3 13.7l.4-.2 1.1-.1 1 .1 1.1.6.7.8.8 1m0 0l.4 1.1v1.2l-.1 1.2-.5.9-.7.7-.5.3m-141 5.4l-.4-.3-.8-.6-.6-1-.3-1.1v-1.2l.5-1.2m0 0l.4-1 .9-.8.9-.6 1.1-.3h1l.6.2m0 64.2l-.6.1-1 .2-1.1-.3-.9-.6-.9-.9-.4-1.1m0 0l-.5-1.2v-1.2l.3-1 .6-.9.8-.8.4-.1m90-87.5l.2-.4.7-.8.9-.6 1.1-.3h1.2l1.2.2m0 0l1 .6.9.7.6 1.1.3.9v1l-.1.6M149.1 220v.6l-.2 1-.4.9-.8.9-1 .6-1.2.3m0 0l-1.2.2-1.2-.3-.9-.5-.9-.7-.5-1.1-.1-.4m51.7-36.3l.5.3.6.9.4.9.2 1.2-.2 1.2-.4 1m0 0l-.8 1.1-.9.7-1 .5h-1.1l-1-.2-.5-.1m-64.6 18.6l-.2.4-.6.9-.9.8-1 .4-1.2.2-1.2-.2m0 0l-1.1-.4-.9-.8-.7-.9-.5-1-.1-1.1.1-.4m93.5-57.3h.6l.9.3.9.7.7.9.5 1.1.1 1.2m0 0l-.1 1.2-.5 1.2-.7.9-.9.6-.9.3-.6.1M80.2 102.7l-.4-.5-.3-.9-.2-1 .3-1.2.5-1.1.9-.9m0 0l.9-.6 1.2-.4 1-.2 1.1.3.9.5.4.3M58 154.6h-.4l-1.1-.5-.7-.7-.6-.9-.5-1.2v-1.2m0 0l.2-1.2.6-1.1.7-.9.9-.6 1.1-.1h.4m147.9 28.6l.6.2.8.6.6.9.4 1v1.2l-.1 1.2m0 0l-.5 1.1-.7 1-.9.6-1.1.3-1 .2-.6-.2m-23-72.3l.5-.3.9-.3 1.2-.1 1 .3 1.1.6.9.7m0 0l.6 1.1.4 1.2v1l-.3 1.1-.4.9-.5.4m-16.5 93.6l.3.5.2 1-.2 1.1-.4 1-.8.9-.9.8m0 0l-1.2.4-1 .3-1.2-.1-1.1-.5-.7-.7-.3-.5m-83.7-71.5l-.5-.3-.9-.6-.6-.9-.4-1.1v-1.2l.1-1.2m0 0l.5-1 .7-.9 1.1-.8.9-.3h1l.6.2m12.5 60.4l-.5.3-1 .3-1.1.2-1-.3-1.1-.6-.9-.8m0 0l-.7-1-.3-1.1-.2-1.2.3-1 .5-.9.4-.3m93.5-4.8l.4.3.6.9.3 1v1.1l-.1 1.2-.6 1m0 0l-.9.9-.9.6-1.1.5h-1.2l-.9-.3-.4-.3m13.8 13.8l.3.4.4.9.2 1.1-.2 1.2-.4 1-.8.9m0 0l-.9.9-1 .5-1.2.1-1.1-.1-.9-.5-.4-.3m12.6-70.9h.4l1.1.1 1 .5.8.9.6.9.4 1.2m0 0v1.2l-.1 1.2-.6 1-.8.8-.9.4-.4.2M115 219.2l-.3.5-.6.9-.9.6-1 .3H111l-1.2-.3m0 0l-1.1-.5-.9-.9-.6-.9-.3-1v-1.1l.2-.4M95.8 114.5l-.3-.4-.3-1.1v-1l.3-1.1.6-1 .9-.9m0 0l1.1-.6 1-.3h1.2l1.1.3.9.6.3.3M78.3 166h-.5l-1-.2-1.1-.6-.7-.9-.5-1-.3-1.2m0 0v-1.2l.3-1.1.6-1 .8-.8 1-.4h.5m77.5-73.8l.3-.5.6-.9.9-.6 1.1-.3h1.2l1.2.3m0 0l1 .5.9.7.6 1.1.3 1v1.1l-.1.4m-53.4-2.1l-.2-.4V83l.5-1 .7-.9.9-.6 1.1-.6m0 0l1.2-.2 1.2.2 1 .4.9.6.6.9.2.5m45.3 143.2l.1.6v1.1l-.3 1-.6.9-.9.8-1 .6m0 0l-1.2.3-1.2-.2-1.1-.3-.9-.6-.6-.7-.3-.5m-86.8-79.6l-.5-.2-.9-.4-.7-.8-.6-1-.2-1.2v-1.2m0 0l.5-1.2.6-.9.7-.9 1.1-.5 1-.1h.5m16.3 61l-.4.3-.9.5h-1.2l-1.1-.3-1-.5-.9-.9m0 0l-.6-1-.5-1.1v-1.2l.2-1 .6-.9.4-.3m76.4 12l.1.4v1.1l-.3 1-.6 1.1-.9.7-1 .6m0 0l-1.2.2h-1.2l-1.1-.3-.9-.6-.7-.8-.2-.4m-42.4 16.5l-.2.4-.7.8-.9.6-1.2.3-1.2-.2-1.1-.3m0 0l-1-.6-.9-.9-.6-1-.2-1.1v-1l.3-.5m30.5-132.6v-.6l.3-.9.7-.9.9-.7 1.1-.5 1.2-.1m0 0l1.2.1 1 .5.9.7.8.9.3.9v.6m-57.2 26.7l-.4-.4-.6-.9-.2-1.1v-1l.5-1.2.6-1.1m0 0l.9-.7 1-.6 1.1-.3 1.2.1.9.3.4.3m91.1 10.1l.4-.3.9-.3 1.2.1 1.1.3.9.6.9.9m0 0l.6 1.2.1 1.1v1.2l-.3 1-.6.8-.4.4m-55.4-27.3v-.4l.3-1.1.6-.9.9-.7 1.1-.5 1.2-.1m0 0h1.2l1 .4 1.1.6.6.9.4.9v.6m50 .8l.4-.5.9-.4 1.1-.2 1.2.3 1 .5.9.7m0 0l.8 1.1.4 1 .2 1.1-.2 1.2-.4.9-.3.3M78 207.4l-.3.3-1.1.3-1 .1-1.2-.3-.9-.6-.9-.9m0 0l-.8-.9-.3-1.2V203l.2-1 .6-.9.3-.3m56.5 30.7l-.1.5-.5.9-.7.9-1.1.4-1 .3h-1.2m0 0l-1.2-.1-1.1-.6-.9-.8-.4-1-.3-1.1v-.4M107.1 95.9l-.2-.6v-1l.3-.9.6-1.1.9-.7 1.1-.6m0 0l1.2-.2h1.2l1 .3.9.6.6.8.3.4m83.9 70.4l.4.1.9.6.8.8.6 1 .1 1.1v1.2m0 0l-.4 1.2-.6 1-.8.8-1 .4-1.1.2h-.4m-38-65.3l.3-.4.9-.6.9-.5h1.2l1.2.2 1.1.4m0 0l.9.8.7 1 .5 1.1v1l-.2 1.1-.3.4m-20.5 99.8l.1.6-.3 1-.4.9-.8.9-1 .6-1.2.3"/><path class="st1" d="M142.5 215h-1.2l-1.2-.3-.9-.4-.9-.8-.5-1-.1-.5m51.7-60.1h.5l1 .3.9.7.6.9.5 1.1.1 1.2m0 0l-.1 1.2-.5 1.2-.6.9-.9.6-1 .3-.5.1m14.6-31l.6-.2h1l1.1.3.9.8.7.9.5 1m0 0l.1 1.2v1.2l-.4 1.1-.6.9-.8.6-.6.3M66.6 121.3l-.5-.3-.7-.8-.3-1-.2-1.2.2-1.1.4-1.2m0 0l.8-.9.9-.7 1-.5 1.2-.1 1.1.3.4.1M61 177.4l-.4.1-1.1-.1-1-.5-.9-.7-.6-.9-.5-1.2m0 0l-.1-1.2.1-1.2.5-.9.7-.9.9-.6.5-.2m103.5-72l.3-.4.7-.6 1.1-.5 1.2-.1 1 .1 1.2.5m0 0l.9.7.8.9.4 1.1.2 1.2-.2.9-.3.6m-32.2 120.3v.4l-.3 1.1-.8.9-.9.6-1 .4-1.2.2m0 0l-1.2-.2-1.1-.4-.9-.6-.7-.9-.3-1.1v-.4m57.1-26.7l.5.3.4.9.3 1v1.2l-.4 1.1-.6 1m0 0l-.9.9-1.1.5-1 .3h-1.2l-.9-.5-.5-.3m-68.4 6.6l-.3.5-.6.7-1 .6-1.1.2-1.2-.2-1.2-.3m0 0l-1-.7-.8-.8-.4-1-.3-1.1.1-1 .2-.6m84.1-41.1l.5.1.9.5.7.9.5.9.1 1.2v1.2m0 0l-.4 1.2-.6.9-.9.7-.9.6h-1.7M88.9 95.2l-.3-.5-.1-1v-1.1l.4-1 .8-1.1.9-.7m0 0l1-.5 1.2-.3 1.1.2 1 .3.9.6.3.4m106.8 95.3l.5.3.7.7.5.9.1 1.2v1.1l-.4 1.2m0 0l-.8 1-.7.8-1.1.4-1 .3-1.1-.1-.4-.2m-11-73.8l.5-.3 1-.1 1.1.1 1 .5.9.7.8.9m0 0l.4 1.2.2 1.2-.2 1.1-.4 1-.6.8-.5.3m-109.9 5.7l-.5-.3-.6-.8-.4-1-.2-1.1.2-1.2.4-1m0 0l.8-1.1.9-.7 1-.5 1.1-.1 1 .1.5.3m0 61.7l-.5.1-1 .3-1.1-.1-1-.6-.9-.8-.8-.9m0 0l-.4-1.2-.2-1 .2-1.2.4-.9.6-.9.5-.3m92.5 14.2l.3.5.5.9.1 1-.1 1.2-.5 1.1-.9.9m0 0l-.9.7-1 .5-1.2.1-1.1-.1-.9-.6-.4-.3m13.6 13.9l.3.5.3.9v1l-.3 1.2-.6.9-.9.9m0 0l-1 .6-1.1.3H178l-1-.3-.9-.4-.3-.5m32.8-55.2l.5.2.9.4.7.8.6 1 .3 1.2-.1 1.2m0 0l-.3 1.1-.6 1-.8.9-1 .5-.9.1h-.6m-137.7-.1h-.5l-1-.2-1.1-.4-.7-.8-.6-1-.5-1.2m0 0v-1.2l.2-1.1.6-1 .7-.8.9-.6.5-.1m36.3 51.7l-.3.5-.9.7-.9.5-1.2.1-1.2-.3-1.1-.4m0 0l-.9-.8-.7-.9-.5-1-.1-1.1.1-1 .3-.5m-19.6-56.1l-.5-.1-1-.5-.8-.7-.6-.9-.3-1.2v-1.2m0 0l.3-1.2.5-1.1.7-.7 1.1-.6 1-.3h.5m42.3-64.4v-.6l.3-1 .4-.9.9-.8 1.1-.6 1.2-.3m0 0h1.2l1 .3 1.1.6.7.8.5 1 .1.5m-58.8 56.8l-.4-.1-.8-.8-.6-.9-.4-1v-1.2l.3-1.2m0 0l.6-1.1.7-.9.9-.6 1.1-.3h1l.6.2m5.4 63l-.4.1-1.1.2h-1l-1.1-.5-.9-.7-.7-1.1m0 0l-.5-1-.1-1.2.1-1.2.3-.9.8-.9.4-.3m30.5-77.4l-.2-.5-.1-1 .3-1.1.4-1 .8-.9 1-.6m0 0l1.2-.5h1.2l1.1.2 1 .4.6.8.3.4m53.1-16.2l.3-.3.8-.7 1-.5 1.1-.1 1.2.1 1.2.5m0 0l.9.6.7.9.5 1 .1 1.1-.1 1-.2.6M96.1 221.6l-.3.5-.9.6-1 .4h-1.1l-1.2-.1-1-.6m0 0l-.9-.8-.8-.9-.4-1v-1.2l.1-.9.3-.6m63 12.3l.2.4-.2 1.1-.4 1-.8.9-1 .6-1.2.3m0 0l-1.2.2-1.2-.3-.9-.5-.9-.7-.5-.9-.1-.5M88 108.5l-.3-.3-.4-1v-1.1l.3-1.2.6-1 .7-.8m0 0l1.1-.7 1-.3 1.2-.2 1.1.3.9.5.3.4m88.6 27l.6-.1h1.1l1 .1.9.6.9.9.6 1.1m0 0l.3 1v1.2l-.1 1.2-.6.9-.8.8-.4.1m-48.9-37.6l.1-.6.5-.9.9-.8.9-.6 1.2-.1h1.2m0 0l1.2.3 1 .6.8.7.4 1.1.3 1-.1.5m46.5 7.8l.4-.3 1.1-.3 1 .1 1.2.3.9.6.9.9m0 0l.5 1.1.3 1.2v1.2l-.3 1-.6.8-.5.3M59.1 143l-.5-.1-.9-.5-.7-.9-.5-1-.1-1.2.1-1.2m0 0l.5-1.1.6-1 .9-.8 1-.4H61m9.9 63.4l-.4.3-1.1.2h-1.2l-1-.5-.9-.7-.8-1.1m0 0l-.4-1-.2-1.2.2-1.1.3-1 .7-.8.5-.3m74.1-100.3l.1-.5.5-.9.9-.7.9-.5 1.2-.3h1.2m0 0l1.2.5 1 .6.8.7.4 1.1.2 1v.5m10.8 124.2l.1.4v1.1l-.3 1-.6.9-.9.9-1 .5m0 0l-1.2.3h-1.2l-1.1-.3-.9-.6-.7-.9-.2-.5m44.7-44.7l.5.3.7.6.6.9.5 1.2v1.1l-.3 1.2m0 0l-.6 1-.8.9-.9.6-1 .5-1.1-.2h-.6m-58.8 29.6v.4l-.4 1.1-.6.9-1.1.6-1 .3-1.2.1m0 0l-1.2-.3-1.1-.4-.9-.8-.6-.9-.3-.9v-.6m72.6-59.8h.6l1.1.3.7.7.8.9.4 1.1.2 1.2m0 0l-.2 1.2-.4 1.2-.8.9-.7.6-1.1.3-.6.1m8.3-19.9l.6-.2.9.3 1 .5.8.7.6 1.1.3 1.2m0 0l.1 1.2-.3 1.2-.6.9-.7.9-.9.4-.5.2m-136-37.4l-.3-.4-.6-.9-.2-1.1v-1l.3-1.2.8-1.1m0 0l.9-.7.9-.6 1.2-.3h1l1.1.4.3.3m-19.4 61.2h-.4l-1.1-.3-.9-.6-.7-.7-.6-1.2-.2-1.1m0 0V161l.5-1.2.6-.9.7-.7 1.1-.5.4-.1m114.3-54.5l.5-.4.9-.5 1-.3 1.2.2 1.1.3 1 .7m0 0l.8.8.6 1 .3 1.2-.2 1.1-.3 1-.3.3m-61-16.3v-.5l.1-1 .5-1.1.7-.7 1.1-.6 1.2-.5m0 0h1.2l1.2.3.9.5.9.7.4.9.2.5m52.6 112.9l.3.5.3 1 .2 1.1-.3 1-.6 1.1-.8.9m0 0l-1 .6-1.1.4h-1.2l-1-.1-.9-.6-.5-.3m-69.7-6.3l-.3.4-.9.6-1.1.3h-1.2l-1-.4-1.1-.6m0 0l-.9-.8-.6-1-.3-1.2v-1.1l.3-.9.3-.4m90.8-23.6l.4.3.8.8.6.9.1 1v1.2l-.3 1.2m0 0l-.6 1.1-.9.7-.9.6-1 .3-1.1-.1-.6-.2m10.2 21.5l.5 1.2.7.9 1.1.7 1 .3h1.4l1.2-.3 1.2-.6 1-.9.8-1.2.6-1.3.1-1.4-.1-1.2-.5-1.2-.6-.9-1-.7-1.2-.5h-1.2"/><path class="st1" d="M197.2 207.5l.5.3 1.2.5h1.2l1.3-.3 1.2-.8 1.1-.9.7-1.2.6-1.2.2-1.3-.2-1.4-.4-1.2-.8-.9-.4-.4"/><path class="st1" d="M195.6 205l.4.3 1.1.3h1l1.2-.3.9-.8.9-.9.5-1 .3-1.2v-1.1l-.3-1-.6-.9-.5-.3m4.4-69.2l-.5-.7-1-1.1-.8-.4m0 3.4l-.7-1-1.1-1.1-1-.6-1.2-.3h-1.2l-1.2.5-.9.7-.8 1.1m2.9 7.9v.2l1.2.3 1.2-.2 1.2-.4.9-.8.3-.1"/><path class="st1" d="M201.9 130.9l-.5-.8-.7-.9-.9-.6-1.1-.3h-1l-.6.2m3 7.9l.4-.3.8-.6.3-.1m-84.2 94.9l.8.5 1.3.6.8.1m5.8-4.6l.5-1.1.3-1.2-.2-1.2-.6-1v-.2m-8.7 5.1h.2l1 .9 1.4.5 1 .3m-3.3-8.1l-.9.9-.6 1-.1 1.2.1 1.2.2.5m8.4 1l.1-.1.6-1.1.2-.4m-8.4-1.5v.6l.1 1 .5.9.7.9 1.1.6 1.2.3.9.2M81.6 117.8v.3l.7 1.1.5.4m6.9-8.1l-.5-.4-1-.5-1.4-.1-.9.1m-2.5 7.5v.6l.3 1.2.6 1.1.9.7 1.2.5 1.2.1h.1m5.4-6.4l-.3-1.2-.6-1.1-.9-.7-1.2-.5-1.2-.1-1.3.1-.3.2"/><path class="st1" d="M84.4 118v.3l.2 1 .6.9.3.3m5.5-6.4l-.4-.3-.9-.3-1.1-.2-1.2.3M76 179.2h1.7l1-.3 1.1-.8.7-.9h.2m-2.6-8.2l-1.3-.3h-1.2l-1.1.3-1 .7-.8 1.1-.6 1.2-.1 1.3v1.1m-2-2.9l-.4 1.2-.2 1.4v.7M76 178l.3.1h1.1l.6-.1"/><path class="st1" d="M75.4 169.9l-.6.1-.7.8-.6.7-.5 1.2-.1 1.2.1.6m95.7 35l.3-.3.6-1.2.5-1.2v-1.2l-.3-1.2-.6-1.1-.9-.7-1.2-.6m-7.2 4.5v1.3l.3 1.2.6 1.1.9.7.7.3m8 .5v-.2l.7-1 .5-1.4v-1.2l-.3-1.2-.3-.4m-9.2 5.7l.3.3"/><path class="st1" d="M167.8 209l.8-1 .4-1.1v-1l-.1-1.1-.3-.4m-7.2 4.5l.3.4.7.6.6.3M152.1 82.1h.1l.9-.9.5-1 .3-1.2-.2-1.2-.4-1.2-.9-1.1-1.1-.7-1.2-.6-1.5-.3-1.3.1-1.4.3-1 .6-.9.9-.6 1.1-.2 1.2v1.2l.6 1.2"/><path class="st1" d="M154.3 76.9v-.6l-.1-1.2-.5-1.1-.7-1-1.1-.9-1.3-.5-1.4-.3h-1.3l-1.4.3-1.2.8-.9.9-.4 1-.3.6"/><path class="st1" d="M152.7 79.4v-.6l-.2-1-.4-.9-.8-.9-1-.6-1.1-.5H148l-1.2.2-1 .6-.8.6-.6 1-.1.5M105 79.4l-.3-.6-.8-.9-1.2-.6-1.2-.4h-1.3l-1.4.3-1.3.4-1.1.9-.9 1.1-.4 1.2-.3 1.2.1 1.2.2.6"/><path class="st1" d="M106.2 84.8l.3-1.2-.2-1.2-.6-1.2-.7-.9-1.1-.6-1.3-.4h-1.4l-1.3.3-1.2.6-1.2.7-.8 1.1-.6 1.2-.3 1.2.2 1.2.6 1.2.7.9 1.1.6v.1"/><path class="st1" d="M105 82.3l-.2-.5-.7-.7-.9-.6-1.2-.2h-1.2l-1.1.5-1 .6-.9.7-.6 1.1-.2 1v1.1l.3.4m68.9 139.4l-.2 1.3.2 1.2.6 1.1.9.7 1.2.6 1.2.3 1.3-.1 1.4-.3 1.2-.6 1-1.1.8-1 .4-1.2.2-1.2-.2-1.2-.6-1.1-.9-.9-1-.6h-.2"/><path class="st1" d="M167.8 230.5l.3.4.9.9 1.1.6 1.3.3 1.4-.1 1.3-.3 1.2-.8 1.1-.9.7-1 .5-1.2.1-1.4-.3-1.2-.1-.4"/><path class="st1" d="M167.5 227.5l.3.4.8.8.9.4 1.2.2 1.2-.2 1-.4 1.1-.6.7-.9.5-1.1.1-1.2-.1-.9-.3-.6M57 154.6v3m5.5 3.6l1.1.3h1.2l1.2-.3 1-.8m-7.2-6.1l-.1 1.2v1.3l.1 1.1m7.2-6l-1-.8-1.2-.3h-1.2l-1.1.3m1.7.8h-.5l-1 .3-.9.7-.6.9-.5 1.1-.1 1.2.1 1.2.5 1.2.6.9.9.6 1 .3.5.1m21.7 55.4h.2l1.2.4h1.3l1.2-.4 1.1-.6.4-.5m-8.2-6.9l-.3.3m4.6 5.6l.3.1 1.4.3h1.3l1.2-.4 1.1-.6.7-.9.5-1.1.1-1.3m-6.4-5.6h-.2l-1.2.5-1 .6-.8.9-.4 1.2-.2.7"/><path class="st1" d="M87.6 212.6l1.2.5h1l1.1-.3.9-.5.4-.4m-6.6-5.4l-.3.4-.3.9-.1.6m55.8-128.2l.7-1.1.5-1.2v-1.2l-.3-1.2-.8-1-.9-.9-1.2-.6-1.3-.3-1.4-.2-1.3.3-1.4.6-1 .8-.8 1-.3 1.2-.1 1.2.3 1.1.7 1.2"/><path class="st1" d="M142 74.6V74l-.4-1.2-.6-1-.9-.9-1.2-.6-1.4-.3-1.5-.2-1.3.3-1.2.6-1.1.8-.7 1-.5 1.2v.6"/><path class="st1" d="M140.7 77.3v-.4l-.3-1.1-.6-.9-.9-.7-1.1-.5-1.2-.1h-1.2l-1 .4-1.1.6-.6.9-.4.9v.6m-23.1 151.4v.1l-1.1.8-.6 1-.3 1.2v1.2l.5 1.2.7 1.1 1.1.9 1.2.6 1.3.4h1.4l1.3-.3 1.2-.4.9-.9.8-.9.3-1.2V232l-.5-1.2"/><path class="st1" d="M106.6 233.5l-.1.6.1 1.2.3 1.2.8 1 1 .9 1.2.8 1.4.3 1.3.1 1.4-.3 1.2-.6.9-.7.7-1.1.2-.6"/><path class="st1" d="M108.4 231.2l-.1.5.1 1 .5 1.1.6.9 1 .6 1.1.6 1.2.1 1.2-.1 1-.5.9-.6.6-.9.2-.4M66.3 121.1l.3 1.4.6 1 .7.9.5.3m5.4-9.3l-.5-.3-1.2-.1H72m-3.3 6.9v.6l.1 1.3.6 1.1.9.9 1.1.6 1 .3 1.4-.2m4.3-7.3l-.6-1.2-.9-.9-1-.6-1.2-.2h-1.2l-.5.2"/><path class="st1" d="M69.7 121.7v1.4l.5 1 .7.8.5.3m4.2-7.4l-.5-.3-1-.1-1.1.1M67.8 185h1.8l1.2-.4.9-.6.7-1.1v-.1m-2.8-8l-1.2-.3H67l-1 .5-1.1.7-.6 1.1-.4 1.2-.2 1.3v.8m-1.5-3.2l-.4.8-.5 1.2-.1 1.3v.5m2.8-5l-.6.2m4.4 7.9l.4.2h1.1l.6-.2"/><path class="st1" d="M66.9 175.9l-.5.1-.7.6-.6 1.1-.5 1v1.2l.2.3m107.4-72l-1.1.6-.9.9-.6 1.1-.1 1.2v.1m10 1.2l-.1-.7-.5-1.4-.7-1-.5-.6m-2.1 8.4l1.4-.3 1-.6.8-.9.6-1.1.1-.9m1.7-3.7l-.5-1.2-.7-1.1-.2-.3m-6.9 1.2h-.1l-.9.6-.5.3m6.2 5.9l.3-.5.4-.9.2-1-.2-1.2-.6-1.1-.7-.9-.3-.3m-59.1-18.7h-.2l-1.3.3-1.2.6-.2.1m-1.5 5.7v1.2l.3 1.2.6.9.9.9h.2m3.3-8.4h-.5l-1.3.5-1.2.6-.3.1m8.2 5.1l.5-1.2v-1.2l-.3-1.2-.6-.9m-3.6-.7l-.6-.2-1.2.2-1.1.4-1 .8-.6.9-.5 1-.1 1.1.1.4m8.3-2.1l-.2-.4-.6-.9-.3-.3m61.4 2.4h.1l1.2-.5.9-.7.8-.9.4-1.2v-1.2l-.3-1.4-.6-1.2-.9-1-1-.9-1.2-.5-1.4-.3h-1.3l-1.2.5-1.1.7-.6.9-.4 1.2-.2 1.2"/><path class="st1" d="M187.3 94.4l.3-.6.5-1v-1.4l-.3-1.2-.6-1.2-.9-1-1.1-.9-1.3-.6-1.2-.3-1.4.1-1.2.5-1 .6-.3.4"/><path class="st1" d="M184.8 95.9l.3-.4.3-1.1v-1l-.3-1.2-.6-.9-.9-.9-1.1-.6-1.2-.3h-1l-1.1.3-.9.6-.3.3M75.1 213.5l-.4.5-.5 1.2-.1 1.2.1 1.3.5 1.2.9 1.2 1 .9 1.2.6 1.4.5h1.2l1.2-.3 1-.6.5-.5"/><path class="st1" d="M79.6 210.1v.1l-1.3.3-.9.6-.9.9-.5 1.1-.1 1.3.1 1.2.5 1.4.9 1 1 .9 1.2.8 1.4.3h1.2l1.2-.3 1-.6.9-.9.5-1.1.1-1.2v-.1"/><path class="st1" d="M77.7 212.3l-.3.3-.3 1.1-.2 1 .3 1.2.5 1.1.7.9 1.1.6 1 .4 1.2.2 1.1-.3.9-.5.4-.4m48 14.5l-.7 1.1-.3 1.2.1 1.2.3 1.2.8.9 1 .9 1.4.4 1.3.3h1.4l1.3-.4 1.2-.6.9-.9.8-1.1.3-1.2v-1.2l-.5-1-.7-1.1"/><path class="st1" d="M131.2 238v.6l.5 1.2.7.9 1.1.9 1.2.4 1.3.3h1.5l1.4-.4 1.2-.6.9-.9.6-1.1.4-1.2v-.6"/><path class="st1" d="M132.3 235.3v.4l.4 1.1.6.7 1.1.8 1 .3 1.2.1 1.2-.1 1.1-.6.9-.6.6-.9.3-1.1v-.6M98.7 89h-1.5l-1.4.5h-.1M93.6 97l.3 1.3.6.9.9.9 1.2.6m7.3-4.3l.2-1.2-.3-1.2-.6-1.1-.9-.9-1.2-.4-1.2-.3-1.4.1-1.3.5-.5.1m-1.9 4.5v.2l.1 1 .2.5"/><path class="st1" d="M102.6 94l-.3-.5-.9-.6-.9-.4-1.2-.2-1.2.2-1.1.4-.3.2m98.9 48.1l-.9-1-.9-.8-1.2-.4-1.2-.2-1.2.2-1.1.6-.9.9m1.7 8.4l1.2.4 1.2.2 1.2-.3 1-.6.8-.6m2.8-7.5l-.7-.9-1.1-.8-1.2-.4-1.2-.2-.6.2m2.3 10.5l.6-.2.1-.1"/><path class="st1" d="M194.8 142l-.4-.8-.9-.7-.9-.5-1.1-.1-.6.1m1.8 8.3l.5-.2.9-.4.4-.6m-42.6-51.3l-.7.3-1.1.7-.7 1.1-.5 1v1.2l.3 1.2v.2m8 2.8l1-.7.8-.9.4-1.2v-1.2l-.3-1.2-.6-1.1-.1-.1m-6.6-4.1l-.8.5-.7 1-.3.6m10.2 3.8l.1-.6v-1.4l-.3-1.2-.1-.4"/><path class="st1" d="M152.4 96.8l-.5.2-.9.6-.6.7-.3.5m8 3l.1-.6.2-1.1-.5-1-.4-.8m51.6 26.4l.6-.3.7-.9.8-1 .3-1.4v-1.3l-.5-1.4-.6-1.2-.9-1-1-.9-1.2-.5-1.2-.1-1.2.1-.6.2"/><path class="st1" d="M203.7 126.1l1.2.3 1.2-.3 1-.5.9-.9.6-1 .5-1.4-.2-1.3-.3-1.4-.6-1.2-.9-1-1-.9-1.2-.5-1.2-.1-1.2.1-1.1.5-.9.9-.6 1-.1.2"/><path class="st1" d="M206.1 124.9l.4-.3.8-.8.6-.9.1-1.2-.1-1.2-.3-1-.8-1.1-.9-.7-.9-.6-1-.2-1.1.2-.6.1m-142.6 3.3l-.6-.1h-1.2l-1.2.1-1.2.6-.9.9-.9 1.2-.5 1.4-.3 1.3.2 1.4.4 1.2.6 1 1.1.8.4.3"/><path class="st1" d="M64.5 123.7h-.2l-.6-1.1-1-.7-1.1-.5-1.2-.1-1.2.3-1.2.6-1 .9-.8 1.2-.6 1.2-.1 1.3.1 1.4.3 1.3.8 1.1.9.7 1.2.5 1.2.1 1.2-.3"/><path class="st1" d="M61.8 122.6l-.5-.1h-1l-1.1.3-1 .6-.8.7-.6 1.1-.3 1.2v1.2l.3 1 .5 1.1.9.6.4.3m2.6 50.1l-1.2-.3-1.2.1-1.2.5-.9.7-.8 1.1-.3 1.2-.1 1.3.1 1.4.6 1.3.8 1.1 1 1 1.2.6 1.2.2h1.2l1.1-.5 1-.7.6-1.1.2-.1"/><path class="st1" d="M55.6 181.7l-.4.2-1.1.9-.6 1-.4 1.2-.2 1.4.3 1.3.5 1.4.9 1 .9.9 1.2.6 1.2.3 1.2-.1.6-.2"/><path class="st1" d="M58.6 181.7l-.4.2-.9.7-.5.9-.3 1.2v1.1l.3 1.2.6 1 .8.9 1 .6 1.1.3 1-.1.5-.2m93-105l-.8.6-.7.9-.3.6m10.2 3.8l.1-.6v-1.2l-.3-1.4-.1-.3m-8-.3l-.7.3-1.1.8-.7.9-.5 1.2V91l.3 1.2m8 3l1-.8.8-1 .4-1.1V91l-.3-1.2-.6-1.1-.1-.1"/><path class="st1" d="M155.4 87.5l-.5.2-.9.6-.6.7-.3.6m8.1 2.9V92l.2-1-.5-1.1-.4-.7m-9.3 138.4l.1-.9v-.6m-10.6 1.8l.1.6.6 1.1.9.9 1.1.7.3.2m6.4-4.8v-.2l.6-1.2.2-1.2-.2-1.2-.6-1-.9-.9m-8.4 1.3v.2l-.6 1-.1 1.2.3 1.2.6 1.2.7.9 1.2.6.9.3"/><path class="st1" d="M149.1 226l.4-.8.2-1v-.6m-8.4 1.5l.1.4.6 1.1.8.7 1 .5.3.1m53.3-40.6l-.8-.9-1-.6-1.2-.2h-1.2m2.2 9.6l.8-.6.9-.9.7-1.3m-9 .6l.2.1.4 1.1.9.9 1.1.6 1.2.3h.1m5.4.3l.3-.3 1.1-.9.4-1.1m-3-5.5l-.1-.3-.8-.8-.4-.3m-4.2 7.4l.4.1 1.1.3 1-.1 1.1-.5.9-.7.7-1.1.5-1v-.2M123 216.7l.6-.9.3-1.2v-1.2l-.5-1.2v-.2m-8.2 5.3l.3.1 1.2.6 1.3.3.5.2m-3.3-8.6h-.2l-.9.9-.6 1.1-.3 1.2v1m1.5 5.9h.2l1.2.6 1.3.4h.2m4-4.5l.3-.3.6-.9.2-.4m-8.3-2.1l-.1.4.1 1.1.5 1 .6.9 1 .6 1.1.5 1.2.1h.6m95.8-55.9h.6l1.1-.5 1-.6.9-1 .6-1.2.3-1.4v-1.3l-.3-1.4-.6-1.3-.9-.9-1-.8-1.1-.3-.6-.1"/><path class="st1" d="M209.7 160.4l1 .8 1.2.3h1.2l1.1-.5 1-.6.9-1 .6-1.2.3-1.4v-1.3l-.3-1.4-.6-1.3-.9-.9-1-.8-1.1-.3h-1.2l-1.2.3-1 .8"/><path class="st1" d="M212.5 160.4l.5-.1 1-.3.9-.6.6-.9.5-1.2.1-1.2-.1-1.2-.5-1.1-.6-.9-.9-.7-1-.3h-.5M85.9 96.4l-.1-1.2-.5-1.2-.9-.9-1-.6-1.2-.3H81l-1.4.4-1.2.6-1 .9-.9 1.2-.5 1.2-.1 1.4.1 1.2.5 1.2.9.9.9.6 1.3.3"/><path class="st1" d="M83.1 91.6l-.5-.5-1-.6-1.2-.3h-1.2l-1.4.3-1.2.8-1 .9-.9 1.2-.5 1.2-.1 1.3.1 1.2.5 1.1.4.6"/><path class="st1" d="M84.1 94.3l-.4-.3-.9-.6-1.1-.2-1.2.2-1 .3-1.1.7-.7.9-.5 1.1-.3 1 .2 1.2.3.9.3.5m-19.8 46l-1.1-.7-1.2-.5-1.2-.1-1 .3-1.2.6-.9.9-.6 1.2-.5 1.3-.1 1.4.1 1.3.6 1.4.8 1 .9.8 1.2.4 1.2.2 1.2-.3 1-.6h.2"/><path class="st1" d="M52.5 144.5h-.8l-1 .3-1.2.6-.9.9-.6 1.2-.5 1.4-.1 1.3.1 1.4.6 1.2.8 1 1 .9 1.1.5h.6"/><path class="st1" d="M55 145.9h-.4l-1.1.1-.9.6-.7.9-.6 1.1-.2 1.2v1.2l.3 1.2.6.9.9.7.9.5h.6m155.3 31.6l.6.2h1.3l1.2-.5 1.1-.6.9-1 .7-1.2.5-1.4v-1.3l-.2-1.4-.4-1.2-.8-.9-1-.7-.6-.3"/><path class="st1" d="M204.7 183.2h.2l.7.9 1.1.8 1 .3h1.2l1.2-.3 1.2-.8.9-.9.8-1.2.4-1.3v-1.4l-.1-1.3-.5-1.2-.9-1.1-.9-.6-1.2-.4h-1.2l-1.2.3"/><path class="st1" d="M207.6 184l.4.1h1.1l1-.4.9-.6.8-.9.4-1.1.3-1.2-.1-1.2-.3-1-.8-.9-.7-.8-.5-.1m-25.5-69.2l-1 .3-.9.9-.8.9-.3 1.2v.2m9.6.7l-.1-.4-.6-1.4-.9-1-.3-.3m-2.1 8.8l1.2-.1 1.2-.5.9-.7.6-1.1m2.2-5.2l-.1-.3-.6-1.2-.9-1.1v-.1m-6 1.3h-.5l-1 .5-.3.3m5.4 6.4l.3-.3.6-.9.3-1-.2-1.2-.3-1.1-.7-1-.9-.9-.5-.3m-16 110.8l.1-.1.8-1.1.4-1.3.2-1.2-.3-1.2-.6-1.1-.9-.7-1.2-.6m-7.4 4.2l-.1 1.3.3 1.2.6 1.1.9.7.9.5m7.9.4l.6-1 .5-1.2.1-1.2-.3-1.2-.3-.6m-9.3 5.4l.3.4.2.2"/><path class="st1" d="M171.1 218.3l.5-.7.4-1.1.2-1-.2-1.1-.3-.4m-7.3 4.2l.3.4.9.8.6.3M72 137.9v1.1l.1 1.3.6 1.2.8.9 1 .8 1.1.4h1.2l1.2-.4h.1m2.6-8.1h-.2l-.7-1.1-1.1-.6-1-.4h-1.2l-.5.1m-6.6 4.4v.7l.2 1.4.4 1"/><path class="st1" d="M73 137.8l-.1.6.1 1.2.5 1 .6.9.7.6.6.2m2.6-8.1h-2m11.3 65.5h.3l1.3.3 1.2-.1 1.2-.5.9-.9.6-.9.3-1.2v-.1m-5.4-6.5l-1.3.2-1.2.4-.9.9-.6 1.1-.3 1.2v.4m2.5 7.7h2.3l1-.6.5-.3m-6.9-8.3l-.5.5-.7 1v.3"/><path class="st1" d="M87.4 198.7l1.2.3 1.1-.2.9-.4.4-.3m-5.5-6.5l-.3.5-.6.9-.2 1v.2m102.8 1.3l.7-.6.8-1.2.3-.4m-2.4-6.3l-.6-.9-1.1-.6-1.2-.5h-1.2m2.3 9.2l.9-.9.9-1.1.3-.7m-9.3.6l.4 1.2.8.9 1 .7 1.1.3m5.2-6.7l-.3-.6-.6-.9-.4-.3m-4.8 6.9l.4.3.9.3h1.2l1.1-.5.9-.6.9-.9.6-1 .1-1.2m-.7 22l.3 1.2.6 1.1.9.9 1 .6 1.2.1 1.4-.1 1.2-.5 1.2-.7 1-1.1.6-1.2.5-1.2.1-1.3-.3-1.2-.6-1.1-.9-.9-1-.6-1.2-.1h-.2"/><path class="st1" d="M188.5 216.7l.6.3 1.1.6 1.2.1h1.3l1.2-.4 1.2-.9 1.1-.9.6-1.2.4-1.4.2-1.2-.3-1.3-.6-1.1-.5-.4"/><path class="st1" d="M187.5 214l.3.3 1 .4 1.1.2 1.2-.2 1-.6.9-.7.8-.9.4-1.1.2-1.2-.2-1-.6-.9-.3-.5m14.6-67.5l-.5-.6-1-.7-1.2-.6-1.2-.2-.6.2m1.9 10.5l.6-.2.5-.1m-.9-7.4l-.8-1-1-.8-1.1-.6-1.2-.1-1.2.3-1 .4-.9.9h-.2m1.5 8.4l1.2.6 1.2.2 1.2-.3 1.1-.5.9-.9"/><path class="st1" d="M204.7 141.8l-.4-.6-.8-.7-1-.5-1.1-.1h-.4m1.5 8.4l.4-.2.9-.4.6-.6m-90.6 77.4l.8-.9.4-1.1v-1.2l-.3-1.2v-.1m-7.8 4.9l.6.3 1.4.6 1.3.2h.2m-3.8-8.9l-.9.8-.7.9-.5 1.2v1m1.8 6.6l.3.2 1.4.4 1.2.3m-2.6-5.1l.9.6 1.1.6 1.2.3h1l1.2-.3.9-.6.6-.9.3-.4m-8.1-2.9l-.1.5v1l.1.8M91.9 110v.6l.5 1.2.7.9 1.1.8 1.2.4m6.7-5.2v-.2l-.1-1.2-.5-1-.6-1.1-1-.6-1.2-.4h-1.4l-1.3.1-.6.3M91 110v.2m6.5-8l-.5-.1-1.3-.2-1.4.3-.3.2m5.6 1.2l-.2-.3m-6.4 6.4v.5l.4 1 .2.5"/><path class="st1" d="M100.3 106.4l-.3-.4-.9-.5-1-.3H97l-1.2.3-.3.2m-28.3 54.7l-.2.5-.1 1.3.1 1.1m6 4l1.1.2 1.2-.2 1.2-.4.9-.8h.1m-7.5-6.3l-.3.8-.1 1.3.1 1.4v.1m6.9-5.8l-1.2-.6-1.2-.2H73l-1 .6h-.2m1.1 8.6l.1.1 1.1.3h.6m-.9-8.5l-.5.1-1 .5-.8.7-.6.9-.3 1.2v1.2l.3 1.2m92.3-77.8h.1l.9-.8.8-1 .4-1.1v-1.2l-.3-1.2-.6-1.2-1-1-1.1-.8-1.3-.4-1.4-.2-1.3.2-1.2.4-1.1.8-.7 1-.5 1.1v1.2l.3 1.2v.1"/><path class="st1" d="M166.2 81.1l.1-.6v-1.2l-.3-1.2-.6-1.2-.9-.9-1.2-.8-1.3-.6-1.4-.1-1.3.1-1.2.5-1.1.7-.7 1.1-.3.6"/><path class="st1" d="M164.2 83.2l.2-.5v-1l-.3-1.1-.8-.9-.9-.9-1-.4-1.2-.3H159l-1.1.3-.9.6-.6.9-.3.4m-38.7 1.2l.5-1.2v-1.2l-.3-1.2-.8-1-.9-.8-1.2-.6-1.3-.3-1.4.2-1.3.3-1.2.7-1.1.9-.7 1.1-.5 1.2v1.2l.3 1.2.6.9 1.1.9"/><path class="st1" d="M117 76l-.2-.6-.7-1.1-.9-.9-1.2-.4-1.4-.3h-1.3l-1.4.4-1.2.6-1 .9-.8 1.2-.3 1.1-.1 1.3.1.6"/><path class="st1" d="M116.7 78.8l-.2-.4-.6-.9-.9-.8-1-.3-1.2-.1-1.2.1-1.1.5-1 .7-.6.9-.5 1.1-.1 1 .1.5M156 234.8l.3.6.7.9 1.1.8 1.2.4 1.3.2 1.4-.2 1.3-.4 1.2-.8.9-.9.6-1.2.3-1.2v-1.2l-.1-.6"/><path class="st1" d="M155.2 229.3l-.3 1.2v1.2l.5 1.2.7.9 1.1.7 1.2.5 1.3.1 1.4-.1 1.3-.5 1.1-.7 1-.9.6-1.2.3-1.2v-1.2l-.4-1.2-.8-.9-.9-.8h-.1"/><path class="st1" d="M156.1 232l.3.4.6.8.9.6 1.1.3 1.2.1 1.2-.3 1-.6.9-.7.8-.9.3-1.1v-1l-.2-.6M61.9 148l.8.7 1 .5 1.2.3 1.2-.2 1.1-.6h.1m-6.6-5.5l-.1.7.1 1.5.3 1.2.6.9m7.2-7.2l-1-.9-1.1-.4-1.2-.3-1.2.1M58 143v2l.3 1m3.5-3.1l-.2.6v1.2l.2 1.2.6.9.7.9.9.4.5.2m1.5-8.4h-.5l-1 .1h-.3m15.1 65.4l.3.2 1.4.1 1.2-.1 1.2-.5.9-.7.6-1.1.4-1.2m-5.5-6.6l-1.2.2-1.2.4-.9.9-.6.9-.5 1.2v.8m2.6 7.5l.9.1 1.3-.1 1.1-.5.4-.4m-6.9-8.3l-.4.5-.6 1-.2.5"/><path class="st1" d="M79.6 204.4l1.1.3 1-.2 1.1-.3.3-.3m-5.4-6.6l-.5.5-.4.9-.3 1v.3m81.9 14.4l.1-.1.6-1.2.3-1.2v-1.2l-.4-1.1-.8-1-1-.8m-8 3l-.3 1.2v1.2l.5 1.2.7.9 1.1.8.7.3m8-.2l.1-.6.3-1.2v-1.2l-.1-.6m-10.2 3.8l.3.6.7.9.8.6"/><path class="st1" d="M157.5 213.8l.4-.7.5-1.1-.2-1-.1-.5m-8 2.9l.3.6.6.7.9.6.5.2m-54 8.4l-1.1.7-.7.9-.6 1.1-.2 1.2.3 1.2.6 1.2.8 1 1.2.9 1.2.6 1.3.2h1.4l1.3-.3 1.1-.8.7-.9.6-1 .2-1.2-.3-1.2v-.2"/><path class="st1" d="M95.1 228.5l-.2.5-.1 1.3.3 1.2.4 1.2.9 1.1 1.1.7 1.3.6 1.4.3h1.3l1.2-.4 1.2-.6.8-.9.3-.6"/><path class="st1" d="M97.3 226.4l-.3.6v1.1l.2 1 .6.9.9.9 1 .6 1.1.3 1.2.2 1.2-.3.9-.5.7-.9.2-.4m27.4-147.6l-1 .3-1.2.6-.9.9-.8 1-.4 1.1v1.2l.4 1.2.6 1h.2m8.4 0h.1l.6-1 .5-1.2v-1.2l-.5-1.1-.1-.4m-10.2-.8v.2m3.9-4.4l-.6.2-1.2.6-.9.9-.2.1"/><path class="st1" d="M132.9 83.2l-.6.1-1.1.5-.9.7-.7.8-.3 1v.5m8.4 0v-.5l-.3-1-.3-.3m-61.7 27.4v.6l.5 1.2.6 1.1.9.7 1.2.5 1.2.1m5.5-6.4v-.2l-.4-1.2-.6-.9-.9-.9-1.2-.4H81l-1.4.1-.3.2m-5.7 5.2l.2.5.6.9.4.4m6.9-8.2l-.4-.3-1.1-.5-1.3-.1-.9.1"/><path class="st1" d="M76.5 112.3v.3l.3 1 .4.9.5.3m5.4-6.4l-.3-.3-1.1-.5h-1l-1.1.2m101.3 9.3l-1.1.3-1 .6-.8 1-.4 1.2m9.3.6l-.3-.7-.9-1.2-.9-.8m-2.3 9.2l1.2-.2 1.2-.3 1.1-.7.6-.8m2.4-6.3l-.3-.4-.8-1.2-.7-.8m-1.1 5.7l-.1-1.2-.6-1-.9-.9-.9-.8-1.1-.3h-1.2l-.9.2-.4.3m4.8 7l.4-.3.6-.9.3-.7M129.6 92l-1.4.5-1.2.6-1 .9-.6 1.2-.3 1v1.2l.4 1.2.8 1.1m8.5-.5l.8-1 .3-1.2-.2-1.2-.4-1.2-.2-.2m-6.1-4.9l-.9.3-1.2.6-.6.6"/><path class="st1" d="M130 93.1l-.9.1-1.2.5-.7.7-.6.9-.3 1.1v.4m8.4-.4v-.5l-.5-1-.1-.2m61.9 8.6l.5-.5.6-1 .3-1.2-.2-1.4-.4-1.2-.6-1.2-1.1-1-1.2-.8-1.2-.4-1.3-.2-1.2.3-1.1.5-.6.4"/><path class="st1" d="M191.2 106.4h.2l1.2-.3 1-.6.9-.7.6-1.1.3-1.2-.1-1.3-.5-1.4-.6-1.2-1-.9-1.2-.9-1.2-.4h-1.4l-1.2.1-1 .6-.9.8-.6 1-.3 1.2v.2"/><path class="st1" d="M193.3 104.5l.3-.5.6-.9.2-1.2-.2-1-.4-1.1-.8-1-.9-.8-1-.4-1.2-.2-1.1.2-1 .3-.3.4M67 203.9l-.4.5-.6 1-.5 1.2v1.4l.3 1.2.6 1.3.9 1.1 1.2.7 1.2.6 1.2.3 1.4-.1 1-.5.6-.3"/><path class="st1" d="M72 201.2l-1.4.2-1 .4-.9.9-.8.9-.3 1.2v1.4l.3 1.3.6 1.2.9 1.1 1.1.9 1.3.6 1.2.1 1.4-.1 1-.5.9-.7.8-.9.3-1.2v-.2"/><path class="st1" d="M69.9 203l-.5.5-.6.9-.1 1v1.2l.4 1.1.6 1 .9.8 1.1.6 1 .3h1.1l1-.5.5-.3m43.5 27v.6l.1 1.2.6 1.2.9.9 1.2.8 1.2.4 1.5.2 1.4-.2 1.2-.4 1.2-.8.7-.9.5-1 .1-.8"/><path class="st1" d="M120.6 231.2l-.2.2-.7.9-.5 1.2-.1 1 .1 1.2.6 1.2.9.9 1.2.8 1.2.4 1.5.2 1.4-.2 1.2-.4 1.2-.8.7-.9.5-1 .1-1.2-.1-1.2-.6-1.2"/><path class="st1" d="M120.1 234.1v.6l.3 1 .5.9.9.8 1 .6 1.2.3h1.2l1.1-.3 1-.6.8-.9.4-.9.2-.5M109.2 83.8l-1.2.1-1.4.5-.3.3m-1.8 6.4v1.2l.5 1.1.7 1 .9.8m3.8-8.9h-.2l-1.3.2-1.4.4-.6.5m7.8 4.9l.3-1.3v-1.2l-.4-1.2-.8-.9m-8.1 2.5l-.1.8v1l.1.5m8.1-2.9l-.3-.6-.6-.7-.9-.6-1.2-.3h-1l-1.2.1-1.1.6-.9.8m98.6 75.4l-.9-.7-1.1-.6-1.2-.2-1.2.2-1.2.4m-1.5 8.4h.2l.9.9 1 .6 1.2.2 1.2-.2 1.1-.4 1-.9.8-.9m.9-7.4l-.5-.3-.6-.1m-1.9 10.6h.6l1.2-.1 1.2-.5 1-.9.5-.4m-3.5-6.8l-.6-.6-.9-.6h-.4"/><path class="st1" d="M201 172.3l.4.1 1.1-.1 1-.6.8-.8.4-.6M162.4 101l-.7.5-.9.7-.6 1.1-.3 1.2v1.2m7.2 4.5l1.2-.5.9-.9.6-.9.3-1.2v-1.3l-.5-1.2-.6-1.2-.3-.2m-6.6-2.7l-.3.3m9.2 5.7l.3-.6.3-1.2v-1.2l-.5-1.2-.7-1.2m-7.4 1.2l-.6.3-.7.8-.3.3"/><path class="st1" d="M168.6 107.8l.3-.5.1-1v-1.1l-.4-1-.8-.9m-19.6 114.9l.1-.8-.1-.6m-10.7 1.7l.2.6.6 1 .9.9 1 .8.6.1m6.3-4.8l.6-1.2.2-1.2-.2-1-.6-1.2-.7-.9h-.2m-8.4 1.2v.1l-.6 1.1-.1 1.2.3 1.2.4 1.2.9.9 1.1.6 1 .4"/><path class="st1" d="M146.1 216.7l.4-.8.2-1v-.6m-8.4 1.3l.1.5.5 1 .7.8 1.1.4.6.2m55.3-65.9l-.7-.7-1.1-.8-1.2-.3h-1.2l-1.2.3-1 .8m0 8.5l1 .8 1.2.3h1.2l1.2-.5 1.1-.6.7-.9m2-7.6l-1.1-.8-1.2-.3-.6-.1m0 10.8h.6l1.2-.5 1.1-.6"/><path class="st1" d="M195.9 153.4l-.5-.5-.9-.7-1-.3h-.5m0 8.5l.5-.1 1-.3.9-.6.5-.6m17.1-22.2l.6-.2 1-.7.8-1.1.4-1.2.2-1.3v-1.4l-.5-1.3-.7-1.2-.9-.9-1.1-.8-1.2-.3h-1.3l-.6.2"/><path class="st1" d="M207.4 137.2l1.2.4h1.2l1.2-.4.9-.8.9-.9.5-1.2.1-1.3v-1.4l-.4-1.3-.8-1.2-.9-1.1-1.2-.6-1.2-.4h-1.2l-1 .4-1.1.6-.7 1.1h-.2"/><path class="st1" d="M210.1 136.3l.5-.2.7-.6.8-.9.3-1 .1-1.2-.3-1.2-.4-1.1-.8-.9-.9-.7-1-.3h-1.5M70.2 113.5l-.6-1.1-.8-.9-1-.7-1.2-.2h-1.2l-1.4.5-1 .7-1.1 1.1-.6 1.2-.4 1.2-.2 1.3.3 1.4.5 1.2.9.9.9.6 1.2.3 1.3-.2"/><path class="st1" d="M66 109.7l-.6-.3-1.1-.3-1.3.2-1.2.4-1.2.8-.9.9-.8 1.2-.4 1.3v1.4l.1 1.3.6 1.1.8.9.4.4"/><path class="st1" d="M67.8 112.1l-.5-.3-1-.1-1.1.1-1 .5-1.1.6-.7 1-.5 1.1-.1 1.2.1 1 .3 1.1.8.9.4.3m-10.8 49.9l-.6.3-.9.6-.9.9-.6 1.2-.3 1.4v1.3l.3 1.4.6 1.2.9 1 1.1.8 1.2.4 1.2.2.6-.2"/><path class="st1" d="M58.3 169.3l-1.2-.5h-1.2l-1.2.3-1 .6-.9.9-.6 1.2-.3 1.2v1.5l.4 1.4.6 1.2.8 1 1 .8 1.2.4 1.2.2 1.2-.3 1.1-.6.9-.9"/><path class="st1" d="M55.6 170l-.6.2-.9.4-.6.9-.4 1.1-.2 1.2v1.2l.5 1 .7 1.1.9.7.9.5h1.7m107.7-87.8h-.2l-.3.6m9.3 5.4l.3-.6.3-1.2-.1-1.2-.5-1.3-.6-.9m-7.9.3l-.9.4-.9.9-.6 1.1-.3 1.2.1 1.2m7.4 4.3l1.2-.6.9-.9.6-.9.3-1.2-.2-1.3-.4-1.2-.8-1.1-.1-.1m-5.7-.8l-.6.3-.9.6-.3.5"/><path class="st1" d="M171.7 98.2l.3-.5.2-1-.2-1.1-.4-1-.5-.8m-32.8 133.8l.1-.4.5-1.2v-1.2l-.5-1.2-.6-.9-.1-.2m-8.4 0l-.2.2-.6.9-.4 1.2v1.2l.4 1.2.8 1 .9.9 1.2.6 1 .2m-3.3.9l.2.1.9.9 1.2.6.6.2m-3.9-4.5v.1m9-1l.3-.3.3-.9v-.6"/><path class="st1" d="M129.3 225.4v.6l.3.9.7.9.9.7 1.1.3.6.2m58.2-30.9v-.2l-.6-.9-.9-.9-1.2-.4-1.2-.2m2.1 8.9l.3-.3.9-1.1.6-1.2.1-.4m-9.6.7l.3 1.2.8 1.1.9.7 1 .5m7.1.3l.9-1.1.6-1.2.1-.3m-5.4.8l.5-.3.9-.8.7-1 .3-1.1.2-1.2-.3-1-.6-.9-.3-.5m-5.4 6.6l.3.3 1 .3.5.2m-81.8 11.4l.8.3 1.3.4h.9m3.8-3.3l.3-.1.7-.9.6-1.1.2-1.2-.2-1.2v-.1m-7.5 4.6l1.1.5 1.3.3h1.4m-3.9-9.2l-1.2.8-.8.9-.6 1-.1 1.1m2.8 3.4l.8.6 1.2.3 1.2.2 1-.3 1.1-.5.7-.7.3-.5m-7.6-3.7l-.3.6-.2.9.2.3m92.1-45.2l-.8-.7-1-.6-1.2-.2h-1.2l-1.2.5v.1m-1.7 8.3l.9.9 1.1.6 1.2.3 1.2-.2 1.2-.4.9-.9.9-1.1m.7-7.3h-.1l-.6-.2m-2.3 10.5l.6.2 1.2-.2 1.2-.6 1.1-.7.7-.9m-3.6-6.6l-.4-.5-.9-.6-.5-.1"/><path class="st1" d="M190.9 172.3h.6l1.1-.2.9-.4.9-.8.4-.6m-6.1-21.3l.3 2.7v.2m-2.9-13.8l.3.9.6 1.8m-5.5-12.9l1.3 2.4m-7.9-11.6l.9 1.2.9 1.1m-10.2-9.8l2.2 1.7m-12-7.4l2.1.9.5.3m-13.2-4.8h.4l2.3.6m-14-2.1l2.9.2m-14.1.7l1.2-.1 1.6-.3m-13.6 3.4l2.7-.9m-12.6 6.2l1.5-.9.9-.6M94 116.8l2.1-2M87 125.5l1.5-2.1.1-.2m-6.9 12.2l.3-.6.9-2m-4.3 13.5l.6-2.8m-1.4 14.1v-2.9m1.4 14l-.6-2.7m4.3 13.3l-.9-1.9-.3-.6m6.9 12.3l-.1-.2-1.5-2.1m9.1 10.7l-2.1-2m11.3 8.6l-.9-.5-1.5-1m12.6 6.3l-2.7-1.1m13.6 3.6l-1.6-.3-1.2-.1m14.1.7h-2.9m14-2.1l-2.3.6-.4.2m13.2-5l-.5.3-2.1 1.1m12-7.5l-2.2 1.8m10.2-9.8l-.9.9-.9 1.2m7.9-11.5l-1.3 2.5m5.5-13l-.6 1.9-.3.8m2.9-13.7l-.3 2.7m-93-73.2v-1.3l-.3-1.2-.8-1.1-.9-.7-1.2-.5-1.2-.1-1.3.1-1.4.5-1.2.7-.9 1.1-.7 1.2-.3 1.2-.2 1.2.5 1.2.6 1 .9.8 1.2.4"/><path class="st1" d="M93.6 84.7l-.3-.6-1.1-.8-1-.4-1.4-.2-1.3.2-1.4.4-1.2.8-.9 1-.7 1.1-.3 1.3v1.2l.3 1.2.3.6"/><path class="st1" d="M94 87.5l-.3-.4-.7-.6-1.1-.5h-1.2l-1 .2-1.2.6-.9.7-.6.9-.5 1.2v1.1l.2 1 .3.5m112.8 101.5h.1l.6 1.2.9.8 1.1.6 1.2.1 1.2-.1 1.2-.6 1-.8.9-1 .6-1.4.3-1.3.2-1.4-.5-1.2-.6-1-.9-.9-1-.6-1.2-.2-1.2.2"/><path class="st1" d="M204.3 197.2l.6.3 1.2.1 1.2-.1 1.2-.6 1-.8.9-1 .6-1.4.5-1.3V191l-.3-1.2-.8-1-.7-.9-.6-.3"/><path class="st1" d="M202.3 194.9l.6.3 1.1.2 1-.3.9-.5.9-.9.8-.9.3-1.2.1-1.2-.1-1-.6-1.1-.8-.7-.4-.2m-13.4-71.1h-.1l-1.2.2-1.1.6-.9.9-.4 1.2h-.2m9 .7l-.7-1.3-.9-1.1-.8-.4m-2.2 9.4l1.2.2 1.2-.3 1-.6.8-.8m2.5-6.9l-.4-.9-1.1-1-.3-.3m-1 5.1v-.2l-.5-1.2-.7-.9-.9-.7-1.1-.5-1-.1-1.1.1-.4.3m4.2 7.4l.4-.3.8-.8.1-.3m-122.7 3v.2l.3 1.3.6 1.1.8.9.6.3m5.1-9.5l-.5-.1-1.2-.3m-3.3 6.9v.7l.3 1.2.5 1.2.9.9 1 .6 1.2.2h1.4m4-7.5l-.6-1.2-.9-.9-1-.6-1.2-.2-1.2.2h-.3"/><path class="st1" d="M77.7 127.4l-.2.3.2 1.2.4.9.8.8.4.3m4.2-7.4l-.6-.3-1-.1-1.1.1m-.1 66.9h.3l1.2.2 1.2-.3 1-.6.9-.9.6-1.1m-4-7.5h-.2l-1.2-.1-1.2.3-1 .6-.9.9-.5 1-.3 1.4v.7m3.3 6.8l1.2-.2.5-.3m-5.1-9.4l-.6.4-.8.9-.6 1.1-.3 1.3v.2"/><path class="st1" d="M80.8 188.9l1.1.2 1-.2.6-.1m-4.2-7.5l-.4.3-.8.7-.4 1.1-.2 1 .2.3m101.8 13.2l-.1-.7-.6-1.1-.8-.9-1-.6-1.4-.3m2.1 8.3l.5-.5.7-1.2.5-1.2.1-.9m-10 1.4l.1 1.3.6 1.1.9.9 1.1.4v.2m7.6.3l.2-.3.7-1.2.5-1.2m-4.5.6l.3-.3.7-1.1.6-1 .2-1.1-.2-1-.4-1.1-.3-.3m-6.2 5.9l.5.3.9.4.1.2m3.3 16v.2l.2 1.2.4 1.2.6.9 1.1.7 1.2.3 1.3.2 1.4-.3 1.2-.6 1-.8.9-1.2.6-1.2.3-1.2v-1.3l-.4-1.1-.8-1-.9-.6-1.2-.5h-.1"/><path class="st1" d="M178.8 224.3l.3.5 1 .7 1.2.5h1.4l1.2-.3 1.3-.5 1.1-.9.9-1 .6-1.2.3-1.4v-1.2l-.5-1.2-.3-.4"/><path class="st1" d="M178 221.5l.3.4.9.6 1.1.3h1l1.2-.3 1.1-.7.9-.8.6-1 .3-1.1v-1l-.3-1.1-.3-.4m28.6-42.5h.6l1.2-.1 1.1-.6 1-.8.8-1.2.6-1.2.1-1.5-.1-1.3-.3-1.2-.8-1.2-.9-.9-1-.5-.6-.1"/><path class="st1" d="M208 172h.2l.9.9 1 .4 1.2.2 1.2-.2 1.2-.4.9-.9.8-1.1.6-1.3.1-1.4v-1.5l-.4-1.2-.8-1.2-.9-.7-1-.6-1.2-.2-1.2.2-1.2.6"/><path class="st1" d="M210.9 172.4h.6l.9-.1 1-.6.8-.8.6-1 .3-1.2.1-1.2-.3-1.1-.6-1-.7-.8-.9-.6h-.5m-147.9 9.3l1.2.2 1.2-.2 1.1-.6.9-.9h.1m-7.2-7.2l-.6.9-.3 1.4-.1 1.3.1.9m6.6-5.7l-1.2-.4-1.2-.2-1.2.2-1 .6-.8.7m-3.6 1.8l-.3 1.2v1.8m6.2 3l.3.2 1 .1.5-.1m-1.5-8.3H64l-.9.6-.7.8-.6 1-.2 1.2v1.2l.2.6m34.9 50.9l.5.1 1.3.5h1.4l1.2-.2 1.2-.6.9-.7.6-1.1.3-1.2-.2-1.3m-7.3-4.2l-1.2.6-.9.7-.6 1.1-.3 1.2v.1m2.1 7.4l.1.1 1.4.3 1.3.2h.2"/><path class="st1" d="M96.7 219.1l.3.1 1.1.5 1.2.3 1.2-.2.9-.4.9-.8.3-.4m-7.5-4.2l-.2.4-.1 1.1v.3m-23-60.9h.2l1 .4 1.2.2 1.2-.3 1.2-.6m-6.9-5.7l-.1 1.5.1 1.3.3.8m7.5-6.3l-1-.9-1.2-.5-1.2-.1-1.1.3m-6 3.9l-.1 1.2.1 1.3.2.5m3.7-3.5v.2l-.3 1.2v1.2l.3 1 .6 1.1.8.7 1 .5h.5m.9-8.4h-.6l-1.1.1-.1.2M129 80l.6-1.2.1-1.2-.1-1.2-.5-1-.7-1.1-1.2-.7-1.2-.5-1.4-.1-1.5.1-1.2.5-1.2.7-.9 1.1-.6 1-.1 1.2.1 1.2.5 1.1.7 1h.2"/><path class="st1" d="M129.4 74.3l-.1-.6-.5-1-.7-1.1-1.2-.7-1.2-.5-1.4-.1-1.5.1-1.2.6-1.2.6-.9 1.1-.6 1-.1 1.2v.6"/><path class="st1" d="M128.7 77.2l-.2-.6-.4-.9-.8-.8-1-.6-1.1-.3H124l-1.2.3-1 .6-.9.8-.5.9-.3 1v.5m-56.7 58.2l.6.3m-2.8-5v.3l.1 1.4.5 1.2.4.7m1.5-3v.6l.2 1.4.4 1.3.6.9 1.1.8 1 .4 1.4.2 1.2-.3v-.2m2.8-7.9l-.7-1.1-.9-.7-1.2-.5h-1.2l-.6.2"/><path class="st1" d="M64.8 132.1l-.2.3v1.2l.5 1 .6.9.7.6.5.3m3-7.9l-.6-.2h-1.5m4.9 67.5h.5l1.2.2 1.2-.3 1-.6.9-.9.5-1.1.1-.1m-4.3-7.4h-1.4l-1 .2-1.1.6-.9.9-.6 1.2-.1 1.3v.6m3.3 6.9l1.3-.3.5-.3m-5.4-9.3l-.5.3-.7.9-.6 1.2-.3 1.2"/><path class="st1" d="M73 194.8l1.1.1 1-.3.5-.1m-4.2-7.4l-.5.3-.7.8-.5 1v1.2m32.3-87.1l.1 1.2.6 1 .8.9 1.2.6m3.9-9.1h-1.4l-1.3.3-1.1.4m7.5 4.7l.2-1.2-.2-1.2-.6-1.2-.7-.8-.3-.3m-3.8-3.1h-.9l-1.3.3-.8.3m-.7 6.6l-.2.3.2 1 .3.5m7.6-3.8l-.3-.4-.7-.8-1.1-.4-1-.2h-1.2l-1.2.5-.8.4m68.7-8.5h.2l1-.6.9-.9.6-1.1.2-1.2-.2-1.2-.4-1.2-.8-1.2-1-.9-1.2-.6-1.4-.4h-1.3l-1.2.3-1.2.4-.9.9-.6 1.1-.2 1.2.2 1.2v.1"/><path class="st1" d="M177.3 86.9l.1-.6.3-1.2-.1-1.2-.5-1.2-.7-1.2-1.1-.9-1.2-.6-1.3-.4h-1.4l-1.3.3-1.1.6-.9.7-.3.6"/><path class="st1" d="M174.9 88.7l.3-.4.1-1.1-.1-1-.5-1.1-.7-.9-1.1-.7-1-.5-1.2-.1-1.2.1-.9.5-.8.7-.3.5m-79 133l-1.2.5-.9.9-.6.9-.5 1.2.2 1.3.3 1.2.7 1.2.9.9 1.2.8 1.4.6 1.3.1 1.2-.1 1.2-.6.9-.8.8-1 .3-1.1v-1.3"/><path class="st1" d="M84.6 221.8l-.3.6-.3 1v1.4l.3 1.2.7 1.2.9 1 1.2.8 1.4.4 1.3.2 1.4-.2 1-.6 1.1-.7.3-.5"/><path class="st1" d="M87 220.1l-.3.5-.2 1v1.1l.5 1 .6 1.1.9.7 1.2.5 1 .3 1.2-.2 1.1-.3.7-.7.3-.3m49.8 6.9l-.6 1.2v1.2l.2 1.2.6 1 .9.9 1 .6 1.4.5h1.3l1.5-.3 1.2-.5 1.1-.9.9-1 .4-1.1.2-1.2-.3-1.2-.5-1-.9-.9-.1-.2"/><path class="st1" d="M143.7 237.4l.3.6.4 1 .9.9 1.2.6 1.4.5h1.3l1.4-.3 1.3-.6 1.1-.8.7-1 .5-1.2.1-1.2v-.6"/><path class="st1" d="M144.3 234.5l.1.5.6.9.8.7 1 .5 1.2.3 1.2-.2 1.1-.3 1-.7.8-.8.4-1 .2-1.1v-.4M83.8 104l.2.9.4 1.1.8.9 1 .7 1.2.3h.2m6.4-5.4l-.1-1.3-.5-1.1-.7-1-1.1-.6-1.2-.3h-1.3l-1.4.3-.3.1m-4.6 5.4l.3.5m8.2-6.9l-.4-.5-1.1-.7-1.2-.3h-1.3l-1.2.3h-.2m-1 7.5l.1.4.3 1.1.3.4"/><path class="st1" d="M92.2 100.3l-.4-.3-.9-.6-1.1-.2h-1l-1.2.3v.2m107.1 29.4l-.9-1.1-1.1-.9-.3-.1m-.1 3.6l-.2-.5-.7-1-1.1-.9-1.2-.6-1.2-.2h-1.2l-1.2.5-.9.9-.7 1m3.4 7.8l1.2.3 1.2-.1 1.2-.5.9-.9"/><path class="st1" d="M191.5 131.3v-.1l-.6-1.1-.7-.7-1.1-.6-1-.3-1.1.1-.4.2m3.3 7.8l.4-.3.8-.8.1-.1m-50.5-45.2l-.5.3-1 .6-.9.9-.6 1.2-.2.6m10.7 1.5l.1-.6-.1-.6m-7.4-1.3l-1 .3-1.1.7-.9.9-.4 1.1-.3 1.2.1 1.2.6 1.2m8.4 1.3h.2l.7-1 .6-1.1.2-1.2-.2-1.2-.6-1V95"/><path class="st1" d="M141.3 93.7l-.6.1-1.1.6-.7.8-.5.9-.1.6m8.4 1.2v-.5l-.2-1-.4-.9M123.6 209l1.3.3 2.1.3m-13.9-3.6l3.4 1.2m-13-6.4l1.5 1 1.5.9m-11.4-8.8l2.5 2.5m-9.3-11.1l1.2 2 .8 1m-7.1-12.6l.2.3 1.3 3m-4.3-13.8l.4 2.6.3.9m-1.5-14.4v3.6m1.5-14.4l-.6 3-.1.6m4.3-13.8l-.4 1-1.1 2.3m7.1-12.8l-2 3m9.3-10.9l-1 1-1.5 1.4m11.4-8.9l-3 2m13-6.3l-1.9.6-1.5.6m13.9-3.6l-3.4.4m14.4-.7h-2.4l-1.2-.2m14.4 2.3l-.5-.2-3.1-.7m13.6 4.9l-2.5-1.2-.8-.3m12.3 7.7l-.6-.6-2.2-1.7m10.5 10.1l-2.1-2.6-.3-.3m8.4 12l-.6-1.2-1.2-1.9m5.7 13.2l-1.1-3.5m2.9 14.3l-.2-1.7-.1-1.9m0 14.5l.3-3.6m-2.9 14.1l.6-1.9.5-1.5m-5.7 13.3v-.1l1.8-3m-8.4 11.8l1.8-1.9.6-.8m-10.5 9.9l.4-.3 2.4-1.8m-12.3 7.7l2.7-1.4.6-.3m-13.6 5.1l1-.3 2.6-.6m-14.4 2.1l3.3-.1h.3m65.4-96.3l.4-.3.8-1.1.4-1.2.2-1.2-.2-1.3-.6-1.4-.7-1-1.1-1.1-1.2-.6-1.3-.3h-1.2l-1.2.3-.5.5"/><path class="st1" d="M198.3 115.7h1.2l1.2-.3 1-.7.6-.9.5-1.2.1-1.4-.1-1.3-.6-1.2-.8-1.2-1-.9-1.2-.8-1.2-.3h-1.4l-1 .5-1.1.6-.7 1-.5 1.2"/><path class="st1" d="M200.5 114.1l.5-.3.6-.8.3-1v-1.2l-.3-1.2-.5-1.1-.9-.9-.9-.6-1.2-.3-1-.1-1.1.3-.4.3M60.3 134.6l-.9-.9-1.1-.7-1.2-.2h-1.2l-1.2.5-1 .7-.8 1.1-.6 1.3-.4 1.4v1.3l.3 1.4.6 1.2.9.9 1 .6 1.2.3 1.2-.2 1.2-.4"/><path class="st1" d="M55.2 132.2h-1.8l-1.2.5-1.1.7-.9 1.1-.6 1.3-.3 1.4v1.3l.3 1.4.6 1.2.9.9.9.6.6.1"/><path class="st1" d="M57.6 134l-.6-.1-1.1.1-.9.5-.9.7-.7.9-.5 1.2v1.2l.2 1.2.4 1.1.6.7.9.6.6.2m4.8 51l-.4.3-.8.9-.6 1.2-.1 1.2v1.3l.4 1.4.8 1.2.9 1 1.2.8 1.2.4h1.3l1.1-.3.6-.3"/><path class="st1" d="M65.8 191.3h-1.3l-1.2.3-.9.6-.9.9-.5 1.2-.3 1.2.2 1.4.4 1.3.6 1.2 1.1 1.1 1 .7 1.4.3 1.2.2 1.2-.3 1-.6.8-.9.6-1.2"/><path class="st1" d="M63.4 192.8l-.4.3-.8.8-.3 1-.1 1.2.1 1.1.5 1.2.7.9 1.1.7 1 .5 1.1.1 1-.3.5-.1m75.9-119.3l-.3.2-1.1.6-.9.9-.6 1-.1.6m10.6 2v-.6l-.1-.9m-7.4-1.2l-.9.3-1.2.6-.7.9-.6 1-.3 1.2.1 1.2.6 1.2m8.4 1.5l.9-.9.6-1.2.2-1-.2-1.2-.6-1.2v-.2"/><path class="st1" d="M144.1 84.4l-.3.1-1 .5-.8.7-.6.9-.1.6m8.4 1.4v-.5l-.2-1-.4-.9m13.8 139.2l.1-.5.3-1.2v-1.2l-.1-.6m-10.2 3.6l.3.6.7 1.1.8.4m6.6-4h.1l.6-1.2.3-1.2V220l-.4-1.2-.8-.9-1-.8m-8 2.9v.1l-.3 1.2v1.2l.5 1.1.7 1 1.1.8.7.3"/><path class="st1" d="M160.5 223.1l.4-.7.5-1.1-.2-1v-.5m-8.1 2.9l.3.4.6.9.9.6.5.2m46.8-48.8l-.3-.3-.9-.7-1.2-.5h-1.2l-1.2.3m-2.9 8v.1l.8 1.1.9.6 1.2.4h1.2l1.2-.3 1-.6 1.1-.9.7-1m0 3.4l.8-.6 1-.9.5-.7m-3.3-6.5l-.3-.3-.8-.6-.4-.1"/><path class="st1" d="M197.1 183.8l.6.2h1l1.1-.3.9-.6.7-.9.5-.8m-75.6 39.9l.6.5 1.2.7.9.3m6.1-4.9l.2-.3.4-1.1.2-1.2-.3-1.2-.8-1v-.2m-8.5-.3l-.8 1.1-.4 1v1.2l.3 1.2.6 1.1 1 .9 1.2.7 1.4.3m4.5-2.5l.1-.3.5-.9v-.6"/><path class="st1" d="M126.3 215.3v.6l.3 1.1.6.9.7.6 1.2.6.9.1m78.3-67.3l-1-.8-1.2-.3-.6-.1m0 10.8h.6l1.2-.5 1-.6v-.1m-1.9-7.7l-.8-.7-1-.8-1.2-.3h-1.2l-1.2.3-1.1.8m0 8.5l1.1.8 1.2.3h1.2l1.2-.5 1-.6.8-.9"/><path class="st1" d="M205.5 153.4l-.3-.5-.9-.7-1.1-.3h-.4m0 8.5l.4-.1 1.1-.3.9-.6.3-.6m9.6-9.8l.6-.1 1-.6.9-.9.8-1.1.3-1.3.1-1.4-.1-1.3-.6-1.4-.8-1-1-.9-1.1-.5-1.2-.3-.6.2"/><path class="st1" d="M209.4 148.7l1.2.6 1.2.2 1.2-.3 1-.5.9-.9.8-1 .4-1.4v-1.3l-.1-1.4-.6-1.3-.8-1.1-.9-.9-1.2-.6-1.2-.1-1.2.1-1 .6-.9.8-.2.1"/><path class="st1" d="M212.2 148.3l.5-.2.9-.4.7-.8.6-1 .3-1.2-.1-1.2-.3-1.2-.6-.9-.8-.9-1-.5-.9-.1h-.6M77.4 104.3l-.3-1.2-.8-1-.9-.8-1-.4-1.4-.2-1.2.3-1.3.6-1.1.8-.9 1-.6 1.4-.3 1.2v1.3l.3 1.2.8 1.1.9.7 1 .5 1.4.1"/><path class="st1" d="M73.9 100l-.6-.3-1-.5-1.4-.1-1.2.1-1.2.6-1.2.9-.9 1.1-.6 1.2-.3 1.3v1.4l.5 1.2.6 1 .4.3"/><path class="st1" d="M75.3 102.5l-.5-.3-1-.3h-1.1l-1 .2-1.1.6-.9.9-.6 1-.4 1.1v1.2l.1 1 .6.9.5.3m-12.6 48.6h-.2l-1-.6-1.2-.3h-1.2l-1.2.5-.9.9-.8 1-.6 1.2-.1 1.4.1 1.5.5 1.2.6 1.2.9.9 1.2.7 1 .2h1.2l1.2-.5 1.1-.7v-.2"/><path class="st1" d="M51.6 157l-.6.1-1.1.5-1 .7-.8 1.1-.6 1.2-.1 1.5.1 1.3.5 1.4.6 1.2.9.9 1.2.6 1 .3h.8"/><path class="st1" d="M54.4 157.9l-.6.1-.9.5-.9.6-.6 1-.3 1.1v1.2l.2 1.2.6 1 .7.9.9.6 1.1.3h.4m120.5-67.9h-.2l-1 .6-.8 1-.4 1.1-.2 1.2v.1m6.5 5.4h.1l1.2-.3 1.1-.7.7-.9.5-1.1.1-1.3-.3-1.2-.4-1.4-.9-1-.2-.2m3.5 1.1l-.2-.6-.6-1.2-.7-1.1m-7.1 1.4h-.1l-.9.6-.5.3"/><path class="st1" d="M181.3 105.8l.3-.4.3-1.1v-1l-.1-1.1-.6-1-.8-.9m-60.1-19.7l-.8.2-1.3.6-.8.4m-1 4.8l-.2.5-.1 1.2.1 1 .6 1.2.9.9m3.3-8.1l-1 .2-1.4.6-1 .7-.2.2m8.7 4.9l.6-1.2.2-1.2-.3-1.2-.5-1m-4.3-1.1l-.9.2-1.2.3-1.1.6-.7.7-.5 1.1-.1 1v.5m8.4-1.4l-.2-.6-.6-.9-.1-.1m58.5 128.5l.7-.9.6-1.2.2-.6m-3.5.9l.2-.1.9-1.1.4-1.2.3-1.3-.1-1.2-.5-1.2-.7-.9-1.1-.6-1.2-.5h-.1m-6.5 5.6l.2 1.3.4 1.1.8.9 1 .6.2.1"/><path class="st1" d="M180.4 212l.8-.9.6-1 .1-1.2v-1.1l-.3-.9-.3-.4m-6.6 5.4l.5.4.9.5.1.1m-80.8-5.4l.6.3 1.3.3h1.4l1.2-.4 1-.8.6-.9.5-1.2.1-1.2m-6.7-5.2l-1.2.4-1.1.6-.7 1.1-.5 1v.6m7.5 6.8l.2-.3m-5.6 1.3h.3l1.4.3H97l.5-.1"/><path class="st1" d="M95.5 206.6l.3.2 1.2.3h1.1l1-.3.9-.6.3-.3m-6.7-5.3l-.2.5-.4.9v.4m99.4-17.1l.3-.1 1.1-.9.9-1.2m-2.9-7.2v-.2l-.9-.7-1.2-.5-1.2-.1-1.2.1m-3.4 7.8v.2l.7 1 .9.8 1.2.4 1.2.2 1.2-.3 1.2-.5 1.1-.9.7-1.2.2-.3m-1.1-4.9l-.1-.2-.8-.7-.4-.2"/><path class="st1" d="M186.6 183.5l.4.2 1.1.1 1-.3 1.1-.6.7-.9.6-1m-53.1 128.2v-54m-9.9 0v54M195 206l2.2 1.5m6.2-8.8l-2.3-1.5m-8.5 5.7l3 2.1m4.9-6.9l-3-2.1m-2.4-.8l-1.3.2-1.2.6-.9 1-.6 1.2-.3 1.4.3 1.2.6 1.2.9.9"/><path class="st1" d="M197.5 196l-.3-.2-.3-.1-.3-.2-.3-.1h-.3l-.3-.2h-.6m5.3-57.7l2.2-.8m-3.4-10.2l-2.4.9m-.2 10.2l3.5-1.2m-3-7.9l-3.5 1.2m0 0l-1 .6-.8.7-.6 1.2-.3 1.1v1.2l.5 1.2.7 1 .9.6 1.2.5 1.2.1 1.2-.3m-80.5 85.8l-.3 1.8m10.6 1.8l.3-1.8m-8.8-5.2l-.6 3.6m8.4 1.5l.6-3.6m-4.2-5h-.8l-.7.3-.6.3-.6.3-.6.6-.5.6-.3.6-.1.8m8.4 1.5v-.9l-.2-.9-.3-.9-.4-.8-.8-.6-.7-.6-.9-.3h-.9M91.8 113.2l-2.1-1.7m-6.9 8.1l1.9 1.8m9.2-4.9l-2.9-2.4m-5.5 6.4l2.8 2.4m0 0l.9.6 1.2.5h1.2l1.2-.5 1.1-.6.7-.9.5-1.2.1-1.2-.1-1.2-.5-1-.7-.9M75 168.8l-2.4.8m3.3 10.2l2.4-.8m.6-10.2l-3.5 1.1M78 178l3.4-1.1m-1.3-8.2h-.9l-.2.1h-.1m2.5 8.1l1.1-.6.9-.7.6-1.1.3-1v-1.2l-.3-1.2-.6-1.1-.9-.7-1.2-.5-1.2-.1m80.4 40.8l1.3 2.4m9.2-5.7l-1.5-2.4m-10.1 2.1l2 3m7.2-4.5l-2-3m-3.6-2.1l-1 .1-1.1.5-.9.7-.7.9-.3 1.1-.2 1 .2 1.2.4 1.1m7.2-4.5l-.3-.5-.3-.4-.4-.3-.5-.3-.4-.3-.6-.2-.5-.1h-.6m-9.3-119.7l.6-2.7m-10.6-2l-.5 2.6m8.7 5.5l.8-3.6m-8.4-1.6l-.6 3.6m0 0l-.2 1.2.3 1.2.6 1 .9.8 1.1.6 1.2.1h1.2l1.2-.4.9-.8.7-1 .3-1.1M106 81.8l-1-2.4m-9.9 4.4l1.2 2.4m10.2-.6l-1.5-3.3m-7.7 3.4l1.5 3.5m0 0l.6.9.9.9 1.1.4 1.2.2 1.2-.2 1.2-.4.9-.8.6-1 .3-1.2.1-1.2-.4-1.2m60 142.5l1.3 2.4m9.5-5.1l-1.4-2.4m-10.2 1.3l1.8 3.2m7.4-4.1l-1.7-3.1m-3.7-2.3l-1.1.2-1 .4-.9.6-.6.9-.5 1.1-.1 1v1.1l.4 1"/><path class="st1" d="M173.2 220.3l-.3-.5-.4-.4-.3-.5-.6-.3-.5-.3-.6-.1-.4-.2h-.6M64.2 150.7h-1.7m0 10.8h1.7m3.6-9.6h-3.6m0 8.5h3.6m0 0l1.2-.3 1.2-.4.9-.8.6-1 .3-1.2v-1.2l-.3-1.1-.6-1-.9-.9-1.2-.5-1.2-.1m17.1 53.8l-1.8 2.1m8.2 6.9l1.8-2.1m-5.1-9l-2.4 2.9m6.6 5.4l2.3-2.7m-3.2-7.1h-.4l-.5.2-.4.1-.5.2-.4.1-.5.3-.3.3-.3.3m6.5 5.6l.7-1.1.3-1.2v-1.2l-.4-1.2-.6-.9-.9-.7-1.1-.6-1.2-.2m50.6-124.8l.1-2.7m-10.8-.3l-.1 2.7m9.6 3.9v-3.6m-8.4-.3l-.2 3.6m0 0l.2 1.2.4 1.2.8.9.9.8 1.2.3 1.2.1 1.2-.3 1-.7.8-.8.6-1.2.3-1.2m-33.3 150l-.8 2.6m10.4 2.8l.7-2.5m-8.2-6.2l-1.1 3.6m8.3 2.3l.9-3.6m-4.1-5.4l-.7.1-.6.2-.6.3-.6.3-.6.4-.5.6-.3.6-.1.6m8.1 2.3l.1-.9v-1.1l-.3-.9-.6-.9-.6-.6-.9-.6-.9-.3-.9-.1M76.2 116.8l-2.4-1.4m-5.4 9.3l2.4 1.4m7.9-6.5l-3.1-1.8m-4.2 7.4l3.1 1.8m0 0l1.1.4 1.2.2 1.2-.3 1-.5.9-.9.6-1 .3-1.2v-1.2l-.4-1.1-.6-1-1.1-.8m-12.1 55.2l-2.6.9m3.6 10.1l2.6-.9m.1-10.4l-3.4 1.4m3 7.9l3.4-1.2m-1.5-8.2h-.9l-.3.1h-.3m3 8.1l1.1-.7.9-.9.6-1.2.1-1.4-.1-1.2-.6-1.2-1.1-.9-1.2-.6-1.2-.1m106.7-57.8l1.2-1.3m-7.8-7.4l-1.4 1.4m4.5 9.3l2.6-2.7m-6.2-5.9l-2.5 2.7m0 0l-.6.9-.5 1.2v1.2l.2 1.2.6 1.1.9.7 1.2.6 1 .2h1.2l1.2-.5.9-.7m-51.3-21.5l-.4-1.6m-10.4 2.8l.5 1.5m10.2 1.1l-.9-3.5m-8.3 2.1l.9 3.6m0 0l.5 1.1.7.9 1.1.7 1.2.3 1.2.2 1-.3 1.1-.8.9-.7.4-1.2.3-1.2-.1-1.2m62.1-4.4l1.6-2.1m-8.5-6.6l-1.7 2.3m5.4 8.7l2.3-2.9m-6.8-5.2l-2.2 3m0 0l-.6 1-.3 1.2.1 1.2.3 1.1.8 1 1 .8 1.1.3 1.2.1 1.2-.3 1-.4.9-.9M76.9 211.6l-1.8 1.9m8 7.2l1.8-2.1m-4.7-9.1l-2.5 2.8m6.4 5.6l2.4-2.7m-3.1-7.1h-.5l-.4.2H82l-.4.1-.5.3-.3.2-.3.3-.3.3"/><path class="st1" d="M86.5 215.2l.6-1.1.5-1v-1.4l-.3-1-.8-1.1-.9-.9-1-.4-1.2-.2m47.7 27.2l.1 2.7m10.8-.5l-.1-2.7m-9.8-3.3l.2 3.8m8.4-.5v-3.6m-4.4-4h-.7l-.9.3-.8.4-.6.6-.6.6-.3.8-.3.9v.7m8.6-.3l-.2-.7-.3-.8-.4-.7-.5-.6-.6-.6-.7-.3-.8-.3h-.9M103.5 93.4l-1.1-1.8m-9.3 5.5l1.1 1.7m10.2-1.7l-1.8-3.1m-7.5 4.2l1.9 3.3m0 0l.8.9.9.7 1.2.3 1.2.2 1.2-.3 1-.6.8-.9.6-1.1.3-1.2-.2-1.2-.4-1.2m88.5 52.4l2.7-.6m-2.3-10.5l-2.5.4m-1.7 10.2l3.6-.7m-1.8-8.3l-3.6.6m0 0l-1 .5-1.1.7-.7.9-.5 1.2v1.2l.2 1.2.6 1.1.9.9 1 .6 1.2.1h1.2m-29.8-46.9l.9-2.4M150 95.9l-.9 2.4m7.8 6.9l1.2-3.4m-8-3l-1.2 3.4m0 0l-.3 1.2.2 1.2.4 1.1.6 1 1.1.8 1 .3 1.2.1 1.2-.3 1.1-.6.9-.7.6-1.1m49.8 20.7l2.4-1.2m-4.8-9.7l-2.4 1.2m1 10.3l3.2-1.6m-3.8-7.7l-3.1 1.7m0 0l-1.1.7-.7.9-.5 1.1-.1 1.2.1 1.2.6 1 .8.9 1 .8 1.2.3 1.2-.2 1.2-.3m-140.7-4.9l-2.5-1.1m-4.1 10.1l2.6 1m7-7.6l-3.4-1.4m-3.2 8l3.3 1.3m0 0l1.2.3 1.2-.1 1.2-.3 1.1-.8.7-.9.5-1.2v-1.2l-.2-1.2-.6-1-.7-.9-1.1-.6m-7 56.7l-2.6 1m4.1 9.9l2.5-1m-.3-10.2l-3.3 1.3m3.2 7.8l3.4-1.3m-1.6-8.1h-.8l-.3.1h-.3l-.3.2m3.3 7.8l1.1-.6.9-1.1.4-1 .2-1.4-.2-1.3-.6-1.1-1-.9-1.1-.6-1.3-.1m98.7-87.2l.9-2.5M153 86.6l-.9 2.6m7.8 6.7l1.3-3.4m-8.1-2.9l-1.2 3.3m0 0l-.3 1.2.2 1.2.4 1.2.8.9.9.8 1.2.4h1.2l1.2-.1 1-.6.8-.9.6-1.1m-19.7 129.3l.5 2.7m10.6-1.8l-.4-2.7m-10.2-1.9l.6 3.6m8.4-1.5l-.6-3.6m-4.2-3.5h-.9l-.9.3-.8.6-.7.6-.5.8-.3.9-.1.9v.9m8.4-1.5l-.2-.8-.4-.6-.3-.6-.6-.6-.6-.3-.6-.3-.8-.3h-.7m45.9-21.1l1.5.9m5.4-9.3l-1.5-.9m-8 6.6l3.2 1.8m4.2-7.4l-3.2-1.9m-2.1-.5l-1.2.2-1.2.4-.9.9-.6 1.1-.3 1.2v1.2l.5 1.2.6.9 1 .9"/><path class="st1" d="M192.4 185.2h-.3l-.1-.2-.3-.1h-.3l-.3-.2h-.8m-76.9 27.8l-.5 1.5m10.4 2.7l.4-1.5m-8.4-6l-.9 3.6m8.3 2.1l.9-3.6m-4.1-5.3h-.7l-.8.2-.6.3-.6.4-.4.5-.5.6-.3.6-.3.6m8.3 2.1l.1-.9-.1-1.1-.3-.9-.5-.7-.7-.8-.8-.4-.9-.5h-.9m93-44.5h2.7m0-10.8h-2.7m-3.7 9.7h3.7m0-8.5h-3.7m0 0l-1.2.1-1.1.5-.9.9-.7 1-.3 1.1v1.2l.3 1.2.7 1 .9.8 1.1.4 1.2.3M84.9 93.5l-1.8-1.9m-8 7.2l1.8 1.9m9.6-3.7l-2.4-2.7m-6.4 5.7l2.5 2.7m0 0l.9.7 1.1.6 1.2.2 1.2-.3 1-.5.9-.7.8-1.1.3-1.2v-1.2l-.5-1.2-.6-1m-31.3 47.7l-2.7-.2m-.9 10.7l2.7.3m4.3-9.3l-3.6-.3m-.6 8.4l3.6.3m0 0h1.2l1.2-.5.9-.7.8-.9.4-1.2v-1.2l-.1-1.2-.6-1.1-.9-.9-1.1-.6-1.2-.1M207.1 185l2.6.9m3.3-10.3l-2.6-.8m-6.4 8.1l3.6 1.1m2.5-8.1l-3.6-1.1m-1.2-.3l-1.2.3-1 .5-.9.7-.8 1.1-.3 1.2v1.2l.3 1 .6 1.1.9.7 1.1.6m2.5-8.1h-.1l-.2-.1h-.7l-.2-.2M190 115.7l1.2-1m-6.9-8.3l-1.2 1.1m3.3 9.7l2.9-2.4m-5.4-6.4l-2.9 2.2m0 0l-.7.9-.6 1.2-.2 1.2.2 1.2.4 1.1.8.9 1 .7 1.2.3h1.2l1.1-.3 1-.6m-22.9 101.6l1.3 2.4m9.3-5.4l-1.3-2.4m-10.2 1.6l1.8 3.2m7.3-4.2l-1.8-3.2m-3.6-2.1l-1.2.2-.9.4-.9.6-.7.9-.5 1.1-.1 1 .1 1.2.5.9"/><path class="st1" d="M169.9 210.8l-.3-.4-.3-.5-.4-.3-.5-.3-.4-.3-.6-.1-.6-.2h-.5m-88-75.6l-2.4-.7m-3.3 10.2l2.4.9m6.4-8.1l-3.4-1.2m-2.6 8.1l3.5 1.2m0 0l1.2.1 1.2-.1 1-.5.9-.7.8-1.1.3-1.2v-1.2l-.3-1.2-.6-.9-.9-.9-1.1-.4m3.3 55.5l-1.9 1.6m6.9 8.3l2.1-1.8m-3.5-9.6l-2.8 2.2m5.5 6.5l2.9-2.3m-2.9-7.5h-.7l-.3.2h-.5l-.3.1-.3.3-.3.2-.3.3m5.6 6.4l.7-1 .6-1.2v-1.2l-.1-1.4-.6-1-1.1-.9-1-.6-1.4-.2m88.2 6.3l1.4.9m6.1-8.8l-1.3-.9m-8.4 5.7l3 2.1m4.8-6.9l-3-2.1m-2.4-.8l-1.4.2-1.2.6-.9 1-.6 1.2-.1 1.4.1 1.2.6 1.2 1.1.9"/><path class="st1" d="M181.8 184.6l-.3-.2-.3-.1-.3-.2-.3-.1h-.3l-.3-.2h-.6m7.3 30.9l1.8 2m7.5-7.8l-1.9-1.8m-9.3 4.3l2.7 2.6m5.8-6.2l-2.5-2.5m-3-1.2l-1.2.1-1.2.6-.9.9-.6 1.1-.3 1.2v1.3l.4 1.1.8 1m6-6.1l-.5-.3-.3-.2-.3-.3-.4-.1-.3-.2h-.5l-.3-.1h-.4m14.8-54.8l2.7-.4m-1.9-10.5l-2.6.4m-1.9 10.1l3.6-.6m-1.5-8.4l-3.6.6m0 0l-1.2.4-.9.6-.8 1.1-.6 1-.1 1.2.3 1.2.4 1.1.9.9 1.1.6 1.2.3h1.2m-94.2 70.5l-.5 1.5m10.1 3.7l.6-1.5m-7.8-6.7l-1.4 3.4m8.1 2.9l1.2-3.5m-4-5.7h-.6l-.6.2-.6.3-.6.3-.5.4-.4.5-.5.6-.1.6m7.9 2.8l.2-.9v-1l-.2-1.1-.4-.9-.8-.7-.9-.6-.9-.3-1-.2m-9.8-107.8l-1.6-2.1m-8.6 6.6l1.8 2.1m9.8-3l-2.3-2.9m-6.7 5.3l2.2 2.8m0 0l.9.8 1.1.6 1.2.3 1.2-.2 1.2-.4.9-.8.7-.9.5-1.2v-1.2l-.3-1.2-.6-1m-29 47.5l-1.6.2m1 10.6l1.8-.1m2.6-9.9l-3.6.3m.9 8.5l3.6-.4m-.5-8.4h-.4m.9 8.4l1.2-.3 1.2-.8.7-.9.6-1.2v-1.2l-.1-1.3-.6-1.1-1.1-.9-1-.6-1.4-.1m87.5-74l.9-2.5M156 77.5l-.9 2.4m7.8 6.7l1.3-3.4m-8.1-2.9l-1.2 3.5m0 0l-.3 1.2.2 1.2.4 1 .8 1.1.9.7 1.2.3 1.2.2 1.2-.3 1-.6.9-.9.5-1.1m-45.2-8.1L117 76m-10.4 2.8l.8 2.6m10.2.9l-.9-3.5m-8.3 2.3l1.1 3.4m0 0l.4 1.2.8.9 1 .6 1.1.5h1.2l1.2-.3 1-.6.8-.9.6-1.2.1-1.2-.1-1.2m37.5 150l.9 2.5m10.2-3.6l-.9-2.5m-10.4-.2l1.2 3.5m8.1-3l-1.3-3.5m-3.9-2.7h-1.1l-.9.5-.9.6-.6.7-.6.9-.1.9v1.1l.1 1m8-3l-.2-.6-.4-.4-.5-.5-.4-.4-.6-.3-.6-.3-.6-.2h-.6m-92.9-84l-1.8-.3M62.4 149l1.9.3m5.3-8.8l-3.6-.6m-1.5 8.4l3.6.6m0 0h1.2l1.2-.3 1-.6.8-.9.6-1.1.1-1.2v-1.2l-.6-1-.7-1.1-.9-.6-1.2-.4m7.3 56.1l-2.1 1.6m6.9 8.3l2.1-1.7m-3.3-9.7l-2.8 2.2m5.4 6.6l2.8-2.4m-2.7-7.5h-.4l-.3.2H82l-.3.1-.3.2-.3.1-.3.2-.3.3m5.4 6.4l.9-.9.5-1.2.1-1.3-.3-1.2-.6-1.2-.9-.9-1.2-.6-1.2-.2m65.9 19.8l.9 2.6m10.2-3.8l-.9-2.5m-10.4 0l1.2 3.3m8-2.9l-1.2-3.4m-4.1-2.9l-.9.2-1 .4-.8.6-.7.8-.5.9-.3.9v1l.3 1.1"/><path class="st1" d="M156.9 207.1l-.3-.6-.3-.6-.5-.5-.4-.3-.6-.4-.6-.2-.6-.1-.8-.2M96.3 226l-1.2 2.5m9.9 4.4l1-2.4m-7.2-7.4l-1.5 3.3m7.7 3.5l1.5-3.3m-3.9-6l-.6.1h-.6l-.5.3-.6.3-.4.3-.5.5-.3.4-.3.6m7.7 3.5l.3-.9.1-1.2-.3-.9-.4-1.1-.6-.7-.9-.6-1.1-.5-1-.1m36.3-133.8v-2.6m-10.8-.1v2.7m9.6 3.7v-3.7m-8.4 0v3.7m0 0l.1 1.2.5 1.1.7.9 1.1.7 1.2.3h1.2l1.2-.3 1-.7.8-.9.4-1.1.2-1.2m-53.9 17l-2.1-1.8m-6.9 8.2l2.1 1.8m9-5.1l-2.8-2.2m-5.4 6.4l2.8 2.4m0 0l.9.6 1.2.3h1.2l1.2-.3 1.1-.7.7-.9.5-1.1.1-1.2-.1-1.2-.6-1.2-.8-.9m99.5 15.9l1.3-.9m-6.1-8.8l-1.4.9m2.6 10l3-2.1m-4.8-7l-3 2.1m0 0l-.9.9-.6 1-.3 1.1v1.2l.4 1.2.6 1 .9.8 1.2.4 1.2.2 1.2-.3 1.1-.5m-45.9-31.3l-.2-2.3m-10.8.5l.2 2.4m9.7 3.1l-.1-3.7m-8.4.4l.1 3.6m0 0l.2 1.2.6 1.2.9.8 1 .6 1.1.3h1.3l1.1-.5 1-.7.8-.9.4-1.1v-1.2m59.3 5.1l1.9-1.9m-7.5-7.7l-1.8 1.8m4.1 9.5l2.5-2.4m-5.8-6.2l-2.7 2.6m0 0l-.8.9-.4 1v1.2l.1 1.2.6 1.2.8.8 1 .6 1.2.3h1.2l1.2-.5 1.1-.7M69.1 202.3l-2.1 1.6m6.9 8.4l2-1.8m-3.3-9.7l-2.7 2.2m5.4 6.6l2.7-2.2m-2.7-7.5h-1.1l-.3.1-.3.2-.4.1-.3.3-.3.2m5.4 6.6l.9-1.1.6-1.2.1-1.2-.3-1.3-.6-1.1-.9-.9-1.2-.6-1.3-.1m43.8 34l-.3 2.7m10.6 1.2l.3-2.5m-9.1-4.8l-.5 3.6m8.6 1l.4-3.6m-4.3-4.8h-.8l-.7.3-.6.3-.8.5-.4.6-.5.6-.3.7-.1.8"/><path class="st1" d="M129.1 231.5v-.9l-.3-.9-.3-.9-.4-.7-.8-.6-.7-.5-.9-.1-.9-.2m-9.9-137.5l-.6-1.5m-10.1 3.6l.5 1.6m10.3 0l-1.2-3.3m-8.1 2.9l1.4 3.4m0 0l.4 1.1.9.9 1.1.6 1.2.1h1.2l1.2-.4.9-.8.7-.9.5-1.2.1-1.2-.3-1.2m85.8 80.6l2.6.4m1.9-10.6l-2.7-.5m-5.2 8.9l3.6.6m1.5-8.3l-3.6-.7m-.8 0l-1.2.1-1.2.6-.9.8-.6 1.2-.3 1.2v1.2l.5 1.2.7 1 1.1.8 1.2.3m1.5-8.4h-.8m-28.6-54.9l1.5-2.3m-9.2-5.7l-1.3 2.3m6.1 8.2l2-3.1m-7.2-4.5l-2 3.1m0 0l-.4 1.1-.2 1.2.2 1.2.4 1.2.9.9 1.1.6 1 .3h1.4l1-.3 1.1-.8.7-.9m-29.4 104.9l.3 2.7m10.7-1.7l-.3-2.7m-10.2-2.1l.6 3.6m8.4-1.3l-.6-3.6m-4.2-3.6l-.9.1-.8.3-.9.5-.6.6-.6.7-.3.9-.1.9v.9m8.4-1.3l-.2-.6-.3-.8-.4-.6-.5-.6-.6-.4-.7-.3-.8-.2-.7-.1m51.1-45.6h2.7m0-10.8H193m-3.6 9.7h3.6m0-8.5h-3.6m0 0l-1.2.1-1.2.5-.9.9-.6 1-.3 1.1v1.2l.3 1.2.6 1 .9.8 1.2.4 1.2.3m21-22.9l2.6-.9m-3.3-10.2l-2.6.7m-.6 10.4l3.6-1.2m-2.5-8.1l-3.6 1.2m0 0l-1.1.4-.9.9-.6.9-.3 1.2v1.2l.3 1.2.8 1.1.9.7 1 .5 1.2.1 1.2-.1M68.4 111.1l-2.4-1.4m-5.6 9.3l2.4 1.4m8.1-6.5l-3.1-1.8m-4.4 7.4l3.2 1.8m0 0l1 .4 1.2.2 1.2-.3 1.1-.5.9-.9.6-1 .3-1.1v-1.2l-.3-1.2-.8-1-.9-.8m-15.6 54.9l-2.7.6m2.6 10.5l2.5-.6m1.4-10.2l-3.5.9m2 8.3l3.4-.9m-.9-8.4h-.4v.1h-.6m1.9 8.3l1.2-.5.9-.7.8-.9.4-1.2v-1.4l-.3-1-.6-1.1-1-.9-1.1-.4-1.2-.3m112.7-70.2l1.3-2.3m-9.3-5.4l-1.3 2.3m6.4 8.1l1.8-3.3m-7.3-4.2l-1.8 3.1m0 0l-.5 1.2-.1 1.2.3 1.2.6 1.1.7.9 1.1.6 1.2.3 1.2-.2 1.2-.3.9-.7.7-.9m-41.8 123.9v2.7m10.8-.2v-2.5m-9.6-3.6v3.6m8.4 0v-3.6m-4.2-4.4l-.9.2-.8.3-.7.3-.6.6-.6.6-.3.7-.3.8v.9m8.4 0v-.9l-.3-.8-.3-.7-.6-.6-.6-.6-.8-.3-.9-.3-.7-.2m49.6-12.6l1.2 1.1m6.9-8.3l-1.2-1m-9 4.9l2.9 2.4m5.4-6.6l-2.9-2.2m-2.7-1.1l-1.2.2-1.2.6-.9.9-.7 1.2-.2 1.2.2 1.3.4 1.2.9.9m5.4-6.4l-.3-.3-.3-.2-.3-.1-.3-.2-.4-.1h-.3l-.3-.2h-.5m-81.3 13.2l-.7 1.7m9.6 4.6l.7-1.5m-7-7.6l-1.5 3.3m7.6 3.7l1.5-3.3m-3.7-6h-.6l-.6.2-.6.1-.5.3-.4.3-.5.5-.4.4-.3.5m7.6 3.7l.5-.9V206l-.2-1-.4-.9-.8-.9-.7-.6-1.1-.5h-1m81.9-28.8l2.5.6m2.3-10.5l-2.7-.6m-5.6 8.7l3.6.8m1.8-8.4l-3.6-.6m-.9-.2l-1.2.2-1.2.6-.9.7-.6 1.1-.3 1.2v1.3l.5 1.2.7.9 1.1.8 1 .4m1.8-8.2l-.1-.2h-.8M95.1 86.9l-1.5-2.2m-9 5.8l1.5 2.3m10-2.3l-2.1-3m-7 4.7l1.9 3m0 0l.8.9 1 .6 1.2.4h1.2l1.2-.4 1.1-.6.7-.9.5-1.1.1-1.2-.1-1.2-.5-1.2M201.9 196l2.4 1.2m4.8-9.6l-2.4-1.2m-7.5 7l3.1 1.5m3.8-7.5l-3.2-1.6m-1.9-.5l-1.2.2-1.2.6-.9.7-.6 1.2-.3 1.2v1.2l.4 1.2.9 1.1 1.1.7m3.7-7.6l-.3-.2-.1-.1h-.5l-.3-.2h-.7m-4.8-59.2l1.5-.8m-5.4-9.4l-1.5.9m1.6 10.2l3.2-1.8m-4.2-7.4l-3.2 1.8m0 0l-1 .8-.6 1-.5 1.1v1.2l.3 1.2.6 1 .8.9 1.2.5 1.2.3 1.2-.2 1-.4M84 122.5l-2.4-1.4m-5.1 9.5l2.2 1.3m8-6.6l-3.2-1.8m-4.2 7.4l3.2 1.8m0 0l1.2.4 1.2.2 1.2-.3 1-.6.9-.8.6-1.2.2-1v-1.2l-.5-1.2-.7-1.1-.9-.6m-8 55.1l-2.2 1.2m5.1 9.4l2.4-1.3m-1.5-10.2l-3.2 1.8m4.2 7.5l3.2-1.8m-2.1-8h-.8l-.3.2h-.3l-.1.1-.3.2h-.3m4.2 7.5l.9-.8.7-1 .5-1.2v-1.2l-.3-1.2-.6-1.1-.9-.7-1.2-.6-1.2-.2m85.9 24l1.4 1.4m7.8-7.5l-1.2-1.4m-9.6 4.1l2.5 2.7m6.2-5.9l-2.6-2.7m-3-1.3l-1.2.1-1.2.6-.9.8-.6 1-.3 1.2v1.2l.3 1.2.8 1.1m6.1-5.9l-.3-.3-.3-.3-.3-.1-.4-.3-.5-.2h-.4l-.3-.1h-.5m5.1 29.8l1.7 2.1m8.5-6.4l-1.6-2.3m-9.9 3l2.2 2.9m6.8-5.1l-2.3-2.9m-3.4-1.8l-1.1.3-1 .5-1.1.7-.6.9-.3 1.2-.1 1.1.3 1.2.6 1"/><path class="st1" d="M182.5 213.5l-.3-.4-.3-.3-.4-.3-.5-.3-.4-.2-.5-.1h-.4l-.6-.2m31.6-38.2l2.7.4m1.7-10.6l-2.7-.5m-5.1 9l3.6.6m1.3-8.4l-3.6-.6m-.7 0l-1.2.2-1.2.6-.9.7-.6 1.2-.3 1.2.1 1.2.5 1.2.7 1.1 1.1.6 1.2.4m1.3-8.4h-.7m-143.6-.6l-1.9.3m1.9 10.7l1.8-.3m2-10.2l-3.6.7m1.5 8.3l3.6-.6m-.8-8.4h-.7m1.5 8.4l1.2-.3 1-.8.8-1 .4-1.2v-1.2l-.3-1.2-.6-1.2-.9-.8-1.2-.6-1.2-.1m25.4 50.1l-1.1 1.8m9.3 5.4l1.1-1.8m-6.5-8l-1.9 3.2m7.5 4.2l1.8-3.2m-3.8-6.3h-.6l-.4.2-.6.1-.5.3-.4.3-.5.3-.3.5-.3.4m7.4 4.2l.4-.9.2-1.2-.2-1-.4-1.1-.8-.9-.9-.6-.9-.4-1.2-.2m-25.8-64l-1.8-.2m-1 10.8l1.6.2m4.7-9.3l-3.6-.3m-.9 8.4l3.6.4m0 0l1.2-.1 1.2-.3 1-.8.8-.9.4-1.2v-1.2l-.1-1.2-.6-1-.8-.9-1-.6-1.2-.3M129.7 77l-.3-2.7m-10.6 1.2l.3 2.7m10 2.6l-.4-3.6m-8.6.9l.5 3.7m0 0l.3 1.1.6 1 .9.9 1.2.5 1.2.3 1.2-.2 1-.4.9-.9.8-.9.3-1.2.1-1.2m-58.9 46.6l-2.6-1M64 136.6l2.6.9m6.7-7.8l-3.4-1.2m-3 7.9l3.4 1.2m0 0l1.2.3 1.2-.1 1.2-.5.9-.6.8-1 .4-1.2v-1.2l-.3-1.1-.6-1.2-.7-.7-1.1-.6m-2.5 56.4l-2.4 1.3m5.4 9.3l2.4-1.3m-1.7-10.2l-3.1 1.9m4.2 7.4l3.1-1.8m-2.1-8h-.7l-.3.2h-.3l-.3.1-.2.2h-.3m4.2 7.5l1.1-.9.6-.9.4-1.2v-1.2l-.3-1.2-.6-1.1-.9-.9-1.2-.4-1.2-.2m35.4-84.4l-.7-1.7m-9.6 4.8l.7 1.7m10.2-1.1l-1.5-3.3m-7.6 3.8l1.5 3.3m0 0l.7 1 .9.8 1.2.4 1.2.2 1.2-.2 1.1-.6.9-.7.6-1.1.3-1.2v-1.2l-.5-1.2m63.3-14.7l1.4-2.4m-9.5-5.1l-1.3 2.3m6.7 7.9l1.7-3.3m-7.4-4l-1.8 3.1m0 0l-.4 1.2v1.2l.1 1.2.6 1.1.9.9 1.1.6 1.2.1h1.2l1.2-.4.9-.8.7-.9M86.1 219.5l-1.5 2.3m9 5.8l1.5-2.2m-6.2-8.4l-1.9 3.1m7 4.7l2.1-3.2m-3.6-6.4h-1l-.5.3-.6.1-.4.3-.3.3-.5.5-.3.3m7.2 4.6l.5-1 .1-1.1v-1.2l-.4-1-.8-.9-.9-.6-1-.5-1.1-.1m50.7 19.5l.5 2.7m10.6-2.1l-.6-2.7m-10-1.7l.6 3.6m8.4-1.6l-.8-3.6m-4-3.5l-1.1.2-.9.3-.7.4-.6.6-.6.9-.3.8-.2 1 .2.9m8.2-1.6l-.1-.8-.3-.6-.5-.6-.4-.4-.6-.5-.8-.3-.7-.3h-.6M93.1 99.5l-1.8-1.9m-8.2 6.9l1.8 2.1m9.6-3.5l-2.3-2.8m-6.6 5.5l2.4 2.7m0 0l.9.9 1.1.5 1.2.1 1.2-.1 1.2-.5.9-.7.6-1.1.4-1v-1.2l-.3-1.2-.7-1.1m95.8 34.5l2-.9m-4.4-9.9l-1.8.9m.5 10.2l3.3-1.3m-3.3-7.8l-3.5 1.3m0 0l-1 .6-.8.9-.6 1.2-.1 1.2.1 1.2.5 1.1.7.9 1.1.7 1.2.3h1.2l1.2-.3M147.9 98l.3-2.7m-10.7-1.5l-.3 2.6m8.9 5.1l.6-3.6m-8.4-1.2l-.6 3.6m0 0v1.2l.3 1 .7 1.1.9.9 1.1.4 1.2.2 1.2-.2 1-.4 1.1-.8.6-1 .3-1.2m55 13.6l2.3-1.6m-6.2-8.7l-2.2 1.5m2.5 9.9l3-2.1m-4.9-6.9l-3 2.1m0 0l-.8.9-.6 1-.3 1.1v1.2l.5 1.2.6 1 .9.8 1.2.4 1.2.2 1.2-.3 1-.6M57.7 132.8l-2.5-.6m-2.6 10.5l2.7.6m5.7-8.5l-3.4-.8m-2 8.3l3.5.7m0 0l1.2.2 1.2-.2 1-.6.9-.9.6-1 .3-1.2v-1.2l-.4-1.1-.8-1-.9-.8-1.2-.4m1.8 57.1l-2.4 1.4m5.6 9.1l2.4-1.3M66.6 191l-3.2 1.8m4.4 7.4l3.1-2m-2.2-7.8h-.8l-.3.2h-.3l-.3.1-.3.2-.1.1m4.3 7.2l.9-.7.8-1.1.3-1V194l-.3-1-.6-1.1-.9-.9-1.2-.4-1.2-.2m82.2-101.5l.4-2.7m-10.6-2l-.5 2.7m8.9 5.3l.6-3.6m-8.4-1.4l-.6 3.5m0 0V92l.3 1.1.6 1 .9.9 1 .5 1.2.3 1.2-.2 1.1-.4 1-.8.6-1 .5-1.2m3 130.9l.9 2.4m10.2-3.6l-.9-2.5m-10.4-.2l1.2 3.5m8.1-2.9l-1.3-3.4m-3.9-2.9l-1.1.2-.9.3-.9.6-.7.7-.5.9-.3 1.1v1l.3.9m8-2.8l-.3-.6-.3-.6-.5-.5-.4-.4-.6-.3-.6-.3-.6-.2h-.6m40.8-28.6l2.4.9m3.4-10.2l-2.2-.8m-6.8 7.8l3.5 1.2m3-7.9l-3.5-1.4m-1.5-.1l-1.3.1-1.1.6-1 .9-.6 1.2-.2 1.2.2 1.4.6 1.2.9.9 1 .7m3-8.1h-.4l-.2-.1h-.9m-70 40.9l-.2 2.3m10.8.6l.2-2.3m-9.5-4.2l-.1 3.6m8.4.5l.1-3.6m-4.2-4.5l-.7.1-.8.2-.7.4-.6.5-.6.6-.5.7-.1.8-.2.7m8.4.5v-.9l-.1-.8-.5-.7-.4-.8-.8-.6-.7-.4-.8-.2-.9-.1m72.2-46.2h2.7m0-10.8h-2.7m-3.8 9.7h3.8m0-8.5H199m0 0l-1.2.1-1 .5-.9.9-.6 1-.5 1.1v1.2l.5 1.2.6 1 .9.8 1 .4 1.2.3m13.4-11.1l2.7-.3m-1.7-10.6l-2.7.3m-2.1 10.2l3.6-.6m-1.3-8.4l-3.6.6m0 0l-1.2.3-.9.6-.9 1-.5 1.1-.1 1.2.1 1.2.6 1 .8.9 1 .8 1.2.3h1.2M75.9 101.8l-2-1.8m-6.9 8.2l2.1 1.8m8.9-5.1l-2.7-2.4m-5.4 6.6l2.7 2.4m0 0l1 .6 1.2.3H76l1.2-.4.9-.6.9-1.1.5-1 .1-1.2-.3-1.2-.4-1.1-.9-.9m-23.7 51.9l-2.7.2m.9 10.8l2.7-.3m2.8-9.9l-3.6.3m.6 8.5l3.6-.3m-.3-8.5H58m.6 8.5l1.4-.3 1-.6.9-1 .5-1.2.1-1.2-.1-1.4-.6-1-1.1-.9-1-.6-1.4-.3m123.8-51l1.5-1.8m-8.3-6.9l-1.5 1.6m5.1 9l2.4-2.7m-6.6-5.5l-2.4 2.8m0 0l-.6 1.1-.3 1.2v1.2l.5 1 .6 1.1.9.7 1.2.5 1.2.1 1.2-.1 1-.5.9-.9m-52.2-21.6l-.3-1.6m-10.6 1.8l.3 1.8m10.2 1.8l-.6-3.5m-8.4 1.4l.6 3.6m0 0l.4 1.2.6 1 .9.8 1.2.4 1.2.2 1.2-.3 1.1-.5.9-.9.6-1 .3-1.1v-1.3m47.5 121.9l1.5 1.7m8.3-6.8l-1.5-1.8m-9.8 3.5l2.4 2.7m6.6-5.4l-2.4-2.9m-3.3-1.5l-1.2.2-1 .6-.9.7-.8.9-.3 1.2v1.2l.3 1.2.6 1.1m6.6-5.6l-.3-.3-.4-.3-.3-.3-.5-.1-.4-.2-.5-.1-.4-.2h-.5m-82.8-2.2l-1.8 2.2m8.6 6.5l1.6-2.1m-5.4-8.7l-2.2 2.8m6.7 5.3l2.3-3m-3.3-6.8h-1.1l-.4.2-.5.3-.3.1-.4.3-.3.3-.5.5m6.8 5.1l.6-.9.3-1.2v-1.2l-.5-1.1-.6-1-.9-.8-1-.4-1.2-.2m86.8-11.5l1.8.7m4.4-9.9l-2-.7m-7.2 7.3l3.5 1.5m3.3-7.8l-3.3-1.5m-1.8-.3l-1.2.2-1.2.6-.9.9-.6 1-.3 1.4.1 1.2.5 1.2.9 1 1 .6m3.5-7.8h-.3l-.2-.1h-.4l-.2-.2h-.7M640.1 235l-5.7 5.5m-6.7-12.3l-3 3.2m12.4-12.5l-6.1 6.2m10.9-125.7l-3.7 3.9m16.5 117.1l-1.1 1.1m-9.1-10.1l-4.5 4.5m6.6 12.5l-2.4 2.5m22.2 15.9l-8.4 8.6m-10.7-8.6l-8.5 8.6m-7.7-11.4l-10 9.9m56.7-152.1l-9 9m-8.9-10.2l-4.8 4.8m22.7 130l-2.9 2.9m2.9-21.9l-2.9 2.8m-1.3-17.7l-13.8 13.8m-24 1.8v.5l-.3.4m3.6-101.8l.7.6.6 1 .5 1.1.4 1 .3 1.2v1.8l-.3.5-.3.3m-.7 45l.6.4.4.6.3.9v2.4l-.3 1.1-.4 1.2-.5.7-.6.8-.7.3h-.5m-4.9-25.2h.3l.6.3.4.7.5.9.3 1.1v2.4l-.3 1.2-.5.9-.4.6-.6.3-.3.1m1.5 45.8l-.2.4-.4 1.1-.6 1m1.3-6.1h.2l.3.3v1.3m-5.9 20.9v.6l-.3.7-.3.6m3-107.8h.5l.6.1.6.6.6.8.4 1 .5 1.1.3 1.2v2.1l-.3.7-.5.5-.1.1m-.5 47h.2l.4.3.5.7.3.8v2.2l-.3 1.2-.5 1.2-.4.9-.6.6-.6.3-.6.2m8.4-78.6l.4.9v.6m-12.1 106.5l-.3.6-.5 1-.6.9-.3.5m1.7-6.8l.1.2.3.4v1.5l-.1.8m4.6-112.7h.2l.4 1.1.2.4m-8.4 23.7h.7l.6.5.6.6.5 1 .4 1.1.3 1.2v2.2l-.3.8-.4.6-.5.3m0 48l.5.3.4.6.3.9v2.2l-.3 1.2-.4 1.1-.5.9-.6.7-.6.3-.6.2h-.1m14.8 18.1v.6l-.3.6-.1.3M629.8 101l.1.6v1.7l-.3.4h-.1m-1.7-6.6l.3.3.6 1.1.5 1 .3.6m-2 46.1h.6l.6.4.5.8.4.9.3 1.2v2.4l-.3 1-.4.8-.5.6-.6.3h-.1m10.6-19.4h.5l.7.3.6.6.5.9.4 1.1.3 1.2v2.2l-.3.9-.4.8-.5.3-.1.1m.7 45l.3.2.3.6v1.8l-.3 1-.4 1.2-.5 1.1-.6.9-.7.7m-3.3 18v.8l-.3.7-.5 1.1m5-106.5l.4.6.5 1 .4 1.1.3 1v1.5l-.3.3m-1.6 41.9l.7.1.5.6.4.9.3 1.1v2.4l-.3 1-.4 1.1-.5.7-.6.5h-.6m-6-25.5h.2l.6.1.6.6.4.8.5 1 .3 1.1v2.4l-.3 1-.5.8-.4.4-.5.2m-1.6 53.4h-.5m3.2-8l.3.3.3.5v1.9l-.3 1.1-.5 1.2-.4 1-.6.9-.6.6-.6.5m-3.2 20.8l-.4.9-.3.6m3.9-114.6l.6.3.6.8.6.9.4 1 .5 1.1.3 1.2v1.8l-.3.6-.3.1M632 110l.2-.1h.3m-3.2 90.1l.3.3.3.6v1.8l-.3 1.2-.4 1.1-.5 1-.6.9-.6.8-.6.3-.6.1v-.1m-.1 26.1l-.3.1-.2.3-.1.2m4.3-7.4v.3l-.3.6-.3.5m6-132.3l.2.1.3.8v.9m-9.3 15.3h.4l.6.3.6.4.6.9.5.9.4 1.2.3 1.2v2l-.3.7-.4.5-.2.1m-.7 47.4h.4l.5.5.4.7.3 1.1v2.2l-.3 1.2-.4 1.1-.5.9-.6.4-.6.3h-.3m14.3 25.1l.1 1.2-.3.7-.4 1.1-.3.6M629.9 96.5l-.3.2m8.7 28.2h.2l.6.1.7.6.6.8.5.9.4 1.2.3 1.2v2.1l-.3.7-.4.5-.3.1m0 46.1l.3.1.4.5.3.7v2.1l-.3 1.2-.4 1.1-.5 1-.6.8-.7.4-.6.3-.2-.1m-4.2-24l.5.1.4.5.5.9.3.9v2.4l-.3 1.2-.5 1-.4.8-.6.4-.6.2h-.2m2 40.5l-.2.3-.4 1-.2.2m4.8-67.5l.6.1.6.5.5.7.4.9.3 1.2v2.4l-.3 1.1-.4.7-.5.6-.6.3h-.1m-6.9-25.2h.6l.6.3.6.8.4.9.5 1 .3 1.2v2.3l-.3.9-.5.6-.4.3h-.2m.5 47.1l.1.1.5.5.3.6v2.1l-.3 1.2-.5 1.2-.4.9-.6.9-.6.4-.6.2h-.5m8.3-86.9l.3.5.4 1 .3.9v1.1l-.1.1m-12 108.9l-.3.5-.5 1-.3.6m1.2-5.1l.3.2m5.9-107.7v1.2l-.3.4h-.2m-1.3-6.1l.6.9.4 1.2.2.3m-8 28.8h.3l.6.1.6.6.5.9.4 1.1.3 1v2.4l-.3.9-.4.8-.5.4-.4.2m.7 47.4h.2l.4.4.3.8v2.1l-.3 1.2-.4 1-.5 1.1-.6.7-.6.6-.6.2h-.4m-.2-94.5h.6l.6.4.6.6.6.9.5 1.1.4 1.2.3 1v2l-.3.6-.3.1m-1.3 45.5l.7.3.5.6.4.9.3 1v2.4l-.3 1.1-.4 1-.5.8-.6.3-.6.1m13.8 30.3l.3.5v1.3l-.3 1.1-.4 1.2-.5 1-.4.6m31.5 50.4v-5.8m-29.9-38.4v.1l-.1.3-.3.6m-3.3 5.4l-.3.6-.3.3m3.9-112.6l.3.6.1.3m9.8 126v-.2m0 0l-4.1-2.4m3.6 3.3l.5-.7m0 0l-4.2-2.4m4.2 3.7v-.3m0 0l-4.7-2.7m4.5 3.3l.2-.3m0 0l-4.7-2.8m-.3-5.6v1.2m-4.5-3.9v.6m0 0v.6m-.3.3l.2-.4.1-.5m-.1.9l.1-.3m-4.9 7.4v.3h.1v-.2m4.8-8.7l-.3.5m.3-.5l4.5 2.7m-.3 1.5l.3-.3m0 0l-4.5-2.7m10.4-105.9v5m-4.5-3.2v2.4m0 0v2.6m-2-.5l.8.5.6.1.6-.1m0-5l-.6-1.3-.6-1.2-.8-1.1m2 3.6l4.5-1.8m-.3 5.1l.3-.1m0-5l-.6-1.3-.6-1.2-.3-.5m1.5 8l-4.5 1.8m-.8-.9l.3-.2.3-.6.2-.9m0 0l-.2-.9-.3-1.2-.3-1-.6-1.1-.6-.9-.6-.7m7.1 56.7v6.3m-4.5-7.1v3.2m0 0v3.1m-4.7 1.8l.2.3.6.8.6.3h.7l.6-.3.8-.8.6-.9.6-1.2m0-6.3l-.6-.7-.6-.3h-.8l-.6.3-.6.4m3.2.3l4.5.8m-3.2 9.6h.5l.7-.5.8-.6.6-1 .6-1.2m0-6.3l-.6-.6-.6-.5h-.2m1.4 7.4l-4.5-.8"/><path class="st1" d="M644.8 178.1h.4l.6-.3.6-.6.6-.9.3-1 .3-1.2.2-1.2m0 0l-.2-1.1-.3-1-.3-.6-.6-.3-.1-.2m20.5-99.3l.3-1.8m-1 1.8l-.3-1.8m1 3.6l.3-1.9m-1 1.9l-.3-1.9m4.8.7l.1-.7m-8.4.7l-.1-.7m4.6.1h-.7m0 0v1.8m.7 0v-1.8m-.7 2.1v.3m0-.3l-.3-1.5m1 1.5l.3-1.5m-.3 1.8v-.3m.3-3.9h-1.3m1.3 1.7v-1.7m3.6 1.7h-3.6m3.6.7v-.7m-3.6.7h3.6m-3.6 1.8V71m-1.3 1.8h1.3m-1.3-1.8v1.8m-3.6-1.8h3.6m-3.6-.7v.7m3.6-.7h-3.6m3.6-1.7v1.7m4.8 2.4l.6-.5.6-.6.3-.7v-.8l-.5-.6-.7-.6-1.1-.6-1.3-.3-1.4-.1h-1.3l-1.4.1-1.3.3-1.1.6-.7.6-.5.6v.8l.3.7.6.6.9.6m3.8.8h.7m-20.7 81.9v1.3m-4.5-2.2v1.5m0 0v1.6m-.1 0v-.4l.1-1.2m0 0l-.1-1.2v-.3m3.7 82.9v-.4m0 0l-3-1.7m2.3 3.2l.7-1.1m0 0l-3.3-1.9m3.3 3.7v-.3m0 0l-3.9-2.2m3.5 3.3l.4-.8m0 0l-4-2.2m-.9-5v.2m-4.5-4.1v.6m0 0v.9m-.6.9l.1-.7.3-.6.2-.5m0 0l-.2-.1m-.3 1.9l.5-.9m-.2-1.6l-.3.3m4.5 4.6l.5-.7m0 0l-4.5-2.6m5.8-106.3v.4m-.1 0l.1-.4m4.5 56.2v.3m-4.5-2.2v.9m0 0v.9m-.1 0l.1-.9-.1-1.1m6-76.3v.7m0 0v.9m-.2-.7l.2-.2-.2-.4-.3-.6v-.2m0 1.7l.5.4m0-1.6l-.3-.5m.3.5l.7-.5m2.4.2l-3.1 1.9m9.4 116.3v-.5m0 0l-3.6-1.9m2.9 3.4l.7-1m0 0l-3.7-2.1m3.7 3.9v-.5m0 0l-4.3-2.4m4 3.3l.3-.4m0 0l-4.5-2.7m-.4-6.2v1.7m-4.5-4.2v.7m0 0v.9m-.6.6l.1-.3.3-.7.2-.5m0 0l-.2-.1m-.3 1.6l.5-.6m0-1.6l-.5.4m.5-.4l4.5 2.5m-.3 2.3l.3-.6m0 0l-4.5-2.6m4.5-75.7v6.3m-4.5-5.4v3.1m0 0v3.2m-3.2.1l.6.5.6.4h.8l.6-.4.6-.6m0-6.3l-.6-1.2-.6-1.1-.8-.6-.6-.4h-.7l-.6.4-.6.6-.2.3m4.7 2l4.5-.9m-1.4 7.3h.2l.6-.3.6-.7m0-6.3l-.6-1.2-.6-.9-.8-.8-.7-.3h-.5m3.2 9.5l-4.5.9m-1.5-.2l.7-.3.3-.7.3-.9.2-1.1"/><path class="st1" d="M647.8 139.4l-.2-1.2-.3-1.2-.3-1-.6-.9-.6-.6-.6-.3h-.4m7.5 57.6v5.1m-4.5-6.9v2.5m0 0v2.6m-2 3.6v-.2l.8-.9.6-1.2.6-1.3m0-5.1l-.6-.2-.6.2-.8.4m2-.4l4.5 1.8m-1.5 7.9l.3-.4.6-1.2.6-1.2m0-5.1l-.3-.2m.3 5.3l-4.5-1.8m-2.6 3.3l.6-.6.6-.9.6-1.1.3-1.2.3-1 .2-1.1m0 0l-.2-.7-.3-.6-.3-.2m4.4 35.1v-.6m0 0l-2.3-1.2m1.5 2.9l-2.4-1.4m2.4 1.4l.8-1.1m0 0l-2.6-1.5m2.6 3.9v-.6m0 0l-3.3-1.8m2.7 3.3l.6-.9m0 0l-3.6-2.1m-5.9-8.1v.6m-.7 1.4l.1-.2.6-1.2m3.9 3.6l.2-.3m-2.9-2.7l-1.2-.6m-.9 1.4l.2-.2.3-1 .3-.8m14.7-116.5l-.2.1m-4 5.9v4m-4.5-1.9v2.1m0 0v1.9m-1.4-.6l.2.2.6.4h.6m0-4l-.6-1.4-.6-1.2-.2-.3m1.4 2.9l4.5-2.1m0 0l-.6-1.4-.5-.9m1.1 6.3l-4.5 2.1m-.5-1l.3-.3.2-.6m0 0l-.2-.9-.3-1.1-.3-1-.6-1.2-.3-.6m6.2 51.6v6.6m-4.5-6.9v3.3m0 0v3.3m-4.2 1.2l.3.4.6.6.7.2.6-.2.8-.4.6-.8.6-1m0-6.6l-.6-.9-.6-.6-.8-.2h-.6l-.7.6-.5.3m3.8.8l4.5.3m-2.6 9l.6-.2.8-.4.6-.8.6-1m0-6.6l-.6-.9-.6-.6-.8-.3m2 8.4l-4.5-.3"/><path class="st1" d="M645.2 166.4l.6-.1.6-.5.6-.7.3-.9.3-1.2.2-1.2m0 0l-.2-1.2-.3-1.1-.3-.7-.6-.6-.6-.3m.6-14.3v1.1m-4.5-1.4v1.4m0 0v1.3m-.1 0v-.1l.1-1.2m0 0l-.1-1.2v-.2m3.7 89.4v-.6m0 0l-.9-.4m.2 2.1l-1.1-.6m1.1.6l.7-1.1m0 0l-1-.6m1 3.5v-.6m0 0l-2.1-1.2m1.4 2.8l-.3-.1m.3.1l.7-1m0 0l-2.4-1.4m-7.9-6.1l.1-.3m-.3.3l.2-.5m10.3 12.8v-.2m0 0l-4.3-2.5m4 3.1l.3-.4m0 0l-4.5-2.7m-.4-4.4v.8m4.9 7.2v-.2m0 0l-4.8-2.8m4.8 3l-4.8-3m-4.6-7.7v.3m0 0v.5m-.8 1l.3-.6.3-.6.2-.3m-4.4 7.4l.3-.3.2-.5m3.3-4.9v-.3l.6-.9"/><path class="st1" d="M631.6 238.1l-.3.5-.2.4v.2l.2-.2.3-.4.6-.8.1-.1m3.8-7.1l-.2.2m.2-.2l4.5 2.7m-.2.9l.2-.1m-5 7.8l.2-.2.3-.3m4.5-7.3l-4.5-2.7m20.4-18.5l-.5-.3m.5 2.4l-1.4-.7m1.4.7l.7-1.2m0 0l-1.3-.7m1.3 3.9v-.6m0 0l-2.5-1.4m1.8 3.2l-2.7-1.5m2.7 1.5l.7-1.2m0 0l-2.8-1.5m-2.1-8.3v3m-4.5-5.4v1.5m0 0v1.5m-.9 1.8l.3-.6.6-1.2m0-3l-.6.3-.3.3m.9-.6l4.5 2.4m-.8 4.5l.2-.3.6-1.2m0 0l-4.5-2.4m-1.1 1.7l.3-.6.3-1.1.3-.9.2-.6m0 0l-.2-.4h-.1m.3-79.8v2.8m0 0v3m4.5-7.2v5.9m-7.1 1.2l.6.4.8.2h.6l.6-.5m-4.7-9.1l-.1.6v.1m4.8 2.6l-.6-1.2-.6-1.2-.8-.9-.6-.6h-.3m2.9 3.9l4.5-1.4m-.8 6.3h.2l.6-.4m0-5.9l-.6-1.2-.6-1.2-.8-.7-.1-.3m2.1 9.3l-4.5 1.3m-1.1-.6l.3-.1.3-.5.3-.7.2-1.1m0 0l-.2-1-.3-1.2-.3-1.1-.6-1-.6-.8-.6-.6-.6-.1h-.3m8 58.6v5.7m-4.5-7v2.8m0 0v2.9m-2.9 4l.3-.1.6-.6.8-.9.6-1.1.6-1.3m-4.8 2.5v.3l.1.5m4.7-9l-.6-.5-.6-.1-.8.3-.6.4m2.6-.1l4.5 1.3m-2.1 9.2l.1-.2.8-.9.6-1 .6-1.4m0-5.7l-.6-.4-.2-.2m.8 6.3l-4.5-1.3m-3.5 3h.3l.6-.2.6-.4.6-.8.6-1 .3-1.2.3-1.1.2-1.2m0 0l-.2-.9-.3-.7-.3-.5-.3-.1m-.3-13.4v1.1m-4.5-2.6v1.4m0 0v1.5m-.1 0v-.3l.1-1.2m0 0l-.1-1.1v-.3m9.6 57.5v-.8m0 0l-1.1-.4m.3 2.2l-1.3-.6m1.3.6l.8-1m0 0l-1.4-.8m2.3-75.9v6.6m-4.5-6.3v3.3m0 0v3.2m-3.8.7l.5.5.7.4.6.2.8-.3.6-.6.6-.9m0-6.5l-.6-1-.6-.9-.8-.5-.6-.1-.7.3-.6.6-.3.4m4.2 1.2l4.5-.3m-2 8.3l.8-.2.6-.6.6-.9m0-6.6l-.6-1-.6-.9-.8-.5-.6-.1m2.6 9.1l-4.5.2"/><path class="st1" d="M645.8 154.3l.6-.2.6-.6.3-.9.3-1 .2-1.1m0 0l-.2-1.2-.3-1.2-.3-1-.6-.8-.6-.3-.6-.1m1.2-13.5v.3m-4.5 0v1m0 0v.9m-.1 0l.1-.9-.1-1m.1 55.6v.6m0 0l-.1-.6m10.5-86.2v2.8m-4.5-.4v1.5m0 0v1.3m-.9-.6l.3.3.6.3m0-2.8l-.6-1.2-.3-.8m.9 2l4.5-2.4m0 0l-.6-1.2m.6 4l-4.5 2.4m-.3-.9l.3-.4m0 0l-.2-.8-.3-.9-.3-.9-.3-.7m9.8 109l-.2-.1m.2.1v-.1m0-1.2h-.2m-4-9.9v4m-4.5-6.1v1.9m0 0v2.1m-1.4 2.9l.2-.5.6-1.2.6-1.2m0-4h-.6l-.6.4-.2.2m1.4-.6l4.5 2.1m-1.1 6.3l.5-1.1.6-1.2m0 0l-4.5-2.1m-1.7 2.6l.3-.6.6-1.1.3-1.2.3-.9.2-.9m0 0l-.2-.6-.3-.3m2.1 43.8v2.6m28.4-135V98.2m-21.3 2.7v1.3m-1.4 0v8.6m19.8 107.7v36.9m2.9-1.5v-52.4m-21.3 8.4v3.5m-1.4-11.9v8.4m22.7-8.4v-90.7m-22.7 90.7v-90.7m22.7 90.7h-22.7m0-90.7h22.7m-21.3-8.6h-1.4m0 107.7h1.4m18.4 8.6H665m-9.3 14.2h19.2m-18.4-19.3l8.5 5.1m-15.6 13.6v11.1m0-16.6v.3m0-2.9v.5m6.3 8.2l-4.9 8.4-1.4 2.1m15.6-24.7v.1l-.1.2-.5.4-.6.8-.4.7-.5.8-.6.7-.6.9-.4.8-.6.9-.8 1-.6 1.1-.7 1.2-.8 1.2-.7 1.2-.8 1-.6 1.2m-6.3 13.1h25.5m2.9-147.6l-1.4-.2m1.4-39.7v39.9m0 155.7l-1.4 1.5M674.9 98V56.9m0 41.1h1.5m0 0V56.9m-1.5 198.5h1.5m-55.3-1.5V244m14.2 0v2.8m31.1 8.6v-8.6m6.3-176.1l-.3-.9-.6-.7-.8-.6-1.2-.5-1.2-.3-1.5-.1h-1.3l-1.5.1-1.2.3-1.2.5-.9.6-.5.7-.3.8v.1m-39.1 25.8V244m14.2 0v-2.3m0 2.3h-14.2m14.2 2.8h31.1m5.1-.1H668l-.3.1h-1.3m8.5-.1h-3.4M622.6 96.2l-1.5.3m1.5 158.9l-1.5-1.5m0-157.4V58.3M674.9 98h-2.8l-2.9.5-5.7 1.2-5.8.9-5.9.3-4.5-.6-4.3-1.2-4.2-1.7-4.4-1.5-2.4-.4-2.4-.2-3.6.3-3.4.6m52.3-39.3V98m-8.5 157.4h-43.8m0-198.5v39.3"/><path class="st1" d="M666.4 73.4h1l1.1-.1 1-.2.8-.4.7-.3.8-.5.4-.4.3-.6.2-.5v-.6l-.3-.4-.3-.5-.6-.4-.6-.5-.9-.3-.9-.1-.9-.2-1.1-.1H665l-1 .1-.9.3-.8.3-.7.3-.6.5-.5.4-.3.5v.6l.2.4.1.6.5.5.6.4.7.5.9.3.9.3 1.1.1h1.2m-10.8 138.5l.7.4m-21 33.3l20.3-33.7m0 0v-2m-19.7 36.2l-.6-.5m6.6-146.4l-2.8-1.2-3.2-1.5m11.9 4.1l-2.4-.3m10.9.6h-1m1 1.3v-1.3m0 111.4v-2.4m0 2.4l-20.4 33.8m21.3-24.5l-4.8-2.8m4.7 3l.1-.2m0 0l-4.8-2.8m4.8 3.1l-4.9-3m0-4.5v.5m-4.5-2.9v.2m0-.5v.3m-4.5 7.2l-.3.5-.2.4v.2l.2-.3.3-.5m4.5-7.8l-.2.2m.2-.2l4.5 2.7m-5 8.6v-.2l.2-.1.3-.6m-.6-9l.1-.3v-.2l.2-.1.1-.2v-.3h.2m-4.5 7.2l.4-.4.3-.6m-6.1-3.5l2.1 1.2 2.1 1.2 1.9 1.1m-.7 1.3l.7-1.3m-.7 1.3l2.2 1.2 2.3 1.4m0 0l1.3-2.3m1.5.3l-.4-.1-1.1-.2m1.8 0l-.3.3m.3-.3l5.6 3.3m0 0l.7-1.2m0 0l-5.5-3.3m.1-.3l-.1.3m-.8-1.5l.9 1.2m-.9-1.2l1.4-2.2m0 0l-4.5-2.7m-.6.9l.6-.9m-.6.9l-2-1.2-2.1-1.4-1.9-1.2m-3.3 5.4l-.9-.7-.5-.9-.3-1.2.3-1.1.6-.9.8-.7 1-.3h1.2l1.1.4m0-106.3l-1.1.4h-1l-1.1-.3-.9-.7-.6-.9-.3-1.1.2-1.2.6-.9.7-.7m3.5 5.4l2.1-1.4 1.9-1.2m5.4 132.3l-4.8-2.8m4.8 2.8l.8-1.2m0 0l-5-2.8M637 230l.4-1m9-4.5l-4.5-2.7M637 230l4.5 2.7m0 0l4.9-8.2m-15 .9l-.9-.8-.7-1-.3-1.1-.2-1.2.3-1.2.8-1 .9-.9 1-.5 1.2-.3 1.2.2 1.1.6m-4.4 7.2l6 3.6m4.5-7.2l-6.1-3.6m5.8-118.8h.5m-2-.6l1.5.6m6 1.2l1.7.1m0 0h.3m-4.1 140.7l-.7 1.2m-7.4-3.3l-.3.6-.6.9-.4.8m4.5-7.4l-.5.8-.6.9-.3.6m5.6 6.1l-5-3m-13.6-5.5l3.1 1.8 3 1.8m-.7 1.2l.7-1.2m-.7 1.2l4.5 2.7m0 0l1.3-2.3m1.7.2h-.6l-1.1-.2m1.8-.1l-.1.3m.1-.3l5.6 3.4m0 0l.7-1.2m0 0L640 238m.1-.3l-.1.3m-.8-1.5l.9 1.2m-.9-1.2l1.4-2.3m0 0l-4.5-2.7m-.6 1.1l.6-1.1m-.6 1.1l-3-2-3-1.8"/><path class="st1" d="M626.2 234.1l-.8-.6-.6-1.1-.1-1 .1-1.1.6-.9.9-.7 1.1-.3h1l1.1.4m9.7-130.5l-.4-.3-.5-.1-.3-.2m1.2.6l1.1.5m-.2-.3l.2.3m2.7.3l-1.1.3m0 0l1.5.4m1.1-.4l-1.1.4m0 0l1.8.5m.3-.2l-.3.2m21.3 152.2h10.1M646 226.1l-.3-.4m.3 1.6l-.8-.9m-3.3-5.7l-6.1-3.6m0 0l-.3-.1-.2-.2-.3-.1h-.3l-.3-.2h-.7l-1.4.2-1 .4-.9.9-.6 1.1-.5 1.2v.9m7.7 7.8l.4.3m14.1-115.7l.2-.1m-4.2 8.8l4.5-1.8m-11 3.2l6-2.4m-9.3-5.4l-.9.4-.7.9-.6 1.1-.3 1.2.1 1.2.5 1 .7 1.1.9.7 1.2.3 1.2.2 1.2-.3m9.3 55.9l.8-.1m-6.5-.3l4.5.9m1.8-10.7l-4.5-.7m-7.8 8.4l6.2 1m1.5-8.4l-6-1m-.8 0l-1.3.1-1.1.5-.9.9-.7 1-.3 1.2.1 1.4.5 1.2.7.9 1.1.7 1 .5m1.7-8.4h-.8m32.6-97.5v-.5m-11.3 0v.5m-27.1 89.2h1.8m0-8.5h-1.8m0 0l-1.2.1-1.2.5-.9.9-.6 1-.3 1.1v1.2l.3 1.2.6 1 .9.8 1.2.4 1.2.3m2.2 42.5l-.6-.3m0 0l-.1-.2h-.2l-.3-.1h-.1l-.3-.2h-.6l-1.4.2-1 .6-1.1.9-.6 1-.3 1.4.2 1.2.4 1.2.9 1h.2m9.1 26l-.1-.3m-4.1-6.6l-6-3.6m0 0l-.3-.2-.1-.1h-.3l-.3-.2h-.6l-.2-.1h-.3l-1.2.1-1.2.6-.9.8-.6 1-.3 1.2v1.7m11.3-102.5l.7-.3m-.1-8.8l-3.2.9m0 0l-1 .6-.9.7-.6 1.1-.3 1.2v1.2l.3 1 .6 1.1.9.7 1.2.6 1.2.2 1.2-.2m-2.1 55.4l2.4.4m.4-8.5l-1.2-.3m-.7 0l-1.4.1-1 .5-.9.9-.8 1-.3 1.2.2 1.2.4 1.2.6 1.1 1.1.7 1.2.5m1.6-8.4h-.7m7.9-68.7l6-3.6m-12.3-.9l-.1 1.2.3 1.2.6 1 .9.9 1 .5 1.2.3 1.2-.2 1.2-.4m-11.5 103l-.6-.3m0 0h-.2l-.3-.1h-.3l-.3-.2h-.6l-1.3.2-1.1.6-1 .9-.6 1-.3 1.4.1 1.2.5 1.2.9 1 .4.3m4.7-119.1l-.2.3-.4 1.2-.2 1.2.3 1.2.6 1.1.8.9 1 .6 1.2.3 1.2-.2.9-.3m-6.6 29l1.1-.2m-.5-8.7l-2.5.6m0 0l-1.1.5-1 .7-.6.9-.5 1.2-.1 1.2.3 1.2.6 1.1.9.7 1 .6 1.2.3 1.2-.1m-1.9 56.4l2.5.4m.5-8.5l-1.1-.3m-.9 0l-1.3.1-1.1.5-.9.9-.6 1-.4 1.2.1 1.2.3 1.2.8 1.1 1 .7 1.1.5m1.9-8.4h-.9m24 36.9l-.6-.6m-3.6-6.3l-6-3.5m0 0l-.3-.1-.3-.2-.1-.1h-.3l-.3-.2h-.8l-1.3.2-1.1.4-.9.9-.6 1.1-.4 1.2.1 1.2v.1m-5.8-107.4l.6-.3m-4.7-7l-.4.3-.8.9-.4 1-.3 1.2.1 1.2.6 1.1.8 1 1 .6 1.1.3h1.2l1.2-.3m-1.5 50.9h1.6m0-8.6l-2.1.2m0 0l-1.2.1-1 .6-.9.8-.6 1-.3 1.2.1 1.2.3 1.2.8.9.9.8 1.2.4 1.2.2m23.1-21.9l-.8-.2m-3.9 11.1l4.5-.9m-1.8-10.5l-4.5.8m-4.3 10.6l6-1.2m-1.5-8.2l-6.2 1m0 0l-1 .3-1.1.8-.7.9-.5 1.2-.1 1.2.3 1.2.4 1 .9.9 1.1.6 1 .3h1.4m11.4 55.2l-.2-.3m.5-6.9l-4.5-1.8m-.5 1.2l-6-2.4m0 0l-.1-.1h-.3l-.2-.2h-.9l-1.3.2-1.2.6-.9.9-.6 1.2-.3 1.2.1 1.3.6 1.2.9.9.9.6"/><path class="st1" d="M635.8 214.1l-.3-.1-.3-.2h-.2l-.3-.1h-.3l-.3-.2h-.4l-1.4.2-1 .6-.9.7-.6 1.1-.5 1.2.2 1.3.1.6m21.8-113.5l.3-.5m-10.4 10.5l6-2.8m-10.9-3.9l-.6.7-.5 1.1-.1 1.2.1 1.2.6 1 .8.9 1 .6 1.2.5h1.2l1.2-.5m3.9 51.8l4.5.3m.6-10.8l-4.5-.2m-6.6 9.2l6 .4m.6-8.5l-6.1-.3m-.2 0l-1.3.1-1.2.6-.9.9-.6 1.2-.3 1.2.1 1.4.6 1.2.9.9 1.1.6 1.3.3m.5-8.4h-.2m-5.4-8.7l1.4-.2m-.2-8.4l-2.1.2m0 0l-1.2.3-1 .6-.9.9-.5 1-.3 1.2.2 1.2.4 1.2.8.9 1 .8 1.1.3h1.3m-2.1 53.4h.3m3.5-7.7l-.6-.3m-1.5-.3l-1.4.3-1.2.5-.9.9-.6 1.2-.3 1.3.2 1.2.6 1.2.9 1.1 1 .6m3.2-8h-.2l-.3-.1h-.3l-.3-.2h-.4m-4.4 26.9h-.3l-.1-.2h-.6l-.3-.1h-.2l-1.3.3-1.1.4-.9.9-.6 1.1-.4 1.2.1 1.2.3 1.2m11.3-109.1l.6-.1m-3.5-7.8l-.3.1m0 0l-1 .6-.8.8-.6 1-.3 1.2.2 1.2.4 1.2.8.9.9.8 1.2.4h1.2l1.2-.3m-8.9 90.2l.5.3m3.1-8l-.6-.3m-1.5-.1l-1.3.1-1.2.6-.9.9-.6 1.2-.3 1.2.1 1.4.6 1.2.9.9 1.2.6m3-8h-.4l-.2-.1h-.9m12.3 36.7l-.6-.7m-13.9-1.2l6.1 3.6m4.4-7.4l-6.2-3.6m-2.1-.6l-1.2.2-1.2.6-.9.7-.6 1.1-.3 1.2v1.2l.3 1.2.8.9.9.9m4.3-7.4l-.1-.1-.3-.2h-.3l-.3-.1h-.3l-.3-.2h-.5m12.3 10.7l-.7-1.1m-8.3 2.9l4.5 2.7m.2-143.7V98m-6.3-2.7l.1.6.6 1.1.9.9 1.1.6 1.2.1h1.2l1.2-.4m-6.8 23.5l.8-.3m-.2-8.8l-3.1.9m0 0l-1.1.6-.9.7-.6 1.1-.3 1.2v1.2l.3 1.2.6.9 1.1.9 1 .4 1.2.2 1.2-.2m-1.8 55.8l2.3.3m.3-8.5l-1.5-.2m-.5-.1l-1.3.3-1.1.4-1 .9-.6 1.2-.3 1.2.1 1.2.5 1.2.9 1.1 1 .6 1.2.4m1.1-8.4l-.2-.1h-.3m19.7 36.9l-6-3.3m0 0l-.3-.2-.2-.1h-.3l-.3-.2h-.9l-1.3.2-1.1.4-.9.9-.7 1.1-.3 1.2.1 1.2.3 1.2m-6-111.6l.3-.2m-5.2-.7l.4.4 1.1.6 1.2.3h1.2l1-.4m21.3 24.6h-.6m-3.3 11.1l4.5-1.4m-10.9 2.1l6.1-1.8m-2.4-8.2l-6 1.8m0 0l-1.2.6-.9.7-.6 1.1-.4 1v1.2l.4 1.2.6 1.1.9.7 1.1.6 1.2.2 1.2-.2m9.7 57.9l.6-.1m.6-9.8l-4.5-1.2m-8.7 7.4l6 1.8m2.4-8.1l-6.1-1.8m-1.1-.2l-1.2.2-1.2.4-.9.9-.6.9-.4 1.2v1.2l.4 1.2.6 1.1.9.7 1.2.5m2.3-8.1h-.2v-.2h-.9m-6.3-7.3l2.1.3m.2-8.6l-1.4-.1m-.4 0l-1.4.1-1.2.6-.9.9-.6 1.1-.3 1.3.2 1.2.6 1.2.7 1.1 1.1.6 1.3.3m.9-8.4h-.4m1.6 45.7l-.4-.1h-.3l-.2-.2h-.7l-1.4.2-1 .6-.9.7-.8 1.1-.3 1.3.2 1.2.4 1.2.2.3m15.7-59.8l4.5-.3m-.6-10.8l-4.5.3m-5.5 10l6.1-.4m-.6-8.4l-6 .3m0 0l-1.2.3-1 .6-.9.7-.6 1.1-.3 1.2.1 1.2.3 1.2.8.9 1 .7 1.1.5 1.2.1m-5.3-16.9l1.2-.2m-.4-8.5l-2.4.4m0 0l-1.2.5-.9.6-.8 1-.4 1.1-.2 1.2.3 1.2.6 1 .8.9 1 .6 1.2.3 1.2-.1m-2.1 55.2l3.2.9m.1-8.9l-.7-.1m-1.2-.2l-1.2.2-1.2.4-.9.8-.6 1-.3 1.2v1.2l.3 1.2.6.9.9.9 1 .5"/><path class="st1" d="M634.9 184.9h-.2l-.1-.2h-.9m7.8-75l6-3.3m-11.9-2.4l-.3.9-.1 1.4.3 1 .6 1.2.7.8 1.1.6 1.2.3 1.2-.2 1.2-.3m-11.6 105.9h-.3m0 0l-.1-.1-.3-.2h-.2l-.3-.1h-.9l-1.3.1-1.1.5-.9.9-.7 1-.3 1.4.1 1.2.5 1.2.4.6m10.8-112.4l.6-.3m-4.9-6.9l-.2.2-.7.9-.6 1-.2 1.2.2 1.2.6 1.2.7.9 1.1.6 1.2.3h1.2l1-.3m-7 33.5l1.5-.2m-.3-8.5l-2.3.3m0 0l-1.2.3-1 .6-.8.9-.4 1.2-.3 1.2.1 1.2.6 1 .8.9 1 .8 1.1.3h1.2m-1.8 55.5l3.1.9m.2-8.9l-.8-.1m-1.2-.2l-1.2.2-1.2.4-.9.8-.6 1-.3 1.2v1.2l.3 1.2.6.9.9.9 1.1.5m2.5-8.1l-.3-.2h-.9m1.5-78.3l.6-.1m-3.1-8l-.5.2m0 0l-1.2.6-.7.9-.6 1-.3 1.2.1 1.2.5 1.1.7 1 .9.8 1.2.3 1.2.1 1.2-.3m-1.8 54l2.1.2m0-8.6l-1.6-.1m-.2 0l-1.3.3-1.2.6-.9.9-.6 1-.3 1.4.1 1.3.6 1.2.9.9 1.2.6 1.2.3m.5-8.5h-.2m23.9 49.3l-.3-.3m-4.1-7.2l-6-3m0 0h-.3l-.1-.1h-.3l-.2-.2h-.9l-1.3.2-1.1.6-1 .7-.6 1.2-.3 1.2.1 1.2.5 1.2.6.9m41.4-145l-1.4-1.4m0 0h-1.5m-52.3 0l-1.5 1.4m53.8-1.4h-52.3m29.2 161l-.7-1.1m-11.6-9.1l-1.3.1-1.1.6-.9.8-.6 1-.4 1.2.1 1.2.3 1.2.8 1.1.9.7m4.3-7.3l-.3-.2-.1-.1h-.3l-.3-.2h-.3l-.3-.1h-.5m3.3 12.6l4.5 2.7m-10-7.4l6 3.6m4.5-7.2l-6.2-3.7M636.8 97l-.4.4-.8.9-.3 1.2-.1 1.2.3 1.2.7 1.1.8.7 1.2.6 1.2.2 1.2-.2 1-.4m0 0l5.6-3.3M646 227.8l-.9-1.2m-1.8 3l1.5.1m-4.7 8l-.9-1.2m-1.8 2.8l1.5.3"/><circle cx="133.5" cy="156.1" r="99.2" fill="none" stroke="#1d1d1b" stroke-width=".283" stroke-miterlimit="10"/><circle class="st3" cx="133.5" cy="156.1" r="45.4"/><circle class="st3" cx="133.5" cy="156.1" r="87.9"/></g><g id="Dimensions"><path class="st4" d="M235.6 253.4h172.6"/><path d="M237.3 255.9l-9.3-2.5 9.3-2.5v5zm169.2 0l9.2-2.5-9.2-2.5v5z"/><path class="st5" d="M415.7 296.8v-46.2M628 360v49.4m56.9-49.4v49.4M228 276.4v-25.8"/><path class="st4" d="M677.7 407.6h-41.6"/><path d="M676.1 405.1l9.2 2.5-9.2 2.5v-5zm-38.3 0l-9.2 2.5 9.2 2.5v-5z"/><path class="st4" d="M444 353.6v-70"/><path d="M446.5 352l-2.5 9.2-2.4-9.2h4.9zm0-66.7l-2.5-9.2-2.4 9.2h4.9z"/><path class="st5" d="M410.3 276.1h36.6m-36.6 85.1h36.6"/><path class="st4" d="M710.7 193.5v-75.2"/><path d="M713.2 191.8l-2.5 9.2-2.5-9.2h5zm0-71.8l-2.5-9.2-2.5 9.2h5z"/><path class="st5" d="M677 110.8h36.6M677 201.4h36.6"/><path class="st4" d="M739 247.5v-183"/><path d="M741.5 245.8L739 255l-2.4-9.2h4.9zm0-179.6l-2.5-9.3-2.4 9.3h4.9z"/><path class="st5" d="M675.3 56.9h66.6M676.1 255h65.8"/><path class="st4" d="M627.5 29.2h41.6"/><path d="M629.2 31.7l-9.3-2.4 9.3-2.5v4.9zm38.2 0l9.3-2.4-9.3-2.5v4.9z"/><path class="st5" d="M676.7 58.8V26.3m-56.8 32.9V26.3"/></g><g id="Text_1_"><text transform="translate(305.27 246.68)" class="st6 st7">66.2</text><text transform="translate(293.27 270.68)" class="st6 st7">Controller</text><text transform="translate(647.27 399.751)" class="st6 st7">20</text><text transform="rotate(-90 383.22 -54.064)" class="st6 st7">30</text><text transform="rotate(-90 437.425 -266.503)" class="st6 st7"> 32</text><text transform="rotate(-90 450.64 -281.634)" class="st6 st7"> 70</text><text transform="translate(640.413 24.353)" class="st6 st7">20</text><text transform="translate(89.221 359.386)" class="st6 st7">Cable length 500</text><text transform="translate(736.6 418.051)" class="st6 st7">Not to scale</text><text transform="translate(736.6 433.451)" class="st6 st7">Dimensions in mm</text></g><text transform="translate(500.957 307.65)" class="st6 st7">For pin connection</text><text transform="translate(500.957 324.45)" class="st6 st7">(refer to</text><text transform="translate(500.957 341.25)" class="st6 st7">camera</text><text transform="translate(500.957 358.05)" class="st6 st7">specifications)</text></svg>