<svg style="background-color:#fff" version="1.1" id="Layer_1" xmlns="http://www.w3.org/2000/svg" x="0" y="0" viewBox="0 0 1000 340" xml:space="preserve"><style>.st0{fill:none;stroke:#000;stroke-miterlimit:3.864}.st1{fill-rule:evenodd;clip-rule:evenodd}.st2,.st3{fill:none;stroke:#000;stroke-miterlimit:3.864}.st2{stroke-linejoin:round}.st3{stroke-width:.5}.st5{font-family:Helvetica,Arial,sans-serif}.st6{font-size:18.005px}.st7{enable-background:new}.st13{font-size:18.953px}</style><path class="st0" d="M264.2 201.7h19.5"/><path class="st1" d="M264.2 190.1h19.5l-9.8 9.7-9.7-9.7z"/><path class="st2" d="M264.2 190.1h19.5l-9.8 9.7-9.7-9.7z"/><path class="st1" d="M322.6 196.6v-6l15.1 6-15.1 6v-6z"/><path class="st2" d="M298.3 203.9h20.6l-10.4-7.3h15.1"/><path class="st2" d="M243.6 165.4H394v62.9H243.6v-62.9z"/><path class="st0" d="M238.1 177.5H274l-.1-.4v39"/><path class="st2" d="M522.6 258.5h39.9m-194.5-41h138.9m-152.2-34.9v29.8m.1-8.6l13.6 13.6m-132.9-1.2h38.7m246.8-12V177m2 82.4v-27.3m38.9 26.7v-52.3m-194-29.7h286.7"/><path d="M516.4 178.2c0-2.7 2.2-4.9 4.9-4.9s4.9 2.2 4.9 4.9-2.2 4.9-4.9 4.9-4.9-2.2-4.9-4.9z"/><path class="st3" d="M516.4 178.2c0-2.7 2.2-4.9 4.9-4.9s4.9 2.2 4.9 4.9-2.2 4.9-4.9 4.9-4.9-2.2-4.9-4.9z"/><path class="st1" d="M358.4 214.2l6.9-6.9v6.9h-6.9z"/><path class="st2" d="M358.4 214.2l6.9-6.9v6.9h-6.9zm-3.7-23.6l13.6-13.6M507 202.7v29.9m.1-15.2l13.6 13.6"/><path d="M511.4 232.6l10.9-10.9v10.9h-10.9z" fill-rule="evenodd" clip-rule="evenodd" fill="#fff"/><path class="st2" d="M511.4 232.6l10.9-10.9v10.9h-10.9zM507 217l13.6-13.6"/><text transform="translate(473.639 207.646)" class="st5 st6">Q1</text><text transform="translate(662.778 33.619)" class="st7"><tspan x="0" y="0" class="st5 st6">6-pin</tspan><tspan x="0" y="21.6" class="st5 st6">receptacle</tspan></text><path class="st2" d="M654.8 68h32.5v182.6h-32.5V68z"/><text transform="translate(664.593 96.227)" class="st5 st6">1</text><text transform="translate(664.593 125.154)" class="st5 st6">2</text><text transform="translate(664.593 154.08)" class="st5 st6">3</text><text transform="translate(664.593 183.004)" class="st5 st6">4</text><text transform="translate(664.593 211.933)" class="st5 st6">5</text><text transform="translate(664.593 240.857)" class="st5 st6">6</text><path d="M15.6 70.1h639.2v248.7H15.6V70.1z" fill="none" stroke="#000" stroke-width=".5" stroke-linejoin="round" stroke-miterlimit="3.864" stroke-dasharray="8,4"/><text transform="translate(33.694 108.057)" font-size="22.744" font-family="Helvetica,Arial,sans-serif" font-weight="700">Camera</text><text transform="translate(274.155 157.202)" class="st5 st6">Optocoupler</text><path class="st2" d="M560.8 206.5h94.3"/><path d="M135.7 216.1h99.8" fill="none" stroke="#000" stroke-width=".9" stroke-linejoin="round" stroke-miterlimit="3.864" stroke-dasharray="8,4"/><path d="M135.7 177.4h102.6" fill="none" stroke="#000" stroke-linejoin="round" stroke-miterlimit="3.864" stroke-dasharray="8,4"/><text transform="translate(53.672 190.659)" class="st7"><tspan x="0" y="0" class="st5 st13">Further</tspan><tspan x="0" y="22.7" class="st5 st13">circuitry</tspan></text><path class="st0" d="M783 310V206"/><path class="st2" d="M783.4 206.5h-96.1M792 310h-17.9m3.3 3.8h11.3m-8.8 3.9h6.3"/><path class="st1" d="M851.3 176.8v-6l16.2 6-16.2 6v-6z"/><path d="M852.4 176.8H687.3" fill="none" stroke="#000" stroke-width="1.001" stroke-linejoin="round" stroke-miterlimit="3.864"/><path class="st0" d="M782.8 176.2V48.1"/><path d="M773.6 95.2h19.5v58.5h-19.5V95.2z" fill="#fff"/><path class="st0" d="M773.6 95.2h19.5v58.5h-19.5V95.2z"/><path d="M778.1 176.9c0-2.7 2.2-4.9 4.9-4.9s4.9 2.2 4.9 4.9-2.2 4.9-4.9 4.9-4.9-2.2-4.9-4.9z"/><path class="st3" d="M778.1 176.9c0-2.7 2.2-4.9 4.9-4.9s4.9 2.2 4.9 4.9-2.2 4.9-4.9 4.9-4.9-2.2-4.9-4.9z"/><text transform="translate(876.732 160.522)" class="st7"><tspan x="0" y="0" class="st5 st6">Voltage</tspan><tspan x="0" y="21.6" class="st5 st6">output</tspan><tspan x="0" y="43.2" class="st5 st6">signal</tspan></text><path class="st2" d="M972.4 310h-17.9m3.3 3.8h11.3m-8.8 3.9h6.3"/><path class="st0" d="M782.6 48.8V22.3h180.8V310"/><text transform="translate(885.33 71.232)" class="st5 st6">3.3–24</text><text transform="translate(896.33 90.532)" class="st5 st6">VDC</text><path d="M975.7 73.2c0 7-5.7 12.6-12.6 12.6s-12.6-5.7-12.6-12.6c0-7 5.7-12.6 12.6-12.6s12.6 5.7 12.6 12.6z" fill-rule="evenodd" clip-rule="evenodd" fill="#fff" stroke="#000" stroke-linejoin="round" stroke-miterlimit="3.864"/><path class="st2" d="M956.1 71.2H970m-13.9 4H970"/><text transform="translate(966.086 58.392)" class="st5 st13">+</text><text transform="translate(966.045 100.122)" class="st5 st13">-</text><path class="st0" d="M601.4 176.8v29.7"/><path class="st1" d="M611.1 197.8h-19.5l9.8-11.5 9.7 11.5z"/><path d="M611.1 197.8h-19.5l9.8-11.5 9.7 11.5z" fill="none" stroke="#000" stroke-width=".003" stroke-linejoin="round" stroke-miterlimit="3.864"/><path d="M595.6 186.7H607m-.3-.1l3.4 3.4m-17.6-6.5l3.4 3.4" fill="none" stroke="#000" stroke-width=".85" stroke-miterlimit="3.864"/><path d="M596.5 176.8c0-2.7 2.2-4.9 4.9-4.9s4.9 2.2 4.9 4.9-2.2 4.9-4.9 4.9-4.9-2.2-4.9-4.9z"/><path class="st3" d="M596.5 176.8c0-2.7 2.2-4.9 4.9-4.9s4.9 2.2 4.9 4.9-2.2 4.9-4.9 4.9-4.9-2.2-4.9-4.9z"/><path d="M596.4 206.5c0-2.7 2.2-4.9 4.9-4.9s4.9 2.2 4.9 4.9-2.2 4.9-4.9 4.9-4.9-2.2-4.9-4.9z"/><path class="st3" d="M596.4 206.5c0-2.7 2.2-4.9 4.9-4.9s4.9 2.2 4.9 4.9-2.2 4.9-4.9 4.9-4.9-2.2-4.9-4.9z"/></svg>