<svg style="background-color:#fff" version="1.1" id="Ebene_1" xmlns="http://www.w3.org/2000/svg" x="0" y="0" viewBox="0 0 583.9 272.1" xml:space="preserve"><style>.st0,.st1{fill:none;stroke:#000}.st0{stroke-linecap:round;stroke-linejoin:round;stroke-miterlimit:10;stroke-width:.4252}.st1{stroke-width:.2835}.st1,.st8{stroke-miterlimit:10}.st8,.st9{fill:none;stroke:#000;stroke-width:.2835;stroke-linecap:round;stroke-linejoin:round}.st11{fill:#020203}.st12{font-family:Helvetica,Arial,sans-serif}.st13{font-size:16px}.st14{font-size:12px}.st15{font-size:11.9906px}</style><g id="lens"><path class="st0" d="M245.1 119.2l1.9-1.9m-11.5 1.9l11.6-11.6m-21 11.6l21.3-21.5m-30.9 21.5l33.3-33.4m-42.9 33.4l32.9-33m1.4-1.2l1.9-2m-45.7 36.2l40.4-40.4m-49.9 40.4l51.8-51.9m-97.3 30.6l41.3-41.4m-41.2 31.6l31.7-31.6m-37 27.3l27.4-27.3m-34.5 25l25-25m-33.8 24.2l24.3-24.2m-32.9 23.4l22.6-22.7m-28 18.4L112 71m1.3-1.4l12.5-12.4m-22.9 13.3l7.5-7.5m2.8-2.8l3-3m-15.1 5.7l5.2-5.4m-14.8 5.4l5.2-5.4m81.6 61.7l17.5-17.6m7.5-7.4L232 65.5m-63.3 53.7l17.5-17.6m17.1-16.8l24.5-24.7m-68.6 59.1l17.6-17.6M198 80.4l22.8-22.9m-71.1 61.7l17.5-17.6m21.2-21.2l23-22.9m-71.2 61.6l22.7-22.7m16.1-16l23.8-23.9m-62.1 52.6l22.2-22.2m6.5-6.5l23.9-23.9M77.7 180.9l-5.4-5.4m14.9 5.4l-6.7-6.8m8.5-1l-6.3-6.4m10.3.8l-6.1-6.1m30 20.6l-3.7-3.8m-10.8-10.7l-8.9-9m63.9 54.2l-9.2-9.1M126.4 182l-13.2-13.3m-1.2-1.2l-9.7-9.8m62.9 53.3l-17-17M136 182l-25.8-25.8m55 45.3l-12.8-12.8m-6.8-6.7l-29.7-29.7m45 35.3l-38.1-38m41.8 32.4l-44.1-44.2m53.7 44.2l-54.9-55m113 46.2l-.8-.8m8.2-10.8l-42.3-42.4m45.7 36.2l-1.9-2.1m-1.4-1.2l-32.9-32.9m42.9 33.3l-33.3-33.3m30.9 21.5l-21.3-21.5m21 11.6l-11.6-11.6m11.5 1.9l-1.9-1.9M183.7 182l-27.6-27.7m-5.9-6L121 119.2m72.3 62.8l-27.6-27.7m-15.5-15.5l-19.6-19.6m72.2 62.8l-27.6-27.7M154 133.1l-13.9-13.9m71.3 61.7l-26.6-26.6m-21.2-21.2l-13.9-13.9m71.1 61.7l-26.5-26.6M173 133.1l-13.8-13.9m68.6 59.1l-24.5-24.6m-20.7-20.6l-13.9-13.9m62.5 52.9l-27.9-27.9m-11.1-11.1l-13.9-13.9m61.4 52l-36.4-36.5m-1.7-1.6l-13.7-13.9m-43.3-31.1c0 .2-.1.3-.1.5"/><path class="st0" d="M144.5 88.5v-.9l.2.5m94.9-6.3l-1.8-1.8m0 0l-.1-3.2m0 0l1.9-1.8v-2l.1-.1v-6.4l-1.2-1.3h-.3l-.5 1.3-.7-1.3h-1.3l-.6 1.3-.7-1.3h-1.2l-.7 1.3m0 0l-.6-1.3m0 0h-1.2l-.7 1.3m0 0l-.7-1.3m-115.7-8l-.4.3v12.1h.3m115.8-4.4h-1.5v-5.5l-2.1-2.2h-14.8l-1-1h-26.4l-1 1v.1l-1.1-1.1h-40.1l-1 1-.2-.3m-26.6 12.4V71"/><path class="st0" d="M113.5 71h-3.1V57.5h-17l-2.2 2.2v3.2h10.7v7.6h2.1V73h2.1v2.6h2.1v2.5h4.3v1.8h6.4v.8h6.3v.8h6.4v2h5.6v2.6l7.2 2.8m0 0c-2.8 9.9-4.1 20.1-4.2 30.3m0 0H247m0 0l.1-13.5.6-13.6"/><path class="st0" d="M247.7 92.1v-.3.7h1.3l.8-1v-6.3l-2.1-2.2h-6.5v3.2h-1.5V84l-.1-.3v-1.9M113.2 71v-1.4m1.1-13.1l-.4.5-.3.2m26.5 0l-.3-.2-.4-.5m0 0h-25.1m125.4 16.4V84 72.9m-1.9 6.3v.8m-.1-2.5l.1 1.7m-.1-2.4v.7m1.9-2.5v6.8m7.4 37.4h.5"/><path class="st0" d="M249.8 91.5v27.7h-.8V92.5m-1.5 26.7h1.5m-1.3-22.3l.1 2v20.3M137.2 86.1l-1.2-.4v33.5"/><path class="st0" d="M133.9 119.2V83.5h3.3m-3.3 2.2h2.1m-4.4 33.5V83.5m-6.4 35.7V81.5m-6.3 37.7V80.7m-6.4 38.5V79.9m-4.3 39.3V78.1m-2.1 41.1V75.6m-2.1 43.6V73m-2.1 46.2V70.5m-10.7 48.7V62.9m156.5 34v-4.4m-8.1-15h-1.9m1.9 0h-1.9m1.9 1.7h-1.8m0 0h1.8M113.2 57.5l.4-.3m26.7.3l-.2-.3m-26.9 123.7l1.1 1.1h25.1l.9-1.1 1 1.1h11.1v9.5h-3l-1.2 1.3v18.7l1.2 1.2h14.4l1.4-1.2v-18.7l-1.4-1.3h-2.9V182h20.5l1.1-1.3v.2l1 1.1h26.4l1-1.1h14.8l2.1-2.2v-5.5h.3m0 0l.5-1.2.7 1.2m0 0h1.4l.5-1.2m0 0l.7 1.2m0 0h1.3m0 0l.6-1.2m0 0l.6 1.2h1.4m0 0l.5-1.2.7 1.2m0 0h1.5l1.2-1.2v-19.9h1.5v3.3h6.5l2.1-2.2v-6.3l-.8-1h-1.3v1.9"/><path class="st0" d="M247.7 147.8l-.4-14.3-.3-14.3m0 0H118.9m0 0c0 10.2 1.4 20.4 4.1 30.3m.1.1l-7.2 2.7v2.7h-5.7v1.9h-6.3v.8h-6.4v.8h-6.3v1.7h-4.3v2.6h-2.2v2.6h-2v2.5h-2.2v7.6H69.9v3.2l2.1 2.2h17v-13.4h24.2m0-.1v1.5m0-.2v12.2m135.8-35v-26.7h-1.2m-.1 26.7v-26.7m-135.2 35.6h3.4"/><path class="st0" d="M110.2 155v-35.8h2.3m-42.6 56.3v-56.3h12.8m-2.2 48.7v-48.7m2.2 46.2v-46.2h4.2m-2.2 43.6v-43.6m2.2 41v-41h10.6m-6.3 39.3v-39.3m6.3 38.5v-38.5h12.7m-6.3 37.7v-37.7m12 33.1l-1.2.4v-33.5h4.2m-6.4 35.6v-35.6h2.2m0 33.5h-2.2m.7 16v-1.2m136.6-20.6v-27.7h-.8m-2 0h.5m-107.2 61.7l-.9 1.1h-25.1l-1.1-1.1M443.7 56.8c-23.4 0-44.8 13-55.6 33.7m-2.8 6.2c-3 7.7-4.4 15.8-4.3 24m.3 5.4c.1 1.1.3 2.2.4 3.4m1.2 5.2l.9 3.3m1.8 5c.4 1 .9 2.1 1.3 3.1m2.5 4.8c.6 1 1.1 1.9 1.8 2.9m3.1 4.3c.7.9 1.4 1.7 2.1 2.6m3.8 3.9c.8.8 1.6 1.5 2.5 2.3m4.2 3.4c.9.7 1.8 1.3 2.7 1.9m4.7 2.7l3 1.5m5 2c1 .4 2.1.7 3.2 1.1m5.2 1.3l3.3.6m5.3.7c1.1.1 2.2.1 3.3.1M381 120.8c0 1.8.1 3.6.3 5.3"/><path class="st0" d="M443.7 60c-32.8 0-59.5 26.6-59.5 59.5 0 32.8 26.6 59.5 59.5 59.5"/><path class="st0" d="M443.7 57.9c-34 0-61.6 27.6-61.6 61.6s27.6 61.6 61.6 61.6m.1-123.2v-1m-53.9 30.5c-2.4 4-4.4 8.3-5.8 12.8"/><path class="st0" d="M443.7 89.2c-16.7 0-30.3 13.6-30.3 30.3s13.6 30.3 30.3 30.3m.1-60.6c16.7 0 30.3 13.6 30.3 30.3s-13.6 30.3-30.3 30.3m-33.1-32.4h-.6m.5 0c-.1 1.4-.1 2.8 0 4.3m-.5 0h.6m-.5-.1c1.1 17.7 15.8 31.4 33.5 31.4m-33.6-31.3h-2M443.7 86c-17.7 0-32.4 13.8-33.5 31.4m-2.1 0h2"/><path class="st0" d="M443.7 83.8c-19.7 0-35.7 16-35.7 35.7s16 35.7 35.7 35.7"/><path class="st0" d="M443.7 81.9c-20.8 0-37.6 16.8-37.6 37.6s16.8 37.6 37.6 37.6"/><path class="st0" d="M443.7 80.1c-21.7 0-39.4 17.6-39.4 39.3s17.6 39.4 39.3 39.4"/><path class="st0" d="M443.7 78.5c-22.6 0-41 18.3-41 41 0 22.6 18.3 41 41 41"/><path class="st0" d="M443.7 76c-24 0-43.5 19.5-43.5 43.5s19.5 43.5 43.5 43.5"/><path class="st0" d="M443.7 73.4c-25.5 0-46.1 20.6-46.1 46.1s20.6 46.1 46.1 46.1"/><path class="st0" d="M443.7 70.8c-26.9 0-48.7 21.8-48.7 48.7s21.8 48.7 48.7 48.7"/><path class="st0" d="M443.7 63.1c-31.1 0-56.4 25.2-56.4 56.4 0 31.1 25.2 56.4 56.4 56.4m-9.7 5.7c1.8.3 3.5.5 5.3.6m-5.3-.7l-.6-.6-.9-.3h-1l-.8.4m-5.2-1.4c1.7.5 3.4 1 5.2 1.3m-5.2-1.3l-.5-.8-.8-.4-1.1-.1-.8.3m-5-2.1c1.6.8 3.3 1.4 4.9 2m-4.9-2l-.4-.8-.8-.6-1-.3-.8.1m-4.7-2.6c1.5 1 3 1.9 4.6 2.7m-4.6-2.8l-.3-.8-.6-.7-1-.4h-.8m-4.3-3.3c1.3 1.2 2.7 2.3 4.2 3.3m-4.1-3.3l-.3-.9-.5-.8-.8-.5-1-.1m-3.7-3.8c1.2 1.3 2.4 2.6 3.7 3.9m-3.6-3.9l-.1-1-.4-.9-.8-.6-.9-.2m-3.1-4.3c1 1.5 2 2.9 3.1 4.4m-3.1-4.4v-1l-.2-.9-.8-.7-.9-.4m-2.4-4.7c.8 1.6 1.6 3.2 2.5 4.7m-2.5-4.7l.2-.8-.2-1-.5-.8-.8-.5m-1.8-5c.5 1.7 1.1 3.4 1.8 5m-1.8-5l.3-.8v-1.1l-.6-.8-.6-.6m-1.1-5.2c.3 1.8.6 3.5 1.1 5.2m-1.1-5.2l.4-.9.1-.9-.4-.9-.5-.7m-.4-5.4l.5-.7.3-.9-.3-1.1-.5-.7m.4-5.3c-.2 1.8-.4 3.6-.4 5.3m.5-5.4l.6-.5.4-1-.2-1.1-.4-.8m1.2-5.1c-.5 1.7-.8 3.5-1.2 5.2m13-28.4c-1.1 1.4-2.2 2.8-3.2 4.3m3.2-4.5l.8-.1.8-.7.5-.8v-.9m3.8-3.7c-1.3 1.2-2.6 2.5-3.7 3.8m3.7-3.9l1-.1.8-.4.7-.8.1-1m4.2-3.2c-1.5 1-2.9 2.1-4.2 3.3m4.3-3.3h.8l1-.3.6-.8.4-.8m4.6-2.6c-1.6.8-3.1 1.7-4.7 2.6m4.7-2.6l1 .1.9-.2.8-.7.4-.7m5-1.9c-1.7.6-3.3 1.2-5 2m5-2.1l.8.3 1-.2.9-.4.6-.6m5.1-1.3c-1.8.3-3.5.8-5.2 1.3m5.2-1.4l.8.4h1.1l.8-.3.7-.6m5.3-.5c-1.8.1-3.6.3-5.3.5m5.4-.6l.7.6.9.1.9-.3.9-.4m-60.7 46.6l.7-.5.4-1 .2-.9-.3-.8m5.8-12.9l.8-.4.7-.6.4-1v-.9m51 97.8l-.8-.5-.9-.3-1 .2-.8.5m3.4.1h1"/><path class="st0" d="M382.1 119.6c0 16.3 6.5 32 18 43.6s27.2 18.1 43.6 18.1m-58.4-84.5l-.4-.2m0-.1l.4.1m2.8-6.1l-.4-.1-2.8 6.1v.1m118.8-46.7l10.1 10.3m-11.9-10.3h.7v.1h-.5m0 0l.4.4m0 0h.5l.2.2-.5.1m0 0l.9.8m0 0h.5l.3.3-.4.1m0 0l1 1.1m0 0h.6l.3.3-.5.3m0 0l1.4 1.2m0 0l.4-.2.3.3-.2.4m0 0l1.3 1.4m0 0l.4-.2.2.3v.4m0 0l1.2 1.3m0 0l.3-.4.3.3v.6m0 0l.9 1m0 0l.3-.4.1.3v.5m0 0l.8.8m0 0l.2-.5.1.1v.7m0 0l.4.4m0 0v-.7.7m-25.2 3l10.2 10.3m-3.5-5.3l-.2.3.4.4m-1.5-2.1l1.3 1.4m-1.3-1.4l-.4.2-.3-.3.1-.4m-1.2-1.4l1.2 1.4m-1.2-1.4l-.3.5-.2-.3v-.6m-1.1-1l1.1 1m-1.1-1l-.1.4-.3-.3v-.7m-.8-.7l.8.7m-.8-.7v.5l-.2-.2-.1-.5m-.4-.4l.4.4m-.4-.4v.5-.7m-.1-.1l.1.1m11.9 12.1h-.7V75h.6m-.5-.4l.5.4m-.5-.4h-.5l-.1-.1.4-.2m-.7-.6l.7.6m-.7-.6h-.7l-.1-.3.4-.1m-1.1-1.1l1.1 1.1m-1.1-1.1h-.5l-.3-.3.3-.3m-1.2-1.2l1.2 1.2m-1.2-1.2l-.4.2m41.8 56.1v-14.4m-1.3-1.1l.4.5-.4-.2m0 .8v-.8m0 .8l.4.4v.3l-.4-.3m0 1.2v-1.2m0 1.2l.4.4v.4l-.4-.1m0 1.6v-1.6m0 1.6l.4.3v.4h-.4m0 1.9v-1.9m0 1.9l.4.1v.4l-.4.3m0 1.7v-1.7m0 1.7l.4.2v.4l-.4.2m0 0v1.8m0 0l.4-.1v.4l-.4.4m0 0v1.3m0 0l.4-.3v.3l-.4.6m0 0v.9m0 0l.4-.4v.1l-.4.6m0 0v.4m0 0l.4-.4-.4.4m-20-1.4v-14.4m1.3 11.6l-.5-.1v.4m.5-2.1v1.8m0-1.8l-.5-.2v-.4l.5-.2m0 0v-1.7m0 0l-.5-.3v-.4l.5-.1m0 0v-1.9m0 0h-.5v-.4l.5-.3m0 0v-1.6m0 0l-.5.1v-.4l.5-.4m0 0v-1.2m0 0l-.5.3v-.3l.5-.4m0 0v-.8m0 0l-.5.2.5-.5m0 16.9l-.5-.4.5.4m0-.4v.4m0-.4l-.5-.6v-.1l.5.4m0-.9v.9m0-.9l-.5-.6v-.3l.5.3m0-1.3v1.3m0-1.3l-.5-.4m-73.1 31c19.7 0 35.7-16 35.7-35.7s-16-35.7-35.7-35.7"/><path class="st0" d="M443.7 181.1c34 0 61.6-27.6 61.6-61.6s-27.6-61.6-61.6-61.6"/><path class="st0" d="M443.7 175.9c31.1 0 56.4-25.2 56.4-56.4 0-31.1-25.2-56.4-56.4-56.4"/><path class="st0" d="M443.7 168.2c26.9 0 48.7-21.8 48.7-48.7s-21.8-48.7-48.7-48.7"/><path class="st0" d="M443.7 165.6c25.5 0 46.1-20.6 46.1-46.1s-20.6-46.1-46.1-46.1"/><path class="st0" d="M443.7 163c24 0 43.5-19.5 43.5-43.5S467.7 76 443.7 76"/><path class="st0" d="M443.7 160.5c22.6 0 41-18.3 41-41 0-22.6-18.3-41-41-41"/><path class="st0" d="M443.7 158.9c21.7 0 39.4-17.6 39.4-39.3s-17.6-39.4-39.3-39.4"/><path class="st0" d="M443.7 157.1c20.8 0 37.6-16.8 37.6-37.6s-16.8-37.6-37.6-37.6m33 39.8h.5m-.4-.1c.1-1.4.1-2.8 0-4.3m-20.3 63.6c1.1-.2 2.2-.5 3.2-.8m5.2-1.6c1-.4 2.1-.8 3.1-1.2m4.9-2.3c1-.5 2-1.1 2.9-1.6m4.5-3c.9-.6 1.8-1.3 2.7-2m4-3.6l2.4-2.4m3.5-4.1c.7-.9 1.4-1.8 2-2.7m2.9-4.5c.6-1 1.1-2 1.6-2.9m2.3-4.9c.4-1 .8-2.1 1.2-3.2m1.6-5.1c.3-1.1.5-2.2.7-3.3m.8-5.3c.1-1.1.2-2.3.3-3.4m.1-3.5c0-11.8-3.3-23.4-9.6-33.4m-4-5.5c-11.9-15-30-23.8-49.1-23.8m0 125.5c4.3 0 8.6-.4 12.8-1.3m22.9-59.3h-2.2M443.7 153c17.7 0 32.4-13.8 33.5-31.4m0-4.2C476 99.7 461.4 86 443.7 86m33.5 31.4h2.2"/><path class="st0" d="M443.7 179c32.8 0 59.5-26.6 59.5-59.5 0-32.8-26.6-59.5-59.5-59.5m.1-2.9l.2-.2"/><path class="st0" d="M443.7 181.3c16.3 0 32-6.5 43.6-18.1s18.1-27.2 18-43.6"/><path class="st0" d="M459.8 180.2l-.8-.3h-1.1l-.8.4-.7.7m3.4-.8c1.7-.5 3.4-1 5.1-1.6m3.2-1.3l-.9-.1-.9.1-.9.6-.5.7m3.1-1.2c1.6-.7 3.3-1.5 4.8-2.3m3.1-1.7l-.8-.1-1.1.3-.7.6-.4.9m3-1.6c1.5-.9 3-1.9 4.5-2.9m2.6-2.2h-.8l-.9.4-.7.9-.3.8m9.2-8l-.9.1-.8.6-.6.8-.1.9m8-9.2l-1 .3-.7.6-.4.9v.9m2-2.7c1-1.5 2-3 2.9-4.5m1.6-3l-.8.4-.7.8-.2.9.1.9m1.6-3c.8-1.6 1.6-3.2 2.2-4.9m1.3-3.2l-.8.5-.5.8-.2 1.1.3.8m1.1-3.1c.6-1.7 1.1-3.4 1.5-5.1m.9-3.4l-.7.6-.4.9v.9l.3.9m.7-3.2c.3-1.8.6-3.5.8-5.3m.4-3.4l-.7.7-.3.9.2.9.5.9m.2-3.4c.1-1.8.1-3.6.1-5.3m-.1-3.5l-.6.7-.1 1.1.3.9.5.7m-.2-3.4c-.2-1.8-.4-3.5-.7-5.3m-.6-3.3l-.4.8v.9l.4 1 .7.5m-.8-3.2c-.4-1.7-.9-3.5-1.4-5.2m-1.1-3.2l-.2.8.1.9.5 1 .7.4m-1.1-3.1c-.6-1.7-1.3-3.3-2.1-4.9m-1.5-3.1l-.1.8.2 1.1.6.7.8.4m-1.6-2.9c-2.3-4.1-5-8-8.1-11.5m-2.3-2.6l.1.9.5.8.9.6.8.3m-2.4-2.5c-1.3-1.3-2.6-2.5-3.9-3.6m-2.6-2.2l.2.8.7.8.8.4 1 .2m-2.8-2.2c-1.4-1.1-2.9-2.1-4.4-3m-2.8-1.8l.4.8.6.6 1 .4.9-.1m-3-1.6c-1.6-.9-3.2-1.7-4.8-2.4m-3.1-1.4l.5.7.8.7 1 .1.8-.1m-3.1-1.4c-1.7-.6-3.4-1.2-5.1-1.7"/><path class="st0" d="M457.9 58.5l.7.7.8.4h1.1l.8-.2m-3.4-.8c-1.7-.4-3.5-.7-5.3-1m-3.3-.5l.7.6.9.3h1.1l.7-.5m-3.4-.3c-1.8-.2-3.6-.2-5.3-.3m73.3 54.6H536m-18.7.8H536m-18.7.4H536m-18.7 1.2H536m-18.7.7H536m-18.7 1.6H536m-18.7.7H536m-18.7 1.9H536m-18.7.8H536m-18.7 1.7H536m-18.7.8H536m-18.7 1.8H536m-18.7.7H536m-18.7 1.3H536m-18.7.6H536m-18.7.9H536m0 .7h-18.7H536m-19.2-1h.3m19.1 0h.2m-19.6-1.2h19.6m-19.6-9h19.6m-19.6-4.2h.5m18.7 0h.4m-.2-1h.2m-47.7-48.4L502.1 50m-13 13.7l13.4-13.3m-13.1 13.5l13.3-13.2m-12.5 13.9l13.4-13.1m-13 13.7L504 51.9m-12.3 14.3L505 53m-12.8 13.6l13.2-13m-12 14.4l13.4-13.2M494 68.5l13.3-13.2m-12 14.6l13.3-13.2m-12.7 13.7l13.3-13.2m-12.1 14.4l13.3-13.1m-12.8 13.7L511 59m-12.3 14.3L511.9 60m-12.8 13.7l13.2-13.3m-12.5 13.9l13.3-13.1M500 74.6l13.4-13.1m-13.5 13.7l.1-.2m-.5-.4l.1-.1M513.1 61l.3-.2m-24.2 3.4l.2-.1m13.5-13.4l.1-.3m-.5-.4l.1-.1M497.2 86l-3.4-4.8-.2.3m-.4-.5l.2-.3-.1-.4m.1.4l.4.5m-41 100.5v.4h.1m-6.7.5l6.2-.5-.1-.4m.5.4h-.4m61.4-121.9v1.7m-10.1-12h-1.8m-13.3 15V63m10.2 12.2h1.8m-15.4-2.7l5.5-5.6m.4 11.6l5.6-5.5m40.6 53.7l-1.3 1.4m1.3-15.8l-1.3-1.2m-20 1.2l1.3-1.2m-1.3 15.6l1.3 1.4m-11-12.9h9.7m-9.7 8.6h9.7m1.3-12.7H536m-18.7 17H536M488.6 63l13.3-13.1m-1.3 25.3l13.2-13.3m-17 24.3l.4-.2m-4.3-5.4l.4-.3m-40.4 101.4v.4m-6.7.1v.4m81.4-21.3l1.2-2.9m.7-1.4l.1-.2m.6-1.5l.8-1.7 1.4-4.2m.6-1.5v-.1m.5-1.5l.3-.7 1.3-5.4m.5-1.6v-.3m.4-1.5l.9-6.2m.3-1.4v-.3m.1-1.6l.3-6.2m0-1.7v-.2m0-1.7l-.2-5.5-.1-.7m-.1-1.6v-.3m-.3-1.4l-.4-4.4-.4-1.9m-.4-1.4v-.3m-.3-1.6l-.7-3.1-.9-3m-.4-1.5l-.1-.3m-.4-1.4l-.7-1.9-1.6-3.9m-.6-1.5l-.1-.3m-.6-1.5l-.2-.7-2.6-4.8m-1.6-3l-3.4-5.4m-.8-1.3l-.3-.2m-.9-1.2l-3.8-5m-2.3-2.6l-3.8-4-.5-.5m-1.2-1l-.2-.3m-1.2-.9l-3.2-3-1.5-1.2m-1.3-.8l-.2-.3m-1.2-.9l-2.6-1.9M483 168.4c1.5-.9 2.7-2.4 4.1-3.4m2.3-2.6c1.5-.9 2.7-2.7 3.6-4"/></g><g id="Mittellinien"><path class="st1" d="M370.7 119.6h7.1"/><path d="M380.7 119.6h2" fill="none" stroke="#000" stroke-width=".283" stroke-miterlimit="10" stroke-dasharray=".5719,2.8596"/><path d="M384.1 119.6h122.1" fill="none" stroke="#000" stroke-width=".283" stroke-miterlimit="10" stroke-dasharray="14.2981,2.8596,.5719,2.8596"/><path class="st1" d="M507.6 119.6h7.1m-459.8-.4H62"/><path d="M64.7 119.2h1.9" fill="none" stroke="#000" stroke-width=".283" stroke-miterlimit="10" stroke-dasharray=".5444,2.722"/><path d="M68 119.2h175" fill="none" stroke="#000" stroke-width=".283" stroke-miterlimit="10" stroke-dasharray="13.6101,2.722,.5444,2.722"/><path class="st1" d="M244.4 119.2h7.1M443.8 48v7.1"/><path d="M443.8 57.8v1.9" fill="none" stroke="#000" stroke-width=".283" stroke-miterlimit="10" stroke-dasharray=".546,2.7301"/><path d="M443.8 61.1v136.2" fill="none" stroke="#000" stroke-width=".283" stroke-miterlimit="10" stroke-dasharray="13.6504,2.7301,.546,2.7301"/><path class="st1" d="M443.8 198.7v7.1"/></g><g id="Bemassung"><path class="st1" d="M18.6 65.2V173"/><path d="M16.1 66.9l2.5-9.3 2.4 9.3h-4.9zm0 104.4l2.5 9.2 2.4-9.2h-4.9z"/><path class="st1" d="M43.8 70.9v96.3"/><path d="M41.4 72.5l2.4-9.2 2.5 9.2h-4.9zm0 93l2.4 9.2 2.5-9.2h-4.9z"/><path class="st8" d="M70.4 175.3H39.8M91.2 63H39.8m53.4-5.5h-79m57.9 123H14.2"/><path class="st9" d="M291.5 72.9v92.5"/><path d="M289 74.6l2.5-9.3 2.4 9.3H289zm0 89.2l2.5 9.2 2.4-9.2H289z"/><path class="st8" d="M238 64.9h58.8m-59.1 108.3h59.1"/><path class="st9" d="M221 232H78.2"/><path d="M219.3 229.5l9.2 2.5-9.2 2.5v-5zm-139.4 0l-9.2 2.5 9.2 2.5v-5z"/><path class="st9" d="M256.7 232h21"/><path d="M258.4 234.5l-9.2-2.5 9.2-2.5v5z"/><path class="st8" d="M249.7 152.6v83.6"/><path class="st9" d="M293.8 256.3H236"/><path d="M292.1 253.8l9.2 2.5-9.2 2.5v-5zm-54.4 0l-9.2 2.5 9.2 2.5v-5z"/><path class="st8" d="M227.6 178.8v81.7"/><path class="st9" d="M294 17.3h-36.4"/><path d="M292.3 14.8l9.2 2.5-9.2 2.5v-5zm-33 0l-9.3 2.5 9.3 2.5v-5z"/><path class="st9" d="M268 42.5h-20.7"/><path d="M249 40.1l-9.3 2.4L249 45v-4.9z"/><path class="st9" d="M200.7 42.5h19.9"/><path d="M218.9 45l9.2-2.5-9.2-2.4V45z"/><path class="st8" d="M302.1 260.5V13.9m-62.3 28.6h-11.9M250 17.3h-22.1m-.1 41.8V13m11.9 53.3V38.4m10 47.3V13"/><path class="st9" d="M220.7 17H99.4"/><path d="M219 14.6l9.2 2.4-9.2 2.5v-4.9zm-117.9 0L91.9 17l9.2 2.5v-4.9z"/><path class="st8" d="M91.1 59.5V14"/><path class="st9" d="M306.5 106.4l26.3-71.1h5.2"/><path d="M309.4 105.7l-5.5 7.7.8-9.5 4.7 1.8z"/><path class="st8" d="M69.9 178.7v57.5m179.3-4.2h-22.4"/><path d="M298.9 114.8l7 7m-7 0l7-7m-7 0l7 7m-7 0l7-7" fill="none" stroke="#000" stroke-width=".992" stroke-miterlimit="10"/><path class="st1" d="M540.8 155.6l6.6 3h34.7"/><path d="M541.5 159.5l-9.8-8 12.5 2-2.7 6z"/></g><g id="Text"><text transform="matrix(1 0 -.00479 1 162.41 148.937)" class="st11 st12 st13">Mod</text><text transform="rotate(-90 73.055 58.375)" class="st11 st12 st14">Ø 29</text><text transform="rotate(-90 213.872 -58.865)" class="st11 st12 st14">1-32 UN-2A</text><text transform="rotate(-90 218.722 -68.415)" class="st11 st12 st14">(C-mount)</text><text transform="rotate(-90 95.1 54.574)" class="st11 st12 st14">M27 x 0.5</text><text transform="translate(140.62 13.46)" class="st11 st12 st14">32.1</text><text transform="translate(265.32 13.46)" class="st11 st12 st14">12.3</text><text transform="translate(200.36 38.853)" class="st11 st12 st14">2.8</text><text transform="translate(342.315 37.843)" class="st11 st12 st14">Sensor position</text><text transform="translate(230.602 228.247)" class="st11 st12 st14">5.2</text><text transform="translate(137.927 228.28)" class="st11 st12 st14">37.1</text><text transform="translate(246.624 253.494)" class="st11 st12 st14">17.526</text><text transform="translate(248.024 266.994)" class="st11 st12 st14">(in air)</text><text transform="translate(174.397 96.053)" class="st11 st12 st13">Inf.</text><text transform="translate(552.159 155.424)" class="st11 st12 st14">R22.1</text><text transform="translate(230.56 13.46)" class="st11 st12 st14">5.2</text></g><text transform="translate(483.99 252.22)" class="st12 st15">Not to scale</text><text transform="translate(483.76 267.62)" class="st12 st15">Dimensions in mm</text></svg>