<svg version="1.1" id="Ebene_1" xmlns="http://www.w3.org/2000/svg" xmlns:xlink="http://www.w3.org/1999/xlink" x="0" y="0" viewBox="0 0 422 463" style="background-color:#fff" xml:space="preserve"><style>.st0{fill:#f6f6f6}.st0,.st1,.st2,.st3{clip-path:url(#SVGID_2_)}.st1{stroke:#000;stroke-width:.6;stroke-linecap:round;stroke-linejoin:round;stroke-miterlimit:10;fill:none}.st2{fill:#fff}.st3{fill:none;stroke:#1a171b;stroke-width:.6;stroke-linecap:round;stroke-linejoin:round;stroke-miterlimit:10}.st5{font-family:Helvetica,Arial,sans-serif}.st6{font-size:10px}.st7,.st8{fill:none;stroke:#000;stroke-width:.3;stroke-linecap:round;stroke-linejoin:round}.st8{stroke-width:.228;stroke-miterlimit:10}.st12{font-size:14px}</style><defs><path id="SVGID_1_" d="M-101-33.3h841.9V562H-101z"/></defs><clipPath id="SVGID_2_"><use xlink:href="#SVGID_1_" overflow="visible"/></clipPath><path class="st0" d="M383.6 327.4v-161H80.5v185.8h43v-22.4c0-1.1.9-2.1 2.1-2.1h49.2c2 0 3.6 1.6 3.6 3.6v20.9H202v-19.8c.4-2.4 2.2-4.2 4.6-4.6 3-.5 5.8 1.6 6.3 4.6v31l1.9 1.9h29.4l2-2V343c0-1.4 1.2-2.6 2.6-2.6 1.4 0 2.6 1.2 2.6 2.6v20.4l1.9 1.9h17.6l1.9-1.9V331c0-2 1.7-3.7 3.7-3.7h107.1"/><path class="st1" d="M383.6 327.4v-161H80.5v185.8h43v-22.4c0-1.1.9-2.1 2.1-2.1h49.2c2 0 3.6 1.6 3.6 3.6v20.9H202v-19.8c.4-2.4 2.2-4.2 4.6-4.6 3-.5 5.8 1.6 6.3 4.6v31l1.9 1.9h29.4l2-2V343c0-1.4 1.2-2.6 2.6-2.6 1.4 0 2.6 1.2 2.6 2.6v20.4l1.9 1.9h17.6l1.9-1.9V331c0-2 1.7-3.7 3.7-3.7h107.1"/><path class="st2" d="M194.6 340.9c0-2.6-2.1-4.8-4.8-4.8-2.6 0-4.8 2.1-4.8 4.8s2.1 4.8 4.8 4.8c2.6 0 4.8-2.2 4.8-4.8"/><circle class="st1" cx="189.8" cy="340.9" r="4.8"/><path class="st2" d="M375.2 178.8c0-2.6-2.1-4.8-4.8-4.8-2.6 0-4.8 2.1-4.8 4.8 0 2.6 2.1 4.8 4.8 4.8 2.6 0 4.8-2.2 4.8-4.8"/><path class="st1" d="M375.2 178.8c0-2.6-2.1-4.8-4.8-4.8-2.6 0-4.8 2.1-4.8 4.8 0 2.6 2.1 4.8 4.8 4.8 2.6 0 4.8-2.2 4.8-4.8z"/><path class="st0" d="M86 193h49.5v54.1H75.7V193h11.2"/><path class="st1" d="M86 193h49.5v54.1H75.7V193h11.2"/><path class="st0" d="M85.9 256h49.6v54H75.7v-54h11.2"/><path class="st1" d="M85.9 256h49.6v54H75.7v-54h11.2"/><path class="st3" d="M81.2 185.2l-.1-.3-.1.3zm-.1-.3l-.1-.1v.4zm-.1-.1l-.3.1.3.3zm-.3.1v.3h.3zm0 .3v.1l.3-.1zm0 .1l.3.1v-.2zm.3.1l.1-.1-.1-.1z"/><path class="st3" d="M81.1 185.3l.1-.1H81zm-5.9 164.6h4.6M37.2 51.2v-2.6m.1 3.2h1.8m-1.9-.6H72m-34.7 0v.6m1.8 0l1.1-.6"/><path class="st0" d="M72 51.2l.4.3.2.3V395v-.2l-1.2 13.9h2.7l1.1-13.7v-53.1h4.6l.7-.3.6-.6.1-.7V75.2l-.1-.7-.6-.6-.7-.1h-4.6V50l-.1-.7-.6-.5-.7-.2H37.2"/><path class="st3" d="M72 51.2l.4.3.2.3V395v-.2l-1.2 13.9h2.7l1.1-13.7v-53.1h4.6l.7-.3.6-.6.1-.7V75.2l-.1-.7-.6-.6-.7-.1h-4.6V50l-.1-.7-.6-.5-.7-.2H37.2"/><path d="M239.9 357.1v-.1m0 .1v-.1m-1-5.7h1.9v11.5h-1.9zm34 5.8v-.1m0 .1v-.1m-6 .1v-.1m0 .1v-.1m-1-5.7h1.9v11.5h-1.9zm-8 5.8v-.1m0 .1v-.1m-1-5.7h1.9v11.5h-1.9zm7 5.8v-.1m0 .1v-.1m-1-5.7h1.9v11.5h-1.9zm-29 5.8v-.1m0 .1v-.1m-1-5.7h1.9v11.5h-1.9zm28 5.8v-.1m0 .1v-.1m-1-5.7h1.9v11.5h-1.9zm-35 5.8v-.1m0 .1v-.1m-1-5.7h1.9v11.5h-1.9zm31 5.8v-.1m0 .1v-.1m-1-5.7h1.9v11.5h-1.9zm-11 5.8v-.1m0 .1v-.1m-1-5.7h1.9v11.5h-1.9zm-5 5.8v-.1m0 .1v-.1m-1-5.7h1.9v11.5h-1.9zm10 5.8v-.1m-24 .1v-.1m0 .1v-.1m-1-5.7h1.9v11.5h-1.9zm-2 5.8v-.1m0 .1v-.1m-1-5.7h1.9v11.5h-1.9zm13 5.8v-.1m0 .1v-.1m-1-5.7h1.9v11.5h-1.9zm-15 0h1.9v11.5h-1.9zm13 5.8v-.1m0 .1v-.1m-1-5.7h1.9v11.5h-1.9zm43 5v-.2m0 .2v-.2m-1-4.6h1.9v9.5h-1.9zm-2 5.6v-.1m0 .1v-.1m3 .1v-.1m0 .1v-.1m-6 .1v-.1m0 .1v-.1m-9 .1v-.1m0 .1v-.1m-30 .1v-.1m0 .1v-.1m18 .1v-.1m0 .1v-.1m-3 .1v-.1m0 .1v-.1m21 .1v-.1m0 .1v-.1m-39 .1v-.1m0 .1v-.1m36 .1v-.1m0 .1v-.1m-24 .1v-.1m0 .1v-.1m-15 .1v-.1m0 .1v-.1m18 .1v-.1m0 .1v-.1m-9 .1v-.1m0 .1v-.1m3 .1v-.1m0 .1v-.1" stroke="#000" stroke-width=".1" fill="none" stroke-linecap="round" stroke-linejoin="round" stroke-miterlimit="10" clip-path="url(#SVGID_2_)"/><text transform="rotate(-90 132.17 104.346)" class="st5 st6">120</text><text transform="rotate(-90 340.194 -68.76)" class="st5 st6">66.9</text><path class="st7" d="M89.2 138.2h285.9"/><path d="M91 140.8l-9.8-2.6 9.8-2.6zm282.3 0l9.7-2.6-9.7-2.6z"/><text transform="translate(134.708 448.69)" class="st5 st6">46.1</text><path class="st7" d="M82.9 438.6h120.7"/><path d="M84.7 441.2l-9.8-2.6 9.8-2.7zm117.1 0l9.7-2.6-9.7-2.7z"/><path class="st7" d="M31.2 400.3V56.1"/><path d="M33.8 398.5l-2.6 9.7-2.7-9.7zm0-340.6l-2.6-9.8-2.7 9.8z"/><path class="st7" d="M397.9 357.5V174.2"/><path d="M400.5 355.7l-2.6 9.8-2.6-9.8zm0-179.7l-2.6-9.7-2.6 9.7z"/><path class="st8" d="M74.1 408.7H16.9"/><path d="M212.9 446.2v-83.3M75.2 446.2v-84.5m-38-313.1V13.3" stroke-width=".3" stroke-miterlimit="10" fill="none" stroke="#000" stroke-linecap="round" stroke-linejoin="round"/><path fill="none" stroke="#000" stroke-width=".274" stroke-linecap="round" stroke-linejoin="round" stroke-miterlimit="10" d="M74.1 48.6H16.9"/><path d="M416.6 166.4h-33m32.8 198.9H270.7" stroke-width=".292" stroke-miterlimit="10" fill="none" stroke="#000" stroke-linecap="round" stroke-linejoin="round"/><text transform="translate(222.47 134.083)" class="st5 st6">101.9</text><text transform="translate(197.09 20.243)" class="st5 st6">116.1</text><path class="st7" d="M44.1 24.3h331"/><path d="M45.9 26.9l-9.7-2.6 9.7-2.6zm327.4 0l9.7-2.6-9.7-2.6z"/><path class="st8" d="M383.6 166.4V13.3"/><text transform="translate(286.178 419.163)" class="st5 st12">Not to scale</text><text transform="translate(285.478 438.564)" class="st5 st12">Dimensions in mm</text></svg>