<svg style="background-color:#fff" version="1.1" id="Layer_1" xmlns="http://www.w3.org/2000/svg" x="0" y="0" viewBox="0 0 274.3 113.5" xml:space="preserve"><style>.st1{fill:none;stroke:#000;stroke-width:.213;stroke-miterlimit:10}.st2{fill:#878786}.st3{font-family:Helvetica,Arial,sans-serif}.st4{font-size:1.442px}.st5,.st7{fill:none;stroke:#000;stroke-width:.213;stroke-miterlimit:3.864}.st7{stroke:#1a1a18;stroke-linecap:round;stroke-linejoin:round;stroke-miterlimit:10}.st8{font-size:8px}</style><path d="M50.9-30l3.7-2.1c.1-.1.2 0 .4 0 .3.2.5.6.5.9v4.1l.1-.2 3.7-2.1c.1-.1.2 0 .4 0 .3.2.5.6.5.9v4.1s0-.2.1-.2l3.7-2.1c.1-.1.2 0 .4 0 .3.2.5.6.5.9v4.1s0-.2.1-.2l3.7-2.1c.1-.1.2 0 .4 0 .3.2.5.6.5.9v4.1l.1-.2 3.7-2.1c.1-.1.2 0 .4 0 .3.2.5.6.5.9v4.1l.1-.2 3.7-2.1c.1-.1.2 0 .4 0 .3.2.5.6.5.9v4.1l.1-.2 3.7-2.1c.1-.1.2-.1.3 0 1.7-1 3-1.8 3-1.8h1.1L104-8v.6S98.5-4.2 98.2-4c-.2.1-.4.3-.4.4l.1.6 3.7-2.1c.1-.1.2 0 .4 0 .2.1.3.2.4.4l2.8-1.6.7-.3h.8l8.5 4.9v.5L111.8.7c.1.1.1.3.1.4V4c1.4-.8 2.7-1.6 2.7-1.6h.3l.8.4c.1-.1.2 0 .4 0 .2.1.4.3.4.5l.3-.2.4.3-.4.2.3.2.3-.2.4.2-.3.2.3.2.3-.2.4.2-.2.8.4.2.3-.2.3.2-.3.2.3.2.4-.2.4.2-.2.1s-.1.2 0 .3c.1.1.4 0 .4 0l1.3.7s-3.2 1.8-4.9 2.8v2.1c3.3 1.9 12.5 7.2 12.7 7.3.6.3.9.3 1.2.1.3-.2 5.8-3.4 5.8-3.4h.4l4.5 2.6-.2.1.2.1.4-.3.6.3-.4.3.1.3.2-.1.5.3-.2.1.2.1.4-.2.6.3-.4.2.2.1.4-.2.5.3-.2.1c-.2.2.2.1.2.1l.2-.1.6.3-.2.1s-.1.1 0 .2c.2.1.3 0 .3 0l2.6 1.5 10.4-6 .9.6 1.8-1 3.2 1.8 4.7-2.6c.5-.3.8-.3 1-.2l.7.4c.5.2.5 1.1.5 1.1v6.2s0 1.8-1.5 2.7c-1.5.9-4.6 2.7-4.6 2.7l-3.3 5.8-2.7 1.5-.7-.4v-.8c-.4.2-.7.8-.7 1.2l-2.5 1.5v.8l-.3.5-1.3.8-1-.5-1.2.7-.8-.4c-.4.2-.7.8-.7 1.2v.8L114 61.2v9.1l-1 .6-11.6-6.4V53.2l3.4-2.1v-1.6l-.9-.5-8.4 4.8-4.8-2.8s.1-.2-.1-.3-.6.2-.9 0-.1-.4-.1-.4-.2.1-.4-.1 0-.3-.2-.4c-.2-.1-.3.1-.6-.1-.2-.2-.1-.2-.2-.3s-.3.1-.4 0-.2-.3-.3-.4c-.1 0-.4.3-.7 0-.3-.2.3-.4 0-.5-.2-.1-.3 0-.3 0l-59-34s0-.1-.3-.2-.7.1-.9 0c-.2-.1.3-.3.1-.4-.1-.1-.5.1-.7 0s.3-.3.1-.5c-.2-.1-.5.2-.8.1-.2-.1.3-.4.1-.5-.2-.1-.5.1-.7 0s.5-.2.1-.4c-.3-.2-.6.1-.9 0-.3-.2.4-.3.1-.4-.4-.2-.5 0-.5 0s-62.2-35.9-62.3-36c-.1-.1.2-.2 0-.3-.1-.1-.6.2-.9 0-.3-.2.3-.3.2-.4s-.4.1-.6 0c-.2-.2.1-.2-.1-.3-.2-.1-.4 0-.6-.1-.2-.1 0-.3-.1-.4s-.5.1-.6 0c-.2-.1 0-.3-.1-.3-.1-.1-.3 0-.6.1-.5 0-.5-.3-.3-.3.1-.1.3-.2.1-.3-.2-.1-.5.1-.5.1s-2-1.2-2.2-1.2c-.2-.1 0-.2.1-.3 0 0 .3-.2.8-.5v-11l11.5-6.7 6.3 3.6c.2-.2.4-.4.8-.6 1.4-.8 3.8-.8 5.2 0l.3.2c3.7-2 9.5-5.3 14.2-7.9v-2.8c0-.5.4-1.1 1.1-1.5 1.4-.8 3.8-.8 5.2 0 .2.1.4.3.6.4.5-.3.7-.4.7-.4.1 0 .3-.2.5 0 .2.1 6.5 3.8 6.5 3.8l.2.1.1.1.5-.3.2.4-.3.2.2.1.3-.2.6.3-.4.2.1.1.3-.2.6.3-.3.2.1.1.4-.2.6.3-.3.2.2.1.5-.3.2.4-.2.3.2.1s7.2 4.2 16.7 9.7l1-.6c.1-.1.2 0 .4 0 .3.2.5.6.5.9v3.4l.3.1c.4-.3.8-.9.8-1.4v-4c0-.2.1-.3.2-.3l3.7-2.1c.1-.1.2 0 .4 0 .3.2.5.6.5.9v4.1c0-.2.1-.3.2-.4l3.7-2.1c.1-.1.2 0 .4 0 .3.2.5.6.5.9v4.1s0-.2.1-.2l3.7-2.1c.1-.1.2 0 .4 0 .3.2.5.6.5.9v4.1s0-.2.1-.2L50-35c.1-.1.2 0 .4 0 .3.2.5.6.5.9v4.1c-.1.2 0 0 0 0" fill="#f6f6f6"/><path class="st1" d="M123.3 32.8l5.5-3.2 3 1.7m-30.4.5c-.9.5-2.4.5-3.3 0s-.9-1.4 0-1.9 2.4-.5 3.3 0c.9.6.9 1.4 0 1.9zM108.8.4l3.1-1.8.6.3-3.1 1.8m.3.2l3.1-1.8.7.4-2.1 1.1m-3.5-.7l3.2-1.8.6.3-3.1 1.8m10.4 30l-3.5-2c-.2-.1-.7-.1-1 0l-2.6 1.5c-.3.2-.3.4-.1.6l3.5 2c.2.1.7.1 1 0l2.6-1.5c.3-.2.3-.5.1-.6zm-29.1 5.4l-4.1-2.4c-.3-.2-.9-.2-1.3.1l-4 2.3c-.4.2-.4.5-.1.7l4.1 2.4c.3.2.9.2 1.3-.1l4-2.3c.4-.2.5-.5.1-.7zm9.6-8.9L97 25.3c-.2-.1-.5-.1-.8 0l-2.4 1.4c-.2.1-.3.3-.1.4l2.5 1.5c.2.1.5.1.8 0l2.4-1.4c.2-.2.3-.4.1-.5zM114 22l3.1-1.8-4.1-2.3-3 1.8 4 2.3zm-.4-.2l-1.4.8m.3-1.5l-1.4.8m.3-1.4l-1.4.8m.3-1.4l-1.4.8m9.3-1.5l-1.4.8m.2-1.5l-1.4.8m.3-1.4l-1.4.8m.3-1.5l-1.4.9M91.6 43.4l3.1-1.7-4.1-2.4-3.1 1.8 4.1 2.3zm-.4-.2l-1.4.8m.3-1.4l-1.4.8m.2-1.5l-1.3.8m.2-1.4l-1.4.8m9.3-1.5l-1.4.8m.3-1.4l-1.4.8m.3-1.5l-1.4.8m.3-1.4l-1.4.8m11.9-1.1l-3.4-1.9-3.5 2 4.5 2.6 1.5-.9m-1.9.6l-1.6.9m.3-1.6l-1.5.9m.3-1.6l-1.5.9m.3-1.6l-1.5.9m9-2.4l-1.5.9m.3-1.6l-1.6.9m.4-1.6l-1.6.9m-4.3 1.5l3.5-2-4.5-2.5-3.5 2 4.5 2.5zm-.4-.2l-1.6.9m.3-1.6l-1.5.9m.3-1.6l-1.5.9m.3-1.6l-1.5.9m10.2-1.7l-1.5.9m.3-1.6l-1.5.9m.3-1.6l-1.6.9m.4-1.6l-1.6.9m9.6 15.7l-5.2-3v-4m2.8-3.6v2m8 2.7l-8-4.7m4.5 7.8l-7.3-4.2m4.3-4.5l3.3 2-.6.3 1 .6.6-.3 3.8 2.1m5.4-10.4l-1.9 1.1-1.8-1m-1.5.9l3.2 1.9.6-.3 1 .6-.6.3 3.7 2.2m-6.4-5.6L102.2 39m15-6.6l6.3 3.6m-41 2.4l-2.2 1.3 2.7 1.6 2.3-1.3-2.8-1.6zm1.1 2.6l-2.7-1.6m3.8 1l-2.8-1.6m-2.7-2.3L77 37.8l2.7 1.6 2.3-1.3-2.8-1.6zm1.1 2.5l-2.7-1.5m3.8 1l-2.8-1.6m5.2 5.6l-1.5-.9-3.4 2 1.5.8 3.4-1.9zm-2-.6l1.5.9m-3.8.4l1.5.9m.7-2.9l-1.5-.8-3.4 1.9 1.5.9 3.4-2zm-2.1-.5l1.5.9m-3.7.4l1.5.9m.7-2.9l-1.5-.9-3.4 2 1.5.9 3.4-2zm-2.1-.5l1.5.8m-3.8.5l1.5.9M57 30.9l2.1 1.2.9-.5-2.1-1.2-.9.5zm-2.8-1.6l2.1 1.2.9-.5-2.1-1.3-.9.6zm-2.9-1.6l2.1 1.2 1-.6-2.1-1.2-1 .6zM48.5 26l2.1 1.2.9-.5-2-1.2-1 .5zm-2.8-1.6l2.1 1.2.9-.6-2.1-1.2-.9.6zm-2.9-1.6l2.1 1.2 1-.6-2.1-1.2-1 .6zM40 21.1l2.1 1.2 1-.5-2.1-1.2-1 .5zm-2.8-1.6l2.1 1.2.9-.6-2.1-1.2-.9.6zm35.1 17.8L-8.8-9.5m81.1 46.8l44.4-25.6m19.3 8.9c1.4-.8 3.8-.8 5.2 0s1.4 2.2 0 3-3.8.8-5.2 0-1.4-2.1 0-3z"/><path class="st1" d="M140.2 20.8l.7.4-1.5.9 1.5.9-.7.4-1.6-.9-1.5.9-.7-.4 1.5-.9-1.5-.9.7-.4 1.5.9 1.6-.9zM93.3 33.1l1.5-.8-3.3-1.9-1.5.9 3.3 1.8zm.9-1.1l-1.5.8m-.6-2.1l-1.5.9m17.8 3.8l-.8-.5-3.3 1.8.9.6m.5-.3l-.8-.6m3-.7l-.9-.5m13.4-11.8l1 .7 2.4-1.4-1.1-.6-2.3 1.3zm1.4.4l-1.1-.6m2.7-.3l-1.1-.6m-22 10.9l2.5 1.4 1.4-.8-2.5-1.5-1.4.9zm6.2-4.4l-2.5 1.4 1.4.8 2.5-1.4-1.4-.8z"/><text transform="matrix(-.8661 -.5 .866 -.5 96.71 52.7)" class="st2 st3 st4">VO.1</text><text transform="matrix(-.8661 -.5 .866 -.5 93.072 50.599)" class="st2 st3 st4">381JG848</text><text transform="matrix(-.8661 -.5 .866 -.5 98.183 51.85)" class="st2 st3 st4">RoHS</text><text transform="matrix(-.8661 -.5 .866 -.5 94.545 49.75)" class="st2 st3 st4">2011/65/EU</text><path class="st5" d="M117.3 53.3c.4-.3.8 0 .8.5s-.4 1.1-.8 1.4c-.4.3-.8 0-.8-.5s.3-1.1.8-1.4z"/><path class="st5" d="M118.5 54.9l-1.6 1.4-1.2-.7.5-2.1 1.6-1.3 1.1.7-.4 2zm13.6-10.2c.4-.3.8 0 .8.5s-.4 1.1-.8 1.4c-.4.3-.8 0-.8-.5.1-.5.4-1.1.8-1.4zm12.9-8.1c.4-.3.8 0 .8.5s-.4 1.1-.8 1.4c-.4.3-.8 0-.8-.5s.4-1.1.8-1.4z"/><path class="st5" d="M133.3 46.3l-1.5 1.4-1.2-.7.5-2.1 1.6-1.3 1.1.7-.5 2zm-23.7 5.6l.5-2.1 1.5-1.3m13-5.6l.3-1.7 1.6-1.3 1.2.7 4.9 2.9m-15.8 8.1l-.2-1c-.1-.8.6-1.8 1.3-2.2l7.5-4.4c.7-.4 1.4-.2 1.3.7l-.4 2c-.1.9-.5 1.8-1.2 2.2l-6.4 3.7"/><path class="st5" d="M114.9 50.4l-.2-.9c-.1-.8.6-1.8 1.3-2.2l7.5-4.4c.3-.2.6-.2.9-.2.1 0 1.6.9 2 1.2"/><path class="st1" d="M120.5 49.5c.2-.1.4 0 .4.3s-.2.6-.4.8c-.2.1-.4 0-.4-.3-.1-.4.1-.7.4-.8z"/><path class="st5" d="M120.5 49.5c.2-.1.4 0 .4.3s-.2.6-.4.8c-.2.1-.4 0-.4-.3-.1-.4.1-.7.4-.8z"/><path class="st1" d="M119.4 50.1c.2-.1.4 0 .4.3s-.2.6-.4.8c-.2.1-.4 0-.4-.3s.1-.7.4-.8z"/><path class="st5" d="M119.4 50.1c.2-.1.4 0 .4.3s-.2.6-.4.8c-.2.1-.4 0-.4-.3s.1-.7.4-.8z"/><path class="st1" d="M121.5 48.8c.2-.1.4 0 .4.3s-.2.6-.4.8c-.2.1-.4 0-.4-.3s.2-.6.4-.8z"/><path class="st5" d="M121.5 48.8c.2-.1.4 0 .4.3s-.2.6-.4.8c-.2.1-.4 0-.4-.3s.2-.6.4-.8z"/><path class="st1" d="M122.6 48.2c.2-.1.4 0 .4.3s-.2.6-.4.8c-.2.1-.4 0-.4-.3-.1-.3.1-.6.4-.8z"/><path class="st5" d="M122.6 48.2c.2-.1.4 0 .4.3s-.2.6-.4.8c-.2.1-.4 0-.4-.3-.1-.3.1-.6.4-.8z"/><path class="st1" d="M123.7 47.6c.2-.1.4 0 .4.3s-.2.6-.4.8c-.2.1-.4 0-.4-.3s.1-.6.4-.8z"/><path class="st5" d="M123.7 47.6c.2-.1.4 0 .4.3s-.2.6-.4.8c-.2.1-.4 0-.4-.3s.1-.6.4-.8z"/><path class="st1" d="M124.8 46.9c.2-.1.4 0 .4.3s-.2.6-.4.8c-.2.1-.4 0-.4-.3-.1-.3.1-.6.4-.8z"/><path class="st5" d="M124.8 46.9c.2-.1.4 0 .4.3s-.2.6-.4.8c-.2.1-.4 0-.4-.3-.1-.3.1-.6.4-.8z"/><path class="st1" d="M118.3 50.7c.2-.1.4 0 .4.3s-.2.6-.4.8c-.2.1-.4 0-.4-.3s.2-.7.4-.8z"/><path class="st5" d="M118.3 50.7c.2-.1.4 0 .4.3s-.2.6-.4.8c-.2.1-.4 0-.4-.3s.2-.7.4-.8z"/><path class="st1" d="M119.9 48.5c.2-.1.4 0 .4.3s-.2.6-.4.8c-.2.1-.4 0-.4-.3s.1-.7.4-.8z"/><path class="st5" d="M119.9 48.5c.2-.1.4 0 .4.3s-.2.6-.4.8c-.2.1-.4 0-.4-.3s.1-.7.4-.8z"/><path class="st1" d="M118.8 49.1c.2-.1.4 0 .4.3s-.2.6-.4.8c-.2.1-.4 0-.4-.3s.2-.7.4-.8z"/><path class="st5" d="M118.8 49.1c.2-.1.4 0 .4.3s-.2.6-.4.8c-.2.1-.4 0-.4-.3s.2-.7.4-.8z"/><path class="st1" d="M121 47.9c.2-.1.4 0 .4.3s-.2.6-.4.8c-.2.1-.4 0-.4-.3-.1-.4.1-.7.4-.8z"/><path class="st5" d="M121 47.9c.2-.1.4 0 .4.3s-.2.6-.4.8c-.2.1-.4 0-.4-.3-.1-.4.1-.7.4-.8z"/><path class="st1" d="M122 47.2c.2-.1.4 0 .4.3s-.2.6-.4.8c-.2.1-.4 0-.4-.3s.2-.6.4-.8z"/><path class="st5" d="M122 47.2c.2-.1.4 0 .4.3s-.2.6-.4.8c-.2.1-.4 0-.4-.3s.2-.6.4-.8z"/><path class="st1" d="M123.1 46.6c.2-.1.4 0 .4.3s-.2.6-.4.8c-.2.1-.4 0-.4-.3-.1-.3.1-.6.4-.8z"/><path class="st5" d="M123.1 46.6c.2-.1.4 0 .4.3s-.2.6-.4.8c-.2.1-.4 0-.4-.3-.1-.3.1-.6.4-.8z"/><path class="st1" d="M124.2 46c.2-.1.4 0 .4.3s-.2.6-.4.8c-.2.1-.4 0-.4-.3-.1-.3.1-.6.4-.8z"/><path class="st5" d="M124.2 46c.2-.1.4 0 .4.3s-.2.6-.4.8c-.2.1-.4 0-.4-.3-.1-.3.1-.6.4-.8z"/><path class="st1" d="M125.3 45.3c.2-.1.4 0 .4.3s-.2.6-.4.8c-.2.1-.4 0-.4-.3s.2-.6.4-.8z"/><path class="st5" d="M125.3 45.3c.2-.1.4 0 .4.3s-.2.6-.4.8c-.2.1-.4 0-.4-.3s.2-.6.4-.8z"/><path class="st1" d="M117.8 49.7c.2-.1.4 0 .4.3s-.2.6-.4.8c-.2.1-.4 0-.4-.3-.1-.3.1-.7.4-.8z"/><path class="st5" d="M117.8 49.7c.2-.1.4 0 .4.3s-.2.6-.4.8c-.2.1-.4 0-.4-.3-.1-.3.1-.7.4-.8zM151 38.8l-.7-.4m2.6 0l-.6-.3m6.6-3.1l-.8-.4v-.7m-56.9 30.4l11.6 6.5 1-.6V59m-12.6-5.8l11.6 6.5m40.1-22l-.6.4m.6.3v-.7m-.6.4l-1.2.7c0-.5-.3-.6-.7-.4-.4.2-.7.8-.7 1.2v.8l-35.8 20.7M159.7 17l1.8-1m-60.3 48.3V53.2l3.4-2.1V49s.1-1 .8-1.4c.1-.1 1.6-.9 4-2.3"/><path class="st5" d="M102.8 53.1l2.5-1.5v-2.2s.1-1 .8-1.4c.1-.1 1.6-.9 4-2.3"/><path class="st1" d="M130.6 47l-3.9-2.4"/><path class="st5" d="M131 44.9l-6.1-3.7"/><path class="st1" d="M111.6 48.5l6.1 3.6m-1.6 1.4l-6-3.7m-.5 2.1l6.1 3.7"/><path class="st5" d="M105.4 51.6l-.7-.4m9.1 7.8l-11-5.9m10 17.7V59.7m0 0l1-.7"/><path class="st1" d="M115.3 33.5l6.2 3.7m-19.3 3.7l8 4.7m-10.8-3l2.8-1.6m21.1-8.2l3.1 1.6m-17.7 10.3v.9"/><path class="st5" d="M164.9 17.9s3.1-1.8 4.6-2.7 1.5.9 1.5.9v6.2s0 1.8-1.5 2.7c-1.5.9-4.6 2.7-4.6 2.7l-3.3 5.8-2.7 1.5v-.8c0-.5-.3-.6-.7-.4-.4.2-.7.8-.7 1.2l-2.5 1.5v.8l-.3.5-1.3.8-.3-.2"/><path class="st5" d="M108.7 44.7l49.5-28.6.9.6 1.8-1 3.2 1.8 4.7-2.6c.5-.3.9-.3 1.1-.2l.6.3m-58.3 29.6l46.5-26.8m5.4-.3l.8.4m-5.2-.9l-.5-.3M76.7 32.3c-.4.3-.8 0-.8-.5v-4c0-.3-.2-.8-.5-.9-.1-.1-.3-.1-.4 0L71.4 29m11.2-.1c-.4.3-.8 0-.8-.5v-4c0-.3-.2-.8-.5-.9-.1-.1-.3-.1-.4 0l-3.7 2.1"/><path class="st5" d="M76.7 32.3l.6-.3c.4-.3.8-.9.8-1.4v-4c0-.3-.2-.8-.5-.9-.3-.2-.5 0-.5.3v4c0 .5-.4 1.1-.8 1.4m12.1-5.9c-.4.3-.8 0-.8-.5v-4c0-.3-.2-.8-.5-.9-.1-.1-.3-.1-.4 0L83 22.2"/><path class="st5" d="M82.6 28.9l.6-.3c.4-.3.8-.9.8-1.4v-4c0-.3-.2-.8-.5-.9-.3-.2-.5 0-.5.3v4c0 .5-.4 1.1-.8 1.4m12-5.8c-.4.3-.8 0-.8-.5v-4c0-.3-.2-.8-.5-.9-.1-.1-.3-.1-.4 0l-3.7 2.1"/><path class="st5" d="M88.4 25.5l.6-.3c.4-.3.8-.9.8-1.4v-4c0-.3-.2-.8-.5-.9-.3-.2-.5 0-.5.3v4c0 .5-.4 1.1-.8 1.4m12-5.8c-.4.3-.8 0-.8-.5v-4c0-.3-.2-.8-.5-.9-.1-.1-.3-.1-.4 0l-3.7 2.1"/><path class="st5" d="M94.2 22.2l.6-.3c.4-.3.8-.9.8-1.4v-4c0-.3-.2-.8-.5-.9-.3-.2-.5 0-.5.3v4c0 .5-.4 1.1-.8 1.4m12-5.9c-.4.3-.8 0-.8-.5v-4c0-.3-.2-.8-.5-.9-.1-.1-.3-.1-.4 0l-3.7 2.1"/><path class="st5" d="M100 18.8l.6-.3c.4-.3.8-.9.8-1.4v-4c0-.3-.2-.8-.5-.9s-.5 0-.5.3v4c0 .5-.4 1.1-.8 1.4m12-5.8c-.4.3-.8 0-.8-.5v-4c0-.3-.2-.8-.5-.9-.1-.1-.3-.1-.4 0l-3.7 2.1"/><path class="st5" d="M105.8 15.4l.6-.3c.4-.3.8-.9.8-1.4v-4c0-.3-.2-.8-.5-.9-.3-.2-.5 0-.5.3v4c0 .5-.4 1.1-.8 1.4m11.2-2.8V4.3c0-.3-.2-.8-.5-.9-.1-.1-.3-.1-.4 0L112 5.5"/><path class="st5" d="M111.6 12.1l.6-.3c.4-.3.8-.9.8-1.4v-4c0-.3-.2-.8-.5-.9-.3-.2-.5 0-.5.3v4c0 .5-.4 1.1-.8 1.4m-40 17.9v-4c0-.3-.2-.8-.5-.9-.1-.1-.3-.1-.4 0l-3.7 2.1m10.4-.6v-4c0-.3-.2-.8-.5-.9-.1-.1-.3-.1-.4 0l-3.7 2.1"/><path class="st5" d="M73.4 27.8v-4c0-.3-.2-.8-.5-.9-.3-.2-.5 0-.5.3v4c0 .5-.4 1.1-.8 1.4m11.3-6.3v-4c0-.3-.2-.8-.5-.9-.1-.1-.3-.1-.4 0l-3.7 2.1"/><path class="st5" d="M79.2 24.4v-4c0-.3-.2-.8-.5-.9-.3-.2-.5 0-.5.3v4c0 .5-.4 1.1-.8 1.4M88.7 19v-4c0-.3-.2-.8-.5-.9-.2-.1-.4-.1-.4-.1l-3.7 2.1"/><path class="st5" d="M85 21.1v-4c0-.3-.2-.8-.5-.9-.3-.2-.5 0-.5.3v4c0 .5-.4 1.1-.8 1.4m11.3-6.3v-4c0-.3-.2-.8-.5-.9-.1-.1-.3-.1-.4 0l-3.7 2.1"/><path class="st5" d="M90.8 17.7v-4c0-.3-.2-.8-.5-.9-.3-.2-.5 0-.5.3v4c0 .5-.4 1.1-.8 1.4m11.3-6.3v-4c0-.3-.2-.8-.5-.9-.1-.1-.3-.1-.4 0l-3.7 2.1"/><path class="st5" d="M96.6 14.4v-4c0-.3-.2-.8-.5-.9-.3-.2-.5 0-.5.3v4c0 .5-.4 1.1-.8 1.4m11.3-6.3v-4c0-.3-.2-.8-.5-.9-.1-.1-.3-.1-.4 0l-3.7 2"/><path class="st5" d="M102.4 11V7c0-.3-.2-.8-.5-.9s-.5 0-.5.3v4c0 .5-.4 1.1-.8 1.4m11.3-6.2V1.5c0-.3-.2-.8-.5-.9-.1-.1-.3-.1-.4 0l-3.7 2.1"/><path class="st5" d="M108.3 7.6v-4c0-.3-.2-.8-.5-.9-.3-.2-.5 0-.5.3v4c0 .5-.4 1.1-.8 1.4m-40 17.9v-4c0-.3-.2-.8-.5-.9-.1-.1-.3-.1-.4 0l-3.7 2.1m10.4-.5v-4c0-.3-.2-.8-.5-.9-.1-.1-.3-.1-.4 0l-3.7 2.1"/><path class="st5" d="M68.7 25.1v-4c0-.3-.2-.8-.5-.9-.3-.2-.5 0-.5.3v4c0 .5-.4 1.1-.8 1.4m11.3-6.3v-4c0-.3-.2-.8-.5-.9-.1-.1-.3-.1-.4 0l-3.7 2.1"/><path class="st5" d="M74.5 21.7v-4c0-.3-.2-.8-.5-.9s-.5 0-.5.3v4c0 .5-.4 1.1-.8 1.4M84 16.3v-4c0-.3-.2-.8-.5-.9-.1-.1-.3-.1-.4 0l-3.7 2.1"/><path class="st5" d="M80.3 18.4v-4c0-.3-.2-.8-.5-.9-.3-.2-.5 0-.5.3v4c0 .5-.4 1.1-.8 1.4m11.3-6.3v-4c0-.3-.2-.8-.5-.9-.1-.1-.3-.1-.4 0l-3.7 2.1"/><path class="st5" d="M86.1 15v-4c0-.3-.2-.8-.5-.9-.3-.2-.5 0-.5.3v4c0 .5-.4 1.1-.8 1.4m11.3-6.3v-4c0-.3-.2-.8-.5-.9-.1-.1-.3-.1-.4 0L91 6.7"/><path class="st5" d="M91.9 11.6v-4c0-.3-.2-.8-.5-.9-.3-.2-.5 0-.5.3v4c0 .5-.4 1.1-.8 1.4m11.3-6.2v-4c0-.3-.2-.8-.5-.9-.1-.1-.3-.1-.4 0l-3.7 2.1"/><path class="st5" d="M97.7 8.3v-4c0-.3-.2-.8-.5-.9-.3-.2-.5 0-.5.3v4c0 .5-.4 1.1-.8 1.4m11.3-6.2v-4.1c0-.3-.2-.8-.5-.9-.1-.1-.3-.1-.4 0L102.6 0"/><path class="st5" d="M103.6 4.9v-4c0-.3-.2-.8-.5-.9-.3-.2-.5 0-.5.3v4c0 .5-.4 1.1-.8 1.4m-40 17.9v-4c0-.3-.2-.8-.5-.9-.1-.1-.3-.1-.4 0l-3.7 2.1m10.4-.5v-4c0-.3-.2-.8-.5-.9-.1-.1-.3-.1-.4 0L63 17.5"/><path class="st5" d="M64 22.4v-4c0-.3-.2-.8-.5-.9-.3-.2-.5 0-.5.3v4c0 .5-.4 1.1-.8 1.4m11.3-6.3v-4c0-.3-.2-.8-.5-.9-.1-.1-.3-.1-.4 0l-3.7 2.1"/><path class="st5" d="M69.8 19v-4c0-.3-.2-.8-.5-.9-.3-.2-.5 0-.5.3v4c0 .5-.4 1.1-.8 1.4m11.3-6.3v-4c0-.3-.2-.8-.5-.9-.1-.1-.3-.1-.4 0l-3.7 2.1"/><path class="st5" d="M75.6 15.6v-4c0-.3-.2-.8-.5-.9-.3-.2-.5 0-.5.3v4c0 .5-.4 1.1-.8 1.4m11.3-6.2v-4c0-.3-.2-.8-.5-.9-.1-.1-.3-.1-.4 0l-3.7 2.1"/><path class="st5" d="M81.4 12.3v-4c0-.3-.2-.8-.5-.9s-.5 0-.5.3v4c0 .5-.4 1.1-.8 1.4m11.3-6.3v-4c0-.3-.2-.8-.5-.9-.1-.1-.3-.1-.4 0L86.3 4"/><path class="st5" d="M87.2 8.9v-4c0-.3-.2-.8-.5-.9-.3-.2-.5 0-.5.3v4c0 .5-.4 1.1-.8 1.4m11.3-6.3v-4c0-.3-.2-.8-.5-.9-.1-.1-.3-.1-.4 0L92.1.6"/><path class="st5" d="M93 5.5v-4c0-.3-.2-.8-.5-.9s-.5 0-.5.4v4c0 .5-.4 1.1-.8 1.4M102.5.2v-4.1c0-.3-.2-.8-.5-.9-.1-.1-.3-.1-.4 0l-3.7 2.1"/><path class="st5" d="M98.8 2.2v-4c0-.3-.2-.8-.5-.9-.3-.2-.5 0-.5.3v4c0 .5-.4 1.1-.8 1.4M57.1 20.9v-4c0-.3-.2-.8-.5-.9-.1-.1-.3-.1-.4 0l-3.7 2.1m10.4-.6v-4c0-.3-.2-.8-.5-.9-.1-.1-.3-.1-.4 0l-3.7 2.1"/><path class="st5" d="M59.3 19.6v-4c0-.3-.2-.8-.5-.9-.3-.2-.5 0-.5.3v4c0 .5-.4 1.1-.8 1.4m11.3-6.2v-4c0-.3-.2-.8-.5-.9-.1-.1-.3-.1-.4 0l-3.7 2.1"/><path class="st5" d="M65.1 16.3v-4c0-.3-.2-.8-.5-.9-.3-.2-.5 0-.5.3v4c0 .5-.4 1.1-.8 1.4m11.3-6.3v-4c0-.3-.2-.8-.5-.9-.1-.1-.3-.1-.4 0L70 8"/><path class="st5" d="M70.9 12.9v-4c0-.3-.2-.8-.5-.9-.3-.2-.5 0-.5.3v4c0 .5-.4 1.1-.8 1.4m11.3-6.3v-4c0-.3-.2-.8-.5-.9-.1-.1-.3-.1-.4 0l-3.7 2.1"/><path class="st5" d="M76.7 9.6v-4c0-.3-.2-.8-.5-.9-.3-.2-.5 0-.5.3v4c0 .5-.4 1.1-.8 1.4m11.3-6.3v-4c0-.3-.2-.8-.5-.9-.1-.1-.3-.1-.4 0l-3.7 2.1"/><path class="st5" d="M82.5 6.2v-4c0-.3-.2-.8-.5-.9-.3-.2-.5 0-.5.3v4c0 .5-.4 1.1-.8 1.4M92 .7v-4c0-.3-.2-.8-.5-.9-.1-.1-.3-.1-.4 0l-3.7 2.1"/><path class="st5" d="M88.3 2.8v-4c0-.3-.2-.8-.5-.9-.3-.2-.5 0-.5.3v4c0 .5-.4 1.1-.8 1.4m7.6-4.1v-4c0-.3-.2-.8-.5-.9-.3-.2-.5 0-.5.3v4c0 .5-.4 1.1-.8 1.4M52.4 18.2v-4c0-.3-.2-.8-.5-.9-.1-.1-.3-.1-.4 0l-3.7 2.1m10.4-.6v-4c0-.3-.2-.8-.5-.9-.1-.1-.3-.1-.4 0L53.7 12"/><path class="st5" d="M54.6 16.9v-4c0-.3-.2-.8-.5-.9-.3-.2-.5 0-.5.3v4c0 .5-.4 1.1-.8 1.4m11.3-6.2v-4c0-.3-.2-.8-.5-.9-.1-.1-.3-.1-.4 0l-3.7 2.1"/><path class="st5" d="M60.4 13.6v-4c0-.3-.2-.8-.5-.9-.3-.2-.5 0-.5.3v4c0 .5-.4 1.1-.8 1.4m11.3-6.3v-4c0-.3-.2-.8-.5-.9-.1-.1-.3-.1-.4 0l-3.7 2.1"/><path class="st5" d="M66.2 10.2v-4c0-.3-.2-.8-.5-.9-.3-.2-.5 0-.5.3v4c0 .5-.4 1.1-.8 1.4m11.3-6.3v-4c0-.3-.2-.8-.5-.9-.1-.1-.3-.1-.4 0l-3.7 2.1"/><path class="st5" d="M72 6.8v-4c0-.3-.2-.8-.5-.9-.3-.2-.5 0-.5.3v4c0 .5-.4 1.1-.8 1.4m11.3-6.2v-4c0-.3-.2-.8-.5-.9-.1-.1-.3-.1-.4 0l-3.7 2.1"/><path class="st5" d="M77.8 3.5v-4c0-.3-.2-.8-.5-.9-.3-.2-.5 0-.5.3v4c0 .5-.4 1.1-.8 1.4M83.6.1v-4c0-.3-.2-.8-.5-.9-.3-.2-.5 0-.5.3v4c0 .5-.4 1.1-.8 1.4M47.7 15.5v-4c0-.3-.2-.8-.5-.9-.1-.1-.3-.1-.4 0l-3.7 2.1m10.4-.6v-4c0-.3-.2-.8-.5-.9-.1-.1-.3-.1-.4 0L49 9.3"/><path class="st5" d="M49.9 14.2v-4c0-.3-.2-.8-.5-.9-.3-.2-.5 0-.5.3v4c0 .5-.4 1.1-.8 1.4m11.3-6.3v-4c0-.3-.2-.8-.5-.9-.1-.1-.3-.1-.4 0l-3.7 2.1"/><path class="st5" d="M55.7 10.8v-4c0-.3-.2-.8-.5-.9-.3-.2-.5 0-.5.3v4c0 .5-.4 1.1-.8 1.4m11.3-6.2v-4c0-.3-.2-.8-.5-.9-.1-.1-.3-.1-.4 0l-3.7 2.1"/><path class="st5" d="M61.5 7.5v-4c0-.3-.2-.8-.5-.9-.3-.2-.5 0-.5.3v4c0 .5-.4 1.1-.8 1.4M71 2v-4c0-.3-.2-.8-.5-.9-.1-.1-.3-.1-.4 0L66.4-.8"/><path class="st5" d="M67.3 4.1v-4c0-.3-.2-.8-.5-.9-.3-.2-.5 0-.5.3v4c0 .5-.4 1.1-.8 1.4M73.1.8v-4c0-.3-.2-.8-.5-.9-.3-.2-.5 0-.5.3v4c0 .5-.4 1.1-.8 1.4M43 12.7v-4c0-.3-.2-.8-.5-.9-.1-.1-.3-.1-.4 0l-3.7 2.1m10.4-.5v-4c0-.3-.2-.8-.5-.9-.1-.1-.3-.1-.4 0l-3.7 2.1"/><path class="st5" d="M45.2 11.5v-4c0-.3-.2-.8-.5-.9-.3-.2-.5 0-.5.3v4c0 .5-.4 1.1-.8 1.4M54.7 6V2c0-.3-.2-.8-.5-.9-.2-.1-.4-.1-.5 0L50 3.2"/><path class="st5" d="M51 8.1v-4c0-.3-.2-.8-.5-.9-.3-.2-.5 0-.5.3v4c0 .5-.4 1.1-.8 1.4m11.3-6.3v-4c0-.3-.2-.8-.5-.9-.1-.1-.3-.1-.4 0L55.9-.2"/><path class="st5" d="M56.8 4.8v-4c0-.3-.2-.8-.5-.9-.3-.2-.5 0-.5.3v4c0 .5-.4 1.1-.8 1.4m7.6-4.2v-4c0-.3-.2-.8-.5-.9-.3-.2-.5 0-.5.3v4c0 .5-.4 1.1-.8 1.4M38.3 10V6c0-.3-.2-.8-.5-.9-.1-.1-.3-.1-.4 0l-3.7 2.1m10.4-.5v-4c0-.3-.2-.8-.5-.9-.1-.1-.3-.1-.4 0l-3.7 2.1"/><path class="st5" d="M40.5 8.8v-4c0-.3-.2-.8-.5-.9-.3-.2-.5 0-.5.3v4c0 .5-.4 1.1-.8 1.4M50 3.3v-4c0-.3-.2-.8-.5-.9-.1-.1-.3-.1-.4 0L45.4.5"/><path class="st5" d="M46.3 5.4v-4c0-.3-.2-.8-.5-.9-.3-.2-.5 0-.5.3v4c0 .5-.4 1.1-.8 1.4M52.1 2v-4c0-.3-.2-.8-.5-.9-.4-.1-.6 0-.6.3v4c0 .5-.4 1.1-.8 1.4M33.6 7.3v-4c0-.3-.2-.8-.5-.9-.1-.1-.3-.1-.4 0L29 4.5m10.4-.6V0c0-.3-.2-.8-.5-.9-.1-.1-.3-.1-.4 0l-3.7 2.1"/><path class="st5" d="M35.8 6V2c0-.3-.2-.8-.5-.9-.3-.2-.5 0-.5.3v4c0 .5-.4 1.1-.8 1.4M45.2.6v-4c0-.3-.2-.8-.5-.9-.1-.1-.3-.1-.4 0l-3.7 2.1"/><path class="st5" d="M41.6 2.7v-4c0-.3-.2-.8-.5-.9-.3-.2-.5 0-.5.3v4c0 .5-.4 1.1-.8 1.4m7.6-4.2v-4c0-.3-.2-.8-.5-.9-.3-.2-.5 0-.5.3v4c0 .5-.4 1.1-.8 1.4M28.9 4.6v-4c0-.3-.2-.8-.5-.9-.1-.1-.3-.1-.4 0l-3.7 2.1m10.4-.6v-4c0-.3-.2-.8-.5-.9-.1-.1-.3-.1-.4 0l-3.7 2.1"/><path class="st5" d="M31.1 3.3v-4c0-.3-.2-.8-.5-.9-.3-.2-.5 0-.5.3v4c0 .5-.4 1.1-.8 1.4M36.9 0v-4c0-.3-.2-.8-.5-.9-.3-.2-.5 0-.5.3v4c0 .5-.4 1.1-.8 1.4M24.2 1.9v-4c0-.3-.2-.8-.5-.9-.1-.1-.3-.1-.4 0l-3.7 2M26.4.6v-4c0-.3-.2-.8-.5-.9-.3-.2-.5 0-.5.3v4c0 .5-.4 1.1-.8 1.4"/><path class="st5" d="M-8.8-9.5v-7.4c0-.3.2-.5.5-.3s.5.6.5.9v4c0 .5.4 1.1.8 1.4l2.1 1.1c.4.3.8 0 .8-.5v-4c0-.3.2-.5.5-.3.4.2.6.6.6 1v4c0 .5.4 1.1.8 1.4L-.1-7c.4.3.8 0 .8-.5v-4c0-.3.2-.5.5-.3s.5.6.5.9v4c0 .5.4 1.1.8 1.4l2.1 1.2c.4.3.8 0 .8-.5v-4c0-.3.2-.5.5-.3s.5.6.5.9v4c0 .5.4 1.1.8 1.4l2.1 1.2c.4.3.8 0 .8-.5v-4c0-.3.2-.5.5-.3s.5.6.5.9v4c0 .5.4 1.1.8 1.4L14 1.1c.4.3.8 0 .8-.5v-4c0-.3.2-.5.5-.3s.5.6.5.9v4c0 .5.4 1.1.8 1.4l2.1 1.2c.4.3.8 0 .8-.5v-4c0-.3.2-.5.5-.3s.5.6.5.9v4c0 .5.4 1.1.8 1.4l2.1 1.2c.4.3.8 0 .8-.5V2c0-.3.2-.5.5-.3.3.3.5.7.5 1v4c0 .5.4 1.1.8 1.4l2.1 1.2c.4.3.8 0 .8-.5v-4c0-.3.2-.5.5-.3s.5.6.5.9v4c0 .5.4 1.1.8 1.4l2.1 1.2c.4.3.8 0 .8-.5v-4c0-.3.2-.5.5-.3s.5.6.5.9v4c0 .5.4 1.1.8 1.4l2.1 1.2c.4.3.8 0 .8-.5v-4c0-.3.2-.5.5-.3s.5.6.5.9v4c0 .5.4 1.1.8 1.4l2.1 1.2c.4.3.8 0 .8-.5v-4c0-.3.2-.5.5-.3s.5.6.5.9v4c0 .5.4 1.1.8 1.4l2.1 1.2c.4.3.8 0 .8-.5v-4c0-.3.2-.5.5-.3s.5.6.5.9v4c0 .5.4 1.1.8 1.4l2.1 1.2c.4.3.8 0 .8-.5v-4c0-.3.2-.5.5-.3s.5.6.5.9v4c0 .5.4 1.1.8 1.4l2.1 1.2c.4.3.8 0 .8-.5v-4c0-.3.2-.5.5-.3s.5.6.5.9v4c0 .5.4 1.1.8 1.4l2.1 1.2c.4.3.8 0 .8-.5v-4c0-.3.2-.5.5-.3s.5.6.5.9v4c0 .5.4 1.1.8 1.4l2.1 1.2c.4.3.8 0 .8-.5v-4c0-.3.2-.5.5-.3s.5.6.5.9v4c0 .5.4 1.1.8 1.4l2.1 1.2c.4.3.8 0 .8-.5v-4c0-.3.2-.5.5-.3s.5.6.5.9v7.4-3.4"/><path class="st1" d="M116.6 11.7c3.3 1.9 12.5 7.2 12.7 7.3.6.3.9.3 1.2.1.3-.2 5.8-3.4 5.8-3.4h.4l4.5 2.6-.2.1.2.1.4-.3.6.3-.4.3.2.2.2-.1.5.3-.2.1.2.1.4-.2.6.3-.4.2.2.1.4-.2.5.3-.2.1c-.2.2.2.1.2.1l.2-.1.6.3-.2.1s-.1.1 0 .2c.2.1.3 0 .3 0l2.6 1.5M116.5 3.9l.3-.2.4.3-.4.2.3.2.3-.2.4.2-.3.2.3.2.3-.2.4.2-.2.2.4.2.3-.2.3.2-.3.2.3.2.4-.2.4.2-.2.1s-.1.2 0 .3c.1.1.4 0 .4 0l1.3.7s-3.2 1.8-4.9 2.8m-4.8-5.1l2.8-1.6h.3l.8.4m-13.4-7.6l2.8-1.6.7-.3h.8l8.5 4.9v.5L111.8 1m-4.6-1.4l2.7 1.6m-6.1 47.9l-8.4 4.8-4.8-2.8s.1-.2-.1-.3-.6.2-.9 0-.1-.4-.1-.4-.2.1-.4-.1 0-.3-.2-.4c-.2-.1-.3.1-.6-.1-.2-.2-.1-.2-.2-.3s-.3.1-.4 0-.2-.3-.3-.4c-.1 0-.4.3-.7 0s.3-.4 0-.5c-.2-.1-.3 0-.3 0l-59-34s0-.1-.3-.2-.7.1-.9 0 .3-.3.1-.4c-.1-.1-.5.1-.7 0s.3-.3.1-.5c-.2-.1-.5.2-.8.1-.2-.1.3-.4.1-.5-.2-.1-.5.1-.7 0s.5-.2.1-.4c-.3-.2-.6.1-.9 0-.3-.2.4-.3.1-.4-.4-.2-.5 0-.5 0s-62.2-35.9-62.3-36c-.1-.1.2-.2 0-.3-.1-.1-.6.2-.9 0-.3-.2.3-.3.2-.4s-.4.1-.6 0c-.2-.2.1-.2 0-.3-.2-.1-.4 0-.6-.1s0-.3-.1-.4-.5.1-.6 0c-.2-.1.1-.3-.1-.3-.1-.1-.3 0-.6.1-.5 0-.5-.3-.3-.3.1-.1.3-.2.1-.3-.2-.1-.5.1-.5.1s-2-1.2-2.2-1.2c-.2-.1 0-.2.1-.3 0 0 .3-.2.8-.5"/><path d="M50.9-30l3.7-2.1c.1-.1.2 0 .4 0 .3.2.5.6.5.9v4.1l.1-.2 3.7-2.1c.1-.1.2 0 .4 0 .3.2.5.6.5.9v4.1s0-.2.1-.2l3.7-2.1c.1-.1.2 0 .4 0 .3.2.5.6.5.9v4.1s0-.2.1-.2l3.7-2.1c.1-.1.2 0 .4 0 .3.2.5.6.5.9v4.1l.1-.2 3.7-2.1c.1-.1.2 0 .4 0 .3.2.5.6.5.9v4.1l.1-.2 3.7-2.1c.1-.1.2 0 .4 0 .3.2.5.6.5.9v4.1l.1-.2 3.7-2.1c.1-.1.2-.1.3 0 1.7-1 3-1.8 3-1.8h1.1L104-8v.6S98.5-4.2 98.2-4c-.2.1-.4.3-.4.4l.1.6 3.7-2.1c.1-.1.2 0 .4 0 .2.1.3.2.4.4h0l2.8-1.6.7-.3h.8l8.5 4.9v.5L111.8.7h0c.1.1.1.3.1.4V4h0c1.4-.8 2.7-1.6 2.7-1.6h.3l.8.4h0c.1-.1.2 0 .4 0 .2.1.4.3.4.5l.3-.2.4.3-.4.2.3.2.3-.2.4.2-.3.2.3.2.3-.2.4.2-.2.8.4.2.3-.2.3.2-.3.2.3.2.4-.2.4.2-.2.1s-.1.2 0 .3c.1.1.4 0 .4 0l1.3.7s-3.2 1.8-4.9 2.8v2.1c3.3 1.9 12.5 7.2 12.7 7.3.6.3.9.3 1.2.1.3-.2 5.8-3.4 5.8-3.4h.4l4.5 2.6-.2.1.2.1.4-.3.6.3-.4.3.1.3.2-.1.5.3-.2.1.2.1.4-.2.6.3-.4.2.2.1.4-.2.5.3-.2.1c-.2.2.2.1.2.1l.2-.1.6.3-.2.1s-.1.1 0 .2c.2.1.3 0 .3 0l2.6 1.5 10.4-6 .9.6 1.8-1 3.2 1.8h0l4.7-2.6c.5-.3.8-.3 1-.2l.7.4c.5.2.5 1.1.5 1.1v6.2s0 1.8-1.5 2.7c-1.5.9-4.6 2.7-4.6 2.7l-3.3 5.8-2.7 1.5-.7-.4v-.8h0c-.4.2-.7.8-.7 1.2l-2.5 1.5h0v.8l-.3.5-1.3.8-1-.5-1.2.7-.8-.4h0c-.4.2-.7.8-.7 1.2v.8L114 61.2v9.1l-1 .6-11.6-6.4V53.2l3.4-2.1v-1.6l-.9-.5-8.4 4.8-4.8-2.8s.1-.2-.1-.3-.6.2-.9 0-.1-.4-.1-.4-.2.1-.4-.1 0-.3-.2-.4c-.2-.1-.3.1-.6-.1-.2-.2-.1-.2-.2-.3s-.3.1-.4 0-.2-.3-.3-.4c-.1 0-.4.3-.7 0-.3-.2.3-.4 0-.5-.2-.1-.3 0-.3 0l-59-34s0-.1-.3-.2-.7.1-.9 0c-.2-.1.3-.3.1-.4-.1-.1-.5.1-.7 0s.3-.3.1-.5c-.2-.1-.5.2-.8.1-.2-.1.3-.4.1-.5-.2-.1-.5.1-.7 0s.5-.2.1-.4c-.3-.2-.6.1-.9 0-.3-.2.4-.3.1-.4-.4-.2-.5 0-.5 0s-62.2-35.9-62.3-36c-.1-.1.2-.2 0-.3-.1-.1-.6.2-.9 0-.3-.2.3-.3.2-.4s-.4.1-.6 0c-.2-.2.1-.2-.1-.3-.2-.1-.4 0-.6-.1-.2-.1 0-.3-.1-.4s-.5.1-.6 0c-.2-.1 0-.3-.1-.3-.1-.1-.3 0-.6.1-.5 0-.5-.3-.3-.3.1-.1.3-.2.1-.3-.2-.1-.5.1-.5.1s-2-1.2-2.2-1.2c-.2-.1 0-.2.1-.3 0 0 .3-.2.8-.5v-11l11.5-6.7 6.3 3.6h0c.2-.2.4-.4.8-.6 1.4-.8 3.8-.8 5.2 0l.3.2c3.7-2 9.5-5.3 14.2-7.9v-2.8c0-.5.4-1.1 1.1-1.5 1.4-.8 3.8-.8 5.2 0 .2.1.4.3.6.4h0c.5-.3.7-.4.7-.4.1 0 .3-.2.5 0 .2.1 6.5 3.8 6.5 3.8l.2.1.1.1.5-.3.2.4-.3.2.2.1.3-.2.6.3-.4.2.1.1.3-.2.6.3-.3.2.1.1.4-.2.6.3-.3.2.2.1.5-.3.2.4-.2.3.2.1h0s7.2 4.2 16.7 9.7l1-.6c.1-.1.2 0 .4 0 .3.2.5.6.5.9v3.4l.3.1c.4-.3.8-.9.8-1.4h0v-4c0-.2.1-.3.2-.3h0l3.7-2.1c.1-.1.2 0 .4 0 .3.2.5.6.5.9v4.1h0c0-.2.1-.3.2-.4h0l3.7-2.1c.1-.1.2 0 .4 0 .3.2.5.6.5.9v4.1s0-.2.1-.2l3.7-2.1c.1-.1.2 0 .4 0 .3.2.5.6.5.9v4.1s0-.2.1-.2L50-35c.1-.1.2 0 .4 0 .3.2.5.6.5.9v4.1c-.1.2 0 0 0 0" fill="none" stroke="#000" stroke-width=".425" stroke-miterlimit="10"/><path class="st7" d="M137.3 39.4c-.1-.3 0-.5.2-.5s.4.3.5.6 0 .5-.2.5c-.2-.1-.4-.3-.5-.6m3.4.1c0 .1.1.1.1.1.1 0 .1-.2.1-.2 0-.1-.1-.1-.1-.1s-.1.1-.1.2"/><path class="st7" d="M139.7 40c0 .7.5 1 1.2.7.6-.4 1.2-1.3 1.2-2s-.5-1-1.2-.7c-.7.4-1.2 1.3-1.2 2"/><path class="st7" d="M141.7 38s-1-.6-1.2-.7c-.2-.1-.5-.1-.8.1-.6.4-1.2 1.3-1.2 2m0 0c0 .4.1.6.3.7.2.1 1.2.7 1.2.7m-2.9-7.2l-.1.4h.6l.1-.4m2 3.2s-2.3-1.3-2.5-1.4c-.2-.1-.5-.1-.8.1-.6.4-1.2 1.3-1.2 2m0 0c0 .4.1.6.3.7.2.1 1.8 1 1.8 1m1.3-3c.1-.4.1-.7.1-1.1"/><path class="st7" d="M134.5 39.7s-.4-.3-.9-.6c-.3-.3-.6-.7-.6-1.3-.1-1.5.9-3.4 2.3-4.3.7-.4 1.3-.5 1.8-.3s1.1.8 1.1.8"/><path class="st7" d="M137.7 35.7c-.1-.8-.7-1.1-1.5-.7-.8.5-1.5 1.6-1.5 2.6m.1 0c0 .9.6 1.3 1.3 1"/><path class="st7" d="M136.9 39c-.2.2-.3.3-.5.4-.3.2-.6.3-.9.4l.1-.3h-.6l-.1.3c-.6-.1-1-.7-1.1-1.5-.1-1.5.9-3.4 2.3-4.3.4-.2.7-.4 1-.4l-.5-.3c.2-.1.5 0 .5 0l.5.3c.6.1.9.7 1 1.5m2.3 4.1l-.8-.4m.6.8l-.8-.5m-4.4.7l-.5-.3m2.5-5.5l-.4-.3m.9 6.2l.5-.3m-1.1-.7l.8-.4m.1 1.2h.2m1.5-2.4c-.1-.5-.6-.6-1.1-.3-.6.3-1.1 1.1-1.1 1.8m.4-.3c.2-.1.5.1.5.3"/><text transform="translate(182.384 43.217)" class="st3 st8">Status LED</text><text transform="translate(168.067 66.357)" class="st3 st8">Micro-BNC connector</text><text transform="translate(135.001 97.574)"><tspan x="0" y="0" class="st3 st8">D-Sub Micro-D</tspan><tspan x="0" y="9.6" class="st3 st8">connector (15-pin)</tspan></text><path d="M145 37.5l33.8 1.7m-38.1.3l23.4 21.6m-41.5-11.9L135 85.5" fill="none" stroke="#000" stroke-width=".5" stroke-miterlimit="10"/></svg>