<svg style="background-color:#fff" version="1.1" id="Ebene_1" xmlns="http://www.w3.org/2000/svg" x="0" y="0" viewBox="0 0 694.5 303.3" xml:space="preserve"><style>.st0,.st1{fill:none;stroke:#000}.st0{stroke-linecap:round;stroke-linejoin:round;stroke-miterlimit:10;stroke-width:.4252}.st1{stroke-width:.2835}.st1,.st8{stroke-miterlimit:10}.st8,.st9{fill:none;stroke:#000;stroke-width:.2835;stroke-linecap:round;stroke-linejoin:round}.st11{font-family:Helvetica,Arial,sans-serif}.st12{font-size:16px}.st13{font-size:12px}.st14{font-size:11.9906px}</style><path class="st0" d="M380.1 142.1l.8-.8m-10.4.8l10.5-10.5m-20.1 10.5l20.4-20.4m-29.9 20.4l30.5-30.5m-40 30.5l40.7-40.8 6.5-6.4m-56.8 47.2l49-49m-58.5 49l48.9-49m-58.5 49L367 88.3m-63.4 53.8l51.9-51.8m.9-1l.4-.4m-62.7 53.2l60.2-60.2m-69.7 60.2l69.7-69.8M275 142.1l79.3-79.2m-88.9 79.2l87-86.9M256 142.1l87.1-87.2m-96.7 87.2l87.2-87.2m-96.8 87.2l88.7-88.7m-98.3 88.7l88.7-88.7m-98.1 88.7l88.5-88.7m-98.1 88.7l86.3-86.4m-153.1 86.4l87.2-87.2m-96.8 87.2L219 54.9m-96.7 87.2l87.1-87.2m-96.6 87.2L200 54.9m-89.3 79.7l79.8-79.7M111.7 124l69.2-69.1m-67.5 57.8l57.9-57.8M116.7 100l45.1-45.1m-39.9 30.2l30.4-30.2m-35.9 26.2l23.5-23.4m-25.3 15.7l15.7-15.7M110.5 68l9.4-9.4m-18.6 9.1l10-10m87.3 84.4l22.8-22.8m5.4-5.4l60.5-60.5m-98.1 88.7l22.6-22.8m15-15l50.9-50.9m-98.1 88.7l22.8-22.8m21.2-21.2l44.5-44.7M170 142.1l22.8-22.8M214 98.1l43.2-43.2m-96.7 87.2l26-26m18.1-18l43-43.2M151 142.1l35.5-35.5m8.5-8.5l43-43.2M67.3 220.8l-3.7-3.8m13.2 3.8l-4.5-4.7m14.1 4.7l-10-10.1M96 220.8L78.2 203m33.1 23.5l-28.4-28.4m37 27.6l-42-42m52.4 42.8L75 171.1m64.9 55.4l-66.6-66.6m81 71.5l-81.8-81.9m91.4 81.9l-89.3-89.3m98.8 89.3l-89.3-89.3m98.9 89.3l-89.3-89.3m98.8 89.3l-89.3-89.3m97.7 88.2l-2.7-2.7m-.4-.4v-.2m-1.5-1.3l-83.5-83.6m96.6 87.2l-87.1-87.2m96.7 87.2l-87.2-87.2m174.5 88.6l-88.5-88.6m98.1 88.6l-88.7-88.6m98.3 88.6l-88.7-88.6m96.8 87.2l-87.2-87.2m96.7 87.2L256 142.1m96.4 87l-87-87m88.9 79.3L275 142.1m79.3 69.7l-69.7-69.7m69.7 60.2l-60.2-60.2m63.4 53.7l-1.1-.9m-.9-.9l-51.9-51.9m62.8 53.2l-53.2-53.2m58.5 48.9l-48.9-48.9m58.5 48.9l-49-48.9m56.8 47.3l-47.2-47.3m39.1 29.6l-29.6-29.6m29.1 19.6l-19.6-19.6m19.3 9.7l-9.7-9.7m-141.9 87.2l-41.7-41.8m-6.4-6.4l-39.1-39m96.6 87.2l-41.7-41.8m-15.8-15.8L151 142.1m96.6 87.2l-41.7-41.8m-21.3-21.2l-24.1-24.2m96.7 87.2l-41.7-41.8m-21.3-21.2L170 142.1m98.1 88.6l-43.2-43.2m-21.2-21.2l-24.1-24.2m98.1 88.6l-44.1-44.2m-20.3-20.2l-24.1-24.2m98.1 88.6l-53.7-53.6m-10.8-10.8l-24.2-24.2m95.9 86.3l-60.9-60.9m-1.2-1.2l-24.2-24.2m148.2-51.8h-2.1V57.1l-2.2-2.2h-21.2l-1.5-1.5h-27.2l-2.3 2.3h-6.8l-2.3-2.3h-27.2l-1.5 1.5h-57.8l-1.1 1.1v1.1h-1.3v-2.2h-55.8l-5.9 2.8h-14.9v.9H119v-.9h-12.9l-2 2.1v3.6H102l-2.1 2.2v1.7l.6-.6.8 1h.4m0 0l.8-1"/><path class="st0" d="M102.5 66.7l.9 1h.4l.9-1m0 0l.8 1m0 0h.5l.8-1 .8 1h.4l.4-.4v-.6h2.1v6.7h4.3v7.3h.7l6.3 2.6h.7l.1.1m.1 0c-8 18.5-12.1 38.5-12.1 58.7m272.1-41.7c-1.2 13.8-1.8 27.7-1.8 41.6"/><path class="st0" d="M382.6 100.5v5.4h.7l5.7-2.8v-5.3h.1v-3.3l-1.2-1.4h-16.6v-4.7m0 0l-.2-.3m0 0h-.4m0 0l-.9 1.1-.8-1.1m0 0h-.4m0 0l-1 1.1-.8-1.1m0 0h-.4m0 0l-.8 1.1m-1.3-1.1h.4l.9 1.1m-1.3-1.1l-.8 1.1m-2.2 0l.9-1.1h.4l.9 1.1m-2.2 0l-.8-1.1m0 0h-.4l-1 1.1m0 0l-.8-1.1m0 0h-.4l-.8 1.1-.7-.8v1.9m-248 51.8V67.3m-1.3 74.8v-7l.1-7.2V107l.2-6.3V84.3l.1-4.1V71l.1-1.8v-1.5m-1.3 74.4v-14.3l.1-7.1v-20.3l.1-6.1V79.5l.2-3.7v-7.5l.1-1.2v-.4m-1.9 75.4l.2-7v-21.3l.1-6.8V89.2l.1-4.9V73.4l.2-2.4v-3.3m-1.4 74.4V135l.2-7.2v-20.9l.1-6.5V83.8l.1-4.3v-9.3l.2-1.9v-1.6m-1.8 75.4v-21.3l.1-7V94.7l.2-5.5V76.5l.1-3.1V68l.1-.3m-1.4 74.4l.1-7.1v-21.4l.1-6.7V88.8l.2-5V72.7l.1-2.5v-3.5m-1.8 75.4v-14.2l.2-7.1v-20.1l.1-6V80.2l.1-3.7v-7.3l.2-1.2v-.3m-1.4 74.4V67.3m50.4-14l-2 .8-1.8.8m55.1 0l-.8-.8-1-.8m0 0h-49.5m232.3 88.8h6.5m-8.2 0h1.3m-267.4-35.2V80.7m7.7 3.1v-.5m-12 58.8V73.4M386 142.1V140h3m-5.7 2.1v-36.2M389 140v-36.9M104.1 220.8v3.5l2 2.2H119v-.8h6.3v.8h14.9l10.1 4.9h49.5l2.1-2.1v-1.7h-5.6v-2.2h1.5v1.8h5.4v1l1.1 1.1h57.8l1.5 1.4h27.2l2.3-2.3h6.8l2.3 2.3h27.2l1.5-1.4h21.2l2.2-2.1V194h2.1v1.6l.4.5h.4l1-1.1.8 1.1h.4l.8-1.1 1 1.1h.4l.8-1.1.8 1.1h.5l.8-1.1m0 0l.8 1.1m0 0h.4m0 0l1-1.1m0 0l.8 1.1h.4l.8-1.1 1 1.1h.4l.8-1.1m0 0l.4.6m0 0V191h16.6l1.2-1.2v-3.5h-1.2v-5.2l-5.8-2.8h-.6l-.1-.3m-1.3-36c0 12 .4 24 1.3 35.9m-270.8-35.8H72.3m0 0c-.1 20.2 3.9 40.2 11.7 58.8m0 .1h-.4l-6.5 2.5h-.7v7.2h-4.1v6.9h-2.2v-.7m0 0l-.5.7m-1.3-1.1h.4l.9 1.1m-1.3-1.1l-.8 1.1"/><path class="st0" d="M104.1 220.8H63.8l-2.2-2.1v-1.8l.4-.4h.4l.8 1.1.8-1.1h.4l1 1.1.8-1.1h.4l.9 1.1m134.4 10v-.4M386 142.1h3.1m-6.9 0h.4m-321 0h10.7m0 68.6V144m-9.9 72.5v-3.2l.1-2.5v-11.2l.2-4.8v-17.6l.1-6.6v-21.2l.1-7.3m1.7 0v21.6l-.2 6.9v18.8l-.1 5.4v12.9l-.1 3.1v5.3l-.2.4m2.7-74.4v14.6l-.1 7v19.7l-.1 6v14.5l-.2 3.8v7.3l-.1 1.1v.4m2.7-74.4v7.3l-.2 7.3v20.5l-.1 6.2v16.2l-.1 4.3v9.4l-.2 1.7v1.5m-6.7.4v-74.8"/><path class="st0" d="M63.2 217.6v-.6l.1-1v-11.4l.2-4.3v-16.5l.1-6.4v-21l.2-7.3v-7m1.6 75.5V216l.1-1.9v-13.8l.1-4.9v-18l.2-6.8v-21.5l.1-7m1.6 75.5v-3.5l.2-2.6v-16.1l.1-5.5v-19.3l.1-7v-21.5m1.7 75.5l.1-.6v-5.5l.1-3.1v-18.5l.2-6.1v-20.2l.1-7.2v-14.3m314.8 2.2v-2.2m3 39v-36.8m-5.8 34v-36.2m2.8 2.2h3M76.4 203.5v-25.2m-4.1-35.2v-1m316.8 44.2v-44.2m182.3 88.8c2.3.2 4.6.3 6.9.3m0-168c-43.4 0-78.6 35.2-78.6 78.6s35.2 78.6 78.6 78.6"/><path class="st0" d="M578.3 59.6c-45.4 0-82.3 36.8-82.3 82.3 0 45.4 36.8 82.3 82.3 82.3"/><path class="st0" d="M578.3 57.4c-46.6 0-84.4 37.8-84.5 84.4 0 46.6 37.8 84.4 84.4 84.5m-3.3-173.6l1.3 1.2 1 .5 1.2.5m-3.6-2.3c-3 .1-6 .4-9 .8m-11.5 2.5l1.1.6 1.5.5 1.8.1h.9l1-.1 1-.3.8-.4 1.5-.8 1.1-1.1.8-.9m-11.5 2.3c-2.9.8-5.7 1.8-8.5 2.9"/><path class="st0" d="M535.2 63.8l1.2.2 1.5.2 1.7-.2 1-.2.9-.4 1-.4.6-.6 1.4-1.3.8-1.1.5-1.2m-10.7 4.9c-2.6 1.5-5.2 3-7.7 4.7m-9.1 7.4l1.2.1 1.5-.3 1.6-.5 1-.5.8-.6.8-.7.5-.8 1-1.4.5-1.4.3-1.2m-9.2 7.3c-2.2 2-4.3 4.2-6.4 6.4m-7.2 9.2l1.2-.2 1.3-.6 1.5-.9.8-.7.7-.7.5-.9.6-.8.5-1.6.2-1.5v-1.2m-7.4 9.1c-1.7 2.5-3.3 5-4.7 7.7m-4.8 10.7l1.1-.5 1.2-.9 1.2-1.2.5-.8.6-.9.4-1 .1-.9.3-1.8-.2-1.5-.4-1.2m-4.9 10.6c-1.1 2.8-2 5.7-2.8 8.6m-2.4 11.6l1.1-.8.9-1.1 1-1.5.3-.9.2-1 .2-1v-1l-.2-1.7-.5-1.4-.6-1.1m-2.4 11.4c-.4 3-.7 6-.8 9m.4 11.7l.8-.9.7-1.3.5-1.6.2-1 .1-1.1-.1-.9-.3-1-.5-1.6-.8-1.3-.9-1m.3 11.7c.3 3 .7 6 1.3 8.9m3.2 11.4l.5-1.1.4-1.4.1-1.7-.1-1-.1-1-.4-.9-.4-1-1-1.5-1.1-.9-1-.8m3 11.3c1 2.8 2.1 5.6 3.3 8.4m5.7 10.4l.2-1.2.2-1.5-.3-1.8-.4-.9-.4-1-.5-.8-.7-.8-1.2-1.1-1.2-.8-1.3-.5m5.6 10.3c1.6 2.5 3.3 5 5.2 7.4m7.9 8.7v-1.2l-.4-1.5-.7-1.6-.4-.8-.7-.8-.8-.7-.7-.5-1.6-1-1.3-.4-1.3-.1m7.8 8.6c2.1 2.1 4.4 4.1 6.7 6m9.7 6.7l-.3-1.2-.6-1.2-1-1.5-.7-.7-.8-.6-.9-.6-.8-.4-1.8-.4-1.5-.1-1.2.1m9.6 6.6c2.6 1.6 5.2 3 7.9 4.3m11 4.4l-.5-1.1-1-1.2-1.3-1.1-.8-.5-1-.4-.9-.4-1-.2-1.7-.1-1.5.3-1.2.4m10.9 4.2c2.9.9 5.8 1.7 8.7 2.3m11.7 1.7l-.8-.8-1.2-1-1.5-.8-1-.4-1-.1-1-.1-1.1.1-1.6.3-1.3.5-1.1.7m18.5-174.4v-.2m-15 173c1.7.3 3.3.5 5 .7M544 222c1.6.7 3.1 1.3 4.7 1.9m-22.3-12c1.4 1 2.7 2 4.2 2.9M511.7 198c1.1 1.3 2.2 2.6 3.4 3.8m-14.6-20.6l2.4 4.5m-9.3-23.5c.4 1.6.8 3.3 1.3 4.9m-2-42.9c-.4 1.6-.2 1-.5 2.7m7-21.8c-.8 1.5-.5.9-1.2 2.5m11.7-19.7c-1.1 1.3-.6.8-1.6 2.1m15.9-16.4c-1.4 1-.7.6-2 1.7M541.5 63c-1.6.7-1 .4-2.5 1.1m21.7-7.5c-1.7.3-1 .1-2.7.5m20.3-2.4h-.2m.2 28.4c-32.5 0-58.8 26.3-58.8 58.8s26.3 58.8 58.8 58.8"/><path class="st0" d="M578.3 80.5c-33.9 0-61.4 27.5-61.4 61.3 0 33.9 27.5 61.4 61.3 61.4m-84.1-38.7l-1.3-1.5-1.5-1.1m21.9 37.9l-1.9-.8-1.8-.2m-17.9-53.1l-1.4-3.1-1.2-1.3m3.9-17.1l-.4-1.8-.9-1.7m7.8-15.6l-.1-2.1-.4-1.7m11-13.5l.6-1.9-.2-1.9m-8.7 99.2l-1.7-1.2-1.7-.7m80.1-113.9c-15.6 0-30.8 4.9-43.5 14"/><path class="st0" d="M578.4 216.3l-5.7-.1-5.7-.7-5.8-1.2-5.6-1.5-5.6-2-5.4-2.6-5.2-3-5-3.2-4.8-3.8-4.3-4-3.9-4.3-3.5-4.6-3.1-4.8-2.7-4.8-2.4-5.3-2.1-5.4-1.6-5.7-1.2-5.8-.7-5.9-.1-5.9.3-6.1.6-6 1.3-5.8 1.6-5.5 2.1-5.5 2.5-5.2 2.7-4.8 3.2-4.7 3.5-4.6 4.1-4.2 4.3-4.1 4.7-3.6"/><path class="st0" d="M578.3 65.4c-42.2 0-76.5 34.2-76.5 76.5 0 42.2 34.2 76.5 76.5 76.5"/><path class="st0" d="M578.3 73.2c-37.9 0-68.6 30.7-68.7 68.6 0 37.9 30.7 68.7 68.6 68.7m-87.4-51c.2.8.3 1.5.5 2.3m5.9 17.4c.3.7.7 1.4 1 2.1m9.8 15.6l1.5 1.8m13.1 12.9c.6.5 1.2 1 1.9 1.5m15.6 9.5c.7.3 1.4.7 2.1 1m17.6 5.6c.8.2 1.5.3 2.3.5m-73-90.9v2.4m3.1-22.9c-.2.8-.4 1.5-.6 2.3m8.3-21.5c-.4.7-.7 1.4-1.1 2.1m28.7-32.8c-.6.4-1.3.9-1.9 1.4m-13.7 12.3c-.5.6-1 1.2-1.6 1.8m35.5-25.2c-.7.3-1.5.6-2.2.9m22.2-6.2c-.8.1-1.6.2-2.3.4m-2.8 2.8l1.6-1.3 1.2-1.5m-22 9.2l1.4-1.7.7-1.7m-19.4 13.9l1-1.8.4-1.9m40.1 158.4l-1.9.5-1.6 1m-16.1-6.8l-2 .2-1.8.5m-14-10.3l-2-.4-1.8.2m45.8-193.2l-.4.4m0 0h.2m0 0l.4-.4h.2l-.3.4m0 0h.8m0 0l.4-.4h.3l-.1.4m0 0h1.2m0 0l.4-.4h.4l-.1.4m0 0h1.7m0 0l.3-.4h.4v.4m0 0h1.9m0 0l.1-.4h.3m-7.3-.8h7.3m-7.3 21.2h7.3m0-.8h-.3l-.1-.4m-1.9 0h1.9m-1.9 0v.4h-.4l-.3-.4m-1.7 0h1.7m-1.7 0l.1.4h-.4l-.4-.4m-1.2 0h1.2m-1.2 0l.1.4h-.3l-.4-.4m-.8 0h.8m-.8 0l.3.4h-.2l-.4-.4m-.2 0h.2m-.2 0l.4.4m-.4-.4V20.3m.5 18.8V20.3m.8 18.8V20.3m.6 18.8V20.3m1.2 18.8V20.3m.7 18.8V20.3m1.7 18.8V20.3m.7 18.8V20.3m1.9 18.8V20.3m-1.9 19.2V19.9m-5.6 19.6v-.2m0-19.3v-.1m-35.3 6.3l13.9-4.3m-14.5 5.4l-.2.4m0 0h.2m0 0l.3-.5h.1l-.1.4m0 0l.8-.3m0 0l.3-.5h.3l-.2.4m0 0l1.4-.3m0 0l.1-.5.4-.2v.4m0 0l1.6-.5m0 0l.2-.4.4-.1.1.4m0 0l1.8-.6m0 0l.1-.5.4-.2.3.5m0 0l1.7-.6m0 0v-.4l.3-.1.5.2m0 0l1.5-.4m0 0l-.1-.4.3-.1.5.3m0 0l1.2-.3m0 0l-.3-.4.2-.1.7.2m0 0l.8-.1m0 0l-.6-.4h.2l.5.3m0 0l.3-.2m0 0l-.6-.2m-8.5 24l13.8-4.2m.5-1.1l.3-.5m-.3.1l.3-.1m-.3.1l-.2.6h-.2l.2-.6m-.8.3l.8-.3m-.8.3l-.3.5h-.3l.1-.4m-1.2.4l1.2-.4m-1.2.4l-.2.6h-.4v-.4m-1.7.5l1.7-.5m-1.7.5l-.1.5h-.4l-.1-.2m-1.8.5l1.8-.5m-1.8.5l-.1.4-.4.1-.3-.4m-1.8.6l1.8-.6m-1.8.6l.2.4-.4.1-.4-.2m-1.7.5l1.7-.5m-1.7.5l.2.3-.3.1-.5-.3m-1.2.4l1.2-.4m-1.2.4l.2.3-.1.1-.5-.2m-.9.2l.9-.2m-.9.2l.4.3h-.1l-.5-.3m-.3.2l.3-.2m-.3.2l.5.2m-.5-.2l-5.5-18m6 17.8l-5.5-17.9m6.4 17.7l-5.6-18m7.2 17.4l-5.4-17.8m6 17.7l-5.5-18m7.2 17.5l-5.6-18m6.2 17.7L540.3 26m7.3 17.2l-5.5-17.8m6.3 17.7l-5.5-17.9m7.3 17.4l-5.6-18m6.2 17.7l-5.4-18m7.1 17.5l-5.6-17.9m6.2 17.7l-5.5-17.9m6.7 17.5l-5.5-17.8m6.8 17.4L550.2 23m5.9 17.7l-5.5-18m5 18.7l-.2-.3m-5.5-18.4l-.1-.1M535 27.3l-.1-.1m39.2 25.5V40.3m-3-21.2l-.8.8m.8 20.4l-.8-.8m-21.2-17.6l.9.6m-14.8 3.7l-.6 1.1m6.9 19.2l-1.1-.6m14.9-3.6l.5-1.1M548.1 58l-3.7-12.3m12.2 11.2l-4.1-13.8m28.1 188c.7 0 1.5 0 2.2-.1m-1.9-176.1c-1.6-.1-1-.1-2.6-.1m22.6 2.9c-1.6-.5-1.2-.3-2.8-.7m21.6 8.2c-1.5-.8-1.1-.7-2.6-1.4m20.8 14.4c-.6-.6-1.2-1.1-1.8-1.7s-1.3-1.1-2-1.7M649.8 92c-.9-1.4-.8-1.1-1.8-2.4m12.1 22.1c-.6-1.6-1.2-3.2-1.9-4.7m6.6 24.4c-.2-1.7-.5-3.4-.8-5m.9 25.2c.2-1.7.3-3.4.4-5.1m-5 24.9c.6-1.6 1.1-3.2 1.6-4.8m-10.6 22.9c.9-1.4 1.8-2.9 2.6-4.3M638.3 205l3.6-3.6m-19.7 15.8c1.5-.9 2.9-1.7 4.3-2.7m-22.9 10.7c1.6-.5 3.2-1 4.8-1.6m-24.7 5.2c1.7-.1 3.4-.3 5-.5"/><path class="st0" d="M578.3 224.1c45.4 0 82.3-36.8 82.3-82.3s-36.8-82.3-82.3-82.3m0 171.7h2.3"/><path class="st0" d="M578.3 226.3c46.6 0 84.4-37.8 84.5-84.4S625 57.4 578.3 57.4m7.6 171.3l-1.7 1.1-1.4 1.4m-4.4-176.5v.2m2.5 0l1.9-1 1.4-1.1m83.1 81.6c-.1-.7-.1-1.5-.2-2.2m-2.5-3l1.1 1.8 1.4 1.2"/><path class="st0" d="M586.5 53l-1.4 1-1.7.9-1.2.2-1.3.2-1.3-.2-1.2-.2m-.1 155.6c37.9 0 68.6-30.7 68.7-68.6 0-37.9-30.7-68.7-68.6-68.7"/><path class="st0" d="M578.3 218.3c42.2 0 76.5-34.2 76.5-76.5 0-42.2-34.2-76.5-76.5-76.5"/><path class="st0" d="M578.3 220.5c43.4 0 78.6-35.2 78.6-78.6s-35.2-78.6-78.6-78.6"/><path class="st0" d="M578.4 216.3l5.8-.3 5.8-.6 5.8-1.1 5.7-1.6 5.4-2.1 5.4-2.4 5.1-3 4.9-3.2 4.4-3.5 4.3-4.1 4.1-4.3 3.5-4.6 3.2-4.8 2.9-5.2 2.4-5.2 2-5.6 1.6-5.6 1.1-5.7.7-5.8.3-5.8-.3-5.9-.7-5.9-1.2-5.6-1.5-5.7-2.1-5.4-2.5-5.4-2.8-5.1-3.2-4.9-3.7-4.6-4-4.2-4.4-4-4.6-3.5m0-.2c-12.7-9.1-27.9-14-43.5-14m54.6 3.8l.2 1.3.5 1.4.8 1.5.7.8.7.7.8.6.8.6 1.6.6 1.5.3h1.2m-26.6-18.5l.5 1.2.8 1.3 1.1 1.3.8.5 1 .6.8.4.9.4 1.8.3 1.5-.2 1.2-.2m-30.1-11.8l.7 1 1 1 1.5 1 .8.4 1.1.4 1 .1.9.2 1.8-.2 1.4-.4 1.1-.5m50.8 126.1l-1.2.4-1.4.7-1.3 1-.7.8-.5.9-.6.9-.3.9-.4 1.7v1.4l.2 1.3m16.3-49.9l-.8.9-.9 1.2-.7 1.6-.3.9-.1 1v1.1l.1.9.4 1.8.7 1.3.7 1m-1.1-32.3l-.7 1.1-.5 1.3-.3 1.8-.1.9.1 1 .3 1 .2 1 .9 1.5.9 1.2.9.8m-8.5-31.3l-.4 1.2-.1 1.5v1.7l.3 1 .2.9.4 1 .6.8 1.2 1.3 1.1 1 1.1.5m-15.4-28.3l-.2 1.2.2 1.5.5 1.6.4.9.6.8.5.9.8.9 1.4 1.1 1.3.2 1.2.5m-17 113.5l.1-1.4.3-1.3.8-1.6.6-.8.6-.7.8-.8.9-.6 1.4-.6 1.5-.4 1.2-.2m-15.3 13.9l-1.3-.1h-1.4l-1.7.4-.9.4-1 .4-.8.7-.6.7-1.1 1.3-.7 1.2-.4 1.2m-8.2 3.9l-1.3-.5-1.3-.3h-1.8l-.9.2-1.1.2-.9.4-.8.5-1.4 1-.9 1.2-.7 1m-8.9 1.9l-1-.7-1.3-.7-1.8-.4h-2l-.9.2-1 .2-1.6.7-1.2 1-.8.8m11.6-1.1c3-.5 5.9-1.1 8.8-1.9m11.1-3.7c2.8-1.1 5.5-2.4 8.2-3.8m10-6.3c2.4-1.8 4.8-3.6 7-5.6m21.4-105.6c-1.3-2.7-2.7-5.4-4.3-7.9m11.1 27.5c-.6-2.9-1.4-5.8-2.4-8.7m4.4 29.3c.1-3 0-6-.3-9m-2.5 29.6c.7-2.9 1.3-5.9 1.8-8.8m-9.2 28.1c1.4-2.7 2.7-5.4 3.8-8.2m-15.5 25.4c2-2.3 3.8-4.6 5.6-7.1M595.4 54.2c-3-.6-5.9-1-8.9-1.3m28.6 7.6c-2.7-1.2-5.5-2.3-8.4-3.3m26.2 14c-2.4-1.8-4.8-3.6-7.4-5.1m39.4 98l-1.1.6-1 1-1.1 1.3-.6 1-.2.9-.3 1-.1.9v1.8l.2 1.5.6 1m-13.6-89.4c-1.9-2.3-3.9-4.6-6-6.7m-55.3-26.1c-.7-.1-1.5-.1-2.2-.2m36.2 167.9c.7-.4 1.3-.7 2-1.1"/><path class="st0" d="M624.1 216.2l-1 1.6-.7 1.8m42.8-70.1l.8 2 .9 1.5m-.3 2.1c.1-.7.2-1.5.3-2.2m-5.7 22.3c.3-.7.5-1.4.8-2.1m-.9-3.8l.3 2.1.7 1.7m-10.8 20.3c.4-.6.9-1.2 1.3-1.8m-.1-3.9l-.1 2 .2 1.9m-15.2 17.2c.6-.5 1.1-1 1.7-1.5m.8-3.7l-.6 1.9-.2 1.9m-38 20.8c.7-.2 1.4-.4 2.2-.6m2.5-2.9l-1.5 1.5-.9 1.5m56-117.9l1.5 1.3 1.6 1m.7 2c-.2-.7-.5-1.4-.7-2.1m-12.7-20l1.7.9 1.8.6m1.2 1.8c-.4-.6-.8-1.3-1.2-1.9m-33.6-28.2h2.1l1.8-.2m1.9 1c-.6-.4-1.3-.8-1.9-1.2m18.1 14.1l-1.6-1.6m-3.8-.4l2 .5h1.8m-33.4-20.2c-.7-.2-1.4-.5-2.1-.7m-3.7 1.2l2-.4 1.7-.7m-26.3 146.6c33.9 0 61.4-27.5 61.4-61.3 0-33.9-27.5-61.4-61.3-61.4"/><path class="st0" d="M578.3 200.7c32.5 0 58.8-26.3 58.8-58.8s-26.3-58.8-58.8-58.8m.1-64h7.1m-7.1.8l.4.4m0 0h1.7m0 0l.2-.4h.4l.2.4m0 0h1.7m0 0v-.4h.2l.4.4m0 0h1.4m0 0l-.3-.4h.3l.4.4m0 0h.9m0 0l-.4-.4h.2l.5.4m0 0h.3m0 0l-.4-.4m-8.1 20.4h7.1m-7-.8V19.9m8 19.6l.4-.4m-.3 0h.3m-.3 0l-.5.4h-.2l.4-.4m-.9 0h.9m-.9 0l-.4.4h-.3l.3-.4m-1.4 0h1.4m-1.4 0l-.4.4h-.2v-.4m-1.7 0h1.7m-1.7 0l-.2.4h-.4l-.2-.4m-1.7 0h1.7m-1.7 0l-.3.4m2-.4V20.3m.8 18.8V20.3m1.7 18.8V20.3m.6 18.8V20.3m1.4 18.8V20.3m.4 18.8V20.3m1.5 18.8V20.3m-.8 19.2v-.2m0-19.3v-.1M582.6 54V40.3m2.9-21.2l1 .8m-1 20.4l1-.8m6.9-20.4l-3.4-.3m-1.6-.1h-.3m-1.8-.2l-2-.1-4.7-.1m-1.6 0h-.3m-1.8 0h-.6l-6 .2m-1.7.2h-.3m-1.6.1l-6.8 1m-1.6.2h-.3m-1.6.4l-6.6 1.4m-1.6.4l-.3.1m-1.6.4l-5.8 1.8-.7.2m-1.6.6l-.1.1m-1.7.6l-4.4 1.6-1.9.8m-1.5.8h-.3m-1.4.8l-3.1 1.4m0-.1c-9.8 4.9-18.8 11.1-27 18.4"/><g id="Mittellinien"><path class="st1" d="M459.7 142h7.1"/><path d="M469.5 142h1.9" fill="none" stroke="#000" stroke-width=".283" stroke-miterlimit="10" stroke-dasharray=".5485,2.7426"/><path d="M472.8 142h215.9" fill="none" stroke="#000" stroke-width=".283" stroke-miterlimit="10" stroke-dasharray="13.713,2.7426,.5485,2.7426"/><path class="st1" d="M690 142h7.1m-616.9 0h7"/><path d="M90.1 142h2" fill="none" stroke="#000" stroke-width=".283" stroke-miterlimit="10" stroke-dasharray=".5724,2.8619"/><path d="M93.5 142h287.1" fill="none" stroke="#000" stroke-width=".283" stroke-miterlimit="10" stroke-dasharray="14.3095,2.8619,.5724,2.8619"/><path class="st1" d="M382 142h7.1M578.4 34.7v7.1"/><path d="M578.4 44.5v1.9" fill="none" stroke="#000" stroke-width=".283" stroke-miterlimit="10" stroke-dasharray=".54,2.7"/><path d="M578.4 47.7v193.1" fill="none" stroke="#000" stroke-width=".283" stroke-miterlimit="10" stroke-dasharray="13.4998,2.7,.54,2.7"/><path class="st1" d="M578.4 242.1v7.1"/></g><g id="Bemassung"><path class="st1" d="M18.6 60.7v163"/><path d="M16.1 62.4l2.5-9.2 2.4 9.2h-4.9zm0 159.6l2.5 9.3L21 222h-4.9z"/><path class="st1" d="M43.6 74.6v134.5"/><path d="M41.1 76.3l2.5-9.2 2.4 9.2h-4.9zm0 131.1l2.5 9.2 2.4-9.2h-4.9z"/><path class="st8" d="M62 216.7H39.5M99.5 67h-60m111.3-13.8H14.2m137.1 178.1H14.2"/><path class="st9" d="M421.9 96.5v91.3"/><path d="M419.4 98.2l2.5-9.2 2.4 9.2h-4.9zm0 87.9l2.5 9.2 2.4-9.2h-4.9z"/><path class="st8" d="M357.1 88.2h69m-69.3 108h69.3"/><path class="st9" d="M346.6 263.3H69.7"/><path d="M344.9 260.8l9.2 2.5-9.2 2.5v-5zm-273.5 0l-9.2 2.5 9.2 2.5v-5z"/><path class="st9" d="M396.4 263.3h17.7"/><path d="M398.1 265.8l-9.2-2.5 9.2-2.5v5z"/><path class="st8" d="M389.1 189.8v77.7"/><path class="st9" d="M419.4 287.6h-57.8"/><path d="M417.7 285.1l9.2 2.5-9.2 2.5v-5zm-54.4 0l-9.2 2.5 9.2 2.5v-5z"/><path class="st8" d="M354 220.6v71.2"/><path class="st9" d="M420.5 21.7H397"/><path d="M418.8 19.2l9.2 2.5-9.2 2.4v-4.9zm-20.1 0l-9.2 2.5 9.2 2.4v-4.9z"/><path class="st8" d="M427.7 291.8V17.3m-39 4.4h-34.1m-.3 40.7V17.3m34.8 77.3V17.3"/><path class="st9" d="M346.6 21.4H108.2"/><path d="M344.9 18.9l9.2 2.5-9.2 2.5v-5zm-235 0l-9.3 2.5 9.3 2.5v-5z"/><path class="st8" d="M99.9 67V18.4m270.8 71V36.9"/><path class="st9" d="M431.1 129.8L464.5 8h5.2"/><path d="M434 128.8l-4.8 8.3v-9.6l4.8 1.3z"/><path class="st8" d="M61.4 217.9v49.6m327.5-4.2h-36.5"/><path class="st9" d="M379 41.2h36.9"/><path d="M380.7 43.7l-9.2-2.5 9.2-2.4v4.9z"/><path class="st9" d="M346.9 41.2H310"/><path d="M345.2 38.8l9.2 2.4-9.2 2.5v-4.9z"/><path class="st8" d="M371.5 41.2h-17.3"/><path d="M424.2 138.5l7 6.9m-7 0l7-6.9" fill="none" stroke="#000" stroke-width=".992" stroke-miterlimit="10"/><path class="st1" d="M510 52.3l11.9 17.3h-48.2"/><path d="M508.5 56l-4.2-12 9.7 8.3-5.5 3.7z"/></g><g id="Text"><text transform="matrix(1 0 -.00479 1 192.247 180.35)" class="st11 st12">Mod</text><text transform="rotate(-90 84.868 70.188)" class="st11 st13">Ø 42</text><text transform="rotate(-90 290.946 -112.314)" class="st11 st13">1-32 UN-2A</text><text transform="rotate(-90 295.796 -121.864)" class="st11 st13">(C-mount)</text><text transform="rotate(-90 109.273 69.03)" class="st11 st13">M34 x 0.5</text><text transform="translate(211.768 17.811)" class="st11 st13">59.8</text><text transform="translate(361.392 17.975)" class="st11 st13">8.2</text><text transform="translate(472.606 11.845)" class="st11 st13">Sensor position</text><text transform="translate(358.932 37.526)" class="st11 st13">4</text><text transform="translate(361.014 259.526)" class="st11 st13">8.2</text><text transform="translate(398.652 17.975)" class="st11 st13">9.4</text><text transform="translate(189.332 259.56)" class="st11 st13">68.8</text><text transform="translate(372.198 284.774)" class="st11 st13">17.526</text><text transform="translate(373.598 298.274)" class="st11 st13">(in air)</text><text transform="translate(199.51 113.04)" class="st11 st12">Inf.</text><text transform="translate(472.593 65.817)" class="st11 st13">R29.1</text></g><text transform="translate(592.117 283.506)" class="st11 st14">Not to scale</text><text transform="translate(591.888 298.906)" class="st11 st14">Dimensions in mm</text></svg>