<svg style="background-color:#fff" version="1.1" id="Ebene_1" xmlns="http://www.w3.org/2000/svg" x="0" y="0" viewBox="0 0 332.7 146.7" xml:space="preserve"><style>.st0{fill:none;stroke:#1d1d1b}.st8{fill:#1d1d1b}.st9{font-family:Helvetica,Arial,sans-serif}.st10{font-size:9px}</style><path class="st0" d="M34.4 114.8h297"/><linearGradient id="SVGID_1_" gradientUnits="userSpaceOnUse" x1="115.709" y1="118.445" x2="115.709" y2="118.445"><stop offset="0" stop-color="#fff"/><stop offset="1"/></linearGradient><path fill="url(#SVGID_1_)" stroke="#1d1d1b" d="M115.7 115v6.9"/><linearGradient id="SVGID_2_" gradientUnits="userSpaceOnUse" x1="79.891" y1="118.712" x2="79.891" y2="118.712"><stop offset="0" stop-color="#fff"/><stop offset="1"/></linearGradient><path fill="url(#SVGID_2_)" stroke="#1d1d1b" d="M79.9 115.3v6.8"/><linearGradient id="SVGID_3_" gradientUnits="userSpaceOnUse" x1="187.345" y1="118.712" x2="187.345" y2="118.712"><stop offset="0" stop-color="#fff"/><stop offset="1"/></linearGradient><path fill="url(#SVGID_3_)" stroke="#1d1d1b" d="M187.3 115.3v6.8"/><linearGradient id="SVGID_4_" gradientUnits="userSpaceOnUse" x1="151.527" y1="118.712" x2="151.527" y2="118.712"><stop offset="0" stop-color="#fff"/><stop offset="1"/></linearGradient><path fill="url(#SVGID_4_)" stroke="#1d1d1b" d="M151.5 115.3v6.8"/><path class="st0" d="M259 115.3v6.8"/><linearGradient id="SVGID_5_" gradientUnits="userSpaceOnUse" x1="223.163" y1="118.712" x2="223.163" y2="118.712"><stop offset="0" stop-color="#fff"/><stop offset="1"/></linearGradient><path fill="url(#SVGID_5_)" stroke="#1d1d1b" d="M223.2 115.3v6.8"/><linearGradient id="SVGID_6_" gradientUnits="userSpaceOnUse" x1="330.618" y1="118.445" x2="330.618" y2="118.445"><stop offset="0" stop-color="#fff"/><stop offset="1"/></linearGradient><path fill="url(#SVGID_6_)" stroke="#1d1d1b" d="M330.6 115v6.9"/><linearGradient id="SVGID_7_" gradientUnits="userSpaceOnUse" x1="294.8" y1="118.445" x2="294.8" y2="118.445"><stop offset="0" stop-color="#fff"/><stop offset="1"/></linearGradient><path fill="url(#SVGID_7_)" stroke="#1d1d1b" d="M294.8 115v6.9"/><text transform="translate(149.974 143.789)" class="st8 st9 st10">Image Height [mm]</text><path class="st8" d="M81.1 131.1h-.8v-5c-.2.2-.4.4-.8.5-.3.2-.6.3-.8.4v-.8c.4-.2.8-.5 1.2-.8.3-.3.6-.6.7-.9h.5v6.6zm36.7-.7v.8h-4.3c0-.2 0-.4.1-.5.1-.3.3-.6.5-.9.2-.3.6-.6 1-1 .7-.6 1.2-1 1.4-1.4.2-.3.4-.7.4-1 0-.3-.1-.6-.3-.8-.2-.2-.5-.3-.9-.3s-.7.1-.9.3c-.2.2-.3.5-.3 1l-.8-.1c.1-.6.3-1.1.6-1.4.4-.3.9-.5 1.5-.5s1.1.2 1.5.5c.4.3.5.8.5 1.3 0 .3-.1.5-.2.8-.1.2-.3.5-.5.8-.2.3-.7.7-1.2 1.1-.5.4-.8.7-.9.8-.1.1-.2.3-.3.4h3.1zm31.6-1l.8-.1c.1.4.2.8.5 1 .2.2.5.3.8.3.4 0 .7-.1.9-.4.3-.3.4-.6.4-1s-.1-.7-.4-.9c-.2-.2-.5-.4-.9-.4-.2 0-.3 0-.6.1l.1-.7h.1c.3 0 .6-.1.9-.3.3-.2.4-.4.4-.8 0-.3-.1-.5-.3-.7-.2-.2-.5-.3-.8-.3-.3 0-.6.1-.8.3-.2.2-.3.5-.4.9l-.8-.1c.1-.5.3-.9.7-1.2.3-.3.8-.4 1.3-.4.4 0 .7.1 1 .2.3.2.5.4.7.6.2.3.2.5.2.8 0 .3-.1.5-.2.8-.1.2-.4.4-.7.5.4.1.7.3.9.5.2.3.3.6.3 1 0 .6-.2 1-.6 1.4-.4.4-.9.6-1.6.6-.6 0-1-.2-1.4-.5-.2-.2-.4-.6-.5-1.2zm38.5 1.7v-1.5h-2.8v-.7l2.9-4.2h.6v4.2h.9v.7h-.9v1.5h-.7zm0-2.2V126l-2 2.9h2zm33.1.6l.8-.1c.1.4.2.7.4.9.2.2.5.3.8.3.4 0 .7-.1 1-.4.3-.3.4-.7.4-1.1 0-.5-.1-.8-.4-1.1-.3-.3-.6-.4-1-.4-.3 0-.5.1-.7.2-.2.1-.4.3-.5.5l-.7-.1.6-3.3h3.2v.8h-2.6l-.3 1.7c.4-.3.8-.4 1.2-.4.6 0 1 .2 1.4.6.4.4.6.9.6 1.5s-.2 1.1-.5 1.5c-.4.5-1 .8-1.7.8-.6 0-1.1-.2-1.4-.5-.3-.5-.5-.9-.6-1.4zm40-3.2l-.8.1c-.1-.3-.2-.5-.3-.7-.2-.2-.5-.3-.8-.3-.3 0-.5.1-.7.2-.2.2-.4.4-.6.8-.1.3-.2.8-.2 1.5.2-.3.4-.5.7-.6.3-.1.6-.2.9-.2.5 0 1 .2 1.4.6.4.4.6.9.6 1.5 0 .4-.1.8-.3 1.1-.2.3-.4.6-.7.8-.3.2-.7.3-1 .3-.7 0-1.2-.2-1.6-.7-.4-.5-.6-1.3-.6-2.4 0-1.2.2-2.2.7-2.7.4-.5.9-.7 1.6-.7.5 0 .9.1 1.3.4.1.1.3.5.4 1zm-3.2 2.8c0 .3.1.5.2.8.1.2.3.4.5.6.2.1.4.2.7.2.3 0 .6-.1.9-.4.2-.3.4-.6.4-1.1 0-.4-.1-.8-.4-1.1-.2-.3-.5-.4-.9-.4s-.7.1-.9.4c-.4.2-.5.5-.5 1zm34.9-3.6v-.8h4.2v.6c-.4.4-.8 1-1.2 1.7-.4.7-.7 1.5-.9 2.2-.2.5-.3 1.1-.3 1.8h-.8c0-.5.1-1.1.3-1.8.2-.7.5-1.4.8-2.1.4-.7.7-1.2 1.1-1.7h-3.2zm37 2.2c-.3-.1-.6-.3-.7-.5-.2-.2-.2-.5-.2-.8 0-.5.2-.9.5-1.2.3-.3.8-.5 1.3-.5.6 0 1 .2 1.4.5.3.3.5.7.5 1.2 0 .3-.1.6-.2.8-.2.2-.4.4-.7.5.4.1.7.3.9.6.2.3.3.6.3 1 0 .5-.2 1-.6 1.4-.4.4-.9.6-1.5.6s-1.1-.2-1.5-.6c-.4-.4-.6-.8-.6-1.4 0-.4.1-.8.3-1.1.1-.2.4-.4.8-.5zm-.4 1.6c0 .2.1.4.2.7.1.2.3.4.5.5.2.1.4.2.7.2.4 0 .7-.1.9-.4.2-.2.4-.6.4-.9 0-.4-.1-.7-.4-.9-.3-.2-.6-.4-1-.4s-.7.1-.9.4c-.3.1-.4.4-.4.8zm.3-3c0 .3.1.6.3.7.2.2.4.3.8.3.3 0 .6-.1.7-.3.2-.2.3-.4.3-.7 0-.3-.1-.5-.3-.7-.2-.2-.4-.3-.7-.3-.3 0-.6.1-.8.3-.2.2-.3.4-.3.7z"/><path class="st0" d="M41.2 3.5v118.3M34.4 58h297M41.6 3.3h-7.2M41.6 22h-7.2m7.2 53.5h-7.2m7.2-35.7h-7.2M41.6 94h-7.2"/><path class="st8" d="M18.8 58c0-.8.1-1.4.2-1.8.2-.5.4-.8.7-1.1.3-.3.7-.4 1.2-.4.3 0 .6.1.9.2.3.1.5.3.6.6.2.3.3.6.4 1 .1.4.1.9.1 1.5 0 .8-.1 1.4-.2 1.8-.2.5-.4.8-.7 1.1-.3.3-.7.4-1.2.4-.6 0-1.1-.2-1.5-.7-.2-.5-.5-1.4-.5-2.6zm.9 0c0 1.1.1 1.8.4 2.1.2.3.6.5.9.5.4 0 .7-.2.9-.5.2-.4.4-1.1.4-2.1 0-1.1-.1-1.8-.4-2.1-.2-.3-.6-.5-.9-.5-.4 0-.7.2-.9.5-.3.4-.4 1.1-.4 2.1zm4.6 3.2v-.9h.9v.9h-.9zm2.1-3.2c0-.8.1-1.4.2-1.8.2-.5.4-.8.7-1.1.3-.3.7-.4 1.2-.4.3 0 .6.1.9.2.3.1.5.3.6.6.2.3.3.6.4 1 .1.4.1.9.1 1.5 0 .8-.1 1.4-.2 1.8-.2.5-.4.8-.7 1.1-.3.3-.7.4-1.2.4-.6 0-1.1-.2-1.5-.7-.3-.5-.5-1.4-.5-2.6zm.8 0c0 1.1.1 1.8.4 2.1.2.3.6.5.9.5.4 0 .7-.2.9-.5.2-.4.4-1.1.4-2.1 0-1.1-.1-1.8-.4-2.1-.2-.3-.6-.5-.9-.5-.4 0-.7.2-.9.5-.3.4-.4 1.1-.4 2.1zm-8.4-18.2c0-.8.1-1.4.2-1.8.2-.5.4-.8.7-1.1.3-.3.7-.4 1.2-.4.3 0 .6.1.9.2.3.1.5.3.6.6.2.3.3.6.4 1 .1.4.1.9.1 1.5 0 .8-.1 1.4-.2 1.8-.2.5-.4.8-.7 1.1-.3.3-.7.4-1.2.4-.6 0-1.1-.2-1.5-.7-.2-.5-.5-1.4-.5-2.6zm.9 0c0 1.1.1 1.8.4 2.1.2.3.6.5.9.5.4 0 .7-.2.9-.5.2-.3.4-1.1.4-2.1 0-1.1-.1-1.8-.4-2.1-.2-.3-.6-.5-.9-.5-.4 0-.7.2-.9.5-.3.3-.4 1-.4 2.1zm4.6 3.2v-.9h.9v.9h-.9zm2.1-1.7l.8-.1c.1.4.2.7.4.9.2.2.5.3.8.3.4 0 .7-.1 1-.4.3-.3.4-.7.4-1.1 0-.5-.1-.8-.4-1.1-.3-.3-.6-.4-1-.4-.3 0-.5.1-.7.2-.2.1-.4.3-.5.5l-.7-.1.6-3.3h3.2v.8h-2.6l-.3 1.7c.4-.3.8-.4 1.2-.4.6 0 1 .2 1.4.6.4.4.6.9.6 1.5s-.2 1.1-.5 1.5c-.4.5-1 .8-1.7.8-.6 0-1.1-.2-1.4-.5-.4-.4-.6-.9-.6-1.4zm-4.3-16.1h-.8v-5c-.2.2-.4.4-.8.5-.3.2-.6.3-.8.4v-.8c.4-.2.8-.5 1.2-.8.3-.3.6-.6.7-.9h.5v6.6zm2.4 0v-.9h.9v.9h-.9zm2.1-3.2c0-.8.1-1.4.2-1.8.2-.5.4-.8.7-1.1.3-.3.7-.4 1.2-.4.3 0 .6.1.9.2.3.1.5.3.6.6.2.3.3.6.4 1 .1.4.1.9.1 1.5 0 .8-.1 1.4-.2 1.8-.2.5-.4.8-.7 1.1-.3.3-.7.4-1.2.4-.6 0-1.1-.2-1.5-.7-.3-.5-.5-1.4-.5-2.6zm.8 0c0 1.1.1 1.8.4 2.1.2.3.6.5.9.5.4 0 .7-.2.9-.5.2-.4.4-1.1.4-2.1 0-1.1-.1-1.8-.4-2.1-.2-.3-.6-.5-.9-.5-.4 0-.7.2-.9.5-.2.4-.4 1.1-.4 2.1zM21.8 6.5H21v-5c-.2.2-.4.4-.8.5-.3.2-.6.3-.8.4v-.8c.4-.2.8-.5 1.2-.8.3-.3.6-.6.7-.9h.5v6.6zm2.5 0v-.9h.9v.9h-.9zm2.1-1.7l.8-.1c.1.4.2.7.4.9.2.2.5.3.8.3.4 0 .7-.1 1-.4.3-.3.4-.7.4-1.1 0-.5-.1-.8-.4-1.1-.3-.3-.6-.4-1-.4-.3 0-.5.1-.7.2-.2.1-.4.3-.5.5l-.7-.1.6-3.3h3.2V1h-2.6l-.3 1.7c.4-.3.8-.4 1.2-.4.6 0 1 .2 1.4.6.4.4.6.9.6 1.5s-.2 1.1-.5 1.5c-.4.5-1 .8-1.7.8-.6 0-1.1-.2-1.4-.5-.4-.4-.6-.9-.6-1.4zm-10.6 72V76h2.4v.8h-2.4zm3-1.3c0-.8.1-1.4.2-1.8.2-.5.4-.8.7-1.1.3-.3.7-.4 1.2-.4.3 0 .6.1.9.2.3.1.5.3.6.6.2.3.3.6.4 1 .1.4.1.9.1 1.5 0 .8-.1 1.4-.2 1.8-.2.5-.4.8-.7 1.1-.3.3-.7.4-1.2.4-.6 0-1.1-.2-1.5-.7-.2-.5-.5-1.3-.5-2.6zm.9 0c0 1.1.1 1.8.4 2.1.2.3.6.5.9.5.4 0 .7-.2.9-.5.2-.4.4-1.1.4-2.1 0-1.1-.1-1.8-.4-2.1-.2-.3-.6-.5-.9-.5-.4 0-.7.2-.9.5-.3.4-.4 1.1-.4 2.1zm4.6 3.2v-.9h.9v.9h-.9zm2.1-1.7l.8-.1c.1.4.2.7.4.9.2.2.5.3.8.3.4 0 .7-.1 1-.4.3-.3.4-.7.4-1.1 0-.5-.1-.8-.4-1.1-.3-.3-.6-.4-1-.4-.3 0-.5.1-.7.2-.2.1-.4.3-.5.5l-.7-.1.6-3.3h3.2v.8h-2.6l-.3 1.7c.4-.3.8-.4 1.2-.4.6 0 1 .2 1.4.6.4.4.6.9.6 1.5s-.2 1.1-.5 1.5c-.4.5-1 .8-1.7.8-.6 0-1.1-.2-1.4-.5-.4-.4-.6-.8-.6-1.4zM15.8 95.3v-.8h2.4v.8h-2.4zm6 1.9H21v-5c-.2.2-.4.4-.8.5-.3.2-.6.3-.8.4v-.8c.4-.2.8-.5 1.2-.8.3-.3.6-.6.7-.9h.5v6.6zm2.5 0v-.9h.9v.9h-.9zm2.1-3.2c0-.8.1-1.4.2-1.8.2-.5.4-.8.7-1.1.3-.3.7-.4 1.2-.4.3 0 .6.1.9.2.3.1.5.3.6.6.2.3.3.6.4 1 .1.4.1.9.1 1.5 0 .8-.1 1.4-.2 1.8-.2.5-.4.8-.7 1.1-.3.3-.7.4-1.2.4-.6 0-1.1-.2-1.5-.7-.3-.5-.5-1.4-.5-2.6zm.8 0c0 1.1.1 1.8.4 2.1.2.3.6.5.9.5s.7-.2.9-.5c.2-.4.4-1.1.4-2.1 0-1.1-.1-1.8-.4-2.1-.2-.3-.6-.5-.9-.5-.4 0-.7.2-.9.5-.3.4-.4 1.1-.4 2.1zm-11.4 19.4v-.8h2.4v.8h-2.4zm6 1.9H21v-5c-.2.2-.4.4-.8.5-.3.2-.6.3-.8.4v-.8c.4-.2.8-.5 1.2-.8.3-.3.6-.6.7-.9h.5v6.6zm2.5 0v-.9h.9v.9h-.9zm2.1-1.7l.8-.1c.1.4.2.7.4.9.2.2.5.3.8.3.4 0 .7-.1 1-.4.3-.3.4-.7.4-1.1 0-.5-.1-.8-.4-1.1-.3-.3-.6-.4-1-.4-.3 0-.5.1-.7.2-.2.1-.4.3-.5.5l-.7-.1.6-3.3h3.2v.8h-2.6l-.3 1.7c.4-.3.8-.4 1.2-.4.6 0 1 .2 1.4.6.4.4.6.9.6 1.5s-.2 1.1-.5 1.5c-.4.5-1 .8-1.7.8-.6 0-1.1-.2-1.4-.5-.4-.4-.6-.9-.6-1.4z"/><text transform="rotate(-90 53.381 45.658)" class="st8 st9 st10">Optical Distortion [%]</text><text transform="translate(47.724 106.289)" class="st8 st9 st10">Simulated WD = 1.0 m</text><path class="st0" d="M45.5 96.3h95v15h-95z"/><path d="M42.3 59s265.4 5.6 287.3 12" fill="none" stroke="#1d1d1b" stroke-width="2" stroke-linecap="round"/></svg>