<svg style="background-color:#fff" version="1.1" id="Ebene_1" xmlns="http://www.w3.org/2000/svg" xmlns:xlink="http://www.w3.org/1999/xlink" x="0" y="0" viewBox="0 0 356.7 168.9" xml:space="preserve"><style>.st0{font-family:Helvetica,Arial,sans-serif}.st1{font-size:9.001px}.st10,.st12,.st2{fill:none;stroke:#000;stroke-linecap:round;stroke-linejoin:round;stroke-miterlimit:10}.st2{stroke-width:.999}.st10{stroke-width:1.999}.st12{stroke-width:.5}</style><text transform="translate(152.985 166.007)" class="st0 st1">Image Height [mm]</text><text transform="translate(324.752 153.288)" class="st0 st1">5</text><path class="st2" d="M34.5 5.7v129.8M27.2 6H35m-7.8 31.7H35m-7.8 31.8H35m-7.8 31.8H35m-7.8 31.9H35"/><defs><path id="SVGID_1_" d="M33.4 134.9h323.3v1.3H33.4z"/></defs><clipPath id="SVGID_2_"><use xlink:href="#SVGID_1_" overflow="visible"/></clipPath><path d="M34 135.5h322.4" clip-path="url(#SVGID_2_)" fill="none" stroke="#000" stroke-width=".999" stroke-linecap="round" stroke-linejoin="round" stroke-miterlimit="10"/><path class="st2" d="M327.5 143v-8m-58.1 8v-8m-58.2 8v-8m-58 8v-8M95 143v-8m-58 8v-8"/><defs><path id="SVGID_3_" d="M35.9 67.9h320.8v22H35.9z"/></defs><clipPath id="SVGID_4_"><use xlink:href="#SVGID_3_" overflow="visible"/></clipPath><path d="M37 69l11 .2 11 .3 11 .5 22 .5 10.9.5 11.3.5 11 .7 10.7.6 11.3.4 11 .8 11 .7 11 1.1 11 .7 11 .8 11 .9 11 .8 11 1 11.3.7 10.9 1.1 10.8.7 11.3 1 10.9.8 11 .7 11.1.8 10.9.7 11 1 11.1.7 10.9.6" clip-path="url(#SVGID_4_)" fill="none" stroke="#777" stroke-width="1.999" stroke-linecap="round" stroke-linejoin="round" stroke-miterlimit="10"/><path d="M37 69h7m7 0h7m7 .2l5 .3h2m6.9.5H81l5 .5m7 .5l6.9.5m6.8.7l7 1m7 1.1l4.5.4 2.5.5m6.7 1l1.5.3 5.6.8m7 1.2l6.7 1.5m6.8 1.5l6.9 1.5m6.8 1.5l4.5.7 2.2.6m7.1 1.5l1.7.5 5 1m7 1.2l6.8 1.5m6.9 1l6.8 1.3m7 1.2l4.5.7 2.5.6m6.7 1.2l2.1.3 4.9.7m6.8 1.3l7 1.2m7 1.3l6.7.9m7 1.3l4.5.8 2.3.5m7 1l1.7.2 5.3 1m6.7 1l7 1.3m7.1 1l6.7.9m7 1.3l4.3.5 2.7.5" fill="none" stroke="#777" stroke-width="1.999" stroke-linecap="round" stroke-linejoin="round" stroke-miterlimit="10"/><defs><path id="SVGID_5_" d="M353.9 114.4h2.8v2.5h-2.8z"/></defs><clipPath id="SVGID_6_"><use xlink:href="#SVGID_5_" overflow="visible"/></clipPath><path d="M354.9 115.5l1.5.3" clip-path="url(#SVGID_6_)" fill="none" stroke="#777" stroke-width="1.999" stroke-linecap="round" stroke-linejoin="round" stroke-miterlimit="10"/><defs><path id="SVGID_7_" d="M35.9 89.2h320.8v16H35.9z"/></defs><clipPath id="SVGID_8_"><use xlink:href="#SVGID_7_" overflow="visible"/></clipPath><path d="M37 90.3l22 .5c40.5.6 80.8 2.7 121.3 4.5l11 .5 11 .5 11 .7 11 .5 11 .5 11.3.7 11 .5 10.7.7 11.3.5 11 .5 22 1 11 .5 11 .7 11 .2 11 .5" clip-path="url(#SVGID_8_)" fill="none" stroke="#bbb" stroke-width="1.999" stroke-linecap="round" stroke-linejoin="round" stroke-miterlimit="10"/><path d="M37 90.3h7m7 0h7m7 .2l5 .3h2m6.9.4H81l5 .3m7 .5l6.9.7m6.8.8l7 .7m7 .8l4.5.7 2.5.3m7 1l1.2.2 5.6.8m7 1l6.7 1.2m7 1.3l7 1.3m6.8 1.2l4.2.7 2.8.6m6.7 1.2l1.5.3 5.5.9m6.7 1.1l7.1 1.2m6.9 1l6.8 1h.2m6.8 1l4 .5 3 .2m7 1.1l1.3.2 5.7.5m6.7 1l7.1.8m6.9.7l6.6.8.4.2m7.1.7l3.4.3 3.3.5m7 .7h.7l6.3.6m7 .7l7 .8m7 .5l5.7.4 1.3.3m7 .5l2.8.3 4.2.4" fill="none" stroke="#bbb" stroke-width="1.999" stroke-linecap="round" stroke-linejoin="round" stroke-miterlimit="10"/><defs><path id="SVGID_9_" d="M35.9 37.9h320.8v26.2H35.9z"/></defs><clipPath id="SVGID_10_"><use xlink:href="#SVGID_9_" overflow="visible"/></clipPath><path d="M37 39h11l11 .2 11 .6 22 .4 10.9.5 11.3.6 11 .7 10.7.8 11.3.4 11 .8 11 1 11 1 11 .7 11 1 11 1.3 11 1 11 1.2 11.3 1 10.9 1.3 10.8 1 11.3 1 10.9 1.2 11 1.1 11.1.9 10.9 1 11 1.3 11.1.7 10.9 1.3" clip-path="url(#SVGID_10_)" fill="none" stroke="#000" stroke-width="1.999" stroke-linecap="round" stroke-linejoin="round" stroke-miterlimit="10"/><path class="st10" d="M37 38.7h7m7 0l7 .3m7 0l5 .2 2 .3m6.9.3l2.1.2 5 .2m7 .5l6.9.6m6.8.7l7 1m7 .7l4.5.8 2.5.2m7 1.1l1.2.2 5.6.7m7 1.3l6.7 1.2m7 1.3l6.7 1.5m7.1 1.5l4.2.7 2.5.6m7 1.2l1.5.5 5.3 1m6.7 1.5l7 1.2m7 1.3l6.8 1.2m6.9 1.1l4.3.7 2.5.5m7 1.2l1.8.6 4.9.7m7.1 1.5l6.7 1.2m7 1.3l6.7 1.3m7 1.2l4.5 1 2.3.5m7 1.2l1.7.3 5.1 1m6.9 1.5l6.8 1.2m7 1.5l6.7 1.3M341 85l4.5.8 2.2.5"/><defs><path id="SVGID_11_" d="M353.6 86.7h3.1v2.5h-3.1z"/></defs><clipPath id="SVGID_12_"><use xlink:href="#SVGID_11_" overflow="visible"/></clipPath><path d="M354.7 87.8l1.7.2" clip-path="url(#SVGID_12_)" fill="none" stroke="#000" stroke-width="1.999" stroke-linecap="round" stroke-linejoin="round" stroke-miterlimit="10"/><text transform="rotate(-90 46.756 39.031)" class="st0 st1">SFR</text><text transform="rotate(-90 36.506 28.781)" class="st0 st1">[%]</text><text transform="translate(13.245 104.026)" class="st0 st1">20</text><text transform="translate(13.245 71.749)" class="st0 st1">40</text><text transform="translate(13.245 39.768)" class="st0 st1">60</text><text transform="translate(13.245 7.724)" class="st0 st1">80</text><text transform="translate(18.709 136.007)" class="st0 st1">0</text><path class="st12" d="M69 25.2L44 35"/><path d="M44.5 33.2l-4.3 3.3 5.3-.5-1-2.8"/><path class="st12" d="M80.4 58.5l-37.7 7.7"/><path d="M43.2 64.7l-4.7 2.5 5.5.3-.8-2.8"/><path class="st12" d="M74 108.3l-31.8-16"/><path d="M43.7 91.5l-5.2-1.2 4 3.5 1.2-2.3"/><text transform="translate(74.205 29.747)" class="st0 st1">60 LP/mm</text><text transform="translate(77.985 113.744)" class="st0 st1">120 LP/mm</text><text transform="translate(84.709 62.024)" class="st0 st1">90 LP/mm</text><path class="st2" d="M282.2 6.5h73.7v27.7h-73.7V6.5z"/><path class="st10" d="M285.9 15h18"/><text transform="translate(308.205 18.227)" class="st0 st1">Sagittal</text><path class="st10" d="M285.9 26.5h7.1m6.9 0h4"/><text transform="translate(308.205 29.747)" class="st0 st1">Tangential</text><text transform="translate(265.965 153.288)" class="st0 st1">4</text><text transform="translate(208.843 153.288)" class="st0 st1">3</text><text transform="translate(150.502 153.288)" class="st0 st1">2</text><text transform="translate(91.8 153.288)" class="st0 st1">1</text><text transform="translate(34.485 153.288)" class="st0 st1">0</text></svg>