<svg version="1.1" id="Ebene_1" xmlns="http://www.w3.org/2000/svg" x="0" y="0" viewBox="0 0 362 463" style="background-color:#fff" xml:space="preserve"><style>.st0{fill:#f6f6f6}.st1{fill:none;stroke:#1a171b;stroke-width:.6;stroke-linecap:round;stroke-linejoin:round;stroke-miterlimit:10}.st3{font-family:Helvetica,Arial,sans-serif}.st4{font-size:10px}.st5,.st6{stroke-width:.3}.st5,.st6,.st8{fill:none;stroke:#000;stroke-linecap:round;stroke-linejoin:round}.st6,.st8{stroke-miterlimit:10}.st8{stroke-width:.228}.st12{font-size:14px}</style><path class="st0" d="M318.4 331.3h-43.1l-1.8 1.6v36.4l-1.7 1.7h-18.4l-1.5-1.7-.2-21.6s0-2.6-2.6-2.6-2.8 2.6-2.8 2.6v21.6l-1.5 1.7h-30.3l-2.2-1.7v-31.4s.3-5.3-5.4-5.3c-5.2 0-5.3 5-5.3 5v18s0 1.7-1.2 1.7H179s-1.7-.2-1.7-1.7V334s.1-1.8-1.3-1.8h-51.4s-1.6-.2-1.6 1.4v22.2s.1 1.2-1.1 1.2H78.6V238.2h239.8v93.1z"/><path class="st1" d="M318.4 331.3h-43.1l-1.8 1.6v36.4l-1.7 1.7h-18.4l-1.5-1.7-.2-21.6s0-2.6-2.6-2.6-2.8 2.6-2.8 2.6v21.6l-1.5 1.7h-30.3l-2.2-1.7v-31.4s.3-5.3-5.4-5.3c-5.2 0-5.3 5-5.3 5v18s0 1.7-1.2 1.7H179s-1.7-.2-1.7-1.7V334s.1-1.8-1.3-1.8h-51.4s-1.6-.2-1.6 1.4v22.2s.1 1.2-1.1 1.2H78.6V238.2h239.8v93.1z"/><path class="st0" d="M79 280.2h46.6v49.3H79"/><path class="st1" d="M79 280.2h46.6v49.3H79"/><path d="M193.8 343h.5c0-2.8-2.3-5.1-5.1-5.1s-5.1 2.3-5.1 5.1h.5c0-2.6 2.1-4.6 4.6-4.6 2.5 0 4.6 2.1 4.6 4.6m-9.3 0h-.5c0 2.8 2.3 5.1 5.1 5.1s5.1-2.3 5.1-5.1h-.5c0 2.6-2.1 4.6-4.6 4.6-2.5.1-4.6-2-4.6-4.6"/><path class="st1" d="M79.2 190.2l-.1-.3-.1.3zm-.1-.3l-.1-.1v.4zm-.1-.1l-.3.1.3.3zm-.3.1v.3h.3zm0 .3v.1l.3-.1zm0 .1l.3.1v-.2zm.3.1l.1-.1-.1-.1z"/><path class="st1" d="M79.1 190.3l.1-.1H79zm-5.9 164.6h4.6M35.2 56.2v-2.6m.1 3.2h1.8m-1.9-.6H70m-34.7 0v.6m1.8 0l1.1-.6"/><path class="st0" d="M70 56.2l.4.3.2.3V400v-.2l-1.2 13.9h2.7l1.1-13.7v-53.1h4.6l.7-.3.6-.6.1-.7V80.2l-.1-.7-.6-.6-.7-.1h-4.6V55l-.1-.7-.6-.5-.7-.2H35.2"/><path class="st1" d="M70 56.2l.4.3.2.3V400v-.2l-1.2 13.9h2.7l1.1-13.7v-53.1h4.6l.7-.3.6-.6.1-.7V80.2l-.1-.7-.6-.6-.7-.1h-4.6V55l-.1-.7-.6-.5-.7-.2H35.2"/><path fill="none" d="M-103-28.3h841.9V567H-103z"/><text transform="translate(191.11 208.812)" class="st3 st4">80</text><text transform="rotate(-90 133.67 107.846)" class="st3 st4">120</text><text transform="rotate(-90 325.585 -16.12)" class="st3 st4">44.3</text><path class="st5" d="M87.2 213.2h223.5"/><path d="M89 215.8l-9.8-2.6 9.8-2.6zm219.9 0l9.7-2.6-9.7-2.6z"/><text transform="translate(132.708 453.69)" class="st3 st4">46.1</text><path class="st5" d="M81.2 443.6h123.2"/><path d="M83 446.2l-9.8-2.6 9.8-2.7zm119.6 0l9.7-2.6-9.7-2.7z"/><path class="st5" d="M29.2 405.3V61.1"/><path d="M31.8 403.5l-2.6 9.7-2.7-9.7zm0-340.6l-2.6-9.8-2.7 9.8z"/><path class="st5" d="M330.6 362.6V246.3"/><path d="M333.2 360.8l-2.6 9.8-2.6-9.8zm0-112.7l-2.6-9.8-2.6 9.8z"/><path class="st6" d="M212.3 446.8v-83.3M73.2 451.2v-84.5"/><path d="M347.3 238.3h-29.1m29.1 132.6h-73.8" stroke-width=".292" stroke-miterlimit="10" fill="none" stroke="#000" stroke-linecap="round" stroke-linejoin="round"/><path class="st8" d="M72.1 413.7H14.9"/><path fill="none" stroke="#000" stroke-width=".274" stroke-linecap="round" stroke-linejoin="round" stroke-miterlimit="10" d="M72.1 53.6H14.9"/><text transform="translate(186.94 25.245)" class="st3 st4">94.2</text><path fill="none" stroke="#000" stroke-width=".228" stroke-linecap="round" stroke-linejoin="round" d="M40.2 29.3h271.1"/><path d="M41.6 31.3l-7.4-2 7.4-2zm268.4 0l7.4-2-7.4-2z"/><path class="st6" d="M34.6 54.8V23.2"/><path class="st8" d="M318 238.3v-220"/><path d="M215.2 363.4v-.1m0 .1v-.1m25 .1v-.1m0 .1v-.1m-1-5.7h1.9v11.5h-1.9zm34 5.8v-.1m0 .1v-.1m-6 .1v-.1m0 .1v-.1m-1-5.7h1.9v11.5h-1.9zm-8 5.8v-.1m0 .1v-.1m-1-5.7h1.9v11.5h-1.9zm7 5.8v-.1m0 .1v-.1m-1-5.7h1.9v11.5h-1.9zm-29 5.8v-.1m0 .1v-.1m-1-5.7h1.9v11.5h-1.9zm28 5.8v-.1m0 .1v-.1m-1-5.7h1.9v11.5h-1.9zm-35 5.8v-.1m0 .1v-.1m-1-5.7h1.9v11.5h-1.9zm31 5.8v-.1m0 .1v-.1m-1-5.7h1.9v11.5h-1.9zm-11 5.8v-.1m0 .1v-.1m-1-5.7h1.9v11.5h-1.9zm-5 5.8v-.1m0 .1v-.1m-1-5.7h1.9v11.5h-1.9zm10 5.8v-.1m-24 .1v-.1m0 .1v-.1m-1-5.7h1.9v11.5h-1.9zm-2 5.8v-.1m0 .1v-.1m-1-5.7h1.9v11.5h-1.9zm13 5.8v-.1m0 .1v-.1m-1-5.7h1.9v11.5h-1.9zm-15 0h1.9v11.5h-1.9zm13 5.8v-.1m0 .1v-.1m-1-5.7h1.9v11.5h-1.9zm43 5v-.2m0 .2v-.2m-1-4.6h1.9v9.5h-1.9zm-2 5.6v-.1m0 .1v-.1m3 .1v-.1m0 .1v-.1m-6 .1v-.1m0 .1v-.1m-9 .1v-.1m0 .1v-.1m-30 .1v-.1m0 .1v-.1m18 .1v-.1m0 .1v-.1m-3 .1v-.1m0 .1v-.1m21 .1v-.1m0 .1v-.1m-39 .1v-.1m0 .1v-.1m36 .1v-.1m0 .1v-.1m-24 .1v-.1m0 .1v-.1m-15 .1v-.1m0 .1v-.1m18 .1v-.1m0 .1v-.1m-9 .1v-.1m0 .1v-.1m3 .1v-.1m0 .1v-.1m-16-.7v-.2m0 .2v-.2" stroke-width=".1" stroke-miterlimit="10" fill="none" stroke="#000" stroke-linecap="round" stroke-linejoin="round"/><text transform="translate(239.598 422.932)" class="st3 st12">Not to scale</text><text transform="translate(238.898 442.333)" class="st3 st12">Dimensions in mm</text></svg>