<svg style="background-color:#fff" version="1.1" id="Layer_1" xmlns="http://www.w3.org/2000/svg" x="0" y="0" viewBox="0 0 500 120" xml:space="preserve"><style>.st0,.st1{fill:none;stroke:#000;stroke-width:.958;stroke-miterlimit:3.864}.st1{stroke-width:.63}.st4{enable-background:new}.st5{font-family:Helvetica,Arial,sans-serif}.st6{font-size:12px}</style><path class="st0" d="M377 28.5h-43.1v-18h-5.5v18h-38.6v-18h-5.5v18h-38.6v-18h-5.5v18h-38.5v-18h-5.5v18h-38.6v-18h-5.5v18h-38.6v-18H108v18H69.5v-18H64v18H41"/><path class="st1" d="M5 67.9h19.3v18H5v-18zm19.3 14.4V71.5h5.5v10.8h-5.5z"/><path class="st0" d="M390.2 83.2h-43.1v-18h-5.5v18H303v-18h-5.5v18h-38.6v-18h-5.5v18h-38.5v-18h-5.5v18h-38.6v-18h-5.5v18h-38.6v-18h-5.5v18H82.7v-18h-5.5v18h-23"/><path class="st1" d="M5 10.5h19.3v18H5v-18zm19.3 14.4V14.1h5.5v10.8h-5.5z"/><path d="M394.5 97.5v-3.2l8.1 3.2-8.1 3.3v-3.3z" fill-rule="evenodd" clip-rule="evenodd"/><path d="M41 97.5h354" fill="none" stroke="#000" stroke-width="1.5" stroke-miterlimit="3.864"/><text transform="translate(398.52 15)" class="st4"><tspan x="0" y="0" class="st5 st6">Image acquisition</tspan><tspan x="0" y="14.4" class="st5 st6">on camera 1</tspan></text><text transform="translate(398.52 68.91)" class="st4"><tspan x="0" y="0" class="st5 st6">Image acquisition</tspan><tspan x="0" y="14.4" class="st5 st6">on camera 2</tspan></text><text transform="translate(220.946 113.41)" class="st5 st6">Time</text></svg>