<svg version="1.1" id="Layer_1" xmlns="http://www.w3.org/2000/svg" x="0" y="0" viewBox="0 0 549.9 368.5" style="background-color:#fff" xml:space="preserve"><style>.st1{fill:none;stroke:#787878;stroke-width:.85;stroke-miterlimit:10}.st2{fill:#787878}.st3{fill:#5b5b5b}.st4{font-family:Helvetica,Arial,sans-serif}.st5{font-size:20px}</style><g id="Text"><path class="st1" d="M126.9 56.1v245.7"/><path class="st2" d="M124.4 57.8l2.5-9.3 2.5 9.3h-5z"/><path class="st1" d="M207.1 48.5v253.3M366.7 48v253.3m123.2.2H126.7"/><path class="st2" d="M488.2 299l9.2 2.5-9.2 2.5v-5z"/><path class="st1" d="M358.7 155.4H214.9"/><path class="st2" d="M357 153l9.2 2.4-9.2 2.5V153zm-140.4 0l-9.2 2.4 9.2 2.5V153z"/><path class="st1" d="M443.1 321.8H290.2"/><path class="st2" d="M441.5 319.3l9.2 2.5-9.2 2.4v-4.9zm-149.6 0l-9.2 2.5 9.2 2.4v-4.9z"/><text transform="translate(23.76 92.62)" class="st3 st4 st5">Probability</text><text transform="translate(23.76 116.62)" class="st3 st4 st5">density</text><text transform="translate(136.55 33.45)" class="st3 st4 st5">Reference value</text><text transform="translate(245.21 144.58)" class="st3 st4 st5">Accuracy</text><text transform="translate(324.36 349.49)" class="st3 st4 st5">Precision</text><text transform="translate(464.41 328.54)" class="st3 st4 st5">Value</text><path d="M290.4 301.4c49 0 44.4-128.8 75.8-128.8m76.7 128.8c-49 0-44.4-128.8-75.8-128.8" fill="none" stroke="#787878" stroke-width=".85" stroke-linecap="round" stroke-miterlimit="10"/></g></svg>