<svg version="1.1" id="Ebene_1" xmlns="http://www.w3.org/2000/svg" xmlns:xlink="http://www.w3.org/1999/xlink" x="0" y="0" viewBox="0 0 256.9 322.3" style="background-color:#fff" xml:space="preserve"><style>.st36{font-family:Helvetica,Arial,sans-serif}.st37{font-size:11px}</style><defs><path id="SVGID_1_" transform="rotate(-80.781 198.097 127.505)" d="M69.6-33.6h256.9v322.3H69.6z"/></defs><clipPath id="SVGID_2_"><use xlink:href="#SVGID_1_" overflow="visible"/></clipPath><circle cx="143.5" cy="103.4" clip-path="url(#SVGID_2_)" fill="none" stroke="#000" stroke-width=".283" stroke-linecap="round" stroke-linejoin="round" stroke-miterlimit="10" r="5.8"/><defs><path id="SVGID_3_" d="M0 0h256.9v322.3H0z"/></defs><clipPath id="SVGID_4_"><use xlink:href="#SVGID_3_" overflow="visible"/></clipPath><circle cx="143.5" cy="103.4" r="4.2" clip-path="url(#SVGID_4_)" fill="none" stroke="#000" stroke-width=".283" stroke-linecap="round" stroke-linejoin="round" stroke-miterlimit="10"/><defs><path id="SVGID_5_" transform="rotate(-80.781 66.718 239.285)" d="M-61.7 78.1h256.9v322.3H-61.7z"/></defs><clipPath id="SVGID_6_"><use xlink:href="#SVGID_5_" overflow="visible"/></clipPath><circle cx="143.5" cy="236.5" clip-path="url(#SVGID_6_)" fill="none" stroke="#000" stroke-width=".283" stroke-linecap="round" stroke-linejoin="round" stroke-miterlimit="10" r="5.8"/><defs><path id="SVGID_7_" d="M0 0h256.9v322.3H0z"/></defs><clipPath id="SVGID_8_"><use xlink:href="#SVGID_7_" overflow="visible"/></clipPath><circle cx="143.5" cy="236.5" r="4.2" clip-path="url(#SVGID_8_)" fill="none" stroke="#000" stroke-width=".283" stroke-linecap="round" stroke-linejoin="round" stroke-miterlimit="10"/><defs><path id="SVGID_9_" d="M0 0h256.9v322.3H0z"/></defs><clipPath id="SVGID_10_"><use xlink:href="#SVGID_9_" overflow="visible"/></clipPath><path d="M184 70.5v198.6m1.5-198.6v198.6m-4.6.6V70m50.2 181.6h-38v18.1m38-14.6v-26.5M193.1 70v18.2h38.2" clip-path="url(#SVGID_10_)" fill="none" stroke="#000" stroke-width=".283" stroke-linecap="round" stroke-linejoin="round" stroke-miterlimit="10"/><defs><path id="SVGID_11_" d="M0 0h256.9v322.3H0z"/></defs><clipPath id="SVGID_12_"><use xlink:href="#SVGID_11_" overflow="visible"/></clipPath><path d="M193.1 71.4h7.9c.5 0 .9.4.9.9v12.9c0 .5-.4.9-.9.9h-7.9m0 167.5h7.9c.5 0 .9.4.9.9v13c0 .5-.4.9-.9.9h-7.9" clip-path="url(#SVGID_12_)" fill="none" stroke="#000" stroke-width=".283" stroke-linecap="round" stroke-linejoin="round" stroke-miterlimit="10"/><defs><path id="SVGID_13_" d="M0 0h256.9v322.3H0z"/></defs><clipPath id="SVGID_14_"><use xlink:href="#SVGID_13_" overflow="visible"/></clipPath><path clip-path="url(#SVGID_14_)" fill="#f5f5f5" d="M130.5 221v4.7h-21.8v10.7H52.2V103.2h56.5v10.7h21.8v5.1h11.3l.4 102z"/><defs><path id="SVGID_15_" d="M0 0h256.9v322.3H0z"/></defs><clipPath id="SVGID_16_"><use xlink:href="#SVGID_15_" overflow="visible"/></clipPath><path d="M147.9 127.5v84.4m-5.7-92.9v102h-11.7v4.7h-21.8v10.7H52.2V103.2h56.5v10.7h21.8v5.1h11.7" clip-path="url(#SVGID_16_)" fill="none" stroke="#000" stroke-width=".567" stroke-miterlimit="3.864"/><defs><path id="SVGID_17_" d="M0 0h256.9v322.3H0z"/></defs><clipPath id="SVGID_18_"><use xlink:href="#SVGID_17_" overflow="visible"/></clipPath><path clip-path="url(#SVGID_18_)" fill="none" stroke="#000" stroke-width=".283" stroke-miterlimit="10" d="M135.5 232.1h-1.3v.4h-5.9l-.8.8v5.4l-3.4 1.8h-11.8l-.8.8v2.1"/><defs><path id="SVGID_19_" d="M0 0h256.9v322.3H0z"/></defs><clipPath id="SVGID_20_"><use xlink:href="#SVGID_19_" overflow="visible"/></clipPath><path clip-path="url(#SVGID_20_)" fill="none" stroke="#000" stroke-width=".283" stroke-linecap="round" stroke-linejoin="round" stroke-miterlimit="10" d="M136.8 107.6h-2.6v-.4h-5.9l-.8-.8v-7.2h-15.2l-.8-.8V84.7"/><defs><path id="SVGID_21_" d="M0 0h256.9v322.3H0z"/></defs><clipPath id="SVGID_22_"><use xlink:href="#SVGID_21_" overflow="visible"/></clipPath><path d="M152.2 196.5H151v-.5h-1.8v-10h1.8v5.3h1.6l-.4 5.2zm.6-47.9H151v5.1h-1.8v-9.9h1.8v-.5h1.8v5.3zm-.7 7.4h.7v27.8h-.7V156z" clip-path="url(#SVGID_22_)" fill="#f5f5f5"/><defs><path id="SVGID_23_" d="M0 0h256.9v322.3H0z"/></defs><clipPath id="SVGID_24_"><use xlink:href="#SVGID_23_" overflow="visible"/></clipPath><path d="M118 99.2l-6.5-6.6m20.6 14.6l-4.6-4.5m-3.5-3.5l-12.5-12.5m4.6 156.1l-2.3-2.3m18.2-5.2l-2.9-2.9m-8.2 9.2l-1.3-1.2m29.6-53.5l.5-.9m-.5 3.5l1.8-3.2m-1.8 5.7l1.8-3.2m-1.8 5.8l1.9-3.3m-1.3 4.7l2.8-4.7m-1.6 5.1l1.5-2.5m-3.3-47.6l1.4-2.5m-1.4 5l3.2-5.5m-3.2 8.1l3.6-6.3m-3.5 8.6l1.7-3m1.3-2.1l.5-1m-2 6.1l.2-.5m1.1 5.8l.7-1.3m-.7 6.4l.7-1.3m-.7 6.4l.7-1.3m-.7 6.3l.7-1.2m-.7 6.3l.7-1.3m-.3 5.8l.3-.7m-20.5 41.5V110.4m16.9 75.6v-32.3m1.8 0V186m-1.8-12.4h1.8m-1.8-5.6h1.8m-1.8-3.4h1.8m-1.8-5.9h1.8m-1.8-3.7h1.8m1.2 41.5H151v-.5h-1.8v-10h1.8v5.3h1.6l-.4 5.2zm.6-47.9H151v5.1h-1.8v-9.9h1.8v-.5h1.8v5.3zm-.7 7.4h.7v27.8h-.7V156zm-2.9 28.8h1.8" clip-path="url(#SVGID_24_)" fill="none" stroke="#000" stroke-width=".283" stroke-linecap="round" stroke-linejoin="round" stroke-miterlimit="10"/><defs><path id="SVGID_25_" d="M0 0h256.9v322.3H0z"/></defs><clipPath id="SVGID_26_"><use xlink:href="#SVGID_25_" overflow="visible"/></clipPath><path d="M111.5 101.2V64.3l.8-1h67.8l.8.7v6h2.6l.5.5h1.5l.6-.5h44.3l.9.9v157.7h4.8l.6.4v25.6l-.6.5h-4.8v13.8l-.9.8h-44.3l-.6-.6H184l-.5.6h-2.6v5.9l-.8 1h-67.8l-.8-1v-37 2.8m.8-140.1v-2.1m0 141.3v-1.9m22.2-68.7h-4m-1.1 0h-.1" clip-path="url(#SVGID_26_)" fill="none" stroke="#000" stroke-width=".283" stroke-linecap="round" stroke-linejoin="round" stroke-miterlimit="10"/><defs><path id="SVGID_27_" d="M0 0h256.9v322.3H0z"/></defs><clipPath id="SVGID_28_"><use xlink:href="#SVGID_27_" overflow="visible"/></clipPath><path d="M127 101.6l.5.6v5h4.3l.6.5v1.5l-2.8 4.7-2.4 1.4h-17.3l-1.1-1v-12.6l.6-.5h10.1v.4h7.5zm-7.5 136.5v.4h-10.1l-.6-.6v-12.4l1.1-1.1h17.3l2.4 1.3 2.8 4.8v1.4l-.6.6h-4.3v5.1l-.5.5h-7.5" clip-path="url(#SVGID_28_)" fill="#f5f5f5"/><defs><path id="SVGID_29_" d="M0 0h256.9v322.3H0z"/></defs><clipPath id="SVGID_30_"><use xlink:href="#SVGID_29_" overflow="visible"/></clipPath><path d="M127 101.6l.5.6v5h4.3l.6.5v1.5l-2.8 4.7-2.4 1.4h-17.3l-1.1-1v-12.6l.6-.5h10.1v.4h7.5m-7.5 136.5v.4h-10.1l-.6-.6v-12.4l1.1-1.1h17.3l2.4 1.3 2.8 4.8v1.4l-.6.6h-4.3v5.1l-.5.5h-7.5" clip-path="url(#SVGID_30_)" fill="none" stroke="#000" stroke-width=".283" stroke-linecap="round" stroke-linejoin="round" stroke-miterlimit="10"/><defs><path id="SVGID_31_" d="M0 0h256.9v322.3H0z"/></defs><clipPath id="SVGID_32_"><use xlink:href="#SVGID_31_" overflow="visible"/></clipPath><path d="M123.5 115.3l8.2-8.1m-14.2 8.1l10-9.9m-15.9 9.9l13.7-13.7m-16.5 10.5l10.7-10.7m-10.7 4.7l4.9-4.9m12.7 136.9l1.1-1.1m-7 1.1l10.2-10.3m-16.6 10.7l13.8-13.8m-19.1 13.1l13.4-13.4m-13.4 7.4l7.5-7.4m-7.5 1.3l1.5-1.3m22.1 6.1V109.2m-5.2 115.2V115.3m-17.3 109.1V115.3m-1.1 110.2V114.3m20-.5h-20m20 0v112m-20 0h20M111.6 85.9c7.2 3 16.8 10.3 25.3 21.7s15.9 28.7 16 35.6c.1 6.9-.2 45.9-.6 53.2-.3 7.3-7.2 25.7-17.5 36.4s-23.3 10.5-23.3 10.5" clip-path="url(#SVGID_32_)" fill="none" stroke="#000" stroke-width=".283" stroke-linecap="round" stroke-linejoin="round" stroke-miterlimit="10"/><defs><path id="SVGID_33_" d="M0 0h256.9v322.3H0z"/></defs><clipPath id="SVGID_34_"><use xlink:href="#SVGID_33_" overflow="visible"/></clipPath><path clip-path="url(#SVGID_34_)" fill="none" stroke="#000" stroke-width=".283" stroke-miterlimit="10" d="M48.2 169.9h3.6"/><defs><path id="SVGID_35_" d="M0 0h256.9v322.3H0z"/></defs><clipPath id="SVGID_36_"><use xlink:href="#SVGID_35_" overflow="visible"/></clipPath><path clip-path="url(#SVGID_36_)" fill="none" stroke="#000" stroke-width=".283" stroke-miterlimit="10" stroke-dasharray=".579,2.895" d="M54.7 169.9h2"/><defs><path id="SVGID_37_" d="M0 0h256.9v322.3H0z"/></defs><clipPath id="SVGID_38_"><use xlink:href="#SVGID_37_" overflow="visible"/></clipPath><path clip-path="url(#SVGID_38_)" fill="none" stroke="#000" stroke-width=".283" stroke-miterlimit="10" stroke-dasharray="7.238,2.895,.579,2.895" d="M58.1 169.9h175.5"/><defs><path id="SVGID_39_" d="M0 0h256.9v322.3H0z"/></defs><clipPath id="SVGID_40_"><use xlink:href="#SVGID_39_" overflow="visible"/></clipPath><path clip-path="url(#SVGID_40_)" fill="none" stroke="#000" stroke-width=".283" stroke-miterlimit="10" d="M235 169.9h3.6"/><defs><path id="SVGID_41_" d="M0 0h256.9v322.3H0z"/></defs><clipPath id="SVGID_42_"><use xlink:href="#SVGID_41_" overflow="visible"/></clipPath><path clip-path="url(#SVGID_42_)" fill-rule="evenodd" clip-rule="evenodd" d="M142.6 151.2l-2.2 3.1 8.4 3.7z"/><defs><path id="SVGID_43_" d="M0 0h256.9v322.3H0z"/></defs><clipPath id="SVGID_44_"><use xlink:href="#SVGID_43_" overflow="visible"/></clipPath><path clip-path="url(#SVGID_44_)" fill="none" stroke="#000" stroke-width=".227" stroke-miterlimit="3.864" d="M141.5 152.7l-28.6-21.2H66"/><defs><path id="SVGID_45_" d="M0 0h256.9v322.3H0z"/></defs><clipPath id="SVGID_46_"><use xlink:href="#SVGID_45_" overflow="visible"/></clipPath><path d="M27.7 122.9h3.9l-1.9-9-2 9zm3.9 93.9h-3.9l2 9 1.9-9z" clip-path="url(#SVGID_46_)" fill-rule="evenodd" clip-rule="evenodd"/><defs><path id="SVGID_47_" d="M0 0h256.9v322.3H0z"/></defs><clipPath id="SVGID_48_"><use xlink:href="#SVGID_47_" overflow="visible"/></clipPath><path clip-path="url(#SVGID_48_)" fill="none" stroke="#000" stroke-width=".227" stroke-miterlimit="3.864" d="M29.7 122.9v93.9"/><defs><path id="SVGID_49_" d="M0 0h256.9v322.3H0z"/></defs><clipPath id="SVGID_50_"><use xlink:href="#SVGID_49_" overflow="visible"/></clipPath><path d="M108.8 114H27.2m81.6 111.7H27.2" clip-path="url(#SVGID_50_)" fill="none" stroke="#000" stroke-width=".283" stroke-miterlimit="3.864"/><defs><path id="SVGID_51_" d="M0 0h256.9v322.3H0z"/></defs><clipPath id="SVGID_52_"><use xlink:href="#SVGID_51_" overflow="visible"/></clipPath><path clip-path="url(#SVGID_52_)" fill-rule="evenodd" clip-rule="evenodd" d="M105.1 244.6l-2.6-3.7 10-4.5z"/><defs><path id="SVGID_53_" d="M0 0h256.9v322.3H0z"/></defs><clipPath id="SVGID_54_"><use xlink:href="#SVGID_53_" overflow="visible"/></clipPath><path clip-path="url(#SVGID_54_)" fill="none" stroke="#000" stroke-width=".227" stroke-miterlimit="3.864" d="M103.9 242.6l-22 16.2H9"/><defs><path id="SVGID_55_" d="M0 0h256.9v322.3H0z"/></defs><clipPath id="SVGID_56_"><use xlink:href="#SVGID_55_" overflow="visible"/></clipPath><path d="M133.1 18.4v3.8l9-1.9-9-1.9zm-15.5 3.8v-3.8l-9.1 1.9 9.1 1.9z" clip-path="url(#SVGID_56_)" fill-rule="evenodd" clip-rule="evenodd"/><defs><path id="SVGID_57_" d="M0 0h256.9v322.3H0z"/></defs><clipPath id="SVGID_58_"><use xlink:href="#SVGID_57_" overflow="visible"/></clipPath><path d="M108.5 102.6V17.7m33.7 126.6V47.5m0-8.8v-21" clip-path="url(#SVGID_58_)" fill="none" stroke="#000" stroke-width=".283" stroke-miterlimit="3.864"/><defs><path id="SVGID_59_" d="M0 0h256.9v322.3H0z"/></defs><clipPath id="SVGID_60_"><use xlink:href="#SVGID_59_" overflow="visible"/></clipPath><path clip-path="url(#SVGID_60_)" fill="none" stroke="#000" stroke-width=".283" stroke-miterlimit="10" d="M116.3 20.3H245"/><defs><path id="SVGID_61_" d="M0 0h256.9v322.3H0z"/></defs><clipPath id="SVGID_62_"><use xlink:href="#SVGID_61_" overflow="visible"/></clipPath><path d="M99.4 41.3v3.9l9-1.9-9-2zm40 3.9v-3.9l-9 2 9 1.9z" clip-path="url(#SVGID_62_)" fill-rule="evenodd" clip-rule="evenodd"/><defs><path id="SVGID_63_" d="M0 0h256.9v322.3H0z"/></defs><clipPath id="SVGID_64_"><use xlink:href="#SVGID_63_" overflow="visible"/></clipPath><path clip-path="url(#SVGID_64_)" fill="none" stroke="#000" stroke-width=".283" stroke-miterlimit="3.864" d="M130.5 115.3V40.7"/><defs><path id="SVGID_65_" d="M0 0h256.9v322.3H0z"/></defs><clipPath id="SVGID_66_"><use xlink:href="#SVGID_65_" overflow="visible"/></clipPath><path clip-path="url(#SVGID_66_)" fill="none" stroke="#000" stroke-width=".283" stroke-miterlimit="10" d="M16.7 43.3h143.7"/><defs><path id="SVGID_67_" d="M0 0h256.9v322.3H0z"/></defs><clipPath id="SVGID_68_"><use xlink:href="#SVGID_67_" overflow="visible"/></clipPath><g clip-path="url(#SVGID_68_)"><defs><path id="SVGID_69_" d="M64.9 118.9h35v26.2h-35z"/></defs><clipPath id="SVGID_70_"><use xlink:href="#SVGID_69_" overflow="visible"/></clipPath><g clip-path="url(#SVGID_70_)"><defs><path id="SVGID_71_" d="M64.9 118.9h35v13h-35z"/></defs><clipPath id="SVGID_72_"><use xlink:href="#SVGID_71_" overflow="visible"/></clipPath><g clip-path="url(#SVGID_72_)"><text transform="translate(64.886 128.387)" class="st36 st37">Sensor</text></g></g><defs><path id="SVGID_73_" d="M64.9 118.9h35v26.2h-35z"/></defs><clipPath id="SVGID_74_"><use xlink:href="#SVGID_73_" overflow="visible"/></clipPath><g clip-path="url(#SVGID_74_)"><defs><path id="SVGID_75_" d="M64.9 132.1h25.7v13H64.9z"/></defs><clipPath id="SVGID_76_"><use xlink:href="#SVGID_75_" overflow="visible"/></clipPath><g clip-path="url(#SVGID_76_)"><text transform="translate(64.886 141.587)" class="st36 st37">glass</text></g></g></g><defs><path id="SVGID_77_" d="M0 0h256.9v322.3H0z"/></defs><clipPath id="SVGID_78_"><use xlink:href="#SVGID_77_" overflow="visible"/></clipPath><g clip-path="url(#SVGID_78_)"><defs><path id="SVGID_79_" d="M13.1 113.4h13v112.5h-13z"/></defs><clipPath id="SVGID_80_"><use xlink:href="#SVGID_79_" overflow="visible"/></clipPath><g clip-path="url(#SVGID_80_)"><text transform="rotate(-90 124.21 101.7)" class="st36 st37">M42 lens mount thread</text></g></g><defs><path id="SVGID_81_" d="M0 0h256.9v322.3H0z"/></defs><clipPath id="SVGID_82_"><use xlink:href="#SVGID_81_" overflow="visible"/></clipPath><g clip-path="url(#SVGID_82_)"><defs><path id="SVGID_83_" d="M154.5 290.9h58.1v13h-58.1z"/></defs><clipPath id="SVGID_84_"><use xlink:href="#SVGID_83_" overflow="visible"/></clipPath><g clip-path="url(#SVGID_84_)"><text transform="translate(154.506 300.355)" class="st36 st37">Not to scale</text></g></g><defs><path id="SVGID_85_" d="M0 0h256.9v322.3H0z"/></defs><clipPath id="SVGID_86_"><use xlink:href="#SVGID_85_" overflow="visible"/></clipPath><g clip-path="url(#SVGID_86_)"><defs><path id="SVGID_87_" d="M154.5 304.1H245v13h-90.5z"/></defs><clipPath id="SVGID_88_"><use xlink:href="#SVGID_87_" overflow="visible"/></clipPath><g clip-path="url(#SVGID_88_)"><text transform="translate(154.506 313.554)" class="st36 st37">Dimensions in mm</text></g></g><defs><path id="SVGID_89_" d="M0 0h256.9v322.3H0z"/></defs><clipPath id="SVGID_90_"><use xlink:href="#SVGID_89_" overflow="visible"/></clipPath><g clip-path="url(#SVGID_90_)"><defs><path id="SVGID_91_" d="M8.1 242.8h78.3v13H8.1z"/></defs><clipPath id="SVGID_92_"><use xlink:href="#SVGID_91_" overflow="visible"/></clipPath><g clip-path="url(#SVGID_92_)"><text transform="translate(8.144 252.21)" class="st36 st37">M42 lens mount</text></g></g><defs><path id="SVGID_93_" d="M0 0h256.9v322.3H0z"/></defs><clipPath id="SVGID_94_"><use xlink:href="#SVGID_93_" overflow="visible"/></clipPath><g clip-path="url(#SVGID_94_)"><defs><path id="SVGID_95_" d="M149.7 5.8h91.7v13h-91.7z"/></defs><clipPath id="SVGID_96_"><use xlink:href="#SVGID_95_" overflow="visible"/></clipPath><g clip-path="url(#SVGID_96_)"><text transform="translate(149.7 15.243)" class="st36 st37">Max. lens intrusion</text></g></g><defs><path id="SVGID_97_" d="M0 0h256.9v322.3H0z"/></defs><clipPath id="SVGID_98_"><use xlink:href="#SVGID_97_" overflow="visible"/></clipPath><g clip-path="url(#SVGID_98_)"><defs><path id="SVGID_99_" d="M16.1 16h64.2v26.2H16.1z"/></defs><clipPath id="SVGID_100_"><use xlink:href="#SVGID_99_" overflow="visible"/></clipPath><g clip-path="url(#SVGID_100_)"><defs><path id="SVGID_101_" d="M16.1 16h57.5v13H16.1z"/></defs><clipPath id="SVGID_102_"><use xlink:href="#SVGID_101_" overflow="visible"/></clipPath><g clip-path="url(#SVGID_102_)"><text transform="translate(16.113 25.486)" class="st36 st37">Lens mount</text></g></g><defs><path id="SVGID_103_" d="M16.1 16h64.2v26.2H16.1z"/></defs><clipPath id="SVGID_104_"><use xlink:href="#SVGID_103_" overflow="visible"/></clipPath><g clip-path="url(#SVGID_104_)"><defs><path id="SVGID_105_" d="M16.1 29.2h64.2v13H16.1z"/></defs><clipPath id="SVGID_106_"><use xlink:href="#SVGID_105_" overflow="visible"/></clipPath><g clip-path="url(#SVGID_106_)"><text transform="translate(16.113 38.687)" class="st36 st37">thread length</text></g></g></g></svg>