<svg style="background-color:#fff" version="1.1" id="Layer_1" xmlns="http://www.w3.org/2000/svg" xmlns:xlink="http://www.w3.org/1999/xlink" x="0" y="0" viewBox="0 0 400 400" xml:space="preserve"><style>.st6{font-family:Helvetica,Arial,sans-serif}.st7{font-size:13px}</style><path d="M59.7 290.5h322V41.2h-322v249.3z" fill="#fff"/><path d="M59.7 290.5h322M59.7 41.2h322m.1 249.3V41.2M59.7 290.5V41.2" fill="none" stroke="#000" stroke-linecap="square"/><path d="M59.7 290.5v-2.9m0-246.4v2.9m63.2 246.4v-2.9m0-246.4v2.9M186 290.5v-2.9m0-246.4v2.9m63.2 246.4v-2.9m0-246.4v2.9m63.1 246.4v-2.9m0-246.4v2.9m63.1 246.4v-2.9m0-246.4v2.9M59.7 290.5h2.9m319.2 0h-2.9M59.7 241.6h2.9m319.2 0h-2.9M59.7 192.7h2.9m319.2 0h-2.9M59.7 143.8h2.9m319.2 0h-2.9M59.7 94.9h2.9m319.2 0h-2.9M59.7 46.1h2.9m319.2 0h-2.9" stroke="#000" stroke-width=".5" stroke-linejoin="round"/><defs><path id="SVGID_1_" d="M59.7 41.2h322v249.3h-322z"/></defs><clipPath id="SVGID_2_"><use xlink:href="#SVGID_1_" overflow="visible"/></clipPath><path d="M59.7 290.5l322-249.3h0" clip-path="url(#SVGID_2_)" fill="none" stroke="#006ab3" stroke-linecap="square" stroke-linejoin="round"/><defs><path id="SVGID_3_" d="M59.7 41.2h322v249.3h-322z"/></defs><clipPath id="SVGID_4_"><use xlink:href="#SVGID_3_" overflow="visible"/></clipPath><g clip-path="url(#SVGID_4_)"><path d="M220.7 168c.6 0 1.1-.2 1.5-.6s.6-1 .6-1.5c0-.6-.2-1.1-.6-1.5-.4-.4-1-.6-1.5-.6s-1.1.2-1.5.6-.6 1-.6 1.5c0 .6.2 1.1.6 1.5.4.4 1 .6 1.5.6z" fill="green" stroke="#000" stroke-width=".5" stroke-linejoin="round"/></g><text transform="translate(39.997 245.85)" class="st6 st7">50</text><text transform="translate(115.74 307.654)" class="st6 st7">50</text><text transform="translate(32.775 196.864)" class="st6 st7">100</text><text transform="translate(175.255 307.654)" class="st6 st7">100</text><text transform="translate(32.775 147.878)" class="st6 st7">150</text><text transform="translate(238.382 307.654)" class="st6 st7">150</text><text transform="translate(32.775 98.89)" class="st6 st7">200</text><text transform="translate(301.508 307.655)" class="st6 st7">200</text><text transform="translate(32.775 49.904)" class="st6 st7">250</text><text transform="translate(364.634 307.654)" class="st6 st7">250</text><text transform="translate(47.22 307.654)" class="st6 st7">0</text><g fill="none" stroke="#000" stroke-linecap="square" stroke-linejoin="round"><path d="M59.7 25.7V34m322.1-8.3V34" stroke-dasharray="12,6"/><path d="M59.7 29.8h322.1"/></g><text transform="translate(179.591 21.544)" class="st6 st7">Dynamic range</text><text transform="translate(167.258 327.544)" class="st6 st7">Input pixel values</text><text transform="rotate(-90 122.068 100.477)" class="st6 st7">Output pixel values</text><text transform="translate(57.924 352.877)" class="st7" font-family="Helvetica,Arial,sans-serif" font-weight="700" fill="#f99d33">Contrast = 0</text><text transform="translate(57.924 368.477)" class="st6 st7">Brightness = 0</text><text transform="translate(57.924 384.077)" class="st6 st7">Linear contrast mode</text><text transform="translate(246.153 368.477)"><tspan x="0" y="0" class="st6 st7">8-bit pixel values shown</tspan><tspan x="0" y="15.6" class="st6 st7">as an example</tspan></text></svg>