<svg style="background-color:#fff" version="1.1" id="Layer_1" xmlns="http://www.w3.org/2000/svg" xmlns:xlink="http://www.w3.org/1999/xlink" x="0" y="0" viewBox="0 0 400 400" xml:space="preserve"><style>.st6{fill:none;stroke:#006ab3;stroke-linecap:square;stroke-linejoin:round}.st9{font-family:Helvetica,Arial,sans-serif}.st10{font-size:13px}</style><path d="M61.5 291.5h322V42.1h-322v249.4z" fill="#fff"/><path d="M124.6 291.5h258.9M61.5 42.1H321m62.5 249.4V42.1m-322 249.4V42.1" fill="none" stroke="#000" stroke-linecap="square"/><path d="M61.5 291.5v-2.9m0-246.5V45m63.1 246.5v-2.9m0-246.5V45m63.1 246.5v-2.9m0-246.5V45m63.2 246.5v-2.9m0-246.5V45M314 291.5v-2.9m0-246.5V45m63.2 246.5v-2.9m0-246.5V45m6.3 246.5h-2.9M61.5 242.6h2.9m319.1 0h-2.9M61.5 193.7h2.9m319.1 0h-2.9M61.5 144.8h2.9m319.1 0h-2.9M61.5 95.9h2.9m319.1 0h-2.9M61.5 47h2.9m319.1 0h-2.9" stroke="#000" stroke-width=".5" stroke-linejoin="round"/><defs><path id="SVGID_1_" d="M61.5 42.4h322v249.3h-322z"/></defs><clipPath id="SVGID_2_"><use xlink:href="#SVGID_1_" overflow="visible"/></clipPath><path d="M98.6 323.6L346.4 10.5h0" clip-path="url(#SVGID_2_)" fill="none" stroke="#006ab3" stroke-linecap="square" stroke-linejoin="round"/><defs><path id="SVGID_3_" d="M61.5 42.9h322v249.3h-322z"/></defs><clipPath id="SVGID_4_"><use xlink:href="#SVGID_3_" overflow="visible"/></clipPath><g clip-path="url(#SVGID_4_)"><path d="M222.5 169.7c.6 0 1.1-.2 1.5-.6.4-.4.6-1 .6-1.5s-.2-1.1-.6-1.5c-.4-.4-1-.6-1.5-.6-.6 0-1.1.2-1.5.6-.4.4-.6 1-.6 1.5s.2 1.1.6 1.5c.3.4.9.6 1.5.6z" fill="green" stroke="#000" stroke-width=".5" stroke-linejoin="round"/></g><path class="st6" d="M321.3 42.1h6"/><path d="M334.5 42.1h39.4" fill="none" stroke="#006ab3" stroke-linecap="square" stroke-linejoin="round" stroke-dasharray="14.3348,7.1674"/><path class="st6" d="M377.5 42.1h6m-322 249.4h6"/><path d="M72.5 291.5h43.1" fill="none" stroke="#006ab3" stroke-linecap="square" stroke-linejoin="round" stroke-dasharray="10.143,5.0715"/><path class="st6" d="M118.2 291.5h6"/><text transform="translate(41.742 246.812)" class="st9 st10">50</text><text transform="translate(117.478 308.611)" class="st9 st10">50</text><text transform="translate(34.52 197.829)" class="st9 st10">100</text><text transform="translate(176.989 308.611)" class="st9 st10">100</text><text transform="translate(34.52 148.846)" class="st9 st10">150</text><text transform="translate(240.113 308.611)" class="st9 st10">150</text><text transform="translate(34.52 99.862)" class="st9 st10">200</text><text transform="translate(303.233 308.612)" class="st9 st10">200</text><text transform="translate(34.52 50.88)" class="st9 st10">250</text><text transform="translate(366.355 308.61)" class="st9 st10">250</text><text transform="translate(48.963 308.611)" class="st9 st10">0</text><g fill="none" stroke="#000" stroke-linecap="square" stroke-linejoin="round"><path d="M124.6 25.2v8.3m196.7-8.3v8.3" stroke-dasharray="12,6"/><path d="M124.6 29.4h196.7"/></g><text transform="translate(181.085 23.484)" class="st9 st10">Dynamic range</text><text transform="translate(59.456 353.544)" class="st10" font-family="Helvetica,Arial,sans-serif" font-weight="700" fill="#f99d33">Contrast = 0.3</text><text transform="translate(59.456 369.144)" class="st9 st10">Brightness = 0</text><text transform="translate(59.456 384.744)" class="st9 st10">Linear contrast mode</text><text transform="translate(169.258 330.21)" class="st9 st10">Input pixel values</text><text transform="rotate(-90 120.901 98.31)" class="st9 st10">Output pixel values</text><text transform="translate(240.113 369.144)"><tspan x="0" y="0" class="st9 st10">8-bit pixel values shown</tspan><tspan x="0" y="15.6" class="st9 st10">as an example</tspan></text></svg>