<svg version="1.1" id="Layer_1" xmlns="http://www.w3.org/2000/svg" x="0" y="0" viewBox="0 0 613.6 222.9" style="background-color:#fff" xml:space="preserve"><style>.st0,.st2{fill:none}.st2{stroke:#000;stroke-width:.3402;stroke-miterlimit:3.8637}.st3{stroke-width:.5}.st3,.st4,.st7{fill:none;stroke:#000;stroke-miterlimit:3.8637}.st4{stroke-dasharray:12,2,2,2;stroke-width:.25}.st7{stroke-width:.2268}.st9{font-family:Helvetica,Arial,sans-serif}.st10{font-size:10px}</style><g id="Ebene_1"><path d="M511.4 85.6l66.5 2.6m-66.5-10.7l66.5-20" fill="none" stroke="#000" stroke-width=".391" stroke-miterlimit="3.864"/><path class="st2" d="M517.6 14.8h58.2"/><path d="M517.6 13.1v3.4l-6.3-1.7 6.3-1.7zm52 0v3.4l6.2-1.7-6.2-1.7z"/><path class="st2" d="M511.3 69.6V13.4"/><path class="st3" d="M160.6 72.7h89.2m-89.3 19.6h89.2m111.8 0h50.4m47.7-21.5v23.4h33.5l3.8-1.8V72.7l-3.8-1.9h-33.5zm33.5 23.4V70.8"/><path class="st3" d="M496.9 92.3h14.5V72.7h-14.5m-336.3-1.9v23.4h-33.5l-3.8-1.8V72.7l3.8-1.9h33.5zm-33.5 23.4V70.8m-3.8 21.5h-14.5V72.7h14.5m291.5 0h44.7m-44.7 19.6h44.8"/><path class="st2" d="M575.8 36.7V13.4M52.9 14.8h55.5"/><path d="M52.9 13.1v3.4l-6.2-1.7 6.2-1.7zm49.7 0v3.4l6.2-1.7-6.2-1.7z"/><path class="st2" d="M46.7 67.6V13.4m62.1 54.2V13.4"/><path class="st4" d="M411.9 69.9v26.7"/><path d="M414.9 69.9v26.7" fill="none" stroke="#000" stroke-width=".25" stroke-miterlimit="3.864" stroke-dasharray="12,2,2,2,2,2"/><path class="st4" d="M249.7 82.6l-203.6-.5"/><path class="st2" d="M46.4 177v-72.8m560.4 72.9v-50.4M52.4 173.5h551.7"/><path d="M52.4 171.7v3.5l-6.2-1.7 6.2-1.8zm548.2 3.5v-3.4l6.2 1.6-6.2 1.8z"/><path class="st2" d="M249.8 92.4V72.7"/><path class="st4" d="M611.6 82.9l-249.7-.5"/><path d="M249.8 62.2h111.7v42.3H249.8V62.2z" fill="none" stroke="#000" stroke-width=".309" stroke-miterlimit="3.864"/><path class="st7" d="M28.3 68l15.8 14.7"/><path class="st3" d="M585.9 56.7c0-2.4-1.9-4-4-4-2.4 0-4 1.6-4 4 0 2.1 1.6 4 4 4 2.1 0 4-1.8 4-4zm0 10.4c0-2.4-1.9-4-4-4-2.4 0-4 1.6-4 4 0 2.1 1.6 4 4 4 2.1 0 4-1.9 4-4zm0 41.7c0-2.4-1.9-4-4-4-2.4 0-4 1.6-4 4 0 2.1 1.6 4 4 4 2.1-.1 4-1.9 4-4z"/><path class="st3" d="M575.8 40h31.1v83.3h-31.1V40z"/><path class="st3" d="M585.9 98.4c0-2.4-1.9-4-4-4-2.4 0-4 1.6-4 4 0 2.1 1.6 4 4 4 2.1 0 4-1.9 4-4zm0-20.7c0-2.4-1.9-4-4-4-2.4 0-4 1.6-4 4 0 2.1 1.6 4 4 4 2.1 0 4-1.9 4-4zm0 10.4c0-2.4-1.9-4-4-4-2.4 0-4 1.6-4 4 0 2.1 1.6 4 4 4 2.1-.1 4-1.9 4-4zM361.5 72.7h50.4m-349.7 3h46.5m-46.5 2h46.5m-50.4 0H46.4v-2h11.9m3.9 3.1h-2.9l-1-1.1v-2l1-1h2.9v4.1zm-2.9-4.1v4.1m3 8.4h46.5m-46.5 2h46.5m-50.4 0H46.5v-2h11.9m3.9 3.1h-2.9l-1-1.1v-2l1-1h2.9v4.1zm-2.9-4.1v4.1"/><path class="st2" d="M220.4 108.2V30.9"/><path d="M218.6 98.4h3.5l-1.7-6.2-1.8 6.2zm3.5-31.1h-3.5l1.7 6.1 1.8-6.1z"/><path class="st7" d="M560.1 139.8l14.8-15.7"/><path d="M307.6 132.8v-28.3" fill="none" stroke="#000" stroke-width=".227" stroke-miterlimit="3.864"/></g><g id="text"><text transform="translate(531.454 11.144)" class="st9 st10">30+5</text><text transform="translate(67.338 11.144)" class="st9 st10">30+5</text><text transform="translate(4.288 60.89)" class="st9 st10">Open</text><text transform="translate(4.288 71.89)" class="st9 st10">end</text><text transform="translate(252.328 144.315)" class="st9 st10">Label with order number</text><text transform="translate(252.328 155.315)" class="st9 st10">and manufacturing date</text><text transform="translate(288.875 86.656)" class="st9" font-size="7">2200...xx/yy</text><text transform="translate(294.428 189.998)" class="st9 st10">1500</text><text transform="rotate(-90 132.745 -84.227)" class="st9 st10">6.5</text><path class="st0" d="M509.3 139.9h54.6v9.2h-54.6v-9.2z"/><text transform="translate(509.293 147.078)" class="st9 st10">TBL plug</text><path class="st0" d="M522.5 209.4h105.9v18.3H522.5v-18.3z"/><text transform="translate(522.541 216.606)" class="st9 st10">Dimensions in mm</text></g></svg>