<svg version="1.1" id="Layer_1" xmlns="http://www.w3.org/2000/svg" x="0" y="0" viewBox="0 0 428 190" style="background-color:#fff" xml:space="preserve"><style>.st2{font-family:Helvetica,Arial,sans-serif}.st3{font-size:14px}.st4{fill:none;stroke:#000;stroke-width:.5;stroke-linecap:round;stroke-linejoin:round;stroke-miterlimit:10}</style><path d="M130.2 40.9h105.4M162.2 115h73.4M113.8 20.3h121.6" fill="none" stroke="#000" stroke-miterlimit="10"/><text transform="translate(246.33 45.685)" class="st2 st3">I/O connector</text><text transform="translate(246.33 119.85)" class="st2 st3">USB 3.0 Micro-B connector</text><text transform="translate(246.33 25.762)" class="st2 st3">Status LED</text><path class="st4" d="M58.2 155.4v-2.1h-3.9v2.1h3.9m-2.4 5.1v-2.1h-3.9v2.1h3.9m-1.5-10.1v-2.1h-3.9v2.1h3.9m-3.1 5v-2.1h-3.9v2.1h3.9M133.3 86v-2.1h-3.9V86h3.9m-12.6 61.9h2.1V144h-2.1v3.9m-19.8-57.4h2.1v-3.9h-2.1v3.9M45.8 23.6h-2.1v3.9h2.1v-3.9m65.3-.3v2.1h3.9v-2.1h-3.9m4.8 4.5h-2.1v3.9h2.1v-3.9m6.6 46.5h-3.3v6.3h3.3v-6.3M45.8 44.8h-2.1v3.8h2.1v-3.8m90.8 37.9V86h6.3v-3.3h-6.3m-90.8-52h-2v3.8h2v-3.8M19.7 53h2.1v-3.9h-2.1V53m71.9 42.3v3.3h6.3v-3.3h-6.3m18.6-26.7h2v-3.8h-2v3.8m-64.4-9.7h-2.1v3.9h2.1v-3.9m43-40.1v2h3.8v-2h-3.8M119.5 95h3.3v-6.3h-3.3V95m-37.9-5h2v-3.8h-2V90M23.1 70.1v2.1H27v-2.1h-3.9m14.4 0v2.1h3.9v-2.1h-3.9m58.5 82v9.3h6.4v-9.3H96M19.7 67.4h2v-3.8h-2v3.8m108.2 21.3h-3.3V95h3.3v-6.3M17.3 107.4h-2v3.8h2v-3.8m13-37.3v2.1h3.9v-2.1h-3.9m83.5.9h2.1v-3.9h-2.1V71m-73.6 79.4v-2.1h-3.9v2.1h3.9M17.3 86.2h-2V90h2v-3.8m120.4 20.5V98h-13.3v8.7h13.3m-49.1 12.7h-3.3v6.3h3.3v-6.3m-73.3 13h2v-3.8h-2v3.8m66.2-28.2h2.1v-3.9h-2.1v3.9m60-10.4h1.9V90h-1.9v3.8M98.6 109h-8.4v13.8h8.4V109m27.3 10.5h-8.4v13.8h8.4v-13.8m-44.4-8.2h2.1v-4h-2.1v4m57.8 11.4V117h-10.5v5.7h10.5m-24.2 10.8h-5.7V144h5.7v-10.5m-29.8-31.9h2.1v-3.9h-2.1v3.9m67.2-57.9h-6.3v5.1h6.3v-5.1m-45.8 98.8v-5.7H96.2v5.7h10.5m-13.2 1h-8.4v13.8h8.4v-13.8m-8.2-34.7h2.1v-3.9h-2.1v3.9m-62-65v24.7h18.6V43.8H23.3m110.3 97.5h-5.7v10.5h5.7v-10.5m-90.8 25.1v5.7h10.5v-5.7H42.8m63.2-64.8h-2.1v4h2.1v-4M47.6 83.5h60.6V22.8H47.6v60.7m21.3 69.3h-8.4v13.8h8.4v-13.8m47.3-38.8h2.1v-4h-2.1v4m12.2-53.9h6.2V55h-6.2v5.1m13 3.1h-6.6v15.6h6.6V63.2M88.6 166.8v5.7h10.5v-5.7H88.6m-5-45.3h-2.1v3.9h2.1v-3.9m12.2 7.8v2.1h3.9v-2.1h-3.9m40.7-69.2h6.3V55h-6.3v5.1M20.3 80.3h12V74h-12v6.3m85.2 6.5V97h7.8V86.8h-7.8m-2.5 80v5.7h10.5v-5.7H103m-19.4-38.3h-2.1v3.9h2.1v-3.9m23.3 6.5v-2.1H103v2.1h3.9m-60.1 25.5v-2.1h-3.9v2.1h3.9m-13-80.2h12V74h-12v6.3m101.3 91.3h8.7v-13.2h-8.7v13.2m-91-16.2v-2.1h-3.9v2.1h3.9m86.1-60.8h9v-6h-9v6m-82.9 55.8v-2.1h-3.9v2.1h3.9m62.3-50.9v7.5h9.9v-7.5h-9.9m16.8 37.3h-2.1v3.9h2.1v-3.9M79.7 85.9H19.1v60.6h60.6V85.9m-18.4 64.5v-2.1h-3.9v2.1h3.9m75-41.6v6.3h5.1v-6.3h-5.1m-72.4 60.1v2.1h4v-2.1h-4m37.2-51v9.2h6.4v-9.2h-6.4m-8.9 43.8v-2.1h-3.9v2.1h3.9m35.9-36.9v9.3h6.5v-9.3h-6.5m-15.5 39.6h2.1v-3.9h-2.1v3.9m-19.5-34.8h-7.5v9.9h7.5v-9.9m-22 29.9v9.3h6.4v-9.3h-6.4m45.4 12.3h2.1v-3.9h-2.1v3.9m16.4-7.1v-9.4h-15.6v9.4h15.6m-49.3-29.1h-2.1v3.9h2.1v-3.9m28.6-107.8h-2v3.8h2v-3.8m-2 48h2V72h-2v3.8M83.6 93.3h-2v3.8h2v-3.8m6.6 7.1v5.7h10.5v-5.7H90.2m4.1 25v2h3.8v-2h-3.8M43.4 18.9c0-1.7-1.3-3-3-3s-3 1.3-3 3 1.3 3 3 3c1.6 0 3-1.3 3-3m100.1 24.9V25.2h-24.9v18.6h24.9m26 99.7c0-1.7-1.3-3-3-3s-3 1.3-3 3 1.3 3 3 3c1.6 0 3-1.3 3-3M110.9 18.2v3.6h6.6v-3.6h-6.6M45.8 37.7h-2v3.8h2v-3.8M22 81.9v2h3.8v-2H22m63.1 12.7h2.4v-4.2h-2.4v4.2m55.5 9.1h1.9v-3.8h-1.9v3.8m-41 31.2v-2h-3.8v2h3.8m12.4-93h3.9V35H112v6.9m-79 42v-2h-3.8v2H33m56.7 3.6v-2h-3.8v2h3.8m-74.4 30.7h2v-3.7h-2v3.7m87.7 11.1v2h3.8v-2H103M60.6 18.8v2h3.7v-2h-3.7M21.7 56.4h-2v3.7h2v-3.7m14.7 25.5v2h3.8v-2h-3.8m60.5 5.6v-2h-3.8v2h3.8m-13.3 27h-2v3.7h2v-3.7m32 4h-5.7V129h5.7v-10.5m-48-99.7v2h3.8v-2h-3.8M45.8 51.9h-2v3.8h2v-3.8M110.2 83h2v-3.8h-2V83m-12 10.2v-3.9h-6.9v3.9h6.9m-10.9 19h-2v3.8h2v-3.8m55.3 13.8h-5.7v10.5h5.7V126M78.5 20.8v-2h-3.8v2h3.8m35.2 41l1.4-1.4-2.7-2.7-1.4 1.4 2.7 2.7m.1 19.4h3.9v-6.9h-3.9v6.9m4.1 8.2h-2v3.8h2v-3.8m-5 26.4V110h-10.5v5.8h10.5m-95.6 19.8h-2v3.8h2v-3.8m107.1 12.2h1.9V144h-1.9v3.8m4.5-11.3v2h3.7v-2h-3.7m17.9 8.7v-5.7h-10.5v5.7h10.5m-65.2 1.7h2v-3.8h-2v3.8m-4.5 3.3v-1.9h-3.8v1.9h3.8m-11.7-1.9v2h3.8v-2h-3.8m-8.7 22.8h2v-3.8h-2v3.8m50-21.1v-5.7H96.2v5.7h10.5m-24.4 7.6v-5.7H71.7v5.7h10.6m30.2-.6h2.3v-4.1h-2.3v4.1m8.7-5.9v2.3h4.1v-2.3h-4.1m23.5-.5v-3.3h-6.3v3.3h6.3m-1.3 4.7v-2h-3.7v2h3.7m-57.8 5.5h-5.7v10.5h5.7v-10.5m11.7 2.5v1.9h3.8v-1.9h-3.8m-9 0v1.9h3.8v-1.9h-3.8m21.9-10h-5.7v10.5h5.7v-10.5M95.8 18.8v2h3.8v-2h-3.8m25.8 148v5.7h10.5v-5.7h-10.5M45.8 66h-2v3.8h2V66m26.6 104.6v2h3.8v-2h-3.8m9.3-151.8v2h3.8v-2h-3.8M15.3 97.1h2v-3.8h-2v3.8m100.8-37.7l1.4-1.4-2.7-2.7-1.4 1.4 2.7 2.7M15.3 104.1h2v-3.7h-2v3.7m111-23.4h-1.9v3.8h1.9v-3.8m-111 44.6h2v-3.8h-2v3.8m87.6-31.1h-2V98h2v-3.8m28.9 20.6v-5.7h-10.5v5.7h10.5M15.3 146.5h2v-3.8h-2v3.8m19.4 15.9c0-5-4-9-9-9s-9 4-9 9 4 9 9 9c4.9 0 9-4 9-9m0-134.5c0-5-4-9-9-9s-9 4-9 9 4 9 9 9c4.9 0 9-4 9-9m134.5 0c0-5-4-9-9-9s-9 4-9 9 4 9 9 9c4.9 0 9-4 9-9m0 134.5c0-5-4-9-9-9s-9 4-9 9 4 9 9 9c4.9 0 9-4 9-9M65.9 175.8c-.2-1.5-1.5-2.5-3-2.5s-2.7 1.1-3 2.5m6.2.2c-.1-.1-.2-.1-.2-.2m.2.2c.2.2.4.2.6.2m98.3.1H66.7m98.3 0c5 0 9-4 9-9m0-144.2v33.2m0 77.8v33.1m0-144.1c0-5-4-9-9-9m-56.2 0H165m-56.3 0c-.2 0-.4.1-.6.2m-.2.3c.1-.1.2-.1.2-.2m-6.1.2c.2 1.5 1.5 2.5 3 2.5s2.7-1.1 3-2.5m-6.3-.2c.1.1.2.1.2.2m-.2-.2c-.2-.2-.4-.2-.6-.2m-80.2-.1h80.2m-80.2 0c-5 0-9 4-9 9m0 144.1V23.1m0 144.2c0 5 4 9 9 9m38.2 0H20.9m38.2 0c.2 0 .4-.1.6-.2m.2-.3c-.1.1-.2.1-.2.2m97.5-88.2v.6m0 6v.6m22.9-40.3h.5m-.5 81h.5m.2-73.6v66.2m-.3-67l.3.8m-.3 66.9V61.3m.3 67l-.3.7m1.3-73l-1.2-1.3m-2.2 79.5l1.1.9.6.6m-.4-74.8l.8.4m-1.7-.4h.9m-1.5-.6l.2.4.4.2m-.6-.6v69.8m.6-.6l-.4.2-.2.4m.6-.6h.9m.8-.5l-.8.5m1.1-68.6l.7.3.3.9m-2.1-1.2h1.1m1 67.4V62.1m-23.4 25.4c0-.5-.4-.9-.9-.9m.9.9l-.3.6-.6.3m-2.7-6h-6.3m0 0v-6h.1m-.4-10.1v2.1m0 0l.1.3.5.1m0 0h2.1m0 0l.4-.1m.2-1l-.2.5m.2-3.8v3.3m.1 58.7l.2.4.8 1.5m1.6.4c.2 0 .3-.1.4-.2.1-.1.2-.3.2-.4m-3.3-2l.1.3m3.2-50V62.5m-6.2 13.9h6.2m-.3 12h3m-3 6h3m0 0l.6.3.3.6m19.8-35v-4m-20.7 30.3h-2.7m18.4 36.9v3.9h-.5v-3.9h.5m6.5 6h1.1m-2.6-73.2c.1 0 .1 0 .2-.1m-23.6 46.6v-6.6m0-9.6v-4.2m24.7-27.2l.6-.5m.8 2.1l.9-.8m0 72.3l-.3.8-.7.4m-1.3-74.3l-1.1 1m-.2 2.2c.6 0 1.2-.2 1.6-.6m1.1-1l-1.1 1m-28.2 6.3l-.1.3m.1-.3l.2-.4m-3.6 2.6v-2.6m6.6-1.2c0-.3-.3-.6-.6-.6m16.6 64.8l.2.7-.1.6-.3.4m.2-1.7c-.3-.4-.7-.7-1.2-.8-.5 0-1 .2-1.3.6m-.3.9l.1-.4v-.1l.2-.3m4.5 1.3v-.5m-20.9-13v-.1m5-19.6v-.3m0-6v-.3m-2.4 6.6h2.4m-6.2 6.9h1.2m5.3-6.6v1.2m-6.2 11.4l.5.1.4.3m18.5 14.5c-.3 0-.6.2-.6.5m3.4.5h2.3m-2.7 0v-.5m-3.6 4.4h-5.1m-.6-.6c0 .3.3.6.6.6m9.1 0h1.8v-3.9m-23.1-9.1l-.4.3-.5.1m18.8 13.1c0 .3.3.5.6.5m4.6-1h.5v-3.9m-12 .6v2.7m6.3 1.1c0-.3-.3-.5-.6-.5m-20.6-12.6h2.4m-2.8 19.3h30M164.1 95c-.3 0-.6.3-.6.6m5.7-.6c.3 0 .6-.2.6-.5m10 38.1c-.4-.4-1-.6-1.6-.6m2.4 3.7l1.2-1.3-.9-.8m-30.2-20v-4.8m-2.1 0v4.8m0-6h2.4m0 0l.9.4m-3.3-5.2h3.3m-3.7-42.6v-3.9h30m-8.4 43.1c0 .3.3.5.6.5m-18.5 14.4l.3-.7m.1 0l-.4.8-.9.4m3.8 4.8h-6.3v-5.4m15-15.9c0 .3.3.6.6.6m-15.9 35.2v-3.9m30 3.9v-3.9m-20.7-34c.5 0 .9-.4.9-.9m-5.3 33.4h1.1m-6-68.5v3.5m4.9-1.9c-.2 0-.4.1-.5.3m0 .1l-.8 1.5m2.4-1.9h-1.1m16.1 61.7h-5.1m9.1-28.5h-.5v3.9h.5V95m-.4 4.3v-.4m-3.6-3.9h-5.1m8.1-1.1h-1.8m2.8 1.1h2.3m-2.7 0v-.5m-20.5 14.3l-.4-.8m.3.8l-.3-.8m17.3-9.1h-5.1m6.3-5c-.3 0-.6.2-.6.5m2.4 5.5c.3 0 .6-.3.6-.6m-24.2 15.5v-1.2m2.1 1.2v-1.2m30.2 20l-1.1-1m-1.4 1.5c-.1 0-.1-.1-.2-.1m-5.4-39.5c0-.3-.3-.6-.6-.6m-19.6 34.4c.1.2.3.3.5.3m-4.3-7h2.1m-2.7 2.6V122m3.3 2.2v-1.5m-.2-.5l.2.5m-.6-1.1l.4.1m-3.1.3l.1-.3.5-.1m2.7 4.5v-1.9m-3.3 2.6v-2.6m2.5-15.4v-1.2m-2.1 1.2v-1.2M175 95v3.9h.5V95m-2.3 3.9h1.8m-4.6 1h1.8m-8.7-4.3v2.7m6.3 1.1c0-.3-.3-.5-.6-.5m-14.4 20.7v8.5m-6.3-25.3h.1m6.2 0h-2.9m-3.4 11.4v-11.4m3.7 10.8v-4.8m.1 0v4.8m19.9 14.8c.3 0 .6-.3.6-.6m-15.6-41.2v1.2m-5.3 26.5V108m-1.2-6.4v1.2m0 4.8v7.2m0 4.8v1.2h.6m.6 0v-1.2m0-16.8v-1.2m-1.2 0v-2.3h-2.5V83.9h3.7v-1.5m5 5.7h-2.4v6.6m-3.8 26.1v.8m.6.6v-1.4h.6m3.4-32.4v-.3m1.6 6.6l.3.3m-.3-6.9l.3-.3m-9 39v3.4m6.6-34h2.7m6.6 27.3c-.3 0-.6.3-.6.6m5.7-.6c.3 0 .6-.2.6-.5m-19.1-47.4v.8m0 6v1.5m0-15.1v6.8m0-5.4h-2.5v1.5h2.5m.6-3.5v1.4m-.6 0h3.2m-2 6.8v-.8m2-6l.6.6V75l-.6.6h-3.2m0 0h-2.5m2.5 27h-2.5v1.5h.3m-.3 2.4h.3m0 1.5h-.3v-1.5m0 7.8h.3m0 1.5h-.3v-1.5m0 3.9h.3"/><path class="st4" d="M150.7 119.7h-2.5v-1.5m.3-38.7h-.3V78h.3m-.3-2.4v-1.5h2.5m-2.2 36.3h-.3v1.5m.3 0h-.3m22.2 16.5h1.8m.6-5.3c0-.3-.3-.6-.6-.6m0-.1h-1.8m7.8 7.7v.1m-22.9-35.5v-.3"/></svg>