<svg version="1.1" id="Ebene_1" xmlns="http://www.w3.org/2000/svg" xmlns:xlink="http://www.w3.org/1999/xlink" x="0" y="0" viewBox="0 0 659 310.5" style="background-color:#fff" xml:space="preserve"><style>.st1{fill:#010101}.st4{fill:none;stroke:#1d1d1b;stroke-linecap:round;stroke-linejoin:round;stroke-miterlimit:10;stroke-width:.25}.st5{fill-rule:evenodd;clip-rule:evenodd;fill:#1d1d1b}.st6{fill:none;stroke:#1d1d1b;stroke-width:.5;stroke-linecap:round;stroke-linejoin:round;stroke-miterlimit:10}.st7{fill:#1d1d1b}.st8{font-family:Helvetica,Arial,sans-serif}.st9{font-size:8px}.st10,.st12{fill:none;stroke:#1d1d1b;stroke-width:.42;stroke-linecap:round;stroke-linejoin:round;stroke-miterlimit:10}.st12{stroke-width:.36}</style><g opacity=".04"><defs><path id="SVGID_1_" d="M460 36.5h97.2v119.3H460z"/></defs><clipPath id="SVGID_2_"><use xlink:href="#SVGID_1_" overflow="visible"/></clipPath></g><path class="st1" d="M98 73.4v-1.9c0-.1-.2-.2-.2-.2h-.4v2.9h2.3s.2 0 .2-.2v-.4h-1.6c-.4 0-.3-.2-.3-.2m-7.3-.8s.1 0 0 0c.1-.2.2-.4.2-.5 0-.2-.1-.5-.3-.6-.2-.2-.5-.2-.7-.2h-1.7c-.3 0-.3.2-.3.2v2.7H90c.3 0 .5-.1.7-.2.2-.2.3-.4.3-.7.1-.3-.1-.5-.3-.7m-2.2-.6c0-.1.1-.1.2-.1h1.5c.1 0 .1.1.1.2s0 .1-.1.2-.2.1-.4.1h-1.4V72zm1.9 1.5c-.1.1-.2.1-.3.1h-1.5V73h1.3c.3 0 .4.1.5.1 0 0 .1.1.1.2s-.1.2-.1.2m10.2-.6h1.9c.2 0 .1-.1.1-.1v-.4h-2v-.3c0-.1.1-.1.2-.1h1.9s.2 0 .2-.2v-.4h-2.5c-.3 0-.3.2-.3.2v2.7h2.7s.2 0 .2-.2v-.4h-2.3v-.8zm-6.1.7h1.2c.2 0 .8 0 .8-.3 0-.1-.1-.3-.8-.4-.4 0-.7 0-1-.1-.3-.1-.5-.3-.5-.6 0-.5.4-.8 1.2-.9h1.5v.4c0 .2-.2.2-.2.2h-1.3c-.2 0-.6 0-.6.3 0 .1.1.2.8.2.4 0 .8.1 1.1.2.3.1.5.4.5.7v.1c0 .3-.2.8-1.3.8h-1.3l-.2-.4s-.1-.2.1-.2m12.9-3.3c-.3-.3-.6-.3-.6-.3-.7.3-1.4.7-1.4.7s1-.5 2.1-.3c0 .1 0 0-.1-.1"/><path class="st1" d="M108.7 70c-.3-.5-1.1-.3-1.6-.1.1 0 1 .1.7 1.4-.2.8-.7 1.6-.7 1.7 0 0 2.1-2.2 1.6-3m-3.3 3c.1 0 .3-.1.4-.2l.2-.2c.1-.1.1-.3.1-.5 0-.3-.2-.6-.4-.7-.2-.1-.5-.1-.6-.1h-1.7c-.2 0-.2.2-.2.2v2.7h.4s.2 0 .2-.2v-1h.8l.8.9.1.1s.1.1.3.1h.6l-1-1.1zm-1.7-.5V72s0-.2.2-.2h1.1c.1 0 .2 0 .3.1 0 0 .1.1.1.2s0 .2-.1.2c-.1.1-.3.1-.5.1h-1.1zm-10.9-1.2h-.3c-.3 0-.3 0-.4.2-.2.3-.5 1-.8 1.6.2-.1.4-.2.8-.3l.4-.7.4.9H92c-.5 0-.8.3-.8.4-.1.4-.2.6-.2.6s-.1.1.1.1h.5l.2-.4s.1-.2.4-.2h1.2s.2.4.3.5c0 .1.1.2.2.2h.5l-1.6-2.9zM545.2 70v2.3c0 .2.2.2.2.2h.5v-3.4h-2.7s-.2 0-.2.2v.4h1.9c.4.1.3.3.3.3m8.6.9c0 .1-.1.1 0 0-.2.2-.2.4-.2.6 0 .3.1.5.3.7.3.2.6.2.8.2h2c.3 0 .4-.2.4-.2V69h-2.5c-.3 0-.6.1-.8.2-.2.2-.4.5-.4.8 0 .5.1.8.4.9m2.6.8c0 .2-.1.2-.3.2h-1.4c-.2 0-.3 0-.3-.1-.1 0-.1-.1-.1-.3 0-.1 0-.1.1-.2s.3-.1.4-.1h1.6v.5zm-2.2-1.8c.1-.1.2-.1.4-.1h1.8v.8h-1.6c-.4 0-.5-.1-.6-.1 0 0-.1-.1-.1-.3 0-.2.1-.3.1-.3m-12.1.7h-2.2c-.2 0-.2.2-.2.2v.5h2.4v.5c0 .2-.1.2-.3.2h-2.2s-.2 0-.2.2v.5h2.9c.3 0 .3-.2.3-.2v-3.2h-3.2s-.2 0-.2.2v.5h2.7v.6zm7.2-.9h-1.4c-.3 0-.9 0-.9.3v.1c0 .1.1.4 1 .4.5 0 .9 0 1.2.2.4.1.6.4.6.8 0 .6-.5 1-1.4 1h-1.9v-.4c0-.2.3-.2.3-.2h1.5c.3 0 .7-.1.7-.3v-.1c0-.1-.1-.2-.9-.3-.5 0-.9-.1-1.2-.2-.4-.2-.6-.4-.6-.9V70c0-.4.2-.9 1.6-.9h1.6l.2.4c-.2.1-.1.2-.4.2m-15.2 3.9c.3.3.7.3.7.3.8-.3 1.6-.8 1.6-.8s-1.2.5-2.5.3c.1 0 .2.2.2.2"/><path class="st1" d="M532.6 74c.4.5 1.3.4 1.9.2-.2 0-1.2-.1-.8-1.6.2-.9.8-1.9.8-2 0-.1-2.5 2.5-1.9 3.4m3.9-3.5c-.2 0-.3.1-.5.2-.1.1-.2.1-.2.2-.1.2-.1.3-.1.5 0 .4.2.7.5.9.3.1.5.1.8.1h2c.3 0 .3-.2.3-.2V69h-.5s-.2 0-.2.2v1.1h-1.1l-.9-1-.1-.1s-.1-.2-.4-.1h-.7l1.1 1.4zm1.9.6v.5s0 .2-.2.2h-1.3c-.1 0-.3 0-.4-.1-.1 0-.1-.1-.1-.3 0-.1 0-.2.1-.3.1-.1.3-.1.6-.1h1.3zm12.9 1.4h.3c.3 0 .3 0 .4-.2.2-.4.6-1.1.9-1.8-.2.1-.5.3-.9.3l-.4.8-.5-1h1c.6 0 .9-.4 1-.5.2-.5.4-.8.4-.8s.1-.1-.1-.1h-.6l-.3.5s-.1.2-.4.2h-1.4s-.2-.5-.3-.6c-.1-.1-.1-.2-.3-.2h-.6l1.8 3.4z"/><path d="M558.4 62.4h-26.2m0 16.6h26.2m-26.2-16.6l-.6.3-.5.4-.4.7-.1.6V77l.1.6.4.7.5.4.6.3m26.2-16.6V79" fill="none" stroke="#1d1d1b" stroke-width=".412" stroke-linecap="round" stroke-linejoin="round" stroke-miterlimit="10"/><path d="M555.6 62.4h-13.8M555.6 79h-13.8" stroke-width=".353" fill="none" stroke="#1d1d1b" stroke-linecap="round" stroke-linejoin="round" stroke-miterlimit="10"/><path class="st4" d="M46 13.1h523.4m3.9 39.9V10.4M41.5 54.5V9.4"/><path class="st5" d="M47.2 14v-1.9l-5.7 1"/><path class="st6" d="M178.6 61.3h291.8V82H178.6z"/><path class="st4" d="M202.3 59.5V41.8m-23.8 11.6V41.8m4 2.9h15.6m4.2 0h4.2"/><path class="st5" d="M182.5 43.9v1.4l-4.2-.6m19.8-.8v1.4l4.2-.6"/><text transform="translate(209.69 47.422)" class="st7 st8 st9">(30)</text><path class="st5" d="M567.7 14v-1.9l5.6 1"/><path class="st6" d="M250.6 63.1v1.3m0 .9v1.8m0 .9v1.8m0 .9v1.7m0 1v1.7m0 .9v1.8m0 .9V80m-48.4-16.9h1.2m1.1 0h2.1m1 0h2.2m1.1 0h2.1m1.1 0h2.1m1.1 0h2.1m1.1 0h2.2m1 0h2.1m1.1 0h2.2m1.1 0h2.1m1.1 0h2.1m1.1 0h2.2m1 0h2.1m1.1 0h2.1m1.1 0h2.2m1 0h1.2M202.2 80v-1.3m0-.9V76m0-.9v-1.7m0-1v-1.7m0-.9V68m0-.9v-1.8m0-.9v-1.3M250.6 80h-1.2m-1 0h-2.2m-1.1 0H243m-1.1 0h-2.1m-1 0h-2.2m-1.1 0h-2.1m-1.1 0h-2.1m-1.1 0h-2.2m-1.1 0h-2.1m-1 0h-2.2m-1.1 0h-2.1m-1.1 0h-2.1m-1.1 0h-2.1m-1.1 0h-2.2m-1 0h-2.1m-1.1 0h-1.2"/><text transform="translate(199.755 9.884)"><tspan x="0" y="0" class="st7 st8 st9">L</tspan><tspan x="4.3" y="0" class="st7 st8 st9">ength (in m) depending on order number</tspan></text><path class="st6" d="M513 228.9h23.6m0 5.5H513m0-8.4v11.3m-34.5-4.2v4.2l-1.5-1.4m36 1.4h-34.5m-1.5-9.9l1.5-1.4m-1.5 7.1h5.7m-5.7-2.9h5.7m-5.7 5.7v-2.8m0-2.9v-2.8m36 7.6h-34.5m0-9H513m0 .5h-34.5M513 228h-34.5m34.5 1.3h-34.5m34.5 1.5h-30.3m30.3 1.4h-30.3m30.3 1.4h-34.5m34.5 2.8h-34.5m0-6.2V226m4.2 7.1v-2.9m77.4-1.2h9.6m0 5.3h-9.6m9.6-3.6l-1 3.6m.4-5.3l-1.5 5.3m.4-5.3l-1.4 5.3m.3-5.3l-1.5 5.3m.4-5.3l-1.5 5.3m.4-5.3l-1.4 5.3m.3-5.3l-1.5 5.3m.4-5.3l-1.5 5.3m.4-5.3l-1.3 4.8m.2-4.8l-.2.7m-.9 4h-22.6m0-4h22.6m-22.6 4.7v-5.5m23.5 5.4l-.9-.6m0-4l.9-.7v5.3m-.9-4.6v4m11.4-3.9v3.7l-.9.8"/><path class="st6" d="M570.6 229.8l-.9-.8v5.3"/><path class="st4" d="M570.6 227v-9.5m-11.4 9.3v-9.3m-6.3 5.6h29m-28.4 0h-5.6"/><path class="st5" d="M576.2 222.2v1.9l-5.6-1m-17.1-.9v1.9l5.7-1"/><path class="st4" d="M570.6 227v-7.3m0 7.3v-19.9M477 224.5v-17.4m87.9 5.7h-82.2"/><path class="st5" d="M564.9 211.8v1.9l5.7-.9m-87.9-1v1.9l-5.7-.9"/><path class="st4" d="M477 224.5v-4.8"/><path class="st6" d="M533.7 228.9h-17.5m17.5 5.5h-17.5m23.2-4.7h10.3m-10.3 4h10.3"/><path class="st4" d="M456.6 226h18.5m-12.9 17v5.7m0-28.4v-13.8"/><path class="st5" d="M463.1 243h-1.9l1-5.7m103.1 3.2h-2l1-5.7m-101.2-14.5h-1.9l1 5.7"/><path class="st4" d="M477 225.6v-12.1"/><text transform="translate(506.018 210.769)" class="st7 st8 st9">33±0.2</text><text transform="rotate(90 129.167 335.737)" class="st7 st8 st9">Ø4</text><text transform="translate(585.087 224.891)" class="st7 st8 st9">4±0.2</text><text transform="translate(579.837 248.022)" class="st7 st8 st9">M2 x 0.4</text><path class="st4" d="M564.3 234.8v10.9h13.3"/><path class="st10" d="M558.8 86.9h14.6m0-31.4h-14.6m12.1 15.4h.2m-.2-1.1h.2m-11.5 1.1h6.2m0-1.1h-6.2v1.1m6.2 0h.4m0-1.1h-.4v1.1m.4 0h.3m0-1.1h-.3v1.1m1.6 0h3.1m-3.1-1.1h3.1v1.1m-3.8 0h.7v-1.1h-.7m-.2 1.1h.2v-1.1h-.2m-.4 0h.4v1.1h-.4zm4.4-11.9h.2m-.2-1.1h.2m-11.5 1.1h6.2m0-1.1h-6.2v1.1m6.2 0h.4m0-1.1h-.4v1.1m.4 0h.3m0-1.1h-.3v1.1m1.6 0h3.1m-3.1-1.1h3.1v1.1m-3.8 0h.7v-1.1h-.7m-.6 1.1h.4m0-1.1h-.4v1.1m.6 0h-.2v-1.1"/><path class="st10" d="M567.1 57.9v-1.1h-.2m-7.1 1.1h11.9M559.8 71h11.9m0-1.2h-11.9m11.9-13.1h-11.9m13.6-2.3l.3.3v.8h-.3m.3 0v31.4h-.3"/><path class="st10" d="M573.4 88.1l.3-.3v-.9m-14.9 1.2h14.6v-1.2m0-31.4v-1.1h-14.6m13 2.6v.6l-.1.3-.3.1H560l-.3-.1-.1-.3V57l.1-.2.3-.2h11.4l.3.2zm-.4 14.1H560l-.3-.1-.1-.3v-.6l.1-.3.3-.1h11.4l.3.1.1.3v.6l-.1.3zm2 15.8V55.5m-11.1 6.2l.1-.4.2-.2.3-.2.2-.1m6.7.9l-.1.2-.2.3-.2.2-.4.1m-6.6 3.5l.1-.3.2-.2.3-.2.2-.1m6.7 17.1l-.1.4-.2.2-.2.2h-.4m.9-17.1l-.1.4-.2.2-.2.3h-.4m-6.6 15.4l.1-.3.2-.3.3-.1.2-.1m-.7-19.8h-.1"/><path class="st10" d="M563.1 62.5l-.2-.1-.3-.2-.2-.3-.1-.2m7.3 4.3h.2m-.9-.8l.4.1.2.2.2.2.1.3m0-4.3h-.2m-.7-.9l.4.1.2.2.2.2.1.4m-7.5 4.3h.1m.7.9h-.2l-.3-.3-.2-.2-.1-.4m7.3 16.3h.2m-.9-.8l.4.1.2.1.2.3.1.3m-7.4 0h-.1m.8.8h-.2l-.3-.2-.2-.2-.1-.4m6.6-19.9v.1m-5.8-.1v.1h5.8m-5.8 2.9v-.2m5.8.2v-.2h-5.8m0-4.2v-.2m5.8.2v-.2h-5.8"/><path class="st10" d="M563.1 62.4h5.8l.6-.3.1-.4-.1-.6-.6-.1h-5.8l-.4.1-.3.6.3.4zm0 3l-.4.2-.3.4.3.6.4.1m5.8 0l.6-.1.1-.6-.1-.4-.6-.2h-5.8m0 1.3h5.8v.2h-5.8zm0 14.9v-.1m5.8.1v-.1h-5.8m6.5.8l-.1-.4-.6-.3h-5.8l-.4.3-.3.4.3.6.4.1m5.8 0l.6-.1.1-.6m-6.5.7h5.8v.1h-5.8zm8-12.1v-1.1m0-11.9v-1.1m-74.4 88.6v33.9m-8.6-19.7h-2.2m-7.7 0H476m0 5.5h2.2m7.7 0h2.2"/><path fill="none" stroke="#1d1d1b" stroke-width=".24" stroke-linecap="round" stroke-linejoin="round" stroke-miterlimit="10" d="M564.9 71.2h3.4"/><path class="st6" d="M564.9 162.3h3.4"/><path class="st10" d="M511.9 155.4h-15.2m15.2 13.8h-15.2m15.2-19.2v24.8m-18.8-29.4v33.9m-2.3 0v-33.9m-7.7 33.9v-33.9m-2.2 0v33.9m-2.7-1.8v-12.4m-7.7-19.7v33.9m15.4 0v-14.2m-7.7 14.2v-14.2m79-71.8h.2m1.4-1.4l-.1.5-.3.5-.5.3-.5.1m1.4-5.2v3.8m0-41.3v3.8m-46.9-12.1v11.9m45.5-13.3h-44.2"/><path class="st10" d="M558.8 100.2V42.3l-.1-.6-.3-.4-.5-.3-.5-.1m-44.2 0l-.5.1-.5.3-.3.4v.6m0 57.9v-12m1.3 13.4h44.2l.5-.1.5-.3.3-.5.1-.5m-46.9 0v.5l.3.5.5.3.5.1"/><path class="st10" d="M558.8 50.6l-.1-.6-.3-.4-.5-.3-.5-.1h-44.2m44 44.1h-44"/><path class="st10" d="M513.2 49.2l-.5.1-.5.3-.3.4v.6m0 41.3v.5l.3.5.5.3.5.1"/><path class="st12" d="M511.9 40.9v11m-33.7-4.1v4.1l-1.4-1.4m35.1 1.4h-33.7m-1.4-9.7l1.4-1.3m-1.4 6.9h5.5m-5.5-2.8h5.5m-5.5 5.5v-2.7m0-2.8v-2.8m35.1 7.4h-33.7m0-8.7h33.7m0 .5h-33.7m33.7 1.3h-33.7m33.7 1.4h-33.7m33.7 1.4h-29.6m29.6 1.4h-29.6m29.6 1.4h-33.7m33.7 2.7h-33.7m0-6v-4.1m4.1 6.9V45m76.6-1.3h8.1m0 5.3h-9.3m9.3-3.5l-.9 3.5m.3-5.3L565 49m.3-5.3l-1.4 5.3m.4-5.3l-1.4 5.3m.3-5.3l-1.4 5.3m.3-5.3l-1.4 5.3m.3-5.3l-1.4 5.3m.4-5.3l-1.4 5.3m9.2-4.4v3.6l-.8.8"/><path class="st12" d="M567.8 44.6l-.8-.9V49"/><path class="st4" d="M573.7 168.7V193m-14.9-17.5V193m-5.6-5.5h-5.5m31.4 0h30.4"/><path class="st5" d="M553.2 186.5v1.9l5.6-.9m20.3-1v1.9l-5.4-.9"/><path class="st4" d="M560.1 40.9h42.8m-42.8 60.7h42.8m-3.1-55.2v49.7"/><path class="st5" d="M600.8 46.4h-1.9l.9-5.5m1 55.2h-1.9l.9 5.5"/><path class="st4" d="M560.1 49.2h28.7M560 93.3h28.8m-3.1-38.6v33.1"/><path class="st5" d="M586.6 54.7h-1.9l1-5.5m.9 38.6h-1.9l1 5.5"/><path class="st4" d="M558.8 102.9v22m-46.9-22V120m41.3-3.1h-35.8"/><path class="st5" d="M553.2 115.9v1.9l5.6-.9m-41.4-1v1.9l-5.5-.9"/><path class="st10" d="M471.9 145.4l-.6.1-.4.3-.3.4-.1.5m0 31.2l.1.6.3.4.4.3.6.1m16.2-33.9v14.2m-2.2 19.7v-14.2m-9.9-19.7v14.2m2.2-14.2v14.2m49.3-95.3l.5-.1.5-.3c.7-.9.5-1.7-.5-2.3l-.5-.1-.5.1c-.9.5-1.2 1.4-.5 2.3l.5.3.5.1zm0 16.6l.5-.1.5-.3.3-.4.1-.6-.1-.5-.3-.5-.5-.3-.5-.1-.6.1-.4.3-.3.5-.1.5.1.6.3.4.4.3zm-10.7 64.5h-28.7m0 19.7v14.3-14.3zm-2.2-5.5v-14.2m-9.9 19.7v14.3-14.3z"/><path class="st12" d="M476 150.9h2.2m2.7 0h2.2m2.8 0h2.2m2.7 0h2.3M476 173.8h2.2m2.7 0h2.2m2.8 0h2.2m2.7 0h2.3"/><path class="st10" d="M516.8 179.3h-28.7m-2.2-33.9h-7.7m-2.2 0h-5.5m5.5 33.9h-5.5m15.4 0h-7.7m33.7-29.3h45.5m1.4 1.3l-.1-.5-.3-.5-.5-.3h-.5"/><path class="st6" d="M558.8 151.3v22.3m0-16.7h-46.9"/><path class="st10" d="M558.8 167.9h-46.9m45.5 6.9l.5-.1.5-.3.3-.4.1-.6m-46.9 1.4h45.5m-40.6 4.5l1.8-.1c3.4-.4 5.6-1.3 8.4-3.3l1.4-1.2m0-24.7l-1.4-1.2c-2.1-1.7-5.7-3.1-8.4-3.3l-1.8-.1m-46.3-58.6v.6l.3.4.4.3.5.1m-1.2-32.6v32.6m22.6-34v14.3m0 5.5v14.2m-12.2-19.7v-3.1m15.8 15.5v-.3m0 7.6v-34m-3.6 14.3h-2.3V54.2m-2.7 9.6v20.8m-2.2-.3v-20m-2.8.6v3.6h-2.2m0 5.5h2.2m7.7 0h2.3m-5 14.2v-34m-2.2 34v-34m-2.8 34V74m0-5.5V54.2m-2.2 34V74m0-5.5V54.2m-2.7 34v-34m-2.2 34v-34m-4.3 0l-.5.2-.4.3-.3.4v.5m20.3 32.6V74"/><path class="st12" d="M476 59.8h2.2m2.7 0h2.2m2.8 0h2.2m2.7 0h2.3M476 82.7h2.2m2.7 0h2.2m2.8 0h2.2m2.7 0h2.3"/><path class="st10" d="M496.7 88.2h-3.6m-2.3 0h-7.7m-2.2 0h-10.4m26.2-34h-3.6m-2.3 0h-7.7m-2.2 0h-10.4m41.4 0h-15.2m15.2 34h-15.2m20.1-5.4l1.6-.1c14.1-2.5 12.7-22.5-1.6-23h-20.1m20.1 23.1h-20.1m13.8-28.6h.5l.5-.3.3-.5.1-.5m0 36.7l-.1-.6-.3-.4-.5-.3-.5-.1"/><path class="st4" d="M558.8 102v22.6m0-22.6v34.8m-88.3-45.6v45.6m82.7-3H476"/><path class="st5" d="M553.2 132.8v1.8l5.6-.8m-82.8-1v1.8l-5.5-.8"/><path class="st6" d="M564.9 162.5h3.4m5.1 2.1h-14.6m0-1.5h14.6m0-.8h-14.6m14.6-1.2h-14.6m7.3-1.2l.1-.2c.3-1.5 0-1.9 1.6-1.5l2.7 1.6m-6.5 5.6h.4m5.5-.5l-4.2.6m-1.3-.4l1.3-.2m-2.6-5.1h-.2 3.3m-3.8 0l-.1.1m.8-.1h-.7m.7 0v.1m1.3 5.2h-.4m0 .3h.4m-.4-.3v.3m.4-.3l1.3-.2m4.2 0l-4.2.6m0 0l-1.3-.1v-.3m-5.6-.2h14.6m.3-.5v.3l-.3.2v-.3"/><path class="st6" d="M573.7 162.9v1.5l-.3.2v-1.5m0-3.2l.3.3v.9m-.3 2l.3-.2v-.6h-.3m0-1.2h.3v1.2m-.3.8v-2m-14.6-1.2h14.6v1.2m-11.1-1.2zm.1-.1v.1h-.1zm-3.6 13.7v-22.3"/><path class="st12" d="M511.9 90.4v11.1m-33.6-4.2v4.2l-1.4-1.4m35 1.4h-33.6m-1.4-9.7l1.4-1.4m-1.4 6.9h5.5m-5.5-2.7h5.5m-5.5 5.5v-2.8m0-2.7v-2.8m35 7.5h-33.6m0-8.9h33.6m0 .6h-33.6m33.6 1.4h-33.6m33.6 1.3h-33.6m33.6 1.4h-29.5m29.5 1.4h-29.5m29.5 1.4h-33.6m33.6 2.7h-33.6m0-6v-4.2m4.1 6.9v-2.7m76.4-1.2h8.3m0 5.2h-8.3m8.3-3.5l-1 3.5m.4-5.2l-1.4 5.2m.3-5.2l-1.4 5.2m.4-5.2l-1.5 5.2m.4-5.2l-1.4 5.2m.3-5.2l-1.4 5.2m.3-5.2l-1.4 5.2m.4-5.2l-1.4 5.2m9.2-4.4v3.5l-.8.9"/><path class="st12" d="M567.9 94.2l-.8-.8v5.2"/><path class="st4" d="M456.6 237.4h18.5"/><text transform="translate(582.247 184.67)" class="st7 st8 st9">5.4</text><text transform="translate(597.746 179.112)" class="st7 st8 st9">+0.2</text><text transform="translate(597.746 186.313)" class="st7 st8 st9">-0</text><text transform="translate(499.218 131.818)" class="st7 st8 st9">32±0.3</text><text transform="translate(519.548 115.648)" class="st7 st8 st9">17±0.3</text><text transform="rotate(90 272.887 328.164)" class="st7 st8 st9">22±0.3</text><text transform="rotate(90 265.448 321.105)" class="st7 st8 st9">16±0.3</text><path class="st6" d="M127.6 53.4l-2.2-.6-2.2-.4-2.2-.3-2.2-.1m0 41.6l2.2-.2 2.2-.2 2.2-.5 2.2-.6M76 52l-.5.1-.4.3-.3.4-.1.5m0 38.9l.1.5.3.5.4.2.5.2m-1.3-20.8v19.4m1.3 1.4h4.1M76 52h4.1m-5.4 20.8V53.3m81 36.1v-14M59 79.5v5.4m-4.4 0v-5.4m-12.3-6.7v14.8m1.3 1.3h31.1m-32.4-1.3l.1.5.3.4.4.3.5.1m11-4l.1.3.1.1.3.1h3.3l.3-.1.2-.1.1-.3m5 .6l-.6.3-.4.4-.2.5.2.5.4.4.6.2.7.2.7-.2.6-.2.4-.4.2-.5-.2-.5-.4-.4-.6-.3-.7-.1zM43.6 56.6h31.1M42.3 72.8V58m1.3-1.4l-.5.2-.4.2-.3.4-.1.6m16.1 8.5l.3-.1.2-.2.1-.2m-4.4 0l.1.2.1.2.3.1m-.5-3.2H59m-3.9-3.2l-.3.1-.1.2-.1.2M59 66v-5.4m-.6-.5h-3.3m3.9.5l-.1-.2-.2-.2-.3-.1m-3.8.5V66m.5.5h3.3M55.1 79l-.3.1-.1.2-.1.2m4.4 2.7h-4.4m.5-3.2h3.3m.6.5l-.1-.2-.2-.2-.3-.1M64 60l-.6-.3-.4-.4-.2-.5.2-.4.4-.5.6-.2.7-.1.7.1.6.2.4.5.2.4-.2.5-.4.4-.6.3-.7.1zm94.9 29.4v-14m3.2 14v-15m3.3 15v-15m3.2 15v-14m3.2 14v-14m6.8 14V56.1m-6.8 19.3h-3.2m3.2-5.3h-3.2m-12.9 0v-14m3.2 14v-14m3.2 15.1V56.1m-3.2 19.3h-3.2m3.2-5.3h-3.2m9.7 1.1V56.1m3.2 14v-14m3.2 14v-14m-6.4 18.3v-3.2m-3.3 3.2v-3.2m-82 22.4V52m2.7 0v41.6m-2.7-40.8h2.7m-2.7 40h2.7m0 .8h36M82.8 52h36m30.8 9.4h-.1l-.1-.1c-2.3-.4-4.6-.9-6.8-1.6l-.9-.2-.9-.3c-4.5-1.4-8.5-4.3-13-5.7h-.1l-.1-.1m22.7 36V56.1"/><path class="st4" d="M42.3 91.6v27.3m-34.6-3h66.4"/><path class="st5" d="M47.7 116.8V115l-5.4.9m27 .9V115l5.4.9"/><path class="st4" d="M74.7 95.9v23m103.9-26.8v26.8m-98.5-3h93.1"/><path class="st5" d="M80.1 116.8V115l-5.4.9m98.5.9V115l5.4.9"/><path class="st4" d="M178.6 92.1v17.7"/><path class="st6" d="M86.8 64.6h22.9M86.8 80.9h22.9m1.3-1.4V66m-25.5 0v13.5m1.3-14.9l-.5.2-.4.2-.3.5-.1.5m25.5 0l-.1-.5-.3-.5-.4-.2-.5-.2M85.5 79.5l.1.5.3.5.4.3.5.1m22.9 0l.5-.1.4-.3.3-.5.1-.5m2.9-.3l-.6.2-.5.3c-.9.9-.6 2.1.5 2.6l.6.1.6-.1.5-.3.3-.5.1-.6-.1-.6-.3-.5-.5-.3-.6-.3zm0-16.2l-.6.1-.5.3c-.9.9-.6 2.1.5 2.6l.6.2.6-.2.5-.3.3-.5.1-.6-.1-.6-.3-.5-.5-.3-.6-.2zm63.4 26.4l.5-.1.4-.3.3-.5.1-.5m0-30.5l-.1-.5-.3-.5-.4-.3-.5-.1m-50.4 5.3l-1.6.1c-13.8 2.4-12.5 22 1.6 22.5h23.3m-23.3-22.6h23.4m-16.4 28h44.7m-44.7-33.3h44.7m-29 28h-.1l-.2.1c-2.5.4-5.1 1.2-7.5 1.8l-1.8.6-1.6.6c-3.6 1.5-6.7 3.6-10.4 4.7l-.2.1-.1.1"/><path class="st6" d="M139.2 89.4l-2.5.1-2.4.3-2.4.6m0-35.2l2.4.5 2.4.3 2.5.1"/><text transform="translate(1.086 113.47)" class="st7 st8 st9">11.75</text><text transform="translate(27.585 106.912)" class="st7 st8 st9">+0.2</text><text transform="translate(28.585 114.112)" class="st7 st8 st9">-0</text><text transform="translate(107.64 114.118)" class="st7 st8 st9">38.5±0.3</text><path class="st4" d="M53 196.3h13.5"/><path class="st5" d="M53 197.2v-1.7l-5.4.8m18.9.9v-1.7l5.4.8"/><text transform="translate(47.47 193.448)" class="st7 st8 st9">9±0.3</text><path class="st6" d="M71.9 168.1v-30.7m-24.3 30.7v-30.7m11.2 31.5v-32.3m-3.1 0h-.6l-.6.3-.4.5-.3.6-.1.6m12.2 0l-.2-.6-.2-.6-.5-.5-.6-.3h-.6m0 32.3h.6l.6-.3.5-.5.2-.5.2-.7m-12.2 0l.1.7.3.5.4.5.6.3h.6m0-32.3h8.1m-8.1 32.3h8.1m-10.1-2v-28.3m12.2 28.3v-28.3m-12.9 35h13.5M53 132h13.5"/><path class="st4" d="M47.6 170.9v27.3m24.3-27.3v27.3"/><path class="st6" d="M47.6 141.4l-1.3 1.5c-4.3 6-4.3 13.7 0 19.7l1.3 1.5m0 4l.1 1.1c.5 2.1 2.1 3.9 4.3 4.2l1 .1m0-41.5l-1 .1c-2.2.4-3.8 2.1-4.3 4.2l-.1 1.1m18.9 36.2l1.1-.1c2.1-.4 3.9-2.2 4.2-4.2l.1-1.1m0-30.8l-.1-1.1c-.4-2.1-2.2-3.9-4.2-4.2l-1.1-.1m5.4 32.1l1.2-1.5c4.3-5.7 4.3-14 0-19.7l-1.2-1.5"/><path class="st4" d="M69.2 173.6h33.7M69.2 132h33.7m-5.4 36.1v-30.7"/><path class="st5" d="M96.6 168.1h1.8l-.9 5.5m-.9-36.2h1.8l-.9-5.4"/><text transform="rotate(-90 133.962 38.739)" class="st7 st8 st9">15.4±0.3</text><path class="st4" d="M639.7 86.7v-3.4m0-3.5V62.6m0-3.5v-3.4M637 71.2h3.4"/><path class="st10" d="M652.1 53.3v35.8"/><path class="st4" d="M639.6 73.3h.1v3.3m-1.2-16.2h-.2m.2-.4h-.2m2.2 0h-.4m.5.2h-.5m.5.1h-.5m0-.3v.4m-1.6 0h1.2m0-.4h-1.2v.4m1.5-.4h.1v.4m-.1-.4h-.3v.4m.2 0h.1V60m-1.5 3.6h-.2m.2.4h-.2m2.1 0h-.3m.5-.1h-.5m.3-.3h-.3m.5.2h-.5m0 .2v-.4m-.4 0h-1.2m1.2.4h-1.2v-.4m1.6 0h-.1m0 .4h.1v-.4m-.4 0h.3v.4h-.3zm-1.2 4h-.2m.2-.4h-.2m2.2.4h-.4m.5-.1h-.5m.4-.3h-.4m.5.1h-.5m0-.1v.4m-1.6 0h1.2m0-.4h-1.2v.4m1.6 0h-.1m0-.4h.1v.4m-.1 0h-.3m.3-.4h-.3v.4m.3-.4v.4m-1.5 11.3h-.1m.1-.4h-.2m2.3.3h-.5m.3-.3h-.3m.5.1h-.5m0-.1v.4m-1.6 0h1.2m0-.4h-1.2v.4m1.5-.4h.1v.4m-.1-.4h-.3v.4m.2 0h.1v-.4m-1.5 4h-.2m.2-.4h-.2m2.2 0h-.4m.5.2h-.5m.4.2h-.3m.4-.1h-.5m0-.3v.4m-1.6 0h1.2m0-.4h-1.2v.4m1.6 0h-.1m0-.4h.1v.4m-.1-.4h-.3v.4m.2 0h.1v-.4m-1.5 4h-.1m.1-.4h-.2m2.3.2h-.5m.3-.2h-.3m.5.1h-.5m0-.1v.4m-1.6 0h1.2m0-.4h-1.2v.4m1.5-.4h.1v.4m-.1 0h-.1m.1-.4h-.3v.4m.3-.4v.4m-1.7-5.3h.2m-.2-.5h.2m1.6 0h.3m-.3.2h.5m-.5.3h.3m.2-.2h-.5m0-.3v.5m-1.6 0h1.2m0-.5h-1.2v.5m1.5 0h.1m-.1-.5h.1v.5m-.4 0h.3m0-.5h-.3v.5m.3-.5v.5m-1.7-18.6h.2m-.2-.4h.2m1.6 0h.3m-.3.1h.5m-.5.3h.3m.2-.1h-.5m0-.3v.4m-1.6 0h1.2m0-.4h-1.2v.4m1.5 0h.1m-.1-.4h.1v.4m-.4-.4h.3v.4h-.3zm-1.2 4h-.2m.2-.4h-.2m2.1.4h-.3m.5-.1h-.5m.3-.3h-.3m.5.2h-.5m0-.2v.4m-1.6 0h1.2m0-.4h-1.2v.4m1.6 0h-.1m0-.4h.1v.4m-.4-.4h.3v.4h-.3zm-4.3 4.4h.2m2.2 0h.1m-.1 1.1h.1m-.1-14.2h.1m-.1 1.1h.1m1.7 22.5h-.5m.5-1.4h-.5m0 7.2h.5m-.5-5.3h.5m0 3h-.5m.5-1.7h-.5m.5 3.6h-.5m0-3.1h.5m-.5-4.1h.5m-.5 5.8h.5m0-7.1h-1.7m.6 10.2h1.1m-1.7-10.2v9.9l.3.3h.3m.6-1.3h-.1m.1-1.8h-.1m.1-.5v.1m0-1.4v.1m0-.5h-.1m.1-1.3h-.1m.1-.5h-.1m.1-1.4h-.1m.1-18.9h.5m0 1.8h-.5m.5-1.3h-.5m0 1.7h.5m0 3.2h-.5m0-1.4h.5m0 3.2h-.5m0-1.3h.5m-.5 1.8h.5m0-4.1h-.5m-1.2-4.9V69m1.2-8.6v.1m0-.5h-.1m.1 7.6v.1m0-.5h-.1m.1-1.4v.1m0-.5h-.1m.1-1.4h-.1m.1-1.8h-.1m.9-.4h-.3m.3-1.3h-.3v1.3m0 15.4v1.3h.3m.1-23.3l-.3-.1-.2-.1m.1 3.7h-1.7m2 21.6h-.3"/><path class="st4" d="M639.9 78.9h-.3v1.4m.3-14.4h-.3v1.3h.3m0 .5h-.3V69m.3 11.8h-.3v1.3h.3m0-19.9h-.3v1.4h.3m0 20.7h-.3v1.4h.3m0-21.7h-.3v1.4h.3m-2 3.6v3.6m3.5-16l-1.4-1.4-.2.2m.1 13.8l-.3-.2h-1.7l.2.2m1.8 13.4h-.3v1.2h.3m1 3.6h.3l.3-.3v-.4m-1.9.7h1.3v-.3m.6-30v-.3l-.1-.2-.2.2m.2 14.3l-1.4 1.4m-2.1-16.8v3l.2-.3m3.4 12.2V57.1h-.2m.2 20.8v-.4l-.3-.2-.3-.1M638.5 55l-.3.1-.3.2v.4h.2m3.2 31h.2v-8.8h-.2m-1.8-5.3h-1.6l.2-.2m1.4.2h.2l.3-.1-.2-.2m-.3.3v-.2m1.4 4.8h-1.3l.3.3m1 0v-.3M638.5 55v.3m1 0V55h-1m2.7 15.9l.2.2.1-.5h-.2m-1.4 15.5h-.3v1.3l.3-.3"/><path class="st4" d="M640.9 86.1h-1v1h1l.3-.1.1-.3v-8.8l-.1-.3-.3-.1h-1v1h1v.4h-1v1.4h1v.5h-1v1.3h1v.5h-1v1.2h1v.5h-1v1.4h1zM639.6 60h.3m0-1.6l-.3.3V60"/><path class="st4" d="M640.9 67.7h-1v1.5h-1.8v3.2h1.4l.3-.1 1.4-1.4.1-.3V57.1l-.1-.3-1.4-1.4-.3-.1h-1l-.3.1-.1.3v2.7h1.8V60h1v.5h-1v1.3h1v.4h-1v1.4h1v.4h-1v1.4h1v.5h-1v1.3h1zm.4 20.4h-.2m-4-5.1v-.7m0 .7h-.1m.1-16.3V66m0 .7v.1m0-5.2V61m0 5v-.6m0 .6h.1m-.1 16.3v-.6m0 .6h.1m0-20.7h-.1m0 .7v-.7m0 .7v.1m5.2 19.2h.4m-.5 1.4h.5v-1.4m-.5-20.5h.5m-.5-1.4h.5v1.4m-.5-1.4v1.4m0 21.9v-1.4m-.6-17.8v.1m.6-.1v.1m-2.6 9.4l.4-.1.4-.3-.2-.1m1.6-1.3l-1.4 1.4m1.5-9h.3v6.8m-5 16.2l.1.5.2.3.4.2.4.2m3.9-10.4l-.1-.5-.3-.3-.3-.2-.4-.1m-2.8-22.2l-.4.1-.4.2-.2.4-.1.4h.3m-.3 0v31.4h.3"/><path class="st4" d="M641.7 71.3l.1.2.3-.4.1-.4h-.3m-1.5-16l-.4-.2-.4-.1m-1.3 33.4v.3h2.8m-1.5-33.5v-.2h-1.3v.2m3.9 32.3v-9.2h-.3m-.8 10.1v.3l.4-.2.3-.2.3-.3.1-.5h-.3m-.1-30.7l-1.4-1.5-.2.2m2 2.1l-.1-.4-.3-.4-.1.2m.2 7.4h.3V57h-.3m-3.2 16.8V76m.6-2.7h-.3l-.2.3-.1.2h-.2m.8-.8v.3h.3V73m1.5 3.8v-.2h-1.8m-.6-.6l.1.3.2.2.3.1m-.6-.6h-.2m.8.8v-.2m.7-21.5l1.5 1.5"/><path class="st4" d="M639.3 73h.3l.3-.1.3-.1 1.5-1.5.2-.6v-6.8h-.3v6.8l-.1.4-1.5 1.5-.4.2h-.7l-.4.2-.2.4-.1.4V76l.1.4.2.4.4.3h2.2m.5.6l-.1-.4-.4-.2m.5.6v9.2m-.5.6l.4-.1.1-.5m-.5.6h-2.8m-.5-.6l.1.5.4.1m-.5-.6V55.5m.5-.6l-.4.2-.1.4m.5-.6h1.3l.4.2"/><path class="st4" d="M641.5 56.6l.1.4v6.8h.3V57l-.2-.6-1.5-1.5-.3-.2-.3-.1h-1.3l-.4.2-.3.3-.1.4v31.4l.1.5.3.2.4.2h2.8l.4-.2.3-.2.1-.5v-9.2l-.1-.5-.3-.2-.4-.2h-1.8"/><path class="st4" d="M638.5 76l.1.4.3.3.4.1m-.8-.8v-2.2m.8-.8l-.4.1-.3.3-.1.4m0 10.5h-.2m.2-.4h-.2m2.1.4h-.3m.5-.1h-.5m.3-.3h-.3m.5.1h-.5m0-.1v.4m-1.6 0h1.2m0-.4h-1.2v.4m1.6 0h-.1m0-.4h.1v.4m-.1 0h-.3m.3-.4h-.3v.4m.3-.4v.4M638.3 60v.4m1.8 0V60m-1.8 3.6v.4m1.8 0v-.4m-1.8 3.6v.4m1.8 0v-.4m-1.8 11.3v.4m1.8 0v-.4m-1.8 3.6v.4m1.8 0v-.4m-1.8 3.6v.4m1.8 0v-.4m-1.8-5.4v.5m1.8 0v-.5m-1.8-18.5v.4m1.8 0v-.4m-1.8 3.6v.4m1.8 0v-.4m-2.9-4.6l-.1.1m.1 20.6l-.1.1m.1-16.4l-.1.1m0 17.7l.1.1m-.1-16.3l.1.1m0-6.1l-.1.1m.1-.1h-.1m0 .2h-.1m.2 4.3h-.1l.1-.1m-.1.1v.1m.1 16.2h-.1m.1-.1h-.1m0 .1h-.1m.1-19.2h.1m1.1 21.5v.4m1.8 0v-.4"/><path class="st10" d="M639.7 93.2l-.7.1-.6.3c-2.2 1.2-1.7 4.4.6 5l.7.1.8-.1c2.3-.6 2.8-3.8.6-5l-.6-.3-.8-.1z"/><path class="st10" d="M634.2 96.9l.3 1.1c2 4.7 8.3 4.7 10.3 0l.3-1.1m.1-51.4l-.3-1.1c-1.9-4.7-8.5-4.8-10.3 0l-.3 1.1"/><path class="st10" d="M639.7 43.6l-.7.1-.6.2c-2.1 1.3-1.8 4.3.6 5.1l.7.1.8-.1c2.4-.8 2.7-3.7.6-5.1l-.6-.2-.8-.1zm12.4 9.7l-.1-.9-.3-.9-.5-.8-.6-.6-.8-.5-.8-.3m0 43.8l.8-.3.8-.5.6-.6.5-.8.3-.9.1-.9"/><path class="st10" d="M649.9 92.8l-1.1.3c-1.8.6-3.2 2.1-3.8 3.9l-.2 1.1m0-53.7l.2 1.1c.6 1.8 2 3.3 3.8 3.9l1.1.3m-22.6 3.6v35.8m3.2-39.8l-.9.3-.8.5-.6.6-.5.8-.3.9-.1.9m0 35.8l.1.9.3.9.5.8.6.6.8.5.9.3"/><path class="st10" d="M634.5 98l-.2-1.1c-.4-1.6-2.1-3.4-3.7-3.9l-1.1-.3m0-43.1l1.1-.3c1.6-.4 3.3-2.3 3.7-3.9l.2-1.1m-7.2 15.3l-1.3 1.5c-4.4 6.1-4.4 14 0 20.1l1.3 1.5m24.8.1l1.2-1.5c4.4-5.7 4.4-14.4 0-20.1l-1.2-1.5"/><path class="st12" d="M639.7 96.3v-.5m.3.3h-.6"/><path class="st4" d="M639.7 71.5v-.6m.3.3h-.6"/><path class="st12" d="M652.1 93.1v8.7m0-15.6v34.3m-24.8-27v27m19.3-1.9h-13.8"/><path class="st5" d="M646.6 117.7v1.8l5.5-.9m-19.3-.9v1.8l-5.5-.9"/><path class="st12" d="M627.3 93.5v21.6"/><text transform="translate(627.307 116.283)" class="st7 st8 st9">9±0.3</text><path class="st10" d="M628.4 83.1V80m0-1.7v-3.4m0-1.8v-3.4m0-1.8v-3.4m0-1.7v-3.1m0 23.4h-.8m.8-23.4h-.8"/><text transform="translate(42.259 224.5)"><tspan x="0" y="0" class="st8 st9">Length Tolerances</tspan><tspan x="0" y="19.2" class="st8 st9">&lt;150 mm: </tspan><tspan x="38" y="19.2" class="st7 st8 st9">± 10</tspan><tspan x="53.5" y="19.2" class="st8 st9"> </tspan><tspan x="0" y="28.8" class="st7 st8 st9">≥</tspan><tspan x="4.4" y="28.8" class="st8 st9">150 mm &lt;250 mm: </tspan><tspan x="73.5" y="28.8" class="st7 st8 st9">± 15</tspan><tspan x="0" y="38.4" class="st7 st8 st9">≥</tspan><tspan x="4.4" y="38.4" class="st8 st9">250 mm &lt;500 mm: </tspan><tspan x="73.5" y="38.4" class="st7 st8 st9">± 20</tspan><tspan x="0" y="48" class="st7 st8 st9">≥</tspan><tspan x="4.4" y="48" class="st8 st9">500 mm &lt;100 mm: </tspan><tspan x="73.5" y="48" class="st7 st8 st9">± 30</tspan><tspan x="0" y="57.6" class="st7 st8 st9">≥</tspan><tspan x="4.4" y="57.6" class="st8 st9">1000 mm &lt;5000 mm: </tspan><tspan x="82.4" y="57.6" class="st7 st8 st9">± 50</tspan><tspan x="0" y="67.2" class="st7 st8 st9">≥</tspan><tspan x="4.4" y="67.2" class="st8 st9">5000 mm: </tspan><tspan x="42.2" y="67.2" class="st7 st8 st9">± 100</tspan></text><text transform="matrix(1.2603 0 0 1 202.644 69.572)" class="st7 st8 st9">20000XXXXX</text><text transform="matrix(1.2603 0 0 1 206.6 77.812)" class="st7 st8 st9">xx.xM XYZ</text></svg>