<svg style="background-color:#fff" version="1.1" id="Ebene_1" xmlns="http://www.w3.org/2000/svg" x="0" y="0" viewBox="0 0 236 147.5" xml:space="preserve"><style>.st0,.st1{fill:none;stroke:#000;stroke-linecap:round;stroke-linejoin:round;stroke-miterlimit:10}.st1{stroke-width:2}.st2{font-family:Helvetica,Arial,sans-serif}.st3{font-size:9.0031px}</style><path class="st0" d="M35.5 5v110.8M28.7 5H36m-7.3 21.8H36m-7.3 21.7H36m-7.3 21.8H36M28.7 92H36m-7.3 21.8H36m-1.3 2.5H234m0 6.8v-7.3m-32.8 7.3v-7.3m-32.7 7.3v-7.3m-32.6 7.3v-7.3m-32.7 7.3v-7.3m-32.7 7.3v-7.3m-32.8 7.3v-7.3"/><path class="st1" d="M37.7 5l19.8 1.8L77 8.3l19.7 3.2 19.5 2.5 19.7 2.3 19.5 3.2 19.8 3.8 19.5 4.7 19.8 5.2L234 45"/><path class="st0" d="M217.7 113.8v-3m0-3v-3m0-3v-3m0-3v-3m0-3v-3m0-3v-3m0-3v-3m0-3v-3m0-3v-3m0-3v-3m0-3v-3m0-3v-3m0-3v-3m0-3v-3m0-3v-3m0-3v-3m0-3v-3m0-3v-3m0-3V5M39.2 86.8h112.7v25.3H39.2V86.8z"/><path class="st1" d="M43 94.3h16.5"/><text transform="translate(60.706 95.75)" class="st2 st3">ƒ/1.8</text><path class="st0" d="M43 104.8h3m3 0h3m3 0h3"/><text transform="translate(60.706 107.75)" class="st2 st3">Nominal image circle</text><text transform="translate(10.487 7.726)" class="st2 st3">100</text><text transform="translate(15.466 29.505)" class="st2 st3">8</text><text transform="translate(20.466 29.505)" class="st2 st3">0</text><text transform="translate(15.466 51.283)" class="st2 st3">6</text><text transform="translate(20.466 51.283)" class="st2 st3">0</text><text transform="translate(15.466 73.008)" class="st2 st3">4</text><text transform="translate(20.466 73.008)" class="st2 st3">0</text><text transform="translate(15.466 94.786)" class="st2 st3">2</text><text transform="translate(20.466 94.786)" class="st2 st3">0</text><text transform="translate(20.508 116.51)" class="st2 st3">0</text><text transform="translate(230.986 134.03)" class="st2 st3">6</text><text transform="translate(35.506 134.03)" class="st2 st3">0</text><text transform="translate(198.467 134.03)" class="st2 st3">5</text><text transform="translate(67.94 134.03)" class="st2 st3">1</text><text transform="translate(100.889 134.03)" class="st2 st3">2</text><text transform="translate(133.356 134.03)" class="st2 st3">3</text><text transform="translate(165.4 134.03)" class="st2 st3">4</text><path d="M164.4 125.7H162h2.4z" fill="none"/><text transform="translate(83.766 144.88)" class="st2 st3">Image Height [mm]</text><text transform="rotate(-90 61.293 52.507)" class="st2 st3">Relative Illumination [%]</text></svg>