<svg style="background-color:#fff" version="1.1" id="Ebene_1" xmlns="http://www.w3.org/2000/svg" x="0" y="0" viewBox="0 0 751.2 300.5" xml:space="preserve"><style>.st0,.st1,.st8{stroke-miterlimit:10}.st0{fill:none;stroke:#000;stroke-linecap:round;stroke-linejoin:round;stroke-width:.4252}.st1,.st8{stroke-width:.2835}.st1{fill:none;stroke:#000}.st8{stroke-linecap:round;stroke-linejoin:round}.st10,.st8,.st9{fill:none;stroke:#000}.st9{stroke-linecap:round;stroke-linejoin:round;stroke-width:.2835}.st10{stroke-width:.9921;stroke-miterlimit:10}.st11{font-family:Helvetica,Arial,sans-serif}.st12{font-size:16px}.st13{font-size:12px}.st14{font-size:11.9906px}</style><g id="Lens"><path class="st0" d="M357.5 138.8l2.7-2.7m-12.3 2.7l11.6-11.6m-21.1 11.6l19.8-19.8m-29.3 19.8l27.4-27.4m-37 27.4l34.4-34.4m-44 34.4l50.7-50.6m-60.3 50.6l51.1-51m-60.5 51l54-54m-63.6 54l52.1-52.1m.2-.1l1.7-1.8m-63.6 54l57.7-57.5m-67.1 57.5l67.1-67m-76.7 67l76.7-76.6m-86.3 76.6l82.8-82.7m-92.2 82.7l80.4-80.5m-90 80.5l82.5-82.4m-92.1 82.4l82.5-82.4m-92.1 82.4L286.5 57m-43.2-4.4L256 39.9m-15.4 5.8L256 30.3M137.9 138.8l83-82.8M239 37.7l13.4-13.3m-124 114.4L211.3 56M239 28.3l3.8-3.9m-124 114.4L201.7 56m-92.4 82.8l84.9-84.7m-94.4 84.7l84.9-85m-94.5 85l85.1-85m-94.7 85l85.1-85m-89.2 79.8l79.6-79.8m-78.8 69.4l69.2-69.4m-67.2 57.8L131 59.9m.5-.6l1.4-1.3M82.8 98.5l40.9-40.8m-34 24.4l28.9-29M94.9 67.3l18.7-18.6M93.7 59.1l14.7-14.9m-14.7 5.3l9.8-9.7m-16.7 7l10-10m-14.9 5.4l4.5-4.6m-14 4.5l5.3-5.3m117.6 102l27.1-27.2m8.5-8.4l46.8-46.8m-92 82.4l27.2-27.2m18-18l37.3-37.2m-92.1 82.4l27.3-27.2m21.3-21.2l34-34m-92.1 82.4l27.2-27.2m21.3-21.2l36.7-36.7M157 138.8l33.5-33.4m15-15L239.9 56m-92.4 82.8l43-43m5.4-5.4L230.4 56M77.7 240.9l-5.3-5.3m14 4.5l-4.5-4.6m14.9 5.4l-10-10m16.7 7l-9.8-9.7m14.7 5.3l-14.7-14.9m19.9 10.4l-18.7-18.6m23.7 14.2l-28.9-29.1m34 24.6l-40.9-40.9m50.1 40.5l-1.4-1.3m-.5-.6l-51.7-51.7m67.2 57.8l-69.2-69.3m78.8 69.3l-79.6-79.8m89.2 79.8l-85.1-85.1m94.7 85.1l-85.1-85.1m94.5 85.1l-84.9-85.1m94.4 85l-84.9-85m92.4 82.9l-82.9-82.9m92.7 83.1l-83.1-83.1m92.5 82.9l-83-82.9m168.5 82.5l-82.5-82.5m89.9 80.5l-80.3-80.5m92.2 82.8l-82.8-82.8m86.3 76.7l-76.7-76.7m73.4 64l-63.8-64m67.1 57.6l-57.7-57.6m63.6 54l-1.7-1.7m-.2-.1l-52.1-52.2m63.6 54l-54-54m60.5 51.1l-51.1-51.1m60.3 50.7l-2.3-2.3m-7.6-7.6l-2.8-2.8m-.3-.4l-37.7-37.6m40.3 30.7l-30.7-30.7m32.8 23.4l-23.2-23.4m25 15.4l-15.5-15.4m16.4 6.9l-6.9-6.9m-117.5 82.9l-42-41.9m-3.8-3.8l-37.1-37.2m92.4 82.9L198 179.8m-13.4-13.4L157 138.8m92.5 82.9l-42-41.9m-21.3-21.2l-19.6-19.8m92.1 82.5l-41.6-41.5m-21.3-21.2l-19.7-19.8m92.1 82.5l-41.6-41.5m-21.2-21.2l-19.7-19.8m92 82.5l-41.5-41.5m-21.4-21.2l-19.5-19.8m91.2 81.9l-48.9-48.9m-13.2-13.2l-19.7-19.8m92.1 82.5l-59.2-59.1m-3.6-3.6l-19.7-19.8M256 56.4v2h-.3v-1.6l-.8-.8h-3.1V45.7h3l1.2-1.4V25.7l-1.2-1.3h-14.5l-1.3 1.3v18.6l1.3 1.4h3V56h-46.8v3.3h-.4v-.8h-.6l.6-.7V56l-2.1-2.2h-50.9l-11.6 4.7v1.4h-5.4l-26-23.1h-12v.8h-6.4v-.8H70.6l-2.9 3v1l1.3 1.3h9.3v-1.9h2.2v2h6.3v5.5l1.3 1.2h5.6v5.6l1.1 1.2-1.1 1.1v3.3h2.2l-.1.3.8 4.1h-2.9v1.4l3.3 3.3m0 .1C83.5 90 76.3 114.2 76.3 138.9m284.1 0c0-13-2.7-25.9-7.9-37.8m0-.1l3.3-1.2v-4.6h1.6l1.7-1.6v-1.7l-.9-.8v-.4h2.2l.5-.6v-1.5l-.9-.8h-13.8v-1.7l-1.4-1.3h-11.4v1.9h-4.2V59.5l-3.4-3.4h-9.5l-2 2.2h-.9v-1.9h-24.6l-.7.6h-6.9l-.6-.6H256M86.8 87.8V47.7M88.1 85V48.9m-7.6 57.3v-64m-2.2 73.4V42.1m-10.6 96.7v-98m75.4 13h.2m50.6 0h.1m-50.7 0h50.6m2.2 4.7v-.7m59.9-1.4V56"/><path class="st0" d="M360.4 138.8h.5V90.1m-47.5-33.7V56m-22-2.1l-.8.8-.8.7-.6.6-.4.4M93.7 64.5v-4.4m2.9 4.4l-.2-.3v-.3l-.1-.5-.1-.7-.2-.7-.1-.6v-.6l-.1-.4m262.4 34.2l-.8.8v-.2m1.7 28.1V93.6m-78.5-37.2l-.4-.4-.6-.6-.6-.7-1-.8M93.7 74.5v-8.6m0-9.1v-2.3m164.5-.6H278M256 56l.9-.9 1.3-1.2m33.2 0h19.8m0 0l1.2 1.2 1 .9m44 39.4h-1.6m-11 97.4l1.4-1.2v-1.7H360l.9-.8v-1.5l-.5-.4h-7.5v-.6l1-.8v-1.7l-1.8-1.6h-1.3l-.3-.6v-4l-3.2-1.3m-.1.1c5.2-11.9 7.9-24.8 7.9-37.8m-278.8 0c0 24.7 7.2 48.9 20.7 69.6m0 0l-3.3 3.2v1.5h2.1l-.9 2.1 2.1 2.3h-3.3v3.3l1.1 1.1-1.1 1.2v5.6h-5.6l-1.3 1.2v5.5h-6.3v2h-2.2v-1.9H69l-1.3 1.3v1l2.9 3h11.1v-.8h6.4v.8h12l26-23.1h5.4v1.4l11.6 4.7H194l2.1-2.2v-1.9l-.6-.6h.6v-.8h.4v3.3h13.9v.2h6.3v-.2h17v.2h1.1v-.2h1.6m0 0v.2m0 0h1.5v-.2h3.3m0 0v.2m0 0h1v-.2h12.7l.8-.8v-1.6h.3v2h24.6l.6-.6h6.9l.7.6h24.6v-2h.9v.1l2 2.2h9.5l3.4-3.4V209l-.7-.6v-1.9l-2.2-2.2m-.4-1c0 .4.2.8.5 1.1m-.5-1.2v-.4m.5-1.1c-.3.3-.5.7-.5 1.1"/><path class="st0" d="M326.3 201.8l2.2-2.2v-1.9l.7-.5V191h4.2v1.8h11.4m-148.7 27v-.6M67.7 236.9v-98.1m10.6 96.8v-73.5m2.2 73.4v-64m160.7 50.4h-1.4m-1.9 0h1.9m-153 8.1v-40.1m1.3 38.9v-36.1m5.6 30.5v-2.3m2.1-7.7l-.2.3-.1.4-.3.7-.3.7m-1.2 2.3v-4.4m0-1.5v-8.5m257.1-20.7v-.2l-.3-.4m1.6.6v-.2h-1.3m3.1 1.8v-29.7m-1 28.7l-.8-.8m8.8 5.3v-48.8M278 223.6l.8-.8.8-.7.6-.4.4-.4m-24.6.4v-.4m32.9 0l.3.4.6.4.8.7.8.8m19.8 0h-19.8m19.8 0l1.2-1.1 1-.8m0 0v-.4m-57.4.4l.9.8 1.3 1.1m19.8 0h-19.8m71-14.6v-11.8m-.7 2.4v6.9m-88.7 15.2v.2m120.6-83.1h.5m270.9-.3c0-1.2-.9-2.1-2.1-2.1-1.2 0-2.1.9-2.1 2.1 0 1.2.9 2.1 2.1 2.1 1.2 0 2.1-1 2.1-2.1m33.1 24.6L661 177m2.9-15.1l-.1.7m0 0l.3.5-.2.1-.2-.2m0 0l-.3 1m0 0l.3.6-.2.3-.4-.3m0 0l-.4 1.6m0 0l.3.4v.4l-.4-.1m0 0l-.6 1.7m0 0l.4.3-.1.4-.5.1m0 0l-.4 1.8m0 0l.2.1v.4l-.5.2m0 0l-.6 1.7m0 0h.6l-.1.4-.6.3m0 0l-.4 1.4m0 0l.5-.2-.1.3-.5.4m0 0l-.3.9m0 0l.5-.2-.1.1-.5.4m0 0l-.2.5m8.3-46.4V146m-1.4-14.6v-.8m0 .8l.6.4v.2l-.6-.2m0 1.3v-1.3m0 1.3l.6.4v.3l-.6-.1m0 1.6v-1.6m0 1.6l.6.4v.4h-.6m0 1.8v-1.8m0 1.8l.6.2v.4l-.6.2m0 0v1.9m0 0h.6v.5l-.6.3m0 0v1.6m0 0h.6v.3l-.6.4m0 0v1.3m0 0l.6-.1v.2l-.6.4m0 0v1"/><path class="st0" d="M553.1 220.7c45.3 0 82-36.7 82-82s-36.7-82-82-82"/><path class="st0" d="M553.2 208.3c38.4 0 69.6-31.1 69.6-69.6s-31.1-69.6-69.6-69.6"/><path class="st0" d="M553.1 211.6c40.2 0 72.8-32.6 72.8-72.8S593.3 66 553.1 66"/><path class="st0" d="M553.1 223c46.6 0 84.3-37.7 84.3-84.3s-37.7-84.3-84.3-84.3"/><path class="st0" d="M553.1 229.9c50.4 0 91.2-40.8 91.2-91.2s-40.8-91.2-91.2-91.2"/><path class="st0" d="M553.1 235.5c53.4 0 96.7-43.3 96.7-96.7s-43.3-96.7-96.7-96.7"/><path class="st0" d="M553.1 235.5c53.4 0 96.7-43.3 96.7-96.7s-43.3-96.7-96.7-96.7"/><path class="st0" d="M553.1 237.8c54.7 0 99-44.3 99-99s-44.3-99-99-99"/><path class="st0" d="M553.1 240.7c56.3 0 102-45.7 102-102s-45.6-102-102-102m101.8 93.9h11.3m-11.3.8h11.3m-11.3.4h11.3m-11.2 1.3h11.2m-11.2.6h11.2m-11.1 1.6h11.1m0 .8h-11.1 11.7m-11.7 1.8h11.1m-11.1.8h11.1m.6 1.9h-11.7 11.1m-11.1.8h11.1M655 143h11.2m-11.2.7h11.2M655 145h11.2m-11.3.5h11.3m-11.3 1h11.3m-11.5.7h11.5m-11.5 0h11.5M653 159.5l10.8 3.1m-11.1-1.5l10.7 2.9m-10.8-2.4l10.5 3m-10.9-1.5l10.5 3.1m-10.6-2.4l10.5 3.1m-11.1-1.2l10.5 2.9m-10.6-2.3l10.4 3.1m-11.2-.5l10.5 3m-11.1-1.4l10.5 3.1m-10.6-2.4l10.5 3.1m-11.1-1.8l10.7 3.2m-10.8-2.6l10.7 3.1m-11.1-2.2l10.8 3.1"/><path class="st0" d="M648.5 174.8l10.8 3.1 1.7-.9m3.9-13.9l-.8-1.5m3.5-15.6l-1.4 1.2m1.4-15.7l-1.4-1.3h-11.5m0 17h11.5m-12.9 11.3l10.8 3.1m-15.6 13.2l10.8 3.1M553.2 69.1c-38.4 0-69.6 31.1-69.6 69.6 0 38.4 31.1 69.6 69.6 69.6"/><path class="st0" d="M553.2 65.9c-40.2 0-72.8 32.6-72.8 72.8s32.6 72.8 72.8 72.8"/><path class="st0" d="M553.2 56.7c-45.3 0-82 36.7-82 82s36.7 82 82 82"/><path class="st0" d="M478.7 138.9c0-1.2-.9-2.1-2.1-2.1s-2.1.9-2.1 2.1c0 1.2.9 2.1 2.1 2.1s2.1-1 2.1-2.1"/><path class="st0" d="M553.2 54.4c-46.6 0-84.3 37.7-84.3 84.3s37.7 84.3 84.3 84.3"/><path class="st0" d="M553.2 47.5c-50.4 0-91.2 40.8-91.2 91.2s40.8 91.2 91.2 91.2"/><path class="st0" d="M553.2 42c-53.4 0-96.7 43.3-96.7 96.7s43.3 96.7 96.7 96.7"/><path class="st0" d="M553.2 42c-53.4 0-96.7 43.3-96.7 96.7s43.3 96.7 96.7 96.7"/><path class="st0" d="M553.2 39.7c-54.7 0-99 44.3-99 99s44.3 99 99 99"/><path class="st0" d="M553.2 36.7c-56.3 0-102 45.7-102 102s45.6 102 102 102m106.4-59.1l1.2-3.2m.6-1.5v-.3m.6-1.6l.7-1.9 1.2-4.5m.4-1.6v-.3m.6-1.6l.1-.8 1.1-5.8m.4-1.6v-.3m.3-1.6l.6-6.8m.3-1.6v-.2m0-1.7l.1-6.7m0-1.6v-.3m-.1-1.8l-.3-5.8-.1-.8m-.1-1.6v-.3m-.3-1.7l-.5-4.6-.6-2m-.3-1.7v-.2m-.4-1.6l-.6-3.3m-13.7 57.4l10.5 3.1"/></g><g id="Mittellinien"><path class="st1" d="M434.7 138.8h7.1"/><path d="M444.6 138.8h1.9" fill="none" stroke="#000" stroke-width=".283" stroke-miterlimit="10" stroke-dasharray=".5485,2.7426"/><path d="M447.9 138.8h215.8" fill="none" stroke="#000" stroke-width=".283" stroke-miterlimit="10" stroke-dasharray="13.713,2.7426,.5485,2.7426"/><path class="st1" d="M665.1 138.8h7.1m-626.9 0h7.1"/><path d="M55.3 138.8h2" fill="none" stroke="#000" stroke-width=".283" stroke-miterlimit="10" stroke-dasharray=".5843,2.9213"/><path d="M58.8 138.8h293" fill="none" stroke="#000" stroke-width=".283" stroke-miterlimit="10" stroke-dasharray="14.6067,2.9213,.5843,2.9213"/><path class="st1" d="M353.3 138.8h7.1M553.5 31.6v7.1"/><path d="M553.5 41.4v1.8" fill="none" stroke="#000" stroke-width=".283" stroke-miterlimit="10" stroke-dasharray=".54,2.7"/><path d="M553.5 44.6v193" fill="none" stroke="#000" stroke-width=".283" stroke-miterlimit="10" stroke-dasharray="13.4998,2.7,.54,2.7"/><path class="st1" d="M553.5 239v7.1"/></g><g id="Bemassung"><path class="st1" d="M18.6 44.6v188.7"/><path d="M16.1 46.3l2.5-9.3 2.4 9.3h-4.9zm0 185.3l2.5 9.2 2.4-9.2h-4.9z"/><path class="st1" d="M44.1 49.7V228"/><path d="M41.7 51.4l2.4-9.2 2.5 9.2h-4.9zm0 174.9l2.4 9.3 2.5-9.3h-4.9z"/><path class="st8" d="M69 235.6H40.1M69 42.1H40.1m30-5.1H14.2m56.4 203.8H14.2"/><path class="st9" d="M396.9 93.4v91.2"/><path d="M394.5 95.1l2.4-9.3 2.5 9.3h-4.9zm0 87.9l2.4 9.2 2.5-9.2h-4.9z"/><path class="st8" d="M332.1 85.1h69m-69.2 108h69.2"/><path class="st9" d="M321.6 260.2H76"/><path d="M319.9 257.7l9.2 2.5-9.2 2.4v-4.9zm-242.3 0l-9.2 2.5 9.2 2.4v-4.9z"/><path class="st9" d="M368.1 260.2h21"/><path d="M369.8 262.6l-9.2-2.4 9.2-2.5v4.9z"/><path class="st8" d="M361.1 189.7v74.7"/><path class="st9" d="M394.4 284.5h-57.8"/><path d="M392.7 282l9.3 2.5-9.3 2.4V282zm-54.4 0l-9.2 2.5 9.2 2.4V282z"/><path class="st8" d="M329.1 217.4v71.3"/><path class="st9" d="M395.6 18.5h-26.4"/><path d="M393.9 16.1l9.2 2.4-9.2 2.5v-4.9zm-23 0l-9.2 2.4 9.2 2.5v-4.9z"/><path class="st8" d="M402.7 288.7V14.2M360 18.5h-29.8m-.9 40.8V14.2m31.5 74.4V14.2"/><path class="st9" d="M321 18.3H76"/><path d="M319.4 15.8l9.2 2.4-9.2 2.5v-4.9zm-241.8 0l-9.2 2.4 9.2 2.5v-4.9z"/><path class="st8" d="M67.7 59.3V15.2m278.1 71.1V33.8"/><path class="st9" d="M406.2 126.7l26.9-97.5h5.3"/><path d="M409 125.7l-4.8 8.2.1-9.5 4.7 1.3z"/><path class="st8" d="M67.7 218.7v45.7m292.9-4.2h-33.2"/><path class="st9" d="M354.1 38.1H391"/><path d="M355.7 40.6l-9.2-2.5 9.2-2.5v5z"/><path class="st9" d="M321.9 38.1H285"/><path d="M320.2 35.6l9.3 2.5-9.3 2.5v-5z"/><path class="st8" d="M346.5 38.1h-17.2"/><path class="st10" d="M399.2 135.3l7 7m-7 0l7-7"/><path class="st1" d="M677 177.8l19.5 3.6h38.8"/><path d="M678.6 181.4l-11.5-5.5 12.7-1-1.2 6.5z"/><path class="st10" d="M399.2 135.3l7 7m-7 0l7-7"/></g><g id="Text"><text transform="matrix(1 0 -.00479 1 194.876 174.155)" class="st11 st12">Mod</text><text transform="rotate(-90 83.303 68.623)" class="st11 st13">Ø 48</text><text transform="rotate(-90 275.32 -99.818)" class="st11 st13">1-32 UN-2A</text><text transform="rotate(-90 280.17 -109.368)" class="st11 st13">(C-mount)</text><text transform="rotate(-90 107.99 67.181)" class="st11 st13">M46.0 x 0.75</text><text transform="translate(186.823 14.68)" class="st11 st13">61.5</text><text transform="translate(336.447 14.844)" class="st11 st13">7.5</text><text transform="translate(442.66 31.693)" class="st11 st13">Sensor position</text><text transform="translate(333.986 34.395)" class="st11 st13">4</text><text transform="translate(336.069 256.395)" class="st11 st13">7.5</text><text transform="translate(370.37 14.844)" class="st11 st13">10.1</text><text transform="translate(164.387 256.428)" class="st11 st13">61.5</text><text transform="translate(347.253 281.643)" class="st11 st13">17.526</text><text transform="translate(348.653 295.143)" class="st11 st13">(in air)</text><text transform="translate(201.374 105.314)" class="st11 st12">Inf.</text><text transform="translate(707.075 176.519)" class="st11 st13">R27</text></g><text transform="translate(644.979 278.97)" class="st11 st14">Not to scale</text><text transform="translate(644.75 294.37)" class="st11 st14">Dimensions in mm</text></svg>