<svg style="background-color:#fff" version="1.1" id="Ebene_1" xmlns="http://www.w3.org/2000/svg" x="0" y="0" viewBox="0 0 572.6 260.8" xml:space="preserve"><style>.st0,.st1{fill:none;stroke:#000}.st0{stroke-linecap:round;stroke-linejoin:round;stroke-miterlimit:10;stroke-width:.4252}.st1{stroke-width:.2835}.st1,.st8{stroke-miterlimit:10}.st8,.st9{fill:none;stroke:#000;stroke-width:.2835;stroke-linecap:round;stroke-linejoin:round}.st11{fill:#020203}.st12{font-family:Helvetica,Arial,sans-serif}.st13{font-size:15.75px}.st14{font-size:10.5px}.st15{font-size:10.4882px}</style><path class="st0" d="M280.6 121.7l.8-.8m-10.2.8l9.8-10m-19.4 10l18.5-18.5M252 121.7l26.6-26.6m-36 26.6l35.9-35.9m1.3-1.4l.7-.6m1.3-1.4l3.8-3.8M233 121.7l41.4-41.4m.7-.7l6.7-6.8m-58.4 48.9l52.2-52.1m-61.8 52.1l54-54m-63.4 54l54.5-54.5m-64.1 54.5l62.3-62.4m-71.9 62.4L248 59.1m-72.3 62.6l62.7-62.6m-72.3 62.6l64.8-64.8m-74.3 64.8l64.9-64.8M147 121.7l64.9-64.8m-74.4 64.8l64.8-64.8M126.5 66l6.8-6.9M86 96.9l37.9-38m-35 25.4l26.1-26M94.7 69.1l14.7-14.9m-18 8.6l12.5-12.5m-17.1 7.6l11.6-11.7m-13.8 4.2L92 43m-13.7 4.3l4.1-4.3m-9.5.3l.1-.3m54.9 78.7l25.2-25.1m1.6-1.6l36-36.1m-72.3 62.8l25.1-25.1m11.2-11.2l26.4-26.5m-72.2 62.8l25-25.1m20.8-20.7l16.8-17m-72.2 62.8l25.1-25.1m21.2-21.2L162 58.9m-72.3 62.8l25.1-25.1M136 75.4l16.5-16.5m-69 59.4l30.8-30.7m12.3-12.2l16.3-16.5m-58.7 49.3l30.1-30.1m2.7-2.7l8.8-8.8M73 200.4l-4.3-4.3m13.7 4.3l-4.5-4.6m12.6 3.1l-10.1-10.1m15.7 6.1l-12.6-12.6m18.1 8.5l-12.9-12.9m18.5 9l-21.6-21.7m28.7 19.3l-32.8-33m38.7 29.3l-41-41m54.1 44.7l-6.8-7m85.4 9L147 121.7m74.5 64.8l-64.9-64.8m74.3 64.8l-64.8-64.8m72.3 62.8l-62.7-62.8m72.3 62.8l-62.8-62.8m71.9 62.4l-62.3-62.4m64.1 54.5l-54.5-54.5m63.4 54l-54-54m61.8 52.1l-52.2-52.1m58.4 48.9l-6.7-6.8m-.7-.6L233 121.7m52.6 43.2l-3.8-3.9m-1.3-1.4l-.7-.6m-.7-.7l-36.5-36.6m36 26.6L252 121.7m28.1 18.5l-18.5-18.5m19.4 10l-9.8-10m10.2.8l-.8-.8m-155.9 54l-10.9-10.9m-5.4-5.4l-30.3-30.1m64.8 55.2l-19.5-19.7m-15-15l-28.2-28.1m72.3 62.8l-19.7-19.7m-21.2-21.2l-21.9-21.9m72.3 62.8l-19.6-19.7m-21.2-21.2l-21.9-21.9m72.2 62.8L152 164.8m-21.4-21.2l-21.7-21.9m72.2 62.8l-19.7-19.7m-21.2-21.2l-21.8-21.9m72.3 62.8l-29.3-29.3m-11.6-11.6l-21.9-21.9m74.4 64.8l-40.9-40.8m-2-2.1l-21.9-21.9m-10.6-62.6l-.4.4v7.8h2.1l-.1.4h-2.7v-8.2l-.4-.6h-9.3L94.1 43H72.9v4.3h8.3v-1.1h2.2v2.2h.9v2h.8v2.2h.9v2.1h.8V58h1.3v3.1h1.4l5.6 5.4h.7m.1 0c-8.1 17.3-12.4 36.1-12.4 55.2m-.1 0h198m0 .1c0-10.1-1.2-20.1-3.5-30m0-.1h.8l1.8-1.7v-1.4h-2l-.2-4.2h2.2v-2l-2.2-2.1h-11l-.8-.7h15.3v12.1h.9l2.9-2.9V75l-2.1-2.2h-7.6v-2.9l-2.2-2.2h-12.8v1.1h-2v-7.7l-2.2-2h-20.8l-.8.8v-2.2l-.9-.8H199l-1.1 1.1v2l-1.1-1.1h-27.7l-.9 1.1-1.1-1.1h-24.3l-1.1 1.1-1.1-.9h-13.7m153.6 46.5V90M72.9 121.7h5m203.5 0h4.2m-196.1-39V61.1M88.1 87V61.1m-1.3 31.2V58M86 96.2V54.7m-.9 46.1V52.6m-.8 54.4V50.4m-.9 71.3V48.4m-2.2 73.3V47.3m-8.3 74.4V47.3m53.6 20v.4m154 20.9v-4.2m1.3 37.3v-30m3.8 30V88.8M199 186.5h35.2l.9-.8v-2.2l.8 1h20.8l2.2-2.2v-7.7h2v1.1h12.8l2.2-2.2v-2.9h7.6l2.1-2.2v-13.8l-2.9-2.9h-.9v12.1h-14.7l.6-.6h10.6l2.2-2.2v-2h-1.4v-4.2h1.4v-1.4l-1.8-1.7h-.8m0 .1c2.4-9.8 3.6-19.9 3.6-30m-.1-.1H77.9m.1.1c0 19.1 4.2 37.9 12.4 55.2"/><path class="st0" d="M90.3 176.9h-.7l-5.7 5.4h-1.3v3.1h-1.4v3.3h-.8v2.1h-.8v2.2h-.8v2h-.9v2.2h-2.1v-1.1h-8.5v4.3h21.2l22-15.9h9.3l.4-.6v-8.2h4.5v-3.2h3.2l.9 3.6h-2.3v7.8l.4.6h13.7l1.1-1.1 1.1 1.1h24.3l1.1-1.1.9 1.1h27.7l1.1-1.1v2.2l1.1.9m-117.8-1.1v-34.3m1.4 31.2v-25.9m1.3 25.9v-21.6m201.7-39h-4.2m-214.1 0h8.5m204.7 31.7v-15.6m0 21.2v-4.2m1.3-3.1v-30m3.8 32.9v-32.9M75.8 196.1v-74.4m-8.5 74.4v-74.4m13.1 67v-41.5m-.8 43.6v-48.2m-.8 50.4v-56.6m-.9 58.6v-73.3m48.6 54.4v-3.6m295.4-127l11.9-8.2m-12.2 9.3v.7m0 0l.1-.1m0 0l.2-.7h.1v.5m0 0l.7-.5m0 0l.1-.6.2-.2.1.5m0 0l1.1-.8m0 0v-.5l.4-.2.1.4m0 0l1.4-.9m0 0v-.6l.2-.2.4.2m0 0l1.5-.9m0 0l-.1-.5.4-.3.4.3m0 0l1.5-1.1m0 0l-.3-.3.4-.3.6.2m0 0l1.3-1m0 0l-.4-.2.3-.2h.6m0 0l1.1-.6m0 0l-.5-.3.3-.1.5.1m0 0l.8-.6m0 0l-.5-.1h.6m0 0l.3-.1m0 0l-.5-.2m-3 24.9l-10.4-15M432.4 62L422 47m11.1 14.5l-10.4-15m10.7 14.6l-10.3-14.9m11.3 14.1l-10.2-14.9M435 59.9l-10.3-14.8m11.6 13.8l-10.2-14.7m10.8 14.2l-10.2-14.8m11.6 13.7l-10.1-14.6M439 56.9l-10.1-14.7m11.6 13.6l-10.1-14.7m10.8 14.3l-10.1-14.7m11.6 13.9l-10.3-14.9m10.8 14.5l-10.3-14.9m11.4 14.2L434 38.7m10.7 14.7l-10.4-15m11.2 14.4l-10.4-15m10.8 14.9l-10.4-15.1m-1.7-.3l1.2.1m-13.1 8.1l-.3 1.1m61.9 1.8c-40.5 0-73.4 32.8-73.4 73.4 0 40.5 32.8 73.4 73.4 73.4"/><path class="st0" d="M483.5 50.5c-39.3 0-71.2 31.9-71.2 71.2s31.9 71.2 71.2 71.2"/><path class="st0" d="M483.5 52.7c-38.1 0-69.1 30.9-69.1 69s30.9 69.1 69 69.1"/><path class="st0" d="M483.5 54.7c-37 0-67 30-67 67s30 67 67 67"/><path class="st0" d="M483.5 58c-35.2 0-63.8 28.6-63.8 63.8s28.5 63.8 63.8 63.8"/><path class="st0" d="M483.5 66.5c-30.5 0-55.3 24.7-55.3 55.3 0 30.5 24.7 55.3 55.3 55.3m0-114.8c-.9 0-1.7 0-2.6.1m.1-1.2v1.2m0 118.7v1.2m-.1-1.1c.9 0 1.7.1 2.6.1"/><path class="st0" d="M481 61.3c-32.4 1.4-58 28-58 60.5 0 32.4 25.6 59.1 58 60.5M481 58v3.2m0 121.1v3.1"/><path class="st0" d="M483.5 43.1c-43.4 0-78.6 35.2-78.6 78.6s35.2 78.6 78.6 78.6"/><path class="st0" d="M483.5 47.3c-41.1 0-74.5 33.3-74.5 74.4s33.3 74.5 74.4 74.5m-1.6-153.1l1.5-18.2m.3-.3l-.3.3m.3 13.5l-.4 4.7.4-4.4m-.8 4.4l.8-10.4m-2.3 10.4l1.5-18.2m.5-.4l-.5.4m.5 0h.3m0-.7l-.3.3m.3 0v-.3m0 .7v-.4m0 .1v-.1m.5-.8l14.5 1.2m-15 0h.5m0 0l.6-.3h.2l-.2.4m0 0l1.3.2m0 0l.4-.4h.3l-.2.4m0 0l1.8.1m0 0l.3-.4h.4v.4m0 0l1.9.1m0 0l.2-.4.4.2.2.4m0 0l1.7.1m0 0l.2-.4h.4l.2.4m0 0l1.7.1m0 0v-.4h.2l.4.6m0 0l1.4.1m0 0l-.3-.5h.3l.4.5m0 0h.9m0 0l-.4-.4h.2l.4.5m0 0h.4m0 0l-.4-.5m-15.8 7l.5-7.8m-.5 13.5l1.1-13.8m-.2 18.5l1.5-17.9m-2.5 171c41.1 0 74.5-33.3 74.5-74.4s-33.3-74.5-74.4-74.5"/><path class="st0" d="M483.5 200.4c43.4 0 78.6-35.2 78.6-78.6s-35.2-78.6-78.6-78.6m1.7-.1l1.3-17.9m.3 17.9l1.5-17.8m-.7 17.8l1.4-17.8m.4 17.9l1.5-17.8m-.7 18l1.5-17.8m.4 17.9l1.3-17.8m-.5 17.9l1.3-17.9m.3 18.1l1.4-18m-.7 18.1l1.3-17.9m-.1 18.2l1.5-18.1m-1 18.1l1.4-18.1m-.6 18.2l1.5-18.2m-.9 18.4l1.5-18.3"/><path class="st0" d="M486 182.2c32.4-1.4 58-28 58-60.5 0-32.4-25.6-59.1-58-60.5m.1 124.2v-3.1m0-119.9V58m0 124.3v-1.2m0-118.8c-.9 0-1.7-.1-2.6-.1"/><path class="st0" d="M483.5 177c30.5 0 55.3-24.7 55.3-55.3 0-30.5-24.7-55.3-55.3-55.3m0 114.8c.9 0 1.7 0 2.6-.1"/><path class="st0" d="M483.5 185.5c35.2 0 63.8-28.6 63.8-63.8s-28.5-63.8-63.8-63.8"/><path class="st0" d="M483.5 188.8c37 0 67-30 67-67s-30-67-67-67"/><path class="st0" d="M483.5 190.8c38.1 0 69.1-30.9 69.1-69s-30.9-69.1-69-69.1"/><path class="st0" d="M483.5 193c39.3 0 71.2-31.9 71.2-71.2s-31.9-71.2-71.2-71.2"/><path class="st0" d="M483.5 195.1c40.5 0 73.4-32.8 73.4-73.4S524 48.4 483.5 48.4m15.1-23.5l.8.8m-15.3-2l-.5.5m31.7 3.8l-3.2-1m-1.5-.4l-.3-.1m-1.6-.4l-1.8-.5-4.7-1m-1.6-.3l-.3-.1m-1.5-.3h-.4l-6.2-.6m-1.6-.3h-.3m-1.6-.1h-6.6m-1.6 0h-.3m-1.6.1l-6.2.4h-.4m-1.7.3l-.2.1m-1.6.1l-4.6.9-1.8.4m-1.6.4l-.3.1m-1.6.4l-3.2.8-3.1 1.1m-1.5.5h-.3m-1.6.6l-1.6.6-4.4 1.9m-1.4.7l-.3.1m-1.5.7l-.4.2-5.4 3.1m-1.5.8l-.1.1m-1.5.8l-5.4 3.8m-1.4.9l-.1.2m-1.3 1.1l-4.8 3.9-.2.2m-1.3 1.3l-.1.1m-1.2 1.1l-3.4 3.3-1.2 1.4m-.9 1.3l-.3.2m-1.1 1.3l-2 2.5"/><g id="Mittellinien"><path class="st1" d="M391 121.8h7.1"/><path d="M400.9 121.8h1.9" fill="none" stroke="#000" stroke-width=".283" stroke-miterlimit="10" stroke-dasharray=".5538,2.7688"/><path d="M404.2 121.8h158.1" fill="none" stroke="#000" stroke-width=".283" stroke-miterlimit="10" stroke-dasharray="13.8438,2.7688,.5538,2.7688"/><path class="st1" d="M563.7 121.8h7.1m-515.9 0H62"/><path d="M64.7 121.8h2" fill="none" stroke="#000" stroke-width=".283" stroke-miterlimit="10" stroke-dasharray=".5463,2.7315"/><path d="M68 121.8h215" fill="none" stroke="#000" stroke-width=".283" stroke-miterlimit="10" stroke-dasharray="13.6575,2.7315,.5463,2.7315"/><path class="st1" d="M284.4 121.8h7M483.7 14.6v7"/><path d="M483.7 24.6v2.1" fill="none" stroke="#000" stroke-width=".283" stroke-miterlimit="10" stroke-dasharray=".5997,2.9986"/><path d="M483.7 28.2v171.3" fill="none" stroke="#000" stroke-width=".283" stroke-miterlimit="10" stroke-dasharray="14.9932,2.9986,.5997,2.9986"/><path class="st1" d="M483.7 201v7.1"/></g><g id="Bemassung"><path class="st1" d="M18.6 50.5v142.4"/><path d="M16.1 52.2l2.5-9.2 2.4 9.2h-4.9zm0 139l2.5 9.2 2.4-9.2h-4.9z"/><path class="st1" d="M43.8 55.6v132"/><path d="M41.4 57.3l2.4-9.2 2.5 9.2h-4.9zm0 128.7l2.4 9.2 2.5-9.2h-4.9z"/><path class="st8" d="M68.7 195.8H39.8M74.4 47.2H39.8M75.5 43H14.2m56.2 157.4H14.2"/><path class="st9" d="M326 76.4v91.2"/><path d="M323.6 78l2.4-9.2 2.5 9.2h-4.9zm0 87.9l2.4 9.3 2.5-9.3h-4.9z"/><path class="st8" d="M262.4 68.1h69m-69.3 108h69.3"/><path class="st9" d="M251.9 221.6H75.7"/><path d="M250.2 219.1l9.2 2.5-9.2 2.5v-5zm-172.8 0l-9.3 2.5 9.3 2.5v-5z"/><path class="st9" d="M292.7 221.6h21"/><path d="M294.4 224.1l-9.2-2.5 9.2-2.5v5z"/><path class="st8" d="M285.7 168.4v57.4"/><path class="st9" d="M324.7 245.9h-57.8"/><path d="M323 243.4l9.2 2.5-9.2 2.5v-5zm-54.4 0l-9.2 2.5 9.2 2.5v-5z"/><path class="st8" d="M259 182.3v67.8"/><path class="st9" d="M325.8 22.2h-31.4"/><path d="M324.1 19.7l9.3 2.5-9.3 2.5v-5zm-28 0l-9.2 2.5 9.2 2.5v-5z"/><path class="st8" d="M333 250.1V17.9m-47.8 4.3h-24.7m-1.5 39V17.9M286 75V17.9"/><path class="st9" d="M251.3 21.9h-170"/><path d="M249.6 19.5l9.2 2.4-9.2 2.5v-4.9zM83 19.5l-9.2 2.4 9.2 2.5v-4.9z"/><path class="st8" d="M73 42.3V18.9m203 50.4V37.7"/><path class="st9" d="M336.5 109.7l26.9-97.5h5.2"/><path d="M339.3 108.7l-4.8 8.2.1-9.5 4.7 1.3z"/><path class="st8" d="M67.4 201.7v24.1m217.8-4.2h-27.5"/><path class="st9" d="M284.3 42.1h36.9"/><path d="M286 44.5l-9.2-2.4 9.2-2.5v4.9z"/><path class="st9" d="M252.2 42.1h-36.9"/><path d="M250.5 39.6l9.2 2.5-9.2 2.4v-4.9z"/><path class="st8" d="M276.8 42.1h-17.3"/><path d="M329.5 118.3l7 7m-7 0l7-7m-7 0l7 7m-7 0l7-7" fill="none" stroke="#000" stroke-width=".992" stroke-miterlimit="10"/><path class="st1" d="M415.8 64.7l32.9 27.4"/><path d="M415.4 68.6l-7.3-10.4 11.6 5.4-4.3 5z"/><path class="st8" d="M483.3 121.9l-14.5-12.3"/></g><g id="Text"><text transform="matrix(1 0 -.00479 1 120.166 159.823)" class="st11 st12 st13">Mod</text><text transform="rotate(-90 73.983 59.303)" class="st11 st12 st14">Ø 37</text><text transform="rotate(-90 230.924 -76.396)" class="st11 st12 st14">1-32 UN-2A</text><text transform="rotate(-90 235.174 -84.746)" class="st11 st12 st14">(C-mount)</text><text transform="rotate(-90 97.383 56.857)" class="st11 st12 st14">M35.5 x 0.5</text><text transform="translate(156.111 18.36)" class="st11 st12 st14">43.8</text><text transform="translate(266.226 18.524)" class="st11 st12 st14">6.3</text><text transform="translate(373.1 14.68)" class="st11 st12 st14">Sensor position</text><text transform="translate(264.672 38.358)" class="st11 st12 st14">4</text><text transform="translate(266.231 217.839)" class="st11 st12 st14">6.3</text><text transform="translate(297.12 18.524)" class="st11 st12 st14">11.2</text><text transform="translate(153.56 217.872)" class="st11 st12 st14">45.1</text><text transform="translate(279.815 243.087)" class="st11 st12 st14">17.526</text><text transform="translate(281.015 256.587)" class="st11 st12 st14">(in air)</text><text transform="translate(126.28 91.365)" class="st11 st12 st13">Inf.</text><text transform="translate(443.618 103.974)" class="st11 st12 st14">R24.2</text></g><text transform="translate(482.334 242.824)" class="st12 st15">Not to scale</text><text transform="translate(482.104 256.224)" class="st12 st15">Dimensions in mm</text></svg>