<svg version="1.1" id="Layer_1" xmlns="http://www.w3.org/2000/svg" x="0" y="0" viewBox="0 0 565 170.5" style="background-color:#fff" xml:space="preserve"><style>.st0{stroke-width:.5}.st0,.st1,.st2,.st3{fill:none;stroke:#000;stroke-miterlimit:3.8637}.st1{stroke-width:.4252}.st2{stroke-width:.3402}.st3{stroke-width:.25;stroke-dasharray:12,2,2,2}.st9{font-family:Helvetica,Arial,sans-serif}.st10{font-size:10px}.st11{font-size:8px}</style><g id="Ebene_1"><path class="st0" d="M262.2 97.3h186.2m-186.2 19.6h169.5m0 0h17.1M150.1 85.8l2.9-2.4h55.2l2.7 1.9v44.9l-2.7 1.8h-55l-3.1-2.4V85.8zm2.8-2.4V132m55.3 0V83.4M78 82.9h55.2l2.7 2v44.8l-2.7 1.8h-55m-.3-48.6v48.6m55.3 0V82.9"/><path class="st1" d="M261.7 95.2v24.1"/><path class="st0" d="M452.1 97.3H513m-60.9 19.6h60.6"/><path class="st2" d="M84.3 65.2h176.6"/><path d="M84.3 63.4v3.5l-6.2-1.7 6.2-1.8zm170.4 0v3.5l6.2-1.7-6.2-1.8z"/><path class="st2" d="M78.3 78.4V17.5M261.8 93V63.7"/><path class="st3" d="M448.8 94.5v26.8"/><path d="M451.8 94.5v26.8" fill="none" stroke="#000" stroke-width=".25" stroke-miterlimit="3.864" stroke-dasharray="12,2,2,2,2,2"/><path class="st2" d="M68.1 127.3V89.5m9.4 42H66.6"/><path d="M66.3 89.8h3.5l-1.7-6.5-1.8 6.5z"/><path class="st2" d="M77.5 83H66.6"/><path d="M69.8 124.5h-3.5L68 131l1.8-6.5z"/><path class="st3" d="M300.7 108.5L73 108"/><path class="st1" d="M514.7 107.8c-1.8-3.8-5.2-7.2-1.7-10.5 3.9 1.3 3 5.8 1.7 10.5m-2 9.1c3.9-3.2 3.4-6.2 2-9.1"/><path d="M511.6 101.8l25.3-2.3m-23 7.3l21.5-1.3m-20 4.8l20.7.7m-20.7 2.5l22 4.3" fill="none"/><path class="st2" d="M84.3 21.2h453.3"/><path d="M84.3 19.5v3.4l-6.2-1.7 6.2-1.7z"/><path class="st2" d="M537.8 98.5V18"/><path d="M531.4 22.9v-3.4l6.2 1.7-6.2 1.7z"/><path class="st2" d="M300.7 117V97.3m131 19.7V97.3"/><path class="st3" d="M546.9 108.5l-115.2-.5"/><path class="st2" d="M490.7 132.8V55.5"/><path d="M489 123h3.4l-1.7-6.1-1.7 6.1zm3.4-31.1H489l1.7 6.2 1.7-6.2z"/><path d="M135.9 123.5h14.2m0-32.5h-14.2m75 0l50.8 4.2m-158 36.3V82.9m24.2 48.6V82.9m133.8 36.4l-50.8 4.2" fill="none" stroke="#020405" stroke-width=".5" stroke-linecap="round" stroke-linejoin="round" stroke-miterlimit="10"/><path d="M104 83l24.1 16.1m-17.8-16l17.8 12m-11.8-12l11.8 7.9m-5.8-7.9l5.8 3.9M104 87l24.1 16.2M104 91l24.1 16.2M104 95.1l24.1 16.2M104 99.1l24.1 16.2M104 103.2l24.1 16.2M104 107.2l24.1 16.2M104 111.3l24.1 16.2M104 115.3l24.1 16.2M104 119.4l18.1 12.1m-18.1-8.1l12.1 8.1m-12.1-4l6 4M128.1 83L104 99.1m17.8-16l-17.8 12m11.7-12L104 91m5.7-7.9L104 87m24.1 0L104 103.2M128.1 91L104 107.2m24.1-12.1L104 111.3m24.1-12.2L104 115.3m24.1-12.1L104 119.4m24.1-12.2L104 123.4m24.1-12.1L104 127.5m24.1-12.2L104 131.5m24.1-12.1L110 131.5m18.1-8.1l-12.1 8.1m12.1-4l-6.1 4" fill="none" stroke="#000" stroke-width=".25" stroke-miterlimit="3.864"/><path class="st1" d="M300.7 97.3h130.9v68.2H300.7V97.3z"/><path d="M48.8 53.5l29.5 29.4" fill="none" stroke="#000" stroke-width=".227" stroke-miterlimit="3.864"/></g><g id="text"><text transform="translate(3.228 38.948)" class="st9 st10">Hirose</text><text transform="translate(3.228 49.948)" class="st9 st10">6-pin plug</text><text transform="translate(150.099 61.5)" class="st9 st11">36 mm</text><text transform="rotate(-90 93.62 29.83)" class="st9 st11">11.6 mm</text><text transform="rotate(-90 287.933 -198.78)" class="st9 st11">5.7 mm</text><text transform="translate(303.057 137.167)" class="st9 st10">Label with order number,</text><text transform="translate(303.057 148.167)" class="st9 st10">manufacturing date, and</text><text transform="translate(303.057 159.167)" class="st9 st10">pin-to-wire color assignment</text><text transform="translate(343.806 110.293)" class="st9" font-size="7">2000...xx/yy</text><text transform="translate(234.473 16.166)" class="st9 st10">Length depending on order number</text><text transform="translate(518.643 136.167)" class="st9 st10">Open end</text></g></svg>