<svg id="Ebene_1" data-name="Ebene 1" xmlns="http://www.w3.org/2000/svg" viewBox="0 0 405.57 266.25"><defs><style>.cls-1,.cls-6{fill:none}.cls-1{stroke:#1c1c1a}.cls-1,.cls-6{stroke-linecap:round;stroke-linejoin:round}.cls-1{stroke-width:1.13px}.cls-6{stroke:#000}.cls-5{font-size:14px;font-family:ArialMT,Arial}.cls-6{stroke-width:.28px}</style></defs><path class="cls-1" d="M107.88 79.76h169.7v139.2h-169.7z"/><path stroke-width="1.35" fill="#ffed00" stroke-linecap="round" stroke-linejoin="round" stroke="#1c1c1a" d="M119.8 92.95h30.67v20.07H119.8z"/><path fill="#0f0" stroke-width="1.35" stroke-linecap="round" stroke-linejoin="round" stroke="#1c1c1a" d="M236.43 92.95h30.67v20.07h-30.67z"/><path class="cls-1" d="M214.61 106.75h13.72v11.77h5.72v7.38h21.14v74.66H130.83l.05-74.09h21.14v-7.86h5.72v-11.86h13.72v-8.58h43.15v8.58"/><path d="M156.3 171.66v28.07m4.32 0v-28.07h-4.32m49.36 0v28.07m4.32 0v-28.07h-4.32m9.87 0v28.07m4.32 0v-28.07h-4.32m-19.74 0v28.07m4.32 0v-28.07h-4.32m-9.87 0v28.07m4.32 0v-28.07h-4.32m-9.87 0v28.07m4.31 0v-28.07h-4.31m49.35 0v28.07m4.32 0v-28.07h-4.31m-59.24 0v28.07m4.32 0v-28.07h-4.32" stroke="#000" stroke-width="1.13" stroke-linecap="round" stroke-linejoin="round" fill="none"/><text class="cls-5" transform="translate(10.52 35.34)">Link LED</text><text class="cls-5" transform="translate(312.85 35.34)">Network LED</text><path class="cls-6" d="M273.13 84.5l34.65-46.14h87.57"/><path d="M277.11 84.69l-10.01 7.85 4.74-11.81 5.27 3.96z"/><path class="cls-6" d="M114.07 84.5L79.42 38.36H11.85"/><path d="M115.35 80.73l4.75 11.8-10.02-7.84 5.27-3.96z"/></svg>