<svg version="1.1" id="Layer_1" xmlns="http://www.w3.org/2000/svg" x="0" y="0" viewBox="0 0 625.3 290.9" style="background-color:#fff" xml:space="preserve"><style>.st0{fill:#6f6f6e}.st1{fill:#00437c}.st2{font-family:Helvetica,Arial,sans-serif}.st3{font-size:12px}.st4{enable-background:new}.st5{fill:#fff}.st6{font-size:12.1434px}.st8{fill:none;stroke:#00437c;stroke-width:.5;stroke-miterlimit:10}.st11{fill:#878786}.st12{fill:#00305c}.st13{fill:none;stroke:#00305c;stroke-width:.75;stroke-miterlimit:10}</style><g id="Camera_2_"><path class="st0" d="M439 192.5h9.1v31.1H439z"/><text transform="translate(184.981 104.175)" class="st1 st2 st3">Light</text><text transform="translate(336.864 258.637)" class="st1 st2 st3">Scattered light</text><text transform="translate(226.197 66.636)" class="st1 st2 st3">Scattered light</text><text transform="translate(0 119.222)" class="st4"><tspan x="0" y="0" class="st1 st2 st3">Target </tspan><tspan x="0" y="14.4" class="st1 st2 st3">object</tspan></text><text transform="translate(180.371 23.406)" class="st4"><tspan x="0" y="0" class="st1 st2 st3">Object creating </tspan><tspan x="0" y="14.4" class="st1 st2 st3">disturbance</tspan></text><text transform="translate(174.371 273.073)" class="st4"><tspan x="0" y="0" class="st1 st2 st3">Object creating </tspan><tspan x="0" y="14.4" class="st1 st2 st3">disturbance</tspan></text><text transform="translate(464.514 173.11)" class="st5 st2 st6">Camera</text><text transform="translate(456.608 109.13)" class="st5 st2 st6">Light</text><text transform="translate(127.085 167.968)" class="st1 st2 st3">Reflected light</text><path fill="#d9dada" d="M438.2 62.1h144v183.1h-144z"/><path class="st8" d="M470.4 101.7h99.1"/><path class="st0" d="M523 184.1h8.3V228H523z"/><text transform="translate(587.12 191.476)" class="st2 st3">Sensor</text><text transform="translate(488.411 23.407)" class="st2 st3">Evaluation unit</text><text transform="translate(400.658 34.667)" class="st2 st3">Light source</text><text transform="translate(574.916 31.794)" class="st2 st3">Interface</text><path class="st0" d="M569.5 86.5h24.7v28.3h-24.7z"/><text transform="translate(439.884 182.476)" class="st2 st3">Lens</text><circle transform="rotate(-88.546 454.548 102.353) scale(1.00002)" cx="454.5" cy="102.4" fill="#ffed00" stroke="#000" stroke-width=".709" stroke-miterlimit="10" r="15.9"/><path d="M443.3 91.2l22.5 22.4m0-22.4l-22.5 22.4" stroke="#000" stroke-width=".425" fill="none" stroke-miterlimit="10"/><path transform="rotate(-45.001 282.54 25.202)" class="st11" d="M254.2 17.9h56.7v14.6h-56.7z"/><path transform="rotate(-45.001 282.518 265.78)" class="st11" d="M275.2 237.4h14.6v56.7h-14.6z"/><path class="st12" d="M527.8 76.8l-2.1-3.7-2.2-3.6h8.5l-2.1 3.6z"/><path class="st13" d="M527.8 69.5v-39"/><path class="st12" d="M446.1 83.5l-3-2.9-3.1-2.9 4.1-1.2 4-1.2-1 4.1z"/><path class="st13" d="M444.1 76.5l-11-37.4"/><path class="st12" d="M588.4 83.5l-1.6-3.9-1.5-4 4.2.7 4.1.6-2.6 3.3z"/><path class="st13" d="M589.5 76.3l5.6-38.6"/><path class="st12" d="M540 188.3l3.7-2.2 3.7-2.1v8.5l-3.7-2.1z"/><path class="st13" d="M547.4 188.3h38.9"/><path class="st0" d="M524.7 85.7h.8v33.8h-.8zm2.2 0h.8v33.8h-.8zm2.4 0h.8v33.8h-.8z"/><path class="st0" d="M510.4 104.3h33.8v.8h-33.8zm0-2.3h33.8v.8h-33.8zm0-2.3h33.8v.8h-33.8z"/><path class="st8" d="M526.9 184.1v-75.7"/><path class="st0" d="M513.8 88.2h27.1v28.3h-27.1zm-75.6 104.3h8.6v31.1h-8.6z"/><path class="st0" d="M446.6 195.6h34.3v23.8h-34.3z"/><path fill="none" stroke="#5bc5f2" stroke-width="2.126" stroke-linecap="square" stroke-linejoin="bevel" stroke-miterlimit="10" d="M442.9 96.7L282.5 25.2l155.7 188.6 57.9-18.2 27.9 10.5"/><path fill="none" stroke="#f59d1f" stroke-width="2.126" stroke-linejoin="bevel" stroke-miterlimit="10" d="M524 206.1l-23.8 13.3-48.8-19-168.9 65.3 172.7-154.9"/><path fill="none" stroke="#00437c" stroke-width="2.126" stroke-miterlimit="10" d="M443.1 101.5L54.4 117.7l375.2 85.7 13.5 2.7H524"/><path fill="#5bb12e" d="M39.8 89.9h14.6v56.7H39.8z"/></g></svg>