<svg style="background-color:#fff" version="1.1" id="Ebene_1" xmlns="http://www.w3.org/2000/svg" xmlns:xlink="http://www.w3.org/1999/xlink" x="0" y="0" viewBox="0 0 361.8 189.4" xml:space="preserve"><style>.st0{fill:none;stroke:#000;stroke-linecap:square;stroke-miterlimit:10}.st2{font-family:Helvetica,Arial,sans-serif}.st3{font-size:9px}.st13,.st16{fill:none;stroke:#000;stroke-width:2;stroke-linecap:square;stroke-miterlimit:10}.st16{stroke-width:.5}</style><path class="st0" d="M36.5 22.3v129m-7.2-129H37m-7.7 31.8H37m-7.7 31.7H37m-7.7 31.8H37m-7.7 32H37"/><defs><path id="SVGID_1_" d="M0 17.8h358.8v167.3H0z"/></defs><clipPath id="SVGID_2_"><use xlink:href="#SVGID_1_" overflow="visible"/></clipPath><g clip-path="url(#SVGID_2_)"><text transform="rotate(-90 55.797 48.037)" class="st2 st3">SFR [%]</text></g><defs><path id="SVGID_3_" d="M0 17.8h358.8v167.3H0z"/></defs><clipPath id="SVGID_4_"><use xlink:href="#SVGID_3_" overflow="visible"/></clipPath><path d="M36 151.8h322.5" clip-path="url(#SVGID_4_)" fill="none" stroke="#000" stroke-linecap="square" stroke-miterlimit="10"/><path class="st0" d="M329.5 159.3v-8m-58 8v-8m-58.2 8v-8m-58 8v-8m-58.3 8v-8m-58 8v-8"/><defs><path id="SVGID_5_" d="M0 17.8h358.8v167.3H0z"/></defs><clipPath id="SVGID_6_"><use xlink:href="#SVGID_5_" overflow="visible"/></clipPath><g clip-path="url(#SVGID_6_)"><text transform="translate(147.587 183.598)" class="st2" font-size="9.003">Image Height [mm]</text></g><defs><path id="SVGID_7_" d="M0 17.8h358.8v167.3H0z"/></defs><clipPath id="SVGID_8_"><use xlink:href="#SVGID_7_" overflow="visible"/></clipPath><path d="M39 95.6h44l11-.3 11 .3h33l11.3.5 11 .5 11 1 11 1 11 1 11 1.2 11 1 11 1 11 1 11.2.3h11l10.8-.3 11.2-.5 11-.7 11-1 11-1 11-1.5 11-1.8 11-2 11-2.2" clip-path="url(#SVGID_8_)" fill="none" stroke="#777" stroke-width="2" stroke-linecap="square" stroke-miterlimit="10"/><path d="M39 95.6h7m7 0h7m7 0h7m7 .2h7m7 .3l7 .2m7 .3l7 .2m7 .3l4.3.2h2.7m7 .5h1l6 .5m7 .5l6.8.8m7 .7l6.5 1h.5m7 1l3.5.5 3.2.5m7 1l.8.3 6.2 1m6.8 1l7 1.2m6.7 1.5l6.3 1.3.7.2m6.8 1.3l3.5.7 3.5.5m6.7 1.3l1 .2 6 1m6.8 1.3l7 1.2m7 1.3l6.2 1 .5.2m7 1.3l3.5.5 3.3.5m7 1.2h.7l6.3 1m6.7 1.3l7 1.2m6.8 1l6.2 1h.8m7 1.3l3.2.5 3.5.5" fill="none" stroke="#777" stroke-width="2" stroke-linecap="square" stroke-miterlimit="10"/><defs><path id="SVGID_9_" d="M0 17.8h358.8v167.3H0z"/></defs><clipPath id="SVGID_10_"><use xlink:href="#SVGID_9_" overflow="visible"/></clipPath><path d="M358 133.1h.5" clip-path="url(#SVGID_10_)" fill="none" stroke="#777" stroke-width="2" stroke-linecap="square" stroke-miterlimit="10"/><defs><path id="SVGID_11_" d="M0 17.8h358.8v167.3H0z"/></defs><clipPath id="SVGID_12_"><use xlink:href="#SVGID_11_" overflow="visible"/></clipPath><path d="M39 114.3l11-.2h11l11-.3 11-.2h11l11-.3 11.3-.2h11l10.7-.3h11.3l11 .3 11 .5 11 .2 11 1 11 .8 11 1 11 1 11 .7 11.2.5 11 .3h10.8l11.2-.3 11-.2 11-.5 11-.8 11-.7 11-1.3 11-1.2 11-1.5" clip-path="url(#SVGID_12_)" fill="none" stroke="#bbb" stroke-width="2" stroke-linecap="square" stroke-miterlimit="10"/><path d="M39 114.3h7m7-.2h7m7 0h7m7 0h7m7 0l7 .2m7 .3h7m7 .2l4.3.3h2.7m7 .2l1 .3 6 .2m7 .8l7 .7m6.8.8l6.5 1h.5m7 1l3.5.5 3.5.5m6.7 1l.8.2 6.2.8m7 1.2l6.8 1m7 1l6 1 1 .3m6.7 1l3.3.2 3.7.5m7 1h.5l6.5.8m6.8.7l7 .8m7 .7l5.7.5 1.3.3m7 .5l2.7.2 4.3.3m7 .5l7 .5m7 .5l7 .2m7 .5l4.7.3h2m7 .2h7" fill="none" stroke="#bbb" stroke-width="2" stroke-linecap="square" stroke-miterlimit="10"/><defs><path id="SVGID_13_" d="M0 17.8h358.8v167.3H0z"/></defs><clipPath id="SVGID_14_"><use xlink:href="#SVGID_13_" overflow="visible"/></clipPath><path d="M39 62.8h11l11 .3 11 .2 11 .3 11 .2 11 .5 11.3.5 11 .5 10.7.5 11.3 1 11 1 11 1.3 11 1 11 1.5 11 1 11 1 11 .7 11 .5h11.2l11-.2 10.8-.5 11.2-.8 11-1 11-1.2 11-1.5 11-1.8 11-2.2 11-2.3 11-2.5" clip-path="url(#SVGID_14_)" fill="none" stroke="#000" stroke-width="2" stroke-linecap="square" stroke-miterlimit="10"/><path class="st13" d="M39 62.8l7 .3m7 0l7 .2m7 .3h5l2 .2m7 .3h2l5 .2m7 .5l7 .3m7 .5l7 .5m7 .5l4.3.5 2.5.2m7 .5l1.2.3 5.8.5m7 .5l7 .7m7 .8l6.5.7h.5m6.7.8l3.8.5 3.2.2m7 .8l.8.2 6.2.8m7 1l6.8.7m7 1l6 .8h1m7 1.2l3 .5 3.7.5m7 1.3h.5l6.3 1.2m7 1.3l7 1.2m6.7 1.3l6 1.2.8.3m7 1.5l3.2.5 3.5 1m6.8 1.5h.7l6.3 1.5m6.7 1.7l6.8 1.5m6.7 1.8l6.5 1.7.3.3m6.7 1.7l4 1 2.8.8"/><defs><path id="SVGID_15_" d="M0 17.8h358.8v167.3H0z"/></defs><clipPath id="SVGID_16_"><use xlink:href="#SVGID_15_" overflow="visible"/></clipPath><path d="M357 106.6l1.5.5" clip-path="url(#SVGID_16_)" fill="none" stroke="#000" stroke-width="2" stroke-linecap="square" stroke-miterlimit="10"/><defs><path id="SVGID_17_" d="M0 17.8h358.8v167.3H0z"/></defs><clipPath id="SVGID_18_"><use xlink:href="#SVGID_17_" overflow="visible"/></clipPath><path d="M283.5 22.3h73.8v27.8h-73.8V22.3z" clip-path="url(#SVGID_18_)" fill="none" stroke="#000" stroke-linecap="square" stroke-miterlimit="10"/><path class="st13" d="M287.3 30.8h18"/><text transform="translate(309.51 33.334)" class="st2 st3">Sagittal</text><path class="st13" d="M287.3 42.3h7m7 0h4"/><text transform="translate(309.51 45.584)" class="st2 st3">Tangential</text><path class="st16" d="M67.5 47.1L44 60.1"/><path d="M44.3 58.3l-3.8 3.8 5.3-1.3-1.5-2.5z"/><path class="st16" d="M83 86.6l-38 7.7"/><path d="M45.8 92.8l-5 2.3 5.5.5-.5-2.8z"/><path class="st16" d="M76.3 133.1l-31.8-16.3"/><path d="M46 116.1l-5.2-1.3 4 3.8 1.2-2.5z"/><text transform="translate(71.51 51.084)" class="st2 st3">6</text><text transform="translate(76.51 51.084)" class="st2 st3">0</text><text transform="translate(81.51 51.084)" class="st2 st3">LP/mm</text><text transform="translate(78.01 138.584)" class="st2 st3">1</text><text transform="translate(83.01 138.584)" class="st2 st3">2</text><text transform="translate(88.01 138.584)" class="st2 st3">0</text><text transform="translate(95.51 138.584)" class="st2 st3">LP/mm</text><text transform="translate(84.76 87.584)" class="st2 st3">9</text><text transform="translate(89.76 87.584)" class="st2 st3">0</text><text transform="translate(94.76 87.584)" class="st2 st3">LP/mm</text><text transform="translate(36.01 169.584)" class="st2 st3">0</text><text transform="translate(94.01 169.584)" class="st2 st3">1</text><text transform="translate(152.26 169.584)" class="st2 st3">2</text><text transform="translate(210.26 169.584)" class="st2 st3">3</text><text transform="translate(268.51 169.584)" class="st2 st3">4</text><text transform="translate(326.76 169.584)" class="st2 st3">5</text><text transform="translate(13.26 121.834)" class="st2 st3">20</text><text transform="translate(13.26 89.834)" class="st2 st3">40</text><text transform="translate(13.26 57.835)" class="st2 st3">60</text><defs><path id="SVGID_19_" d="M0 17.8h358.8v167.3H0z"/></defs><clipPath id="SVGID_20_"><use xlink:href="#SVGID_19_" overflow="visible"/></clipPath><g clip-path="url(#SVGID_20_)"><text transform="translate(13.26 25.585)" class="st2 st3">80</text></g><text transform="translate(18.76 154.084)" class="st2 st3">0</text></svg>