<svg version="1.1" id="Layer_1" xmlns="http://www.w3.org/2000/svg" x="0" y="0" viewBox="0 0 416.9 80.6" style="background-color:#fff" xml:space="preserve"><style>.st2{fill:#1d1d1b}.st3{font-family:Helvetica,Arial,sans-serif}.st4{font-size:6px}.st5{fill:none;stroke:#1d1d1b;stroke-width:.2268;stroke-miterlimit:3.8637}.st6{fill:#231f20}</style><path d="M21.4 26.4v23.8m0 0h28.8m0 0V26.4m0 0H21.4m374.4 16.9l-1-3m0 0l2-3m0 0l-1-4M112 44.2V32.4m-54.9-6v23.8m0 0H87m0 0V26.4m0 0H57.1M112 43.3h283.7m0-10H112m-61.8 13h6.9m0-16h-6.9m36.8 0l25 2.1M34.3 50.2V26.4m11.9 23.8V26.4M112 44.2l-25 2.1" fill="none" stroke="#000" stroke-width=".283" stroke-linecap="round" stroke-linejoin="round" stroke-miterlimit="10"/><path d="M3.6 1.5h44.8v26H3.6v-26z" fill="none"/><text transform="translate(3.545 7.733)" class="st2 st3 st4">Hirose</text><text transform="translate(3.545 14.733)" class="st2 st3 st4">HR10A-10P-12S</text><path class="st5" d="M26.2 37.3v-20"/><text transform="translate(227.906 7)" class="st6 st3 st4">Unitronic LiYCY</text><text transform="translate(271.826 7)" class="st6 st3 st4">(TP) 6x2x0.14</text><text transform="translate(311.175 7)" class="st6 st3 st4">mm²/close to</text><text transform="translate(346.886 7)" class="st6 st3 st4">A</text><text transform="translate(350.691 7)" class="st6 st3 st4">WG26,</text><text transform="translate(369.363 7)" class="st6 st3 st4">Lapp 0035 133</text><path class="st5" d="M313.1 36.4V14.1"/><path d="M396.6 37.7l17-3m-18 5l17.5 2.5m-17.5-1l18 8m-17.5-13l16.5-9" fill="none" stroke="#1d1d1b" stroke-width=".028" stroke-miterlimit="3.864" stroke-dasharray="72"/><text transform="translate(140.19 15.082)" class="st6 st3 st4">Label with order number</text><path class="st5" d="M172.2 36.7V21.2"/><text transform="translate(151.073 50.124)" class="st6 st3 st4">Basler</text><text transform="translate(169.451 50.124)" class="st6 st3 st4">AG 2000...</text><path class="st5" d="M199.4 33.5c1.9 3.4 1.8 6.5 0 10m-51.7-10.1c1.9 3.4 1.8 6.5 0 10"/><path d="M147.9 43.5h51.6v9.4h-51.6v-9.4h0z" fill="none" stroke="#1d1d1b" stroke-width=".227" stroke-miterlimit="3.864"/><path class="st5" d="M21.4 57.2V78m392.5-20.7V78"/><path d="M24.5 67.7v1.4l-3.4-1.4 3.4-1.3v1.3zm386.2 0v-1.3l3.4 1.3-3.4 1.4v-1.4z" fill-rule="evenodd" clip-rule="evenodd" fill="#1d1d1b"/><path class="st5" d="M24.3 67.7h386.6"/><text transform="translate(170.488 74.864)" class="st6 st3 st4">Length depending on order number</text><text transform="translate(385.82 23.531)" class="st6 st3 st4">Open end</text></svg>