<svg style="background-color:#fff" version="1.1" id="Ebene_1" xmlns="http://www.w3.org/2000/svg" xmlns:xlink="http://www.w3.org/1999/xlink" x="0" y="0" viewBox="0 0 235.7 147.5" xml:space="preserve"><style>.st0{fill:none;stroke:#000;stroke-linecap:round;stroke-linejoin:round;stroke-miterlimit:10}.st5{font-family:Helvetica,Arial,sans-serif}.st6{font-size:9.0031px}</style><path class="st0" d="M36.2 3.8v110.7M29.4 3.8h7.3m-7.3 21.7h7.3m-7.3 21.8h7.3M29.4 69h7.3m-7.3 21.8h7.3m-7.3 21.7h7.3"/><defs><path id="SVGID_1_" d="M34.8 114.4h200.3v1.3H34.8z"/></defs><clipPath id="SVGID_2_"><use xlink:href="#SVGID_1_" overflow="visible"/></clipPath><path d="M35.4 115h199.3" clip-path="url(#SVGID_2_)" fill="none" stroke="#000" stroke-linecap="round" stroke-linejoin="round" stroke-miterlimit="10"/><path class="st0" d="M216.9 121.8v-7.3m-35.7 7.3v-7.3m-35.8 7.3v-7.3m-35.4 7.3v-7.3m-35.8 7.3v-7.3m-35.8 7.3v-7.3"/><defs><path id="SVGID_3_" d="M37.4 2.7h197.8v30.7H37.4z"/></defs><clipPath id="SVGID_4_"><use xlink:href="#SVGID_3_" overflow="visible"/></clipPath><path d="M38.4 3.8h39.3l19.8.2 19.5.7 19.7.8 19.5 1.3 19.8 4.5 19.5 5.2 19.7 7 19.5 8.8" clip-path="url(#SVGID_4_)" fill="none" stroke="#000" stroke-width="2" stroke-linecap="round" stroke-linejoin="round" stroke-miterlimit="10"/><path d="M42.5 91h42v18h-42V91z" fill="#fff"/><path class="st0" d="M44 92.5h39v15.2H44V92.5z"/><path d="M47.7 100.2h16.5" fill="none" stroke="#000" stroke-width="2" stroke-linecap="round" stroke-linejoin="round" stroke-miterlimit="10"/><text transform="translate(65.446 101.745)" class="st5 st6">ƒ/2</text><text transform="translate(10.482 7.726)" class="st5 st6">1</text><text transform="translate(15.482 7.726)" class="st5 st6">0</text><text transform="translate(20.482 7.726)" class="st5 st6">0</text><text transform="translate(15.46 29.504)" class="st5 st6">8</text><text transform="translate(20.46 29.504)" class="st5 st6">0</text><text transform="translate(15.46 51.229)" class="st5 st6">6</text><text transform="translate(20.46 51.229)" class="st5 st6">0</text><text transform="translate(15.46 73.25)" class="st5 st6">4</text><text transform="translate(20.46 73.25)" class="st5 st6">0</text><text transform="translate(15.46 94.795)" class="st5 st6">2</text><text transform="translate(20.46 94.795)" class="st5 st6">0</text><text transform="translate(20.44 116.52)" class="st5 st6">0</text><text transform="translate(36.226 133.042)" class="st5 st6">0</text><text transform="translate(214.186 133.042)" class="st5 st6">5</text><text transform="translate(177.888 133.042)" class="st5 st6">4</text><text transform="translate(143.035 133.042)" class="st5 st6">3</text><text transform="translate(107.876 133.042)" class="st5 st6">2</text><text transform="translate(71.493 133.042)" class="st5 st6">1</text><text transform="rotate(-90 60.848 51.652)" class="st5 st6">Relative Illumination [%]</text><text transform="translate(86.843 144.88)" class="st5 st6">Image Height [mm]</text></svg>