<svg version="1.1" id="Ebene_1" xmlns="http://www.w3.org/2000/svg" x="0" y="0" viewBox="0 0 1456 842.8" style="background-color:#fff" xml:space="preserve"><style>.st1{fill:none;stroke:#000;stroke-width:.25;stroke-linecap:round;stroke-linejoin:round}.st2{fill:#f5f5f5}.st3,.st4{fill:none;stroke:#1a1a18}.st5{fill:none}.st3{stroke-linecap:round;stroke-linejoin:round;stroke-width:2.67}.st4,.st5{stroke-width:1.07}.st5{stroke:#1d1d1b;stroke-linecap:round;stroke-linejoin:round}.st6{fill:#1a1a18}.st7{font-family:Helvetica,Arial,sans-serif}.st8{font-size:32px}.st9{fill:#1d1d1b}.st10,.st11,.st12,.st13{fill:none;stroke:#000;stroke-linecap:round;stroke-linejoin:round}.st11{stroke-width:.75}.st12{stroke-width:.78}.st13{stroke-width:.81}</style><g id="lens_C10-3514-8M"><g id="outline"><path d="M178.5 683.5c-.6 0-4.2-.5-4.2-3.9V203.7c.1-.6.5-4.7 4-4.7h45.3l59.9 16.9h41.6l1.6 1.4v8.8c0 .8.7 1.5 1.5 1.5h5c.8 0 1.5-.7 1.5-1.5v-8.7l1.3-1.3h125.9l.2.2v1.9c0 .6.3 1.1.9 1.4.2.1.4.1.6.1.4 0 .7-.1 1-.4l3.2-2.9h220.9l5.3 5c.3.3.6.4 1 .4h33.8c.4 0 .8-.2 1.1-.4l5.3-5.3h72.6l.2.2v.4c0 .6.4 1.2.9 1.4.2.1.4.1.6.1.4 0 .8-.2 1.1-.4l1.7-1.7h30.8l4.9 4.9v83.3c0 .8.7 1.5 1.5 1.5h11.2c.8 0 1.5-.7 1.5-1.5V299h26.3l4.9 4.9v18.5c0 .8.7 1.5 1.5 1.5h36.8l1.6 1.6v232l-1.6 1.7h-36.8c-.8 0-1.5.7-1.5 1.5v18.5l-4.9 4.9h-26.3v-5.3c0-.8-.7-1.5-1.5-1.5h-11.2c-.8 0-1.5.7-1.5 1.5v83.3l-4.9 4.9h-30.8l-1.7-1.7c-.3-.3-.7-.4-1.1-.4-.2 0-.4 0-.6.1-.6.2-.9.8-.9 1.4v.5l-.2.2h-72.6l-5.3-5.3c-.3-.3-.7-.4-1.1-.4H695c-.4 0-.7.2-1 .4l-5.3 5h-221l-3.2-2.8c-.3-.2-.6-.4-1-.4-.2 0-.4 0-.6.1-.5.2-.9.8-.9 1.4v1.9l-.2.2H336l-1.3-1.3v-8.7c0-.8-.7-1.5-1.5-1.5h-5c-.8 0-1.5.7-1.5 1.5v8.7l-1.6 1.3h-41.2c-.1 0-.3 0-.4.1l-59.9 16.9-45.1-.7z" fill="#f2f2f2"/><path d="M223.4 200.5l59.7 16.8c.3.1.5.1.8.1h40.6l.6.5v8c0 1.7 1.3 3 3 3h5c1.7 0 3-1.3 3-3v-8.1l.4-.4h124v.6c0 1.2.7 2.3 1.8 2.8.4.2.8.3 1.2.3.7 0 1.5-.3 2-.8l2.7-2.5H688l4.9 4.6c.5.5 1.3.8 2 .8h33.8c.8 0 1.6-.3 2.1-.9l4.9-4.9h70.8c.4 1.3 1.5 2.2 2.9 2.2.8 0 1.6-.3 2.1-.9l1.3-1.3h29.6l4 4V304c0 1.7 1.3 3 3 3h11.2c1.7 0 3-1.3 3-3v-3.8h24.2l4 4V322c0 1.7 1.3 3 3 3H931l.8.8v230.8l-.8.8h-36.2c-1.7 0-3 1.3-3 3v17.8l-4 4h-24.2v-3.8c0-1.7-1.3-3-3-3h-11.1c-1.7 0-3 1.3-3 3V661l-4 4h-29.6l-1.3-1.3c-.6-.6-1.3-.9-2.1-.9-1.3 0-2.5.9-2.9 2.2h-70.8l-4.9-4.9c-.6-.6-1.3-.9-2.1-.9H695c-.7 0-1.5.3-2 .8l-4.9 4.6H468.3l-2.7-2.5c-1.2-1.1-3.1-1-4.2.2-.5.5-.8 1.3-.8 2v.6h-124l-.4-.4v-8.1c0-1.7-1.3-3-3-3h-5c-1.7 0-3 1.3-3 3v8l-.6.5h-40.7c-.3 0-.5 0-.8.1l-59.7 17h-44.8c-.5 0-2.8-.4-2.8-2.4V203.8c.1-.7.5-3.2 2.5-3.2h45.1m.4-3.1h-45.5c-5.1 0-5.5 6.1-5.5 6.1v475.9c0 5 5.7 5.4 5.7 5.4h45.4L284 668h41.8l2.5-2.2v-9.4h5v9.4l2.2 2.2h127.1l1.1-1.1v-2.5l3.6 3.2h222.1l5.8-5.4H729l5.8 5.8h73.8l1.1-1.1v-1.1l2.2 2.2h32l5.8-5.8v-83.9h11.2v6.8H889l5.8-5.8v-19.1h37.4l2.5-2.5V324.6l-2.5-2.5h-37.4V303l-5.8-5.8h-28.4v6.8h-11.2v-83.9l-5.8-5.8h-32l-2.2 2.2v-1.1l-1.1-1.1h-73.8l-5.8 5.8H695l-5.8-5.4H467.1l-3.6 3.2v-2.5l-1.1-1.1h-127l-2.2 2.2v9.4h-5v-9.4l-2.5-2.2h-41.8l-60.1-16.8z"/></g><g id="vertical_lines"><path class="st1" d="M463.5 667V215.5m-1 452.5V214.4M335.4 668V214.4m46.4 226.9l.7-3.7 2.2-2.8 2.9-1.8 3.6-.7 3.2.7 2.9 1.8 2.2 2.8.7 3.7-.7 3.6-2.2 2.8-2.9 1.8-3.2.8-3.6-.8-2.9-1.8-2.2-2.8-.7-3.6m-48.6 224.6V216.6m-5 449.3V216.6M325.7 668V214.4m-16.9 296l3.6.3 2.8 2.2 1.8 2.5.8 3.6-.8 3.3-1.8 2.5-2.8 1.8-3.6.7-3.7-.7-2.8-1.8-1.8-2.5-.7-3.3.7-3.6 1.8-2.5 2.8-2.2 3.7-.3M283.9 668V214.4M223.8 685V197.5"/><path class="st1" d="M299.8 518.3l.7 3.2 2.1 2.5 2.9 1.9 3.3.7 3.2-.7 2.9-1.9 2.1-2.5.8-3.2m375.8-299.2l-.4-.3-1-1.1-1.5-1.1-1.4-1.8m0 4.3v-4.3m4.3 9.7l-.4-.7-1-1.4-1.5-1.8-1.4-1.5m4.3 9.8v-4.4m0 4.4v.3l-.7-.3-1.5-.8-2.1-1.8m0 45v-45m4.3 52.2l-.4-1.8-1-1.8-1.5-1.8-1.4-1.8m4.3 18.7v-11.5m0 11.6l-.4 1-1 .8-1.5-.4-1.4-.4m0 24.9v-24.9m4.3 32.1l-.4-2.2-1-1.8-1.5-1.8-1.4-1.4m4.3 21.2v-14m0 14l-.4 1.8-1 1.1-1.5.4-1.4-.4m0 29.2v-29.2m4.3 36l-.4-2.5-1-1.8-1.5-1.5-1.4-1m4.3 22.3v-15.5m0 15.5l-.4 2.1-1 1.5-1.5.7h-1.4m0 31.7v-31.7m4.3 37.1l-.4-2.2-1-1.4-1.5-1.5-1.4-.3m4.3 21.9V433m0 16.5l-.4 2.2-1 1.4-1.5 1.5-1.4.7m0 31.3v-31.3m4.3 35.6l-.4-2.1-1-1.5-1.5-.7h-1.4m4.3 20.2v-15.9m0 15.9l-.4 2.1-1 1.8-1.5 1.5-1.4 1.1m0 29.1v-29.1m4.3 32l-.4-1.8-1-1.1h-2.9m4.3 16.9v-14m0 14l-.4 2.2-1 1.8-1.5 1.8-1.4 1.4m0 24.9v-24.9m4.3 26l-.4-1.1-1-.7-1.5.3-1.4.4m4.3 12.6v-11.5m0 11.5l-.4 1.8-1 2.1-1.5 1.5-1.4 1.8m0 45v-45m4.3 42.5v-.4l-.7.4-1.5 1-2.1 1.5m4.3 1.8v-4.3m0 4.3v.3l-.7 1.1-1.5 1.8-2.1 2.2m0 4.3v-4.3m4.3 0l-.4.3-1 1.1-1.5 1.1-1.4 1.8m5.7-5.4V220.2M467.1 667.7h222.2m-222.2 0l-2.1-1.8-1.5-1.4m3.6 3.2v-4.3m-3.6-3.6l1.5 1.4 2.1 2.2m222.2 0H467.1m0-7.2h222.2m-225.8-2.5l1.5 1 2.1 1.5m0 0v-45m0 0l-2.1-1.8-1.5-2.2m225.8 4H467.1m0-19.8h222.2m-225.8-.4h1.5l2.1.4m0 0v-24.9m0 0l-2.1-1.8-1.5-1.8m225.8 3.6H467.1m0-24.1h222.2m-225.8.4l1.5-.4h2.1m0 0v-29.1m0 0l-2.1-1.5-1.5-1.8m225.8 3.3H467.1m0-26.7h222.2m-225.8 1.1l1.5-.7 2.1-.4m0 0v-31.3m0 0l-2.1-1.1-1.5-1.4m225.8 2.5H467.1m0-27.7h222.2m-225.8 2.1l1.5-1.4 2.1-.7m0 0v-31.7m0 0H465l-1.5-1.1m225.8 1.1H467.1m0-26.6h222.2m-225.8 3.2l1.5-1.8 2.1-1.4m0 0v-29.2m0 0l-2.1.4-1.5-.8m225.8.4H467.1m0-24.1h222.2m-225.8 3.6l1.5-1.8 2.1-1.8m0 0v-24.9m0 0l-2.1.8h-1.5m225.8-.8H467.1m0-19.8h222.2m-225.8 4l1.5-2.2 2.1-1.8m0 0v-45m0 0l-2.1 1.5-1.5 1.1m225.8-2.6H467.1m0-7.2h222.2m-225.8 3.6l1.5-1.8 2.1-1.8m0 0v-4.3m0 0l-2.1 1.8-1.5 1.5m225.8-3.3H467.1m261.8 447.5V220.2m5.7 447.8V214.4M808.4 668V214.4m1.1 452.6V215.5m2.2 452.5V214.4m32 453.6V214.4m5.8 447.9V220.2m11.1 365.1v-288m28.5 288v-288m5.7 282.2V303m37.5 257.4V322.1m2.5 235.8V324.6M463.5 667l-1 1m1-452.5l-1-1.1m-127.1 0l-2.2 2.2m0 449.3l2.2 2.1m-2.2-11.5h-5m5-430.5h-5m0 439.9l-2.5 2.1m2.5-451.4l-2.5-2.2M695 662.3l-1.4 1.1m1.4-443.2l-1.4-1.1m41-4.7l-5.7 5.8m0 442.1l5.7 5.7m74.9-1l-1.1 1m1.1-452.5l-1.1-1.1m1.1 2.2l2.2-2.2m-2.2 451.5l2.2 2.1m37.8-5.7l-5.8 5.7m5.8-447.8l-5.8-5.8m91.1 343.5l-2.5 2.5m2.5-235.8l-2.5-2.5m1.2 210.6V351.2m1.4-24.8l-4-3.6m4 211V350.1"/><g id="screw"><path class="st1" d="M780.7 183.9l-4.7-2.2-5.7-1.4-6.1-.8-6.5.8-5.8 1.4-4.7 2.2m33.5 0l1.8 1.4m-35.3-1.4l-1.8 1.4"/><path class="st2" d="M775 214.4v-12.8h5.3v-12.2h2.5l2.5-2.5V160h-44.5v26.9l2.5 2.5h2.5v12.2h5.4v12.8"/><path class="st3" d="M775 214.4v-12.8h5.3v-12.2h2.5l2.5-2.5V160h-44.5v26.9l2.5 2.5h2.5v12.2h5.4v12.8"/><path class="st4" d="M780.3 189.4h-34.5m29.2 12.2h-23.8m20.6 0v13.2m-16.9-13.2v13.2"/><path class="st5" d="M751.5 188.8v-29.3m23 28.9v-28.6"/></g><g id="screw-2"><path class="st1" d="M413.5 189.3l-1.1-3.6-3.2-3.3-4.7-2.5-6.5-1.4-6.8-.8-7.2.8-6.5 1.4-4.7 2.5-3.2 3.3-1.1 3.6"/><path class="st1" d="M407.8 181.3l-4.7-2.5-5.8-1.4-6.1-.4-6.5.4-5.7 1.4-4.7 2.5m33.5 0l1.7 1.5m-35.2-1.5l-1.8 1.5"/><path class="st1" d="M413.1 191.8l-1.1-3.3-3.2-3.2-5.1-2.5-6.5-1.8-6.8-.4-7.2.4-6.1 1.8-5.1 2.5-3.2 3.2-1.1 3.3"/><path class="st1" d="M407 183.9l-4.7-2.2-5.8-1.4-6.1-.8-6.5.8-5.7 1.4-4.7 2.2m33.5 0l1.8 1.4m-35.3-1.4l-1.8 1.4"/><path class="st2" d="M401.2 214.4v-12.8h5.3v-12.2h2.5l2.5-2.5V160h-44.4v26.9l2.5 2.5h2.5v12.2h5.3v12.8"/><path class="st3" d="M401.2 214.4v-12.8h5.3v-12.2h2.5l2.5-2.5V160h-44.4v26.9l2.5 2.5h2.5v12.2h5.3v12.8"/><path class="st4" d="M406.5 189.4h-34.4m29.1 12.2h-23.8m20.7 0v13.2m-16.9-13.2v13.2"/><path class="st5" d="M377.8 188.8v-29.3m22.9 28.9v-28.6"/></g></g></g><g id="bemaßung"><g id="text_arial"><text transform="rotate(-90 260.065 211.295)" class="st6 st7 st8">Ø</text><text transform="rotate(-90 247.62 198.85)" class="st9 st7 st8">43</text><text transform="translate(480.16 60.55)" class="st6 st7 st8">59.7</text><text transform="matrix(.93 0 0 1 905.04 60.55)" class="st6 st7 st8">17.526</text><text transform="matrix(.93 0 0 1 872.62 125.26)" class="st6 st7 st8">7.5</text><path class="st6" d="M1197.9 785.4v-22.9h2.9l11.2 18v-18h2.7v22.9h-2.9l-11.2-18v18h-2.7zm20.2-8.3c0-3.1.8-5.3 2.4-6.8 1.3-1.2 3.1-1.9 4.8-1.8 2-.1 3.9.8 5.2 2.2 1.4 1.7 2.1 3.9 2 6.2.1 1.7-.2 3.4-.9 5-.6 1.2-1.5 2.2-2.6 2.8-1.1.7-2.4 1-3.7 1-2 .1-3.9-.7-5.2-2.2-1.3-1.5-2-3.6-2-6.4zm2.7 0c-.1 1.7.3 3.4 1.3 4.8 1.4 1.8 4 2.1 5.8.7.3-.2.5-.5.7-.7 1-1.4 1.4-3.1 1.3-4.9.1-1.7-.3-3.3-1.3-4.7-1.4-1.8-4-2.1-5.8-.7-.3.2-.5.5-.7.7-1 1.4-1.4 3.1-1.3 4.8zm20.5 5.8l.4 2.5c-.7.2-1.3.2-2 .3-.8 0-1.5-.1-2.2-.5-.5-.3-.9-.7-1.1-1.3-.3-1.1-.4-2.2-.3-3.3V771h-1.9v-2.2h1.9v-4.1l2.6-1.7v5.8h2.6v2.2h-2.6v9.7c0 .5 0 1 .1 1.5.1.2.2.4.4.5.3.1.6.2.9.2.5.1.8 0 1.2 0zm16.6 0l.4 2.5c-.7.2-1.3.2-2 .3-.8 0-1.5-.1-2.2-.5-.5-.3-.9-.7-1.1-1.3-.3-1.1-.4-2.2-.3-3.3V771h-1.9v-2.2h1.9v-4.1l2.6-1.7v5.8h2.6v2.2h-2.6v9.7c0 .5 0 1 .1 1.5.1.2.2.4.4.5.3.1.6.2.9.2.4.1.8 0 1.2 0zm1.5-5.8c0-3.1.8-5.3 2.4-6.8 1.3-1.2 3.1-1.9 4.8-1.8 2-.1 3.9.8 5.2 2.2 1.4 1.7 2.1 3.9 2 6.2.1 1.7-.2 3.4-.9 5-.6 1.2-1.5 2.2-2.6 2.8-1.1.7-2.4 1-3.7 1-2 .1-3.9-.7-5.2-2.2-1.3-1.5-1.9-3.6-2-6.4zm2.7 0c-.1 1.7.3 3.4 1.3 4.8.8 1 2 1.6 3.3 1.6 1.3 0 2.5-.6 3.2-1.6 1-1.4 1.4-3.1 1.3-4.9.1-1.7-.3-3.3-1.3-4.7-.8-1-2-1.6-3.2-1.6-1.3 0-2.5.6-3.3 1.6-.9 1.4-1.4 3.1-1.3 4.8zm22.1 3.3l2.6-.4c.1 2 1.7 3.6 3.7 3.5h.3c1 .1 1.9-.2 2.7-.8.5-.5.9-1.1.9-1.8 0-.6-.3-1.2-.8-1.5-.8-.4-1.7-.8-2.7-1-1.4-.3-2.7-.8-4-1.3-.7-.3-1.3-.9-1.7-1.6-.4-.7-.6-1.4-.6-2.2 0-1.4.6-2.8 1.8-3.6.5-.4 1.1-.6 1.7-.8.7-.2 1.5-.3 2.3-.3 1.1 0 2.2.2 3.2.6.8.3 1.5.8 2 1.5.5.8.8 1.7.9 2.6l-2.6.4c-.1-.8-.4-1.5-1-2-.7-.5-1.5-.8-2.4-.7-.9-.1-1.8.1-2.6.6-.5.4-.8.9-.8 1.5 0 .4.1.7.3 1 .3.3.6.6 1 .8.3.1 1 .4 2.3.7 1.3.3 2.6.8 3.9 1.3.7.3 1.3.8 1.7 1.5.4.7.7 1.6.6 2.4 0 2-1.2 3.8-3 4.6-1 .5-2.1.7-3.3.7-1.6.1-3.3-.4-4.6-1.3-1-1.4-1.6-2.8-1.8-4.4zm26-1.1l2.6.4c-.2 1.7-.9 3.3-2.2 4.5-1.2 1.1-2.7 1.7-4.3 1.6-2 .1-3.8-.7-5.1-2.2-1.4-1.8-2.1-4.1-1.9-6.4 0-1.6.2-3.2.8-4.7.5-1.3 1.4-2.3 2.5-3 1.1-.7 2.4-1 3.7-1 1.5-.1 3 .4 4.1 1.4 1.1 1 1.8 2.4 2 3.9l-2.5.4c-.2-1-.6-1.8-1.3-2.5-.6-.6-1.4-.9-2.2-.8-1.3 0-2.4.5-3.2 1.5-.9 1.4-1.4 3.1-1.2 4.8 0 2.2.4 3.8 1.2 4.9.7 1 1.9 1.5 3.1 1.5 1 0 1.9-.3 2.6-1 .7-1 1.2-2.1 1.3-3.3zm14.9 4c-.8.8-1.8 1.4-2.8 1.9-.9.4-1.9.6-2.9.5-1.4.1-2.8-.4-3.9-1.3-.9-.9-1.4-2.1-1.4-3.4 0-.8.2-1.5.5-2.2.3-.6.8-1.2 1.3-1.6.6-.4 1.2-.7 1.9-.9.8-.2 1.5-.3 2.3-.4 1.6-.2 3.2-.5 4.7-1v-.7c.1-.9-.2-1.7-.7-2.4-.8-.7-1.9-1.1-3-1-1-.1-1.9.2-2.7.7-.7.7-1.2 1.5-1.3 2.5l-2.6-.4c.2-1 .6-2 1.2-2.9.6-.7 1.4-1.3 2.3-1.6 1.1-.4 2.3-.6 3.5-.6 1.1 0 2.2.1 3.2.5.7.2 1.3.7 1.8 1.3.4.6.7 1.2.8 1.9.1.9.2 1.7.1 2.6v3.8c0 1.7 0 3.3.2 5 .1.7.3 1.4.7 2h-2.7c-.3-.8-.5-1.5-.5-2.3zm-.2-6.2c-1.4.5-2.8.9-4.3 1.1-.8.1-1.5.3-2.3.6-.4.2-.8.5-1 .9-.2.4-.4.9-.4 1.3 0 .7.3 1.4.8 1.9.6.5 1.5.8 2.3.8.9 0 1.9-.2 2.7-.7.8-.5 1.4-1.2 1.7-2 .3-.9.5-1.9.4-2.8l.1-1.1zm6.6 8.3v-22.9h2.6v22.9h-2.6zm17.2-5.4l2.7.4c-.3 1.6-1.2 3-2.4 4-3 2.2-7.2 1.8-9.8-.8-1.4-1.8-2.1-4-2-6.3-.1-2.3.6-4.7 2-6.5 1.3-1.5 3.2-2.4 5.2-2.3 1.9-.1 3.8.8 5.1 2.3 1.4 1.8 2.1 4.1 2 6.4v.8H1340c0 1.5.5 3 1.4 4.2.8.9 2 1.5 3.2 1.5.9 0 1.8-.3 2.5-.8.8-.9 1.4-1.8 1.6-2.9zm-8.5-4.5h8.6c0-1.1-.4-2.2-1-3.1-.7-1-2-1.6-3.2-1.6-1.1 0-2.2.5-3 1.3-.9.9-1.4 2.1-1.4 3.4zm-142.3 48.3v-22.9h7.3c1.3 0 2.5.1 3.8.3 1.2.3 2.2.8 3.1 1.6 1.2 1.1 2 2.4 2.5 3.9.6 1.8.9 3.6.8 5.5 0 1.6-.2 3.1-.6 4.6-.3 1.2-.8 2.3-1.5 3.3-1 1.6-2.6 2.8-4.5 3.2-1.1.3-2.3.4-3.4.4l-7.5.1zm2.8-2.7h4.6c1.1 0 2.2-.1 3.3-.4.7-.2 1.4-.6 1.9-1.2.7-.8 1.3-1.8 1.6-2.9.4-1.4.6-2.9.6-4.4.1-1.9-.3-3.8-1.1-5.5-.6-1.1-1.5-2.1-2.7-2.6-1.2-.4-2.4-.5-3.6-.5h-4.5l-.1 17.5zm18.4-17v-3.2h2.6v3.2h-2.6zm0 19.7v-16.6h2.6v16.6h-2.6zm6.6 0v-16.6h2.3v2.3c.5-.8 1.1-1.5 1.9-2 .8-.5 1.8-.8 2.8-.7 1 0 2 .2 2.8.8.7.5 1.3 1.3 1.6 2.1.9-1.8 2.8-2.9 4.8-2.9 1.3-.1 2.6.4 3.5 1.4.9 1.2 1.4 2.7 1.2 4.2v11.4h-2.6v-10.5c0-.8 0-1.6-.3-2.4-.2-.5-.5-.9-.9-1.2-.5-.3-1-.5-1.6-.5-1 0-2 .4-2.7 1.2-.8 1.1-1.2 2.4-1.1 3.7v9.6h-2.6V813c.1-1-.2-2-.6-2.8-.5-.7-1.3-1-2.1-.9-.7 0-1.4.2-2 .6-.6.4-1.1 1.1-1.4 1.8-.3 1.1-.5 2.3-.4 3.5v8.6h-2.6zm35.3-5.3l2.7.4c-.3 1.6-1.2 3-2.4 4-1.3 1-2.8 1.5-4.4 1.4-2 .1-4-.7-5.4-2.2-1.4-1.8-2.1-4-2-6.3-.1-2.3.6-4.6 2-6.5 1.3-1.5 3.2-2.4 5.2-2.3 1.9-.1 3.8.8 5.1 2.3 1.4 1.8 2.1 4.1 2 6.4v.8h-11.5c0 1.5.5 3 1.4 4.2.8.9 2 1.5 3.2 1.5.9 0 1.8-.3 2.4-.8.9-1 1.4-1.9 1.7-2.9zm-8.6-4.6h8.6c0-1.1-.4-2.2-1-3.2-.8-1-2-1.6-3.2-1.6-1.1 0-2.2.5-3 1.3-.9 1-1.3 2.2-1.4 3.5zm14.6 9.9v-16.6h2.4v2.4c1-1.8 2.9-2.8 4.9-2.7.9 0 1.8.2 2.6.5.7.3 1.3.8 1.8 1.4.4.6.7 1.3.8 2.1.1.9.2 1.8.1 2.7v10.2h-2.5v-10.1c0-.9-.1-1.7-.3-2.6-.2-.6-.6-1-1.1-1.4-.5-.3-1.2-.5-1.8-.5-1.1 0-2.1.4-2.9 1.2-.8.8-1.2 2.2-1.2 4.3v9.1h-2.8zm15.5-5l2.6-.4c.1 2 1.8 3.5 3.7 3.5h.3c1 .1 1.9-.2 2.7-.8.5-.5.9-1.1.9-1.8 0-.6-.3-1.2-.8-1.5-.8-.4-1.7-.8-2.7-1-1.4-.3-2.7-.8-4-1.3-.7-.3-1.3-.9-1.7-1.6-.4-.7-.6-1.4-.6-2.2 0-1.4.6-2.8 1.8-3.6.5-.4 1.1-.6 1.7-.8.7-.2 1.5-.3 2.3-.3 1.1 0 2.2.2 3.2.6.8.3 1.5.8 2 1.5.5.8.8 1.7.9 2.6l-2.6.4c-.1-.8-.4-1.5-1-2-.7-.5-1.5-.8-2.4-.7-.9-.1-1.8.1-2.6.6-.5.4-.8.9-.8 1.5 0 .4.1.7.3 1 .3.3.6.6 1 .8.3.1 1 .3 2.3.7 1.3.3 2.6.8 3.9 1.3.7.3 1.3.8 1.7 1.5.4.7.7 1.6.6 2.4 0 2-1.2 3.8-3 4.6-1 .5-2.1.7-3.3.7-1.6.1-3.3-.4-4.6-1.3-.9-1.5-1.6-2.9-1.8-4.4zm16-14.7v-3.2h2.6v3.2h-2.6zm0 19.7v-16.6h2.6v16.6h-2.6zm5.6-8.3c0-3.1.8-5.4 2.4-6.8 1.3-1.2 3.1-1.9 4.8-1.8 2-.1 3.9.8 5.2 2.2 1.4 1.7 2.1 3.9 2 6.2.1 1.7-.2 3.4-.9 5-.6 1.2-1.5 2.2-2.6 2.9-1.1.7-2.4 1-3.7 1-2 .1-3.9-.7-5.2-2.2-1.3-1.6-2-3.7-2-6.5zm2.7 0c-.1 1.7.3 3.4 1.3 4.8 1.4 1.8 4 2.1 5.8.7.3-.2.5-.5.7-.7 1-1.4 1.4-3.1 1.3-4.8.1-1.7-.3-3.3-1.3-4.7-1.4-1.8-4-2.1-5.8-.7-.3.2-.5.4-.7.7-1 1.3-1.4 3-1.3 4.7zm14.8 8.3v-16.6h2.4v2.4c1-1.7 2.9-2.8 4.9-2.7.9 0 1.8.2 2.6.5.7.3 1.3.8 1.8 1.4.4.6.7 1.3.8 2.1.1.9.2 1.8.2 2.7v10.2h-2.6v-10.1c0-.9-.1-1.7-.3-2.6-.2-.6-.6-1-1.1-1.4-.5-.3-1.2-.5-1.8-.5-1.1 0-2.1.4-2.9 1.2-.8.8-1.2 2.2-1.2 4.3v9.1h-2.8zm15.5-5l2.6-.4c.1 2 1.8 3.5 3.7 3.5h.3c1 .1 1.9-.2 2.7-.8.5-.5.9-1.1.9-1.8 0-.6-.3-1.2-.8-1.5-.8-.4-1.7-.8-2.7-1-1.4-.3-2.7-.8-4-1.3-.7-.3-1.3-.9-1.7-1.6-.4-.7-.6-1.4-.6-2.2 0-1.4.6-2.8 1.8-3.6.5-.4 1.1-.6 1.7-.8.7-.2 1.5-.3 2.3-.3 1.1 0 2.2.2 3.2.6.8.3 1.5.8 2 1.5.5.8.8 1.7.9 2.6l-2.6.4c-.1-.8-.4-1.5-1-2-.7-.5-1.5-.8-2.4-.7-.9-.1-1.8.1-2.6.6-.5.4-.8.9-.8 1.5 0 .4.1.7.3 1 .3.3.6.6 1 .8.3.1 1 .3 2.3.7 1.3.3 2.6.8 3.9 1.3.7.3 1.3.8 1.7 1.5.4.7.6 1.6.6 2.4 0 .9-.3 1.9-.8 2.7-.5.8-1.3 1.5-2.2 1.9-1 .5-2.1.7-3.3.7-1.6.1-3.3-.4-4.6-1.3-.9-1.4-1.6-2.8-1.8-4.4zm24.2-14.7v-3.2h2.7v3.2h-2.7zm0 19.7v-16.6h2.7v16.6h-2.7zm6.6 0v-16.6h2.3v2.4c1-1.8 2.9-2.8 4.9-2.7.9 0 1.8.2 2.6.5.7.3 1.3.8 1.8 1.4.4.6.7 1.3.8 2.1.1.9.2 1.8.1 2.7v10.2h-2.6v-10.1c0-.9-.1-1.7-.3-2.6-.2-.6-.6-1-1.1-1.4-.5-.3-1.2-.5-1.8-.5-1.1 0-2.1.4-2.9 1.2-.8.8-1.2 2.2-1.2 4.3v9.1h-2.6zm24.9 0v-16.6h2.3v2.3c.5-.8 1.1-1.5 1.9-2 .8-.5 1.8-.8 2.8-.7 1 0 2 .2 2.8.8.7.5 1.3 1.3 1.6 2.1.9-1.8 2.8-2.9 4.8-2.9 1.3-.1 2.6.4 3.5 1.4.9 1.2 1.4 2.7 1.2 4.2v11.4h-2.6v-10.5c0-.8-.1-1.6-.3-2.4-.2-.5-.5-.9-.9-1.2-.5-.3-1-.5-1.6-.5-1 0-2 .4-2.7 1.2-.8 1.1-1.2 2.4-1.1 3.7v9.6h-2.6V813c.1-1-.2-2-.6-2.8-.5-.7-1.3-1-2.1-.9-.7 0-1.4.2-2 .6-.6.4-1.1 1.1-1.3 1.8-.3 1.1-.5 2.3-.4 3.5v8.6h-2.7zm24.7 0v-16.6h2.3v2.3c.5-.8 1.1-1.5 1.9-2 .8-.5 1.8-.8 2.8-.7 1 0 2 .2 2.8.8.7.5 1.3 1.3 1.6 2.1.9-1.8 2.8-2.9 4.8-2.9 1.3-.1 2.6.4 3.5 1.4.9 1.2 1.4 2.7 1.2 4.2v11.4h-2.6v-10.5c0-.8-.1-1.6-.3-2.4-.2-.5-.5-.9-.9-1.2-.5-.3-1-.5-1.6-.5-1 0-2 .4-2.7 1.2-.8 1.1-1.2 2.4-1.1 3.7v9.6h-2.6V813c.1-1-.2-2-.6-2.8-.5-.7-1.3-1-2.1-.9-.7 0-1.4.2-2 .6-.6.4-1.1 1.1-1.4 1.8-.3 1.1-.5 2.3-.4 3.5v8.6h-2.6z"/><text transform="matrix(.93 0 0 1 862.57 187.21)" class="st6 st7 st8">4</text><text transform="rotate(-90 317.345 198.485)" class="st6 st7 st8">M40.5x0.5</text><text transform="rotate(-90 878.525 -407.165)" class="st6 st7 st8">Ø</text><text transform="rotate(-90 866.08 -419.61)" class="st9 st7 st8">40</text><text transform="rotate(-90 732.035 -260.675)" class="st6 st7 st8">Ø</text><text transform="rotate(-90 719.59 -273.12)" class="st9 st7 st8">21</text><path class="st6" d="M1048.1 339.3h6.7v210.6h-6.7z"/><text transform="matrix(.93 0 0 1 1228.44 186.1)" class="st6 st7 st8">Sensor Position</text><path class="st10" d="M1139.4 324v235.7"/><path d="M1130.7 330l8.7-32.5 8.7 32.5zm0 223.7l8.7 32.6 8.7-32.6z"/><path class="st10" d="M1062.9 411.9l144.8-235.5h11"/><path d="M1073.4 411.4l-24.4 23.2 9.6-32.3z"/></g><g id="line"><path class="st11" d="M176.4 668.4h-68.1m68.1-453.3h-68.1m70.2 470.6H52.2m126.3-487.8H52.2m842.7 105.5V149.3m40 175.7V103.5M172.8 203.6V52.4m676.8 168.2V52.4m82.8 270.4h77.7m-77.7 238h77.7"/><path class="st12" d="M889.2 586h275.7"/><path class="st13" d="M689.4 668h601.7"/><path class="st11" d="M1048.3 442V52.8"/><path class="st13" d="M857.7 215.1h433.4"/><path class="st12" d="M889.2 298h275.7"/></g><g id="arrows_BPD"><path class="st10" d="M62 222.4v437.2"/><path d="M53.3 228.3l8.7-32.5 8.8 32.5zm0 425.4l8.7 32.5 8.8-32.5z"/><path class="st10" d="M129.8 241.3v401.3"/><path d="M121.1 247.3l8.7-32.6 8.7 32.6zm0 389.4l8.7 32.5 8.7-32.5z"/><path class="st10" d="M1246.9 240.7V639"/><path d="M1238.2 246.6l8.7-32.5 8.7 32.5zm0 386.4l8.7 32.5 8.7-32.5z"/><path class="st10" d="M957.6 349.9v184.7"/><path d="M948.8 355.9l8.8-32.6 8.7 32.6zm0 172.8l8.8 32.5 8.7-32.5z"/><path class="st10" d="M198.8 71.7h624.6"/><path d="M204.7 80.4l-32.5-8.7 32.5-8.7zm612.7 0l32.5-8.7-32.5-8.7z"/><path class="st10" d="M756.9 115.8h65.7"/><path d="M816.7 124.6l32.5-8.8-32.5-8.7z"/><path class="st10" d="M816.9 178.9h5.7"/><path d="M816.7 187.7l32.5-8.8-32.5-8.7zm109.7-17.5l-32.6 8.7 32.6 8.8z"/><path class="st10" d="M1026.4 115.8h-65.7"/><path d="M966.6 107.1l-32.5 8.7 32.5 8.8z"/><path class="st10" d="M877.7 71.7h144.9"/><path d="M883.7 80.4l-32.5-8.7 32.5-8.7zm133 0l32.5-8.7-32.5-8.7z"/><path class="st6" d="M1175.9 518v2.8H1158c.7.8 1.4 1.7 1.9 2.7.6 1 1.1 2 1.4 3h-2.7c-.7-1.5-1.6-2.9-2.7-4.1-.9-1-1.9-1.9-3.1-2.5V518h23.1zm-14.8-12.3l-4.3-.2-3.8-.8v-3.2l3.8.8 4.3 1.6v1.8zm0 4.4l-4.3-.2-3.8-.8v-3.2l3.8.8 4.3 1.6v1.8zm8-10.3h-2.8v-8.6h2.8v8.6zm.8-11l-.4-2.8c1.3-.2 2.5-.7 3.4-1.6.7-.8 1.1-1.8 1.1-2.8 0-1.3-.5-2.5-1.4-3.4-.9-.9-2.1-1.4-3.4-1.4-2.4-.1-4.4 1.8-4.5 4.2v.3c0 .7.1 1.3.3 2l-2.5-.3v-.5c0-1.1-.3-2.3-.9-3.2-.6-1-1.7-1.5-2.9-1.4-1 0-1.9.4-2.6 1-.7.7-1 1.7-1 2.7 0 1 .3 2 1 2.7.8.8 1.9 1.3 3.1 1.4l-.5 2.8c-1.7-.2-3.2-1.1-4.4-2.3-1.1-1.3-1.6-2.9-1.6-4.5 0-1.2.3-2.4.8-3.5.5-1 1.2-1.8 2.2-2.4.9-.6 1.9-.8 3-.8 1 0 1.9.3 2.7.8-.2 1.1.6 2.2 1.8 2.4 1.1.2 2.2-.6 2.4-1.8.1-.5 0-1-.3-1.4 1.1-.8 2.4-1.2 3.7-1.1 1.9 0 3.8.8 5.1 2.2 1.4 1.5 2.2 3.5 2.1 5.5.1 1.8-.6 3.6-1.8 5-1.1 1.3-2.7 2.1-4.5 2.2zm3.3-32.6h2.7v15.1c-.7 0-1.4-.1-2-.3-1.1-.4-2.1-1.1-3-1.9-1.3-1.1-2.4-2.4-3.5-3.7-1.4-1.8-3.1-3.5-4.8-5-1-.8-2.1-1.2-3.4-1.3-1.1 0-2.1.4-2.8 1.2-.8.8-1.2 2-1.2 3.1-.1 1.2.4 2.4 1.2 3.3.9.8 2.1 1.3 3.4 1.2l-.3 2.9c-1.9-.1-3.6-.9-4.9-2.2-1.2-1.5-1.8-3.3-1.7-5.2-.1-1.9.6-3.8 1.8-5.2 1.2-1.3 2.8-2 4.5-1.9.9 0 1.8.2 2.7.6 1 .5 2 1.1 2.8 1.9 1.4 1.4 2.8 2.8 4 4.3 1.4 1.7 2.4 2.8 2.9 3.3l1.5 1.2.1-11.4zm-20.2-28v-3h13.2c1.9-.1 3.7.2 5.5.8 1.4.5 2.6 1.5 3.3 2.8.9 1.6 1.4 3.5 1.3 5.4.1 1.8-.3 3.6-1.1 5.3-.7 1.3-1.8 2.4-3.2 2.9-1.8.7-3.8 1-5.7.9H1153v-3h13.2c1.5.1 3-.1 4.4-.6.9-.4 1.7-1 2.2-1.9.5-1 .8-2.2.8-3.3 0-2.2-.5-3.8-1.5-4.8s-3-1.4-5.8-1.4l-13.3-.1zm22.9-8.1H1153V417l18-12h-18v-2.9h22.9v3.1l-18 12h18v2.9zm-6.8-21.7h-2.8v-8.6h2.8v8.6zm4.1-25.7h2.7v15.1c-.7 0-1.4-.1-2-.3-1.1-.4-2.1-1.1-3-1.9-1.3-1.1-2.4-2.4-3.5-3.7-1.4-1.8-3.1-3.5-4.8-5-1-.8-2.1-1.3-3.4-1.3-1.1 0-2.1.4-2.8 1.2-.8.8-1.2 2-1.2 3.1-.1 1.2.4 2.4 1.2 3.3.9.8 2.1 1.3 3.4 1.2l-.3 2.9c-1.9-.1-3.6-.9-4.9-2.2-1.2-1.5-1.8-3.3-1.7-5.2-.1-1.9.6-3.8 1.8-5.2 1.2-1.3 2.8-2 4.5-1.9.9 0 1.8.2 2.7.6 1 .5 2 1.1 2.8 1.9 1.4 1.4 2.8 2.8 4 4.3 1.4 1.7 2.4 2.8 2.9 3.3l1.5 1.2.1-11.4zm2.7-1.7l-22.9-8.8V359l22.9-9.4v3.5l-6.9 2.7v9.6l6.9 2.5v3.1zm-9.4-6.6v-7.8l-6.3 2.4c-1.9.7-3.5 1.3-4.8 1.6 1.5.3 3 .7 4.4 1.2l6.7 2.6zm54.6 140.8c-2.1 1.6-4.4 3-6.9 3.9-4.9 2-10.3 2.1-15.3.4-2.8-1-5.5-2.5-7.9-4.3v-2c2.2 1.3 3.7 2.1 4.6 2.5 1.4.6 3 1.1 4.5 1.5 1.9.4 3.9.7 5.9.7 5.3-.1 10.5-1.7 15-4.7l.1 2zm-14.8-22l.8-3c2.2.5 4.2 1.7 5.7 3.4 1.3 1.7 2.1 3.9 2 6.1.1 2.1-.4 4.2-1.5 6-1.1 1.6-2.6 2.8-4.4 3.5-1.9.8-4 1.2-6.1 1.2-2.2.1-4.3-.4-6.3-1.4-1.7-.9-3.1-2.2-4-3.9-.9-1.7-1.4-3.6-1.4-5.5-.1-2.1.5-4.1 1.8-5.8 1.2-1.6 3-2.8 4.9-3.3l.7 3c-1.4.4-2.7 1.2-3.6 2.3-.8 1.1-1.2 2.4-1.1 3.8-.1 1.6.4 3.1 1.3 4.4.8 1.2 2 2.1 3.4 2.5 1.4.5 2.9.7 4.4.7 1.7 0 3.5-.3 5.1-.9 1.4-.5 2.5-1.4 3.3-2.6.7-1.2 1.1-2.5 1.1-3.9 0-1.6-.5-3.1-1.5-4.3-1.3-1.2-2.9-2-4.6-2.3zm1.2-5.3h-2.8v-8.6h2.8v8.6zm6.8-12h-22.9v-4.6l16.2-5.4c1.5-.5 2.6-.9 3.4-1.1-.8-.3-2-.7-3.7-1.2l-15.9-5.5V444h22.9v3h-19.2l19.2 6.6v2.7l-19.5 6.6h19.5v3zm-8.3-25.4c-3.1 0-5.3-.9-6.8-2.6-1.2-1.5-1.9-3.3-1.8-5.2-.1-2.1.7-4.1 2.2-5.6 1.7-1.5 3.9-2.3 6.2-2.2 1.7-.1 3.4.3 5 1 1.2.6 2.2 1.6 2.8 2.8.7 1.2 1 2.6 1 4 .1 2.1-.7 4.2-2.2 5.6-1.4 1.5-3.6 2.2-6.4 2.2zm0-2.9c1.7.1 3.4-.4 4.8-1.4 1.9-1.7 2.1-4.6.4-6.6-.1-.2-.3-.3-.4-.4-1.4-1-3.1-1.5-4.9-1.4-1.7-.1-3.3.4-4.7 1.4-1.9 1.7-2.1 4.6-.5 6.5.1.2.3.3.5.5 1.4 1.1 3.1 1.6 4.8 1.4zm8.3-26.8h-2.4c1.8 1.1 2.9 3.1 2.8 5.3 0 .9-.2 1.9-.6 2.7-.3.7-.8 1.4-1.4 1.9-.6.4-1.3.7-2.1.9-.9.1-1.7.2-2.6.2h-10.3V419h9.2c1 0 2 0 3-.2.7-.1 1.3-.5 1.7-1.1.4-.6.7-1.4.6-2.1 0-.8-.2-1.7-.6-2.4-.4-.7-1-1.3-1.8-1.6-1-.4-2.1-.5-3.2-.5h-8.9v-2.8h16.6v2.5zm0-6.9h-16.6v-2.5h2.4c-1.8-1.2-2.8-3.2-2.7-5.3 0-.9.2-1.9.5-2.8.3-.7.8-1.4 1.4-1.9.6-.4 1.3-.7 2.1-.9.9-.1 1.8-.2 2.7-.1h10.2v2.8h-10.1c-.9 0-1.7.1-2.6.3-.6.2-1.1.6-1.4 1.2-.4.6-.5 1.3-.5 2 0 1.1.4 2.2 1.1 3.1.8.9 2.2 1.3 4.3 1.3h9.1l.1 2.8zm-2.5-23.9l2.5-.4c.2.7.2 1.4.3 2.1 0 .8-.1 1.6-.5 2.4-.3.5-.7.9-1.3 1.2-1.1.3-2.2.4-3.3.4h-9.6v2.1h-2.2v-2.1h-4.1l-1.7-2.8h5.8V380h2.2v2.8h9.7c.5 0 1 0 1.5-.1.2-.1.4-.3.6-.5.2-.3.2-.7.2-1 0-.4 0-.8-.1-1.2zm9.3-4.6v2c-4.5-2.9-9.7-4.6-15-4.7-2 0-3.9.2-5.8.7-1.5.4-3.1.9-4.5 1.5-1.6.8-3.2 1.6-4.7 2.5v-2c2.4-1.8 5-3.3 7.9-4.4 5-1.7 10.4-1.6 15.3.4 2.4 1 4.7 2.3 6.8 4z"/></g></g></svg>