<svg style="background-color:#fff" version="1.1" id="Ebene_1" xmlns="http://www.w3.org/2000/svg" x="0" y="0" viewBox="0 0 322.8 171.8" xml:space="preserve"><style>.st4{fill:none;stroke:#1d1d1b}.st8{fill:#1d1d1b}.st9{font-family:Helvetica,Arial,sans-serif}.st10{font-size:8px}.st11{font-size:9px}.st12,.st13{fill:none;stroke:#1d1d1b;stroke-width:2;stroke-linecap:round}.st13{stroke-dasharray:4}</style><linearGradient id="SVGID_1_" gradientUnits="userSpaceOnUse" x1="61.108" y1="144.688" x2="61.108" y2="144.688"><stop offset="0" stop-color="#fff"/><stop offset="1"/></linearGradient><path fill="url(#SVGID_1_)" stroke="#1d1d1b" d="M61.1 141.3v6.8"/><linearGradient id="SVGID_2_" gradientUnits="userSpaceOnUse" x1="176.472" y1="144.688" x2="176.472" y2="144.688"><stop offset="0" stop-color="#fff"/><stop offset="1"/></linearGradient><path fill="url(#SVGID_2_)" stroke="#1d1d1b" d="M176.5 141.3v6.8"/><linearGradient id="SVGID_3_" gradientUnits="userSpaceOnUse" x1="118.79" y1="144.688" x2="118.79" y2="144.688"><stop offset="0" stop-color="#fff"/><stop offset="1"/></linearGradient><path fill="url(#SVGID_3_)" stroke="#1d1d1b" d="M118.8 141.3v6.8"/><linearGradient id="SVGID_4_" gradientUnits="userSpaceOnUse" x1="89.949" y1="144.688" x2="89.949" y2="144.688"><stop offset="0" stop-color="#fff"/><stop offset="1"/></linearGradient><path fill="url(#SVGID_4_)" stroke="#1d1d1b" d="M89.9 141.3v6.8"/><path class="st4" d="M205.3 141.3v6.8"/><linearGradient id="SVGID_5_" gradientUnits="userSpaceOnUse" x1="147.631" y1="144.688" x2="147.631" y2="144.688"><stop offset="0" stop-color="#fff"/><stop offset="1"/></linearGradient><path fill="url(#SVGID_5_)" stroke="#1d1d1b" d="M147.6 141.3v6.8"/><linearGradient id="SVGID_6_" gradientUnits="userSpaceOnUse" x1="234.154" y1="144.688" x2="234.154" y2="144.688"><stop offset="0" stop-color="#fff"/><stop offset="1"/></linearGradient><path fill="url(#SVGID_6_)" stroke="#1d1d1b" d="M234.2 141.3v6.8"/><path class="st4" d="M24.4 141h297"/><linearGradient id="SVGID_7_" gradientUnits="userSpaceOnUse" x1="320.677" y1="144.688" x2="320.677" y2="144.688"><stop offset="0" stop-color="#fff"/><stop offset="1"/></linearGradient><path fill="url(#SVGID_7_)" stroke="#1d1d1b" d="M320.7 141.3v6.8"/><text transform="translate(146.86 169.163)" class="st8 st9 st10">Image Height [mm]</text><path class="st8" d="M319.8 153.9c-.3-.1-.6-.3-.7-.5-.2-.2-.2-.5-.2-.8 0-.5.2-.9.5-1.2.3-.3.8-.5 1.3-.5.6 0 1 .2 1.4.5.3.3.5.7.5 1.2 0 .3-.1.6-.2.8-.2.2-.4.4-.7.5.4.1.7.3.9.6.2.3.3.6.3 1 0 .5-.2 1-.6 1.4-.4.4-.9.6-1.5.6s-1.1-.2-1.5-.6c-.4-.4-.6-.8-.6-1.4 0-.4.1-.8.3-1.1.1-.2.4-.4.8-.5zm-.4 1.6c0 .2.1.4.2.7.1.2.3.4.5.5.2.1.4.2.7.2.4 0 .7-.1.9-.4.2-.2.4-.6.4-.9 0-.4-.1-.7-.4-.9-.3-.2-.6-.4-1-.4s-.7.1-.9.4c-.3.2-.4.5-.4.8zm.2-2.9c0 .3.1.6.3.7.2.2.4.3.8.3.3 0 .6-.1.7-.3.2-.2.3-.4.3-.7 0-.3-.1-.5-.3-.7-.2-.2-.4-.3-.7-.3-.3 0-.6.1-.8.3-.2.2-.3.4-.3.7z"/><path class="st4" d="M31.7 11.8h-7.2m7.2 31.3h-7.2m7.2 32.6h-7.2m7.2 31.3h-7.2"/><path class="st8" d="M32.7 154.2c0-.8.1-1.4.2-1.8.2-.5.4-.8.7-1.1.3-.3.7-.4 1.2-.4.3 0 .6.1.9.2.3.1.5.3.6.6.2.3.3.6.4 1 .1.4.1.9.1 1.5 0 .8-.1 1.4-.2 1.8-.2.5-.4.8-.7 1.1-.3.3-.7.4-1.2.4-.6 0-1.1-.2-1.5-.7-.3-.5-.5-1.4-.5-2.6zm.8 0c0 1.1.1 1.8.4 2.1.2.3.6.5.9.5.4 0 .7-.2.9-.5.2-.4.4-1.1.4-2.1 0-1.1-.1-1.8-.4-2.1-.2-.3-.6-.5-.9-.5-.4 0-.7.2-.9.5-.3.3-.4 1.1-.4 2.1z"/><path class="st4" d="M32.3 11.8V149"/><text transform="translate(16.782 143.532)" class="st8 st9 st11">0</text><text transform="translate(12.532 110.616)" class="st8 st9 st11">20</text><text transform="translate(12.2 78.95)" class="st8 st9 st11">40</text><text transform="translate(12.032 46.616)" class="st8 st9 st11">60</text><text transform="translate(12.032 14.45)" class="st8 st9 st11">80</text><text transform="rotate(-90 49.907 43.042)" class="st8 st9 st10">SFR [%]</text><text transform="translate(66.866 122.282)" class="st8 st9 st11">Sagittal</text><text transform="translate(66.866 133.783)" class="st8 st9 st11">Tangential</text><path class="st4" d="M41 110.3h73.5v27.8H41z"/><path class="st12" d="M45.5 118.6h16.9"/><path class="st13" d="M45.4 130.1h16.8"/><text transform="translate(43.532 24.78)" class="st8 st9 st10">45 LP/mm</text><text transform="translate(105.866 24.448)" class="st8 st9 st10">55 LP/mm</text><text transform="translate(43.866 67.28)" class="st8 st9 st10">64 LP/mm</text><path class="st4" d="M41.5 22.6l-6 8"/><path class="st8" d="M34.5 28.6l.9-.1.2 2 2-.3.2.8-2.9.4z"/><path class="st4" d="M100.5 21.9l-57.6 21"/><path class="st8" d="M43.1 40.7l.8.4-.9 1.8 1.9.8-.4.8-2.6-1.2z"/><path class="st4" d="M41.6 62.4l-5.8-6.5"/><path class="st8" d="M38 55.3l-.1.8-2-.1-.1 2H35l.1-2.9z"/><linearGradient id="SVGID_8_" gradientUnits="userSpaceOnUse" x1="291.836" y1="144.688" x2="291.836" y2="144.688"><stop offset="0" stop-color="#fff"/><stop offset="1"/></linearGradient><path fill="url(#SVGID_8_)" stroke="#1d1d1b" d="M291.8 141.3v6.8"/><linearGradient id="SVGID_9_" gradientUnits="userSpaceOnUse" x1="262.995" y1="144.688" x2="262.995" y2="144.688"><stop offset="0" stop-color="#fff"/><stop offset="1"/></linearGradient><path fill="url(#SVGID_9_)" stroke="#1d1d1b" d="M263 141.3v6.8"/><linearGradient id="SVGID_10_" gradientUnits="userSpaceOnUse" x1="32.268" y1="144.688" x2="32.268" y2="144.688"><stop offset="0" stop-color="#fff"/><stop offset="1"/></linearGradient><path fill="url(#SVGID_10_)" stroke="#1d1d1b" d="M32.3 141.3v6.8"/><path class="st12" d="M33 34.3s118 17 172.5 6.5c0 0 50.5-7 58.5-3.5s12-.5 57.5 16.5"/><path class="st12" d="M32.5 43.8s117.2 20.8 170.8 9.5c0 0 48.1-6.2 57.6-3.8 9.5 2.4 17 1.4 60.1 12.3" opacity=".49"/><path d="M32.5 48.3s114.8 27.5 172.2 13.5c0 0 41.4-7.5 53.9-4s29 5 62.9 10.5" opacity=".2" fill="none" stroke="#1d1d1b" stroke-width="2" stroke-linecap="round"/><path class="st13" d="M32.5 34.3S169.2 47.4 177.3 58c0 0 13 4.2 30.6-2.1 0 0 15-4.7 25-1.1 10 3.7 67.1 10 88.7 41"/><path d="M32.5 44.3s136.7 13.8 144.8 24.8c0 0 13 4.4 30.6-2.2 0 0 15-5 25-1.1s67.1 10.5 88.7 43" opacity=".49" fill="none" stroke="#1d1d1b" stroke-width="2" stroke-linecap="round" stroke-dasharray="4"/><path d="M32.5 49.3S166.4 66.6 176 76.2c0 0 34.7 6.1 49.8-4.6 0 0 5-3 8.6-1 3.5 2 7.6 1 7.6 1s66.5 15.7 79.6 42.7" opacity=".2" fill="none" stroke="#1d1d1b" stroke-width="2" stroke-linecap="round" stroke-dasharray="4"/></svg>