<svg style="background-color:#fff" version="1.1" id="Ebene_1" xmlns="http://www.w3.org/2000/svg" x="0" y="0" viewBox="0 0 330.9 146.3" xml:space="preserve"><style>.st0{fill:none;stroke:#1d1d1b}.st1{fill:#1d1d1b}.st2{font-family:Helvetica,Arial,sans-serif}.st3{font-size:8px}.st4{font-size:9px}</style><path class="st0" d="M33.5 116.1h297"/><text transform="translate(147.444 143.673)" class="st1 st2 st3">Image Height [mm]</text><path class="st0" d="M40.4 4.9v118.2m-6.9-63.7h297M40.1 4.6h-7.2m7.2 27.1h-7.2m7.2 56.7h-7.2"/><path class="st1" d="M18 59.4c0-.8.1-1.4.2-1.8.2-.5.4-.8.7-1.1.3-.3.7-.4 1.2-.4.3 0 .6.1.9.2.3.1.5.3.6.6.2.3.3.6.4 1 .1.4.1.9.1 1.5 0 .8-.1 1.4-.2 1.8-.2.5-.4.8-.7 1.1-.3.3-.7.4-1.2.4-.6 0-1.1-.2-1.5-.7-.3-.5-.5-1.4-.5-2.6zm.8 0c0 1.1.1 1.8.4 2.1.2.3.6.5.9.5.4 0 .7-.2.9-.5.2-.4.4-1.1.4-2.1 0-1.1-.1-1.8-.4-2.1-.2-.3-.6-.5-.9-.5-.4 0-.7.2-.9.5-.3.3-.4 1-.4 2.1zm4.6 3.2v-.9h.9v.9h-.9zm2.1-3.2c0-.8.1-1.4.2-1.8.2-.5.4-.8.7-1.1.3-.3.7-.4 1.2-.4.3 0 .6.1.9.2.3.1.5.3.6.6.2.3.3.6.4 1 .1.4.1.9.1 1.5 0 .8-.1 1.4-.2 1.8-.2.5-.4.8-.7 1.1-.3.3-.7.4-1.2.4-.6 0-1.1-.2-1.5-.7-.3-.5-.5-1.4-.5-2.6zm.8 0c0 1.1.1 1.8.4 2.1.2.3.6.5.9.5.4 0 .7-.2.9-.5.2-.4.4-1.1.4-2.1 0-1.1-.1-1.8-.4-2.1-.2-.3-.6-.5-.9-.5-.4 0-.7.2-.9.5-.3.3-.4 1-.4 2.1z"/><text transform="rotate(-90 53.627 46.762)" class="st1 st2 st3">Optical Distortion [%]</text><text transform="translate(46.865 107.64)" class="st1 st2 st4">Simulated WD = 1.0 m</text><path class="st0" d="M44.6 97.6h95v15h-95z"/><text transform="translate(15.785 119.056)" class="st1 st2 st4">-4.0</text><text transform="translate(15.785 92.056)" class="st1 st2 st4">-2.0</text><text transform="translate(18.782 35.39)" class="st1 st2 st4">2.0</text><text transform="translate(18.782 7.723)" class="st1 st2 st4">4.0</text><linearGradient id="SVGID_1_" gradientUnits="userSpaceOnUse" x1="69.191" y1="120.296" x2="69.191" y2="120.296"><stop offset="0" stop-color="#fff"/><stop offset="1"/></linearGradient><path fill="url(#SVGID_1_)" stroke="#1d1d1b" d="M69.2 116.9v6.8"/><linearGradient id="SVGID_2_" gradientUnits="userSpaceOnUse" x1="184.555" y1="120.296" x2="184.555" y2="120.296"><stop offset="0" stop-color="#fff"/><stop offset="1"/></linearGradient><path fill="url(#SVGID_2_)" stroke="#1d1d1b" d="M184.6 116.9v6.8"/><linearGradient id="SVGID_3_" gradientUnits="userSpaceOnUse" x1="126.874" y1="120.296" x2="126.874" y2="120.296"><stop offset="0" stop-color="#fff"/><stop offset="1"/></linearGradient><path fill="url(#SVGID_3_)" stroke="#1d1d1b" d="M126.9 116.9v6.8"/><linearGradient id="SVGID_4_" gradientUnits="userSpaceOnUse" x1="98.032" y1="120.296" x2="98.032" y2="120.296"><stop offset="0" stop-color="#fff"/><stop offset="1"/></linearGradient><path fill="url(#SVGID_4_)" stroke="#1d1d1b" d="M98 116.9v6.8"/><path class="st0" d="M213.4 116.9v6.8"/><linearGradient id="SVGID_5_" gradientUnits="userSpaceOnUse" x1="155.714" y1="120.296" x2="155.714" y2="120.296"><stop offset="0" stop-color="#fff"/><stop offset="1"/></linearGradient><path fill="url(#SVGID_5_)" stroke="#1d1d1b" d="M155.7 116.9v6.8"/><linearGradient id="SVGID_6_" gradientUnits="userSpaceOnUse" x1="242.237" y1="120.296" x2="242.237" y2="120.296"><stop offset="0" stop-color="#fff"/><stop offset="1"/></linearGradient><path fill="url(#SVGID_6_)" stroke="#1d1d1b" d="M242.2 116.9v6.8"/><linearGradient id="SVGID_7_" gradientUnits="userSpaceOnUse" x1="328.76" y1="120.296" x2="328.76" y2="120.296"><stop offset="0" stop-color="#fff"/><stop offset="1"/></linearGradient><path fill="url(#SVGID_7_)" stroke="#1d1d1b" d="M328.8 116.9v6.8"/><path class="st1" d="M327.9 129.5c-.3-.1-.6-.3-.7-.5-.2-.2-.2-.5-.2-.8 0-.5.2-.9.5-1.2.3-.3.8-.5 1.3-.5.6 0 1 .2 1.4.5.3.3.5.7.5 1.2 0 .3-.1.6-.2.8-.2.2-.4.4-.7.5.4.1.7.3.9.6.2.3.3.6.3 1 0 .5-.2 1-.6 1.4-.4.4-.9.6-1.5.6s-1.1-.2-1.5-.6c-.4-.4-.6-.8-.6-1.4 0-.4.1-.8.3-1.1.1-.2.4-.4.8-.5zm-.4 1.6c0 .2.1.4.2.7.1.2.3.4.5.5.2.1.4.2.7.2.4 0 .7-.1.9-.4.2-.2.4-.6.4-.9 0-.4-.1-.7-.4-.9-.3-.2-.6-.4-1-.4s-.7.1-.9.4c-.3.2-.4.5-.4.8zm.2-2.9c0 .3.1.6.3.7.2.2.4.3.8.3.3 0 .6-.1.7-.3.2-.2.3-.4.3-.7 0-.3-.1-.5-.3-.7-.2-.2-.4-.3-.7-.3-.3 0-.6.1-.8.3-.2.2-.3.4-.3.7zm-287 1.6c0-.8.1-1.4.2-1.8.2-.5.4-.8.7-1.1.3-.3.7-.4 1.2-.4.3 0 .6.1.9.2.3.1.5.3.6.6.2.3.3.6.4 1 .1.4.1.9.1 1.5 0 .8-.1 1.4-.2 1.8-.2.5-.4.8-.7 1.1-.3.3-.7.4-1.2.4-.6 0-1.1-.2-1.5-.7-.2-.5-.5-1.4-.5-2.6zm.9 0c0 1.1.1 1.8.4 2.1.2.3.6.5.9.5.4 0 .7-.2.9-.5.2-.4.4-1.1.4-2.1 0-1.1-.1-1.8-.4-2.1-.2-.3-.6-.5-.9-.5-.4 0-.7.2-.9.5-.3.3-.4 1.1-.4 2.1z"/><linearGradient id="SVGID_8_" gradientUnits="userSpaceOnUse" x1="299.919" y1="120.296" x2="299.919" y2="120.296"><stop offset="0" stop-color="#fff"/><stop offset="1"/></linearGradient><path fill="url(#SVGID_8_)" stroke="#1d1d1b" d="M299.9 116.9v6.8"/><linearGradient id="SVGID_9_" gradientUnits="userSpaceOnUse" x1="271.078" y1="120.296" x2="271.078" y2="120.296"><stop offset="0" stop-color="#fff"/><stop offset="1"/></linearGradient><path fill="url(#SVGID_9_)" stroke="#1d1d1b" d="M271.1 116.9v6.8"/><linearGradient id="SVGID_10_" gradientUnits="userSpaceOnUse" x1="40.351" y1="120.296" x2="40.351" y2="120.296"><stop offset="0" stop-color="#fff"/><stop offset="1"/></linearGradient><path fill="url(#SVGID_10_)" stroke="#1d1d1b" d="M40.4 116.9v6.8"/><path d="M328.8 113.1l-30-6.9c-15.2-3.5-39.9-9.7-55-13.8l-4.6-1.3c-15-4.1-39.7-10.5-54.9-14.3l-2-.5c-15.1-3.8-40.1-8.8-55.5-11.1l-1.9-.3c-15.4-2.3-40.6-4.4-55.9-4.6-15.3-.2-27.8-.3-27.8-.3" fill="none" stroke="#1d1d1b" stroke-width="2" stroke-linecap="round"/></svg>