<svg version="1.1" id="Ebene_1" xmlns="http://www.w3.org/2000/svg" x="0" y="0" viewBox="0 0 863 372.8" style="background-color:#fff" xml:space="preserve"><style>.st1,.st5,.st6{fill:none;stroke:#000;stroke-linecap:round;stroke-linejoin:round}.st1{stroke-miterlimit:10;stroke-width:.4252}.st5{stroke-width:.2835}.st6{stroke-width:.283;stroke-miterlimit:10}.st7{font-family:Helvetica,Arial,sans-serif}.st8{font-size:14px}</style><g id="BCR-50x"><path class="st1" d="M230.1 221.3v1.4m0-1.4h4.6m-4.6 82.5v1.4m0 0h4.6m-4.6-1.4v-6.2m0-68.6v-6.3m0 6.3v1.4m0 65.7v1.5m4.6-67.2h-4.6m0 65.7v-65.7m186.8-7.7v81.1m0-81.1v-1.4m-4.5 0h4.5m-4.5 83.9h4.5m0 0v-1.4m-4.5-52.6v1.4m-177.7 0v-1.4m177.7-11.3v1.4m-177.7 0v-1.4m177.7-5.7v1.4m-177.7 0v-1.4m177.7 25.5v1.4m-177.7 0v-1.4m177.7-2.8v1.4m-177.7 0v-1.4m177.7-25.5v1.4m-177.7 0v-1.4m177.7 14.1v1.5m-177.7 0v-1.5m177.7-2.8v1.4m-177.7 0v-1.4m177.7 31.2v1.4m-177.7 0v-1.4m177.7-5.7v1.4m-177.7 0v-1.4m177.7 2.9v1.4m-177.7 0v-1.4M412.4 237v1.5m-177.7 0V237m177.7 17v1.5m-177.7 0V254m177.7 11.4v1.4m-177.7 0v-1.4m177.7-2.8v1.4m-177.7 0v-1.4m177.7-14.2v1.4m-177.7 0v-1.4m177.7 28.3v1.4m-177.7 0v-1.4m177.7 2.9v1.4m-177.7 0v-1.4m177.7 2.8v1.4m-177.7 0v-1.4m177.7 8.5v1.4m-177.7 0v-1.4m177.7-5.7v1.4m-177.7 0v-1.4m177.7 2.9v1.4m-177.7 0v-1.4m177.7 5.6v1.5m-177.7 0v-1.5m177.7-45.3V247m0 0H234.7m0 0v1.4m177.7-8.5v-1.4m0 0H234.7m0 0v1.4m177.7 5.6v-1.4m0 0H234.7m0 0v1.4m177.7-8.5v-1.4m0 0H234.7m0 0v1.4m177.7-5.6v-9.2m-177.7 9.2v-9.2m177.7 20.5v-1.4m0 0H234.7m0 0v1.4m177.7-20.5v-1.5m-177.7 0v1.5m177.7 0H234.7m0-1.5h177.7m0 33.3v-1.4m0 0H234.7m0 0v1.4m177.7-2.8v-1.4m0 0H234.7m0 0v1.4m177.7 5.7v-1.4m0 0H234.7m0 0v1.4m177.7-22.7v-1.4m0 0H234.7m0 0v1.4m177.7 25.5v-1.4m0 0H234.7m0 0v1.4m177.7 2.9v-1.5m0 0H234.7m0 0v1.5m177.7 9.9v1.4m-177.7-1.4h177.7m-177.7 1.4v-1.4m177.7 5.6v1.5m-177.7-1.5h177.7m-177.7 1.5v-1.5m177.7-8.5v1.5m-177.7-1.5h177.7m-177.7 1.5v-1.5m177.7 5.7v1.4m-177.7-1.4h177.7m-177.7 1.4v-1.4M412.4 264v1.4M234.7 264h177.7m-177.7 1.4V264m177.7 2.8v1.4m-177.7-1.4h177.7m-177.7 1.4v-1.4m177.7 22.7v1.4m-177.7-1.4h177.7m-177.7 1.4v-1.4m177.7-8.5v1.4M234.7 281h177.7m-177.7 1.4V281m177.7 2.8v1.4m-177.7-1.4h177.7m-177.7 1.4v-1.4m177.7 8.5v1.4m-177.7-1.4h177.7m-177.7 1.4v-1.4m177.7-5.7v1.5m-177.7-1.5h177.7m-177.7 1.5v-1.5m177.7 19.2v-1.4m-177.7 0v1.4m0 0h177.7m-177.7-1.4v-9.2m177.7 9.2v-9.2m-177.7 0h177.7m5.4-4.3h-.9m.9-48.2h-.9m.9 0v48.2m246.7.4v-49m4.6-4.5h1.7m-2.3 4.2v-4.2m0 0h2.9m-3.7-.9l.8.9m2.9 4.2h-2.9m-.8.9l.8-.9m2.9-4.2v4.2m.8.9l-.8-.9m0-4.2l.8-.9m-4.5 6v-6m0 0h4.5m0 0v6m0 0h-4.5m-26.1-.6h23.2m0 0v49m0 0h-23.2m0 0v-49m45.2-20.1v82.2m-1.4-83.7l.3.1.2.1.3.1.2.2.2.2.1.2.1.3v.3m-5-1.5h3.6m-3.6 0v.6h-1.4v-.6m-1.4 0h1.4m-1.4 0v.6h-1.4v-.6m-10.6 0h10.6m-10.6 0v.6h-1.5v-.6m-1.4 0h1.4m-1.4 0v.6h-1.4v-.6m-1.4 0h1.4m-1.4 0v.6h-1.4v-.6m-1.5 0h1.5m-1.5 0v.6H657v-.6m-1.4 0h1.4m-1.4 0v.6h-1.4v-.6m-8.9 0h8.9m-8.9 0v.6h-7.4v-.6m-6.4 0h6.4m-7.8 1.5v-.3l.1-.3.1-.2.2-.2.2-.2.3-.1.2-.1.3-.1m-1.4 10.7v-9.2m0 9.2h.7m0 0h.3l.2.2.2.2v.6l-.2.2-.2.1-.3.1m0 0h-.7m0 1.4v-1.4m0 1.4h.7m0 0l.3.1.2.1.2.2v.6l-.2.2-.2.2h-.3m0 0h-.7m0 1.4v-1.4m0 1.4h.7m0 0l.3.1.2.1.2.3v.5l-.2.3-.2.1-.3.1m0 0h-.7m0 1.4v-1.4m0 1.4h.7m0 0h.3l.2.2.2.2v.6l-.2.2-.2.1-.3.1m0 0h-.7m0 1.4v-1.4m0 1.4h.7m0 0l.3.1.2.1.2.2v.6l-.2.2-.2.2h-.3m0 0h-.7m0 1.4v-1.4m0 1.4h.7m0 0l.3.1.2.2.2.2v.5l-.2.3-.2.1-.3.1m0 0h-.7m0 1.4V247m0 1.4h.7m0 0h.3l.2.2.2.2v.6l-.2.2-.2.1-.3.1m0 0h-.7m0 1.4v-1.4m0 1.4h.7m0 0l.3.1.2.1.2.3v.5l-.2.2-.2.2h-.3m0 0h-.7m0 1.4v-1.4m0 1.4h.7m0 0l.3.1.2.2.2.2v.5l-.2.3-.2.1-.3.1m0 0h-.7m0 1.4v-1.4m0 1.4h.7m0 0h.3l.2.2.2.2v.6l-.2.2-.2.1-.3.1m0 0h-.7m0 1.4v-1.4m0 1.4h.7m0 0l.3.1.2.1.2.3v.5l-.2.2-.2.2h-.3m0 0h-.7m0 1.5v-1.5m0 1.5h.7m0 0h.3l.2.2.2.2v.5l-.2.3-.2.1-.3.1m-.7 0h.7m-.7 0v1.4m.7 0h-.7m.7 0h.3l.2.2.2.2v.6l-.2.2-.2.2h-.3m-.7 0h.7m-.7 0v1.4m.7 0h-.7m.7 0l.3.1.2.1.2.3v.5l-.2.2-.2.2h-.3m-.7 0h.7m-.7 0v1.5m.7 0h-.7m.7 0h.3l.2.2.2.2v.5l-.2.3-.2.1-.3.1m-.7 0h.7m-.7 0v1.4m.7 0h-.7m.7 0h.3l.2.2.2.2v.6l-.2.2-.2.2h-.3m-.7 0h.7m-.7 0v1.4m.7 0h-.7m.7 0l.3.1.2.1.2.3v.5l-.2.2-.2.2h-.3m-.7 0h.7m-.7 0v1.5m.7 0h-.7m.7 0h.3l.2.2.2.2v.5l-.2.3-.2.1-.3.1m-.7 0h.7m-.7 0v1.4m.7 0h-.7m.7 0l.3.1.2.1.2.2v.6l-.2.2-.2.2h-.3m-.7 0h.7m-.7 0v1.4m.7 0h-.7m.7 0l.3.1.2.1.2.3v.5l-.2.2-.2.2h-.3m-.7 0h.7m-.7 0v1.5m.7 0h-.7m.7 0h.3l.2.2.2.2v.5l-.2.3-.2.1-.3.1m-.7 0h.7m-.7 0v1.4m.7 0h-.7m.7 0l.3.1.2.1.2.2v.6l-.2.2-.2.2h-.3m-.7 0h.7m-.7 0v1.4m.7 0h-.7m.7 0l.3.1.2.1.2.3v.5l-.2.2-.2.2-.3.1m-.7 0h.7m-.7 9.2v-9.2m1.4 10.6h-.3l-.2-.1-.3-.2-.2-.1-.2-.2-.1-.3-.1-.3v-.2m7.8 1.4h-6.4m13.8 0v-.6h-7.4v.6m16.3 0h-8.9m10.3 0v-.6h-1.4v.6m1.4 0h1.4m1.4 0v-.6H657v.6m1.4 0h1.5m1.4 0v-.6h-1.4v.6m1.4 0h1.4m1.4 0v-.6h-1.4v.6m1.4 0h1.4m1.5 0v-.6h-1.5v.6m12.1 0H667m12 0v-.6h-1.4v.6m1.4 0h1.4m1.4 0v-.6h-1.4v.6m1.4 0h3.6m1.4-1.4v.2l-.1.3-.1.3-.2.2-.2.1-.3.2-.2.1h-.3M642 242.7h-.4m20.8 6.4v-2.8m0 0v2.8m0-3.6v4.3M659 281h3.4m0 3.5v-2.8m0 0v2.8m0-3.5v4.2M642 242.7v48.2m17-5v2.2m0-2.9V281m0-31.2v-4.3m0 0v2.2m0 0v2.8m0 0v4.3m0 0v2.8m0 0v4.2m0 0v2.9m0 0v4.2m0 0v2.9m0 0v4.2m0 0v2.9m0 0v4.2m0 0v2.8m0-40.4h3.4m-15.1 0H659m0 4.3V281m3.4 0H659m3.4 4.2V281m-3.4 4.2h3.4m-3.4 0v2.9m0 0h-11.7m0-2.2v2.2m0-9.2v4.2m0-11.3v4.2m0-11.3v4.2m0-11.3v4.2m0-11.3v4.3m0-9.3v2.2m0-2.2h15.1m0 4.3v-4.3m-3.4 4.3h3.4m2-7.1H642m14 0h8.5M642 290.9h22.5m-9-40.4h3.5m0-2.8h-3.5m0 2.8h3.5m-11.7 0h3.9m-3.9 0h3.9m0-2.8h-3.9m-1.9 2.8v1.4m1.9-4.2h-1.9m0-1.4h-1.7m1.7 0v1.4m0 2.8h1.9m-1.9 1.4v-1.4m-1.7 1.4h1.7m-1.7 0v-5.6m1.7 0h-1.7m1.7 1.4v-1.4m1.9 1.4h-1.9"/><circle class="st1" cx="653.3" cy="249.1" r="2.6"/><circle class="st1" cx="653.3" cy="249.1" r="1.7"/><path class="st1" d="M652.4 248.1h2v2h-2v-2zm3.1 37.8h3.5m0-2.8h-3.5m0 2.8h3.5m-11.7 0h3.9m-3.9 0h3.9m0-2.8h-3.9m-1.9 2.8v1.4m1.9-4.2h-1.9m0-1.4h-1.7m1.7 0v1.4m0 2.8h1.9m-1.9 1.4v-1.4m-1.7 1.4h1.7m-1.7 0v-5.6m1.7 0h-1.7m1.7 1.4v-1.4m1.9 1.4h-1.9"/><circle class="st1" cx="653.3" cy="284.5" r="2.6"/><circle class="st1" cx="653.3" cy="284.5" r="1.7"/><path class="st1" d="M652.4 283.6h2v2h-2v-2zm3.1-4.7h3.5m0-2.8h-3.5m0 2.8h3.5m-11.7 0h3.9m-3.9 0h3.9m0-2.8h-3.9m-1.9 2.8v1.4m1.9-4.2h-1.9m0-1.4h-1.7m1.7 0v1.4m0 2.8h1.9m-1.9 1.4v-1.4m-1.7 1.4h1.7m-1.7 0v-5.6m1.7 0h-1.7m1.7 1.4v-1.4m1.9 1.4h-1.9"/><circle class="st1" cx="653.3" cy="277.5" r="2.6"/><circle class="st1" cx="653.3" cy="277.5" r="1.7"/><path class="st1" d="M652.4 276.5h2v2h-2v-2zm3.1-4.7h3.5m0-2.8h-3.5m0 2.8h3.5m-11.7 0h3.9m-3.9 0h3.9m0-2.8h-3.9m-1.9 2.8v1.4m1.9-4.2h-1.9m0-1.4h-1.7m1.7 0v1.4m0 2.8h1.9m-1.9 1.4v-1.4m-1.7 1.4h1.7m-1.7 0v-5.6m1.7 0h-1.7m1.7 1.4v-1.4m1.9 1.4h-1.9"/><circle class="st1" cx="653.3" cy="270.4" r="2.6"/><circle class="st1" cx="653.3" cy="270.4" r="1.7"/><path class="st1" d="M652.4 269.4h2v2h-2v-2zm3.1-4.7h3.5m0-2.8h-3.5m0 2.8h3.5m-11.7 0h3.9m-3.9 0h3.9m0-2.8h-3.9m-1.9 2.8v1.4m1.9-4.2h-1.9m0-1.4h-1.7m1.7 0v1.4m0 2.8h1.9m-1.9 1.4v-1.4m-1.7 1.4h1.7m-1.7 0v-5.6m1.7 0h-1.7m1.7 1.4v-1.4m1.9 1.4h-1.9"/><circle class="st1" cx="653.3" cy="263.3" r="2.6"/><circle class="st1" cx="653.3" cy="263.3" r="1.7"/><path class="st1" d="M652.4 262.3h2v2h-2v-2zm3.1-4.7h3.5m0-2.8h-3.5m0 2.8h3.5m-11.7 0h3.9m-3.9 0h3.9m0-2.8h-3.9m-1.9 2.8v1.4m1.9-4.2h-1.9m0-1.4h-1.7m1.7 0v1.4m0 2.8h1.9m-1.9 1.4v-1.4m-1.7 1.4h1.7m-1.7 0v-5.6m1.7 0h-1.7m1.7 1.4v-1.4m1.9 1.4h-1.9"/><circle class="st1" cx="653.3" cy="256.2" r="2.6"/><circle class="st1" cx="653.3" cy="256.2" r="1.7"/><path class="st1" d="M652.4 255.2h2v2h-2v-2zM642 242.7v48.6m35.5-70.2v-21.3m-8.5-.2v20.9m-504.9 66.7v-9.9m-33.3-23.4h9.9m70.4 23.4l.1.5.1 1-.1 1.4-.3 1.4-.5 1.5m0 0l-.5 1.1-.1 1.1.1 1 .2.7v.2m-3.5-.1l-.1-.5-.1-1 .1-1.4.3-1.5.5-1.2m0 0l.5-1.2.1-1.1-.1-.9-.2-.7-.1-.3m22.7 0h-19.1m-1 9.9h20.1m-22.7-9.9h-43.4m0 9.9h42.5m-65.9-33.3v-54m-9.9 0v54m0 0l.1 3.2.5 3.3.8 3.2 1.1 3 1.4 3 1.7 2.8 1.9 2.6 2.2 2.4 2.5 2.2 2.6 2 2.8 1.7 2.9 1.4 3.1 1.1 3.2.8 3.2.4 3.3.2m0-9.9l-2.8-.2-2.8-.5-2.7-.8-2.6-1.2-2.4-1.5-2.2-1.7-2-2-1.8-2.2-1.4-2.4-1.2-2.6-.8-2.7-.5-2.8-.2-2.8M635 195.8v.1m17.3-.1H635m17.3 2v-2m.8 2h-.8m7.6-25.8l-6.8 25.8m6.8-27.5v1.7m-3.9-1.7h3.9m-3.9-1.5v1.5m24.3-1.5H656m24.3 29.8v-29.8m-1.4 31.2l1.4-1.4m-43.9 1.4h42.5m-43.9-1.4l1.4 1.4m-1.4-4.2v2.8"/><path d="M652.3 197.8v-2H635v2.8l1.4 1.4h42.5l1.4-1.4v-29.8H656v1.5h3.9v1.7l-6.8 25.8h-.8z" fill="none"/><path class="st1" d="M661.2 173l-1.4 1.4m-3.3 16l-1.1 1.1m-6-6.7l-6 6m12.9-12.9l-4.7 4.7m-3.7-9l-5.3 5.3m11.9 13.5l-1.2 1.2m5.8-18.5l-1.2 1.2m4 21.5l-2.3 2.2m-8.5-4.2l-4.2 4.2m-8.5-4.2l-3.1 3.1m33.4-109.8l-.4.4m-11.6-1.2l-.7.8M680.3 192l-2.8 2.8m2.8-15.5l-2.8 2.8m.5-13.3l-8.5 8.5m-4.2-8.5l-4.1 4.2m-16.6-14l.2.2.1.6v.8l-.1 1-.2 1.1-.2 1.1-.3 1.1-.1.5m.3-76.8l.1.4.2 1.1.2 1 .1.8v.6l-.1.3h-.1m-.8 37.5l.2.1.3.5.2.7.2.9.1 1v1.2l-.1 1.1-.2 1.1-.2.9-.3.6-.2.4h-.3m-2.2-.7l-.2.4-.3.3-.2.1m.3-8.5l.2.1.3.5m1.9-31.6l.2.1.3.6.2.8.3 1 .2 1.1.2 1.1.1 1.1v1l-.1.8-.2.5-.2.2m-4.1-9.2l.3.1.3.5.3.7.1.2m.1 79.3l-.1.2m3.5-9.7l.1.1v.3l-.1.6-.2.8m-4.6 18.3l-.1.2-.1.2v.1m2.1-8.2v.6l-.2.7v.1m2.7-33l.2.2.2.6.1.7v1l-.1 1.1-.2 1.1-.2 1.1-.3 1-.2.8-.3.6-.2.1m-2.1-.6l-.1.2-.3.7-.3.5-.3.1m4.3-73.1l.2.8.1.6v.4h-.1m-1.2 31l.3.1.2.3.3.7.2.8.2 1.1.1 1.1v1.2l-.1 1.1-.2.9-.2.7-.3.4-.2.1m-2.4-.7l-.3.5-.2.1m-.3-8.5l.2.1.3.3.2.4m3.3 45.3l.2.3v.6l-.1.8-.2 1-.2 1.1-.1.4m-.3-76.8l.1.5.3 1.1.2 1.1.2 1.1.1 1v.8l-.1.6-.2.2m-.4 41.6l.2.2.2.4.2.8.1.9v1.1l-.1 1.1-.2 1.2-.2 1-.3.8-.2.6-.3.3-.2.1m-2.1-.8l-.1.3-.3.5-.3.2-.1.1m.7-8.5l.3.2v.1m.4 38.1v1.1l-.2.8-.1.6m1.8-73.2l.2.1.3.3.2.6.3.8.2 1 .2 1.2.1 1.1v1.1l-.1 1-.2.7-.2.5-.2.1m-2.7-.6l-.3.3m-.7-8.4l.4.2.3.6.1.2m3.6 62v.1l-.1.3-.1.6M643 179l-.2.6-.1.3m2-94.2l.1.5.1.4m6.8 72.6v2.3m0 0v2.3m-.7 3.1l.2-.7.3-1.2.2-1.2m0-4.6h-.2l-.3.3-.3.6v.1m.8-1l4.3.9m0 4.5l-4.3-.8m-.9 3.1v-.2l.3-1 .3-1.1.2-1.2.1-1v-.9m0 0v-.7l-.1-.4-.2-.1m.3-71.3v1.7m0 0v1.6m-.1-1.1l.1-.5m0 0V90l-.1-1-.2-1-.1-.4m-.1 3.7v.2l.3.5.2.3m0-3.3l-.2-1.2v-.1m.2 1.3l3-.7m1.3 3l-4.3 1m0 38.7v3.3m0 0v3.3m-2.1 1.4l.1.1.3.7.3.3.3.1.3-.3.3-.5.3-.8.2-1m0-6.6l-.2-.8-.3-.5-.3-.3-.3.1-.3.3-.3.6-.1.1m1.8.5l4.3.2m-.5 9.1l.5-.2m0-2.4l-4.3-.1"/><path class="st1" d="M650.5 139l.3-.2.3-.5.3-.7.2-1 .1-1.1v-1.2m0 0v-1.1l-.1-1-.2-.8-.3-.6-.3-.2v-.1m-4.1 8.5l.1.1.2.6.3.4.4.1.3-.2.3-.5.2-.5m.1-8.5v-.2l-.3-.5-.3-.3h-.3l-.4.3-.3.6m5.6 9.9h.3m-5.3-1.2l.2-.1m3.9-37v2.7m0 0v2.8m-1.2-.7l.4.7.3.3h.3l.2-.3m0-5.5l-.2-1.3-.3-1.1-.3-1-.2-.4m1 3.8l4.3-.7m0 5.6l-4.3.6m-.5-.8l.2-.1.2-.4.1-.6v-.9m0 0v-1l-.1-1.1-.2-1.2-.3-1-.3-.9-.2-.7-.3-.4-.2-.1m-2 8.8l.2.1.3-.1m9.9 71.1h-.2m-1.5-6.1v1.9m-5.1-3.2v.9m0 0v1m-.2.8l.1-.5.1-.8v-.5m0 0v-.1m-.1 1.9l.1-.8m0-1.9l-.2.6-.1.1m.3-.7l5.1 1.3m-.2 2.6l.2-.7m0 0l-5.1-1.3m3.9 16.3h-.2m-1.5-4.1v.9m1.7 4l-.4-.1m.3.3l-.4-.1m-6.3-6.4v.5m0 0v.5m-.3 1l.1-.6.2-.6v-.3m-2.2 8.2l.1-.2.1-.3m1.7-6.1l.1-.1.2-1"/><path class="st1" d="M646.5 192.2l-.1.4-.1.5v.2l.1-.1.1-.4.3-.7.1-.4m1.9-8.2l-.1.4m.1-.4l5.1 1.4m-.1 1.1l.1-.2m-2.5 8.8l.1-.1v-.2m2.4-8.5l-5.1-1.3m2.9-33.7v2.8m0 0v2.8m-1 3.8l.2-.5.3-1 .3-1.1.2-1.2m0-5.6l-.2-.3-.3.1-.3.3-.3.5-.1.1m1.2-.7l4.3.6m0 5.6l-4.3-.6m-1.6 3.6l.2-.1.3-.4.2-.6.3-.9.3-1.1.2-1.1.1-1.2v-1m0 0v-.9l-.1-.6-.2-.4-.2-.1m-2.6-.3v-.1l-.3-.1-.2.1m3.6-30.5v3.3m0 0v3.3m-1.8.5l.4.7.3.3.3.1.3-.3.3-.5.2-.8m0-6.6l-.2-1-.3-.8-.3-.5-.3-.2h-.3l-.3.4-.3.6-.1.1m2.1 1.4l4.3-.1m0-2.4l-.4-.2h-.1m.5 9.2l-4.3.1"/><path class="st1" d="M650.8 127.8l.3-.3.3-.6.2-.8.1-1V124m0 0v-1.2l-.1-1.1-.2-.9-.3-.8-.3-.5-.2-.2h-.1m-3.5 8.6l.3.6.4.3.3.1.3-.3.3-.6v-.2m-.1-8.5l-.2-.4-.3-.6-.3-.2-.4.1-.3.4-.2.6-.1.1m6.2-1.2l-.2-.1h-.1m-4.8 1.4l-.2-.1m9.2 51v.2m-5.1-4.5v1.7m0 0v1.6m-.6 2.1l.3-1.1.2-1 .1-.9v-.7m0 0v-.5l-.1-.1m-.3 4.4l.2-1 .2-1.2m0-3.3l-.2.3-.3.6v.1m.5-1l4.3 1m.5 5l.1-.3.2-1.2m0 0l-5.1-1.2m0-74.7v2.2m0 0v2.3m-.8-1l.3.7.3.3h.2m0-4.5l-.2-1.3-.3-1.2-.2-.7m.7 3.2l4.3-.9m0 4.6l-4.3.8m-.3-1.1l.2-.1.1-.4v-.7m0 0v-.9l-.1-1-.2-1.2-.3-1.1-.3-1v-.2m.9 49.9v3.1m0 0v3.1m-2.3 2.4l.1.2.2.6.3.4h.3l.3-.2.3-.5.3-.8.3-1 .2-1.1m0-6.2l-.2-.6-.3-.3-.3.1-.3.3-.3.6-.1.1m1.5-.2l4.3.3m-.2 9.6l.2-.4m0-2.9l-4.3-.4"/><path class="st1" d="M650.2 150l.4-.1.2-.5.3-.7.3-1 .2-1.1.1-1.1v-1.1m0 0v-1.1l-.1-.8-.2-.6-.3-.3-.1-.1m-3.3 9.6l.3-.4.3-.7v-.2m-1.7.3l.2.6.1.3m1.8-9.7l-.1-.3-.3-.4h-.3l-.3.2-.3.4m0 9l.2-.1.3-.3m.9 31.8v1m-.4 1.3v-.1l.2-1 .2-.8v-.4m-.3 2.3l.1-.2.2-1.1m4.9 2.2l.1-.7m-4.5-1.4l-.5-.1m2.9-71.8v3.2m0 0v3.1m-1.5-.2l.4.6.3.4h.3l.3-.3.2-.5m0-6.3l-.2-1.1-.3-1-.3-.8-.3-.5-.3-.2-.3.1-.3.3-.2.7-.1.1m2.3 2.4l4.3-.3m0-3l-.2-.3m.2 9.5l-4.3.4m-.7-.3l.4-.4.2-.6.1-.8v-1"/><path class="st1" d="M651.7 114v-1.2l-.1-1.1-.2-1.1-.3-1-.3-.7-.2-.4-.3-.2h-.1m-2.8 8.8l.3.4.3.2h.3l.3-.4.1-.3m-1.8-9.7l-.1.3-.2.6m1.7.3v-.2l-.3-.7-.3-.4m.2 1.3l-.3-.3h-.2m15.4 87.6v.5m17.5-106.8v-2.4M656 89.5v-1.2M677.5 200v-22.7m2.8 21.3v-29.8m-20.4 3.9v-2.4m-3.9 0v-1.5m24.3-79.3v79.3M656 89.5v79.3m0-79.3h24.3m0 79.3H656m11.8 8.5h9.7m-17.6-7H656m12.4 4.6l-8.5-2.2m7.9 4.6l.6-2.4m11.9-87.8l-1.4.3m1.4-27.7v27.4m0 111.5l-1.4 1.4m-1.4-112.3l1.4-.3m-1.4.3V58.3m1.4 29.1V58.3M677.5 200h1.4m-1.4-3.7h-14.7m-10.5-.5v2m-17.3.8v-2.8m34 2v2.2M636.4 77.6l-1.4-1.4m1.4 123.8l-1.4-1.4m0-122.4V59.7M652.3 192v3.8m0-55.6v.3m0-11.6v.6m0-11.7v.3M635 76.2v119.6m17.3 0H635m34 2h-16.7m16.7 0l.1-.1M636.4 58.3v19.3m0 0l2.4 2.3 2.5 2.4 2.8 2.2 2.7 1.6 3 1.2 3.9.9 4 .4 4 .3 4.1.2 3.9-.1 4-.5 3.8-.8m0 0V58.3M636.4 200H669m-9.1-28l-.8-.2m0-1.5v1.5m0 0l-6.8 25.4m0-5.3v5.3m0-57v.3m0-11.6v.6m0-11.7v.3m0 79.1l.8.3m5.4-18.8h-.4m.4.1l-.4-.1m.4.5l-.5-.1m-1.2-4.4v.3m-5.1-1.7v.2m0 0v.2m2.6 10.5l.1-.3.2-.5m-5.1-1.7v.1l-.2.6-.1.4.1-.2.2-.5m2.2-8.8v.2m0-.2l5.1 1.4m-5.3-.1v-.2l.1-.2v-.2l.1-.2v-.3m-2.2 8.2l.2-.3.1-.7M643 179l3.4.9 3.4.8m-.3 1.4l.3-1.4m-.3 1.4l5.1 1.3m0 0l.7-2.7m1.5-.2l-1.5.2m1.6-.5l-.1.3m.1-.3l6.3 1.7m0 0l.3-1.4m0 0l-6.3-1.7m.1-.2l-.1.2m-1.1-1.1l1.2.9m-1.2-.9l.7-2.7m0 0l-5.1-1.3m-.2.9l.2-.9m-.2.9l-3.4-1-3.4-.9M643 179l-1-.4-.7-.7-.6-.9-.2-1 .1-1 .4-1 .7-.7.9-.5 1-.3 1.1.2m0-87l.8-.3"/><path class="st1" d="M644.7 85.7l-.9.1-.8-.1-.8-.4-.7-.5-.6-.7-.3-.8-.1-.8.1-.9m2.2 1.9l-.7-.6-.4-.3m13.5 108.9l-.5-.1m-2.4.4l-.2.8-.3 1-.2.8m2.3-8.4l-.3.9-.2 1.1-.2.5m-.9 3.3l.1-.2m.8-3v-.1m-13.2 1.4l3.5.9 3.4.9m-.3 1.3l.3-1.3m-.3 1.3l5 1.4m0 0l.8-2.8m1.5-.2l-1.5.2m1.6-.4l-.1.2m.1-.2l6.3 1.6m0 0l.3-1.3m0 0l-6.3-1.7m.1-.2l-.1.2m-1.1-1.2l1.2 1m-1.2-1l.7-2.6m0 0l-5.1-1.4m-.2 1l.2-1m-.2 1l-3.4-1-3.5-.9m-1.7 6.2l-.9-.4-.8-.7-.5-.8-.2-1 .1-1.1.4-.9.7-.7.9-.6 1-.2 1 .2m18.5-11l8.2 2.2m-5.6-86.1h-.2m.2 107l-8.2-2.2m0 0v-1.7m13.8-17l-5.6 20.9m6.3 1.4h10M656 160l-4.3-.8m-.3 1.1l-6.8-1.3m0 0l-.2-.1h-.6l-1.1.2-1.1.4-.9.7-.7.9-.4 1.1-.1 1.1.2 1.1.5 1.1.8.8v.1"/><path class="st1" d="M640.4 160.6l-.7.1-1 .5-.9.7-.7.9-.4 1.1-.1 1.1.2 1.2.5 1 .8.9 1 .6.2.1m5.4-76l6.9-1.6m-11.5-4.7l-.1.2-.4 1.1-.1 1.2.3 1.2.6 1.1.9.8 1 .6 1.2.2 1.2-.1m5.8 47.4l5 .1m.4-10.7l-5.1-.2m-7.2 9.4l6.9.2m.3-8.5l-6.9-.2m-.1 0l-1.2.2-1.1.5-.9.8-.7 1-.3 1.1v1.2l.3 1.2.6 1 .9.8 1.1.5 1.1.2M638 82.4l-.8 1.1-.5 1.1-.1 1.2.2 1.2.6 1.1.9.8 1 .6.3.1m8 50.6l5 .1m-2.1-10.8l-2.7-.1m-7.1 9.5l6.9.2m-4.8-8.7H641"/><path class="st1" d="M640.9 130.4l-1.2.2-1.1.5-.9.7-.7 1-.3 1.2-.1 1.2.4 1.1.6 1.1.9.8 1.1.5 1.1.2m10.7-31.1l4.6-.7m-11.6.6l6.8-1m-8.3-7.4l-.9.3-1 .7-.8.9-.5 1.1-.2 1.2.2 1.2.5 1.1.8.9 1 .7 1.2.3h1.2m4-.5l2.2-.2m-9.6-8.6l-.7.1"/><path class="st1" d="M640.3 98.5l-1.1.3-1.1.7-.8.9-.5 1-.2 1.2.2 1.2.4 1.1.8 1 1 .7 1.2.3h1.2m-1.7 68.1l-1.2.6-.9.8-.7 1-.3 1.2.1 1.3.4 1.1.2.4m20-6.2l-.5-.4m.5 2.4l-.9-.7m-4.7-4.9l-6.9-1.8m0 0h-.2l-.2-.1h-.6l-1.2.2-1.1.5-1 .8-.6 1-.3 1.2v1.5m14.8 13.3l-.9-.7m-13.7 2.9l6.8 1.8m2.2-8.2l-6.9-1.8m-1-.2l-1.3.2-1.1.5-.9.8-.6 1-.4 1.2.1 1.2.3 1.2.7 1 .9.8 1.2.5m2.1-8.2l-.1-.1h-.3l-.1-.1h-.5m13.5 7.2l-1.1-.9m-7 5l5.1 1.3m4.6-43.4l-4.6-.7m-.2 1.1l-6.8-1m0 0h-.6l-1.2.1-1 .5-.9.7-.7 1-.4 1.1-.1 1.1.3 1.1.5 1.1.8.8 1 .6.8.3m7.7-7.6l-2.2-.3m-8.1 8.7l.7.1"/><path class="st1" d="M640.9 151.3l-1.2.2-1.1.5-.9.7-.6 1-.4 1.1-.1 1.1.3 1.2.5 1 .8.8 1 .6 1.1.3m1.1-8.4h-.3l-.1-.1h-.1m3.9-62.8l4.7-1.2m-9.9-3.9v1.4l.3 1.2.6 1.1.9.8 1 .5 1.2.2 1.2-.1m6 40.4l5.1-.2m-.4-10.7l-5 .1m-6.6 9.9l6.9-.2m-.3-8.5l-6.9.2m0 0l-1.1.2-1.1.5-.9.9-.6 1-.3 1.2v1.2l.4 1.1.7 1 .9.8 1.1.4 1.2.2m-7.1-50l-.1.4-.1 1.2.3 1.1.6 1.1.9.8 1 .6.3.1m8.1 45.6l2.7-.1m2.1-10.8l-5 .1m-6.6 9.8h1.8m4.8-8.6l-6.9.1"/><path class="st1" d="M640.7 119.4l-1.1.2-1.1.6-.9.8-.7 1-.3 1.2.1 1.2.3 1.1.7 1 .9.8 1.2.5 1.2.1m-1.7-38.4l-.3.2-1 .6-.8 1-.4 1.1-.2 1.2.2 1.2.5 1.1.8.9 1.1.6 1.1.3h.1m-.8 71l-.9.4-.9.7-.7.9-.4 1.1-.1 1.1.2 1.1.5 1 .7.9m18.7-3.8l.1-.1m.5 1.4l-.5-.4m-5.2-5.9l-6.9-1.6m0 0l-.2-.1h-.7l-1.2.2-1.2.5-.9.8-.6 1.1-.3 1.2v1.2l.4 1.2.1.2m11.6-72.7l4.3-.8m-11.4 1l6.8-1.3"/><path class="st1" d="M641 91.9l-.2.2-.7.9-.5 1.2-.1 1.2.3 1.2.5 1 .9.9 1 .6 1.2.3 1.2-.1m11.2 51.9l.2-.1m-5.9 0l.6.1m5.3-10.4l-4.9-.4m-7.7 9l6.8.6m.8-8.5l-6.8-.6m-.4 0l-1.2.2-1.1.4-.9.8-.6 1-.4 1.1-.1 1.1.3 1.2.6 1 .8.8 1 .6 1.2.3m.8-8.5h-.4m6.8-.2l-2.5-.1m-7.6 9.1l6.9.5m-5.3-9h-.9"/><path class="st1" d="M640.9 141.2l-1.2.1-1.1.5-.9.8-.7.9-.3 1.2-.1 1.1.3 1.2.6 1 .8.8 1.1.6 1.1.3m.7-8.5h-.3m13.5 43.6l-.6-.5m.6 2.8l-.7-.5m-12-7.1h-.3l-.2-.1h-.3l-1.3.2-1.1.5-.9.8-.6 1.1-.4 1.2.1 1.2.1.6m19.2-77.8h-.2m-4.7 10.7l4.9-.4m-5.3-10.4l-.6.1m-5.9 10.2l6.8-.6m-.8-8.5l-6.8.6m0 0l-1.2.3-1 .6-.9.9-.5 1.1-.3 1.2.1 1.2.5 1.1.7.9 1 .7 1.2.4 1.2.1m3.9.4l2.5-.2m-9.4-.5h.9m5.3-8.9l-6.9.5"/><path class="st1" d="M640.5 108.7l-1.1.2-1.1.6-.9.9-.5 1-.3 1.2.1 1.2.4 1.2.8.9.9.7 1.2.5h1.2m39.1-57.4l-1.4-1.4m0 0h-1.4m-41.1 0l-1.4 1.4m42.5-1.4h-41.1M657.3 178l-1.1-.8m-7 5.6l5.1 1.4m-10.5-12.6l-1.2.1-1.1.5-1 .9-.6 1-.3 1.2v1.2l.3 1.1.7 1.1 1 .7 1.1.5m2.2-8.2h-.2l-.1-.1h-.8m-1.1 8.3l6.8 1.8m2.2-8.2l-6.8-1.8m0-85.1l1.8-.5m-6.9-5.1l-.2.8V83l.3 1.2.6 1 .9.8 1.1.6 1.2.2 1.2-.2m9.5 102.8l-1.2-.9m-.9 3.3l1.5-.2M174.6 86.3l.6-.5 1.1-.5 1.1-.1 1.1.1 1.1.5.9.7m0 0l.6 1 .5 1 .1 1.2-.2 1.1-.5 1-.6.6m-37.7 94.2v.8l-.4 1.1-.6.9-.8.8-1.1.5-1.1.2m0 0l-1.2-.1-1.1-.4-.9-.7-.7-.8-.4-1.1-.2-.8m-27.4-20.9l-.7.5-1 .5-1.1.2-1.1-.1-1.1-.4-.9-.7m0 0l-.8-.9-.4-1-.2-1.1.1-1.2.5-1 .5-.7m57.6 10.2l.2.8.1 1.1-.3 1.1-.5 1-.8.8-1 .6"/><path class="st1" d="M155.9 175.8l-1.1.4h-1.2l-1.1-.3-1-.6-.7-.8-.4-.7M93 168.2l-.7.4-1.1.4h-1.1l-1.1-.3-1-.5-.8-.8m0 0l-.6-1-.3-1.1v-1.2l.3-1.1.6-.9.6-.6m20.9-70.7l-.3-.8-.2-1.1.1-1.1.4-1 .7-1 .9-.7m0 0l1.1-.4 1.1-.2 1.2.2 1 .5.9.7.5.7m-26.3 52.2H89l-1.1-.2-1-.6-.8-.8-.6-1-.3-1.1m0 0l.1-1.2.3-1.1.6-1 .8-.7 1-.6.8-.1m6-42.1l-.5-.6-.4-1.1-.1-1.1.2-1.1.5-1.1.8-.8m0 0l.9-.7 1.1-.3 1.2-.1 1.1.3 1 .5.6.6m-22.5 56.1h-.8l-1.1-.3-1-.6-.8-.8-.5-1-.3-1.2m0 0l.1-1.1.3-1.1.6-1 .9-.7 1-.5.8-.2M94.4 107l-.7-.5-.7-.9-.4-1.1v-1.1l.2-1.1.5-1.1m0 0l.7-.9 1-.6 1.1-.4h1.1l1.1.2.7.4m24.3-27.2v-.9l.2-1.1.6-1 .7-.8 1-.6 1.1-.3m0 0h1.2l1.1.3 1 .5.8.8.5 1 .2.9m-49.2 35l-.7-.5-.7-.8-.5-1-.3-1.1.1-1.2.4-1.1m0 0l.7-.9.9-.7 1-.5 1.1-.2 1.1.1.8.3m53.3-16.5l.2-.8.6-1 .8-.8 1-.5 1.1-.3 1.2.1m0 0l1.1.3.9.7.8.8.5 1 .2 1.1-.1.9m45.4 41l.9.1 1 .4.9.7.7.9.5 1 .1 1.2m0 0l-.1 1.1-.5 1.1-.7.9-.9.6-1 .4-.9.1m-37.6-58.5l.5-.7.8-.8.9-.6 1.2-.2h1.1l1.1.3m0 0l1 .7.8.8.5 1 .2 1.1-.1 1.2-.2.8m23 78.3l.6.5.7.9.4 1.1.1 1.1-.2 1.1-.5 1.1m0 0l-.7.9-1 .6-1 .4h-1.2l-1.1-.2-.7-.4m-13.2-68l.7-.5 1.1-.4 1.1-.1 1.1.3 1 .5.9.8m0 0l.6 1 .4 1.1v1.1l-.3 1.1-.5 1-.6.6m17.3 11.7l.8-.1 1.1.2 1.1.5.8.7.7 1 .3 1.1m0 0l.1 1.1-.2 1.1-.6 1.1-.7.8-1 .6-.8.2m-82.6 58.8l-.5.7-.9.7-1 .5-1.1.2-1.2-.2-1.1-.4m0 0l-.9-.7-.7-.9-.4-1.1-.1-1.1.2-1.1.3-.8m60.4 2.9l.2.8.1 1.1-.2 1.1-.5 1-.8.9-1 .6m0 0l-1.1.3h-1.1l-1.2-.2-.9-.6-.8-.8-.5-.7m-29.4-8.2l-.3.7-.7.9-.9.7-1.1.4-1.1.1-1.1-.1m0 0l-1.1-.5-.9-.7-.6-1-.4-1-.1-1.2.2-.8m56-16.8l.6.6.5 1 .3 1.1v1.2l-.4 1.1-.6.9m0 0l-.9.8-1 .5-1.1.3-1.1-.1-1.1-.4-.7-.4M182 94.4l.7-.4 1.1-.2h1.2l1 .4 1 .7.7.8m0 0l.5 1.1.2 1.1-.1 1.2-.4 1-.7.9-.6.5m-54.9 85.4l-.2.8-.5 1-.8.8-1 .6-1.1.2h-1.2"/><path class="st1" d="M126.9 190.3l-1.1-.3-1-.6-.7-.8-.6-1-.2-1.1v-.8M99 158.4l-.7.4-1.1.2h-1.1l-1.1-.4-1-.6-.7-.9m0 0l-.5-1-.2-1.2v-1.1l.4-1.1.7-.9.7-.5m53.6 23.1l.1.9-.2 1.1-.5 1-.8.9-.9.6-1.1.3m0 0l-1.2.1-1.1-.3-1-.5-.8-.8-.6-1-.2-.8m-53.3-16.5l-.8.3-1.1.1-1.1-.2-1-.4-.9-.8-.7-.9m0 0l-.4-1.1-.1-1.2.3-1.1.5-1 .7-.8.7-.5m35.8-66.2l-.2-.8.1-1.1.4-1.1.6-.9.9-.8 1.1-.4m0 0l1.1-.2 1.1.1 1.1.4.9.7.7.9.3.8M88.8 128l-.8-.2-1-.5-.8-.8-.6-1-.3-1.1-.1-1.1m0 0l.3-1.2.6-1 .8-.8 1-.5 1.1-.3h.8m13.4-38.2l-.3-.7-.2-1.1.1-1.2.4-1 .7-1 .9-.7m0 0l1.1-.4 1.2-.1 1.1.1 1 .5.9.7.5.7m-32.7 50.8l-.8-.2-1-.4-.9-.8-.6-1-.3-1.1-.1-1.1m0 0l.3-1.1.5-1.1.8-.8 1-.6 1.1-.2.8-.1m55.5-48.1l.2-.8.4-1 .7-.9.9-.7 1.1-.4 1.2-.1m0 0l1.1.2 1.1.5.8.8.6.9.4 1.1v.8M87.8 96.8l-.6-.5-.6-1-.3-1.1v-1.1l.3-1.1.6-1m0 0l.8-.8 1-.6 1.1-.3 1.1.1 1.1.3.7.5m100.2 45.7l.8.2 1 .6.7.9.6 1 .2 1.1-.1 1.2m0 0l-.3 1.1-.7.9-.8.8-1.1.4-1.1.2h-.8m-41.2-59.7l.4-.8.7-.8 1-.6 1.1-.3 1.2.1 1.1.3m0 0l1 .6.8.8.5 1 .3 1.1-.1 1.1-.2.8m7.5-8.2l.6-.6.9-.7 1.1-.3 1.1-.1 1.2.3 1 .5m0 0l.8.8.6 1 .4 1.1v1.1l-.3 1.1-.4.7m7.7 81.3l.6.6.5 1 .2 1.2-.1 1.1-.5 1.1-.6.9m0 0l-.9.7-1.1.5-1.1.2-1.1-.2-1.1-.4-.6-.6m1-67.6l.8-.3 1.1-.1 1.1.1 1.1.5.8.8.7.9m0 0l.4 1.1v1.2l-.2 1.1-.5 1-.8.8-.7.5m2.8 23.8l.8.3.9.6.8.9.4 1 .2 1.1-.1 1.2m0 0l-.4 1.1-.7.9-.9.7-1 .4-1.1.2-.9-.1m-79 31.4l-.6.6-1 .6-1.1.2h-1.2l-1.1-.4-.9-.6m0 0l-.8-.9-.5-1-.2-1.2.1-1.1.4-1 .5-.7m58.7 14.2l.1.9-.1 1.1-.5 1-.7.9-.9.7-1.1.4m0 0l-1.1.1-1.2-.1-1-.5-.9-.8-.6-.9-.3-.8m-29.1-14.4l-.5.6-.9.8-1 .4-1.2.2-1.1-.2-1.1-.4m0 0l-.9-.7-.7-.9-.4-1.1-.1-1.1.2-1.1.3-.8m58.4-3.4l.4.7.3 1.1v1.1l-.3 1.1-.6 1-.8.8m0 0l-1 .6-1.1.3h-1.2l-1-.4-1-.6-.6-.6m-59.6-71.1l-.5-.7-.5-1-.1-1.1.2-1.2.4-1 .8-.9m0 0l.9-.7 1.1-.4 1.1-.1 1.1.2 1 .5.7.5m-13.5 56.9l-.8.2h-1.2l-1-.3-1-.6-.8-.8-.5-1.1m0 0l-.3-1.1.1-1.1.3-1.1.7-1 .8-.7.8-.4m-8.8 8.4l-.8.1h-1.2l-1-.4-1-.7-.7-.9-.5-1m0 0l-.1-1.2.1-1.1.4-1.1.7-.9.9-.6.8-.4m41.7 43.8l-.4.7-.7.9-.9.6-1.1.4-1.1.1-1.2-.2m0 0l-1-.6-.9-.7-.6-1-.3-1.1v-1.1l.2-.8m-22.5-65.1l-.8-.4-.8-.7-.7-1-.3-1-.1-1.2.3-1.1m0 0l.5-1.1.8-.8 1-.6 1-.3h1.2l.8.2M112.9 76l-.2-.8v-1.1l.3-1.1.6-1 .9-.7 1-.5m0 0l1.2-.3 1.1.1 1.1.4.9.6.7.9.4.8M79.2 117l-.8-.3-.9-.7-.7-.9-.4-1.1-.1-1.1.1-1.2m0 0l.5-1 .7-.9 1-.7 1-.3 1.2-.1.8.1m47.2-26v-.9l.3-1.1.7-.9.8-.8 1.1-.5 1.1-.2m0 0l1.1.1 1.1.4 1 .6.7.9.4 1 .2.9m45.2 42.6l.8.1 1.1.4.9.7.7.9.4 1 .2 1.2m0 0l-.2 1.1-.4 1.1-.7.9-.9.6-1.1.4-.8.1m5.2-29.6l.8-.3h1.2l1 .3 1 .6.8.8.6 1m0 0l.3 1.1v1.2l-.3 1.1-.6.9-.9.8-.7.4m-45.7-39.6l.3-.8.6-.9.9-.8 1-.4 1.2-.2 1.1.1m0 0l1.1.4.9.7.7.9.5 1.1.1 1.1-.1.8m37.4 72.6l.7.3.9.8.6 1 .3 1.1v1.1l-.3 1.1m0 0l-.6 1-.8.9-1 .5-1 .3h-1.2l-.8-.3m-27.5-65.4l.6-.6 1-.6 1-.3 1.2-.1 1.1.3 1 .6m0 0l.8.8.6 1 .3 1.1v1.1l-.3 1.1-.4.7m5.6 79.5l.4.7.3 1.1v1.1l-.4 1.1-.6 1-.8.8m0 0l-1 .5-1.2.3-1.1-.1-1.1-.3-.9-.7-.6-.6m14.5-64.4l.9-.1 1.1.2 1 .4.9.7.7 1 .4 1m0 0l.1 1.2-.2 1.1-.4 1.1-.8.8-.9.6-.8.3m-44.9 53.6l-.2.8-.4 1-.7.9-1 .6-1.1.4-1.1.1m0 0l-1.1-.2-1.1-.5-.8-.8-.7-.9-.3-1.1v-.8m50.6-29.3l.7.5.8.8.5 1 .2 1.1v1.2l-.4 1.1m0 0l-.7.9-.8.8-1.1.5-1.1.2-1.1-.2-.8-.3m3.2-60.5h.6l1.2-.3 1.1-.5 1-.7.7-1 .5-1.2.2-1.2-.1-1.2-.4-1.2-.6-1.1-.9-.9-1-.7-1.2-.5-1.3-.1-1.2.1-1.2.5-1 .7-.8.9-.5 1.1-.3 1.2-.1.5"/><path class="st1" d="M183.5 91.1l.1-.2.8-1 .5-1.1.2-1.2-.1-1.3-.4-1.2-.6-1.1-.9-.9-1.1-.7-1.1-.4-1.3-.1-1.2.1-1.2.4-1 .7-.1.2"/><path class="st1" d="M181.8 91.2l.1-.2.7-1 .3-1 .1-1.2-.3-1.1-.5-1-.8-.8-1-.6-1.1-.4h-1.2l-1.1.3-.9.6-.2.2m-42.6 105.2v.2l.2 1.2.6 1.1.7 1 1 .7 1.2.5 1.3.3 1.2-.1 1.2-.4 1.1-.6 1-.8.7-1 .4-1.2.1-1.2v-.2"/><path class="st1" d="M134.6 185.2l-.4.4-.6 1-.3 1.2-.1 1.2.3 1.2.5 1.2.8.9 1 .8 1.1.5 1.3.2 1.3-.1 1.2-.3 1.1-.6.9-.9.7-1 .4-1.1.2-1.3-.2-1.2-.5-1.1-.7-1-.4-.4"/><path class="st1" d="M134.3 188.8l.1.3.2 1.1.6.9.8.8 1.1.6 1.1.2 1.1-.1 1.1-.3 1-.6.8-.9.4-1 .2-1.1v-.3m-42.3-19.1l1.1.4 1.3.1 1.2-.2 1.1-.5 1-.8.8-1 .5-1.1.2-1.2v-.5m-5.6-5.3h-.5l-1.2.3-1.1.6-.9.8-.7 1-.4 1.2-.2 1.2.2 1.3.4 1.2.7 1 .9.9.2.1m2.2 2l.3-.1 1.2-.2 1.1-.5 1-.7.1-.1"/><path class="st1" d="M97.6 161.8l-.2.1-.6 1-.5 1.2-.1 1.2.1 1.3.5 1.1.5.9m2-7l-.2.2-.5.9-.3 1.1v1.2l.3 1.1.6.9.8.8 1.1.6 1.1.2h1.1l1.1-.4.9-.6.2-.2m54.7 10l.3-.7.3-1.2v-1.3l-.3-1.2v-.1m-9.9 4.2v.2l.7 1 .9.9 1.1.6 1.2.3 1.2.1m2.9-2.7l.8-1 .6-1.1.3-1.2V173l-.3-1.2-.6-1.1-.8-.9-1-.7-.5-.2"/><path class="st1" d="M150 171.9l-.2.5-.2 1.3.1 1.2.4 1.2.7 1 .9.8 1 .7 1.2.3 1.3.1 1.2-.3h.3"/><path class="st1" d="M151.1 175.4l.1.3.6.9.9.7 1.1.4 1.1.2 1.2-.2 1-.4.9-.8.7-.9.4-1 .1-1.2-.2-1.1-.1-.2m-74.3-9.5l-.2.1-.8.9-.6 1.1-.3 1.2-.1 1.2.3 1.2.5 1.2.8 1 1 .8 1.2.5 1.2.3h1.2l1.2-.4 1.1-.6.1-.1"/><path class="st1" d="M89.4 160.7l-.5-.1-1.2.2-1.2.4-1 .6-.8.9-.6 1.1-.4 1.2v1.3l.3 1.2.5 1.1.8 1 1 .8 1.1.6 1.2.2h1.3l1.2-.3 1-.6.9-.8.7-1.1.4-1.1.1-.6"/><path class="st1" d="M86.3 162.6l-.2.2-.7.9-.4 1-.2 1.1.2 1.1.4 1.1.7.9.9.7 1.1.4 1.1.1 1.2-.1 1-.5.2-.2m16.3-86l-.5.5-.7 1.1-.4 1.1-.2 1.3.2 1.2.4 1.1.7 1 .9.9 1.1.5.6.2m6.6-3.9l.1-.5.1-1.2-.2-1.2-.6-1.1-.7-1-1-.7-1.2-.5-1.2-.2h-1.3l-.6.2"/><path class="st1" d="M106.2 83.4l-.2.3-.4 1.2-.2 1.2.2 1.2.4 1.2.1.1m9.4-5.4l-.9-1.1-1-.7-1.1-.5-1.3-.2h-.3m4.2 4.3l-.1-.3-.8-.8-.9-.6-1.1-.3H111l-1.1.3-1 .6-.8.8-.6 1-.2 1.1v1.1l.3 1.1.2.2m-25.4 46.6l.1.2.4 1.2.7 1.1.9.8 1 .7 1.2.3 1.3.1 1.2-.3 1.1-.5.9-.8.4-.4m-.9-7.6l-.5-.4-1.1-.5-1.2-.3-1.2.1-1.2.3-1 .6-1 .9-.6 1-.5 1.2v.1"/><path class="st1" d="M81.5 137.4l.7 1 .9.9 1.1.6 1.2.4h1.4m-1.3-10.7l-1.3.4-1.1.6-.9.8-.5.7m5.3-1.5h-.3l-1 .4-.9.6-.8.9-.4 1.1-.2 1.1.1 1.1.5 1.1.7.9.9.7 1 .4 1.1.1h.3m12-59.4l-.2-.1-.9-.8-1.1-.5-1.2-.3h-1.3l-1.2.3-1.1.6-1 .9-.7 1-.5 1.2-.2 1.2.1 1.2.3 1.2.7 1 .1.2"/><path class="st1" d="M102.1 84.4v-.5l-.2-1.2-.5-1.2-.7-1-.9-.8-1.1-.5-1.2-.3h-1.3l-1.2.4-1.1.6-1 .8-.7 1-.5 1.2-.2 1.2.1 1.2.3 1.2.7 1.1.9.8 1 .6 1.2.4.5.1"/><path class="st1" d="M100 81.4l-.2-.2-.9-.7-1.1-.4-1.1-.1-1.1.2-1.1.5-.8.8-.7.9-.3 1.1-.1 1.2.2 1.1.6.9.2.3m-13.8 43.6l-.5-.3-1.1-.5-1.2-.3h-1.2l-1.2.3-1.1.6-.9.8-.7 1-.4 1.2-.2 1.3.1 1.2.4 1.2.7 1.1.9.9 1 .6 1.2.4 1.2.1 1.2-.2 1.2-.5.9-.8.4-.4"/><path class="st1" d="M74.6 129.6l-1.3.3-1.1.6-.9.8-.7 1.1-.5 1.1-.2 1.3.2 1.3.4 1.2.6 1 .9.9 1.1.7 1.2.3 1.2.1h.2"/><path class="st1" d="M76.1 130.6h-.3l-1.1.4-.9.6-.7.8-.5 1.1-.2 1.1.1 1.2.4 1.1.7.9.9.7 1 .4 1.1.2.3-.1m13.8-41.3l-.6.7-.7 1-.5 1.2-.1 1.3.1 1.2.4 1.2.7 1 .9.8.2.1m5.9-9l-.2-.1-1.1-.5-1.2-.2-1 .1"/><path class="st1" d="M100.3 101.3l-.1-.6-.5-1.1-.8-1-.9-.7-1.1-.5-1.3-.2h-1.2l-1.2.4-1.1.6-.9.9-.7 1.1-.4 1.2-.2 1.2.1 1.2.5 1.2.7 1 .9.9 1 .6 1.2.3h1.3l.5-.1"/><path class="st1" d="M97.5 98.9l-.2-.1-1.1-.4-1.1-.1-1.1.2-1 .5-.9.8-.6.9-.4 1.1-.1 1.2.3 1.1.5 1 .8.8.2.1m38.8-32.7l.3-.4.5-1.2.2-1.2v-1.2l-.4-1.2-.6-1-.9-.9-1.1-.7-1.2-.3-1.2-.2-1.3.2-1.2.5-1 .7-.9.9-.5 1.1-.4 1.2v1.2l.3 1.2.6 1.1.8 1 .4.3"/><path class="st1" d="M132.4 68.1l-.4-1.3-.6-1.1-.9-.8-1.1-.7-1.2-.4-1.2-.1-1.3.2-1.2.4-1 .8-.8.9-.6 1.1-.4 1.2v1.4"/><path class="st1" d="M131.5 69.6l-.1-.2-.4-1.1-.6-.9-.9-.7-1.1-.4-1.1-.2-1.2.2-1 .5-.9.7-.7.9-.4 1.1-.1 1.1.1.3m-39 25.6l-.2-.1-1.1-.4-1.3-.1-1.2.2-1.1.5-1 .8-.9.9-.5 1.2-.4 1.2v1.3l.3 1.2.5 1.1.8.9 1 .8.2.1"/><path class="st1" d="M87.8 100.1l-.1-.5-.7-1-.8-.9-1.1-.7-1.1-.4-1.2-.1-1.3.3-1.1.4-1 .8-.9 1-.5 1.1-.4 1.2v1.3l.3 1.2.5 1.1.8 1 1 .7 1.1.5 1.3.1 1.2-.1.5-.1"/><path class="st1" d="M84.8 98.1l-.3-.1-1-.3h-1.2l-1.1.3-.9.7-.8.8-.5 1-.3 1.2.1 1.1.3 1.1.7.9.8.7.3.2m64.6-30.8l-.8-.1-1.3.1-1.2.3-1.1.6-.9.9-.7 1-.4 1.2v.2m10.6 1.8l.1-1.4-.3-1.2-.5-1"/><path class="st1" d="M147.3 85.6l.5-.3.8-.9.6-1.1.3-1.2v-1.2l-.2-1.2-.6-1.1-.8-1-1-.7-1.2-.5-1.3-.3-1.2.1-1.2.4-1.1.6-.9.8-.7 1.1-.4 1.1-.1 1.2.2 1.3.5 1.1.3.5"/><path class="st1" d="M148.4 82.1v-1.4l-.4-1.1-.6-.9-.9-.8-1-.5-1.2-.2-1.1.1-1.1.4-.9.7-.7.9-.5 1v.3m51.6 52.4l.4.4 1.1.6 1.1.4 1.2.1 1.3-.2 1.1-.4 1-.8.8-.9.5-1.2.3-1.2v-1.3l-.3-1.2-.5-1.1-.8-1-1-.7-1.1-.5-1.3-.2-1.2.1-1.1.4-1.1.7-.4.3"/><path class="st1" d="M196.6 134.5h.2l1.2-.2 1.1-.4 1-.8.8-.9.6-1.2.3-1.2v-1.3l-.3-1.2-.6-1.1-.8-1-1-.7-1.1-.5-1.2-.2h-.2"/><path class="st1" d="M195.3 133.4h.2l1.1-.2 1-.6.8-.8.6-.9.3-1.2v-1.1l-.3-1.1-.6-1-.8-.8-1-.5-1.1-.3h-.2M165.9 76l.1-.1.3-1.2.1-1.3-.3-1.2-.5-1.1-.8-1-1-.7-1.2-.6-1.2-.2h-1.3l-1.2.3-1.1.6-.9.9-.7 1-.1.2"/><path class="st1" d="M162.5 79.9l.4-.2 1.1-.6.8-.9.6-1.1.4-1.2v-1.2l-.3-1.2-.5-1.2-.8-.9-1-.8-1.2-.5-1.2-.3h-1.3l-1.2.4-1.1.6-.9.8-.7 1-.4 1.2-.1 1.2.2 1.2.2.5"/><path class="st1" d="M164.3 76.8l.1-.3.3-1.1-.1-1.1-.4-1.1-.6-.9-.9-.7-1.1-.5-1.1-.2-1.1.1-1.1.4-.9.7-.7.9-.1.3m27.4 93.3l.2.1 1.1.5 1.2.2 1.3-.1 1.2-.4 1-.6 1-.9.6-1.1.5-1.2.1-1.2-.1-1.3-.5-1.1-.7-1-.9-.9-.1-.1"/><path class="st1" d="M180.7 162.6l.1.5.5 1.1.8 1 1 .8 1.1.5 1.2.2 1.2-.1 1.2-.4 1.1-.7.9-.8.7-1.1.4-1.2.2-1.2-.2-1.3-.4-1.2-.7-1-.9-.8-1.1-.6-1.2-.3h-1.2l-.6.1"/><path class="st1" d="M183.5 164.9l.3.2 1 .4h1.1l1.1-.2 1.1-.5.8-.8.6-.9.4-1.2v-1.1l-.2-1.1-.6-1-.8-.8-.2-.1m-14.1-66h-1.1l-1.2.4-1 .6-.2.1m6.9 8.3l.2-.1.8-.9.5-1.1.3-1.3v-1.2l-.3-1.2-.6-1.2-.5-.6"/><path class="st1" d="M172.6 103.2l.6.1 1.2-.2 1.1-.4 1-.8.8-.9.6-1.1.3-1.2v-1.2l-.3-1.3-.6-1.1-.8-1-1-.7-1.2-.5-1.2-.3-1.2.1-1.2.4-1.1.6-.8.9-.7 1-.3 1.2-.1.5"/><path class="st1" d="M175.7 101.2l.2-.2.7-.9.4-1 .1-1.1-.2-1.2-.5-1-.7-.9-1-.7-1-.4h-1.2l-1.1.2-1 .5-.2.2m26.3 28.2h.2l1.2-.4 1-.7.8-.9.6-1.1.4-1.2v-1.3l-.2-1.3-.5-1.1-.8-1-1-.8-1.1-.6-1.2-.2h-1.2l-.2.1"/><path class="st1" d="M191.3 122.4l.5.2 1.1.5 1.3.2 1.2-.2 1.1-.4 1.1-.7.8-.9.6-1.1.3-1.2.1-1.3-.3-1.2-.5-1.2-.7-1-1-.8-1.1-.5-1.2-.3-1.3.1-1.1.3-1.1.6-.9.9-.3.4"/><path class="st1" d="M195 122.1l.3-.1 1-.4.9-.7.6-1 .4-1.1.1-1.1-.2-1.1-.5-1.1-.8-.8-.9-.7-1.1-.3h-1.4m-88.9 61.9l-.5.2-1.1.6-1 .8-.7 1-.4 1.1-.2 1.2.2 1.3.4 1.1.7 1.1 1 .9 1.1.6 1.2.4h1.2l1.3-.2 1.1-.5 1-.7.8-.9.5-1.2.2-1.2V180l-.2-.5"/><path class="st1" d="M100.6 179.2v.1l-.5 1.2-.1 1.2.1 1.2.4 1.2.7 1.1 1 .8 1.1.7 1.2.3 1.2.1 1.3-.2 1.1-.5 1-.7.8-1 .1-.1"/><path class="st1" d="M102.3 178.6l-.1.2-.4 1.1v1.1l.3 1.1.5 1 .8.8 1.1.6 1.1.3h1.1l1.1-.3 1-.6.7-.8.2-.3m46.4 4l.1.1.7 1.1.9.8 1.1.6 1.2.3h1.3l1.2-.2 1.2-.5 1-.8.8-1 .5-1.1.3-1.2-.1-1.3-.3-1.1-.1-.2"/><path class="st1" d="M155.5 181.6l-.2.5-.2 1.2.1 1.2.4 1.2.7 1 .9.9 1.1.6 1.2.3h1.3l1.2-.2 1.2-.6 1-.7.8-1 .5-1.1.3-1.3v-1.2l-.4-1.2-.6-1-.8-.9-1.1-.7-.4-.2"/><path class="st1" d="M156.6 185.1l.1.2.7.9.9.7 1.1.4 1.1.1 1.1-.2 1.1-.4.9-.8.6-.9.4-1.1.1-1.1-.3-1.1-.1-.3m-44.7-1.1l.1.1 1.2.3 1.3.1 1.2-.2 1.2-.5 1-.7.8-1 .5-1.1.3-1.2-.1-1.2-.3-1.2-.3-.5m-7.3-2.2l-.5.3-.9.8-.7 1-.5 1.1-.2 1.2.2 1.3.4 1.1.7 1.1.9.8"/><path class="st1" d="M120.8 182.2h1l1.3-.2 1.1-.5 1-.7.8-1 .5-1.1.1-.2m-10.3-3.1l-.1.2-.1 1.2.1 1.3.4 1.1.1.2m1-4.9v.2l-.1 1.2.2 1.1.5 1 .8.8 1 .6 1.1.3 1.2.1 1.1-.3 1-.6.8-.8.5-.9.1-.3m41.8-15.9l.1.5.3 1.2.7 1 .8.9 1.1.6 1.2.4 1.2.1 1.2-.2 1.2-.6 1-.7.8-1 .6-1.1.3-1.2v-1.3l-.3-1.2-.6-1.1-.8-.9-1-.7-1.1-.5-1.2-.1h-.6"/><path class="st1" d="M177.8 164.7l.5-.6.6-1.1.3-1.3v-1.2l-.3-1.2-.5-1.1-.8-1-.2-.1m-6.9 8.3l.2.1 1 .6 1.2.4 1.1.1m-3.8-3l.2.2 1 .5 1.1.3 1.2-.1 1-.4 1-.7.7-.9.5-1 .2-1.1-.1-1.2-.4-1-.7-.9-.2-.2m14.2-56.3l.1-.1.9-.8.7-1.1.5-1.1.1-1.3-.1-1.2-.5-1.2-.6-1.1-1-.9-1-.6-1.2-.4-1.3-.1-1.2.2-1.1.5-.2.1"/><path class="st1" d="M184.8 102.2l.6.1h1.2l1.2-.3 1.1-.6.9-.8.7-1 .4-1.2.2-1.2-.2-1.3-.4-1.2-.7-1-.9-.9-1.1-.7-1.2-.4h-1.2l-1.2.2-1.1.5-1 .7-.8 1-.5 1.1-.1.5"/><path class="st1" d="M188.1 100.6l.2-.2.8-.8.6-1 .2-1.1v-1.1l-.4-1.1-.6-1-.8-.8-1.1-.5-1.1-.2-1.1.1-1 .4-.3.1m-61.8 95.2v1.5l.4 1.1.6 1.1.8 1 1 .7 1.2.4 1.3.2 1.2-.1 1.2-.4 1.1-.6.9-.9.6-1.1.4-1.1v-.2"/><path class="st1" d="M124 183.9l-.4.4-.8.9-.6 1.1-.3 1.2v1.2l.4 1.2.5 1.1.9.9 1 .7 1.2.5 1.3.2 1.2-.1 1.2-.4 1.1-.7.9-.9.6-1 .4-1.2v-1.2l-.2-1.2-.5-1.1-.3-.5"/><path class="st1" d="M123.1 187.5l-.1.2.1 1.2.4 1 .7.9.9.8 1 .4 1.2.2 1.1-.2 1.1-.4.9-.7.6-.9.4-1 .1-.3m-35.4-38.1l-.5-.1-1.3.1-1.2.3-1 .5-.9.9-.7 1-.5 1.2-.1 1.2.2 1.3.4 1.2.7 1 .9.9 1.1.6 1.2.4 1.2.1 1.3-.3 1.1-.5.9-.7.8-1 .5-1.1.1-.5m-6.8 4.8h1l1.2-.2 1.1-.5.2-.1"/><path class="st1" d="M91.1 152.1l-.2.1-.9.8-.7 1-.4 1.2-.1 1.3.1 1.2.5 1.2.7 1.1.6.6m2.1-8.3l-.2.2-.8.8-.5.9-.3 1.2.1 1.1.4 1.1.6 1 .9.7 1 .5 1.1.2 1.1-.1 1.1-.4.2-.1m42.3 14.7l-.3.4-.5 1.2-.2 1.2.1 1.2.4 1.2.7 1 .9.8 1.1.7 1.2.3 1.2.1 1.3-.2 1.2-.5 1-.8.8-.9.6-1.1.2-1.2v-1.3l-.3-1.2-.6-1-.8-.9-.5-.4m1.7 8.3l.5-1 .3-1.2-.1-1.2v-.2"/><path class="st1" d="M139.1 179.3v.1l.4 1.2.7 1 .9.9 1.1.6 1.2.3 1.3.1.8-.1m-5.5-5.7v.3l.5 1 .7.9.9.7 1.1.4 1.1.1 1.2-.2 1-.5.9-.7.6-1 .4-1.1v-1.4m-69.2-23.9l-.2.1-1 .7-.8.9-.5 1.1-.3 1.3v1.2l.4 1.3.5 1.1.9.9 1 .8 1.1.5 1.2.2 1.3-.1 1.1-.4.2-.1"/><path class="st1" d="M84.3 151.3l-.5-.1-1.2-.1-1.3.2-1.1.4-1 .8-.8.9-.5 1.1-.3 1.2v1.3l.4 1.2.5 1.2.9.9 1 .8 1.1.5 1.3.2 1.2-.1 1.1-.4 1.1-.7.8-.8.7-1.1.1-.5"/><path class="st1" d="M80.9 152.7l-.3.1-.8.7-.7.9-.3 1.1-.1 1.2.3 1.1.5 1 .8.9.9.6 1.1.3h1.2l1-.3.3-.1m33.8-81.7l-.9.9-.7 1-.4 1.2-.2 1.2.2 1.2.5 1.1.7 1 .9.9.5.2m7.3-2.2l.3-.5.3-1.2.1-1.2-.3-1.2-.5-1.1-.8-.9-1-.8-1.2-.5-1.2-.2-1.3.1-1.2.4h-.1m-2.9 1l-.1.2-.4 1.2-.1 1.2.1 1.2.1.2"/><path class="st1" d="M126.6 79.8l-.1-.2-.5-1.1-.8-.9-1-.8-1.1-.5-1.3-.2-1 .1m5.1 5.2l-.1-.2-.5-1-.8-.8-1-.6-1.1-.3-1.2.1-1.1.3-1 .6-.8.9-.5 1-.2 1.1.1 1.1v.3m-36 42.3l.5.7.9.8 1.1.7 1.2.3h.1m1.3-10.7h-1.4l-1.2.4-1.1.6-.9.9-.7 1m.9 3.8l.5 1.3.6 1 1 .9 1 .6 1.2.3 1.2.1 1.2-.3 1.1-.5.5-.3"/><path class="st1" d="M91.6 120.1l-.4-.4-.9-.8-1.1-.5-1.2-.2h-1.3l-1.2.4-1 .6-.9.8-.7 1.1-.4 1.2-.1.2"/><path class="st1" d="M88 119.3h-.3l-1.1.1-1 .4-.9.7-.7.9-.5 1.1-.1 1.1.2 1.2.4 1 .8.9.9.6 1 .4h.3m24.1-48.9l.2-.5v-1.2l-.2-1.2-.5-1.1-.8-1-1-.7-1.1-.5-1.3-.2-1.2.1-1.2.3-1.1.7-1 .8-.7 1.1-.4 1.1-.2 1.3.2 1.2.4 1.1.7 1.1 1 .8 1.1.5.5.2"/><path class="st1" d="M110 73.8l-.1-.2-.8-1-1-.7-1.1-.5-1.3-.2-1.2.1-1.2.4-1.1.6-1 .9-.7 1-.4 1.2-.1 1.2.1 1.2.5 1.2v.1"/><path class="st1" d="M109.7 75.5l-.2-.2-.7-.9-1-.6-1.1-.3h-1.1l-1.1.3-1.1.6-.8.8-.5 1-.3 1.1v1.1l.4 1.1.1.2M80.5 120l-.4-.4-.9-.7-1.2-.6-1.2-.2-1.2.1-1.2.4-1 .6-.9.9-.7 1.1-.4 1.2-.1 1.2.2 1.3.4 1.2.7 1 .9.8 1.1.6 1.2.3 1.2.1 1.2-.3 1.1-.6.5-.3"/><path class="st1" d="M75.7 118h-.2l-1.2.1-1.2.3-1.1.7-.9.9-.6 1-.4 1.3-.2 1.2.2 1.3.5 1.1.7 1.1.9.8 1.1.6 1.2.3h.1"/><path class="st1" d="M76.9 119.3h-.3l-1.1.1-1 .4-.9.7-.7 1-.4 1-.1 1.2.2 1.1.5 1.1.7.8.9.7 1.1.3h.3m66.1-54.2l.4-.3.7-1.1.5-1.1.2-1.2-.2-1.2-.4-1.2-.7-1-.9-.9-1.1-.6-1.2-.3-1.3-.1-1.3.2-1.1.5-1 .8-.8 1-.5 1.1-.3 1.2.1 1.2.3 1.2.6 1.1.4.4"/><path class="st1" d="M144 68.6v-.2l-.1-1.2-.4-1.1-.7-1.1-1-.8-1.1-.6-1.2-.4h-1.2l-1.3.2-1.2.5-1 .7-.7 1-.6 1.1-.2 1.2v.2"/><path class="st1" d="M142.8 69.9v-.3l-.2-1.1-.4-1-.8-.8-1-.7-1.1-.3-1.1-.1-1.1.3-1.1.5-.8.8-.6.9-.2 1.1-.1.3M91.2 87.3l-1.2-.7-1.2-.3-1.2-.1-1.2.3-1.2.5-1 .8-.8 1-.5 1.2-.3 1.2.1 1.3.3 1.2.6 1 .8 1 .2.1"/><path class="st1" d="M94.2 91.6l-.1-.5-.4-1.2-.7-1-.9-.9-1-.6-1.2-.3h-1.3l-1.2.2-1.1.6-1 .8-.8 1-.5 1.1-.3 1.3v1.2l.4 1.2.6 1.1.8.9 1 .7 1.2.4 1.2.1.5-.1"/><path class="st1" d="M91.6 89l-.2-.1-1-.5-1.2-.2-1.1.1-1.1.4-.9.7-.7.9-.4 1.1-.2 1.1.2 1.1.4 1.1.7.8.2.2m103.6 47.8l.3.4.9.9 1.1.6 1.1.3 1.3.1 1.2-.3 1.1-.5 1-.8.7-1 .5-1.2.3-1.2-.1-1.3-.3-1.2-.6-1.1-.8-.9-1.1-.7-1.1-.4-1.2-.2-1.3.2-1.1.5-.5.3"/><path class="st1" d="M194.5 146h1.4l1.2-.2 1.1-.6 1-.8.8-1 .5-1.1.2-1.3v-1.2l-.4-1.2-.6-1.1-.8-1-1-.7-1.2-.4h-.2"/><path class="st1" d="M193.4 144.6h1.4l1.1-.3.9-.6.8-.9.5-1 .2-1.2-.1-1.1-.4-1.1-.6-.9-.9-.8-1-.4-.3-.1m-38.3-56.6h-.3l-1.2-.3-1.3.1-1.2.4-1 .6-.9.8-.7 1.1-.4 1.1-.1 1.3.2 1.2.2.5m7.1 3l.5-.2 1-.7.8-.9.6-1.1.3-1.2v-1.2l-.3-1.2-.6-1.1-.8-1"/><path class="st1" d="M155.7 78.1l-1.2.1-1.2.3-1.1.6-.9.9-.7 1v.2m9.9 4.3v-.2l.3-1.2v-1.2l-.3-1.2-.3-.8m-1.3 5.4l.1-.3.2-1.1-.1-1.1-.4-1.1-.7-.9-.9-.7-1-.5-1.2-.2-1.1.2-1.1.4-.9.7-.6.9-.1.3m24.3-.2l.1-.2.6-1.1.3-1.2-.1-1.2-.3-1.2-.6-1.1-.8-1-1.1-.7-1.1-.5-1.3-.2-1.2.1-1.2.4-1.1.6-.8.9-.1.2"/><path class="st1" d="M171.3 85.9l.5-.1 1.2-.5 1-.7.8-.9.5-1.1.3-1.3-.1-1.2-.3-1.2-.6-1.1-.8-1-1.1-.7-1.1-.5-1.3-.2-1.2.1-1.2.4-1.1.6-.8.9-.6 1.1-.4 1.1v1.8"/><path class="st1" d="M173.7 83.1l.2-.2.4-1 .2-1.1-.2-1.2-.5-1-.7-.9-.9-.7-1.1-.4-1.2-.1-1.1.2-1 .5-.8.8-.2.2m9.3 96.9l.1.1 1 .7 1.2.4 1.2.2 1.3-.2 1.1-.4 1.1-.7.9-.9.6-1.1.4-1.2.1-1.3-.2-1.2-.5-1.1-.8-1-.1-.1"/><path class="st1" d="M173.5 170.5l.1.5.3 1.2.5 1.1.8 1 1 .6 1.2.5 1.2.1 1.3-.1 1.2-.4 1-.7.9-1 .6-1.1.4-1.2.1-1.2-.2-1.2-.5-1.2-.7-.9-1-.8-1.1-.5-1.2-.3h-.6"/><path class="st1" d="M175.9 173.3l.2.2.9.6 1.1.3h1.2l1.1-.3 1-.6.8-.9.5-1 .3-1.1-.1-1.1-.3-1.1-.7-.9-.1-.2m3.7-61.4l-.2-.8-.6-1.1-.8-1-1-.8-1.2-.5-1.2-.2-1.2.1-1.2.4h-.2m4.9 9.7l.1-.1 1-.7.8-1 .5-.9"/><path class="st1" d="M177.6 112.4l.5.2 1.3.1 1.2-.2 1.1-.4 1-.7.8-1 .6-1.1.2-1.2v-1.3l-.3-1.2-.5-1.1-.8-1-1-.8-1.2-.5-1.2-.2-1.2.1-1.2.4-1.1.6-.8.9-.6 1.1-.2.5"/><path class="st1" d="M181 111.2l.3-.2.9-.7.6-.9.4-1.1.1-1.1-.3-1.1-.5-1.1-.8-.8-.9-.7-1.1-.3h-1.1l-1.1.2-.3.2m11.6 34.2l-.1-.2-.8-.9-1-.8-1.2-.4-.1-.1m-2.5 10.5l.2.1h1.2l1.2-.2 1.1-.5 1-.7.8-1 .5-.8m-.9-3.2l-.3-1.2-.6-1.1-.8-.9-.9-.8-1.2-.4-1.2-.2-1.2.1-1.2.4-.5.3"/><path class="st1" d="M178.6 143.3l.3.4.8.9 1.1.7 1.1.3 1.3.1 1.2-.2 1.1-.5 1-.7.8-1 .6-1.1.3-1.3v-.2"/><path class="st1" d="M182 144.5l.3.1h1.1l1.1-.3 1-.6.8-.8.5-1 .3-1.2v-1.1l-.4-1.1-.6-1-.8-.7-1.1-.5-.2-.1m-92.2 35.4l-.1.2-.7 1-.3 1.2-.1 1.2.2 1.3.5 1.1.7 1.1 1 .8 1.1.6 1.2.3h1.3l1.2-.2 1.1-.6.9-.8.2-.1"/><path class="st1" d="M96.2 168.9h-.5l-1.2.4-1 .6-.9.9-.7 1-.3 1.2-.1 1.2.2 1.2.5 1.2.7 1 1 .9 1.1.6 1.2.3h1.3l1.2-.3 1.1-.5.9-.8.7-1 .5-1.1.2-1.3v-.5"/><path class="st1" d="M93.6 171.4l-.2.2-.6 1-.2 1.1.1 1.1.3 1.1.7.9.8.8 1.1.5 1.1.2 1.1-.1 1.1-.4.9-.7.2-.2m44.9 12.7v.2l.5 1.1.7 1 1 .8 1.1.5 1.2.3h1.3l1.2-.3 1.2-.6.9-.8.8-1 .5-1.1.2-1.3-.1-1.2-.1-.2"/><path class="st1" d="M145.2 184.4l-.3.4-.4 1.2-.1 1.2.2 1.2.5 1.2.7 1 1 .8 1.1.5 1.2.3h1.3l1.2-.3 1.1-.6 1-.8.8-1 .4-1.2.2-1.2-.1-1.2-.3-1.2-.7-1-.9-.8-.4-.3"/><path class="st1" d="M145.6 188l.1.3.5 1 .8.8.9.6 1.1.4h1.2l1.1-.3 1-.5.8-.8.6-1 .3-1.1v-1.1l-.1-.3m-43.9-9.8l.6.2 1.3.1 1.2-.3 1.2-.4 1-.8.7-.9.6-1.1.2-1.3-.1-1.2-.1-.5m-6.6-3.9l-.6.2-1.1.6-.9.8-.7 1-.4 1.1-.2 1.3.2 1.2.4 1.2.7 1 .5.5"/><path class="st1" d="M110.9 177.6h.3l1.3-.2 1.1-.5 1-.7.8-1 .1-.1m-9.4-5.4l-.1.2-.4 1.1-.2 1.2.2 1.3.4 1.1.2.3m1.6-5.8l-.2.2-.3 1.1v1.1l.2 1.1.6 1 .8.9 1 .5 1.1.3h1.2l1.1-.3.9-.6.8-.8.1-.3m53.1-1.3l.1-.1.9-1 .5-1.1.3-1.2v-1.3l-.3-1.2-.5-1.1-.8-.9-1.1-.7-1.1-.4-.5-.1m-6.2 4.6l-.1.5.1 1.3.4 1.1.6 1.1.9.8 1.1.7 1.2.3 1.2.1 1.3-.3"/><path class="st1" d="M170 172l.5-1.1.3-1.2v-1.3l-.3-1.2-.5-1.1-.1-.1m-8.7 6.4l.1.2.9.8 1.1.6 1.2.4.8.1m-4-3.8l.2.2.9.7 1 .5 1.1.2 1.1-.2 1.1-.4.9-.7.8-.9.4-1 .1-1.2-.1-1.1-.5-1-.1-.2M97.3 89.8l-.5.8-.5 1.2-.1 1.2.1 1.2.5 1.2.6 1 .2.1m7.8-7.3l-.1-.2-1-.7-1.1-.5-1.2-.2h-.3"/><path class="st1" d="M99.5 89.5l-.2.1-.9.9-.7 1.1-.4 1.2-.2 1.2.2 1.2.4 1.2.7 1 .9.8 1.1.6 1.2.3h.5m5.6-5.3v-.5l-.2-1.2-.5-1.1-.8-1-1-.7-1.1-.5-1.2-.2h-1.3l-1.1.4"/><path class="st1" d="M105.5 90.9l-.2-.2-.9-.6-1.1-.4h-1.1l-1.1.2-1.1.6-.8.8-.6 1-.3 1.1v1.1l.3 1.1.5.9.2.3m-15.4 51l.3.8.7 1.1.9.8 1.1.7 1.2.3 1.2.1 1.2-.2.2-.1M87 141.2h-.2l-1 .6-.9.9-.7.9"/><path class="st1" d="M92.2 140.9l-.5-.2-1.2-.3-1.2.1-1.2.3-1.1.6-.9.8-.7 1.1-.4 1.1-.1 1.3.1 1.2.5 1.2.7 1.1.9.9 1.1.6 1.1.4h1.3l1.2-.2 1.1-.5.9-.8.8-1 .2-.5"/><path class="st1" d="M88.7 141.8l-.3.1-1 .6-.7.8-.5 1-.2 1.2.1 1.1.4 1.1.6.9.9.8 1.1.4 1.1.2 1.1-.1.3-.1M81 141.2l-.4-.2-1.2-.4h-1.3l-1.2.2-1.1.5-.9.8-.8 1-.5 1.2-.2 1.2.1 1.3.4 1.2.6 1.1.8.9 1.1.7 1.1.5 1.3.1 1.2-.2 1.1-.4 1-.7.8-.9.3-.5"/><path class="st1" d="M75.8 141.1l-.2.1-1.1.5-.9.8-.8 1-.5 1.1-.2 1.3.1 1.3.4 1.2.6 1.1.8.9 1.1.7 1.1.4 1.3.2 1.2-.2h.2"/><path class="st1" d="M77.4 141.8l-.2.1-1 .6-.8.8-.6 1-.3 1.1.1 1.1.3 1.1.6 1 .8.8 1 .5 1.1.3 1.2-.1.2-.1m30.9 34.9v.2l-.2 1.2.1 1.2.3 1.2.7 1.1.9.9 1 .7 1.2.4 1.3.1 1.3-.2 1.1-.4 1.1-.7.8-.9.6-1.1v-.2"/><path class="st1" d="M113.8 180.7l-.4.3-1 .7-.8 1-.5 1.1-.2 1.2.1 1.3.4 1.1.6 1.1.9.9 1.1.7 1.2.4 1.2.1 1.3-.1 1.2-.5 1-.7.8-.9.6-1.1.3-1.2v-1.2l-.3-1.2-.2-.5"/><path class="st1" d="M112.3 184l-.1.3-.2 1.1.2 1.1.5 1 .7.9 1 .7 1.1.3 1.1.1 1.2-.2 1-.5.8-.8.6-.9.1-.3m-25.5-76.6l-.2-.5-.8-1-.9-.8-1.1-.5-1.2-.2-1.3.1-1.1.3-1.1.7-.9.8-.7 1.1-.5 1.2-.1 1.2.1 1.3.4 1.2.7 1 .9.8 1.1.6 1.2.4h1.2l1.2-.3.5-.2m-8-2.7l.7.9.9.9 1 .6h.2"/><path class="st1" d="M90.7 107h-.2l-1.2-.3-1.2.1-1.2.4-1.1.6-.9.9-.7 1-.3.8m7.7-1.9l-.3-.1-1.1-.2-1.1.2-1.1.4-.9.8-.6.9-.4 1.1-.1 1.2.2 1.1.5 1 .7.8 1 .6.3.1m32.2-46.6v-.2l-.6-1.1-.8-.9-1.1-.7-1.1-.4-1.3-.2-1.3.1-1.2.5-1 .6-.9.9-.7 1.1-.3 1.2-.1 1.2.2 1.2v.2"/><path class="st1" d="M121.1 75.1l.2-.5.3-1.2v-1.2l-.3-1.2-.6-1.1-.8-.9-1-.7-1.2-.4-1.3-.2-1.2.1-1.2.4-1.1.7-.9.9-.6 1.1-.4 1.2-.1 1.2.2 1.2.5 1.1.8 1 1 .8.4.2"/><path class="st1" d="M120.3 71.5l-.1-.2-.6-1-.8-.8-1-.5-1.2-.2-1.1.1-1.1.4-1 .6-.7.9-.5 1-.2 1.1.2 1.1.1.3m-29.1 35.4l-.3-.4-.8-1-1-.7-1.1-.4-1.2-.2-1.3.2-1.1.4-1.1.7-.8.9-.6 1.1-.4 1.2-.1 1.3.2 1.3.5 1.1.8 1 .9.8 1.1.5 1.2.2h1.3l1.2-.4.4-.2"/><path class="st1" d="M78.9 106.8h-.2l-1.2-.2-1.3.2-1.1.4-1.1.7-.8.9-.6 1.1-.4 1.3-.1 1.2.2 1.3.5 1.1.8 1 .9.8 1.1.5.2.1"/><path class="st1" d="M79.8 108.3l-.2-.1h-1.2l-1.1.2-1 .5-.8.8-.6 1-.3 1.1-.1 1.2.3 1.1.6 1 .8.7 1 .6.2.1M137 84.1l.3-.4.6-1.1.3-1.2.1-1.2-.3-1.2-.5-1.1-.8-1-1-.7-1.2-.5-1.2-.2-1.3.1-1.2.3-1.1.6-.9.9-.7 1-.4 1.2-.2 1.2.2 1.2.5 1.2.7 1 .4.3m-.7-8.3l-.6.9-.4 1.1-.1 1.3v.1"/><path class="st1" d="M138.2 79v-.2l-.3-1.2-.5-1.1-.8-.9-1-.8-1.2-.5-1.2-.2-1.3.1-.8.2m6.1 6l-.1-.2-.3-1.1-.5-1-.9-.8-1-.5-1.1-.2h-1.2l-1.1.4-.9.7-.8.8-.5 1-.1 1.1v.3m60.7 47l-.2-.6-.6-1.1-.8-1-1-.7-1.1-.5-1.2-.2-1.2.1-1.2.4-1 .7-.4.3m0 7.7l.4.4 1 .6 1.2.4 1.2.1 1.2-.2 1.1-.4 1-.8.8-.9.6-1.2.2-.6m.8-4l-.2-.2-.8-1-1-.7-1.1-.5-1.3-.2h-.1"/><path class="st1" d="M185.7 134.5h.1l1.3-.2 1.1-.4 1-.8.8-.9.2-.3m-5.9 1.5h.3l1.1-.2 1-.6.8-.8.6-.9.3-1.2v-1.1l-.3-1.1-.6-1-.8-.8-1-.5-1.1-.3h-.3m10-13.4h.1l1.1-.7.9-.8.6-1.1.4-1.2.1-1.2-.2-1.3-.5-1.2-.7-1-.9-.9-1.1-.6-1.2-.3h-1.3l-1.2.3h-.1"/><path class="st1" d="M189 112l.5.2 1.3.2 1.2-.1 1.2-.3 1-.7.9-.8.6-1.1.4-1.2.1-1.2-.2-1.3-.4-1.2-.8-1-.9-.9-1.1-.5-1.2-.4h-1.2l-1.2.3-1.1.5-1 .8-.7 1-.2.5"/><path class="st1" d="M192.6 111l.2-.1 1-.7.7-.8.5-1.1.1-1.1-.1-1.1-.4-1.1-.7-.9-.9-.7-1.1-.5-1.1-.1-1.1.2-.3.1m-34.1-31.8l.1-.2.1-1.2-.2-1.2-.5-1.2-.8-1-.9-.8-1.2-.6-1.2-.3h-1.3l-1.2.3-1.1.5-1 .8-.7 1-.5 1.2v.1"/><path class="st1" d="M152.7 75.8l.4-.3.9-.9.7-1 .3-1.2.1-1.2-.2-1.2-.4-1.2-.8-1-1-.8-1.1-.6-1.2-.3h-1.3l-1.2.3-1.1.6-1 .8-.7.9-.5 1.2-.2 1.2.1 1.2.4 1.2.3.5"/><path class="st1" d="M153.9 72.3l.1-.3v-1.1l-.3-1.1-.6-.9-.8-.8-1-.6-1.1-.3-1.2.1-1.1.3-.9.6-.8.8-.5 1-.1.3m44.7 86.5h.1l1.2.3h1.3l1.2-.3 1.1-.6.9-.9.7-1 .5-1.2.2-1.2-.1-1.3-.4-1.2-.6-1-.9-.9-1.1-.6-.1-.1"/><path class="st1" d="M186.2 153.5l.2.5.7 1 1 .8 1.1.5 1.2.3h1.2l1.2-.3 1.1-.6.9-.9.8-1 .4-1.2.2-1.2-.1-1.3-.4-1.2-.6-1-.9-.9-1-.6-1.2-.4-1.2-.1-1.3.3-.5.2"/><path class="st1" d="M189.4 155.2l.3.1 1.1.2 1.1-.1 1.1-.4.9-.7.7-1 .4-1 .1-1.2-.1-1.1-.5-1.1-.7-.8-1-.7-.2-.1m-26.4-62.1l-1.3-.3-1.2.1-1.2.4-1.1.6-.9.8-.6 1.1-.4 1.2-.1 1.2.1.5m6.2 4.6l.5-.1 1.1-.4 1.1-.7.8-.9.5-1.1.3-1.2v-1.3l-.3-1.2-.5-1.1-.9-1-.1-.1m-2.9-2.4h-.8l-1.2.4-1.1.6-.9.9-.1.1"/><path class="st1" d="M169.9 92.3l.1-.1.5-1.1.3-1.2v-1.2l-.3-1.3-.5-1.1m-1.8 6.4l.1-.2.5-1 .1-1.1-.1-1.1-.4-1.1-.8-.9-.9-.7-1.1-.4-1.1-.2-1.1.2-1 .5-.9.7-.2.3m3.7 89.2v1.8l.4 1.2.6 1 .8.9 1.1.6 1.2.4 1.2.1 1.3-.2 1.1-.5 1.1-.7.8-1 .6-1.1.3-1.2.1-1.2-.3-1.2-.5-1.1-.8-1-1-.7-1.2-.4-.5-.2"/><path class="st1" d="M166.7 181.9l.1.1.8.9 1.1.6 1.2.4 1.2.1 1.3-.2 1.1-.5 1.1-.7.8-1 .6-1.1.3-1.2.1-1.2-.3-1.2-.6-1.1-.1-.2"/><path class="st1" d="M166.8 180.1l.2.2.8.8 1 .5 1.1.2 1.2-.1 1.1-.4.9-.7.7-.9.5-1 .2-1.1-.2-1.2-.4-1-.2-.2m15.4-59.6l-.5-.9-.8-1-1-.7-1.1-.5-1.2-.2-1.2.1h-.2m2.5 10.5l.1-.1 1.2-.4 1-.8.8-.9.1-.2"/><path class="st1" d="M188.2 117.6v-.2l-.3-1.2-.6-1.2-.8-1-1-.7-1.1-.5-1.2-.2-1.3.1-1.1.4-1.1.6-.8.9-.3.5m1.7 7.4l.5.3 1.2.4 1.2.1 1.2-.1 1.2-.5.9-.7.8-1 .6-1.1.3-1.2"/><path class="st1" d="M184 122.1l.2-.1 1.1-.5.8-.7.6-1 .4-1.1v-1.1l-.3-1.1-.5-1.1-.8-.8-1-.6-1.1-.3-1.1.1h-.3m-50.9 70.1l.8.2 1.3.1 1.2-.2 1.2-.5 1-.8.8-.9.5-1.1.3-1.2v-.2m-10.7-.6v.2l.1 1.2.4 1.1.6.9"/><path class="st1" d="M129.3 173.8l-.4.4-.7 1-.5 1.1-.2 1.2.2 1.2.4 1.2.7 1 .9.9 1.1.6 1.2.4h1.3l1.2-.2 1.2-.5 1-.7.8-1 .5-1.1.3-1.2-.1-1.2-.3-1.2-.6-1.1-.3-.4"/><path class="st1" d="M128.7 177.4v.3l.1 1.1.5 1 .8.9.9.6 1.1.4h1.2l1.1-.2 1-.5.9-.8.5-1 .3-1 .1-.3m37-25.1l.2.5.6 1 .8.9 1.1.6 1.2.4 1.2.1 1.2-.2 1.2-.5 1-.8.8-1 .5-1.1.3-1.2v-1.3l-.2-1.2-.6-1.1-.8-1-1-.7-1.1-.4-1.2-.2-1.3.1-.5.2m7.6 3.5l-.5-.9-.8-.9-1-.8-.1-.1"/><path class="st1" d="M177.9 156.4l.2.1 1.2.3 1.2.1 1.2-.2 1.2-.5 1-.8.8-1 .6-1.1.2-.8m-8.3 2.3l.3.1 1.1.3 1.1-.1 1.1-.3.9-.6.8-.9.5-1 .3-1.2-.1-1.1-.4-1.1-.6-.9-.9-.7-.3-.1M142.2 87l-2.9-.3-3.6-.2m16 3.1l-1.9-.7-3.5-1-2.2-.5m16.3 7l-1.1-.7-3-1.9-2.8-1.4m14.2 10.6l-.3-.4-2.5-2.5-2.7-2.3-.2-.2m11.4 13.5l-1.7-2.8-2-2.9-.7-.9m8 15.9l-.7-2.4-1.3-3.4-.7-1.7m4 17.3v-1.7l-.4-3.6-.5-2.6m0 17.7l.2-.9.5-3.5.2-3.4m-4 17.2v-.1l1.4-3.3 1.1-3.4.2-.6m-8 15.8l1.7-2.3 1.9-3 .8-1.3M162 162.7l1.6-1.3 2.6-2.4 1.5-1.7m-14.2 10.6l1.2-.6 3.1-1.7 2.6-1.7m-16.3 7l.5-.1 3.5-.8 3.3-1.2.3-.1m-17.4 3h3.2l3.6-.3 1.1-.1m-17.7-1l2.4.5 3.5.6 1.9.2m-17-5l1.5.7 3.3 1.5 2.5.9m-15.4-8.9l.7.6 2.8 2.2 2.9 2m-12.9-12.2l.1.1 2.1 2.8 2.4 2.7.5.5m-9.7-14.8l1.1 2.6 1.6 3.2.8 1.2m-6.1-16.6l.4 2 .8 3.5.7 2.2m-2.1-17.6l-.1 1.3-.1 3.6.2 3m2.1-17.6l-.2.5-.9 3.4-.7 3.5-.1.3m6.1-16.6l-1.6 2.8-1.5 3.2-.4 1m9.7-14.7l-1.7 1.7-2.3 2.8-1.1 1.5m12.9-12.1l-1.4.9-2.9 2.1-2.1 1.7m15.4-8.9l-.9.3-3.3 1.3-3.1 1.6m17-5.1h-.1l-3.6.4-3.5.8-.6.2m11.2-1.6l-1.4.1m48.2 5.4l1-.9m-7.4-7.8l-1 .9m5.3 8.2l1.4-1.2m-5.9-6.2l-1.3 1.3m0 0l-.8.9-.4 1.1-.2 1.3.3 1.1.5 1.1.9.9 1 .6 1.2.3 1.2-.1 1.1-.4 1-.7m-47.2 96.5l.1 1.3m10.7-.5v-1.3m-9.8-1.4l.1 1.8m8.5-.4l-.1-1.8m-4.2-4.1l-.9.1-.8.3-.7.4-.7.5-.5.7-.4.8-.2.8-.1.9m8.5-.4l-.1-.8-.2-.8-.4-.7-.6-.6-.6-.5-.7-.4-.8-.2-.8-.1m-40-21.7l-.9 1m7.8 7.4l.9-1m-5.7-8l-1.3 1.4m6.2 5.8l1.3-1.3m-3.1-7.2h-.5l-.4.1-.4.1-.4.1-.4.2-.4.3-.3.2-.3.3m6.2 5.9l.7-1 .4-1.2v-1.2l-.3-1.2-.7-1.1-.9-.8-1.1-.5-1.2-.2m46.3 17l.6 1.2m9.9-4.2l-.6-1.3m-9.5 2.2l.7 1.6m7.8-3.3l-.7-1.7"/><path class="st1" d="M154.3 167.8l-1.1.1-1 .4-.8.6-.7.8-.5 1-.2 1 .1 1 .3 1.1"/><path class="st1" d="M158.2 170.4l-.3-.6-.4-.5-.4-.4-.5-.4-.5-.3-.6-.2-.6-.1-.6-.1m-68.7-6.1l-1 .9m6.6 8.4l1.1-.8m-4.5-8.7l-1.5 1.1m5.3 6.7l1.4-1.1m-2.6-7.6h-.7l-.4.1-.3.1-.3.1-.3.2-.3.2-.3.2m5.2 6.7l.8-.9.6-1 .2-1.1V164l-.4-1.1-.7-1-.9-.7-1-.5-1.2-.1m25.7-76.2l-.6-1.2m-9.4 5.4l.7 1.2m9.3-3.2l-1-1.6m-7.3 4.2l.9 1.6m0 0l.7 1 1 .7 1.2.4h1.2l1.2-.3 1-.6.8-.8.6-1.1.2-1.2-.1-1.2-.4-1.1m-29.2 42.8l-1.4.2m1.3 10.7l1.3-.2m.7-9.7l-1.8.2m1 8.4l1.8-.2m-.5-8.5H89l-.1.1h-.1m1 8.4l1.1-.3 1.1-.6.8-.8.5-1 .3-1.2-.1-1.1-.4-1.1-.7-1-.9-.7-1-.5-1.2-.2m11.5-49.6l-.8-1.1m-8.2 7.1l.9 1m8.5-4.9l-1.2-1.4M93.6 87l1.2 1.3m0 0l.9.8 1.1.5 1.2.2 1.2-.2 1.1-.5.9-.8.6-1 .4-1.1V85l-.4-1.2-.6-1M76 129.5l-1.4.1m1.1 10.7l1.3-.1m.9-9.8l-1.8.2m.8 8.4l1.8-.1m-.4-8.5h-.4m.8 8.5l1.2-.3 1-.6.8-.8.6-1 .3-1.2-.1-1.1-.4-1.2-.6-.9-.9-.8-1.1-.4-1.2-.2M98.1 98l-1.1-.8m-5.9 9l1.1.8m6.8-7.1l-1.5-1m-4.7 7.1l1.6 1m0 0l1.1.5 1.2.2 1.2-.1 1.1-.5.9-.8.6-1 .4-1.2v-1.2l-.3-1.1-.7-1.1-.9-.8m33.6-30.4l-.2-1.4m-10.7 1.6l.2 1.3m9.8.5l-.2-1.9m-8.4 1.3l.2 1.8m0 0l.4 1.1.6 1 .9.8 1.1.5 1.2.2 1.2-.2 1.1-.5.9-.8.7-1 .3-1.1v-1.2M85.3 97.1l-1.2-.6m-4.9 9.6l1.2.6m6-7.8l-1.6-.8m-3.9 7.6l1.6.8m0 0l1.2.4 1.2.1 1.1-.3 1.1-.6.8-.9.6-1.1.2-1.2-.1-1.2-.5-1.1-.7-1-1-.7m63.1-16.6l.2-1.4m-10.6-1.8l-.2 1.3m9.1 3.5l.4-1.8m-8.4-1.5l-.3 1.8m0 0l-.1 1.2.3 1.2.7 1 .8.8 1.1.6 1.2.2 1.2-.1 1.1-.5 1-.8.7-1 .3-1.1m47.3 50.6h1.3m0-10.7h-1.3m-1.9 9.6h1.9m0-8.5h-1.9m0 0l-1.2.2-1.1.5-.9.8-.6 1-.4 1.2v1.2l.4 1.1.6 1 .9.8 1.1.5 1.2.2m-28-56.1l.5-1.3m-9.8-4.4l-.5 1.2m8 5.7l.7-1.7m-7.7-3.5l-.8 1.6m0 0l-.3 1.2v1.2l.3 1.2.7 1 .9.8 1.1.5 1.2.1 1.2-.1 1.1-.5.9-.8.7-1m19.3 87.4l1.1.7m5.9-9.1l-1.2-.7m-6.7 7.1l1.5 1m4.6-7.1l-1.5-1m-2.3-.7l-1.2.2-1.1.5-.9.8-.7 1-.3 1.1v1.3l.3 1.1.7 1 .9.8m4.6-7.1l-.3-.2-.3-.1-.2-.1-.3-.1-.3-.1-.3-.1h-.6m-7.9-54l1-.9m-6.9-8.3l-1 .9m4.8 8.6l1.4-1.2m-5.5-6.5l-1.4 1.2m0 0l-.8.9-.5 1.1-.2 1.2.1 1.2.5 1.1.8.9 1 .7 1.2.3h1.2l1.1-.3 1.1-.6m20.9 20.8l1.3-.3m-2-10.5l-1.3.2m0 9.8l1.8-.3m-1.6-8.4l-1.8.4m0 0l-1.2.4-.9.7-.8.9-.4 1.1-.2 1.2.3 1.2.5 1.1.9.9 1 .6 1.2.3 1.2-.1M101.3 178l-.7 1.2m9.4 5.4l.6-1.2m-7.4-6.4l-.9 1.6m7.4 4.2l.9-1.6m-3.7-6.3h-.6l-.5.1-.5.2-.5.2-.5.3-.4.4-.4.4-.3.5m7.4 4.2l.4-1 .2-1.1-.2-1.1-.4-1-.7-.9-.9-.7-1-.4-1.1-.1m48.7 10.6l.5 1.3m9.8-4.5l-.5-1.2m-9.6 2.3l.8 1.7m7.7-3.6l-.7-1.6m-3.9-2.5l-1 .1-1 .4-.9.6-.7.8-.4 1-.2 1v1.1l.3 1m7.8-3.5l-.3-.6-.4-.4-.4-.5-.5-.3-.5-.3-.6-.2-.6-.2h-.6m-43-3.3l-.4 1.3m10.3 3.1l.4-1.3m-8.7-4.5l-.6 1.8m8.2 2.4l.5-1.7m-4.1-5.5h-.6l-.7.2-.6.3-.6.3-.5.5-.4.5-.4.6-.2.6m8.1 2.5l.2-1-.1-1-.3-1-.4-.8-.7-.7-.9-.6-.9-.3-1-.1m47.2-5.2l1 .9m6.9-8.3l-1-.9m-7.6 6.3l1.4 1.1m5.5-6.5l-1.4-1.2m-2.8-1l-1.1.2-1.1.5-.8.7-.7.9-.4 1.1-.1 1.1.2 1.2.5 1 .8.9"/><path class="st1" d="M174.3 155.9l-.3-.2-.3-.2-.4-.2-.3-.1-.4-.1-.3-.1h-.4l-.4-.1m17.2-53.4l1.2-.7m-5.9-9.1l-1.1.8m3.7 9l1.5-.9m-4.6-7.2l-1.5 1m0 0l-.9.8-.7 1-.3 1.2v1.2l.3 1.1.7 1.1.9.7 1.1.6 1.2.1 1.2-.1 1.1-.6m-64.7 85.8l-.2 1.3m10.7 1.6l.2-1.4m-9.3-3.1l-.2 1.8m8.4 1.2l.2-1.8m-4.2-4.9l-.7.1-.8.2-.6.3-.7.4-.5.6-.4.6-.3.7-.2.8m8.4 1.2l.1-.9-.2-.9-.3-.9-.6-.7-.6-.6-.8-.5-.9-.3-.9-.1m-35.3-30.7l-1.1.8m5.9 9l1.1-.8m-3.7-9l-1.6 1m4.7 7.1l1.5-1m-2.3-7.8h-.6l-.3.1-.3.1-.3.1-.3.1-.3.1-.2.2m4.6 7.1l.9-.8.7-1 .3-1.2v-1.2l-.3-1.1-.7-1.1-.9-.7-1.1-.5-1.2-.2m42.2 27.3l.2 1.4m10.6-1.9l-.2-1.4m-9.8-.1l.3 1.8m8.4-1.5l-.4-1.8m-4.1-3.5l-1 .1-.8.3-.8.5-.7.7-.5.7-.3.9-.2.9.1.9m8.3-1.5l-.1-.7-.4-.6-.4-.6-.5-.6-.6-.4-.7-.3-.7-.2-.7-.1m-63.5-19.3l-1.2.7m4.9 9.5l1.2-.6m-2.8-9.4l-1.6.9m3.9 7.5l1.6-.8m-1.9-8.1h-.3l-.2.1h-.3l-.2.1h-.3l-.2.1-.3.1-.2.1m3.9 7.6l.9-.7.8-.8.4-1.1.2-1.1-.1-1.1-.4-1.1-.7-.9-.9-.7-1-.4-1.1-.2M127 81.1l-.4-1.3m-10.3 3.1l.4 1.3m9.7-1l-.5-1.8m-8.2 2.5l.6 1.7m0 0l.5 1.1.8.9 1 .7 1.2.3h1.2l1.1-.4 1-.6.8-.9.5-1.1.2-1.2-.2-1.2m-38.3 35l-1.3-.2m-1.3 10.7l1.4.2m2.9-9.4l-1.8-.2m-1 8.4l1.8.3m0 0l1.2-.1 1.2-.3 1-.7.8-1 .4-1.1.2-1.2-.2-1.2-.6-1.1-.8-.9-1-.6-1.2-.3m20.8-44.6l-.6-1.1m-9.4 5.3l.7 1.2m9.3-3.2l-.9-1.6m-7.4 4.2l.9 1.6m0 0l.8 1 1 .7 1.1.4h1.2l1.2-.3 1-.6.9-.8.5-1.1.2-1.2-.1-1.2-.4-1.1m-33.6 41l-1.3-.1m-1.1 10.7l1.4.2m2.7-9.5l-1.8-.1m-.8 8.4l1.8.2m0 0h1.2l1.2-.4 1-.7.7-1 .4-1.1.2-1.2-.3-1.2-.5-1.1-.9-.9-1-.6-1.2-.3M144 70v-1.4m-10.7-.5l-.1 1.4m9.5 2.2l.1-1.8m-8.5-.4l-.1 1.8m0 0l.2 1.2.4 1.2.8.9.9.7 1.2.4 1.2.1 1.2-.3 1-.6.9-.9.5-1.1.2-1.2M92.3 88.1l-1.1-.8m-6.6 8.5l1 .8m7.4-6.4L91.6 89m-5.3 6.7l1.5 1.1m0 0l1 .6 1.2.3h1.2l1.1-.4 1-.7.8-1 .4-1.1.1-1.2-.2-1.2-.5-1.1-.9-.8m100.2 55.5l1.3.3m2-10.6l-1.3-.3m-3.6 9.2l1.8.3m1.6-8.4l-1.8-.3m-.8-.1l-1.1.2-1.1.4-.9.7-.6.9-.5 1.1-.1 1.1.2 1.2.5 1 .8.9.9.6 1.1.4m1.6-8.4h-.3l-.1-.1h-.4m-32.5-49.1l.6-1.2m-9.9-4.3l-.6 1.2m8.2 5.5l.7-1.6m-7.8-3.4l-.7 1.7m0 0l-.4 1.1.1 1.2.3 1.2.7 1 .9.8 1.1.5 1.2.1 1.2-.2 1.1-.5.9-.8.7-1.1m16.5-4.1l.7-1.1m-8.7-6.2l-.8 1.1m6.8 7l1-1.5m-6.9-4.9l-1.1 1.5m0 0l-.5 1.1-.2 1.2.1 1.2.4 1.1.8.9 1 .7 1.1.4 1.2.1 1.2-.3 1-.6.9-.9m2.4 89.5l1 1m7.4-7.8l-1-1m-7.9 5.7l1.3 1.3m5.9-6.1l-1.4-1.3m-2.9-1.2l-1.3.2-1.1.5-.9.9-.7 1.1-.2 1.2v1.3l.5 1.2.8.9m5.8-6.1l-.3-.3-.3-.2-.4-.2-.3-.2-.4-.1-.4-.1-.4-.1h-.4m4.1-52.5l1.2-.6m-4.9-9.7l-1.2.7m2.7 9.4l1.6-.8m-3.8-7.6l-1.6.8m0 0l-1 .7-.8.9-.4 1.1-.1 1.2.2 1.2.5 1.1.8.9 1.1.6 1.2.3h1.2l1.1-.4m2.4 33.6l1.3.3m2.5-10.5l-1.4-.3m-4 9l1.8.4m2-8.3l-1.8-.4m-1-.1l-1.2.2-1.1.5-.9.8-.7 1.1-.3 1.1v1.3l.4 1.1.7 1.1 1 .7 1.1.5m2-8.3h-.2l-.2-.1h-.6m-88.5 34.9l-.9 1m8.2 7.1l.8-1m-6-7.7l-1.2 1.4m6.4 5.5l1.2-1.4m-3.2-7h-.5l-.4.1-.5.1-.4.2-.4.2-.4.3-.3.2-.3.4m6.4 5.5l.6-1 .4-1.1v-1.2l-.4-1.2-.6-1-.9-.8-1.1-.5-1.2-.2m46.5 19.8l.4 1.3m10.4-2.6l-.3-1.3m-9.8.5l.4 1.8m8.3-2l-.4-1.8m-4.2-3.2l-.9.1-.9.3-.8.5-.7.7-.5.8-.3.9-.1 1 .1.9m8.3-2l-.2-.7-.4-.6-.4-.5-.5-.5-.6-.4-.7-.3-.7-.2h-.7m-42.5-12.5l-.7 1.2m9.4 5.4l.6-1.2m-7.4-6.4l-.9 1.6m7.3 4.2l1-1.5m-3.7-6.4h-.6l-.5.1-.6.2-.4.3-.5.3-.4.3-.4.4-.3.5m7.4 4.3l.4-1.1.1-1.1-.1-1.1-.4-1-.7-.9-.9-.6-1-.5-1.1-.1m48 5.9l.8 1.1m8.7-6.4l-.8-1.1m-8.9 4.3l1.1 1.5m6.9-5.1l-1.1-1.5m-3.4-1.7l-1.2.2-1.1.4-.9.8-.6.9-.4 1.1-.1 1.2.3 1.2.5 1m6.9-5.1l-.4-.4-.3-.3-.4-.3-.4-.3-.5-.1-.5-.2-.5-.1h-.4m-57.4-72.3l-.9-.9m-7.8 7.3l.9 1m8.3-5.3l-1.3-1.3m-6.2 5.9l1.3 1.3m0 0l.9.7 1.1.5 1.3.1 1.1-.2 1.1-.6.9-.8.6-1 .3-1.2v-1.2l-.4-1.2-.7-1m-18.5 48.5l-1.3.5m3.7 10.1l1.3-.5m-1.6-9.7l-1.7.7m2.9 8l1.7-.7m-1.5-8.2h-.5l-.2.1h-.4l-.2.1h-.1m2.9 8l1-.5.9-.8.6-1.1.3-1.1-.1-1.2-.4-1.1-.6-1-.9-.8-1.1-.4-1.2-.2m-14.7-.1l-1.3.3m3.1 10.4l1.3-.4m-1-9.8l-1.8.5m2.4 8.2l1.8-.5m-1.2-8.3h-.8l-.1.1h-.3m2.4 8.2l1.1-.5.9-.8.7-1 .3-1.2v-1.2l-.3-1.2-.7-1-.9-.8-1.1-.5-1.2-.1m30.8 42.4l-.5 1.3m10.2 3.5l.5-1.2m-8.5-4.9l-.6 1.7m8 2.8l.6-1.7m-4-5.7l-.7.1-.6.1-.6.3-.6.3-.5.4-.4.5-.4.6-.2.6m8 2.8l.2-1v-1l-.3-1-.5-.9-.6-.7-.9-.6-.9-.4-1-.1M92 107.5l-1.3-.5M87 117.1l1.3.5m5-8.4l-1.7-.6m-2.9 7.9l1.7.7m0 0l1.2.2 1.2-.1 1.1-.4 1-.7.7-1 .4-1.2.1-1.2-.3-1.1-.6-1.1-.9-.8-1-.6m28.1-38l-.5-1.3m-10.2 3.5l.5 1.3m9.7-1.4l-.6-1.8m-8 2.8l.6 1.7m0 0l.5 1.1.8.9 1.1.6 1.2.3 1.2-.1 1.1-.4 1-.7.8-.9.4-1.2.1-1.2-.2-1.1m-40.7 33.9l-1.3-.4m-3.1 10.4l1.3.4m4.5-8.8l-1.8-.5m-2.4 8.2l1.8.5m0 0l1.2.2 1.2-.2 1.1-.5.9-.8.7-1 .3-1.2v-1.2l-.3-1.2-.7-1-.9-.8-1.1-.5m56.7-28.4l-.1-1.4m-10.7.6V81m9.8 1.3l-.1-1.9m-8.5.5l.1 1.9m0 0l.2 1.1.6 1.1.8.9 1.1.6 1.2.2h1.2l1.1-.4 1-.7.7-1 .5-1.1.1-1.2m47 52.2h1.4m0-10.7h-1.4m-1.8 9.6h1.8m0-8.5h-1.8m0 0l-1.2.2-1.1.5-.9.8-.7 1-.3 1.2v1.2l.3 1.1.7 1 .9.8 1.1.5 1.2.2M193 112l1.3-.5m-4-10l-1.3.5m1.9 9.7l1.7-.7m-3.2-7.9l-1.7.7m0 0l-1 .6-.9.9-.5 1-.2 1.2.1 1.2.4 1.1.8 1 1 .7 1.1.4 1.2.1 1.2-.3M155 72.6l.3-1.3m-10.4-2.6l-.4 1.4m9 4l.4-1.8m-8.3-2l-.4 1.8m0 0l-.1 1.2.2 1.2.6 1.1.8.8 1.1.6 1.1.3h1.2l1.2-.4 1-.7.7-1 .5-1.1m35.5 82.2l1.3.5m4-10l-1.3-.5m-5.3 8.2l1.7.7m3.2-7.9l-1.7-.6m-1.6-.4l-1.2.2-1 .5-.9.7-.7 1-.4 1.1v1.2l.2 1.1.6 1 .8.9 1 .5m3.2-7.8l-.2-.1-.2-.1h-.2l-.2-.1h-.6l-.2-.1m-20.2-52.9l.8-1.1m-8.7-6.4l-.8 1.1m6.7 7.2l1.1-1.5m-6.9-5l-1.1 1.4m0 0l-.5 1.1-.3 1.2.1 1.2.4 1.1.8 1 .9.7 1.2.4 1.2.1 1.1-.2 1.1-.6.9-.9m-1.2 86.6l.8 1.1m8.7-6.3l-.7-1.1m-9 4.1l1.1 1.5m6.9-4.9l-1-1.5m-3.5-1.8l-1.1.2-1.1.4-.9.8-.7.9-.4 1.1v1.2l.2 1.1.5 1m7-4.9l-.3-.4-.4-.4-.4-.3-.4-.2-.5-.2-.5-.2-.5-.1h-.5m15-48.7l1.4-.3m-2.5-10.5l-1.3.3m.4 9.8l1.8-.4m-2-8.3l-1.8.4m0 0l-1.1.5-.9.7-.8 1-.4 1.2v1.2l.3 1.1.6 1.1.8.8 1.1.6 1.2.2 1.2-.1m-54.7 54.8v1.4m10.7.6l.1-1.3m-9.5-2.4l-.1 1.8m8.5.5l.1-1.8m-4.3-4.5h-.8l-.7.3-.8.3-.6.5-.5.6-.4.7-.3.8-.1.8m8.5.5l-.1-.9-.2-.8-.4-.8-.5-.7-.6-.6-.8-.4-.8-.2-.9-.1m43.7-15.8l1.2.6m4.9-9.7l-1.2-.6m-6 7.8l1.6.9m3.8-7.6l-1.6-.9m-1.9-.4l-1.1.1-1.1.5-.9.7-.6.9-.4 1.1-.1 1.1.1 1.1.5 1 .8.9.9.6m3.8-7.6l-.2-.1-.2-.1h-.3l-.2-.1-.3-.1h-.7"/><circle cx="135.8" cy="129.2" r="70.9" fill="none" stroke="#1d1d1b" stroke-width=".709" stroke-miterlimit="10"/><circle cx="135.8" cy="129.2" r="39.7" fill="none" stroke="#1d1d1b" stroke-width=".425" stroke-miterlimit="10"/></g><path id="Middle_Lines" d="M687.3 128.7h-63.4" fill="none" stroke="#000" stroke-width=".425" stroke-linecap="round" stroke-linejoin="round" stroke-miterlimit="10" stroke-dasharray="43.2,3.6,3.6,3.6" stroke-dashoffset="21"/><g id="Dimensions"><path class="st5" d="M237.6 198h172.7"/><path d="M239.3 200.5l-9.2-2.5 9.2-2.4v4.9zm169.3 0l9.2-2.5-9.2-2.4v4.9z"/><path class="st6" d="M417.8 241.4v-46.1M630 304.6V354m57-49.4V354M230.1 221v-25.7"/><path class="st5" d="M679.8 352.2h-41.6"/><path d="M678.1 349.7l9.2 2.5-9.2 2.5v-5zm-38.2 0l-9.3 2.5 9.3 2.5v-5z"/><path class="st5" d="M446.1 298.3v-70.1"/><path d="M448.6 296.6l-2.5 9.2-2.5-9.2h5zm0-66.7l-2.5-9.2-2.5 9.2h5z"/><path class="st6" d="M412.4 220.7H449m-36.6 85.1H449"/><path class="st5" d="M713.9 161.2V97"/><path d="M716.4 159.5l-2.5 9.2-2.5-9.2h5zm0-60.9l-2.5-9.2-2.5 9.2h5z"/><path class="st6" d="M680.2 89.4h36.6m-36.6 79.3h36.6"/><path class="st5" d="M741.1 192.1V65.8"/><path d="M743.6 190.4l-2.5 9.2-2.5-9.2h5zm0-122.9l-2.5-9.2-2.5 9.2h5z"/><path class="st6" d="M677.3 58.3H744m-65.8 141.3H744"/><path class="st5" d="M642.3 30.6h30.6"/><path d="M644 33l-9.2-2.4 9.2-2.5V33zm27.2 0l9.2-2.4-9.2-2.5V33z"/><path class="st6" d="M680.4 60.2V27.7m-45.6 32.9V27.7"/></g><g id="Text_1_"><text transform="translate(307.337 191.297)" class="st7 st8">66.2</text><text transform="translate(296.337 215.297)" class="st7 st8">Controller</text><text transform="translate(649.338 344.368)" class="st7 st8">20</text><text transform="rotate(-90 356.563 -82.79)" class="st7 st8">30</text><text transform="rotate(-90 425.053 -280.942)" class="st7 st8"> 28</text><text transform="rotate(-90 439.227 -295.116)" class="st7 st8"> 50</text><text transform="translate(650.651 26.162)" class="st7 st8">16</text><text transform="translate(741.1 344.368)" class="st7 st8">Not to scale</text><text transform="translate(741.1 361.068)" class="st7 st8">Dimensions in mm</text></g><text transform="translate(503.957 246.9)" class="st7 st8">For pin connection</text><text transform="translate(503.957 263.7)" class="st7 st8">(refer to</text><text transform="translate(503.957 280.5)" class="st7 st8">camera</text><text transform="translate(503.957 297.3)" class="st7 st8">specifications)</text></svg>