<svg style="background-color:#fff" version="1.1" id="Layer_1" xmlns="http://www.w3.org/2000/svg" x="0" y="0" viewBox="0 0 550 290" xml:space="preserve"><style>.st0,.st1{fill:#3c3c3c}.st1{stroke:#000;stroke-width:.5;stroke-miterlimit:3.864}.st2{fill:#bde4f7}.st3,.st6{fill:none;stroke:#000;stroke-width:.5;stroke-miterlimit:3.864}.st6{fill:#bde4f7}.st9{font-family:Helvetica,Arial,sans-serif}.st10{font-size:13.523px}.st11{fill:none;stroke:#000;stroke-miterlimit:3.864;stroke-dasharray:2,2}.st14{fill:#f5f5f5}.st15{font-size:12.293px}.st16{enable-background:new}.st17{font-size:13.506px}</style><path class="st0" d="M86.6 100.6h89.7v17.9H86.6v-17.9z"/><path class="st1" d="M86.6 100.6h89.7v17.9H86.6v-17.9z"/><path class="st2" d="M22.4 100.6h64.3v17.9H22.4v-17.9z"/><path class="st3" d="M22.4 100.6h64.3v17.9H22.4v-17.9z"/><path class="st3" d="M22.5 87.9h153.8v30.7H22.5V87.9z"/><path d="M526.5 258v-6.3l15.7 6.3-15.7 6.3V258z" fill-rule="evenodd" clip-rule="evenodd"/><path d="M2.6 258h524.9" fill="none" stroke="#000" stroke-width="2.5" stroke-miterlimit="3.864"/><path class="st0" d="M396.3 222.2H486v17.9h-89.7v-17.9z"/><path class="st1" d="M396.3 222.2H486v17.9h-89.7v-17.9z"/><path class="st2" d="M332.1 222.2h64.3v17.9h-64.3v-17.9z"/><path class="st6" d="M332.1 222.2h64.3v17.9h-64.3v-17.9z"/><path class="st3" d="M332.2 209.6H486v30.6H332.2v-30.6z"/><path d="M22.8 75.1v-26m63.6 25.5V48.7m-63.7-.2h64m-.4 26.4H126m-118.8.3h15.6m103.3-.4v-26M190 74.3V48.4m-64.5-.2h64.9m-.8 26.4h39.8m-.5-.1v-26M267.8 74V48m-39-.1h39m0 26.3h65m-.3-.1V48.2m64.2 25.4V47.7m-64.6-.2H397m.1 26.4h129.4" fill="none" stroke="#000" stroke-miterlimit="3.864"/><path d="M271.4 188.8l41.2-39.3m0 0l17-.1" fill="none" stroke="#000" stroke-width=".8" stroke-miterlimit="3.864"/><path class="st2" d="M228.8 183.6h39v18h-39v-18z"/><path class="st6" d="M228.8 183.6h39v18h-39v-18z"/><path class="st3" d="M228.8 170.9h39v30.8h-39v-30.8z"/><text transform="translate(237.247 197.025)" class="st9 st10">Expo</text><path class="st0" d="M189.8 141.1h89.7V159h-89.7v-17.9z"/><path class="st1" d="M189.8 141.1h89.7V159h-89.7v-17.9z"/><path class="st2" d="M125.7 141.1h64.2V159h-64.2v-17.9z"/><path class="st6" d="M125.7 141.1h64.2V159h-64.2v-17.9z"/><path class="st3" d="M125.7 128.5h153.8v30.6H125.7v-30.6z"/><path class="st11" d="M267.8 159.1v72.1"/><text transform="translate(261.326 279.64)" class="st9" font-size="16.527">Time</text><text transform="translate(27.033 114.804)" class="st9 st10" fill="#101417">Exposure</text><text transform="translate(108.675 114.496)" class="st14 st9 st10">Readout</text><text transform="translate(44.35 98.633)" class="st9 st15">Frame acquisition n</text><text transform="translate(130.515 155.541)" class="st9 st10">Exposure</text><text transform="translate(210.928 155.541)" class="st14 st9 st10">Readout</text><text transform="translate(143.222 139.37)" class="st9 st15">Frame acquisition n+1</text><text transform="translate(337.137 236.84)" class="st9 st10">Exposure</text><text transform="translate(415.398 236.84)" class="st14 st9 st10">Readout</text><text transform="translate(348.922 220.977)" class="st9 st15">Frame acquisition n+3</text><text transform="translate(334.74 140.208)" class="st16"><tspan x="0" y="0" class="st9 st10">This exposure was stopped too</tspan><tspan x="0" y="16.2" class="st9 st10">soon. The frame will be dropped</tspan><tspan x="0" y="32.5" class="st9 st10">and an overtrigger event declared.</tspan></text><path class="st11" d="M267.8 77.7v50.8"/><text transform="translate(7.24 20.164)" class="st16"><tspan x="0" y="0" class="st9 st17">Frame Start</tspan><tspan x="0" y="16.2" class="st9 st17">trigger signal</tspan></text></svg>