<svg xmlns="http://www.w3.org/2000/svg" viewBox="0 0 1261.9 785.8" style="background-color:#fff"><style>.st1{fill:none;stroke:#1a1a18;stroke-width:.4252;stroke-linecap:round;stroke-linejoin:round;stroke-miterlimit:10}.st2{fill:#f6f6f6}.st4{fill:none;stroke-width:.7087;stroke-miterlimit:10}.st4,.st5{stroke:#1a1a18}.st5,.st7,.st8{fill:none;stroke-miterlimit:10}.st5,.st7,.st8{stroke-width:.4252}.st7,.st8{stroke:#000}.st8{stroke-dasharray:5.6693,2.8346}.st11,.st12,.st13,.st14,.st15,.st24,.st25,.st26,.st27,.st28,.st29,.st34,.st35{fill:none;stroke:#000;stroke-width:.3004;stroke-linecap:round;stroke-linejoin:round}.st12{stroke-dasharray:.835,1.3916}.st13{stroke-dasharray:5.5664,1.3916,.835,1.3916}.st14{stroke-dasharray:.7994,1.3324}.st15{stroke-dasharray:5.3295,1.3324,.7994,1.3324}.st24{stroke-dasharray:.6587,1.0979}.st25{stroke-dasharray:4.3917,1.0979,.6587,1.0979}.st26{stroke-dasharray:.4596,.766}.st27{stroke-dasharray:3.0642,.766,.4596,.766}.st28{stroke-dasharray:.4401,.7334}.st29{stroke-dasharray:2.9338,.7334,.4401,.7334}.st34{stroke-dasharray:11.0348,18.3913}.st35{stroke-dasharray:73.5654,18.3913,11.0348,18.3913}.st36{stroke-width:.3009}.st36,.st37,.st38,.st39{fill:none;stroke:#000;stroke-linecap:round;stroke-linejoin:round}.st37{stroke-miterlimit:10;stroke-width:.3009}.st38,.st39{stroke-width:.3005}.st39{stroke-miterlimit:10}.st40{font-family:Helvetica,Arial,sans-serif}.st41{font-size:14px}.st42{font-size:16.625px}.st44{font-size:16.84px}</style><g id="boost"><path d="M518.8 497.8H305.3c-.4 0-.9-.3-1.2-.7-1.4-1.9-3.1-3.6-4.9-5-.3-.3-.5-.6-.5-1V277.6c0-.4.2-.9.5-1.1 1.9-1.4 3.6-3.1 5-4.9.3-.3.8-.5 1.2-.5h213.4v0c.4 0 1 .2 1.3.5 1.4 1.9 3.1 3.6 4.9 5 .3.3.5.8.5 1.2v213.5c0 .4-.2.8-.5 1-1.9 1.4-3.6 3.1-5 4.9-.3.3-.8.6-1.2.6z" fill="#f6f6f6" stroke="#1a1a18" stroke-width=".709" stroke-miterlimit="10"/><path class="st1" d="M379.4 350.4c-3.1 0-5.7 2.5-5.7 5.7m70.9-5.7h-65.1m70.9 5.7c0-3.1-2.5-5.7-5.7-5.7m5.7 62.3V356m-5.7 62.4c3.1 0 5.7-2.5 5.7-5.7m-70.9 5.7h65.1m-70.9-5.6c0 3.1 2.5 5.7 5.7 5.7m-5.7-62.5v56.7"/><path class="st1" d="M478.7 384.3c0-36.8-29.8-66.7-66.7-66.7-36.8 0-66.7 29.8-66.7 66.7 0 36.8 29.8 66.7 66.7 66.7s66.6-29.8 66.7-66.7m-122.9 51.3c20 21.9 50.9 30.2 79.1 21.2m-79.1-21.2c-2.4-2.6-5.6-4.2-9.2-4.4m-7.8-13.6c-1.5 2.8-1.4 6.2.2 9s4.5 4.5 7.7 4.6m-7.8-13.6c1.7-3.2 1.7-6.9.6-10.3m21.2-79.1c-21.9 20-30.2 50.9-21.2 79.1m21.2-79.1c2.6-2.4 4.4-5.6 4.6-9.2m13.6-7.9c-2.8-1.5-6.2-1.4-9 .2s-4.5 4.5-4.6 7.7m13.6-7.9c3.2 1.7 6.9 1.9 10.3.8m78.9 21.1c-20-21.9-50.7-30-78.9-21.1m78.9 21.1c2.4 2.6 5.8 4.4 9.4 4.6m7.8 13.6c1.5-2.8 1.4-6.2-.2-9s-4.5-4.5-7.7-4.6m7.9 13.6c-1.7 3.2-2.1 6.7-1 10.2m-21.1 79.1c21.9-20 30-50.9 21.1-79.1m-21.1 79.1c-2.6 2.4-4.2 5.8-4.4 9.4"/><path class="st1" d="M445.3 457.7c2.8 1.5 6.2 1.4 9-.2s4.5-4.5 4.6-7.7m-13.7 7.8c-3.2-1.7-6.9-1.9-10.3-.8"/><path class="st1" d="M518.8 497.8H305.3c-.4 0-.9-.3-1.2-.7-1.4-1.9-3.1-3.6-4.9-5-.3-.3-.5-.6-.5-1V277.6c0-.4.2-.9.5-1.1 1.9-1.4 3.6-3.1 5-4.9.3-.3.8-.5 1.2-.5h213.4c.4 0 1 .2 1.3.5 1.4 1.9 3.1 3.6 4.9 5 .3.3.5.8.5 1.2v213.5c0 .4-.2.8-.5 1-1.9 1.4-3.6 3.1-5 4.9-.3.3-.8.6-1.2.6z"/><path class="st1" d="M349.8 421.9c0-1.5-1.2-2.8-2.8-2.8s-2.8 1.2-2.8 2.8c0 1.5 1.2 2.8 2.8 2.8 1.5 0 2.8-1.2 2.8-2.8m130.1-75c0-1.5-1.2-2.8-2.8-2.8s-2.8 1.2-2.8 2.8c0 1.5 1.2 2.8 2.8 2.8 1.6 0 2.8-1.3 2.8-2.8m-102.6-27.6c0-1.5-1.2-2.8-2.8-2.8s-2.8 1.2-2.8 2.8c0 1.5 1.2 2.8 2.8 2.8 1.6 0 2.8-1.2 2.8-2.8m75.1 130.2c0-1.5-1.2-2.8-2.8-2.8s-2.8 1.2-2.8 2.8c0 1.5 1.2 2.8 2.8 2.8 1.5 0 2.8-1.3 2.8-2.8m-105.1 5.7c0-3.3-2.7-6-6-6s-6 2.7-6 6 2.7 6 6 6c3.3.1 6-2.6 6-6m0-141.6c0-3.3-2.7-6-6-6s-6 2.7-6 6 2.7 6 6 6 6-2.7 6-6m141.6 0c0-3.3-2.7-6-6-6s-6 2.7-6 6 2.7 6 6 6 6-2.7 6-6m0 141.6c0-3.3-2.7-6-6-6s-6 2.7-6 6 2.7 6 6 6c3.3.1 6-2.6 6-6"/><path class="st1" d="M345.8 455.2c0-2.5-2.1-4.6-4.6-4.6-2.5 0-4.6 2.1-4.6 4.6 0 2.5 2.1 4.6 4.6 4.6 2.6 0 4.6-2 4.6-4.6m0-141.6c0-2.5-2.1-4.6-4.6-4.6-2.5 0-4.6 2.1-4.6 4.6 0 2.5 2.1 4.6 4.6 4.6 2.6 0 4.6-2.1 4.6-4.6m141.7 0c0-2.5-2.1-4.6-4.6-4.6-2.5 0-4.6 2.1-4.6 4.6 0 2.5 2.1 4.6 4.6 4.6 2.5 0 4.6-2.1 4.6-4.6m0 141.6c0-2.5-2.1-4.6-4.6-4.6-2.5 0-4.6 2.1-4.6 4.6 0 2.5 2.1 4.6 4.6 4.6 2.5 0 4.6-2 4.6-4.6M445 355.8h-65.9V413H445v-57.2"/><path class="st2" d="M1152 497.7H938.5c-.4 0-.9-.3-1.2-.7-1.4-1.9-3.1-3.6-4.9-5-.3-.3-.5-.6-.5-1V277.5c0-.4.2-.9.5-1.1 1.9-1.4 3.6-3.1 5-4.9.3-.3.8-.5 1.2-.5H1152c.4 0 1 .2 1.3.5 1.4 1.9 3.1 3.6 4.9 5 .3.3.5.8.5 1.2v213.5c0 .4-.2.8-.5 1-1.9 1.4-3.6 3.1-5 4.9-.3.3-.8.6-1.2.6z"/><path d="M1152 497.7H938.5c-.4 0-.9-.3-1.2-.7-1.4-1.9-3.1-3.6-4.9-5-.3-.3-.5-.6-.5-1V277.5c0-.4.2-.9.5-1.1 1.9-1.4 3.6-3.1 5-4.9.3-.3.8-.5 1.2-.5H1152v0c.4 0 1 .2 1.3.5 1.4 1.9 3.1 3.6 4.9 5 .3.3.5.8.5 1.2v213.5c0 .4-.2.8-.5 1-1.9 1.4-3.6 3.1-5 4.9-.3.3-.8.6-1.2.6z" fill="none" stroke="#1a1a18" stroke-width=".709" stroke-linecap="round" stroke-linejoin="round" stroke-miterlimit="10"/><path class="st1" d="M1099.1 428.4c.9-2.4-.4-5-2.8-5.9-2.4-.9-5 .4-5.9 2.8s.4 5 2.8 5.9c2.4.8 5-.5 5.9-2.8m46.8 62.1c3.1 0 5.7-2.5 5.7-5.7m-212.6.1c0 3.1 2.5 5.7 5.7 5.7m206.8-207c0-3.1-2.5-5.7-5.7-5.7m-201.2 0c-3.1 0-5.7 2.5-5.7 5.7m212.6 201.3V283.7m-212.5 0v201.2m207-207H944.5m0 212.6H1146m4.1-9.8c-.3-4.3-4-7.6-8.3-7.3-4.3.3-7.6 4-7.3 8.3s4 7.6 8.3 7.3 7.6-3.9 7.3-8.3"/><path class="st1" d="M1138.8 483.5l-.2-4.1 3.4-2.2 3.6 1.8.2 4-3.3 2.3-3.7-1.8M943.7 281c-3.5 2.5-4.4 7.4-1.9 10.9 2.5 3.5 7.4 4.4 10.9 1.9 3.5-2.5 4.4-7.4 1.9-10.9a7.76 7.76 0 00-10.9-1.9"/><path class="st1" d="M952.1 289.1l-3.4 2.3-3.8-1.8-.4-3.9 3.5-2.4 3.6 1.7.5 4.1m3.8 193.8c.9-4.2-1.8-8.4-6.1-9.3-4.2-.9-8.4 1.8-9.3 6.1s1.8 8.4 6.1 9.3c4.2.8 8.4-1.9 9.3-6.1"/><path class="st1" d="M944.4 482.4l.9-3.9 3.9-1.3 2.9 2.7-.7 4-4 1.4-3-2.9m191.1-199c-2.2 3.7-.9 8.5 2.8 10.7 3.7 2.2 8.5.9 10.7-2.8 2.2-3.7.9-8.5-2.8-10.7s-8.5-.9-10.7 2.8"/><path class="st1" d="M1146.3 287.3l-2.1 3.6h-4l-2.2-3.6 2.2-3.6 4.1.2 2 3.4m-187.9.7v-10.1m-9.4 19.5c5.1 0 9.4-4.2 9.4-9.4m-19.3 9.4h9.9m9.4 183c0-5.1-4.2-9.4-9.4-9.4h-10m19.4 19.5v-10.1M944 490.5h14.4m183.1-193.1h10m-19.4-9.4c0 5.1 4.3 9.4 9.4 9.4m-9.4-19.4v10m0 192.4v10.1m9.4-19.4c-5.1 0-9.4 4.2-9.4 9.4m19.2-9.4h-9.8m-77.9 19.4V452m17-16.9c-9.4 0-17 7.6-17 17m88-17h-70.9m-11.3 55.4V452m11.2-11.2c-6.2 0-11.2 5-11.3 11.2m11.4-11.4h70.9m-207.4 51.9h202.1m-209.1-7.1c0 3.9 3.2 7.1 7.1 7.1m-7.1-209.3v202.1m7.1-209.2c-3.9 0-7.1 3.2-7.1 7.1m209.1-7.1H944.2m209.1 7.2c0-3.9-3.2-7.1-7.1-7.1m7.1 209.1V283.2m-7.1 209.3c3.9 0 7.1-3.2 7.1-7.1m-100.5-27.2c0-4.4-3.6-8-8-8s-8 3.6-8 8 3.6 8 8 8c4.4.1 8-3.5 8-8"/><path class="st1" d="M1059 458.2c0-7.8-6.3-14.1-14.1-14.1s-14.1 6.3-14.1 14.1 6.3 14.1 14.1 14.1c7.7.1 14.1-6.2 14.1-14.1"/><path class="st1" d="M1056.8 458.2c0-6.6-5.4-12-12-12s-12 5.4-12 12 5.4 12 12 12 12-5.3 12-12"/><path class="st1" d="M1035 458.2c0 5.4 4.4 9.8 9.8 9.8s9.8-4.4 9.8-9.8-4.4-9.8-9.8-9.8-9.8 4.4-9.8 9.8m4.9-3.3h-.9m.5-.5h-.5m.9-.2l-.4.2m3.4-.2h-.9"/><path class="st1" d="M1039.9 454.9l1.1.6 1-.6h.9m-3-.7l1.1-.5 1 .5m-2.1 7.4l-.2.3-.2.4m1.3-3.6v.4l-.2.5m-1.6 2.2v.3m.2-.9l-.2.6m1.2-3.4l-.3.8m.7.4l.2 1.1-.9.9m-.7-.4l-.2-1.1.9-.9m5.9 5.1l.4.2.3.3m-2.5-2c-.1.1-.1.2-.2.3m.4-.5c-.1.1-.2.1-.3.2m1.9 2.2l.2.4m-.5-.8l.3.4m-2.3-2.2l.3.4m.6-.5l1.1.3.3 1.3m-.3.3l-1.3-.3-.4-1.1m6.9-3.6h.3l.6-.2m-3.6 1.5l.3-.2.4-.2m2.7-.4l.4-.1m-.9.3l.5-.2m-2.9 1.3l.4-.2m-.2-.7l.7-.9h1.3m.2.7l-.8.9h-1.2m-.6-7.7v-.4l.2-.5m.6.5v-.5m0 .9v-.4m0 3.5v-1m-.8-2.1l-.5 1.1.5 1 .1.9m.7-3l.5 1.1-.5 1m-4.5 1.7v-.9m.3 3.2c.1 0 .2 0 .3-.1m-.6 0c.1 0 .2.1.3.1m.2-2.9v-.3m-.2.5c-.1 0-.2 0-.3.1m.7 0c-.1 0-.2-.1-.3-.1m.3.4l-.2-.6m0 3.1l.2-.4m-.7 0l-.6-1.1.6-1m.7 0l.5 1-.5 1.1"/><path class="st1" d="M1049.3 452.6c-.9-.2-1.8.1-2.3.9-.5.8-.4 1.8.3 2.5.6.7 1.7.8 2.5.4s1.2-1.4 1-2.3"/><path class="st1" d="M1049.2 452.8l.9.3.6 1.1m-11.7 0c-.2.9.2 1.8 1 2.3.8.4 1.8.3 2.5-.4s.8-1.7.3-2.5-1.4-1.2-2.3-.9m-1.5 1.5l.5-.9.9-.5m-1.7 9.3c.8.5 1.8.5 2.5-.1s1-1.6.6-2.4c-.4-.9-1.3-1.4-2.2-1.2s-1.7.8-1.8 1.8"/><path class="st1" d="M1038.8 462.1l-.7-.9-.2-1.1m8 5.3c.8-.5 1.2-1.4.9-2.3-.2-.9-1.1-1.5-2-1.5-.9 0-1.7.6-2 1.5-.2.9.1 1.8.9 2.3m2.1 0l-.9.3-1.1-.3m8.1-5.3c-.1-.9-.9-1.6-1.8-1.8-.9-.1-1.8.4-2.2 1.2-.4.9-.1 1.9.6 2.4s1.8.6 2.5.1"/><path class="st1" d="M1051.8 460.1l-.2 1.1-.6.9m-4.1-3.9c0-1.1-.9-2.1-2.1-2.1s-2.1.9-2.1 2.1c0 1.1.9 2.1 2.1 2.1s2.1-.9 2.1-2.1m-3.4-7.2c.3.5.8.8 1.4.8.6 0 1.1-.3 1.4-.8m-3-.4v.2l.2.3"/><path class="st1" d="M1046.2 451.1l.2-.3v-.2"/><path class="st1" d="M1043.3 450.4c-4 .8-6.8 4.5-6.4 8.6.4 4.1 3.9 7.2 8 7.2s7.6-3.1 8-7.2c.4-4.1-2.4-7.8-6.4-8.6m-.1 0c-1-.2-2.1-.2-3.1 0m51.2 15.9c0 .3.3.6.6.6s.6-.3.6-.6-.3-.6-.6-.6-.6.2-.6.6"/><path class="st1" d="M1088.5 466.3c0 3.6 2.9 6.6 6.6 6.6 3.6 0 6.6-2.9 6.6-6.6 0-3.6-2.9-6.6-6.6-6.6-3.6 0-6.6 3-6.6 6.6m4.7 7.8h.2l.3.2h2.6l.5-.2m0-15.6h-.5l-.6-.2h-1.4l-.6.2h-.5m3.6 0v1.6m-3.6-1.6v1.6m3.6 12.4v1.6m-3.6-1.6v1.6m-4.3.9l.5-.9m8.7-16.7l.5-1.1m-9.6 18.8c.8.5 1.6 1 2.5 1.3m.4-1l-.3.9m9.5-18.7l-.5 1m.6-1.1c-.8-.5-1.6-1-2.5-1.3"/><path class="st1" d="M1091.5 476.4c5.1 1.8 10.7-.4 13.1-5.2 2.4-4.8 1-10.6-3.4-13.7m-2.5-1.3c-5.1-1.8-10.7.4-13.1 5.2-2.4 4.8-1 10.6 3.4 13.7"/><path class="st1" d="M1092.1 475.3c4.4 1.5 9.3-.5 11.4-4.7 2.1-4.2.9-9.3-2.9-12m-2.5-1.3c-4.4-1.5-9.3.5-11.4 4.7-2.1 4.2-.9 9.3 2.9 12"/><path class="st2" d="M118.8 271.3h-72l-.9.9v225l.9.9h72l.9-.9v-6.3h2.7l.5-.5h1.6l.5.5h47.2l.9-.9v-12.8h5l.5-.7v-21.2l-.5-.5h-5v-22.5s2.7-1.6 2.7-5.3-2.7-5.7-2.7-5.7V279.4l-.9-.9H125l-.5.5h-1.6l-.5-.5h-2.7v-6.3l-.9-.9"/><path class="st1" d="M141.8 280.9v13.8m0 0c0 .4-.3.9-.7.9M141 280c.4 0 .8.4.8.8m-.7-.8h-7.8m7.8 15.6h-7.8m8.5 179.1v13.9m0 .1c0 .4-.4.8-.8.8m0-15.7c.4 0 .8.4.8.8m-.7-.8h-7.8m7.8 15.7h-7.8m39.8-17.8h-40.7m.9 0v19.2m-.9 0v-19.2M173 297.8h-40.6m0 0v-19.2m-9.5 211.8V279.1m2.2 211.8V278.5m-5.4.1v212.9M80 319.9c-3.3 0-6-2.7-6-6s2.7-6 6-6 6 2.7 6 6-2.7 6-6 6m0 141.7c-3.3 0-6-2.7-6-6s2.7-6 6-6 6 2.7 6 6-2.7 6-6 6"/><path class="st1" d="M80 460.2c-2.5 0-4.6-2.1-4.6-4.6s2.1-4.6 4.6-4.6c2.5 0 4.6 2.1 4.6 4.6s-2.1 4.6-4.6 4.6m0-141.7c-2.5 0-4.6-2.1-4.6-4.6s2.1-4.6 4.6-4.6c2.5 0 4.6 2.1 4.6 4.6 0 2.6-2.1 4.6-4.6 4.6m53.3-39.9v19.2m39.8 179.4v-22.5"/><path class="st4" d="M118.8 271.3h-72l-.9.9v225l.9.9h72l.9-.9v-6.3h2.7l.5-.5h1.6l.5.5h47.2l.9-.9v-12.8h5l.5-.7v-21.2l-.5-.5h-5v-22.5s2.7-1.6 2.7-5.3-2.7-5.7-2.7-5.7V279.4l-.9-.9H125l-.5.5h-1.6l-.5-.5h-2.7v-6.3l-.9-.9"/><path class="st5" d="M173.1 432.3v-11"/><path fill="none" stroke="#1a1a18" stroke-width=".85" stroke-linecap="round" stroke-linejoin="round" stroke-miterlimit="10" d="M90 355.8V413"/><path class="st2" d="M298.7 679.7v72l.9.9h225l.9-.9v-72l-.9-.9h-6.3v-2.7l-.5-.5V674l.5-.5v-47.2l-.9-.9h-99.3v-5l-.7-.5h-18.7l-.5.5v5h-31l-.1-.4c-2.7-2.3-6.7-2.3-9.4 0l-.1.4h-50.9l-.9.9v47.2l.5.5v1.6l-.5.5v2.7h-6.3l-.8.9"/><path class="st1" d="M308.2 656.7h13.9m0 0c.4 0 .9.3.9.7m-15.7.1c0-.4.4-.8.8-.8m-.8.7v7.8m15.7-7.8v7.8m179.1-8.5h13.8m.1 0c.4 0 .8.4.8.8m-15.6 0c0-.4.4-.8.8-.8m-.8.7v7.8m15.6-7.8v7.8M499 625.4v40.7m0-.9h19.2m0 .9H499m-173.9-40.6v40.6m-9.3-10.8h9.3m-19.2 0h9.9m9.3 10.8h-19.2m211.8 9.5H306.4m211.9-2.2H305.9m0 5.4h212.9m-171.5 39.7c0 3.3-2.7 6-6 6s-6-2.7-6-6 2.7-6 6-6 6 2.7 6 6m141.6 0c0 3.3-2.7 6-6 6s-6-2.7-6-6 2.7-6 6-6 6 2.7 6 6"/><path class="st1" d="M487.5 718.5c0 2.5-2.1 4.6-4.6 4.6s-4.6-2.1-4.6-4.6c0-2.5 2.1-4.6 4.6-4.6s4.6 2.1 4.6 4.6m-141.7 0c0 2.5-2.1 4.6-4.6 4.6s-4.6-2.1-4.6-4.6c0-2.5 2.1-4.6 4.6-4.6 2.6 0 4.6 2.1 4.6 4.6m-39.9-53.3h19.2m93-39.8h-20"/><path class="st4" d="M298.7 679.7v72l.9.9h225l.9-.9v-72l-.9-.9h-6.3v-2.7l-.5-.5V674l.5-.5v-47.2l-.9-.9h-99.3v-5l-.7-.5h-18.7l-.5.5v5h-31l-.1-.4c-2.7-2.3-6.7-2.3-9.4 0l-.1.4h-50.9l-.9.9v47.2l.5.5v1.6l-.5.5v2.7h-6.3l-.8.9"/><path class="st5" d="M357.6 625.4h9.6"/><path class="st2" d="M298.7 119.6v-72l.9-.9h225l.9.9v72l-.9.9h-6.3v2.7l-.5.5v1.6l.5.5V173l-.9.9h-99.3v5l-.7.5h-18.7l-.5-.5v-5h-31l-.1.4c-2.7 2.3-6.7 2.3-9.4 0l-.1-.4h-50.9l-.9-.9v-47.2l.5-.5v-1.6l-.5-.5v-2.7h-6.3l-.8-.9"/><path class="st1" d="M308.2 142.6h13.9m0 0c.4 0 .9-.3.9-.7m-15.7-.1c0 .4.4.8.8.8m-.8-.7v-7.8m15.7 7.8v-7.8m179.1 8.5h13.8m.1 0c.4 0 .8-.4.8-.8m-15.6 0c0 .4.4.8.8.8m-.8-.7v-7.8m15.6 7.8v-7.8M499 173.9v-40.7m0 .9h19.2m0-.9H499m-111 35V144m-62.9 0H388m-62.9 0v-10.8m-9.3 10.8h9.3m-19.2 0h9.9m9.3-10.8h-19.2m82.1 35h-19.1m-13 0h-50m211.8-44.5H306.4m211.9 2.2H305.9m0-5.4h212.9M347.3 80.8c0-3.3-2.7-6-6-6s-6 2.7-6 6 2.7 6 6 6 6-2.7 6-6m141.6 0c0-3.3-2.7-6-6-6s-6 2.7-6 6 2.7 6 6 6 6-2.7 6-6"/><path class="st1" d="M487.5 80.8c0-2.5-2.1-4.6-4.6-4.6s-4.6 2.1-4.6 4.6c0 2.5 2.1 4.6 4.6 4.6s4.6-2.1 4.6-4.6m-141.7 0c0-2.5-2.1-4.6-4.6-4.6s-4.6 2.1-4.6 4.6c0 2.5 2.1 4.6 4.6 4.6 2.6 0 4.6-2.1 4.6-4.6m76.2 0c0-5.5-4.5-10-10-10s-10 4.5-10 10 4.5 10 10 10 10-4.5 10-10"/><path class="st1" d="M404.9 80.8c0 3.9 3.2 7.1 7.1 7.1 3.9 0 7.1-3.2 7.1-7.1 0-3.9-3.2-7.1-7.1-7.1-4 0-7.1 3.2-7.1 7.1m-36 69v9.2m-13-9.2v9.2m0 4.3v5.7h13v-5.7m-8.3-2.2l.2-.7.3-.5.6-.6h1.4l.6.6.5.5v1.5l-.5.5-.6.4-.7.1-.7-.1-.6-.4-.3-.5-.2-.8m-4.7-2.1h4m5.2 0h3.8m-9 4.3h-4m13 0h-3.8m-9.1 0c.4-1.5.4-3 0-4.4m12.8-.1c-.4 1.5-.4 3 0 4.4m-8.9-4.2l1.1-.9 1.4-.4 1.4.4 1.3.9"/><path class="st1" d="M359.9 159l.5 1.1.2 1-.2 1.1-.5 1.1 1.1.9 1.4.4 1.4-.4 1.3-.9m0 0l-.5-1.1-.2-1.1.2-1 .5-1.1m4.5-9.2v-1.1m-16.2 0v.6l.5.5h15.7m-1.6-1.1h-.2m.7-1.2l-.5 1.2m-2-1.2v-.6h2.5v.6m-3 1.2l.5-1.2m0 0h-14.2m21.2 0h-4.5m-15.6 1.2h12.6m2.5 0h3.9m-19 0l-1.1-1.2m20.1 1.2l1.1-1.2V144m-21.2 0v3.5m-45.9-13.4h19.2m93 39.8h-20"/><path class="st4" d="M298.7 119.6v-72l.9-.9h225l.9.9v72l-.9.9h-6.3v2.7l-.5.5v1.6l.5.5V173l-.9.9h-99.3v5l-.7.5h-18.7l-.5-.5v-5h-31l-.1.4c-2.7 2.3-6.7 2.3-9.4 0l-.1-.4h-50.9l-.9-.9v-47.2l.5-.5v-1.6l-.5-.5v-2.7h-6.3l-.8-.9"/><path class="st1" d="M388 168.2l5.5 5.5"/><path class="st5" d="M357.6 173.9h9.6"/><path class="st2" d="M744 497.3h72l.9-.9v-225l-.9-.9h-72l-.9.9v6.3h-2.7l-.5.5h-1.6l-.5-.5h-47.2l-.9.9v143.6l-.4.1c-2.3 2.7-2.3 6.7 0 9.4l.4.1v23.8h-5l-.5.7V477l.5.5h5v8.1l.9 4.6h47.2l.5-.5h1.6l.5.5h2.7v6.3l.9.8"/><path class="st1" d="M721 487.7v-13.8m0 0c0-.4.3-.9.7-.9m.1 15.6c-.4 0-.8-.4-.8-.8m.7.8h7.8m-7.8-15.6h7.8M721 293.9V280m0-.1c0-.4.4-.8.8-.8m0 15.7c-.4 0-.8-.4-.8-.8m.7.8h7.8m-7.8-15.7h7.8m-39.8 17.8h40.7m-.9 0v-19.2m.9 0v19.2m-35 143.7h24.2m0 49.4v-49.4m0 30.2h10.8m-10.8 9.4v-9.4m0 19.2v-9.8m10.8-9.4v19.3m-35-49.5v10.8m0 13V490m44.5-211.8v211.3m-2.2-211.8v212.4m5.4-.1V277.1m39.7 171.6c3.3 0 6 2.7 6 6s-2.7 6-6 6-6-2.7-6-6 2.7-6 6-6m0-141.7c3.3 0 6 2.7 6 6s-2.7 6-6 6-6-2.7-6-6 2.7-6 6-6"/><path class="st1" d="M782.8 308.4c2.5 0 4.6 2.1 4.6 4.6s-2.1 4.6-4.6 4.6c-2.5 0-4.6-2.1-4.6-4.6s2.1-4.6 4.6-4.6m0 141.7c2.5 0 4.6 2.1 4.6 4.6s-2.1 4.6-4.6 4.6c-2.5 0-4.6-2.1-4.6-4.6 0-2.5 2.1-4.6 4.6-4.6m-69 1.3h-9.2m9.2 13h-9.2m-4.3 0h-5.7v-13h5.7m2.2 8.3l.7-.2.5-.3.6-.6v-1.4l-.6-.6-.5-.5h-1.4l-.6.5-.3.6-.2.7.2.7.3.6.6.3.7.2m2.1 4.7v-4m0-5.2v-3.8m-4.3 9v4m0-13v3.8m.1 9.1c1.5-.4 3-.4 4.4 0m0-12.8c-1.5.4-3 .4-4.4 0m4.2 8.9l.9-1.1.4-1.4-.4-1.4-.9-1.3"/><path class="st1" d="M704.6 460.4l-1-.5-1.1-.2-1.1.2-1.1.5-.9-1.1-.3-1.4.3-1.4.9-1.3m0 0l1.1.5 1.1.2 1.1-.2 1-.5m9.2-4.5h1.1m0 16.2h-.5l-.6-.5v-15.7m1.1 1.6v.2m1.3-.7l-1.3.5m1.3 2h.5v-2.5h-.5m-1.3 3l1.3-.5m0 0v14.2m0-21.2v4.5m-1.3 15.6v-12.6m0-2.5v-3.9m0 19l1.3 1.1m-1.3-20.1l1.3-1.1h3.4m0 21.2h-3.4m13.3 21.6v-19.3m-39.8-15.3v21.9"/><path class="st4" d="M744 497.3h72l.9-.9v-225l-.9-.9h-72l-.9.9v6.3h-2.7l-.5.5h-1.6l-.5-.5h-47.2l-.9.9v143.6l-.4.1c-2.3 2.7-2.3 6.7 0 9.4l.4.1v23.8h-5l-.5.7V477l.5.5h5v8.1l.9 4.6h47.2l.5-.5h1.6l.5.5h2.7v6.3l.9.8"/><path class="st1" d="M695.4 440.6l-5.5-5.9"/><path class="st5" d="M689.7 422.2v9.5"/><path class="st7" d="M63.2 307.9h-2.9"/><path class="st8" d="M57.5 307.9h-7.1"/><path class="st7" d="M49 307.9h-2.8m17 152.2h-2.9"/><path class="st8" d="M57.5 460.1h-7.1"/><path class="st7" d="M49 460.1h-2.8m17-152.2v2.8"/><path fill="none" stroke="#000" stroke-width=".425" stroke-miterlimit="10" stroke-dasharray="5.6347,2.8173" d="M63.2 313.5v7.1"/><path fill="none" stroke="#000" stroke-width=".425" stroke-miterlimit="10" stroke-dasharray="5.6347,2.8173,5.6347,2.8173" d="M63.2 322v133.8"/><path class="st7" d="M63.2 457.2v2.9"/></g><g id="Mittellinien"><path class="st11" d="M79.5 303.6v3"/><path class="st12" d="M79.5 308v1.6"/><path class="st13" d="M79.5 310.3v8.4"/><path class="st11" d="M79.5 319.4v3.1m-9.3-9.4h3"/><path class="st14" d="M74.5 313.1H76"/><path class="st15" d="M76.6 313.1h8.2"/><path class="st11" d="M85.4 313.1h3M79.5 446v3"/><path class="st12" d="M79.5 450.4v1.5"/><path class="st13" d="M79.5 452.6v8.5"/><path class="st11" d="M79.5 461.8v3m-9.3-9.3h3"/><path class="st14" d="M74.5 455.5H76"/><path class="st15" d="M76.6 455.5h8.2"/><path class="st11" d="M85.4 455.5h3m693.8 8.8v-3"/><path class="st12" d="M782.2 459.9v-1.5"/><path class="st13" d="M782.2 457.7v-8.5"/><path class="st11" d="M782.2 448.5v-3m9.3 9.3h-3"/><path class="st14" d="M787.1 454.8h-1.4"/><path class="st15" d="M785 454.8h-8.1"/><path class="st11" d="M776.2 454.8h-3m271.4 20.9v-5.6"/><path fill="none" stroke="#000" stroke-width=".3" stroke-linecap="round" stroke-linejoin="round" stroke-dasharray="1.5466,2.5776" d="M1044.6 467.5v-2.8"/><path fill="none" stroke="#000" stroke-width=".3" stroke-linecap="round" stroke-linejoin="round" stroke-dasharray="10.3106,2.5776,1.5466,2.5776" d="M1044.6 463.4v-15.7"/><path class="st11" d="M1044.6 446.4v-5.6m17.2 17.3h-5.6"/><path fill="none" stroke="#000" stroke-width=".3" stroke-linecap="round" stroke-linejoin="round" stroke-dasharray="1.4808,2.4679" d="M1053.7 458.1h-2.7"/><path fill="none" stroke="#000" stroke-width=".3" stroke-linecap="round" stroke-linejoin="round" stroke-dasharray="9.8717,2.4679,1.4808,2.4679" d="M1049.8 458.1h-15.1"/><path class="st11" d="M1033.5 458.1h-5.6m67 22.1v-4.4"/><path fill="none" stroke="#000" stroke-width=".3" stroke-linecap="round" stroke-linejoin="round" stroke-dasharray="1.2203,2.0338" d="M1094.9 473.7v-2.2"/><path fill="none" stroke="#000" stroke-width=".3" stroke-linecap="round" stroke-linejoin="round" stroke-dasharray="8.1353,2.0338,1.2203,2.0338" d="M1094.9 470.5v-12.4"/><path class="st11" d="M1094.9 457v-4.4m13.6 13.7h-4.4"/><path fill="none" stroke="#000" stroke-width=".3" stroke-linecap="round" stroke-linejoin="round" stroke-dasharray="1.1684,1.9473" d="M1102.1 466.3h-2.1"/><path fill="none" stroke="#000" stroke-width=".3" stroke-linecap="round" stroke-linejoin="round" stroke-dasharray="7.7891,1.9473,1.1684,1.9473" d="M1099 466.3h-11.9"/><path class="st11" d="M1086.2 466.3h-4.4m12.8-32.2v-2.4"/><path class="st24" d="M1094.6 430.6v-1.2"/><path class="st25" d="M1094.6 428.9v-6.7"/><path class="st11" d="M1094.6 421.6v-2.3m7.4 7.4h-2.3"/><path class="st24" d="M1098.6 426.7h-1.2"/><path class="st25" d="M1096.8 426.7h-6.7"/><path class="st11" d="M1089.6 426.7h-2.4M782.2 322v-3"/><path class="st12" d="M782.2 317.6V316"/><path class="st13" d="M782.2 315.3v-8.4"/><path class="st11" d="M782.2 306.2v-3.1m9.3 9.4h-3"/><path class="st14" d="M787.1 312.5h-1.4"/><path class="st15" d="M785 312.5h-8.1"/><path class="st11" d="M776.2 312.5h-3m-441.7 143h3"/><path class="st12" d="M335.9 455.5h1.5"/><path class="st13" d="M338.1 455.5h8.5"/><path class="st11" d="M347.3 455.5h3m-9.1-9.3v3"/><path class="st14" d="M341.2 450.5v1.5"/><path class="st15" d="M341.2 452.6v8.2"/><path class="st11" d="M341.2 461.4v3.1m132.6-9h3"/><path class="st12" d="M478.2 455.5h1.5"/><path class="st13" d="M480.4 455.5h8.5"/><path class="st11" d="M489.6 455.5h3m-9.9-9.3v3"/><path class="st14" d="M482.7 450.5v1.5"/><path class="st15" d="M482.7 452.6v8.2"/><path class="st11" d="M482.7 461.4v3.1M331.5 313.4h3"/><path class="st12" d="M335.9 313.4h1.5"/><path class="st13" d="M338.1 313.4h8.5"/><path class="st11" d="M347.3 313.4h3m-9.1-9.3v3"/><path class="st14" d="M341.2 308.4v1.5"/><path class="st15" d="M341.2 310.5v8.2"/><path class="st11" d="M341.2 319.3v3m132.6-8.9h3"/><path class="st12" d="M478.2 313.4h1.5"/><path class="st13" d="M480.4 313.4h8.5"/><path class="st11" d="M489.6 313.4h3m-9.9-9.3v3"/><path class="st14" d="M482.7 308.4v1.5"/><path class="st15" d="M482.7 310.5v8.2"/><path class="st11" d="M482.7 319.3v3m-9.6 26.8l1.5-.8"/><path class="st26" d="M475.2 347.9l.7-.4"/><path class="st27" d="M476.3 347.3l4-2.4"/><path class="st11" d="M480.7 344.8l1.4-.9m-7-1.8l.8 1.4"/><path class="st28" d="M476.3 344.1l.4.7"/><path class="st29" d="M476.9 345.1l2.2 3.9"/><path class="st11" d="M479.3 349.3l.8 1.5m-137.9 73.9l1.4-.9"/><path class="st26" d="M344.3 423.5l.7-.5"/><path class="st27" d="M345.3 422.8l4.1-2.3"/><path class="st11" d="M349.7 420.3l1.5-.8m-7-1.9l.8 1.5"/><path class="st28" d="M345.4 419.7l.4.7"/><path class="st29" d="M345.9 420.7l2.3 3.9"/><path class="st11" d="M348.4 424.9l.8 1.4m98.1 18.9l.9 1.5"/><path class="st26" d="M448.5 447.3l.5.8"/><path class="st27" d="M449.1 448.4l2.4 4.1"/><path class="st11" d="M451.7 452.8l.8 1.4m1.9-7l-1.5.8"/><path class="st28" d="M452.3 448.4l-.7.4"/><path class="st29" d="M451.3 449l-3.9 2.2"/><path class="st11" d="M447.1 451.4l-1.4.8m-73.9-137.9l.8 1.4"/><path class="st26" d="M373 316.4l.4.7"/><path class="st27" d="M373.6 317.5l2.3 4"/><path class="st11" d="M376.1 321.9l.8 1.4m1.9-7l-1.4.8"/><path class="st28" d="M376.7 317.5l-.7.4"/><path class="st29" d="M375.7 318.1l-3.8 2.2"/><path class="st11" d="M371.5 320.5l-1.4.8m-38.3 396.8h3"/><path class="st12" d="M336.2 718.1h1.5"/><path class="st13" d="M338.4 718.1h8.5"/><path class="st11" d="M347.6 718.1h3m-9.3 9.3v-3"/><path class="st14" d="M341.3 723.1v-1.5"/><path class="st15" d="M341.3 721v-8.2"/><path class="st11" d="M341.3 712.2v-3m132 9.2h3"/><path class="st12" d="M477.7 718.4h1.5"/><path class="st13" d="M479.9 718.4h8.5"/><path class="st11" d="M489.1 718.4h3m-9.3 9.3v-3"/><path class="st14" d="M482.8 723.4v-1.5"/><path class="st15" d="M482.8 721.2v-8.1"/><path class="st11" d="M482.8 712.4v-3M331.7 80.6h3"/><path class="st12" d="M336.1 80.6h1.5"/><path class="st13" d="M338.3 80.6h8.5"/><path class="st11" d="M347.5 80.6h3m-9.3-9.3v3"/><path class="st14" d="M341.2 75.7v1.4"/><path class="st15" d="M341.2 77.8v8.1"/><path class="st11" d="M341.2 86.6v3m132.3-9h3"/><path class="st12" d="M477.9 80.6h1.5"/><path class="st13" d="M480.1 80.6h8.5"/><path class="st11" d="M489.3 80.6h3m-9.3-9.3v3"/><path class="st14" d="M483 75.7v1.4"/><path class="st15" d="M483 77.8v8.1"/><path class="st11" d="M483 86.6v3m-83.6-9h3"/><path fill="none" stroke="#000" stroke-width=".3" stroke-linecap="round" stroke-linejoin="round" stroke-dasharray=".7028,1.1713" d="M403.6 80.6h1.3"/><path fill="none" stroke="#000" stroke-width=".3" stroke-linecap="round" stroke-linejoin="round" stroke-dasharray="4.6851,1.1713,.7028,1.1713" d="M405.5 80.6h14.9"/><path class="st11" d="M421 80.6h3M411.8 68.5v3"/><path fill="none" stroke="#000" stroke-width=".3" stroke-linecap="round" stroke-linejoin="round" stroke-dasharray="1.1714,1.9523" d="M411.8 73.4v2.2"/><path fill="none" stroke="#000" stroke-width=".3" stroke-linecap="round" stroke-linejoin="round" stroke-dasharray="7.8093,1.9523,1.1714,1.9523" d="M411.8 76.6v11.9"/><path class="st11" d="M411.8 89.5v3"/><g><path class="st11" d="M412.1 508.5v-39.7"/><path class="st34" d="M412.1 450.4v-20.3"/><path class="st35" d="M412.1 420.9V308.7"/><path class="st11" d="M412.1 299.6v-39.8m124.3 124.4h-39.7"/><path class="st34" d="M478.3 384.2H458"/><path class="st35" d="M448.8 384.2H336.7"/><path class="st11" d="M327.5 384.2h-39.8"/></g></g><g id="Bemaßung"><path class="st36" d="M16.6 323.5V446"/><path d="M13.8 325.4l2.8-10.6 2.9 10.6zm0 118.7l2.8 10.6 2.9-10.6z"/><path class="st37" d="M70.4 455.5H10.8"/><path class="st36" d="M349.7 17.3h124.6"/><path d="M351.6 20.2L341 17.3l10.6-2.8zm120.7 0l10.6-2.9-10.6-2.8z"/><path class="st37" d="M482.9 71.1V11.5M340.6 71.1V11.5"/><path class="st36" d="M350 782.9h125.1"/><path d="M351.9 785.8l-10.6-2.9 10.6-2.8zm121.3 0l10.6-2.9-10.6-2.8z"/><path class="st37" d="M483 726.1v59.6"/><path class="st36" d="M859.1 445.9V321.8"/><path d="M861.9 443.9l-2.8 10.7-2.9-10.7zm0-120.2l-2.8-10.6-2.9 10.6z"/><path class="st37" d="M791 312.3h73.9M791 454.6h73.9"/><path class="st36" d="M350.1 240.1h125.1"/><path d="M352 243l-10.6-2.9 10.6-2.8zm121.3 0l10.6-2.9-10.6-2.8z"/><path class="st37" d="M483.9 302.6v-68.1"/><path class="st36" d="M270.2 321.5v125.3"/><path d="M267.3 323.4l2.9-10.6 2.8 10.6zm0 121.5l2.9 10.6 2.8-10.6z"/><path class="st37" d="M332.6 455.4h-68.1"/><path class="st36" d="M53.9 525.7h17.2"/><path d="M55.8 528.5l-10.6-2.8 10.6-2.9zm13.4 0l10.6-2.8-10.6-2.9z"/><path class="st36" d="M790.4 533.5h16.9"/><path d="M792.4 536.4l-10.6-2.8 10.6-2.9zm13 0l10.6-2.8-10.6-2.9z"/><path class="st37" d="M45.4 490.2v40.9M79.9 463v68.1"/><path class="st38" d="M11 244.8h25.9"/><path d="M35 247.6l10.6-2.8L35 242z"/><path class="st38" d="M71.7 244.8H86"/><path d="M73.7 247.6l-10.6-2.8 10.6-2.8z"/><path class="st37" d="M45.9 241.5v30.8m0-30.8v30.8M90 216v139.8M63.2 216.2v91.3"/><path class="st36" d="M16.6 488.5v-25.6"/><path d="M19.5 486.5l-2.9 10.6-2.8-10.6zm0-21.6l-2.9-10.6-2.8 10.6z"/><path class="st37" d="M46 497.3H10.8m59.6-184.2H10.8"/><path class="st36" d="M269.6 71.1V54.2"/><path d="M272.4 69.1l-2.8 10.6-2.9-10.6zm0-13l-2.8-10.6-2.9 10.6z"/><path class="st37" d="M304.7 45.8h-40.9M331.9 80h-68.1"/><path class="st36" d="M517.2 17.3h-25.4"/><path d="M515.3 14.5l10.6 2.8-10.6 2.9zm-21.6 0l-10.6 2.8 10.6 2.9z"/><path class="st37" d="M525.8 46.7V11.5"/><path class="st36" d="M516.6 240.1h-24.1"/><path d="M514.7 237.3l10.6 2.8-10.6 2.9zm-20.3 0l-10.6 2.8 10.6 2.9z"/><path class="st37" d="M525.3 275.4v-40.9m-183.8 68.1v-68.1"/><path class="st36" d="M940.4 244.4h94.6"/><path d="M942.3 247.2l-10.6-2.8 10.6-2.9zm90.8 0l10.6-2.8-10.6-2.9z"/><path class="st37" d="M931.7 277.5v-89.4m112.8 262.1V237.1"/><path class="st36" d="M940.4 216h120.5"/><path d="M942.3 218.8l-10.6-2.8 10.6-2.9zm116.7 0l10.6-2.8-10.6-2.9z"/><path class="st36" d="M940.4 192.6h143.7"/><path d="M942.3 195.4l-10.6-2.8 10.6-2.9zm139.8 0l10.6-2.8-10.6-2.9z"/><path class="st37" d="M1069.9 451.4V208.7m25 257.2V188.1"/><path class="st36" d="M270.2 488.2v-24.1"/><path d="M273 486.3l-2.8 10.6-2.9-10.6zm0-20.3l-2.8-10.6-2.9 10.6z"/><path class="st37" d="M305.3 497.8h-40.9m68-184.9h-68"/><path class="st36" d="M859.1 488.5v-25.3"/><path d="M861.9 486.6l-2.8 10.6-2.9-10.6zm0-21.4l-2.8-10.6-2.9 10.6z"/><path class="st37" d="M815.5 497.2h49.4m35.9-39.1h126.8"/><path class="st36" d="M906.5 488.6v-21.3"/><path d="M909.3 486.7l-2.8 10.6-2.8-10.6zm0-17.4l-2.8-10.6-2.8 10.6z"/><path class="st37" d="M1194.8 466.3h-87"/><path class="st36" d="M1190.4 488.6v-13.2"/><path d="M1193.2 486.7l-2.8 10.6-2.9-10.6zm0-9.4l-2.8-10.6-2.9 10.6z"/><path class="st37" d="M1228.4 440.6h-84.8"/><path class="st36" d="M1224 488.6v-39.3"/><path d="M1226.8 486.7l-2.8 10.6-2.8-10.6zm0-35.5l-2.8-10.6-2.8 10.6z"/><path class="st37" d="M1261.5 426.7h-166.9"/><path class="st36" d="M1255.2 488.6V435"/><path d="M1258 486.7l-2.8 10.6-2.9-10.6zm0-49.8l-2.8-10.6-2.9 10.6z"/><path class="st37" d="M900.8 497.5h361M791 312.3h73.9"/><path class="st36" d="M517.1 782.9h-25.5"/><path d="M515.2 780.1l10.6 2.8-10.6 2.9zm-21.7 0l-10.6 2.8 10.6 2.9z"/><path class="st37" d="M525.7 750.6v35.1m-184.3-59.6v59.6"/><path class="st36" d="M496.5 85.7l38.7 16.6h101.6"/><path d="M497.2 89.1l-8.6-6.8 10.8 1.6z"/><path class="st36" d="M86.6 467l34.7 57.8h104.6"/><path d="M85.1 470.1l-3-10.5 7.9 7.6z"/><path class="st36" d="M776.6 468l-37.1 120.2-104.6-.3"/><path d="M773.3 469l5.9-9.3-.5 11z"/><path class="st36" d="M1040.8 468l-20.8 66.6H858.7"/><path d="M1037.5 469l5.9-9.3-.4 11z"/><path class="st36" d="M1092 475.6l-29.3 91.2H923.9"/><path d="M1088.7 476.6l5.9-9.3-.5 11z"/><path class="st36" d="M494 301l60.8-52.4h94.4"/><path d="M497.3 301.9l-9.8 4.7 6.1-9z"/><path class="st36" d="M495.3 725.9l59.5 41.2h94.4"/><path d="M495.2 729.4l-7.1-8.4 10.4 3.7z"/><path class="st36" d="M366.5 309.1l-52.1-60.5H202.6"/><path d="M367.3 305.7l4.8 9.9-9.1-6.1z"/><path class="st36" d="M95.5 357.1l83.2-141.3h234"/><path d="M98.9 356.9l-7.8 7.7L94 354z"/><path class="st36" d="M436.2 329.3l-23.6 53.8"/><path d="M432.8 329.9l6.9-8.6-1.7 10.9z"/><path class="st36" d="M412.6 383.1l-23.5 53.3"/><path d="M387.3 433.4l-1.7 10.9 6.9-8.6z"/><path class="st37" d="M385.7 444.3l-34.5 78.5h-45.7"/><path class="st36" d="M270.2 727.3v15.6"/><path d="M267.4 729.2l2.8-10.6 2.9 10.6zm0 11.7l2.8 10.6 2.9-10.6z"/><path class="st37" d="M299.7 752.6h-32.4m64.1-34.5h-64.1m549.8-222V539m-34.9-75.1V539"/><path class="st36" d="M555.2 279.9v208.2"/><path d="M552.3 281.8l2.9-10.6 2.8 10.6zm0 204.4l2.9 10.6 2.8-10.6z"/><path class="st37" d="M520.1 497.7H561m-40.9-226.4H561"/><path class="st36" d="M206.5 286.6v196"/><path d="M203.6 288.5l2.9-10.6 2.8 10.6zm0 192.1l2.9 10.6 2.8-10.6z"/><path class="st37" d="M171.3 491.3h41m-41-213.5h41"/><path class="st36" d="M307.2 543.3h208.2"/><path d="M309.1 546.1l-10.6-2.8 10.6-2.8zm204.4 0l10.6-2.8-10.6-2.8z"/><path class="st37" d="M298.6 485.2v63.9m226.7-63.9v63.9"/><path class="st36" d="M314.6 602.1h195.2"/><path d="M316.5 604.9l-10.6-2.8 10.6-2.9zm191.3 0l10.6-2.8-10.6-2.9z"/><path class="st37" d="M306 595.8v31.3m212.4-31.3v46.1"/><path class="st36" d="M808.6 215.8H698"/><path d="M806.7 213l10.6 2.8-10.6 2.9zm-106.8 0l-10.6 2.8 10.6 2.9z"/><path class="st36" d="M808.6 244.7h-56.9"/><path d="M806.7 241.8l10.6 2.9-10.6 2.8zm-53.1 0l-10.6 2.9 10.6 2.8z"/><path class="st37" d="M817.2 276.3v-66.1m-127.8 86v-86m53.6 86v-58.1"/><path class="st36" d="M807.8 193h-114"/><path d="M805.9 190.2l10.6 2.8-10.6 2.8zm-110.2 0l-10.6 2.8 10.6 2.8z"/><path class="st37" d="M817.2 276.3v-88.9m-133 327.5V187.4m0 366.9v-32.8m5.5-.7V487m29.9 66.3v-64.2"/><path class="st36" d="M428.5 88.7l106.2 45.1h148.1"/><path d="M429.1 92.1l-8.6-6.8 10.9 1.6z"/><path class="st37" d="M483.5 342.9l112.1-64.8m-32.1 106.1h70.7m-181.3 70.6l65.3 113"/><path class="st36" d="M585.2 374.9c-1.2-25.1-7.8-48.8-18.6-70"/><path d="M587.9 372.9l-2.5 10.7-3.2-10.5zM570 305.3l-7.5-8 2.4 10.7z"/><path class="st36" d="M523.3 558.5c57.7-36.8 96-101.4 96-174.9 0-34.5-8.4-67-23.3-95.6"/><path d="M526.4 559.8l-10.5 3.2 7.5-8.1zm72.9-271.4l-7.5-8.1 2.5 10.7z"/><path class="st36" d="M739.3 548.5h-11.1"/><path d="M730.2 545.6l-10.6 2.9 10.6 2.8z"/><path class="st36" d="M676.1 548.3l-11.1-.1"/><path d="M674.2 545.5l10.6 3-10.7 2.7z"/><path class="st37" d="M684.8 548.5H721"/><path class="st36" d="M739.3 518.1h-11.1"/><path d="M730.2 515.3l-10.6 2.8 10.6 2.8z"/><path class="st36" d="M680.8 518.1h-11"/><path d="M678.9 515.3l10.6 2.8-10.6 2.8z"/><path class="st37" d="M689.7 518.1H721m-277.9 4.7h37.8"/><path class="st36" d="M398.4 317.1l14.2 65.6"/><path d="M396.1 319.6l.5-10.9 5 9.7z"/><path class="st36" d="M412.6 382.7l14.5 66"/><path d="M423.9 447.5l5 9.7.5-11z"/><path class="st37" d="M427 448.4l16.1 74.4m48.5.1h21.8m-11-19l11 19m-21.8 0l10.8-19m49.8-23v-21.8m-19 10.9l19-10.9m0 21.8l-19-10.9"/><path class="st39" d="M45.6 244.8h17.5"/><path class="st38" d="M28 219.3h25.9"/><path d="M52 222.1l10.6-2.8-10.6-2.8z"/><path class="st38" d="M98.7 219.3h25.9"/><path d="M100.6 222.1L90 219.3l10.6-2.8z"/><path class="st39" d="M62.6 219.3H90"/></g><g id="Text"><text transform="translate(54.48 516.526)" class="st40 st41">12</text><text transform="translate(48.671 240.154)" class="st40 st41">6</text><text transform="translate(71.632 214.642)" class="st40 st41">9</text><text transform="rotate(-90 248.03 235.373)" class="st40 st41">15</text><text transform="rotate(-90 202.642 190.628)" class="st40 st41">50</text><text transform="rotate(-90 374.618 111.166)" class="st40 st41">15</text><text transform="rotate(-90 329.784 66.973)" class="st40 st41">50</text><text transform="rotate(-90 667.134 -184.261)" class="st40 st41">15</text><text transform="rotate(-90 693.983 -205.62)" class="st40 st41">14</text><text transform="rotate(-90 837.457 -347.85)" class="st40 st41">11</text><text transform="rotate(-90 847.694 -371.089)" class="st40 st41">20</text><text transform="rotate(-90 858.609 -389.529)" class="st40 st41">25</text><text transform="rotate(-90 622.424 -228.502)" class="st40 st41">50</text><text transform="rotate(-90 472.43 -79.533)" class="st40 st41">80</text><text transform="rotate(77.784 89.648 523.25)" class="st40 st41">30°</text><text transform="rotate(-66.74 645.41 -222.935)" class="st40 st41">90°</text><text transform="rotate(-90 296.231 102.876)" class="st40 st41">74.9</text><text transform="translate(495.884 233.941)" class="st40 st41">15</text><text transform="translate(408.41 233.299)" class="st40 st41">50</text><text transform="translate(979.554 238.564)" class="st40 st41">40</text><text transform="translate(997.556 211.788)" class="st40 st41">48.5</text><text transform="translate(1021.645 189.763)" class="st40 st41">57.5</text><text transform="translate(496.387 12.014)" class="st40 st41">15</text><text transform="translate(406.426 12.015)" class="st40 st41">50</text><text transform="translate(394.237 537.871)" class="st40 st41">80</text><text transform="translate(396.903 595.072)" class="st40 st41">74.9</text><text transform="translate(308.25 518.137)" class="st40 st41">Ø46.7</text><text transform="translate(449.509 518.137)" class="st40 st41">Ø53</text><text transform="translate(790.645 525.233)" class="st40 st41">12</text><text transform="translate(687.767 544.235)" class="st40 st41">12.5</text><text transform="translate(690.609 513.36)" class="st40 st41">10.5</text><text transform="translate(558.478 244.184)" class="st40 st41">4x M4; 6 deep</text><text transform="translate(559.016 761.348)" class="st40 st41">2x M4; 6 deep</text><text transform="translate(200.235 243.617)" class="st40 st41">4x M2.5; 3.3 deep</text><text transform="translate(181.852 206.119)" class="st40 st41">Photosensitive surface of the sensor</text><text transform="translate(130.317 519.327)" class="st40 st41">2x M4; 6 deep</text><text transform="translate(635.223 583.116)" class="st40 st41">2x M4; 6 deep</text><text transform="translate(859.97 529.83)" class="st40 st41">I/O Connector (M8 6-pin)</text><text transform="translate(924.598 562)" class="st40 st41">Micro-BNC connector</text><text transform="translate(547.5 94.537)" class="st40 st41">2x M4; 6 deep</text><text transform="translate(545.258 126.506)" class="st40 st41">1/4-20 UNC; 7.5 deep</text><text transform="translate(745.452 188.893)" class="st40 st41">b</text><text transform="translate(748.138 210.654)" class="st40 st41">a</text><text transform="translate(770.146 240.657)" class="st40 st41">26</text><text transform="rotate(-90 165.357 -95.092)" class="st40 st41">12</text><text transform="rotate(-90 501.944 240.556)" class="st40 st41">12</text><text transform="translate(395.74 775.864)" class="st40 st41">50</text><text transform="translate(498.372 775.864)" class="st40 st41">15</text><text transform="translate(1067.3 706.603)"><tspan x="0" y="0" class="st40 st42">= Reference plane </tspan><tspan x="0" y="39.9" class="st40 st42">Not to scale</tspan><tspan x="0" y="59.8" class="st40 st42">Dimensions in mm</tspan></text><path d="M1039.9 714l22.5-13m-22.5-13v26m22.5-13l-22.5-13" fill="none" stroke="#000" stroke-width=".354" stroke-linecap="round" stroke-linejoin="round" stroke-miterlimit="10"/><text transform="translate(816.909 661.28)" class="st40 st44">Variant 1</text><text transform="translate(888.109 661.28)" class="st40 st44">Variant 3</text><text transform="translate(789.809 685.28)" class="st40 st44">a</text><text transform="translate(831.909 685.28)" class="st40 st44">44.9</text><text transform="translate(910.109 685.28)" class="st40 st44">49.1</text><text transform="translate(789.809 706.28)" class="st40 st44">b</text><text transform="translate(831.909 706.28)" class="st40 st44">46.9</text><text transform="translate(910.109 706.28)" class="st40 st44">51.1</text><path d="M782.6 665.7h180.7m-76.1 47.5V648m-76.6 65.2V648m152.9 65.2V648" fill="none" stroke="#000" stroke-width=".22" stroke-miterlimit="10"/><path fill="none" d="M1153.7 707.1H736.8"/></g></svg>