<svg version="1.1" id="Layer_1" xmlns="http://www.w3.org/2000/svg" x="0" y="0" viewBox="0 0 881.3 317.6" style="background-color:#fff" xml:space="preserve"><style>.st0,.st1,.st2{fill:none;stroke:#000;stroke-width:.75;stroke-miterlimit:3.86}.st1{stroke-linecap:round}.st2{stroke-dasharray:5,3}.st4{font-family:Helvetica,Arial,sans-serif}.st5{font-size:14px}.st6{font-size:13px}.st7{enable-background:new}</style><g id="cams_background"><path class="st0" d="M40.5 86.2v25"/><path d="M39.4 86.9l1.1-4.1 1.1 4.1h-2.2zm0 23.6l1.1 4.1 1.1-4.1h-2.2z"/><path class="st0" d="M40.5 176.3v25"/><path d="M39.4 177.1l1.1-4.1 1.1 4.1h-2.2zm0 23.5l1.1 4.1 1.1-4.1h-2.2z"/><path class="st0" d="M26.2 47.7h28.5c.4 0 .8.3.8.8V73c0 .4-.3.8-.8.8H26.2c-.4 0-.8-.3-.8-.8V48.4c.1-.4.4-.7.8-.7z"/><path class="st0" d="M40.5 53.7H27.9c-.2 0-.3-.1-.3-.3v-3.6c0-.2.1-.3.3-.3h12.7c.2 0 .3.1.3.3v3.6c-.1.1-.2.3-.4.3zm0 18H27.9c-.2 0-.3-.1-.3-.3v-3.6c0-.2.1-.3.3-.3h12.7c.2 0 .3.1.3.3v3.6c-.1.2-.2.3-.4.3z"/><path class="st0" d="M36.6 50.5h2.5c.2 0 .4.2.4.4v1.4c0 .2-.2.4-.4.4h-2.5c-.2 0-.4-.2-.4-.4v-1.4c0-.2.2-.4.4-.4z"/><path id="Ebene_3" class="st0" d="M36.8 65.2h-5.5c-.8 0-1.4-.6-1.4-1.4v-6.2c0-.8.6-1.4 1.4-1.4h5.5c.8 0 1.4.6 1.4 1.4v6.2c0 .8-.6 1.4-1.4 1.4z"/><path class="st0" d="M29.1 50.5h2.5c.2 0 .4.2.4.4v1.4c0 .2-.2.4-.4.4h-2.5c-.2 0-.4-.2-.4-.4v-1.4c0-.2.2-.4.4-.4zm8.2.5h1.1v1.1h-1.1V51zm-.7 17.6h2.5c.2 0 .4.2.4.4v1.4c0 .2-.2.4-.4.4h-2.5c-.2 0-.4-.2-.4-.4V69c0-.2.2-.4.4-.4z"/><path class="st0" d="M29.8 51h1.1v1.1h-1.1V51zm7.5 18.2h1.1v1.1h-1.1v-1.1zm-8.2-.6h2.5c.2 0 .4.2.4.4v1.4c0 .2-.2.4-.4.4h-2.5c-.2 0-.4-.2-.4-.4V69c0-.2.2-.4.4-.4z"/><path class="st0" d="M29.8 69.2h1.1v1.1h-1.1v-1.1zM25.9 130h29.3c.4 0 .8.4.8.8v25.1c0 .4-.4.8-.8.8H25.9c-.4 0-.8-.4-.8-.8v-25.1c0-.5.3-.8.8-.8z"/><path class="st0" d="M40.5 136.1h-13c-.2 0-.3-.1-.3-.3v-3.7c0-.2.1-.3.3-.3h13c.2 0 .3.1.3.3v3.7c0 .2-.1.3-.3.3zm0 18.5h-13c-.2 0-.3-.1-.3-.3v-3.7c0-.2.1-.3.3-.3h13c.2 0 .3.1.3.3v3.7c0 .2-.1.3-.3.3z"/><path class="st0" d="M36.5 132.9H39c.2 0 .4.2.4.4v1.5c0 .2-.2.4-.4.4h-2.5c-.2 0-.4-.2-.4-.4v-1.5c0-.2.2-.4.4-.4z"/><path id="Ebene_3-2" class="st0" d="M36.7 147.9H31c-.8 0-1.4-.6-1.4-1.4v-6.4c0-.8.6-1.4 1.4-1.4h5.7c.8 0 1.4.6 1.4 1.4v6.4c.1.8-.6 1.4-1.4 1.4z"/><path class="st0" d="M28.8 132.9h2.5c.2 0 .4.2.4.4v1.5c0 .2-.2.4-.4.4h-2.5c-.2 0-.4-.2-.4-.4v-1.5c0-.2.1-.4.4-.4zm8.4.5h1.2v1.2h-1.2v-1.2zm-.7 18.1H39c.2 0 .4.2.4.4v1.5c0 .2-.2.4-.4.4h-2.5c-.2 0-.4-.2-.4-.4v-1.5c0-.3.2-.4.4-.4z"/><path class="st0" d="M29.5 133.4h1.2v1.2h-1.2v-1.2zm7.7 18.6h1.2v1.2h-1.2V152zm-8.4-.5h2.5c.2 0 .4.2.4.4v1.5c0 .2-.2.4-.4.4h-2.5c-.2 0-.4-.2-.4-.4v-1.5c0-.3.1-.4.4-.4z"/><path class="st0" d="M29.5 152h1.2v1.2h-1.2V152zm-3.8 63.4h29.6c.4 0 .8.4.8.8v25.4c0 .4-.4.8-.8.8H25.7c-.4 0-.8-.4-.8-.8v-25.4c0-.4.3-.8.8-.8z"/><path class="st0" d="M40.5 221.7H27.4c-.2 0-.3-.1-.3-.3v-3.7c0-.2.1-.3.3-.3h13.1c.2 0 .3.1.3.3v3.7c0 .1-.1.3-.3.3zm0 18.7H27.4c-.2 0-.3-.1-.3-.3v-3.7c0-.2.1-.3.3-.3h13.1c.2 0 .3.1.3.3v3.7c0 .2-.1.3-.3.3z"/><path class="st0" d="M36.5 218.4H39c.2 0 .4.2.4.4v1.5c0 .2-.2.4-.4.4h-2.6c-.2 0-.4-.2-.4-.4v-1.5c0-.2.2-.4.5-.4z"/><path id="Ebene_3-3" class="st0" d="M36.7 233.6h-5.8c-.8 0-1.5-.6-1.5-1.4v-6.5c0-.8.6-1.4 1.5-1.4h5.8c.8 0 1.5.6 1.5 1.4v6.5c-.1.8-.7 1.4-1.5 1.4z"/><path class="st0" d="M28.6 218.4h2.6c.2 0 .4.2.4.4v1.5c0 .2-.2.4-.4.4h-2.6c-.2 0-.4-.2-.4-.4v-1.5c0-.2.2-.4.4-.4zm8.5.5h1.2v1.2h-1.2v-1.2zm-.6 18.3H39c.2 0 .4.2.4.4v1.5c0 .2-.2.4-.4.4h-2.6c-.2 0-.4-.2-.4-.4v-1.5c0-.3.2-.4.5-.4z"/><path class="st0" d="M29.3 218.9h1.2v1.2h-1.2v-1.2zm7.8 18.8h1.2v1.2h-1.2v-1.2zm-8.5-.5h2.6c.2 0 .4.2.4.4v1.5c0 .2-.2.4-.4.4h-2.6c-.2 0-.4-.2-.4-.4v-1.5c0-.3.2-.4.4-.4z"/><path class="st0" d="M29.3 237.7h1.2v1.2h-1.2v-1.2z"/><circle class="st0" cx="21" cy="98.7" r="8"/><path class="st1" d="M21 98.7v-6.2m5.7 6.2H21"/><circle class="st0" cx="21" cy="189" r="8"/><path class="st1" d="M21 189v-6.2m5.7 6.2H21"/></g><g id="timelines"><path class="st0" d="M81.3 279.5h674.6"/><path d="M754.4 281.6l8.1-2.2-8.1-2.2v4.4z"/><path class="st2" d="M81.3 33.2v37.5m215.6 78.4v71.6m309.4-71.6v71.6M193.9 71.8v73.9m205.7-75l.3 131.3"/><path d="M502.8 69.5v75" fill="none" stroke="#000" stroke-width=".75" stroke-miterlimit="3.86" stroke-dasharray="3.78,2.27"/></g><g id="square_waves"><path class="st0" d="M57.5 220.7h248.8V202h3.1v18.8h9.4V202h3.1v18.8h9.4V202h3.1v18.8h9.4V202h3.1v18.8h12.5V202h3.1v18.8h9.4V202h3.1v18.8h9.4V202h3.1v18.8h9.4V202h3.1v18.8h215.6V202h3.1v18.8h9.4V202h3.1v18.8h9.4V202h3.1v18.8h9.4V202h3.1v18.8h12.5V202h3.1v18.8h9.4V202h3.1v18.8h9.4V202h3.1v18.8h9.4V202h3.1v18.8h21.9m.1-150.1H503.1V52H500v18.8h-9.4V52h-3.1v18.8h-9.4V52H475v18.8h-9.4V52h-3.1v18.8H450V52h-3.1v18.8h-9.4V52h-3.1v18.8H425V52h-3.1v18.8h-9.4V52h-3.1v18.8H193.8V52h-3.1v18.8h-9.4V52h-3.1v18.8h-9.4V52h-3.1v18.8h-9.4V52h-3.1v18.8h-12.5V52h-3.1v18.8h-9.4V52H125v18.8h-9.4V52h-3.1v18.8h-9.4V52H100v18.8H62.5m-5 74.9h145.6V127h3.1v18.8h9.4V127h3.1v18.8h9.4V127h3.1v18.8h9.4V127h3.1v18.8h12.5V127h3.1v18.8h9.4V127h3.1v18.8h9.4V127h3.1v18.8h9.4V127h3.1v18.8h215.6V127h3.1v18.8h9.4V127h3.1v18.8h9.4V127h3.1v18.8h9.4V127h3.1v18.8h12.5V127h3.1v18.8h9.4V127h3.1v18.8h9.4V127h3.1v18.8h9.4V127h3.1v18.8h125m-528-25.1h-9.4"/><path d="M202.6 117.1h1.1v7.3h-1.1v-7.3zm-9.4 0h1.1v7.3h-1.1v-7.3z"/><path class="st0" d="M409.4 45.7H400"/><path d="M408.8 42h1.1v7.3h-1.1V42zm-9.4 0h1.1v7.3h-1.1V42z"/><path class="st0" d="M306.3 197h-9.4"/><path d="M305.7 193.3h1.1v7.3h-1.1v-7.3zm-9.4 0h1.1v7.3h-1.1v-7.3z"/><path class="st0" d="M184.4 153.2h-100"/><path d="M183.8 149.6h1.1v7.3h-1.1v-7.3zm-100 0h1.1v7.3h-1.1v-7.3z"/><path class="st0" d="M511.9 122h-8.3"/><path d="M511.4 118.3h1.1v7.3h-1.1v-7.3zm-8.3 0h1.1v7.3h-1.1v-7.3z"/><path class="st0" d="M287.5 232H184.4"/><path d="M286.9 228.3h1.1v7.3h-1.1v-7.3zm-103.1 0h1.1v7.3h-1.1v-7.3z"/><path class="st0" d="M615.1 197h-8.3"/><path d="M614.5 193.3h1.1v7.3h-1.1v-7.3zm-8.2 0h1.1v7.3h-1.1v-7.3z"/></g><g id="text"><text transform="translate(9.38 26.08)" class="st4 st5">Startup time</text><text transform="translate(200.88 114.46)" class="st4 st6">Safety Margin</text><text transform="translate(407.13 39.7)" class="st4 st6">Safety margin</text><text transform="translate(300.88 189.46)" class="st4 st5">Safety margin</text><text transform="translate(510.25 116.71)" class="st4 st6">Safety margin</text><text transform="translate(197.13 248.83)" class="st4 st5">Trigger offset</text><text transform="translate(610.25 191.71)" class="st4 st5">Safety margin</text><text transform="translate(394.14 295.96)" class="st4 st5">Time</text><text transform="translate(753.13 214.46)" class="st7"><tspan x="0" y="0" class="st4 st5">Image acquisition </tspan><tspan x="0" y="16.8" class="st4 st5">on camera 3</tspan></text><text transform="translate(753.13 64.46)" class="st7"><tspan x="0" y="0" class="st4 st5">Image acquisition </tspan><tspan x="0" y="16.8" class="st4 st5">on camera 1</tspan></text><text transform="translate(753.13 143.81)" class="st7"><tspan x="0" y="0" class="st4 st5">Image acquisition </tspan><tspan x="0" y="16.8" class="st4 st5">on camera 2</tspan></text><path class="st2" d="M184.4 117.6v28.1"/><text transform="translate(109.38 114.46)" class="st4 st5">Startup time</text><path class="st2" d="M287.5 192.6v28.1"/><text transform="translate(209.38 189.46)" class="st4 st5">Startup time</text><text transform="translate(47.23 94.756)" class="st7"><tspan x="0" y="0" class="st4 st6">PTP </tspan><tspan x="0" y="15.6" class="st4 st6">sync</tspan></text><text transform="translate(47.23 184.9)" class="st7"><tspan x="0" y="0" class="st4 st6">PTP </tspan><tspan x="0" y="15.6" class="st4 st6">sync</tspan></text><text transform="translate(92.392 167.587)" class="st4 st5">Trigger offset</text></g></svg>