<svg style="background-color:#fff" version="1.1" id="Ebene_1" xmlns="http://www.w3.org/2000/svg" x="0" y="0" viewBox="0 0 323 174.2" xml:space="preserve"><style>.st4{fill:none;stroke:#1d1d1b}.st8{fill:#1d1d1b}.st9{font-family:Helvetica,Arial,sans-serif}.st10{font-size:8px}.st11{font-size:9px}.st12,.st13{fill:none;stroke:#1d1d1b;stroke-width:2;stroke-linecap:round}.st13{stroke-dasharray:4}</style><linearGradient id="SVGID_1_" gradientUnits="userSpaceOnUse" x1="61.1" y1="35.622" x2="61.1" y2="35.622" gradientTransform="matrix(1 0 0 -1 0 182.842)"><stop offset="0" stop-color="#fff"/><stop offset="1"/></linearGradient><path d="M61.1 143.8v6.8" fill="url(#SVGID_1_)" stroke="#1d1d1b"/><linearGradient id="SVGID_2_" gradientUnits="userSpaceOnUse" x1="176.5" y1="35.622" x2="176.5" y2="35.622" gradientTransform="matrix(1 0 0 -1 0 182.842)"><stop offset="0" stop-color="#fff"/><stop offset="1"/></linearGradient><path d="M176.5 143.8v6.8" fill="url(#SVGID_2_)" stroke="#1d1d1b"/><linearGradient id="SVGID_3_" gradientUnits="userSpaceOnUse" x1="118.8" y1="35.622" x2="118.8" y2="35.622" gradientTransform="matrix(1 0 0 -1 0 182.842)"><stop offset="0" stop-color="#fff"/><stop offset="1"/></linearGradient><path d="M118.8 143.8v6.8" fill="url(#SVGID_3_)" stroke="#1d1d1b"/><linearGradient id="SVGID_4_" gradientUnits="userSpaceOnUse" x1="89.9" y1="35.622" x2="89.9" y2="35.622" gradientTransform="matrix(1 0 0 -1 0 182.842)"><stop offset="0" stop-color="#fff"/><stop offset="1"/></linearGradient><path d="M89.9 143.8v6.8" fill="url(#SVGID_4_)" stroke="#1d1d1b"/><path class="st4" d="M205.3 143.8v6.8"/><linearGradient id="SVGID_5_" gradientUnits="userSpaceOnUse" x1="147.6" y1="35.622" x2="147.6" y2="35.622" gradientTransform="matrix(1 0 0 -1 0 182.842)"><stop offset="0" stop-color="#fff"/><stop offset="1"/></linearGradient><path d="M147.6 143.8v6.8" fill="url(#SVGID_5_)" stroke="#1d1d1b"/><linearGradient id="SVGID_6_" gradientUnits="userSpaceOnUse" x1="234.2" y1="35.622" x2="234.2" y2="35.622" gradientTransform="matrix(1 0 0 -1 0 182.842)"><stop offset="0" stop-color="#fff"/><stop offset="1"/></linearGradient><path d="M234.2 143.8v6.8" fill="url(#SVGID_6_)" stroke="#1d1d1b"/><path class="st4" d="M24.4 143.5h297"/><linearGradient id="SVGID_7_" gradientUnits="userSpaceOnUse" x1="320.7" y1="35.622" x2="320.7" y2="35.622" gradientTransform="matrix(1 0 0 -1 0 182.842)"><stop offset="0" stop-color="#fff"/><stop offset="1"/></linearGradient><path d="M320.7 143.8v6.8" fill="url(#SVGID_7_)" stroke="#1d1d1b"/><text transform="translate(146.86 171.667)" class="st8 st9 st10">Image Height [mm]</text><path class="st8" d="M319.8 156.4c-.3-.1-.6-.3-.7-.5-.2-.2-.2-.5-.2-.8 0-.5.2-.9.5-1.2s.8-.5 1.3-.5c.6 0 1 .2 1.4.5.3.3.5.7.5 1.2 0 .3-.1.6-.2.8-.2.2-.4.4-.7.5.4.1.7.3.9.6.2.3.3.6.3 1 0 .5-.2 1-.6 1.4s-.9.6-1.5.6-1.1-.2-1.5-.6c-.4-.4-.6-.8-.6-1.4 0-.4.1-.8.3-1.1.1-.2.4-.4.8-.5zm-.4 1.6c0 .2.1.4.2.7.1.2.3.4.5.5s.4.2.7.2c.4 0 .7-.1.9-.4.2-.2.4-.6.4-.9 0-.4-.1-.7-.4-.9s-.6-.4-1-.4-.7.1-.9.4c-.3.1-.4.5-.4.8zm.2-3c0 .3.1.6.3.7.2.2.4.3.8.3.3 0 .6-.1.7-.3.2-.2.3-.4.3-.7s-.1-.5-.3-.7c-.2-.2-.4-.3-.7-.3-.3 0-.6.1-.8.3-.2.2-.3.5-.3.7z"/><path class="st4" d="M31.7 14.3h-7.2m7.2 31.3h-7.2m7.2 32.5h-7.2m7.2 31.4h-7.2"/><path class="st8" d="M32.7 156.7c0-.8.1-1.4.2-1.8.2-.5.4-.8.7-1.1s.7-.4 1.2-.4c.3 0 .6.1.9.2.3.1.5.3.6.6.2.3.3.6.4 1 .1.4.1.9.1 1.5 0 .8-.1 1.4-.2 1.8-.2.5-.4.8-.7 1.1s-.7.4-1.2.4c-.6 0-1.1-.2-1.5-.7-.3-.5-.5-1.4-.5-2.6zm.8 0c0 1.1.1 1.8.4 2.1.2.3.6.5.9.5.4 0 .7-.2.9-.5.2-.4.4-1.1.4-2.1 0-1.1-.1-1.8-.4-2.1-.2-.3-.6-.5-.9-.5-.4 0-.7.2-.9.5-.3.3-.4 1-.4 2.1z"/><path class="st4" d="M32.3 14.3v137.2"/><text transform="translate(16.782 146.035)" class="st8 st9 st11">0</text><text transform="translate(12.532 113.12)" class="st8 st9 st11">20</text><text transform="translate(12.2 81.453)" class="st8 st9 st11">40</text><text transform="translate(12.032 49.12)" class="st8 st9 st11">60</text><text transform="translate(12.032 16.953)" class="st8 st9 st11">80</text><text transform="rotate(-90 51.159 44.294)" class="st8 st9 st10">SFR [%]</text><text transform="translate(66.866 124.785)" class="st8 st9 st11">Sagittal</text><text transform="translate(66.866 136.286)" class="st8 st9 st11">Tangential</text><path class="st4" d="M41 112.8h73.5v27.8H41v-27.8z"/><path class="st12" d="M45.5 121.1h16.9"/><path class="st13" d="M45.4 132.6h16.8"/><text transform="translate(46.866 14.617)" class="st8 st9 st10">45 LP/mm</text><text transform="translate(109.199 13.285)" class="st8 st9 st10">55 LP/mm</text><text transform="translate(46.866 53.451)" class="st8 st9 st10">64 LP/mm</text><path class="st4" d="M44.2 12.8l-6 8"/><path class="st8" d="M37.2 18.7l.8-.1.3 2 2-.3.1.9-2.8.4-.4-2.9z"/><path class="st4" d="M106.2 10.8l-50 14"/><path class="st8" d="M56.6 22.5l.8.5-1 1.7 1.7 1-.4.7-2.5-1.4 1.4-2.5z"/><path class="st4" d="M45.9 50.4l-8.4-12.3"/><path class="st8" d="M39.8 37.8l-.2.8-2-.3-.3 1.9-.9-.1.6-2.8 2.8.5z"/><linearGradient id="SVGID_8_" gradientUnits="userSpaceOnUse" x1="291.8" y1="35.622" x2="291.8" y2="35.622" gradientTransform="matrix(1 0 0 -1 0 182.842)"><stop offset="0" stop-color="#fff"/><stop offset="1"/></linearGradient><path d="M291.8 143.8v6.8" fill="url(#SVGID_8_)" stroke="#1d1d1b"/><linearGradient id="SVGID_9_" gradientUnits="userSpaceOnUse" x1="263" y1="35.622" x2="263" y2="35.622" gradientTransform="matrix(1 0 0 -1 0 182.842)"><stop offset="0" stop-color="#fff"/><stop offset="1"/></linearGradient><path d="M263 143.8v6.8" fill="url(#SVGID_9_)" stroke="#1d1d1b"/><linearGradient id="SVGID_10_" gradientUnits="userSpaceOnUse" x1="32.3" y1="35.622" x2="32.3" y2="35.622" gradientTransform="matrix(1 0 0 -1 0 182.842)"><stop offset="0" stop-color="#fff"/><stop offset="1"/></linearGradient><path d="M32.3 143.8v6.8" fill="url(#SVGID_10_)" stroke="#1d1d1b"/><path d="M32.7 28s85.3-4.8 113.3-.7 44.6-2.1 111.3 28.3c0 0 39.3 13.1 64 41.5" opacity=".51" fill="none" stroke="#1d1d1b" stroke-width="2" stroke-linecap="round"/><path d="M32.5 35.1s93.3-1.3 113.3 3.3c0 0 71.3 7.3 114.7 25.3 0 0 14.7 3.3 60 38.7" opacity=".21" fill="none" stroke="#1d1d1b" stroke-width="2" stroke-linecap="round"/><path class="st13" d="M33.5 26.8s161 7.5 171 0c0 0 20-3 29 10s46 57.5 88 40.5"/><path d="M32.7 26.1s136.2 5.8 171.7 7.4c0 0 34 13.7 54.1 43.1 20 29.4 59.6 7.4 63.6 7.4" opacity=".5" fill="none" stroke="#1d1d1b" stroke-width="2" stroke-linecap="round" stroke-dasharray="4"/><path d="M32.7 35.6s44.6 0 54.6 11.3c0 0 36.5 8.7 117.1 4.6 0 0 29.5-2 59.1 41.5 0 0 12 10.8 57.1 11.3" opacity=".21" fill="none" stroke="#1d1d1b" stroke-width="2" stroke-linecap="round" stroke-dasharray="4"/><path class="st12" d="M321.5 91.1s-23.3-40.3-136.3-64.7c0 0-112-10.3-152.3-1.3"/></svg>