<svg version="1.1" id="Layer_1" xmlns="http://www.w3.org/2000/svg" x="0" y="0" viewBox="0 0 440 180" style="background-color:#fff" xml:space="preserve"><style>.st3,.st4{fill:none;stroke:#1a1a18;stroke-width:.283;stroke-linecap:round;stroke-linejoin:round}.st4{stroke-miterlimit:10}.st5{font-family:Helvetica,Arial,sans-serif}.st6{font-size:14px}.st7{fill:none;stroke:#000;stroke-miterlimit:10}</style><path d="M160.1 146.6c0 2.7-2.2 4.9-4.9 4.9H24.4c-2.7 0-4.9-2.2-4.9-4.9V15.7c0-2.7 2.2-4.9 4.9-4.9h130.9c2.7 0 4.9 2.2 4.9 4.9l-.1 130.9z" fill="#fff"/><path d="M160.1 146.6c0 2.7-2.2 4.9-4.9 4.9H24.4c-2.7 0-4.9-2.2-4.9-4.9V15.7c0-2.7 2.2-4.9 4.9-4.9h130.9c2.7 0 4.9 2.2 4.9 4.9l-.1 130.9h0z" fill="none" stroke="#1a1a18" stroke-width=".567" stroke-linecap="round" stroke-linejoin="round" stroke-miterlimit="10"/><path class="st3" d="M74.7 118.7c0-1.8 1.5-3.3 3.3-3.3s3.3 1.5 3.3 3.3-1.5 3.3-3.3 3.3c-1.9-.1-3.3-1.5-3.3-3.3zm44.2 21.8c-11.2 0-20.3-9.1-20.3-20.3s9.1-20.3 20.3-20.3 20.3 9.1 20.3 20.3-9 20.3-20.3 20.3z"/><path class="st3" d="M118.9 137.2c-9.4 0-17-7.6-17-17s7.6-17 17-17 17 7.6 17 17-7.6 17-17 17z"/><path class="st3" d="M118.9 144.6c-13.5 0-24.4-10.9-24.4-24.4s10.9-24.4 24.4-24.4 24.4 10.9 24.4 24.4-10.9 24.4-24.4 24.4z"/><path class="st3" d="M119.3 116.9c1.8 0 3.3 1.5 3.3 3.3s-1.5 3.3-3.3 3.3-3.3-1.5-3.3-3.3 1.4-3.3 3.3-3.3zm-9.5 0c1.8 0 3.3 1.5 3.3 3.3s-1.5 3.3-3.3 3.3-3.3-1.5-3.3-3.3 1.4-3.3 3.3-3.3zm16 7c1.8 0 3.3 1.5 3.3 3.3s-1.5 3.3-3.3 3.3-3.3-1.5-3.3-3.3 1.4-3.3 3.3-3.3zm-10 1.5c1.8 0 3.3 1.5 3.3 3.3s-1.5 3.3-3.3 3.3-3.3-1.5-3.3-3.3 1.4-3.3 3.3-3.3zm10-8.9c1.8 0 3.3-1.5 3.3-3.3s-1.5-3.3-3.3-3.3-3.3 1.5-3.3 3.3 1.4 3.3 3.3 3.3zm-4.1-5.4c.8 0 1.4-.6 1.4-1.4s-.6-1.4-1.4-1.4-1.4.6-1.4 1.4c0 .7.7 1.4 1.4 1.4zm-11.4 4.6c.8 0 1.4-.6 1.4-1.4s-.6-1.4-1.4-1.4-1.4.6-1.4 1.4.6 1.4 1.4 1.4zm11.4 13.6c.8 0 1.4.6 1.4 1.4 0 .8-.6 1.4-1.4 1.4s-1.4-.6-1.4-1.4c0-.8.7-1.4 1.4-1.4zm-11.4-4.7c.8 0 1.4.6 1.4 1.4 0 .8-.6 1.4-1.4 1.4s-1.4-.6-1.4-1.4c0-.7.6-1.4 1.4-1.4zm5.5-9.6c1.8 0 3.3-1.5 3.3-3.3s-1.5-3.3-3.3-3.3-3.3 1.5-3.3 3.3 1.4 3.3 3.3 3.3zm15.7 8.2c-1-.6-1.7-1.7-1.7-3.1 0-1.3.6-2.4 1.6-3 0-.1.1-.1.1-.1v-.7h-1.1l-3.4 2.5h-1.7c-.5 0-.8-.1-.8.4v1.8c0 .5.3.4.8.4h1.7l3.4 2.5h1.1v-.7z"/><path class="st3" d="M130.4 120.2c0 1.5 1.2 2.7 2.6 2.9-1.3 6.3-7 11.1-13.7 11.1-7.7 0-14-6.3-14-14s6.3-14 14-14c6.7 0 12.4 4.7 13.7 11.1-1.5.2-2.6 1.4-2.6 2.9z"/><path class="st4" d="M50.5 53c0 5-4.1 9.1-9.1 9.1-5.1 0-9.1-4.1-9.1-9.1 0-5.1 4.1-9.1 9.1-9.1 5-.1 9.1 4 9.1 9.1z"/><path class="st4" d="M46.4 53c0 2.8-2.2 5-5 5s-5-2.2-5-5 2.2-5 5-5 5 2.2 5 5zm101.3 0c0 5-4.1 9.1-9.1 9.1-5.1 0-9.1-4.1-9.1-9.1 0-5.1 4.1-9.1 9.1-9.1 5-.1 9.1 4 9.1 9.1z"/><path class="st4" d="M143.5 53c0 2.8-2.2 5-5 5s-5-2.2-5-5 2.2-5 5-5 5 2.2 5 5zM51.4 18.6h77.1v68.9H51.4V18.6z"/><path class="st4" d="M117.4 22.2h7.7V32h-7.7v-9.8zm-61.8 0h7.7V32h-7.7v-9.8zm45.1 3.5h6.8v5.9h2.9v3.7H121v37.3H58.7l.1-37.1h10.6v-3.9h2.8v-5.9h6.9v-4.3h21.6v4.3"/><text transform="translate(200.59 46.673)" class="st5 st6">Ethernet connector (8-pin RJ-45 jack)</text><text transform="translate(200.59 106.876)" class="st5 st6">I/O connector (6-pin connector)</text><path class="st7" d="M109.7 41.4h82.1m-73.2 60.7h73.2"/><circle class="st3" cx="78" cy="118.7" r="6"/><path class="st7" d="M77.9 119.3l112 28.1"/><text transform="translate(200.59 151.5)" class="st5 st6">Status LED</text></svg>