<svg style="background-color:#fff" version="1.1" id="Layer_1" xmlns="http://www.w3.org/2000/svg" x="0" y="0" viewBox="0 0 1000 570" xml:space="preserve"><style>.st1{fill:none;stroke:#000;stroke-linejoin:round;stroke-miterlimit:3.864}.st2{stroke-width:.5}.st2,.st3{fill:none;stroke:#000;stroke-miterlimit:3.864}.st4{fill:#fff}.st5{fill:none;stroke:#000;stroke-width:.669;stroke-miterlimit:3.864}.st6{fill-rule:evenodd;clip-rule:evenodd}.st10,.st9{fill:none;stroke:#000;stroke-miterlimit:3.864}.st9{stroke-linejoin:round;stroke-width:3.000000e-03}.st10{stroke-width:.85}.st11{enable-background:new}.st12{font-family:Helvetica,Arial,sans-serif}.st13{font-size:16.955px}.st17{font-size:16.107px}</style><path d="M206.6 112h201.5v227.5H206.6V112z" fill="#ededee"/><path class="st1" d="M265.3 159.9h95"/><path d="M354.5 159.9c0-2.5 2-4.6 4.6-4.6 2.5 0 4.6 2 4.6 4.6 0 2.5-2 4.6-4.6 4.6-2.5-.1-4.6-2.1-4.6-4.6z"/><path class="st2" d="M354.5 159.9c0-2.5 2-4.6 4.6-4.6 2.5 0 4.6 2 4.6 4.6 0 2.5-2 4.6-4.6 4.6-2.5-.1-4.6-2.1-4.6-4.6z"/><path class="st1" d="M281.4 216.4h77.7"/><path class="st3" d="M359.1 389.3V77"/><path class="st4" d="M350 230.1h18.3v24.6H350v-24.6z"/><path class="st5" d="M350 230.1h18.3v24.6H350v-24.6z"/><path class="st3" d="M173.4 222.5h-104l-15.8 15.7 16.1 16.1h103.7v-31.8z"/><path class="st1" d="M281.3 230.3v-27.9m0 8.1l-16.4-16.4"/><path class="st6" d="M275.2 194.7l-9.7 9.7h9.7v-9.7z"/><path d="M275.2 194.7l-9.7 9.7h9.7v-9.7z" fill="none" stroke="#000" stroke-width=".028" stroke-linejoin="round" stroke-miterlimit="3.864"/><path class="st1" d="M265.3 194.5V160m16 62.5L265 238.8m.2-.2h-91.5"/><path d="M260.7 238.6c0-2.5 2-4.6 4.6-4.6 2.5 0 4.6 2 4.6 4.6 0 2.5-2 4.6-4.6 4.6-2.6-.1-4.6-2.1-4.6-4.6z"/><path class="st2" d="M260.7 238.6c0-2.5 2-4.6 4.6-4.6 2.5 0 4.6 2 4.6 4.6 0 2.5-2 4.6-4.6 4.6-2.6-.1-4.6-2.1-4.6-4.6z"/><path d="M260.6 159.9c0-2.5 2-4.6 4.6-4.6 2.5 0 4.6 2 4.6 4.6 0 2.5-2 4.6-4.6 4.6-2.5-.1-4.6-2.1-4.6-4.6z"/><path class="st2" d="M260.6 159.9c0-2.5 2-4.6 4.6-4.6 2.5 0 4.6 2 4.6 4.6 0 2.5-2 4.6-4.6 4.6-2.5-.1-4.6-2.1-4.6-4.6z"/><path class="st1" d="M265.2 238.6V329"/><path class="st4" d="M256.3 270.7h18.2v24.6h-18.2v-24.6z"/><path class="st5" d="M256.3 270.7h18.2v24.6h-18.2v-24.6z"/><path class="st4" d="M350 178.2h18.3v24.6H350v-24.6z"/><path class="st5" d="M350 178.2h18.3v24.6H350v-24.6z"/><path d="M354.5 216.3c0-2.5 2-4.6 4.6-4.6 2.5 0 4.6 2 4.6 4.6 0 2.5-2 4.6-4.6 4.6-2.5 0-4.6-2-4.6-4.6z"/><path class="st2" d="M354.5 216.3c0-2.5 2-4.6 4.6-4.6 2.5 0 4.6 2 4.6 4.6 0 2.5-2 4.6-4.6 4.6-2.5 0-4.6-2-4.6-4.6z"/><path d="M25.2 24.4h601.2v516.2H25.2V24.4z" fill="none" stroke="#000" stroke-width=".672" stroke-linejoin="round" stroke-miterlimit="3.864" stroke-dasharray="8,4"/><path class="st6" d="M345.8 283.7h26.7l-13.4 15.8-13.3-15.8z"/><path class="st9" d="M345.8 283.7h26.7l-13.4 15.8-13.3-15.8z"/><path class="st10" d="M364.9 296h3.1v3.9h-17.3v4h3.3"/><text transform="translate(326.676 46.502)" class="st11"><tspan x="0" y="0" class="st12 st13">3.3 VDC</tspan><tspan x="0" y="20.3" class="st12 st13">(typical)</tspan></text><text transform="translate(657.563 262.04)" class="st11"><tspan x="0" y="0" class="st12 st13">6-pin</tspan><tspan x="0" y="20.3" class="st12 st13">receptacle</tspan></text><path class="st1" d="M626.4 292h28.1v171.1h-28.1V292z"/><text transform="translate(635.562 318.492)" class="st12 st13">1</text><text transform="translate(635.562 345.587)" class="st12 st13">2</text><text transform="translate(635.562 372.685)" class="st12 st13">3</text><text transform="translate(635.562 399.778)" class="st12 st13">4</text><text transform="translate(635.562 426.874)" class="st12 st13">5</text><text transform="translate(635.562 453.97)" class="st12 st13">6</text><text transform="translate(54.549 60.579)" font-size="20.346" font-family="Helvetica,Arial,sans-serif" font-weight="700">Camera</text><text transform="translate(215.824 132.905)" class="st12 st13">Input buffer</text><text transform="translate(73.857 244.688)" class="st12 st13">FPGA input</text><path class="st1" d="M273.2 329.1h-16m109.9 151.5h-16M554 446.8h71.6m-266.5 0h194.8M343 394v28m0-8.2l16.2 16.2"/><path class="st6" d="M345.9 426.4l9.7-9.7v9.7h-9.7z"/><path d="M345.9 426.4l9.7-9.7v9.7h-9.7z" fill="none"/><path class="st1" d="M359.1 429.9v16.9m-16.1-45l16.4-16.3"/><path class="st3" d="M359.1 368.6v17.5"/><path d="M354.6 446.8c0-2.5 2-4.6 4.6-4.6 2.5 0 4.6 2 4.6 4.6 0 2.5-2 4.6-4.6 4.6s-4.6-2-4.6-4.6z"/><path class="st2" d="M354.6 446.8c0-2.5 2-4.6 4.6-4.6 2.5 0 4.6 2 4.6 4.6 0 2.5-2 4.6-4.6 4.6s-4.6-2-4.6-4.6z"/><path d="M354.5 368.6c0-2.5 2-4.6 4.6-4.6 2.5 0 4.6 2 4.6 4.6 0 2.5-2 4.6-4.6 4.6-2.5-.1-4.6-2.1-4.6-4.6z"/><path class="st2" d="M354.5 368.6c0-2.5 2-4.6 4.6-4.6 2.5 0 4.6 2 4.6 4.6 0 2.5-2 4.6-4.6 4.6-2.5-.1-4.6-2.1-4.6-4.6z"/><path d="M467.8 446.9c0-2.5 2-4.6 4.6-4.6 2.5 0 4.6 2 4.6 4.6 0 2.5-2 4.6-4.6 4.6-2.5-.1-4.6-2.1-4.6-4.6z"/><path class="st2" d="M467.8 446.9c0-2.5 2-4.6 4.6-4.6 2.5 0 4.6 2 4.6 4.6 0 2.5-2 4.6-4.6 4.6-2.5-.1-4.6-2.1-4.6-4.6z"/><path d="M467.9 368.5c0-2.5 2-4.6 4.6-4.6 2.5 0 4.6 2 4.6 4.6 0 2.5-2 4.6-4.6 4.6s-4.6-2-4.6-4.6z"/><path class="st2" d="M467.9 368.5c0-2.5 2-4.6 4.6-4.6 2.5 0 4.6 2 4.6 4.6 0 2.5-2 4.6-4.6 4.6s-4.6-2-4.6-4.6z"/><path class="st3" d="M472.4 369.1V448"/><path class="st1" d="M359.1 429.4v51.2"/><path class="st6" d="M485.8 416.4h-26.7l13.3-15.8 13.4 15.8z"/><path class="st9" d="M485.8 416.4h-26.7l13.3-15.8 13.4 15.8z"/><path class="st10" d="M464.6 401.3h15.5m-.4-.3l4.6 4.7m-24-8.8l4.7 4.7"/><path class="st1" d="M757.5 446.8h-103"/><path class="st3" d="M757.4 528v-81.2"/><path class="st1" d="M765.5 528h-16.1m3 3.5h10.1m-7.9 3.4h5.7m40-141.2H654.5m149.3-115.3v197.9"/><path d="M799.5 393.7c0-2.4 1.9-4.3 4.3-4.3s4.3 1.9 4.3 4.3-1.9 4.3-4.3 4.3-4.3-1.9-4.3-4.3z"/><path class="st2" d="M799.5 393.7c0-2.4 1.9-4.3 4.3-4.3s4.3 1.9 4.3 4.3-1.9 4.3-4.3 4.3-4.3-1.9-4.3-4.3z"/><path class="st4" d="M795.2 314.3h17.3v23.2h-17.3v-23.2z"/><path class="st5" d="M795.2 314.3h17.3v23.2h-17.3v-23.2z"/><path class="st1" d="M804 509.5v19.2"/><path class="st4" d="M799.3 480.6c0-2.4 1.9-4.3 4.3-4.3s4.3 1.9 4.3 4.3-1.9 4.3-4.3 4.3c-2.4.1-4.3-1.9-4.3-4.3z"/><path class="st2" d="M799.3 480.6c0-2.4 1.9-4.3 4.3-4.3s4.3 1.9 4.3 4.3-1.9 4.3-4.3 4.3c-2.4.1-4.3-1.9-4.3-4.3z"/><path class="st1" d="M821.7 485.2l-16.5 19.7"/><path class="st4" d="M799.4 505.5c0-2.4 1.9-4.3 4.3-4.3s4.3 1.9 4.3 4.3-1.9 4.3-4.3 4.3-4.3-1.9-4.3-4.3z"/><path class="st2" d="M799.4 505.5c0-2.4 1.9-4.3 4.3-4.3s4.3 1.9 4.3 4.3-1.9 4.3-4.3 4.3-4.3-1.9-4.3-4.3z"/><path class="st1" d="M811.9 528.7h-16.1m3 3.5h10.1m-7.9 3.5h5.7m166.7-7h-16.1m3 3.5h10.1m-7.9 3.5h5.7"/><path class="st3" d="M965.4 528.7V278.4H803.6"/><text transform="translate(903.036 324.456)" class="st12 st17">3.3–5</text><text transform="translate(908.336 341.656)" class="st12 st17">VDC</text><path d="M976.5 325.9c0 6.2-5.1 11.3-11.3 11.3s-11.3-5.1-11.3-11.3c0-6.2 5.1-11.3 11.3-11.3 6.3 0 11.3 5.1 11.3 11.3z" fill-rule="evenodd" clip-rule="evenodd" fill="#fff" stroke="#000" stroke-linejoin="round" stroke-miterlimit="3.864"/><path class="st1" d="M959 324.1h12.4m-12.4 3.6h12.4"/><text transform="translate(966.305 312.686)" class="st12 st13">+</text><text transform="translate(966.268 350.017)" class="st12 st13">-</text><path class="st1" d="M626.4 393.7h-48v-25.2H358.5"/></svg>