<svg style="background-color:#fff" version="1.1" id="Ebene_1" xmlns="http://www.w3.org/2000/svg" xmlns:xlink="http://www.w3.org/1999/xlink" x="0" y="0" viewBox="0 0 234.5 147.2" xml:space="preserve"><style>.st0{fill:none;stroke:#000;stroke-width:.999;stroke-linecap:round;stroke-linejoin:round;stroke-miterlimit:10}.st4{font-family:Helvetica,Arial,sans-serif}.st5{font-size:9.0031px}</style><path class="st0" d="M41 5.5v110.8m-6.8-2.1h7.2m-7.2-27h7.2M34.2 60h7.2m-7.2-27.2h7.2M34.2 5.5h7.2"/><defs><path id="SVGID_1_" d="M40.8 59.4h193.6v1.3H40.8z"/></defs><clipPath id="SVGID_2_"><use xlink:href="#SVGID_1_" overflow="visible"/></clipPath><path d="M41.4 60h193.1" clip-path="url(#SVGID_2_)" fill="none" stroke="#000" stroke-width=".999" stroke-linecap="round" stroke-linejoin="round" stroke-miterlimit="10"/><defs><path id="SVGID_3_" d="M39.6 116.2h194.8v1.3H39.6z"/></defs><clipPath id="SVGID_4_"><use xlink:href="#SVGID_3_" overflow="visible"/></clipPath><path d="M40.2 116.8h194.3" clip-path="url(#SVGID_4_)" fill="none" stroke="#000" stroke-width=".999" stroke-linecap="round" stroke-linejoin="round" stroke-miterlimit="10"/><path class="st0" d="M216.9 123.5v-7.2m-34.5 7.2v-7.2m-34.7 7.2v-7.2m-35 7.2v-7.2m-34.5 7.2v-7.2m-35 7.2v-7.2"/><path d="M43.2 60H51c4.7-.1 10.5.3 15-.2h9.2l2.2-.5H83l2-.3h3.5l2.2-.2h3.8c5.6-.6 11.3-.7 17-1l1.7-.3 2-.2h1.7l2-.2h1.7l1.7-.2 2.3-.2h1.7l2-.5 1.8-.2h2l1.7-.2 2-.2h2l1.5-.2 2.2-.2 1.7-.3h2l1.7-.2 2-.2 1.7-.2 2.3-.2L155 53h2l1.8-.2 1.7-.2 2-.2 1.7-.2 2-.2 2-.3 2-.2 1.7-.2h2l1.7-.2 2-.2 1.7-.5 2.3-.2 1.7-.2 2-.2 1.8-.2 1.7-.2 2-.3 1.7-.5 2.3-.2 1.5-.2 2.2-.2 1.7-.5 2-.2 1.7-.2 2-.2 1.7-.2 2.3-.5L212 45l2-.2 1.8-.2 2-.8 1.7-.2 2.3-.2 1.5-.2 2.2-.5 1.7-.2 2-.2 1.7-.5 2-.2" fill="none" stroke="#000" stroke-width="1.999" stroke-linecap="round" stroke-linejoin="round" stroke-miterlimit="10"/><text transform="translate(48.464 108.23)" class="st4 st5">Optical Distortion [%]</text><path d="M44.7 96h98v18h-98V96z" fill="#fff"/><path class="st0" d="M46.2 96.2h95v15h-95v-15z"/><text transform="translate(48.464 106.49)" class="st4 st5">Simulated WD = 1.3 m</text><text transform="translate(17.502 7.726)" class="st4 st5">0.2</text><text transform="translate(17.502 34.97)" class="st4 st5">0.1</text><text transform="translate(17.502 62.267)" class="st4 st5">0.0</text><text transform="translate(15.224 89.51)" class="st4 st5">-0.1</text><text transform="translate(15.224 116.754)" class="st4 st5">-0.2</text><text transform="translate(179.444 133.73)" class="st4 st5">4</text><text transform="translate(75.7 133.73)" class="st4 st5">1</text><text transform="translate(105.465 144.227)" class="st4 st5">Image Height [mm]</text><text transform="translate(214.726 133.73)" class="st4 st5">5</text><text transform="translate(145.25 133.73)" class="st4 st5">3</text><text transform="translate(110.243 133.73)" class="st4 st5">2</text><text transform="translate(41 133.73)" class="st4 st5">0</text><text transform="rotate(-90 57.753 48.737)" class="st4" font-size="9">Optical Distortion [%]</text></svg>