<svg style="background-color:#fff" height="460.8" viewBox="0 0 460.8 345.6" width="614.4" xmlns="http://www.w3.org/2000/svg" xmlns:xlink="http://www.w3.org/1999/xlink"><defs><style>*{stroke-linecap:butt;stroke-linejoin:round}</style></defs><g id="figure_1"><path d="M0 345.6h460.8V0H0z" fill="#fff" id="patch_1"/><g id="axes_1"><path d="M57.6 307.584h357.12V41.472H57.6z" fill="#fff" id="patch_2"/><g id="matplotlib.axis_1"><g id="xtick_1"><path clip-path="url(#pfe70ef77f3)" d="M73.833 307.584V41.472" fill="none" stroke="#b0b0b0" stroke-linecap="square" stroke-width=".8" id="line2d_1"/><g id="line2d_2"><defs><path d="M0 0v3.5" id="mf450307f2b" stroke="#000" stroke-width=".8"/></defs><use x="73.833" xlink:href="#mf450307f2b" y="307.584" stroke="#000" stroke-width=".8"/></g><g id="text_1"><defs><path d="M37.797 64.313L12.89 25.39h24.906zm-2.594 8.593H47.61V25.391h10.407v-8.203H47.609V0h-9.812v17.188H4.89v9.515z" id="DejaVuSans-52"/><path d="M31.781 66.406q-7.61 0-11.453-7.5Q16.5 51.422 16.5 36.375q0-14.984 3.828-22.484 3.844-7.5 11.453-7.5 7.672 0 11.5 7.5 3.844 7.5 3.844 22.484 0 15.047-3.844 22.531-3.828 7.5-11.5 7.5zm0 7.813q12.266 0 18.735-9.703 6.468-9.688 6.468-28.141 0-18.406-6.468-28.11-6.47-9.687-18.735-9.687-12.25 0-18.718 9.688-6.47 9.703-6.47 28.109 0 18.453 6.47 28.14Q19.53 74.22 31.78 74.22z" id="DejaVuSans-48"/></defs><g transform="matrix(.1 0 0 -.1 64.289 322.182)"><use xlink:href="#DejaVuSans-52"/><use x="63.623" xlink:href="#DejaVuSans-48"/><use x="127.246" xlink:href="#DejaVuSans-48"/></g></g></g><g id="xtick_2"><path clip-path="url(#pfe70ef77f3)" d="M128.214 307.584V41.472" fill="none" stroke="#b0b0b0" stroke-linecap="square" stroke-width=".8" id="line2d_3"/><use x="128.214" xlink:href="#mf450307f2b" y="307.584" stroke="#000" stroke-width=".8" id="line2d_4"/><g id="text_2"><defs><path d="M10.797 72.906h38.719v-8.312H19.828v-17.86q2.14.735 4.281 1.094 2.157.36 4.313.36 12.203 0 19.328-6.688 7.14-6.688 7.14-18.11 0-11.765-7.328-18.296-7.328-6.516-20.656-6.516-4.593 0-9.36.781-4.75.782-9.827 2.344v9.922q4.39-2.39 9.078-3.563 4.687-1.171 9.906-1.171 8.453 0 13.375 4.437 4.938 4.438 4.938 12.063 0 7.609-4.938 12.047-4.922 4.453-13.375 4.453-3.953 0-7.89-.875-3.922-.875-8.016-2.735z" id="DejaVuSans-53"/></defs><g transform="matrix(.1 0 0 -.1 118.67 322.182)"><use xlink:href="#DejaVuSans-53"/><use x="63.623" xlink:href="#DejaVuSans-48"/><use x="127.246" xlink:href="#DejaVuSans-48"/></g></g></g><g id="xtick_3"><path clip-path="url(#pfe70ef77f3)" d="M182.595 307.584V41.472" fill="none" stroke="#b0b0b0" stroke-linecap="square" stroke-width=".8" id="line2d_5"/><use x="182.595" xlink:href="#mf450307f2b" y="307.584" stroke="#000" stroke-width=".8" id="line2d_6"/><g id="text_3"><defs><path d="M33.016 40.375q-6.641 0-10.532-4.547-3.875-4.531-3.875-12.437 0-7.86 3.875-12.438 3.891-4.562 10.532-4.562 6.64 0 10.515 4.562 3.875 4.578 3.875 12.438 0 7.906-3.875 12.437-3.875 4.547-10.515 4.547zm19.578 30.922v-8.984q-3.719 1.75-7.5 2.671-3.782.938-7.5.938-9.766 0-14.922-6.594-5.14-6.594-5.875-19.922 2.875 4.25 7.219 6.516 4.359 2.266 9.578 2.266 10.984 0 17.36-6.672 6.374-6.657 6.374-18.125 0-11.235-6.64-18.032-6.641-6.78-17.672-6.78-12.657 0-19.344 9.687-6.688 9.703-6.688 28.109 0 17.281 8.204 27.563 8.203 10.28 22.015 10.28 3.719 0 7.5-.734t7.89-2.187z" id="DejaVuSans-54"/></defs><g transform="matrix(.1 0 0 -.1 173.051 322.182)"><use xlink:href="#DejaVuSans-54"/><use x="63.623" xlink:href="#DejaVuSans-48"/><use x="127.246" xlink:href="#DejaVuSans-48"/></g></g></g><g id="xtick_4"><path clip-path="url(#pfe70ef77f3)" d="M236.976 307.584V41.472" fill="none" stroke="#b0b0b0" stroke-linecap="square" stroke-width=".8" id="line2d_7"/><use x="236.976" xlink:href="#mf450307f2b" y="307.584" stroke="#000" stroke-width=".8" id="line2d_8"/><g id="text_4"><defs><path d="M8.203 72.906h46.875v-4.203L28.61 0H18.312L43.22 64.594H8.203z" id="DejaVuSans-55"/></defs><g transform="matrix(.1 0 0 -.1 227.432 322.182)"><use xlink:href="#DejaVuSans-55"/><use x="63.623" xlink:href="#DejaVuSans-48"/><use x="127.246" xlink:href="#DejaVuSans-48"/></g></g></g><g id="xtick_5"><path clip-path="url(#pfe70ef77f3)" d="M291.357 307.584V41.472" fill="none" stroke="#b0b0b0" stroke-linecap="square" stroke-width=".8" id="line2d_9"/><use x="291.357" xlink:href="#mf450307f2b" y="307.584" stroke="#000" stroke-width=".8" id="line2d_10"/><g id="text_5"><defs><path d="M31.781 34.625q-7.031 0-11.062-3.766-4.016-3.765-4.016-10.343 0-6.594 4.016-10.36Q24.75 6.391 31.78 6.391q7.032 0 11.078 3.78 4.063 3.798 4.063 10.345 0 6.578-4.031 10.343-4.016 3.766-11.11 3.766zm-9.86 4.188q-6.343 1.562-9.89 5.906Q8.5 49.079 8.5 55.329q0 8.733 6.219 13.812 6.234 5.078 17.062 5.078 10.89 0 17.094-5.078 6.203-5.079 6.203-13.813 0-6.25-3.547-10.61-3.531-4.343-9.828-5.906 7.125-1.656 11.094-6.5 3.984-4.828 3.984-11.796 0-10.61-6.468-16.282-6.47-5.656-18.532-5.656-12.047 0-18.531 5.656-6.469 5.672-6.469 16.282 0 6.968 4 11.797 4.016 4.843 11.14 6.5zM18.314 54.39q0-5.657 3.53-8.828 3.548-3.172 9.938-3.172 6.36 0 9.938 3.172 3.593 3.171 3.593 8.828 0 5.672-3.593 8.843-3.578 3.172-9.938 3.172-6.39 0-9.937-3.172-3.532-3.172-3.532-8.843z" id="DejaVuSans-56"/></defs><g transform="matrix(.1 0 0 -.1 281.813 322.182)"><use xlink:href="#DejaVuSans-56"/><use x="63.623" xlink:href="#DejaVuSans-48"/><use x="127.246" xlink:href="#DejaVuSans-48"/></g></g></g><g id="xtick_6"><path clip-path="url(#pfe70ef77f3)" d="M345.738 307.584V41.472" fill="none" stroke="#b0b0b0" stroke-linecap="square" stroke-width=".8" id="line2d_11"/><use x="345.738" xlink:href="#mf450307f2b" y="307.584" stroke="#000" stroke-width=".8" id="line2d_12"/><g id="text_6"><defs><path d="M10.984 1.516V10.5q3.72-1.766 7.516-2.688 3.813-.921 7.484-.921 9.766 0 14.907 6.562 5.156 6.563 5.89 19.953-2.828-4.203-7.187-6.453-4.344-2.25-9.61-2.25-10.937 0-17.312 6.61-6.375 6.625-6.375 18.109 0 11.219 6.64 18 6.641 6.797 17.672 6.797 12.657 0 19.313-9.703 6.672-9.688 6.672-28.141 0-17.234-8.188-27.516Q40.234-1.42 26.422-1.42q-3.719 0-7.531.734-3.797.734-7.907 2.203zM30.61 32.422q6.641 0 10.516 4.531 3.89 4.547 3.89 12.469 0 7.86-3.89 12.422-3.875 4.562-10.516 4.562-6.64 0-10.515-4.562-3.875-4.563-3.875-12.422 0-7.922 3.875-12.469 3.875-4.531 10.515-4.531z" id="DejaVuSans-57"/></defs><g transform="matrix(.1 0 0 -.1 336.194 322.182)"><use xlink:href="#DejaVuSans-57"/><use x="63.623" xlink:href="#DejaVuSans-48"/><use x="127.246" xlink:href="#DejaVuSans-48"/></g></g></g><g id="xtick_7"><path clip-path="url(#pfe70ef77f3)" d="M400.119 307.584V41.472" fill="none" stroke="#b0b0b0" stroke-linecap="square" stroke-width=".8" id="line2d_13"/><use x="400.119" xlink:href="#mf450307f2b" y="307.584" stroke="#000" stroke-width=".8" id="line2d_14"/><g id="text_7"><defs><path d="M12.406 8.297h16.11v55.625l-17.532-3.516v8.985l17.438 3.515h9.86V8.296H54.39V0H12.406z" id="DejaVuSans-49"/></defs><g transform="matrix(.1 0 0 -.1 387.394 322.182)"><use xlink:href="#DejaVuSans-49"/><use x="63.623" xlink:href="#DejaVuSans-48"/><use x="127.246" xlink:href="#DejaVuSans-48"/><use x="190.869" xlink:href="#DejaVuSans-48"/></g></g></g><g id="text_8"><defs><path d="M34.281 27.484q-10.89 0-15.093-2.484-4.204-2.484-4.204-8.5 0-4.781 3.157-7.594 3.156-2.797 8.562-2.797 7.485 0 12 5.297 4.516 5.297 4.516 14.078v2zm17.922 3.72V0H43.22v8.297Q40.14 3.328 35.547.953q-4.594-2.375-11.234-2.375-8.391 0-13.36 4.719Q6 8.016 6 15.922q0 9.219 6.172 13.906 6.187 4.688 18.437 4.688h12.61v.89q0 6.203-4.078 9.594-4.078 3.39-11.453 3.39-4.688 0-9.141-1.124-4.438-1.125-8.531-3.375v8.312q4.921 1.906 9.562 2.844 4.64.953 9.031.953 11.875 0 17.735-6.156 5.86-6.14 5.86-18.64z" id="DejaVuSans-97"/><path d="M45.406 27.984q0 9.766-4.031 15.125-4.016 5.375-11.297 5.375-7.219 0-11.25-5.375-4.031-5.359-4.031-15.125 0-9.718 4.031-15.093t11.25-5.375q7.281 0 11.297 5.375 4.031 5.375 4.031 15.093zm8.985-21.203q0-13.953-6.203-20.765Q42-20.797 29.203-20.797q-4.734 0-8.937.703-4.203.703-8.157 2.172v8.735q3.954-2.141 7.813-3.157 3.86-1.031 7.86-1.031 8.843 0 13.234 4.61 4.39 4.609 4.39 13.937v4.453q-2.781-4.844-7.125-7.234Q33.938 0 27.875 0 17.828 0 11.672 7.656q-6.156 7.672-6.156 20.328 0 12.688 6.156 20.344Q17.828 56 27.875 56q6.063 0 10.406-2.39 4.344-2.391 7.125-7.22v8.297h8.985z" id="DejaVuSans-103"/><path d="M2.984 54.688H12.5L29.594 8.797l17.093 45.89h9.516L35.687 0H23.485z" id="DejaVuSans-118"/><path d="M56.203 29.594v-4.39H14.891q.593-9.282 5.593-14.142 5-4.859 13.938-4.859 5.172 0 10.031 1.266 4.86 1.265 9.656 3.812v-8.5Q49.266.734 44.187-.344 39.11-1.422 33.892-1.422q-13.094 0-20.735 7.61-7.64 7.625-7.64 20.625 0 13.421 7.25 21.296Q20.016 56 32.328 56q11.031 0 17.453-7.11 6.422-7.093 6.422-19.296zm-8.984 2.64q-.094 7.36-4.125 11.75-4.032 4.407-10.672 4.407-7.516 0-12.031-4.25-4.516-4.25-5.203-11.97z" id="DejaVuSans-101"/><path d="M9.422 75.984h8.984V0H9.422z" id="DejaVuSans-108"/><path d="M54.89 33.016V0h-8.984v32.719q0 7.765-3.031 11.61-3.031 3.858-9.078 3.858-7.281 0-11.484-4.64-4.204-4.625-4.204-12.64V0H9.08v54.688h9.03v-8.5q3.235 4.937 7.594 7.374Q30.078 56 35.797 56q9.422 0 14.25-5.828 4.844-5.828 4.844-17.156z" id="DejaVuSans-110"/><path d="M3.328 72.906h9.953L28.61 11.281l15.282 61.625h11.093l15.328-61.625 15.282 61.625H95.61L77.297 0H64.89L49.516 63.281 33.984 0H21.578z" id="DejaVuSans-87"/><path d="M18.313 70.219V54.688h18.5v-6.985h-18.5V18.016q0-6.688 1.828-8.594 1.828-1.906 7.453-1.906h9.218V0h-9.218q-10.407 0-14.36 3.875-3.953 3.89-3.953 14.14v29.688H2.687v6.984h6.594V70.22z" id="DejaVuSans-116"/><path d="M54.89 33.016V0h-8.984v32.719q0 7.765-3.031 11.61-3.031 3.858-9.078 3.858-7.281 0-11.484-4.64-4.204-4.625-4.204-12.64V0H9.08v75.984h9.03V46.188q3.235 4.937 7.594 7.374Q30.078 56 35.797 56q9.422 0 14.25-5.828 4.844-5.828 4.844-17.156z" id="DejaVuSans-104"/><path d="M36.719 67.438L48.829 0h-9.517l-7.468 40.438L5.125 0h-9.516l34.125 52.438-1.703 9.671q-1.078 6.157-6.297 6.157h-4.687l1.453 7.718 5.719-.109q10.984-.14 12.5-8.438z" id="DejaVuSans-Oblique-955"/><path d="M8.594 75.984h20.703V69H17.578V-6.203h11.719v-6.984H8.594z" id="DejaVuSans-91"/><path d="M52 44.188q3.375 6.062 8.063 8.937Q64.75 56 71.093 56q8.548 0 13.188-5.984 4.64-5.97 4.64-17V0h-9.03v32.719q0 7.86-2.797 11.656-2.781 3.813-8.485 3.813-6.984 0-11.046-4.641-4.047-4.625-4.047-12.64V0h-9.032v32.719q0 7.906-2.78 11.687-2.782 3.782-8.595 3.782-6.89 0-10.953-4.657-4.047-4.656-4.047-12.625V0H9.08v54.688h9.03v-8.5q3.078 5.03 7.375 7.421Q29.781 56 35.687 56q5.97 0 10.141-3.031Q50 49.953 52 44.187z" id="DejaVuSans-109"/><path d="M30.422 75.984v-89.171H9.719v6.984H21.39V69H9.719v6.984z" id="DejaVuSans-93"/></defs><g transform="matrix(.1 0 0 -.1 188.06 335.862)"><use transform="translate(0 .016)" xlink:href="#DejaVuSans-87"/><use transform="translate(98.877 .016)" xlink:href="#DejaVuSans-97"/><use transform="translate(160.156 .016)" xlink:href="#DejaVuSans-118"/><use transform="translate(219.336 .016)" xlink:href="#DejaVuSans-101"/><use transform="translate(280.86 .016)" xlink:href="#DejaVuSans-108"/><use transform="translate(308.643 .016)" xlink:href="#DejaVuSans-101"/><use transform="translate(370.166 .016)" xlink:href="#DejaVuSans-110"/><use transform="translate(433.545 .016)" xlink:href="#DejaVuSans-103"/><use transform="translate(497.021 .016)" xlink:href="#DejaVuSans-116"/><use transform="translate(536.23 .016)" xlink:href="#DejaVuSans-104"/><use transform="translate(599.61 .016)" xlink:href="#DejaVuSans-32"/><use transform="translate(631.396 .016)" xlink:href="#DejaVuSans-Oblique-955"/><use transform="translate(690.576 .016)" xlink:href="#DejaVuSans-32"/><use transform="translate(722.363 .016)" xlink:href="#DejaVuSans-91"/><use transform="translate(761.377 .016)" xlink:href="#DejaVuSans-110"/><use transform="translate(824.756 .016)" xlink:href="#DejaVuSans-109"/><use transform="translate(922.168 .016)" xlink:href="#DejaVuSans-93"/></g></g></g><g id="matplotlib.axis_2"><g id="ytick_1"><path clip-path="url(#pfe70ef77f3)" d="M57.6 302.23h357.12" fill="none" stroke="#b0b0b0" stroke-linecap="square" stroke-width=".8" id="line2d_15"/><g id="line2d_16"><defs><path d="M0 0h-3.5" id="m7087f7f6df" stroke="#000" stroke-width=".8"/></defs><use x="57.6" xlink:href="#m7087f7f6df" y="302.23" stroke="#000" stroke-width=".8"/></g><g id="text_9"><defs><path d="M10.688 12.406H21V0H10.687z" id="DejaVuSans-46"/></defs><g transform="matrix(.1 0 0 -.1 34.697 306.03)"><use xlink:href="#DejaVuSans-48"/><use x="63.623" xlink:href="#DejaVuSans-46"/><use x="95.41" xlink:href="#DejaVuSans-48"/></g></g></g><g id="ytick_2"><path clip-path="url(#pfe70ef77f3)" d="M57.6 252.497h357.12" fill="none" stroke="#b0b0b0" stroke-linecap="square" stroke-width=".8" id="line2d_17"/><use x="57.6" xlink:href="#m7087f7f6df" y="252.497" stroke="#000" stroke-width=".8" id="line2d_18"/><g id="text_10"><defs><path d="M19.188 8.297h34.421V0H7.33v8.297q5.609 5.812 15.296 15.594 9.703 9.797 12.188 12.64 4.734 5.313 6.609 9 1.89 3.688 1.89 7.25 0 5.813-4.078 9.469-4.078 3.672-10.625 3.672-4.64 0-9.797-1.61-5.14-1.609-11-4.89v9.969Q13.767 71.78 18.938 73q5.188 1.219 9.485 1.219 11.328 0 18.062-5.672 6.735-5.656 6.735-15.125 0-4.5-1.688-8.531-1.672-4.016-6.125-9.485-1.218-1.422-7.765-8.187-6.532-6.766-18.453-18.922z" id="DejaVuSans-50"/></defs><g transform="matrix(.1 0 0 -.1 34.697 256.297)"><use xlink:href="#DejaVuSans-48"/><use x="63.623" xlink:href="#DejaVuSans-46"/><use x="95.41" xlink:href="#DejaVuSans-50"/></g></g></g><g id="ytick_3"><path clip-path="url(#pfe70ef77f3)" d="M57.6 202.765h357.12" fill="none" stroke="#b0b0b0" stroke-linecap="square" stroke-width=".8" id="line2d_19"/><use x="57.6" xlink:href="#m7087f7f6df" y="202.765" stroke="#000" stroke-width=".8" id="line2d_20"/><g transform="matrix(.1 0 0 -.1 34.697 206.564)" id="text_11"><use xlink:href="#DejaVuSans-48"/><use x="63.623" xlink:href="#DejaVuSans-46"/><use x="95.41" xlink:href="#DejaVuSans-52"/></g></g><g id="ytick_4"><path clip-path="url(#pfe70ef77f3)" d="M57.6 153.033h357.12" fill="none" stroke="#b0b0b0" stroke-linecap="square" stroke-width=".8" id="line2d_21"/><use x="57.6" xlink:href="#m7087f7f6df" y="153.033" stroke="#000" stroke-width=".8" id="line2d_22"/><g transform="matrix(.1 0 0 -.1 34.697 156.832)" id="text_12"><use xlink:href="#DejaVuSans-48"/><use x="63.623" xlink:href="#DejaVuSans-46"/><use x="95.41" xlink:href="#DejaVuSans-54"/></g></g><g id="ytick_5"><path clip-path="url(#pfe70ef77f3)" d="M57.6 103.3h357.12" fill="none" stroke="#b0b0b0" stroke-linecap="square" stroke-width=".8" id="line2d_23"/><use x="57.6" xlink:href="#m7087f7f6df" y="103.3" stroke="#000" stroke-width=".8" id="line2d_24"/><g transform="matrix(.1 0 0 -.1 34.697 107.1)" id="text_13"><use xlink:href="#DejaVuSans-48"/><use x="63.623" xlink:href="#DejaVuSans-46"/><use x="95.41" xlink:href="#DejaVuSans-56"/></g></g><g id="ytick_6"><path clip-path="url(#pfe70ef77f3)" d="M57.6 53.568h357.12" fill="none" stroke="#b0b0b0" stroke-linecap="square" stroke-width=".8" id="line2d_25"/><use x="57.6" xlink:href="#m7087f7f6df" y="53.568" stroke="#000" stroke-width=".8" id="line2d_26"/><g transform="matrix(.1 0 0 -.1 34.697 57.367)" id="text_14"><use xlink:href="#DejaVuSans-49"/><use x="63.623" xlink:href="#DejaVuSans-46"/><use x="95.41" xlink:href="#DejaVuSans-48"/></g></g><g id="text_15"><defs><path d="M44.39 34.188q3.172-1.079 6.172-4.594 3-3.516 6.032-9.672L66.609 0H56l-9.313 18.703q-3.624 7.328-7.015 9.719-3.39 2.39-9.25 2.39h-10.75V0h-9.86v72.906h22.266q12.5 0 18.656-5.234 6.157-5.219 6.157-15.766 0-6.89-3.203-11.437-3.204-4.532-9.297-6.282zM19.673 64.797V38.922h12.406q7.125 0 10.766 3.297 3.64 3.297 3.64 9.687 0 6.39-3.64 9.64-3.64 3.25-10.766 3.25z" id="DejaVuSans-82"/><path d="M9.422 54.688h8.984V0H9.422zm0 21.296h8.984v-11.39H9.422z" id="DejaVuSans-105"/><path d="M44.281 53.078v-8.5q-3.797 1.953-7.906 2.922-4.094.984-8.5.984-6.688 0-10.031-2.047-3.344-2.046-3.344-6.156 0-3.125 2.39-4.906 2.391-1.781 9.626-3.39l3.078-.688q9.562-2.047 13.593-5.781 4.032-3.735 4.032-10.422 0-7.625-6.032-12.078-6.03-4.438-16.578-4.438-4.39 0-9.156.86Q10.688.296 5.422 2v9.281q4.984-2.594 9.812-3.89 4.829-1.282 9.579-1.282 6.343 0 9.75 2.172 3.421 2.172 3.421 6.125 0 3.656-2.468 5.61-2.453 1.953-10.813 3.765l-3.125.735q-8.344 1.75-12.062 5.39-3.704 3.64-3.704 9.985 0 7.718 5.47 11.906Q16.75 56 26.811 56q4.97 0 9.36-.734 4.406-.72 8.11-2.188z" id="DejaVuSans-115"/><path d="M18.11 8.203v-29H9.077v75.484h9.031v-8.296q2.844 4.875 7.157 7.234Q29.594 56 35.594 56q9.968 0 16.187-7.906 6.235-7.907 6.235-20.797T51.78 6.484q-6.218-7.906-16.187-7.906-6 0-10.328 2.375-4.313 2.375-7.157 7.25zm30.578 19.094q0 9.906-4.079 15.547-4.078 5.64-11.203 5.64-7.14 0-11.218-5.64-4.079-5.64-4.079-15.547 0-9.906 4.078-15.547 4.079-5.64 11.22-5.64 7.124 0 11.202 5.64t4.078 15.547z" id="DejaVuSans-112"/><path d="M30.61 48.39q-7.22 0-11.422-5.64-4.204-5.64-4.204-15.453 0-9.813 4.172-15.453 4.188-5.64 11.453-5.64 7.188 0 11.375 5.655 4.203 5.672 4.203 15.438 0 9.719-4.203 15.406-4.187 5.688-11.375 5.688zm0 7.61q11.718 0 18.406-7.625 6.703-7.61 6.703-21.078 0-13.422-6.703-21.078-6.688-7.64-18.407-7.64-11.765 0-18.437 7.64-6.656 7.656-6.656 21.078 0 13.469 6.656 21.078Q18.844 56 30.609 56z" id="DejaVuSans-111"/></defs><g transform="matrix(0 -.1 -.1 0 28.617 220.739)"><use xlink:href="#DejaVuSans-82"/><use x="69.42" xlink:href="#DejaVuSans-101"/><use x="130.943" xlink:href="#DejaVuSans-108"/><use x="158.727" xlink:href="#DejaVuSans-97"/><use x="220.006" xlink:href="#DejaVuSans-116"/><use x="259.215" xlink:href="#DejaVuSans-105"/><use x="286.998" xlink:href="#DejaVuSans-118"/><use x="346.178" xlink:href="#DejaVuSans-101"/><use x="407.701" xlink:href="#DejaVuSans-32"/><use x="439.488" xlink:href="#DejaVuSans-82"/><use x="508.908" xlink:href="#DejaVuSans-101"/><use x="570.432" xlink:href="#DejaVuSans-115"/><use x="622.531" xlink:href="#DejaVuSans-112"/><use x="686.008" xlink:href="#DejaVuSans-111"/><use x="747.189" xlink:href="#DejaVuSans-110"/><use x="810.568" xlink:href="#DejaVuSans-115"/><use x="862.668" xlink:href="#DejaVuSans-101"/></g></g></g><path clip-path="url(#pfe70ef77f3)" d="M73.833 234.314l1.631 7.65 1.632 3.78 1.631 5.23 1.631-42.714 1.632 7.318 1.631 5.586 1.632-13.343 1.631-2.52 1.632-3.037 1.631-8.72 1.631-4.401 1.632-3.391 1.631-5.02 1.632-8.543 1.631-2.792 1.632-3.527 1.631-6.529 1.631-.295 1.632.467 1.631-8.285 1.632 1.485 1.631.815 1.632-.282 1.631-3.526 1.631 1.896 1.632 5.284 1.631-.063 1.632 7.189 3.263 11.076 1.631 6.56 1.631 9.232 1.632 6.955 1.631 5.74 1.632 6.94 3.263 17.122 1.631 7.589 1.631 9.183 3.263 10.385 3.263 9.759 1.632 1.948 1.631 2.335 1.632 1.934 1.63 2.81 1.632 2.275 1.632 2.907 1.631 1.867 1.632 3.14 1.631 1.918 1.632 2.12 1.63 1.152 1.632 1.36 3.263 1.423 1.632.313 1.631.124 3.263.497 3.263.403 1.631.471 8.157 1.61 4.895.3 1.631-.17 1.632-.306 1.631-.468 3.263-.748 3.263-1.227 4.894-2.543 1.631-1.398 1.632-1.115 1.631-.876 1.632-1.035 1.631-.804 1.632-.315 3.262-1.636 4.895-1.44 1.631-.812 1.632-.213 1.631.06 1.631-.593 1.632.146 1.631-.079 1.632.184 1.631.037 1.632.56 1.631.765 1.631.572 1.632 1.13 1.631 1.299 1.632 1.105 1.631 1.68 1.632.796 1.631.416 1.631.094 1.632-.266 4.894-1.165 1.632-.168 1.631.276 3.263 1.033 1.631-.055 1.632-.706 1.631-.254 1.632-1.426 1.631-1.78 1.631-2.442 1.632-3.944 1.631-5.05 1.632-13.118 1.631-10.157 1.632-15.278 1.631-10.113 1.631-7.856 1.632-6.298 1.631-10.263 1.632-4.377 1.631-5.468 1.632-8.151 1.631-2.904 1.631-2.377 1.632-.879 1.631.133 1.632 1.73 1.631 2.394 1.632 4.757 1.631 1.983 1.631 5.53 1.632 6.225 1.631 2.462 1.632 4.925 1.631 4.405 1.632.459 1.631 1.2 1.631.005 1.632.794 1.631-.704 1.632-.41 1.631.187 1.632.37 3.263 4.479 1.63 1.822 1.632 2.734 1.632 1.781 1.631 4.907 1.632 1.172 3.263 6.072 1.63 1.713 1.632 2.766 1.632 1.085 1.631 2.782 1.632 2.31 1.631 1.331 1.632.541 1.631 2.81 1.631.348 1.632 1.847 3.263 3.03 1.631 1.416 1.632 2.93 1.631.907 1.631.716 1.632 3.871 1.631 1.68 1.632 1.404 1.631 1.703 3.263 2.333 1.631 1.637 3.263 1.858 1.632.963 1.631 1.587 3.263 1.773 1.631 1.444 3.263 1.53h0" fill="none" stroke="#00f" stroke-dasharray="9.6,2.4,1.5,2.4" stroke-width="1.5" id="line2d_27"/><path clip-path="url(#pfe70ef77f3)" d="M73.833 278.045l1.631 3.343 1.632 2.985 1.631 2.413 1.631-12.27 1.632 2.919 1.631 2.088 1.632-2.06 1.631 2.13 1.632 1.649 1.631.149 1.631.428 1.632.101 1.631-.294 1.632-.95 1.631.142 1.632 1.201 1.631.116 1.631.71 1.632.467 3.263-5.591 1.631-5.473 1.632-10.351 1.631-17.226 1.631-15.233 1.632-28.713 1.631-25.508 1.632-16.808 1.631-12.438 1.632-14.622 1.631-9.02 1.631-7.999 1.632-4.68 1.631-7.028 1.632-4.93 1.631-1.532 1.632-7.693 1.631-.186 1.631-3.351 1.632-2.166 1.631.3 1.632-1.708 1.631.388 1.632-6.563 1.631-1.178 1.632 1.258 1.63 1.835 1.632.401 1.632 2.373 1.631-3.53 3.263 7.504 1.632 5.476 1.63-2.119 1.632 3.813 1.632 2.211 1.631 2.695 1.632 2.02 1.631.879 1.632 6.695 1.631 7.407 1.631 4.124 1.632 6.324 1.631 12.714 1.632 10.534 1.631 8.988 1.632 12.134 3.262 26.79 1.632 6.218 1.631 13.887 1.632 5.085 1.631 6.497 1.632 7.527 1.631 3.107 1.631 2.514 1.632 3.28 1.631 2.886 3.263 4.896 1.632 1.589 1.631 1.22 1.631 1.433 4.895 2.663 1.631-.305 1.632.172 1.631-1.814 3.263-4.958 3.263-7.166 3.263-8.667 1.631-2.123 1.631-5.256 1.632-2.059 1.631-2.884 3.263-7.457 3.263-5.271 3.263.175 1.631 1.244 1.632 1.837 1.631 3.361 1.632.988 3.262 1.558 1.632-.897 1.631-1.85 1.632-2.02 1.631-2.57 1.632-1.767 1.631-2.03 1.631-.342 1.632-.136 1.631-.367 1.632-.568 1.631-.323 3.263-3.536 1.631-1.962 3.263-4.479 1.632-1.706 1.631-.102 1.632-.357 1.631-.884 1.631-.403 1.632-.52 1.631-1.353 1.632-.073 1.631.177 3.263 1.375 1.631-.075 1.632.104 1.631-.044 1.632.31 1.631.642 1.632 1.595 1.631.55 1.631 2.23 1.632 3.229 1.631 1.728 1.632 3.458 1.631 4.612 1.632.5 3.262 4.323 1.632 1.852 3.263 2.843 1.631 2.394 1.632 1.856 1.631 3.31 1.632 2.103 1.63 1.33 1.632 1.066 1.632.744 1.631 2.686 1.632.484 1.631 1.568 1.632 1.989 1.63 1.237 1.632 2.284 1.632.964 1.631 2.533 1.632 2.277 1.631 1.393 1.632.734 1.631 3.253 1.631.376 1.632 1.902 3.263 2.887 1.631 1.405 1.632 3.066 1.631.945 1.631.707 1.632 3.57 1.631 1.347 1.632 1.072 1.631 1.4 3.263 2.042 1.631 1.47 4.895 2.376 1.631 1.315 3.263 1.404 1.631 1.237 3.263 1.179h0" fill="none" stroke="green" stroke-dasharray="1.5,2.475" stroke-width="1.5" id="line2d_28"/><path clip-path="url(#pfe70ef77f3)" d="M73.833 272.883l3.263 7.91 1.631 2.936 1.631-14.658 1.632 3.617 1.631 2.405 1.632-2.476 1.631 2.399 1.632 2.017 1.631.614 4.894 4.322 1.632.624 1.631 1.062 1.632 1.94 1.631.245 3.263 1.548 4.894 1.499 1.632.159 1.631-.34 1.631.112 1.632.355 1.631.013 1.632.495 1.631.312 6.526.267 3.263-.717 1.631-.526 1.632-1.535 1.631-1.123 1.631-2.532 1.632-2.011 1.631-1.588 1.632-1.426 1.631-.103 1.632.474 3.263 3.816 1.63 2.774 1.632 1.633 1.632 1.359 3.263.904 1.631.087 1.632-.205 1.63-.747 1.632-.877 1.632-1.5 1.631-5.229 1.632-10.777 1.631-34.107 1.632-44.25 1.631-53.59 3.263-58.034 1.631-9.795 1.632-9.026 1.631-4.024 1.632-1.426 1.631-2.591 1.631 4.503 1.632.371 1.631 3.264 3.263.178 1.632.74 1.631-2.509 1.631 1.255 1.632 3.877 1.631 2.974 1.632 1.9 1.631 1.343 1.632-.812 1.631-1.496 1.631-1.2 1.632 1.39 1.631 4.38 1.632 8.819 1.631 4.303 1.632 7.928 1.631 4.976 1.631-2.897 1.632.68 1.631 2.434 1.632 3.294 1.631-.927 1.632 8.54 1.631 6.262 1.631-.324 1.632 3.01 1.631-1.106 1.632-2.263 1.631-4.045 1.632-1.79 1.631-3.076 1.631 1.002 1.632.249 1.631 1.343 1.632 2.137 1.631 3.22 1.632-1.58 1.631-1.315 1.631.674 1.632-1.113 1.631-.12 1.632-.767 3.263 8.803 1.631 6.584 3.263 11.166 1.631 2.238 1.632 3.304 1.631.337 1.632-.38 1.631-.864 1.631-.549 1.632-.133 1.631.099 4.895 11.527 1.631 1.569 1.631 1.803 1.632 1.379 3.263 3.092 1.631 2.072 1.632 3.903 1.631 2.237 1.631 1.37 1.632 1.602 1.631 1.946 3.263 4.608 1.632 4.065 1.631 1.553 3.263 8.882 1.631 1.957 1.632 3.829 1.631 4.627 1.632.441 1.631 1.815 1.631 1.452 1.632 1.603 1.631 1.14 1.632 1.326 1.631 2.731 1.632 2.303 1.631 4.179 1.632 2.37 3.262 2.811 1.632.96 1.631 3.71 1.632.804 3.263 4.48 1.63 1.396 1.632 2.327 1.632.875 1.631 2.505 1.632 2.228 1.631 1.407 1.632.683 1.631 3.307 1.631.432 1.632 1.935 4.894 4.58 1.632 3.149 1.631.936 1.631.719 1.632 3.543 1.631 1.397 1.632 1.127 1.631 1.518 3.263 2.257 1.631 1.618 3.263 1.78 1.632.875 1.631 1.439 3.263 1.516 1.631 1.327 3.263 1.17h0" fill="none" stroke="red" stroke-linecap="square" stroke-width="1.5" id="line2d_29"/><path d="M57.6 307.584V41.472" fill="none" stroke="#000" stroke-linecap="square" stroke-width=".8" id="patch_3"/><path d="M414.72 307.584V41.472" fill="none" stroke="#000" stroke-linecap="square" stroke-width=".8" id="patch_4"/><path d="M57.6 307.584h357.12" fill="none" stroke="#000" stroke-linecap="square" stroke-width=".8" id="patch_5"/><path d="M57.6 41.472h357.12" fill="none" stroke="#000" stroke-linecap="square" stroke-width=".8" id="patch_6"/><g id="legend_1"><path d="M345.22 93.506h62.5q2 0 2-2V48.472q0-2-2-2h-62.5q-2 0-2 2v43.034q0 2 2 2z" fill="#fff" opacity=".8" stroke="#ccc" id="patch_7"/><path d="M347.22 54.57h20" fill="none" stroke="#00f" stroke-dasharray="9.6,2.4,1.5,2.4" stroke-width="1.5" id="line2d_30"/><g id="text_16"><defs><path d="M19.672 34.813V8.108H35.5q7.953 0 11.781 3.297 3.844 3.297 3.844 10.078 0 6.844-3.844 10.078-3.828 3.25-11.781 3.25zm0 29.984V42.828h14.61q7.218 0 10.75 2.703 3.546 2.719 3.546 8.282 0 5.515-3.547 8.25-3.531 2.734-10.75 2.734zm-9.86 8.11h25.204q11.28 0 17.375-4.688Q58.5 63.53 58.5 54.89q0-6.703-3.125-10.657-3.125-3.953-9.188-4.922 7.282-1.562 11.313-6.53 4.031-4.954 4.031-12.376 0-9.765-6.64-15.093Q48.25 0 35.984 0H9.812z" id="DejaVuSans-66"/><path d="M8.5 21.578v33.11h8.984V21.922q0-7.766 3.016-11.656 3.031-3.875 9.094-3.875 7.265 0 11.484 4.64 4.234 4.64 4.234 12.656v31h8.985V0h-8.984v8.406Q42.047 3.422 37.718 1q-4.313-2.422-10.032-2.422-9.421 0-14.312 5.86Q8.5 10.296 8.5 21.578zM31.11 56z" id="DejaVuSans-117"/></defs><g transform="matrix(.1 0 0 -.1 375.22 58.07)"><use xlink:href="#DejaVuSans-66"/><use x="68.604" xlink:href="#DejaVuSans-108"/><use x="96.387" xlink:href="#DejaVuSans-117"/><use x="159.766" xlink:href="#DejaVuSans-101"/></g></g><path d="M347.22 69.249h20" fill="none" stroke="green" stroke-dasharray="1.5,2.475" stroke-width="1.5" id="line2d_32"/><g id="text_17"><defs><path d="M59.516 10.406v19.578h-16.11v8.11h25.875V6.78Q63.578 2.734 56.687.656 49.813-1.422 42-1.422q-17.094 0-26.75 9.985-9.64 10-9.64 27.812 0 17.875 9.64 27.86 9.656 9.984 26.75 9.984 7.125 0 13.547-1.766 6.422-1.75 11.844-5.172v-10.5q-5.47 4.64-11.625 6.985-6.157 2.343-12.938 2.343-13.39 0-20.11-7.468-6.702-7.47-6.702-22.266 0-14.75 6.703-22.219 6.718-7.469 20.11-7.469 5.218 0 9.312.907 4.109.906 7.375 2.812z" id="DejaVuSans-71"/><path d="M41.11 46.297q-1.516.875-3.297 1.281Q36.03 48 33.89 48q-7.625 0-11.703-4.953-4.079-4.953-4.079-14.234V0H9.08v54.688h9.03v-8.5q2.844 4.984 7.375 7.39Q30.031 56 36.531 56q.922 0 2.047-.125 1.125-.11 2.484-.36z" id="DejaVuSans-114"/></defs><g transform="matrix(.1 0 0 -.1 375.22 72.749)"><use xlink:href="#DejaVuSans-71"/><use x="77.49" xlink:href="#DejaVuSans-114"/><use x="118.572" xlink:href="#DejaVuSans-101"/><use x="180.096" xlink:href="#DejaVuSans-101"/><use x="241.619" xlink:href="#DejaVuSans-110"/></g></g><path d="M347.22 83.927h20" fill="none" stroke="red" stroke-linecap="square" stroke-width="1.5" id="line2d_34"/><g id="text_18"><defs><path d="M45.406 46.39v29.594h8.985V0h-8.985v8.203Q42.578 3.328 38.25.953q-4.313-2.375-10.375-2.375-9.906 0-16.14 7.906-6.22 7.922-6.22 20.813 0 12.89 6.22 20.797Q17.968 56 27.874 56q6.063 0 10.375-2.375 4.328-2.36 7.156-7.234zm-30.61-19.093q0-9.906 4.079-15.547 4.078-5.64 11.203-5.64 7.125 0 11.219 5.64 4.11 5.64 4.11 15.547 0 9.906-4.11 15.547-4.094 5.64-11.219 5.64-7.125 0-11.203-5.64-4.078-5.64-4.078-15.547z" id="DejaVuSans-100"/></defs><g transform="matrix(.1 0 0 -.1 375.22 87.427)"><use xlink:href="#DejaVuSans-82"/><use x="69.42" xlink:href="#DejaVuSans-101"/><use x="130.943" xlink:href="#DejaVuSans-100"/></g></g></g></g></g><defs><clipPath id="pfe70ef77f3"><path d="M57.6 41.472h357.12v266.112H57.6z"/></clipPath></defs></svg>