<svg version="1.1" id="Layer_1" xmlns="http://www.w3.org/2000/svg" x="0" y="0" viewBox="0 0 645.4 274.9" style="background-color:#fff" xml:space="preserve"><style>.st10{fill:#00437c}.st11{font-family:Helvetica,Arial,sans-serif}.st12{font-size:12px}.st14{fill:#fff}.st15{font-size:12.1434px}.st21{fill:#6f6f6e}.st22{fill:#00305c}.st23{fill:none;stroke:#00305c;stroke-width:.75;stroke-miterlimit:10}</style><path fill-rule="evenodd" clip-rule="evenodd" fill="#fff7b2" d="M6 175.2L115.3 61.9l348.9 20 .1 33.2-361.5 156.8z" id="Light"/><g id="Light_1_"><path fill="none" stroke="#5bc5f2" stroke-width="2.126" stroke-linecap="square" stroke-linejoin="bevel" d="M463.4 97.4L39.8 202.8l31.3-79.2"/><path fill="#5bc5f2" d="M73.8 127.6l1.7-15.4-9.2 12.4z"/><path fill="none" stroke="#00437c" stroke-width="2.126" stroke-miterlimit="10" d="M464.2 96L75.5 112.2"/><path fill="none" stroke="#f59d1f" stroke-width="2.126" stroke-linejoin="bevel" d="M464.1 96.4L57.7 219.8l15.8-95.5"/><path fill="#f59d1f" d="M77.1 127.6l-1.6-15.4-6.4 14.1z"/><path fill="none" stroke="#f59d1f" stroke-width="2.126" stroke-linejoin="bevel" stroke-miterlimit="10" d="M75.5 112.2L455.4 209"/><path fill="none" stroke="#00305c" stroke-width="2.126" stroke-linejoin="bevel" stroke-miterlimit="10" d="M75.5 112.2L455.4 212"/><path d="M75.5 114.3l381.2 101.5m0 0l85-4.3" fill="none" stroke="#5bc5f2" stroke-width="2.126" stroke-linejoin="bevel" stroke-miterlimit="10"/></g><path fill="none" stroke="#878786" stroke-width="8.504" stroke-miterlimit="10" d="M119.3 61.9L6 175.2l96.8 96.7" id="Ebene_2"/><g id="Camera_2_"><text transform="translate(341.086 92.224)" class="st10 st11 st12">Light</text><text transform="translate(18.419 103.557)"><tspan x="0" y="0" class="st10 st11 st12">Target </tspan><tspan x="0" y="14.4" class="st10 st11 st12">object</tspan></text><text transform="translate(224.524 126.852)" class="st10 st11 st12">Reflected light</text><text transform="translate(73.357 161.98)" class="st10 st11 st12">Multiple reflected light</text><text transform="translate(480.393 167.671)" class="st14 st11 st15">Camera</text><text transform="translate(474.613 103.692)" class="st14 st11 st15">Light</text><path fill="none" stroke="#5bc5f2" stroke-miterlimit="10" d="M456.7 215.8l85-4.3"/><path fill="#d9dada" d="M455.4 61.1h144v183.1h-144z"/><path d="M487.7 100.5h99M545.4 192v-82.5" fill="none" stroke="#00437c" stroke-width=".5" stroke-miterlimit="10"/><circle transform="rotate(-88.546 471.81 101.158) scale(1.00002)" cx="471.8" cy="101.2" fill="#ffed00" stroke="#000" stroke-width=".709" stroke-miterlimit="10" r="15.9"/><path d="M460.6 90l22.4 22.4m0-22.4l-22.4 22.4" stroke="#000" stroke-width=".425" fill="none" stroke-miterlimit="10"/><path class="st21" d="M586.7 85.3h24.7v28.3h-24.7z"/><text transform="translate(605.235 202.814)" class="st11 st12">Sensor</text><text transform="translate(496.233 27.011)" class="st11 st12">Evaluation unit</text><text transform="translate(418.773 36.005)" class="st11 st12">Light source</text><text transform="translate(593.03 33.132)" class="st11 st12">Interface</text><text transform="translate(465.92 187.266)" class="st11 st12">Lens</text><path class="st22" d="M545.9 78.1l-2.1-3.6-2.1-3.7h8.4l-2.1 3.7z"/><path class="st23" d="M545.9 70.8V31.9"/><path class="st22" d="M464.2 84.8l-3-2.9-3.1-2.9 4.1-1.2 4-1.2-1 4.1z"/><path class="st23" d="M462.2 77.8l-11-37.3"/><path class="st22" d="M606.5 84.8l-1.5-3.9-1.6-3.9 4.2.6 4.2.6-2.7 3.3z"/><path class="st23" d="M607.6 77.6l5.6-38.5"/><path class="st22" d="M558.2 199.6l3.6-2.1 3.7-2.1v8.4l-3.7-2.1z"/><path class="st23" d="M565.5 199.6h38.9"/><path class="st21" d="M455.4 196.5h9.1v31.1h-9.1z"/><path class="st21" d="M462.6 199.6h36.7v23.8h-36.7zm80.1-116h.8v33.8h-.8zm2.3 0h.8v33.8h-.8zm2.3 0h.8v33.8h-.8z"/><path class="st21" d="M528.5 102.1h33.8v.8h-33.8zm-.1-2.2h33.8v.8h-33.8zm0-2.3h33.8v.8h-33.8z"/><path class="st21" d="M531.9 86.1H559v28.3h-27.1zm9.3 103.9h8.3v43.9h-8.3z"/><path fill="none" stroke="#5bc5f2" stroke-width="2" stroke-miterlimit="10" d="M455.4 215.5l86.3-4"/><path fill="none" stroke="#00305c" stroke-width="2" stroke-miterlimit="10" d="M454.7 212l86.3-.5"/><path fill="none" stroke="#f59d1f" stroke-width="2" stroke-miterlimit="10" d="M454.7 209l88 1.6"/></g></svg>