<svg version="1.1" id="Ebene_1" xmlns="http://www.w3.org/2000/svg" x="0" y="0" viewBox="0 0 938 627.3" style="background-color:#fff" xml:space="preserve"><style>.st1{stroke-width:.4252;stroke-miterlimit:10;stroke-dashoffset:1}.st1,.st2{fill:none;stroke:#000;stroke-linecap:round;stroke-linejoin:round;stroke-dasharray:3.6,1.8}.st2,.st3{stroke-width:.4252;stroke-miterlimit:10}.st3,.st4,.st5{fill:none;stroke:#000;stroke-linecap:round;stroke-linejoin:round}.st4{stroke-miterlimit:10;stroke-width:.283}.st5{stroke-width:.2835}.st7{font-family:Helvetica,Arial,sans-serif}.st8{font-size:14px}</style><g id="BCBL-60x60"><path class="st1" d="M178.1 143.5H351"/><path class="st2" d="M178.1 143.5v164.4"/><path class="st1" d="M178.1 307.9H351"/><path class="st2" d="M351 143.5v164.4"/><path class="st3" d="M250.4 488.7v-9.9m-33.3-23.4h9.9m-9.9-102.1h-37.6m170.1 0H227m122.6 0l1.4-1.4m0 0v-21.2m0-232.5v22.7m-.1-22.7H179.5l-1.4 1.4v21.3m0 231v-21.2m0 21.2l1.4 1.4m174.4-232.4h-1.5m0 209.8h1.5m0-208.4v-1.4m0 209.8v-1.5m-178.6 0v1.5m0-209.8v1.4m1.4-1.4h-1.4m0 209.8h1.4m177.2-1.5V122.3m-1.5-1.4H176.7m0 209.8h175.7M175.3 122.3v206.9"/><path class="st4" d="M297.4 478.8l.1.5.1 1-.1 1.4-.3 1.4-.5 1.5m0 0l-.5 1.1-.1 1.2.1.9.2.7v.2m-3.5-.1l-.1-.5-.1-1 .1-1.4.3-1.5.5-1.2m0 0l.5-1.2.1-1.1-.1-.9-.2-.7-.1-.3"/><path class="st3" d="M401.5 422.8v1.4m0-1.4h4.6m-4.6 82.5v1.4m0 0h4.6m-4.6-1.4v-6.2m0-68.6v-6.3m0 6.3v1.4m0 65.7v1.5m4.6-67.2h-4.6m0 65.7v-65.7m186.8-7.7v81.1m0-81.1v-1.4m-4.5 0h4.5m-4.5 83.9h4.5m0 0v-1.4m-4.5-52.6v1.4m-177.7 0v-1.4m177.7-11.3v1.4m-177.7 0v-1.4m177.7-5.7v1.4m-177.7 0v-1.4m177.7 25.5v1.4m-177.7 0v-1.4m177.7-2.8v1.4m-177.7 0v-1.4m177.7-25.5v1.4m-177.7 0v-1.4M583.8 447v1.5m-177.7 0V447m177.7-2.8v1.4m-177.7 0v-1.4m177.7 31.2v1.4m-177.7 0v-1.4m177.7-5.7v1.4m-177.7 0v-1.4m177.7 2.9v1.4m-177.7 0v-1.4m177.7-34.1v1.5m-177.7 0v-1.5m177.7 17v1.5m-177.7 0v-1.5m177.7 11.4v1.4m-177.7 0v-1.4m177.7-2.8v1.4m-177.7 0v-1.4m177.7-14.2v1.4m-177.7 0v-1.4m177.7 28.3v1.4m-177.7 0v-1.4m177.7 2.9v1.4m-177.7 0v-1.4m177.7 2.8v1.4m-177.7 0v-1.4m177.7 8.5v1.4m-177.7 0v-1.4m177.7-5.7v1.4m-177.7 0v-1.4m177.7 2.9v1.4m-177.7 0v-1.4m177.7 5.6v1.5m-177.7 0v-1.5m177.7-45.3v-1.4m0 0H406.1m0 0v1.4m177.7-8.5V440m0 0H406.1m0 0v1.4m177.7 5.6v-1.4m0 0H406.1m0 0v1.4m177.7-8.5v-1.4m0 0H406.1m0 0v1.4m177.7-5.6v-9.2m-177.7 9.2v-9.2m177.7 20.5v-1.4m0 0H406.1m0 0v1.4m177.7-20.5v-1.5m-177.7 0v1.5m177.7 0H406.1m0-1.5h177.7m0 33.3v-1.4m0 0H406.1m0 0v1.4m177.7-2.8v-1.4m0 0H406.1m0 0v1.4m177.7 5.7V457m0 0H406.1m0 0v1.4m177.7-22.7v-1.4m0 0H406.1m0 0v1.4m177.7 25.5v-1.4m0 0H406.1m0 0v1.4m177.7 2.9v-1.5m0 0H406.1m0 0v1.5m177.7 9.9v1.4M406.1 474h177.7m-177.7 1.4V474m177.7 5.6v1.5m-177.7-1.5h177.7m-177.7 1.5v-1.5m177.7-8.5v1.5m-177.7-1.5h177.7m-177.7 1.5v-1.5m177.7 5.7v1.4m-177.7-1.4h177.7m-177.7 1.4v-1.4m177.7-11.3v1.4m-177.7-1.4h177.7m-177.7 1.4v-1.4m177.7 2.8v1.4m-177.7-1.4h177.7m-177.7 1.4v-1.4M583.8 491v1.4M406.1 491h177.7m-177.7 1.4V491m177.7-8.5v1.4m-177.7-1.4h177.7m-177.7 1.4v-1.4m177.7 2.8v1.4m-177.7-1.4h177.7m-177.7 1.4v-1.4m177.7 8.5v1.4m-177.7-1.4h177.7m-177.7 1.4v-1.4m177.7-5.7v1.5m-177.7-1.5h177.7m-177.7 1.5v-1.5m177.7 19.2v-1.4m-177.7 0v1.4m0 0h177.7m-177.7-1.4v-9.2m177.7 9.2v-9.2m-177.7 0h177.7m5.4-4.3h-.9m.9-48.2h-.9m.9 0v48.2m-187.7-13.6H297.4m-1 9.9h105.1m-107.7-9.9h-43.4m0 9.9h42.5M227 455.4V330.7m-9.9 0v124.7m0 0l.2 3.7.6 3.7 1.1 3.6 1.4 3.4 1.8 3.3 2.2 3.1 2.4 2.7 2.8 2.5 3.1 2.2 3.2 1.8 3.5 1.4 3.6 1.1 3.7.6 3.7.2m0-9.9l-3.1-.2-3-.6-2.9-1-2.7-1.4-2.5-1.7-2.3-2-2.1-2.3-1.7-2.5-1.3-2.8-1-2.9-.6-3-.2-3M815.3 98.2v1.4m-2.9 0v-1.4m0 0h2.9m0 1.4v21.3m-2.9-21.3v21.3m0 231v-21.2m2.9 21.2v-21.2m0 21.2v1.4m-2.9 0v-1.4m2.9 1.4h-2.9m-31.2-22.6h31.2m-31.2-209.8h31.2m-31.2 209.8V120.9m34.1 209.8h-2.9m2.9-209.8v209.8m-2.9-209.8h2.9m-2.9 209.8V120.9m-39.7 1.4v-1.4m0 0h8.5m-8.5 208.3V122.3m8.5 206.9V122.3m-8.5 208.4v-1.5m8.5 1.5h-8.5m27.2 162.1v-49m4.6-4.5h1.7m-2.3 4.2v-4.2m0 0h2.9m-3.7-.9l.8.9m2.9 4.2h-2.9m-.8.9l.8-.9m2.9-4.2v4.2m.8.9l-.8-.9m0-4.2l.8-.9m-4.5 6v-6m0 0h4.5m0 0v6m0 0h-4.5m-26.1-.6h23.2m0 0v49m0 0H777m0 0v-49m45.2-20.1v82.2m-1.4-83.7l.3.1.2.1.3.1.2.2.2.2.1.2.1.3v.3m-5-1.5h3.6m-3.6 0v.6h-1.4v-.6m-1.4 0h1.4m-1.4 0v.6H813v-.6m-10.6 0H813m-10.6 0v.6h-1.5v-.6m-1.4 0h1.4m-1.4 0v.6h-1.4v-.6m-1.4 0h1.4m-1.4 0v.6h-1.4v-.6m-1.5 0h1.5m-1.5 0v.6h-1.4v-.6m-1.4 0h1.4m-1.4 0v.6h-1.4v-.6m-8.9 0h8.9m-8.9 0v.6h-7.4v-.6m-6.4 0h6.4m-7.8 1.5v-.3l.1-.3.1-.2.2-.2.2-.2.3-.1.2-.1.3-.1m-1.4 10.7v-9.2m0 9.2h.7m0 0h.3l.2.2.2.2v.6l-.2.2-.2.1-.3.1m0 0h-.7m0 1.4v-1.4m0 1.4h.7m0 0l.3.1.2.1.2.2v.6l-.2.2-.2.2h-.3m0 0h-.7m0 1.4v-1.4m0 1.4h.7m0 0l.3.1.2.1.2.3v.5l-.2.3-.2.1-.3.1m0 0h-.7m0 1.4V440m0 1.4h.7m0 0h.3l.2.2.2.2v.6l-.2.2-.2.1-.3.1m0 0h-.7m0 1.4v-1.4m0 1.4h.7m0 0l.3.1.2.1.2.2v.6l-.2.2-.2.2h-.3m0 0h-.7m0 1.4v-1.4m0 1.4h.7m0 0l.3.1.2.2.2.2v.5l-.2.3-.2.1-.3.1m0 0h-.7m0 1.4v-1.4m0 1.4h.7m0 0h.3l.2.2.2.2v.6l-.2.2-.2.1-.3.1m0 0h-.7m0 1.4v-1.4m0 1.4h.7m0 0l.3.1.2.1.2.3v.5l-.2.2-.2.2h-.3m0 0h-.7m0 1.4v-1.4m0 1.4h.7m0 0l.3.1.2.2.2.2v.5l-.2.3-.2.1-.3.1m0 0h-.7m0 1.4V457m0 1.4h.7m0 0h.3l.2.2.2.2v.6l-.2.2-.2.1-.3.1m0 0h-.7m0 1.4v-1.4m0 1.4h.7m0 0l.3.1.2.1.2.3v.5l-.2.2-.2.2h-.3m0 0h-.7m0 1.5v-1.5m0 1.5h.7m0 0h.3l.2.2.2.2v.5l-.2.3-.2.1-.3.1m-.7 0h.7m-.7 0v1.4m.7 0h-.7m.7 0h.3l.2.2.2.2v.6l-.2.2-.2.2h-.3m-.7 0h.7m-.7 0v1.4m.7 0h-.7m.7 0l.3.1.2.1.2.3v.5l-.2.2-.2.2h-.3m-.7 0h.7m-.7 0v1.5m.7 0h-.7m.7 0h.3l.2.2.2.2v.5l-.2.3-.2.1-.3.1m-.7 0h.7m-.7 0v1.4m.7 0h-.7m.7 0h.3l.2.2.2.2v.6l-.2.2-.2.2h-.3m-.7 0h.7m-.7 0v1.4m.7 0h-.7m.7 0l.3.1.2.1.2.3v.5l-.2.2-.2.2h-.3m-.7 0h.7m-.7 0v1.5m.7 0h-.7m.7 0h.3l.2.2.2.2v.5l-.2.3-.2.1-.3.1m-.7 0h.7m-.7 0v1.4m.7 0h-.7m.7 0l.3.1.2.1.2.2v.6l-.2.2-.2.2h-.3m-.7 0h.7m-.7 0v1.4m.7 0h-.7m.7 0l.3.1.2.1.2.3v.5l-.2.2-.2.2h-.3m-.7 0h.7m-.7 0v1.5m.7 0h-.7m.7 0h.3l.2.2.2.2v.5l-.2.3-.2.1-.3.1m-.7 0h.7m-.7 0v1.4m.7 0h-.7m.7 0l.3.1.2.1.2.2v.6l-.2.2-.2.2h-.3m-.7 0h.7m-.7 0v1.4m.7 0h-.7m.7 0l.3.1.2.1.2.3v.5l-.2.2-.2.2-.3.1m-.7 0h.7m-.7 9.2v-9.2m1.4 10.6h-.3l-.2-.1-.3-.2-.2-.1-.2-.2-.1-.3-.1-.3v-.2m7.8 1.4h-6.4m13.8 0v-.6h-7.4v.6m16.3 0h-8.9m10.3 0v-.6h-1.4v.6m1.4 0h1.4m1.4 0v-.6h-1.4v.6m1.4 0h1.5m1.4 0v-.6h-1.4v.6m1.4 0h1.4m1.4 0v-.6h-1.4v.6m1.4 0h1.4m1.5 0v-.6h-1.5v.6m12.1 0h-10.6m12 0v-.6H813v.6m1.4 0h1.4m1.4 0v-.6h-1.4v.6m1.4 0h3.6m1.4-1.4v.2l-.1.3-.1.3-.2.2-.2.1-.3.2-.2.1h-.3m-43.4-63.1h-.4m20.8 6.4v-2.8m0 0v2.8m0-3.6v4.3m-3.4 31.2h3.4m0 3.5v-2.8m0 0v2.8m0-3.5v4.2m-20.4-42.5v48.2m17-5v2.2m0-2.9v-4.2m0-31.2V447m0 0v2.2m0 0v2.8m0 0v4.3m0 0v2.8m0 0v4.2m0 0v2.9m0 0v4.2m0 0v2.9m0 0v4.2m0 0v2.9m0 0v4.2m0 0v2.8m0-40.4h3.4m-15.1 0h11.7m0 4.3v31.2m3.4 0h-3.4m3.4 4.2v-4.2m-3.4 4.2h3.4m-3.4 0v2.9m0 0h-11.7m0-2.2v2.2m0-9.2v4.2m0-11.3v4.2m0-11.3v4.2m0-11.3v4.2m0-11.3v4.3m0-9.3v2.2m0-2.2h15.1m0 4.3V447m-3.4 4.3h3.4m2-7.1h-22.4m14 0h8.5m14.1-21.4v-69.5m-9.9-22.6v91.5m-26.7 70.2h22.5M193 128h-1.4m1.4 3.5V128m3.5 3.5H193m3.5 1.5v-1.5M193 133h3.5m-3.5 3.5V133m-1.4 0v3.5m-3.6-5v1.5m3.6-1.5H188m3.6-3.5v3.5M188 133h3.6m0 3.5h1.4"/><circle class="st3" cx="192.2" cy="132.2" r="6.2"/><path class="st3" d="M337.6 128h-1.4m1.4 3.5V128m3.5 3.5h-3.5m3.5 1.5v-1.5m-3.5 1.5h3.5m-3.5 3.5V133m-1.4 0v3.5m-3.6-5v1.5m3.6-1.5h-3.6m3.6-3.5v3.5m-3.6 1.5h3.6m0 3.5h1.4"/><circle class="st3" cx="336.8" cy="132.2" r="6.2"/><circle class="st3" cx="193.7" cy="109.5" r="5.2"/><circle class="st3" cx="335.4" cy="109.5" r="5.2"/><path class="st3" d="M191.6 323.4h1.4m0 0v-3.5m0 0h3.5m0 0v-1.5m0 0H193m0 0v-3.5m-1.4 0v3.5m-3.6 0v1.5m0 0h3.6m0 0v3.5m0-5H188m5-3.5h-1.4"/><circle class="st3" cx="192.2" cy="319.2" r="6.2"/><path class="st3" d="M336.2 323.4h1.4m0 0v-3.5m0 0h3.5m0 0v-1.5m0 0h-3.5m0 0v-3.5m-1.4 0v3.5m-3.6 0v1.5m0 0h3.6m0 0v3.5m0-5h-3.6m5-3.5h-1.4"/><circle class="st3" cx="336.8" cy="319.2" r="6.2"/><circle class="st3" cx="193.7" cy="341.9" r="5.2"/><circle class="st3" cx="335.4" cy="341.9" r="5.2"/><path class="st3" d="M790.9 452h3.5m0-2.8h-3.5m0 2.8h3.5m-11.7 0h3.9m-3.9 0h3.9m0-2.8h-3.9m-1.9 2.8v1.4m1.9-4.2h-1.9m0-1.4h-1.7m1.7 0v1.4m0 2.8h1.9m-1.9 1.4V452m-1.7 1.4h1.7m-1.7 0v-5.6m1.7 0h-1.7m1.7 1.4v-1.4m1.9 1.4h-1.9"/><circle class="st3" cx="788.7" cy="450.6" r="2.6"/><circle class="st3" cx="788.7" cy="450.6" r="1.7"/><path class="st3" d="M787.7 449.6h2v2h-2v-2zm3.2 37.8h3.5m0-2.8h-3.5m0 2.8h3.5m-11.7 0h3.9m-3.9 0h3.9m0-2.8h-3.9m-1.9 2.8v1.4m1.9-4.2h-1.9m0-1.4h-1.7m1.7 0v1.4m0 2.8h1.9m-1.9 1.4v-1.4m-1.7 1.4h1.7m-1.7 0v-5.6m1.7 0h-1.7m1.7 1.4v-1.4m1.9 1.4h-1.9"/><circle class="st3" cx="788.7" cy="486" r="2.6"/><circle class="st3" cx="788.7" cy="486" r="1.7"/><path class="st3" d="M787.7 485h2v2h-2v-2zm3.2-4.7h3.5m0-2.8h-3.5m0 2.8h3.5m-11.7 0h3.9m-3.9 0h3.9m0-2.8h-3.9m-1.9 2.8v1.4m1.9-4.2h-1.9m0-1.4h-1.7m1.7 0v1.4m0 2.8h1.9m-1.9 1.4v-1.4m-1.7 1.4h1.7m-1.7 0v-5.6m1.7 0h-1.7m1.7 1.4v-1.4m1.9 1.4h-1.9"/><circle class="st3" cx="788.7" cy="478.9" r="2.6"/><circle class="st3" cx="788.7" cy="478.9" r="1.7"/><path class="st3" d="M787.7 477.9h2v2h-2v-2zm3.2-4.7h3.5m0-2.8h-3.5m0 2.8h3.5m-11.7 0h3.9m-3.9 0h3.9m0-2.8h-3.9m-1.9 2.8v1.4m1.9-4.2h-1.9m0-1.4h-1.7m1.7 0v1.4m0 2.8h1.9m-1.9 1.4v-1.4m-1.7 1.4h1.7m-1.7 0V469m1.7 0h-1.7m1.7 1.4V469m1.9 1.4h-1.9"/><circle class="st3" cx="788.7" cy="471.8" r="2.6"/><circle class="st3" cx="788.7" cy="471.8" r="1.7"/><path class="st3" d="M787.7 470.8h2v2h-2v-2zm3.2-4.7h3.5m0-2.8h-3.5m0 2.8h3.5m-11.7 0h3.9m-3.9 0h3.9m0-2.8h-3.9m-1.9 2.8v1.4m1.9-4.2h-1.9m0-1.4h-1.7m1.7 0v1.4m0 2.8h1.9m-1.9 1.4v-1.4m-1.7 1.4h1.7m-1.7 0v-5.6m1.7 0h-1.7m1.7 1.4v-1.4m1.9 1.4h-1.9"/><circle class="st3" cx="788.7" cy="464.7" r="2.6"/><circle class="st3" cx="788.7" cy="464.7" r="1.7"/><path class="st3" d="M787.7 463.8h2v2h-2v-2zm3.2-4.7h3.5m0-2.8h-3.5m0 2.8h3.5m-11.7 0h3.9m-3.9 0h3.9m0-2.8h-3.9m-1.9 2.8v1.4m1.9-4.2h-1.9m0-1.4h-1.7m1.7 0v1.4m0 2.8h1.9m-1.9 1.4v-1.4m-1.7 1.4h1.7m-1.7 0v-5.6m1.7 0h-1.7m1.7 1.4v-1.4m1.9 1.4h-1.9"/><circle class="st3" cx="788.7" cy="457.7" r="2.6"/><circle class="st3" cx="788.7" cy="457.7" r="1.7"/><path class="st3" d="M787.7 456.7h2v2h-2v-2zm-10.3-12.5v48.6"/></g><g id="Dimensions"><path class="st5" d="M409 566.7h172.6"/><path d="M410.7 569.2l-9.2-2.5 9.2-2.4v4.9zm169.3 0l9.2-2.5-9.2-2.4v4.9z"/><path class="st4" d="M589.2 492.4v77.2m176.2-63.5v49.4m56.9-49.4v49.4m-420.8-48.8v62.9"/><path class="st5" d="M815.2 553.7h-41.7"/><path d="M813.5 551.2l9.2 2.5-9.2 2.5v-5zm-38.3 0l-9.2 2.5 9.2 2.5v-5z"/><path class="st5" d="M752.2 323.1V128.4"/><path d="M754.6 321.4l-2.4 9.3-2.5-9.3h4.9zm0-191.3l-2.4-9.2-2.5 9.2h4.9z"/><path class="st4" d="M781.2 120.9h-31.8m23.3 209.8h-23.3m2.8 0v-18m0 40.6v-22.6"/><path class="st5" d="M752.2 360.8v10.5"/><path d="M749.7 362.5l2.5-9.2 2.4 9.2h-4.9z"/><path class="st4" d="M812.4 353.3h-63"/><path class="st5" d="M617.5 499.7v-70"/><path d="M619.9 498l-2.4 9.3-2.5-9.3h4.9zm0-66.6l-2.4-9.2-2.5 9.2h4.9z"/><path class="st4" d="M583.8 422.2h36.6m-36.6 85.1h36.6M395.3 342v-18m0 29.3V342"/><path class="st5" d="M395.3 360.8v19.8"/><path d="M392.8 362.5l2.5-9.2 2.4 9.2h-4.9z"/><path class="st4" d="M349.6 353.3h48.5m-220-283.4h18m-20.8 0h2.8"/><path class="st5" d="M167.7 69.9H146"/><path d="M166.1 67.4l9.2 2.5-9.2 2.4v-4.9z"/><path class="st4" d="M178.1 143.6V67"/><path class="st5" d="M185.6 69.9h157.8"/><path d="M187.3 72.3l-9.2-2.4 9.2-2.5v4.9zm154.5 0l9.2-2.4-9.2-2.5v4.9z"/><path class="st4" d="M351 143.6V67"/><path class="st5" d="M146.6 300.4V151.1"/><path d="M149 298.7l-2.4 9.3-2.5-9.3h4.9zm0-145.9l-2.4-9.2-2.5 9.2h4.9z"/><path class="st4" d="M178.1 143.6h-34.3M178.1 308h-34.3"/><path class="st5" d="M146.6 345.7v-30.2"/><path d="M149 344l-2.4 9.3-2.5-9.3h4.9zm0-26.8l-2.4-9.2-2.5 9.2h4.9z"/><path class="st4" d="M125.1 396.1H19.3"/><path class="st5" d="M187.9 346.6l-62.8 49.5"/><path d="M185 345.7l8.8-3.7-5.7 7.6-3.1-3.9z"/><path class="st4" d="M193.7 402.1h18m-36.4 0h18.4"/><path class="st5" d="M167.7 402.1h-22.4"/><path d="M166.1 399.6l9.2 2.5-9.2 2.4v-4.9z"/><path class="st4" d="M175.3 329.2v75.7"/><path class="st5" d="M182.8 35.9h163.5"/><path d="M184.5 38.3l-9.2-2.4 9.2-2.5v4.9zm160.2 0l9.2-2.4-9.2-2.5v4.9z"/><path class="st4" d="M353.9 122.3V33m-178.6 89.3V33"/><path class="st5" d="M395.3 117.1v217.3"/><path d="M392.8 118.8l2.5-9.2 2.4 9.2h-4.9zm0 213.9l2.5 9.3 2.4-9.3h-4.9z"/><path class="st4" d="M335.4 342h62.7m-62.7-232.4h62.7"/><path class="st5" d="M95.6 105.7v240"/><path d="M93.1 107.4l2.5-9.2 2.4 9.2h-4.9zm0 236.6l2.5 9.3L98 344h-4.9z"/><path class="st4" d="M179.5 353.3H92.8m86.7-255.1H92.8"/><path class="st5" d="M822.8 75.8h23.3"/><path d="M824.5 78.2l-9.2-2.4 9.2-2.5v4.9z"/><path class="st4" d="M812.4 75.8h2.9"/><path class="st5" d="M804.8 75.8h-10.4"/><path d="M803.2 73.3l9.2 2.5-9.2 2.4v-4.9z"/><path class="st4" d="M812.4 98.2V73"/><path class="st5" d="M780.2 52.9h27.5"/><path d="M781.9 55.3l-9.2-2.4 9.2-2.5v4.9zm24.2 0l9.2-2.4-9.2-2.5v4.9z"/><path class="st4" d="M815.3 98.2V50m-42.6 70.9V50"/><path class="st5" d="M201.2 402.1h126.6"/><path d="M202.9 404.5l-9.2-2.4 9.2-2.5v4.9zm123.3 0l9.2-2.4-9.2-2.5v4.9z"/><path class="st4" d="M193.7 341.8v63.1m141.7-62.5v62.5"/></g><path id="Middle_Lines" d="M187.4 342h12.9m-6.6 0v-7m134.4 7h14.6m-7.3 0v-7.3m7.3-225.1h-14.9m7.6 7.1v-14.5m-141.7.2v13.8m7.4-6.6h-14.7" fill="none" stroke="#000" stroke-width=".283" stroke-linecap="round" stroke-linejoin="round" stroke-miterlimit="10" stroke-dasharray="2.8346,1.4173,.5669,1.4173"/><g id="Text_1_"><text transform="translate(254.212 29.963)" class="st7 st8">63</text><text transform="translate(208.422 63.979)" class="st7 st8">61 (Emitting area)</text><text transform="translate(153.223 63.979)" class="st7 st8">1</text><text transform="translate(259.676 396.112)" class="st7 st8">50</text><text transform="translate(638.694 445.6)" class="st7 st8">For pin connection</text><text transform="translate(638.694 462.4)" class="st7 st8">(refer to</text><text transform="translate(638.694 479.2)" class="st7 st8">camera</text><text transform="translate(638.694 496)" class="st7 st8">specifications)</text><text transform="rotate(-90 163.058 73.974)" class="st7 st8">90</text><text transform="rotate(-90 213.165 72.491)" class="st7 st8">58 (Emitting area)</text><text transform="rotate(-90 239.03 98.357)" class="st7 st8">16</text><text transform="rotate(-90 308.617 -80.09)" class="st7 st8">82</text><text transform="rotate(-90 487.112 -258.584)" class="st7 st8">74</text><text transform="rotate(-90 546.117 -199.58)" class="st7 st8">8</text><text transform="rotate(-90 381.796 -6.91)" class="st7 st8">4</text><text transform="translate(146.462 396.112)" class="st7 st8">6.5</text><text transform="translate(39.916 390.442)" class="st7 st8">4 x Ø 3.6</text><text transform="translate(20.116 414.442)" class="st7 st8">(for installation)</text><text transform="translate(786.154 46.971)" class="st7 st8">15</text><text transform="translate(827.905 69.648)" class="st7 st8">1</text><text transform="translate(478.704 560.015)" class="st7 st8">66.2</text><text transform="translate(469 523.448)" class="st7 st8">Controller</text><text transform="translate(784.707 545.842)" class="st7 st8">20</text><text transform="rotate(-90 540.644 -70.074)" class="st7 st8">30</text><text transform="translate(237.374 508.63)" class="st7 st8">Cable length 500</text><text transform="translate(824.5 599.964)" class="st7" font-size="13.104">Not to scale</text><text transform="translate(824.5 613.26)" class="st7" font-size="11.991">Dimensions in mm</text></g></svg>