<svg xmlns="http://www.w3.org/2000/svg" viewBox="0 0 191.3 206.3"><style>.st1{fill:#fff}.st4{stroke:#1d1d1b;stroke-width:.7087;stroke-miterlimit:3.8637}.st4,.st6{fill:none}.st6,.st7{stroke:#1d1d1b}.st6,.st7{stroke-linecap:round;stroke-linejoin:round;stroke-width:.5669;stroke-miterlimit:10}.st7{fill:#fff}</style><g id="ace-Iso"><path d="M1.6 58.9c0-19.3 13.5-42.7 30.2-52.3 8.6-4.9 15.3-5.3 21.8-1.9l26.5 11.8-41.4 74.8S13.6 81.6 8.1 76.7C4 73 1.6 67 1.6 58.9z" fill-rule="evenodd" clip-rule="evenodd" fill="#fff" stroke="#1d1d1b" stroke-width=".709" stroke-miterlimit="3.864"/><path class="st1" d="M28.4 107.8l62.3 35.7 60.5-34.2V35.6L88.1 3.3 28.4 33.9z"/><path fill="#fff" stroke="#1d1d1b" stroke-width=".709" stroke-miterlimit="3.864" d="M39.1 39.9l59.6-31L146.8 33 86.7 67.3l-2.2 59.8L39.1 104l-.1-.2v-64"/><path fill="#1d1d1b" d="M39.1 104l45.4 23.1"/><path class="st4" d="M39.1 104l45.4 23.1m2.2-59.8l-2.2 59.8M38.8 45.8l3.7 2.2c3.7 2.2 6.8 7.4 6.8 11.8s-3 6.1-6.8 3.9l-3.7-2.2"/><path class="st4" d="M45.3 57.4c0-1.7-1.2-3.8-2.7-4.7-1.5-.9-2.7-.2-2.7 1.6 0 1.7 1.2 3.8 2.7 4.7 1.5.8 2.7.1 2.7-1.6z"/><path class="st4" d="M44.5 56.5l-1.4-.8v-1.5l-1-.5v1.4l-1.3-.8v1l1.3.8v1.6l.9.5v-1.5l1.5.9zm40.8 65.9l-3.2-1.8c-3.7-2.2-6.8-7.4-6.8-11.8 0-4.3 3-6.1 6.8-3.9l3.7 2.2"/><path class="st4" d="M84.4 114.1c0-1.7-1.2-3.8-2.7-4.7-1.5-.9-2.7-.2-2.7 1.6 0 1.7 1.2 3.8 2.7 4.7 1.5.8 2.7.1 2.7-1.6z"/><path class="st4" d="M79.8 111.8l1.4.8v1.5l.9.6v-1.5l1.4.8v-1l-1.4-.8v-1.6l-.8-.5v1.5l-1.5-.9zM39 39.8v64m51.7 39.7l-62.3-35.7m0-73.9v73.9"/><path fill-rule="evenodd" clip-rule="evenodd" fill="#f5f5f5" stroke="#1d1d1b" stroke-width=".709" stroke-miterlimit="3.864" d="M86.7 67.3L146.8 33"/><path class="st4" d="M39 39.8l-10.6-5.9m0 0L88.1 3.3m-49 36.6l59.6-31m-12 58.4l3.5 2.1M39 39.8l47.7 27.5m4 76.2l60.5-34.2m0-73.7v73.7m-60.5 34.2V69.6m0 0l60.5-34m0 0l-4.4-2.6M98.7 8.9L88.1 3.3"/><path class="st6" d="M137.9 101.5l-27.4 15.8v-5.5L137.9 96zm7.2-9.7c-.5-.3-1.1-.2-1.8.2-1.5.9-2.7 3.2-2.7 5.2 0 .9.3 1.6.7 2"/><path class="st6" d="M141.3 99.2c.5.5 1.2.5 2 0 1.5-.9 2.7-3.2 2.7-5.2 0-1.1-.4-1.9-1-2.2m-42 29.7c.5.4 1.2.4 1.9 0 1.5-.9 2.7-3.2 2.7-5.2 0-1-.3-1.7-.8-2.1"/><path class="st6" d="M106.9 114.1c-.5-.4-1.2-.4-1.9.1-1.5.9-2.7 3.2-2.7 5.2 0 1 .3 1.7.8 2.1"/><path class="st7" d="M154.9 49.6c0 8.5-8 28.8-14.3 32.4-3.5-1.7-9.3-4.6-11.1-5.6-2.8-1.2-4.7-4.6-4.7-9.7 0-8.5 5.2-18.4 11.5-22.1 2.7-1.6 5.2-1.8 7.2-.8 2.6 1.4 7.7 3.9 11.4 5.8z"/><path class="st6" d="M100 132.5c-.5-.3-1.2-.8-1.6-1.1-.4-.3-.7-.9-.7-1.7v-19.3c0-1.6 1-3.6 2.2-4.3l44.5-25.7c.6-.4 1.2-.3 1.6 0 .4.3 1 .6 1.5 1.1"/><path class="st6" d="M146.8 81.2c.9-.1 1.5.7 1.5 2v19.3c0 1.6-1 3.6-2.2 4.3l-44.5 25.7c-.6.3-1.1.3-1.5.1m-.1 0c-.5-.3-.7-.9-.7-1.8v-19.3c0-1.6 1-3.6 2.2-4.3L146 81.5c.3-.2.5-.2.8-.3"/><path class="st7" d="M158.3 58.7c0 8.5-5.2 18.4-11.6 22.1-6.4 3.7-11.6-.2-11.6-8.7s5.2-18.4 11.6-22.1c6.5-3.7 11.6.2 11.6 8.7z"/><path class="st6" d="M153.4 61.6c0 4.8-2.9 10.5-6.6 12.6-3.6 2.1-6.6-.1-6.6-5 0-4.8 2.9-10.5 6.6-12.6 3.6-2.1 6.6.2 6.6 5z"/><path class="st6" d="M155 60.6c0 6.1-3.7 13.1-8.2 15.7-4.5 2.6-8.2-.2-8.2-6.2 0-6.1 3.7-13.1 8.2-15.7 4.5-2.6 8.2.2 8.2 6.2z"/><path class="st6" d="M149 60.4c0 .4-.2.8-.5 1-.3.2-.5 0-.5-.4s.2-.8.5-1c.3-.2.5 0 .5.4zm1.8 2.8c0 .4-.2.8-.5 1-.3.2-.5 0-.5-.4s.2-.8.5-1c.3-.1.5.1.5.4zm-1.8 5c0 .4-.2.8-.5 1-.3.2-.5 0-.5-.4s.2-.8.5-1c.3-.2.5 0 .5.4zm-3.3 1.9c0 .4-.2.8-.5 1-.3.2-.5 0-.5-.4s.2-.8.5-1c.3-.2.5 0 .5.4zm-1.8-2.9c0 .4-.2.8-.5 1-.3.2-.5 0-.5-.4s.2-.8.5-1c.3-.2.5 0 .5.4zm1.7-4.8c0 .4-.2.8-.5 1-.3.2-.5 0-.5-.4s.2-.8.5-1c.3-.1.5 0 .5.4z"/></g><g id="Kabel-_x2F_Steckerbestandteile"><path d="M144.9 148c-2.3-1.1-4-2.1-4.7-2.5-.4-.2-.7-.6-.9-1.1l-36.6-21.8-.1-.1c-.7-.5-1.1-1.4-1.1-2.8 0-2.6 1.6-5.6 3.5-6.7.1-.1.2-.1.4-.2l.4-.2c1.9-1.1 3.5-4.1 3.5-6.7v-1l30.1-17 37.7 22.5h0v.2h0l5.4 3.2h0c.5-.1.9 0 1.3.2.8.4 3.5 1.7 4.9 2.6h0c.7.5 1.2 1.5 1.2 3 0 .8 0 1-.2 1.6l-2.4-.2-.3 1 2.1 1.2c-.7 1.6-1.8 2.9-3 3.6-.9.5-1.8.6-2.4.2-2.3-1.1-3.3-1.7-4-2.1-.7.6-1.2 1.3-1.7 2.2 1.8 2.9 2.8 6.3 2.8 9.6 0 0 .7 15.4-.1 18.3-.1.5-.2 1-.4 1.5h0c.3.7.5 1.5.5 2.2 0 .7-.2 1.3-.4 2h0c.3.7.5 1.2.4 1.9.1.4 0 2.3 0 4.4 0 .7-.1 1.4-.4 2.2.3.7.4 1.4.4 2.2v.1c.1 1.4 0 2.1 0 4.3 0 2.5-1.9 5.1-5.4 7.1-.7.4-1.5.8-2.4 1.2h0c.5 4.1 0 14.7-.1 15.7-.1 1.2-1 2.5-2.7 3.5-3.3 1.9-8.2 2.1-11 .5-1.2-.7-1.9-1.7-1.9-2.7 0-1.3.1-13.5.1-15.8h0c-1.5-.4-2.9-.9-4.1-1.6-2.5-1.4-3.7-3.3-3.8-5.3-.1-2.6-.1-2.6 0-4.4 0-.7.2-1.5.5-2.2-.3-.6-.4-1.3-.5-1.9-.1-2.6-.2-3.6 0-4.4h0c-.1-.8.1-1.3.5-2.2h0c-.3-.7-.5-1.4-.5-2.1-.1-1.2.4-2.2.4-2.2-.4-.9-.5-1.9-.3-3 0 0-.2-6.4-.2-10 0 0-.6 1-1.9 1.7-1.6 1.1-2.6.3-2.6.3" fill="#fff" stroke="#1d1d1b" stroke-miterlimit="3.864"/><path class="st4" d="M146.9 127.5L109.2 105m30.8 28.5l-31.7-18.9m68.7-4.1l-30.1 17v1c0 2.6-1.4 5.4-3 6.4"/><path class="st4" d="M179.8 115.5c-1.6.5-2.9-.6-2.9-2.9v-2.1m2.7 14.5c-.7.6-1.2 1.4-1.7 2.3"/><path class="st6" d="M149.9 159.1c-.3.7-.5 1.5-.5 2.2 0 2.1 1.3 4 3.8 5.5 5.7 3.3 15.5 2.9 22.1-.9 3.5-2 5.3-4.6 5.4-7.1 0-.8-.1-1.5-.5-2.2"/><path class="st6" d="M149.4 157.1c0 2.1 1.3 4 3.8 5.5 5.7 3.3 15.5 2.9 22.1-.9 3.5-2 5.3-4.6 5.4-7.1"/><path class="st6" d="M180.2 160.9c1.4 3.1-.3 6.7-4.9 9.3-6.5 3.8-16.4 4.2-22.1.9-3.4-2-4.5-4.9-3.4-7.7"/><path class="st6" d="M149.4 165.7c-.1.8-.1 1.8 0 4.4.1 2 1.3 3.9 3.8 5.3 5.7 3.3 15.5 2.9 22.1-.9 3.6-2.1 5.4-4.8 5.4-7.3v-4.4"/><path class="st6" d="M149.3 174.2c-.1 1.8 0 1.8.1 4.4.1 2 1.3 3.9 3.8 5.3 5.7 3.3 15.5 2.9 22.1-.9 3.5-2 5.4-4.6 5.4-7.1 0-2.1.1-2.8 0-4.3"/><path class="st6" d="M157.3 185.5c0 2.3-.1 14.5-.1 15.8 0 1 .7 2 1.9 2.7 2.8 1.6 7.8 1.4 11-.5 1.7-1 2.6-2.3 2.7-3.5 0-1.1.6-11.6.1-15.7m-23-12.3c-1.1 2.8 0 5.7 3.4 7.6 5.7 3.3 15.5 2.9 22.1-.9 4.6-2.7 6.3-6.3 4.9-9.4"/><path class="st4" d="M177.9 127.1c-2-2.6-8.4-8.5-15.7-4.9-4 2-11.9 7.5-13.3 14.7"/><path class="st1" d="M160.2 125s-2.3 1.1-3.8 3c2 .4 10.3 4.9 13.1 11.3.7-6.1-6.5-13-9.3-14.3z"/><path d="M178.1 164v4.2m-2.5-2.4v4.2m2.5 2.4v4.3m-2.5-2.4v4.2" fill="none" stroke="#1d1d1b" stroke-width=".567" stroke-miterlimit="10"/><path class="st1" d="M145 148.1c.7.4 1.5.3 2.5-.2 1.2-.7 2.3-2.1 3-3.6l-2-1.2.3-1 2.4.2c.1-.5.2-1.1.2-1.6 0-1.5-.5-2.5-1.3-3-1.4-1-4-2.1-4.8-2.6-.7-.4-1.5-.3-2.4.2-2.1 1.2-3.8 4.4-3.8 7.2 0 1.5.5 2.6 1.3 3 .7.4 2.4 1.3 4.7 2.5l-.1.1z"/><path class="st6" d="M141.8 142.5l6.6.5m-4-1.4l6.7.6m-7.3 1.6l6.6.4m-6-2.6l-2-1.2m-.6 2.1l.6-2.1m6 2.6l.3-1m2.4.2c.1-.5.2-1.1.2-1.6 0-2.8-1.7-4.1-3.8-2.9-1.3.7-2.4 2.2-3.1 3.9m-.6 2.2l-2-1.3m8.6 1.7l-2-1.2m-4.6.7c-.1.4-.1.9-.1 1.3 0 2.8 1.7 4.1 3.8 2.9 1.2-.7 2.3-2.1 3-3.6"/><path class="st6" d="M150.2 137.8c-1.4-1-4.3-2.3-5.1-2.8-.7-.4-1.5-.3-2.4.2-2.1 1.2-3.8 4.4-3.8 7.2 0 1.5.5 2.6 1.3 3 .7.4 2.4 1.3 4.7 2.5"/><path class="st1" d="M183.4 127.4c.7.4 1.5.3 2.5-.2 1.2-.7 2.3-2.1 3-3.6l-2-1.2.3-1 2.4.2c.1-.5.2-1.1.2-1.6 0-1.5-.5-2.5-1.3-3-1.4-1-4-2.1-4.8-2.6-.7-.4-1.5-.3-2.4.2-2.1 1.2-3.8 4.4-3.8 7.2 0 1.5.5 2.6 1.3 3 .7.4 2.4 1.3 4.7 2.5l-.1.1z"/><path class="st6" d="M180.2 121.9l6.5.5m-3.9-1.4l6.6.6m-7.2 1.5l6.6.5m-6.1-2.6l-2-1.2m-.6 2.1l.6-2.1m6 2.6l.3-1.1m2.4.3c.1-.5.2-1.1.2-1.6 0-2.8-1.7-4.1-3.8-2.9-1.3.7-2.4 2.2-3.1 3.9m-.6 2.1l-2-1.2m8.6 1.7l-2-1.2m-4.6.7c-.1.4-.1.9-.1 1.3 0 2.8 1.7 4.1 3.8 2.9 1.2-.7 2.3-2.1 3-3.6"/><path class="st6" d="M188.6 117.2c-1.4-1-4.3-2.3-5.1-2.8-.7-.4-1.5-.3-2.4.2-2.1 1.2-3.8 4.4-3.8 7.2 0 1.5.5 2.6 1.3 3 .7.4 2.4 1.3 4.7 2.5"/></g></svg>