<svg style="background-color:#fff" version="1.1" id="Ebene_1" xmlns="http://www.w3.org/2000/svg" xmlns:xlink="http://www.w3.org/1999/xlink" x="0" y="0" viewBox="0 0 359 168.4" xml:space="preserve"><style>.st1,.st4{fill:none;stroke:#777;stroke-width:1.999;stroke-linecap:round;stroke-linejoin:round;stroke-miterlimit:10}.st4{stroke:#000}.st5{font-family:Helvetica,Arial,sans-serif}.st6{font-size:8.9993px}.st8{fill:none;stroke:#000;stroke-width:.5;stroke-linecap:round;stroke-linejoin:round;stroke-miterlimit:10}</style><path d="M34.2 5.5V135M27 5.5h7.7M27 37.2h7.7M27 69h7.7M27 100.7h7.7m-7.7 32h7.7m-1 2.3h322.5m-29 7.5v-8m-58 8v-8m-58.3 8v-8m-57.9 8v-8m-58.3 8v-8m-58 8v-8" fill="none" stroke="#000" stroke-width=".999" stroke-linecap="round" stroke-linejoin="round" stroke-miterlimit="10"/><path class="st1" d="M36.7 76.2h22l11 .3h11l22 .5 11.3.5 11 .2 10.7.5 11.3.3 11 .5 10.9.5 11.1.7 11 .8 10.9.7 11.1.8 11 .7 10.9 1 11.3.8 11 .7 10.7 1 11.3.8 11 .7 11 .8 11 1 11 .7 11 .8 11 .7 11 .8M36.7 76.2h7m7 .3h7"/><path class="st1" d="M64.7 76.7h5l2 .3m7 .2h2l5 .3m7 .2l7 .5m7 .5l7 .5m7 .5l4.3.3 2.5.2m6.9.8h1.3l5.8.7m7 .8l6.9.7m7.1.8l6.4.7.3.3m7 .7l3.8.5 3.2.5m7 1h.8l6 1m7 1l6.9 1.3m6.8 1l6.3 1h.7m7 1l3.2.5 3.8.5m6.7 1l.8.2 6.3.8m7 1.2l6.7 1m7 .8l6 1h1m6.8 1l3.2.5 3.8.5m6.9 1h.3l6.8 1m6.7 1l7 1m7 1l5.5.7 1.2.3m7.1 1l2.7.5 4.3.5"/><path d="M36.7 93.7h33l11 .3 22 .5 11.3.2 21.7.5 11.3.5 11 .3 10.9.5 11.1.5 21.9 1 11.1.7 21.9 1 11.3.8 11 .5 10.7.5 11.3.7 11 .5 11 .5 22 1 11 .5 22 1" fill="none" stroke="#bbb" stroke-width="1.999" stroke-linecap="round" stroke-linejoin="round" stroke-miterlimit="10"/><path d="M36.7 93.7h7m7 0h7m7 .3h5l2 .2m7 .3h2l5 .2m7 .3l7 .5m7 .2l7 .5m7 .5l4.3.3 2.7.2m7 .5h1l5.8.8m7 .5l6.9.7m7.1.8l6.4.7h.6m6.9.8l3.6.5 3.2.5m7 .7h.8l6.2.8m7 1l7 .7m6.8 1l6 .8h1m6.9 1l3 .2 4.1.5m7 .8h.2l6.5.7m7 1l7 .8m7 .5l5.5.7h1.5m7 .8l2.5.2 4.3.5m7 .5l6.9.8m7.1.7l7 .8m6.9.5l4.8.5h2.3m7 .7l1.7.3 5 .2" fill="none" stroke="#bbb" stroke-width="2.498" stroke-linecap="round" stroke-linejoin="round" stroke-miterlimit="10"/><path class="st4" d="M36.7 49.2h11l11 .3h11l33 .7 11.3.3 11 .2 10.7.5 11.3.3 11 .5 10.9.5 11.1.7 11 .8 10.9.7 11.1.8 11 1 10.9 1 11.3 1 11 1.2 10.7 1 11.3 1.3 11 1.2 11 1.3 11 1.2 11 1 11 1.3 11 1.5 11 1M36.7 49.2h7m7 .3h7"/><path class="st4" d="M64.7 49.5l5 .2h2m7 .3h2l5 .2m7 .3l7 .5m7 .5l7 .2m7 .8l4.3.2 2.7.3m6.7.5l1.3.2 5.8.5m7 .8l6.9.7m7.1.8l6.4.7h.6m6.7 1l3.8.5 3.2.5m7 1l.8.3 6 .7m7 1.3l6.9 1m6.8 1l6.3 1 .7.2m7 1l3.2.5 3.6.5m6.9 1.3h.8l6.3 1m6.7 1.2l7 1m7 1.3l6 1h.7m7.1 1.2l3.2.5 3.5.8m7 1.2h.5l6.5 1.3m6.7 1l7.1 1.5m6.7 1.2l6 1 1 .3m6.8 1.2l3.2.5 3.7.8m6.8 1.2h.5"/><text transform="rotate(-90 46.846 39.123)" class="st5 st6">SFR</text><text transform="rotate(-90 36.596 28.873)" class="st5 st6">[%]</text><text transform="translate(13.482 103.97)" class="st5 st6">20</text><text transform="translate(13.482 71.986)" class="st5 st6">40</text><text transform="translate(13.482 40.003)" class="st5 st6">60</text><text transform="translate(13.482 7.723)" class="st5 st6">80</text><text transform="translate(19 136.241)" class="st5 st6">0</text><text transform="translate(152.981 165.462)" class="st5 st6">Image Height [mm]</text><text transform="translate(34.001 152.746)" class="st5 st6">0</text><defs><path id="SVGID_1_" d="M284.4 4.9H359v29h-74.6z"/></defs><clipPath id="SVGID_2_"><use xlink:href="#SVGID_1_" overflow="visible"/></clipPath><path d="M285 5.5h73.5v27.7H285V5.5z" clip-path="url(#SVGID_2_)" fill="none" stroke="#000" stroke-width=".999" stroke-linecap="round" stroke-linejoin="round" stroke-miterlimit="10"/><path class="st4" d="M288.7 14h18"/><text transform="translate(310.723 17.51)" class="st5 st6">Sagittal</text><path class="st4" d="M288.7 25.5h7m7 0h4"/><text transform="translate(310.723 28.73)" class="st5 st6">Tangential</text><path class="st8" d="M67.2 31.7L44 44.7"/><path d="M44 43.2L40.2 47l5.3-1.5-1.5-2.3"/><path class="st8" d="M80.7 66l-38 7.7"/><path d="M43.5 72.2l-5 2.5 5.5.3-.5-2.8"/><path class="st8" d="M74 112.2L42.2 96"/><path d="M43.7 95.2L38.5 94l4 3.7 1.2-2.5"/><text transform="translate(71.203 35.99)" class="st5 st6">60 LP/mm</text><text transform="translate(75.702 117.713)" class="st5 st6">120 LP/mm</text><text transform="translate(82.48 67.253)" class="st5 st6">90 LP/mm</text><text transform="translate(91.826 152.746)" class="st5 st6">1</text><text transform="translate(150.485 152.746)" class="st5 st6">2</text><text transform="translate(208.711 152.746)" class="st5 st6">3</text><text transform="translate(266.036 152.746)" class="st5 st6">4</text><text transform="translate(324.851 152.746)" class="st5 st6">5</text></svg>