<svg xmlns="http://www.w3.org/2000/svg" viewBox="0 0 521.6 171.6" style="background-color:#fff"><style>.st2{stroke-width:.7983}.st2,.st3,.st4{fill-rule:evenodd;clip-rule:evenodd;fill:none;stroke:#1a171b;stroke-miterlimit:3.8637}.st3{stroke-width:.7087}.st4{stroke-width:.7982}.st6,.st7{stroke-width:.7087}.st6{fill:none;stroke:#1a171b;stroke-miterlimit:3.8637}.st7,.st8{stroke:#020405;stroke-linecap:round;stroke-linejoin:round;stroke-miterlimit:10;fill-rule:evenodd;clip-rule:evenodd;fill:none}.st8{stroke-width:.7223}.st11{fill:#a7a9ac}.st13,.st14,.st15{fill:none;stroke:#1a171b;stroke-width:.3402;stroke-miterlimit:3.8637}.st14,.st15{fill-rule:evenodd;clip-rule:evenodd;stroke-width:.25;stroke-dasharray:12,2,2,2}.st15{stroke-dasharray:12,2,2,2,2,2}.st20{font-family:Helvetica,Arial,sans-serif}.st22{font-size:8px}</style><g id="Yellow_x2C__blue"><path d="M111.8 70.6h34.5v10h-34.5zm-75.4.1h6.1v10h-6.1zM20.8 80.8h14.3v-10H20.9c-2.4 2.2-.6 5-.6 5s2.2 3.4.5 5z" fill="#0090d4"/><path d="M111.8 88.2h34.5v10h-34.5zm-75.4.1h6.1v10h-6.1zM20.8 98.4h14.3v-10H20.9c-2.4 2.2-.6 5-.6 5s2.2 3.4.5 5z" fill="#ffed00"/></g><g id="Kabel"><path class="st2" d="M146.3 98.2H36.4m395.9 1H307.1m-160.8-11h-110m396.3 1H307.1"/><path class="st3" d="M477.7 102.3l-1.2 1h-22.3l-1.1-.8V84.3l1.1-.7h22.3l1.2 1zm-1.1 1V83.6m-22.4 0v19.7m52.7.1h-22.3l-1.1-.7V84.5l1.1-.7h22.2m.1 19.6V83.8m-22.3 0v19.6M432.5 99v-9.7"/><path class="st2" d="M34.9 98.3H20.8m14.1-10.1h-14"/><path class="st4" d="M20.1 92.9c.7 1.9 2.1 3.7.7 5.4-1.6-.6-1.2-3-.7-5.4m.8-4.7c-1.6 1.7-1.4 3.2-.8 4.7"/><path class="st3" d="M21.4 95.4l-10.2.9m9.3-2.9l-8.7.5m8.1-1.9l-8.4-.3m8.4-1L11 88.9"/><path d="M146.1 80.7H36.4m109.9-10h-110" stroke-width=".788" fill-rule="evenodd" clip-rule="evenodd" fill="none" stroke="#1a171b" stroke-miterlimit="3.864"/><path class="st2" d="M34.9 80.7H20.8m14.1-10.1h-14"/><path class="st4" d="M20.1 75.3c.7 1.9 2.1 3.7.7 5.4-1.6-.6-1.2-3-.7-5.4m.8-4.7c-1.6 1.7-1.4 3.2-.8 4.7"/><path class="st3" d="M21.4 77.8l-10.2.9m9.3-2.9l-8.7.5m8.1-1.9l-8.4-.3m8.4-1L11 71.3"/><path class="st6" d="M418 90.2v8m-69.2-8v8"/><path class="st7" d="M483.5 87h-5.8m0 13.2h5.8"/><path class="st8" d="M453.1 101l-20.6-1.8"/><path class="st7" d="M496.5 83.8v19.6m-9.8-19.6v19.6"/><path class="st8" d="M432.5 89.1l20.6-1.8"/><path d="M496.4 103.4l-9.8-6.5m7.2 6.5l-7.2-4.9m4.8 4.9l-4.8-3.2m2.4 3.2l-2.4-1.6m9.8 0l-9.8-6.5m9.8 4.9l-9.8-6.6m9.8 4.9l-9.8-6.5m9.8 4.9l-9.8-6.6m9.8 5l-9.8-6.6m9.8 4.9l-9.8-6.5m9.8 4.9l-9.8-6.6m9.8 4.9l-9.8-6.5m9.8 4.9l-7.3-4.9m7.3 3.3l-4.9-3.3m4.9 1.6l-2.5-1.6m-7.3 19.6l9.8-6.5m-7.2 6.5l7.2-4.9m-4.8 4.9l4.8-3.2m-2.3 3.2l2.3-1.6m-9.8 0l9.8-6.5m-9.8 4.9l9.8-6.6m-9.8 4.9l9.8-6.5m-9.8 4.9l9.8-6.6m-9.8 5l9.8-6.6m-9.8 4.9l9.8-6.5m-9.8 4.9l9.8-6.6m-9.8 4.9l9.8-6.5m-9.8 4.9l7.4-4.9m-7.4 3.3l4.9-3.3m-4.9 1.6l2.5-1.6" stroke="#1a171b" stroke-width=".25" stroke-miterlimit="3.864" fill-rule="evenodd" clip-rule="evenodd" fill="none"/><path fill-rule="evenodd" clip-rule="evenodd" fill="none" stroke="#1a171b" stroke-width=".714" stroke-miterlimit="3.864" d="M348.8 89.3H418v50.5h-69.2z"/><path class="st3" d="M111.8 80.8V33.4H42.6v47.4m0 7.3v47.3h69.2V88.2"/><path class="st6" d="M146.4 99.2V69m20.1-10v50.2M242.8 59v50.2M287 78.8v30.4M146.4 69l20.1-10m76.3 0h-76.3m76.3 0L287 78.8M146.4 99.2l20.1 10m120.5 0l20.1-8.7V87.9L287 78.8"/><path class="st11" d="M199 90.9v-5c0-.4-.5-.5-.5-.5h-1.1v7.5h5.9s.5.1.5-.5v-1h-4.2c-.7 0-.6-.5-.6-.5zm-18.9-2l.1-.1c.2-.3.4-.8.4-1.2 0-.6-.3-1.2-.7-1.6-.6-.5-1.3-.5-1.9-.5h-4.4c-.7 0-.8.5-.8.5v7h5.6c.8 0 1.4-.2 1.8-.5.5-.4.8-1 .8-1.8s-.3-1.4-.9-1.8zm-5.7-1.6c0-.3.3-.4.6-.4h3.1c.4 0 .6.1.7.1.1.1.3.3.3.6 0 .1 0 .3-.2.5s-.6.2-.9.2h-3.5c-.1 0-.1-.8-.1-1zm4.8 3.9c-.2.2-.5.2-.8.2h-4v-1.7h3.5c.9 0 1.2.2 1.3.3 0 0 .2.2.2.6 0 .4-.1.6-.2.6zm26.7-1.5h4.8c.4 0 .4-.4.4-.4v-1.1h-5.2v-1c0-.3.3-.4.6-.4h4.6s.4 0 .4-.4v-1.1H205c-.8 0-.7.5-.7.5v7h7.1s.4 0 .4-.4v-1.1h-5.9v-1.6zM190 91.5h3.2c.6 0 2 0 2.1-.7v-.1c0-.3-.2-.8-2.2-.9-1.1 0-1.9-.1-2.6-.3-.8-.3-1.2-.9-1.3-1.7v-.1c0-1.4 1.1-2.2 3.2-2.2h4.1v.9c0 .5-.6.5-.6.5h-3.5c-.6 0-1.6.1-1.6.7v.1c.1.2.3.5 2 .6h.1c1.1 0 2 .2 2.7.5.8.4 1.2 1 1.2 1.9v.2c-.1.8-.5 2-3.4 2h-3.5l-.5-1c.2 0 0-.4.6-.4zm33.5-8.6c-.7-.7-1.6-.8-1.6-.8-1.8.8-3.6 1.8-3.6 1.8s2.7-1.2 5.5-.6c0 .1-.1-.2-.3-.4z"/><path class="st11" d="M226.9 82.1c-.8-1.2-2.9-.8-4.3-.4.4.1 2.6.3 1.8 3.6-.5 2-1.9 4.3-1.8 4.4 0 .2 5.6-5.5 4.3-7.6zm-8.6 7.8c.3-.1.7-.2 1-.4.2-.1.3-.3.5-.5.2-.3.3-.7.3-1.2 0-.8-.4-1.6-1.1-1.9-.6-.3-1.2-.3-1.7-.3H213c-.6 0-.6.4-.6.4v7h1.2s.4 0 .4-.5V90h2.4l2 2.3c.1.2.2.3.2.3s.3.3.8.3h1.6l-2.7-3zm-4.3-1.4v-1.2s-.1-.4.5-.4h3c.3 0 .6 0 .8.2.1.1.3.3.3.6 0 .2-.1.4-.2.6-.2.3-.7.3-1.3.3H214zm-28.4-3.1h-.6c-.7 0-.7.1-.9.5-.4.9-1.3 2.5-2.1 4 .4-.3 1-.6 2-.7l1-1.8 1.1 2.3h-2.2c-1.3.1-2 .8-2.2 1.1l-.9 1.8s-.2.3.2.3h1.4l.6-1.2s.3-.5.9-.5h3s.5 1 .7 1.3c.1.2.2.4.6.4h1.3l-3.9-7.5z"/><path d="M226.1 95.2h-52.2c-2.2 0-4-1.8-4-4v-8c0-2.2 1.8-4 4-4h52.2c2.2 0 4 1.8 4 4v8c0 2.2-1.8 4-4 4z" fill="none" stroke="#bebebe" stroke-width=".283" stroke-miterlimit="3.864"/><path class="st6" d="M166.5 109.2H287"/></g><g id="Bemassung"><path class="st13" d="M507.5 83.8V16.4M128.8 72.5V61.8m0 46.8V96.2m-98.3 38.9V30.9"/><path class="st14" d="M36.3 70.4V81"/><path class="st15" d="M34.9 70.4V81"/><path class="st14" d="M36.4 87.9v10.6"/><path class="st15" d="M35 87.9v10.8"/><path class="st14" d="M302.5 94.1l206.6-.2"/><path class="st13" d="M505.1 18.2h-482m482 35.3h-68.2M20.5 71.6V16.4m412.2 72.3V51.3M234 61.8v63m270-89.6H149m158.5 52.7v-54M146.4 70.5V33.4m173 104.2V77.2m178.9 35.6v-12.7"/><path fill-rule="evenodd" clip-rule="evenodd" fill="none" stroke="#fff" stroke-width=".13" stroke-miterlimit="3.864" stroke-dasharray="6.2559,1.0426,1.0426,1.0426" d="M112.3 75.7l40.2-.1"/><path d="M18.9 75.3h24.3m68.6 18l38.9-.1M9.1 92.7h38.8" stroke="#fff" stroke-dasharray="12,2,2,2" fill-rule="evenodd" clip-rule="evenodd" stroke-width=".25" fill="none" stroke-miterlimit="3.864"/></g><g id="Pfeile"><path d="M503.5 16.6v2.2l4-1.1zm0 35.3v2.2l4-1.1zM24.7 18.8v-2.3l-4 1.1zm412.2 35.8v-2.2l-4 1.1zm-204.1 8.3h2.3l-1.1-4zm2.2 42.3h-2.2l1.1 4zm268.5-71.7v2.2l4-1.1zm-200.1.6v2.2l4-1.1zm8.3 2.2v-2.2l-4 1zm-161.5 0v-2.2l-4 1zM31.5 84.1h-2.3l1.1-3.9zM29.2 66h2.3l-1.1 3.9zm2.3 36.2h-2.3l1.1-4z"/><path d="M29.2 84h2.3l-1.1 4zm291.3 18.7h-2.2l1.1-4zm-2.2-18.1h2.2l-1.1 4z"/></g><g id="Text_1_"><text transform="translate(186.099 13.77)" class="st20 st22">Length depending on order number</text><text transform="translate(49.722 108.57)" class="st20 st22">Label with</text><text transform="translate(49.722 118.17)" class="st20 st22">pin-to-wire color</text><text transform="translate(49.722 127.77)" class="st20 st22">assignment</text><text transform="translate(49.722 44.782)" class="st20 st22">Label with</text><text transform="translate(49.722 54.382)" class="st20 st22">pin-to-wire color</text><text transform="translate(49.722 63.982)" class="st20 st22">assignment</text><text transform="translate(350.678 108.37)" class="st20 st22">Label with order</text><text transform="translate(350.678 117.97)" class="st20 st22">number and</text><text transform="translate(350.678 127.57)"><tspan x="0" y="0" class="st20 st22">manufacturing </tspan><tspan x="0" y="9.6" class="st20 st22">date</tspan></text><text transform="translate(480.915 120.57)" class="st20 st22">Hirose</text><text transform="translate(480.915 130.17)" class="st20 st22">6-pin plug</text><text transform="translate(418.94 170.77)" class="st20 st22">Dimensions in mm</text><text transform="translate(464.589 50.77)" class="st20 st22">36</text><text transform="translate(408.426 32.382)" class="st20 st22">150</text><text transform="translate(227.426 32.382)" class="st20 st22">80</text><text transform="rotate(-90 227.964 -89.195)" class="st20 st22">5.8 max.</text><text transform="rotate(-90 92.239 -35.468)" class="st20 st22">Opto-I/O</text><text transform="rotate(-90 97.039 -40.268)" class="st20 st22">cable</text><text transform="rotate(-90 130.603 2.897)" class="st20 st22">GP-I/O</text><text transform="rotate(-90 135.403 -1.903)" class="st20 st22">cable</text><text transform="rotate(-90 178.058 -53.21)" class="st20 st22">24</text><text transform="rotate(-90 45.557 17.29)" class="st20 st22">4.9 max.</text><text transform="rotate(-90 82.058 53.79)" class="st20 st22">4.9 max.</text><text transform="rotate(-90 55.886 46.96)" class="st20 st22">Open end</text></g></svg>