<svg version="1.1" id="Layer_1" xmlns="http://www.w3.org/2000/svg" x="0" y="0" viewBox="0 0 768 576" style="background-color:#fff" xml:space="preserve"><style>.st2{stroke-opacity:.15;stroke-dasharray:42.6667,0}.st2,.st3{fill:none;stroke:#262626;stroke-width:2.6667;stroke-miterlimit:5.3333}.st4{fill:#262626}.st5{font-family:Helvetica,Arial,sans-serif}.st6{font-size:18px}.st8,.st9{fill:none;stroke:#0071bc;stroke-width:2.6667;stroke-linejoin:round;stroke-miterlimit:5.3333}.st9{stroke:#d85218}.st11{font-size:14px}</style><path d="M2-6h768v576H2z" fill="none"/><path shape-rendering="crispEdges" d="M101.8 506.6H697V37.2H101.8v469.4z" fill="#fff"/><path class="st2" d="M101.8 506.6V37.2M201 506.6V37.2m99.2 469.4V37.2m99.2 469.4V37.2m99.2 469.4V37.2m99.2 469.4V37.2M697 506.6V37.2"/><path class="st3" d="M101.8 506.6v-6m99.2 6v-6m99.2 6v-6m99.2 6v-6m99.2 6v-6m99.2 6v-6m99.2 6v-6"/><text transform="translate(85.84 535.31)" class="st4 st5 st6">4</text><text transform="translate(96.507 535.31)" class="st4 st5 st6">0</text><text transform="translate(107.174 535.31)" class="st4 st5 st6">0</text><text transform="translate(185.04 535.31)" class="st4 st5 st6">6</text><text transform="translate(195.707 535.31)" class="st4 st5 st6">0</text><text transform="translate(206.374 535.31)" class="st4 st5 st6">0</text><text transform="translate(284.24 535.31)" class="st4 st5 st6">8</text><text transform="translate(294.907 535.31)" class="st4 st5 st6">0</text><text transform="translate(305.574 535.31)" class="st4 st5 st6">0</text><text transform="translate(378.107 535.31)" class="st4 st5 st6">1</text><text transform="translate(388.773 535.31)" class="st4 st5 st6">0</text><text transform="translate(399.44 535.31)" class="st4 st5 st6">0</text><text transform="translate(410.107 535.31)" class="st4 st5 st6">0</text><text transform="translate(477.307 535.31)" class="st4 st5 st6">1</text><text transform="translate(487.974 535.31)" class="st4 st5 st6">2</text><text transform="translate(498.64 535.31)" class="st4 st5 st6">0</text><text transform="translate(509.307 535.31)" class="st4 st5 st6">0</text><text transform="translate(576.507 535.31)" class="st4 st5 st6">1</text><text transform="translate(587.174 535.31)" class="st4 st5 st6">4</text><text transform="translate(597.84 535.31)" class="st4 st5 st6">0</text><text transform="translate(608.507 535.31)" class="st4 st5 st6">0</text><text transform="translate(675.707 535.31)" class="st4 st5 st6">1</text><text transform="translate(686.374 535.31)" class="st4 st5 st6">6</text><text transform="translate(697.04 535.31)" class="st4 st5 st6">0</text><text transform="translate(707.707 535.31)" class="st4 st5 st6">0</text><path class="st2" d="M101.8 479H697m-595.2-69H697m-595.2-69H697m-595.2-69.1H697m-595.2-69H697m-595.2-69.1H697m-595.2-69H697"/><path class="st3" d="M101.8 479h6m-6-69h6m-6-69h6m-6-69.1h6m-6-69h6m-6-69.1h6m-6-69h6"/><text transform="translate(64.499 486.358)" class="st4 st5 st6">-</text><text transform="translate(71.166 486.358)" class="st4 st5 st6">1</text><text transform="translate(81.832 486.358)" class="st4 st5 st6">5</text><text transform="translate(64.499 417.324)" class="st4 st5 st6">-</text><text transform="translate(71.166 417.324)" class="st4 st5 st6">1</text><text transform="translate(81.832 417.324)" class="st4 st5 st6">0</text><text transform="translate(75.166 348.288)" class="st4 st5 st6">-</text><text transform="translate(81.832 348.288)" class="st4 st5 st6">5</text><text transform="translate(81.832 279.254)" class="st4 st5 st6">0</text><text transform="translate(81.832 210.219)" class="st4 st5 st6">5</text><text transform="translate(71.166 141.183)" class="st4 st5 st6">1</text><text transform="translate(81.832 141.183)" class="st4 st5 st6">0</text><text transform="translate(71.166 72.147)" class="st4 st5 st6">1</text><text transform="translate(81.832 72.147)" class="st4 st5 st6">5</text><path d="M101.8 506.6H697m-595.2 0V37.2" fill="none" stroke="#262626" stroke-width="2.667" stroke-linecap="square" stroke-miterlimit="5.333" stroke-dasharray="42.6667,0"/><path class="st8" d="M220.9 259.5l12.4-13.1 12.4-16.7 12.4-8.4 12.4-5.8 12.4 4 12.4.7 12.4 11.2 12.4 8 12.4 2.9 12.4 10.4 12.4 15.7 12.4 4.7 12.4 5.7 12.4 9.9 12.4 6.2 12.4-6.3 12.4-2.7 12.4-4 12.4-.7 12.4-6.7 12.4.6 12.4 3.9 12.4 3.5 12.4-9 12.4-2.7 12.4.7 12.4-3.3 12.4-5.1 12.4 3.4 12.4 1.2 12.4-4.4 12.4-3.8 12.4-2.9 12.4-.6"/><path class="st9" d="M158.9 270.5l12.4-3.2 12.4-4.1 12.4.2 12.4-.7 12.4.1 12.4-6.5 12.4-3.3 12.4-4.4 12.4 3.2 12.4-1.7 12.4 4.4 12.4 9.4 12.4 10.5 12.4 3.2 12.4 14.1 12.4 14.6 12.4 7.6 12.4 5.4 12.4 9 12.4 5.4 12.4-5.7 12.4.2 12.4-2.8 12.4-.2 12.4-6.8 12.4 4.1 12.4-2.3 12.4 1.5 12.4-8.7 12.4-.9 12.4-2.5 12.4-4.2 12.4-3.5 12.4 2.8 12.4.2 12.4-7.2 12.4-.4 12.4-3.7 12.4.2"/><path d="M117.1 123.5h217.7M117.1 71.8h217.7m-217.7 51.7V71.8m217.6 51.7V71.8" fill="none" stroke="#262626" stroke-width=".667" stroke-linecap="square" stroke-miterlimit="5.333" stroke-dasharray="21.3333,0"/><path class="st8" d="M122.5 84.7h35.3"/><path class="st9" d="M122.5 110.6h35.3"/><text transform="translate(166.07 89.415)" class="st5 st11">ShortRange</text><text transform="translate(166.07 114.553)" class="st5 st11">ShortRange + FastMode</text><text transform="rotate(-90 210.815 152.672)" class="st5 st6">Measurement Error [mm]</text><text transform="translate(345.605 562.873)" class="st5 st6">Distance [mm]</text></svg>