<svg style="background-color:#fff" version="1.1" id="Layer_1" xmlns="http://www.w3.org/2000/svg" x="0" y="0" viewBox="0 0 550 150" xml:space="preserve"><style>.st3{fill:none;stroke:#000;stroke-width:.709;stroke-miterlimit:3.864}.st5{font-family:Helvetica,Arial,sans-serif}.st6{font-size:8.767px}.st7{enable-background:new}.st8{fill:#e6e6e6}.st9{font-family:Helvetica,Arial,sans-serif;font-weight:700}</style><path d="M364 6.4h134.3v44.4H364V6.4z" fill="#0090d4"/><path d="M208.6 6.5h134.3v44.4H208.6V6.5z" fill="#5ec5ed"/><path d="M5.9 6.5h202.9v44.4H5.9V6.5z" fill="#bde4f7"/><path class="st3" d="M5.9 6.5h533.3v8.7l-3.3 8.6 7.1 15.7-6.2 11.4H5.9V6.5z"/><path d="M169.3 6.7v44.7M129.9 6.5v44.7M343.3 6.7v44.7m-78.9-45v44.7m39.5-44.7v44.7M208.7 6.2v44.7M363.9 6.3V51M498.4 6.7v44.7M419.6 6.5v44.6M459 6.4v44.7" fill="none" stroke="#000" stroke-width=".709" stroke-miterlimit="3.864" stroke-dasharray="2,2"/><path class="st3" d="M208.6 108.1h66.3m0 0h38.2m-307.4.1h124.2m-124 5.9v-11.7m124 5.7H168m40.7 6.2v-11.8m-40.7 5.6h40.6m134.7 5.9v-11.7m-44.9 5.8h38m27.5 6.1v-11.8m-8.7 5.7h54.1m89 5.7V102m-50.9 6.2h51m-89.1-.1h38.1m-111 0h33.4M5.9 78.2h138.7m-138.7 6V72.4m138.7 5.8h38.1M129.8 84V72.3m39.6 11.6V72.2m39.3 11.7V72.2m-26 6h38.1m43.6 5.9V72.3m39.4 11.8V72.3M343 84.1V72.4m-29.8 5.8h38m12.8 5.9V72.3m6.1 5.9h54m-4.5 5.8V72.3M459 83.9V72.2m39.3 11.9V72.4m-36.1 5.8h36.1m-74.2 0h38.2m-241.7 0h54.2m.2 0h38.2m38.1 0h18.9m-364.3 60h492.4M5.9 144v-11.7m492.4 11.9v-11.8"/><text transform="translate(52.82 26.444)" class="st5 st6">Chunk 1</text><text transform="translate(30.32 36.944)" class="st5 st6">Image data payload</text><text transform="translate(133.645 26.444)" class="st5 st6">Chunk 1</text><text transform="translate(145.445 36.944)" class="st5 st6">ID</text><text transform="translate(307.332 26.446)" class="st7"><tspan x="0" y="0" class="st5 st6">Chunk 2</tspan><tspan x="4.4" y="10.5" class="st5 st6">length</tspan></text><text transform="translate(172.687 26.444)" class="st7"><tspan x="0" y="0" class="st5 st6">Chunk 1</tspan><tspan x="4.4" y="10.5" class="st5 st6">length</tspan></text><text transform="translate(349.07 32.225)" class="st5 st6">...</text><text transform="translate(267.464 26.445)" class="st5 st6">Chunk 2</text><text transform="translate(279.264 36.945)" class="st5 st6">ID</text><text transform="translate(423.23 26.444)" class="st8 st5 st6">Chunk N</text><text transform="translate(435.73 36.944)" class="st8 st5 st6">ID</text><text transform="translate(462.335 26.446)" class="st7"><tspan x="0" y="0" class="st8 st5 st6">Chunk N</tspan><tspan x="5.1" y="10.5" class="st8 st5 st6">length</tspan></text><text transform="translate(52.715 74.54)" class="st5 st6">Length</text><text transform="translate(220.17 20.965)" class="st5 st6">Chunk 2</text><text transform="translate(214.196 31.465)" class="st7"><tspan x="0" y="0" class="st5 st6">Gain chunk</tspan><tspan x="6.8" y="10.5" class="st5 st6">payload</tspan></text><text transform="translate(51.163 105.153)" class="st9 st6">Chunk 1 (Image data chunk)</text><text transform="translate(373.41 21.027)" class="st8 st5 st6">Chunk N</text><text transform="translate(380.41 31.527)" class="st8 st5 st6">CRC</text><text transform="translate(374.61 42.027)" class="st8 st5 st6">payload</text><text transform="translate(178.185 74.54)" class="st5 st6">32 bit</text><text transform="translate(311.521 74.54)" class="st5 st6">32 bit</text><text transform="translate(271.64 74.54)" class="st5 st6">32 bit</text><text transform="translate(191.101 135.165)" class="st5 st6">Actual payload size of grab result</text><text transform="translate(139.243 74.54)" class="st5 st6">32 bit</text><text transform="translate(380.74 105.153)" class="st9 st6">Chunk (e.g., CRC chunk)</text><text transform="translate(223.83 105.153)" class="st9 st6">Chunk 2 (e.g., Gain chunk)</text><text transform="translate(378.902 74.54)" class="st5 st6">Length</text><text transform="translate(224.065 74.54)" class="st5 st6">Length</text><text transform="translate(428.245 74.54)" class="st5 st6">32 bit</text><text transform="translate(468.087 74.54)" class="st5 st6">32 bit</text></svg>