<svg version="1.1" id="Ebene_1" xmlns="http://www.w3.org/2000/svg" xmlns:xlink="http://www.w3.org/1999/xlink" x="0" y="0" viewBox="0 0 575.4 477" style="background-color:#fff" xml:space="preserve"><style>.st0{fill:#f6f6f6}.st1,.st3{fill:none;stroke:#1a171b;stroke-width:.6;stroke-linecap:round;stroke-linejoin:round;stroke-miterlimit:10}.st3{stroke-width:.532}.st4{font-family:Helvetica,Arial,sans-serif}.st5{font-size:10px}.st6,.st7{fill:none;stroke:#000;stroke-width:.3;stroke-linecap:round;stroke-linejoin:round}.st7{stroke-width:.323;stroke-miterlimit:10}.st12{font-size:14px}</style><path class="st0" d="M74.8 72.4h446.8v79h24.3v196.1H315l-.9.2-.9.5-.6.8-.1 1v34.2l-1.7 1.7h-60.6l-1.5-1.6v-21.5l-.3-.9-.6-1-.8-.6-1.1-.2-.9.2-1 .6-.6 1-.2.9v21.5l-1.5 1.5h-30.5l-1.6-1.6V353l-.2-1.4-.6-1.4-.8-1-1.2-1-1.3-.5-1.5-.2-1.4.2-1.3.5-1.1 1-1 1-.4 1.4-.3 1.4v19.2h-23.9v-21.5l-.2-1.2-.6-.9-1.1-.8-1.1-.2h-49.3l-1.2.2-1.1.8-.6.9-.2 1.2v21.7H74.8z"/><path class="st1" d="M74.8 72.4h446.8v79h24.3v196.1H315l-.9.2-.9.5-.6.8-.1 1v34.2l-1.7 1.7h-60.6l-1.5-1.6v-21.5l-.3-.9-.6-1-.8-.6-1.1-.2-.9.2-1 .6-.6 1-.2.9v21.5l-1.5 1.5h-30.5l-1.6-1.6V353l-.2-1.4-.6-1.4-.8-1-1.2-1-1.3-.5-1.5-.2-1.4.2-1.3.5-1.1 1-1 1-.4 1.4-.3 1.4v19.2h-23.9v-21.5l-.2-1.2-.6-.9-1.1-.8-1.1-.2h-49.3l-1.2.2-1.1.8-.6.9-.2 1.2v21.7H74.8z"/><path class="st1" d="M78.2 205.2l-.1-.3-.1.3zm-.1-.3l-.1-.1v.4zm-.1-.1l-.3.1.3.3zm-.3.1v.3h.3zm0 .3v.1l.3-.1zm0 .1l.3.1v-.2zm.3.1l.1-.1-.1-.1z"/><path class="st1" d="M78.1 205.3l.1-.1H78zm-5.9 164.6h4.6M34.2 71.2v-2.6m.1 3.2h1.8m-1.9-.6H69m-34.7 0v.6m1.8 0l1.1-.6"/><path class="st0" d="M69 71.2l.4.3.2.3v343l-1.2 13.9h2.7l1.1-13.7v-53.1h4.6l.7-.3.6-.6.1-.7V95.2l-.1-.7-.6-.6-.7-.1h-4.6V70l-.1-.7-.6-.5-.7-.2H34.2"/><path class="st1" d="M69 71.2l.4.3.2.3v343l-1.2 13.9h2.7l1.1-13.7v-53.1h4.6l.7-.3.6-.6.1-.7V95.2l-.1-.7-.6-.6-.7-.1h-4.6V70l-.1-.7-.6-.5-.7-.2H34.2"/><path d="M300.5 369.1h1.9v11.5h-1.9zm3 0h1.9v11.5h-1.9zm-12 0h1.9v11.5h-1.9zm6 0h1.9v11.5h-1.9zm-9 0h1.9v11.5h-1.9zm6 0h1.9v11.5h-1.9zm-15 0h1.9v11.5h-1.9zm6 0h1.9v11.5h-1.9zm-9 0h1.9v11.5h-1.9zm6 0h1.9v11.5h-1.9zm-15 0h1.9v11.5h-1.9zm6 0h1.9v11.5h-1.9zm-12 0h1.9v11.5h-1.9zm9 0h1.9v11.5h-1.9zm-18 0h1.9v11.5h-1.9zm6 0h1.9v11.5h-1.9zm-3 0h1.9v11.5h-1.9zm-6 0h1.9v11.5h-1.9zm60 0h1.9v11.5h-1.9zm-3 .1h1.9v9.5h-1.9zm-42 0h1.9v9.5h-1.9zm-30-.1h1.9v11.5h-1.9zm-6 0h1.9v11.5h-1.9zm-9 0h1.9v11.5h-1.9zm18 0h1.9v11.5h-1.9zm-6 0h1.9v11.5h-1.9zm9 0h1.9v11.5h-1.9zm-24 0h1.9v11.5h-1.9zm-3 0h1.9v11.5h-1.9zm12 0h1.9v11.5h-1.9zm-15 0h1.9v11.5h-1.9zm12 0h1.9v11.5h-1.9z" stroke="#000" stroke-width=".1" fill="none" stroke-linecap="round" stroke-linejoin="round" stroke-miterlimit="10"/><path class="st0" d="M67.5 114.4h100.8V166H67.5z"/><path class="st3" d="M67.5 114.4h100.8V166H67.5z"/><path class="st0" d="M67.5 172.6h100.8v51.6H67.5z"/><path class="st3" d="M67.5 172.6h100.8v51.6H67.5z"/><path class="st0" d="M67.5 230.8h100.8v51.6H67.5z"/><path class="st3" d="M67.5 230.8h100.8v51.6H67.5z"/><path class="st0" d="M67.5 289.1h100.8v51.6H67.5z"/><path class="st3" d="M67.5 289.1h100.8v51.6H67.5z"/><text transform="translate(267.257 21.682)" class="st4 st5">170.9</text><text transform="translate(289.607 53.812)" class="st4 st5">156.7</text><text transform="rotate(-90 140.67 115.846)" class="st4 st5">120</text><text transform="rotate(-90 400.835 -166.87)" class="st4 st5">104.4</text><path class="st6" d="M41.7 25.7h495.2"/><path d="M43.5 28.3l-9.8-2.6 9.8-2.6zm491.6 0l9.7-2.6-9.7-2.6z"/><path class="st6" d="M83.2 58.2h454.9"/><path d="M85 60.8l-9.8-2.6 9.8-2.6zm451.4 0l9.7-2.6-9.7-2.6z"/><text transform="translate(131.708 468.69)" class="st4 st5">46.1</text><path class="st6" d="M81.4 458.6h118.7"/><path d="M83.2 461.2l-9.7-2.6 9.7-2.7zm115.1 0l9.8-2.6-9.8-2.7z"/><path class="st6" d="M28.2 420.3V76.1"/><path d="M30.8 418.5l-2.6 9.7-2.7-9.7zm0-340.6l-2.6-9.8-2.7 9.8z"/><path class="st6" d="M556.6 377.6V80.3"/><path d="M559.2 375.8l-2.6 9.8-2.6-9.8zm0-293.7l-2.6-9.7-2.6 9.7z"/><path class="st7" d="M34.2 72V17.5M74.5 72V47.5"/><path fill="none" stroke="#000" stroke-width=".228" stroke-linecap="round" stroke-linejoin="round" stroke-miterlimit="10" d="M71.1 428.7H13.9"/><path class="st7" d="M545.9 180.4V11.7"/><path d="M72.2 466.2v-84.5m137 84.5v-84.5" stroke-width=".3" stroke-miterlimit="10" fill="none" stroke="#000" stroke-linecap="round" stroke-linejoin="round"/><path fill="none" stroke="#000" stroke-width=".274" stroke-linecap="round" stroke-linejoin="round" stroke-miterlimit="10" d="M71.1 68.6H13.9"/><path d="M574.1 72.4h-53.5m54.8 313.5H307.5" stroke-width=".292" stroke-miterlimit="10" fill="none" stroke="#000" stroke-linecap="round" stroke-linejoin="round"/><defs><path id="SVGID_1_" d="M-32.1-9.3H81.3v85.6H-32.1z"/></defs><clipPath id="SVGID_2_"><use xlink:href="#SVGID_1_" overflow="visible"/></clipPath><text transform="translate(453.178 436.548)" class="st4 st12">Not to scale</text><text transform="translate(452.478 455.95)" class="st4 st12">Dimensions in mm</text></svg>