<svg version="1.1" id="Layer_1" xmlns="http://www.w3.org/2000/svg" x="0" y="0" viewBox="0 0 831 371.8" style="background-color:#fff" xml:space="preserve"><style>.st0{fill:none}.st1,.st2{fill:none;stroke:#000;stroke-width:1.08;stroke-linecap:round;stroke-linejoin:round;stroke-miterlimit:10}.st2{stroke-width:.54}.st3{display:none;enable-background:new}.st4{display:inline}.st5,.st8{fill:none;stroke-miterlimit:10}.st5{stroke-linecap:round;stroke-linejoin:round;stroke:#000;stroke-width:.72}.st8{stroke:#65a639;stroke-width:3}.st9{fill:#65a639}.st12{font-family:Helvetica,Arial,sans-serif}.st13{font-size:18px}</style><path class="st1" d="M151 153.5c-2.7-.2-5.3.3-7.8 1.3m7.9-1.4c1.8.1 3.7 0 5.5-.3m20.3.1c-6.7-1.2-13.5-1.2-20.2 0m20.2-.1c1.8.3 3.7.4 5.5.3m7.7 1.3c-2.5-1-5.1-1.5-7.8-1.3"/><path class="st2" d="M142.5 152.9l.8 1.8m7.7-1.3l.2-2"/><path class="st1" d="M151.2 151.5c-3-.2-6 .3-8.7 1.4m0 0c-23.2 9.8-38.3 32.5-38.3 57.7s15.1 47.9 38.3 57.7"/><path class="st2" d="M142.5 268.3l.8-2"/><path class="st1" d="M143.3 154.7c-22.5 9.4-37.1 31.5-37.1 55.8s14.6 46.4 37.1 55.8m-.8 1.9c2.7 1.2 5.7 1.6 8.7 1.4"/><path class="st2" d="M151.2 269.7l-.2-2"/><path class="st1" d="M143.2 266.4c2.5 1 5.1 1.5 7.8 1.3m5.3 2.3c-1.7-.3-3.4-.4-5-.3"/><path class="st2" d="M156.2 269.9l.4-2"/><path class="st1" d="M156.6 268.1c-1.8-.3-3.7-.4-5.5-.3m5.2 2.1c6.9 1.2 14 1.2 20.9 0"/><path class="st2" d="M177.1 269.9l-.4-2"/><path class="st1" d="M156.6 267.9c6.7 1.2 13.5 1.2 20.2 0m5.4 1.8c-1.7-.1-3.4 0-5 .3"/><path class="st2" d="M182.1 269.7l.2-2"/><path class="st1" d="M182.4 267.8c-1.8-.1-3.7 0-5.5.3m5.2 1.5c3 .2 6-.3 8.7-1.4"/><path class="st2" d="M191 268.3l-.9-2"/><path class="st1" d="M182.3 267.7c2.7.2 5.3-.3 7.8-1.3m.9 1.8c23.2-9.8 38.3-32.5 38.3-57.7s-15.1-47.9-38.3-57.7"/><path class="st2" d="M191 152.9l-.9 1.8"/><path class="st1" d="M190.2 266.4c22.5-9.4 37.1-31.4 37.1-55.8s-14.6-46.4-37.1-55.8"/><path class="st2" d="M182.1 151.4l.2 2"/><path class="st1" d="M190.8 152.9c-2.7-1.2-5.7-1.6-8.7-1.4"/><path class="st2" d="M177.1 151.3l-.4 1.9"/><path class="st1" d="M177.2 151.1c1.7.3 3.4.4 5 .3"/><path class="st2" d="M156.2 151.3l.4 1.9"/><path class="st1" d="M177.2 151.3c-6.9-1.2-14-1.2-20.9 0m-5.1.1c1.7.1 3.4 0 5-.3"/><path class="st2" d="M130.1 248.6l.6-.5"/><path class="st1" d="M130.8 173.1c-10.2 9.8-15.9 23.3-15.9 37.4s5.7 27.6 15.9 37.4"/><path class="st2" d="M130.7 173l-.6-.5"/><path class="st1" d="M130.1 172.5c-10.4 10-16.2 23.7-16.2 38.1s5.8 28.1 16.2 38.1m0 0c1.1 1 2.5 1.6 3.9 1.6"/><path class="st2" d="M133.9 250.3v-.9"/><path class="st1" d="M130.7 248c.9.9 2.1 1.3 3.3 1.3"/><path class="st2" d="M199.4 250.3v-.9"/><path class="st1" d="M199.4 249.4h-65.5m0 .9h65.5m-.1 0c1.5 0 2.9-.6 3.9-1.6"/><path class="st2" d="M203.4 248.6l-.7-.5"/><path class="st1" d="M199.3 249.4c1.2 0 2.4-.5 3.3-1.3"/><path class="st2" d="M203.4 172.5l-.7.5"/><path class="st1" d="M202.7 248c10.2-9.8 15.9-23.3 15.9-37.4s-5.7-27.6-15.9-37.4"/><path class="st1" d="M203.4 248.6c10.4-10 16.2-23.7 16.2-38.1s-5.8-28.1-16.2-38.1m-.1.1c-1.1-1-2.5-1.6-3.9-1.6"/><path class="st2" d="M199.4 170.9v.9"/><path class="st1" d="M202.6 173.1c-.9-.9-2.1-1.3-3.3-1.3"/><path class="st2" d="M133.9 170.9v.9"/><path class="st1" d="M133.9 171.8h65.5m0-.9h-65.5m.1 0c-1.5 0-2.9.6-3.9 1.6m3.9-.7c-1.2 0-2.4.5-3.3 1.3m2.5 70.9h66.9m-66.8 0c-.4 0-.8.1-1.1.4m-4.5-4.5c-1 1.3-.9 3.1.2 4.2s2.9 1.2 4.2.2m-4.3-4.2c.2-.3.4-.7.4-1.1m-.1-56.8v56.7m0-56.8c0-.4-.1-.8-.4-1.1"/><path class="st1" d="M132.2 176.8c-1.3-1-3.1-.9-4.2.2s-1.2 2.9-.2 4.2m4.4-4.4c.3.2.7.4 1.1.4m66.8 0h-66.9m67 0c.4 0 .8-.1 1.1-.4"/><path class="st1" d="M205.6 181.2c1-1.3.9-3.1-.2-4.2s-2.9-1.2-4.2-.2m4.3 4.3c-.2.3-.4.7-.4 1.1m.1 56.7v-56.7m0 56.8c0 .4.1.8.4 1.1"/><path class="st1" d="M201.1 244.3c1.3 1 3.1.9 4.2-.2s1.2-2.9.2-4.2m-4.2 4.4c-.3-.2-.7-.4-1.1-.4m36.8.1h67m-67.1 0c-.4 0-.8.1-1.1.4m-4.4-4.5c-1 1.3-.9 3.1.2 4.2s2.9 1.2 4.2.2m-4.4-4.2c.2-.3.4-.7.4-1.1m0-56.8v56.7m0-56.8c0-.4-.1-.8-.4-1.1"/><path class="st1" d="M235.8 176.8c-1.3-1-3.1-.9-4.2.2s-1.2 2.9-.2 4.2m4.5-4.4c.3.2.7.4 1.1.4m67 0h-67m66.9 0c.4 0 .8-.1 1.1-.4m4.4 4.4c1-1.3.9-3.1-.2-4.2s-2.9-1.2-4.2-.2m4.4 4.3c-.2.3-.4.7-.4 1.1m0 56.7v-56.7m0 56.8c0 .4.1.8.4 1.1"/><path class="st1" d="M305 244.3c1.3 1 3.1.9 4.2-.2s1.2-2.9.2-4.2m-4.4 4.4c-.3-.2-.7-.4-1.1-.4"/><path class="st2" d="M237 242.9v1.1m67 0v-1.1"/><path class="st1" d="M304 242.9h-67"/><path class="st2" d="M235.2 243.4l.8.9m-3.6-3.6l-.9-.7"/><path class="st1" d="M232.3 240.6c-.7.8-.6 2 .2 2.8s1.9.8 2.8.2"/><path class="st2" d="M233.1 238.9h-1.3m1.3-56.7h-1.3"/><path class="st1" d="M233.1 238.9v-56.7"/><path class="st2" d="M232.4 180.4l-.9.7m3.7-3.6l.8-.7"/><path class="st1" d="M235.2 177.6c-.8-.7-2-.6-2.8.2s-.8 1.9-.2 2.8"/><path class="st2" d="M237 178.3v-1.1m67 1.1v-1.1"/><path class="st1" d="M237 178.3h67"/><path class="st2" d="M305.6 177.5l-.7-.7m3.6 3.6l.9.7"/><path class="st1" d="M308.6 180.5c.7-.8.6-2-.2-2.8s-1.9-.8-2.8-.2"/><path class="st2" d="M307.8 182.2h1.2m-1.2 56.7h1.2"/><path class="st1" d="M307.8 182.2v56.7"/><path class="st2" d="M308.5 240.7l.9-.7m-3.8 3.4l-.7.9"/><path class="st1" d="M305.7 243.5c.8.7 2 .6 2.8-.2s.8-1.9.2-2.8"/><path class="st2" d="M133.2 242.9v1.1m66.9 0v-1.1"/><path class="st1" d="M200.1 242.9h-66.9"/><path class="st2" d="M131.4 243.4l.7.9m-3.4-3.6l-.9-.7"/><path class="st1" d="M128.6 240.6c-.7.8-.6 2 .2 2.8.7.7 1.9.8 2.8.2"/><path class="st2" d="M129.2 238.9h-1.1m1.1-56.7h-1.1"/><path class="st1" d="M129.2 238.9v-56.7"/><path class="st2" d="M128.7 180.4l-.9.7m3.6-3.6l.7-.7"/><path class="st1" d="M131.5 177.6c-.8-.7-2-.6-2.8.2-.7.7-.8 1.9-.2 2.8"/><path class="st2" d="M133.2 178.3v-1.1m66.9 1.1v-1.1"/><path class="st1" d="M133.2 178.3h66.9"/><path class="st2" d="M201.9 177.5l-.7-.7m3.4 3.6l.9.7"/><path class="st1" d="M204.7 180.5c.7-.8.6-2-.2-2.8s-1.9-.8-2.8-.2"/><path class="st2" d="M204.1 182.2h1.1m-1.1 56.7h1.1"/><path class="st1" d="M204.1 182.2v56.7"/><path class="st2" d="M204.6 240.7l.9-.7m-3.6 3.4l-.7.9"/><path class="st1" d="M201.8 243.5c.8.7 2 .6 2.8-.2s.8-1.9.2-2.8"/><path class="st1" d="M368.3 97.4l5 5.1v216.2l-5 5h-270l-5.1-5V102.5l5.1-5.1h270"/><path class="st1" d="M93.2 102.5l-1.1.7.8-2 .3 1.3m0 216.2l-.3 1.2-.8-2 1.1.8m5.1-221.3l-1.3-.3 2-.7-.7 1m-1.3-.3l-4.1 4.1m5.4 222.5l.7 1.1-2-.7 1.3-.4m270-226.3l-.6-1 1.8.7-1.2.3m-.6-1H99m269.3 227.3l1.2.4-1.8.7.6-1.1m5-221.2l.4-1.3.7 2-1.1-.7m.4-1.3l-4.2-4.1m3.8 221.6l1.1-.8-.7 2-.4-1.2m1.1-.8V103.2m-4.9 220.9l4.2-4.2M99 324.8h268.7m-274.8-4.9l4.1 4.2m-4.9-220.9v214.7m144.8-75c-.6 0-1.2.2-1.7.6m-2.9-2.8c.4-.5.6-1.1.6-1.7m0-56.9c0-.6-.2-1.2-.6-1.7m2.9-2.8c.5.4 1.1.6 1.7.6m67 .1c.6 0 1.2-.2 1.7-.6m3 2.7c-.4.5-.6 1.1-.6 1.7m0 56.9c0 .6.2 1.2.6 1.7m-3 2.8c-.5-.4-1.1-.6-1.7-.6m-170.6 0c-.6 0-1.2.2-1.7.6m-3-2.8c.4-.5.6-1.1.6-1.7m0-56.9c0-.6-.2-1.2-.6-1.7m2.9-2.8c.5.4 1.1.6 1.7.6m67 .1c.6 0 1.2-.2 1.7-.6m2.8 2.7c-.4.5-.6 1.1-.6 1.7m0 56.9c0 .6.2 1.2.6 1.7m-2.7 2.8c-.5-.4-1.1-.6-1.7-.6m2.9-63.7h-73.1V242h73.1v-62.8m30.6 62.8h73.3v-62.8h-73.3V242m390.8 81.9h.2m-.2-221.1h.2m0-5.7h-.2m.2 221.2h-.2"/><path class="st2" d="M538 125.7h-6.1"/><path class="st1" d="M531.9 133.4v-7.7"/><path class="st2" d="M531.9 133.4h6.1m0 6.9h-6.1"/><path class="st1" d="M531.9 140.3v7.7"/><path class="st2" d="M531.9 148h6.1"/><path class="st1" d="M531.9 148v.2m6.1-13h-6.1v.6m0-.6v-1.8m0 5.1v-.6m0-12.2v-.2m0 14.8v-1.8h6.1m-6.1 9.7h6.1m0-12.4h-6.1m6.1 2.1h-6.1m0-12.4h6.1m53.8 196.4v-14"/><path class="st2" d="M592.7 322.6v-15.5"/><path class="st1" d="M591.8 113.1V99.2"/><path class="st2" d="M592.7 114V98.5"/><path class="st1" d="M592 321.8c0 .4.4.8.8.8m0-15.5c-.4 0-.8.4-.8.8m0-194.7c0 .4.4.8.8.8m0-15.5c-.4 0-.8.4-.8.8"/><path class="st2" d="M538 278.5h-5.4v-22.8"/><path class="st1" d="M531.9 277.8v-21.2m.7 21.9h-.5l-.2-.7m6.1-22.1h-5.4m.1 0c-.4 0-.8.4-.8.8m.5 22h5.6m0-181.1v226.3l1.1 1.1v-2.9"/><path class="st2" d="M539.1 321.9H538m1.1-7H538"/><path class="st1" d="M539.1 321.9v-16.6l-1.1-1m1.1-1.8v2.8"/><path class="st2" d="M539.1 302.5H538m1.1-184H538"/><path class="st1" d="M539.1 302.5V115.8l-1.1 1.1"/><path class="st2" d="M539.1 106.3H538"/><path class="st1" d="M539.1 115.8v-9.5"/><path class="st2" d="M539.1 99.2H538"/><path class="st1" d="M539.1 106.3v-9.9l-1.1 1m86.6 220.5h-24.1m0-214.7h24.1m-24.1 221.6h24.1m0-227.7v-.7h-24.1v.7h24.1m0 6.1v-2m0 218.7v-2m0 6.9v-.7m0-222.9h-24.1v2m0 214.7v2h24.1m0 4.2h-24.1v.7"/><path class="st2" d="M539.1 99.2h52.7"/><path class="st1" d="M600.5 96.4h-61.4m61.4 19.4h-61.4"/><path class="st2" d="M539.1 118.5h61.4m0 184h-61.4"/><path class="st1" d="M539.1 305.3h61.4"/><path class="st2" d="M591.8 321.9h-52.7"/><path class="st1" d="M539.1 324.8h61.4"/><path class="st2" d="M539.1 106.3h52.7m-52.7 208.6h52.7"/><path class="st1" d="M615.8 118.9c0-2.5-2.1-4.6-4.6-4.6s-4.6 2.1-4.6 4.6 2.1 4.6 4.6 4.6 4.6-2 4.6-4.6m0 183.3c0-2.5-2.1-4.6-4.6-4.6s-4.6 2.1-4.6 4.6 2.1 4.6 4.6 4.6 4.6-2.1 4.6-4.6"/><path class="st1" d="M607.5 116.2l3.6 2.7 3.8-2.7m0 188.8l-3.8-2.7-3.6 2.7m-7 12.9v-15.4m0-184v-15.3m24.1 0v214.7m0-220.8v4.1m0 218.7v4.2m-24.1-227v4.1m0 218.7v4.2m7-207.9h7.4M607.5 305h7.4m68.9 18.7V97.4m0 5.1l-1.3.7v-2l1.3 1.3m0 216.2l-1.3 1.2v-2l1.3.8m0-221.3l-1.3-.3v-.7l1.3 1m-1.3-.3v4.1m1.3 222.5l-1.3 1.1v-.7l1.3-.4m-1.3-3.8v4.2m0 0h-57.7v.7h57.7m0-228.4h-57.7v.7h57.7m0 6.1v214.7m0 0h-57.7v2h57.7m0-218.7h-57.7v2h57.7m-57.7 216.7v4.2m0-220.9v214.7m0-220.8v4.1m-87.3 177.3v24.1h-46.8m46.8-46.9V148.2m0-10.3v-2.1m0-10.3v-7h-44.7"/><path class="st2" d="M492.8 302.6V118.5"/><path class="st1" d="M490.7 302.6V118.5h2.1m44.7 32.6h.5m-.5 127.4h.5m54.7 28.6h7.8m-7.8 15.5h7.8m-7.8-224.1h7.8m-7.8 15.5h7.8"/><path class="st2" d="M537.5 150.2h.5m72.2-25.7c3.1.5 6-1.5 6.6-4.6.5-3.1-1.5-6-4.6-6.6-3.1-.5-6 1.5-6.6 4.6m4.6 189.9c3.1.5 6-1.5 6.6-4.6.5-3.1-1.5-6-4.6-6.6-3.1-.5-6 1.5-6.6 4.6"/><g class="st3"><path class="st4" d="M127.2 77.8V79h-6.6c0-.3 0-.6.1-.9.2-.5.4-.9.8-1.3s.9-.9 1.6-1.5c1.1-.9 1.8-1.6 2.2-2.1.4-.5.6-1 .6-1.5s-.2-.9-.5-1.2-.8-.5-1.4-.5-1.1.2-1.4.5-.5.8-.5 1.5l-1.3-.1c.1-.9.4-1.7 1-2.2s1.3-.7 2.3-.7 1.7.3 2.3.8.8 1.2.8 2c0 .4-.1.8-.2 1.2s-.4.8-.8 1.2c-.4.4-1 1-1.9 1.8-.7.6-1.2 1-1.4 1.3-.2.2-.4.4-.5.7h4.8v-.2zm7.7-6.4l-1.2.1c-.1-.5-.3-.8-.5-1.1-.3-.4-.7-.5-1.2-.5-.4 0-.7.1-1 .3-.4.3-.7.7-.9 1.2s-.3 1.3-.3 2.3c.3-.5.7-.8 1.1-1s.9-.3 1.3-.3c.8 0 1.5.3 2.1.9s.9 1.4.9 2.3c0 .6-.1 1.2-.4 1.8-.3.5-.6 1-1.1 1.2s-1 .4-1.6.4c-1 0-1.9-.4-2.5-1.1-.6-.8-1-2-1-3.7 0-1.9.4-3.3 1.1-4.2.6-.8 1.5-1.1 2.5-1.1.8 0 1.4.2 1.9.7s.7 1 .8 1.8zm-5 4.3c0 .4.1.8.3 1.2.2.4.4.7.8.9.3.2.7.3 1 .3.5 0 1-.2 1.3-.6s.6-1 .6-1.7-.2-1.2-.6-1.6c-.4-.4-.8-.6-1.4-.6-.6 0-1 .2-1.4.6-.4.3-.6.9-.6 1.5zM137 79v-1.4h1.4V79H137zm3.2-2.7l1.2-.2c.1.7.4 1.2.7 1.5s.8.5 1.2.5c.6 0 1.1-.2 1.5-.6s.6-.9.6-1.5-.2-1-.6-1.4c-.4-.4-.8-.6-1.4-.6-.2 0-.5 0-.9.1l.1-1.1h.2c.5 0 1-.1 1.4-.4s.6-.7.6-1.3c0-.5-.2-.8-.5-1.1-.3-.3-.7-.4-1.2-.4s-.9.2-1.2.5-.5.8-.6 1.4l-1.2-.2c.2-.8.5-1.5 1-1.9.5-.5 1.2-.7 2-.7.5 0 1.1.1 1.5.4.5.2.8.6 1.1 1s.4.8.4 1.3c0 .4-.1.8-.3 1.2-.2.4-.6.6-1 .8.6.1 1.1.4 1.4.9.3.4.5 1 .5 1.6 0 .9-.3 1.6-1 2.2-.6.6-1.4.9-2.4.9-.9 0-1.6-.3-2.2-.8s-.8-1.3-.9-2.1z"/></g><g class="st3"><path class="st4" d="M75.1 275h-2.4v4.3h-1.1l-6.5-4.6v-1h6.5v-1.4h1.1v1.4h2.4v1.3zm-3.5 0h-4.5l4.5 3.1V275zm-1.4-3.9c-1.2 0-2.1-.1-2.9-.4-.7-.2-1.3-.6-1.7-1.1-.4-.5-.6-1.1-.6-1.8 0-.5.1-1 .3-1.4.2-.4.5-.7.9-1s.9-.5 1.5-.6c.6-.2 1.4-.2 2.4-.2 1.2 0 2.1.1 2.8.4.7.2 1.3.6 1.7 1.1.4.5.6 1.1.6 1.8 0 1-.3 1.7-1 2.3-.8.6-2.1.9-4 .9zm0-1.3c1.6 0 2.7-.2 3.3-.6.5-.4.8-.9.8-1.4s-.3-1-.8-1.4-1.6-.6-3.3-.6c-1.6 0-2.7.2-3.3.6-.5.4-.8.9-.8 1.4 0 .6.2 1 .7 1.4.6.4 1.8.6 3.4.6zm4.9-7.2h-1.4v-1.4h1.4v1.4zm-2.6-3.2l-.2-1.2c.7-.1 1.2-.4 1.5-.7.3-.3.5-.8.5-1.2 0-.6-.2-1.1-.6-1.5s-.9-.6-1.5-.6-1 .2-1.4.6c-.4.4-.6.8-.6 1.4 0 .2 0 .5.1.9l-1.1-.1v-.2c0-.5-.1-1-.4-1.4s-.7-.6-1.3-.6c-.5 0-.8.2-1.1.5s-.4.7-.4 1.2.2.9.5 1.2c.3.3.8.5 1.4.6l-.2 1.2c-.8-.2-1.5-.5-1.9-1-.5-.5-.7-1.2-.7-2 0-.5.1-1.1.4-1.5.2-.5.6-.8 1-1.1.4-.2.8-.4 1.3-.4.4 0 .8.1 1.2.3s.6.6.8 1c.1-.6.4-1.1.9-1.4.4-.3 1-.5 1.6-.5.9 0 1.6.3 2.2 1 .6.6.9 1.4.9 2.4 0 .9-.3 1.6-.8 2.2-.6.5-1.3.8-2.1.9z"/></g><g class="st3"><path class="st4" d="M654.3 79.9v1.2h-6.6c0-.3 0-.6.1-.9.2-.5.4-.9.8-1.3s.9-.9 1.6-1.5c1.1-.9 1.8-1.6 2.2-2.1s.6-1 .6-1.5-.2-.9-.5-1.2c-.3-.3-.8-.5-1.4-.5-.6 0-1.1.2-1.4.5-.3.3-.5.8-.5 1.5l-1.3-.1c.1-.9.4-1.7 1-2.2s1.3-.7 2.3-.7 1.7.3 2.3.8.8 1.2.8 2c0 .4-.1.8-.2 1.2-.1.4-.4.8-.8 1.2-.4.4-1 1-1.9 1.8-.7.6-1.2 1-1.4 1.3-.2.2-.4.4-.5.7h4.8v-.2zm7.8 0v1.2h-6.6c0-.3 0-.6.1-.9.2-.5.4-.9.8-1.3s.9-.9 1.6-1.5c1.1-.9 1.8-1.6 2.2-2.1s.6-1 .6-1.5-.2-.9-.5-1.2c-.3-.3-.8-.5-1.4-.5-.6 0-1.1.2-1.4.5-.3.3-.5.8-.5 1.4l-1.3-.1c.1-.9.4-1.7 1-2.2s1.3-.7 2.3-.7 1.7.3 2.3.8.8 1.2.8 2c0 .4-.1.8-.2 1.2-.1.4-.4.8-.8 1.2-.4.4-1 1-1.9 1.8-.7.6-1.2 1-1.4 1.3-.2.2-.4.4-.5.7l4.8-.1z"/></g><path class="st5" d="M80.4 217.7l-1.4-7.2-1.4 7.2h2.8M79 317.8V217.7m12.2-7.2h-18M99 324.8H73.2m93.5-114.3h2.3m2.3 0h2.4m-7 0h-7.4m-1.8 0h-.4m-1.8 0h-14.7m-1.8 0h-.4m-1.8 0h-14.8m-1.9 0h-.2m-1.8 0h-7.4m56.2 0v-9.7m0-2.4v-.5m0-2.4v-19.6m0-2.3v-.4m0-2.5v-19.6m0-2.4v-.3m0-2.5v-9.8m0 74.4v8.8m0 2.3v.4m0 2.2v17.6m0 2.2v.3m0 2.2v17.6m0 2.4v.3m0 2.2v8.8M99.2 82.9h-7.1m191 137.7v2.7h-2.7v-2.7h2.7m-22.7 0v2.7h-2.7v-2.7h2.7m22.7-22.7v2.7h-2.7v-2.7h2.7m-22.7 0v2.7h-2.7v-2.7h2.7M98.3 210.5h8.8m2.3 0h.4m2.1 0h17.7m2.3 0h.4m2.1 0h17.7m2.3 0h.4m2.1 0h17.7m2.3 0h.4m2.1 0h17.7m2.3 0h.4m2.1 0h17.7m2.3 0h.4m2.1 0h17.7m2.3 0h.4m2.1 0h17.7m2.3 0h.4m2.1 0h17.7m2.3 0h.4m2.1 0h17.7m2.3 0h.4m2.1 0h17.7m2.3 0h.4m2.1 0h17.9m2.1 0h.4m2.1 0h8.9m-277.1 0h2.4m2.3 0h2.4m270 0h2.3m2.5 0h2.4M121 324.8H70.9m612.9-170.3V62M79 317.8v7m80.6-240.5l7.1-1.4-7.1-1.5v2.9m-60.4-1.4h60.4m-67.5 19.3V77.1m74.6 59v-59m103.8 105.1v7.4m0 1.8v.4m0 1.9v14.8m0 2v.2m0 1.9v14.8m0 2v.2m0 1.9v7.4m0-63.9v2.5m0 2.4v2.3m0 56.7v2.4m0 2.3v2.3M611.1 119h3m2.9 0h3.1m-9 0h-2.9m-2.9 0h-3m8.8 0v-3m0-2.9v-2.9m0 8.8v2.9m0 3.1v2.9m0 174.2h3m2.9 0h3.1m-9 0h-2.9m-2.9 0h-3m8.8 0v-2.9m0-3v-2.9m0 8.8v2.9m0 3v2.9M654.4 67h-4.2"/><g id="arrows"><path d="M167.7 211.6H39.9" fill="none" stroke="#f44" stroke-width="3" stroke-miterlimit="10"/><path d="M41.5 206.4l-9.1 5.2 9.1 5.3v-10.5z" fill="#f44"/><path class="st8" d="M166.8 211.6v130.7"/><path class="st9" d="M161.5 340.7l5.3 9.1 5.2-9.1h-10.5z"/><path d="M649.8 208.6h120.5" fill="none" stroke="#3a6bc1" stroke-width="3" stroke-miterlimit="10"/><path d="M768.8 213.8l9-5.2-9-5.2v10.4z" fill="#3a6bc1"/><path class="st8" d="M649.3 208.7v132.5"/><path class="st9" d="M644.1 339.6l5.2 9.1 5.2-9.1h-10.4z"/><path d="M654.4 65.3l-4.2 1.7 4.2-1.7z"/><path class="st5" d="M654.4 65.3l-4.2 1.7 4.2-1.7z"/><path d="M654.4 65.3l-4.2 1.7 4.2 1.7v-3.4z"/><path class="st5" d="M654.4 65.3l-4.2 1.7 4.2 1.7v-3.4z"/><path class="st5" d="M654.4 65.3l-4.2 1.7 4.2 1.7v-3.4m25.2 1.7h4.2"/><path d="M679.6 68.7l4.2-1.7-4.2 1.7z"/><path class="st5" d="M679.6 68.7l4.2-1.7-4.2 1.7z"/><path d="M679.6 68.7l4.2-1.7-4.2-1.7v3.4z"/><path class="st5" d="M679.6 68.7l4.2-1.7-4.2-1.7v3.4z"/><path class="st5" d="M679.6 68.7l4.2-1.7-4.2-1.7v3.4M654.4 67h25.3m4.1 138.8V64.2m-34.2 142.1V64.2"/><path d="M77.6 317.8l1.4 7-1.4-7z"/><path class="st5" d="M77.6 317.8l1.4 7-1.4-7z"/><path d="M77.6 317.8l1.4 7 1.4-7h-2.8z"/><path class="st5" d="M77.6 317.8l1.4 7 1.4-7h-2.8z"/><path class="st5" d="M77.6 317.8l1.4 7 1.4-7h-2.8M79 217.7v-7.2"/><path d="M80.4 217.7l-1.4-7.2 1.4 7.2z"/><path class="st5" d="M80.4 217.7l-1.4-7.2 1.4 7.2z"/><path d="M80.4 217.7l-1.4-7.2-1.4 7.2h2.8z"/><path class="st5" d="M80.4 217.7l-1.4-7.2-1.4 7.2h2.8z"/><path d="M99.2 81.4l-7.1 1.5 7.1-1.5z"/><path class="st5" d="M99.2 81.4l-7.1 1.5 7.1-1.5z"/><path d="M99.2 81.4l-7.1 1.5 7.1 1.4v-2.9z"/><path class="st5" d="M99.2 81.4l-7.1 1.5 7.1 1.4v-2.9z"/><path class="st5" d="M99.2 81.4l-7.1 1.5 7.1 1.4v-2.9m60.4 1.5h7.1"/><path d="M159.6 84.3l7.1-1.4-7.1 1.4z"/><path class="st5" d="M159.6 84.3l7.1-1.4-7.1 1.4z"/><path d="M159.6 84.3l7.1-1.4-7.1-1.5v2.9z"/><path class="st5" d="M159.6 84.3l7.1-1.4-7.1-1.5v2.9z"/><path class="st0" d="M120.1 72.7h53.7v23.4h-53.7V72.7zM66.9 234.6h19.9v37.8H66.9v-37.8z"/></g><path class="st0" d="M22.5 194.4h27.1v22H22.5v-22z"/><text transform="translate(16.477 200.025)" class="st12 st13">x+</text><path class="st0" d="M173.6 344.8h38.5v17.9h-38.5v-17.9z"/><text transform="translate(174.618 360.413)" class="st12 st13">y+</text><path class="st0" d="M773.9 189.8h25.7V215h-25.7v-25.2z"/><text transform="translate(773.911 198.4)" class="st12 st13">z+</text><path class="st0" d="M659.3 345.8h28.9v13.3h-28.9v-13.3z"/><text transform="translate(659.268 354.375)" class="st12 st13">y+</text><text transform="translate(95.987 72.287)" class="st12 st13">26.3 mm</text><path class="st0" d="M65.6 217.2h23.8v72.9H65.6v-72.9z"/><text transform="rotate(-90 188.15 114.948)" class="st12 st13">40.3 mm</text><text transform="translate(649 32)" class="st12 st13">Device-specific</text><text transform="translate(649 53.6)" class="st12 st13">z offset</text></svg>