<svg version="1.1" id="Layer_1" xmlns="http://www.w3.org/2000/svg" x="0" y="0" viewBox="0 0 520.8 171.4" style="background-color:#fff" xml:space="preserve"><style>.st0{fill:none}.st1{font-family:Helvetica,Arial,sans-serif}.st2{font-size:12px}.st4{font-size:7.579px}.st5,.st6,.st7{fill:none;stroke-miterlimit:3.864}.st5{stroke-width:.5;stroke:#000}.st6{stroke:#f99d33}.st7{stroke:#23ad37}</style><text transform="translate(408.182 93.959)" class="st1 st2">Focus indicator ROI</text><text transform="translate(408.164 154.768)" class="st1 st2">Image ROI</text><path d="M59.4 37.7h316.4v127.1H59.4V37.7z" fill="#bde4f7" stroke="#000" stroke-miterlimit="10"/><path class="st0" d="M17.6 5h3.5v8.5h-3.5V5z"/><text transform="translate(17.648 13.238)" class="st1 st4">0</text><path class="st0" d="M29 5h3.5v8.5H29V5z"/><text transform="translate(29.017 13.238)" class="st1 st4">1</text><path class="st0" d="M7.3 15.8h3.5v8.5H7.3v-8.5z"/><text transform="translate(7.265 24.038)" class="st1 st4">0</text><path class="st0" d="M40.4 5h3.5v8.5h-3.5V5z"/><text transform="translate(40.385 13.238)" class="st1 st4">2</text><path class="st0" d="M51.8 5h3.5v8.5h-3.5V5z"/><text transform="translate(51.754 13.238)" class="st1 st4">3</text><path class="st0" d="M63.1 5h3.5v8.5h-3.5V5z"/><text transform="translate(63.122 13.238)" class="st1 st4">4</text><path class="st0" d="M74.5 5H78v8.5h-3.5V5z"/><text transform="translate(74.49 13.238)" class="st1 st4">5</text><path class="st0" d="M85.9 5h3.5v8.5h-3.5V5z"/><text transform="translate(85.86 13.238)" class="st1 st4">6</text><path class="st0" d="M97.2 5h3.5v8.5h-3.5V5z"/><text transform="translate(97.228 13.238)" class="st1 st4">7</text><path class="st0" d="M108.6 5h3.5v8.5h-3.5V5z"/><text transform="translate(108.597 13.238)" class="st1 st4">8</text><path class="st0" d="M119.4 5h3.5v8.5h-3.5V5z"/><text transform="translate(119.397 13.238)" class="st1 st4">9</text><path class="st0" d="M129.4 5h7v8.5h-7V5z"/><text transform="translate(129.439 13.238)" class="st1 st4">10</text><path class="st0" d="M140.8 5h6.6v8.5h-6.6V5z"/><text transform="translate(140.808 13.238)" class="st1 st4">1</text><text transform="translate(143.908 13.238)" class="st1 st4">1</text><path class="st0" d="M152.2 5h7v8.5h-7V5z"/><text transform="translate(152.176 13.238)" class="st1 st4">12</text><path class="st0" d="M163.5 5h7v8.5h-7V5z"/><text transform="translate(163.545 13.238)" class="st1 st4">13</text><path class="st0" d="M174.9 5h7v8.5h-7V5z"/><text transform="translate(174.913 13.238)" class="st1 st4">14</text><path class="st0" d="M186.3 5h7v8.5h-7V5z"/><text transform="translate(186.281 13.238)" class="st1 st4">15</text><path class="st0" d="M197.7 5h7v8.5h-7V5z"/><text transform="translate(197.65 13.238)" class="st1 st4">16</text><path class="st0" d="M209 5h7v8.5h-7V5z"/><text transform="translate(209.01 13.238)" class="st1 st4">17</text><path class="st0" d="M220.4 5h7v8.5h-7V5z"/><text transform="translate(220.379 13.238)" class="st1 st4">18</text><path class="st0" d="M231.7 5h7v8.5h-7V5z"/><text transform="translate(231.747 13.238)" class="st1 st4">19</text><path class="st0" d="M243.1 5h7v8.5h-7V5z"/><text transform="translate(243.116 13.238)" class="st1 st4">20</text><path class="st0" d="M254.5 5h7v8.5h-7V5z"/><text transform="translate(254.484 13.238)" class="st1 st4">21</text><path class="st0" d="M265.9 5h7v8.5h-7V5z"/><text transform="translate(265.853 13.238)" class="st1 st4">22</text><path class="st0" d="M277.2 5h7v8.5h-7V5z"/><text transform="translate(277.222 13.238)" class="st1 st4">23</text><path class="st0" d="M288.6 5h7v8.5h-7V5z"/><text transform="translate(288.59 13.238)" class="st1 st4">24</text><path class="st0" d="M300 5h7v8.5h-7V5z"/><text transform="translate(299.959 13.238)" class="st1 st4">25</text><path class="st0" d="M311.3 5h7v8.5h-7V5z"/><text transform="translate(311.327 13.238)" class="st1 st4">26</text><path class="st0" d="M322.7 5h7v8.5h-7V5z"/><text transform="translate(322.696 13.238)" class="st1 st4">27</text><path class="st0" d="M334.1 5h7v8.5h-7V5z"/><text transform="translate(334.065 13.238)" class="st1 st4">28</text><path class="st0" d="M345.4 5h7v8.5h-7V5z"/><text transform="translate(345.433 13.238)" class="st1 st4">29</text><path class="st0" d="M356.8 5h7v8.5h-7V5z"/><text transform="translate(356.802 13.238)" class="st1 st4">30</text><path class="st5" d="M15.8 17h7.5v7.6h-7.5V17zm11.3 0h7.6v7.6h-7.6V17zm11.4 0h7.6v7.6h-7.6V17zm11.4 0h7.5v7.6h-7.5V17zm11.3 0h7.6v7.6h-7.6V17zm11.4 0h7.6v7.6h-7.6V17zM84 17h7.5v7.6H84V17zm11.3 0h7.6v7.6h-7.6V17zm11.4 0h7.6v7.6h-7.6V17zm11.4 0h7.5v7.6h-7.5V17zm11.3 0h7.6v7.6h-7.6V17zm11.4 0h7.6v7.6h-7.6V17zm11.4 0h7.6v7.6h-7.6V17zm11.3 0h7.6v7.6h-7.6V17zm11.4 0h7.6v7.6h-7.6V17zm11.4 0h7.6v7.6h-7.6V17zm11.4 0h7.5v7.6h-7.5V17zm11.3 0h7.6v7.6H209V17zm11.4 0h7.6v7.6h-7.6V17zm11.3 0h7.6v7.6h-7.6V17zm11.4 0h7.6v7.6h-7.6V17zm11.4 0h7.6v7.6h-7.6V17zm11.4 0h7.5v7.6h-7.5V17zm11.3 0h7.6v7.6h-7.6V17zm11.4 0h7.6v7.6h-7.6V17zm11.4 0h7.5v7.6H300V17zm11.3 0h7.6v7.6h-7.6V17zm11.4 0h7.6v7.6h-7.6V17zm11.4 0h7.5v7.6h-7.5V17zm11.3 0h7.6v7.6h-7.6V17zm11.4 0h7.6v7.6h-7.6V17zm11.4 0h7.6v7.6h-7.6V17zM15.8 28.4h7.5V36h-7.5v-7.6zm11.3 0h7.6V36h-7.6v-7.6zm11.4 0h7.6V36h-7.6v-7.6zm11.4 0h7.5V36h-7.5v-7.6zm11.3 0h7.6V36h-7.6v-7.6zm11.4 0h7.6V36h-7.6v-7.6zm11.4 0h7.5V36H84v-7.6zm11.3 0h7.6V36h-7.6v-7.6zm11.4 0h7.6V36h-7.6v-7.6zm11.4 0h7.5V36h-7.5v-7.6zm11.3 0h7.6V36h-7.6v-7.6zm11.4 0h7.6V36h-7.6v-7.6zm11.4 0h7.6V36h-7.6v-7.6zm11.3 0h7.6V36h-7.6v-7.6zm11.4 0h7.6V36h-7.6v-7.6zm11.4 0h7.6V36h-7.6v-7.6zm11.4 0h7.5V36h-7.5v-7.6zm11.3 0h7.6V36H209v-7.6zm11.4 0h7.6V36h-7.6v-7.6zm11.3 0h7.6V36h-7.6v-7.6zm11.4 0h7.6V36h-7.6v-7.6zm11.4 0h7.6V36h-7.6v-7.6zm11.4 0h7.5V36h-7.5v-7.6zm11.3 0h7.6V36h-7.6v-7.6zm11.4 0h7.6V36h-7.6v-7.6zm11.4 0h7.5V36H300v-7.6zm11.3 0h7.6V36h-7.6v-7.6zm11.4 0h7.6V36h-7.6v-7.6zm11.4 0h7.5V36h-7.5v-7.6zm11.3 0h7.6V36h-7.6v-7.6zm11.4 0h7.6V36h-7.6v-7.6zm11.4 0h7.6V36h-7.6v-7.6zM15.8 39.8h7.5v7.5h-7.5v-7.5zm11.3 0h7.6v7.5h-7.6v-7.5zm11.4 0h7.6v7.5h-7.6v-7.5zm11.4 0h7.5v7.5h-7.5v-7.5zm11.3 0h7.6v7.5h-7.6v-7.5zm11.4 0h7.6v7.5h-7.6v-7.5zm11.4 0h7.5v7.5H84v-7.5zm11.3 0h7.6v7.5h-7.6v-7.5zm11.4 0h7.6v7.5h-7.6v-7.5zm11.4 0h7.5v7.5h-7.5v-7.5zm11.3 0h7.6v7.5h-7.6v-7.5zm11.4 0h7.6v7.5h-7.6v-7.5zm11.4 0h7.6v7.5h-7.6v-7.5zm11.3 0h7.6v7.5h-7.6v-7.5zm11.4 0h7.6v7.5h-7.6v-7.5zm11.4 0h7.6v7.5h-7.6v-7.5zm11.4 0h7.5v7.5h-7.5v-7.5zm11.3 0h7.6v7.5H209v-7.5zm11.4 0h7.6v7.5h-7.6v-7.5zm11.3 0h7.6v7.5h-7.6v-7.5zm11.4 0h7.6v7.5h-7.6v-7.5zm11.4 0h7.6v7.5h-7.6v-7.5zm11.4 0h7.5v7.5h-7.5v-7.5zm11.3 0h7.6v7.5h-7.6v-7.5zm11.4 0h7.6v7.5h-7.6v-7.5zm11.4 0h7.5v7.5H300v-7.5zm11.3 0h7.6v7.5h-7.6v-7.5zm11.4 0h7.6v7.5h-7.6v-7.5zm11.4 0h7.5v7.5h-7.5v-7.5zm11.3 0h7.6v7.5h-7.6v-7.5zm11.4 0h7.6v7.5h-7.6v-7.5zm11.4 0h7.6v7.5h-7.6v-7.5zM15.8 51.1h7.5v7.6h-7.5v-7.6zm11.3 0h7.6v7.6h-7.6v-7.6zm11.4 0h7.6v7.6h-7.6v-7.6zm11.4 0h7.5v7.6h-7.5v-7.6zm11.3 0h7.6v7.6h-7.6v-7.6zm11.4 0h7.6v7.6h-7.6v-7.6zm11.4 0h7.5v7.6H84v-7.6zm11.3 0h7.6v7.6h-7.6v-7.6zm11.4 0h7.6v7.6h-7.6v-7.6zm11.4 0h7.5v7.6h-7.5v-7.6zm11.3 0h7.6v7.6h-7.6v-7.6zm11.4 0h7.6v7.6h-7.6v-7.6zm11.4 0h7.6v7.6h-7.6v-7.6zm11.3 0h7.6v7.6h-7.6v-7.6zm11.4 0h7.6v7.6h-7.6v-7.6zm11.4 0h7.6v7.6h-7.6v-7.6zm11.4 0h7.5v7.6h-7.5v-7.6zm11.3 0h7.6v7.6H209v-7.6zm11.4 0h7.6v7.6h-7.6v-7.6zm11.3 0h7.6v7.6h-7.6v-7.6zm11.4 0h7.6v7.6h-7.6v-7.6zm11.4 0h7.6v7.6h-7.6v-7.6zm11.4 0h7.5v7.6h-7.5v-7.6zm11.3 0h7.6v7.6h-7.6v-7.6zm11.4 0h7.6v7.6h-7.6v-7.6zm11.4 0h7.5v7.6H300v-7.6zm11.3 0h7.6v7.6h-7.6v-7.6zm11.4 0h7.6v7.6h-7.6v-7.6zm11.4 0h7.5v7.6h-7.5v-7.6zm11.3 0h7.6v7.6h-7.6v-7.6zm11.4 0h7.6v7.6h-7.6v-7.6zm11.4 0h7.6v7.6h-7.6v-7.6zM15.8 62.5h7.5v7.6h-7.5v-7.6zm11.3 0h7.6v7.6h-7.6v-7.6zm11.4 0h7.6v7.6h-7.6v-7.6zm11.4 0h7.5v7.6h-7.5v-7.6z"/><path class="st6" d="M61.2 62.5h7.6v7.6h-7.6v-7.6z"/><path class="st5" d="M15.8 73.9h7.5v7.5h-7.5v-7.5zm11.3 0h7.6v7.5h-7.6v-7.5zm11.4 0h7.6v7.5h-7.6v-7.5zm11.4 0h7.5v7.5h-7.5v-7.5z"/><path class="st6" d="M61.2 73.9h7.6v7.5h-7.6v-7.5z"/><path class="st5" d="M15.8 85.2h7.5v7.6h-7.5v-7.6zm11.3 0h7.6v7.6h-7.6v-7.6zm11.4 0h7.6v7.6h-7.6v-7.6zm11.4 0h7.5v7.6h-7.5v-7.6z"/><path class="st6" d="M61.2 85.2h7.6v7.6h-7.6v-7.6z"/><path class="st5" d="M15.8 96.6h7.5v7.6h-7.5v-7.6zm11.3 0h7.6v7.6h-7.6v-7.6zm11.4 0h7.6v7.6h-7.6v-7.6zm11.4 0h7.5v7.6h-7.5v-7.6z"/><path class="st6" d="M61.2 96.6h7.6v7.6h-7.6v-7.6z"/><path class="st5" d="M15.8 108h7.5v7.5h-7.5V108zm11.3 0h7.6v7.5h-7.6V108zm11.4 0h7.6v7.5h-7.6V108zm11.4 0h7.5v7.5h-7.5V108z"/><path class="st6" d="M61.2 108h7.6v7.5h-7.6V108z"/><path class="st5" d="M15.8 119.3h7.5v7.6h-7.5v-7.6zm11.3 0h7.6v7.6h-7.6v-7.6zm11.4 0h7.6v7.6h-7.6v-7.6zm11.4 0h7.5v7.6h-7.5v-7.6z"/><path class="st6" d="M61.2 119.3h7.6v7.6h-7.6v-7.6z"/><path class="st5" d="M15.8 130.7h7.5v7.6h-7.5v-7.6zm11.3 0h7.6v7.6h-7.6v-7.6zm11.4 0h7.6v7.6h-7.6v-7.6zm11.4 0h7.5v7.6h-7.5v-7.6z"/><path class="st6" d="M61.2 130.7h7.6v7.6h-7.6v-7.6zm11.4-68.2h7.6v7.6h-7.6v-7.6zm11.4 0h7.5v7.6H84v-7.6zm11.3 0h7.6v7.6h-7.6v-7.6zm11.4 0h7.6v7.6h-7.6v-7.6zm11.4 0h7.5v7.6h-7.5v-7.6zm11.3 0h7.6v7.6h-7.6v-7.6zm11.4 0h7.6v7.6h-7.6v-7.6z"/><path class="st6" d="M140.8 62.5h7.6v7.6h-7.6v-7.6zM72.6 73.9h7.6v7.5h-7.6v-7.5zm11.4 0h7.5v7.5H84v-7.5zm11.3 0h7.6v7.5h-7.6v-7.5zm11.4 0h7.6v7.5h-7.6v-7.5zm11.4 0h7.5v7.5h-7.5v-7.5zm11.3 0h7.6v7.5h-7.6v-7.5zm11.4 0h7.6v7.5h-7.6v-7.5zM72.6 85.2h7.6v7.6h-7.6v-7.6zm11.4 0h7.5v7.6H84v-7.6zm11.3 0h7.6v7.6h-7.6v-7.6zm11.4 0h7.6v7.6h-7.6v-7.6zm11.4 0h7.5v7.6h-7.5v-7.6zm11.3 0h7.6v7.6h-7.6v-7.6zm11.4 0h7.6v7.6h-7.6v-7.6zM72.6 96.6h7.6v7.6h-7.6v-7.6zm11.4 0h7.5v7.6H84v-7.6zm11.3 0h7.6v7.6h-7.6v-7.6zm11.4 0h7.6v7.6h-7.6v-7.6zm11.4 0h7.5v7.6h-7.5v-7.6zm11.3 0h7.6v7.6h-7.6v-7.6zm11.4 0h7.6v7.6h-7.6v-7.6zM72.6 108h7.6v7.5h-7.6V108zm11.4 0h7.5v7.5H84V108zm11.3 0h7.6v7.5h-7.6V108zm11.4 0h7.6v7.5h-7.6V108zm11.4 0h7.5v7.5h-7.5V108zm11.3 0h7.6v7.5h-7.6V108zm11.4 0h7.6v7.5h-7.6V108zm-68.2 11.3h7.6v7.6h-7.6v-7.6zm11.4 0h7.5v7.6H84v-7.6zm11.3 0h7.6v7.6h-7.6v-7.6zm11.4 0h7.6v7.6h-7.6v-7.6zm11.4 0h7.5v7.6h-7.5v-7.6zm11.3 0h7.6v7.6h-7.6v-7.6zm11.4 0h7.6v7.6h-7.6v-7.6zm-68.2 11.4h7.6v7.6h-7.6v-7.6zm11.4 0h7.5v7.6H84v-7.6zm11.3 0h7.6v7.6h-7.6v-7.6zm11.4 0h7.6v7.6h-7.6v-7.6zm11.4 0h7.5v7.6h-7.5v-7.6zm11.3 0h7.6v7.6h-7.6v-7.6zm11.4 0h7.6v7.6h-7.6v-7.6z"/><path class="st7" d="M152.2 62.5h7.6v7.6h-7.6zm11.3 0h7.6v7.6h-7.6zm11.4 0h7.6v7.6h-7.6zm11.4 0h7.6v7.6h-7.6zm11.4 0h7.5v7.6h-7.5zm11.3 0h7.6v7.6H209v-7.6zm11.4 0h7.6v7.6h-7.6zm11.3 0h7.6v7.6h-7.6zm11.4 0h7.6v7.6h-7.6zm11.4 0h7.6v7.6h-7.6zm11.4 0h7.5v7.6h-7.5zm11.3 0h7.6v7.6h-7.6zm11.4 0h7.6v7.6h-7.6zm11.4 0h7.5v7.6H300v-7.6zM152.2 73.9h7.6v7.5h-7.6zm11.3 0h7.6v7.5h-7.6zm11.4 0h7.6v7.5h-7.6zm11.4 0h7.6v7.5h-7.6zm11.4 0h7.5v7.5h-7.5zm11.3 0h7.6v7.5H209v-7.5zm11.4 0h7.6v7.5h-7.6zm11.3 0h7.6v7.5h-7.6zm11.4 0h7.6v7.5h-7.6zm11.4 0h7.6v7.5h-7.6zm11.4 0h7.5v7.5h-7.5zm11.3 0h7.6v7.5h-7.6zm11.4 0h7.6v7.5h-7.6zm11.4 0h7.5v7.5H300v-7.5zM152.2 85.2h7.6v7.6h-7.6zm11.3 0h7.6v7.6h-7.6zm11.4 0h7.6v7.6h-7.6zm11.4 0h7.6v7.6h-7.6zm11.4 0h7.5v7.6h-7.5zm11.3 0h7.6v7.6H209v-7.6zm11.4 0h7.6v7.6h-7.6zm11.3 0h7.6v7.6h-7.6zm11.4 0h7.6v7.6h-7.6zm11.4 0h7.6v7.6h-7.6zm11.4 0h7.5v7.6h-7.5zm11.3 0h7.6v7.6h-7.6zm11.4 0h7.6v7.6h-7.6zm11.4 0h7.5v7.6H300v-7.6zM152.2 96.6h7.6v7.6h-7.6zm11.3 0h7.6v7.6h-7.6zm11.4 0h7.6v7.6h-7.6zm11.4 0h7.6v7.6h-7.6zm11.4 0h7.5v7.6h-7.5zm11.3 0h7.6v7.6H209v-7.6zm11.4 0h7.6v7.6h-7.6zm11.3 0h7.6v7.6h-7.6zm11.4 0h7.6v7.6h-7.6zm11.4 0h7.6v7.6h-7.6zm11.4 0h7.5v7.6h-7.5zm11.3 0h7.6v7.6h-7.6zm11.4 0h7.6v7.6h-7.6zm11.4 0h7.5v7.6H300v-7.6zM152.2 108h7.6v7.5h-7.6zm11.3 0h7.6v7.5h-7.6zm11.4 0h7.6v7.5h-7.6zm11.4 0h7.6v7.5h-7.6zm11.4 0h7.5v7.5h-7.5zm11.3 0h7.6v7.5H209V108zm11.4 0h7.6v7.5h-7.6zm11.3 0h7.6v7.5h-7.6zm11.4 0h7.6v7.5h-7.6zm11.4 0h7.6v7.5h-7.6zm11.4 0h7.5v7.5h-7.5zm11.3 0h7.6v7.5h-7.6zm11.4 0h7.6v7.5h-7.6zm11.4 0h7.5v7.5H300V108zm-147.8 11.3h7.6v7.6h-7.6zm11.3 0h7.6v7.6h-7.6zm11.4 0h7.6v7.6h-7.6zm11.4 0h7.6v7.6h-7.6zm11.4 0h7.5v7.6h-7.5zm11.3 0h7.6v7.6H209v-7.6zm11.4 0h7.6v7.6h-7.6zm11.3 0h7.6v7.6h-7.6zm11.4 0h7.6v7.6h-7.6zm11.4 0h7.6v7.6h-7.6zm11.4 0h7.5v7.6h-7.5zm11.3 0h7.6v7.6h-7.6zm11.4 0h7.6v7.6h-7.6zm11.4 0h7.5v7.6H300v-7.6zm-147.8 11.4h7.6v7.6h-7.6zm11.3 0h7.6v7.6h-7.6zm11.4 0h7.6v7.6h-7.6zm11.4 0h7.6v7.6h-7.6zm11.4 0h7.5v7.6h-7.5zm11.3 0h7.6v7.6H209v-7.6zm11.4 0h7.6v7.6h-7.6zm11.3 0h7.6v7.6h-7.6zm11.4 0h7.6v7.6h-7.6zm11.4 0h7.6v7.6h-7.6zm11.4 0h7.5v7.6h-7.5zm11.3 0h7.6v7.6h-7.6zm11.4 0h7.6v7.6h-7.6zm11.4 0h7.5v7.6H300v-7.6zm11.3-68.2h7.6v7.6h-7.6zm11.4 0h7.6v7.6h-7.6zm11.4 0h7.5v7.6h-7.5zm11.3 0h7.6v7.6h-7.6zm11.4 0h7.6v7.6h-7.6zm11.4 0h7.6v7.6h-7.6zm-56.9 11.4h7.6v7.5h-7.6zm11.4 0h7.6v7.5h-7.6zm11.4 0h7.5v7.5h-7.5zm11.3 0h7.6v7.5h-7.6zm11.4 0h7.6v7.5h-7.6zm11.4 0h7.6v7.5h-7.6zm-56.9 11.3h7.6v7.6h-7.6zm11.4 0h7.6v7.6h-7.6zm11.4 0h7.5v7.6h-7.5zm11.3 0h7.6v7.6h-7.6zm11.4 0h7.6v7.6h-7.6zm11.4 0h7.6v7.6h-7.6zm-56.9 11.4h7.6v7.6h-7.6zm11.4 0h7.6v7.6h-7.6zm11.4 0h7.5v7.6h-7.5zm11.3 0h7.6v7.6h-7.6zm11.4 0h7.6v7.6h-7.6zm11.4 0h7.6v7.6h-7.6zM311.3 108h7.6v7.5h-7.6zm11.4 0h7.6v7.5h-7.6zm11.4 0h7.5v7.5h-7.5zm11.3 0h7.6v7.5h-7.6zm11.4 0h7.6v7.5h-7.6zm11.4 0h7.6v7.5h-7.6zm-56.9 11.3h7.6v7.6h-7.6zm11.4 0h7.6v7.6h-7.6zm11.4 0h7.5v7.6h-7.5zm11.3 0h7.6v7.6h-7.6zm11.4 0h7.6v7.6h-7.6zm11.4 0h7.6v7.6h-7.6zm-56.9 11.4h7.6v7.6h-7.6zm11.4 0h7.6v7.6h-7.6zm11.4 0h7.5v7.6h-7.5zm11.3 0h7.6v7.6h-7.6zm11.4 0h7.6v7.6h-7.6zm11.4 0h7.6v7.6h-7.6z"/><path class="st5" d="M15.8 142.1h7.5v7.5h-7.5v-7.5zm11.3 0h7.6v7.5h-7.6v-7.5zm11.4 0h7.6v7.5h-7.6v-7.5zm11.4 0h7.5v7.5h-7.5v-7.5zm11.3 0h7.6v7.5h-7.6v-7.5zm11.4 0h7.6v7.5h-7.6v-7.5zm11.4 0h7.5v7.5H84v-7.5zm11.3 0h7.6v7.5h-7.6v-7.5zm11.4 0h7.6v7.5h-7.6v-7.5zm11.4 0h7.5v7.5h-7.5v-7.5zm11.3 0h7.6v7.5h-7.6v-7.5zm11.4 0h7.6v7.5h-7.6v-7.5zm11.4 0h7.6v7.5h-7.6v-7.5zm11.3 0h7.6v7.5h-7.6v-7.5zm11.4 0h7.6v7.5h-7.6v-7.5zm11.4 0h7.6v7.5h-7.6v-7.5zm11.4 0h7.5v7.5h-7.5v-7.5zm11.3 0h7.6v7.5H209v-7.5zm11.4 0h7.6v7.5h-7.6v-7.5zm11.3 0h7.6v7.5h-7.6v-7.5zm11.4 0h7.6v7.5h-7.6v-7.5zm11.4 0h7.6v7.5h-7.6v-7.5zm11.4 0h7.5v7.5h-7.5v-7.5zm11.3 0h7.6v7.5h-7.6v-7.5zm11.4 0h7.6v7.5h-7.6v-7.5zm11.4 0h7.5v7.5H300v-7.5zm11.3 0h7.6v7.5h-7.6v-7.5zm11.4 0h7.6v7.5h-7.6v-7.5zm11.4 0h7.5v7.5h-7.5v-7.5zm11.3 0h7.6v7.5h-7.6v-7.5zm11.4 0h7.6v7.5h-7.6v-7.5zm11.4 0h7.6v7.5h-7.6v-7.5zM15.8 153.4h7.5v7.6h-7.5v-7.6zm11.3 0h7.6v7.6h-7.6v-7.6zm11.4 0h7.6v7.6h-7.6v-7.6zm11.4 0h7.5v7.6h-7.5v-7.6zm11.3 0h7.6v7.6h-7.6v-7.6zm11.4 0h7.6v7.6h-7.6v-7.6zm11.4 0h7.5v7.6H84v-7.6zm11.3 0h7.6v7.6h-7.6v-7.6zm11.4 0h7.6v7.6h-7.6v-7.6zm11.4 0h7.5v7.6h-7.5v-7.6zm11.3 0h7.6v7.6h-7.6v-7.6zm11.4 0h7.6v7.6h-7.6v-7.6zm11.4 0h7.6v7.6h-7.6v-7.6zm11.3 0h7.6v7.6h-7.6v-7.6zm11.4 0h7.6v7.6h-7.6v-7.6zm11.4 0h7.6v7.6h-7.6v-7.6zm11.4 0h7.5v7.6h-7.5v-7.6zm11.3 0h7.6v7.6H209v-7.6zm11.4 0h7.6v7.6h-7.6v-7.6zm11.3 0h7.6v7.6h-7.6v-7.6zm11.4 0h7.6v7.6h-7.6v-7.6zm11.4 0h7.6v7.6h-7.6v-7.6zm11.4 0h7.5v7.6h-7.5v-7.6zm11.3 0h7.6v7.6h-7.6v-7.6zm11.4 0h7.6v7.6h-7.6v-7.6zm11.4 0h7.5v7.6H300v-7.6zm11.3 0h7.6v7.6h-7.6v-7.6zm11.4 0h7.6v7.6h-7.6v-7.6zm11.4 0h7.5v7.6h-7.5v-7.6zm11.3 0h7.6v7.6h-7.6v-7.6zm11.4 0h7.6v7.6h-7.6v-7.6zm11.4 0h7.6v7.6h-7.6v-7.6z"/><path class="st0" d="M7.2 27.2h3.5v8.5H7.2v-8.5z"/><text transform="translate(7.17 35.406)" class="st1 st4">1</text><path class="st0" d="M7.3 38.5h3.5V47H7.3v-8.5z"/><text transform="translate(7.265 46.775)" class="st1 st4">2</text><path class="st0" d="M7.3 49.9h3.5v8.5H7.3v-8.5z"/><text transform="translate(7.265 58.144)" class="st1 st4">3</text><path class="st0" d="M7.3 61.3h3.5v8.5H7.3v-8.5z"/><text transform="translate(7.265 69.512)" class="st1 st4">4</text><path class="st0" d="M7.3 72.6h3.5v8.5H7.3v-8.5z"/><text transform="translate(7.265 80.88)" class="st1 st4">5</text><path class="st0" d="M7.3 84h3.5v8.5H7.3V84z"/><text transform="translate(7.265 92.25)" class="st1 st4">6</text><path class="st0" d="M7.3 95.4h3.5v8.5H7.3v-8.5z"/><text transform="translate(7.265 103.618)" class="st1 st4">7</text><path class="st0" d="M7.3 106.7h3.5v8.5H7.3v-8.5z"/><text transform="translate(7.265 114.987)" class="st1 st4">8</text><path class="st0" d="M7.3 118.1h3.5v8.5H7.3v-8.5z"/><text transform="translate(7.265 126.355)" class="st1 st4">9</text><path class="st0" d="M3.8 129.5h6.9v8.5H3.8v-8.5z"/><text transform="translate(3.81 137.724)" class="st1 st4">10</text><path class="st0" d="M4.2 140.9h6.5v8.5H4.2v-8.5z"/><text transform="translate(4.212 149.093)" class="st1 st4">1</text><text transform="translate(7.312 149.093)" class="st1 st4">1</text><path class="st0" d="M3.8 152.2h6.9v8.5H3.8v-8.5z"/><text transform="translate(3.81 160.46)" class="st1 st4">12</text><path class="st0" d="M3.8 220.4h6.9v8.5H3.8v-8.5zm0 11.4h6.9v8.5H3.8v-8.5z"/><path d="M150.4 60.5h223.5v80.1H150.4V60.5z" fill="none" stroke="#000" stroke-miterlimit="10"/><path d="M.7 168.8h377v-153h-7.4l-.1 3.7 3.7 32.7-3.7 68.2 1.9 42.6-47.4-1.4-75.8 1.9-83.4-1.9L31 163.1l-30.5-.4.2 6.1z" fill-rule="evenodd" clip-rule="evenodd" fill="#fff"/><path d="M400.9 151.4H288m112.9-62.2H284.8" fill="none" stroke="#000" stroke-width="1.417" stroke-miterlimit="10"/><path class="st7" d="M408.2 31.9h12.9v12.8h-12.9z"/><text transform="translate(428.462 43.203)" class="st1 st2">= ROI effective</text><path class="st6" d="M408.2 9.8h12.9v12.8h-12.9V9.8z"/><text transform="translate(428.462 21.063)" class="st1 st2">= Spacing</text></svg>