<svg version="1.1" id="Ebene_1" xmlns="http://www.w3.org/2000/svg" x="0" y="0" viewBox="0 0 1199 389.9" style="background-color:#fff" xml:space="preserve"><style>.st1,.st2,.st3{fill:none;stroke:#000;stroke-linecap:round;stroke-linejoin:round}.st1{stroke-miterlimit:10;stroke-width:.4252}.st2{stroke-width:.2835}.st3{stroke-width:.283;stroke-miterlimit:10}.st5{font-family:Helvetica,Arial,sans-serif}.st6{font-size:14px}</style><g id="BCL-150x15x"><path class="st1" d="M241.8 270.3v-9.9M208.5 237h9.9m70.4 23.4l.1.5.1 1-.1 1.4-.3 1.4-.5 1.5m0 0l-.5 1.1-.1 1.2.1.9.2.7v.2m-3.5-.1l-.1-.5-.1-1 .1-1.4.3-1.5.5-1.2m0 0l.5-1.2.1-1.1-.1-.9-.2-.7-.1-.3m62.4-56v1.4m0-1.4h4.7m-4.7 82.5v1.4m0 0h4.6m-4.6-1.4v-6.2m0-68.6v-6.3m0 6.3v1.4m0 65.7v1.5m4.7-67.2h-4.7m0 65.7v-65.7m186.8-7.7v81.1m0-81.1v-1.4m-4.5 0h4.5m-4.5 83.9h4.5m0 0v-1.4m-4.5-52.6v1.4m-177.7 0v-1.4M529.9 223v1.4m-177.7 0V223m177.7-5.7v1.4m-177.7 0v-1.4m177.7 25.5v1.4m-177.7 0v-1.4m177.7-2.8v1.4m-177.7 0V240m177.7-25.5v1.4m-177.7 0v-1.4m177.7 14.1v1.5m-177.7 0v-1.5m177.7-2.8v1.4m-177.7 0v-1.4M529.9 257v1.4m-177.7 0V257m177.7-5.7v1.4m-177.7 0v-1.4m177.7 2.9v1.4m-177.7 0v-1.4m177.7-34.1v1.5m-177.7 0v-1.5m177.7 17v1.5m-177.7 0v-1.5m177.7 11.4v1.4m-177.7 0v-1.4m177.7-2.8v1.4m-177.7 0v-1.4m177.7-14.2v1.4m-177.7 0v-1.4m177.7 28.3v1.4m-177.7 0v-1.4m177.7 2.9v1.4m-177.7 0v-1.4m177.7 2.8v1.4m-177.7 0v-1.4m177.7 8.5v1.4m-177.7 0V274m177.7-5.7v1.4m-177.7 0v-1.4m177.7 2.9v1.4m-177.7 0v-1.4m177.7 5.6v1.5m-177.7 0v-1.5m177.7-45.3v-1.4m0 0H352.2m0 0v1.4m177.7-8.5v-1.4m0 0H352.2m0 0v1.4m177.7 5.6v-1.4m0 0H352.2m0 0v1.4m177.7-8.5v-1.4m0 0H352.2m0 0v1.4m177.7-5.6v-9.2m-177.7 9.2v-9.2m177.7 20.5v-1.4m0 0H352.2m0 0v1.4m177.7-20.5v-1.5m-177.7 0v1.5m177.7 0H352.2m0-1.5h177.7m0 33.3v-1.4m0 0H352.2m0 0v1.4m177.7-2.8v-1.4m0 0H352.2m0 0v1.4m177.7 5.7v-1.4m0 0H352.2m0 0v1.4m177.7-22.7v-1.4m0 0H352.2m0 0v1.4m177.7 25.5v-1.4m0 0H352.2m0 0v1.4m177.7 2.9v-1.5m0 0H352.2m0 0v1.5m177.7 9.9v1.4m-177.7-1.4h177.7M352.2 257v-1.4m177.7 5.6v1.5m-177.7-1.5h177.7m-177.7 1.5v-1.5m177.7-8.5v1.5m-177.7-1.5h177.7m-177.7 1.5v-1.5m177.7 5.7v1.4m-177.7-1.4h177.7m-177.7 1.4v-1.4m177.7-11.3v1.4m-177.7-1.4h177.7m-177.7 1.4v-1.4m177.7 2.8v1.4m-177.7-1.4h177.7m-177.7 1.4v-1.4m177.7 22.7v1.4m-177.7-1.4h177.7M352.2 274v-1.4m177.7-8.5v1.4m-177.7-1.4h177.7m-177.7 1.4v-1.4m177.7 2.8v1.4m-177.7-1.4h177.7m-177.7 1.4v-1.4m177.7 8.5v1.4m-177.7-1.4h177.7m-177.7 1.4v-1.4m177.7-5.7v1.5m-177.7-1.5h177.7m-177.7 1.5v-1.5m177.7 19.2v-1.4m-177.7 0v1.4m0 0h177.7m-177.7-1.4v-9.2m177.7 9.2v-9.2m-177.7 0h177.7m5.4-4.3h-.9m.9-48.2h-.9m.9 0V274m-187.7-13.6h-58.8m-1 9.9h59.8m-62.4-9.9h-43.4m0 9.9h42.5M218.4 237v-75.2m-9.9-1.3V237m0 0l.2 3.7.6 3.7 1.1 3.6 1.4 3.4 1.8 3.3 2.2 3.1 2.4 2.7 2.8 2.5 3.1 2.2 3.2 1.8 3.5 1.4 3.6 1.1 3.7.6 3.7.2m0-9.9l-3.1-.2-3-.6-2.9-1-2.7-1.4-2.5-1.7-2.3-2-2.1-2.3-1.7-2.5-1.3-2.8-1-2.9-.6-3-.2-3m784.7 37.4v-49m4.6-4.5h1.7m-2.3 4.2v-4.2m0 0h2.9m-3.7-.9l.8.9m2.9 4.2h-2.9m-.8.9l.8-.9m2.9-4.2v4.2m.8.9l-.8-.9m0-4.2l.8-.9m-4.5 6v-6m0 0h4.5m0 0v6m0 0h-4.5m-26.1-.6h23.2m0 0v49m0 0h-23.2m0 0v-49m45.2-20.1v82.2m-1.4-83.7l.3.1.2.1.3.1.2.2.2.2.1.2.1.3v.3m-5-1.5h3.6m-3.6 0v.6h-1.4v-.6m-1.4 0h1.4m-1.4 0v.6h-1.4v-.6m-10.6 0h10.6m-10.6 0v.6h-1.5v-.6m-1.4 0h1.4m-1.4 0v.6h-1.4v-.6m-1.4 0h1.4m-1.4 0v.6h-1.4v-.6m-1.5 0h1.5m-1.5 0v.6h-1.4v-.6m-1.4 0h1.4m-1.4 0v.6h-1.4v-.6m-8.9 0h8.9m-8.9 0v.6h-7.4v-.6m-6.4 0h6.4m-7.8 1.5v-.3l.1-.3.1-.2.2-.2.2-.2.3-.1.2-.1.3-.1m-1.4 10.7v-9.2m0 9.2h.7m0 0h.3l.2.2.2.2v.6l-.2.2-.2.1-.3.1m0 0h-.7m0 1.4v-1.4m0 1.4h.7m0 0l.3.1.2.1.2.2v.6l-.2.2-.2.2h-.3m0 0h-.7m0 1.4v-1.4m0 1.4h.7m0 0l.3.1.2.1.2.3v.5l-.2.3-.2.1-.3.1m0 0h-.7m0 1.4v-1.4m0 1.4h.7m0 0h.3l.2.2.2.2v.6l-.2.2-.2.1-.3.1m0 0h-.7m0 1.4v-1.4m0 1.4h.7m0 0l.3.1.2.1.2.2v.6l-.2.2-.2.2h-.3m0 0h-.7m0 1.4v-1.4m0 1.4h.7m0 0l.3.1.2.2.2.2v.5l-.2.3-.2.1-.3.1m0 0h-.7m0 1.4v-1.4m0 1.4h.7m0 0h.3l.2.2.2.2v.6l-.2.2-.2.1-.3.1m0 0h-.7m0 1.4v-1.4m0 1.4h.7m0 0l.3.1.2.1.2.3v.5l-.2.2-.2.2h-.3m0 0h-.7m0 1.4v-1.4m0 1.4h.7m0 0l.3.1.2.2.2.2v.5l-.2.3-.2.1-.3.1m0 0h-.7m0 1.4v-1.4m0 1.4h.7m0 0h.3l.2.2.2.2v.6l-.2.2-.2.1-.3.1m0 0h-.7m0 1.4v-1.4m0 1.4h.7m0 0l.3.1.2.1.2.3v.5l-.2.2-.2.2h-.3m0 0h-.7m0 1.5v-1.5m0 1.5h.7m0 0h.3l.2.2.2.2v.5l-.2.3-.2.1-.3.1m-.7 0h.7m-.7 0v1.4m.7 0h-.7m.7 0h.3l.2.2.2.2v.6l-.2.2-.2.2h-.3m-.7 0h.7m-.7 0v1.4m.7 0h-.7m.7 0l.3.1.2.1.2.3v.5l-.2.2-.2.2h-.3m-.7 0h.7m-.7 0v1.5m.7 0h-.7m.7 0h.3l.2.2.2.2v.5l-.2.3-.2.1-.3.1m-.7 0h.7m-.7 0v1.4m.7 0h-.7m.7 0h.3l.2.2.2.2v.6l-.2.2-.2.2h-.3m-.7 0h.7m-.7 0v1.4m.7 0h-.7m.7 0l.3.1.2.1.2.3v.5l-.2.2-.2.2h-.3m-.7 0h.7m-.7 0v1.5m.7 0h-.7m.7 0h.3l.2.2.2.2v.5l-.2.3-.2.1-.3.1m-.7 0h.7m-.7 0v1.4m.7 0h-.7m.7 0l.3.1.2.1.2.2v.6l-.2.2-.2.2h-.3m-.7 0h.7m-.7 0v1.4m.7 0h-.7m.7 0l.3.1.2.1.2.3v.5l-.2.2-.2.2h-.3m-.7 0h.7m-.7 0v1.5m.7 0h-.7m.7 0h.3l.2.2.2.2v.5l-.2.3-.2.1-.3.1m-.7 0h.7m-.7 0v1.4m.7 0h-.7m.7 0l.3.1.2.1.2.2v.6l-.2.2-.2.2h-.3m-.7 0h.7m-.7 0v1.4m.7 0h-.7m.7 0l.3.1.2.1.2.3v.5l-.2.2-.2.2-.3.1m-.7 0h.7m-.7 9.2v-9.2m1.4 10.6h-.3l-.2-.1-.3-.2-.2-.1-.2-.2-.1-.3-.1-.3v-.2m7.8 1.4h-6.4m13.8 0v-.6h-7.4v.6m16.3 0h-8.9m10.3 0v-.6h-1.4v.6m1.4 0h1.4m1.4 0v-.6h-1.4v.6m1.4 0h1.5m1.4 0v-.6h-1.4v.6m1.4 0h1.4m1.4 0v-.6h-1.4v.6m1.4 0h1.4m1.5 0v-.6h-1.5v.6m12.1 0h-10.6m12 0v-.6h-1.4v.6m1.4 0h1.4m1.4 0v-.6h-1.4v.6m1.4 0h3.6m1.4-1.4v.2l-.1.3-.1.3-.2.2-.2.1-.3.2-.2.1h-.3m-43.4-63.1h-.4m20.8 6.4v-2.8m0 0v2.8m0-3.6v4.3m-3.4 31.2h3.4m0 3.5v-2.8m0 0v2.8m0-3.5v4.2m-20.4-42.5V274m17-5v2.2m0-2.9v-4.2m0-31.2v-4.3m0 0v2.2m0 0v2.8m0 0v4.3m0 0v2.8m0 0v4.2m0 0v2.9m0 0v4.2m0 0v2.9m0 0v4.2m0 0v2.9m0 0v4.2m0 0v2.8m0-40.4h3.4m-15.1 0h11.7m0 4.3v31.2m3.4 0h-3.4m3.4 4.2v-4.2m-3.4 4.2h3.4m-3.4 0v2.9m0 0h-11.7m0-2.2v2.2m0-9.2v4.2m0-11.3v4.2m0-11.3v4.2m0-11.3v4.2m0-11.3v4.3m0-9.3v2.2m0-2.2h15.1m0 4.3v-4.3m-3.4 4.3h3.4m2-7.1h-22.4m14 0h8.5M980.6 274h22.5m-9-40.4h3.5m0-2.8h-3.5m0 2.8h3.5m-11.7 0h3.9m-3.9 0h3.9m0-2.8h-3.9m-1.9 2.8v1.4m1.9-4.2H984m0-1.4h-1.7m1.7 0v1.4m0 2.8h1.9M984 235v-1.4m-1.7 1.4h1.7m-1.7 0v-5.6m1.7 0h-1.7m1.7 1.4v-1.4m1.9 1.4H984"/><circle class="st1" cx="992" cy="232.2" r="2.6"/><circle class="st1" cx="992" cy="232.2" r="1.7"/><path class="st1" d="M991 231.2h2v2h-2v-2zm3.1 37.8h3.5m0-2.8h-3.5m0 2.8h3.5m-11.7 0h3.9m-3.9 0h3.9m0-2.8h-3.9M984 269v1.4m1.9-4.2H984m0-1.4h-1.7m1.7 0v1.4m0 2.8h1.9m-1.9 1.4V269m-1.7 1.4h1.7m-1.7 0v-5.6m1.7 0h-1.7m1.7 1.4v-1.4m1.9 1.4H984"/><circle class="st1" cx="992" cy="267.6" r="2.6"/><circle class="st1" cx="992" cy="267.6" r="1.7"/><path class="st1" d="M991 266.7h2v2h-2v-2zm3.1-4.7h3.5m0-2.8h-3.5m0 2.8h3.5m-11.7 0h3.9m-3.9 0h3.9m0-2.8h-3.9M984 262v1.4m1.9-4.2H984m0-1.4h-1.7m1.7 0v1.4m0 2.8h1.9m-1.9 1.4V262m-1.7 1.4h1.7m-1.7 0v-5.6m1.7 0h-1.7m1.7 1.4v-1.4m1.9 1.4H984"/><circle class="st1" cx="992" cy="260.6" r="2.6"/><circle class="st1" cx="992" cy="260.6" r="1.7"/><path class="st1" d="M991 259.6h2v2h-2v-2zm3.1-4.7h3.5m0-2.8h-3.5m0 2.8h3.5m-11.7 0h3.9m-3.9 0h3.9m0-2.8h-3.9m-1.9 2.8v1.4m1.9-4.2H984m0-1.4h-1.7m1.7 0v1.4m0 2.8h1.9m-1.9 1.4v-1.4m-1.7 1.4h1.7m-1.7 0v-5.6m1.7 0h-1.7m1.7 1.4v-1.4m1.9 1.4H984"/><circle class="st1" cx="992" cy="253.5" r="2.6"/><circle class="st1" cx="992" cy="253.5" r="1.7"/><path class="st1" d="M991 252.5h2v2h-2v-2zm3.1-4.7h3.5m0-2.8h-3.5m0 2.8h3.5m-11.7 0h3.9m-3.9 0h3.9m0-2.8h-3.9m-1.9 2.8v1.4m1.9-4.2H984m0-1.4h-1.7m1.7 0v1.4m0 2.8h1.9m-1.9 1.4v-1.4m-1.7 1.4h1.7m-1.7 0v-5.6m1.7 0h-1.7m1.7 1.4v-1.4m1.9 1.4H984"/><circle class="st1" cx="992" cy="246.4" r="2.6"/><circle class="st1" cx="992" cy="246.4" r="1.7"/><path class="st1" d="M991 245.4h2v2h-2v-2zm3.1-4.7h3.5m0-2.8h-3.5m0 2.8h3.5m-11.7 0h3.9m-3.9 0h3.9m0-2.8h-3.9m-1.9 2.8v1.4m1.9-4.2H984m0-1.4h-1.7m1.7 0v1.4m0 2.8h1.9m-1.9 1.4v-1.4m-1.7 1.4h1.7m-1.7 0v-5.6m1.7 0h-1.7m1.7 1.4v-1.4m1.9 1.4H984"/><circle class="st1" cx="992" cy="239.3" r="2.6"/><circle class="st1" cx="992" cy="239.3" r="1.7"/><path class="st1" d="M991 238.3h2v2h-2v-2zm-10.4-12.5v48.6M225.4 105.1h428.1m-428.1 7.1h428.1m-428.1 42.5h428.1m-428.1 7.1h428.1M226.8 125v-12.8m0 42.5V142m425.3-17.1v-12.7m0 42.5V142m18.4-35.5v53.9m0 0l-1.4 1.4m-15.6-56.7h15.6m-15.6 0v56.7m0 0h15.6m0-56.7l1.4 1.4m-19.8 35.3v-16.7m-422.5 16.7v-16.7m-18.4-20l-1.4 1.4m0 0v53.9m17-55.3h-15.6m-1.4 55.3l1.4 1.4m15.6 0h-15.6m15.6-56.7v56.7M650.7 142h2.8m0-17h-2.8m-425.3 17h2.8m0-17h-2.8m810.2 35.4v1.4m-17 0v-1.4m17 1.4h-17m17-55.3v53.9m-17 0v-53.9m0 53.9h17m0-55.3v1.4m-17 0v-1.4m17 1.4h-17m0-1.4h17m-17 55.3v1.4m-39.7-1.4v1.4m0 0h39.7m0-1.4v-53.9m0 53.9h-39.7m0-53.9v53.9m39.7-53.9v-1.4m0 0h-39.7m0 0v1.4m0 0h39.7m0 97.3v-42m-9.9 0v42"/><circle class="st1" cx="1007.4" cy="133.9" r="3.4"/><path class="st1" d="M1003.1 134.9c-.1-.3-.1-.7-.1-1.1 0-2.4 2-4.3 4.4-4.3s4.4 1.9 4.4 4.3-2 4.3-4.4 4.3c-.4 0-.7 0-1.1-.1"/><circle class="st1" cx="215.4" cy="122.1" r="6.4"/><circle class="st1" cx="215.4" cy="122.1" r="5"/><path class="st1" d="M216.8 119.6H214l-1.3 2.5 1.3 2.4h2.8l1.4-2.4-1.4-2.5z"/><circle class="st1" cx="215.4" cy="145" r="6.4"/><circle class="st1" cx="215.4" cy="145" r="5"/><path class="st1" d="M216.8 142.5H214l-1.3 2.5 1.3 2.4h2.8l1.4-2.4-1.4-2.5z"/><circle class="st1" cx="216.9" cy="133.4" r="1.8"/><path class="st1" d="M214.1 134.1c-.1-.2-.1-.5-.1-.7 0-1.6 1.3-2.8 2.8-2.8s2.8 1.3 2.8 2.8-1.3 2.8-2.8 2.8c-.2 0-.5 0-.7-.1"/><circle class="st1" cx="663.3" cy="122.1" r="6.4"/><circle class="st1" cx="663.3" cy="122.1" r="5"/><path class="st1" d="M661.9 119.6h2.7l1.4 2.5-1.4 2.4h-2.7l-1.4-2.4 1.4-2.5z"/><circle class="st1" cx="663.3" cy="145" r="6.4"/><circle class="st1" cx="663.3" cy="145" r="5"/><path class="st1" d="M661.9 142.5h2.7l1.4 2.5-1.4 2.4h-2.7l-1.4-2.4 1.4-2.5z"/><circle class="st1" cx="661.8" cy="133.4" r="1.8"/><path class="st1" d="M659 134.1c-.1-.2-.1-.5-.1-.7 0-1.6 1.3-2.8 2.8-2.8s2.8 1.3 2.8 2.8-1.3 2.8-2.8 2.8c-.2 0-.5 0-.7-.1"/><circle class="st1" cx="503.3" cy="120.7" r="5.4"/><circle class="st1" cx="503.3" cy="120.7" r="4"/><circle class="st1" cx="503.3" cy="146.3" r="5.4"/><circle class="st1" cx="503.3" cy="146.3" r="4"/><circle class="st1" cx="503.3" cy="133.5" r="5.4"/><circle class="st1" cx="503.3" cy="133.5" r="4"/><circle class="st1" cx="517.4" cy="120.7" r="5.4"/><circle class="st1" cx="517.4" cy="120.7" r="4"/><circle class="st1" cx="517.4" cy="146.3" r="5.4"/><circle class="st1" cx="517.4" cy="146.3" r="4"/><circle class="st1" cx="517.4" cy="133.5" r="5.4"/><circle class="st1" cx="517.4" cy="133.5" r="4"/><circle class="st1" cx="531.6" cy="120.7" r="5.4"/><circle class="st1" cx="531.6" cy="120.7" r="4"/><circle class="st1" cx="531.6" cy="146.3" r="5.4"/><circle class="st1" cx="531.6" cy="146.3" r="4"/><circle class="st1" cx="531.6" cy="133.5" r="5.4"/><circle class="st1" cx="531.6" cy="133.5" r="4"/><circle class="st1" cx="545.8" cy="120.7" r="5.4"/><circle class="st1" cx="545.8" cy="120.7" r="4"/><circle class="st1" cx="545.8" cy="146.3" r="5.4"/><circle class="st1" cx="545.8" cy="146.3" r="4"/><circle class="st1" cx="545.8" cy="133.5" r="5.4"/><circle class="st1" cx="545.8" cy="133.5" r="4"/><circle class="st1" cx="560" cy="120.7" r="5.4"/><circle class="st1" cx="560" cy="120.7" r="4"/><circle class="st1" cx="560" cy="146.3" r="5.4"/><circle class="st1" cx="560" cy="146.3" r="4"/><circle class="st1" cx="560" cy="133.5" r="5.4"/><circle class="st1" cx="560" cy="133.5" r="4"/><circle class="st1" cx="574.1" cy="120.7" r="5.4"/><circle class="st1" cx="574.1" cy="120.7" r="4"/><circle class="st1" cx="574.1" cy="146.3" r="5.4"/><circle class="st1" cx="574.1" cy="146.3" r="4"/><circle class="st1" cx="574.1" cy="133.5" r="5.4"/><circle class="st1" cx="574.1" cy="133.5" r="4"/><circle class="st1" cx="588.3" cy="120.7" r="5.4"/><circle class="st1" cx="588.3" cy="120.7" r="4"/><circle class="st1" cx="588.3" cy="146.3" r="5.4"/><circle class="st1" cx="588.3" cy="146.3" r="4"/><circle class="st1" cx="588.3" cy="133.5" r="5.4"/><circle class="st1" cx="588.3" cy="133.5" r="4"/><circle class="st1" cx="602.5" cy="120.7" r="5.4"/><circle class="st1" cx="602.5" cy="120.7" r="4"/><circle class="st1" cx="602.5" cy="146.3" r="5.4"/><circle class="st1" cx="602.5" cy="146.3" r="4"/><circle class="st1" cx="602.5" cy="133.5" r="5.4"/><circle class="st1" cx="602.5" cy="133.5" r="4"/><circle class="st1" cx="616.7" cy="120.7" r="5.4"/><circle class="st1" cx="616.7" cy="120.7" r="4"/><circle class="st1" cx="616.7" cy="146.3" r="5.4"/><circle class="st1" cx="616.7" cy="146.3" r="4"/><circle class="st1" cx="616.7" cy="133.5" r="5.4"/><circle class="st1" cx="616.7" cy="133.5" r="4"/><circle class="st1" cx="630.8" cy="120.7" r="5.4"/><circle class="st1" cx="630.8" cy="120.7" r="4"/><circle class="st1" cx="630.8" cy="146.3" r="5.4"/><circle class="st1" cx="630.8" cy="146.3" r="4"/><circle class="st1" cx="630.8" cy="133.5" r="5.4"/><circle class="st1" cx="630.8" cy="133.5" r="4"/><circle class="st1" cx="645" cy="120.7" r="5.4"/><circle class="st1" cx="645" cy="120.7" r="4"/><circle class="st1" cx="645" cy="146.3" r="5.4"/><circle class="st1" cx="645" cy="146.3" r="4"/><circle class="st1" cx="645" cy="133.5" r="5.4"/><circle class="st1" cx="645" cy="133.5" r="4"/><circle class="st1" cx="489.1" cy="120.7" r="5.4"/><circle class="st1" cx="489.1" cy="120.7" r="4"/><circle class="st1" cx="489.1" cy="146.3" r="5.4"/><circle class="st1" cx="489.1" cy="146.3" r="4"/><circle class="st1" cx="489.1" cy="133.5" r="5.4"/><circle class="st1" cx="489.1" cy="133.5" r="4"/><circle class="st1" cx="474.9" cy="120.7" r="5.4"/><circle class="st1" cx="474.9" cy="120.7" r="4"/><circle class="st1" cx="474.9" cy="146.3" r="5.4"/><circle class="st1" cx="474.9" cy="146.3" r="4"/><circle class="st1" cx="474.9" cy="133.5" r="5.4"/><circle class="st1" cx="474.9" cy="133.5" r="4"/><circle class="st1" cx="460.7" cy="120.7" r="5.4"/><circle class="st1" cx="460.7" cy="120.7" r="4"/><circle class="st1" cx="460.7" cy="146.3" r="5.4"/><circle class="st1" cx="460.7" cy="146.3" r="4"/><circle class="st1" cx="460.7" cy="133.5" r="5.4"/><circle class="st1" cx="460.7" cy="133.5" r="4"/><circle class="st1" cx="446.6" cy="120.7" r="5.4"/><circle class="st1" cx="446.6" cy="120.7" r="4"/><circle class="st1" cx="446.6" cy="146.3" r="5.4"/><circle class="st1" cx="446.6" cy="146.3" r="4"/><circle class="st1" cx="446.6" cy="133.5" r="5.4"/><circle class="st1" cx="446.6" cy="133.5" r="4"/><circle class="st1" cx="432.4" cy="120.7" r="5.4"/><circle class="st1" cx="432.4" cy="120.7" r="4"/><circle class="st1" cx="432.4" cy="146.3" r="5.4"/><circle class="st1" cx="432.4" cy="146.3" r="4"/><circle class="st1" cx="432.4" cy="133.5" r="5.4"/><circle class="st1" cx="432.4" cy="133.5" r="4"/><circle class="st1" cx="418.2" cy="120.7" r="5.4"/><circle class="st1" cx="418.2" cy="120.7" r="4"/><circle class="st1" cx="418.2" cy="146.3" r="5.4"/><circle class="st1" cx="418.2" cy="146.3" r="4"/><circle class="st1" cx="418.2" cy="133.5" r="5.4"/><circle class="st1" cx="418.2" cy="133.5" r="4"/><circle class="st1" cx="404.1" cy="120.7" r="5.4"/><circle class="st1" cx="404.1" cy="120.7" r="4"/><circle class="st1" cx="404.1" cy="146.3" r="5.4"/><circle class="st1" cx="404.1" cy="146.3" r="4"/><circle class="st1" cx="404.1" cy="133.5" r="5.4"/><circle class="st1" cx="404.1" cy="133.5" r="4"/><circle class="st1" cx="389.9" cy="120.7" r="5.4"/><circle class="st1" cx="389.9" cy="120.7" r="4"/><circle class="st1" cx="389.9" cy="146.3" r="5.4"/><circle class="st1" cx="389.9" cy="146.3" r="4"/><circle class="st1" cx="389.9" cy="133.5" r="5.4"/><circle class="st1" cx="389.9" cy="133.5" r="4"/><circle class="st1" cx="375.7" cy="120.7" r="5.4"/><circle class="st1" cx="375.7" cy="120.7" r="4"/><circle class="st1" cx="375.7" cy="146.3" r="5.4"/><circle class="st1" cx="375.7" cy="146.3" r="4"/><circle class="st1" cx="375.7" cy="133.5" r="5.4"/><circle class="st1" cx="375.7" cy="133.5" r="4"/><circle class="st1" cx="361.5" cy="120.7" r="5.4"/><circle class="st1" cx="361.5" cy="120.7" r="4"/><circle class="st1" cx="361.5" cy="146.3" r="5.4"/><circle class="st1" cx="361.5" cy="146.3" r="4"/><circle class="st1" cx="361.5" cy="133.5" r="5.4"/><circle class="st1" cx="361.5" cy="133.5" r="4"/><circle class="st1" cx="347.4" cy="120.7" r="5.4"/><circle class="st1" cx="347.4" cy="120.7" r="4"/><circle class="st1" cx="347.4" cy="146.3" r="5.4"/><circle class="st1" cx="347.4" cy="146.3" r="4"/><circle class="st1" cx="347.4" cy="133.5" r="5.4"/><circle class="st1" cx="347.4" cy="133.5" r="4"/><circle class="st1" cx="333.2" cy="120.7" r="5.4"/><circle class="st1" cx="333.2" cy="120.7" r="4"/><circle class="st1" cx="333.2" cy="146.3" r="5.4"/><circle class="st1" cx="333.2" cy="146.3" r="4"/><circle class="st1" cx="333.2" cy="133.5" r="5.4"/><circle class="st1" cx="333.2" cy="133.5" r="4"/><circle class="st1" cx="319" cy="120.7" r="5.4"/><circle class="st1" cx="319" cy="120.7" r="4"/><circle class="st1" cx="319" cy="146.3" r="5.4"/><circle class="st1" cx="319" cy="146.3" r="4"/><circle class="st1" cx="319" cy="133.5" r="5.4"/><circle class="st1" cx="319" cy="133.5" r="4"/><circle class="st1" cx="304.8" cy="120.7" r="5.4"/><circle class="st1" cx="304.8" cy="120.7" r="4"/><circle class="st1" cx="304.8" cy="146.3" r="5.4"/><circle class="st1" cx="304.8" cy="146.3" r="4"/><circle class="st1" cx="304.8" cy="133.5" r="5.4"/><circle class="st1" cx="304.8" cy="133.5" r="4"/><circle class="st1" cx="290.7" cy="120.7" r="5.4"/><circle class="st1" cx="290.7" cy="120.7" r="4"/><circle class="st1" cx="290.7" cy="146.3" r="5.4"/><circle class="st1" cx="290.7" cy="146.3" r="4"/><circle class="st1" cx="290.7" cy="133.5" r="5.4"/><circle class="st1" cx="290.7" cy="133.5" r="4"/><circle class="st1" cx="276.5" cy="120.7" r="5.4"/><circle class="st1" cx="276.5" cy="120.7" r="4"/><circle class="st1" cx="276.5" cy="146.3" r="5.4"/><circle class="st1" cx="276.5" cy="146.3" r="4"/><circle class="st1" cx="276.5" cy="133.5" r="5.4"/><circle class="st1" cx="276.5" cy="133.5" r="4"/><circle class="st1" cx="262.3" cy="120.7" r="5.4"/><circle class="st1" cx="262.3" cy="120.7" r="4"/><circle class="st1" cx="262.3" cy="146.3" r="5.4"/><circle class="st1" cx="262.3" cy="146.3" r="4"/><circle class="st1" cx="262.3" cy="133.5" r="5.4"/><circle class="st1" cx="262.3" cy="133.5" r="4"/><circle class="st1" cx="248.1" cy="120.7" r="5.4"/><circle class="st1" cx="248.1" cy="120.7" r="4"/><circle class="st1" cx="248.1" cy="146.3" r="5.4"/><circle class="st1" cx="248.1" cy="146.3" r="4"/><circle class="st1" cx="248.1" cy="133.5" r="5.4"/><circle class="st1" cx="248.1" cy="133.5" r="4"/><circle class="st1" cx="234" cy="120.7" r="5.4"/><circle class="st1" cx="234" cy="120.7" r="4"/><circle class="st1" cx="234" cy="146.3" r="5.4"/><circle class="st1" cx="234" cy="146.3" r="4"/><circle class="st1" cx="234" cy="133.5" r="5.4"/><circle class="st1" cx="234" cy="133.5" r="4"/></g><g id="Dimensions"><path class="st2" d="M355.2 348.4h172.6"/><path d="M356.9 350.8l-9.3-2.4 9.3-2.5v4.9zm169.2 0l9.2-2.4-9.2-2.5v4.9z"/><path class="st3" d="M535.3 274v77.3m208-306.2v66.8m225.4 175.8v49.4m56.9-49.4v49.4m-678-48.8v63"/><path class="st2" d="M1018.4 335.3h-41.6"/><path d="M1016.8 332.8l9.2 2.5-9.2 2.5v-5zm-38.3 0l-9.2 2.5 9.2 2.5v-5z"/><path class="st2" d="M1073.7 97.8V86.9"/><path d="M1076.2 96.1l-2.5 9.2-2.4-9.2h4.9z"/><path class="st3" d="M1035.7 105.1h40.8m-2.8 28.7v-28.5"/><path class="st2" d="M1073.7 141.3v10.5"/><path d="M1071.3 143l2.4-9.2 2.5 9.2h-4.9z"/><path class="st3" d="M1001.4 133.8h75.1"/><path class="st2" d="M563.6 281.4v-70.1"/><path d="M566.1 279.7l-2.5 9.2-2.4-9.2h4.9zm0-66.7l-2.5-9.2-2.4 9.2h4.9z"/><path class="st3" d="M529.9 203.8h36.6m-36.6 85.1h36.6m176.8-134.6v-39m0 46.4v-7.4"/><path class="st2" d="M743.3 169.3V189"/><path d="M740.8 171l2.5-9.3 2.4 9.3h-4.9z"/><path class="st3" d="M668.2 161.7h77.9M225.5 83.2h18m-35.1 0h17.1"/><path class="st2" d="M200.9 83.2h-21.8"/><path d="M199.2 80.7l9.2 2.5-9.2 2.5v-5z"/><path class="st3" d="M225.5 104.9V80.3"/><path class="st2" d="M233.1 83.2H646"/><path d="M234.8 85.7l-9.3-2.5 9.3-2.5v5zm409.6 0l9.2-2.5-9.2-2.5v5z"/><path class="st3" d="M653.6 104.9V80.3m-437 53.1H139m2.8 28.5v-28.5"/><path class="st2" d="M141.8 186.2v-16.5"/><path d="M144.3 171.4l-2.5-9.2-2.4 9.2h4.9z"/><path class="st2" d="M141.8 109.1v16.5"/><path d="M139.4 123.9l2.4 9.2 2.5-9.2h-4.9z"/><path class="st3" d="M134.1 67.9h-116"/><path class="st2" d="M211 128.6l-76.9-60.7"/><path d="M211.2 125.6l5.7 7.7-8.7-3.8 3-3.9z"/><path class="st3" d="M924.5 229.8h-92.4"/><path class="st2" d="M1002.4 139.4l-77.9 90.8"/><path d="M999.5 139.1l7.8-5.4-4.1 8.6-3.7-3.2z"/><path class="st3" d="M208.5 183.7h8.4"/><path class="st2" d="M201 183.7h-22.5"/><path d="M199.3 181.2l9.2 2.5-9.2 2.5v-5z"/><path class="st2" d="M215.9 49.2H663"/><path d="M217.6 51.7l-9.2-2.5 9.2-2.5v5zm443.8 0l9.2-2.5-9.2-2.5v5z"/><path class="st3" d="M670.6 107V46.3m-462.2 60.3V46.3"/><path class="st2" d="M743.3 119.5v27.3"/><path d="M740.8 121.1l2.5-9.2 2.4 9.2h-4.9zm0 24l2.5 9.2 2.4-9.2h-4.9z"/><path class="st3" d="M653.1 154.7h93m-94.2-42.8h94.2"/><path class="st2" d="M90.8 113.3v41.1"/><path d="M88.4 115l2.4-9.2 2.5 9.2h-4.9zm0 37.7l2.4 9.2 2.5-9.2h-4.9z"/><path class="st3" d="M210 161.9H88m122-56.8H88"/><path class="st2" d="M1043.2 81h13.9"/><path d="M1044.9 83.5l-9.2-2.5 9.2-2.5v5z"/><path class="st3" d="M1007.3 81h28.4"/><path class="st2" d="M999.8 81h-10.5"/><path d="M998.1 78.5l9.2 2.5-9.2 2.5v-5z"/><path class="st3" d="M1007.3 138.8V78.2"/><path class="st2" d="M986.5 58.1h41.6"/><path d="M988.2 60.6l-9.3-2.5 9.3-2.5v5zm38.3 0l9.2-2.5-9.2-2.5v5z"/><path class="st3" d="M1035.7 104.7V55.2m-56.8 49.9V55.2"/><path class="st2" d="M224.5 183.7h429.7"/><path d="M226.2 186.2l-9.3-2.5 9.3-2.5v5zm426.4 0l9.2-2.5-9.2-2.5v5z"/><path class="st3" d="M216.9 133.3v53.2m444.9-52.8v52.8"/></g><path id="Middle_Lines" d="M210.6 133.4h13m-6.7 0v-7m437.6 6.9H669m-7.2 0V126" fill="none" stroke="#000" stroke-width=".283" stroke-linecap="round" stroke-linejoin="round" stroke-miterlimit="10" stroke-dasharray="2.8346,1.4173,.5669,1.4173"/><g id="Text_1_"><text transform="translate(427.804 43.29)" class="st5 st6">163</text><text transform="translate(379.18 77.305)" class="st5 st6">151 (Emitting area)</text><text transform="translate(186.343 77.305)" class="st5 st6">6</text><text transform="translate(427.803 177.738)" class="st5 st6">157</text><text transform="rotate(-90 112.211 27.862)" class="st5 st6">20</text><text transform="rotate(-90 145.674 9.734)" class="st5 st6">10</text><text transform="rotate(-90 396.366 -308.934)" class="st5 st6">15</text><text transform="rotate(-90 414.666 -307.434)" class="st5 st6">(Emitting</text><text transform="rotate(-90 417.466 -321.434)" class="st5 st6">area)</text><text transform="rotate(-90 597.95 -471.245)" class="st5 st6">10</text><text transform="rotate(-90 462.955 -273.748)" class="st5 st6">2.5</text><text transform="translate(185.566 177.738)" class="st5 st6">3</text><text transform="translate(45.083 62.26)" class="st5 st6">2 x M2 x 6</text><text transform="translate(18.283 86.26)" class="st5 st6">(for optional parts)</text><text transform="translate(860.761 224.137)" class="st5 st6">M3 x 5</text><text transform="translate(838.561 248.137)" class="st5 st6">On both sides</text><text transform="translate(831.561 264.937)" class="st5 st6">(for installation)</text><text transform="translate(999.42 53.197)" class="st5 st6">20</text><text transform="translate(1013.74 76.253)" class="st5 st6">10</text><text transform="translate(424.87 341.642)" class="st5 st6">66.2</text><text transform="translate(414.2 305.074)" class="st5 st6">Controller</text><text transform="translate(987.973 327.468)" class="st5 st6">20</text><text transform="rotate(-90 406.877 -150.008)" class="st5 st6">30</text><text transform="translate(206.54 289.257)" class="st5 st6">Cable length 500</text><text transform="translate(1073.7 363.618)" class="st5 st6">Not to scale</text><text transform="translate(1071.3 380.018)" class="st5 st6">Dimensions in mm</text></g><text transform="translate(1040.3 230)" class="st5 st6">For pin connection</text><text transform="translate(1040.3 246.8)" class="st5 st6">(refer to</text><text transform="translate(1040.3 263.6)" class="st5 st6">camera</text><text transform="translate(1040.3 280.4)" class="st5 st6">specifications)</text></svg>