<svg version="1.1" id="Ebene_1" xmlns="http://www.w3.org/2000/svg" x="0" y="0" viewBox="0 0 1380 842.8" style="background-color:#fff" xml:space="preserve"><style>.st2{fill:#1a1a18}.st3{font-family:Helvetica,Arial,sans-serif}.st4{font-size:32px}.st6{fill:#1d1d1b}.st11,.st15,.st7,.st9{fill:none;stroke:#000;stroke-linecap:round;stroke-linejoin:round}.st9{stroke-width:.75}.st11{stroke-width:.78}.st15{stroke-width:.77}</style><g id="ens_C10-2514-3M" stroke="#000" stroke-linecap="round" stroke-linejoin="round"><path fill="#f2f2f2" stroke-width="3" d="M264.7 681.7l3.1 3.5h35.5v22.1l5.6 5.2h6.6l1.1-1 1 1h30.9l1-1v-8.8h3.5v8.8l1.1 1h65.2l1.1-1v-9.8h5.6v9.8l1 1h213.2l5.6-5.2v-15.5h33v14.1l6.7 6.6h44.2l6.6-6.6v-51.2h2.1l1.1-1.1v-42.4h11.2v4.2H777l6.7-6.7V600h3.5l2.1-2.1V352.8l-2.1-2.5h-3.5v-8.8l-6.7-6.6h-26.3v4.5h-11.2V297l-1.1-1.4h-2.1v-51.2l-6.6-6.7h-44.2l-6.7 6.7v14.4h-33v-15.4l-5.6-5.7H427l-1 1.1V249h-5.6v-10.2l-1.1-1.1h-65.2l-1.1 1.1v8.8h-3.5v-8.8l-1-1.1h-30.9l-1 1.1-1.1-1.1h-6.6l-5.6 5.7v22h-35.5l-3.1 3.2v413.1"/><path d="M786.8 599.8V349.9m2 247.5V352m-12.2 263.3V334.4m6.6 274.2V341.1m-33 274.2V334.4M738 654.3V295.1m1 358.1v-357m-54.1 416.3V236.8m-6.6 469.1V243.5m50.9 469V236.8m6.6 469.1V243.5m-309.6 469V236.8m-1 474.7V238.3m214.5 474.2V236.8m5.6 470.1V242.5m-292.1 470V236.8m-1.1 474.7V238.3m66.4 474.2V236.8m1 474.7V238.3M316.7 712.5V236.8m-1.1 474.7V238.3m32 474.2V236.8m1 474.7V238.3m-40.7 474.2V236.8m-5.6 470.1V242.5m12.3 470V236.8m-47.8 448V264.6m-3.1 417V268.1m525.1 329.3l-2 2.4m2-247.8l-2-2.1h-3.6m0 249.9h3.6m-3.6 8.8l-6.6 6.7m6.6-274.2l-6.6-6.7h-26.4m0 280.9h26.4M739 338.6h11.2M739 610.7h11.2M739 653.2l-1 1.1m1-358.1l-1-1.1h-2.2m0 359.2h2.2m-59.7-410.8l6.6-6.7m-6.6 469.1l6.6 6.6m0-475.7h44.3m-44.3 475.7h44.3l6.6-6.6m0-462.4l-6.6-6.7m-83.9 21.1h33m-33 433.6h33M425.2 238.3l1-1.5m-1 474.7l1 1m0-475.7h213.5M426.2 712.5h213.5l5.6-5.6m0-464.4l-5.6-5.7m-287.6 1.5l1.1-1.5m-1.1 474.7l1.1 1m0-475.7h65.3m-65.3 475.7h65.3l1-1m0-473.2l-1-1.5m1 11.3h5.7m-5.7 453.2h5.7M348.6 247h3.5m-3.5 455.3h3.5m-36.5-464l1.1-1.5m-1.1 474.7l1.1 1m0-475.7h30.9m-30.9 475.7h30.9l1-1m0-473.2l-1-1.5m-45.3 5.7l5.6-5.7m-5.6 470.1l5.6 5.6m0-475.7h6.7m-6.7 475.7h6.7l1-1m0-473.2l-1-1.5m-50.9 31.3l3.1-3.5m-3.1 417l3.1 3.2h35.5m0-420.2h-35.5" fill="none" stroke-width=".25"/></g><g id="bemaßung"><g id="text"><text transform="translate(484.63 70.55)" class="st2 st3 st4">43</text><text transform="matrix(.93 0 0 1 793.65 70.55)" class="st2 st3 st4">17.526</text><text transform="matrix(.93 0 0 1 840.23 133.6)" class="st2 st3 st4">13</text><path class="st2" d="M1117.9 785.4v-22.9h2.9l11.2 18v-18h2.7v22.9h-2.9l-11.2-18v18h-2.7zm20.2-8.3c0-3.1.8-5.3 2.4-6.8 1.3-1.2 3.1-1.9 4.8-1.8 2-.1 3.9.8 5.2 2.2 1.4 1.7 2.1 3.9 2 6.2.1 1.7-.2 3.4-.9 5-.6 1.2-1.5 2.2-2.6 2.8-1.1.7-2.4 1-3.7 1-2 .1-3.9-.7-5.2-2.2-1.3-1.5-2-3.6-2-6.4zm2.7 0c-.1 1.7.3 3.4 1.3 4.8 1.4 1.8 4 2.1 5.8.7.3-.2.5-.5.7-.7 1-1.4 1.4-3.1 1.3-4.9.1-1.7-.3-3.3-1.3-4.7-1.4-1.8-4-2.1-5.8-.7-.3.2-.5.5-.7.7-1 1.4-1.4 3.1-1.3 4.8zm20.5 5.8l.4 2.5c-.7.2-1.3.2-2 .3-.8 0-1.5-.1-2.2-.5-.5-.3-.9-.7-1.1-1.3-.3-1.1-.4-2.2-.3-3.3V771h-1.9v-2.2h1.9v-4.1l2.6-1.7v5.8h2.6v2.2h-2.6v9.7c0 .5 0 1 .1 1.5.1.2.2.4.4.5.3.1.6.2.9.2.5.1.8 0 1.2 0zm16.6 0l.4 2.5c-.7.2-1.3.2-2 .3-.8 0-1.5-.1-2.2-.5-.5-.3-.9-.7-1.1-1.3-.3-1.1-.4-2.2-.3-3.3V771h-1.9v-2.2h1.9v-4.1l2.6-1.7v5.8h2.6v2.2h-2.6v9.7c0 .5 0 1 .1 1.5.1.2.2.4.4.5.3.1.6.2.9.2.4.1.8 0 1.2 0zm1.5-5.8c0-3.1.8-5.3 2.4-6.8 1.3-1.2 3.1-1.9 4.8-1.8 2-.1 3.9.8 5.2 2.2 1.4 1.7 2.1 3.9 2 6.2.1 1.7-.2 3.4-.9 5-.6 1.2-1.5 2.2-2.6 2.8-1.1.7-2.4 1-3.7 1-2 .1-3.9-.7-5.2-2.2-1.3-1.5-1.9-3.6-2-6.4zm2.7 0c-.1 1.7.3 3.4 1.3 4.8.8 1 2 1.6 3.3 1.6 1.3 0 2.5-.6 3.2-1.6 1-1.4 1.4-3.1 1.3-4.9.1-1.7-.3-3.3-1.3-4.7-.8-1-2-1.6-3.2-1.6-1.3 0-2.5.6-3.3 1.6-.9 1.4-1.4 3.1-1.3 4.8zm22.1 3.3l2.6-.4c.1 2 1.7 3.6 3.7 3.5h.3c1 .1 1.9-.2 2.7-.8.5-.5.9-1.1.9-1.8 0-.6-.3-1.2-.8-1.5-.8-.4-1.7-.8-2.7-1-1.4-.3-2.7-.8-4-1.3-.7-.3-1.3-.9-1.7-1.6-.4-.7-.6-1.4-.6-2.2 0-1.4.6-2.8 1.8-3.6.5-.4 1.1-.6 1.7-.8.7-.2 1.5-.3 2.3-.3 1.1 0 2.2.2 3.2.6.8.3 1.5.8 2 1.5.5.8.8 1.7.9 2.6l-2.6.4c-.1-.8-.4-1.5-1-2-.7-.5-1.5-.8-2.4-.7-.9-.1-1.8.1-2.6.6-.5.4-.8.9-.8 1.5 0 .4.1.7.3 1 .3.3.6.6 1 .8.3.1 1 .4 2.3.7 1.3.3 2.6.8 3.9 1.3.7.3 1.3.8 1.7 1.5.4.7.7 1.6.6 2.4 0 2-1.2 3.8-3 4.6-1 .5-2.1.7-3.3.7-1.6.1-3.3-.4-4.6-1.3-1-1.4-1.6-2.8-1.8-4.4zm26-1.1l2.6.4c-.2 1.7-.9 3.3-2.2 4.5-1.2 1.1-2.7 1.7-4.3 1.6-2 .1-3.8-.7-5.1-2.2-1.4-1.8-2.1-4.1-1.9-6.4 0-1.6.2-3.2.8-4.7.5-1.3 1.4-2.3 2.5-3 1.1-.7 2.4-1 3.7-1 1.5-.1 3 .4 4.1 1.4 1.1 1 1.8 2.4 2 3.9l-2.5.4c-.2-1-.6-1.8-1.3-2.5-.6-.6-1.4-.9-2.2-.8-1.3 0-2.4.5-3.2 1.5-.9 1.4-1.4 3.1-1.2 4.8 0 2.2.4 3.8 1.2 4.9.7 1 1.9 1.5 3.1 1.5 1 0 1.9-.3 2.6-1 .7-1 1.2-2.1 1.3-3.3zm14.9 4c-.8.8-1.8 1.4-2.8 1.9-.9.4-1.9.6-2.9.5-1.4.1-2.8-.4-3.9-1.3-.9-.9-1.4-2.1-1.4-3.4 0-.8.2-1.5.5-2.2.3-.6.8-1.2 1.3-1.6.6-.4 1.2-.7 1.9-.9.8-.2 1.5-.3 2.3-.4 1.6-.2 3.2-.5 4.7-1v-.7c.1-.9-.2-1.7-.7-2.4-.8-.7-1.9-1.1-3-1-1-.1-1.9.2-2.7.7-.7.7-1.2 1.5-1.3 2.5l-2.6-.4c.2-1 .6-2 1.2-2.9.6-.7 1.4-1.3 2.3-1.6 1.1-.4 2.3-.6 3.5-.6 1.1 0 2.2.1 3.2.5.7.2 1.3.7 1.8 1.3.4.6.7 1.2.8 1.9.1.9.2 1.7.1 2.6v3.8c0 1.7 0 3.3.2 5 .1.7.3 1.4.7 2h-2.7c-.3-.8-.5-1.5-.5-2.3zm-.2-6.2c-1.4.5-2.8.9-4.3 1.1-.8.1-1.5.3-2.3.6-.4.2-.8.5-1 .9-.2.4-.4.9-.4 1.3 0 .7.3 1.4.8 1.9.6.5 1.5.8 2.3.8.9 0 1.9-.2 2.7-.7.8-.5 1.4-1.2 1.7-2 .3-.9.5-1.9.4-2.8l.1-1.1zm6.6 8.3v-22.9h2.6v22.9h-2.6zm17.2-5.4l2.7.4c-.3 1.6-1.2 3-2.4 4-3 2.2-7.2 1.8-9.8-.8-1.4-1.8-2.1-4-2-6.3-.1-2.3.6-4.7 2-6.5 1.3-1.5 3.2-2.4 5.2-2.3 1.9-.1 3.8.8 5.1 2.3 1.4 1.8 2.1 4.1 2 6.4v.8H1260c0 1.5.5 3 1.4 4.2.8.9 2 1.5 3.2 1.5.9 0 1.8-.3 2.5-.8.8-.9 1.4-1.8 1.6-2.9zm-8.5-4.5h8.6c0-1.1-.4-2.2-1-3.1-.7-1-2-1.6-3.2-1.6-1.1 0-2.2.5-3 1.3-.9.9-1.4 2.1-1.4 3.4zm-142.3 48.3v-22.9h7.3c1.3 0 2.5.1 3.8.3 1.2.3 2.2.8 3.1 1.6 1.2 1.1 2 2.4 2.5 3.9.6 1.8.9 3.6.8 5.5 0 1.6-.2 3.1-.6 4.6-.3 1.2-.8 2.3-1.5 3.3-1 1.6-2.6 2.8-4.5 3.2-1.1.3-2.3.4-3.4.4l-7.5.1zm2.8-2.7h4.6c1.1 0 2.2-.1 3.3-.4.7-.2 1.4-.6 1.9-1.2.7-.8 1.3-1.8 1.6-2.9.4-1.4.6-2.9.6-4.4.1-1.9-.3-3.8-1.1-5.5-.6-1.1-1.5-2.1-2.7-2.6-1.2-.4-2.4-.5-3.6-.5h-4.5l-.1 17.5zm18.4-17v-3.2h2.6v3.2h-2.6zm0 19.7v-16.6h2.6v16.6h-2.6zm6.6 0v-16.6h2.3v2.3c.5-.8 1.1-1.5 1.9-2 .8-.5 1.8-.8 2.8-.7 1 0 2 .2 2.8.8.7.5 1.3 1.3 1.6 2.1.9-1.8 2.8-2.9 4.8-2.9 1.3-.1 2.6.4 3.5 1.4.9 1.2 1.4 2.7 1.2 4.2v11.4h-2.6v-10.5c0-.8 0-1.6-.3-2.4-.2-.5-.5-.9-.9-1.2-.5-.3-1-.5-1.6-.5-1 0-2 .4-2.7 1.2-.8 1.1-1.2 2.4-1.1 3.7v9.6h-2.6V813c.1-1-.2-2-.6-2.8-.5-.7-1.3-1-2.1-.9-.7 0-1.4.2-2 .6-.6.4-1.1 1.1-1.4 1.8-.3 1.1-.5 2.3-.4 3.5v8.6h-2.6zm35.3-5.3l2.7.4c-.3 1.6-1.2 3-2.4 4-1.3 1-2.8 1.5-4.4 1.4-2 .1-4-.7-5.4-2.2-1.4-1.8-2.1-4-2-6.3-.1-2.3.6-4.6 2-6.5 1.3-1.5 3.2-2.4 5.2-2.3 1.9-.1 3.8.8 5.1 2.3 1.4 1.8 2.1 4.1 2 6.4v.8h-11.5c0 1.5.5 3 1.4 4.2.8.9 2 1.5 3.2 1.5.9 0 1.8-.3 2.4-.8.9-1 1.4-1.9 1.7-2.9zm-8.6-4.6h8.6c0-1.1-.4-2.2-1-3.2-.8-1-2-1.6-3.2-1.6-1.1 0-2.2.5-3 1.3-.9 1-1.3 2.2-1.4 3.5zm14.6 9.9v-16.6h2.4v2.4c1-1.8 2.9-2.8 4.9-2.7.9 0 1.8.2 2.6.5.7.3 1.3.8 1.8 1.4.4.6.7 1.3.8 2.1.1.9.2 1.8.1 2.7v10.2h-2.5v-10.1c0-.9-.1-1.7-.3-2.6-.2-.6-.6-1-1.1-1.4-.5-.3-1.2-.5-1.8-.5-1.1 0-2.1.4-2.9 1.2-.8.8-1.2 2.2-1.2 4.3v9.1h-2.8zm15.5-5l2.6-.4c.1 2 1.8 3.5 3.7 3.5h.3c1 .1 1.9-.2 2.7-.8.5-.5.9-1.1.9-1.8 0-.6-.3-1.2-.8-1.5-.8-.4-1.7-.8-2.7-1-1.4-.3-2.7-.8-4-1.3-.7-.3-1.3-.9-1.7-1.6-.4-.7-.6-1.4-.6-2.2 0-1.4.6-2.8 1.8-3.6.5-.4 1.1-.6 1.7-.8.7-.2 1.5-.3 2.3-.3 1.1 0 2.2.2 3.2.6.8.3 1.5.8 2 1.5.5.8.8 1.7.9 2.6l-2.6.4c-.1-.8-.4-1.5-1-2-.7-.5-1.5-.8-2.4-.7-.9-.1-1.8.1-2.6.6-.5.4-.8.9-.8 1.5 0 .4.1.7.3 1 .3.3.6.6 1 .8.3.1 1 .3 2.3.7 1.3.3 2.6.8 3.9 1.3.7.3 1.3.8 1.7 1.5.4.7.7 1.6.6 2.4 0 2-1.2 3.8-3 4.6-1 .5-2.1.7-3.3.7-1.6.1-3.3-.4-4.6-1.3-.9-1.5-1.6-2.9-1.8-4.4zm16-14.7v-3.2h2.6v3.2h-2.6zm0 19.7v-16.6h2.6v16.6h-2.6zm5.6-8.3c0-3.1.8-5.4 2.4-6.8 1.3-1.2 3.1-1.9 4.8-1.8 2-.1 3.9.8 5.2 2.2 1.4 1.7 2.1 3.9 2 6.2.1 1.7-.2 3.4-.9 5-.6 1.2-1.5 2.2-2.6 2.9-1.1.7-2.4 1-3.7 1-2 .1-3.9-.7-5.2-2.2-1.3-1.6-2-3.7-2-6.5zm2.7 0c-.1 1.7.3 3.4 1.3 4.8 1.4 1.8 4 2.1 5.8.7.3-.2.5-.5.7-.7 1-1.4 1.4-3.1 1.3-4.8.1-1.7-.3-3.3-1.3-4.7-1.4-1.8-4-2.1-5.8-.7-.3.2-.5.4-.7.7-1 1.3-1.4 3-1.3 4.7zm14.8 8.3v-16.6h2.4v2.4c1-1.7 2.9-2.8 4.9-2.7.9 0 1.8.2 2.6.5.7.3 1.3.8 1.8 1.4.4.6.7 1.3.8 2.1.1.9.2 1.8.2 2.7v10.2h-2.6v-10.1c0-.9-.1-1.7-.3-2.6-.2-.6-.6-1-1.1-1.4-.5-.3-1.2-.5-1.8-.5-1.1 0-2.1.4-2.9 1.2-.8.8-1.2 2.2-1.2 4.3v9.1h-2.8zm15.5-5l2.6-.4c.1 2 1.8 3.5 3.7 3.5h.3c1 .1 1.9-.2 2.7-.8.5-.5.9-1.1.9-1.8 0-.6-.3-1.2-.8-1.5-.8-.4-1.7-.8-2.7-1-1.4-.3-2.7-.8-4-1.3-.7-.3-1.3-.9-1.7-1.6-.4-.7-.6-1.4-.6-2.2 0-1.4.6-2.8 1.8-3.6.5-.4 1.1-.6 1.7-.8.7-.2 1.5-.3 2.3-.3 1.1 0 2.2.2 3.2.6.8.3 1.5.8 2 1.5.5.8.8 1.7.9 2.6l-2.6.4c-.1-.8-.4-1.5-1-2-.7-.5-1.5-.8-2.4-.7-.9-.1-1.8.1-2.6.6-.5.4-.8.9-.8 1.5 0 .4.1.7.3 1 .3.3.6.6 1 .8.3.1 1 .3 2.3.7 1.3.3 2.6.8 3.9 1.3.7.3 1.3.8 1.7 1.5.4.7.6 1.6.6 2.4 0 .9-.3 1.9-.8 2.7-.5.8-1.3 1.5-2.2 1.9-1 .5-2.1.7-3.3.7-1.6.1-3.3-.4-4.6-1.3-.9-1.4-1.6-2.8-1.8-4.4zm24.2-14.7v-3.2h2.7v3.2h-2.7zm0 19.7v-16.6h2.7v16.6h-2.7zm6.6 0v-16.6h2.3v2.4c1-1.8 2.9-2.8 4.9-2.7.9 0 1.8.2 2.6.5.7.3 1.3.8 1.8 1.4.4.6.7 1.3.8 2.1.1.9.2 1.8.1 2.7v10.2h-2.6v-10.1c0-.9-.1-1.7-.3-2.6-.2-.6-.6-1-1.1-1.4-.5-.3-1.2-.5-1.8-.5-1.1 0-2.1.4-2.9 1.2-.8.8-1.2 2.2-1.2 4.3v9.1h-2.6zm24.9 0v-16.6h2.3v2.3c.5-.8 1.1-1.5 1.9-2 .8-.5 1.8-.8 2.8-.7 1 0 2 .2 2.8.8.7.5 1.3 1.3 1.6 2.1.9-1.8 2.8-2.9 4.8-2.9 1.3-.1 2.6.4 3.5 1.4.9 1.2 1.4 2.7 1.2 4.2v11.4h-2.6v-10.5c0-.8-.1-1.6-.3-2.4-.2-.5-.5-.9-.9-1.2-.5-.3-1-.5-1.6-.5-1 0-2 .4-2.7 1.2-.8 1.1-1.2 2.4-1.1 3.7v9.6h-2.6V813c.1-1-.2-2-.6-2.8-.5-.7-1.3-1-2.1-.9-.7 0-1.4.2-2 .6-.6.4-1.1 1.1-1.3 1.8-.3 1.1-.5 2.3-.4 3.5v8.6h-2.7zm24.7 0v-16.6h2.3v2.3c.5-.8 1.1-1.5 1.9-2 .8-.5 1.8-.8 2.8-.7 1 0 2 .2 2.8.8.7.5 1.3 1.3 1.6 2.1.9-1.8 2.8-2.9 4.8-2.9 1.3-.1 2.6.4 3.5 1.4.9 1.2 1.4 2.7 1.2 4.2v11.4h-2.6v-10.5c0-.8-.1-1.6-.3-2.4-.2-.5-.5-.9-.9-1.2-.5-.3-1-.5-1.6-.5-1 0-2 .4-2.7 1.2-.8 1.1-1.2 2.4-1.1 3.7v9.6h-2.6V813c.1-1-.2-2-.6-2.8-.5-.7-1.3-1-2.1-.9-.7 0-1.4.2-2 .6-.6.4-1.1 1.1-1.4 1.8-.3 1.1-.5 2.3-.4 3.5v8.6h-2.6z"/><text transform="matrix(.93 0 0 1 1130.39 191.83)" class="st2 st3 st4">Sensor Position</text><text transform="matrix(.93 0 0 1 745.26 152.86)" class="st2 st3 st4">4.5</text><text transform="matrix(.93 0 0 1 753.67 201.4)" class="st2 st3 st4">4</text><text transform="translate(267.14 202.86)" class="st2 st3 st4" letter-spacing="-4">3.5</text><text transform="rotate(-90 295.645 205.715)" class="st2 st3 st4">Ø</text><text transform="rotate(-90 283.2 193.27)" class="st6 st3 st4">38</text><text transform="rotate(-90 359.75 186.08)" class="st2 st3 st4">M35.5x0.5</text><text transform="rotate(-90 825.57 -324.21)" class="st2 st3 st4">Ø</text><text transform="rotate(-90 813.125 -336.655)" class="st6 st3 st4">43</text><text transform="rotate(-90 692.77 -178.07)" class="st2 st3 st4">Ø</text><text transform="rotate(-90 680.325 -190.515)" class="st6 st3 st4">22.6</text><path class="st2" d="M1028.3 548.5v2.8h-17.9c.7.8 1.4 1.7 1.9 2.7.6 1 1.1 2 1.5 3h-2.8c-.7-1.5-1.6-2.9-2.7-4.1-.9-1-1.9-1.9-3.1-2.5v-1.8l23.1-.1zm-14.8-12.3l-4.3-.2-3.8-.8V532l3.8.8 4.3 1.7v1.7zm0 4.4l-4.3-.2-3.8-.8v-3.2l3.8.8 4.3 1.6v1.8zm7.9-10.4h-2.8v-8.6h2.8v8.6zm.8-10.9l-.4-2.8c1.3-.2 2.5-.8 3.4-1.7.7-.8 1.1-1.8 1.1-2.8 0-1.3-.5-2.5-1.4-3.4-.9-.9-2.1-1.4-3.4-1.4-1.2 0-2.3.4-3.2 1.3-.8.9-1.3 2-1.3 3.2 0 .7.1 1.3.3 2l-2.5-.3v-.5c0-1.1-.3-2.3-.9-3.2-.6-1-1.7-1.5-2.9-1.4-1 0-1.9.4-2.6 1-.7.7-1 1.7-1 2.7 0 1 .3 2 1 2.7.8.8 1.9 1.3 3.1 1.4l-.5 2.8c-1.7-.2-3.2-1.1-4.4-2.3-1.1-1.3-1.6-2.9-1.5-4.5 0-1.2.3-2.4.8-3.5.5-1 1.3-1.8 2.2-2.4.9-.6 1.9-.8 3-.8 1 0 1.9.3 2.7.8.9.6 1.5 1.4 1.9 2.4.3-1.3 1-2.4 2-3.2 1.1-.8 2.4-1.2 3.7-1.1 1.9 0 3.8.8 5.1 2.2 1.4 1.5 2.2 3.5 2.1 5.5.1 1.8-.6 3.6-1.8 5-1.1 1.3-2.8 2.1-4.6 2.3zm3.4-32.6h2.7v15.1c-.7 0-1.4-.1-2-.3-1.1-.4-2.1-1.1-3-1.9-1.3-1.1-2.4-2.4-3.5-3.7-1.4-1.9-3.1-3.6-4.8-5-1-.8-2.1-1.2-3.4-1.3-1.1 0-2.1.4-2.8 1.2-1.5 1.9-1.5 4.6.1 6.4.9.9 2.1 1.3 3.4 1.2l-.3 2.9c-1.9-.1-3.6-.9-4.9-2.2-1.2-1.5-1.8-3.3-1.7-5.2-.1-1.9.6-3.8 1.8-5.2 1.2-1.3 2.8-2 4.5-1.9.9 0 1.8.2 2.7.6 1 .5 2 1.1 2.8 1.9 1.4 1.4 2.8 2.8 4 4.3 1.4 1.7 2.4 2.8 2.9 3.3l1.5 1.2v-11.4zm-20.2-28.1v-3h13.2c1.9-.1 3.7.2 5.5.8 1.4.5 2.6 1.5 3.3 2.8.9 1.6 1.4 3.5 1.3 5.4.1 1.8-.3 3.6-1.1 5.3-.7 1.3-1.8 2.4-3.2 2.9-1.8.7-3.8.9-5.7.9h-13.2v-3h13.2c1.5.1 3-.1 4.4-.5.9-.4 1.7-1 2.2-1.9.5-1 .8-2.2.8-3.3 0-2.2-.5-3.8-1.5-4.8-1-.9-3-1.4-5.8-1.4l-13.4-.2zm22.9-8h-22.9v-3.1l18-12h-18v-2.9h22.9v3.1l-18 12h18v2.9zm-6.9-21.7h-2.8v-8.6h2.8v8.6zm4.2-25.8h2.7v15.1c-.7 0-1.4-.1-2-.3-1.1-.4-2.1-1.1-3-1.9-1.3-1.1-2.4-2.3-3.5-3.7-1.4-1.9-3-3.6-4.8-5-1-.8-2.1-1.2-3.4-1.3-1.1 0-2.1.4-2.8 1.2-.8.8-1.2 2-1.1 3.1-.1 1.2.4 2.4 1.2 3.3.9.8 2.1 1.3 3.4 1.2l-.3 2.9c-1.9-.1-3.6-.9-4.9-2.2-1.2-1.5-1.8-3.3-1.7-5.2-.1-1.9.6-3.8 1.8-5.2 1.2-1.3 2.8-2 4.5-1.9.9 0 1.8.2 2.7.6 1 .5 2 1.1 2.8 1.9 1.4 1.4 2.8 2.8 4 4.3 1.4 1.7 2.4 2.8 2.9 3.3l1.5 1.2v-11.4zm2.7-1.6l-22.9-8.8v-3.3l22.9-9.4v3.5l-6.9 2.7v9.6l6.9 2.5v3.2zm-9.4-6.6v-7.8l-6.3 2.4c-1.9.7-3.5 1.3-4.8 1.6 1.5.3 2.9.7 4.4 1.2l6.7 2.6zm54.5 140.7c-2.1 1.6-4.4 3-6.9 3.9-2.6 1.1-5.4 1.6-8.2 1.6-2.4 0-4.8-.4-7.1-1.2-2.8-1-5.5-2.5-7.9-4.3v-2c2.2 1.3 3.7 2.1 4.6 2.5 1.4.6 3 1.1 4.5 1.5 1.9.4 3.9.7 5.9.7 5.3-.1 10.5-1.7 15-4.7l.1 2zm-14.7-21.9l.8-3c2.2.5 4.2 1.7 5.7 3.4 1.3 1.7 2.1 3.9 2 6.1.1 2.1-.4 4.2-1.5 6-1.1 1.6-2.6 2.8-4.4 3.5-1.9.8-4 1.2-6.1 1.2-2.2.1-4.3-.4-6.2-1.4-1.7-.9-3.1-2.2-4-3.9-.9-1.7-1.4-3.6-1.4-5.6-.1-2.1.5-4.1 1.8-5.8 1.2-1.6 3-2.8 4.9-3.3l.7 3c-1.4.4-2.7 1.2-3.6 2.3-.8 1.1-1.2 2.4-1.1 3.8-.1 1.6.4 3.1 1.3 4.4.8 1.2 2 2 3.4 2.5s2.9.7 4.4.7c1.7 0 3.5-.3 5.1-.8 1.4-.5 2.5-1.4 3.3-2.7.7-1.2 1.1-2.5 1.1-3.9 0-1.6-.5-3.1-1.5-4.3-1.4-1.1-3-2-4.7-2.2zm1.1-5.4h-2.8v-8.6h2.8v8.6zm6.9-12h-22.9v-4.6l16.2-5.4c1.5-.5 2.6-.9 3.4-1.1-.8-.3-2.1-.7-3.7-1.2l-15.9-5.5v-4.1h22.9v2.9h-19.2l19.2 6.7v2.7l-19.5 6.6h19.5v3zm-8.3-25.3c-3.1 0-5.3-.9-6.8-2.6-1.2-1.5-1.9-3.3-1.8-5.2-.1-2.1.7-4.1 2.2-5.6 1.7-1.5 3.9-2.3 6.2-2.2 1.7-.1 3.4.3 5 1 1.2.6 2.2 1.6 2.8 2.8.7 1.2 1 2.6 1 4 .1 2.1-.7 4.2-2.2 5.6-1.5 1.5-3.6 2.2-6.4 2.2zm0-2.9c1.7.1 3.4-.4 4.8-1.4 1.9-1.7 2.1-4.6.5-6.5-.1-.2-.3-.3-.5-.5-1.4-1-3.1-1.5-4.9-1.4-1.7-.1-3.3.4-4.7 1.4-1.9 1.7-2.1 4.6-.5 6.5.1.2.3.3.5.5 1.4 1 3.1 1.5 4.8 1.4zm8.3-26.8h-2.4c1.8 1.1 2.9 3.1 2.8 5.3 0 .9-.2 1.9-.6 2.7-.3.7-.8 1.4-1.4 1.9-.6.4-1.3.7-2.1.9-.9.1-1.7.2-2.6.2h-10.3v-2.8h9.2c1 0 2 0 3-.2.7-.2 1.3-.6 1.7-1.1.4-.6.7-1.4.6-2.1 0-.8-.2-1.7-.7-2.4-.4-.7-1-1.3-1.8-1.6-1-.3-2.1-.5-3.2-.5h-8.9v-2.8h16.6l.1 2.5zm0-7h-16.6v-2.5h2.4c-1.8-1.2-2.8-3.2-2.7-5.3 0-.9.2-1.9.5-2.8.3-.7.8-1.4 1.4-1.9.6-.4 1.3-.7 2.1-.9.9-.1 1.8-.2 2.7-.1h10.2v2.8h-10.1c-.9 0-1.7.1-2.6.3-.6.2-1 .6-1.3 1.2-.4.6-.5 1.3-.5 2 0 1.1.4 2.3 1.1 3.1.8.9 2.2 1.3 4.3 1.3h9.1v2.8zm-2.5-23.9l2.5-.4c.2.7.2 1.4.3 2.1 0 .8-.1 1.6-.5 2.4-.3.5-.7.9-1.3 1.2-1.1.3-2.2.4-3.3.3h-9.6v2.1h-2.2V416h-4.1l-1.7-2.8h5.8v-2.8h2.2v2.8h9.7c.5 0 1 0 1.5-.1.2-.1.4-.3.6-.5.2-.3.2-.7.2-1 0-.4-.1-.8-.1-1.2zm9.2-4.6v2c-4.5-2.9-9.7-4.6-15-4.7-2 0-3.9.2-5.8.7-1.5.3-3.1.8-4.5 1.5-.9.4-2.5 1.3-4.7 2.5v-2c2.4-1.8 5.1-3.3 7.9-4.3 5-1.7 10.4-1.6 15.3.4 2.4 1 4.7 2.3 6.8 3.9zm-141.1-36.5h6.7v210.6h-6.7z"/></g><g id="arrows"><path class="st7" d="M99.7 291.3V658"/><path d="M91 297.3l8.7-32.5 8.7 32.5zm0 354.8l8.7 32.5 8.7-32.5z"/><path class="st7" d="M179.8 305.9v338.8"/><path d="M171.1 311.8l8.7-32.5 8.7 32.5zm0 327l8.7 32.5 8.7-32.5z"/><path class="st7" d="M1074.8 363.9v223.5"/><path d="M1066.1 369.8l8.7-32.5 8.8 32.5zm0 211.7l8.7 32.5 8.8-32.5z"/><path class="st7" d="M838.8 376.7v196"/><path d="M830 382.6l8.8-32.5 8.7 32.5zm0 184.2l8.8 32.5 8.7-32.5z"/><path class="st7" d="M291.9 81.7h420.5"/><path d="M297.8 90.4l-32.5-8.7 32.5-8.7zm408.6 0l32.6-8.7-32.6-8.7z"/><path class="st7" d="M647.4 145.1h65.7"/><path d="M707.1 153.8l32.6-8.7-32.6-8.8z"/><path class="st7" d="M647.4 194.1h65.7"/><path d="M707.1 202.8l32.6-8.7-32.6-8.7z"/><path class="st7" d="M173.5 193.2h65.7"/><path d="M233.2 201.9l32.6-8.7-32.6-8.7z"/><path class="st7" d="M395.6 193.2h-65.7"/><path d="M335.9 184.5l-32.6 8.7 32.6 8.7z"/><path class="st7" d="M875.6 193.2h-65.7"/><path d="M815.9 184.5l-32.6 8.7 32.6 8.7z"/><path class="st7" d="M766.3 81.7h140.6"/><path d="M772.3 90.4l-32.5-8.7 32.5-8.7zm128.7 0l32.5-8.7L901 73z"/><path class="st7" d="M816.1 145.1h92.7"/><path d="M822 153.8l-32.5-8.7 32.5-8.8zm80.9 0l32.5-8.7-32.5-8.8zm37 308.2l-4.5 13.1z"/><path fill="none" stroke="#000" stroke-width="1.38" stroke-linecap="round" stroke-linejoin="round" d="M939.9 462h0l-4.5 13.1z"/><path class="st7" d="M1118.5 262.2v424.4"/><path d="M1109.8 268.2l8.7-32.5 8.7 32.5zm0 412.5l8.7 32.5 8.7-32.5z"/><path class="st7" d="M949.1 452.9l161-261.1h11"/><path d="M959.6 452.4l-24.5 23.1 9.7-32.3z"/></g><g id="lines_pdf"><path class="st9" d="M803.6 475.1h-16.1"/><path d="M253.4 279.1h-85.2m85.2 392.1h-85.2" stroke-width=".8" fill="none" stroke="#000" stroke-linecap="round" stroke-linejoin="round"/><path class="st11" d="M267.8 685.2H89.9"/><path class="st9" d="M303.3 243.4v-55.5m-38.6 80.7v-80.7"/><path fill="none" stroke="#000" stroke-width=".95" stroke-linecap="round" stroke-linejoin="round" d="M264.7 271.8V70.5"/><path d="M787.2 600h60.6m-60.6-249.7h60.6" stroke-width=".68" fill="none" stroke="#000" stroke-linecap="round" stroke-linejoin="round"/><path class="st9" d="M640.2 712.5h489.4M640.2 237.7h489.4"/><path class="st11" d="M267.8 265.4H89.9"/><path class="st9" d="M264.7 671.2h-11.3m11.3-392.1h-11.3m386.8 196h-16.8m-4.2 0h-.7m-4.2 0h-33.7m-4.2 0h-.7m-4.2 0h-33.3m-4.2 0h-.7m-4.2 0h-33.7m-4.2 0h-.7m-4.2 0H453m-4.2 0h-.7m-4.2 0H427m356.7 0h-.7m-4.3 0h-31.9m-4.2 0h-.7m-3.8 0h-32.3m-3.9 0h-.7m-4.2 0h-32.2m-3.9 0h-.7m-3.8 0h-16.2m-213.2 0h-17.5m-4.2 0h-.7m-4.2 0h-34.7m-4.6 0h-.7m-4.2 0h-34.7m-4.6 0h-.7m-4.2 0h-34.7m-4.2 0h-.7m-4.6 0h-17.2m533.1-133.6v-155m5.6 166.3V142.4"/><path fill="none" stroke="#000" stroke-width=".82" stroke-linecap="round" stroke-linejoin="round" d="M739.5 296.3V72.1"/><path class="st15" d="M933 475.1V73.7"/><path class="st9" d="M777 615.4h306M777 335.9h306"/><path class="st15" d="M789.3 352.8V133.6"/><path class="st9" d="M933 475.1V142.4"/></g></g></svg>