<svg xmlns="http://www.w3.org/2000/svg" width="918" height="278"><style>.st0{fill:none;stroke:#14487e;stroke-width:2;stroke-miterlimit:10}.st1{fill:#def1fd}.st2{fill:#d0d0d0}.st3{fill:none;stroke:#14487e;stroke-width:5;stroke-miterlimit:10}.st4{fill:#fff}.st5{fill:#f5f5f5}.st6{fill:#9c9d9d}.st7{fill:#f99d33}.st8{fill:#575656}.st9{fill:#b1b2b3}.st10{fill:#f59d21;stroke:#14487e;stroke-width:3;stroke-miterlimit:10}.st11{fill:#1a171b}.st12{fill:#008ac8}.st13{fill:#14487e}.st14{fill:#f59d21}.st15{fill:#0069b4}.st16{fill:#f09a23}.st17{fill:#575756}.st18{fill:none}.st19{fill:#b2aa99}.st20{fill:#c8cdd0}.st21,.st22{fill:none;stroke:#fff;stroke-width:.1561;stroke-miterlimit:10}.st22{stroke-width:.2225}</style><g id="ace_2_pro"><path class="st0" d="M290.2 109V.5m75 108.5V.5"/><path class="st1" d="M271.5 154.5h111.1V259H271.5z"/><path class="st2" d="M380.6 256.3H273.5v-2.2h107.1zm0-35.1H273.5V219h107.1zm0-35.1H273.5v-2.2h107.1z"/><path class="st3" d="M271.5 154.5h111.1V259H271.5z"/><path class="st4" d="M314.6 173.8V161c0-.1-.1-.1-.2-.2h-.5c-.1 0-.1-.1-.1-.1v-2.2c0-.1-.1-.2-.2-.2l-1.9-.1-.3.1h-25.6l-.3-.1h-8.9l-.4.4v24.9l.4.4h8.9l.3-.1h25.6l.3.1 1.9-.1c.1 0 .2-.1.2-.2v-.8c0-.1.1-.2.2-.2l4.3-.2c.1 0 .2-.1.2-.2V174c0-.1-.1-.2-.2-.2h-3.7z"/><path class="st5" d="M285.8 158.2h25.6v25.6h-25.6z"/><path d="M285.8 158.2h25.6v25.6h-25.6z"/><path class="st6" d="M313.6 160.6h.3v22.3h-.3zm-31.7 6.5h-5.8c-.1 0-.2-.1-.2-.2s.1-.2.2-.2h5.8c.1 0 .2.1.2.2s-.1.2-.2.2z"/><path class="st6" d="M281.9 167.1c-.1 0-.2-.1-.2-.2V158c0-.1.1-.2.2-.2s.2.1.2.2v8.9c0 .2-.1.2-.2.2z"/><path d="M311.4 165.3s0-.1 0 0c0-.1 0-.1 0 0 0-.1 0 0 0 0z"/><path class="st4" d="M303.2 178.1H293c-1.1 0-2-.5-2.9-1.5l-.6-.7c-.5-.6-1.3-1-2.1-1h-1.8c-.1 0-.2-.1-.2-.2s.1-.2.2-.2h1.8c.9 0 1.8.4 2.4 1.1l.6.7c.7.9 1.5 1.3 2.5 1.3h10.2c.4 0 .8-.1 1.2-.2l3.7-1.4c.4-.1.7-.2 1.1-.2h2.1c.1 0 .2.1.2.2s-.1.2-.2.2h-2.1c-.3 0-.7.1-1 .2l-3.7 1.4c-.3.3-.7.3-1.2.3zm-16.8-17h1.7c1.3 0 2.4 1.1 2.4 2.4 0 1.3-1.1 2.4-2.4 2.4h-1.7"/><path class="st6" d="M288.1 165.1c-.9 0-1.6-.7-1.6-1.6 0-.9.7-1.6 1.6-1.6s1.6.7 1.6 1.6c0 .9-.7 1.6-1.6 1.6zm0-2.8c-.7 0-1.2.6-1.2 1.2 0 .7.6 1.2 1.2 1.2s1.2-.6 1.2-1.2c.1-.7-.5-1.2-1.2-1.2z"/><path class="st7" d="M288.2 162.6l.1.5c0 .1.1.2.2.2h.5v.3l-.5.1c-.1 0-.2.1-.2.2v.5l-.3.1-.1-.5c0-.1-.1-.2-.2-.2h-.5v-.3l.5-.1c.1 0 .2-.1.2-.2v-.5l.3-.1z"/><path class="st4" d="M286.4 176.6h1.7c1.3 0 2.4 1.1 2.4 2.4 0 1.3-1.1 2.4-2.4 2.4h-1.7"/><path class="st6" d="M288.1 180.6c-.9 0-1.6-.7-1.6-1.6s.7-1.6 1.6-1.6 1.6.7 1.6 1.6-.7 1.6-1.6 1.6zm0-2.8c-.7 0-1.2.6-1.2 1.2 0 .7.6 1.2 1.2 1.2s1.2-.6 1.2-1.2c.1-.7-.5-1.2-1.2-1.2z"/><path class="st7" d="M288.2 178.1l.1.5c0 .1.1.2.2.2h.5v.3l-.5.1c-.1 0-.2.1-.2.2v.5l-.3.1-.1-.5c0-.1-.1-.2-.2-.2h-.5v-.3l.5-.1c.1 0 .2-.1.2-.2v-.5l.3-.1z"/><path class="st4" d="M310.8 161.1h-1.7c-1.3 0-2.4 1.1-2.4 2.4 0 1.3 1.1 2.4 2.4 2.4h1.7"/><path class="st6" d="M309.1 165.1c-.9 0-1.6-.7-1.6-1.6 0-.9.7-1.6 1.6-1.6.9 0 1.6.7 1.6 1.6 0 .9-.7 1.6-1.6 1.6zm0-2.8c-.7 0-1.2.6-1.2 1.2 0 .7.6 1.2 1.2 1.2.7 0 1.2-.6 1.2-1.2 0-.7-.5-1.2-1.2-1.2z"/><path class="st7" d="M309 162.6l-.1.5c0 .1-.1.2-.2.2h-.5v.3l.5.1c.1 0 .2.1.2.2v.5l.3.1.1-.5c0-.1.1-.2.2-.2h.5v-.3l-.5-.1c-.1 0-.2-.1-.2-.2v-.5l-.3-.1z"/><path class="st4" d="M310.8 177.3h-1.7c-1.3 0-2.4 1.1-2.4 2.4 0 1.3 1.1 2.4 2.4 2.4h1.7"/><path class="st6" d="M309.1 181.3c-.9 0-1.6-.7-1.6-1.6 0-.9.7-1.6 1.6-1.6.9 0 1.6.7 1.6 1.6 0 .9-.7 1.6-1.6 1.6zm0-2.9c-.7 0-1.2.6-1.2 1.2 0 .7.6 1.2 1.2 1.2.7 0 1.2-.6 1.2-1.2s-.5-1.2-1.2-1.2z"/><path class="st7" d="M309 178.8l-.1.5c0 .1-.1.2-.2.2h-.5v.3l.5.1c.1 0 .2.1.2.2v.5l.3.1.1-.5c0-.1.1-.2.2-.2h.5v-.3l-.5-.1c-.1 0-.2-.1-.2-.2v-.5l-.3-.1z"/><path class="st6" d="M281.9 175.2h-5.8c-.1 0-.2-.1-.2-.2s.1-.2.2-.2h5.8c.1 0 .2.1.2.2s-.1.2-.2.2z"/><path class="st6" d="M281.9 184c-.1 0-.2-.1-.2-.2V175c0-.1.1-.2.2-.2s.2.1.2.2v8.9c0 .1-.1.1-.2.1zm31.9-3s0-.1 0 0c-.1 0-.2-.1-.2-.2s.2-.3.4-.3h.4v-6.7c0-.1.1-.2.2-.2s.2.1.2.2v6.7c0 .2-.2.3-.3.3h-.5v.1c-.1 0-.1.1-.2.1z"/><path class="st8" d="M285.8 183.9c-.1 0-.2-.1-.2-.2v-25.6c0-.1.1-.2.2-.2s.2.1.2.2v25.6c-.1.2-.1.2-.2.2zm25.6 0c-.1 0-.2-.1-.2-.2v-25.6c0-.1.1-.2.2-.2s.2.1.2.2v25.6c0 .1-.1.2-.2.2z"/><path class="st8" d="M311.7 184l-.3-.1h-25.6l-.3.1h-9l-.5-.5v-25l.5-.6h9l.3.1h25.6l.3-.1 2 .1c.2 0 .3.2.3.3v2.2h.5c.1 0 .3.1.3.3v12.7l3.5.1c.2 0 .4.2.4.4v8.2c0 .2-.2.4-.4.4l-4.3.2v.8c0 .2-.1.3-.3.3l-2 .1zm-35-.3h8.8l.3-.1h25.7l.3.1 1.9-.1v-.8c0-.2.1-.3.3-.3l4.3-.2v-8.2l-3.8-.1v-13h-.5c-.2 0-.3-.2-.3-.3v-2.2l-1.9-.1-.3.1h-25.7l-.3-.1h-8.8l-.3.3v24.7l.3.3z"/><path class="st4" d="M372.1 173.5v-15.2c0-.1-.1-.2-.2-.2l-1.9-.1-.3.1h-37.1l-.3-.1h-8.9l-.4.4v24.9l.4.4h8.9l.3-.1h37.1l.3.1 1.9-.1c.1 0 .2-.1.2-.2v-.8c0-.1.1-.2.2-.2l5.5-.2c.1 0 .2-.1.2-.2v-8.4c0-.1-.1-.2-.2-.2l-5.7.1z"/><path class="st5" d="M332.5 158.2h37.1v25.6h-37.1z"/><path class="st9" d="M332.5 158.2h37.1v25.6h-37.1z"/><path class="st6" d="M328.7 167.1H323c-.1 0-.2-.1-.2-.2s.1-.2.2-.2h5.8c.1 0 .2.1.2.2s-.2.2-.3.2z"/><path class="st6" d="M328.7 167.1c-.1 0-.2-.1-.2-.2V158c0-.1.1-.2.2-.2s.2.1.2.2v8.9c0 .2-.1.2-.2.2z"/><path d="M369.7 165.3s-.1 0 0 0c-.1 0-.1 0 0 0-.1 0-.1-.1 0 0 0-.1 0-.1 0 0 0-.1 0 0 0 0z"/><path class="st4" d="M361.5 178.1h-21.7c-1.1 0-2-.5-2.9-1.5l-.6-.7c-.5-.6-1.3-1-2.1-1h-1.8c-.1 0-.2-.1-.2-.2s.1-.2.2-.2h1.8c.9 0 1.8.4 2.4 1.1l.6.7c.7.9 1.5 1.3 2.5 1.3h21.7c.4 0 .8-.1 1.2-.2l3.7-1.4c.4-.1.7-.2 1.1-.2h2.1c.1 0 .2.1.2.2s-.1.2-.2.2h-2.1c-.3 0-.7.1-1 .2l-3.7 1.4c-.3.3-.7.3-1.2.3zm-28.3-17h1.7c1.3 0 2.4 1.1 2.4 2.4 0 1.3-1.1 2.4-2.4 2.4h-1.7"/><path class="st6" d="M334.9 165.1c-.9 0-1.6-.7-1.6-1.6s.7-1.6 1.6-1.6c.9 0 1.6.7 1.6 1.6s-.7 1.6-1.6 1.6zm0-2.8c-.7 0-1.2.6-1.2 1.2s.6 1.2 1.2 1.2c.7 0 1.2-.6 1.2-1.2s-.5-1.2-1.2-1.2z"/><path class="st7" d="M335 162.6l.1.5c0 .1.1.2.2.2h.5v.3l-.5.1c-.1 0-.2.1-.2.2v.5l-.3.1-.1-.5c0-.1-.1-.2-.2-.2h-.5v-.3l.5-.1c.1 0 .2-.1.2-.2v-.5l.3-.1z"/><path class="st4" d="M333.2 176.6h1.7c1.3 0 2.4 1.1 2.4 2.4 0 1.3-1.1 2.4-2.4 2.4h-1.7"/><path class="st6" d="M334.9 180.6c-.9 0-1.6-.7-1.6-1.6s.7-1.6 1.6-1.6c.9 0 1.6.7 1.6 1.6s-.7 1.6-1.6 1.6zm0-2.8c-.7 0-1.2.6-1.2 1.2s.6 1.2 1.2 1.2c.7 0 1.2-.6 1.2-1.2s-.5-1.2-1.2-1.2z"/><path class="st7" d="M335 178.1l.1.5c0 .1.1.2.2.2h.5v.3l-.5.1c-.1 0-.2.1-.2.2v.5l-.3.1-.1-.5c0-.1-.1-.2-.2-.2h-.5v-.3l.5-.1c.1 0 .2-.1.2-.2v-.5l.3-.1z"/><path class="st4" d="M369 161.1h-1.7c-1.3 0-2.4 1.1-2.4 2.4 0 1.3 1.1 2.4 2.4 2.4h1.7"/><path class="st6" d="M367.4 165.1c-.9 0-1.6-.7-1.6-1.6s.7-1.6 1.6-1.6 1.6.7 1.6 1.6-.8 1.6-1.6 1.6zm0-2.8c-.7 0-1.2.6-1.2 1.2s.6 1.2 1.2 1.2 1.2-.6 1.2-1.2-.6-1.2-1.2-1.2z"/><path class="st7" d="M367.3 162.6l-.1.5c0 .1-.1.2-.2.2h-.5v.3l.5.1c.1 0 .2.1.2.2v.5l.3.1.1-.5c0-.1.1-.2.2-.2h.5v-.3l-.5-.1c-.1 0-.2-.1-.2-.2v-.5l-.3-.1z"/><path class="st4" d="M369 177.3h-1.7c-1.3 0-2.4 1.1-2.4 2.4 0 1.3 1.1 2.4 2.4 2.4h1.7"/><path class="st6" d="M367.4 181.3c-.9 0-1.6-.7-1.6-1.6s.7-1.6 1.6-1.6 1.6.7 1.6 1.6-.8 1.6-1.6 1.6zm0-2.9c-.7 0-1.2.6-1.2 1.2s.6 1.2 1.2 1.2 1.2-.6 1.2-1.2-.6-1.2-1.2-1.2z"/><path class="st7" d="M367.3 178.8l-.1.5c0 .1-.1.2-.2.2h-.5v.3l.5.1c.1 0 .2.1.2.2v.5l.3.1.1-.5c0-.1.1-.2.2-.2h.5v-.3l-.5-.1c-.1 0-.2-.1-.2-.2v-.5l-.3-.1z"/><path class="st6" d="M328.7 175.2H323c-.1 0-.2-.1-.2-.2s.1-.2.2-.2h5.8c.1 0 .2.1.2.2s-.2.2-.3.2z"/><path class="st6" d="M328.7 184c-.1 0-.2-.1-.2-.2V175c0-.1.1-.2.2-.2s.2.1.2.2v8.9c0 .1-.1.1-.2.1zm43.2-10.6h.3v9.5h-.3z"/><path class="st8" d="M369.9 184l-.3-.1h-37.1l-.3.1h-9l-.5-.6v-25l.5-.6h9l.3.1h37.1l.3-.1 2 .1c.2 0 .3.2.3.3v15l5.5.2c.2 0 .4.2.4.4v8.4c0 .2-.2.4-.4.4l-5.5.2v.8c0 .2-.1.3-.3.3l-2 .1zm-46.5-.3h8.8l.3-.1h37.1l.3.1 1.9-.1v-.8c0-.2.1-.3.3-.3l5.5-.2v-8.4l-5.8-.2v-15.4l-1.9-.1-.3.1h-37.1l-.3-.1h-8.8l-.3.3v24.7l.3.5z"/><path class="st8" d="M332.4 158.2h.3v25.6h-.3zm37.1 0h.3v25.5h-.3z"/><path class="st4" d="M325.3 208.2V193c0-.1-.1-.2-.2-.2l-1.9-.1-.3.1h-37.1l-.3-.1h-8.9l-.4.4V218l.4.4h8.9l.3-.1h37.1l.3.1 1.9-.1c.1 0 .2-.1.2-.2v-.8c0-.1.1-.2.2-.2l5.5-.2c.1 0 .2-.1.2-.2v-8.4c0-.1-.1-.2-.2-.2l-5.7.1z"/><path class="st5" d="M285.8 192.8h37.1v25.6h-37.1z"/><path class="st9" d="M285.8 192.8h37.1v25.6h-37.1z"/><path class="st6" d="M281.9 201.8h-5.8c-.1 0-.2-.1-.2-.2s.1-.2.2-.2h5.8c.1 0 .2.1.2.2s-.1.2-.2.2z"/><path class="st6" d="M281.9 201.8c-.1 0-.2-.1-.2-.2v-8.9c0-.1.1-.2.2-.2s.2.1.2.2v8.9c0 .1-.1.2-.2.2z"/><path class="st4" d="M314.7 212.8H293c-1.1 0-2-.5-2.9-1.5l-.6-.7c-.5-.6-1.3-1-2.1-1h-1.8c-.1 0-.2-.1-.2-.2s.1-.2.2-.2h1.8c.9 0 1.8.4 2.4 1.1l.6.7c.7.9 1.5 1.3 2.5 1.3h21.7c.4 0 .8-.1 1.2-.2l3.7-1.4c.4-.1.7-.2 1.1-.2h2.1c.1 0 .2.1.2.2s-.1.2-.2.2h-2.1c-.3 0-.7.1-1 .2l-3.7 1.4c-.3.2-.7.3-1.2.3zm-28.3-17.1h1.7c1.3 0 2.4 1.1 2.4 2.4 0 1.3-1.1 2.4-2.4 2.4h-1.7"/><path class="st6" d="M288.1 199.7c-.9 0-1.6-.7-1.6-1.6 0-.9.7-1.6 1.6-1.6.9 0 1.6.7 1.6 1.6 0 .9-.7 1.6-1.6 1.6zm0-2.8c-.7 0-1.2.6-1.2 1.2 0 .7.6 1.2 1.2 1.2.7 0 1.2-.6 1.2-1.2.1-.6-.5-1.2-1.2-1.2z"/><path class="st7" d="M288.2 197.3l.1.5c0 .1.1.2.2.2h.5v.3l-.5.1c-.1 0-.2.1-.2.2v.5l-.3-.1-.1-.5c0-.1-.1-.2-.2-.2h-.5v-.3l.5-.1c.1 0 .2-.1.2-.2v-.5l.3.1z"/><path class="st4" d="M286.4 211.3h1.7c1.3 0 2.4 1.1 2.4 2.4 0 1.3-1.1 2.4-2.4 2.4h-1.7"/><path class="st6" d="M288.1 215.3c-.9 0-1.6-.7-1.6-1.6 0-.9.7-1.6 1.6-1.6.9 0 1.6.7 1.6 1.6 0 .8-.7 1.6-1.6 1.6zm0-2.9c-.7 0-1.2.6-1.2 1.2 0 .7.6 1.2 1.2 1.2.7 0 1.2-.6 1.2-1.2.1-.6-.5-1.2-1.2-1.2z"/><path class="st7" d="M288.2 212.8l.1.5c0 .1.1.2.2.2h.5v.3l-.5.1c-.1 0-.2.1-.2.2v.5l-.3.1-.1-.5c0-.1-.1-.2-.2-.2h-.5v-.3l.5-.1c.1 0 .2-.1.2-.2v-.5l.3-.1z"/><path class="st4" d="M322.3 195.7h-1.7c-1.3 0-2.4 1.1-2.4 2.4 0 1.3 1.1 2.4 2.4 2.4h1.7"/><path class="st6" d="M320.6 199.7c-.9 0-1.6-.7-1.6-1.6 0-.9.7-1.6 1.6-1.6.9 0 1.6.7 1.6 1.6 0 .9-.7 1.6-1.6 1.6zm0-2.8c-.7 0-1.2.6-1.2 1.2 0 .7.6 1.2 1.2 1.2.7 0 1.2-.6 1.2-1.2s-.5-1.2-1.2-1.2z"/><path class="st7" d="M320.5 197.3l-.1.5c0 .1-.1.2-.2.2h-.5v.3l.5.1c.1 0 .2.1.2.2v.5l.3.1.1-.5c0-.1.1-.2.2-.2h.5v-.3l-.5-.2c-.1 0-.2-.1-.2-.2v-.5h-.3z"/><path class="st4" d="M322.3 211.9h-1.7c-1.3 0-2.4 1.1-2.4 2.4 0 1.3 1.1 2.4 2.4 2.4h1.7"/><path class="st6" d="M320.6 215.9c-.9 0-1.6-.7-1.6-1.6 0-.9.7-1.6 1.6-1.6.9 0 1.6.7 1.6 1.6 0 .9-.7 1.6-1.6 1.6zm0-2.8c-.7 0-1.2.6-1.2 1.2 0 .7.6 1.2 1.2 1.2.7 0 1.2-.6 1.2-1.2s-.5-1.2-1.2-1.2z"/><path class="st7" d="M320.5 213.5l-.1.5c0 .1-.1.2-.2.2h-.5v.3l.5.1c.1 0 .2.1.2.2v.5l.3.1.1-.5c0-.1.1-.2.2-.2h.5v-.3l-.5-.1c-.1 0-.2-.1-.2-.2v-.5l-.3-.1z"/><path class="st6" d="M281.9 209.8h-5.8c-.1 0-.2-.1-.2-.2s.1-.2.2-.2h5.8c.1 0 .2.1.2.2s-.1.2-.2.2z"/><path class="st6" d="M281.9 218.7c-.1 0-.2-.1-.2-.2v-8.9c0-.1.1-.2.2-.2s.2.1.2.2v8.9c0 .1-.1.2-.2.2zm43.2-10.7h.3v9.5h-.3z"/><path class="st8" d="M323.2 218.7l-.3-.1h-37.1l-.3.1h-9l-.5-.6v-25l.5-.6h9l.3.1h37.1l.3-.1 2 .1c.2 0 .3.2.3.3v15l5.5.2c.2 0 .4.2.4.4v8.4c0 .2-.2.4-.4.4l-5.5.2v.8c0 .2-.1.3-.3.3l-2 .1zm-46.5-.3h8.8l.3-.1h37.1l.3.1 1.9-.1v-.8c0-.2.1-.3.3-.3l5.5-.2v-8.4l-5.8-.2V193l-1.9-.1-.3.1h-37.1l-.3-.1h-8.8l-.3.3V218l.3.4z"/><path class="st8" d="M285.6 192.8h.3v25.6h-.3zm37.1 0h.3v25.5h-.3z"/><path class="st4" d="M374 208.4v-12.8c0-.1-.1-.1-.2-.2h-.5c-.1 0-.1-.1-.1-.1V193c0-.1-.1-.2-.2-.2l-1.9-.1-.3.1h-25.6l-.3-.1H336l-.4.4V218l.4.4h8.9l.3-.1h25.6l.3.1 1.9-.1c.1 0 .2-.1.2-.2v-.8c0-.1.1-.2.2-.2l4.3-.2c.1 0 .2-.1.2-.2v-8.2c0-.1-.1-.2-.2-.2l-3.7.1z"/><path class="st5" d="M345.2 192.8h25.6v25.6h-25.6z"/><path d="M345.2 192.8h25.6v25.6h-25.6z"/><path class="st6" d="M373 195.2h.3v22.3h-.3zm-31.6 6.6h-5.8c-.1 0-.2-.1-.2-.2s.1-.2.2-.2h5.8c.1 0 .2.1.2.2s-.1.2-.2.2z"/><path class="st6" d="M341.4 201.8c-.1 0-.2-.1-.2-.2v-8.9c0-.1.1-.2.2-.2s.2.1.2.2v8.9c-.1.1-.1.2-.2.2z"/><path d="M370.8 199.9s.1 0 0 0c.1 0 0 0 0 0z"/><path class="st4" d="M362.7 212.8h-10.2c-1.1 0-2-.5-2.9-1.5l-.6-.7c-.5-.6-1.3-1-2.1-1h-1.8c-.1 0-.2-.1-.2-.2s.1-.2.2-.2h1.8c.9 0 1.8.4 2.4 1.1l.6.7c.7.9 1.5 1.3 2.5 1.3h10.2c.4 0 .8-.1 1.2-.2l3.7-1.4c.4-.1.7-.2 1.1-.2h2.1c.1 0 .2.1.2.2s-.1.2-.2.2h-2.1c-.3 0-.7.1-1 .2l-3.7 1.4c-.3.2-.8.3-1.2.3zm-16.8-17.1h1.7c1.3 0 2.4 1.1 2.4 2.4 0 1.3-1.1 2.4-2.4 2.4h-1.7"/><path class="st6" d="M347.5 199.7c-.9 0-1.6-.7-1.6-1.6s.7-1.6 1.6-1.6c.9 0 1.6.7 1.6 1.6s-.7 1.6-1.6 1.6zm0-2.8c-.7 0-1.2.6-1.2 1.2 0 .7.6 1.2 1.2 1.2.7 0 1.2-.6 1.2-1.2.1-.6-.5-1.2-1.2-1.2z"/><path class="st7" d="M347.6 197.3l.1.5c0 .1.1.2.2.2h.5v.3l-.5.1c-.1 0-.2.1-.2.2v.5l-.3.1-.1-.5c0-.1-.1-.2-.2-.2h-.5v-.3l.5-.1c.1 0 .2-.1.2-.2v-.5l.3-.1z"/><path class="st4" d="M345.9 211.3h1.7c1.3 0 2.4 1.1 2.4 2.4 0 1.3-1.1 2.4-2.4 2.4h-1.7"/><path class="st6" d="M347.5 215.3c-.9 0-1.6-.7-1.6-1.6s.7-1.6 1.6-1.6c.9 0 1.6.7 1.6 1.6s-.7 1.6-1.6 1.6zm0-2.9c-.7 0-1.2.6-1.2 1.2 0 .7.6 1.2 1.2 1.2.7 0 1.2-.6 1.2-1.2.1-.6-.5-1.2-1.2-1.2z"/><path class="st7" d="M347.6 212.8l.1.5c0 .1.1.2.2.2h.5v.3l-.5.1c-.1 0-.2.1-.2.2v.5l-.3.1-.1-.5c0-.1-.1-.2-.2-.2h-.5v-.3l.5-.1c.1 0 .2-.1.2-.2v-.5l.3-.1z"/><path class="st4" d="M370.2 195.7h-1.7c-1.3 0-2.4 1.1-2.4 2.4 0 1.3 1.1 2.4 2.4 2.4h1.7"/><path class="st6" d="M368.5 199.7c-.9 0-1.6-.7-1.6-1.6s.7-1.6 1.6-1.6c.9 0 1.6.7 1.6 1.6s-.7 1.6-1.6 1.6zm0-2.8c-.7 0-1.2.6-1.2 1.2 0 .7.6 1.2 1.2 1.2.7 0 1.2-.6 1.2-1.2.1-.6-.5-1.2-1.2-1.2z"/><path class="st7" d="M368.4 197.3l-.1.5c0 .1-.1.2-.2.2h-.5v.3l.5.1c.1 0 .2.1.2.2v.5l.3.1.1-.5c0-.1.1-.2.2-.2h.5v-.3l-.5-.1c-.1 0-.2-.1-.2-.2v-.5l-.3-.1z"/><path class="st4" d="M370.2 211.9h-1.7c-1.3 0-2.4 1.1-2.4 2.4 0 1.3 1.1 2.4 2.4 2.4h1.7"/><path class="st6" d="M368.5 215.9c-.9 0-1.6-.7-1.6-1.6s.7-1.6 1.6-1.6c.9 0 1.6.7 1.6 1.6s-.7 1.6-1.6 1.6zm0-2.8c-.7 0-1.2.6-1.2 1.2 0 .7.6 1.2 1.2 1.2.7 0 1.2-.6 1.2-1.2.1-.6-.5-1.2-1.2-1.2z"/><path class="st7" d="M368.4 213.5l-.1.5c0 .1-.1.2-.2.2h-.5v.3l.5.1c.1 0 .2.1.2.2v.5l.3.1.1-.5c0-.1.1-.2.2-.2h.5v-.3l-.5-.1c-.1 0-.2-.1-.2-.2v-.5l-.3-.1z"/><path class="st6" d="M341.4 209.8h-5.8c-.1 0-.2-.1-.2-.2s.1-.2.2-.2h5.8c.1 0 .2.1.2.2s-.1.2-.2.2z"/><path class="st6" d="M341.4 218.7c-.1 0-.2-.1-.2-.2v-8.9c0-.1.1-.2.2-.2s.2.1.2.2v8.9c-.1.1-.1.2-.2.2zm31.8-3.1c-.1 0-.2-.1-.2-.2s.2-.3.4-.3h.4v-6.7c0-.1.1-.2.2-.2s.2.1.2.2v6.7c0 .2-.2.3-.3.3h-.5v.1s-.1.1-.2.1z"/><path class="st8" d="M345.2 218.6c-.1 0-.2-.1-.2-.2v-25.6c0-.1.1-.2.2-.2s.2.1.2.2v25.6c0 .1-.1.2-.2.2zm25.6 0c-.1 0-.2-.1-.2-.2v-25.6c0-.1.1-.2.2-.2s.2.1.2.2v25.6c0 .1-.1.2-.2.2z"/><path class="st8" d="M371.1 218.7l-.3-.1h-25.6l-.3.1h-9l-.5-.5v-25l.5-.6h9l.3.1h25.6l.3-.1 2 .1c.2 0 .3.2.3.3v2.2h.5c.1 0 .3.1.3.3v12.7l3.5.1c.2 0 .4.2.4.4v8.2c0 .2-.2.4-.4.4l-4.3.2v.8c0 .2-.1.3-.3.3l-2 .1zm-35-.3h8.8l.3-.1h25.7l.3.1 1.9-.1v-.8c0-.2.1-.3.3-.3l4.3-.2v-8.2l-3.8-.1v-13h-.5c-.2 0-.3-.2-.3-.3V193l-1.9-.1-.3.1h-25.7l-.3-.1h-8.8l-.3.3V218l.3.4z"/><path class="st4" d="M314.6 243.1v-12.8c0-.1-.1-.1-.2-.2h-.5c-.1 0-.1-.1-.1-.1v-2.2c0-.1-.1-.2-.2-.2l-1.9-.1-.3.1h-25.6l-.3-.1h-8.9l-.4.4v24.9l.4.4h8.9l.3-.1h25.6l.3.1 1.9-.1c.1 0 .2-.1.2-.2v-.8c0-.1.1-.2.2-.2l4.3-.2c.1 0 .2-.1.2-.2v-8.2c0-.1-.1-.2-.2-.2h-3.7z"/><path class="st5" d="M285.8 227.5h25.6v25.6h-25.6z"/><path class="st9" d="M285.8 227.5h25.6v25.6h-25.6z"/><path class="st6" d="M313.6 229.9h.3v22.3h-.3zm-31.7 6.5h-5.8c-.1 0-.2-.1-.2-.2s.1-.2.2-.2h5.8c.1 0 .2.1.2.2s-.1.2-.2.2z"/><path class="st6" d="M281.9 236.4c-.1 0-.2-.1-.2-.2v-8.9c0-.1.1-.2.2-.2s.2.1.2.2v8.9c0 .2-.1.2-.2.2z"/><path d="M311.4 234.6s0-.1 0 0c0-.1 0-.1 0 0 0-.1 0 0 0 0z"/><path class="st4" d="M303.2 247.4H293c-1.1 0-2-.5-2.9-1.5l-.6-.7c-.5-.6-1.3-1-2.1-1h-1.8c-.1 0-.2-.1-.2-.2s.1-.2.2-.2h1.8c.9 0 1.8.4 2.4 1.1l.6.7c.7.9 1.5 1.3 2.5 1.3h10.2c.4 0 .8-.1 1.2-.2l3.7-1.4c.4-.1.7-.2 1.1-.2h2.1c.1 0 .2.1.2.2s-.1.2-.2.2h-2.1c-.3 0-.7.1-1 .2l-3.7 1.4c-.3.3-.7.3-1.2.3zm-16.8-17h1.7c1.3 0 2.4 1.1 2.4 2.4 0 1.3-1.1 2.4-2.4 2.4h-1.7"/><path class="st6" d="M288.1 234.4c-.9 0-1.6-.7-1.6-1.6s.7-1.6 1.6-1.6 1.6.7 1.6 1.6-.7 1.6-1.6 1.6zm0-2.8c-.7 0-1.2.6-1.2 1.2 0 .7.6 1.2 1.2 1.2s1.2-.6 1.2-1.2c.1-.7-.5-1.2-1.2-1.2z"/><path class="st7" d="M288.2 231.9l.1.5c0 .1.1.2.2.2h.5v.3l-.5.1c-.1 0-.2.1-.2.2v.5l-.3.1-.1-.5c0-.1-.1-.2-.2-.2h-.5v-.3l.5-.1c.1 0 .2-.1.2-.2v-.5l.3-.1z"/><path class="st4" d="M286.4 245.9h1.7c1.3 0 2.4 1.1 2.4 2.4 0 1.3-1.1 2.4-2.4 2.4h-1.7"/><path class="st6" d="M288.1 249.9c-.9 0-1.6-.7-1.6-1.6s.7-1.6 1.6-1.6 1.6.7 1.6 1.6-.7 1.6-1.6 1.6zm0-2.8c-.7 0-1.2.6-1.2 1.2 0 .7.6 1.2 1.2 1.2s1.2-.6 1.2-1.2c.1-.7-.5-1.2-1.2-1.2z"/><path class="st7" d="M288.2 247.4l.1.5c0 .1.1.2.2.2h.5v.3l-.5.1c-.1 0-.2.1-.2.2v.5l-.3.1-.1-.5c0-.1-.1-.2-.2-.2h-.5v-.3l.5-.1c.1 0 .2-.1.2-.2v-.5l.3-.1z"/><path class="st4" d="M310.8 230.4h-1.7c-1.3 0-2.4 1.1-2.4 2.4 0 1.3 1.1 2.4 2.4 2.4h1.7"/><path class="st6" d="M309.1 234.4c-.9 0-1.6-.7-1.6-1.6s.7-1.6 1.6-1.6c.9 0 1.6.7 1.6 1.6s-.7 1.6-1.6 1.6zm0-2.8c-.7 0-1.2.6-1.2 1.2 0 .7.6 1.2 1.2 1.2.7 0 1.2-.6 1.2-1.2 0-.7-.5-1.2-1.2-1.2z"/><path class="st7" d="M309 231.9l-.1.5c0 .1-.1.2-.2.2h-.5v.3l.5.1c.1 0 .2.1.2.2v.5l.3.1.1-.5c0-.1.1-.2.2-.2h.5v-.3l-.5-.1c-.1 0-.2-.1-.2-.2v-.5l-.3-.1z"/><path class="st4" d="M310.8 246.6h-1.7c-1.3 0-2.4 1.1-2.4 2.4 0 1.3 1.1 2.4 2.4 2.4h1.7"/><path class="st6" d="M309.1 250.6c-.9 0-1.6-.7-1.6-1.6s.7-1.6 1.6-1.6c.9 0 1.6.7 1.6 1.6s-.7 1.6-1.6 1.6zm0-2.9c-.7 0-1.2.6-1.2 1.2 0 .7.6 1.2 1.2 1.2.7 0 1.2-.6 1.2-1.2s-.5-1.2-1.2-1.2z"/><path class="st7" d="M309 248.1l-.1.5c0 .1-.1.2-.2.2h-.5v.3l.5.1c.1 0 .2.1.2.2v.5l.3.1.1-.5c0-.1.1-.2.2-.2h.5v-.3l-.5-.1c-.1 0-.2-.1-.2-.2v-.5l-.3-.1z"/><path class="st6" d="M281.9 244.5h-5.8c-.1 0-.2-.1-.2-.2s.1-.2.2-.2h5.8c.1 0 .2.1.2.2s-.1.2-.2.2z"/><path class="st6" d="M281.9 253.3c-.1 0-.2-.1-.2-.2v-8.9c0-.1.1-.2.2-.2s.2.1.2.2v8.9c0 .2-.1.2-.2.2zm31.9-3s0-.1 0 0c-.1 0-.2-.1-.2-.2s.2-.3.4-.3h.4v-6.7c0-.1.1-.2.2-.2s.2.1.2.2v6.7c0 .2-.2.3-.3.3h-.5v.1c-.1 0-.1.1-.2.1z"/><path class="st8" d="M285.8 253.2c-.1 0-.2-.1-.2-.2v-25.6c0-.1.1-.2.2-.2s.2.1.2.2V253c-.1.2-.1.2-.2.2zm25.6 0c-.1 0-.2-.1-.2-.2v-25.6c0-.1.1-.2.2-.2s.2.1.2.2V253c0 .1-.1.2-.2.2z"/><path class="st8" d="M311.7 253.3l-.3-.1h-25.6l-.3.1h-9l-.5-.5v-25l.5-.6h9l.3.1h25.6l.3-.1 2 .1c.2 0 .3.2.3.3v2.2h.5c.1 0 .3.1.3.3v12.7l3.5.1c.2 0 .4.2.4.4v8.2c0 .2-.2.4-.4.4l-4.3.2v.8c0 .2-.1.3-.3.3l-2 .1zm-35-.3h8.8l.3-.1h25.7l.3.1 1.9-.1v-.8c0-.2.1-.3.3-.3l4.3-.2v-8.2l-3.8-.1v-13h-.5c-.2 0-.3-.2-.3-.3v-2.2l-1.9-.1-.3.1h-25.7l-.3-.1h-8.8l-.3.3v24.7l.3.3z"/><path class="st4" d="M372.1 242.8v-15.2c0-.1-.1-.2-.2-.2l-1.9-.1-.3.1h-37.1l-.3-.1h-8.9l-.4.4v24.9l.4.4h8.9l.3-.1h37.1l.3.1 1.9-.1c.1 0 .2-.1.2-.2v-.8c0-.1.1-.2.2-.2l5.5-.2c.1 0 .2-.1.2-.2v-8.4c0-.1-.1-.2-.2-.2l-5.7.1z"/><path class="st5" d="M332.5 227.5h37.1v25.6h-37.1z"/><path d="M332.5 227.5h37.1v25.6h-37.1z"/><path class="st6" d="M328.7 236.4H323c-.1 0-.2-.1-.2-.2s.1-.2.2-.2h5.8c.1 0 .2.1.2.2-.1.2-.2.2-.3.2z"/><path class="st6" d="M328.7 236.4c-.1 0-.2-.1-.2-.2v-8.9c0-.1.1-.2.2-.2s.2.1.2.2v8.9c0 .2-.1.2-.2.2z"/><path d="M369.7 234.6s-.1 0 0 0c-.1 0-.1 0 0 0-.1 0-.1-.1 0 0 0-.1 0-.1 0 0 0-.1 0 0 0 0z"/><path class="st4" d="M361.5 247.4h-21.7c-1.1 0-2-.5-2.9-1.5l-.6-.7c-.5-.6-1.3-1-2.1-1h-1.8c-.1 0-.2-.1-.2-.2s.1-.2.2-.2h1.8c.9 0 1.8.4 2.4 1.1l.6.7c.7.9 1.5 1.3 2.5 1.3h21.7c.4 0 .8-.1 1.2-.2l3.7-1.4c.4-.1.7-.2 1.1-.2h2.1c.1 0 .2.1.2.2s-.1.2-.2.2h-2.1c-.3 0-.7.1-1 .2l-3.7 1.4c-.3.3-.7.3-1.2.3zm-28.3-17h1.7c1.3 0 2.4 1.1 2.4 2.4 0 1.3-1.1 2.4-2.4 2.4h-1.7"/><path class="st6" d="M334.9 234.4c-.9 0-1.6-.7-1.6-1.6s.7-1.6 1.6-1.6c.9 0 1.6.7 1.6 1.6s-.7 1.6-1.6 1.6zm0-2.8c-.7 0-1.2.6-1.2 1.2s.6 1.2 1.2 1.2c.7 0 1.2-.6 1.2-1.2s-.5-1.2-1.2-1.2z"/><path class="st7" d="M335 231.9l.1.5c0 .1.1.2.2.2h.5v.3l-.5.1c-.1 0-.2.1-.2.2v.5l-.3.1-.1-.5c0-.1-.1-.2-.2-.2h-.5v-.3l.5-.1c.1 0 .2-.1.2-.2v-.5l.3-.1z"/><path class="st4" d="M333.2 245.9h1.7c1.3 0 2.4 1.1 2.4 2.4 0 1.3-1.1 2.4-2.4 2.4h-1.7"/><path class="st6" d="M334.9 249.9c-.9 0-1.6-.7-1.6-1.6s.7-1.6 1.6-1.6c.9 0 1.6.7 1.6 1.6s-.7 1.6-1.6 1.6zm0-2.8c-.7 0-1.2.6-1.2 1.2s.6 1.2 1.2 1.2c.7 0 1.2-.6 1.2-1.2s-.5-1.2-1.2-1.2z"/><path class="st7" d="M335 247.4l.1.5c0 .1.1.2.2.2h.5v.3l-.5.1c-.1 0-.2.1-.2.2v.5l-.3.1-.1-.5c0-.1-.1-.2-.2-.2h-.5v-.3l.5-.1c.1 0 .2-.1.2-.2v-.5l.3-.1z"/><path class="st4" d="M369 230.4h-1.7c-1.3 0-2.4 1.1-2.4 2.4 0 1.3 1.1 2.4 2.4 2.4h1.7"/><path class="st6" d="M367.4 234.4c-.9 0-1.6-.7-1.6-1.6s.7-1.6 1.6-1.6 1.6.7 1.6 1.6-.8 1.6-1.6 1.6zm0-2.8c-.7 0-1.2.6-1.2 1.2s.6 1.2 1.2 1.2 1.2-.6 1.2-1.2-.6-1.2-1.2-1.2z"/><path class="st7" d="M367.3 231.9l-.1.5c0 .1-.1.2-.2.2h-.5v.3l.5.1c.1 0 .2.1.2.2v.5l.3.1.1-.5c0-.1.1-.2.2-.2h.5v-.3l-.5-.1c-.1 0-.2-.1-.2-.2v-.5l-.3-.1z"/><path class="st4" d="M369 246.6h-1.7c-1.3 0-2.4 1.1-2.4 2.4 0 1.3 1.1 2.4 2.4 2.4h1.7"/><path class="st6" d="M367.4 250.6c-.9 0-1.6-.7-1.6-1.6s.7-1.6 1.6-1.6 1.6.7 1.6 1.6-.8 1.6-1.6 1.6zm0-2.9c-.7 0-1.2.6-1.2 1.2s.6 1.2 1.2 1.2 1.2-.6 1.2-1.2-.6-1.2-1.2-1.2z"/><path class="st7" d="M367.3 248.1l-.1.5c0 .1-.1.2-.2.2h-.5v.3l.5.1c.1 0 .2.1.2.2v.5l.3.1.1-.5c0-.1.1-.2.2-.2h.5v-.3l-.5-.1c-.1 0-.2-.1-.2-.2v-.5l-.3-.1z"/><path class="st6" d="M328.7 244.5H323c-.1 0-.2-.1-.2-.2s.1-.2.2-.2h5.8c.1 0 .2.1.2.2s-.2.2-.3.2z"/><path class="st6" d="M328.7 253.3c-.1 0-.2-.1-.2-.2v-8.9c0-.1.1-.2.2-.2s.2.1.2.2v8.9c0 .2-.1.2-.2.2zm43.2-10.6h.3v9.5h-.3z"/><path class="st8" d="M369.9 253.3l-.3-.1h-37.1l-.3.1h-9l-.5-.6v-25l.5-.6h9l.3.1h37.1l.3-.1 2 .1c.2 0 .3.2.3.3v15l5.5.2c.2 0 .4.2.4.4v8.4c0 .2-.2.4-.4.4l-5.5.2v.8c0 .2-.1.3-.3.3l-2 .1zm-46.5-.3h8.8l.3-.1h37.1l.3.1 1.9-.1v-.8c0-.2.1-.3.3-.3l5.5-.2v-8.4l-5.8-.2v-15.4l-1.9-.1-.3.1h-37.1l-.3-.1h-8.8l-.3.3v24.7l.3.5z"/><path class="st8" d="M332.4 227.5h.3v25.6h-.3zm37.1 0h.3V253h-.3z"/><path class="st10" d="M273 107.7h108.1V138H273z"/><path class="st4" d="M307.5 117.5h2.3l4.9 11.5h-2.6l-1-2.6h-4.8l-1 2.6h-2.6l4.8-11.5zm2.7 6.7l-1.5-3.7-1.5 3.7h3zm5.1-.9c0-3.3 2.4-5.9 5.9-5.9 2.1 0 3.4.7 4.5 1.8l-1.6 1.8c-.9-.8-1.8-1.3-2.9-1.3-1.9 0-3.3 1.6-3.3 3.5 0 2 1.4 3.6 3.3 3.6 1.3 0 2.1-.5 3-1.3l1.6 1.6c-1.2 1.3-2.5 2-4.7 2-3.4.1-5.8-2.5-5.8-5.8zm12.5-5.7h8.6v2.2h-6.1v2.3h5.4v2.2h-5.4v2.4h6.2v2.2h-8.7v-11.3zM343 127l3.8-3.1c1.4-1.2 2-1.8 2-2.7 0-1-.6-1.5-1.5-1.5s-1.5.5-2.3 1.5l-1.8-1.4c1.1-1.5 2.2-2.4 4.2-2.4 2.4 0 3.9 1.4 3.9 3.5 0 1.9-1 2.8-3 4.4l-1.9 1.4h5v2.2H343V127z"/></g><g id="ace"><path class="st10" d="M141 107.7h108.1V138H141z"/><path class="st4" d="M183 117.5h2.3l4.9 11.5h-2.6l-1-2.6h-4.8l-1 2.6h-2.6l4.8-11.5zm2.7 6.7l-1.5-3.7-1.5 3.7h3zm5.1-.9c0-3.3 2.4-5.9 5.9-5.9 2.1 0 3.4.7 4.5 1.8l-1.6 1.8c-.9-.8-1.8-1.3-2.9-1.3-1.9 0-3.3 1.6-3.3 3.5 0 2 1.4 3.6 3.3 3.6 1.3 0 2.1-.5 3-1.3l1.6 1.6c-1.2 1.3-2.5 2-4.7 2-3.3.1-5.8-2.5-5.8-5.8zm12.5-5.7h8.6v2.2h-6.1v2.3h5.4v2.2h-5.4v2.4h6.2v2.2h-8.7v-11.3z"/><path class="st0" d="M158.2 109V.5m75 108.5V.5"/><path class="st1" d="M139.5 154.5h111.1V259H139.5z"/><path class="st2" d="M248.6 256.3H141.5v-2.2h107.1zm0-35.1H141.5V219h107.1zm0-35.1H141.5v-2.2h107.1z"/><path class="st3" d="M139.5 154.5h111.1V259H139.5z"/><path class="st4" d="M181.3 227.6h.3l.2.1v.5h.2v.9h4.8v7.9H182v.9h-.2v.5l-.2.2h-.3v14.2l-.3.2-4.2.2h-22l-.2-.3-10.5-.2-.2-.3v-24.3l.2-.3 10.5-.2.2-.2h1.6l.3.1h20.1l.3-.1 3.9.1.3.3z"/><path class="st8" d="M181.3 238.7c-.1 0-.2-.1-.2-.2v-11c0-.1.1-.2.2-.2s.2.1.2.2v11c0 .2-.1.2-.2.2zm.7-1.6c-.1 0-.2-.1-.2-.2V229c0-.1.1-.2.2-.2s.2.1.2.2v7.9c0 .2-.1.2-.2.2zm-27 16.2c-.1 0-.2-.1-.2-.2v-25.8c0-.1.1-.2.2-.2s.2.1.2.2v25.8c-.1.2-.1.2-.2.2z"/><path class="st11" d="M176.8 227.5v21.9l-19.3-1.4-.9-20.6"/><path class="st11" d="M154.8 253.3l-.3-.2-10.5-.2-.3-.4v-24.4l.3-.4 10.5-.2.2-.2h22l.3-.1 4 .1.1.1h.5l.3.2v.5h.3v.9h4.8v8.2h-4.8v1h-.3v.4l-.2.2h-.3V253l-.4.3-4.3.2-21.9-.2zm.1-.3h21.9l4.2-.2.1-.1v-14.3h.5v-.6h.3v-1h4.8v-7.5h-4.8v-.9h-.3v-.6h-.2l-.1.4-.5-.5-3.9-.1-.3.1h-20.1l-.3-.1h-1.6l-.2.2-10.5.2-.1.2v24.2l.1.2 10.5.2.5.2z"/><path class="st4" d="M157.7 229.9h1.9c1.3 0 2.4 1.1 2.4 2.4s-1.1 2.4-2.4 2.4h-1.7"/><path class="st6" d="M159.5 233.9c-.9 0-1.6-.7-1.6-1.6s.7-1.6 1.6-1.6c.9 0 1.6.7 1.6 1.6s-.7 1.6-1.6 1.6zm0-2.8c-.7 0-1.2.6-1.2 1.2s.6 1.2 1.2 1.2 1.2-.6 1.2-1.2-.5-1.2-1.2-1.2z"/><path class="st7" d="M159.6 231.4l.1.5c0 .1.1.2.2.2h.5v.3l-.5.1c-.1 0-.2.1-.2.2v.5l-.3.1-.1-.5c0-.1-.1-.2-.2-.2h-.5v-.3l.5-.1c.1 0 .2-.1.2-.2v-.5l.3-.1z"/><path class="st4" d="M175.9 246.2h-1.7c-1.3 0-2.4-1.1-2.4-2.4 0-1.3 1.1-2.4 2.4-2.4h1.7"/><path class="st6" d="M174.2 245.3c-.9 0-1.6-.7-1.6-1.6s.7-1.6 1.6-1.6 1.6.7 1.6 1.6-.7 1.6-1.6 1.6zm0-2.8c-.7 0-1.2.6-1.2 1.2s.6 1.2 1.2 1.2 1.2-.6 1.2-1.2-.5-1.2-1.2-1.2z"/><path class="st7" d="M174.2 244.7l-.1-.5c0-.1-.1-.2-.2-.2h-.5v-.3l.5-.1c.1 0 .2-.1.2-.2v-.5l.3-.1.1.5c0 .1.1.2.2.2h.5v.3l-.5.1c-.1 0-.2.1-.2.2v.5l-.3.1z"/><path class="st4" d="M181.3 158.3h.3l.2.1v.5h.2v.9h4.8v7.9H182v.9h-.2v.5l-.2.2h-.3v14.2l-.3.2-4.2.2h-22l-.2-.3-10.5-.2-.2-.3v-24.3l.2-.3 10.5-.2.2-.2h1.6l.3.1h20.1l.3-.1 3.9.1.3.3z"/><path class="st8" d="M181.3 169.4c-.1 0-.2-.1-.2-.2v-11c0-.1.1-.2.2-.2s.2.1.2.2v11c0 .2-.1.2-.2.2zm.7-1.6c-.1 0-.2-.1-.2-.2v-7.9c0-.1.1-.2.2-.2s.2.1.2.2v7.9c0 .2-.1.2-.2.2zM155 184c-.1 0-.2-.1-.2-.2V158c0-.1.1-.2.2-.2s.2.1.2.2v25.8c-.1.2-.1.2-.2.2z"/><path class="st11" d="M176.8 158.2v21.9l-19.3-1.4-.9-20.6"/><path class="st11" d="M154.8 184l-.3-.2-10.5-.2-.3-.4v-24.4l.3-.4 10.5-.2.2-.2h22l.3-.1 4 .1.1.1h.5l.3.2v.5h.3v.9h4.8v8.2h-4.8v1h-.3v.4l-.2.2h-.3v14.2l-.4.3-4.3.2-21.9-.2zm.1-.3h21.9l4.2-.2.1-.1v-14.3h.5v-.6h.3v-1h4.8V160h-4.8v-.9h-.3v-.6h-.2l-.1.4-.5-.5-3.9-.1-.3.1h-20.1l-.3-.1h-1.6l-.2.2-10.5.2-.1.2V183l.1.2 10.5.2.5.3z"/><path class="st4" d="M157.7 160.6h1.9c1.3 0 2.4 1.1 2.4 2.4 0 1.3-1.1 2.4-2.4 2.4h-1.7"/><path class="st6" d="M159.5 164.6c-.9 0-1.6-.7-1.6-1.6s.7-1.6 1.6-1.6c.9 0 1.6.7 1.6 1.6s-.7 1.6-1.6 1.6zm0-2.8c-.7 0-1.2.6-1.2 1.2s.6 1.2 1.2 1.2 1.2-.6 1.2-1.2-.5-1.2-1.2-1.2z"/><path class="st7" d="M159.6 162.1l.1.5c0 .1.1.2.2.2h.5v.3l-.5.1c-.1 0-.2.1-.2.2v.5l-.3.1-.1-.5c0-.1-.1-.2-.2-.2h-.5v-.3l.5-.1c.1 0 .2-.1.2-.2v-.5l.3-.1z"/><path class="st4" d="M175.9 176.9h-1.7c-1.3 0-2.4-1.1-2.4-2.4s1.1-2.4 2.4-2.4h1.7"/><path class="st6" d="M174.2 176c-.9 0-1.6-.7-1.6-1.6 0-.9.7-1.6 1.6-1.6s1.6.7 1.6 1.6c0 .9-.7 1.6-1.6 1.6zm0-2.8c-.7 0-1.2.6-1.2 1.2s.6 1.2 1.2 1.2 1.2-.6 1.2-1.2-.5-1.2-1.2-1.2z"/><path class="st7" d="M174.2 175.4l-.1-.5c0-.1-.1-.2-.2-.2h-.5v-.3l.5-.1c.1 0 .2-.1.2-.2v-.5l.3-.1.1.5c0 .1.1.2.2.2h.5v.3l-.5.1c-.1 0-.2.1-.2.2v.5l-.3.1z"/><path class="st4" d="M239.6 171h.3l.2.1v.5h.2v.9h4.8v7.9h-4.8v.9h-.2v.5l-.1.2h-.4v1.5l-.2.2-4.3.2h-32.4l-.3-.3-10.4-.2-.3-.3v-24.3l.3-.3 10.4-.2.3-.2h1.6l.3.1h30.5l.3-.1 3.9.1.3.3z"/><path class="st8" d="M240.3 180.5c-.1 0-.2-.1-.2-.2v-7.9c0-.1.1-.2.2-.2s.2.1.2.2v7.9c0 .1-.1.2-.2.2zm-37.5 3.5c-.1 0-.2-.1-.2-.2V158c0-.1.1-.2.2-.2s.2.1.2.2v25.8c0 .2-.1.2-.2.2z"/><path class="st11" d="M235.1 158.2v21.9l-29.7-1.4-.9-20.6"/><path class="st11" d="M202.7 184l-.3-.2-10.5-.2-.3-.4v-24.4l.3-.4 10.5-.2.2-.2h32.5l.3-.1 4 .1.4.4v12.4h.2l.3.2v.5h.3v.9h4.8v8.2h-4.8v1h-.3v.4l-.2.2h-.3v1.5l-.4.3-4.3.2-32.4-.2zm0-.3h32.4l4.2-.2.1-.1v-1.6h.5v-.6h.3v-1h4.8v-7.5h-4.8v-.9h-.3v-.6h-.5v-12.6l-.2-.2-3.9-.1-.3.1h-30.5l-.3-.1h-1.6l-.2.2-10.5.2-.2.2V183l.1.2 10.5.2.4.3z"/><path class="st4" d="M205.5 160.6h1.9c1.3 0 2.4 1.1 2.4 2.4 0 1.3-1.1 2.4-2.4 2.4h-1.7"/><path class="st6" d="M207.4 164.6c-.9 0-1.6-.7-1.6-1.6s.7-1.6 1.6-1.6 1.6.7 1.6 1.6-.7 1.6-1.6 1.6zm0-2.8c-.7 0-1.2.6-1.2 1.2s.6 1.2 1.2 1.2 1.2-.6 1.2-1.2-.5-1.2-1.2-1.2z"/><path class="st7" d="M207.5 162.1l.1.5c0 .1.1.2.2.2h.5v.3l-.5.1c-.1 0-.2.1-.2.2v.5l-.3.1-.1-.5c0-.1-.1-.2-.2-.2h-.5v-.3l.5-.1c.1 0 .2-.1.2-.2v-.5l.3-.1z"/><path class="st4" d="M234.2 165.4h-1.7c-1.3 0-2.4-1.1-2.4-2.4 0-1.3 1.1-2.4 2.4-2.4h1.7"/><path class="st6" d="M232.5 164.5c-.9 0-1.6-.7-1.6-1.6s.7-1.6 1.6-1.6c.9 0 1.6.7 1.6 1.6s-.7 1.6-1.6 1.6zm0-2.8c-.7 0-1.2.6-1.2 1.2s.6 1.2 1.2 1.2 1.2-.6 1.2-1.2-.5-1.2-1.2-1.2z"/><path class="st7" d="M232.5 163.8l-.1-.5c0-.1-.1-.2-.2-.2h-.5v-.3l.5-.1c.1 0 .2-.1.2-.2v-.5l.3-.1.1.5c0 .1.1.2.2.2h.5v.3l-.5.1c-.1 0-.2.1-.2.2v.5l-.3.1z"/><path class="st4" d="M239.6 240.3h.3l.2.1v.5h.2v.9h4.8v7.9h-4.8v.9h-.2v.5l-.1.2h-.4v1.5l-.2.2-4.3.2h-32.4l-.3-.3-10.4-.2-.3-.3v-24.3l.3-.3 10.4-.2.3-.2h1.6l.3.1h30.5l.3-.1 3.9.1.3.3z"/><path class="st8" d="M240.3 249.8c-.1 0-.2-.1-.2-.2v-7.9c0-.1.1-.2.2-.2s.2.1.2.2v7.9c0 .1-.1.2-.2.2zm-37.5 3.5c-.1 0-.2-.1-.2-.2v-25.8c0-.1.1-.2.2-.2s.2.1.2.2v25.8c0 .2-.1.2-.2.2z"/><path class="st11" d="M235.1 227.5v21.9l-29.7-1.4-.9-20.6"/><path class="st11" d="M202.7 253.3l-.3-.2-10.5-.2-.3-.4v-24.4l.3-.4 10.5-.2.2-.2h32.5l.3-.1 4 .1.4.4v12.4h.2l.3.2v.5h.3v.9h4.8v8.2h-4.8v1h-.3v.4l-.2.2h-.3v1.5l-.4.3-4.3.2-32.4-.2zm0-.3h32.4l4.2-.2.1-.1v-1.6h.5v-.6h.3v-1h4.8V242h-4.8v-.9h-.3v-.6h-.5v-12.6l-.2-.2-3.9-.1-.3.1h-30.5l-.3-.1h-1.6l-.2.2-10.4.2-.2.2v24.2l.1.2 10.5.2.3.2z"/><path class="st4" d="M205.5 229.9h1.9c1.3 0 2.4 1.1 2.4 2.4 0 1.3-1.1 2.4-2.4 2.4h-1.7"/><path class="st6" d="M207.4 233.9c-.9 0-1.6-.7-1.6-1.6s.7-1.6 1.6-1.6 1.6.7 1.6 1.6-.7 1.6-1.6 1.6zm0-2.8c-.7 0-1.2.6-1.2 1.2s.6 1.2 1.2 1.2 1.2-.6 1.2-1.2-.5-1.2-1.2-1.2z"/><path class="st7" d="M207.5 231.4l.1.5c0 .1.1.2.2.2h.5v.3l-.5.1c-.1 0-.2.1-.2.2v.5l-.3.1-.1-.5c0-.1-.1-.2-.2-.2h-.5v-.3l.5-.1c.1 0 .2-.1.2-.2v-.5l.3-.1z"/><path class="st4" d="M234.2 234.7h-1.7c-1.3 0-2.4-1.1-2.4-2.4 0-1.3 1.1-2.4 2.4-2.4h1.7"/><path class="st6" d="M232.5 233.8c-.9 0-1.6-.7-1.6-1.6s.7-1.6 1.6-1.6c.9 0 1.6.7 1.6 1.6s-.7 1.6-1.6 1.6zm0-2.8c-.7 0-1.2.6-1.2 1.2s.6 1.2 1.2 1.2 1.2-.6 1.2-1.2-.5-1.2-1.2-1.2z"/><path class="st7" d="M232.5 233.1l-.1-.5c0-.1-.1-.2-.2-.2h-.5v-.3l.5-.1c.1 0 .2-.1.2-.2v-.5l.3-.1.1.5c0 .1.1.2.2.2h.5v.3l-.5.1c-.1 0-.2.1-.2.2v.5l-.3.1z"/><path class="st4" d="M192 218.1l-.2.2-4.2.2h-32.5l-.2-.2-10.5-.3-.2-.2v-24.3l.2-.3 10.5-.2.2-.2h32.7l4 .1.2.2z"/><path class="st8" d="M155.3 218.7c-.1 0-.2-.1-.2-.2v-25.8c0-.1.1-.2.2-.2s.2.1.2.2v25.8c0 .1-.1.2-.2.2z"/><path class="st11" d="M187.6 192.8v22l-29.8-1.4-.9-20.6"/><path class="st11" d="M155.1 218.7l-.3-.2-10.5-.2-.3-.4v-24.4l.3-.4 10.5-.2.2-.2h32.5l.3-.1 4 .1.4.4v25.1l-.3.3h-.1l-4.2.2h-32.5zm.1-.4h32.4l4.2-.2.1-.1v-24.9l-.2-.2-3.9-.1-.3.1H157l-.3-.1h-1.6l-.2.2h-.1l-10.4.2-.1.2v24.2l.1.2 10.5.2.3.3z"/><path class="st4" d="M157.9 195.2h1.9c1.3 0 2.4 1.1 2.4 2.4 0 1.3-1.1 2.4-2.4 2.4h-1.7"/><path class="st6" d="M159.8 199.2c-.9 0-1.6-.7-1.6-1.6 0-.9.7-1.6 1.6-1.6s1.6.7 1.6 1.6c0 .9-.7 1.6-1.6 1.6zm0-2.8c-.7 0-1.2.6-1.2 1.2 0 .7.6 1.2 1.2 1.2s1.2-.6 1.2-1.2c.1-.6-.5-1.2-1.2-1.2z"/><path class="st7" d="M159.9 196.8l.1.5c0 .1.1.2.2.2h.5v.3l-.5.1c-.1 0-.2.1-.2.2v.5l-.3.1-.1-.5c0-.1-.1-.2-.2-.2h-.5v-.3l.5-.1c.1 0 .2-.1.2-.2v-.5l.3-.1z"/><path class="st4" d="M186.7 200H185c-1.3 0-2.4-1.1-2.4-2.4 0-1.3 1.1-2.4 2.4-2.4h1.7"/><path class="st6" d="M185 199.1c-.9 0-1.6-.7-1.6-1.6 0-.9.7-1.6 1.6-1.6s1.6.7 1.6 1.6c0 .9-.7 1.6-1.6 1.6zm0-2.8c-.7 0-1.2.6-1.2 1.2s.6 1.2 1.2 1.2 1.2-.6 1.2-1.2-.5-1.2-1.2-1.2z"/><path class="st7" d="M184.9 198.5l-.1-.5c0-.1-.1-.2-.2-.2h-.5v-.3l.5-.1c.1 0 .2-.1.2-.2v-.5l.3-.1.1.5c0 .1.1.2.2.2h.5v.3l-.5.1c-.1 0-.2.1-.2.2v.5l-.3.1z"/><path class="st4" d="M240.7 192.9h.3l.2.1v.5h.2v1h4.8v7.8h-4.8v1h-.2v.5l-.1.1h-.4v14.2l-.2.2-4.3.2h-22l-.2-.2-10.5-.3-.2-.2v-24.3l.2-.3 10.5-.2.2-.2h22.3l3.9.1.3.2z"/><path class="st8" d="M240.7 204.1c-.1 0-.2-.1-.2-.2v-11c0-.1.1-.2.2-.2s.2.1.2.2v11c0 .1-.1.2-.2.2zm.7-1.6c-.1 0-.2-.1-.2-.2v-7.9c0-.1.1-.2.2-.2s.2.1.2.2v7.9c0 .1-.1.2-.2.2zm-27 16.2c-.1 0-.2-.1-.2-.2v-25.8c0-.1.1-.2.2-.2s.2.1.2.2v25.8c-.1.1-.1.2-.2.2z"/><path class="st11" d="M236.2 192.8v22l-19.3-1.4-.9-20.6"/><path class="st11" d="M214.2 218.7l-.3-.2-10.5-.2-.3-.4v-24.4l.3-.4 10.5-.2.2-.2h22l.3-.1 4 .1.1.1h.5l.3.2v.5h.3v.9h4.8v8.2h-4.8v1h-.3v.4l-.2.2h-.3v14.2l-.4.3-4.3.2-21.9-.2zm.1-.4h21.9l4.2-.2.1-.1v-14.3h.5v-.6h.3v-1h4.8v-7.5h-4.8v-.9h-.3v-.6h-.2l-.1.4-.5-.5-3.9-.1-.3.1h-20.1l-.3-.1H214l-.2.2-10.5.2-.1.2v24.2l.1.2 10.5.2.5.2z"/><path class="st4" d="M217.1 195.2h1.9c1.3 0 2.4 1.1 2.4 2.4 0 1.3-1.1 2.4-2.4 2.4h-1.7"/><path class="st6" d="M219 199.2c-.9 0-1.6-.7-1.6-1.6 0-.9.7-1.6 1.6-1.6.9 0 1.6.7 1.6 1.6-.1.9-.8 1.6-1.6 1.6zm0-2.8c-.7 0-1.2.6-1.2 1.2 0 .7.6 1.2 1.2 1.2s1.2-.6 1.2-1.2-.5-1.2-1.2-1.2z"/><path class="st7" d="M219 196.8l.1.5c0 .1.1.2.2.2h.5v.3l-.5.1c-.1 0-.2.1-.2.2v.5l-.3.1-.1-.5c0-.1-.1-.2-.2-.2h-.5v-.3l.5-.1c.1 0 .2-.1.2-.2v-.5l.3-.1z"/><path class="st4" d="M235.3 211.6h-1.7c-1.3 0-2.4-1.1-2.4-2.4 0-1.3 1.1-2.4 2.4-2.4h1.7"/><path class="st6" d="M233.7 210.7c-.9 0-1.6-.7-1.6-1.6s.7-1.6 1.6-1.6c.9 0 1.6.7 1.6 1.6s-.8 1.6-1.6 1.6zm0-2.8c-.7 0-1.2.6-1.2 1.2s.6 1.2 1.2 1.2 1.2-.6 1.2-1.2-.6-1.2-1.2-1.2z"/><path class="st7" d="M233.6 210l-.1-.5c0-.1-.1-.2-.2-.2h-.5v-.3l.5-.1c.1 0 .2-.1.2-.2v-.5l.3-.1.1.5c0 .1.1.2.2.2h.5v.3l-.5.1c-.1 0-.2.1-.2.2v.5l-.3.1z"/><path class="st0" d="M422.1 109V.5m75 108.5V.5"/><path class="st1" d="M403.5 154.5h111.1V259H403.5z"/><path class="st2" d="M512.5 256.3H405.4v-2.2h107.1zm0-35.1H405.4V219h107.1zm0-35.1H405.4v-2.2h107.1z"/><path class="st3" d="M403.5 154.5h111.1V259H403.5z"/><path class="st4" d="M445.2 158.3h.3l.2.1v.5h.2v.9h4.8v7.9h-4.8v.9h-.2v.5l-.2.2h-.3v14.2l-.3.2-4.2.2h-22l-.2-.3-10.5-.2-.2-.3v-24.3l.2-.3 10.5-.2.2-.2h1.7l.2.1h20.1l.3-.1 3.9.1.3.3z"/><path class="st12" d="M445.2 169.4c-.1 0-.2-.1-.2-.2v-11c0-.1.1-.2.2-.2s.2.1.2.2v11c0 .2-.1.2-.2.2zm.7-1.6c-.1 0-.2-.1-.2-.2v-7.9c0-.1.1-.2.2-.2s.2.1.2.2v7.9c0 .2-.1.2-.2.2zm-27 16.2c-.1 0-.2-.1-.2-.2V158c0-.1.1-.2.2-.2s.2.1.2.2v25.8c-.1.2-.1.2-.2.2zm21.8-25.8v21.9l-19.3-1.4-.9-20.6"/><path class="st13" d="M418.7 184l-.3-.2-10.5-.2-.3-.4v-24.4l.3-.4 10.5-.2.2-.2h22l.3-.1 4 .1.1.1h.5l.3.2v.5h.3v.9h4.8v8.2h-4.8v1h-.3v.4l-.2.2h-.3v14.2l-.4.3-4.3.2-21.9-.2zm.1-.3h21.9l4.2-.2.1-.1v-14.3h.5v-.6h.3v-1h4.8V160h-4.8v-.9h-.3v-.6h-.2l-.1.4-.5-.5-3.9-.1-.3.1h-20.1l-.3-.1h-1.6l-.2.2-10.5.2-.1.2V183l.1.2 10.5.2.5.3z"/><path class="st4" d="M421.6 160.6h1.9c1.3 0 2.4 1.1 2.4 2.4 0 1.3-1.1 2.4-2.4 2.4h-1.7"/><path class="st6" d="M423.5 164.6c-.9 0-1.6-.7-1.6-1.6s.7-1.6 1.6-1.6c.9 0 1.6.7 1.6 1.6s-.8 1.6-1.6 1.6zm0-2.8c-.7 0-1.2.6-1.2 1.2s.6 1.2 1.2 1.2c.7 0 1.2-.6 1.2-1.2s-.6-1.2-1.2-1.2z"/><path class="st7" d="M423.5 162.1l.1.5c0 .1.1.2.2.2h.5v.3l-.5.1c-.1 0-.2.1-.2.2v.5l-.3.1-.1-.5c0-.1-.1-.2-.2-.2h-.5v-.3l.5-.1c.1 0 .2-.1.2-.2v-.5l.3-.1z"/><path class="st4" d="M439.8 176.9h-1.7c-1.3 0-2.4-1.1-2.4-2.4 0-1.3 1.1-2.4 2.4-2.4h1.7"/><path class="st6" d="M438.1 176c-.9 0-1.6-.7-1.6-1.6 0-.9.7-1.6 1.6-1.6.9 0 1.6.7 1.6 1.6 0 .9-.7 1.6-1.6 1.6zm0-2.8c-.7 0-1.2.6-1.2 1.2s.6 1.2 1.2 1.2c.7 0 1.2-.6 1.2-1.2s-.5-1.2-1.2-1.2z"/><path class="st7" d="M438.1 175.4l-.1-.5c0-.1-.1-.2-.2-.2h-.5v-.3l.5-.1c.1 0 .2-.1.2-.2v-.5l.3-.1.1.5c0 .1.1.2.2.2h.5v.3l-.5.1c-.1 0-.2.1-.2.2v.5l-.3.1z"/><path class="st4" d="M503.5 171h.3l.2.1v.5h.2v.9h4.9v7.9h-4.9v.9h-.2v.5l-.1.2h-.4v1.5l-.2.2-4.3.2h-32.4l-.3-.3-10.4-.2-.3-.3v-24.3l.3-.3 10.5-.2.2-.2h1.6l.3.1H499l.3-.1 3.9.1.3.3z"/><path class="st12" d="M504.2 180.5c-.1 0-.2-.1-.2-.2v-7.9c0-.1.1-.2.2-.2s.2.1.2.2v7.9c0 .1-.1.2-.2.2zm-37.5 3.5c-.1 0-.2-.1-.2-.2V158c0-.1.1-.2.2-.2s.2.1.2.2v25.8c0 .2-.1.2-.2.2zm32.3-25.8v21.9l-29.7-1.4-.9-20.6"/><path class="st13" d="M466.6 184l-.3-.2-10.5-.2-.3-.4v-24.4l.3-.4 10.5-.2.2-.2H499l.3-.1 4 .1.4.4v12.4h.2l.3.2v.5h.3v.9h4.8v8.2h-4.8v1h-.3v.4l-.2.2h-.3v1.5l-.4.3-4.3.2-32.4-.2zm.1-.3H499l4.2-.2.1-.1v-1.6h.5v-.6h.3v-1h4.8v-7.5h-4.8v-.9h-.3v-.6h-.5v-12.6l-.2-.2-3.9-.1-.3.1h-30.5l-.3-.1h-1.6l-.2.2-10.5.2-.2.2V183l.1.2 10.5.2.5.3z"/><path class="st4" d="M469.4 160.6h1.9c1.3 0 2.4 1.1 2.4 2.4 0 1.3-1.1 2.4-2.4 2.4h-1.7"/><path class="st6" d="M471.3 164.6c-.9 0-1.6-.7-1.6-1.6s.7-1.6 1.6-1.6c.9 0 1.6.7 1.6 1.6s-.7 1.6-1.6 1.6zm0-2.8c-.7 0-1.2.6-1.2 1.2s.6 1.2 1.2 1.2c.7 0 1.2-.6 1.2-1.2s-.5-1.2-1.2-1.2z"/><path class="st7" d="M471.4 162.1l.1.5c0 .1.1.2.2.2h.5v.3l-.5.1c-.1 0-.2.1-.2.2v.5l-.3.1-.1-.5c0-.1-.1-.2-.2-.2h-.5v-.3l.5-.1c.1 0 .2-.1.2-.2v-.5l.3-.1z"/><path class="st4" d="M498.1 165.4h-1.7c-1.3 0-2.4-1.1-2.4-2.4 0-1.3 1.1-2.4 2.4-2.4h1.7"/><path class="st6" d="M496.5 164.5c-.9 0-1.6-.7-1.6-1.6s.7-1.6 1.6-1.6c.9 0 1.6.7 1.6 1.6s-.8 1.6-1.6 1.6zm0-2.8c-.7 0-1.2.6-1.2 1.2s.6 1.2 1.2 1.2c.7 0 1.2-.6 1.2-1.2s-.6-1.2-1.2-1.2z"/><path class="st7" d="M496.4 163.8l-.1-.5c0-.1-.1-.2-.2-.2h-.5v-.3l.5-.1c.1 0 .2-.1.2-.2v-.5l.3-.1.1.5c0 .1.1.2.2.2h.5v.3l-.5.1c-.1 0-.2.1-.2.2v.5l-.3.1z"/><path class="st12" d="M503.5 182.1c-.1 0-.2-.1-.2-.2v-11c0-.1.1-.2.2-.2s.2.1.2.2v11c0 .2-.1.2-.2.2z"/><path class="st4" d="M445.2 227.6h.3l.2.1v.5h.2v.9h4.8v7.9h-4.8v.9h-.2v.5l-.2.2h-.3v14.2l-.3.2-4.2.2h-22l-.2-.3-10.5-.2-.2-.3v-24.3l.2-.3 10.5-.2.2-.2h1.7l.2.1h20.1l.3-.1 3.9.1.3.3z"/><path class="st12" d="M445.2 238.7c-.1 0-.2-.1-.2-.2v-11c0-.1.1-.2.2-.2s.2.1.2.2v11c0 .2-.1.2-.2.2zm.7-1.6c-.1 0-.2-.1-.2-.2V229c0-.1.1-.2.2-.2s.2.1.2.2v7.9c0 .2-.1.2-.2.2zm-27 16.2c-.1 0-.2-.1-.2-.2v-25.8c0-.1.1-.2.2-.2s.2.1.2.2v25.8c-.1.2-.1.2-.2.2zm21.8-25.8v21.9l-19.3-1.4-.9-20.6"/><path class="st13" d="M418.7 253.3l-.3-.2-10.5-.2-.3-.4v-24.4l.3-.4 10.5-.2.2-.2h22l.3-.1 4 .1.1.1h.5l.3.2v.5h.3v.9h4.8v8.2h-4.8v1h-.3v.4l-.2.2h-.3V253l-.4.3-4.3.2-21.9-.2zm.1-.3h21.9l4.2-.2.1-.1v-14.3h.5v-.6h.3v-1h4.8v-7.5h-4.8v-.9h-.3v-.6h-.2l-.1.4-.5-.5-3.9-.1-.3.1h-20.1l-.3-.1h-1.6l-.2.2-10.5.2-.1.2v24.2l.1.2 10.5.2.5.2z"/><path class="st4" d="M421.6 229.9h1.9c1.3 0 2.4 1.1 2.4 2.4s-1.1 2.4-2.4 2.4h-1.7"/><path class="st6" d="M423.5 233.9c-.9 0-1.6-.7-1.6-1.6s.7-1.6 1.6-1.6c.9 0 1.6.7 1.6 1.6s-.8 1.6-1.6 1.6zm0-2.8c-.7 0-1.2.6-1.2 1.2s.6 1.2 1.2 1.2c.7 0 1.2-.6 1.2-1.2s-.6-1.2-1.2-1.2z"/><path class="st7" d="M423.5 231.4l.1.5c0 .1.1.2.2.2h.5v.3l-.5.1c-.1 0-.2.1-.2.2v.5l-.3.1-.1-.5c0-.1-.1-.2-.2-.2h-.5v-.3l.5-.1c.1 0 .2-.1.2-.2v-.5l.3-.1z"/><path class="st4" d="M439.8 246.2h-1.7c-1.3 0-2.4-1.1-2.4-2.4 0-1.3 1.1-2.4 2.4-2.4h1.7"/><path class="st6" d="M438.1 245.3c-.9 0-1.6-.7-1.6-1.6s.7-1.6 1.6-1.6c.9 0 1.6.7 1.6 1.6s-.7 1.6-1.6 1.6zm0-2.8c-.7 0-1.2.6-1.2 1.2s.6 1.2 1.2 1.2c.7 0 1.2-.6 1.2-1.2s-.5-1.2-1.2-1.2z"/><path class="st7" d="M438.1 244.7l-.1-.5c0-.1-.1-.2-.2-.2h-.5v-.3l.5-.1c.1 0 .2-.1.2-.2v-.5l.3-.1.1.5c0 .1.1.2.2.2h.5v.3l-.5.1c-.1 0-.2.1-.2.2v.5l-.3.1z"/><path class="st4" d="M504.6 192.9h.3l.2.1v.5h.2v1h4.9v7.8h-4.9v1h-.2v.5l-.1.1h-.4v14.2l-.2.2-4.2.2h-22.1l-.2-.2-10.5-.3-.2-.2v-24.3l.2-.3 10.5-.2.2-.2h22.3l3.9.1.3.2z"/><path class="st12" d="M504.6 204.1c-.1 0-.2-.1-.2-.2v-11c0-.1.1-.2.2-.2s.2.1.2.2v11c0 .1-.1.2-.2.2zm.7-1.6c-.1 0-.2-.1-.2-.2v-7.9c0-.1.1-.2.2-.2s.2.1.2.2v7.9c0 .1-.1.2-.2.2zm-27 16.2c-.1 0-.2-.1-.2-.2v-25.8c0-.1.1-.2.2-.2s.2.1.2.2v25.8c0 .1-.1.2-.2.2zm21.8-25.9v22l-19.3-1.4-.9-20.6"/><path class="st13" d="M478.1 218.7l-.3-.2-10.5-.2-.3-.4v-24.4l.3-.4 10.5-.2.2-.2h22l.3-.1 4 .1.1.1h.5l.3.2v.5h.3v.9h4.8v8.2h-4.8v1h-.3v.4l-.2.2h-.3v14.2l-.4.3-4.3.2-21.9-.2zm.1-.4h21.9l4.2-.2.1-.1v-14.3h.5v-.6h.3v-1h4.8v-7.5h-4.8v-.9h-.3v-.6h-.2l-.1.4-.5-.5-3.9-.1-.3.1h-20.1l-.3-.1h-1.6l-.2.2-10.5.2-.1.2v24.2l.1.2 10.5.2.5.2z"/><path class="st4" d="M481 195.2h1.9c1.3 0 2.4 1.1 2.4 2.4 0 1.3-1.1 2.4-2.4 2.4h-1.7"/><path class="st6" d="M482.9 199.2c-.9 0-1.6-.7-1.6-1.6 0-.9.7-1.6 1.6-1.6.9 0 1.6.7 1.6 1.6 0 .9-.7 1.6-1.6 1.6zm0-2.8c-.7 0-1.2.6-1.2 1.2 0 .7.6 1.2 1.2 1.2.7 0 1.2-.6 1.2-1.2s-.5-1.2-1.2-1.2z"/><path class="st7" d="M483 196.8l.1.5c0 .1.1.2.2.2h.5v.3l-.5.1c-.1 0-.2.1-.2.2v.5l-.3.1-.1-.5c0-.1-.1-.2-.2-.2h-.5v-.3l.5-.1c.1 0 .2-.1.2-.2v-.5l.3-.1z"/><path class="st4" d="M499.2 211.6h-1.7c-1.3 0-2.4-1.1-2.4-2.4 0-1.3 1.1-2.4 2.4-2.4h1.7"/><path class="st6" d="M497.6 210.7c-.9 0-1.6-.7-1.6-1.6s.7-1.6 1.6-1.6c.9 0 1.6.7 1.6 1.6s-.8 1.6-1.6 1.6zm0-2.8c-.7 0-1.2.6-1.2 1.2s.6 1.2 1.2 1.2c.7 0 1.2-.6 1.2-1.2s-.6-1.2-1.2-1.2z"/><path class="st7" d="M497.5 210l-.1-.5c0-.1-.1-.2-.2-.2h-.5v-.3l.5-.1c.1 0 .2-.1.2-.2v-.5l.3-.1.1.5c0 .1.1.2.2.2h.5v.3l-.5.1c-.1 0-.2.1-.2.2v.5l-.3.1z"/><path class="st4" d="M456.7 205.6h.3l.2.1v.6h.3v.9h4.8v7.8h-4.8v1h-.3v.5l-.1.1h-.4v1.5l-.2.2-4.2.2h-32.5l-.2-.2-10.5-.3-.2-.2v-24.3l.2-.3 10.5-.2.2-.2h32.7l4 .1.2.2z"/><path class="st12" d="M457.5 215.2c-.1 0-.2-.1-.2-.2v-7.9c0-.1.1-.2.2-.2s.2.1.2.2v7.9c-.1.1-.1.2-.2.2zm-37.5 3.5c-.1 0-.2-.1-.2-.2v-25.8c0-.1.1-.2.2-.2s.2.1.2.2v25.8c-.1.1-.1.2-.2.2zm32.2-25.9v22l-29.7-1.4-.9-20.6"/><path class="st13" d="M419.8 218.7l-.3-.2-10.5-.2-.3-.4v-24.4l.3-.4 10.5-.2.2-.2h32.5l.3-.1 4 .1.4.4v12.4h.2l.3.2v.5h.3v.9h4.8v8.2h-4.8v1h-.3v.4l-.2.2h-.3v1.5l-.4.3-4.3.2-32.4-.2zm.1-.4h32.4l4.2-.2.1-.1v-1.6h.5v-.6h.3v-1h4.8v-7.5h-4.8v-.9h-.4v-.6h-.5v-12.6l-.2-.2-3.9-.1-.3.1h-30.5l-.3-.1h-1.6l-.2.2-10.5.2-.2.2v24.2l.1.2 10.5.2.5.2z"/><path class="st4" d="M422.6 195.2h1.9c1.3 0 2.4 1.1 2.4 2.4 0 1.3-1.1 2.4-2.4 2.4h-1.7"/><path class="st6" d="M424.5 199.2c-.9 0-1.6-.7-1.6-1.6 0-.9.7-1.6 1.6-1.6.9 0 1.6.7 1.6 1.6 0 .9-.7 1.6-1.6 1.6zm0-2.8c-.7 0-1.2.6-1.2 1.2 0 .7.6 1.2 1.2 1.2.7 0 1.2-.6 1.2-1.2.1-.6-.5-1.2-1.2-1.2z"/><path class="st7" d="M424.6 196.8l.1.5c0 .1.1.2.2.2h.5v.3l-.5.1c-.1 0-.2.1-.2.2v.5l-.3.1-.1-.5c0-.1-.1-.2-.2-.2h-.5v-.3l.5-.1c.1 0 .2-.1.2-.2v-.5l.3-.1z"/><path class="st4" d="M451.3 200h-1.7c-1.3 0-2.4-1.1-2.4-2.4 0-1.3 1.1-2.4 2.4-2.4h1.7"/><path class="st6" d="M449.7 199.1c-.9 0-1.6-.7-1.6-1.6 0-.9.7-1.6 1.6-1.6.9 0 1.6.7 1.6 1.6 0 .9-.7 1.6-1.6 1.6zm0-2.8c-.7 0-1.2.6-1.2 1.2s.6 1.2 1.2 1.2c.7 0 1.2-.6 1.2-1.2s-.5-1.2-1.2-1.2z"/><path class="st7" d="M449.6 198.5l-.1-.5c0-.1-.1-.2-.2-.2h-.5v-.3l.5-.1c.1 0 .2-.1.2-.2v-.5l.3-.1.1.5c0 .1.1.2.2.2h.5v.3l-.5.1c-.1 0-.2.1-.2.2v.5l-.3.1z"/><path class="st12" d="M456.7 216.8c-.1 0-.2-.1-.2-.2v-11c0-.1.1-.2.2-.2s.2.1.2.2v11c0 .1-.1.2-.2.2z"/><path class="st4" d="M503.5 240.3h.3l.2.1v.5h.2v.9h4.9v7.9h-4.9v.9h-.2v.5l-.1.2h-.4v1.5l-.2.2-4.3.2h-32.4l-.3-.3-10.4-.2-.3-.3v-24.3l.3-.3 10.5-.2.2-.2h1.6l.3.1H499l.3-.1 3.9.1.3.3z"/><path class="st12" d="M504.2 249.8c-.1 0-.2-.1-.2-.2v-7.9c0-.1.1-.2.2-.2s.2.1.2.2v7.9c0 .1-.1.2-.2.2zm-37.5 3.5c-.1 0-.2-.1-.2-.2v-25.8c0-.1.1-.2.2-.2s.2.1.2.2v25.8c0 .2-.1.2-.2.2zm32.3-25.8v21.9l-29.7-1.4-.9-20.6"/><path class="st13" d="M466.6 253.3l-.3-.2-10.5-.2-.3-.4v-24.4l.3-.4 10.5-.2.2-.2H499l.3-.1 4 .1.4.4v12.4h.2l.3.2v.5h.3v.9h4.8v8.2h-4.8v1h-.3v.4l-.2.2h-.3v1.5l-.4.3-4.3.2-32.4-.2zm.1-.3H499l4.2-.2.1-.1v-1.6h.5v-.6h.3v-1h4.8V242h-4.8v-.9h-.3v-.6h-.5v-12.6l-.2-.2-3.9-.1-.3.1h-30.5l-.3-.1h-1.6l-.2.2-10.3.2-.2.2v24.2l.1.2 10.5.2.3.2z"/><path class="st4" d="M469.4 229.9h1.9c1.3 0 2.4 1.1 2.4 2.4 0 1.3-1.1 2.4-2.4 2.4h-1.7"/><path class="st6" d="M471.3 233.9c-.9 0-1.6-.7-1.6-1.6s.7-1.6 1.6-1.6c.9 0 1.6.7 1.6 1.6s-.7 1.6-1.6 1.6zm0-2.8c-.7 0-1.2.6-1.2 1.2s.6 1.2 1.2 1.2c.7 0 1.2-.6 1.2-1.2s-.5-1.2-1.2-1.2z"/><path class="st7" d="M471.4 231.4l.1.5c0 .1.1.2.2.2h.5v.3l-.5.1c-.1 0-.2.1-.2.2v.5l-.3.1-.1-.5c0-.1-.1-.2-.2-.2h-.5v-.3l.5-.1c.1 0 .2-.1.2-.2v-.5l.3-.1z"/><path class="st4" d="M498.1 234.7h-1.7c-1.3 0-2.4-1.1-2.4-2.4 0-1.3 1.1-2.4 2.4-2.4h1.7"/><path class="st6" d="M496.5 233.8c-.9 0-1.6-.7-1.6-1.6s.7-1.6 1.6-1.6c.9 0 1.6.7 1.6 1.6s-.8 1.6-1.6 1.6zm0-2.8c-.7 0-1.2.6-1.2 1.2s.6 1.2 1.2 1.2c.7 0 1.2-.6 1.2-1.2s-.6-1.2-1.2-1.2z"/><path class="st7" d="M496.4 233.1l-.1-.5c0-.1-.1-.2-.2-.2h-.5v-.3l.5-.1c.1 0 .2-.1.2-.2v-.5l.3-.1.1.5c0 .1.1.2.2.2h.5v.3l-.5.1c-.1 0-.2.1-.2.2v.5l-.3.1z"/><path class="st12" d="M503.5 251.4c-.1 0-.2-.1-.2-.2v-11c0-.1.1-.2.2-.2s.2.1.2.2v11c0 .2-.1.2-.2.2z"/><path class="st10" d="M404.9 107.7H513V138H404.9z"/><path class="st4" d="M421.8 117.6h2.7l3 4.8 3-4.8h2.7V129h-2.5v-7.4l-3.2 4.9h-.1l-3.2-4.8v7.4h-2.5v-11.5zm14.1 0h8.6v2.2h-6.1v2.3h5.4v2.2h-5.4v2.4h6.2v2.2h-8.7v-11.3zm10.9 0h4.4c3.6 0 6.1 2.5 6.1 5.7s-2.5 5.7-6.1 5.7h-4.4v-11.4zm2.5 2.3v6.9h1.9c2.1 0 3.4-1.4 3.4-3.4s-1.4-3.4-3.4-3.4h-1.9zm19-2.4h2.3l4.9 11.5h-2.6l-1-2.6H467l-1 2.6h-2.6l4.9-11.5zm2.7 6.7l-1.5-3.7-1.5 3.7h3zm5-.9c0-3.3 2.4-5.9 5.9-5.9 2.1 0 3.4.7 4.5 1.8l-1.6 1.8c-.9-.8-1.8-1.3-2.9-1.3-1.9 0-3.3 1.6-3.3 3.5 0 2 1.4 3.6 3.3 3.6 1.3 0 2.1-.5 3-1.3l1.6 1.6c-1.2 1.3-2.5 2-4.7 2-3.3.1-5.8-2.5-5.8-5.8zm12.6-5.7h8.6v2.2h-6.1v2.3h5.4v2.2h-5.4v2.4h6.2v2.2h-8.7v-11.3z"/></g><g id="Isolationsmodus"><path class="st0" d="M554.2 109V.5m75 108.5V.5"/><path class="st1" d="M535.5 154.5h111.1V259H535.5z"/><path class="st2" d="M644.5 256.3H537.4v-2.2h107.1zm0-35.1H537.4V219h107.1zm0-35.1H537.4v-2.2h107.1z"/><path class="st3" d="M535.5 154.5h111.1V259H535.5z"/><path class="st4" d="M569.7 158.1c1.1 0 1.9.9 1.9 1.9v21.4c0 1.1-.9 1.9-1.9 1.9h-21.4c-1.1 0-1.9-.9-1.9-1.9V160c0-1.1.9-1.9 1.9-1.9h21.4z"/><path class="st13" d="M548.3 182.9c-.8 0-1.5-.7-1.5-1.5V160c0-.8.7-1.5 1.5-1.5h21.4c.8 0 1.5.7 1.5 1.5v21.4c0 .8-.7 1.5-1.5 1.5h-21.4m0 .8h21.4c1.3 0 2.4-1.1 2.4-2.4V160c0-1.3-1.1-2.4-2.4-2.4h-21.4c-1.3 0-2.4 1.1-2.4 2.4v21.4c0 1.3 1.1 2.3 2.4 2.3z"/><path class="st13" d="M551.1 159.6h15.7c-.1.3-.2.6-.2 1 0 1.4 1.1 2.5 2.5 2.5.3 0 .7-.1 1-.2v15.7c-.3-.1-.6-.2-1-.2-1.4 0-2.5 1.1-2.5 2.5 0 .3.1.7.2 1h-15.7c.1-.3.2-.6.2-1 0-1.4-1.1-2.5-2.5-2.5-.3 0-.7.1-1 .2V163c.3.1.6.2 1 .2 1.4 0 2.5-1.1 2.5-2.5 0-.5 0-.8-.2-1.1"/><path class="st4" d="M554.5 175.6h9c.2 0 .4-.2.4-.4v-9c0-.2-.2-.4-.4-.4h-9c-.2 0-.4.2-.4.4v9c0 .2.2.4.4.4z"/><path class="st13" d="M567.8 180.8c0-.7.6-1.2 1.2-1.2.7 0 1.2.6 1.2 1.2 0 .7-.6 1.2-1.2 1.2s-1.2-.5-1.2-1.2z"/><circle class="st13" cx="548.8" cy="180.8" r="1.2"/><path class="st13" d="M567.8 160.6c0 .7.6 1.2 1.2 1.2.7 0 1.2-.6 1.2-1.2 0-.7-.6-1.2-1.2-1.2-.6-.1-1.2.5-1.2 1.2zm-17.7 0c0 .7-.6 1.2-1.2 1.2-.7 0-1.2-.6-1.2-1.2 0-.7.6-1.2 1.2-1.2.6-.1 1.2.5 1.2 1.2z"/><path class="st14" d="M555 167.7h7.9v6H555z"/><path class="st4" d="M601.7 158.1c1.1 0 1.9.9 1.9 1.9v21.4c0 1.1-.9 1.9-1.9 1.9h-21.4c-1.1 0-1.9-.9-1.9-1.9V160c0-1.1.9-1.9 1.9-1.9h21.4z"/><path class="st13" d="M580.3 182.9c-.8 0-1.5-.7-1.5-1.5V160c0-.8.7-1.5 1.5-1.5h21.4c.8 0 1.5.7 1.5 1.5v21.4c0 .8-.7 1.5-1.5 1.5h-21.4m0 .8h21.4c1.3 0 2.4-1.1 2.4-2.4V160c0-1.3-1.1-2.4-2.4-2.4h-21.4c-1.3 0-2.4 1.1-2.4 2.4v21.4c.1 1.3 1.1 2.3 2.4 2.3z"/><path class="st13" d="M583.2 159.6h15.7c-.1.3-.2.6-.2 1 0 1.4 1.1 2.5 2.5 2.5.3 0 .7-.1 1-.2v15.7c-.3-.1-.6-.2-1-.2-1.4 0-2.5 1.1-2.5 2.5 0 .3.1.7.2 1h-15.7c.1-.3.2-.6.2-1 0-1.4-1.1-2.5-2.5-2.5-.3 0-.7.1-1 .2V163c.3.1.6.2 1 .2 1.4 0 2.5-1.1 2.5-2.5 0-.5-.1-.8-.2-1.1"/><path class="st4" d="M586.5 175.6h9c.2 0 .4-.2.4-.4v-9c0-.2-.2-.4-.4-.4h-9c-.2 0-.4.2-.4.4v9c0 .2.2.4.4.4z"/><path class="st13" d="M599.9 180.8c0-.7.6-1.2 1.2-1.2.7 0 1.2.6 1.2 1.2 0 .7-.6 1.2-1.2 1.2-.7 0-1.2-.5-1.2-1.2z"/><circle class="st13" cx="580.9" cy="180.8" r="1.2"/><path class="st13" d="M599.9 160.6c0 .7.6 1.2 1.2 1.2.7 0 1.2-.6 1.2-1.2 0-.7-.6-1.2-1.2-1.2-.7-.1-1.2.5-1.2 1.2zm-17.8 0c0 .7-.6 1.2-1.2 1.2-.7 0-1.2-.6-1.2-1.2 0-.7.6-1.2 1.2-1.2.7-.1 1.2.5 1.2 1.2z"/><path class="st14" d="M587.1 167.7h7.9v6h-7.9z"/><path class="st4" d="M633.7 158.1c1.1 0 1.9.9 1.9 1.9v21.4c0 1.1-.9 1.9-1.9 1.9h-21.4c-1.1 0-1.9-.9-1.9-1.9V160c0-1.1.9-1.9 1.9-1.9h21.4z"/><path class="st13" d="M612.3 182.9c-.8 0-1.5-.7-1.5-1.5V160c0-.8.7-1.5 1.5-1.5h21.4c.8 0 1.5.7 1.5 1.5v21.4c0 .8-.7 1.5-1.5 1.5h-21.4m0 .8h21.4c1.3 0 2.4-1.1 2.4-2.4V160c0-1.3-1.1-2.4-2.4-2.4h-21.4c-1.3 0-2.4 1.1-2.4 2.4v21.4c.1 1.3 1.1 2.3 2.4 2.3z"/><path class="st13" d="M615.2 159.6h15.7c-.1.3-.2.6-.2 1 0 1.4 1.1 2.5 2.5 2.5.3 0 .7-.1 1-.2v15.7c-.3-.1-.6-.2-1-.2-1.4 0-2.5 1.1-2.5 2.5 0 .3.1.7.2 1h-15.7c.1-.3.2-.6.2-1 0-1.4-1.1-2.5-2.5-2.5-.3 0-.7.1-1 .2V163c.3.1.6.2 1 .2 1.4 0 2.5-1.1 2.5-2.5 0-.5-.1-.8-.2-1.1"/><path class="st4" d="M618.6 175.6h9c.2 0 .4-.2.4-.4v-9c0-.2-.2-.4-.4-.4h-9c-.2 0-.4.2-.4.4v9c-.1.2.1.4.4.4z"/><path class="st13" d="M631.9 180.8c0-.7.6-1.2 1.2-1.2s1.2.6 1.2 1.2c0 .7-.6 1.2-1.2 1.2s-1.2-.5-1.2-1.2z"/><circle class="st13" cx="612.9" cy="180.8" r="1.2"/><path class="st13" d="M631.9 160.6c0 .7.6 1.2 1.2 1.2s1.2-.6 1.2-1.2c0-.7-.6-1.2-1.2-1.2s-1.2.5-1.2 1.2zm-17.7 0c0 .7-.6 1.2-1.2 1.2-.7 0-1.2-.6-1.2-1.2 0-.7.6-1.2 1.2-1.2.6-.1 1.2.5 1.2 1.2z"/><path class="st14" d="M619.1 167.7h7.9v6h-7.9z"/><path class="st4" d="M569.7 193.2c1.1 0 1.9.9 1.9 1.9v21.4c0 1.1-.9 1.9-1.9 1.9h-21.4c-1.1 0-1.9-.9-1.9-1.9v-21.4c0-1.1.9-1.9 1.9-1.9h21.4z"/><path class="st13" d="M548.3 218c-.8 0-1.5-.7-1.5-1.5v-21.4c0-.8.7-1.5 1.5-1.5h21.4c.8 0 1.5.7 1.5 1.5v21.4c0 .8-.7 1.5-1.5 1.5h-21.4m0 .8h21.4c1.3 0 2.4-1.1 2.4-2.4V195c0-1.3-1.1-2.4-2.4-2.4h-21.4c-1.3 0-2.4 1.1-2.4 2.4v21.4c0 1.4 1.1 2.4 2.4 2.4z"/><path class="st13" d="M551.1 194.7h15.7c-.1.3-.2.6-.2 1 0 1.4 1.1 2.5 2.5 2.5.3 0 .7-.1 1-.2v15.7c-.3-.1-.6-.2-1-.2-1.4 0-2.5 1.1-2.5 2.5 0 .3.1.7.2 1h-15.7c.1-.3.2-.6.2-1 0-1.4-1.1-2.5-2.5-2.5-.3 0-.7.1-1 .2V198c.3.1.6.2 1 .2 1.4 0 2.5-1.1 2.5-2.5 0-.4 0-.7-.2-1"/><path class="st4" d="M554.5 210.7h9c.2 0 .4-.2.4-.4v-9c0-.2-.2-.4-.4-.4h-9c-.2 0-.4.2-.4.4v9c0 .2.2.4.4.4z"/><path class="st13" d="M567.8 215.9c0-.7.6-1.2 1.2-1.2.7 0 1.2.6 1.2 1.2 0 .7-.6 1.2-1.2 1.2s-1.2-.5-1.2-1.2z"/><circle class="st13" cx="548.8" cy="215.9" r="1.2"/><path class="st13" d="M567.8 195.7c0 .7.6 1.2 1.2 1.2.7 0 1.2-.6 1.2-1.2 0-.7-.6-1.2-1.2-1.2-.6-.1-1.2.5-1.2 1.2zm-17.7 0c0 .7-.6 1.2-1.2 1.2-.7 0-1.2-.6-1.2-1.2 0-.7.6-1.2 1.2-1.2.6-.1 1.2.5 1.2 1.2z"/><path class="st14" d="M555 202.8h7.9v6H555z"/><path class="st4" d="M601.7 193.2c1.1 0 1.9.9 1.9 1.9v21.4c0 1.1-.9 1.9-1.9 1.9h-21.4c-1.1 0-1.9-.9-1.9-1.9v-21.4c0-1.1.9-1.9 1.9-1.9h21.4z"/><path class="st13" d="M580.3 218c-.8 0-1.5-.7-1.5-1.5v-21.4c0-.8.7-1.5 1.5-1.5h21.4c.8 0 1.5.7 1.5 1.5v21.4c0 .8-.7 1.5-1.5 1.5h-21.4m0 .8h21.4c1.3 0 2.4-1.1 2.4-2.4V195c0-1.3-1.1-2.4-2.4-2.4h-21.4c-1.3 0-2.4 1.1-2.4 2.4v21.4c.1 1.4 1.1 2.4 2.4 2.4z"/><path class="st13" d="M583.2 194.7h15.7c-.1.3-.2.6-.2 1 0 1.4 1.1 2.5 2.5 2.5.3 0 .7-.1 1-.2v15.7c-.3-.1-.6-.2-1-.2-1.4 0-2.5 1.1-2.5 2.5 0 .3.1.7.2 1h-15.7c.1-.3.2-.6.2-1 0-1.4-1.1-2.5-2.5-2.5-.3 0-.7.1-1 .2V198c.3.1.6.2 1 .2 1.4 0 2.5-1.1 2.5-2.5 0-.4-.1-.7-.2-1"/><path class="st4" d="M586.5 210.7h9c.2 0 .4-.2.4-.4v-9c0-.2-.2-.4-.4-.4h-9c-.2 0-.4.2-.4.4v9c0 .2.2.4.4.4z"/><path class="st13" d="M599.9 215.9c0-.7.6-1.2 1.2-1.2.7 0 1.2.6 1.2 1.2 0 .7-.6 1.2-1.2 1.2-.7 0-1.2-.5-1.2-1.2z"/><circle class="st13" cx="580.9" cy="215.9" r="1.2"/><path class="st13" d="M599.9 195.7c0 .7.6 1.2 1.2 1.2.7 0 1.2-.6 1.2-1.2 0-.7-.6-1.2-1.2-1.2-.7-.1-1.2.5-1.2 1.2zm-17.8 0c0 .7-.6 1.2-1.2 1.2-.7 0-1.2-.6-1.2-1.2 0-.7.6-1.2 1.2-1.2.7-.1 1.2.5 1.2 1.2z"/><path class="st14" d="M587.1 202.8h7.9v6h-7.9z"/><path class="st4" d="M633.7 193.2c1.1 0 1.9.9 1.9 1.9v21.4c0 1.1-.9 1.9-1.9 1.9h-21.4c-1.1 0-1.9-.9-1.9-1.9v-21.4c0-1.1.9-1.9 1.9-1.9h21.4z"/><path class="st13" d="M612.3 218c-.8 0-1.5-.7-1.5-1.5v-21.4c0-.8.7-1.5 1.5-1.5h21.4c.8 0 1.5.7 1.5 1.5v21.4c0 .8-.7 1.5-1.5 1.5h-21.4m0 .8h21.4c1.3 0 2.4-1.1 2.4-2.4V195c0-1.3-1.1-2.4-2.4-2.4h-21.4c-1.3 0-2.4 1.1-2.4 2.4v21.4c.1 1.4 1.1 2.4 2.4 2.4z"/><path class="st13" d="M615.2 194.7h15.7c-.1.3-.2.6-.2 1 0 1.4 1.1 2.5 2.5 2.5.3 0 .7-.1 1-.2v15.7c-.3-.1-.6-.2-1-.2-1.4 0-2.5 1.1-2.5 2.5 0 .3.1.7.2 1h-15.7c.1-.3.2-.6.2-1 0-1.4-1.1-2.5-2.5-2.5-.3 0-.7.1-1 .2V198c.3.1.6.2 1 .2 1.4 0 2.5-1.1 2.5-2.5 0-.4-.1-.7-.2-1"/><path class="st4" d="M618.6 210.7h9c.2 0 .4-.2.4-.4v-9c0-.2-.2-.4-.4-.4h-9c-.2 0-.4.2-.4.4v9c-.1.2.1.4.4.4z"/><path class="st13" d="M631.9 215.9c0-.7.6-1.2 1.2-1.2s1.2.6 1.2 1.2c0 .7-.6 1.2-1.2 1.2s-1.2-.5-1.2-1.2z"/><circle class="st13" cx="612.9" cy="215.9" r="1.2"/><path class="st13" d="M631.9 195.7c0 .7.6 1.2 1.2 1.2s1.2-.6 1.2-1.2c0-.7-.6-1.2-1.2-1.2s-1.2.5-1.2 1.2zm-17.7 0c0 .7-.6 1.2-1.2 1.2-.7 0-1.2-.6-1.2-1.2 0-.7.6-1.2 1.2-1.2.6-.1 1.2.5 1.2 1.2z"/><path class="st14" d="M619.1 202.8h7.9v6h-7.9z"/><path class="st4" d="M569.7 228.3c1.1 0 1.9.9 1.9 1.9v21.4c0 1.1-.9 1.9-1.9 1.9h-21.4c-1.1 0-1.9-.9-1.9-1.9v-21.4c0-1.1.9-1.9 1.9-1.9h21.4z"/><path class="st13" d="M548.3 253.1c-.8 0-1.5-.7-1.5-1.5v-21.4c0-.8.7-1.5 1.5-1.5h21.4c.8 0 1.5.7 1.5 1.5v21.4c0 .8-.7 1.5-1.5 1.5h-21.4m0 .8h21.4c1.3 0 2.4-1.1 2.4-2.4v-21.4c0-1.3-1.1-2.4-2.4-2.4h-21.4c-1.3 0-2.4 1.1-2.4 2.4v21.4c0 1.4 1.1 2.4 2.4 2.4z"/><path class="st13" d="M551.1 229.8h15.7c-.1.3-.2.6-.2 1 0 1.4 1.1 2.5 2.5 2.5.3 0 .7-.1 1-.2v15.7c-.3-.1-.6-.2-1-.2-1.4 0-2.5 1.1-2.5 2.5 0 .3.1.7.2 1h-15.7c.1-.3.2-.6.2-1 0-1.4-1.1-2.5-2.5-2.5-.3 0-.7.1-1 .2v-15.6c.3.1.6.2 1 .2 1.4 0 2.5-1.1 2.5-2.5 0-.5 0-.8-.2-1.1"/><path class="st4" d="M554.5 245.8h9c.2 0 .4-.2.4-.4v-9c0-.2-.2-.4-.4-.4h-9c-.2 0-.4.2-.4.4v9c0 .2.2.4.4.4z"/><path class="st13" d="M567.8 251c0-.7.6-1.2 1.2-1.2.7 0 1.2.6 1.2 1.2 0 .7-.6 1.2-1.2 1.2s-1.2-.5-1.2-1.2z"/><circle class="st13" cx="548.8" cy="251" r="1.2"/><path class="st13" d="M567.8 230.8c0 .7.6 1.2 1.2 1.2.7 0 1.2-.6 1.2-1.2 0-.7-.6-1.2-1.2-1.2-.6-.1-1.2.5-1.2 1.2zm-17.7 0c0 .7-.6 1.2-1.2 1.2-.7 0-1.2-.6-1.2-1.2 0-.7.6-1.2 1.2-1.2.6-.1 1.2.5 1.2 1.2z"/><path class="st14" d="M555 237.9h7.9v6H555z"/><path class="st4" d="M601.7 228.3c1.1 0 1.9.9 1.9 1.9v21.4c0 1.1-.9 1.9-1.9 1.9h-21.4c-1.1 0-1.9-.9-1.9-1.9v-21.4c0-1.1.9-1.9 1.9-1.9h21.4z"/><path class="st13" d="M580.3 253.1c-.8 0-1.5-.7-1.5-1.5v-21.4c0-.8.7-1.5 1.5-1.5h21.4c.8 0 1.5.7 1.5 1.5v21.4c0 .8-.7 1.5-1.5 1.5h-21.4m0 .8h21.4c1.3 0 2.4-1.1 2.4-2.4v-21.4c0-1.3-1.1-2.4-2.4-2.4h-21.4c-1.3 0-2.4 1.1-2.4 2.4v21.4c.1 1.4 1.1 2.4 2.4 2.4z"/><path class="st13" d="M583.2 229.8h15.7c-.1.3-.2.6-.2 1 0 1.4 1.1 2.5 2.5 2.5.3 0 .7-.1 1-.2v15.7c-.3-.1-.6-.2-1-.2-1.4 0-2.5 1.1-2.5 2.5 0 .3.1.7.2 1h-15.7c.1-.3.2-.6.2-1 0-1.4-1.1-2.5-2.5-2.5-.3 0-.7.1-1 .2v-15.6c.3.1.6.2 1 .2 1.4 0 2.5-1.1 2.5-2.5 0-.5-.1-.8-.2-1.1"/><path class="st4" d="M586.5 245.8h9c.2 0 .4-.2.4-.4v-9c0-.2-.2-.4-.4-.4h-9c-.2 0-.4.2-.4.4v9c0 .2.2.4.4.4z"/><path class="st13" d="M599.9 251c0-.7.6-1.2 1.2-1.2.7 0 1.2.6 1.2 1.2 0 .7-.6 1.2-1.2 1.2-.7 0-1.2-.5-1.2-1.2z"/><circle class="st13" cx="580.9" cy="251" r="1.2"/><path class="st13" d="M599.9 230.8c0 .7.6 1.2 1.2 1.2.7 0 1.2-.6 1.2-1.2 0-.7-.6-1.2-1.2-1.2-.7-.1-1.2.5-1.2 1.2zm-17.8 0c0 .7-.6 1.2-1.2 1.2-.7 0-1.2-.6-1.2-1.2 0-.7.6-1.2 1.2-1.2.7-.1 1.2.5 1.2 1.2z"/><path class="st14" d="M587.1 237.9h7.9v6h-7.9z"/><path class="st4" d="M633.7 228.3c1.1 0 1.9.9 1.9 1.9v21.4c0 1.1-.9 1.9-1.9 1.9h-21.4c-1.1 0-1.9-.9-1.9-1.9v-21.4c0-1.1.9-1.9 1.9-1.9h21.4z"/><path class="st13" d="M612.3 253.1c-.8 0-1.5-.7-1.5-1.5v-21.4c0-.8.7-1.5 1.5-1.5h21.4c.8 0 1.5.7 1.5 1.5v21.4c0 .8-.7 1.5-1.5 1.5h-21.4m0 .8h21.4c1.3 0 2.4-1.1 2.4-2.4v-21.4c0-1.3-1.1-2.4-2.4-2.4h-21.4c-1.3 0-2.4 1.1-2.4 2.4v21.4c.1 1.4 1.1 2.4 2.4 2.4z"/><path class="st13" d="M615.2 229.8h15.7c-.1.3-.2.6-.2 1 0 1.4 1.1 2.5 2.5 2.5.3 0 .7-.1 1-.2v15.7c-.3-.1-.6-.2-1-.2-1.4 0-2.5 1.1-2.5 2.5 0 .3.1.7.2 1h-15.7c.1-.3.2-.6.2-1 0-1.4-1.1-2.5-2.5-2.5-.3 0-.7.1-1 .2v-15.6c.3.1.6.2 1 .2 1.4 0 2.5-1.1 2.5-2.5 0-.5-.1-.8-.2-1.1"/><path class="st4" d="M618.6 245.8h9c.2 0 .4-.2.4-.4v-9c0-.2-.2-.4-.4-.4h-9c-.2 0-.4.2-.4.4v9c-.1.2.1.4.4.4z"/><path class="st13" d="M631.9 251c0-.7.6-1.2 1.2-1.2s1.2.6 1.2 1.2c0 .7-.6 1.2-1.2 1.2s-1.2-.5-1.2-1.2z"/><circle class="st13" cx="612.9" cy="251" r="1.2"/><path class="st13" d="M631.9 230.8c0 .7.6 1.2 1.2 1.2s1.2-.6 1.2-1.2c0-.7-.6-1.2-1.2-1.2s-1.2.5-1.2 1.2zm-17.7 0c0 .7-.6 1.2-1.2 1.2-.7 0-1.2-.6-1.2-1.2 0-.7.6-1.2 1.2-1.2.6-.1 1.2.5 1.2 1.2z"/><path class="st14" d="M619.1 237.9h7.9v6h-7.9z"/><path class="st10" d="M536.9 107.7H645V138H536.9z"/><path class="st4" d="M569.1 117.6h4.4c3.6 0 6.1 2.5 6.1 5.7s-2.5 5.7-6.1 5.7h-4.4v-11.4zm2.5 2.3v6.9h1.9c2.1 0 3.4-1.4 3.4-3.4s-1.4-3.4-3.4-3.4h-1.9zm13.3-2.4h2.3l4.9 11.5h-2.6l-1-2.6h-4.8l-1 2.6H580l4.9-11.5zm2.6 6.7l-1.5-3.7-1.5 3.7h3zm6.3-6.6h5.2c1.4 0 2.6.4 3.3 1.2.6.6 1 1.5 1 2.6 0 1.8-1 3-2.4 3.5l2.8 4.1h-2.9l-2.4-3.6h-2v3.6h-2.5v-11.4zm5.1 5.5c1.2 0 1.9-.7 1.9-1.6 0-1.1-.7-1.6-2-1.6h-2.5v3.3h2.6zm9.4-3.2h-3.5v-2.3h9.4v2.3h-3.5v9.1h-2.5v-9.1z"/><path class="st0" d="M686.1 89V.5m75 88.5V.5"/><path class="st1" d="M667.5 133.5h111.1V259H667.5z"/><path class="st2" d="M776.6 256.3H669.5v-2.2h107.1zm0-39.1H669.5V215h107.1zm0-40.1H669.5v-2.2h107.1z"/><path class="st3" d="M667.5 133.5h111.1V259H667.5z"/><path class="st15" d="M706.6 174.1c6.7-2.5 11.5-9 11.5-16.6 0-9.8-7.9-17.7-17.7-17.7-9.8 0-17.7 7.9-17.7 17.7 0 7.6 4.8 14 11.5 16.5l12.4.1z"/><path class="st8" d="M700.5 139.8c9.8 0 17.7 7.9 17.7 17.7 0 7.6-4.8 14.1-11.5 16.6h-12.3c-6.7-2.5-11.5-9-11.5-16.5-.1-9.9 7.8-17.8 17.6-17.8m0-.3c-4.8 0-9.3 1.9-12.7 5.3-3.4 3.4-5.3 7.9-5.3 12.7 0 3.7 1.1 7.3 3.3 10.4 2.1 3 5 5.2 8.4 6.5h12.5c3.4-1.3 6.3-3.5 8.4-6.5 2.2-3 3.3-6.6 3.3-10.4 0-4.8-1.9-9.3-5.3-12.7-3.3-3.4-7.8-5.3-12.6-5.3z"/><path class="st16" d="M705.9 162.9h-10.5c-.3 0-.5-.2-.5-.5v-9.6c0-.3.2-.5.5-.5h10.5c.3 0 .5.2.5.5v9.6c0 .2-.3.5-.5.5z"/><path class="st4" d="M700.5 171.4c-7.7 0-13.9-6.2-13.9-13.9s6.2-13.9 13.9-13.9 13.9 6.2 13.9 13.9-6.3 13.9-13.9 13.9zm0-27.5c-7.5 0-13.6 6.1-13.6 13.6s6.1 13.6 13.6 13.6 13.6-6.1 13.6-13.6-6.1-13.6-13.6-13.6z"/><path class="st4" d="M700.5 169.3c-6.5 0-11.8-5.3-11.8-11.8 0-6.5 5.3-11.8 11.8-11.8 6.5 0 11.8 5.3 11.8 11.8 0 6.5-5.3 11.8-11.8 11.8zm0-23.3c-6.3 0-11.5 5.2-11.5 11.5s5.2 11.5 11.5 11.5 11.5-5.2 11.5-11.5-5.2-11.5-11.5-11.5z"/><path class="st4" d="M700.5 167.5c-5.5 0-10-4.5-10-10s4.5-10 10-10 10 4.5 10 10-4.5 10-10 10zm0-19.7c-5.3 0-9.7 4.3-9.7 9.7s4.3 9.7 9.7 9.7c5.3 0 9.7-4.3 9.7-9.7s-4.4-9.7-9.7-9.7z"/><path class="st15" d="M751.6 174.1c6.7-2.5 11.5-9 11.5-16.6 0-9.8-7.9-17.7-17.7-17.7-9.8 0-17.7 7.9-17.7 17.7 0 7.6 4.8 14 11.5 16.5l12.4.1z"/><path class="st8" d="M745.5 139.8c9.8 0 17.7 7.9 17.7 17.7 0 7.6-4.8 14.1-11.5 16.6h-12.3c-6.7-2.5-11.5-9-11.5-16.5-.1-9.9 7.8-17.8 17.6-17.8m0-.3c-4.8 0-9.3 1.9-12.7 5.3-3.4 3.4-5.3 7.9-5.3 12.7 0 3.7 1.1 7.3 3.3 10.4 2.1 3 5 5.2 8.4 6.5h12.5c3.4-1.3 6.3-3.5 8.4-6.5 2.2-3 3.3-6.6 3.3-10.4 0-4.8-1.9-9.3-5.3-12.7-3.3-3.4-7.8-5.3-12.6-5.3z"/><path class="st16" d="M750.9 162.9h-10.5c-.3 0-.5-.2-.5-.5v-9.6c0-.3.2-.5.5-.5h10.5c.3 0 .5.2.5.5v9.6c0 .2-.3.5-.5.5z"/><path class="st4" d="M745.5 171.4c-7.7 0-13.9-6.2-13.9-13.9s6.2-13.9 13.9-13.9 13.9 6.2 13.9 13.9-6.3 13.9-13.9 13.9zm0-27.5c-7.5 0-13.6 6.1-13.6 13.6s6.1 13.6 13.6 13.6 13.6-6.1 13.6-13.6-6.1-13.6-13.6-13.6z"/><path class="st4" d="M745.5 169.3c-6.5 0-11.8-5.3-11.8-11.8 0-6.5 5.3-11.8 11.8-11.8 6.5 0 11.8 5.3 11.8 11.8 0 6.5-5.3 11.8-11.8 11.8zm0-23.3c-6.3 0-11.5 5.2-11.5 11.5s5.2 11.5 11.5 11.5 11.5-5.2 11.5-11.5-5.2-11.5-11.5-11.5z"/><path class="st4" d="M745.5 167.5c-5.5 0-10-4.5-10-10s4.5-10 10-10 10 4.5 10 10-4.5 10-10 10zm0-19.7c-5.3 0-9.7 4.3-9.7 9.7s4.3 9.7 9.7 9.7c5.3 0 9.7-4.3 9.7-9.7s-4.4-9.7-9.7-9.7z"/><path class="st15" d="M706.6 213.7c6.7-2.5 11.5-9 11.5-16.6 0-9.8-7.9-17.7-17.7-17.7-9.8 0-17.7 7.9-17.7 17.7 0 7.6 4.8 14 11.5 16.5l12.4.1z"/><path class="st8" d="M700.5 179.4c9.8 0 17.7 7.9 17.7 17.7 0 7.6-4.8 14.1-11.5 16.6h-12.3c-6.7-2.5-11.5-9-11.5-16.5-.1-9.9 7.8-17.8 17.6-17.8m0-.3c-4.8 0-9.3 1.9-12.7 5.3-3.4 3.4-5.3 7.9-5.3 12.7 0 3.7 1.1 7.3 3.3 10.4 2.1 3 5 5.2 8.4 6.5h12.5c3.4-1.3 6.3-3.5 8.4-6.5 2.2-3 3.3-6.6 3.3-10.4 0-4.8-1.9-9.3-5.3-12.7s-7.8-5.3-12.6-5.3z"/><path class="st16" d="M705.9 202.5h-10.5c-.3 0-.5-.2-.5-.5v-9.6c0-.3.2-.5.5-.5h10.5c.3 0 .5.2.5.5v9.6c0 .2-.3.5-.5.5z"/><path class="st4" d="M700.5 211c-7.7 0-13.9-6.2-13.9-13.9s6.2-13.9 13.9-13.9 13.9 6.2 13.9 13.9-6.3 13.9-13.9 13.9zm0-27.5c-7.5 0-13.6 6.1-13.6 13.6s6.1 13.6 13.6 13.6 13.6-6.1 13.6-13.6-6.1-13.6-13.6-13.6z"/><path class="st4" d="M700.5 208.9c-6.5 0-11.8-5.3-11.8-11.8 0-6.5 5.3-11.8 11.8-11.8 6.5 0 11.8 5.3 11.8 11.8 0 6.5-5.3 11.8-11.8 11.8zm0-23.3c-6.3 0-11.5 5.2-11.5 11.5s5.2 11.5 11.5 11.5 11.5-5.2 11.5-11.5-5.2-11.5-11.5-11.5z"/><path class="st4" d="M700.5 207.1c-5.5 0-10-4.5-10-10s4.5-10 10-10 10 4.5 10 10-4.5 10-10 10zm0-19.7c-5.3 0-9.7 4.3-9.7 9.7s4.3 9.7 9.7 9.7c5.3 0 9.7-4.3 9.7-9.7s-4.4-9.7-9.7-9.7z"/><path class="st15" d="M751.6 213.7c6.7-2.5 11.5-9 11.5-16.6 0-9.8-7.9-17.7-17.7-17.7-9.8 0-17.7 7.9-17.7 17.7 0 7.6 4.8 14 11.5 16.5l12.4.1z"/><path class="st8" d="M745.5 179.4c9.8 0 17.7 7.9 17.7 17.7 0 7.6-4.8 14.1-11.5 16.6h-12.3c-6.7-2.5-11.5-9-11.5-16.5-.1-9.9 7.8-17.8 17.6-17.8m0-.3c-4.8 0-9.3 1.9-12.7 5.3-3.4 3.4-5.3 7.9-5.3 12.7 0 3.7 1.1 7.3 3.3 10.4 2.1 3 5 5.2 8.4 6.5h12.5c3.4-1.3 6.3-3.5 8.4-6.5 2.2-3 3.3-6.6 3.3-10.4 0-4.8-1.9-9.3-5.3-12.7s-7.8-5.3-12.6-5.3z"/><path class="st16" d="M750.9 202.5h-10.5c-.3 0-.5-.2-.5-.5v-9.6c0-.3.2-.5.5-.5h10.5c.3 0 .5.2.5.5v9.6c0 .2-.3.5-.5.5z"/><path class="st4" d="M745.5 211c-7.7 0-13.9-6.2-13.9-13.9s6.2-13.9 13.9-13.9 13.9 6.2 13.9 13.9-6.3 13.9-13.9 13.9zm0-27.5c-7.5 0-13.6 6.1-13.6 13.6s6.1 13.6 13.6 13.6 13.6-6.1 13.6-13.6-6.1-13.6-13.6-13.6z"/><path class="st4" d="M745.5 208.9c-6.5 0-11.8-5.3-11.8-11.8 0-6.5 5.3-11.8 11.8-11.8 6.5 0 11.8 5.3 11.8 11.8 0 6.5-5.3 11.8-11.8 11.8zm0-23.3c-6.3 0-11.5 5.2-11.5 11.5s5.2 11.5 11.5 11.5 11.5-5.2 11.5-11.5-5.2-11.5-11.5-11.5z"/><path class="st4" d="M745.5 207.1c-5.5 0-10-4.5-10-10s4.5-10 10-10 10 4.5 10 10-4.5 10-10 10zm0-19.7c-5.3 0-9.7 4.3-9.7 9.7s4.3 9.7 9.7 9.7c5.3 0 9.7-4.3 9.7-9.7s-4.4-9.7-9.7-9.7z"/><path class="st15" d="M706.6 252.3c6.7-2.5 11.5-9 11.5-16.6 0-9.8-7.9-17.7-17.7-17.7-9.8 0-17.7 7.9-17.7 17.7 0 7.6 4.8 14 11.5 16.5l12.4.1z"/><path class="st8" d="M700.5 218c9.8 0 17.7 7.9 17.7 17.7 0 7.6-4.8 14.1-11.5 16.6h-12.3c-6.7-2.5-11.5-9-11.5-16.5-.1-9.9 7.8-17.8 17.6-17.8m0-.3c-4.8 0-9.3 1.9-12.7 5.3-3.4 3.4-5.3 7.9-5.3 12.7 0 3.7 1.1 7.3 3.3 10.4 2.1 3 5 5.2 8.4 6.5h12.5c3.4-1.3 6.3-3.5 8.4-6.5 2.2-3 3.3-6.6 3.3-10.4 0-4.8-1.9-9.3-5.3-12.7-3.3-3.4-7.8-5.3-12.6-5.3z"/><path class="st16" d="M705.9 241.1h-10.5c-.3 0-.5-.2-.5-.5V231c0-.3.2-.5.5-.5h10.5c.3 0 .5.2.5.5v9.6c0 .2-.3.5-.5.5z"/><path class="st4" d="M700.5 249.6c-7.7 0-13.9-6.2-13.9-13.9s6.2-13.9 13.9-13.9 13.9 6.2 13.9 13.9-6.3 13.9-13.9 13.9zm0-27.5c-7.5 0-13.6 6.1-13.6 13.6s6.1 13.6 13.6 13.6 13.6-6.1 13.6-13.6-6.1-13.6-13.6-13.6z"/><path class="st4" d="M700.5 247.5c-6.5 0-11.8-5.3-11.8-11.8 0-6.5 5.3-11.8 11.8-11.8 6.5 0 11.8 5.3 11.8 11.8 0 6.5-5.3 11.8-11.8 11.8zm0-23.3c-6.3 0-11.5 5.2-11.5 11.5s5.2 11.5 11.5 11.5S712 242 712 235.7s-5.2-11.5-11.5-11.5z"/><path class="st4" d="M700.5 245.7c-5.5 0-10-4.5-10-10s4.5-10 10-10 10 4.5 10 10-4.5 10-10 10zm0-19.7c-5.3 0-9.7 4.3-9.7 9.7s4.3 9.7 9.7 9.7c5.3 0 9.7-4.3 9.7-9.7s-4.4-9.7-9.7-9.7z"/><path class="st15" d="M751.6 252.3c6.7-2.5 11.5-9 11.5-16.6 0-9.8-7.9-17.7-17.7-17.7-9.8 0-17.7 7.9-17.7 17.7 0 7.6 4.8 14 11.5 16.5l12.4.1z"/><path class="st8" d="M745.5 218c9.8 0 17.7 7.9 17.7 17.7 0 7.6-4.8 14.1-11.5 16.6h-12.3c-6.7-2.5-11.5-9-11.5-16.5-.1-9.9 7.8-17.8 17.6-17.8m0-.3c-4.8 0-9.3 1.9-12.7 5.3-3.4 3.4-5.3 7.9-5.3 12.7 0 3.7 1.1 7.3 3.3 10.4 2.1 3 5 5.2 8.4 6.5h12.5c3.4-1.3 6.3-3.5 8.4-6.5 2.2-3 3.3-6.6 3.3-10.4 0-4.8-1.9-9.3-5.3-12.7-3.3-3.4-7.8-5.3-12.6-5.3z"/><path class="st16" d="M750.9 241.1h-10.5c-.3 0-.5-.2-.5-.5V231c0-.3.2-.5.5-.5h10.5c.3 0 .5.2.5.5v9.6c0 .2-.3.5-.5.5z"/><path class="st4" d="M745.5 249.6c-7.7 0-13.9-6.2-13.9-13.9s6.2-13.9 13.9-13.9 13.9 6.2 13.9 13.9-6.3 13.9-13.9 13.9zm0-27.5c-7.5 0-13.6 6.1-13.6 13.6s6.1 13.6 13.6 13.6 13.6-6.1 13.6-13.6-6.1-13.6-13.6-13.6z"/><path class="st4" d="M745.5 247.5c-6.5 0-11.8-5.3-11.8-11.8 0-6.5 5.3-11.8 11.8-11.8 6.5 0 11.8 5.3 11.8 11.8 0 6.5-5.3 11.8-11.8 11.8zm0-23.3c-6.3 0-11.5 5.2-11.5 11.5s5.2 11.5 11.5 11.5S757 242 757 235.7s-5.2-11.5-11.5-11.5z"/><path class="st4" d="M745.5 245.7c-5.5 0-10-4.5-10-10s4.5-10 10-10 10 4.5 10 10-4.5 10-10 10zm0-19.7c-5.3 0-9.7 4.3-9.7 9.7s4.3 9.7 9.7 9.7c5.3 0 9.7-4.3 9.7-9.7s-4.4-9.7-9.7-9.7z"/><path class="st10" d="M669 86.7h108.1V117H669z"/><path class="st4" d="M697.4 96.7h4.7c2.7 0 4.4 1.6 4.4 3.9 0 2.6-2.1 4-4.6 4H700v3.4h-2.5V96.7zm4.5 5.7c1.3 0 2-.7 2-1.7 0-1.1-.8-1.7-2-1.7H700v3.5h1.9zm6.2.8v-6.5h2.5v6.4c0 1.9.9 2.8 2.5 2.8 1.5 0 2.5-.9 2.5-2.7v-6.5h2.5v6.4c0 3.5-1.9 5.1-5 5.1-3.2 0-5-1.7-5-5zm12.5-6.5h2.5v9.1h5.7v2.3h-8.2V96.7zm9.3 9.7l1.5-1.8c1 .8 2.1 1.4 3.4 1.4 1 0 1.6-.4 1.6-1.1 0-.6-.4-1-2.3-1.4-2.3-.6-3.8-1.2-3.8-3.5 0-2.1 1.7-3.4 4-3.4 1.7 0 3.1.5 4.2 1.4l-1.3 1.9c-1-.7-2-1.1-3-1.1s-1.5.4-1.5 1c0 .7.5 1 2.5 1.5 2.3.6 3.6 1.4 3.6 3.4 0 2.3-1.7 3.5-4.2 3.5-1.6 0-3.4-.6-4.7-1.8zm11.2-9.7h8.6v2.2h-6.1v2.3h5.4v2.2h-5.4v2.4h6.2v2.2h-8.7V96.7z"/><path class="st0" d="M33.4 29V.5m75 28.5V.5"/><path class="st1" d="M21.5 79h96.9v180H21.5z"/><path class="st2" d="M117.6 158.2v2H22.3v-2zm0 95v2H22.3v-2z"/><path class="st3" d="M21.5 79h96.9v180H21.5z"/><path class="st17" d="M33.9 250.6v-67.8l2.1-2.1h67.8l2.1 2v67.8l-2 2.2H36.1z"/><path class="st4" d="M69.9 193c13.1 0 23.7 10.6 23.7 23.7S83 240.3 69.9 240.3s-23.7-10.6-23.7-23.7S56.9 193 69.9 193m0-.4c-13.3 0-24.1 10.8-24.1 24.1s10.8 24.1 24.1 24.1S94 230 94 216.7s-10.8-24.1-24.1-24.1z"/><path class="st18" d="M33.9 180.7h72v72h-72z"/><path class="st4" d="M56.6 226.1v-18.8c0-.7.6-1.3 1.3-1.3h24.2c.7 0 1.3.6 1.3 1.3v18.8c0 .7-.6 1.3-1.3 1.3H57.9c-.7 0-1.3-.6-1.3-1.3z"/><circle class="st4" cx="47.3" cy="193.9" r="2.4"/><circle class="st4" cx="92.8" cy="193.8" r="2.1"/><circle class="st4" cx="92.8" cy="239.6" r="2.1"/><circle class="st4" cx="47.2" cy="239.5" r="2.1"/><path class="st14" d="M58.8 208.2h22.3v16.9H58.8z"/><path class="st17" d="M33.9 155.6V87.8l2.1-2.1h67.8l2.1 2v67.8l-2 2.2H36.1z"/><path class="st4" d="M69.9 98c13.1 0 23.7 10.6 23.7 23.7S83 145.3 69.9 145.3s-23.7-10.6-23.7-23.7S56.9 98 69.9 98m0-.4c-13.3 0-24.1 10.8-24.1 24.1s10.8 24.1 24.1 24.1S94 135 94 121.7 83.2 97.6 69.9 97.6z"/><path class="st18" d="M33.9 85.7h72v72h-72z"/><path class="st4" d="M56.6 131.1v-18.8c0-.7.6-1.3 1.3-1.3h24.2c.7 0 1.3.6 1.3 1.3v18.8c0 .7-.6 1.3-1.3 1.3H57.9c-.7 0-1.3-.6-1.3-1.3z"/><circle class="st4" cx="47.3" cy="98.9" r="2.4"/><circle class="st4" cx="92.8" cy="98.8" r="2.1"/><circle class="st4" cx="92.8" cy="144.6" r="2.1"/><circle class="st4" cx="47.2" cy="144.5" r="2.1"/><path class="st14" d="M58.8 113.2h22.3v16.9H58.8z"/><path class="st10" d="M15.9 29.7H124V60H15.9z"/><path class="st4" d="M41.5 39.7h5.3c1.3 0 2.3.4 3 1 .5.5.8 1.2.8 1.9 0 1.3-.7 2-1.5 2.5 1.3.5 2.1 1.3 2.1 2.8 0 2.1-1.7 3.1-4.3 3.1h-5.4V39.7zm6.6 3.3c0-.7-.6-1.2-1.6-1.2H44v2.4h2.3c1.1.1 1.8-.3 1.8-1.2zm-1.2 3.4H44v2.5h3c1.1 0 1.8-.4 1.8-1.2-.1-.9-.6-1.3-1.9-1.3zm5.9-1c0-3.3 2.6-5.9 6.1-5.9 3.5 0 6 2.6 6 5.9 0 3.2-2.6 5.9-6.1 5.9-3.5 0-6-2.7-6-5.9zm9.5 0c0-2-1.4-3.6-3.5-3.6-2 0-3.4 1.6-3.4 3.5 0 2 1.4 3.6 3.5 3.6 2 0 3.4-1.6 3.4-3.5zm4.3 0c0-3.3 2.6-5.9 6.1-5.9 3.5 0 6 2.6 6 5.9 0 3.2-2.6 5.9-6.1 5.9-3.5 0-6-2.7-6-5.9zm9.5 0c0-2-1.4-3.6-3.5-3.6-2 0-3.4 1.6-3.4 3.5 0 2 1.4 3.6 3.5 3.6 2 0 3.4-1.6 3.4-3.5zm4 4l1.5-1.8c1 .8 2.1 1.4 3.4 1.4 1 0 1.6-.4 1.6-1.1 0-.6-.4-1-2.3-1.4-2.3-.6-3.8-1.2-3.8-3.5 0-2.1 1.7-3.4 4-3.4 1.7 0 3.1.5 4.2 1.4l-1.3 1.9c-1-.7-2-1.1-3-1.1s-1.5.4-1.5 1c0 .7.5 1 2.5 1.5 2.3.6 3.6 1.4 3.6 3.4 0 2.3-1.7 3.5-4.2 3.5-1.6 0-3.3-.6-4.7-1.8zM93.7 42h-3.5v-2.3h9.4V42h-3.5v9.1h-2.5V42z"/><path class="st1" d="M799.9 79h100v180h-100z"/><path class="st2" d="M898.6 157.2v2h-97.3v-2zm0 97v2h-97.3v-2z"/><path class="st19" d="M805.5 155.3l1.8 1.8h85.3l1.8-1.8V86.9l-1.8-1.8h-85.3l-1.8 1.8v68.4"/><path class="st20" d="M816.6 130c0 .1 0 .1-.1.2-.4.5-.4 1.2.1 1.7s1.2.5 1.7.1c0 0 .1-.1.2-.1h21.1c.1 0 .1 0 .2.1.5.4 1.2.4 1.7-.1s.5-1.2.1-1.7c0 0-.1-.1-.1-.2v-17.8c0-.1 0-.1.1-.2.4-.5.4-1.2-.1-1.7s-1.2-.5-1.7-.1c0 0-.1.1-.2.1h-21.1c-.1 0-.1 0-.2-.1-.5-.4-1.2-.4-1.7.1s-.5 1.2-.1 1.7c0 0 .1.1.1.2V130m32.7 0c0 .1 0 .1-.1.2-.4.5-.4 1.2.1 1.7s1.2.5 1.7.1c0 0 .1-.1.2-.1h21.1c.1 0 .1 0 .2.1.5.4 1.2.4 1.7-.1s.5-1.2.1-1.7c0 0-.1-.1-.1-.2v-17.8c0-.1 0-.1.1-.2.4-.5.4-1.2-.1-1.7s-1.2-.5-1.7-.1c0 0-.1.1-.2.1h-21.1c-.1 0-.1 0-.2-.1-.5-.4-1.2-.4-1.7.1s-.5 1.2-.1 1.7c0 0 .1.1.1.2V130"/><path class="st14" d="M859.7 119.7h-5.5c-.3 0-.6-.3-.6-.6v-5.5c0-.3.3-.6.6-.6h5.5c.3 0 .6.3.6.6v5.5c0 .4-.3.6-.6.6z"/><circle class="st21" cx="856.9" cy="116.4" r="2.2"/><path class="st14" d="M869.3 119.7h-5.5c-.3 0-.6-.3-.6-.6v-5.5c0-.3.3-.6.6-.6h5.5c.3 0 .6.3.6.6v5.5c-.1.4-.3.6-.6.6z"/><circle class="st21" cx="866.5" cy="116.4" r="2.2"/><path class="st14" d="M859.7 129.1h-5.5c-.3 0-.6-.3-.6-.6V123c0-.3.3-.6.6-.6h5.5c.3 0 .6.3.6.6v5.5c0 .4-.3.6-.6.6z"/><circle class="st21" cx="856.9" cy="125.8" r="2.2"/><path class="st14" d="M869.3 129.1h-5.5c-.3 0-.6-.3-.6-.6V123c0-.3.3-.6.6-.6h5.5c.3 0 .6.3.6.6v5.5c-.1.4-.3.6-.6.6z"/><circle class="st21" cx="866.5" cy="125.8" r="2.2"/><circle class="st14" cx="829" cy="121.1" r="7.2"/><circle class="st22" cx="829" cy="121.1" r="2.2"/><circle class="st22" cx="829" cy="121.1" r="4.3"/><path class="st19" d="M805.5 251.6l1.8 1.8h85.3l1.8-1.8v-68.4l-1.8-1.8h-85.3l-1.8 1.8v68.4"/><path class="st20" d="M816.6 226.3c0 .1 0 .1-.1.2-.4.5-.4 1.2.1 1.7s1.2.5 1.7.1c0 0 .1-.1.2-.1h21.1c.1 0 .1 0 .2.1.5.4 1.2.4 1.7-.1s.5-1.2.1-1.7c0 0-.1-.1-.1-.2v-17.8c0-.1 0-.1.1-.2.4-.5.4-1.2-.1-1.7s-1.2-.5-1.7-.1c0 0-.1.1-.2.1h-21.1c-.1 0-.1 0-.2-.1-.5-.4-1.2-.4-1.7.1s-.5 1.2-.1 1.7c0 0 .1.1.1.2v17.8m32.7 0c0 .1 0 .1-.1.2-.4.5-.4 1.2.1 1.7s1.2.5 1.7.1c0 0 .1-.1.2-.1h21.1c.1 0 .1 0 .2.1.5.4 1.2.4 1.7-.1s.5-1.2.1-1.7c0 0-.1-.1-.1-.2v-17.8c0-.1 0-.1.1-.2.4-.5.4-1.2-.1-1.7s-1.2-.5-1.7-.1c0 0-.1.1-.2.1h-21.1c-.1 0-.1 0-.2-.1-.5-.4-1.2-.4-1.7.1s-.5 1.2-.1 1.7c0 0 .1.1.1.2v17.8"/><path class="st14" d="M859.7 216h-5.5c-.3 0-.6-.3-.6-.6v-5.5c0-.3.3-.6.6-.6h5.5c.3 0 .6.3.6.6v5.5c0 .4-.3.6-.6.6z"/><circle class="st21" cx="856.9" cy="212.7" r="2.2"/><path class="st14" d="M869.3 216h-5.5c-.3 0-.6-.3-.6-.6v-5.5c0-.3.3-.6.6-.6h5.5c.3 0 .6.3.6.6v5.5c-.1.4-.3.6-.6.6z"/><circle class="st21" cx="866.5" cy="212.7" r="2.2"/><path class="st14" d="M859.7 225.4h-5.5c-.3 0-.6-.3-.6-.6v-5.5c0-.3.3-.6.6-.6h5.5c.3 0 .6.3.6.6v5.5c0 .4-.3.6-.6.6z"/><circle class="st21" cx="856.9" cy="222.1" r="2.2"/><path class="st14" d="M869.3 225.4h-5.5c-.3 0-.6-.3-.6-.6v-5.5c0-.3.3-.6.6-.6h5.5c.3 0 .6.3.6.6v5.5c-.1.4-.3.6-.6.6z"/><circle class="st21" cx="866.5" cy="222.1" r="2.2"/><circle class="st14" cx="829" cy="217.4" r="7.2"/><circle class="st22" cx="829" cy="217.4" r="2.2"/><circle class="st22" cx="829" cy="217.4" r="4.3"/><path class="st3" d="M799.9 79h100v180h-100z"/><path class="st0" d="M813.4 29V.5m75 28.5V.5"/><path class="st10" d="M795.9 29.7H904V60H795.9z"/><path class="st4" d="M823 39.7h5.3c1.3 0 2.3.4 3 1 .5.5.8 1.2.8 1.9 0 1.3-.7 2-1.5 2.5 1.3.5 2.1 1.3 2.1 2.8 0 2.1-1.7 3.1-4.3 3.1H823V39.7zm6.5 3.3c0-.7-.6-1.2-1.6-1.2h-2.5v2.4h2.3c1.1.1 1.8-.3 1.8-1.2zm-1.2 3.4h-2.9v2.5h3c1.1 0 1.8-.4 1.8-1.2 0-.9-.6-1.3-1.9-1.3zm6.4-6.7h2.5v9.1h5.7v2.3h-8.2V39.7zm14-.1h2.3l4.9 11.5h-2.6l-1-2.6h-4.8l-1 2.6h-2.6l4.8-11.5zm2.7 6.7l-1.5-3.7-1.5 3.7h3zm5.9 2.9l6.3-7.3h-6.1v-2.2h9.3v1.9l-6.3 7.3h6.3v2.2h-9.5v-1.9zm11.9-9.5h8.6v2.2h-6.1v2.3h5.4v2.2h-5.4v2.4h6.2V51h-8.7V39.7z"/></g></svg>