<svg style="background-color:#fff" version="1.1" id="Layer_1" xmlns="http://www.w3.org/2000/svg" x="0" y="0" viewBox="0 0 500 350" xml:space="preserve"><style>.st3,.st5,.st6{fill:none;stroke-miterlimit:3.864}.st3{stroke-width:1.117;stroke:#1d1d1b}.st5{stroke:#00f;stroke-dasharray:12,2,2,2}.st6{stroke:#66b32e;stroke-dasharray:2,2}.st9{fill:#1d1d1b}.st10{font-family:Helvetica,Arial,sans-serif}.st11{font-size:11.6px}.st12{font-size:12px}</style><path d="M68.2 30.4h399.5v258.9H68.2V30.4z" fill="none" stroke="#1d1d1b" stroke-width=".709" stroke-miterlimit="3.864"/><path d="M68.3 55.8H468M68.2 82.1h399.7M68.3 107.9H468M68.2 133.7h399.7M68.3 159.4h399.6M68.3 185.9H468M68.1 211.6h399.7M68.3 237.4H468M68.2 263.1h399.7M134.7 30.3v259.2m66.8-259v259.1m66.9-259.3v259.1m66.1-259.1v259.1m66.7-258.9v259.2" fill="none" stroke="#1d1d1b" stroke-width=".227" stroke-miterlimit="3.864"/><path d="M352.9 131.1h114.7v67.3H352.9v-67.3z" fill-rule="evenodd" clip-rule="evenodd" fill="#1d1d1b"/><path class="st3" d="M352.9 131.1h114.7v67.3H352.9v-67.3z"/><path d="M349.5 127.9h114.7v67.3H349.5v-67.3z" fill-rule="evenodd" clip-rule="evenodd" fill="#fff"/><path class="st3" d="M349.5 127.9h114.7v67.3H349.5v-67.3z"/><path class="st5" d="M359.8 142.2h41.4"/><path class="st6" d="M359.8 163.5h41.4"/><path d="M359.8 184.9h41.4" fill="none" stroke="red" stroke-miterlimit="3.864" stroke-dasharray="72"/><path d="M46.8 25.2H63v271.2H46.8V25.2z" fill="none"/><text transform="translate(46.757 37.413)" class="st9 st10 st11">1.0</text><text transform="translate(46.757 63.213)" class="st9 st10 st11">0.9</text><text transform="translate(46.757 89.013)" class="st9 st10 st11">0.8</text><text transform="translate(46.757 114.813)" class="st9 st10 st11">0.7</text><text transform="translate(46.757 140.613)" class="st9 st10 st11">0.6</text><text transform="translate(46.757 166.513)" class="st9 st10 st11">0.5</text><text transform="translate(46.757 192.313)" class="st9 st10 st11">0.4</text><text transform="translate(46.757 218.113)" class="st9 st10 st11">0.3</text><text transform="translate(46.757 243.913)" class="st9 st10 st11">0.2</text><text transform="translate(46.757 269.713)" class="st9 st10 st11">0.1</text><text transform="translate(46.757 295.513)" class="st9 st10 st11">0.0</text><text transform="translate(228.19 324.83)" class="st10 st12">Wavelength (nm)</text><text transform="translate(411.543 145.712)" class="st9 st10 st12">Blue</text><text transform="translate(411.543 166.009)" class="st9 st10 st12">Green</text><text transform="rotate(-90 122.486 94.397)" class="st9 st10 st12">Relative Response</text><text transform="translate(411.543 187.76)" class="st9 st10 st12">Red</text><path d="M468 121.9l-.5.7-2.9 1.3-3.8 1.3-4.4.1-5.4-.6-3.9-1.5-3.4-1.9-3.1-2.5-3.5-3-3-2.6-3.5-2.6-3.4-2.9-3.8-3-3.4-3.1-3.5-4.1-3.3-3.1-3-2.6-3.6-2.9-3.2-2.1-3.7-2.9-3.3-2-3.4-2.5-4.2-2.6-3.6-1.9-3.5-2.1-3.8-1.1-3.1-1.5-4.3-2.8-4-2.1-3-2.3-3.8-2.4-3.8-2.1-4.4-3.1-4.1-2.3-3.6-2.4-3.9-1.9h-3l-4.5 1.5-3.6 5-3.3 7-2.3 7.8-2.3 8.1-1.5 6.6-1.6 7.4-1.4 8-1.4 7.8-1.5 9.6-1.5 9.8-1.5 10.6-1.8 10.9-1.9 11.3-1.5 12.3-2 11.9-1.4 9.8-1 6.1-1.1 8.4-1.8 8.5s-1.4 8.3-1.4 8.7-1.5 7.6-1.5 7.6l-1.1 6.6-1.7 6.6-1.4 5.3-1.8 5.8-1.5 5.1-1.6 4.1-1.8 3.6-3.5 3.1-5 1.4h-4.5l-9.5-1.4-6-1.7-10.4-3.3-5.8-1.1-5.9.3-5.6.5-5.8 2.3-5.5 2.3-7 2.7-7.2 2.2-8.5 1.2-8.3.8-8.7.5-8.7.7-7 1-8.8 1H131l-7-.8-6.7-1-5.5-.8-5.8-1.2-5.8-1.3-4.3-1.3-6-1.8-5.5-2.3-5.2-2.5-5.3-2.5-4.7-2.8-.8-.5" fill="none" stroke="red" stroke-miterlimit="3.864"/><path class="st5" d="M468.3 268.4H466l-3.7.3-4.8.5-5.8.6-7.7.5-5.7.6-5.7.8-6.5.8-6.3 1.3-6.9 1.1-7.2 1.3-7.3 1.6-7.6 1.4-9.2 1.6-7.6.9-7.9.5-7.5.4h-9.2l-8.1-.8-6.8-.5-7.1-.6-7.3-.9-7.1-.6-6.7-.5-6-.8-6.6-1-4.9-1.3-5.2-1.7-5.8-2.5-3.1-1.8-5.1-2.8-6-3.8-4.2-2.8-4.6-2.9-5-4.4-4.9-3.8-4.3-4.4-3.6-4.1-4.1-5.4-2.4-3.6-3.3-5.3-3.1-6.3-2.9-5.8-2.6-5.8-3.8-7.2-2.4-5.9-1.5-5-2-5.3-1.6-4.8-2.2-5.6-2.3-5.7-2.1-4.9-1.8-4.4-2-4.9-2.2-5.5-2.1-4.8-2.1-5.1-2.8-6.1-2.3-4.9-1.8-4.2-2.2-4.7-2.3-4.2-2.3-3.8-2.3-3.8-2.4-4.2-2.5-3.2-3.4-4.3-2.9-2.7-2.6-2.3-3.3-2.3s-3.9-2.6-4.2-2.6-2.9-1.2-2.9-1.2l-4.5-1.3h-4.4l-4.6 1.1-4.6 2.1-4.3 2.8-4.7 3.8-4.8 5.5-4 5-4.5 6.3-4.1 5.8-4.3 6-4.3 5.5-4.1 4.7-4.8 7-4 5.6-3.4 5.4-3.3 5.6-3.1 6-2.9 6.1-3.3 6.6"/><path class="st6" d="M69.2 270.7l6.8 2.5 6.4 1.6 7.1 2 6.8 1.2 6.6 1.3h8.7l8.7-1.6 5.2-1 6.6-1.7 5.4-2.5 5.1-4.2 4.4-6.4 3.5-7.2 3-9 2.4-9.3 2.1-8.4 2.1-10.5 2-9.1 2.7-13.1 2.8-14.3 2-11.8 2.4-13 2.6-11.8 1.8-9.6 1.9-9.1 2.5-12.9 2.6-10.9 2.5-10.5 2.6-8.1 3.1-8.8 3-8 3.8-7.5 4.9-8.2 5.6-6.9 7-6.1 6.5-3.6 5.8-2.3 8.6-.6h8.5l7.5 1 6.5 2.6 5.1 3.6 6.5 5.7 4.5 4.5 4.4 4.6 3.6 4.4 3.7 4.5 3.9 5 3 4 3.6 5 3.2 4.3 3.3 5.9 3.7 6 2.3 5 3 6.1 4.2 9.7 3.2 8.7 2.9 6.9 3.4 9.7 2.5 7.7 2.2 6.7 2.8 8.1 2.8 7.2 2.7 8.6 4.6 12.1 3.4 8.4 2.7 6.6 3.5 6.8 3.5 6.2 3.5 5.6 4.3 5.8 4.8 5.6 3.5 2.8 4.9 3.5 4.9 2.8 5.9 3 5.7 2.3 5.1 1.6 5.7 1 6.1.5 5.9-.6 6.3-1.4 4.9-2.4 4.9-3 5.6-3.7 5.5-3.9 5.5-4.4 4.8-4.1 4.3-3.7 3.9-3.3 3.5-2.9"/><text transform="translate(64.2 304.05)" class="st9 st10 st11">400</text><text transform="translate(191.482 304.049)" class="st9 st10 st11">500</text><text transform="translate(325.238 304.049)" class="st9 st10 st11">600</text><text transform="translate(458.778 304.05)" class="st9 st10 st11">700</text><text transform="translate(126.046 304.05)" class="st9 st10 st11">450</text><text transform="translate(260.802 304.05)" class="st9 st10 st11">550</text><text transform="translate(393.558 304.049)" class="st9 st10 st11">650</text></svg>