<svg version="1.1" id="Layer_1" xmlns="http://www.w3.org/2000/svg" x="0" y="0" viewBox="0 0 880.5 291.8" style="background-color:#fff" xml:space="preserve"><style>.st1{stroke-width:.7087}.st1,.st6,.st7{fill:none;stroke:#000;stroke-miterlimit:3.8637}.st6{stroke-width:.3402}.st7{stroke-width:.25;stroke-dasharray:12,2,2,2}.st9{font-family:Helvetica,Arial,sans-serif}.st10{font-size:11.5px}.st11{font-size:9.2px}</style><g id="Kabel"><path class="st1" d="M239 116.4h520.9m-521.6 22.5h521.6M110 103.1l3.3-2.7h63.5l3.1 2.2v51.6l-3.1 2.1h-63.3l-3.5-2.8v-50.4zm3.2-2.7v55.9m63.6 0v-55.9m-149.7-.6h63.4l3.2 2.2v51.6l-3.2 2.1H27.3m-.4-55.9v55.9m63.6 0V99.8m147.9 14.1v27.8m524.9-25.3h51.6m-51.6 22.5h51.2m2.3-10.5c-2.1-4.3-5.9-8.3-1.9-12 4.4 1.4 3.4 6.6 1.9 12m-2.3 10.5c4.5-3.7 3.9-7.2 2.3-10.5m-3.5-6.9l29-2.6m-26.5 8.4l24.8-1.5m-23 5.5l23.8.9m-23.8 2.8l25.3 4.9"/><path d="M93.7 146.5H110m0-37.4H93.7m86.2 0l58.5 4.8M56.6 155.7V99.8m27.8 55.9V99.8m154 41.9l-58.5 4.8" fill="none" stroke="#020405" stroke-width=".709" stroke-linecap="round" stroke-linejoin="round" stroke-miterlimit="10"/><path d="M56.9 99.9l27.7 18.6m-20.4-18.4l20.4 13.7m-13.5-13.7l13.5 9.1m-6.5-9.1l6.5 4.4m-27.7 0l27.7 18.6m-27.7-13.9l27.7 18.6m-27.7-14l27.7 18.6m-27.7-13.9l27.7 18.6m-27.7-14l27.7 18.6m-27.7-13.9l27.7 18.6m-27.7-14L84.6 151m-27.7-13.9l27.7 18.6m-27.7-14l20.9 14m-20.9-9.3l13.9 9.3M56.9 151l7 4.7m20.7-55.8l-27.7 18.6m20.5-18.4l-20.5 13.7m13.6-13.7l-13.6 9.1m6.6-9.1l-6.6 4.4m27.7 0l-27.7 18.6m27.7-13.9l-27.7 18.6m27.7-14l-27.7 18.6m27.7-13.9l-27.7 18.6m27.7-14l-27.7 18.6m27.7-13.9l-27.7 18.6m27.7-14L56.9 151m27.7-13.9l-27.7 18.6m27.7-14l-20.8 14m20.8-9.3l-13.9 9.3m13.9-4.7l-6.9 4.7" fill="none" stroke="#000" stroke-width=".25" stroke-miterlimit="3.864"/><path class="st1" d="M286.2 116.3h81.6v68.8h-81.6v-68.8z"/><path d="M501.1 112.7l32.5-10.8h149.6l32.4 10.8v30.2l-32.4 10.8H533.6l-32.5-10.8v-30.2h0z" fill="#fff" stroke="#000" stroke-width=".709" stroke-miterlimit="3.864"/><path d="M534.6 153.7v-51.8m147.6 51.8v-51.8" fill="none" stroke="#000" stroke-width=".709" stroke-miterlimit="3.864"/></g><g id="Bemassung"><path class="st6" d="M34.4 79.4h195.9M34.4 44.9h462.8M27.4 100.3V13.1m211 98.3V77.7m267.8 1.7h201m-223.3 22.3h77.7m-77.7 52h49.7m-32.7-39.3V40.1m214.5 71.3V77.7M608.2 187.4v-33.7M51 189.4v-33.7"/><path class="st7" d="M759.9 113.2v30.7"/><path d="M763.3 113.2v30.7" fill="none" stroke="#000" stroke-width=".25" stroke-miterlimit="3.864" stroke-dasharray="12,2,2,2,2,2"/><path class="st6" d="M15.7 150.9v-43.5m10.8 48.3H14m12.5-55.8H14"/><path class="st7" d="M286.2 129.3l-254.9-.6"/><path class="st6" d="M34.4 17.4H836m7.3 100.4V13.7m-36.8 143.5V65.7M487.2 237.8V108.7"/><path class="st7" d="M880.5 129.3l-512.7-.6"/><path class="st6" d="M327 224v-33.6m0 32.6v-33.6m0 32.6v-33.6m0 32.6v-33.6m0 32.6v-33.6m0 32.6v-33.6"/></g><path id="Pfeile" d="M34.4 77.4v4l-7.2-2 7.2-2zm195.9 0v4l7.1-2-7.1-2zM34.4 42.9v4l-7.2-2 7.2-2zm459.1 0v4l7.1-2-7.1-2zm14.3 34.5v4l-7.1-2 7.1-2zm197.5 0v4l8.9-2-8.9-2zM13.6 107.7h4l-1.9-7.5-2.1 7.5zm4 39.9h-3.9l1.9 7.5 2-7.5zM34.4 15.4v3.9l-7.2-1.9 7.2-2zM836 19.3v-3.9l7.1 1.9-7.1 2zM804.5 146h3.9l-1.9-7.1-2 7.1zm3.9-35.8h-3.9l1.9 7 2-7zm-323.3-1.5h4l-1.9-7-2.1 7zm4 37.3h-4l2 7 2-7z"/><text transform="translate(6.55 203.692)" class="st9 st10">Hirose 12-pin plug</text><text transform="translate(555.385 200.27)" class="st9 st10">Electronic board</text><text transform="translate(555.385 214.07)" class="st9 st10">molded onto the cable</text><text transform="translate(109.918 76.269)" class="st9 st11">36</text><text transform="translate(255.584 41.769)" class="st9 st11">~170</text><text transform="translate(596.532 76.269)" class="st9 st11">100 max.</text><text transform="rotate(-90 77.081 66.418)" class="st9 st11">15 max.</text><text transform="rotate(-90 348.69 -134.419)" class="st9 st11">25 max.</text><text transform="rotate(-90 447.42 -356.348)" class="st9 st11">8.2</text><text transform="translate(256.818 235.284)" class="st9 st10">Label with order number,</text><text transform="translate(256.818 247.984)" class="st9 st10">manufacturing date, and</text><text transform="translate(256.818 260.584)" class="st9 st10">pin-to-wire color assignment</text><text transform="translate(305.679 132.38)" class="st9" font-size="8.05">2000...xx/yy</text><text transform="translate(348.971 12.635)" class="st9 st10">Length depending on order number</text><text transform="translate(821.236 162.134)" class="st9 st10">Open end</text><text transform="translate(768.133 287.569)" class="st9 st10">Dimensions in mm</text></svg>