<svg style="background-color:#fff" version="1.1" id="Ebene_1" xmlns="http://www.w3.org/2000/svg" x="0" y="0" viewBox="0 0 323.7 174.5" xml:space="preserve"><style>.st0{fill:none;stroke:#1d1d1b}.st14{fill:#1d1d1b}.st15{font-family:Helvetica,Arial,sans-serif}.st16{font-size:9px}.st17,.st18{fill:none;stroke:#1d1d1b;stroke-width:2;stroke-linecap:round}.st18{stroke-dasharray:2}</style><path class="st0" d="M25.8 142.8h296"/><linearGradient id="SVGID_1_" gradientUnits="userSpaceOnUse" x1="107.126" y1="146.467" x2="107.126" y2="146.467"><stop offset="0" stop-color="#fff"/><stop offset="1"/></linearGradient><path fill="url(#SVGID_1_)" stroke="#1d1d1b" d="M107.1 143.1v6.8"/><linearGradient id="SVGID_2_" gradientUnits="userSpaceOnUse" x1="71.308" y1="146.734" x2="71.308" y2="146.734"><stop offset="0" stop-color="#fff"/><stop offset="1"/></linearGradient><path fill="url(#SVGID_2_)" stroke="#1d1d1b" d="M71.3 143.3v6.8"/><linearGradient id="SVGID_3_" gradientUnits="userSpaceOnUse" x1="178.762" y1="146.734" x2="178.762" y2="146.734"><stop offset="0" stop-color="#fff"/><stop offset="1"/></linearGradient><path fill="url(#SVGID_3_)" stroke="#1d1d1b" d="M178.8 143.3v6.8"/><linearGradient id="SVGID_4_" gradientUnits="userSpaceOnUse" x1="142.944" y1="146.734" x2="142.944" y2="146.734"><stop offset="0" stop-color="#fff"/><stop offset="1"/></linearGradient><path fill="url(#SVGID_4_)" stroke="#1d1d1b" d="M142.9 143.3v6.8"/><path class="st0" d="M250.4 143.3v6.8"/><linearGradient id="SVGID_5_" gradientUnits="userSpaceOnUse" x1="214.581" y1="146.734" x2="214.581" y2="146.734"><stop offset="0" stop-color="#fff"/><stop offset="1"/></linearGradient><path fill="url(#SVGID_5_)" stroke="#1d1d1b" d="M214.6 143.3v6.8"/><linearGradient id="SVGID_6_" gradientUnits="userSpaceOnUse" x1="286.217" y1="146.467" x2="286.217" y2="146.467"><stop offset="0" stop-color="#fff"/><stop offset="1"/></linearGradient><path fill="url(#SVGID_6_)" stroke="#1d1d1b" d="M286.2 143.1v6.8"/><path class="st0" d="M25.3 142.6h297"/><linearGradient id="SVGID_7_" gradientUnits="userSpaceOnUse" x1="106.626" y1="146.217" x2="106.626" y2="146.217"><stop offset="0" stop-color="#fff"/><stop offset="1"/></linearGradient><path fill="url(#SVGID_7_)" stroke="#1d1d1b" d="M106.6 142.8v6.8"/><linearGradient id="SVGID_8_" gradientUnits="userSpaceOnUse" x1="70.808" y1="146.484" x2="70.808" y2="146.484"><stop offset="0" stop-color="#fff"/><stop offset="1"/></linearGradient><path fill="url(#SVGID_8_)" stroke="#1d1d1b" d="M70.8 143.1v6.8"/><linearGradient id="SVGID_9_" gradientUnits="userSpaceOnUse" x1="178.262" y1="146.484" x2="178.262" y2="146.484"><stop offset="0" stop-color="#fff"/><stop offset="1"/></linearGradient><path fill="url(#SVGID_9_)" stroke="#1d1d1b" d="M178.3 143.1v6.8"/><linearGradient id="SVGID_10_" gradientUnits="userSpaceOnUse" x1="142.444" y1="146.484" x2="142.444" y2="146.484"><stop offset="0" stop-color="#fff"/><stop offset="1"/></linearGradient><path fill="url(#SVGID_10_)" stroke="#1d1d1b" d="M142.4 143.1v6.8"/><path class="st0" d="M249.9 143.1v6.8"/><linearGradient id="SVGID_11_" gradientUnits="userSpaceOnUse" x1="214.081" y1="146.484" x2="214.081" y2="146.484"><stop offset="0" stop-color="#fff"/><stop offset="1"/></linearGradient><path fill="url(#SVGID_11_)" stroke="#1d1d1b" d="M214.1 143.1v6.8"/><linearGradient id="SVGID_12_" gradientUnits="userSpaceOnUse" x1="321.535" y1="146.217" x2="321.535" y2="146.217"><stop offset="0" stop-color="#fff"/><stop offset="1"/></linearGradient><path fill="url(#SVGID_12_)" stroke="#1d1d1b" d="M321.5 142.8v6.8"/><linearGradient id="SVGID_13_" gradientUnits="userSpaceOnUse" x1="285.717" y1="146.217" x2="285.717" y2="146.217"><stop offset="0" stop-color="#fff"/><stop offset="1"/></linearGradient><path fill="url(#SVGID_13_)" stroke="#1d1d1b" d="M285.7 142.8v6.8"/><text transform="translate(140.89 171.56)" class="st14 st15 st16">Image Height [mm]</text><path class="st14" d="M72 158.9h-.8v-5c-.2.2-.4.4-.8.5-.3.2-.6.3-.8.4v-.8c.4-.2.8-.5 1.2-.8.3-.3.6-.6.7-.9h.5v6.6zm36.8-.7v.8h-4.3c0-.2 0-.4.1-.5.1-.3.3-.6.5-.9.2-.3.6-.6 1-1 .7-.6 1.2-1 1.4-1.4.2-.3.4-.7.4-1 0-.3-.1-.6-.3-.8-.2-.2-.5-.3-.9-.3s-.7.1-.9.3c-.2.2-.3.5-.3 1l-.8-.1c.1-.6.3-1.1.6-1.4.4-.3.9-.5 1.5-.5s1.1.2 1.5.5c.4.3.5.8.5 1.3 0 .3-.1.5-.2.8-.1.2-.3.5-.5.8-.2.3-.7.7-1.2 1.1-.5.4-.8.7-.9.8-.1.1-.2.3-.3.4h3.1zm31.5-1l.8-.1c.1.4.2.8.5 1 .2.2.5.3.8.3.4 0 .7-.1.9-.4.3-.3.4-.6.4-1s-.1-.7-.4-.9c-.2-.2-.5-.4-.9-.4-.2 0-.3 0-.6.1l.1-.7h.1c.3 0 .6-.1.9-.3.3-.2.4-.4.4-.8 0-.3-.1-.5-.3-.7-.2-.2-.5-.3-.8-.3-.3 0-.6.1-.8.3-.2.2-.3.5-.4.9l-.8-.1c.1-.5.3-.9.7-1.2.3-.3.8-.4 1.3-.4.4 0 .7.1 1 .2.3.2.5.4.7.6.2.3.2.5.2.8 0 .3-.1.5-.2.8-.1.2-.4.4-.7.5.4.1.7.3.9.5.2.3.3.6.3 1 0 .6-.2 1-.6 1.4-.4.4-.9.6-1.6.6-.6 0-1-.2-1.4-.5-.2-.2-.4-.6-.5-1.2zm38.5 1.7v-1.5H176v-.7l2.9-4.2h.6v4.2h.9v.7h-.9v1.5h-.7zm0-2.2v-2.9l-2 2.9h2zm33.1.5l.8-.1c.1.4.2.7.4.9.2.2.5.3.8.3.4 0 .7-.1 1-.4.3-.3.4-.7.4-1.1 0-.5-.1-.8-.4-1.1-.3-.3-.6-.4-1-.4-.3 0-.5.1-.7.2-.2.1-.4.3-.5.5l-.7-.1.6-3.3h3.2v.8h-2.6l-.3 1.7c.4-.3.8-.4 1.2-.4.6 0 1 .2 1.4.6.4.4.6.9.6 1.5s-.2 1.1-.5 1.5c-.4.5-1 .8-1.7.8-.6 0-1.1-.2-1.4-.5-.3-.4-.5-.8-.6-1.4zm40-3.1l-.8.1c-.1-.3-.2-.5-.3-.7-.2-.2-.5-.3-.8-.3-.3 0-.5.1-.7.2-.2.2-.4.4-.6.8-.1.3-.2.8-.2 1.5.2-.3.4-.5.7-.6.3-.1.6-.2.9-.2.5 0 1 .2 1.4.6.4.4.6.9.6 1.5 0 .4-.1.8-.3 1.1-.2.3-.4.6-.7.8-.3.2-.7.3-1 .3-.7 0-1.2-.2-1.6-.7-.4-.5-.6-1.3-.6-2.4 0-1.2.2-2.2.7-2.7.4-.5.9-.7 1.6-.7.5 0 .9.1 1.3.4s.4.5.4 1zm-3.2 2.7c0 .3.1.5.2.8.1.2.3.4.5.6.2.1.4.2.7.2.3 0 .6-.1.9-.4.2-.3.4-.6.4-1.1 0-.4-.1-.8-.4-1.1-.2-.3-.5-.4-.9-.4s-.7.1-.9.4c-.4.3-.5.6-.5 1zm34.9-3.5v-.8h4.2v.6c-.4.4-.8 1-1.2 1.7-.4.7-.7 1.5-.9 2.2-.2.5-.3 1.1-.3 1.8h-.8c0-.5.1-1.1.3-1.8.2-.7.5-1.4.8-2.1.4-.7.7-1.2 1.1-1.7h-3.2zm37 2.1c-.3-.1-.6-.3-.7-.5-.2-.2-.2-.5-.2-.8 0-.5.2-.9.5-1.2.3-.3.8-.5 1.3-.5.6 0 1 .2 1.4.5.3.3.5.7.5 1.2 0 .3-.1.6-.2.8-.2.2-.4.4-.7.5.4.1.7.3.9.6.2.3.3.6.3 1 0 .5-.2 1-.6 1.4-.4.4-.9.6-1.5.6s-1.1-.2-1.5-.6c-.4-.4-.6-.8-.6-1.4 0-.4.1-.8.3-1.1.1-.2.4-.4.8-.5zm-.4 1.7c0 .2.1.4.2.7.1.2.3.4.5.5.2.1.4.2.7.2.4 0 .7-.1.9-.4.2-.2.4-.6.4-.9 0-.4-.1-.7-.4-.9-.3-.2-.6-.4-1-.4s-.7.1-.9.4c-.3.1-.4.4-.4.8zm.3-3c0 .3.1.6.3.7.2.2.4.3.8.3.3 0 .6-.1.7-.3.2-.2.3-.4.3-.7 0-.3-.1-.5-.3-.7-.2-.2-.4-.3-.7-.3-.3 0-.6.1-.8.3-.2.2-.3.4-.3.7z"/><path class="st0" d="M32.6 13.3h-7.3m7.3 31.4h-7.3m7.3 32.5h-7.3m7.3 31.3h-7.3"/><path class="st14" d="M33.5 155.7c0-.8.1-1.4.2-1.8.2-.5.4-.8.7-1.1.3-.3.7-.4 1.2-.4.3 0 .6.1.9.2.3.1.5.3.6.6.2.3.3.6.4 1 .1.4.1.9.1 1.5 0 .8-.1 1.4-.2 1.8-.2.5-.4.8-.7 1.1-.3.3-.7.4-1.2.4-.6 0-1.1-.2-1.5-.7-.3-.5-.5-1.3-.5-2.6zm.8 0c0 1.1.1 1.8.4 2.1.2.3.6.5.9.5.4 0 .7-.2.9-.5.2-.4.4-1.1.4-2.1 0-1.1-.1-1.8-.4-2.1-.2-.3-.6-.5-.9-.5-.4 0-.7.2-.9.5-.2.4-.4 1.1-.4 2.1z"/><path class="st0" d="M33.1 13.3v137.3"/><text transform="translate(17.64 145.06)" class="st14 st15 st16">0</text><text transform="translate(13.39 112.144)" class="st14 st15 st16">20</text><text transform="translate(13.058 80.478)" class="st14 st15 st16">40</text><text transform="translate(12.89 48.144)" class="st14 st15 st16">60</text><text transform="translate(12.89 15.978)" class="st14 st15 st16">80</text><text transform="rotate(-90 51.1 43.377)" class="st14 st15 st16">SFR [%]</text><text transform="translate(67.724 123.81)" class="st14 st15 st16">Sagittal</text><text transform="translate(67.724 135.311)" class="st14 st15 st16">Tangential</text><path class="st0" d="M41.9 111.8h73.5v27.8H41.9z"/><path class="st17" d="M46.4 120.1h16.8"/><path class="st18" d="M46.2 131.6h16.9"/><path d="M34.4 73.5s168.7.7 286 32.7" opacity=".35" fill="none" stroke="#1d1d1b" stroke-width="2" stroke-linecap="round"/><path d="M33.7 72.1s139.6 7.8 142.3 9.3c2.7 1.6 110.1 17.9 110.1 17.9s14.1 3.9 32.9-7.8" opacity=".35" fill="none" stroke="#1d1d1b" stroke-width="2" stroke-linecap="round" stroke-dasharray="2"/><path d="M33.7 47.5S259 38.8 319 72.2" opacity=".7" fill="none" stroke="#1d1d1b" stroke-width="2" stroke-linecap="round"/><path d="M34.4 48.3s87.3-8.5 90-9.3c2.7-.8 74.7-6.2 96.7 7.7s62.7 14.7 62.7 14.7 24.7 0 34.7-11.6" opacity=".7" fill="none" stroke="#1d1d1b" stroke-width="2" stroke-linecap="round" stroke-dasharray="2"/><path class="st17" d="M35.1 20.8s236-8 284 11.3"/><path class="st18" d="M35.1 20.5s88.6-4.2 92.7-6.7c4-2.5 57.1-9.2 90.6 2.5 33.6 11.7 98-1.7 101.4-1.7"/><text transform="translate(42.388 88.81)" class="st14 st15 st16">120lp/mm</text><text transform="translate(42.388 59.475)" class="st14 st15 st16">80lp/mm</text><text transform="translate(42.388 30.808)" class="st14 st15 st16">50lp/mm</text></svg>