<svg version="1.1" id="Layer_1" xmlns="http://www.w3.org/2000/svg" x="0" y="0" viewBox="0 0 568.5 167.5" style="background-color:#fff" xml:space="preserve"><style>.st1{stroke-width:.5}.st1,.st2,.st3,.st4{fill:none;stroke:#000;stroke-miterlimit:3.8637}.st2{stroke-width:.4252}.st3{stroke-width:.3402}.st4{stroke-width:.25;stroke-dasharray:12,2,2,2}.st9{font-family:Helvetica,Arial,sans-serif}.st10{font-size:10px}.st11{font-size:8px}</style><g id="Ebene_1"><path class="st1" d="M263.7 95.3h186.2m-186.2 19.6h169.5m0 0h17.1M151.6 83.8l2.9-2.4h55.2l2.7 1.9v44.9l-2.7 1.8h-55l-3.1-2.4V83.8zm2.8-2.4V130m55.3 0V81.4m-130.2-.5h55.2l2.7 2v44.8l-2.7 1.8h-55m-.3-48.6v48.6m55.3 0V80.9"/><path class="st2" d="M263.2 93.2v24.1"/><path class="st1" d="M453.6 95.3h60.9m-60.9 19.6h60.6"/><path class="st3" d="M85.8 63.2h177.5"/><path d="M85.8 61.4v3.5l-6.2-1.7 6.2-1.8zm170.4 0v3.5l6.2-1.7-6.2-1.8z"/><path class="st3" d="M79.8 76.4V15.5M263.3 91V61.7"/><path class="st4" d="M450.3 92.5v26.8"/><path d="M453.3 92.5v26.8" fill="none" stroke="#000" stroke-width=".25" stroke-miterlimit="3.864" stroke-dasharray="12,2,2,2,2,2"/><path class="st3" d="M69.6 125.3V87.5m9.4 42H68.1"/><path d="M67.8 87.8h3.5l-1.7-6.5-1.8 6.5z"/><path class="st3" d="M79 81H68.1"/><path d="M71.3 122.5h-3.5l1.7 6.5 1.8-6.5z"/><path class="st4" d="M302.2 106.5L74.5 106"/><path class="st2" d="M516.2 105.8c-1.8-3.8-5.2-7.2-1.7-10.5 3.9 1.3 3 5.8 1.7 10.5m-2 9.1c3.9-3.2 3.4-6.2 2-9.1"/><path d="M513.1 99.8l25.3-2.3m-23 7.3l21.5-1.3m-20 4.8l20.7.7m-20.7 2.5l22 4.3" fill="none"/><path class="st3" d="M85.8 19.2h453.3"/><path d="M85.8 17.5v3.4l-6.2-1.7 6.2-1.7z"/><path class="st3" d="M539.3 96.5V16"/><path d="M532.9 20.9v-3.4l6.2 1.7-6.2 1.7z"/><path class="st3" d="M302.2 115V95.3m131 19.7V95.3"/><path class="st4" d="M548.4 106.5l-115.2-.5"/><path class="st3" d="M492.2 130.8V53.5"/><path d="M490.5 121h3.4l-1.7-6.1-1.7 6.1zm3.4-31.1h-3.4l1.7 6.2 1.7-6.2z"/><path d="M137.4 121.5h14.2m0-32.5h-14.2m75 0l50.8 4.2m-158 36.3V80.9m24.2 48.6V80.9m133.8 36.4l-50.8 4.2" fill="none" stroke="#020405" stroke-width=".5" stroke-linecap="round" stroke-linejoin="round" stroke-miterlimit="10"/><path d="M105.5 81l24.1 16.1m-17.8-16l17.8 12m-11.8-12l11.8 7.9m-5.8-7.9l5.8 3.9m-24.1 0l24.1 16.2M105.5 89l24.1 16.2m-24.1-12.1l24.1 16.2m-24.1-12.2l24.1 16.2m-24.1-12.1l24.1 16.2m-24.1-12.2l24.1 16.2m-24.1-12.1l24.1 16.2m-24.1-12.2l24.1 16.2m-24.1-12.1l18.1 12.1m-18.1-8.1l12.1 8.1m-12.1-4l6 4M129.6 81l-24.1 16.1m17.8-16l-17.8 12m11.7-12L105.5 89m5.7-7.9l-5.7 3.9m24.1 0l-24.1 16.2M129.6 89l-24.1 16.2m24.1-12.1l-24.1 16.2m24.1-12.2l-24.1 16.2m24.1-12.1l-24.1 16.2m24.1-12.2l-24.1 16.2m24.1-12.1l-24.1 16.2m24.1-12.2l-24.1 16.2m24.1-12.1l-18.1 12.1m18.1-8.1l-12.1 8.1m12.1-4l-6.1 4" fill="none" stroke="#000" stroke-width=".25" stroke-miterlimit="3.864"/><path class="st2" d="M302.2 95.3h130.9v68.2H302.2V95.3z"/><path d="M50.3 51.5l29.5 29.4" fill="none" stroke="#000" stroke-width=".227" stroke-miterlimit="3.864"/></g><g id="text"><text transform="translate(4.728 36.948)" class="st9 st10">Hirose</text><text transform="translate(4.728 47.948)" class="st9 st10">6-pin plug</text><text transform="translate(151.599 59.5)" class="st9 st11">36 mm</text><text transform="rotate(-90 93.37 28.08)" class="st9 st11">11.6 mm</text><text transform="rotate(-90 287.683 -200.53)" class="st9 st11">5.8 mm</text><text transform="translate(304.557 135.167)" class="st9 st10">Label with order number,</text><text transform="translate(304.557 146.167)" class="st9 st10">manufacturing date, and</text><text transform="translate(304.557 157.167)" class="st9 st10">pin-to-wire color assignment</text><text transform="translate(345.306 108.293)" class="st9" font-size="7">2000...xx/yy</text><text transform="translate(235.973 14.166)" class="st9 st10">Length depending on order number</text><text transform="translate(520.143 134.167)" class="st9 st10">Open end</text></g></svg>