<svg version="1.1" id="Layer_1" xmlns="http://www.w3.org/2000/svg" x="0" y="0" viewBox="0 0 470.9 232.5" style="background-color:#fff" xml:space="preserve"><style>.st0{fill:none}.st1,.st2{fill:none;stroke:#000;stroke-width:1.08;stroke-linecap:round;stroke-linejoin:round;stroke-miterlimit:10}.st2{stroke-width:.54}.st4{enable-background:new}.st5{font-family:Helvetica,Arial,sans-serif}.st6{font-size:18px}</style><path class="st1" d="M212.1 44.5c-3.1 0-5.7 2.5-5.7 5.7m72 0c0-3.1-2.5-5.7-5.7-5.7m0 144c3.1 0 5.7-2.5 5.7-5.7m-72 0c0 3.1 2.5 5.7 5.7 5.7m-5.7-138.2v132.6m72 0V50.3M212 188.5h60.7m0-144H212m-43.1 33.7c-1-2.3-3.7-3.4-6.1-2.4-2.3 1-3.4 3.7-2.4 6.1s3.7 3.4 6.1 2.4c2.4-1.1 3.5-3.8 2.4-6.1m-.5 38.9c-1-2.3-3.7-3.4-6.1-2.4-2.3 1-3.4 3.7-2.4 6.1s3.7 3.4 6.1 2.4c2.4-1.1 3.4-3.8 2.4-6.1"/><path class="st2" d="M22.6 59.7c3.8.7 7.4-1.8 8-5.6s-1.8-7.4-5.6-8c-3.8-.7-7.4 1.8-8 5.6s1.8 7.3 5.6 8"/><path class="st1" d="M22.4 60.6c4.3.8 8.3-2.1 9.1-6.3.8-4.3-2.1-8.3-6.3-9.1-4.3-.8-8.3 2.1-9.1 6.3-.8 4.2 2.1 8.3 6.3 9.1"/><path class="st2" d="M109.8 55.8c1.6-3.5.1-7.6-3.4-9.2-3.5-1.6-7.6-.1-9.2 3.4s-.1 7.6 3.4 9.2c3.5 1.6 7.7 0 9.2-3.4"/><path class="st1" d="M110.7 56.1c1.8-3.9.1-8.6-3.9-10.4s-8.6-.1-10.4 3.9c-1.8 3.9-.1 8.6 3.9 10.4s8.6.1 10.4-3.9"/><path class="st2" d="M22.6 187.1c3.8.7 7.4-1.8 8-5.6.7-3.8-1.8-7.4-5.6-8-3.8-.7-7.4 1.8-8 5.6s1.8 7.4 5.6 8"/><path class="st1" d="M22.4 188c4.3.8 8.3-2.1 9.1-6.3.8-4.3-2.1-8.3-6.3-9.1-4.3-.8-8.3 2.1-9.1 6.3-.8 4.3 2.1 8.4 6.3 9.1"/><path class="st2" d="M102.3 187.1c3.8.7 7.4-1.8 8-5.6.7-3.8-1.8-7.4-5.6-8-3.8-.7-7.4 1.8-8 5.6s1.9 7.4 5.6 8"/><path class="st1" d="M102.2 188c4.3.8 8.3-2.1 9.1-6.3.8-4.3-2.1-8.3-6.3-9.1-4.3-.8-8.3 2.1-9.1 6.3-.8 4.3 2 8.4 6.3 9.1"/><path class="st2" d="M5.1 9.7c-1.4 3.6.4 7.6 3.9 9s7.6-.4 9-3.9-.4-7.6-3.9-9-7.6.3-9 3.9"/><path class="st1" d="M4.3 9.3c-1.6 4 .4 8.6 4.4 10.1s8.6-.4 10.1-4.4c1.6-4-.4-8.6-4.4-10.1s-8.5.4-10.1 4.4"/><path class="st2" d="M5.6 224.4c2 3.3 6.2 4.4 9.5 2.4s4.4-6.2 2.4-9.5-6.2-4.4-9.5-2.4c-3.3 1.9-4.3 6.2-2.4 9.5"/><path class="st1" d="M4.8 224.8c2.2 3.7 7 4.9 10.7 2.7s4.9-7 2.7-10.7-7-4.9-10.7-2.7-4.9 7-2.7 10.7"/><path class="st2" d="M271 227c3.4 1.7 7.6.4 9.3-3s.4-7.6-3-9.3-7.6-.4-9.3 3-.4 7.5 3 9.3"/><path class="st1" d="M270.6 227.8c3.8 2 8.6.5 10.5-3.4s.5-8.6-3.4-10.5-8.6-.5-10.5 3.4-.4 8.5 3.4 10.5"/><path class="st2" d="M268.2 15.7c2 3.3 6.2 4.4 9.5 2.4s4.4-6.2 2.4-9.5-6.2-4.4-9.5-2.4-4.3 6.3-2.4 9.5"/><path class="st1" d="M267.5 16.2c2.2 3.7 7 4.9 10.7 2.7s4.9-7 2.7-10.7c-2.2-3.7-7-4.9-10.7-2.7s-5 7-2.7 10.7M25.2 56.6l-4-.8-1.4-3.7 2.7-3.1 3.9.7 1.5 3.8-2.7 3.1m82.4-4.2l-1.8 3.8-4 .4-2.3-3.5 1.6-3.6 4.2-.5 2.3 3.4M25.2 184.2l-4-.7-1.4-3.8 2.7-3.3 3.9.8 1.5 3.9-2.7 3.1m79.7 0l-4-.7-1.4-3.8 2.5-3.3 4.2.8 1.4 3.9-2.7 3.1M7.5 12.8L9.1 9l4-.5 2.5 3.1-1.4 3.9-4 .6-2.7-3.3m2.2 211.7l-2.2-3.6 2-3.6h4.1l2.2 3.6-2 3.4-4.1.2m264.6.5l-3.6-1.9-.2-4 3.4-2.3 3.6 1.9.2 4-3.4 2.3"/><path class="st1" d="M272.1 15.9l-2.1-3.6 2.1-3.6h4l2.1 3.6-1.9 3.4-4.2.2M170 39.5c-.6 2.2-.6 4.5 0 6.6m14.4-14.4c-2.2-.6-4.5-.6-6.6 0m14.5 14.4c.6-2.2.6-4.5 0-6.6m-14.5 14.4c2.2.6 4.5.6 6.6 0m-3.2-1.3v-8.3m-9.7-1.4h8.1m1.6-9.7v8.2m9.6 1.5h-8.1m0 6.1v-6.5h8.1V42h-1.7m-1.8-.7c.5.4 1.1.5 1.7.5m-1.7-.4h-6.6v-8.2h-.6V35m-.5 1.6c.4-.5.5-1.1.5-1.7m-.5 1.9v6.4h-8.1v.6h1.8m1.6.7c-.5-.4-1.1-.5-1.7-.5m1.7.3h6.7v8.3h.5v-1.8m.6-1.6c-.4.5-.5 1.1-.5 1.7m8.6-8.4v.4m-10.1-9.7h.5m-9.7 10v-.3m10.1 9.7h-.4m-3.4-20.9c-3.8 1.1-6.7 4.1-7.8 7.8m22.3 0c-1.1-3.8-4.1-6.7-7.8-7.8m-.1 22.2c3.8-1.1 6.7-4.1 7.8-7.8m-22.2 0c1.1 3.8 4.1 6.7 7.8 7.8m1.6-8.2c0-.6-.5-1.2-1.2-1.2m4.6 4.5v-3.2m-7.7-1.3h3.2m4.5 4.5c-.9 1.1-.9 2.6 0 3.7m-7.8-8.1c-1.1-.9-2.6-.9-3.7 0m14.2-4.1v-1.4m-2.7 13.7v-.2m-11.7-8.1h.4m14-3.9c0 .3.3.6.6.6"/><path class="st1" d="M182.8 52.9c0 .4.2.8.5 1.1s.8.3 1.2.2m-13.3-9.7c-.4 0-.8.2-1.1.5s-.3.8-.2 1.2m8.3-4.9c.6 0 1.2-.5 1.2-1.2m7.9 1.2h-1.2m-6.7-4.5V40m7.8 1.2c1.1.9 2.6.9 3.7 0m-11.4-4.5c.9-1.1.9-2.6 0-3.7m11.6 8.3h-.2M179.4 33v.2m11.8 8.1c.4 0 .8-.2 1.1-.5s.3-.8.2-1.2m-12.9-6.7c0-.4-.2-.8-.5-1.1-.3-.3-.8-.3-1.2-.2m0 22.6c.4.1.9 0 1.2-.2.3-.3.5-.7.5-1.1m11.3-8.3c-1.1-.9-2.6-.9-3.7 0m-2.1 8.2c1 0 1.9-.8 1.9-1.9s-.8-1.9-1.9-1.9c-1 0-1.9.8-1.9 1.9s.8 1.9 1.9 1.9m-7.9 0c1 0 1.9-.8 1.9-1.9s-.8-1.9-1.9-1.9c-1 0-1.9.8-1.9 1.9s.8 1.9 1.9 1.9m-4-4c1 0 1.9-.8 1.9-1.9s-.8-1.9-1.9-1.9c-1 0-1.9.8-1.9 1.9s.9 1.9 1.9 1.9m0-8.1c1 0 1.9-.8 1.9-1.9s-.8-1.9-1.9-1.9c-1 0-1.9.8-1.9 1.9s.9 1.9 1.9 1.9m4-3.9c1 0 1.9-.8 1.9-1.9s-.8-1.9-1.9-1.9c-1 0-1.9.8-1.9 1.9s.8 1.9 1.9 1.9m7.9 0c1 0 1.9-.8 1.9-1.9s-.8-1.9-1.9-1.9c-1 0-1.9.8-1.9 1.9s.8 1.9 1.9 1.9m3.9 3.9c1 0 1.9-.8 1.9-1.9s-.8-1.9-1.9-1.9c-1 0-1.9.8-1.9 1.9s.9 1.9 1.9 1.9m0 8.1c1 0 1.9-.8 1.9-1.9s-.8-1.9-1.9-1.9c-1 0-1.9.8-1.9 1.9s.9 1.9 1.9 1.9m-9.6 3.8v.2m.1-.1c.9-1.1.9-2.6 0-3.7m-.1-3.2V49m-9.5-9.5c-.1.4 0 .9.2 1.2s.7.5 1.1.5m.3.1h-.4m.3-.1c1.1.9 2.6.9 3.7 0m3.2.1h-3.2m9.5-9.7c-.4-.1-.9 0-1.2.2-.3.3-.5.7-.5 1.1m-.1.3V33m0 0c-.9 1.1-.9 2.6 0 3.7m0 1.1v-1m0 1.1c0 .3.3.6.6.6m1.6.1h-1.6m2.1.4c0-.3-.3-.6-.6-.6m7.6 7.8c.1-.4 0-.9-.2-1.2-.3-.3-.7-.5-1.1-.5m-.3 0h.2m-7.2 0h3.4m-3.3 0c-.6 0-1.2.5-1.2 1.2m13.4 131.8h-.8m-.7-.9v-2.5"/><path class="st2" d="M196.5 176.1h-1.8"/><path class="st1" d="M195.4 177.5l-.5-.2-.2-.7m-28.6-7.5h.7m.9.7v2.7"/><path class="st2" d="M165.9 170.3h1.8"/><path class="st1" d="M166.8 169.1l.7.1.2.6m10.5 14.7c1.9.5 3.9.5 5.8 0"/><path class="st1" d="M184 184.5c5.7-1.5 9.4-6.9 8.6-12.7-.7-5.8-5.7-10.1-11.5-10.1s-10.8 4.3-11.5 10.1 3 11.2 8.6 12.7"/><path class="st1" d="M183 183.5c0-1-.8-1.9-1.9-1.9-1 0-1.9.8-1.9 1.9m4.5-10.2c0-1.4-1.2-2.6-2.6-2.6-1.4 0-2.6 1.2-2.6 2.6s1.2 2.6 2.6 2.6c1.5 0 2.6-1.2 2.6-2.6"/><path class="st1" d="M182.7 173.3c0-.8-.7-1.5-1.5-1.5s-1.5.7-1.5 1.5.7 1.5 1.5 1.5 1.5-.7 1.5-1.5m-3.5 10.6v-.2m-.9.8h.6l.3-.7"/><path class="st2" d="M183 183.8c5.5-1 9.3-5.9 8.8-11.5-.5-5.5-5.1-9.8-10.7-9.8s-10.2 4.2-10.7 9.8c-.5 5.5 3.3 10.5 8.8 11.5"/><path class="st1" d="M184.1 184.5h-.7l-.4-.7m0-.1v.2m-.3-18.4c0-.8-.7-1.5-1.5-1.5s-1.5.7-1.5 1.5.7 1.5 1.5 1.5c.8.1 1.5-.6 1.5-1.5m-6 2.6c0-.8-.7-1.5-1.5-1.5s-1.5.7-1.5 1.5.7 1.5 1.5 1.5 1.5-.7 1.5-1.5m-1.8 6.3c0-.8-.7-1.5-1.5-1.5s-1.5.7-1.5 1.5.7 1.5 1.5 1.5 1.5-.7 1.5-1.5m3.6 5.4c0-.8-.7-1.5-1.5-1.5s-1.5.7-1.5 1.5.7 1.5 1.5 1.5 1.5-.7 1.5-1.5m8.5 0c0-.8-.7-1.5-1.5-1.5s-1.5.7-1.5 1.5.7 1.5 1.5 1.5 1.5-.7 1.5-1.5m3.4-5.4c0-.8-.7-1.5-1.5-1.5s-1.5.7-1.5 1.5.7 1.5 1.5 1.5 1.5-.7 1.5-1.5m-1.8-6.3c0-.8-.7-1.5-1.5-1.5s-1.5.7-1.5 1.5.7 1.5 1.5 1.5 1.5-.7 1.5-1.5m-11.2-1.7l.9-1.1h-.9v1.1"/><path class="st1" d="M175 176.4c.7-.6 1.1-1.5.9-2.4-.1-.9-.7-1.7-1.6-2m.5-1.2c-.1.3-.2.7-.3 1.1m.2-1.3c.9.2 1.8-.2 2.4-.9s.8-1.6.5-2.5m1.2-.3c-.3.1-.7.3-1 .5m1.1-.5c.5.8 1.3 1.3 2.2 1.3s1.8-.5 2.2-1.3m1.1.5c-.3-.2-.7-.3-1-.5m1.2.4c-.3.9-.1 1.8.5 2.5s1.5 1 2.4.9m.2 1.2c-.1-.4-.2-.7-.3-1.1m.4 1.2c-.8.4-1.4 1.1-1.6 2s.2 1.8.9 2.4m-.6 1l.6-.9m-.5.9c-.8-.4-1.8-.3-2.6.2s-1.2 1.4-1.2 2.3m-3.2 0c1 .2 2.1.2 3.1 0m-3.1 0c0-.9-.4-1.8-1.2-2.3s-1.7-.6-2.6-.2m-.6-1l.6.9m13.5-6.4h.7l.2-.2-.3-.9h-.8v.5l.2.6m-1.8 8.4v-.3l1.3-2.6h.3l-1.2 2.6h1.4v.3h-1.8m-10.8-14v-.2h.4V164h.3v1.1h1.3v.4l-1.4 1.4h-.2v-1.6h-.4m-4.1 6.6l.3.2.4-.2.2-.1m0 0h.2v.3"/><path class="st1" d="M173.7 172.1l-.8.2-.7-.2-.2-.3.2-.6.4-.2m0 0l-.4-.1-.3-.6.3-.7.7-.2.8.2m0 0v.4"/><path class="st1" d="M173.7 170l-.8-.2-.5.2v.3l.2.4.3.2m0 0h.2v.3h-.2m0 0h-.3l-.2.4.2.3m.5 5.4v-.3h1.8v.3m0 0l-.7.8-.5.5v.7l.3.2h.6l.1-.2m0 .4v-.4"/><path class="st1" d="M174.7 179.7l-.7.2-.5-.2-.2-.6v-.7l.4-.3.9-.8m0 0h-1.5m9.9 5.4v-2.8h.4v2.3m0 0l.7-.5m0 0v.3m0 0l-.7.7m0 0h-.4m1.5-17.1l-.4-.7.4-.7.5-.4.9.2m0 0v.6h-.2"/><path class="st1" d="M185.7 164.6l-.2-.2-.5-.2-.4.2-.1.5.1.4.6.2.5-.2m0 0v1.6h-1.6v-.4h1.3v-.9"/><path class="st1" d="M185.4 165.6l-.4.2-.5-.2m4.5 5.4l-.4-.7.4-.7.5-.2.7.2.4 1.1-.4 1.2-.9.4h-.3m0 0v-.4"/><path class="st1" d="M189 171.9h.3l.6-.1.1-.8-.5.2-.5-.2m5.7 3.1h2m-29-1.6h-2.1"/><path class="st1" d="M181.1 157.7c-8.6 0-15.6 7-15.6 15.6s7 15.6 15.6 15.6 15.6-7 15.6-15.6-7-15.6-15.6-15.6"/><path class="st1" d="M181.1 157.4c-8.8 0-15.9 7.1-15.9 15.9s7.1 15.9 15.9 15.9 15.9-7.1 15.9-15.9c.1-8.8-7.1-15.9-15.9-15.9m-17-33.7c2.6 0 4.8-2.1 4.8-4.7s-2.1-4.8-4.7-4.8-4.8 2.1-4.8 4.7 2.1 4.8 4.7 4.8"/><path class="st1" d="M164.1 124.6c3.1 0 5.7-2.5 5.8-5.6 0-3.1-2.5-5.7-5.6-5.8s-5.7 2.5-5.8 5.6c0 3.2 2.5 5.8 5.6 5.8m.6-38.9c3.1 0 5.7-2.5 5.8-5.6 0-3.1-2.5-5.7-5.6-5.8-3.1 0-5.7 2.5-5.8 5.6-.1 3.2 2.4 5.8 5.6 5.8"/><path class="st1" d="M164.7 84.8c2.6 0 4.8-2.1 4.8-4.7s-2.1-4.8-4.7-4.8-4.8 2-4.8 4.7c-.1 2.6 2 4.8 4.7 4.8m16.4 70.2c-10.1 0-18.3 8.2-18.3 18.3s8.2 18.3 18.3 18.3 18.3-8.2 18.3-18.3-8.2-18.3-18.3-18.3m0-130.5c-10.1 0-18.3 8.2-18.3 18.3s8.2 18.3 18.3 18.3 18.3-8.2 18.3-18.3-8.2-18.3-18.3-18.3"/><path class="st1" d="M181.1 25.6c-9.5 0-17.2 7.7-17.2 17.2S171.6 60 181.1 60s17.2-7.7 17.2-17.2-7.7-17.2-17.2-17.2m0 130.5c-9.5 0-17.2 7.7-17.2 17.2s7.7 17.2 17.2 17.2 17.2-7.7 17.2-17.2-7.7-17.2-17.2-17.2m5-66.1v.8h-1.8v4.8h-.7v-4.8h-2V90h4.5m-42 5.6V90h4.2v.8H145v1.6h3.1v.7H145v2h3.5v.5h-4.4m14.6-5.6v5.6h-.7v-2.5h-2.9v2.5h-.7V90h.7v2.4h2.9V90h.7m-7.7 5.6v-4.8h-2V90h4.5v.8h-1.8v4.8h-.7m19.4 0h-1.1l-.7-1.1m0 0l-.7-1-.5-.2-.4-.2m0 0h-.9v2.5h-.7V90h2.5m0 0h.9l.5.4.6 1.1-.4 1.1-1.2.5.5.4.5.7m0 0l1.1 1.4m-10.4 0V90h4.1v.8h-3.2v1.6h3v.7h-3v2h3.4v.5H160m15.5-5.6v5.6h-.8l-3-4.3v4.3h-.7V90h.9l2.8 4.5V90h.8m1.2 5.6V90h4.2v.8h-3.3v1.6h3.1v.7h-3.1v2h3.4v.5h-4.3"/><path class="st1" d="M166.1 90.6v2h1.6m0 0l1.1-.4.4-.7-.4-.6-.9-.3m0 0h-1.8m38.9 92.3V50.3m7-7.1h60.7m7.2 7.1v132.6m-7.2 7H212m.1-146.8c-3.9 0-7.1 3.2-7.1 7.1m74.9 0c0-3.9-3.2-7.1-7.1-7.1m-.1 146.8c3.9 0 7.1-3.2 7.1-7.1m-74.8 0c0 3.9 3.2 7.1 7.1 7.1m-40.4-55.4l-.9-.2-.6-.3-.3-.8-.2-1m0 0v-3.5h.7v3.5m0 0l.4 1.2.3.2.6.2.7-.2.4-.2.3-1.2m0 0v-3.5h.7v3.5"/><path class="st1" d="M173.8 132.2l-.1 1-.4.8-.7.3-.9.2m-2.5-5.8v.6h-1.8v5h-.9v-5h-1.8v-.6h4.5m-11.9 5.6v-5h-1.8v-.6h4.5v.6h-2v5h-.7m6.6 0l-.5-1.6h-2.2l-.5 1.6h-.7l1.8-5.6h.9l2 5.6h-.8m-10.8.2l-.9-.2-.9-.3m0 0v-.9m0 0l.9.5.9.2.9-.2.4-.7-.2-.6-.5-.3-.9-.4-1.1-.3-.4-1.1.2-.7.4-.4 1.4-.5 1.6.3m0 0v.9"/><path class="st1" d="M154.9 129.8l-.7-.3-.9-.2-.9.2-.2.7.2.5.6.2 1 .4.9.5.4.9-.5 1.3-.8.3-.9.2m23.4-5.9l1.7.3m0 0v.9m0 0l-.8-.3-.9-.2-.7.2-.3.7.1.5.6.2 1.1.4.9.5.3.9-.5 1.3-.7.3-.8.2-1-.2-.9-.3"/><path class="st1" d="M174.6 134v-.9h.1m0 0l.8.5.9.2.9-.2.3-.7-.2-.6-.5-.3-.9-.4-1.1-.3-.3-1.1.1-.7.4-.4 1.4-.5m-13.3 3.6l-.9-2.7-.9 2.7h1.8m98.7 97.5h-238m237.9 0c.9 0 1.7-.8 1.7-1.7m0-7.1v7m10.7-17.8c-5.9 0-10.7 4.8-10.7 10.7m17.8-10.5h-7.2m7.1 0c.9 0 1.7-.8 1.7-1.7m0-184.1v184m0-183.9c0-.9-.8-1.7-1.7-1.7m-7.1 0h7.2m-17.8-10.7c0 5.9 4.8 10.7 10.7 10.7M263.5 5.3v7m0-7.1c0-.9-.8-1.7-1.7-1.7m-237.9 0h238M24 3.5c-.9 0-1.7.8-1.7 1.7m0 7.1v-7M11.6 22.9c5.9 0 10.7-4.8 10.7-10.7M4.6 22.9h7.1m-7.2 0c-.9 0-1.7.8-1.7 1.7m0 183.9v-184m0 184.1c0 .9.8 1.7 1.7 1.7m7.2 0H4.6m17.7 10.5c0-5.9-4.8-10.7-10.7-10.7m10.7 17.8v-7m0 7.1c0 .9.8 1.7 1.7 1.7"/><path class="st2" d="M261.9 230.8v-1.1m-238 0v1.1"/><path class="st1" d="M23.9 230.8h238m-.1 0c1.5 0 2.8-1.2 2.8-2.8"/><path class="st2" d="M264.6 227.9h-1.1m1.1-7h-1.1"/><path class="st1" d="M264.6 227.9v-7"/><path class="st2" d="M274.1 211.4v-1.1"/><path class="st1" d="M274.2 211.4c-5.2 0-9.4 4.2-9.5 9.4"/><path class="st2" d="M281.3 211.4v-1.1"/><path class="st1" d="M274.1 211.4h7.2m-.1 0c1.5 0 2.8-1.2 2.8-2.8"/><path class="st2" d="M284 208.5h-1.1m1.1-184h-1.1"/><path class="st1" d="M284 208.5v-184m0 .1c0-1.5-1.2-2.8-2.8-2.8"/><path class="st2" d="M281.3 21.8v1.1m-7.2-1.1v1.1"/><path class="st1" d="M281.3 21.8h-7.2"/><path class="st2" d="M264.6 12.3h-1.1"/><path class="st1" d="M264.7 12.2c0 5.2 4.2 9.4 9.4 9.5"/><path class="st2" d="M264.6 5.3h-1.1"/><path class="st1" d="M264.6 12.3v-7m0-.1c0-1.5-1.2-2.8-2.8-2.8"/><path class="st2" d="M261.9 2.4v1.1m-238-1.1v1.1"/><path class="st1" d="M261.9 2.4h-238m.1 0c-1.5 0-2.8 1.2-2.8 2.8"/><path class="st2" d="M21.2 5.3h1.1m-1.1 7h1.1"/><path class="st1" d="M21.2 5.3v7"/><path class="st2" d="M11.7 21.8v1.1"/><path class="st1" d="M11.6 21.6c5.2 0 9.4-4.2 9.5-9.4"/><path class="st2" d="M4.6 21.8v1.1"/><path class="st1" d="M11.7 21.8H4.6m-.1 0c-1.5 0-2.8 1.2-2.8 2.8"/><path class="st2" d="M1.8 24.5h1m-1 184h1"/><path class="st1" d="M1.8 24.5v184m0 .1c0 1.5 1.2 2.8 2.8 2.8"/><path class="st2" d="M4.6 211.4v-1.1m7.1 1.1v-1.1"/><path class="st1" d="M4.6 211.4h7.1"/><path class="st2" d="M21.2 220.9h1.1"/><path class="st1" d="M21 220.8c0-5.2-4.2-9.4-9.4-9.4"/><path class="st2" d="M21.2 227.9h1.1"/><path class="st1" d="M21.2 220.9v7m0 .1c0 1.5 1.2 2.8 2.8 2.8M277.3 2.4l1.8.7m4.2 4.1l.7 2m0 214.8l-.7 1.9m-4.2 4.2l-1.8.7m-268.7 0l-2-.7m-4.1-4.2l-.7-1.9m0-214.8l.7-2m4.1-4.1l2-.7M284 224v-15.5m0-184V9.2M8.6 230.8h15.3m238 0h15.4M1.8 9.2v15.3m0 184V224M277.3 2.4h-15.4m-238 0H8.6m270.5.7l4.2 4.1m0 218.7l-4.2 4.2m-272.5 0l-4.1-4.2m0-218.7l4.1-4.1m174.5 24.1c-8.6 0-15.6 7-15.6 15.6s7 15.6 15.6 15.6 15.6-7 15.6-15.6-7-15.6-15.6-15.6"/><path class="st1" d="M181.1 26.9c-8.8 0-15.9 7.1-15.9 15.9s7.1 15.9 15.9 15.9S197 51.6 197 42.8c.1-8.8-7.1-15.9-15.9-15.9M21 171.6h.2l.5-.2.8-.2h2.8m7.4 6.5v.4l.2.7.2 1.6-.2 1.6-.2.7v.4m-7.4 6.3h-.1l-.6.2h-1.4l-.7-.2h-.8l-.5-.2H21m73.6-6.1v-.4l-.1-.7-.2-1.6.2-1.6.1-.7v-.4m7.4-6.5h2.9l.7.2.6.2m0 17.6l-.6.2h-.7l-.7.2h-1.6l-.4-.2h-.2M21 44h.2l.5-.2h.8l.7-.2h2l.1.2m7.4 6.3v.3l.2.8.2 1.6-.2 1.6-.2.7v.4M25.3 62h-2.8l-.8-.2-.5-.2H21m73.6-6.1v-.4l-.1-.7-.2-1.6.2-1.6.1-.8v-.3m7.4-6.3l.2-.2h2l.7.2h.7l.6.2m0 17.6l-.6.2-.7.2H102M32.7 24.5h-7.4M21 44V24.5h-7.2M21 171.6v-110m4.3-17.8V24.5H21m4.3 146.7V62m7.4-11.9V24.5m0 153.2V55.5M106.2 44V24.5m0 147.1v-110m0 147.1v-19.5M102 43.8V24.5h4.2M102 171.2V62m0 146.7v-19.3M94.6 50.1V24.5m0 184.2v-25.6m0-5.4V55.5m-27.3-31h-7.2v184.2m-4.3 0V24.5h4.3m-4.3 0h-7.4v184.2"/><path class="st1" d="M44.2 208.7V24.5h4.2m-4.2 0h-7.3v184.2m-4.2 0v-25.6m0-158.6h4.2M25.3 208.7v-19.3M21 208.7v-19.5m-7.2 19.5V24.5H9.7v184.2m108 0V24.5h-4.2v184.2m0-184.2h-7.3m-4.2 0H90.5v184.2m0-184.2h-7.4v184.2m-4.3 0V24.5h4.3m-4.3 0h-7.2v184.2m-4.3 0V24.5h4.3M32.7 208.7h-7.4m-4.3 0h-7.2m88.2 0h4.2m-38.9 0H32.7m-11.7 0h4.3m-15.6 0h4.1m92.4 0h11.5m-15.7 0H67.3m101.1-35.4c0 7 5.7 12.7 12.7 12.7s12.7-5.7 12.7-12.7-5.7-12.7-12.7-12.7-12.7 5.7-12.7 12.7m0-130.5c0 7 5.7 12.7 12.7 12.7s12.7-5.7 12.7-12.7-5.7-12.7-12.7-12.7-12.7 5.7-12.7 12.7"/><path class="st2" d="M278.4 221.5c.4-2.3-1.1-4.5-3.4-4.9s-4.5 1.1-4.9 3.4c-.4 2.3 1.1 4.5 3.4 4.9M15.7 12.9c.4-2.3-1.1-4.5-3.4-4.9s-4.5 1.1-4.9 3.4 1.1 4.5 3.4 4.9m4.9 205.2c.4-2.3-1.1-4.5-3.4-4.9s-4.5 1.1-4.9 3.4c-.4 2.3 1.1 4.5 3.4 4.9m267.6-212c.4-2.3-1.1-4.5-3.4-4.9s-4.5 1.1-4.9 3.4 1.1 4.5 3.4 4.9"/><path d="M181.2 42.9h6.7m6.8 0h6.7m-20.2 0h-6.8m-6.7 0h-6.8m20.3 0V36m0-6.6v-6.7m0 20.2v6.6m0 6.9V63m0 110.2h6.7m6.8 0h6.7m-20.2 0h-6.8m-6.7 0h-6.8m20.3 0v-6.7m0-6.8V153m0 20.2v6.8m0 6.7v6.8" fill="none" stroke="#000" stroke-width=".72" stroke-linecap="round" stroke-linejoin="round" stroke-miterlimit="10"/><path class="st0" d="M306.8 32h107.8v27.7H306.8V32z"/><text transform="translate(306.793 40.119)" class="st4"><tspan x="0" y="0" class="st5 st6">M12 8-pin X-coded </tspan><tspan x="0" y="21.6" class="st5 st6">connector (Ethernet)</tspan></text><path class="st0" d="M306.8 162.9h107.8v27.7H306.8v-27.7z"/><text transform="translate(306.793 170.038)" class="st4"><tspan x="0" y="0" class="st5 st6">M12 8-pin A-coded</tspan><tspan x="0" y="21.6" class="st5 st6">connector (power)</tspan></text><path class="st0" d="M306.8 97.2h81.6v27.5h-81.6V97.2z"/><text transform="translate(306.792 104.367)" class="st5 st6">Status LEDs</text><path d="M200.4 42.4h100m-98.6 131.1h100m-132.7-53.3l128.7-17.8m.4-4L169.5 80.6" fill="none" stroke="#000" stroke-miterlimit="10"/></svg>