<svg style="background-color:#fff" version="1.1" id="Ebene_1" xmlns="http://www.w3.org/2000/svg" xmlns:xlink="http://www.w3.org/1999/xlink" x="0" y="0" viewBox="0 0 234.5 147.1" xml:space="preserve"><style>.st0{fill:none;stroke:#000;stroke-width:.999;stroke-linecap:round;stroke-linejoin:round;stroke-miterlimit:10}.st4{font-family:Helvetica,Arial,sans-serif}.st5{font-size:9.0031px}</style><path class="st0" d="M40.7 5.5v110.8m-6.7-2.1h7.2m-7.2-18h7.2M34 78h7.2M34 60h7.2M34 41.7h7.2m-7.2-18h7.2M34 5.5h7.2"/><defs><path id="SVGID_1_" d="M40.6 59.4h193.9v1.3H40.6z"/></defs><clipPath id="SVGID_2_"><use xlink:href="#SVGID_1_" overflow="visible"/></clipPath><path d="M41.2 60h193" clip-path="url(#SVGID_2_)" fill="none" stroke="#000" stroke-width=".999" stroke-linecap="round" stroke-linejoin="round" stroke-miterlimit="10"/><defs><path id="SVGID_3_" d="M39.4 116.1h195.1v1.3H39.4z"/></defs><clipPath id="SVGID_4_"><use xlink:href="#SVGID_3_" overflow="visible"/></clipPath><path d="M40 116.7h194.2" clip-path="url(#SVGID_4_)" fill="none" stroke="#000" stroke-width=".999" stroke-linecap="round" stroke-linejoin="round" stroke-miterlimit="10"/><path class="st0" d="M216.7 123.5v-7.2m-34.5 7.2v-7.2m-34.7 7.2v-7.2m-35 7.2v-7.2M78 123.5v-7.2m-35 7.2v-7.2"/><defs><path id="SVGID_5_" d="M41.9 58.9h192.5v38.2H41.9z"/></defs><clipPath id="SVGID_6_"><use xlink:href="#SVGID_5_" overflow="visible"/></clipPath><path d="M43 60h8.2c12.3.3 24.5 1.2 36.8 2.5l2.5.2 2.8.5 2.3.2c4.1.5 9.2 1.1 13.2 2l2.8.5 3 .2c4.2 1.1 8.8 1.5 13 2.5l2.8.5 2.8.5 2.5.7 3 .5 2.8.5 2.8.7c4.8 1.3 8.7 1.8 13.5 3.2l2.8.5 2.2.7c4.7 1.4 9.3 2 14 3.5l2.8.7 3 .8 2.8.7 2.8.8c4.6 1.2 9.2 2.5 13.7 3.7l3 .8 2.8.7c5.6 2.1 11.6 3 17.2 5l2.8.5 2.8 1 3.2.8 1 .2" clip-path="url(#SVGID_6_)" fill="none" stroke="#000" stroke-width="1.999" stroke-linecap="round" stroke-linejoin="round" stroke-miterlimit="10"/><path class="st0" d="M44 98.3h95v15H44v-15z"/><text transform="translate(46.244 108.228)" class="st4 st5">Simulated WD = 0.9 m</text><text transform="translate(17.983 7.726)" class="st4 st5">1.5</text><text transform="translate(17.983 44.27)" class="st4 st5">0.5</text><text transform="translate(17.983 62.267)" class="st4 st5">0.0</text><text transform="translate(14.985 80.507)" class="st4 st5">-0.5</text><text transform="translate(14.985 116.745)" class="st4 st5">-1.5</text><text transform="translate(110.204 133.728)" class="st4 st5" letter-spacing="63">2</text><text transform="translate(179.704 133.728)" class="st4 st5">4</text><text transform="translate(75.461 133.728)" class="st4 st5">1</text><text transform="translate(105.225 144.225)" class="st4 st5">Image Height [mm]</text><text transform="translate(214.487 133.728)" class="st4 st5">5</text><text transform="translate(145.01 133.728)" class="st4 st5">3</text><text transform="translate(14.987 98.508)" class="st4 st5">-1.0</text><text transform="translate(17.985 25.97)" class="st4 st5">1.0</text><text transform="translate(40.724 133.728)" class="st4 st5">0</text><text transform="rotate(-90 57.254 48.546)" class="st4" font-size="9">Optical Distortion [%]</text></svg>