<svg style="background-color:#fff" version="1.1" id="Layer_1" xmlns="http://www.w3.org/2000/svg" x="0" y="0" viewBox="0 0 1000 450" xml:space="preserve"><style>.st1{fill:none;stroke:#000;stroke-miterlimit:3.864}.st2{fill-rule:evenodd;clip-rule:evenodd}.st3{fill:none;stroke:#000;stroke-linejoin:round;stroke-miterlimit:3.864}.st4{enable-background:new}.st5{font-family:Helvetica,Arial,sans-serif}.st6{font-size:18.891px}.st15{fill:none;stroke:#000;stroke-width:.5;stroke-miterlimit:3.864}.st18{font-size:19.886px}</style><path d="M19.7 35.7h766v383.2h-766V35.7h0z" fill="none" stroke="#000" stroke-width=".51" stroke-linejoin="round" stroke-miterlimit="3.864" stroke-dasharray="8,4"/><path class="st1" d="M379 366.4v-40.8m10.2 25.7h-20.4"/><path class="st2" d="M389.2 339.2h-20.4l10.2 10.2 10.2-10.2z"/><path class="st3" d="M389.2 339.2h-20.4l10.2 10.2 10.2-10.2zM378 325.6h96.7m-97 40.8h21.7"/><path class="st2" d="M328.1 346v6.3l-15.7-6.3 15.7-6.3v6.3z"/><path class="st3" d="M353.6 353.6H332l10.8-7.6h-15.7"/><path class="st3" d="M253.5 313.4h157.2v65.7H253.5v-65.7zM446 277.6h57.3m-103.9 88.8h276.2m-381-35v31.1m-.1-9l-14.2 14.2m165.6-90v-92.8m230.4 181.6V209.7m-174 68.1V185m-56.2.3h55.7m-28.6-.5v-64.5"/><path class="st2" d="M290.8 364.4l-7.2-7.2v7.2h7.2z"/><path class="st3" d="M290.8 364.4l-7.2-7.2v7.2h7.2zm3.8-24.7l-14.2-14.1m-25.6.1h26.4m-28.3 41.9h26.4"/><path class="st1" d="M474.8 326.3v-49"/><path class="st3" d="M473.2 120.3h311.7"/><text transform="translate(802.11 28.744)" class="st4"><tspan x="0" y="0" class="st5 st6">6-pin</tspan><tspan x="0" y="22.7" class="st5 st6">receptacle</tspan></text><path class="st3" d="M785.7 66.3h34.9V257h-34.9V66.3z"/><text transform="translate(795.91 95.767)" class="st5 st6">1</text><text transform="translate(795.91 125.99)" class="st5 st6">2</text><text transform="translate(795.91 156.209)" class="st5 st6">3</text><text transform="translate(795.91 186.43)" class="st5 st6">4</text><text transform="translate(795.91 216.652)" class="st5 st6">5</text><text transform="translate(795.91 246.87)" class="st5 st6">6</text><text transform="translate(52.25 79.816)" font-size="23.863" font-family="Helvetica,Arial,sans-serif" font-weight="700">Camera</text><path class="st3" d="M927.7 120.5H820.6"/><path d="M927.2 120.8c0-2.8 2.3-5.1 5.1-5.1s5.1 2.3 5.1 5.1-2.3 5.1-5.1 5.1-5.1-2.3-5.1-5.1z" fill="#fff"/><path d="M927.2 120.8c0-2.8 2.3-5.1 5.1-5.1s5.1 2.3 5.1 5.1-2.3 5.1-5.1 5.1-5.1-2.3-5.1-5.1z" fill="none" stroke="#000" stroke-width="1.001" stroke-miterlimit="3.864"/><path d="M960.9 143.4V97.7l-22.8 22.9 22.8 22.8z" fill-rule="evenodd" clip-rule="evenodd" fill="#fff"/><path d="M960.9 143.4V97.7l-22.8 22.9 22.8 22.8z" fill="none" stroke="#000" stroke-width="1.001" stroke-linejoin="round" stroke-miterlimit="3.864"/><text transform="translate(894.026 87.557)" class="st5 st6">Logic gate</text><text transform="rotate(-90 366.648 -102.521)" class="st4"><tspan x="0" y="0" class="st5 st6">Current</tspan><tspan x="6.3" y="22.7" class="st5 st6">limiter</tspan></text><path class="st3" d="M932.1 210H821.3"/><path class="st1" d="M932 410.8V209.7"/><path class="st3" d="M676.3 210h109.6m155.5 200.8h-18.8m3.5 4.1h11.8m-9.2 4h6.6"/><text transform="translate(279.282 304.281)" class="st5 st6">Optocoupler</text><path class="st1" d="M740.8 120.3v89.2"/><path class="st2" d="M749 170.9h-16.4l8.2-9.7 8.2 9.7z"/><path d="M749 170.9h-16.4l8.2-9.7 8.2 9.7z" fill="none" stroke="#000" stroke-width=".003" stroke-linejoin="round" stroke-miterlimit="3.864"/><path d="M736 161.6h9.5m-.3-.1l2.9 2.8m-14.7-5.4l2.8 2.9" fill="none" stroke="#000" stroke-width=".85" stroke-miterlimit="3.864"/><path d="M736.7 120.3c0-2.3 1.8-4.1 4.1-4.1s4.1 1.8 4.1 4.1-1.8 4.1-4.1 4.1-4.1-1.8-4.1-4.1z"/><path class="st15" d="M736.7 120.3c0-2.3 1.8-4.1 4.1-4.1s4.1 1.8 4.1 4.1-1.8 4.1-4.1 4.1-4.1-1.8-4.1-4.1z"/><path d="M736.7 210c0-2.3 1.8-4.1 4.1-4.1s4.1 1.8 4.1 4.1-1.8 4.1-4.1 4.1-4.1-1.9-4.1-4.1z"/><path class="st15" d="M736.7 210c0-2.3 1.8-4.1 4.1-4.1s4.1 1.8 4.1 4.1-1.8 4.1-4.1 4.1-4.1-1.9-4.1-4.1z"/><path d="M146 367.6h107.5" fill="none" stroke="#000" stroke-width=".9" stroke-linejoin="round" stroke-miterlimit="3.864" stroke-dasharray="8,4"/><path d="M146 325.7h107.5" fill="none" stroke="#000" stroke-linejoin="round" stroke-miterlimit="3.864" stroke-dasharray="8,4"/><text transform="translate(59.862 339.597)" class="st4"><tspan x="0" y="0" class="st5 st18">Further</tspan><tspan x="0" y="23.9" class="st5 st18">circuitry</tspan></text></svg>