<svg version="1.1" id="Ebene_1" xmlns="http://www.w3.org/2000/svg" x="0" y="0" viewBox="0 0 1635 315.1" style="background-color:#fff" xml:space="preserve"><style>.st2{stroke-width:.2835;stroke-miterlimit:10}.st2,.st3,.st4,.st5{fill:none;stroke:#000;stroke-linecap:round;stroke-linejoin:round}.st3{stroke-miterlimit:10;stroke-width:.7087}.st4{stroke-width:.2835}.st5{stroke-width:.283;stroke-miterlimit:10}.st6{font-family:Helvetica,Arial,sans-serif}.st7{font-size:14px}</style><g id="BCBL-60x60"><path d="M1285.7 135.8v1.4m0-1.4h4.7m-4.7 82.4v1.4m0 0h4.6m-4.6-1.4V212m0-68.5v-6.3m0 6.3v1.4m0 65.6v1.5m4.7-67.1h-4.7m0 65.6v-65.6m186.7-7.7v81m0-81v-1.4m-4.5 0h4.5m-4.5 83.8h4.5m0 0v-1.4m-4.5-52.6v1.4m-177.6 0v-1.4m177.6-11.2v1.4m-177.6 0v-1.4m177.6-5.7v1.4m-177.6 0v-1.4m177.6 25.4v1.4m-177.6 0v-1.4m177.6-2.8v1.4m-177.6 0v-1.4m177.6-25.4v1.4m-177.6 0v-1.4m177.6 14.1v1.4m-177.6 0V160m177.6-2.8v1.4m-177.6 0v-1.4m177.6 31.1v1.4m-177.6 0v-1.4m177.6-5.7v1.4m-177.6 0v-1.4m177.6 2.9v1.4m-177.6 0v-1.4m177.6-34v1.5m-177.6 0v-1.5m177.6 16.9v1.5m-177.6 0v-1.5m177.6 11.4v1.4m-177.6 0v-1.4m177.6-2.8v1.4m-177.6 0V177m177.6-14.2v1.4m-177.6 0v-1.4m177.6 28.3v1.4m-177.6 0v-1.4m177.6 2.9v1.4m-177.6 0V194m177.6 2.8v1.4m-177.6 0v-1.4m177.6 8.5v1.4m-177.6 0v-1.4m177.6-5.7v1.4m-177.6 0v-1.4m177.6 2.9v1.4m-177.6 0v-1.4m177.6 5.6v1.5m-177.6 0v-1.5m177.6-45.3v-1.4m0 0h-177.6m0 0v1.4m177.6-8.4V153m0 0h-177.6m0 0v1.4m177.6 5.6v-1.4m0 0h-177.6m0 0v1.4m177.6-8.5v-1.4m0 0h-177.6m0 0v1.4m177.6-5.6v-9.2m-177.6 9.2v-9.2m177.6 20.5v-1.4m0 0h-177.6m0 0v1.4m177.6-20.5v-1.5m-177.6 0v1.5m177.6 0h-177.6m0-1.5h177.6m0 33.2V167m0 0h-177.6m0 0v1.4m177.6-2.8v-1.4m0 0h-177.6m0 0v1.4m177.6 5.7v-1.4m0 0h-177.6m0 0v1.4m177.6-22.6v-1.4m0 0h-177.6m0 0v1.4m177.6 25.4v-1.4m0 0h-177.6m0 0v1.4m177.6 2.9v-1.5m0 0h-177.6m0 0v1.5m177.6 9.9v1.4m-177.6-1.4h177.6m-177.6 1.4v-1.4m177.6 5.6v1.5m-177.6-1.5h177.6m-177.6 1.5v-1.5m177.6-8.5v1.5m-177.6-1.5h177.6m-177.6 1.5V184m177.6 5.7v1.4m-177.6-1.4h177.6m-177.6 1.4v-1.4m177.6-11.3v1.4m-177.6-1.4h177.6m-177.6 1.4v-1.4m177.6 2.8v1.4m-177.6-1.4h177.6m-177.6 1.4v-1.4m177.6 22.7v1.4m-177.6-1.4h177.6m-177.6 1.4v-1.4m177.6-8.5v1.4m-177.6-1.4h177.6m-177.6 1.4v-1.4m177.6 2.8v1.4m-177.6-1.4h177.6m-177.6 1.4v-1.4m177.6 8.5v1.4m-177.6-1.4h177.6m-177.6 1.4v-1.4m177.6-5.7v1.5m-177.6-1.5h177.6m-177.6 1.5V201m177.6 19.2v-1.4m-177.6 0v1.4m0 0h177.6m-177.6-1.4v-9.2m177.6 9.2v-9.2m-177.6 0h177.6m5.4-4.3h-.9m.9-48.1h-.9m.9 0v48.1" fill="none" stroke="#000" stroke-width=".425" stroke-linecap="round" stroke-linejoin="round" stroke-miterlimit="10"/><path class="st2" d="M981.9 218.4V175m-75 94H161.3m745.6-136H161.3m745.6-5.8v-2.8m-745.6 0v2.8"/><path class="st3" d="M906.9 124.4H161.3"/><path class="st2" d="M906.9 127.2v4m-745.6 0v-4m0 5.8h745.6m0 127.6H161.3m745.6 1.6v4m-745.6 0v-4m745.6 6.8v-2.8m-745.6 0v2.8m0 0h745.6"/><path class="st3" d="M928.1 267.6l-1.4 1.4m0 0h-19.8"/><path class="st2" d="M906.9 124.4v2.8"/><path class="st3" d="M926.7 124.4h-19.8m19.8 0l1.4 1.4m0 1.4v-1.4m0 1.4v139"/><path class="st2" d="M906.9 266.2v-5.6m0-127.6v-5.8m-11.4 133.4V133m11.4 133.2v2.8"/><path class="st3" d="M906.9 269h19.8m1.4-1.4l-1.4 1.4m1.4-1.4v-1.4m-788 1.4l1.4 1.4m19.8 0h-19.8"/><path class="st2" d="M161.3 127.2v-2.8"/><path class="st3" d="M161.3 124.4h-19.8m-1.4 1.4l1.4-1.4m-1.4 2.8v-1.4"/><path class="st2" d="M161.3 260.6v5.6m0-139v5.8m11.4 0v126.2"/><path class="st3" d="M140.1 266.2v-139m1.4 141.8l-1.4-1.4"/><path class="st2" d="M140.1 266.2v1.4"/><path class="st3" d="M141.5 269h19.8"/><path class="st2" d="M161.3 269v-2.8m766.8-47h14.2m0-44.8h-14.2m14.2 23v21m0-43.4v21m0-21.6v.6m0 43.4v.8m0-23.2v1.4m-14.2 0h14.2m50.8 9.6v-10m0 0v-10.6m-16.4 36.2h-26.6m0 0v-12.4m26.6-39.4h-26.6m0 13.4v-13.4m26.6 13.4h-26.6m0 26v-26m26.6 26h-26.6m26.6 0v12.4m0-51.8v13.4m0 0v26m157.6-18.4l.2.6v2.4l-.4 1.4-.6 1.2m0 0l-.4 1.2v2l.2.8.2.4m-3.6 0v-.2l-.2-.4v-2.4l.2-1.4.6-1.4m-.8 2.8v1m.8-3.8l-.6 1.4m.6-1.4l.4-1.2.2-1.2v-.8l-.2-.8-.2-.2"/><path class="st3" d="M906.9 124.4H161.3"/><path class="st2" d="M161.3 269h745.6m-745.6 0h745.6"/><path class="st3" d="M161.3 269h745.6"/><path class="st2" d="M942.3 214.4h7.8m0-35.2h-7.8m34.4 39.2h5.2m0-43.4h-5.2m16.4 11.4l-.2-2.2-.6-2.2-1-1.8-1.4-1.8-1.8-1.4-2-1-2-.8-2.2-.2m0 43.4l2.2-.2 2-.6 2-1 1.8-1.4 1.4-1.8 1-2 .6-2 .2-2.4m140.4-5.2h152.2m0-10h-151.4m-141.2 10h136.8m.8-10H993.1m-820.4 68.8v-1.4"/></g><g id="Dimensions"><path class="st4" d="M1293.1 279.6h172.7"/><path d="M1294.8 282.1l-9.2-2.5 9.2-2.5v5zm169.3 0l9.2-2.5-9.2-2.5v5z"/><path class="st5" d="M1473.3 205.2v77.3m-187.7-63v63"/><path class="st4" d="M1501.6 212.6v-70"/><path d="M1504.1 210.9l-2.5 9.2-2.5-9.2h5zm0-66.6l-2.5-9.3-2.5 9.3h5z"/><path class="st5" d="M1467.9 135h36.6m-36.6 85.1h36.6M140.5 74.3h33.1"/><path class="st4" d="M133 74.3H97"/><path d="M131.3 71.8l9.2 2.5-9.2 2.5v-5z"/><path class="st5" d="M172.8 148V71.4"/><path class="st4" d="M181.2 74.3h706.6"/><path d="M182.9 76.8l-9.3-2.5 9.3-2.5v5zm703.2 0l9.2-2.5-9.2-2.5v5z"/><path class="st5" d="M895.6 133.8V71.4"/><path class="st4" d="M111.8 253.3V141.4"/><path d="M114.3 251.6l-2.5 9.2-2.5-9.2h5zm0-108.6l-2.5-9.2-2.5 9.2h5z"/><path class="st5" d="M161.2 133.3H109m52.2 127.5H109"/><path class="st2" d="M111.8 269v-8.2"/><path class="st4" d="M111.8 297.6v-21.1"/><path d="M114.3 278.2l-2.5-9.2-2.5 9.2h5z"/><path class="st4" d="M148 40.3h773"/><path d="M149.7 42.8l-9.2-2.5 9.2-2.5v5zm769.6 0l9.3-2.5-9.3-2.5v5z"/><path class="st4" d="M935.7 40.3h50.5"/><path d="M937.4 42.8l-9.2-2.5 9.2-2.5v5zm47.1 0l9.3-2.5-9.3-2.5v5z"/><path class="st5" d="M928.6 126.7V37.4m64.6 148.1V37.4m-852.7 89.3V37.4"/><path class="st4" d="M60.8 132v129.4"/><path d="M58.3 133.6l2.5-9.2 2.5 9.2h-5zm0 126.2l2.5 9.2 2.5-9.2h-5z"/><path class="st5" d="M141.3 269H58m86.7-144.6H58"/></g><g id="Text_1_"><text transform="translate(522.8 34.396)" class="st6 st7">278</text><text transform="translate(947.802 34.396)" class="st6 st7">23</text><text transform="translate(474.175 68.412)" class="st6 st7">255 (Emitting area)</text><text transform="translate(97.384 68.412)" class="st6 st7">11.5</text><text transform="rotate(-90 129.4 75.086)" class="st6 st7">51</text><text transform="rotate(-90 155.195 49.29)" class="st6 st7">45</text><text transform="rotate(-90 185.145 58.24)" class="st6 st7">(Emitting area)</text><text transform="rotate(-90 199.505 93.6)" class="st6 st7">3</text><text transform="translate(1362.824 272.895)" class="st6 st7">66.2</text><text transform="translate(1355.824 236.328)" class="st6 st7">Controller</text><text transform="rotate(-90 839.144 -655.694)" class="st6 st7">30</text><text transform="translate(1515.814 287.32)" class="st6 st7">Not to scale</text><text transform="translate(1515.814 303.32)" class="st6 st7">Dimensions in mm</text></g><text transform="translate(1515.814 161)" class="st6 st7">For pin connection</text><text transform="translate(1515.814 177.8)" class="st6 st7">(refer to</text><text transform="translate(1515.814 194.6)" class="st6 st7">camera</text><text transform="translate(1515.814 211.4)" class="st6 st7">specifications)</text></svg>