<svg style="background-color:#fff" version="1.1" id="Ebene_1" xmlns="http://www.w3.org/2000/svg" xmlns:xlink="http://www.w3.org/1999/xlink" x="0" y="0" viewBox="0 0 259 147.4" xml:space="preserve"><style>.st0{fill:none;stroke:#000;stroke-linecap:round;stroke-linejoin:round;stroke-miterlimit:10}.st4{font-family:Helvetica,Arial,sans-serif}.st5{font-size:9.0031px}.st6{letter-spacing:39}</style><path class="st0" d="M35.2 5v110.8M28.5 5h7.2m-7.2 21.7h7.2m-7.2 21.8h7.2m-7.2 21.7h7.2M28.5 92h7.2m-7.2 21.8h7.2"/><defs><path id="SVGID_1_" d="M33.9 115.7h200.3v1.3H33.9z"/></defs><clipPath id="SVGID_2_"><use xlink:href="#SVGID_1_" overflow="visible"/></clipPath><path d="M34.5 116.3h199.2" clip-path="url(#SVGID_2_)" fill="none" stroke="#000" stroke-linecap="round" stroke-linejoin="round" stroke-miterlimit="10"/><path class="st0" d="M216 123v-7.2m-35.8 7.2v-7.2m-35.7 7.2v-7.2M109 123v-7.2M73.2 123v-7.2M37.5 123v-7.2"/><defs><path id="SVGID_3_" d="M36.4 3.9h197.8v46.5H36.4z"/></defs><clipPath id="SVGID_4_"><use xlink:href="#SVGID_3_" overflow="visible"/></clipPath><path d="M37.5 5l19.7.3 19.5.7 19.8 1L116 8.7l19.7 3.3 19.5 4 19.8 6.5 19.5 6.5 19.7 9.7 19.5 10.5" clip-path="url(#SVGID_4_)" fill="none" stroke="#000" stroke-width="2" stroke-linecap="round" stroke-linejoin="round" stroke-miterlimit="10"/><path class="st0" d="M40.7 97.2h46.5v15.1H40.7V97.2z"/><path d="M44.5 105.8H61" fill="none" stroke="#000" stroke-width="2" stroke-linecap="round" stroke-linejoin="round" stroke-miterlimit="10"/><text transform="translate(62.207 107.508)" class="st4 st5">ƒ/1.6</text><text transform="translate(10.484 7.726)" class="st4 st5">100</text><text transform="translate(15.463 29.505)" class="st4 st5">8</text><text transform="translate(20.463 29.505)" class="st4 st5">0</text><text transform="translate(15.463 51.283)" class="st4 st5">6</text><text transform="translate(20.463 51.283)" class="st4 st5">0</text><text transform="translate(15.463 73.008)" class="st4 st5">4</text><text transform="translate(20.463 73.008)" class="st4 st5">0</text><text transform="translate(15.463 94.786)" class="st4 st5">2</text><text transform="translate(20.463 94.786)" class="st4 st5">0</text><text transform="translate(20.504 116.51)" class="st4 st5">0</text><text transform="translate(213.227 134.028)" class="st4 st5 st6">5</text><text transform="translate(177.366 134.028)" class="st4 st5 st6">4</text><text transform="translate(142.395 134.028)" class="st4 st5 st6">3</text><text transform="translate(106.678 134.027)" class="st4 st5 st6">2</text><text transform="translate(70.665 134.028)" class="st4 st5 st6">1</text><text transform="translate(35.207 134.028)" class="st4 st5">0</text><text transform="translate(95.279 144.598)" class="st4 st5">Image Height [mm]</text><text transform="rotate(-90 60.658 51.642)" class="st4 st5">Relative Illumination [%]</text></svg>