<svg version="1.1" id="Ebene_1" xmlns="http://www.w3.org/2000/svg" xmlns:xlink="http://www.w3.org/1999/xlink" x="0" y="0" viewBox="0 0 592 467" style="background-color:#fff" xml:space="preserve"><style>.st0{fill:#f6f6f6}.st1{fill:none;stroke:#1a171b;stroke-width:.6;stroke-linecap:round;stroke-linejoin:round}.st4{clip-path:url(#SVGID_2_);enable-background:new}.st6{font-family:Helvetica,Arial,sans-serif}.st7{font-size:10px}.st11{fill:none;stroke:#000;stroke-width:.3;stroke-linecap:round;stroke-linejoin:round}.st17{font-size:14px}</style><path class="st0" d="M83.4 157.4h450.1v168.1H322.7l-1 .2-.8.5-.6.8-.1 1v34.2l-1.7 1.7h-60.6l-1.6-1.6v-21.5l-.2-.9-.6-1-.9-.6-1-.2-1 .2-1 .6-.6 1-.2.9v21.5l-1.4 1.5h-30.5l-1.7-1.6V331l-.1-1.4-.6-1.4-.9-1-1.2-1-1.3-.5-1.4-.2-1.5.2-1.3.5-1.1 1-.9 1-.5 1.4-.2 1.4v19.2h-23.9v-21.5l-.3-1.2-.6-.9-1-.8-1.1-.2H130l-1.2.2-1.1.8-.6.9-.3 1.2v21.7H83.4z"/><path class="st1" d="M83.4 157.4h450.1v168.1H322.7l-1 .2-.8.5-.6.8-.1 1v34.2l-1.7 1.7h-60.6l-1.6-1.6v-21.5l-.2-.9-.6-1-.9-.6-1-.2-1 .2-1 .6-.6 1-.2.9v21.5l-1.4 1.5h-30.5l-1.7-1.6V331l-.1-1.4-.6-1.4-.9-1-1.2-1-1.3-.5-1.4-.2-1.5.2-1.3.5-1.1 1-.9 1-.5 1.4-.2 1.4v19.2h-23.9v-21.5l-.3-1.2-.6-.9-1-.8-1.1-.2H130l-1.2.2-1.1.8-.6.9-.3 1.2v21.7H83.4z"/><path d="M242.1 347.1h1.9v11.5h-1.9zm66 0h1.9v11.5h-1.9zm3 0h1.9v11.5h-1.9zm-12 0h1.9v11.5h-1.9zm6 0h1.9v11.5h-1.9zm-9 0h1.9v11.5h-1.9zm6 0h1.9v11.5h-1.9zm-15 0h1.9v11.5h-1.9zm6 0h1.9v11.5h-1.9zm-9 0h1.9v11.5h-1.9zm6 0h1.9v11.5h-1.9zm-15 0h1.9v11.5h-1.9zm6 0h1.9v11.5h-1.9zm-12 0h1.9v11.5h-1.9zm9 0h1.9v11.5h-1.9zm-18 0h1.9v11.5h-1.9zm6 0h1.9v11.5h-1.9zm-30 0h1.9v11.5h-1.9zm27 0h1.9v11.5h-1.9zm-36 0h1.9v11.5h-1.9zm30 0h1.9v11.5h-1.9zm-12 0h1.9v11.5h-1.9zm-6 0h1.9v11.5h-1.9zm9 0h1.9v11.5h-1.9zm-24 0h1.9v11.5h-1.9zm93 0h1.9v11.5h-1.9zm-96 0h1.9v11.5h-1.9zm12 0h1.9v11.5h-1.9zm-15 0h1.9v11.5h-1.9zm12 0h1.9v11.5h-1.9zm84 .1h1.9v9.5h-1.9zm-42 0h1.9v9.5h-1.9z" stroke="#000" stroke-width=".1" fill="none" stroke-linecap="round" stroke-linejoin="round"/><path class="st1" d="M84.8 183.2l-.1-.3-.1.3z"/><path class="st1" d="M84.7 182.9l-.1-.1v.4zm-.1-.1l-.2.1.2.3z"/><path class="st1" d="M84.4 182.9v.3h.2z"/><path class="st1" d="M84.4 183.2v.1l.2-.1zm0 .1l.2.1v-.2z"/><path class="st1" d="M84.6 183.4l.1-.1-.1-.1zm.1-.1l.1-.1h-.2zm-5.9 164.6h4.6M40.8 49.2v-2.6m.1 3.2h1.8m-1.9-.6h34.8m-34.7 0v.6m1.8 0l1.1-.6"/><path class="st0" d="M75.6 49.2l.5.3.1.3V393v-.2L75 406.7h2.8l1-13.7v-53.1h4.6l.7-.3.6-.6.1-.7V73.2l-.1-.7-.6-.6-.7-.1h-4.6V48l-.1-.7-.6-.5-.7-.2H40.8"/><path class="st1" d="M75.6 49.2l.5.3.1.3V393v-.2L75 406.7h2.8l1-13.7v-53.1h4.6l.7-.3.6-.6.1-.7V73.2l-.1-.7-.6-.6-.7-.1h-4.6V48l-.1-.7-.6-.5-.7-.2H40.8"/><path class="st0" d="M83.4 182.8h43.3v167.6H83.4z"/><path fill="none" stroke="#1a171b" stroke-width=".63" stroke-linecap="round" stroke-linejoin="round" d="M83.4 182.8h43.3v167.6H83.4z"/><defs><path id="SVGID_1_" d="M-95-36.3h841.9V559H-95z"/></defs><clipPath id="SVGID_2_"><use xlink:href="#SVGID_1_" overflow="visible"/></clipPath><g class="st4"><defs><path id="SVGID_3_" d="M273.9 11.1h25v11.8h-25z"/></defs><clipPath id="SVGID_4_"><use xlink:href="#SVGID_3_" overflow="visible"/></clipPath><g clip-path="url(#SVGID_4_)"><text transform="translate(273.89 19.69)" class="st6 st7">164.2</text></g></g><g class="st4"><defs><path id="SVGID_5_" d="M300.4 123.2h16.7V135h-16.7z"/></defs><clipPath id="SVGID_6_"><use xlink:href="#SVGID_5_" overflow="visible"/></clipPath><g clip-path="url(#SVGID_6_)"><text transform="translate(300.41 131.82)" class="st6 st7">150</text></g></g><g class="st4"><defs><path id="SVGID_7_" d="M22.9 217.8h11.8v16.7H22.9z"/></defs><clipPath id="SVGID_8_"><use xlink:href="#SVGID_7_" overflow="visible"/></clipPath><g clip-path="url(#SVGID_8_)"><text transform="rotate(-90 132.99 101.53)" class="st6 st7">120</text></g></g><g class="st4"><defs><path id="SVGID_9_" d="M565.7 245.7h11.8v19.5h-11.8z"/></defs><clipPath id="SVGID_10_"><use xlink:href="#SVGID_9_" overflow="visible"/></clipPath><g clip-path="url(#SVGID_10_)"><text transform="rotate(-90 419.76 -154.57)" class="st6 st7">68.8</text></g></g><path class="st11" d="M48.3 23.7h476.2"/><path d="M50.1 26.4l-9.8-2.7 9.8-2.6zm472.6 0l9.8-2.7-9.8-2.6z"/><path class="st11" d="M92.8 136.2h433"/><path d="M94.6 138.8l-9.8-2.6 9.8-2.6zm429.4 0l9.8-2.6-9.8-2.6z"/><defs><path id="SVGID_11_" d="M-95-36.3h841.9V559H-95z"/></defs><clipPath id="SVGID_12_"><use xlink:href="#SVGID_11_" overflow="visible"/></clipPath><g clip-path="url(#SVGID_12_)"><defs><path id="SVGID_13_" d="M138.3 438.1h19.5v11.8h-19.5z"/></defs><clipPath id="SVGID_14_"><use xlink:href="#SVGID_13_" overflow="visible"/></clipPath><g clip-path="url(#SVGID_14_)"><text transform="translate(138.34 446.7)" class="st6 st7">46.1</text></g></g><path class="st11" d="M88.1 436.6h120.6"/><path d="M89.8 439.2l-9.7-2.6 9.7-2.6zm117.2 0l9.7-2.6-9.7-2.6z"/><path class="st11" d="M34.8 398.3V54.1"/><path d="M37.4 396.5l-2.6 9.7-2.6-9.7zm0-340.6l-2.6-9.8-2.6 9.8z"/><path class="st11" d="M563.3 355.6V165.3"/><path d="M565.9 353.8l-2.6 9.8-2.6-9.8zm0-186.7l-2.6-9.7-2.6 9.7z"/><path class="st11" d="M40.8 49.2V17.7"/><path fill="none" stroke="#000" stroke-width=".23" stroke-linecap="round" stroke-linejoin="round" d="M77.8 406.7H20.6"/><path class="st11" d="M533.5 158.4V12.8M78.8 444.3v-84.6m137.9 84.6v-84.6"/><path fill="none" stroke="#000" stroke-width=".27" stroke-linecap="round" stroke-linejoin="round" d="M77.8 46.6H20.6"/><path d="M582 157.4h-48.5M582 363.9H314.2" stroke-width=".29" fill="none" stroke="#000" stroke-linecap="round" stroke-linejoin="round"/><text transform="translate(468.178 424.26)" class="st6 st17">Not to scale</text><text transform="translate(467.478 443.661)" class="st6 st17">Dimensions in mm</text></svg>