<svg xmlns="http://www.w3.org/2000/svg" viewBox="0 0 881.25 250"><defs><style>.cls-1,.cls-2,.cls-3,.cls-6{fill:none;stroke:#000;stroke-miterlimit:3.86;}.cls-1,.cls-3{stroke-width:2px;}.cls-2{stroke-width:0.75px;}.cls-3{stroke-dasharray:7.27 4.36;}.cls-4{isolation:isolate;}.cls-4,.cls-7{font-size:14px;font-family:ArialMT, Arial;}.cls-5{letter-spacing:-0.04em;}.cls-6{stroke-width:1.44px;stroke-dasharray:7.27 4.36;}</style></defs><g id="square_waves" data-name="square waves"><polyline class="cls-1" points="568.75 156.25 481.25 156.25 481.25 34.38 431.25 34.38 431.25 156.25 280.76 156.25 280.76 34.38 231.25 34.38 231.25 156.25 31.25 156.25"/><polyline class="cls-1" points="826.62 156.25 731.25 156.25 731.25 34.38 681.25 34.38 681.25 156.25 631.25 156.25"/><line class="cls-2" x1="280.8" y1="203.13" x2="231.7" y2="203.13"/><rect x="280.35" y="200.2" width="0.9" height="5.85"/><rect x="231.25" y="200.2" width="0.9" height="5.85"/><line class="cls-2" x1="180.8" y1="165.63" x2="131.7" y2="165.63"/><rect x="180.35" y="162.7" width="0.9" height="5.85"/><rect x="131.25" y="162.7" width="0.9" height="5.85"/><line class="cls-2" x1="380.8" y1="165.63" x2="281.7" y2="165.63"/><rect x="380.35" y="162.7" width="0.9" height="5.85"/><rect x="281.25" y="162.7" width="0.9" height="5.85"/><line class="cls-2" x1="480.8" y1="203.13" x2="431.7" y2="203.13"/><rect x="480.35" y="200.2" width="0.9" height="5.85"/><rect x="431.25" y="200.2" width="0.9" height="5.85"/><line class="cls-2" x1="568.3" y1="165.63" x2="481.7" y2="165.63"/><rect x="567.85" y="162.7" width="0.9" height="5.85"/><rect x="481.25" y="162.7" width="0.9" height="5.85"/><line class="cls-2" x1="730.8" y1="203.13" x2="681.7" y2="203.13"/><rect x="730.35" y="200.2" width="0.9" height="5.85"/><rect x="681.25" y="200.2" width="0.9" height="5.85"/><line class="cls-2" x1="680.8" y1="178.13" x2="631.7" y2="178.13"/><rect x="680.35" y="175.2" width="0.9" height="5.85"/><rect x="631.25" y="175.2" width="0.9" height="5.85"/><line class="cls-2" x1="818.3" y1="165.63" x2="731.7" y2="165.63"/><rect x="817.85" y="162.7" width="0.9" height="5.85"/><rect x="731.25" y="162.7" width="0.9" height="5.85"/><line class="cls-3" x1="568.75" y1="156.25" x2="631.25" y2="156.25"/></g><g id="text"><text class="cls-4" transform="translate(59.38 106.25)"><tspan class="cls-5">T</tspan><tspan x="8.03" y="0">rigger/Free Run Start</tspan></text><line class="cls-6" x1="131.25" y1="112.5" x2="131.25" y2="154.55"/><text class="cls-7" transform="translate(131.25 186.08)">Startup</text><line class="cls-2" x1="230.8" y1="181.25" x2="181.7" y2="181.25"/><rect x="230.35" y="178.33" width="0.9" height="5.85"/><rect x="181.25" y="178.33" width="0.9" height="5.85"/><text class="cls-7" transform="translate(187.5 196.87)">Reset</text><text class="cls-7" transform="translate(250 84.38)">1</text><text class="cls-7" transform="translate(453.13 84.38)">2</text><text class="cls-7" transform="translate(703.13 84.38)">8</text><text class="cls-7" transform="translate(303.13 181.9)">Readout</text><text class="cls-7" transform="translate(228.13 221.88)">Exposure</text><line class="cls-2" x1="430.8" y1="178.13" x2="381.7" y2="178.13"/><rect x="430.35" y="175.2" width="0.9" height="5.85"/><rect x="381.25" y="175.2" width="0.9" height="5.85"/><text class="cls-7" transform="translate(387.96 194.41)">Reset</text><text class="cls-7" transform="translate(493.75 181.9)">Readout</text><text class="cls-7" transform="translate(428.13 221.88)">Exposure</text><text class="cls-7" transform="translate(634.38 196.87)">Reset</text><text class="cls-7" transform="translate(731.25 181.9)">Readout</text><text class="cls-7" transform="translate(678.13 221.88)">Exposure</text></g></svg>