<svg version="1.1" id="Layer_1" xmlns="http://www.w3.org/2000/svg" x="0" y="0" viewBox="0 0 881.3 250" style="background-color:#fff" xml:space="preserve"><style>.st0,.st2{fill:none;stroke:#000;stroke-width:.75;stroke-miterlimit:3.86}.st2{stroke-dasharray:3.78,2.27}.st3{font-family:Helvetica,Arial,sans-serif}.st4{font-size:14px}.st5{font-size:13px}.st6{enable-background:new}</style><g id="cams_background"><path class="st0" d="M34.7 98.3l-.1 50"/><path d="M33.6 99l1.1-4.1 1.1 4.1zm-.1 48.5l1 4.1 1.2-4.1z"/><path class="st0" d="M20.3 59.7h28.5c.4 0 .8.3.8.8V85c0 .4-.3.8-.8.8H20.3c-.4 0-.8-.3-.8-.8V60.5c0-.5.4-.8.8-.8z"/><path class="st0" d="M34.5 65.7H21.9c-.2 0-.3-.1-.3-.3v-3.6c0-.2.1-.3.3-.3h12.7c.2 0 .3.1.3.3v3.6c-.1.2-.2.3-.4.3zm0 18.1H21.9c-.2 0-.3-.1-.3-.3v-3.6c0-.2.1-.3.3-.3h12.7c.2 0 .3.1.3.3v3.6c-.1.1-.2.3-.4.3z"/><path class="st0" d="M30.6 62.6h2.5c.2 0 .4.2.4.4v1.4c0 .2-.2.4-.4.4h-2.5c-.2 0-.4-.2-.4-.4V63c.1-.3.2-.4.4-.4z"/><path class="st0" d="M30.9 77.2h-5.5c-.8 0-1.4-.6-1.4-1.4v-6.2c0-.8.6-1.4 1.4-1.4h5.5c.8 0 1.4.6 1.4 1.4v6.2c0 .8-.7 1.4-1.4 1.4z" id="Ebene_3"/><path class="st0" d="M23.1 62.6h2.5c.2 0 .4.2.4.4v1.4c0 .2-.2.4-.4.4h-2.5c-.2 0-.4-.2-.4-.4V63c0-.3.2-.4.4-.4zm8.2.5h1.1v1.1h-1.1zm-.7 17.6h2.5c.2 0 .4.2.4.4v1.4c0 .2-.2.4-.4.4h-2.5c-.2 0-.4-.2-.4-.4v-1.4c.1-.3.2-.4.4-.4z"/><path class="st0" d="M23.8 63.1h1.1v1.1h-1.1zm7.5 18.1h1.1v1.1h-1.1zm-8.2-.5h2.5c.2 0 .4.2.4.4v1.4c0 .2-.2.4-.4.4h-2.5c-.2 0-.4-.2-.4-.4v-1.4c0-.3.2-.4.4-.4z"/><path class="st0" d="M23.8 81.2h1.1v1.1h-1.1zm-3.9 76.4h29.3c.4 0 .8.4.8.8v25.1c0 .4-.4.8-.8.8H19.9c-.4 0-.8-.4-.8-.8v-25.1c0-.4.4-.8.8-.8z"/><path class="st0" d="M34.5 163.8h-13c-.2 0-.3-.1-.3-.3v-3.7c0-.2.1-.3.3-.3h13c.2 0 .3.1.3.3v3.7c0 .2-.1.3-.3.3zm0 18.5h-13c-.2 0-.3-.1-.3-.3v-3.7c0-.2.1-.3.3-.3h13c.2 0 .3.1.3.3v3.7c0 .2-.1.3-.3.3z"/><path class="st0" d="M30.5 160.6H33c.2 0 .4.2.4.4v1.5c0 .2-.2.4-.4.4h-2.5c-.2 0-.4-.2-.4-.4V161c0-.3.2-.4.4-.4z"/><path class="st0" d="M30.8 175.6h-5.7c-.8 0-1.4-.6-1.4-1.4v-6.4c0-.8.6-1.4 1.4-1.4h5.7c.8 0 1.4.6 1.4 1.4v6.4c0 .8-.6 1.4-1.4 1.4z" id="Ebene_3-2"/><path class="st0" d="M22.8 160.6h2.5c.2 0 .4.2.4.4v1.5c0 .2-.2.4-.4.4h-2.5c-.2 0-.4-.2-.4-.4V161c0-.3.2-.4.4-.4zm8.4.5h1.2v1.2h-1.2zm-.7 18H33c.2 0 .4.2.4.4v1.5c0 .2-.2.4-.4.4h-2.5c-.2 0-.4-.2-.4-.4v-1.5c0-.2.2-.4.4-.4z"/><path class="st0" d="M23.5 161.1h1.2v1.2h-1.2zm7.7 18.6h1.2v1.2h-1.2zm-8.4-.6h2.5c.2 0 .4.2.4.4v1.5c0 .2-.2.4-.4.4h-2.5c-.2 0-.4-.2-.4-.4v-1.5c0-.2.2-.4.4-.4z"/><path class="st0" d="M23.5 179.7h1.2v1.2h-1.2z"/><circle class="st0" cx="14.6" cy="118.8" r="8"/><path d="M14.6 118.8v-6.2m5.6 6.2h-5.6" stroke-linecap="round" fill="none" stroke="#000" stroke-width=".75" stroke-miterlimit="3.86"/></g><g id="timelines"><path class="st0" d="M81.3 221.9h662.1"/><path d="M741.9 224.1l8.1-2.2-8.1-2.2z"/><path class="st2" d="M156.3 87.5V175m280.9-87.5v86.4"/></g><g id="square_waves"><path class="st0" d="M731.3 87.5H618.8V68.8h-6.3v18.7h-18.7V68.8h-6.3v18.7h-18.7V68.8h-6.3v18.7h-18.7V68.8h-6.3v18.7h-25V68.8h-6.2v18.7h-18.8V68.8h-6.2v18.7h-18.8V68.8h-6.2v18.7h-18.8V68.8h-6.2v18.7h-93.8V68.8h-6.2v18.7h-18.8V68.8h-6.2v18.7h-18.8V68.8h-6.2v18.7h-18.8V68.8h-6.2v18.7h-25V68.8H225v18.7h-18.7V68.8H200v18.7h-18.7V68.8H175v18.7h-18.7V68.8H150v18.7H68.8M55.6 175h110v-18.7h6.3V175h18.7v-18.7h6.3V175h18.7v-18.7h6.3V175h18.7v-18.7h6.3V175h25v-18.7h6.2V175h18.8v-18.7h6.2V175h18.8v-18.7h6.2V175h18.8v-18.7h6.2V175h93.8v-18.7h6.2V175h18.8v-18.7h6.2V175h18.8v-18.7h6.2V175h18.8v-18.7h6.2V175h25v-18.7h6.3V175h18.7v-18.7h6.3V175h18.7v-18.7h6.3V175h18.7v-18.7h6.3V175h96.9m-566.1-40.6h-8.5"/><path d="M164.7 131.4h.9v5.9h-.9zm-8.4 0h.9v5.9h-.9z"/><path class="st0" d="M146.4 181.3h-14.7"/><path d="M146 178.3h.9v5.9h-.9zm-14.7 0h.9v5.9h-.9z"/><path class="st0" d="M446.4 137.5H438"/><path d="M446 134.6h.9v5.9h-.9zm-8.5 0h.9v5.9h-.9z"/><path class="st0" d="M337 37.5H150.4"/><path d="M336.6 34.6h.9v5.8h-.9zm-186.6 0h.9v5.8h-.9z"/><path class="st0" d="M618.3 37.5H431.7"/><path d="M617.8 34.6h.9v5.8h-.9zm-186.5 0h.9v5.8h-.9z"/></g><g id="text"><text transform="translate(58.25 58.5)" class="st3 st4">Startup time</text><text transform="translate(68.75 153.12)" class="st3 st4">Startup time</text><text transform="translate(165.63 128.12)" class="st3 st5">Safety margin</text><text transform="translate(215.09 31.25)" class="st3 st4">Frame 1</text><text transform="translate(496.34 31.25)" class="st3 st4">Frame 2</text><text transform="translate(446.88 134.37)" class="st3 st5">Safety margin</text><path class="st2" d="M146.9 153.1V175M131.3 65.6v21.9"/><text transform="translate(45.319 119.928)" class="st6"><tspan x="0" y="0" class="st3 st5">PTP </tspan><tspan x="0" y="15.6" class="st3 st5">sync</tspan></text><text transform="translate(139.06 200.948)" class="st3 st4">Trigger offset</text><text transform="translate(393.44 239.82)" class="st3 st4">Time</text><text transform="translate(754.73 79.085)" class="st6"><tspan x="0" y="0" class="st3 st4">Image acquisition </tspan><tspan x="0" y="16.8" class="st3 st4">on camera 1</tspan></text><text transform="translate(754.73 158.435)" class="st6"><tspan x="0" y="0" class="st3 st4">Image acquisition </tspan><tspan x="0" y="16.8" class="st3 st4">on camera 2</tspan></text></g></svg>