<svg xmlns="http://www.w3.org/2000/svg" viewBox="0 0 642.5 276" style="background-color:#fff"><style>.st0{fill-rule:evenodd;clip-rule:evenodd}.st1{font-family:Helvetica,Arial,sans-serif}.st2{font-size:10px}.st3{font-size:7px}.st4{font-size:6px}.st5{stroke-linecap:round;stroke-linejoin:round;stroke-miterlimit:10}.st5,.st6{fill:none;stroke:#000;stroke-width:.5669}.st8{stroke-linecap:round;stroke-linejoin:round;stroke-miterlimit:10}.st10,.st8,.st9{fill:none;stroke:#000}.st8,.st9{stroke-width:.2835}.st10{stroke-width:.36;stroke-linecap:round;stroke-linejoin:round;stroke-miterlimit:10}</style><g id="Fläche"><path d="M528.9 57.9V61c0 .2.3.3.3.3h.7v-4.6h-3.6s-.3 0-.3.3v.6h2.5c.5 0 .4.3.4.3m11.5 1.3c-.2.3-.3.6-.3.8 0 .4.2.7.5 1 .4.3.8.3 1.1.3h2.7c.4 0 .5-.3.5-.3v-4.3h-3.4c-.5 0-.8.1-1.1.3s-.5.6-.5 1.1c0 .4.2.8.5 1.1m3.5.9c0 .2-.2.2-.4.2h-1.9c-.3 0-.4 0-.4-.1-.1-.1-.2-.2-.2-.4 0-.1 0-.2.1-.3s.4-.1.6-.1h2.2v.7zm-2.9-2.4c.1-.1.3-.1.5-.1h2.4v1h-2.1c-.5 0-.7-.1-.8-.2 0 0-.1-.1-.1-.4 0-.1 0-.2.1-.3m-16.3.9h-3c-.3 0-.2.2-.2.2v.7h3.2v.6c0 .2-.2.2-.4.2h-2.8s-.3 0-.3.2v.7h4c.5 0 .4-.3.4-.3v-4.3h-4.3s-.2 0-.2.2v.7h3.6v1.1zm9.7-1.1h-1.9c-.4 0-1.2 0-1.3.5v.1c0 .2.1.5 1.3.6.7 0 1.2 0 1.6.2.5.2.8.5.8 1 0 .8-.7 1.3-1.9 1.4h-2.4v-.6c0-.3.4-.3.4-.3h2.1c.4 0 1-.1 1-.4v-.1c0-.1-.2-.3-1.2-.3h-.1c-.7 0-1.2-.1-1.7-.3s-.8-.6-.8-1.2V58c0-.5.3-1.2 2.1-1.2h2.2l.3.6c-.2-.1-.1.1-.5.1m-20.5 5.3c.4.4 1 .5 1 .5 1.1-.5 2.2-1.1 2.2-1.1s-1.6.7-3.3.4c-.1-.1 0 .1.1.2"/><path d="M511.8 63.3c.5.7 1.8.5 2.6.2-.2-.1-1.6-.2-1.1-2.2.3-1.2 1.1-2.6 1.1-2.7 0 0-3.4 3.4-2.6 4.7m5.3-4.7c-.2 0-.4.1-.6.3l-.3.3c-.1.2-.2.5-.2.7 0 .5.3 1 .7 1.2.3.2.7.2 1 .2h2.7c.3 0 .4-.3.4-.3v-4.3h-.8s-.2 0-.2.3v1.5h-1.4l-1.2-1.4c-.1-.1-.1-.2-.1-.2s-.2-.2-.5-.2h-1l1.5 1.9zm2.6.8v.7s0 .3-.3.3h-1.8c-.2 0-.4 0-.5-.1s-.2-.2-.2-.4c0-.1 0-.3.1-.3.1-.2.4-.2.8-.2h1.9zm17.4 1.9h.4c.4 0 .4-.1.6-.3.3-.6.8-1.5 1.3-2.5-.2.2-.6.4-1.2.4l-.6 1.1-.7-1.4h1.4c.8-.1 1.2-.5 1.3-.7.3-.6.5-1.1.5-1.1s.1-.2-.1-.2h-.8l-.4.7s-.2.3-.6.3h-1.8l-.4-.8c-.1-.1-.1-.3-.4-.3h-.8l2.3 4.8zm-433.8-.7v-2.9c0-.2-.3-.3-.3-.3h-.6v4.3h3.4s.3 0 .3-.3v-.5h-2.4c-.5 0-.4-.3-.4-.3m-10.8-1.2s.1 0 0 0c.2-.3.3-.5.3-.8 0-.4-.2-.7-.4-.9-.4-.3-.7-.3-1.1-.3h-2.5c-.4 0-.5.3-.5.3v4h3.2c.4 0 .8-.1 1-.3.3-.2.4-.6.4-1 .1-.4-.1-.7-.4-1m-3.3-.9c0-.2.2-.2.3-.2h1.8c.3 0 .4 0 .4.1.1 0 .2.2.2.3s0 .2-.1.3-.3.1-.5.1h-2v-.6h-.1zm2.8 2.3c-.1.1-.3.1-.5.1h-2.3v-1h2c.5 0 .7.1.7.2 0 0 .1.1.1.3.1.2 0 .3 0 .4m15.2-.9h2.8c.2 0 .2-.2.2-.2v-.6h-3v-.6c0-.2.2-.2.3-.2h2.7s.2 0 .2-.2v-.6h-3.7c-.4 0-.4.3-.4.3v4h4s.2 0 .2-.2V61h-3.4v-1.1h.1zm-9 1.1h1.8c.3 0 1.1 0 1.2-.4v-.1c0-.2-.1-.5-1.3-.5-.6 0-1.1 0-1.5-.2-.5-.2-.7-.5-.7-1 0-.8.7-1.2 1.8-1.3h2.3v.5c0 .3-.3.3-.3.3h-1.9c-.3 0-.9.1-.9.4v.1c0 .1.2.3 1.1.3h.1c.6 0 1.2.1 1.6.3.5.2.7.6.7 1.1v.1c0 .5-.3 1.1-2 1.2h-2.1l-.3-.6c.1 0 0-.2.4-.2m19.2-5c-.4-.4-.9-.4-.9-.4-1 .4-2 1.1-2 1.1s1.5-.7 3.1-.4c-.1 0-.2-.2-.2-.3"/><path d="M119.3 55.6c-.5-.7-1.7-.4-2.5-.2.2.1 1.5.2 1 2.1-.3 1.1-1.1 2.4-1 2.5 0 0 3.3-3.3 2.5-4.4m-4.9 4.4c.2 0 .4-.1.6-.3l.3-.3c.1-.2.2-.4.2-.7 0-.5-.2-.9-.6-1.1-.3-.2-.7-.2-1-.2h-2.5c-.3 0-.3.3-.3.3v4h.7s.2 0 .2-.3V60h1.3l1.2 1.3c.1.1.1.2.1.2s.2.2.5.2h.9l-1.6-1.7zm-2.5-.8v-.7s0-.2.3-.2h1.7c.2 0 .4 0 .5.1s.1.2.1.3 0 .3-.1.3c-.1.1-.4.2-.7.2h-1.8zm-16.2-1.7h-.4c-.4 0-.4.1-.5.3-.2.5-.8 1.4-1.2 2.3.2-.2.6-.4 1.2-.4l.6-1L96 60h-1.3c-.8.1-1.1.5-1.3.6l-.5 1s-.1.2.1.2h.8l.3-.7s.1-.3.5-.3h1.7s.3.6.4.7c.1.1.1.2.4.2h.7l-2.1-4.2zm75.8-9.8V25.4M66.2 26.5H44.3m26.3 10.8V25.4m96.8 1.1H74.7"/><path class="st0" d="M167.4 25.7v1.4l4.2-.7"/><path d="M36.9 26.5l4.2.7v-1.4l-4.2.7zm33.8 0l4.1.7v-1.4l-4.1.7zM36.9 12.3l4.2.6v-1.4l-4.2.8zm33.7 14.2l-4.2-.7v1.4l4.2-.7zM57.5 126.9h12.3m-12.3 33h12.3m-1-28.8v24.7"/><path class="st0" d="M69.5 131.1h-1.4l.7-4.2m.7 28.9h-1.4l.7 4.1"/><path d="M37.4 123.1v-21.5m24.9 21.5v-21.5m-20.8 2h16.6"/><path class="st0" d="M41.5 102.9v1.4l-4.1-.7m20.7-.7v1.4l4.2-.7"/><path d="M56.1 125.3v-12.9m-12.4 12.9v-12.9m8.3 1h-4.2m-4.1 0H3.2"/><path class="st0" d="M52 112.7v1.4l4.1-.7m-8.3-.7v1.4l-4.1-.7"/><text transform="translate(171.264 9.953)" class="st1 st2">Length (in m) depending on order number</text><path class="st0" d="M558.5 11.7v1.4l4.1-.7m-387 13.3V27l-4.2-.6m18.7-.7V27l4.2-.6m348.8 144.9v1.8l5.7-.9m-87.9-.9v1.8l-5.6-.9m30.3 13.7v1.9l5.7-.9m-30.4-1v1.9l-5.6-.9m-27.9 40.6h-1.9l.9-5.7m1-17h-1.9l.9 5.7m168-96.7h-1.8l.9-5.7m.9 18.5h-1.8l.9 5.7M540.7 145v2l5.7-1m21-1v2l-5.7-1"/><path class="st0" d="M540.7 145v2l5.7-1m-42.5-1v2l-5.7-1"/><path class="st0" d="M484 145v2l5.7-1m14.2-1v2l-5.7-1"/><text transform="translate(580.492 137.698)" class="st1 st3">+0.2</text><text transform="translate(580.492 144.898)" class="st1 st3">-0.0</text><text transform="translate(39.176 101.122)" class="st1 st2">9±0.3</text><text transform="translate(1.833 111.67)" class="st1 st2">4.5±0.3</text><text transform="translate(36.867 23.02)" class="st1 st2">11.75</text><text transform="translate(104.481 25.337)" class="st1 st2">36.5±0.3</text><text transform="translate(173.933 25.337)" class="st1 st2">(30)</text><text transform="rotate(90 246.298 350.648)" class="st1 st2">8.5±0.3</text><text transform="rotate(90 120.594 307.49)" class="st1 st2">Ø4</text><text transform="translate(508.147 144.191)" class="st1 st2">17±0.3</text><text transform="translate(566.87 143.19)" class="st1 st2">5.4</text><text transform="translate(458.848 144.191)" class="st1 st2">3±0.3</text><text transform="translate(488.646 170.19)" class="st1 st2">33±0.2</text><text transform="translate(455.458 184.687)" class="st1 st2">12.7±0.2</text><text transform="rotate(90 -24.15 97.232)" class="st1 st2">11.93±0.3</text><text transform="translate(564.836 209.603)" class="st1 st2">M2 x 0.4</text><text transform="translate(62.398 19.14)" class="st1 st3">+0.2</text><text transform="translate(62.398 25.14)" class="st1 st3">-0.0</text><path d="M188.9 30.3v-1.9"/><text transform="matrix(1.2603 0 0 1 198.266 64.812)" class="st1 st4">xx.xM XYZ</text><text transform="matrix(1.2603 0 0 1 193.978 58.572)" class="st1 st4">2X000XXXXX</text><path class="st0" d="M572.4 20.4v2M633 34.5h-1.9l1-5.6m.9 56.7h-1.9l1 5.7m-10.7-51.1h-1.9l.9-5.7m1 45.4h-1.9l.9 5.7"/><text transform="rotate(90 288.453 333.358)" class="st1 st2">18±0.3</text><text transform="rotate(90 294.12 339.026)" class="st1 st2">22±0.3</text><text transform="translate(577.92 18.008)" class="st1 st3">8.5±0.3</text><path class="st0" d="M605.4 43.4v2m-9.6-23.2v-1.9l5.6 1m-17-1v1.9l-5.6-.9"/><text transform="translate(55.759 213.5)" class="st1 st2">± 10</text><text transform="translate(8.259 225.5)" class="st1 st2">≥</text><text transform="translate(100.159 225.5)" class="st1 st2">± 15</text><text transform="translate(8.259 237.5)" class="st1 st2">≥</text><text transform="translate(100.159 237.5)" class="st1 st2">± 20</text><text transform="translate(8.259 249.5)" class="st1 st2">≥</text><text transform="translate(100.159 249.5)" class="st1 st2">± 30</text><text transform="translate(8.259 261.5)" class="st1 st2">≥</text><text transform="translate(111.259 261.5)" class="st1 st2">± 50</text><text transform="translate(8.259 273.5)" class="st1 st2">≥</text><text transform="translate(60.959 273.5)" class="st1 st2">± 100</text><text transform="translate(8.259 189.5)" class="st1 st2">Length Tolerances</text><text transform="translate(8.259 213.5)" class="st1 st2">&lt;150 mm:</text><text transform="translate(13.759 225.5)" class="st1 st2">150 mm &lt;250 mm:</text><text transform="translate(13.759 237.5)" class="st1 st2">250 mm &lt;500 mm:</text><text transform="translate(13.759 249.5)" class="st1 st2">500 mm &lt;100 mm:</text><text transform="translate(13.759 261.5)" class="st1 st2">1000 mm &lt;5000 mm:</text><text transform="translate(13.759 273.5)" class="st1 st2">5000 mm:</text></g><g id="Linie"><path class="st5" d="M151.3 51.5H148m16.6 0h-3.4m-9.9 16.2H148m16.6 0h-3.4m301.3-16.2h-291M463 67.6H171.5m-46.8 11.5l-2.2.7-2.3.5-2.3.3h-2.3m0-42.6l2.3.1 2.3.3 2.3.5 2.2.6M71.9 80.6h-.5l-.4-.2-.3-.3-.2-.4v-.5m0-39.8V39l.2-.4.3-.3.4-.2.5-.1m14.6 12.3l.1-.5.2-.5.3-.5.5-.3.4-.2.6-.1M70.5 59.3V39.4m16 19.9v-9M71.9 38H76m43.3 10.2l.5.1c1 .3 1.5 1 1.5 2v9M88.6 48.2h30.7m2.1 20.1l-.1.5-.2.6-.3.4-.4.3-.6.2-.5.1m-30.7 0l-.6-.1-.4-.2-.5-.3-.3-.4-.2-.6-.1-.5M71.9 80.6H76m10.5-21.3v9m2.1 2.1h30.7m2.1-11.1v9m-50.9-9v19.9M148 46v11.7m-93.7-5.3v-5.5m-4.5 0v5.5m-12.6 6.9V44.1m1.4-1.3h31.9m-33.3 1.3l.1-.4.2-.3.3-.3.4-.2.4-.1m11.2 4.1l.1-.3.2-.2.2-.1h3.5l.3.1.1.2.1.3m5.1-.6l-.5-.3-.5-.5-.1-.5.1-.4.5-.5.5-.3.8-.1.7.1.6.3.4.5.2.4-.2.5-.4.5-.6.3h-1.5zM38.6 75.8h31.9M37.2 59.3v15.2m1.4 1.3h-.4l-.4-.2-.3-.3-.2-.4-.1-.4m16.6-8.7h.3l.1.2.1.3m-4.5 0l.1-.3.2-.2h.2m-.5 3.2h4.5m-4 3.3l-.2-.1-.2-.2-.1-.2m4.5-5.5v5.5m-.5.5h-3.5m4-.5l-.1.2-.1.2-.3.1m-4-.5v-5.5m.5-.5h3.5m-3.5-12.9h-.2l-.2-.2-.1-.3m4.5-2.8h-4.5m.5 3.3h3.5m.5-.5l-.1.3-.1.2h-.3m5.6 19.5l-.5.3-.5.4-.1.5.1.5.5.4.5.3.8.1.7-.1.6-.3.4-.4.2-.5-.2-.5-.4-.4-.6-.3-.7-.1-.8.1zm91.9-26.1v11.4m3.3-11.2v11.2m3.3-11v11m3.3-10.7v10.7m3.4-10.5v10.5m6.9-7.4v18.1m-6.9-10.7h-3.4m3.4 3.3h-3.4M148 61v11.6m3.3-11.6v11.4m3.3-11.4v11.1m-3.3-14.4H148m3.3 3.3H148m9.9 0v10.9m3.3-10.9v10.7m3.4-10.7v10.4m4.3-23.9l.6.1c1.1.4 1.6.9 1.9 2.1l.1.6m0 18.1l-.1.6c-.3 1.1-.8 1.7-1.9 2.1l-.6.1m-11-13.5V61m-3.3-3.3V61m-3.3-14.7l9.9.7m3.4.2l4.3.3m-4.3 23.9l4.3-.3m-17.6 1.3l9.9-.7M76 38v42.6m2.8 0V38M76 79.8h2.8m-2.8-41h2.8m0-.8h36.8M78.8 80.6h36.8m9.1-1.5l17.7-6.1"/><path class="st5" d="M142.4 61l-.8.6-.8.6c-2 1.6-3.3 3.8-4.3 6.1l-.8 1.3-1 1.4c-2.3 3.1-4.7 5.5-8.1 7.3l-1.6.7-1.8.6m1.5-40.1l17.7 6.1m0 12.1l-.8-.6-.8-.6c-2-1.5-3.2-3.9-4.3-6.1l-.8-1.3-1-1.4c-2.1-3-4.8-5.6-8.1-7.3l-1.7-.8-1.8-.6m19.3 34V45.6l5.6.4m0 26.6l-5.6.4"/><path class="st6" d="M69.5 131.1h-1.4l.7-4.2"/><path class="st5" d="M546.6 80.8l-.1.6-.3.4-.5.3-.5.1m1.4-5.3v3.9m0-42.5v3.9M463 69.7l.1.4.2.5.5.3.4.1M463 49.4v20.3m27.5-26l-.5.4-.1.5m8.5-14.8v11.3m-7.9 34.3l7.9 2.6m-7.9-34.3l7.9-2.6m-12.2 4.1v11.5m-12.4 0v-3.1m16.1 15.8v-.2m0 5.3V44.6m-3.7 12.1H484V45.4m-2.9 5.9v22m-2.2-.3V51.9M476 53v3.7h-2.2m0 5.7h2.2m8 11.2V62.4h2.2m59-34h-45.4m46.8 60.9V29.8m0 0l-.1-.6-.3-.4-.5-.3-.5-.1m-59 34v11.5m-5.1-.6V45.8M478.9 73V46.1M476 72.6V62.4m-2.2 9.9v-9.9m-2.9 9.5V47.2m-2.2 24.4V47.5m7.3 9.2V46.5m-2.2 10.2v-9.9m-5.1 21h2.2m-2.2-16.4h2.2m2.9 0h2.2m-2.2 16.4h2.2m2.9 0h2.2m-2.2-16.4h2.2m2.9 0h2.2M484 67.8h2.2m3.7 6.7l.1.5.5.4m-26.3-27.3l-.4.1-.5.3-.2.5-.1.4m36.8-21l-.5.1-.5.3-.3.4-.1.6m0 59.5V78m1.4 12.7h45.4l.5-.1.5-.3.3-.4.1-.6m-48.2 0l.1.6.3.4.5.3.5.1m46.8-52.4l-.1-.6-.3-.4-.5-.3-.5-.1h-45.4m45.3 45.3h-45.3m0-45.3l-.5.1-.5.3-.3.4-.1.6m0 42.5l.1.6.3.4.5.3.5.1m-35.6-34.1l9.6-1.3M464.2 71l9.6 1.3m2.2-25.8l8-1.1m2.2-.2l3.7-.6m-3.7 29.3l3.7.5M476 72.6l8 1m14.4-45.2v11.3m-34.6-4.2v4.2l-1.4-1.4m36 1.4h-34.6m-1.4-9.9l1.4-1.4m-1.4 7.1h5.7m-5.7-2.9h5.7m-5.7 5.7v-2.8m0-2.9v-2.8m36 7.6h-34.6m0-9h34.6m0 .5h-34.6m34.6 1.4h-34.6m34.6 1.4h-34.6m34.6 1.4h-30.3m30.3 1.5h-30.3m30.3 1.4h-34.6m34.6 2.8h-34.6m0-6.2v-4.2m4.3 7.1v-2.9m78.5-1.3h8.5m0 5.4h-8.5m8.5-3.6l-1 3.6m.4-5.4l-1.5 5.4m.3-5.4l-1.4 5.4m.4-5.4l-1.5 5.4m.4-5.4l-1.5 5.4m.3-5.4l-1.4 5.4m.4-5.4l-1.5 5.4m.4-5.4l-1.3 4.7m9.3-3.8v3.7l-.8.8"/><path class="st5" d="M555.9 32.2l-.8-.9v5.4m-8.5 11.5h-35l-.6.1m0 22.5l.6.1h35M511 48.3l-.7.2-.6.5-.5.6-.3.7-.1.8V68l.1.8.3.7.5.6.6.5.7.2m35.6-22.6v22.7m-48 8.7v11.3m-34.7-4.2V91l-1.3-1.5m36 1.4h-34.7m-1.3-9.9l1.3-1.4m-1.3 7.1h5.6m-5.6-2.8h5.6m-5.6 5.6v-2.8m0-2.8V81m36 7.6h-34.7m0-9h34.7m0 .5h-34.7m34.7 1.4h-34.7m34.7 1.5h-34.7m34.7 1.3h-30.4m30.4 1.5h-30.4m30.4 1.4h-34.7m34.7 2.8h-34.7m0-6.1v-4.3m4.3 7.1v-2.8m78.4-1.4h8.6m0 5.4h-8.6m8.6-3.6l-1 3.7m.4-5.5l-1.4 5.4m.3-5.4l-1.5 5.4m.4-5.4l-1.5 5.4m.4-5.4l-1.4 5.4m.3-5.4l-1.5 5.4m.4-5.4l-1.5 5.4m.4-5.4l-1.4 5.4m9.4-4.5v3.7l-.8.8"/><path class="st5" d="M556 83.4l-.8-.9v5.4M442.5 214.7h-11.1m11.1 2.8h-11.1M154.6 51.8s1.5-.6 3.3 0m-3.3 15.6s1.5.6 3.3 0"/><path class="st6" d="M442.6 216.1c0 3.1-2.5 5.7-5.7 5.7-3.1 0-5.7-2.5-5.7-5.7 0-3.1 2.5-5.7 5.7-5.7 3.2.1 5.7 2.6 5.7 5.7z"/><path d="M194.4 52.6h45.7v13.5h-45.7V52.6z" fill="none" stroke="#000" stroke-width=".567" stroke-dasharray="3,2"/><path class="st5" d="M62.4 130.7v26.1m-24.9-26.1v26.1M49 127.1v33.3m-3.2 0l-.6-.1-.5-.2-.4-.4-.3-.4-.3-.5v-.5m12.5 0l-.1.5-.2.5-.4.4-.4.4-.5.2-.5.1m0-33.3l.5.1.5.2.4.3.4.5.2.5.1.5m-12.5 0v-.5l.3-.5.3-.5.4-.3.5-.2.6-.1m0 33.3h8.3m-8.3-33.3h8.3m-10.4 2.1v29.1m12.5-29.1v29.1m-18.7-27.6l.1-1.1c.5-3.7 3.4-6.7 7.1-7.1l1.1-.1m8.3 0l1.1.1c3.7.4 6.7 3.5 7.1 7.1v1.1m-16.5-8.3h8.3m8.3 34.4v1.1c-.5 3.7-3.4 6.7-7.1 7.1l-1.1.1m-8.4 0l-1.1-.1c-3.7-.4-6.7-3.4-7.1-7.1l-.1-1.1m8.3 8.3h8.3m435.6-33.6l.1.4.3.2.5.2m-.9-23.6v.2m.9-.8l-.5.2-.3.2-.1.4v22.6m0-22.6h.1m-8.9 8.5h-2.2m-8 0h-2.2m0 5.6h2.2m8 0h2.2m8.8 8.5h.1m.8.8h54.2m-54.2-24.2H545m1.4 1.5l-.1-.6-.3-.4-.5-.3-.5-.2m0 24.2l.5-.2.5-.3.3-.4.1-.5m0-21.3v21.3m-48.2-18.1h-8.5m8.5 17.7h-8.5m8.5-22.4v24.2m48.2-17.4h-48.2m48.2 11.4h-48.2M486 108.1v24.2m-2.2 0v-24.2m-2.9 0v9.3m-2.2 14.9V123m-2.9 9.3v-24.2m-2.2 0v24.2m-2.9-14.9v-9.3m-2.2 0v9.3m-5.7-7.8v21.2m5.7-2.1h2.2m-2.2-17h2.2m2.9 17h2.2m-2.2-17h2.2m2.9 0h2.2m-2.2 17h2.2m2.9 0h2.2m-2.2-17h2.2m-17.5-3.6v9.3m10.2 0v-9.3m2.2 0v9.3m-10.2 0v-9.3m20.6 105.2h23.5m0 5.6h-23.5m0-8.4v11.3m-34.6-4.3v4.3l-1.4-1.4m36 1.4h-34.6m-1.4-9.9l1.4-1.4m-1.4 7h5.6m-5.6-2.8h5.6m-5.6 5.7v-2.9m0-2.8v-2.8m36 7.6h-34.6m0-9h34.6m0 .5h-34.6m34.6 1.4h-34.6m34.6 1.4h-34.6m34.6 1.5h-30.4m30.4 1.3h-30.4m30.4 1.5h-34.6m34.6 2.8h-34.6m0-6.2v-4.2m4.2 7v-2.8m77.4-1.2h9.7m0 5.3h-9.7m9.7-3.6l-1 3.6m.3-5.3l-1.4 5.3m.3-5.3l-1.4 5.3m.4-5.3l-1.5 5.3m.3-5.3l-1.4 5.3m.3-5.3l-1.4 5.3m.3-5.3l-1.4 5.3m.3-5.3l-1.4 5.3m.3-5.3l-1.3 4.8m.2-4.8l-.2.7m-.8 3.9h-22.7m0-3.9h22.7m-22.7 4.7v-5.6m23.5 5.5l-.8-.7m0-3.9l.8-.7v5.3m-.8-4.6v3.9m11.3-3.8v3.7l-.8.8"/><path class="st5" d="M548.8 214.3l-.8-.8v5.3m-36-5.5h-17.6m17.6 5.6h-17.6m23.2-4.7h10.3m-10.3 3.9h10.3m-37.3-110h-9.7m9.7 24.2h-9.7m-16.7-24.2l-.5.2-.5.3-.3.4-.1.6m0 21.2l.1.6.3.4.5.3.5.2m16.7-9.3v9.3m-2.2-14.9v-9.3M468.5 123v9.3m2.2-9.3v9.3m8-24.2h-8m8 24.2h-8m-2.2 0h-4.3m4.3-24.2h-4.3m97.6 13.6h-15m0-1.5h15m0-.8h-15m15-1.3h-15m7.6-1.1l.1-.2c.3-1.5.1-2.1 1.6-1.4l2.8 1.7m-6.7 5.5h.4m5.7-.5l-4.3.5m-1.4-.3l1.3-.2m-2.6-5.3h-.2 3.3m-3.8 0l-.1.2m.8-.2h-.7m.7 0v.2m1.3 5.3h-.4m0 .3h.4m-.4-.3v.3m.4-.3l1.3-.2m4.4 0l-4.3.5m0 0h-1.4v-.3m-5.8-.2h15m.3-.5v.2l-.3.3v-.4m30.5-46.3h-1v1h1l.3-.1.1-.3v-9.1l-.1-.3-.3-.1h-1v1h1v.5h-1v1.4h1v.5h-1v1.4h1v.4h-1v1.4h1v.4h-1v1.4h1zM591 48.6h.3m0-1.6l-.3.3v1.3"/><path class="st5" d="M562.1 120v1.6l-.3.1v-1.5m0-3.2l.3.2v.9m-.3 2.1l.3-.2v-.6h-.3m0-1.3h.3v1.3m-.3.8v-2.1m-15-1.1h15v1.1m-11.3-1.1zm0-.1v-.1m0 .2zm28.4-44.9v-3.2m0-1.7v-3.5m0-1.9v-3.5m0-1.8V53m0-1.8V48m0 24.1h-.8m0 6.4V41.7m.8 6.3h-.8M591 62.2h.1v3.4M589.8 49h-.1m.1-.4h-.1m2.2 0h-.3m.4.2h-.4m.4.1h-.4m0-.3h-.1m.1.4v-.4m-1.8.4h1.2m0-.4h-1.2v.4m1.6-.4h.1v.4m-.1-.4h-.4v.4"/><path class="st5" d="M591.2 49h.2v-.4m-1.6 3.7h-.1m.1.4h-.1m2.1 0h-.2m.4-.2h-.4m.2-.2h-.2m.4.1h-.4m0-.1h-.1m.1.4h-.1m.1-.4h-.1m0 .4h.1v-.4m-.6 0h-1.2m1.2.4h-1.2v-.4m1.7 0h-.1m0 .4h.1v-.4m-.5 0h.4v.4h-.4zm-1.2 4.1h-.1m.1-.4h-.1m2.2.4h-.3m.4-.1h-.4m.3-.3h-.3m.4.1h-.4m0 .3h-.1m.1-.4h-.1m0 .4h.1m-.1-.4h.1v.4m-1.8 0h1.2m0-.4h-1.2v.4m1.7 0h-.1m0-.4h.1v.4m-.1 0h-.4m.4-.4h-.4v.4m.4-.4v.4M589.8 68h-.1m.1-.4h-.1m2.3.2h-.4m.2-.2h-.2m.4.1h-.4m0-.1h-.1m.1.4v-.4m-1.8.4h1.2m0-.4h-1.2v.4m1.6-.4h.1v.4m-.1-.4h-.4v.4"/><path class="st5" d="M591.2 68h.2v-.4m-1.6 4.1h-.1m.1-.4h-.1m2.2 0h-.3m.4.1h-.4m.3.3h-.3m.4-.1h-.4m0-.3h-.1m.1.4v-.4m-1.8.4h1.2m0-.4h-1.2v.4m1.7 0h-.1m0-.4h.1v.4m-.1-.4h-.4v.4"/><path class="st5" d="M591.2 71.7h.2v-.4m-1.6 4.1h-.1m.1-.4h-.1m2.3.2h-.4m.2-.2h-.2m.4.1h-.4m0-.1h-.1m.1.4V75m-1.8.4h1.2m0-.4h-1.2v.4m1.6-.4h.1v.4m-.1 0h-.2m.2-.4h-.4v.4m.4-.4v.4m-1.7-5.5h.1m-.1-.5h.1m1.8 0h.2m-.2.2h.4m-.4.3h.2m.2-.2h-.4m0 .2h-.1m.1-.5h-.1m0 .5h.1m-.1-.5h.1v.5m-1.8 0h1.2m0-.5h-1.2v.5m1.6 0h.1m-.1-.5h.1v.5m-.5 0h.4m0-.5h-.4v.5m.4-.5v.5m-1.7-19h.1m-.1-.5h.1m1.8 0h.2m-.2.2h.4m-.4.3h.2m.2-.2h-.4m0 .2h-.1m.1-.5h-.1m0 .5h.1m-.1-.5h.1v.5m-1.8 0h1.2m0-.5h-1.2v.5m1.6 0h.1m-.1-.5h.1v.5m-.5-.5h.4v.4h-.4zm-1.2 4.1h-.1m.1-.4h-.1m2.1.4h-.2m.4-.1h-.4m.2-.3h-.2m.4.2h-.4m0 .2h-.1m.1-.4h-.1m0 .4h.1m-.1-.4h.1v.4m-1.8 0h1.2m0-.4h-1.2v.4m1.7 0h-.1m0-.4h.1v.4m-.5-.4h.4v.4h-.4zm-1.9 4.6h.1m-.1 1.1h.1m-.1-14.6h.1m-.1 1.1h.1m1.8 23.1h-.6m.6-1.4h-.6m0 7.4h.6m-.6-5.5h.6m0 3.2h-.6m.6-1.8h-.6m.6 3.6h-.6m0-3.2h.6m-.6-4.2h.6m-.6 6h.6m0-7.3h-1.8m.7 10.5h1.1"/><path class="st5" d="M589.2 66.2v10.2l.3.3h.4m.5-1.7v-.1m0-7.4v.1m0-19h.6m0 1.8h-.6m.6-1.3h-.6m0 1.8h.6m0 3.2h-.6m0-1.4h.6m0 3.3h-.6m0-1.4h.6m-.6 1.8h.6m0-4.2h-.6m-1.2-4.9v10.5m1.2-8.8v.1m0 5.4v.1m0-2.4v.1m.9-1.9h-.3m.3-1.3h-.3v1.3m0 15.8v1.3h.3m0-23.9l-.2-.1-.2-.1m.1 3.9h-1.8m2.1 22.1h-.3m.3-1.4h-.3v1.4m.3-14.8h-.3V56h.3m0 .4h-.3v1.4m.3 12.1h-.3v1.4h.3m0-20.4h-.3v1.3h.3m0 21.3h-.3v1.4h.3m0-22.2h-.3v1.4h.3m-2.1 3.7v3.7m3.6-16.5l-1.5-1.4-.1.2m.1 14.2l-.3-.2h-1.8l.2.2m1.9 13.7h-.3v1.4h.3m1 3.6h.4l.2-.3.1-.4m-2 .7h1.3v-.3m.7-30.8v-.3l-.2-.3-.2.3m.2 14.6l-1.5 1.5m-2.1-17.3v3.2l.2-.3m3.6 12.4V45.6h-.3m.3 21.3l-.1-.3-.2-.3-.4-.1m-2.4-22.8l-.4.1-.3.3v.3h.2m3.3 31.9h.3v-9.1h-.3m-1.8-5.4h-1.7l.2-.2m1.5.2h.2l.2-.1-.1-.2m-.3.3v-.2m1.4 4.9H591l.3.3m1 0v-.3m-2.4-22.8v.3m1 0v-.3h-1m2.7 16.3l.2.2.2-.5h-.3m-1.4 16h-.3v1.3l.3-.3"/><path class="st5" d="M592.3 56.4h-1V58h-1.9v3.3h1.5l.3-.1 1.4-1.5.1-.3V45.6l-.1-.3-1.4-1.5-.3-.1h-1l-.3.1-.2.3V47h1.9v1.6h1v.5h-1v1.3h1v.5h-1v1.3h1v.5h-1v1.4h1v.5h-1V56h1zm.4 21h-.2m-4.1-5.2v-.7m0 .7h-.1m.1-16.7v-.7m0-4.6v-.7m0 5.3v-.7m0 .7h.1m-.1 16.7v-.7m0 .7h.1m0-21.3h-.1m0 .7v-.7m0 .7v.1m5.3 19.8h.5m-.5 1.4h.5v-1.4m-.5-21.1h.5m-.6-1.5h.6v1.5m-.6-1.5v1.5m0 22.5v-1.4m-2.6-8.6l.4-.1.4-.3-.2-.1m1.7-1.4l-1.5 1.5m1.5-9.3h.3v7.1m-5.1 16.6l.1.5.3.3.3.3.5.1m3.9-10.6v-.5l-.3-.4-.4-.2-.4-.1m-2.8-22.8l-.5.1-.3.2-.3.4-.1.4h.3m-.3 0v32.3h.3m4.3-16l.2.1.3-.3v-.4h-.3m-1.5-16.5l-.4-.2-.4-.1m-1.3 34.3v.3h2.8M591 43.1v-.3h-1.3v.3m3.9 33.1v-9.4h-.3m-.8 10.3v.3l.4-.1.4-.3.3-.3v-.5h-.3m0-31.6l-1.5-1.5-.2.2m2 2.2V45l-.3-.4-.2.3m.2 7.6h.3v-7h-.3m-3.2 17.2V65m.6-2.8l-.3.1-.3.2v.2h-.3m.9-.8v.3h.3v-.3m1.5 4v-.3h-1.8m-.6-.6v.3l.3.2.3.1m-.6-.6h-.3m.9.9v-.3m.7-22.1l1.5 1.5"/><path class="st5" d="M590.7 61.9h.3l.3-.1.3-.1 1.5-1.5.2-.6v-7.1h-.2v7.1l-.2.3-1.5 1.6-.4.2h-.8l-.4.3-.2.3-.1.4V65l.1.4.2.5.4.2.5.1h1.8m.6.6l-.2-.5-.4-.1m.6.6v9.4m-.6.6l.4-.1.2-.5m-.6.6h-2.8m-.6-.6l.1.5.5.1m-.6-.6V43.9m.6-.5l-.5.1-.1.4m.6-.5h1.3l.4.1"/><path class="st5" d="M592.9 45l.2.5v7h.2v-7l-.2-.6-1.5-1.6-.3-.2h-1.6l-.5.1-.3.3-.1.4v32.3l.1.5.3.3.5.1h2.8l.4-.1.4-.3V66.3l-.4-.3-.4-.1h-1.8m-1.4-5.8h3.5m-14.7-3.6h.8m-.8 7.2h.8m11.9-26.3l.8-.1.7-.3c2.2-1.2 1.7-4.6-.7-5.2l-.8-.1-.7.1c-2.4.5-2.9 4.1-.7 5.2l.7.3.7.1z"/><path class="st5" d="M596.4 33.6l-.3-1.1c-2.1-4.8-8.6-4.8-10.6 0l-.3 1.1m0 52.9l.3 1.1c1.9 4.9 8.7 4.9 10.6 0l.3-1.1"/><path class="st5" d="M590.8 88.4l.8-.1.7-.2c2.2-1.4 1.8-4.4-.7-5.2l-.8-.1-.7.1c-2.5.8-2.8 3.9-.7 5.2l.7.2.7.1zm-12.7-9.9l.1.9.3.9.5.8.6.7.8.5.9.3m0-45.1l-.9.3-.8.6-.6.6-.5.8-.3.9-.1 1m24 36.8V41.7m-5.9-8.7l.2 1.1.4.9.5.9.7.8.8.7 1 .4m2.3 3.9l-.1-1-.4-1-.5-.8-.8-.7-.8-.5m.3 44.6l-1 .5-.8.6-.7.8-.5.9-.4 1-.2 1m3.3-4.7l.8-.5.8-.6.5-.9.4-.9.1-1"/><path class="st5" d="M580.3 37.9l1.1-.3c1.7-.5 3.4-2.3 3.8-4l.2-1.1m.1 55.2l-.2-1.1c-.5-1.6-2.2-3.5-3.8-4l-1.1-.3m9.4-17.3l.1.4.3.3.5.2m-.9-.9v-2.3m.9-.8l-.5.1-.3.3-.1.4m0 10.8h-.1m.1-.4h-.1m2.1.4h-.2m.4-.1h-.4m.2-.3h-.2m.4.1h-.4m0 .3h-.1m.1-.4h-.1m0 .4h.1m-.1-.4h.1v.4m-1.8 0h1.2m0-.4h-1.2v.4m1.7 0h-.1m0-.4h.1v.4m-.1 0h-.4m.4-.4h-.4v.4m.4-.4v.4m-12.5-17h-.8m11.6-7.9v.4m1.9 0v-.4m-1.9 3.7v.4m1.9 0v-.4m-1.9 3.7v.4m1.9 0V56m-1.9 11.6v.4m1.9 0v-.4m-1.9 3.7v.4m1.9 0v-.4m-1.9 3.7v.4m1.9 0V75m-1.9-5.6v.5m1.9 0v-.5m-1.9-19v.5m1.9 0v-.5m-1.9 3.7v.4m1.9 0v-.4m-3.1-4.7l-.1.1m.1 21.2h-.1m.1-16.8l-.1.1m0 18.2l.1.1m-.1-16.8l.1.1m0-6.2l-.1.1m.1-.1h-.1m0 .1h-.1m.2 4.5h-.1l.1-.1m-.1.1v.1m.1 16.6h-.1m.1 0h-.1m0 .1h-.1m.1-19.8h.1m1.2 22.1v.4m1.9 0v-.4m.2 2.9v-3.5m0-3.6V51.2m0-3.5v-3.6m-31.4 1.2v.6l-.1.3-.3.1h-11.8l-.3-.1-.1-.3v-.6l.1-.3.3-.1H560l.3.1zm-.4 14.5h-11.8l-.3-.2-.1-.3v-.5l.1-.3.3-.1H560l.3.1.1.3v.5l-.1.3zm2 16.3V43.8m-11.4 6.3l.1-.4.2-.2.3-.2.3-.1m6.8.9l-.1.3-.2.3-.2.2h-.4m-6.8 3.7l.1-.3.2-.3.3-.2.3-.1m6.8 17.6l-.1.3-.2.3-.2.2-.4.1m.9-17.6l-.1.3-.2.3-.2.2h-.4m-6.8 15.9l.1-.3.2-.3.3-.1.3-.1m-.7-20.4h-.2m.9.8h-.3l-.3-.2-.2-.3-.1-.3m7.6 4.5h.1m-.9-.9l.4.1.2.2.2.3.1.3m0-4.5h-.1m-.8-.9l.4.1.2.2.2.2.1.4m-7.7 4.5h.2m.7.8h-.3l-.3-.2-.2-.3-.1-.3m7.6 16.7h.1m-.9-.8l.4.1.2.1.2.3.1.3m-7.5 0h-.2m.9.9l-.3-.1-.3-.2-.2-.3-.1-.3m6.8-20.5v.1"/><path class="st5" d="M555.6 46.2V45h-.3m-7.3 1.2h12.3M548 59.7h12.3m0-1.3H548M560.3 45H548m14-2.4l.3.3v.9h-.3m.3 0v32.3h-.3m0 1.1l.3-.3v-.8M547 77.2h15v-1.1m0-32.3v-1.2h-15m5.2 17.2h3.6M547 76.1h15m0-32.3h-15m12.4 15.8h.3m-.3-1.1h.3m-11.8 1.1h6.3m0-1.1h-6.3v1.1m6.3 0h.5m0-1.1h-.5v1.1m.5 0h.2m0-1.1h-.2v1.1m1.6 0h3.1m-3.1-1.1h3.1v1.1"/><path class="st5" d="M555.6 59.6h.7v-1.1h-.7m-.3 1.1h.3v-1.1h-.3m-.4 0h.4v1.1h-.4v-1.1zm4.5-12.3h.3m-.3-1.2h.3m-11.8 1.2h6.3m0-1.2h-6.3v1.2m6.3 0h.5m0-1.2h-.5v1.2m.5 0h.2"/><path class="st5" d="M554.9 45h-.2v1.2m1.6 0h3.1m-3.1-1.2h3.1v1.2"/><path class="st5" d="M555.6 46.2h.7V45h-.7m-.7 1.2h.4m0-1.2h-.4v1.2m.7 0h-.3V45m-3.8 5.8l5.9.1m-5.9 3v-.2m5.9.2v-.2h-5.9m0-4.3v-.2m5.9.2v-.2h-5.9"/><path class="st5" d="M551.5 50.8h5.9l.6-.2.2-.5-.2-.6-.6-.1h-5.9l-.5.1-.2.6.2.5zm0 3.1l-.5.2-.2.5.2.5.5.2m5.9 0l.6-.2.2-.5-.2-.5-.6-.2h-5.9m0 1.4h5.9v.1h-5.9zm0 15.3v-.1m5.9.1v-.1h-5.9m6.7.8l-.2-.4-.6-.3h-5.9l-.5.3-.2.4.2.5.5.3m5.9 0l.6-.3.2-.5m-6.7.8h5.9v.1h-5.9zm8.2-12.5v-1.1m0-12.3V45"/><path class="st8" d="M39.9 12.3h518.5M36.9 40.9v-33m138.7 18.5h14.9m-133 100.5h12.3m-12.3 33h12.3m-1-28.8v24.7"/><path class="st9" d="M69.5 155.8h-1.4l.7 4.1"/><path class="st8" d="M171.5 47.7V25.4M66.2 26.5H41m29.6 10.8V25.4m96.8 1.1H74.7"/><path class="st9" d="M167.4 25.7v1.4l4.2-.7m-134.7.1l4.2.7v-1.4l-4.2.7zm33.8 0l4.1.7v-1.4l-4.1.7zM36.9 12.3l4.2.6v-1.4l-4.2.8zm33.7 14.2l-4.2-.7v1.4l4.2-.7z"/><path class="st8" d="M37.4 123.1v-21.5m24.9 21.5v-21.5m-20.8 2h16.6"/><path class="st9" d="M41.5 102.9v1.4l-4.1-.7m20.7-.7v1.4l4.2-.7"/><path class="st8" d="M56.1 125.3v-12.9m-12.4 12.9v-12.9m8.3 1h-4.2m-4.1 0H3.2"/><path class="st9" d="M52 112.7v1.4l4.1-.7m-8.3-.7v1.4l-4.1-.7"/><path class="st8" d="M562.4 37.8V7.6m-2.6 112.6h16.1m-27.1 91.3v-45M455.3 209v-42.5m87.8 5.7h-82.2m30.4 35.4v-26.4m-36 27.8v-27.8m30.3 5.7h-24.7m30.4 20.7v-26.4m-59.5 29.3h-11m11 11.3h-11m5.6 5.7v5.6m0-28.3V185m28.9 26.9V193m92.5-84.9h51.4m-51.6 24.2h51.6m-5.7-18.5v12.8m-31.8.1v25m-15.3-18v18m21-5.7h23.2m-92.4-12.3v18m-8.5-17.3v17.3m8.5-16.6v16.6M484 146h-5.6m25.5 0h36.8m7.8 69.1l8.4-8.3h5.9M194.4 50.5V25.3m383.7 12V20m15.6 8.9h44.1m-44.1 62.4h44.1m-5.7-56.8v51.1m-42.7-51.1h36.7m-37.3 51.1h37.3m-5.7-45.4v39.7m-18.3-42.6V17.8m-11.3 65.9v3.8m5-66.2h-17.1"/><path class="st10" d="M452.8 120.2h16m-1.1 0h3.5m3.6 0h17.7m3.5 0h3.6m3.5 0h17.8m3.5 0h3.5m3.6 0h17.7"/><path d="M556.7 216.2h-20.3m-3.5 0h-3.6m-3.5 0H508m-3.5 0h-3.6m-3.5 0h-17.7m-3.5 0h-3.6" fill="none" stroke="#000" stroke-width=".24" stroke-linecap="round" stroke-linejoin="round" stroke-miterlimit="10"/><path class="st10" d="M605.6 60h-10.5"/></g></svg>