<svg style="background-color:#fff" version="1.1" id="Layer_1" xmlns="http://www.w3.org/2000/svg" x="0" y="0" viewBox="0 0 550 325" xml:space="preserve"><style>.st2{fill:#e6e7e8}.st3{fill:none;stroke:#000;stroke-width:.487;stroke-miterlimit:3.864}.st4{fill:#fff}.st5,.st6,.st7{fill:none;stroke:#000;stroke-width:.975;stroke-miterlimit:3.864}.st6,.st7{stroke:#6582c1;stroke-width:.78}.st7{stroke-width:1.169}.st8{font-family:Helvetica,Arial,sans-serif}.st9{font-size:11.693px}.st10{enable-background:new}.st11{font-size:12px}.st12{font-size:9px}</style><path d="M528.7 255.2v-5.4l13.7 5.4-13.7 5.5v-5.5z" fill-rule="evenodd" clip-rule="evenodd"/><path d="M80.1 255.2h449.6" fill="none" stroke="#000" stroke-width="2.437" stroke-miterlimit="3.864"/><path class="st2" d="M179.9 132.2h107.5v16H179.9v-16z"/><path class="st3" d="M179.9 132.2h107.5v16H179.9v-16z"/><path class="st4" d="M103 132.2h77.1v16H103v-16z"/><path class="st3" d="M103 132.2h77.1v16H103v-16z"/><path class="st3" d="M103.1 121h184.3v27.2H103.1V121z"/><path class="st5" d="M103.3 35h113.5m.4 0V13.8m0 0h10.5m0 0V35m.2 0h114m-.5 0V13.8m10.5 0V35m.1 0h114m0 0V13.8m0 0h76.2m-200.8 0h10.5"/><path class="st2" d="M304.2 172.3h107.5v15.9H304.2v-15.9z"/><path class="st3" d="M304.2 172.3h107.5v15.9H304.2v-15.9z"/><path class="st4" d="M227.3 172.3h77v15.9h-77v-15.9z"/><path class="st3" d="M227.3 172.3h77v15.9h-77v-15.9z"/><path class="st3" d="M227.4 161h184.3v27.3H227.4V161z"/><path class="st2" d="M428.5 212.3H536v15.9H428.5v-15.9z"/><path class="st3" d="M428.5 212.3H536v15.9H428.5v-15.9z"/><path class="st4" d="M351.6 212.3h77v15.9h-77v-15.9z"/><path class="st3" d="M351.6 212.3h77v15.9h-77v-15.9z"/><path class="st3" d="M351.7 201H536v27.3H351.7V201z"/><path class="st5" d="M80.3 80.1h22.6m.3 0V58.9m0 0h76.9m-.1 0v21.2m.2 0H228m-.5 0V58.9m76.9.1v21.2m124.6-.1h113.2M227.5 58.9h76.9m.2 21.2h47.9m-.4 0V58.9m76.7 0v21.2m-76.7-21.2h76.8"/><path class="st6" d="M80.3 95.5h20.2v14.1H80.3V95.5z"/><path class="st7" d="M80.3 109.6l13.5-14.1m-6.7 14.1l13.4-14.1m-20.2 7.1l6.8-7.1m6.7 14.1l6.7-7"/><path class="st6" d="M217.4 95.5h10.5v14.1h-10.5V95.5z"/><path class="st7" d="M217.4 106.7l10.4-11m-6.5 13.9l6.6-6.9m-10.5-3.2l3.9-4"/><path class="st6" d="M342 95.5h10.6v14.1H342V95.5z"/><path class="st7" d="M342 106.7l10.6-11.1m-6.7 14l6.7-7M342 99.5l3.9-4"/><path class="st6" d="M369.8 290.9h20.1v14.2h-20.1v-14.2z"/><path class="st7" d="M369.8 305.1l13.4-14.2m-6.7 14.2l13.4-14.2m-20.1 7.1l6.7-7.1m6.7 14.2l6.7-7.1m146.5-188.2l5.9-6.2M466 99.3l3.8-3.9m-3.7 10.9l10.3-10.8m-7 14.3L483 95.5m-6.9 14.4l13.8-14.5m-7.2 14.5l13.8-14.4m-7 14.3l13.7-14.4m-7.1 14.4l13.7-14.3m-6.9 14.3l13.6-14.3m-7 14.3l13.7-14.4m-7 14.4l13.7-14.4m-7 14.4l13.7-14.4m-7 14.5l12.6-13.3"/><path class="st5" d="M80.5 14h22.6m0 0v21.2"/><path class="st6" d="M466 95.5h76.3v14.4H466V95.5z"/><text transform="translate(304.86 274.243)" class="st8 st9">Time</text><text transform="translate(409.15 301.526)" class="st10"><tspan x="0" y="0" class="st8 st9">Camera is waiting for</tspan><tspan x="0" y="14" class="st8 st9">Frame Start trigger signals</tspan></text><text transform="translate(4 16.662)" class="st10"><tspan x="0" y="0" class="st8 st11">Frame Trigger</tspan><tspan x="0" y="14.4" class="st8 st11">Wait signal</tspan></text><text transform="translate(4 72.662)" class="st10"><tspan x="0" y="0" class="st8 st11">Frame Start</tspan><tspan x="0" y="14.4" class="st8 st11">trigger signal</tspan></text><text transform="translate(147 129.982)" class="st8 st12">Frame acquisition N</text><text transform="translate(123.5 143.482)" class="st8 st12">Exposure</text><text transform="translate(204.065 143.482)" class="st8 st12">Sensor readout</text><text transform="translate(245 183.482)" class="st8 st12">Exposure</text><text transform="translate(325.565 183.482)" class="st8 st12">Sensor readout</text><text transform="translate(373.867 223.482)" class="st8 st12">Exposure</text><text transform="translate(454.432 223.482)" class="st8 st12">Sensor readout</text><text transform="translate(275 170.257)" class="st8 st12">Frame acquisition N+1</text><text transform="translate(403.5 209.757)" class="st8 st12">Frame acquisition N+2</text><text transform="translate(395.752 300.795)" class="st8 st9">=</text></svg>