<svg version="1.1" id="Ebene_1" xmlns="http://www.w3.org/2000/svg" xmlns:xlink="http://www.w3.org/1999/xlink" x="0" y="0" viewBox="0 0 290 124" style="background-color:#fff" xml:space="preserve"><style>.st11{font-family:Helvetica,Arial,sans-serif}.st12{font-size:5px}</style><defs><path id="SVGID_1_" d="M-181.7-264.2h563.8v684.5h-563.8z"/></defs><clipPath id="SVGID_2_"><use xlink:href="#SVGID_1_" overflow="visible"/></clipPath><path d="M51.4 12.4h182.3v.6H51.4v-.6zm0 14.7h182.3v.7H51.4v-.7zm0 14.9h182.3v.6H51.4V42zm0 14.6h182.3v.7H51.4v-.7zm0 14.8h182.3v.7H51.4v-.7z" clip-path="url(#SVGID_2_)" fill="#d9d9d9"/><defs><path id="SVGID_3_" d="M-181.7-264.2h563.8v684.5h-563.8z"/></defs><clipPath id="SVGID_4_"><use xlink:href="#SVGID_3_" overflow="visible"/></clipPath><path d="M208 12.7v73.9h-.7V12.7h.7zm-52.1 0v73.9h-.7V12.7h.7zm-52.1 0v73.9h-.7V12.7h.7z" clip-path="url(#SVGID_4_)" fill="#d9d9d9"/><defs><path id="SVGID_5_" d="M-181.7-264.2h563.8v684.5h-563.8z"/></defs><clipPath id="SVGID_6_"><use xlink:href="#SVGID_5_" overflow="visible"/></clipPath><path d="M51.7 86.6l-.4-.4h182.3l-.4.4V12.7l.4.2H51.4l.4-.2-.1 73.9zM51 12.7c0-.2.2-.4.4-.4h182.3c.2 0 .4.1.4.4v73.9c0 .1-.1.2-.4.2H51.4c-.1 0-.4-.1-.4-.2V12.7z" clip-path="url(#SVGID_6_)"/><path d="M51 12.7h.7v73.9H51V12.7z" fill="#bfbfbf"/><path d="M237.4 46.8H255v1.8h-17.6v-1.8z"/><path d="M237.4 62.3H255v1.9h-17.6v-1.9z" fill="#4f81bd"/><path d="M237.4 77.9H255v1.8h-17.6v-1.8z" fill="#c0504d"/><path d="M51.4 86.3l7.9-.4 3.5-.8 3.6-2.9 1.8-2.3 1.8-3.5 3-8.4 2-11.5 1.9-13.4L78.2 33l.9-7.6.8-5.6.7-4.4.7-1.7 2 .3.8 2.8.1 3L85.6 32 87 44.3l1.7 6.7 3.2 9.7L97.2 71l2.6 2.7 1.5.5 2.3.4 1.9-.4 1.9-1 4.9-3.7 4.3-4.3 5.1-3.2 4.9-2.4 3.6-.6 7.7-.2 3.8.2 3.4.9 3.2.5 11.2 4.4 16.4 7.4 13 5.6 14.1 4.4 5.8.8 7.2 1.4 6.5 1h3l7.4.8" fill="none" stroke="#1d1d1b" stroke-width="2" stroke-miterlimit="10"/><path d="M68.5 86.5l-1.4.1 2.4-.1 3.2-2.1 1.6-1.8 1.2-1.9.9-2 1-3 .8-3.6 1-5.8.8-6.2.7-5.3.9-7.9.6-5.4.7-7.1.7-8 .4-4.5.5-4.7.1-3.7h.9l-.1.9.5-.4.1 5.6.8 9L88.3 42l2.2 12.7 2.8 11.5 2.4 7.1 2.7 5.6 1.5 1.9 1.8 1.8 2.4 1.4 3 1.4 2.7.7 3 .6 4.5.4 3.6-.3h3.1l3.5-.1 2.2-.1h1m-67.9 0h4.3" fill="none" stroke="#4f81bd" stroke-width="2" stroke-miterlimit="10"/><path d="M188.6 86l-.7-.3h-.8l-1.3-.4-1.5-.3-1.2-.4-.9-.5-.8-.5-.7-.7-.6-.8-.2-.6-1-3.6-1.8-10.1-.8-11.6-.7-9.6-1.1-14.8-.6-10.1-.5-6.7-.6-1.8-.8-.2-1.7.2h0l-.5 1-.4 1.2-.4 5.5-.5 6.6-.6 9.2-1.3 10.1-1.1 8-1.3 7.5-1.7 7.9-1.6 4.4-1.2 2.7-3 3.9-1.9 2.3-2 1.3-.8 1.2-.9.3" fill="none" stroke="#c0504d" stroke-width="2" stroke-miterlimit="10"/><text transform="rotate(-90.203 53.777 35.013)" class="st11 st12">Relative Emission Intensity (a.u.)</text><text transform="translate(121.852 111.609)" class="st11 st12">Wavelength (nm)</text><text transform="translate(261.787 48.6)" class="st11 st12">White</text><text transform="translate(262.608 64.2)" class="st11 st12">Blue</text><text transform="translate(262.608 79.7)" class="st11 st12">Red</text><text transform="translate(37.137 13.7)" class="st11 st12">1</text><text transform="translate(35.163 28.474)" class="st11 st12">0.8</text><text transform="translate(35.163 44.247)" class="st11 st12">0.6</text><text transform="translate(35.164 58.205)" class="st11 st12">0.4</text><text transform="translate(35.164 73.795)" class="st11 st12">0.2</text><text transform="translate(37.137 87.1)" class="st11 st12">0</text><text transform="translate(48.21 97.25)" class="st11 st12">400</text><text transform="translate(100.2 97.25)" class="st11 st12">500</text><text transform="translate(151.1 97.249)" class="st11 st12">600</text><text transform="translate(204.315 97.25)" class="st11 st12">700</text></svg>