<svg style="background-color:#fff" version="1.1" id="Layer_1" xmlns="http://www.w3.org/2000/svg" x="0" y="0" viewBox="0 0 740.9 564" xml:space="preserve"><style>.st0{fill:none;stroke-width:1.02;stroke-linecap:round;stroke-linejoin:round;stroke-miterlimit:10}.st0,.st1{stroke:#000}.st1,.st3{fill:none;stroke-linecap:round;stroke-linejoin:round;stroke-miterlimit:10}.st1{stroke-width:.54}.st3{stroke:#000;stroke-width:.72}.st4{font-family:Helvetica,Arial,sans-serif}.st5{font-size:18px}</style><path class="st0" d="M469.9 395.2l2.6-4.1 2-4.2.8-2.3.5-2.3.3-2.1v-2.1l.1-2.3.2-2.4 1-5.1 1.5-5.1 1.9-5 2-5 2.2-4.8 2-4.4 1.6-3.5 5.2-11.8 2.3-6 2.2-6m-276.8-1l1.9 10.8.8 5.5.6 5.6m-.9 43.5l1.2 2.4 1.4 2.3"/><path class="st1" d="M476.1 378.1l1.3 16.8m-23.9 1.2l3.1 39.5M241.4 388l3.1 39.4"/><path class="st0" d="M224.8 337.6l1.2 16.2m254.1 24.9l-.4 1.6-.5 1.9-.4 2-.5 2.1-.7 4.4-.2 2.1v2.1m24.6-69v.8l-.4 1.1m-24.2 67.1v2.5l-.4 2.6-.8 2.8-1 2.7-.8 2-.5 1.4-.2 1.1m-252-87.1l-.1-.7-.1-.7-.1-1.1m4.3 80.1l-.2-1.1-.5-1.5-.7-2-.8-2.8-.5-2.8-.1-2.7.3-2.5 1-5.2.9-5.6.8-6.1.4-6.3-.2-6.6-.2-3-.3-3-.3-2.6-.4-2.5-.3-2.1-.3-1.9"/><path class="st1" d="M503.1 327.7v-1.1l-.3-.8-.8.1m-23.2 77.9l-.5.7-.9.5-1 .2-1.2.3m-10-205.8l3.2 1.2 1.4.7.9.8 2.1 2.3 3 2.3 3.7 2 4.4 1.8 4.9 1.4 5.3 1 1.7.5 1.4.6 2.6 1.5 9 5.5 8.1 5.9 7.2 5.9 6.1 6.2 5.3 6.3 4.2 6.3 3.2 6.5 2.1 6.5 1 6.5v6.4l-1.1 6.4-2.2 6.2-3.3 6.1-4.2 5.9-5.4 5.7-6.3 5.5-7.2 5.2-8.1 4.9-2.4 1.3-1.4.5-1.6.3M221.7 190.4l11.4-3.4 12.1-2.9 12.6-2.5 13.2-2 13.5-1.6 14-1.1m.7-.1l11.2-.5 11.4-.2 11.5.1m42.4 2.8l13.7 1.7 13.5 2.2 13.3 2.6 12.9 3 12.5 3.4 12.1 3.8 11.5 4M221.4 320.4l-3.7-2-4.3-1.7-4.8-1.3-5.2-1.1-1.7-.4-1.5-.6-2.5-1.5-9-5.6-8.1-5.8-7.2-5.9-6.2-6.2-5.2-6.3-4.2-6.4-3.2-6.4-2.1-6.5-1-6.5v-6.4l1.1-6.4 2.2-6.2 3.3-6.1 4.2-5.9 5.4-5.8 6.3-5.4 7.2-5.2 8.2-4.9 2.3-1.3 1.3-.5 1.7-.3 5.2-.7 4.7-1.1 4.1-1.4 3.5-1.7 2.6-2.1 1.8-2.2.7-.7 1.3-.6 3.1-.9"/><path class="st1" d="M478.8 403.8l.4 1 .9.4-1.4 2.3-1.2 1-1.7.9-.8-.8-.6-1.1m-.7 2.5l2.1-.6m4.3-4.2l1.5-2.1 2.4-1.9 3.2-1.6 3.9-1.3 4.4-1 4.9-.5 5.2-.5 2.4-.5 1.9-.8 8.2-4.9 7.3-5.2 6.4-5.5 5.5-5.8 4.3-5.9 3.5-6.1m-402.2-51l-.6.3-.4 3.9-.1 3.6.3 6.9-.1-3.8.2-3.7m3.9 20.3l-1.5-3.1-1.2-3.2-.8-3.2-.5-3.3.8 7.8.8 3.7.9 3.6 1-1 .5-1.3"/><path class="st1" d="M509.9 395l-1.1-.7-.8-1.2-.3-1.4-1.4.9-1.8 1-2.1.8-2.3.5v1.1l.3.8m44.7-35.2l-1.4-.6-.9-1-.3-1.3-3.4 6-4.4 5.9-5.3 5.7-6.3 5.4-7.3 5.2-8.1 4.8m-4.6-64h3.8l1.7-.2 1.7-.5-.3-1.3-.8-1.3-1-.7m-283.9 72.2l-1.3-.4-1.3-.3-.9-.6-.8-.8-.4 1-1.1.4 1.8 2.4 1.4 1.2 1.9.9.8-.7.6-1.1m276-182l-1.2-.1m-5.7-2.6l.1-.1M203.4 314.3l-.2.8-.2 1-2-.1-2-.2-1.9-.2-1.7-.7.3-1.3.9-1.2 1.1-.6m-.8 73.3l.2-.7.2-1.1-2.4-.7-2.2-1-1.8-1.1-1.5-1-.4 1.4-.8 1.1-1.2.7 2.1.9 2.4.6 5.4.9"/><path class="st1" d="M189.4 379.5l-8.9-5.5-8.1-5.8-7.1-5.9-6.3-6.1-5.3-6.2-4.3-6.4-.5 1.3-1.1.9-1.3.5 4.4 6.4 5.3 6.3 6.4 6.2 7.2 6 8.2 5.9 9 5.6m9.9 2.4l5 .9 4.6 1.4 4.1 1.6 3.4 1.8 2.7 2.1 1.8 2.3m-23.1-80.3l-6 64.6m275.8-179.8l.8-.1m5.7 3.2l-.4-.4h-.6m-281.3 1.5l-.9-.1-.7.1m6.7-2.3l.2.2m-46.2 50.1v6.5l1 6.6 2.1 6.6 3.2 6.6 4.3 6.4 5.3 6.5 6.3 6.2 7.3 6.1 8.3 5.9 9.1 5.6m25.2-124.7l1.1.2m-5.1 2.2l-.8.1-.6.5m-71.7 110.6l-.3.6.3.1M510.3 327l7.6-4.6 6.9-4.8 6.1-5.1 5.2-5.2 4.4-5.6 3.4-5.6 2.6-5.8 1.6-5.9.7-6M223.6 399.7l2.1.8m282-8.8l2.6-64.7m-367.1-22.6l-.9 6.5m2.3 29.5l1.9 5.9m2.9-2.7l-1.8-2.9-1.5-2.6m400.2 6.7l-.5 4.5-1.1 4.1.3 1.3 1 1.1.4-5.9v-6.3m-1.3 18l.9-5.8"/><path class="st1" d="M544.7 353.4l-1 2.5-1.2 2.8"/><path class="st0" d="M494.2 213.1l2 .5 1.8.7 3 1.6m-35-16.3l3.3 1.3 1.4.9 1 1m-323.2 49.1l.5-3.4.7-3.5 1.1-3.3 1.3-3.3 3.4-6.4 4.5-6.2 5.6-5.9 6.4-5.6 7.5-5.4 8.3-5 3-1.4 1.8-.5 1.9-.4 3.8-.4 3.6-.7 3.3-.9 2.9-1 2.5-1.3 2.1-1.3 1.5-1.4 1-1.4 1-1.1 1.3-.8 3.1-1.1m245.4 9.4l-10.2-3.6-10.5-3.4-10.9-3.1-11.3-2.7-11.5-2.5-11.8-2.2-12-1.9-12.1-1.5m-42.4-2.8l-8.7-.2-8.6.2-8.5.2-8.4.4m-.7.1l-10.6.8-10.4 1-10.2 1.4-9.9 1.5-9.7 1.9-9.3 2.1-9 2.3-8.7 2.6m273.6 22.9l-3.9-.7-3.7-1-3.5-1.1-3.1-1.3-2.7-1.5-2.4-1.5-1.8-1.6-1.4-1.6m77.1 75.6l-.1-4.2-.5-4.1-.9-4.2-1.3-4.2-1.7-4.2-2.1-4.1-2.5-4-2.9-4.1-3.3-3.9-3.6-3.9-3.9-3.8-4.3-3.7-4.7-3.7-5-3.6-5.3-3.5-5.7-3.3m.6 111.9l-2.9 7.4-3.1 6.9-3.3 6.5-3.2 6.4-3 6.3-2.6 6.4-1.1 3.2-1 2.8-.8 2.7-.5 2.3m-255.8-38.5l-.5-3.8-.7-4.1-.7-4.5-.7-4.9"/><path class="st1" d="M501.6 327.8l1.5-.1-3 67.2-5.1.6-4.7 1-4 1.4-3.4 1.7-2.5 2-1.6 2.2 1.3-25.1m-255.8-38.5l-4.3 53.6-1.9-2.3-2.9-2.2-3.6-2-4.3-1.7-4.8-1.4-5.2-.9 5.7-67.2 5.5 1.2 5.1 1.5 4.4 2 3.7 2.1"/><path class="st0" d="M501.2 314.7l.8 11.2m-29.2 103.8l-3.5 2.6-3.9 1.9-4.4 1.2-4.4.2m17.1-25.6l1.3 16.1M221.4 320.4l-.5-7.1m235.7 122.3l-212.1-8.2M227 416.5l-1.3-16m18.8 26.9l-4.5-.6-4.2-1.4-3.7-2.2-3.1-2.8m297-10.5l-.4 1.9-1.4 1.8-2.4 1.5-3.1 1.1-3.8.7-4.2.3-4.3-.1-4.3-.6-3.9-1.1-3.4-1.4-2.5-1.7-1.7-1.8-.7-2 .4-1.8 1.4-1.8 2.3-1.5 3.2-1.1 3.8-.8 4.2-.3 4.3.2 4.2.6 4 1.1 3.4 1.4 2.5 1.6 1.7 1.9.7 1.9M163.5 518.5l369 14.2"/><path class="st1" d="M532.5 532.7l6.4-100.5"/><path class="st0" d="M126 342.9v.5"/><path class="st1" d="M126 343.4l9.4-99"/><path class="st0" d="M173.2 396.4l.3-1.9 1.4-1.7 2.4-1.5 3.1-1.2 3.8-.8 4.2-.3 4.3.2 4.3.7 4 1 3.3 1.4 2.6 1.7 1.7 1.8.6 2-.3 1.9-1.4 1.7-2.4 1.5-3.1 1.1-3.8.8-4.2.3-4.4-.2-4.2-.6-3.9-1-3.4-1.4-2.6-1.7-1.7-1.9-.6-1.9m359.3 136.3l4.2-.1 4-.6 3.3-.9 2.6-1.4 1.7-1.7.6-1.8"/><path class="st1" d="M126 343.4l-.4 9"/><path class="st0" d="M126 343.4l12.6 163.5"/><path class="st1" d="M532.5 532.7l-.6 8.8"/><path class="st0" d="M205.6 402.7l1.2-1.7.2-1.9-1-1.8-2-1.7-2.9-1.5-3.5-1.2-4-.7-4.2-.3-4 .2-3.6.7-3.1 1.1-2.2 1.4-1.2 1.8-.1 1.8 1 1.8m346.1 14.1l1.2-1.6.2-1.9-1-1.9-1.9-1.6-2.9-1.5-3.6-1.2-3.9-.8-4.2-.3-4 .3-3.8.6-3 1.2-2.1 1.4-1.2 1.7-.1 1.9.9 1.8m-352.1 96.3l17.7 8.2M135.4 244l-9.4 98.9m426.6 83.9l-3.7 99.4M125.6 352.1l.3-9m22.6-91.2l-6.3 65.9m406.6-39.4l-2.5 66.4m1.7 190.5l.9-8.9m-50.6-209.7l2.9-2m-280.3-1.4l.3 1.2.3 1.2m-29.8-20.9l-5.4-5.8-4.4-6-3.4-6.2-2.3-6.1-1.2-6.1-.2-6.1 1-6 2.1-5.9 3.1-5.8 4.2-5.5 5.2-5.4 6.2-5.1 7.2-4.8 8.1-4.5 9-4.2 9.7-3.8 10.5-3.3 11.2-3 11.8-2.5 12.3-2.1 12.8-1.6 13.2-1.1m.6-.1l9.6-.5 9.7-.3h9.8m42.4 2.8l13.3 1.9 13 2.3 12.7 2.7 12.4 3.1 11.8 3.5 11.3 3.9 10.7 4.2 10 4.5 9.3 4.8 8.5 5.1 7.6 5.3 6.8 5.6 5.8 5.6 4.9 5.9 3.8 5.9 2.9 6 1.8 6 .7 6-.2 5.9-1.4 5.9-2.3 5.7-3.4 5.6-4.5 5.4-5.4 5.2-6.3 4.9"/><path class="st0" d="M501.2 314.7l7-4.9 6-5.2 5.1-5.4 4-5.6 3-5.8 2.1-5.9.9-6-.1-6.1-1.2-6.2-2.2-6.1-3.2-6.1-4.3-6.1-5.3-5.8-6.2-5.9-7.2-5.5-8-5.4-8.8-5.2-9.7-4.9-10.4-4.5-11.1-4.3-11.6-3.9-12.2-3.5-12.6-3.1-13.1-2.8-13.3-2.3-13.6-1.8m-42.4-2.9H322l-10.6.3-10.5.6m-.7 0l-13.3 1.2-12.9 1.7-12.4 2-12 2.6-11.3 2.9-10.7 3.4-10 3.8-9.1 4.1-8.4 4.4-7.5 4.8-6.5 5.1-5.6 5.4-4.6 5.5-3.5 5.8-2.5 5.9-1.5 6-.3 6.1.7 6.2 1.8 6.2 2.9 6.2 3.8 6.1 4.9 6 5.9 5.9 6.9 5.7 7.8 5.5 8.6 5.3 9.5 5.1m232.6 82.8l2.8-1.3m13-7l.6 7.4m-13.6-.4l2.4-1.4 2.4-1.7 2.1-1.6 1.8-1.4 1.6-1.2.8-.5.7-.3h.5l.4.2.3.9m-243.4-9.3l.1-.9.3-.2.4.1.6.3.8.6 1.7 1.5 1.8 1.5 2.1 1.8 2.3 1.6 2.4 1.6 3 1.6 10.1 4 10.8 3.8 11.3 3.4 11.8 3 12.2 2.6 12.6 2.2 12.7 1.7 13 1.2 13 .7 12.9.2 12.8-.2 12.6-.7 12.3-1.2 11.9-1.6 11.4-2.2 10.9-2.5 10.3-3 9.5-3.3m-227-10.3l-.6-7.3"/><path class="st1" d="M225.9 378.5l-1.4-.7m-28.3-79.5l6-4.9 6.9-4.7 7.9-4.3 8.7-4 9.6-3.6 10.2-3.2 11-2.8 11.5-2.4 12-1.9 12.5-1.4 12.7-1 13.1-.4m.7-.1h8.4m42.5 2.9l13.1 1.8 12.8 2.4 12.5 2.8 12.1 3.2 11.6 3.6 10.9 4 10.2 4.4 9.6 4.6 8.7 5 7.8 5.2 6.9 5.4 6 5.6 5 5.7m-21.9 64.6l-5.9 3"/><path class="st1" d="M204.4 304l6-4.5 6.8-4.2 7.6-3.9 8.4-3.7 9.1-3.2 9.7-2.9 10.3-2.5 10.9-2.1 11.3-1.7 11.7-1.3 12-.8 12.2-.4m.7 0h5.7m42.5 2.8l12.2 1.8 11.9 2.2 11.7 2.6 11.3 3 10.8 3.3 10.2 3.8 9.6 4 9 4.3 8.2 4.6 7.5 4.8 6.6 5 5.7 5.2 4.9 5.4 3.9 5.4"/><path class="st0" d="M502.8 313.3l-5.9-5.6-6.7-5.5-7.7-5.3-8.5-4.9-9.3-4.8-9.9-4.5-10.7-4.2-11.2-3.8-11.8-3.4-12.2-3.2-12.6-2.6-12.9-2.3-13.2-1.8m-42.4-2.8h-9.9m-.7 0l-13.4.5-13.1.9-12.8 1.4-12.4 1.8-11.9 2.3-11.4 2.7-10.6 3.2-10.1 3.5-9.3 3.9-8.4 4.3-7.6 4.5-6.7 4.9m22.7 16.2l7-4.1 7.8-3.8 8.5-3.5 9.2-3.1 9.8-2.8 10.4-2.4 10.9-2 11.3-1.5 11.7-1.1 11.9-.7 12.2-.3m.7 0h2.5m42.4 2.8l12.6 1.9 12.4 2.2 11.9 2.8 11.6 3.1 11.1 3.6 10.3 3.8 9.8 4.3 9.1 4.5 8.3 4.8 7.3 5 6.5 5.3 5.6 5.4 4.6 5.5m-13.8 43.9l-4 2.4-4.3 2.3M227 377.6l-2.2-1.2M475 426.1l-.2.7-.4 1-.7 1-.9.9M229 420.4l-.7-1-.7-1.1-.4-1-.2-.8"/><path class="st1" d="M539.1 428.5l-64.1-2.4m74.9-2.1l-.5 1.5-1.4 1.3-2.4 1-3.1.6-3.4.1m6-66.9l4.8 62.4m-77.1 5.7l66.1 2.5.2-1.4v-2.3m-367.9-10.4l57.8 2.3m-86.9-95.1l.4 9 .2 4.2.3 4 .5-1.3 1.1-.8m-2.5-15.1l-.7-5.7-.4-3.2-.3-3.4.5-1.2 1.1-.9m.9-6.5l-4.8-62.4m-3 2.4l.5-1.2 1.1-.9 1.4-.3m-3 2.4l5.3 68.6m8.5-75.5l3.3.2m-14.1 4.3l.4-1.5 1.5-1.3 2.4-1 3.1-.6 3.4-.1v-.3m-13.8 6.8v.4m7.6 98.1l5 64.8.5-1.2 1.1-.9 1.4-.3-4.5-58.6"/><path class="st1" d="M148 407.3l.6 1.2 1.7 1.1.3-1.4.7-1.1 1.1-.8-1-.6-.4-.8m15.2 12.1l.3-1.3.7-1.2 1.1-.7-15.9-7.5"/><path class="st1" d="M150.3 409.6l15.9 7.4 2.3.8 2.7.3.1-1.4v-2.3l-1.7-.2-1.3-.4m58.7 2.7l-55.7-2.1m381.3 11.9l-.5-1.1-.9-.9-1.3-.3m-11 8.2h3.6l3.2-.5 2.8-.8 2.2-1.1 1.4-1.4.5-1.6m-5.3-69.1l-.4-1.1-.9-.8"/><path class="st0" d="M152.6 237.4l-3.4-.2h-2.3l-2.3.2-2.1.4-2 .6-1.8.9-1.5 1.1-1.2 1.6-.6 2m417.2 182.8v-.5l-5.3-68.6m-.9-14.3l.4 7.5.2 3.6.3 3.2"/><path class="st1" d="M163.5 518.5l7.7-100.4m-32.6 88.8l-.3 8.9m27.9-98.8l-7.7 100.4"/><path class="st0" d="M158.5 517.4l2.3.8 2.7.3"/><path class="st1" d="M163 527.3l.5-8.8m-5-1.1l-.5 8.9m-17.5-8.2l.3-8.9"/><path class="st0" d="M140.8 509.2l-1.6-1.1-.6-1.2"/><path class="st1" d="M148 407.3l-9.4 99.6m2.2 2.3l9.5-99.6m332.2-55.5l-5.2-4.9-6-4.7-6.8-4.6-7.4-4.3-8.1-4.2m-42.3-15l-9.5-2.3-9.9-2-10.1-1.8-10.2-1.4m-42.4-2.8l-12.1.1-11.9.6-11.7.9-11.4 1.5-11 1.8m-34.9 9.8l-8.6 3.6m-93.7 75.7v-.5.1m5.5 72.6v-.4.1m3.5 44.1v-.3l-3.5-43.9m6.4 47.9l-.5-.6-.2-1.1-1.6-1.1-.6-1.2m20.4 12.1l-.6-.6-.1-1-17.5-8.2m22.4 10.8v-.4l.1-1.2-2.7-.3-2.3-.7M531.7 543l.1-.4.1-1.1L163 527.3m385 8l-.7 1.8-1.6 1.6-2.6 1.3-3.3.9-3.8.5-4.1.1M125.6 352.7v-.6m3.7 47.5l-3.7-47.2m3.8 48.8v-1.1l-.1-.5m5.4 69.4v-.2l-5.3-67.7m5.4 70.8v-1.7l-.1-1.4"/><path class="st0" d="M129.3 400.1v-.4m5.5 72.6v-.3m0 .3l3.5 43.8.4 1.5.7 1 1.8 1.2 17.5 8.1 2 .7 2.2.3L531.7 543h2.8l2.7-.2 2.6-.5 2.3-.7 2.1-1 1.8-1.3 1.3-1.8.7-2.2M125.6 352.1v.6l3.7 47m0 .4l.1.3v.8l5.3 67.8.1 1.3v1.7m347.4-117.3l-3.1-2.9-3.4-2.8-3.7-2.8-4-2.8-4.2-2.7-4.5-2.6-4.7-2.6-5-2.4m-50.2-17l-7.9-1.7-8-1.6-8.2-1.3-8.3-1.1m-42.4-2.8h-6.7l-6.7.1-6.5.3-6.5.4-6.4.5-6.4.7-6.1.8-6.2.9m-42.4 11l-7.5 3.1m66.1-13.5l-2.6-.2h-2.5"/><path class="st0" d="M281.3 311.6l3.6-.3 3.7.2 3.6.5m96 3.7l-2.5-.2h-2.5"/><path class="st0" d="M380.3 315.4l3.5-.3 3.8.1 3.6.6m89.9 41.6l-2.8-1.2-3.3-.9-3.7-.5-3.6-.1-3.6.3-3 .8-2.5 1.1-1.6 1.4-.7 1.5"/><path class="st0" d="M477.9 366.3l-3.5.5h-3.7l-3.8-.4-3.4-.8-3-1.2-2.4-1.4-1.4-1.6-.4-1.7.6-1.6 1.5-1.5 2.4-1.1 3.1-.8 3.6-.4 3.8.1 3.7.5 3.4 1 2.8 1.2"/><path class="st1" d="M451.3 350.5l-.2-1.2m3.7 46.2l-2.2-28.4m-.1-.7l-1.2-15.9m-225-8.7l1.2 16m0 .7l1.7 20.8m-1.1-42.9l-1.1 1.8-.6 1.8-.1 1.8m39.8 47.4l-3.9-1.7-3.3-1.8-2.4-2.1-1.6-2.2-.7-2.3-1.7-.4.7 2.4 1.8 2.5 2.8 2.3 3.7 2 4.4 1.7 5 1.4 5.4.9 5.5.4v-.3m127.3 5.2l-.1-.4m-127.2-4.5l127.3 4.9h5.5l5.2-.5 4.9-1 4.1-1.4 3.5-1.8 2.4-2 1.4-2.4.4-2.4-1.8.4-.3 2.1-1.1 2-1.9 1.8-2.7 1.6-3.3 1.3-3.9 1"/><path class="st1" d="M432.6 335.6l-1.8.4 3.9 50.1"/><path class="st1" d="M436.5 385.7l-3.9-50.1-.7-2.4-1.8-2.5-2.8-2.3-3.7-2-4.4-1.7-5-1.4-5.4-.9-5.5-.4v1.2l5.2.4 5 .9 4.7 1.2 4.2 1.7 3.4 1.9 2.6 2.1 1.7 2.3.7 2.3M276 317.1v1.2l47.7 1.8m42.5 1.7l37.1 1.4m0-1.2l-37-1.4"/><path class="st1" d="M323.8 318.9l-47.8-1.8h-5.5l-5.3.5-4.8 1-4.2 1.4-3.3 1.8-2.5 2-1.4 2.4-.4 2.4 1.7.4.4-2.2 1.3-2.2 2.3-1.9 3.2-1.7 3.9-1.3 4.5-.9 5-.5h5.1m-21.8 60.8l-3.9-50.1m-1.7-.4l3.9 50.1m-26.2-36.9l.9-.3.5-.8.1-1.3m3 41.4l-1.7-22.2m0-.8l-1.4-17.1m223.6 9.8h-.1"/><path class="st0" d="M266.1 389.2l3.5 1 3.9.9 4.1.6 4.2.3 127.2 4.8 3.3.1 3.2-.2 3.1-.3 2.9-.5m7.6-6l-3.9-50.1"/><path class="st1" d="M403.2 329.6v.3"/><path class="st0" d="M403.2 329.9l4.1.3 4.1.7 3.8 1 3.3 1.3 2.8 1.5 2.3 1.7"/><path class="st0" d="M425.2 339.8l-.7-2.1-1.7-2.1-2.7-1.9-3.4-1.6-4.2-1.3-4.5-.8-4.8-.4"/><path class="st1" d="M276 324.7l-.1.3"/><path class="st0" d="M275.9 325l49.5 1.9m39.2 1.5l38.6 1.5m0-.3l-38.3-1.5m-39.9-1.5l-49-1.9m-18.4 4.2l2.6-1.4 3.2-1.2 3.9-.8 4.2-.4 4.4-.1"/><path class="st0" d="M276 324.7h-4.8l-4.4.6-4 .9-3.2 1.4-2.4 1.7-1.4 1.9-.4 2.1 3.9 50.1v.4m169.7 7.6l.1-1.5"/><path class="st1" d="M255.4 333.3l-.4-1.1-.8-.9.3-1.9 1.1-1.9 2-1.6 2.6-1.4 3.4-1.1 3.8-.8 4.2-.4h4.4v2.5m127.3 2.4v1.2l-.1 1.3m.1-2.5l-37.3-1.5m-42.3-1.6l-47.7-1.8m127.3 4.9l4.4.3 4.3.7 4 1.1 3.5 1.4 3 1.6 2.2 1.8 1.4 2 .6 1.9-.9.9-.6 1m3.9 50.1l.5-1 1-.8-3.9-50.2M276 318.3v3.1m127.3 4.9l-37.3-1.4m-42.5-1.6l-47.5-1.9m127.3 1.8v3.1m-153 2.7l3.2 1.9"/><path class="st1" d="M276 321.4l-4.5.1-4.3.4-4 .8-3.4 1.1-2.8 1.5-2 1.7-1.2 1.9-.3 2m.7 48.2l3.2 1.9-3.9-50.1m3.9 50.1l.5 1.9 1.3 1.8 1.9 1.8 2.7 1.6 3.2 1.4m164.3-1.8l3.4-1.6m-14.1 10l3.8-1.1 3.1-1.5 2.2-1.8 1.3-1.9.3-2.1-.7.4-.3 1.8-1.1 1.9-1.9 1.6-2.7 1.4"/><path class="st1" d="M257.4 381l.7.4.6 2.2 1.8 2.1 2.6 2"/><path class="st1" d="M258.1 381.4l.8.9.4 1.1m-5.1-52.1l3.9 50.1m-4.6-50.5l.7.4m21.8-9.9v.8m151.4 15.4l-.6-2.1-1.4-2-2.3-1.8-3.1-1.7-3.6-1.4-4.1-1.1-4.5-.8-4.5-.4v.8"/><path class="st1" d="M430.8 336l-3.4 1.6-.7.3m4.6 49.8l-3.9-50.1"/><path class="st0" d="M420.6 396.1l2.2-.6 1.8-.7 2-1 1.3-.9.8-.9.3-.6m-169.7-7.6l.2.6.7.9 1.2 1.2 1.7 1.2 1.8.9 2.1.9"/><path class="st1" d="M443.4 329.8l-.6-2.2-1.7-2.2-2.5-2.1-3.3-1.8-3.9-1.5-4.5-1.3-4.9-.8-5-.4-50.4-1.9m-42.5-1.7l-62.6-2.4-5 .1-4.7.4-4.3.9-3.8 1.3-3 1.6-2.2 1.8-1.4 2.1-.3 2.1 4.9 62.7.7 2.4 1.8 2.3m20.2 7.3l3.7.3 155.5 6h4.5l4.3-.4 4-.7m3.7-1.1l3-1.2 2.3-1.5 1.7-1.7.9-1.9.3-1.8-4.9-62.7m4.9 62.7l2.3.4 2.1 1.2 1.5 1.7m-30.5 9v-1.2l-.1-.8m-155.5-5.1v-.9m47.9 11l65.5 2.5"/><path class="st1" d="M237.2 385.7l2.2-.9 2.3-.3m-12.3-56.9l.8-2.3 1.7-1.9 2.3-1.2 2.6-.4m-7.4 5.8l2.3 30.4m.1.7l1.9 24.5m-6-42.5l1.7-13.1m31.9-16.8l.1.2.1.5m-32.1 14.8v1.3m187.5-10.8l.1.2v.5m33.1 18.1l-.7-2.2-1.4-1.8-2.1-1.3-2.5-.5"/><path class="st0" d="M261.3 310.8H256l-5.1.5-4.8.9-4.5 1.4-4.1 1.9-3.6 2.6-1.6 1.6-1.3 2-1 2.2-.6 2.4-1.6 13.1m189.1-22.6l-50.2-1.9m-42.6-1.7l-62.8-2.4m188.8 24.8l-.5-2.6-1-2.3-1.3-2.1-1.5-1.8-3.6-3-4.3-2.4-4.8-1.8-5.2-1.4-5.4-1-5.6-.4m37.8 78.8l-2.2-28.5m-.1-.7l-2.3-30.8M130.5 441l2.2 29.1m-2.8-28.4l.1-.3.5-.4m1.5 28.3l-2.1-27.6m2.8 28.4l-.5-.4-.2-.4m-3.7-47.7l-.5-6.3m1.2 7l-.5-.4-.2-.3m.1-7.1l.6 7.8m-1.2-7l.1-.4.5-.4m-.8-2.1l-.5-6.2m1.2 7l-.5-.3-.2-.5m.1-6.9l.6 7.7m-1.2-7l.2-.4.4-.3m5 101.9l-.7-.9-.2-.9m1.3-4.2l-.4 6m-.7-4.4l.3-.9.8-.7m-1.3 4.2l.2-2.6m-2.1 8.7l.6.6m-5.4-94.2l-1.2-.1-.8.6-.4 1.2"/><path class="st1" d="M125.8 417.8l-.7.3"/><path class="st0" d="M122.5 422.3l.2-2.5m5.6-6.6l.9.9 1 .7m.3.2l-.3-.2m-.3-8.6l-.3-.2-1.1-.4-.8-.1"/><path class="st1" d="M125.1 416l2.5-3.6"/><path class="st0" d="M125.1 416l.3.6.7.9"/><path class="st1" d="M130.1 415l.1-.2"/><path class="st0" d="M129 422.3l.9.9 1 .7m.3.2l-.3-.2m-.4-8.6l-.2-.2-1.1-.4-.8-.2"/><path class="st1" d="M125.8 425l2.5-3.4"/><path class="st0" d="M125.8 425l.3.8.9 1 1.2.9"/><path class="st1" d="M128.2 427.7l2.7-3.8m-3.6 21.4l2.6-3.6"/><path class="st0" d="M129.4 472.8l-2.1-27.5"/><path class="st1" d="M129.4 472.8l2.6-3.5"/><path class="st0" d="M132.3 441.6l-1-.5-.8-.1m-3.1 4l-.1.3m7.4 54.7l-.9.5-.7.9"/><path class="st1" d="M131.2 498.2l3.5 1.8"/><path class="st0" d="M131.2 498.2l-1 .8-.8 1.2-.4 1.3"/><path class="st1" d="M129 501.5l3 1.5"/><path class="st0" d="M134.2 507.6l-.9.1-.6-.3m1.5.2l2.5-.9"/><path class="st1" d="M136.7 506.7l.4-5.8"/><path class="st0" d="M134.7 500l2.2-.9m-2.1 11.7l1.1-.3.4.2m-1.5.1l-2.2 1m-2.1.5l.9-.1 1.2-.4m-7.8-75.5l-1.2.7-.9.9-.3.8m5.3 69.1l-5.3-69.1m6.1-4.1l-3.7 1.7m3.7-1.7l1.1-.4"/><path class="st1" d="M130.9 433.4l.6 6.8m2.8 36.6l1.6 20.1"/><path class="st0" d="M130.9 433.4l-.3.5-1 .3"/><path class="st1" d="M133.3 497.5l-1.6-22.2m-2.7-34.9l-.5-5.8m2.4-1.2h1.1"/><path class="st0" d="M131 429.2l-.1 1.7v2.5m5.7 73.3l.2-.1m-6.1-77.5l-.1 2.5v2.3"/><path class="st1" d="M130.9 433.5v-.1m3.9 77.4l.2-3.5"/><path class="st0" d="M132.1 507.1l-1.8.8"/><path class="st1" d="M132.6 511.8l-2.3-3.9"/><path class="st0" d="M124.6 425.8l-1.1-.8-.7-1.3-.3-1.4"/><path class="st1" d="M136.3 510.7l.3-4"/><path class="st0" d="M127.7 507.8l.4.5h1l1.2-.4m-5.7-82.1l2.4 1m-1.9-8.7l.4.2m-.4-2.3l-.5-6.3m0-.3v.3"/><path class="st1" d="M124.6 409.7l2.5-3.5m-1.8 12.6l2.5-3.5"/><path class="st0" d="M125.3 418.8l.5 6.2m5.9 4.7l-3.5-2m-2.8-9.2l-.1.3"/><path class="st1" d="M137.5 506.6h-.3l.1-2.4"/><path class="st0" d="M136.8 496.8l-1.7.1-1.3.4"/><path class="st1" d="M131.8 505.6l-3-1.5"/><path class="st0" d="M129.6 505.8l-.6-.7-.2-1m2.4-5.9l2.6-.9m2.5 13.5l.1.9.2-.1.2-.9.2-1.7.2-2.4m-8.4-2.5l.2-2.6m8.2 5.1l-.5.1m-4-36.6l.9.8 1.1.8m.1.1l-.1-.1m-2.1-29.9l-.3-.2m3 35.8l-3.4-2m-2.5-2.6l.4.8.9.9 1.2.9"/><path class="st1" d="M131.9 475.4l2.8-3.7"/><path class="st0" d="M131.9 440.5l.6.4"/><path class="st1" d="M131.4 441.1l.5-.6"/><path class="st0" d="M129.4 439.7l.5-.1.9.3 1.1.6m-5.4 3.1l-.2 1m1.1 1.7l-.8-.9-.3-.8m.2-1l.5-.3 1.3.4m8 67v.1m-10.6-93.6l-2 .9m3.7 26.9l2.6-3.6m-.1 70.3l-2.1-3.7m-3.2-98.6l2.6-3.6m-1.8 12.7l2.5-3.6m5.1 92.7l-3.4-1.8m8.3 6l-1.4-.1m-9.9-68.3l2.8-3.7m95.9 91.6l-.2 2-.1-2.1m20.8.9l-.1 2-20.6-.8m56.6.2l-.2 4.2-24.8-.9-.3-4.4m.6.1l-.3 4.3m197.9 3.3l-.1 2.6-24.8-1-.2-2.6m.4 0l-.2 2.6"/><path class="st1" d="M509.3 542.2l-4.1.3-4.3-.1-4.3-.3-4.2-.6"/><path class="st0" d="M515.8 542.4l-3.6.9-3.9.6-3.9.3-4-.1-3.9-.3-4-.6-3.8-.8-3.6-1.1"/><path class="st1" d="M192.6 530l-4.2.3h-4.2l-4.3-.3-4.2-.6"/><path class="st0" d="M199 530.3l-3.6.9-3.7.5-4 .3h-4l-4-.3-3.9-.6-3.8-.9-3.7-1.1M365.3 25l3.2-4 1.4-1.6 1.4-1.2 1.4-.6 1.7-.1 1.5.7 1.3 1.2 2.6 3.2 1.3 2 1.2 2.2 1.2 2.1.9 2.1.6 1.8.2 1.4-.1 1.2-.6.6-1 .1-1.3-.5-1.6-.7-1.6-.7-1.6-.4-1.8.1-1.9 1-1.7 1.6-1.7 2.3-1.8 2.4-2 2.8-2.3 2.7-2.9 2-1.5.7-1.7.3h-1.7l-1.7-.3-3.1-1.4-2.9-2-2.6-2.6-2.1-2.7-.7-1.3-.5-1.2-.2-1.2v-1l.2-.8.5-.8 1.7-.9 2.3-.4 2.7-.2 2.9-.3 1.6-.3 1.6-.4 1.7-.6 1.5-.8 2.8-2.1 2.4-2.5"/><path class="st0" d="M364.3 29.6l-2.1 2.1-2.4 1.8-2.7 1.5-2.6 1-2.4.9-1 .4-.8.6-.6.7-.3.9.1.9.4 1.2.8 1.1 1 1.2 1.4 1 1.5.8 1.8.6h1.9l2-.4 1.9-1 1.8-1.5 1.6-1.7 2.8-3.8 1.2-1.8 1-1.4.8-1.1.6-.8 1.5-1.5 1.5-1.1 1.3-.7 1.1-.4.8-.5.4-.9-.2-1.4-.6-1.5-1-1.5-1.2-1.3-1.5-.7-1.7.1-1.6.9L369 24l-1.9 2.3-2 2.4m.9 296.9l-.7 2-1.7 1.9-2.7 1.5-3.4 1.3-4.1.8-4.5.4-4.8-.1-4.7-.5-4.4-1-4-1.4-3.3-1.6-2.4-2-1.4-2.1-.4-2.1m61.7-288L366 325.6M342.5 36.3L325.6 292m-.2 2.5l-1.9 28.2"/><path d="M423.8 392.4l.5-.5m2.8-2.8l.5-.5m-15.3 5.7l.5-.5m2.8-2.8l.5-.5m2.9-2.8l.5-.5m2.9-2.9l.4-.5m2.9-2.9l.4-.4m-21.9 12.4l.5-.5m2.8-2.9l.5-.4m2.9-2.9l.5-.5m2.9-2.8l.4-.5m2.9-2.9l.4-.5m2.9-2.8l.5-.5m2.9-2.9l.5-.4m-32 22.4l.4-.5m2.9-2.9l.5-.4m2.8-2.9l.5-.4m2.9-2.9l.5-.5m2.8-2.9l.5-.5m2.9-2.8l.4-.5m2.9-2.8l.5-.5m2.8-2.9l.5-.5m2.9-2.8l.5-.5m2.8-2.9l.5-.4m-38.7 29.1l.5-.5m2.9-2.9l.5-.5m2.8-2.8l.5-.5m2.8-2.9l.5-.4m2.9-2.9l.5-.5m2.9-2.8l.4-.5m2.9-2.9l.4-.5m2.9-2.8l.5-.5m2.9-2.8l.5-.5m2.8-2.9l.5-.5m2.8-2.9l.5-.4m2.9-2.9l.5-.4m2.9-2.9l.4-.5m-48.7 39.1l.5-.5m2.9-2.8l.5-.5m2.8-2.8l.5-.5m2.8-2.9l.5-.5m2.9-2.8l.5-.5m2.8-2.9l.5-.4m2.9-2.9l.4-.5m2.9-2.9l.5-.4m2.9-2.9l.5-.5m2.8-2.8l.5-.5m2.8-2.9l.5-.5m2.9-2.8l.5-.5m2.8-2.9l.5-.4m2.9-2.9l.4-.5m2.9-2.8l.5-.5m-58.7 49.1l.4-.4m2.9-2.9l.5-.5m2.9-2.8l.4-.5m2.9-2.9l.5-.5m2.8-2.8l.5-.5m2.9-2.8l.5-.5m2.8-2.9l.5-.5m2.9-2.9l.4-.4m2.9-2.9l.5-.4m2.8-2.9l.5-.5m2.9-2.9l.5-.5m2.8-2.8l.5-.5m2.8-2.8l.5-.5m2.9-2.9l.5-.5m2.9-2.8l.4-.5m2.9-2.9l.4-.4m2.9-2.9l.5-.5m2.9-2.9l.5-.5M357 392.4l.4-.5m2.9-2.8l.5-.5m2.8-2.9l.5-.4m2.9-2.9l.5-.5m2.8-2.9l.5-.4m2.8-2.9l.5-.5m2.9-2.8l.5-.5m2.9-2.9l.4-.5m2.9-2.8l.4-.5m2.9-2.9l.5-.4m2.9-2.9l.5-.5m2.8-2.8l.5-.5m2.8-2.9l.5-.5m2.9-2.8l.5-.5m2.9-2.8l.4-.5m2.9-2.9l.4-.5m2.9-2.9l.5-.4m2.9-2.9l.5-.4M348.9 391l.4-.5m2.9-2.8l.4-.5m2.9-2.9l.5-.5m2.9-2.9l.5-.4m2.8-2.9l.5-.4m2.8-2.9l.5-.5m2.9-2.9l.5-.5m2.8-2.8l.5-.5m2.9-2.8l.4-.5m2.9-2.9l.5-.5m2.9-2.8l.4-.5m2.9-2.9l.5-.4m2.8-2.9l.5-.5m2.9-2.9l.5-.4m2.8-2.9l.5-.5m2.9-2.8l.4-.5m2.9-2.9l.5-.5m2.8-2.8l.5-.5m-68.7 59.2l.5-.5m2.8-2.9l.5-.4m2.9-2.9l.4-.5m2.9-2.8l.5-.5m2.9-2.9l.4-.5m2.9-2.8l.5-.5m2.8-2.9l.5-.4m2.9-2.9l.5-.5m2.8-2.8l.5-.5m2.9-2.9l.4-.5m2.9-2.8l.5-.5m2.8-2.8l.5-.5m2.9-2.9l.5-.5m2.8-2.9l.5-.4m2.8-2.9l.5-.4m2.9-2.9l.5-.5m2.9-2.9l.4-.5m2.9-2.8l.4-.5m2.9-2.8l.5-.5m-68.7 59.1l.4-.4m2.9-2.9l.5-.4m2.9-2.9l.4-.5m2.9-2.9l.5-.5m2.8-2.8l.5-.5m2.9-2.8l.5-.5m2.8-2.9l.5-.5m2.8-2.8l.5-.5m2.9-2.9l.5-.4m2.9-2.9l.4-.5m2.9-2.9l.4-.4m2.9-2.9l.5-.5m2.9-2.8l.5-.5m2.8-2.9l.5-.5m2.8-2.8l.5-.5m2.9-2.9l.5-.4m2.8-2.9l.5-.5m2.9-2.8l.4-.5m2.9-2.9l.5-.5M321.1 390l.5-.5m2.9-2.8l.5-.5m2.9-2.9l.4-.4m2.9-2.9l.4-.5m2.9-2.8l.5-.5m2.9-2.9l.5-.5m2.8-2.8l.5-.5m2.8-2.8l.5-.5m2.9-2.9l.5-.5m2.8-2.9l.5-.4m2.9-2.9l.4-.4m2.9-2.9l.5-.5m2.9-2.9l.4-.5m2.9-2.8l.5-.5m2.8-2.8l.5-.5m2.9-2.9l.5-.5m2.8-2.9l.5-.4m2.9-2.9l.4-.4m2.9-2.9l.2-.2m-71.8 62.2l.5-.5m2.8-2.8l.5-.5m2.9-2.8l.5-.5m2.8-2.9l.5-.5m2.9-2.8l.4-.5m2.9-2.9l.5-.4m2.8-2.9l.5-.5m2.9-2.9l.5-.4m2.8-2.9l.5-.5m2.9-2.8l.5-.5m2.8-2.9l.5-.5m2.9-2.8l.4-.5m2.9-2.9l.5-.4m2.8-2.9l.5-.5m2.9-2.8l.5-.5m2.8-2.9l.5-.5m2.8-2.8l.5-.5m2.9-2.8l.5-.5m2.9-2.9l.4-.5m-68.7 59.2l.5-.5m2.8-2.8l.5-.5m2.9-2.9l.4-.5m2.9-2.8l.5-.5m2.9-2.8l.4-.5m2.9-2.9l.5-.5m2.8-2.9l.5-.4m2.9-2.9l.5-.4m2.8-2.9l.5-.5m2.8-2.9l.5-.5m2.9-2.8l.5-.5m2.9-2.8l.4-.5m2.9-2.9l.4-.5m2.9-2.8l.5-.5m2.9-2.9l.5-.4m2.8-2.9l.5-.5m2.8-2.9l.5-.5m2.9-2.8l.5-.5m-65.4 55.9l.5-.5m2.8-2.9l.5-.4m2.8-2.9l.5-.5m2.9-2.9l.5-.4m2.9-2.9l.4-.5m2.9-2.8l.4-.5m2.9-2.9l.5-.5m2.9-2.8l.5-.5m2.8-2.9l.5-.4m2.8-2.9l.5-.5m2.9-2.8l.5-.5m2.8-2.9l.5-.5m2.9-2.8l.4-.5m2.9-2.8l.5-.5m2.9-2.9l.4-.5m2.9-2.9l.5-.4m2.8-2.9l.5-.4M282 391l.5-.5m2.9-2.8l.5-.5m2.8-2.9l.5-.5m2.8-2.9l.5-.4m2.9-2.9l.5-.4m2.8-2.9l.5-.5m2.9-2.9l.4-.5m2.9-2.8l.5-.5m2.8-2.8l.5-.5m2.9-2.9l.5-.5m2.8-2.8l.5-.5m2.9-2.9l.4-.4m2.9-2.9l.5-.5m2.9-2.9l.4-.4m2.9-2.9l.5-.5m2.8-2.8l.5-.5m2.9-2.9l.5-.5m2.8-2.8l.5-.5m-65.4 55.8l.5-.4m2.8-2.9l.5-.5m2.9-2.8l.5-.5m2.8-2.9l.5-.5m2.9-2.8l.4-.5m2.9-2.9l.5-.4m2.9-2.9l.4-.5m2.9-2.8l.5-.5m2.8-2.9l.5-.5m2.9-2.8l.5-.5m2.8-2.8l.5-.5m2.8-2.9l.5-.5m2.9-2.9l.5-.4m2.9-2.9l.4-.4m2.9-2.9l.4-.5m2.9-2.9l.5-.5m2.9-2.8l.5-.5m2.8-2.8l.5-.5m-65.4 55.8l.4-.4m2.9-2.9l.5-.5m2.9-2.9l.5-.5m2.8-2.8l.5-.5m2.8-2.8l.5-.5m2.9-2.9l.5-.5m2.9-2.8l.4-.5m2.9-2.9l.4-.4m2.9-2.9l.5-.5m2.9-2.9l.5-.4m2.8-2.9l.5-.5m2.8-2.8l.5-.5m2.9-2.9l.5-.5m2.8-2.8l.5-.5m2.9-2.9l.4-.4m2.9-2.9l.5-.5m2.8-2.8l.5-.5m2.9-2.9l.5-.5m2.8-2.8l.3-.3M261 383.3l.5-.4m2.9-2.9l.5-.5m2.8-2.8l.5-.5m2.8-2.9l.5-.5m2.9-2.8l.5-.5m2.8-2.8l.5-.5m2.9-2.9l.4-.5m2.9-2.9l.5-.4m2.8-2.9l.5-.4m2.9-2.9l.5-.5m2.8-2.9l.5-.5m2.9-2.8l.4-.5m2.9-2.8l.5-.5m2.9-2.9l.4-.5m2.9-2.9l.5-.4m2.8-2.9l.5-.4m2.9-2.9l.5-.5m-55.4 45.8l.5-.4m2.8-2.9l.5-.5m2.8-2.9l.5-.4m2.9-2.9l.5-.5m2.9-2.8l.4-.5m2.9-2.9l.4-.5m2.9-2.8l.5-.5m2.9-2.9l.5-.4m2.8-2.9l.5-.5m2.8-2.8l.5-.5m2.9-2.9l.5-.5m2.9-2.8l.4-.5m2.9-2.8l.4-.5m2.9-2.9l.5-.5m2.9-2.9l.5-.4m-45.4 35.8l.5-.5m2.9-2.9l.4-.5m2.9-2.8l.4-.5m2.9-2.8l.5-.5m2.9-2.9l.5-.5m2.8-2.8l.5-.5m2.8-2.9l.5-.4m2.9-2.9l.5-.5m2.8-2.9l.5-.5m2.9-2.8l.4-.5m2.9-2.8l.5-.5m2.8-2.9l.5-.5m-38.6 29.2l.4-.5m2.9-2.9l.5-.5m2.8-2.8l.5-.5m2.9-2.8l.5-.5m2.8-2.9l.5-.5m2.8-2.9l.5-.4m2.9-2.9l.5-.4m2.9-2.9l.4-.5m2.9-2.9l.5-.5m-28.7 19.1l.5-.4m2.9-2.9l.5-.5m2.8-2.8l.5-.5m2.8-2.9l.5-.5m2.9-2.8l.5-.5m2.9-2.9l.4-.4m2.9-2.9l.4-.5m-21.9 12.4l.5-.5m2.8-2.8l.5-.5m2.9-2.8l.5-.5m2.8-2.9l.5-.5m2.9-2.9l.4-.3m-7.1 61.5l-.5-.5m-2.9-2.9l-.3-.3m15.2 5.6l-.5-.5m-2.9-2.9l-.5-.4m-2.9-2.9l-.4-.5m-2.9-2.9l-.4-.4m-2.9-2.9l-.5-.5m25.3 15.8l-.5-.5m-2.8-2.8l-.5-.5m-2.9-2.9l-.5-.5m-2.9-2.9l-.4-.4m-2.9-2.9l-.4-.4m-2.9-2.9l-.5-.5m-2.9-2.9l-.5-.5m-2.8-2.8l-.5-.5m-2.8-2.8l-.5-.5m35.3 25.7l-.5-.4m-2.8-2.9l-.5-.5m-2.9-2.8l-.5-.5m-2.8-2.9l-.5-.5m-2.9-2.8l-.4-.5m-2.9-2.9l-.5-.4m-2.8-2.9l-.5-.5m-2.9-2.8l-.5-.5m-2.8-2.9l-.5-.5m-2.8-2.8l-.5-.5m-2.9-2.8l-.5-.5m-2.9-2.9l-.4-.5m48.7 39.1l-.5-.4m-2.9-2.9l-.5-.4m-2.8-2.9l-.5-.5m-2.8-2.9l-.5-.5m-2.9-2.8l-.5-.5m-2.9-2.8l-.4-.5m-2.9-2.9l-.4-.5m-2.9-2.8l-.5-.5m-2.9-2.9l-.5-.4m-2.8-2.9l-.5-.5M273 358l-.5-.4m-2.9-2.9l-.5-.5m-2.9-2.8l-.4-.5m-2.9-2.9l-.4-.5m-2.9-2.8l-.5-.5m55.4 45.8l-.5-.5m-2.9-2.8l-.5-.5m-2.8-2.9l-.5-.4m-2.8-2.9l-.5-.5m-2.9-2.8l-.5-.5m-2.8-2.9l-.5-.5m-2.9-2.8l-.4-.5m-2.9-2.8l-.5-.5m-2.9-2.9l-.4-.5m-2.9-2.9l-.5-.4m-2.8-2.9l-.5-.4m-2.9-2.9l-.5-.5m-2.8-2.9l-.5-.5m-2.9-2.8l-.4-.5m-2.9-2.8l-.5-.5m-2.8-2.9l-.5-.5m-2.9-2.9l-.5-.4m-2.8-2.9l-.5-.4m68.7 59.1l-.4-.5m-2.9-2.8l-.5-.5m-2.9-2.8l-.4-.5m-2.9-2.9l-.5-.5m-2.8-2.8l-.5-.5m-2.9-2.9l-.5-.4m-2.8-2.9l-.5-.5m-2.9-2.9l-.4-.4m-2.9-2.9l-.5-.5m-2.8-2.8l-.5-.5m-2.9-2.9l-.5-.5m-2.8-2.8l-.5-.5m-2.8-2.9l-.5-.4m-2.9-2.9l-.5-.5m-2.9-2.8l-.4-.5m-2.9-2.9l-.4-.5m-2.9-2.8l-.5-.5m-2.9-2.8l-.5-.5m-2.8-2.9l-.5-.5m-2.8-2.9l-.5-.4m72 62.5l-.4-.5m-2.9-2.8l-.5-.5m-2.8-2.9l-.5-.5m-2.9-2.8l-.5-.5m-2.8-2.8l-.5-.5m-2.8-2.9l-.5-.5m-2.9-2.9l-.5-.4m-2.9-2.9l-.4-.4m-2.9-2.9l-.4-.5m-2.9-2.9l-.5-.5m-2.9-2.8l-.5-.5m-2.8-2.8l-.5-.5m-2.8-2.9l-.5-.5m-2.9-2.8l-.5-.5m-2.8-2.9l-.5-.4m-2.9-2.9l-.4-.5m-2.9-2.9l-.5-.5m-2.9-2.8l-.5-.5m-2.8-2.8l-.5-.5m-2.8-2.9l-.5-.5m75.4 65.9l-.5-.5m-2.9-2.8l-.4-.5m-2.9-2.9l-.4-.4m-2.9-2.9l-.5-.5m-2.9-2.9l-.5-.4m-2.8-2.9l-.5-.5m-2.8-2.8l-.5-.5m-2.9-2.9l-.5-.5m-2.8-2.8l-.5-.5m-2.9-2.9l-.4-.4m-2.9-2.9l-.5-.5m-2.9-2.8l-.4-.5m-2.9-2.9l-.5-.5m-2.8-2.8l-.5-.5m-2.9-2.8l-.5-.5m-2.8-2.9l-.5-.5m-2.9-2.9l-.4-.4m-2.9-2.9l-.5-.4m-2.8-2.9l-.5-.5m-2.9-2.9l-.5-.5m75.1 65.6l-.1-.2m-2.9-2.8l-.5-.5m-2.8-2.8l-.5-.5m-2.9-2.9l-.4-.5m-2.9-2.9l-.5-.4m-2.8-2.9l-.5-.4m-2.9-2.9l-.5-.5m-2.8-2.9l-.5-.5m-2.9-2.8l-.5-.5m-2.8-2.8l-.5-.5m-2.9-2.9l-.4-.5m-2.9-2.8l-.5-.5m-2.8-2.9l-.5-.4m-2.9-2.9l-.5-.5m-2.8-2.9l-.5-.4m-2.8-2.9l-.5-.5m-2.9-2.8l-.5-.5m-2.9-2.9l-.4-.5m-2.9-2.8l-.4-.5m-2.9-2.9l-.5-.4m-2.9-2.9l-.5-.5m75.5 65.9l-.5-.5m-2.9-2.9l-.4-.4m-2.9-2.9l-.5-.5m-2.9-2.8l-.4-.5m-2.9-2.9l-.5-.5m-2.8-2.8l-.5-.5m-2.9-2.9l-.5-.4m-2.8-2.9l-.5-.5m-2.8-2.8l-.5-.5m-2.9-2.9l-.5-.5m-2.9-2.8l-.4-.5m-2.9-2.8l-.4-.5m-2.9-2.9l-.5-.5m-2.9-2.9l-.5-.4m-2.8-2.9l-.5-.4m-2.8-2.9l-.5-.5m-2.9-2.9l-.5-.5m-2.8-2.8l-.5-.5m-2.9-2.8l-.4-.5m-2.9-2.9l-.5-.5m75.4 65.8l-.5-.4m-2.8-2.9l-.5-.4m-2.8-2.9l-.5-.4m-2.9-2.9l-.5-.5m-2.9-2.9l-.4-.5m-2.9-2.8l-.4-.5m-2.9-2.8l-.5-.5m-2.9-2.9l-.5-.5m-2.8-2.8l-.5-.5m-2.8-2.9l-.5-.4m-2.9-2.9l-.5-.5m-2.8-2.9l-.5-.4m-2.9-2.9l-.4-.5m-2.9-2.8l-.5-.5m-2.9-2.9l-.4-.5m-2.9-2.8l-.5-.5m-2.8-2.9l-.5-.4m-2.9-2.9l-.5-.5m-2.8-2.8l-.5-.5m-2.9-2.9l-.4-.5m-2.9-2.8l-.5-.5m75.4 65.9l-.5-.5m-2.8-2.9l-.5-.5m-2.8-2.8l-.5-.5m-2.9-2.9l-.5-.4m-2.8-2.9l-.5-.5m-2.9-2.8l-.4-.5m-2.9-2.9l-.5-.5m-2.8-2.8l-.5-.5m-2.9-2.8l-.5-.5m-2.8-2.9l-.5-.5m-2.9-2.9l-.4-.4m-2.9-2.9l-.5-.4m-2.9-2.9l-.4-.5m-2.9-2.9l-.5-.5m-2.8-2.8l-.5-.5m-2.9-2.8l-.5-.5m-2.8-2.9l-.5-.5m-2.8-2.9l-.5-.4m-2.9-2.9l-.5-.4m-2.9-2.9l-.4-.5m75.4 65.9l-.5-.5m-2.8-2.9l-.5-.5m-2.9-2.8l-.5-.5m-2.8-2.8l-.5-.5m-2.9-2.9l-.4-.5m-2.9-2.8l-.5-.5m-2.9-2.9l-.4-.4m-2.9-2.9l-.5-.5m-2.8-2.9l-.5-.4m-2.9-2.9l-.5-.5m-2.8-2.8l-.5-.5m-2.8-2.9l-.5-.5m-2.9-2.8l-.5-.5m-2.9-2.9l-.4-.4m-2.9-2.9l-.4-.5m-2.9-2.8l-.5-.5m-2.9-2.9l-.5-.5m-2.8-2.8l-.5-.5m-2.8-2.8l-.5-.5m-2.9-2.9l-.5-.5m72.1 62.5l-.4-.4m-2.9-2.9l-.5-.5m-2.9-2.8l-.5-.5m-2.8-2.9l-.5-.5m-2.8-2.8l-.5-.5m-2.9-2.8l-.5-.5m-2.9-2.9l-.4-.5m-2.9-2.9l-.4-.4m-2.9-2.9l-.5-.4m-2.9-2.9l-.5-.5m-2.8-2.9l-.5-.5m-2.8-2.8l-.5-.5m-2.9-2.8l-.5-.5m-2.8-2.9l-.5-.5m-2.9-2.8l-.4-.5m-2.9-2.9l-.5-.4m-2.8-2.9l-.5-.5m-2.9-2.9l-.5-.5m-2.8-2.8l-.2-.2m71.7 62.3l-.4-.5m-2.9-2.9l-.4-.5m-2.9-2.8l-.5-.5m-2.9-2.9l-.5-.4m-2.8-2.9l-.5-.5M399 379l-.5-.4m-2.9-2.9l-.5-.5m-2.8-2.8l-.5-.5m-2.9-2.9l-.4-.5m-2.9-2.8l-.5-.5m-2.8-2.9l-.5-.4m-2.9-2.9l-.5-.5m-2.8-2.8l-.5-.5m-2.9-2.9l-.4-.5m-2.9-2.8l-.5-.5m-2.9-2.8l-.4-.5m-2.9-2.9l-.5-.5m-2.8-2.9l-.5-.4m-2.9-2.9l-.5-.4m68.8 59.1l-.5-.5m-2.9-2.8l-.4-.5m-2.9-2.8l-.5-.5m-2.8-2.9l-.5-.5m-2.9-2.9l-.5-.4m-2.8-2.9l-.5-.4m-2.8-2.9l-.5-.5m-2.9-2.9l-.5-.5m-2.9-2.8l-.4-.5m-2.9-2.8l-.5-.5m-2.8-2.9l-.5-.5m-2.9-2.8l-.5-.5m-2.8-2.9l-.5-.4m-2.8-2.9l-.5-.5m-2.9-2.9l-.5-.4m-2.9-2.9l-.4-.5m-2.9-2.8l-.4-.5m-2.9-2.9l-.5-.5m-2.9-2.8l-.5-.5m65.1 55.5l-.1-.1m-2.9-2.9l-.4-.5m-2.9-2.8l-.5-.5m-2.9-2.9l-.5-.5m-2.8-2.8l-.5-.5m-2.8-2.9l-.5-.4m-2.9-2.9l-.5-.5m-2.9-2.8l-.4-.5m-2.9-2.9l-.4-.5m-2.9-2.8l-.5-.5m-2.9-2.8l-.5-.5m-2.8-2.9l-.5-.5m-2.8-2.9l-.5-.4m-2.9-2.9l-.5-.4m-2.8-2.9l-.5-.5m-2.9-2.9l-.4-.5m-2.9-2.8l-.5-.5m-2.8-2.8l-.5-.5m-2.9-2.9l-.2-.2m58.4 48.9l-.5-.5m-2.8-2.8l-.5-.5m-2.8-2.9l-.5-.5m-2.9-2.8l-.5-.5m-2.8-2.9l-.5-.4m-2.9-2.9l-.4-.5m-2.9-2.9l-.5-.4m-2.8-2.9l-.5-.5m-2.9-2.8l-.5-.5m-2.8-2.9l-.5-.5m-2.9-2.8l-.4-.5m-2.9-2.9l-.5-.4m-2.9-2.9l-.4-.5m-2.9-2.8l-.5-.5m-2.8-2.9l-.5-.5m45.4 35.9l-.5-.5m-2.9-2.9l-.5-.5m-2.9-2.9l-.4-.4m-2.9-2.9l-.4-.4m-2.9-2.9l-.5-.5m-2.9-2.9l-.5-.5m-2.8-2.8l-.5-.5m-2.8-2.8l-.5-.5m-2.9-2.9l-.5-.5m-2.9-2.9l-.4-.4m-2.9-2.9l-.4-.4m34.9 25.3l-.1-.1m-2.9-2.8l-.4-.5m-2.9-2.9l-.5-.4m-2.9-2.9l-.5-.5m-2.8-2.8l-.5-.5m-2.8-2.9l-.5-.5m-2.9-2.8l-.5-.5m-2.8-2.8l-.5-.5m-2.9-2.9l-.4-.5m25.3 15.8l-.5-.5m-2.9-2.9l-.5-.4m-2.8-2.9l-.5-.5m-2.8-2.9l-.5-.5m-2.9-2.8l-.5-.5" stroke="#1f497d" stroke-width=".54" fill="none" stroke-linecap="round" stroke-linejoin="round" stroke-miterlimit="10"/><path class="st3" d="M274.8 345.7l-2.6 13.8"/><path d="M272 345.4l.2 14.1z"/><path class="st3" d="M272 345.4l.2 14.1z"/><path d="M272 345.4l.2 14.1 5.4-13.4z"/><path class="st3" d="M272 345.4l.2 14.1 5.4-13.4z"/><path class="st3" d="M272 345.4l.2 14.1 5.4-13.4-5.6-.7m58.8-45.2l15.6-.9"/><path d="M331 302.8l15.4-3.5z"/><path class="st3" d="M331 302.8l15.4-3.5z"/><path d="M331 302.8l15.4-3.5-15.7-1.6z"/><path class="st3" d="M331 302.8l15.4-3.5-15.7-1.6z"/><path class="st3" d="M331 302.8l15.4-3.5-15.7-1.6.3 5.1m-56.2 42.9l3-7.4 4-7.1 4.8-6.6 5.9-6 6.5-5.3 7.3-4.6 7.8-3.7 8.2-2.8 8.5-2m-35.2 15.6L158.1 193.1l-11-9.8H10.2m413.3 182l-9.1-.3m-2.2-.1h-.5m-2.2-.1l-18.2-.7m-2.2-.1h-.5m-2.2-.1l-18.2-.7m-2.2-.1h-.5m-2.2 0l-18.2-.8m-2.3 0l-.4-.1m-2.2 0l-18.2-.8m-2.3 0h-.4m-2.2-.1l-18.2-.8m-2.3 0h-.4m-2.2-.1l-18.2-.7m-2.3-.1h-.4m-2.2-.1l-9.1-.3m81.3-10.8l.6-8.2m.1-2v-.4m.1-2l1.2-16.5m.1-2.1v-.3m.2-2.1l1.1-16.4m.1-2.1v-.3m.2-2.1l1-16.5m.2-2v-.4m.1-2l1.1-16.4m.1-2.1l.1-.3m.1-2.1l1.1-16.4m.1-2.1l.1-.3m.1-2.1l1.1-16.5m.2-2v-.4m.1-2l1.1-16.4m.1-2.1v-.3m.2-2.1l1-16.5m.2-2v-.4m.1-2l1.2-16.5m.1-2.1v-.3m.2-2.1l1.1-16.4m.1-2v-.4m.2-2l1-16.5m.2-2.1v-.3m.1-2l1.1-16.5m.1-2.1l.1-.3m.1-2.1l1.1-16.4m.1-2l.1-.4m.1-2l1.1-16.5m.1-2.1l.1-.3m.1-2.1l1.1-16.4m.1-2.1v-.3m.2-2.1l.5-8.2m53.3 355.3l-3.5 6.2"/><path d="M417.4 368.5l-2.3 6.9z"/><path class="st3" d="M417.4 368.5l-2.3 6.9z"/><path d="M417.4 368.5l-2.3 6.9 4.8-5.5z"/><path class="st3" d="M417.4 368.5l-2.3 6.9 4.8-5.5z"/><path class="st3" d="M417.4 368.5l-2.3 6.9 4.8-5.5-2.5-1.4m107.4-183.7h204.7M418.6 369.2l2.1-3.7m.4-.5l103.7-180.2M389.1 74.2l-6.6 2.5"/><path d="M388.6 72.9l-6.1 3.8z"/><path class="st3" d="M388.6 72.9l-6.1 3.8z"/><path d="M388.6 72.9l-6.1 3.8 7.1-1.2z"/><path class="st3" d="M388.6 72.9l-6.1 3.8 7.1-1.2z"/><path class="st3" d="M388.6 72.9l-6.1 3.8 7.1-1.2-1-2.6"/><path class="st3" d="M389.1 74.2l50-19.1h96.6"/><text transform="matrix(1 0 -.0048 1 443.946 46.486)" class="st4 st5">Straw tube</text><text transform="translate(13.667 172.746)" class="st4 st5">90 degree angle</text><text transform="matrix(1 0 -.0048 1 529.166 175.926)" class="st4 st5">Surface of the IR cut filter</text></svg>