<svg style="background-color:#fff" version="1.1" id="Ebene_1" xmlns="http://www.w3.org/2000/svg" x="0" y="0" viewBox="0 0 236 147.5" xml:space="preserve"><style>.st0,.st1{fill:none;stroke:#000;stroke-linecap:round;stroke-linejoin:round;stroke-miterlimit:10}.st1{stroke-width:2}.st2{font-family:Helvetica,Arial,sans-serif}.st3{font-size:9.0031px}</style><path class="st0" d="M35.5 4.7v110.8M28.7 4.7H36m-7.3 21.8H36m-7.3 21.7H36M28.7 70H36m-7.3 21.8H36m-7.3 21.7H36m-1.3 2.5H234m0 6.8v-7.3m-32.8 7.3v-7.3m-32.7 7.3v-7.3m-32.6 7.3v-7.3m-32.7 7.3v-7.3m-32.7 7.3v-7.3m-32.8 7.3v-7.3"/><path class="st1" d="M37.7 4.7l26.3.6L90.2 7l26 2.2 26.3 2.8 26 4.5 26.2 5 26.3 7 13 4.5"/><path class="st0" d="M217.7 113.5v-3m0-3v-3m0-3v-3m0-3v-3m0-3v-3m0-3v-3m0-3v-3m0-3v-3m0-3v-3m0-3v-3m0-3v-3m0-3v-3m0-3v-3m0-3v-3m0-3v-3m0-3v-3m0-3v-3m0-3v-3m0-3v-.8M40.5 86H153v25.5H40.5V86z"/><path class="st1" d="M44.2 93.8h16.5"/><text transform="translate(61.966 95.024)" class="st2 st3">ƒ/1.6</text><path class="st0" d="M44.2 104h3m3 0h3m3 0h3"/><text transform="translate(61.966 107.264)" class="st2 st3">Nominal image circle</text><text transform="translate(10.486 7.726)" class="st2 st3">100</text><text transform="translate(15.465 29.504)" class="st2 st3">8</text><text transform="translate(20.465 29.504)" class="st2 st3">0</text><text transform="translate(15.465 51.229)" class="st2 st3">6</text><text transform="translate(20.465 51.229)" class="st2 st3">0</text><text transform="translate(15.465 73.25)" class="st2 st3">4</text><text transform="translate(20.465 73.25)" class="st2 st3">0</text><text transform="translate(15.465 94.795)" class="st2 st3">2</text><text transform="translate(20.465 94.795)" class="st2 st3">0</text><text transform="translate(20.506 116.52)" class="st2 st3">0</text><text transform="translate(230.986 134.264)" class="st2 st3">6</text><text transform="translate(35.986 134.264)" class="st2 st3">0</text><text transform="translate(198.467 134.507)" class="st2 st3">5</text><text transform="translate(68.019 134.264)" class="st2 st3">1</text><text transform="translate(100.65 134.263)" class="st2 st3">2</text><text transform="translate(133.133 134.263)" class="st2 st3">3</text><text transform="translate(165.326 134.263)" class="st2 st3">4</text><text transform="translate(91.356 144.83)" class="st2 st3">Image Height [mm]</text><text transform="rotate(-90 60.585 51.415)" class="st2 st3">Relative Illumination [%]</text></svg>