<svg style="background-color:#fff" version="1.1" id="Ebene_1" xmlns="http://www.w3.org/2000/svg" xmlns:xlink="http://www.w3.org/1999/xlink" x="0" y="0" viewBox="0 0 236.9 161.9" xml:space="preserve"><style>.st0{fill:none;stroke:#000;stroke-linecap:square;stroke-miterlimit:10}.st2{font-family:Helvetica,Arial,sans-serif}.st3{font-size:9px}.st6{fill:none;stroke:#000;stroke-width:2;stroke-linecap:square;stroke-miterlimit:10}.st9{font-size:9.0031px}</style><path class="st0" d="M35.3 15.8v110.7M28.8 15.8h7"/><defs><path id="SVGID_1_" d="M0 11.3h233.7v147.2H0z"/></defs><clipPath id="SVGID_2_"><use xlink:href="#SVGID_1_" overflow="visible"/></clipPath><g clip-path="url(#SVGID_2_)"><text transform="translate(10.26 19.023)" class="st2 st3">10</text></g><defs><path id="SVGID_3_" d="M0 11.3h233.7v147.2H0z"/></defs><clipPath id="SVGID_4_"><use xlink:href="#SVGID_3_" overflow="visible"/></clipPath><g clip-path="url(#SVGID_4_)"><text transform="translate(20.26 19.024)" class="st2 st3">0</text></g><path class="st0" d="M28.8 37.5h7"/><text transform="translate(15.26 40.774)" class="st2 st3">8</text><text transform="translate(20.26 40.774)" class="st2 st3">0</text><path class="st0" d="M28.8 59.3h7"/><text transform="translate(15.26 62.524)" class="st2 st3">6</text><text transform="translate(20.26 62.524)" class="st2 st3">0</text><path class="st0" d="M28.8 81.3h7"/><text transform="translate(15.26 84.524)" class="st2 st3">4</text><text transform="translate(20.26 84.524)" class="st2 st3">0</text><path class="st0" d="M28.8 102.8h7"/><text transform="translate(15.26 106.024)" class="st2 st3">2</text><text transform="translate(20.26 106.024)" class="st2 st3">0</text><path class="st0" d="M28.8 124.5h7"/><text transform="translate(20.26 127.774)" class="st2 st3">0</text><defs><path id="SVGID_5_" d="M0 11.3h233.7v147.2H0z"/></defs><clipPath id="SVGID_6_"><use xlink:href="#SVGID_5_" overflow="visible"/></clipPath><path d="M34.8 127h198.5" clip-path="url(#SVGID_6_)" fill="none" stroke="#000" stroke-linecap="square" stroke-miterlimit="10"/><path class="st0" d="M215.5 133.8v-7.3"/><text transform="translate(213.01 145.524)" class="st2 st3">5</text><path class="st0" d="M180 133.8v-7.3"/><text transform="translate(177.26 145.524)" class="st2 st3">4</text><path class="st0" d="M144.5 133.8v-7.3"/><text transform="translate(141.76 145.524)" class="st2 st3">3</text><path class="st0" d="M109 133.8v-7.3"/><text transform="translate(106.26 145.524)" class="st2 st3">2</text><path class="st0" d="M73.3 133.8v-7.3"/><text transform="translate(70.76 145.524)" class="st2 st3">1</text><path class="st0" d="M37.8 133.8v-7.3"/><text transform="translate(35.01 145.524)" class="st2 st3">0</text><path class="st6" d="M41.5 15.8h4"/><defs><path id="SVGID_7_" d="M0 11.3h233.7v147.2H0z"/></defs><clipPath id="SVGID_8_"><use xlink:href="#SVGID_7_" overflow="visible"/></clipPath><path d="M45.8 15.8h4l4.2.2h4l4.3.3 4 .2 4.2.5 4 .3 4.3.5 4.2.5 4 .5 4.3.7 4 .5 4.2.8 4 .5 4 .7 4.3.8 4.2 1 4 .7 4.3 1 4 1.3 4.2 1 4.3 1.2 4 1.3 4.2 1.2 4 1.5 4 1.3 4.3 1.2 4 1.5 4.2 1.5 4.3 1.5 4 2 4.2 1.8 4 1.7 4.3 1.8 4.2 1.7 4 1.8 4 2 4.3 2 4 2 4.2 2 4 2 4.3 2 4.2 2.2 4 2.3 4.3 2 1.5.7" clip-path="url(#SVGID_8_)" fill="none" stroke="#000" stroke-width="2" stroke-linecap="square" stroke-miterlimit="10"/><path d="M36.8 107.5h102.3v17.8H36.8v-17.8z" fill-rule="evenodd" clip-rule="evenodd" fill="#fff"/><path class="st0" d="M38.3 109h99.3v14.8H38.3V109z"/><path class="st6" d="M42 116.8h16.5"/><text transform="translate(62.26 119.524)" class="st2 st3">Measured at</text><text transform="translate(114.76 119.524)" class="st2 st3">ƒ</text><text transform="translate(120.01 119.524)" class="st2 st3">/</text><text transform="translate(122.51 119.524)" class="st2 st3">1</text><text transform="translate(127.51 119.524)" class="st2 st3">.</text><text transform="translate(130.01 119.524)" class="st2 st3">6</text><text transform="translate(87.95 157.5)" class="st2 st9">Image Height [mm]</text><text transform="rotate(-90 66.447 57.354)" class="st2 st9">Relative Illumination [%]</text></svg>