<svg style="background-color:#fff" version="1.1" id="Layer_1" xmlns="http://www.w3.org/2000/svg" x="0" y="0" viewBox="0 0 550 142.5" xml:space="preserve"><style>.st1{fill:none;stroke:#000;stroke-miterlimit:3.864}.st4{fill:#f1f2f2}.st5{fill:none;stroke:#000;stroke-width:.567;stroke-miterlimit:3.864}.st6{fill-rule:evenodd;clip-rule:evenodd;fill:#fff}.st7{fill:#f9ccd1;stroke:#000;stroke-width:.567;stroke-miterlimit:3.864}.st8{fill:#fff}.st10{fill-rule:evenodd;clip-rule:evenodd}.st11{fill:none}.st12{font-family:Helvetica,Arial,sans-serif}.st13{font-size:12px}.st14{enable-background:new}.st16{font-size:8.5px}</style><path d="M105.9 58.9h371.6V109H105.9V58.9z" fill-rule="evenodd" clip-rule="evenodd" fill="#bde4f7" stroke="#000" stroke-width=".425" stroke-miterlimit="3.864"/><path class="st1" d="M476.9 58.9V109"/><path d="M353.7 58.9h99v50h-99v-50z" fill-rule="evenodd" clip-rule="evenodd" fill="#fff899" stroke="#000" stroke-width=".425" stroke-miterlimit="3.864"/><path d="M452.7 58.9h24.1V109h-24.1V58.9z" fill-rule="evenodd" clip-rule="evenodd" fill="#0090d4" stroke="#000" stroke-width=".425" stroke-miterlimit="3.864"/><path class="st4" d="M229.8 72h24.7v24.7h-24.7V72z"/><path class="st5" d="M229.8 72h24.7v24.7h-24.7V72z"/><path class="st4" d="M56.4 72h24.7v24.7H56.4V72z"/><path class="st5" d="M56.4 72h24.7v24.7H56.4V72z"/><path class="st4" d="M81.1 72h24.8v24.7H81.1V72z"/><path class="st5" d="M81.1 72h24.8v24.7H81.1V72z"/><path class="st4" d="M105.9 72h24.8v24.7h-24.8V72z"/><path class="st5" d="M105.9 72h24.8v24.7h-24.8V72z"/><path class="st4" d="M130.7 72h24.8v24.7h-24.8V72z"/><path class="st5" d="M130.7 72h24.8v24.7h-24.8V72z"/><path class="st4" d="M155.5 72h24.7v24.7h-24.7V72z"/><path class="st5" d="M155.5 72h24.7v24.7h-24.7V72z"/><path class="st4" d="M180.2 72H205v24.7h-24.8V72z"/><path class="st5" d="M180.2 72H205v24.7h-24.8V72z"/><path class="st4" d="M205 72h24.8v24.7H205V72z"/><path class="st5" d="M205 72h24.8v24.7H205V72z"/><path class="st4" d="M254.5 72h24.8v24.7h-24.8V72z"/><path class="st5" d="M254.5 72h24.8v24.7h-24.8V72z"/><path class="st4" d="M279.3 72h24.8v24.7h-24.8V72z"/><path class="st5" d="M279.3 72h24.8v24.7h-24.8V72z"/><path class="st4" d="M304.1 72h24.8v24.7h-24.8V72z"/><path class="st5" d="M304.1 72h24.8v24.7h-24.8V72z"/><path class="st6" d="M25.2 77.9v3.9h19.5v5.5H25.1v3.8L10 84.5l15.2-6.6z"/><path class="st1" d="M25.2 77.9v3.9h19.5v5.5H25.1v3.8L10 84.5l15.2-6.6z"/><path class="st7" d="M328.9 72h24.7v24.7h-24.7V72z"/><path class="st7" d="M328.9 72h24.7v24.7h-24.7V72zm24.7 0h24.8v24.7h-24.8V72z"/><path class="st7" d="M353.6 72h24.8v24.7h-24.8V72z"/><path class="st7" d="M378.4 72h24.8v24.7h-24.8V72z"/><path class="st7" d="M378.4 72h24.8v24.7h-24.8V72z"/><path class="st4" d="M427.9 72h24.8v24.7h-24.8V72z"/><path class="st5" d="M427.9 72h24.8v24.7h-24.8V72z"/><path class="st4" d="M452.7 72h24.8v24.7h-24.8V72z"/><path class="st5" d="M452.7 72h24.8v24.7h-24.8V72z"/><path class="st8" d="M477.5 72h24.8v24.7h-24.8V72z"/><path class="st5" d="M477.5 72h24.8v24.7h-24.8V72z"/><path class="st8" d="M502.3 72H527v24.7h-24.7V72z"/><path class="st5" d="M502.3 72H527v24.7h-24.7V72z"/><path class="st6" d="M526.9 72h7.7c-2.9 6.8 1.1 17.3 0 24.8-4.3-.1-7.7 0-7.7 0V72z"/><path class="st5" d="M526.9 72h7.7c-2.9 6.8 1.1 17.3 0 24.8-4.3-.1-7.7 0-7.7 0V72z"/><path d="M56.5 96.7h-6.6c2.5-6.8-.9-17.3 0-24.8 3.7.1 6.6 0 6.6 0v24.8z" fill-rule="evenodd" clip-rule="evenodd" fill="#f1f2f2"/><path class="st5" d="M56.5 96.7h-6.6c2.5-6.8-.9-17.3 0-24.8 3.7.1 6.6 0 6.6 0v24.8z"/><path class="st7" d="M403.2 72H428v24.7h-24.8V72z"/><path class="st7" d="M403.2 72H428v24.7h-24.8V72z"/><path class="st10" d="M531.2 119.4v-1.6l3.6 1.6-3.6 1.6v-1.6z"/><path class="st5" d="M56.5 119.4h474.9"/><path class="st10" d="M351.5 38.6l2.2 12.9 2.2-12.9h-4.4z"/><path class="st5" d="M351.5 38.6l2.2 12.9 2.2-12.9h-4.4z"/><path class="st11" d="M351.5 38.6l2.2 12.9 2.2-12.9h-4.4z"/><text transform="translate(490.382 135)" class="st12 st13">Time</text><text transform="translate(311.842 17.5)" class="st14"><tspan x="0" y="0" class="st12 st13">Resend request</tspan><tspan x="17.7" y="14.4" class="st12 st13">threshold</tspan></text><path d="M452.7 108.9v-5m0-2.5v-5m0-2.5v-5.1m0-2.5v-5m0-2.5v-5m0-2.5v-5.1m0-2.5v-5" fill="none" stroke="#14487e" stroke-width="3.402" stroke-miterlimit="3.864"/><text transform="translate(429.3 17.5)" class="st14"><tspan x="0" y="0" class="st12 st13">Batching</tspan><tspan x="-1.3" y="14.4" class="st12 st13">threshold</tspan></text><path class="st10" d="M450.6 38.6l2.1 12.9 2.2-12.9h-4.3z"/><path class="st5" d="M450.6 38.6l2.1 12.9 2.2-12.9h-4.3z"/><path class="st11" d="M450.6 38.6l2.1 12.9 2.2-12.9h-4.3zM262.9 78.7h14.6v9.6h-14.6v-9.6z"/><text transform="translate(262.894 87.693)" class="st12 st16">96</text><path class="st11" d="M288 78.7h14.6v9.6H288v-9.6z"/><text transform="translate(287.98 87.694)" class="st12 st16">97</text><path class="st11" d="M313 78.7h17v9.6h-17v-9.6z"/><text transform="translate(313.009 87.693)" class="st12 st16">98</text><path class="st11" d="M336.9 78.7h14.6v9.6h-14.6v-9.6z"/><text transform="translate(336.907 87.693)" class="st12 st16">99</text><path class="st11" d="M358.2 78.7h19.5v9.6h-19.5v-9.6z"/><text transform="translate(358.234 87.693)" class="st12 st16">100</text><path class="st11" d="M383 78.7h19.5v9.6H383v-9.6z"/><text transform="translate(382.978 87.693)" class="st12 st16">101</text><path class="st11" d="M407.3 78.7h21.9v9.6h-21.9v-9.6z"/><text transform="translate(407.336 87.693)" class="st12 st16">102</text><path class="st11" d="M432.3 78.7h19.5v9.6h-19.5v-9.6z"/><text transform="translate(432.32 87.693)" class="st12 st16">103</text><path class="st11" d="M457.1 78.7h19.5v9.6h-19.5v-9.6z"/><text transform="translate(457.074 87.692)" class="st12 st16">104</text><path class="st11" d="M481.5 78.7H501v9.6h-19.5v-9.6z"/><text transform="translate(481.467 87.693)" class="st12 st16">105</text><path class="st11" d="M506.2 78.7h19.5v9.6h-19.5v-9.6z"/><text transform="translate(506.21 87.692)" class="st12 st16">106</text><path class="st11" d="M237.8 78.7h14.6v9.6h-14.6v-9.6z"/><text transform="translate(237.799 87.694)" class="st12 st16">95</text><path class="st11" d="M213.1 78.7h14.6v9.6h-14.6v-9.6z"/><text transform="translate(213.122 87.693)" class="st12 st16">94</text><path class="st11" d="M188 78.7h17v9.6h-17v-9.6z"/><text transform="translate(187.958 87.693)" class="st12 st16">93</text><path class="st11" d="M163.4 78.7H178v9.6h-14.6v-9.6z"/><text transform="translate(163.427 87.694)" class="st12 st16">92</text><path class="st11" d="M138.8 78.7h14.6v9.6h-14.6v-9.6z"/><text transform="translate(138.82 87.692)" class="st12 st16">91</text><path class="st11" d="M113.8 78.7h14.6v9.6h-14.6v-9.6z"/><text transform="translate(113.825 87.693)" class="st12 st16">90</text><path class="st11" d="M89.6 78.7h14.6v9.6H89.6v-9.6z"/><text transform="translate(89.59 87.693)" class="st12 st16">89</text><path class="st11" d="M64.2 78.7h14.6v9.6H64.2v-9.6z"/><text transform="translate(64.209 87.693)" class="st12 st16">88</text><text transform="translate(49.398 109.01)" class="st12" font-size="10">Frames</text><path d="M353.7 58.9l-.2 50.1" fill="none" stroke="#f99d33" stroke-width="3.402" stroke-miterlimit="3.864"/><text transform="translate(459.753 54.887)" class="st12" font-size="9">Start</text></svg>