<?xml version="1.0" encoding="utf-8"?>
<!-- Generator: Adobe Illustrator 24.3.0, SVG Export Plug-In . SVG Version: 6.00 Build 0)  -->
<svg version="1.1" id="Ebene_2" xmlns="http://www.w3.org/2000/svg" xmlns:xlink="http://www.w3.org/1999/xlink" x="0px" y="0px"
	 viewBox="0 0 283.5 283.5" style="enable-background:new 0 0 283.5 283.5;" xml:space="preserve">
<style type="text/css">
	.st0{fill-rule:evenodd;clip-rule:evenodd;fill:#FFFFFF;stroke:#1D1D1B;stroke-width:0.4252;stroke-miterlimit:3.8637;}
	.st1{fill:#FFFFFF;}
	.st2{fill:none;stroke:#1D1D1B;stroke-width:0.4252;stroke-miterlimit:10;}
	.st3{fill:#1A1A18;stroke:#1D1D1B;stroke-width:0.4252;stroke-miterlimit:3.8637;}
	.st4{fill:none;stroke:#1D1D1B;stroke-width:0.4252;stroke-miterlimit:3.8637;}
	.st5{fill-rule:evenodd;clip-rule:evenodd;fill:#F5F5F5;stroke:#1D1D1B;stroke-width:0.4252;stroke-miterlimit:3.8637;}
	.st6{fill:none;stroke:#1D1D1B;stroke-width:0.4252;stroke-linecap:round;stroke-linejoin:round;stroke-miterlimit:10;}
	.st7{fill:none;stroke:#1D1D1B;stroke-width:0.4252;stroke-linecap:round;stroke-linejoin:round;}
</style>
<path class="st0" d="M27,81.1c0-25.7,18-56.9,40.3-69.7c11.4-6.6,20.4-7.1,29-2.5l35.4,15.7l-55.3,99.7c0,0-33.5-12.9-40.8-19.5
	C30.1,99.9,27,91.8,27,81.1z"/>
<path class="st1" d="M145.6,193.8l55.4-31.2l3.9,2.3c2.5,1.6,6.1,1.4,9.9-1c7.7-4.7,14-16,14-25.3c0-3.6-0.9-6.4-2.5-8.1l0,0V50
	L142.2,7L62.6,47.7v98.5L145.6,193.8"/>
<path class="st2" d="M145.6,193.8l55.4-31.2l3.9,2.3c2.5,1.6,6.1,1.4,9.9-1c7.7-4.7,14-16,14-25.3c0-3.6-0.9-6.4-2.5-8.1l0,0V50
	L142.2,7L62.6,47.7v98.5L145.6,193.8"/>
<g>
	<line class="st3" x1="76.9" y1="141.2" x2="137.4" y2="172"/>
	<line class="st4" x1="76.9" y1="141.2" x2="137.4" y2="172"/>
</g>
<g>
	<line class="st4" x1="140.4" y1="92.3" x2="137.4" y2="172"/>
</g>
<g>
	<path class="st4" d="M76.5,63.6l5,2.9c5,2.9,9,9.9,9,15.7c0,5.8-4.1,8.1-9,5.2l-5-2.9"/>
</g>
<g>
	<g>
		<path class="st4" d="M85.2,79.1c0-2.3-1.6-5.1-3.6-6.3c-2-1.2-3.6-0.2-3.6,2.1c0,2.3,1.6,5.1,3.6,6.3
			C83.5,82.3,85.2,81.4,85.2,79.1z"/>
		<path class="st4" d="M81.5,77"/>
	</g>
</g>
<g>
	<polygon class="st4" points="84.1,77.9 82.2,76.8 82.2,74.8 81,74.1 81,76.1 79.1,75 79.1,76.3 80.9,77.3 80.9,79.5 82.1,80.2 
		82.1,78.1 84.1,79.3 	"/>
</g>
<g>
	<path class="st4" d="M137.7,165.3l-3.4-2c-5-2.9-9-9.9-9-15.7c0-5.8,4.1-8.1,9-5.2l4.2,2.4"/>
</g>
<g>
	<g>
		<path class="st4" d="M137.3,154.6c0-2.3-1.6-5.1-3.6-6.3c-2-1.2-3.6-0.2-3.6,2.1c0,2.3,1.6,5.1,3.6,6.3
			C135.6,157.9,137.3,156.9,137.3,154.6z"/>
		<path class="st4" d="M133.6,152.5"/>
	</g>
</g>
<g>
	<polygon class="st4" points="131.1,151.6 133,152.7 133,154.7 134.2,155.4 134.2,153.4 136.1,154.5 136.1,153.2 134.3,152.2 
		134.3,150 133.1,149.3 133.1,151.4 131.1,150.2 	"/>
</g>
<g>
	<line class="st4" x1="76.7" y1="55.5" x2="76.7" y2="140.9"/>
</g>
<line class="st5" x1="140.4" y1="92.3" x2="220.4" y2="46.5"/>
<line class="st4" x1="76.7" y1="55.5" x2="62.6" y2="47.7"/>
<line class="st4" x1="76.8" y1="55.7" x2="156.4" y2="14.5"/>
<line class="st4" x1="140.4" y1="92.3" x2="145" y2="95"/>
<line class="st4" x1="76.7" y1="55.5" x2="140.4" y2="92.3"/>
<path class="st4" d="M226.4,148.3"/>
<line class="st4" x1="145.6" y1="193.8" x2="145.6" y2="95.4"/>
<line class="st4" x1="145.6" y1="95.4" x2="226.4" y2="50"/>
<path class="st6" d="M153.2,179.2c0,0-1.4-0.7-2-1.4c-0.4-0.4-0.6-1.1-0.6-2v-68.6c0-2.2,1.5-4.9,3.3-6L172,90.3
	c1.6-0.9,2.7,0.1,2.7,0.1l1.3,0.8"/>
<path class="st6" d="M164.6,168.2c1-0.6,1.9-2.2,1.9-3.4c0-1.3-0.8-1.8-1.9-1.1c-1,0.6-1.9,2.2-1.9,3.4
	C162.7,168.3,163.6,168.9,164.6,168.2z"/>
<path class="st6" d="M164.6,169.8c1.8-1.1,3.2-3.7,3.2-5.8c0-2.1-1.4-3-3.2-1.9c-1.8,1.1-3.2,3.7-3.2,5.8
	C161.4,170,162.9,170.9,164.6,169.8z"/>
<path class="st6" d="M164.6,107.4c1-0.6,1.9-2.2,1.9-3.4c0-1.3-0.8-1.8-1.9-1.1c-1,0.6-1.9,2.2-1.9,3.4
	C162.7,107.5,163.6,108,164.6,107.4z"/>
<path class="st6" d="M164.6,109c1.8-1.1,3.2-3.7,3.2-5.8c0-2.1-1.4-3-3.2-1.9c-1.8,1.1-3.2,3.7-3.2,5.8
	C161.4,109.2,162.9,110,164.6,109z"/>
<path class="st6" d="M155.6,179c-1.8,1.1-3.3,0.2-3.3-2v-68.6c0-2.2,1.5-4.9,3.3-6l18.2-10.9c1.8-1.1,3.3-0.2,3.3,2v68.6
	c0,2.2-1.5,4.9-3.3,6L155.6,179z"/>
<path class="st6" d="M166.2,112.4l-1.7,1l-1,1.1l-2.5,4.4l-0.4,1.2v37.2c0,1.5,1,2.1,2.2,1.3l3.3-2c1.2-0.7,2.2-2.6,2.2-4v-38.9
	C168.5,112.3,167.5,111.7,166.2,112.4z"/>
<ellipse transform="matrix(0.4682 -0.8836 0.8836 0.4682 -40.0211 241.6308)" class="st7" cx="180.7" cy="154.1" rx="2.7" ry="1.5"/>
<ellipse transform="matrix(0.4682 -0.8836 0.8836 0.4682 -40.0211 241.6308)" class="st7" cx="180.7" cy="154.1" rx="5" ry="2.8"/>
<g>
	<ellipse transform="matrix(0.4682 -0.8836 0.8836 0.4682 -15.5326 268.2396)" class="st7" cx="215.1" cy="147" rx="17" ry="9.6"/>
	<path class="st7" d="M211.5,121.5c-2.5-1.2-5.8-0.9-9.4,1.3c-7.7,4.7-14,16-14,25.3c0,4.1,1.2,7.1,3.2,8.8l13.6,7.9"/>
	<path class="st7" d="M201,155.5c0-9.3,6.3-20.7,14-25.3c3.9-2.3,7.4-2.6,9.9-1c2.5,1.5,4.1,4.8,4.1,9.5c0,9.3-6.3,20.7-14,25.3
		c-4.3,2.6-8.2,2.6-10.8,0.4C202.2,162.6,201,159.6,201,155.5z"/>
	<g>
		
			<ellipse transform="matrix(0.4682 -0.8836 0.8836 0.4682 -15.4976 268.0988)" class="st7" cx="215" cy="146.9" rx="2.7" ry="1.5"/>
		
			<ellipse transform="matrix(0.4682 -0.8836 0.8836 0.4682 -21.3008 265.0311)" class="st7" cx="209.5" cy="150.2" rx="2.7" ry="1.5"/>
		
			<ellipse transform="matrix(0.4682 -0.8836 0.8836 0.4682 -7.2463 267.6213)" class="st7" cx="218.7" cy="139.8" rx="2.7" ry="1.5"/>
		
			<ellipse transform="matrix(0.4682 -0.8836 0.8836 0.4682 -12.4377 263.8401)" class="st7" cx="213" cy="142.3" rx="2.7" ry="1.5"/>
		
			<ellipse transform="matrix(0.4682 -0.8836 0.8836 0.4682 -15.8075 272.7741)" class="st7" cx="218.7" cy="149.5" rx="2.7" ry="1.5"/>
		
			<ellipse transform="matrix(0.4682 -0.8836 0.8836 0.4682 -20.4057 272.7808)" class="st7" cx="216.4" cy="153.3" rx="1.2" ry="0.7"/>
		
			<ellipse transform="matrix(0.4682 -0.8836 0.8836 0.4682 -24.5482 267.3589)" class="st7" cx="209.8" cy="154.1" rx="1.2" ry="0.7"/>
		
			<ellipse transform="matrix(0.4682 -0.8836 0.8836 0.4682 -7.5325 265.0327)" class="st7" cx="216.4" cy="138.8" rx="1.2" ry="0.7"/>
		
			<ellipse transform="matrix(0.4682 -0.8836 0.8836 0.4682 -17.3929 263.0523)" class="st7" cx="209.8" cy="146" rx="1.2" ry="0.7"/>
		<ellipse transform="matrix(0.4682 -0.8836 0.8836 0.4682 -22.8335 270.0971)" class="st7" cx="213" cy="154" rx="2.7" ry="1.5"/>
		<path class="st7" d="M222,140.6v-0.5l-0.7,0.4l-1.9,2.9c0,0-0.7,0.4-1,0.6s-0.5,0.2-0.5,0.5v1.2c0,0.3,0.2,0.2,0.5,0
			c0.3-0.2,1-0.6,1-0.6l1.9,0.5l0.7-0.4v-0.5l0,0c0,0,0,0-0.1,0c-0.6-0.1-0.9-0.6-0.9-1.5C221,142.4,221.4,141.4,222,140.6
			L222,140.6z"/>
		<path class="st7" d="M222.8,144.2c-0.8,4.9-4,10.1-7.9,12.4c-4.4,2.7-8,0.5-8-4.8s3.6-11.9,8-14.5c3.9-2.3,7.1-1,7.9,3l0,0
			c-0.8,0.6-1.5,1.9-1.5,2.9S222,144.6,222.8,144.2L222.8,144.2z"/>
	</g>
	<line class="st7" x1="211.5" y1="121.5" x2="224.9" y2="129.1"/>
</g>
<path class="st6" d="M160.8,157.8c0.2-0.1,0.3-0.1,0.5-0.2l3.3-2c1.2-0.7,2.2-2.6,2.2-4v-38.9c0-0.2,0-0.3,0-0.5"/>
<g>
	<path class="st1" d="M95.5,279.6c2.4-0.9,47.9-25.7,47.9-25.7c10.8,11.4,18.5,8.4,21.8,4.5c2.5-0.1,5.3-1.5,6.9-3.6
		c0.7,0.1,3.2-0.7,3.8-1c0,0,4.1-2.4,6-3.3c2.2-1.1,3.4-2.8,3.4-2.8s1.9,0.1,3.1-0.8c0,0,38.7-20.2,41.6-24.1
		c0.1,0.3,0.9,1.1,0.9,1.1s5.4,3.5,8.4,5.4c3,1.9,8.1-2.2,8.1-2.2l-2.3-3.4l1.3-1.3c0,0,3.7,2,3.7,2c4.1-5.2,3.1-10,1.5-11.1
		c-1.6-1-5.7-3.7-5.7-3.7s5.9-5.8,7.9-11.6c4.6-12.5-0.2-26.8-0.2-26.8l0.3-28.9l-1.6-1c0-2.9-2-3.8-2-3.8c-3.7-2.5-6.7-4.3-7.8-5
		c-0.7-0.4-1.6-0.6-2.5-0.5L174.4,95l-0.2-0.1c-1.3-0.7-3.2-0.5-5.3,0.6c-0.6,0.3-1.1,0.6-1.6,1l0,0c-1.9,1.5-3.6,3.5-4.7,5.6
		c-0.6,1.3-1.1,3.1-1.1,4.3c0,0.2,0,0.5,0,0.7l0,0.5c0,0,0.6,3.8-2.6,7.1c-2.2,2.2-6.5,4.7-6.5,4.7l-0.4,60l23.3,13.1
		c0,0-8.5,3.8-9.3,4.4c-0.8,0.6-2.3,1.9-2.9,2.7c-1.2,0-3.5,0.8-3.5,0.8s-6,3.2-6.7,3.7c-0.7,0.5-2.4,1.8-3.1,2.5
		c-0.7-0.1-3.5,1-3.5,1s-1.9,0.7-8.1,4.1c-7.4,4.9-5.7,16.9-5.7,16.9s-31.8,17.3-45.3,24.7"/>
	<path class="st2" d="M95.5,279.6c2.4-0.9,47.9-25.7,47.9-25.7c10.8,11.4,18.5,8.4,21.8,4.5c2.5-0.1,5.3-1.5,6.9-3.6
		c0.7,0.1,3.2-0.7,3.8-1c0,0,4.1-2.4,6-3.3c2.2-1.1,3.4-2.8,3.4-2.8s1.9,0.1,3.1-0.8c0,0,38.7-20.2,41.6-24.1
		c0.1,0.3,0.9,1.1,0.9,1.1s5.4,3.5,8.4,5.4c3,1.9,8.1-2.2,8.1-2.2l-2.3-3.4l1.3-1.3c0,0,3.7,2,3.7,2c4.1-5.2,3.1-10,1.5-11.1
		c-1.6-1-5.7-3.7-5.7-3.7s5.9-5.8,7.9-11.6c4.6-12.5-0.2-26.8-0.2-26.8l0.3-28.9l-1.6-1c0-2.9-2-3.8-2-3.8c-3.7-2.5-6.7-4.3-7.8-5
		c-0.7-0.4-1.6-0.6-2.5-0.5L174.4,95l-0.2-0.1c-1.3-0.7-3.2-0.5-5.3,0.6c-0.6,0.3-1.1,0.6-1.6,1l0,0c-1.9,1.5-3.6,3.5-4.7,5.6
		c-0.6,1.3-1.1,3.1-1.1,4.3c0,0.2,0,0.5,0,0.7l0,0.5c0,0,0.6,3.8-2.6,7.1c-2.2,2.2-6.5,4.7-6.5,4.7l-0.4,60l23.3,13.1
		c0,0-8.5,3.8-9.3,4.4c-0.8,0.6-2.3,1.9-2.9,2.7c-1.2,0-3.5,0.8-3.5,0.8s-6,3.2-6.7,3.7c-0.7,0.5-2.4,1.8-3.1,2.5
		c-0.7-0.1-3.5,1-3.5,1s-1.9,0.7-8.1,4.1c-7.4,4.9-5.7,16.9-5.7,16.9s-31.8,17.3-45.3,24.7"/>
	<line class="st4" x1="219.9" y1="157.6" x2="152.4" y2="119.4"/>
	<line class="st4" x1="223.4" y1="142.2" x2="166.6" y2="110.2"/>
	<path class="st4" d="M219.9,157.6l1.6-0.9c4-2.2,7.2-6.7,7.3-9.9"/>
	<line class="st6" x1="239" y1="137.3" x2="245.4" y2="146.8"/>
	<line class="st6" x1="239.9" y1="142" x2="246.5" y2="151.6"/>
	<line class="st6" x1="242.7" y1="139.3" x2="249.1" y2="148.9"/>
	<line class="st6" x1="239.9" y1="142" x2="236.2" y2="139.9"/>
	<line class="st6" x1="239" y1="137.2" x2="236.2" y2="139.9"/>
	<line class="st6" x1="245.4" y1="146.8" x2="244.1" y2="148.1"/>
	<path class="st6" d="M246.5,151.6c-0.7,0.6-1.5,1.2-2.3,1.6c-4.3,2.3-7.8,0.8-7.7-3.3c0-2.5,1.4-5.4,3.4-7.9"/>
	<line class="st6" x1="242.6" y1="139.3" x2="239" y2="137.2"/>
	<line class="st6" x1="249" y1="148.9" x2="245.4" y2="146.8"/>
	<path class="st6" d="M242.6,139.3c0.6-0.5,1.2-0.9,1.9-1.2c4.3-2.3,7.8-0.8,7.7,3.3c0,2.4-1.2,5.2-3.1,7.5"/>
	<path class="st6" d="M239,154c-2.7-1.2-7.3-4.5-8.7-5.4c-1.1-0.7-1.8-2-1.8-3.9c0.1-4.2,3.6-9.4,8-11.8c2.3-1.3,4.4-1.4,5.8-0.6
		c1.2,0.7,4.1,2.5,7.8,5"/>
	<line class="st6" x1="240.9" y1="214.1" x2="246.4" y2="222.2"/>
	<line class="st6" x1="240.8" y1="217.3" x2="247.4" y2="227"/>
	<line class="st6" x1="243.6" y1="214.6" x2="250" y2="224.3"/>
	<line class="st6" x1="240.8" y1="217.3" x2="238.6" y2="216.1"/>
	<path class="st6" d="M247.5,226.9c-0.7,0.6-1.5,1.2-2.3,1.6c-4.3,2.3-7.8,0.8-7.7-3.3c0.1-2.5,1.4-5.5,3.4-7.9"/>
	<line class="st6" x1="243.5" y1="214.6" x2="241.6" y2="213.5"/>
	<path class="st6" d="M243.5,214.7c0.6-0.5,1.2-0.9,1.9-1.2c4.3-2.3,7.8-0.9,7.7,3.3c0,2.4-1.2,5.2-3.1,7.5"/>
	<line class="st4" x1="152.4" y1="119.4" x2="152.2" y2="162.7"/>
	<path class="st4" d="M228.8,146.9"/>
	<line class="st4" x1="219.9" y1="168" x2="219.9" y2="157.6"/>
	<path class="st4" d="M175.8,242"/>
	<path class="st6" d="M87.2,253.4c3.5-1.9,51.2-28,53.3-29c1.6-0.8,3.6-0.6,5.8,0.6c5,2.9,8.9,10.5,8.8,17.1c-0.1,3.5-1.2,5.9-3.1,7
		c-1.6,1-49.7,27.6-56.6,30.3"/>
	<line class="st2" x1="174.9" y1="249" x2="181.5" y2="245.5"/>
	<line class="st2" x1="175.6" y1="243.7" x2="182.2" y2="240.2"/>
	<path class="st6" d="M143.4,253.8c2.2,2.5,4.6,4.5,7.2,5.9c10.1,5.6,18.2-0.4,18.2-13.4c0-13-8.2-28.2-18.2-33.8
		c-10.1-5.6-18.2,0.4-18.2,13.4c0,1,0,2,0.1,3.1"/>
	<path class="st4" d="M253.6,171c-1.7-4.1-4.1-7-6.6-8.9c-6.1-4.6-17.7,0.9-24.1,4.3c-6.4,3.4-45.3,25.8-45.3,25.8"/>
	<path class="st4" d="M230,222.7c5.9-4.2,11.6-8.7,16-13.4"/>
	<path class="st6" d="M174.9,249c-1,3.9-3,6.7-5.6,8.2c-1.2,0.7-2.5,1.1-3.9,1.2l-0.2,0"/>
	<path class="st6" d="M143.1,210.4c0.9-1.1,1.9-2,3.1-2.6c3.2-1.7,7.4-1.5,11.9,1.2c10,5.8,17.8,21.1,17.6,34.1c0,0.2,0,0.4,0,0.6"
		/>
	<path class="st6" d="M182.2,250.3c2.8-1.4,4.9-4.3,5.9-8.3l6.6-3.6"/>
	<path class="st6" d="M152.9,204.2c1.2-0.9,2.8-1.6,6.8-3.6c3.2-1.6,7.2-1.3,11.6,1.3c10,5.8,17.8,21.1,17.6,34.1l-0.1,0.6l6.6-3.6"
		/>
	<path class="st6" d="M194.7,238.4c-1.5,5.6-4.9,8.9-9.4,9.2"/>
	<path class="st6" d="M163.1,199.5c3.4-4,8.8-4.8,14.8-1.3c10,5.8,17.8,21.1,17.6,34.1c0,0.2,0,0.4,0,0.6"/>
	<path class="st6" d="M182.3,240.2c0-0.2,0-0.4,0-0.6c0.2-13-7.6-28.3-17.6-34.1c-6-3.5-11.5-2.8-14.8,1.3"/>
	<path class="st6" d="M172.1,254.8c4.5-0.4,8-3.8,9.4-9.4"/>
	<path class="st6" d="M189.1,246.6c2.2-1.2,3.3-1.8,6.6-3.6c3.8-2.1,6.3-7.1,6.4-14.1c0.2-13-7.7-28.3-17.6-34.1
		c-4.4-2.6-8.4-2.9-11.6-1.3c-4.1,2-5.7,2.7-6.9,3.5"/>
</g>
</svg>
