<svg version="1.1" id="Ebene_1" xmlns="http://www.w3.org/2000/svg" x="0" y="0" viewBox="0 0 1380 842.8" style="background-color:#fff" xml:space="preserve"><style>.st2{fill:#1a1a18}.st3{font-family:Helvetica,Arial,sans-serif}.st4{font-size:32px}.st6{fill:#1d1d1b}.st7,.st8{fill:none;stroke:#000;stroke-linecap:round;stroke-linejoin:round}.st8{stroke-width:.75}</style><g id="ens_C10-1614-3M" stroke="#000" stroke-linecap="round" stroke-linejoin="round"><path fill="#f2f2f2" stroke-width="3.2" d="M277.5 236.8l-5.3 5.6v22.1h-35.5l-3.5 3.2v413.9l3.5 3.5h35.5v22.2l5.3 5.2h6.6l1.1-1v1h40.1l1-1v-8.8h3.2v9.8h85.4l1-1v-9.9h11.3v9.9l1 1h242.1l5.6-5.2v-15.5h33.4v14.4l6.7 6.3h44.3l6.6-6.3v-51.7h2.1l1.1-1V611H781v4.2h26.7l6.7-6.7v-8.8h14.4l2.1-2.1V352l-2.1-2.4h-14.4v-8.8l-6.7-6.7H781v4.6h-10.9v-42.5l-1.1-1.4h-2.1v-51.3l-6.6-6.7H716l-6.7 6.7v14.4h-33.4v-15.5l-5.6-5.6H428.2l-1 1V248h-11.3v-10.2l-1-1h-85.4v9.8h-3.2v-8.8l-1-1h-40.1v1l-1.1-1h-6.6" id="outline"/><path d="M830.2 600.3V349.8m2.1 248.4V352.3m-23.2 263.4V334.3m6.7 274.8V341m-33.4 274.7V334.3m-12 320.8V294.9m1.1 359.2V296.3m-54.2 416.9V236.9m-6.7 469.6V243.6m51 469.6V236.9m6.7 469.6V243.6M415.8 713.2V236.9m1.1 475.2V237.9m-86.6 475.3V236.9m98.9 476.3V236.9m-1.1 475.2V237.9m243.5 475.3V236.9m5.6 471V242.5M326.1 713.2V236.9m1.1 475.2V237.9M286 713.2V236.9m-48.5 448.9V264.7m-3.6 417.5V267.8m44.4 445.4V236.9m-5.3 471V242.5m12 470.7V236.9m547.3 361.3l-2.1 2.1m2.1-248l-2.1-2.5h-14.4m0 250.5h14.4m-14.4 8.8l-6.7 6.6m6.7-274.7l-6.7-6.7h-26.7m0 281.4h26.7m-37.6-276.8h10.9m-10.9 272.6h10.9m-10.9 42.6l-1.1 1m1.1-358.8l-1.1-1.4h-2.1m0 360.2h2.1m-59.8-411.5l6.7-6.7m-6.7 469.6l6.7 6.7m0-476.3h44.3m-44.3 476.3h44.3l6.7-6.7m0-462.9l-6.7-6.7M677.2 258h33.4m-33.4 434.4h33.4m-293.7 19.7l-1.1 1.1m1.1-475.3l-1.1-1h-85.5m0 476.3h85.5m12.3-475.3l1.1-1m-1.1 475.2l1.1 1.1m0-476.3h242.4M429.2 713.2h242.4l5.6-5.3m0-465.4l-5.6-5.6m-254.7 11.2h11.2m-11.2 454.2h11.2M327.2 246.7h3.1m-3.1 456.6h3.1m-3.1 8.8l-1.1 1.1m1.1-475.3l-1.1-1H286m0 476.3h40.1m-92.2-445.4l3.6-3.1m-3.6 417.5l3.6 3.6m0-421.1H273m-35.5 421.1H273m0-443.3l5.3-5.6m-5.3 471l5.3 5.3m0-476.3h6.7m-6.7 476.3h6.7l1-1.1m0-474.2l-1-1" fill="none" stroke-width=".5" id="horiz-lines"/></g><g id="bemaßung"><g id="text"><text transform="translate(471.28 70.55)" class="st2 st3 st4">48.5</text><text transform="matrix(.93 0 0 1 821.65 70.55)" class="st2 st3 st4">17.526</text><text transform="matrix(.93 0 0 1 868.23 133.6)" class="st2 st3 st4">12</text><path class="st2" d="M1117.9 785.4v-22.9h2.9l11.2 18v-18h2.7v22.9h-2.9l-11.2-18v18h-2.7zm20.2-8.3c0-3.1.8-5.3 2.4-6.8 1.3-1.2 3.1-1.9 4.8-1.8 2-.1 3.9.8 5.2 2.2 1.4 1.7 2.1 3.9 2 6.2.1 1.7-.2 3.4-.9 5-.6 1.2-1.5 2.2-2.6 2.8-1.1.7-2.4 1-3.7 1-2 .1-3.9-.7-5.2-2.2-1.3-1.5-2-3.6-2-6.4zm2.7 0c-.1 1.7.3 3.4 1.3 4.8 1.4 1.8 4 2.1 5.8.7.3-.2.5-.5.7-.7 1-1.4 1.4-3.1 1.3-4.9.1-1.7-.3-3.3-1.3-4.7-1.4-1.8-4-2.1-5.8-.7-.3.2-.5.5-.7.7-1 1.4-1.4 3.1-1.3 4.8zm20.5 5.8l.4 2.5c-.7.2-1.3.2-2 .3-.8 0-1.5-.1-2.2-.5-.5-.3-.9-.7-1.1-1.3-.3-1.1-.4-2.2-.3-3.3V771h-1.9v-2.2h1.9v-4.1l2.6-1.7v5.8h2.6v2.2h-2.6v9.7c0 .5 0 1 .1 1.5.1.2.2.4.4.5.3.1.6.2.9.2.5.1.8 0 1.2 0zm16.6 0l.4 2.5c-.7.2-1.3.2-2 .3-.8 0-1.5-.1-2.2-.5-.5-.3-.9-.7-1.1-1.3-.3-1.1-.4-2.2-.3-3.3V771h-1.9v-2.2h1.9v-4.1l2.6-1.7v5.8h2.6v2.2h-2.6v9.7c0 .5 0 1 .1 1.5.1.2.2.4.4.5.3.1.6.2.9.2.4.1.8 0 1.2 0zm1.5-5.8c0-3.1.8-5.3 2.4-6.8 1.3-1.2 3.1-1.9 4.8-1.8 2-.1 3.9.8 5.2 2.2 1.4 1.7 2.1 3.9 2 6.2.1 1.7-.2 3.4-.9 5-.6 1.2-1.5 2.2-2.6 2.8-1.1.7-2.4 1-3.7 1-2 .1-3.9-.7-5.2-2.2-1.3-1.5-1.9-3.6-2-6.4zm2.7 0c-.1 1.7.3 3.4 1.3 4.8.8 1 2 1.6 3.3 1.6 1.3 0 2.5-.6 3.2-1.6 1-1.4 1.4-3.1 1.3-4.9.1-1.7-.3-3.3-1.3-4.7-.8-1-2-1.6-3.2-1.6-1.3 0-2.5.6-3.3 1.6-.9 1.4-1.4 3.1-1.3 4.8zm22.1 3.3l2.6-.4c.1 2 1.7 3.6 3.7 3.5h.3c1 .1 1.9-.2 2.7-.8.5-.5.9-1.1.9-1.8 0-.6-.3-1.2-.8-1.5-.8-.4-1.7-.8-2.7-1-1.4-.3-2.7-.8-4-1.3-.7-.3-1.3-.9-1.7-1.6-.4-.7-.6-1.4-.6-2.2 0-1.4.6-2.8 1.8-3.6.5-.4 1.1-.6 1.7-.8.7-.2 1.5-.3 2.3-.3 1.1 0 2.2.2 3.2.6.8.3 1.5.8 2 1.5.5.8.8 1.7.9 2.6l-2.6.4c-.1-.8-.4-1.5-1-2-.7-.5-1.5-.8-2.4-.7-.9-.1-1.8.1-2.6.6-.5.4-.8.9-.8 1.5 0 .4.1.7.3 1 .3.3.6.6 1 .8.3.1 1 .4 2.3.7 1.3.3 2.6.8 3.9 1.3.7.3 1.3.8 1.7 1.5.4.7.7 1.6.6 2.4 0 2-1.2 3.8-3 4.6-1 .5-2.1.7-3.3.7-1.6.1-3.3-.4-4.6-1.3-1-1.4-1.6-2.8-1.8-4.4zm26-1.1l2.6.4c-.2 1.7-.9 3.3-2.2 4.5-1.2 1.1-2.7 1.7-4.3 1.6-2 .1-3.8-.7-5.1-2.2-1.4-1.8-2.1-4.1-1.9-6.4 0-1.6.2-3.2.8-4.7.5-1.3 1.4-2.3 2.5-3 1.1-.7 2.4-1 3.7-1 1.5-.1 3 .4 4.1 1.4 1.1 1 1.8 2.4 2 3.9l-2.5.4c-.2-1-.6-1.8-1.3-2.5-.6-.6-1.4-.9-2.2-.8-1.3 0-2.4.5-3.2 1.5-.9 1.4-1.4 3.1-1.2 4.8 0 2.2.4 3.8 1.2 4.9.7 1 1.9 1.5 3.1 1.5 1 0 1.9-.3 2.6-1 .7-1 1.2-2.1 1.3-3.3zm14.9 4c-.8.8-1.8 1.4-2.8 1.9-.9.4-1.9.6-2.9.5-1.4.1-2.8-.4-3.9-1.3-.9-.9-1.4-2.1-1.4-3.4 0-.8.2-1.5.5-2.2.3-.6.8-1.2 1.3-1.6.6-.4 1.2-.7 1.9-.9.8-.2 1.5-.3 2.3-.4 1.6-.2 3.2-.5 4.7-1v-.7c.1-.9-.2-1.7-.7-2.4-.8-.7-1.9-1.1-3-1-1-.1-1.9.2-2.7.7-.7.7-1.2 1.5-1.3 2.5l-2.6-.4c.2-1 .6-2 1.2-2.9.6-.7 1.4-1.3 2.3-1.6 1.1-.4 2.3-.6 3.5-.6 1.1 0 2.2.1 3.2.5.7.2 1.3.7 1.8 1.3.4.6.7 1.2.8 1.9.1.9.2 1.7.1 2.6v3.8c0 1.7 0 3.3.2 5 .1.7.3 1.4.7 2h-2.7c-.3-.8-.5-1.5-.5-2.3zm-.2-6.2c-1.4.5-2.8.9-4.3 1.1-.8.1-1.5.3-2.3.6-.4.2-.8.5-1 .9-.2.4-.4.9-.4 1.3 0 .7.3 1.4.8 1.9.6.5 1.5.8 2.3.8.9 0 1.9-.2 2.7-.7.8-.5 1.4-1.2 1.7-2 .3-.9.5-1.9.4-2.8l.1-1.1zm6.6 8.3v-22.9h2.6v22.9h-2.6zm17.2-5.4l2.7.4c-.3 1.6-1.2 3-2.4 4-3 2.2-7.2 1.8-9.8-.8-1.4-1.8-2.1-4-2-6.3-.1-2.3.6-4.7 2-6.5 1.3-1.5 3.2-2.4 5.2-2.3 1.9-.1 3.8.8 5.1 2.3 1.4 1.8 2.1 4.1 2 6.4v.8H1260c0 1.5.5 3 1.4 4.2.8.9 2 1.5 3.2 1.5.9 0 1.8-.3 2.5-.8.8-.9 1.4-1.8 1.6-2.9zm-8.5-4.5h8.6c0-1.1-.4-2.2-1-3.1-.7-1-2-1.6-3.2-1.6-1.1 0-2.2.5-3 1.3-.9.9-1.4 2.1-1.4 3.4zm-142.3 48.3v-22.9h7.3c1.3 0 2.5.1 3.8.3 1.2.3 2.2.8 3.1 1.6 1.2 1.1 2 2.4 2.5 3.9.6 1.8.9 3.6.8 5.5 0 1.6-.2 3.1-.6 4.6-.3 1.2-.8 2.3-1.5 3.3-1 1.6-2.6 2.8-4.5 3.2-1.1.3-2.3.4-3.4.4l-7.5.1zm2.8-2.7h4.6c1.1 0 2.2-.1 3.3-.4.7-.2 1.4-.6 1.9-1.2.7-.8 1.3-1.8 1.6-2.9.4-1.4.6-2.9.6-4.4.1-1.9-.3-3.8-1.1-5.5-.6-1.1-1.5-2.1-2.7-2.6-1.2-.4-2.4-.5-3.6-.5h-4.5l-.1 17.5zm18.4-17v-3.2h2.6v3.2h-2.6zm0 19.7v-16.6h2.6v16.6h-2.6zm6.6 0v-16.6h2.3v2.3c.5-.8 1.1-1.5 1.9-2 .8-.5 1.8-.8 2.8-.7 1 0 2 .2 2.8.8.7.5 1.3 1.3 1.6 2.1.9-1.8 2.8-2.9 4.8-2.9 1.3-.1 2.6.4 3.5 1.4.9 1.2 1.4 2.7 1.2 4.2v11.4h-2.6v-10.5c0-.8 0-1.6-.3-2.4-.2-.5-.5-.9-.9-1.2-.5-.3-1-.5-1.6-.5-1 0-2 .4-2.7 1.2-.8 1.1-1.2 2.4-1.1 3.7v9.6h-2.6V813c.1-1-.2-2-.6-2.8-.5-.7-1.3-1-2.1-.9-.7 0-1.4.2-2 .6-.6.4-1.1 1.1-1.4 1.8-.3 1.1-.5 2.3-.4 3.5v8.6h-2.6zm35.3-5.3l2.7.4c-.3 1.6-1.2 3-2.4 4-1.3 1-2.8 1.5-4.4 1.4-2 .1-4-.7-5.4-2.2-1.4-1.8-2.1-4-2-6.3-.1-2.3.6-4.6 2-6.5 1.3-1.5 3.2-2.4 5.2-2.3 1.9-.1 3.8.8 5.1 2.3 1.4 1.8 2.1 4.1 2 6.4v.8h-11.5c0 1.5.5 3 1.4 4.2.8.9 2 1.5 3.2 1.5.9 0 1.8-.3 2.4-.8.9-1 1.4-1.9 1.7-2.9zm-8.6-4.6h8.6c0-1.1-.4-2.2-1-3.2-.8-1-2-1.6-3.2-1.6-1.1 0-2.2.5-3 1.3-.9 1-1.3 2.2-1.4 3.5zm14.6 9.9v-16.6h2.4v2.4c1-1.8 2.9-2.8 4.9-2.7.9 0 1.8.2 2.6.5.7.3 1.3.8 1.8 1.4.4.6.7 1.3.8 2.1.1.9.2 1.8.1 2.7v10.2h-2.5v-10.1c0-.9-.1-1.7-.3-2.6-.2-.6-.6-1-1.1-1.4-.5-.3-1.2-.5-1.8-.5-1.1 0-2.1.4-2.9 1.2-.8.8-1.2 2.2-1.2 4.3v9.1h-2.8zm15.5-5l2.6-.4c.1 2 1.8 3.5 3.7 3.5h.3c1 .1 1.9-.2 2.7-.8.5-.5.9-1.1.9-1.8 0-.6-.3-1.2-.8-1.5-.8-.4-1.7-.8-2.7-1-1.4-.3-2.7-.8-4-1.3-.7-.3-1.3-.9-1.7-1.6-.4-.7-.6-1.4-.6-2.2 0-1.4.6-2.8 1.8-3.6.5-.4 1.1-.6 1.7-.8.7-.2 1.5-.3 2.3-.3 1.1 0 2.2.2 3.2.6.8.3 1.5.8 2 1.5.5.8.8 1.7.9 2.6l-2.6.4c-.1-.8-.4-1.5-1-2-.7-.5-1.5-.8-2.4-.7-.9-.1-1.8.1-2.6.6-.5.4-.8.9-.8 1.5 0 .4.1.7.3 1 .3.3.6.6 1 .8.3.1 1 .3 2.3.7 1.3.3 2.6.8 3.9 1.3.7.3 1.3.8 1.7 1.5.4.7.7 1.6.6 2.4 0 2-1.2 3.8-3 4.6-1 .5-2.1.7-3.3.7-1.6.1-3.3-.4-4.6-1.3-.9-1.5-1.6-2.9-1.8-4.4zm16-14.7v-3.2h2.6v3.2h-2.6zm0 19.7v-16.6h2.6v16.6h-2.6zm5.6-8.3c0-3.1.8-5.4 2.4-6.8 1.3-1.2 3.1-1.9 4.8-1.8 2-.1 3.9.8 5.2 2.2 1.4 1.7 2.1 3.9 2 6.2.1 1.7-.2 3.4-.9 5-.6 1.2-1.5 2.2-2.6 2.9-1.1.7-2.4 1-3.7 1-2 .1-3.9-.7-5.2-2.2-1.3-1.6-2-3.7-2-6.5zm2.7 0c-.1 1.7.3 3.4 1.3 4.8 1.4 1.8 4 2.1 5.8.7.3-.2.5-.5.7-.7 1-1.4 1.4-3.1 1.3-4.8.1-1.7-.3-3.3-1.3-4.7-1.4-1.8-4-2.1-5.8-.7-.3.2-.5.4-.7.7-1 1.3-1.4 3-1.3 4.7zm14.8 8.3v-16.6h2.4v2.4c1-1.7 2.9-2.8 4.9-2.7.9 0 1.8.2 2.6.5.7.3 1.3.8 1.8 1.4.4.6.7 1.3.8 2.1.1.9.2 1.8.2 2.7v10.2h-2.6v-10.1c0-.9-.1-1.7-.3-2.6-.2-.6-.6-1-1.1-1.4-.5-.3-1.2-.5-1.8-.5-1.1 0-2.1.4-2.9 1.2-.8.8-1.2 2.2-1.2 4.3v9.1h-2.8zm15.5-5l2.6-.4c.1 2 1.8 3.5 3.7 3.5h.3c1 .1 1.9-.2 2.7-.8.5-.5.9-1.1.9-1.8 0-.6-.3-1.2-.8-1.5-.8-.4-1.7-.8-2.7-1-1.4-.3-2.7-.8-4-1.3-.7-.3-1.3-.9-1.7-1.6-.4-.7-.6-1.4-.6-2.2 0-1.4.6-2.8 1.8-3.6.5-.4 1.1-.6 1.7-.8.7-.2 1.5-.3 2.3-.3 1.1 0 2.2.2 3.2.6.8.3 1.5.8 2 1.5.5.8.8 1.7.9 2.6l-2.6.4c-.1-.8-.4-1.5-1-2-.7-.5-1.5-.8-2.4-.7-.9-.1-1.8.1-2.6.6-.5.4-.8.9-.8 1.5 0 .4.1.7.3 1 .3.3.6.6 1 .8.3.1 1 .3 2.3.7 1.3.3 2.6.8 3.9 1.3.7.3 1.3.8 1.7 1.5.4.7.6 1.6.6 2.4 0 .9-.3 1.9-.8 2.7-.5.8-1.3 1.5-2.2 1.9-1 .5-2.1.7-3.3.7-1.6.1-3.3-.4-4.6-1.3-.9-1.4-1.6-2.8-1.8-4.4zm24.2-14.7v-3.2h2.7v3.2h-2.7zm0 19.7v-16.6h2.7v16.6h-2.7zm6.6 0v-16.6h2.3v2.4c1-1.8 2.9-2.8 4.9-2.7.9 0 1.8.2 2.6.5.7.3 1.3.8 1.8 1.4.4.6.7 1.3.8 2.1.1.9.2 1.8.1 2.7v10.2h-2.6v-10.1c0-.9-.1-1.7-.3-2.6-.2-.6-.6-1-1.1-1.4-.5-.3-1.2-.5-1.8-.5-1.1 0-2.1.4-2.9 1.2-.8.8-1.2 2.2-1.2 4.3v9.1h-2.6zm24.9 0v-16.6h2.3v2.3c.5-.8 1.1-1.5 1.9-2 .8-.5 1.8-.8 2.8-.7 1 0 2 .2 2.8.8.7.5 1.3 1.3 1.6 2.1.9-1.8 2.8-2.9 4.8-2.9 1.3-.1 2.6.4 3.5 1.4.9 1.2 1.4 2.7 1.2 4.2v11.4h-2.6v-10.5c0-.8-.1-1.6-.3-2.4-.2-.5-.5-.9-.9-1.2-.5-.3-1-.5-1.6-.5-1 0-2 .4-2.7 1.2-.8 1.1-1.2 2.4-1.1 3.7v9.6h-2.6V813c.1-1-.2-2-.6-2.8-.5-.7-1.3-1-2.1-.9-.7 0-1.4.2-2 .6-.6.4-1.1 1.1-1.3 1.8-.3 1.1-.5 2.3-.4 3.5v8.6h-2.7zm24.7 0v-16.6h2.3v2.3c.5-.8 1.1-1.5 1.9-2 .8-.5 1.8-.8 2.8-.7 1 0 2 .2 2.8.8.7.5 1.3 1.3 1.6 2.1.9-1.8 2.8-2.9 4.8-2.9 1.3-.1 2.6.4 3.5 1.4.9 1.2 1.4 2.7 1.2 4.2v11.4h-2.6v-10.5c0-.8-.1-1.6-.3-2.4-.2-.5-.5-.9-.9-1.2-.5-.3-1-.5-1.6-.5-1 0-2 .4-2.7 1.2-.8 1.1-1.2 2.4-1.1 3.7v9.6h-2.6V813c.1-1-.2-2-.6-2.8-.5-.7-1.3-1-2.1-.9-.7 0-1.4.2-2 .6-.6.4-1.1 1.1-1.4 1.8-.3 1.1-.5 2.3-.4 3.5v8.6h-2.6z"/><text transform="matrix(.93 0 0 1 1161.39 191.83)" class="st2 st3 st4">Sensor Position</text><text transform="matrix(.93 0 0 1 779.26 152.86)" class="st2 st3 st4">5.5</text><text transform="matrix(.93 0 0 1 784.67 201.4)" class="st2 st3 st4">4</text><text transform="translate(236.14 202.86)" class="st2 st3 st4" letter-spacing="-4">3.5</text><text transform="rotate(-90 280.645 220.715)" class="st2 st3 st4">Ø</text><text transform="rotate(-90 268.2 208.27)" class="st6 st3 st4">38</text><text transform="rotate(-90 344.75 201.08)" class="st2 st3 st4">M35.5x0.5</text><text transform="rotate(-90 850.57 -349.21)" class="st2 st3 st4">Ø</text><text transform="rotate(-90 838.125 -361.655)" class="st6 st3 st4">43</text><text transform="rotate(-90 707.77 -193.07)" class="st2 st3 st4">Ø</text><text transform="rotate(-90 695.325 -205.515)" class="st6 st3 st4">22.6</text><path class="st2" d="M1068.3 548.5v2.8h-17.9c.7.8 1.4 1.7 1.9 2.7.6 1 1.1 2 1.5 3h-2.8c-.7-1.5-1.6-2.9-2.7-4.1-.9-1-1.9-1.9-3.1-2.5v-1.8l23.1-.1zm-14.8-12.3l-4.3-.2-3.8-.8V532l3.8.8 4.3 1.7v1.7zm0 4.4l-4.3-.2-3.8-.8v-3.2l3.8.8 4.3 1.6v1.8zm7.9-10.4h-2.8v-8.6h2.8v8.6zm.8-10.9l-.4-2.8c1.3-.2 2.5-.8 3.4-1.7.7-.8 1.1-1.8 1.1-2.8 0-1.3-.5-2.5-1.4-3.4-.9-.9-2.1-1.4-3.4-1.4-1.2 0-2.3.4-3.2 1.3-.8.9-1.3 2-1.3 3.2 0 .7.1 1.3.3 2l-2.5-.3v-.5c0-1.1-.3-2.3-.9-3.2-.6-1-1.7-1.5-2.9-1.4-1 0-1.9.4-2.6 1-.7.7-1 1.7-1 2.7 0 1 .3 2 1 2.7.8.8 1.9 1.3 3.1 1.4l-.5 2.8c-1.7-.2-3.2-1.1-4.4-2.3-1.1-1.3-1.6-2.9-1.6-4.5 0-1.2.3-2.4.8-3.5.5-1 1.3-1.8 2.2-2.4.9-.6 1.9-.8 3-.8 1 0 1.9.3 2.7.8.9.6 1.5 1.4 1.9 2.4.2-1.3.9-2.4 1.9-3.2 1.1-.8 2.4-1.2 3.7-1.1 1.9 0 3.8.8 5.1 2.2 1.4 1.5 2.2 3.5 2.1 5.5.1 1.8-.6 3.6-1.8 5-.9 1.3-2.6 2.1-4.4 2.3zm3.4-32.6h2.7v15.1c-.7 0-1.4-.1-2-.3-1.1-.4-2.1-1.1-3-1.9-1.3-1.1-2.4-2.4-3.5-3.7-1.4-1.9-3.1-3.6-4.8-5-1-.8-2.1-1.2-3.4-1.3-1.1 0-2.1.4-2.8 1.2-1.5 1.9-1.5 4.6.1 6.4.9.9 2.1 1.3 3.4 1.2l-.3 2.9c-1.9-.1-3.6-.9-4.9-2.2-1.2-1.5-1.8-3.3-1.7-5.2-.1-1.9.6-3.8 1.8-5.2 1.2-1.3 2.8-2 4.5-1.9.9 0 1.8.2 2.7.6 1 .5 2 1.1 2.8 1.9 1.4 1.4 2.8 2.8 4 4.3 1.4 1.7 2.4 2.8 2.9 3.3l1.5 1.2v-11.4zm-20.2-28.1v-3h13.2c1.9-.1 3.7.2 5.5.8 1.4.5 2.6 1.5 3.3 2.8.9 1.6 1.4 3.5 1.3 5.4.1 1.8-.3 3.6-1.1 5.3-.7 1.3-1.8 2.4-3.2 2.9-1.8.7-3.8.9-5.7.9h-13.2v-3h13.2c1.5.1 3-.1 4.4-.5.9-.4 1.7-1 2.2-1.9.5-1 .8-2.2.8-3.3 0-2.2-.5-3.8-1.5-4.8-1-.9-3-1.4-5.8-1.4l-13.4-.2zm22.9-8h-22.9v-3.1l18-12h-18v-2.9h22.9v3.1l-18 12h18v2.9zm-6.9-21.7h-2.8v-8.6h2.8v8.6zm4.2-25.8h2.7v15.1c-.7 0-1.4-.1-2-.3-1.1-.4-2.1-1.1-3-1.9-1.3-1.1-2.4-2.3-3.5-3.7-1.4-1.9-3-3.6-4.8-5-1-.8-2.1-1.2-3.4-1.3-1.1 0-2.1.4-2.8 1.2-.8.8-1.2 2-1.1 3.1-.1 1.2.4 2.4 1.2 3.3.9.8 2.1 1.3 3.4 1.2l-.3 2.9c-1.9-.1-3.6-.9-4.9-2.2-1.2-1.5-1.8-3.3-1.7-5.2-.1-1.9.6-3.8 1.8-5.2 1.2-1.3 2.8-2 4.5-1.9.9 0 1.8.2 2.7.6 1 .5 2 1.1 2.8 1.9 1.4 1.4 2.8 2.8 4 4.3 1.4 1.7 2.4 2.8 2.9 3.3l1.5 1.2v-11.4zm2.7-1.6l-22.9-8.8v-3.3l22.9-9.4v3.5l-6.9 2.7v9.6l6.9 2.5v3.2zm-9.4-6.6v-7.8l-6.3 2.4c-1.9.7-3.5 1.3-4.8 1.6 1.5.3 2.9.7 4.4 1.2l6.7 2.6zm54.5 140.7c-2.1 1.6-4.4 3-6.9 3.9-2.6 1.1-5.4 1.6-8.2 1.6-2.4 0-4.8-.4-7.1-1.2-2.8-1-5.5-2.5-7.9-4.3v-2c2.2 1.3 3.7 2.1 4.6 2.5 1.4.6 3 1.1 4.5 1.5 1.9.4 3.9.7 5.9.7 5.3-.1 10.5-1.7 15-4.7l.1 2zm-14.7-21.9l.8-3c2.2.5 4.2 1.7 5.7 3.4 1.3 1.7 2.1 3.9 2 6.1.1 2.1-.4 4.2-1.5 6-1.1 1.6-2.6 2.8-4.4 3.5-1.9.8-4 1.2-6.1 1.2-2.2.1-4.3-.4-6.2-1.4-1.7-.9-3.1-2.2-4-3.9-.9-1.7-1.4-3.6-1.4-5.6-.1-2.1.5-4.1 1.8-5.8 1.2-1.6 3-2.8 4.9-3.3l.7 3c-1.4.4-2.7 1.2-3.6 2.3-.8 1.1-1.2 2.4-1.1 3.8-.1 1.6.4 3.1 1.3 4.4.8 1.2 2 2 3.4 2.5s2.9.7 4.4.7c1.7 0 3.5-.3 5.1-.8 1.4-.5 2.5-1.4 3.3-2.7.7-1.2 1.1-2.5 1.1-3.9 0-1.6-.5-3.1-1.5-4.3-1.4-1.1-3-2-4.7-2.2zm1.1-5.4h-2.8v-8.6h2.8v8.6zm6.9-12h-22.9v-4.6l16.2-5.4c1.5-.5 2.6-.9 3.4-1.1-.8-.3-2.1-.7-3.7-1.2l-15.9-5.5v-4.1h22.9v2.9h-19.2l19.2 6.7v2.7l-19.5 6.6h19.5v3zm-8.3-25.3c-3.1 0-5.3-.9-6.8-2.6-1.2-1.5-1.9-3.3-1.8-5.2-.1-2.1.7-4.1 2.2-5.6 1.7-1.5 3.9-2.3 6.2-2.2 1.7-.1 3.4.3 5 1 1.2.6 2.2 1.6 2.8 2.8.7 1.2 1 2.6 1 4 .1 2.1-.7 4.2-2.2 5.6-1.5 1.5-3.6 2.2-6.4 2.2zm0-2.9c1.7.1 3.4-.4 4.8-1.4 1.9-1.7 2.1-4.6.5-6.5-.1-.2-.3-.3-.5-.5-1.4-1-3.1-1.5-4.9-1.4-1.7-.1-3.3.4-4.7 1.4-1.9 1.7-2.1 4.6-.5 6.5.1.2.3.3.5.5 1.4 1 3.1 1.5 4.8 1.4zm8.3-26.8h-2.4c1.8 1.1 2.9 3.1 2.8 5.3 0 .9-.2 1.9-.6 2.7-.3.7-.8 1.4-1.4 1.9-.6.4-1.3.7-2.1.9-.9.1-1.7.2-2.6.2h-10.3v-2.8h9.2c1 0 2 0 3-.2.7-.2 1.3-.6 1.7-1.1.4-.6.7-1.4.6-2.1 0-.8-.2-1.7-.7-2.4-.4-.7-1-1.3-1.8-1.6-1-.3-2.1-.5-3.2-.5h-8.9v-2.8h16.6l.1 2.5zm0-7h-16.6v-2.5h2.4c-1.8-1.2-2.8-3.2-2.7-5.3 0-.9.2-1.9.5-2.8.3-.7.8-1.4 1.4-1.9.6-.4 1.3-.7 2.1-.9.9-.1 1.8-.2 2.7-.1h10.2v2.8h-10.1c-.9 0-1.7.1-2.6.3-.6.2-1 .6-1.3 1.2-.4.6-.5 1.3-.5 2 0 1.1.4 2.3 1.1 3.1.8.9 2.2 1.3 4.3 1.3h9.1v2.8zm-2.5-23.9l2.5-.4c.2.7.2 1.4.3 2.1 0 .8-.1 1.6-.5 2.4-.3.5-.7.9-1.3 1.2-1.1.3-2.2.4-3.3.3h-9.6v2.1h-2.2V416h-4.1l-1.7-2.8h5.8v-2.8h2.2v2.8h9.7c.5 0 1 0 1.5-.1.2-.1.4-.3.6-.5.2-.3.2-.7.2-1 0-.4-.1-.8-.1-1.2zm9.2-4.6v2c-4.5-2.9-9.7-4.6-15-4.7-2 0-3.9.2-5.8.7-1.5.3-3.1.8-4.5 1.5-.9.4-2.5 1.3-4.7 2.5v-2c2.4-1.8 5.1-3.3 7.9-4.3 5-1.7 10.4-1.6 15.3.4 2.4 1 4.7 2.3 6.8 3.9zm-150.1-36.5h6.7v210.6h-6.7z"/></g><g id="arrows"><path class="st7" d="M69.7 291.3V658"/><path d="M61 297.3l8.7-32.5 8.7 32.5zm0 354.8l8.7 32.5 8.7-32.5z"/><path class="st7" d="M149.8 305.9v338.8"/><path d="M141.1 311.8l8.7-32.5 8.7 32.5zm0 327l8.7 32.5 8.7-32.5z"/><path class="st7" d="M1114.8 363.9v223.5"/><path d="M1106.1 369.8l8.7-32.5 8.8 32.5zm0 211.7l8.7 32.5 8.8-32.5z"/><path class="st7" d="M868.8 376.7v196"/><path d="M860 382.6l8.8-32.5 8.7 32.5zm0 184.2l8.8 32.5 8.7-32.5z"/><path class="st7" d="M261.9 81.7h479.3"/><path d="M267.8 90.4l-32.5-8.7 32.5-8.7zm467.4 0l32.6-8.7-32.6-8.7z"/><path class="st7" d="M675.4 145.1h65.7"/><path d="M735.1 153.8l32.6-8.7-32.6-8.8z"/><path class="st7" d="M675.4 194.1h65.7"/><path d="M735.1 202.8l32.6-8.7-32.6-8.7z"/><path class="st7" d="M143.5 193.2h65.7"/><path d="M203.2 201.9l32.6-8.7-32.6-8.7z"/><path class="st7" d="M365.6 193.2h-65.7"/><path d="M305.9 184.5l-32.6 8.7 32.6 8.7z"/><path class="st7" d="M905.6 193.2h-65.7"/><path d="M845.9 184.5l-32.6 8.7 32.6 8.7z"/><path class="st7" d="M794.3 81.7h140.6"/><path d="M800.3 90.4l-32.5-8.7 32.5-8.7zm128.7 0l32.5-8.7L929 73z"/><path class="st7" d="M857.5 145.1h79.3"/><path d="M863.4 153.8l-32.5-8.7 32.5-8.8zm67.5 0l32.5-8.7-32.5-8.8z"/><path class="st7" d="M1168.5 262.2v424.4"/><path d="M1159.8 268.2l8.7-32.5 8.7 32.5zm0 412.5l8.7 32.5 8.7-32.5z"/><path class="st7" d="M980.1 452.9l161-261.1h11"/><path d="M990.6 452.4l-24.5 23.1 9.7-32.3z"/></g><g id="lines"><path class="st8" d="M272.2 242.4v-55.5"/><path fill="none" stroke="#000" stroke-width=".78" stroke-linecap="round" stroke-linejoin="round" d="M964 474.7V70.5"/><path class="st8" d="M830.9 352V141.2m-16.5 199.6V185.5"/><path fill="none" stroke="#000" stroke-width=".76" stroke-linecap="round" stroke-linejoin="round" d="M830.9 352V133.6"/><path class="st8" d="M218.8 474.7h-17.6"/><path d="M233.9 278.3h-95.7m95.7 392.8h-95.7" stroke-width=".98" fill="none" stroke="#000" stroke-linecap="round" stroke-linejoin="round"/><path d="M236.7 264.5H59.9m176.8 420.6H59.9" stroke-width=".91" fill="none" stroke="#000" stroke-linecap="round" stroke-linejoin="round"/><path class="st8" d="M224.1 474.7h-.7m620.8 0H827m1.8 125h59m-59-250.1h59"/><path d="M807.7 334.1h317.1M807.7 615.2h317.1" stroke-width="1.07" fill="none" stroke="#000" stroke-linecap="round" stroke-linejoin="round"/><path d="M670.3 712.5H1177M670.3 236.8H1177" stroke-width=".89" fill="none" stroke="#000" stroke-linecap="round" stroke-linejoin="round"/><path class="st8" d="M670.3 474.7h-15.8m-3.9 0h-.7m-3.9 0h-31.9m-3.9 0h-.7m-3.8 0h-32m-3.9 0h-.7m-3.9 0h-31.9m-3.9 0h-.7m-3.9 0h-31.9m-3.9 0h-.7m-3.9 0h-31.9m-3.9 0h-.7m-3.9 0h-15.8m394.6 0h-.7m-4.2 0h-34.5m-4.2 0h-.7m-4.2 0h-34.1m-4.2 0h-.7m-4.2 0h-34.4m-4.3 0h-.7m-4.2 0h-17.2m-242.1 0h-17.9m-4.6 0h-.7m-4.5 0H365m-4.6 0h-.7m-4.6 0h-35.8m-4.2 0h-.7m-4.6 0H274m-4.6 0h-.7m-4.2 0h-35.9"/><path fill="none" stroke="#000" stroke-width=".81" stroke-linecap="round" stroke-linejoin="round" d="M233.2 267.7V70.5"/><path fill="none" stroke="#000" stroke-width=".8" stroke-linecap="round" stroke-linejoin="round" d="M770.1 296.2V70.5"/></g></g></svg>