<svg version="1.1" id="Layer_1" xmlns="http://www.w3.org/2000/svg" x="0" y="0" viewBox="0 0 469.6 237.8" style="background-color:#fff" xml:space="preserve"><style>.st1{stroke-linejoin:round}.st1,.st2{fill:none;stroke:#000;stroke-miterlimit:3.864}.st6{fill-rule:evenodd;clip-rule:evenodd}.st7,.st8{fill:none;stroke:#000;stroke-miterlimit:3.864}.st7{stroke-linejoin:round;stroke-width:3.000000e-03}.st8{stroke-width:.85}.st9{font-family:Helvetica,Arial,sans-serif}.st10{font-size:11.25px}.st11{font-size:11.248px}.st14{fill:none;stroke:#000;stroke-linejoin:round;stroke-dasharray:6.0675,2.0225}</style><path class="st1" d="M400.7 111H422v106.6h-21.3V111zM214 174.6h186.7"/><path class="st2" d="M28 88.5h80.7l9.7 9.8-10 10H28l-9.4-9.9 9.4-9.9z"/><path d="M13.5 13.3h387.2v215.1H13.5V13.3z" fill="none" stroke="#000" stroke-width=".722" stroke-linejoin="round" stroke-miterlimit="3.864" stroke-dasharray="8,4"/><path d="M400.3 123.2h-50" fill="none" stroke="#000" stroke-width="1.001" stroke-linejoin="round" stroke-miterlimit="3.864"/><path d="M185.7 98.6c0-1.6 1.3-2.8 2.8-2.8 1.6 0 2.8 1.3 2.8 2.8 0 1.6-1.3 2.8-2.8 2.8-1.5.1-2.8-1.2-2.8-2.8z"/><path d="M185.7 98.6c0-1.6 1.3-2.8 2.8-2.8 1.6 0 2.8 1.3 2.8 2.8 0 1.6-1.3 2.8-2.8 2.8-1.5.1-2.8-1.2-2.8-2.8z" fill="none" stroke="#000" stroke-width=".5" stroke-miterlimit="3.864"/><path class="st1" d="M217.4 146.4h-10"/><path class="st6" d="M220.8 79.8h-16.6l8.3-9.9 8.3 9.9z"/><path class="st7" d="M220.8 79.8h-16.6l8.3-9.9 8.3 9.9z"/><path class="st8" d="M207.6 70.3h9.6m-.2-.1l2.9 2.9m-15-5.5l2.9 2.9"/><path class="st6" d="M196.9 79.6h-16.7l8.4-9.9 8.3 9.9z"/><path class="st7" d="M196.9 79.6h-16.7l8.4-9.9 8.3 9.9z"/><path class="st8" d="M182.7 69.7h11.7"/><path class="st6" d="M196.9 127.1h-16.7l8.4-9.9 8.3 9.9z"/><path class="st7" d="M196.9 127.1h-16.7l8.4-9.9 8.3 9.9z"/><path class="st8" d="M182.7 117.2h11.7"/><path class="st2" d="M188.6 53.4h23.9v85.2h-23.9V53.4zm23.9 82.8v10.2"/><path class="st1" d="M355.3 147.8h-10m55.4 9.6H283.4l-.3-59H118.4"/><text transform="translate(407.41 126.857)" class="st9 st10">1</text><text transform="translate(407.41 143.73)" class="st9 st10">2</text><text transform="translate(407.41 160.605)" class="st9 st10">3</text><text transform="translate(407.41 177.478)" class="st9 st10">4</text><text transform="translate(407.41 194.352)" class="st9 st10">5</text><text transform="translate(407.41 211.226)" class="st9 st10">6</text><text transform="translate(43.054 102.9)" class="st9 st10">FPGA I/O</text><text transform="translate(301.484 120.107)" class="st9 st11">3.3 VDC</text><text transform="translate(301.484 133.607)" class="st9 st11">(typical)</text><text transform="translate(407.405 89.325)"><tspan x="0" y="0" class="st9 st11">I/O </tspan><tspan x="0" y="13.5" class="st9 st11">connector</tspan></text><text transform="translate(24.296 32.32)" class="st9" font-size="13">Camera module</text><path class="st14" d="M400.3 207.9H290"/><text transform="translate(124.847 177.477)" class="st9 st10">Identical to pin 3</text><text transform="translate(124.847 195.312)" class="st9 st10">Identical to pin 3 (dart IMX only)</text><text transform="translate(124.847 213.147)" class="st9 st10">Identical to pin 3 (dart IMX only)</text><path class="st2" d="M350.3 147.8v-7.4h50"/><path class="st14" d="M400.3 191.4H290"/></svg>