<svg version="1.1" id="Layer_1" xmlns="http://www.w3.org/2000/svg" x="0" y="0" viewBox="0 0 200 170" style="background-color:#fff" xml:space="preserve"><style>.st3{stroke:#000;stroke-width:.425;stroke-linecap:round;stroke-linejoin:round}.st3,.st4,.st6{fill:none;stroke-miterlimit:10}.st4{stroke-width:.75;stroke-linecap:round;stroke-linejoin:round;stroke:#000}.st6{stroke:#010202}.st7{fill:#010202}.st8{font-family:Helvetica,Arial,sans-serif}.st9{font-size:14px}</style><path d="M161.5 112.2h7.1l3.6-2.7 2.4 2.2-4.3 3.6-1.8.5v2.8h5.8v114.1h-5.8v4l1.7.6 4.3 3.6-2.4 2.2-3.6-2.9h-7.1v52.9c0 8.7-7.1 15.8-15.8 15.8H-89.6c-8.7 0-15.8-7.1-15.8-15.8V57.8c0-8.7 7.1-15.8 15.8-15.8h235.3c8.7 0 15.8 7.1 15.8 15.8v54.4z" fill="#f2f2f2"/><path d="M124.2 64.8c0 8.2 6.6 14.8 14.8 14.8s14.8-6.6 14.8-14.8S147.2 50 139 50c-8.1-.1-14.8 6.6-14.8 14.8z" fill="#fff" stroke="#010202" stroke-width=".425" stroke-miterlimit="10"/><path class="st3" d="M-44.8 57.5h79v79.1h-79V57.5z"/><path class="st4" d="M58.7 63.4h41V94h-41V63.4z"/><path class="st3" d="M119.2 112.2h49.4v128.1h-49.4V112.2zm10.9 76.3v-33.4m0 0h-10.8m49.3-36.5h-49.3"/><path class="st4" d="M70.4 90.1h-7.5m0 0v-9h7.5v9m25.1 0h-7.4m0 0v-9h7.4v9m-12.6 0h-7.4m0 0v-9h7.4v9M70.4 76.4h-7.5m0 0v-9h7.5v9m25.1 0h-7.4m0 0v-9h7.4v9m-12.6 0h-7.4m0 0v-9h7.4v9"/><path class="st3" d="M-47.8 165.3H51v98.8h-98.8v-98.8zM54.4 42c-1.2 0-1.3.8-1.4 1.1-.5 2.2-2.5 3.9-4.9 3.9s-4.4-1.7-4.9-3.9c-.1-.4-.4-1.1-1.3-1.1"/><path d="M161.5 112.2h7.1l3.6-2.7 2.4 2.2-4.3 3.6-1.8.5v2.8h5.8v114.1h-5.8v4l1.7.6 4.3 3.6-2.4 2.2-3.6-2.9h-7.1v52.9c0 8.7-7.1 15.8-15.8 15.8H-89.6c-8.7 0-15.8-7.1-15.8-15.8V57.8c0-8.7 7.1-15.8 15.8-15.8h235.3c8.7 0 15.8 7.1 15.8 15.8v54.4h0z" fill="none" stroke="#010202" stroke-width=".709" stroke-miterlimit="10"/><path class="st6" d="M91.8 71.9l35.3-36.8M91.8 85.5l41.3 10.2M79.2 85.5l10.3 30.9M66.7 71.8L33.6 38.6m33.6 46.9L27 95.4"/><text transform="translate(16.582 100.1)" class="st7 st8 st9">5</text><text transform="translate(86.053 131.018)" class="st7 st8 st9">3</text><text transform="translate(136.335 103.744)" class="st7 st8 st9">1</text><text transform="translate(129.168 33.244)" class="st7 st8 st9">2</text><text transform="translate(78.01 26.077)" class="st7 st8 st9">4</text><text transform="translate(23.06 37.244)" class="st7 st8 st9">6</text><path class="st6" d="M79.1 71.8l3-41.7"/></svg>