<svg version="1.1" id="Layer_1" xmlns="http://www.w3.org/2000/svg" x="0" y="0" viewBox="0 0 242.5 432.5" style="background-color:#fff" xml:space="preserve"><style>.st1{fill:#f5f5f5}.st2{font-family:Helvetica,Arial,sans-serif}.st3{font-size:12px}.st10{stroke:#000;stroke-miterlimit:10}.st4{fill:#bde4f7}.st4,.st9{stroke:#000;stroke-miterlimit:10}.st10,.st9{fill:none}.st10{stroke-dasharray:3,1,5,1}.st12{fill:#fff}</style><path d="M36.7 121.6h171.7v37H36.7v-37z" fill="#0090d4" stroke="#000" stroke-miterlimit="10"/><text transform="translate(83.42 144.387)" class="st1 st2 st3">Transfer buffer</text><path class="st4" d="M36.7 181.1h80v43.5h-80v-43.5z"/><text transform="translate(43.68 199.852)" class="st2 st3">Transmitting</text><text transform="translate(50.68 214.252)" class="st2 st3">FIFO (Tx)</text><path class="st4" d="M128.4 181.1h80v43.5h-80v-43.5z"/><text transform="translate(142.084 199.852)" class="st2 st3">Receiving</text><text transform="translate(141.784 214.252)" class="st2 st3">FIFO (Rx)</text><path d="M70 8.1h105v60H70v-60z" fill="#14487e" stroke="#000" stroke-miterlimit="10"/><text transform="translate(110.184 42.347)" class="st1 st2 st3">Host</text><path d="M70.1 365.6h105v60h-105v-60z" fill="#f99d33" stroke="#000" stroke-miterlimit="10"/><text transform="translate(81.561 399.818)" class="st2 st3" fill="#1a171b">External device</text><text transform="translate(19.495 109.756)" class="st2 st3">Camera</text><path d="M36.7 265.9h171.7v37H36.7v-37z" fill="#006f9f" stroke="#000" stroke-miterlimit="10"/><text transform="translate(114.582 288.958)" class="st1 st2 st3">I/O</text><path class="st9" d="M122.6 77v35.8"/><path d="M119.7 79l2.9-10.9 2.9 10.9zm0 31.8l2.9 10.8 2.9-10.8z"/><path class="st9" d="M76.8 224.6v32"/><path d="M73.9 254.6l2.9 10.9 2.9-10.9z"/><path class="st9" d="M168.4 233.5v32"/><path d="M165.5 235.5l2.9-10.9 2.9 10.9z"/><path class="st9" d="M168.4 167.5v13.6"/><path d="M165.5 169.5l2.9-10.9 2.9 10.9z"/><path class="st9" d="M76.8 158.6v13.7"/><path d="M73.9 170.3l2.9 10.8 2.9-10.8z"/><path class="st10" d="M144.9 304v52.4"/><path d="M142 354.5l2.9 10.8 2.9-10.8z"/><path class="st10" d="M153.8 312.2v53.1"/><path d="M150.9 314.1l2.9-10.8 2.9 10.8z"/><path class="st10" d="M96.3 312.3v44.1"/><path d="M93.4 314.3l2.9-10.8 2.9 10.8zm0 40.2l2.9 10.8 2.9-10.8z"/><path fill="none" stroke="#000" stroke-miterlimit="10" stroke-dasharray="6.067,3" d="M11.2 92.1h221.7v250H11.2z"/><g><path class="st12" d="M127 245.4h82.4v13.5H127z"/><text transform="translate(128.897 256.325)" class="st2 st3">Deserialization</text></g><path class="st12" d="M39.2 232.6h74.6v13.5H39.2z"/><g><text transform="translate(44.317 243.595)" class="st2 st3">Serialization</text></g><g><path class="st12" d="M72 320.7h107.2v13.5H72z"/><text transform="translate(73.614 331.365)" class="st2" font-size="11">Duplex or half-duplex</text></g></svg>