<svg version="1.1" id="Ebene_1" xmlns="http://www.w3.org/2000/svg" xmlns:xlink="http://www.w3.org/1999/xlink" x="0" y="0" viewBox="0 0 291.4 129.4" style="background-color:#fff" xml:space="preserve"><style>.st4{fill:#bfbfbf}.st10{font-family:Helvetica,Arial,sans-serif}.st11{font-size:5px}</style><defs><path id="SVGID_1_" d="M-181.6-259.2h563.8v684.5h-563.8z"/></defs><clipPath id="SVGID_2_"><use xlink:href="#SVGID_1_" overflow="visible"/></clipPath><path d="M51.5 17.4h182.3v.6H51.5v-.6zm0 14.7h182.3v.7H51.5v-.7zm0 14.9h182.3v.6H51.5V47zm0 14.6h182.3v.7H51.5v-.7zm0 14.8h182.3v.7H51.5v-.7z" clip-path="url(#SVGID_2_)" fill="#d9d9d9"/><defs><path id="SVGID_3_" d="M-181.6-259.2h563.8v684.5h-563.8z"/></defs><clipPath id="SVGID_4_"><use xlink:href="#SVGID_3_" overflow="visible"/></clipPath><path d="M208.1 17.7v73.9h-.7V17.7h.7zm-52.1 0v73.9h-.7V17.7h.7zm-52.1 0v73.9h-.7V17.7h.7z" clip-path="url(#SVGID_4_)" fill="#d9d9d9"/><defs><path id="SVGID_5_" d="M-181.6-259.2h563.8v684.5h-563.8z"/></defs><clipPath id="SVGID_6_"><use xlink:href="#SVGID_5_" overflow="visible"/></clipPath><path d="M51.8 91.6l-.4-.4h182.3l-.4.4V17.7l.6-.6H51.7l.1.6v73.9zm-.7-73.9c0-.2.2-.4.4-.4h182.3c.2 0 .4.1.4.4v73.9c0 .1-.1.2-.4.2H51.5c-.1 0-.4-.1-.4-.2V17.7z" clip-path="url(#SVGID_6_)"/><path class="st4" d="M51.1 17.7h.7v73.9h-.7V17.7z"/><path class="st4" d="M51.5 91.3h182.3v.6H51.5v-.6z"/><path d="M237.5 51.8h17.6v1.8h-17.6v-1.8z"/><path d="M237.5 67.3h17.6v1.9h-17.6v-1.9z" fill="#4f81bd"/><path d="M237.5 82.9h17.6v1.8h-17.6v-1.8z" fill="#c0504d"/><path d="M50 91.8h8.1l3-.9 2.4-.7c.1 0 .1-.1.2-.1l1.1-.7c.1 0 .1-.1.2-.1l2-1.9c.1 0 .1-.1.1-.2l1.6-2.4s.1-.1.1-.2l3.1-7.2v-.1l2.6-10.2V67l2.8-17.7 1.6-12.2 1.3-10.6.8-6.8c.1-.5.5-.8 1-.8h0c.4 0 .7.3.8.6l1.2 3.3v.2l2.5 17.3 2.6 14.6v.1L93 66.9s0 .1.1.1l3.6 6.9c0 .1.1.2.2.3l2.7 2.5c.1.1.3.2.5.2l2.3.4c.2 0 .3 0 .5-.1l2-.8c.1 0 .2-.1.2-.1l3.1-2.6 4.3-3.8 3.8-3.2.1-.1 6.2-3.6c.1-.1.2-.1.3-.1l5.1-1h.1l3.3-.5 1.9-.2c.6-.1 1.3 0 1.9.1l1.4.4h.3l2-.1h.1l2.2.2h.1l3.5.8 2.7.6h.1l9.2 3.5 9.8 4.2 7.3 3.1h.1l8 4h.1l6.4 2.5 9 3h.1l7.5 1.8h.1l8.7 1.6h.1l4.5.9 3 1.1s3.3 1.3 7.2 2.1l5 .2" fill="none" stroke="#1d1d1b" stroke-width="2" stroke-miterlimit="10"/><path d="M60.5 90.2l4.1-.1 4.4-.8 3.6-2.7 2-3.2 1.5-4.2 1.4-7.4.9-6.1.8-6.5 1-9.2.9-8.5 1.2-8.7v-5.4l.4-4.6.7-3.8.8-.7 1-.1 1.6.6.9 2.6 1 9.2 1.2 11.7 1.3 9.4 1.3 7.3 2.1 8.4 2.7 8.6 3.4 7.4 4.1 3.3 2.4 1.3 1.9.6 2.7.8 2.9.3 4.7.4 6 .1 5.6.1" fill="none" stroke="#4f81bd" stroke-width="2" stroke-miterlimit="10"/><path d="M147.1 91.9l3.3-.3 1.6-1 1.4-1 2.7-2.4 1.5-1.9 1.8-2.4 1.6-3.3 1.2-3.3 1.7-6.6 1.3-7.5 1-7.2 1.2-8.7 1-8.9.4-8.1.5-7.6.6-2.5 1.4-1.3.5.1 1.1.2.6 1.8.6 9.4.5 8.2.7 9.4.6 8.4.6 7.4.6 8.2 1.2 8.9 1.7 6.6.5.9.8 1 1.5 1 1 .3 3.4 1 1.8.6.9.3.9.3" fill="none" stroke="#c0504d" stroke-width="2" stroke-miterlimit="10"/><text transform="matrix(-.00354 -1 1 -.00354 18.93 93.076)" class="st10 st11">Relative Emission Intensity (a.u.)</text><text transform="translate(36.085 18.2)" class="st10 st11">1</text><text transform="translate(34.318 32.974)" class="st10 st11">0.8</text><text transform="translate(34.318 48.748)" class="st10 st11">0.6</text><text transform="translate(34.318 62.705)" class="st10 st11">0.4</text><text transform="translate(34.318 78.295)" class="st10 st11">0.2</text><text transform="translate(36.086 93.077)" class="st10 st11">0</text><text transform="translate(122.646 117.275)" class="st10 st11">Wavelength (nm)</text><text transform="translate(47.513 104.606)" class="st10 st11">400</text><text transform="translate(98.385 104.606)" class="st10 st11">500</text><text transform="translate(151.718 104.606)" class="st10 st11">600</text><text transform="translate(204.233 104.606)" class="st10 st11">700</text><text transform="translate(263.608 54.65)" class="st10 st11">White</text><text transform="translate(263.608 69.2)" class="st10 st11">Blue</text><text transform="translate(263.609 84.7)" class="st10 st11">Red</text></svg>