<svg style="background-color:#fff" version="1.1" id="Layer_1" xmlns="http://www.w3.org/2000/svg" x="0" y="0" viewBox="0 0 510 363.3" xml:space="preserve"><style>.st3{fill:none;stroke:#1d1d1b;stroke-width:1.117;stroke-miterlimit:3.864}.st8{fill:#1d1d1b}.st9{font-family:Helvetica,Arial,sans-serif}.st10{font-size:12px}.st11{font-size:8.706px}.st12{letter-spacing:36}.st13{letter-spacing:37}.st14{letter-spacing:38}</style><g fill="none" stroke="#000" stroke-linecap="round" stroke-linejoin="round" stroke-miterlimit="10"><path d="M46.3 289h438.3M46.3 254.8h438.3M46.3 220.6h438.3M46.3 186.4h438.3M46.3 152.2h438.3M46.3 117.9h438.3M46.3 83.6h438.3M46.3 49.4h438.3M46.3 15.1h438.3m-383.5 0v308.3M156 15.1v308.3m54.6-308.3v308.3m54.9-308.3v308.3m54.8-308.3v308.3m54.8-308.3v308.3m54.8-308.3v308.3m54.7-308.3v308.3" stroke-width=".454"/><path d="M46.3 323.4V15.1m0 308.3h438.3" stroke-width=".964"/></g><path d="M344.8 141h117.1v76.2H344.8V141z" fill-rule="evenodd" clip-rule="evenodd" fill="#1d1d1b"/><path class="st3" d="M344.8 141h117.1v76.2H344.8V141z"/><path d="M341.3 137.4h117.1v76.2H341.3v-76.2z" fill-rule="evenodd" clip-rule="evenodd" fill="#fff"/><path class="st3" d="M341.3 137.4h117.1v76.2H341.3v-76.2z"/><path d="M351.8 153.5h42.3" fill="none" stroke="#00f" stroke-miterlimit="3.864" stroke-dasharray="12,2,2,2"/><path d="M351.8 177.7h42.3" fill="none" stroke="#0f0" stroke-miterlimit="3.864" stroke-dasharray="2,2"/><path d="M351.8 202h42.3" fill="none" stroke="red" stroke-miterlimit="3.864" stroke-dasharray="72"/><text transform="translate(406.917 156.722)" class="st8 st9 st10">Blue</text><text transform="translate(406.917 182.02)" class="st8 st9 st10">Green</text><text transform="translate(406.917 204.77)" class="st8 st9 st10">Red</text><text transform="translate(213.857 357.334)" class="st9 st10">Wavelength (nm)</text><text transform="rotate(-90 128.403 111.313)" class="st8 st9 st10">Quantum Efficiency (%)</text><text transform="translate(29.495 15.143)" class="st9 st11">90</text><text transform="translate(29.495 50.002)" class="st9 st11">80</text><text transform="translate(29.495 84.799)" class="st9 st11">70</text><text transform="translate(29.495 119.658)" class="st9 st11">60</text><text transform="translate(29.495 154.519)" class="st9 st11">50</text><text transform="translate(29.495 189.378)" class="st9 st11">40</text><text transform="translate(29.495 224.237)" class="st9 st11">30</text><text transform="translate(29.495 259.036)" class="st9 st11">20</text><text transform="translate(29.495 293.896)" class="st9 st11">10</text><text transform="translate(34.368 328.755)" class="st9 st11">0</text><text transform="translate(41.896 337.084)" class="st9 st11">35</text><text transform="translate(51.696 337.084)" class="st9 st11 st12">0</text><text transform="translate(95.296 337.084)" class="st9 st11">45</text><text transform="translate(105.096 337.084)" class="st9 st11 st13">0</text><text transform="translate(149.796 337.084)" class="st9 st11">55</text><text transform="translate(159.596 337.084)" class="st9 st11 st13">0</text><text transform="translate(204.296 337.084)" class="st9 st11">65</text><text transform="translate(214.096 337.084)" class="st9 st11 st14">0</text><text transform="translate(259.896 337.084)" class="st9 st11">75</text><text transform="translate(269.696 337.084)" class="st9 st11 st13">0</text><text transform="translate(314.396 337.084)" class="st9 st11">85</text><text transform="translate(324.196 337.084)" class="st9 st11 st14">0</text><text transform="translate(369.896 337.084)" class="st9 st11">95</text><text transform="translate(379.696 337.084)" class="st9 st11 st12">0</text><text transform="translate(422.996 337.084)" class="st9 st11">105</text><text transform="translate(437.696 337.084)" class="st9 st11" letter-spacing="34">0</text><text transform="translate(478.996 337.084)" class="st9 st11">1</text><text transform="translate(483.196 337.084)" class="st9 st11">150</text><path d="M66.3 263.3c1.7 1.5 3.7 2.8 5.6 4.7 1.9 2.1 3.9 4.7 5.6 7.1 1.7 2.1 3.7 4.9 5.6 6.8 1.9 2.1 3.7 3.6 5.6 5.1s3.9 2.6 5.6 3.8c1.9 1.3 3.7 2.4 5.6 3.2 1.9.6 3.7 1.5 5.6 1.5 1.7.2 3.7-.2 5.6-.6 1.9-.2 3.9-.9 5.6-1.5s3.7-1.3 5.6-2.1c1.9-.6 3.7-1.1 5.6-2.1 1.9-1.1 3.7-2.4 5.6-4.3s3.7-5.8 5.6-7.5c1.9-1.9 3.7-3.2 5.6-2.8 1.9.6 3.7 4.3 5.6 6 1.9 1.9 3.9 4.1 5.6 4.9 1.5.4 3.9 3 5.6-.6 1.5-3.4 3.9-11.8 5.6-24.6 1.9-15.4 3.7-46.4 5.6-67.3s3.9-47.4 5.6-58.6c.9-5.8 4.5-7.5 5.6-7.7 1.9-1.1 3.7 1.3 5.6 2.4 1.9 1.1 3.7 1.7 5.6 3.8 1.9 1.9 3.9 4.3 5.6 7.9 1.9 3.6 3.7 8.8 5.6 13.9 1.9 5.1 3.7 11.3 5.6 16.5 1.9 5.1 3.7 10.3 5.6 14.7 1.9 4.3 3.7 7.9 5.6 11.1 1.9 3 3.7 4.9 5.6 6.8s3.7 4.1 5.6 4.7c1.9.9 3.9-.9 5.6-.2 1.9.6 3.7 2.8 5.6 4.3 1.9 1.5 3.7 2.8 5.6 4.9 1.9 2.1 3.7 5.1 5.6 7.9 1.9 2.6 3.9 6 5.6 8.3 1.9 2.1 3.7 2.8 5.6 4.5s3.7 4.7 5.6 6c1.7 1.3 3.7 1.3 5.6 1.9 1.7.6 3.7 1.5 5.6 1.9 1.9.2 3.7.2 5.6-.4 1.9-.6 3.7-3.2 5.6-3.4s3.9 1.3 5.6 1.9c1.9.9 3.7 1.9 5.6 2.6 1.9.4 3.7-.2 5.6.9 1.9 1.1 3.7 4.1 5.6 5.8 1.9 1.7 3.9 3.8 5.6 5.3 1.9 1.3 3.7 1.5 5.6 3s3.7 3.4 5.6 5.6c1.7 1.9 3.7 4.7 5.6 6.6 1.7 1.7 3.7 3.4 5.6 4.9 1.9 1.3 3.7 2.1 5.6 3.4s3.7 2.6 5.6 4.1 3.9 3.4 5.6 4.3c1.9 1.1 3.7.9 5.6 1.3s3.7.4 5.6 1.1c1.9.6 3.7 2.1 5.6 3 1.9 1.1 3.9 1.9 5.6 2.6 1.9.4 3.7.4 5.6.9 1.7.4 3.7 1.3 5.6 2.1 1.7.6 3.7 1.5 5.6 2.4 1.9.6 3.9 1.5 5.6 2.4 1.9.6 3.7 1.5 5.6 2.4 1.9.6 3.7 1.5 5.6 2.4 1.9.6 3.7 1.5 5.6 2.1s3.7 1.1 5.6 1.5c1.9.6 3.7 1.1 5.6 1.7s3.7 1.3 5.6 1.7c1.9.6 3.9 1.1 5.6 1.5 1.9.4 3.7.4 5.6.6s3.7.2 5.6.2c1.7.2 3.7.2 5.6.4" fill="none" stroke="red" stroke-miterlimit="10"/><path d="M66.3 273.7c1.7-.4 3.7-.6 5.6-.9 1.9-.4 3.9-1.1 5.6-1.1s3.7.6 5.6.6c1.9.2 3.7.6 5.6-.2 1.9-1.1 3.9-3.8 5.6-6 1.9-2.1 3.7-4.3 5.6-7.1 1.5-2.4 3.9-3.2 5.6-9.2 1.7-6.2 3.9-14.1 5.6-29.3 1.9-15.2 3.9-39.8 5.6-62.2s3.7-54.7 5.6-72.9c1.9-18.4 3.7-29.3 5.6-36.5 1.3-5.6 4.1-7.3 5.6-7.9 1.9-1.1 3.7.4 5.6 2.1 1.9 1.5 3.7 3.4 5.6 6.8 1.9 3.6 3.7 8.5 5.6 14.5 1.9 6 3.9 14.1 5.6 22 1.9 7.7 3.7 16.7 5.6 24.6s3.7 15.8 5.6 23.3c1.9 7.7 3.7 14.1 5.6 22.4s3.9 17.5 5.6 27.1c1.9 9.6 3.7 21.2 5.6 31 1.9 9.6 3.7 19.2 5.6 27.1 1.9 7.9 3.7 15 5.6 20.3 1.9 5.3 3.9 8.8 5.6 12 1.9 3 3.7 4.5 5.6 6.2 1.9 1.7 3.7 3.2 5.6 4.3s3.7 2.1 5.6 2.4c1.9.2 3.7-.4 5.6-1.3 1.9-.6 3.7-1.9 5.6-3.4 1.9-1.5 3.7-3.6 5.6-5.3s3.9-4.1 5.6-5.1c1.9-1.1 3.7-1.1 5.6-1.1 1.9 0 3.7.6 5.6 1.3 1.9.6 3.7 2.1 5.6 2.8 1.9.6 3.9 1.1 5.6.9 1.9-.2 3.7-1.1 5.6-1.9 1.9-.6 3.7-1.1 5.6-1.9 1.7-.9 3.7-2.4 5.6-3.2 1.7-.6 3.7-.4 5.6-1.5 1.9-.9 3.7-2.6 5.6-4.1s3.7-4.1 5.6-5.1c1.9-1.1 3.9-.9 5.6-1.3 1.9-.4 3.7-.6 5.6-1.1 1.9-.4 3.7-2.1 5.6-1.7 1.9.4 3.7 2.6 5.6 3.8 1.9 1.3 3.9 2.4 5.6 3.6 1.9 1.1 3.7 1.9 5.6 3.4 1.9 1.3 3.7 3.4 5.6 5.3 1.7 1.9 3.7 4.1 5.6 6 1.7 1.9 3.7 3.8 5.6 5.1 1.9 1.5 3.7 2.1 5.6 3.2 1.9 1.3 3.7 2.4 5.6 3.6 1.9 1.3 3.9 3.4 5.6 4.3 1.9.9 3.7.6 5.6 1.1 1.9.4 3.7.4 5.6 1.1 1.9.6 3.7 1.9 5.6 2.8s3.9 1.9 5.6 2.4c1.9.6 3.7.4 5.6 1.1 1.7.4 3.7 1.5 5.6 2.1 1.7.9 3.7 1.7 5.6 2.4 1.9.6 3.9 1.3 5.6 2.1 1.9.6 3.7 1.5 5.6 2.1s3.7 1.5 5.6 2.4c1.9.6 3.7 1.5 5.6 1.9 1.9.6 3.7 1.1 5.6 1.5s3.7 1.1 5.6 1.5 3.7.9 5.6 1.3c1.9.6 3.9 1.3 5.6 1.5 1.9.4 3.7.6 5.6.9 1.9.2 3.7 0 5.6.2 1.7.2 3.7.4 5.6.4" fill="none" stroke="#0f0" stroke-miterlimit="10" stroke-dasharray="3,3,3,3"/><path d="M66.3 214.1c1.7-14.5 3.7-32.1 5.6-43.8 1.9-11.8 3.9-18.8 5.6-26.7 1.7-7.7 3.7-14.1 5.6-20.3 1.9-6 3.7-12 5.6-15.8s3.9-5.6 5.6-7.7c1.9-2.4 3.7-4.9 5.6-6 1.9-.9 3.7-1.5 5.6.4 1.7 2.1 3.7 6.6 5.6 12.2s3.9 13.3 5.6 21.6 3.7 17.7 5.6 28.2c1.9 10.3 3.7 22.4 5.6 33.8 1.9 11.3 3.7 23.5 5.6 33.8s3.7 20.5 5.6 27.6c1.9 6.8 3.7 10.7 5.6 14.3 1.9 3.6 3.7 5.1 5.6 7.7 1.9 2.4 3.9 4.7 5.6 6.6 1.9 1.9 3.7 3.6 5.6 4.7 1.9 1.3 3.7 1.9 5.6 2.1 1.9.4 3.7.2 5.6.2 1.9.2 3.9 0 5.6.4 1.9.4 3.7 1.5 5.6 2.4 1.9.9 3.7 2.1 5.6 3 1.9.6 3.7 1.5 5.6 2.1 1.9.4 3.9 1.1 5.6 1.3 1.9.2 3.7-.2 5.6-.2 1.9-.2 3.7-.2 5.6-.2 1.9-.2 3.7-.2 5.6-.2 1.9-.2 3.7-.4 5.6-.6 1.9 0 3.7.4 5.6.2 1.9-.2 3.7-.6 5.6-1.1s3.9-1.1 5.6-1.1c1.9 0 3.7.6 5.6 1.3 1.9.4 3.7 1.1 5.6 1.5 1.9.6 3.7 1.3 5.6 1.5 1.9.4 3.9.4 5.6.6 1.9.2 3.7.2 5.6 0s3.7-.4 5.6-1.5c1.7-1.1 3.7-2.1 5.6-4.5 1.7-2.4 3.7-5.1 5.6-9.6s3.7-11.3 5.6-16.9c1.9-5.8 3.7-13.7 5.6-17.3 1.9-3.8 3.9-4.7 5.6-5.1 1.9-.4 3.7 1.7 5.6 1.9s3.7-1.5 5.6-1.1c1.9.6 3.7 3 5.6 4.5s3.9 3.2 5.6 4.5c1.9 1.3 3.7 1.3 5.6 2.6 1.9 1.3 3.7 2.8 5.6 4.7 1.7 2.1 3.7 5.1 5.6 7.3 1.7 2.1 3.7 4.3 5.6 6 1.9 1.5 3.7 2.1 5.6 3.8 1.9 1.5 3.7 3.4 5.6 5.3s3.9 4.7 5.6 6c1.9 1.3 3.7 1.3 5.6 1.7 1.9.4 3.7.4 5.6 1.3 1.9.6 3.7 2.1 5.6 3.2s3.9 2.6 5.6 3.2c1.9.6 3.7.4 5.6 1.1 1.7.4 3.7 1.3 5.6 2.1 1.7.9 3.7 2.1 5.6 3s3.9 1.5 5.6 2.1c1.9.9 3.7 1.9 5.6 2.6 1.9.9 3.7 1.5 5.6 2.4s3.7 1.5 5.6 2.4c1.9.6 3.7 1.1 5.6 1.5 1.9.6 3.7 1.3 5.6 1.7 1.9.4 3.7.6 5.6 1.3 1.9.4 3.9 1.5 5.6 1.9 1.9.4 3.7.9 5.6 1.1s3.7-.2 5.6 0c1.7 0 3.7.4 5.6.4" fill="none" stroke="#00f" stroke-miterlimit="10" stroke-dasharray="12,2,2,2"/></svg>