<svg version="1.1" id="Layer_1" xmlns="http://www.w3.org/2000/svg" x="0" y="0" viewBox="0 0 567 164.7" style="background-color:#fff" xml:space="preserve"><style>.st1{stroke-width:.5}.st1,.st2,.st3,.st4{fill:none;stroke:#000;stroke-miterlimit:3.8637}.st2{stroke-width:.4252}.st3{stroke-width:.3402}.st4{stroke-width:.25;stroke-dasharray:12,2,2,2}.st9{font-family:Helvetica,Arial,sans-serif}.st10{font-size:10px}.st11{font-size:8px}</style><g id="Ebene_1"><path class="st1" d="M261.2 94.5h186.2m-186.2 19.6h169.5m0 0h17.1M149.1 83l2.9-2.4h55.2l2.7 1.9v44.8l-2.7 1.9h-55l-3.1-2.4V83zm2.8-2.4v48.6m55.3 0V80.6M77 80.1h55.2l2.7 1.9v44.8l-2.7 1.9h-55m-.3-48.6v48.6m55.3 0V80.1"/><path class="st2" d="M260.7 92.3v24.2"/><path class="st1" d="M451.1 94.5H512m-60.9 19.6h60.6"/><path class="st3" d="M83.3 62.4h185.1"/><path d="M83.3 60.6V64l-6.2-1.6 6.2-1.8zm170.4 0V64l6.2-1.6-6.2-1.8z"/><path class="st3" d="M77.3 75.5V14.7m183.5 75.5V60.9"/><path class="st4" d="M447.8 91.7v26.7"/><path d="M450.8 91.7v26.7" fill="none" stroke="#000" stroke-width=".25" stroke-miterlimit="3.864" stroke-dasharray="12,2,2,2,2,2"/><path class="st3" d="M67.1 124.5V86.7m9.4 42H65.6"/><path d="M65.3 87h3.5l-1.7-6.5-1.8 6.5z"/><path class="st3" d="M76.5 80.1H65.6"/><path d="M68.8 121.6h-3.5l1.7 6.5 1.8-6.5z"/><path class="st4" d="M299.7 105.7L72 105.2"/><path class="st2" d="M513.7 105c-1.8-3.8-5.2-7.2-1.7-10.5 3.9 1.2 3 5.7 1.7 10.5m-2 9.1c3.9-3.2 3.4-6.2 2-9.1"/><path d="M510.6 99l25.3-2.3m-23 7.3l21.5-1.3m-20 4.8l20.7.7m-20.7 2.5l22 4.3" fill="none"/><path class="st3" d="M83.3 18.4h461.1"/><path d="M83.3 16.7v3.4l-6.2-1.7 6.2-1.7z"/><path class="st3" d="M536.8 95.7V15.2"/><path d="M530.4 20.1v-3.5l6.2 1.7-6.2 1.8z"/><path class="st3" d="M299.7 114.2V94.5m131 19.7V94.5"/><path class="st4" d="M545.9 105.7l-115.2-.5"/><path class="st3" d="M489.7 130V52.7"/><path d="M488 120.2h3.4l-1.7-6.1-1.7 6.1zm3.4-31.1H488l1.7 6.1 1.7-6.1z"/><path d="M134.9 120.7h14.2m0-32.5h-14.2m75 0l50.8 4.1m-158 36.4V80.1m24.2 48.6V80.1m133.8 36.4l-50.8 4.2" fill="none" stroke="#020405" stroke-width=".5" stroke-linecap="round" stroke-linejoin="round" stroke-miterlimit="10"/><path d="M103 80.1l24.1 16.2m-17.8-16l17.8 12m-11.8-12l11.8 7.9m-5.8-7.9l5.8 3.9m-24.1 0l24.1 16.2M103 88.2l24.1 16.2M103 92.3l24.1 16.1M103 96.3l24.1 16.2M103 100.4l24.1 16.1M103 104.4l24.1 16.2M103 108.4l24.1 16.2M103 112.5l24.1 16.2M103 116.5l18.1 12.2m-18.1-8.1l12.1 8.1m-12.1-4.1l6 4.1m18.1-48.6L103 96.3m17.8-16l-17.8 12m11.7-12L103 88.2m5.7-7.9l-5.7 3.9m24.1 0L103 100.4m24.1-12.2L103 104.4m24.1-12.1L103 108.4m24.1-12.1L103 112.5m24.1-12.1L103 116.5m24.1-12.1L103 120.6m24.1-12.2L103 124.6m24.1-12.1L103 128.7m24.1-12.2L109 128.7m18.1-8.1l-12.1 8.1m12.1-4.1l-6.1 4.1" fill="none" stroke="#000" stroke-width=".25" stroke-miterlimit="3.864"/><path class="st2" d="M299.7 94.5h130.9v68.2H299.7V94.5z"/><path d="M47.8 50.6l29.5 29.5" fill="none" stroke="#000" stroke-width=".227" stroke-miterlimit="3.864"/></g><g id="text"><text transform="translate(2.228 36.115)" class="st9 st10">Hirose</text><text transform="translate(2.228 47.115)" class="st9 st10">6-pin plug</text><text transform="translate(149.099 58.667)" class="st9 st11">36 mm</text><text transform="rotate(-90 91.704 27.914)" class="st9 st11">11.6 mm</text><text transform="rotate(-90 286.017 -199.696)" class="st9 st11">5.8 mm</text><text transform="translate(302.057 134.333)" class="st9 st10">Label with order number,</text><text transform="translate(302.057 145.333)" class="st9 st10">manufacturing date, and</text><text transform="translate(302.057 156.333)" class="st9 st10">pin-to-wire color assignment</text><text transform="translate(342.806 107.46)" class="st9" font-size="7">2000...xx/yy</text><text transform="translate(233.473 13.333)" class="st9 st10">Length depending on order number</text><text transform="translate(517.643 133.333)" class="st9 st10">Open end</text></g></svg>