<svg style="background-color:#fff" version="1.1" id="Layer_1" xmlns="http://www.w3.org/2000/svg" x="0" y="0" viewBox="0 0 520 410" xml:space="preserve"><style>.st0,.st2{fill-rule:evenodd;clip-rule:evenodd;fill:#1d1d1b}.st2{fill:#80ff80}.st3{fill:none;stroke:#80ff80;stroke-miterlimit:3.864}.st4{fill-rule:evenodd;clip-rule:evenodd;fill:#b3b3b3}.st5,.st6,.st7{fill:none;stroke-miterlimit:3.864}.st5{stroke-width:3;stroke-dasharray:2,2;stroke:#b3b3b3}.st6{stroke:#1d1d1b}.st7{stroke:#999;stroke-width:1.8}.st8{fill:#e64614}.st9{fill:none}.st10{fill:#fff}.st11{font-family:Helvetica,Arial,sans-serif}.st12{font-size:8.749px}.st13{fill:#80ff80}.st14{fill:none;stroke:#000;stroke-miterlimit:10}.st15{font-size:10px}.st16{fill:#1d1d1d}.st19{enable-background:new}</style><path class="st0" d="M498.6 377.4v-4.2l10.4 4.2-10.4 4.2v-4.2z"/><path d="M82.5 377.4h416.8" fill="none" stroke="#1d1d1b" stroke-width="2.5" stroke-miterlimit="3.864"/><path class="st2" d="M290.8 332h15.4v10.5h-15.4V332z"/><path class="st3" d="M290.8 332h15.4v10.5h-15.4V332z"/><path class="st4" d="M308.2 356.6h4.8l-4.8 12.1-4.8-12.1h4.8z"/><path class="st5" d="M308.2 346.1v11.3"/><path class="st6" d="M79 293.4h41.1m0-15.7v15.7m5.3-15.7v15.7m-5.3-15.7h5.3m0 15.7h36.7m0-15.7v15.7m5.3-15.7v15.7m-5.3-15.7h5.3m0 15.7h36.7m0-15.7v15.7m5.3-15.7v15.7m-5.3-15.7h5.3m78.7 0v15.7m5.2-15.7v15.7m-5.2-15.7h5.2m0 15.7h36.8m0-15.7v15.7m5.2-15.7v15.7m-5.2-15.7h5.2m0 15.7h36.8m0-15.7v15.7m5.2-15.7v15.7m-5.2-15.7h5.2m-167.9 15.8h36.7m0-15.8v15.8m5.3-15.8v15.8m-5.3-15.8h5.3m0 15.8h36.7m168-15.8v15.7m5.2-15.7v15.7m-5.2-15.7h5.2m0 15.7h33.6m-117.6.1h36.8m0-15.8v15.8m5.2-15.8v15.8m-5.2-15.8h5.2m0 15.8h36.8"/><path class="st7" d="M93.8 217.2v134.7"/><path class="st6" d="M79 244.7h39.6m-.8 0H134m-.5 0h28.6m0 0h5.3m0 0h36.7m0 0h5.3m78.6.1h19.1m-.4-15.8v15.7m-.2-15.7h113.1m-211.7 15.7h31.5M239 229v15.8m13.1-15.8v15.8M238.6 229h13.9m-.8 15.8h36.4M449.8 229v15.7m-.2-15.7H464m-.7 0h31.6m-75.6 0v15.8m-.4 0h31.2m-334.8 48.6h5.2"/><path class="st2" d="M206.8 331.9h15.4v10.5h-15.4v-10.5z"/><path class="st3" d="M206.8 331.9h15.4v10.5h-15.4v-10.5z"/><path class="st4" d="M224.2 356.6h4.9l-4.9 12-4.8-12h4.8z"/><path class="st5" d="M224.2 346v11.4"/><path class="st0" d="M204.1 300.6l2.3 4.6 2.3-4.6h-4.6z"/><path class="st6" d="M204.1 300.6l2.3 4.6 2.3-4.6h-4.6z"/><path class="st8" d="M206.4 307.9h8.9v8.8h-8.9v-8.8z"/><path class="st9" d="M206.4 307.9h8.9v8.8h-8.9v-8.8z"/><path class="st9" d="M208.4 307.1h4.9v9.6h-4.9v-9.6z"/><text transform="translate(208.368 316.38)" class="st10 st11 st12">0</text><path class="st0" d="M288.1 300.7l2.3 4.6 2.3-4.6h-4.6z"/><path class="st6" d="M288.1 300.7l2.3 4.6 2.3-4.6h-4.6z"/><path class="st8" d="M290.4 308h8.8v8.8h-8.8V308z"/><path class="st9" d="M290.4 308h8.8v8.8h-8.8V308z"/><path class="st9" d="M292.4 307.2h4.9v9.6h-4.9v-9.6z"/><text transform="translate(292.359 316.463)" class="st10 st11 st12">0</text><path class="st2" d="M122.9 331.9h15.4v10.5h-15.4v-10.5z"/><path class="st3" d="M122.9 331.9h15.4v10.5h-15.4v-10.5z"/><path class="st4" d="M140.3 356.6h4.8l-4.8 12-4.8-12h4.8z"/><path class="st5" d="M140.3 346v11.4"/><path class="st0" d="M120.1 300.6l2.3 4.6 2.3-4.6h-4.6z"/><path class="st6" d="M120.1 300.6l2.3 4.6 2.3-4.6h-4.6z"/><path class="st8" d="M122.4 307.9h8.9v8.8h-8.9v-8.8z"/><path class="st9" d="M122.4 307.9h8.9v8.8h-8.9v-8.8z"/><path class="st9" d="M124.4 307.1h4.9v9.6h-4.9v-9.6z"/><text transform="translate(124.386 316.382)" class="st10 st11 st12">0</text><path class="st13" d="M332.8 331.9h31.5v10.5h-31.5v-10.5z"/><path class="st3" d="M332.8 331.9h31.5v10.5h-31.5v-10.5z"/><path class="st4" d="M366.1 356.6h4.9l-4.9 12-4.8-12h4.8z"/><path class="st5" d="M366.1 346v11.4"/><path class="st0" d="M330.1 300.6l2.3 4.6 2.2-4.6h-4.5z"/><path class="st6" d="M330.1 300.6l2.3 4.6 2.2-4.6h-4.5z"/><path class="st8" d="M332.4 307.9h8.8v8.8h-8.8v-8.8z"/><path class="st9" d="M332.4 307.9h8.8v8.8h-8.8v-8.8z"/><path class="st9" d="M334.4 307.1h4.9v9.6h-4.9v-9.6z"/><text transform="translate(334.351 316.383)" class="st10 st11 st12">1</text><path class="st13" d="M374.8 331.9h31.5v10.5h-31.5v-10.5z"/><path class="st3" d="M374.8 331.9h31.5v10.5h-31.5v-10.5z"/><path class="st4" d="M408.1 356.6h4.8l-4.8 12-4.8-12h4.8z"/><path class="st5" d="M408.1 346v11.4"/><path class="st0" d="M372.1 300.6l2.3 4.6 2.2-4.6h-4.5z"/><path class="st6" d="M372.1 300.6l2.3 4.6 2.2-4.6h-4.5z"/><path class="st8" d="M374.4 307.9h8.8v8.8h-8.8v-8.8z"/><path class="st9" d="M374.4 307.9h8.8v8.8h-8.8v-8.8z"/><path class="st9" d="M376.3 307.1h4.9v9.6h-4.9v-9.6z"/><text transform="translate(376.342 316.383)" class="st10 st11 st12">1</text><path class="st13" d="M416.8 332h31.5v10.5h-31.5V332z"/><path class="st3" d="M416.8 332h31.5v10.5h-31.5V332z"/><path class="st4" d="M450.1 356.7h4.8l-4.8 12-4.8-12h4.8z"/><path class="st5" d="M450.1 346.1v11.4"/><path class="st0" d="M414.1 300.7l2.3 4.5 2.2-4.5h-4.5z"/><path class="st6" d="M414.1 300.7l2.3 4.5 2.2-4.5h-4.5z"/><path class="st8" d="M416.4 308h8.8v8.8h-8.8V308z"/><path class="st9" d="M416.4 308h8.8v8.8h-8.8V308z"/><path class="st9" d="M418.3 307.2h4.9v9.6h-4.9v-9.6z"/><text transform="translate(418.344 316.453)" class="st10 st11 st12">1</text><path class="st13" d="M248.8 332h31.5v10.5h-31.5V332z"/><path class="st3" d="M248.8 332h31.5v10.5h-31.5V332z"/><path class="st4" d="M282.2 356.7h4.8l-4.8 12-4.9-12h4.9z"/><path class="st5" d="M282.2 346.1v11.4"/><path class="st0" d="M246.1 300.7l2.3 4.6 2.3-4.6h-4.6z"/><path class="st6" d="M246.1 300.7l2.3 4.6 2.3-4.6h-4.6z"/><path class="st8" d="M248.4 308h8.9v8.8h-8.9V308z"/><path class="st9" d="M248.4 308h8.9v8.8h-8.9V308z"/><path class="st9" d="M250.4 307.2h4.9v9.6h-4.9v-9.6z"/><text transform="translate(250.366 316.46)" class="st10 st11 st12">1</text><path class="st2" d="M164.8 331.9h15.4v10.5h-15.4v-10.5z"/><path class="st3" d="M164.8 331.9h15.4v10.5h-15.4v-10.5z"/><path class="st4" d="M182.3 356.6h4.8l-4.8 12-4.9-12h4.9z"/><path class="st5" d="M182.3 346v11.4"/><path class="st0" d="M162.1 300.6l2.3 4.6 2.3-4.6h-4.6z"/><path class="st6" d="M162.1 300.6l2.3 4.6 2.3-4.6h-4.6z"/><path class="st8" d="M164.4 307.9h8.9v8.8h-8.9v-8.8z"/><path class="st9" d="M164.4 307.9h8.9v8.8h-8.9v-8.8z"/><path class="st9" d="M166.4 307.2h4.9v9.6h-4.9v-9.6z"/><text transform="translate(166.375 316.385)" class="st10 st11 st12">0</text><path class="st13" d="M458.8 332h31.5v10.5h-31.5V332z"/><path class="st3" d="M458.8 332h31.5v10.5h-31.5V332z"/><path class="st4" d="M492.1 356.7h4.8l-4.8 12-4.8-12h4.8z"/><path class="st5" d="M492.1 346.1v11.4"/><path class="st0" d="M456.1 300.7l2.3 4.5 2.2-4.5h-4.5z"/><path class="st6" d="M456.1 300.7l2.3 4.5 2.2-4.5h-4.5z"/><path class="st8" d="M458.4 308h8.8v8.8h-8.8V308z"/><path class="st9" d="M458.4 308h8.8v8.8h-8.8V308z"/><path class="st9" d="M460.3 307.2h4.9v9.6h-4.9v-9.6z"/><text transform="translate(460.331 316.454)" class="st10 st11 st12">1</text><path class="st7" d="M470.6 217.2V352"/><path class="st14" d="M12.5 14.5h313.7v106H12.5v-106z"/><path class="st13" d="M22.4 64.8h30v12h-30v-12z"/><path class="st3" d="M22.4 64.8h30v12h-30v-12z"/><path class="st4" d="M37.2 97.4h5.5l-5.5 13.7-5.5-13.7h5.5z"/><path class="st5" d="M37.2 85.3v13"/><path class="st0" d="M34.6 27.2l2.6 5.2 2.6-5.2h-5.2z"/><path class="st6" d="M34.6 27.2l2.6 5.2 2.6-5.2h-5.2z"/><path class="st8" d="M32.1 43.9h10.2V54H32.1V43.9z"/><path class="st8" d="M32.1 43.9h10.2V54H32.1V43.9z"/><path class="st9" d="M34.4 42.5H40v11h-5.6v-11z"/><text transform="translate(34.4 52.688)" class="st10 st11 st15">0</text><path class="st14" d="M12.5 132h313.7v42.7H12.5V132z"/><text transform="translate(283.502 394.259)" class="st16" font-size="11" font-family="Helvetica,Arial,sans-serif" font-weight="700">Time</text><text transform="translate(17 290.55)" class="st19"><tspan x="0" y="0" class="st16 st11 st15">Frame Start</tspan><tspan x="0" y="12" class="st16 st11 st15">trigger signal</tspan></text><text transform="translate(17 245.709)" class="st16 st11 st15">Line1 signal</text><text transform="translate(62.3 33.54)" class="st16 st11 st15">= Camera selects a sequence set</text><text transform="translate(62.3 52.074)" class="st16 st11 st15">= Sequence set used for image acquisition (index number)</text><text transform="translate(62.3 75.206)" class="st16 st11 st15">= Frame exposure and readout</text><text transform="translate(62.3 101.266)" class="st16 st11 st15">= Frame transmission</text><text transform="translate(22.363 165.25)" class="st16 st11 st15">SequenceSetTotalNumber = 2</text><text transform="translate(22.541 148)" class="st16 st11 st15">Settings:</text><text transform="translate(76.337 197.288)" class="st19"><tspan x="0" y="0" class="st16 st11 st15">Sequencer</tspan><tspan x="0" y="12" class="st16 st11 st15">enabled</tspan></text><text transform="translate(448.3 197.288)" class="st19"><tspan x="0" y="0" class="st16 st11 st15">Sequencer</tspan><tspan x="0" y="12" class="st16 st11 st15">disabled</tspan></text></svg>