<svg version="1.1" id="Layer_1" xmlns="http://www.w3.org/2000/svg" x="0" y="0" viewBox="0 0 430 337.5" style="background-color:#fff" xml:space="preserve"><style>.st1{stroke-miterlimit:10}.st1,.st2{fill:none;stroke:#000;stroke-width:.51;stroke-linecap:round;stroke-linejoin:round}.st7,.st9{fill:#fff;stroke:#1d1d1b;stroke-width:.425;stroke-miterlimit:10}.st9{fill:none}.st12{font-family:Helvetica,Arial,sans-serif}.st13{font-size:13.091px}.st14{font-size:11px}</style><path class="st1" d="M180.5 148.2V72.1M272.7 216V72.1m-35 61.2V96.1m-53-18h83.5"/><path d="M189.4 76v4.3l-8.5-2.2 8.5-2.1zm74.5 0v4.2l8.5-2.1-8.5-2.1z"/><path class="st1" d="M99.6 100.2h133.9"/><path d="M188.2 98.1v4.2l-7.3-2.1 7.3-2.1zm41.3 0v4.2l7.4-2.1-7.4-2.1z"/><path class="st1" d="M33.6 118.6h66"/><path class="st2" d="M99.6 118.6l19 17.2"/><path d="M116.3 137.2l5 1-1.5-4.8-3.5 3.8z"/><path d="M180.5 170.7h56.8v90.7h-56.8v-90.7z" fill="#d9d9d9"/><path d="M59.5 140.5h121v151.2h-121V140.5z" fill="#d9d9d9" stroke="#1d1d1b" stroke-width=".992" stroke-miterlimit="10"/><path d="M303.1 266.2c.1 0 0 .5 0 0v-50.3m-122.6.1v59.2c0 .7.5 1.6 1.2 1.6l42.8 1.2s1.5 0 1.5 2.1v43.2s.3 1.1 1.4 1.2l59.1 1.5 5.3-.1c.7 0 1.5-.3 1.5-1.2v-6.2h1.5v-3.4c1.3 3 4.1.5 4.1.5h1.9v-2.1h1.2v-16.9h-1.9v-10.3h-2v-1.2h5v-68.9" fill="#f5f5f5"/><path d="M180.5 169.2l3.4 3.4m-3.4-7.4l7.5 7.4m-7.5-11.5l11.6 11.5m-11.6-15.5l15.7 15.5M183 155.5l17.2 17.1M187 155.3l17.3 17.3M191 155.2l17.3 17.4m-13.4-17.5l17.5 17.5M198.9 155l17.6 17.6M202.9 155l17.6 17.6m-13.7-17.8l17.8 17.8m-13.8-17.8l17.9 17.8m-13.9-18l18 18m-14-18.1l18.1 18.1m-14.2-18.2l14.6 14.6m-11.6-15.6l11.6 11.5m-11.4-15.5l11.4 11.4m-11.4-15.4l11.4 11.3m-11.4-15.4l11.4 11.4m-11.4-15.5l11.4 11.4m-11.4-15.5l11.4 11.4m-11.4-15.4l11.4 11.3M225.9 125l11.4 11.3M225.9 121l12.4 12.3m-12.4-16.4l16.4 16.4m-16.4-20.5l20.4 20.3M226 108.9l24.2 24.2m-21.1-25.3l23.3 23.3M233 107.7l19.4 19.3m-15.3-19.3l15.3 15.2M241 107.5l11.9 11.9m-7.9-12l11.7 11.8m-7.7-11.9l11.8 11.8m-7.9-11.9l11.8 11.8m-7.8-11.9l11.8 11.8m-7.8-11.9l11.8 11.8m-7.9-11.9l11.8 11.8m-7.8-11.9l11.8 11.8m-7.8-11.9l11.8 11.8m-7.9-11.9l9.7 9.6m-5.7-9.7l5.9 5.9m-1.9-6l5.9 5.9m-1.8-5.9l4.4 4.5m-6.8 105l8.3-8.3m-8.3 4.2l8.3-8.3m-8.3 4.3l8.3-8.4m-8.3 4.3l8.3-8.3m-8.3 4.2l8.3-8.3m-8.3 4.2l8.3-8.3m-8.3 4.2l8.3-8.3m-8.3 4.3l8.3-8.4m-8.3 4.3l8.3-8.3m-8.3 4.2l8.3-8.3m-8.3 4.3l8.3-8.3m-8.3 4.2l8.3-8.3m-8.3 4.3l8.3-8.4m-8.3 4.2l8.3-8.3m-8.3 4.3l8.3-8.4m-8.3 4.3l8.3-8.3m-8.3 4.2l8.3-8.3m-8.3 4.2l8.3-8.3m-8.3 4.2l8.3-8.2m-8.3 4.2l8.3-8.3m-8.3 4.2l8.3-8.3m-8.3 4.3l8.3-8.4m-8.3 4.3l8.3-8.3m-8.3 97.9l8.3-8.3m-4.2 8.3l4-4m-8.1-.1l8.3-8.3m-8.3 4.3l8.3-8.4m-8.3 4.3l8.7-8.7m-8.7 4.6l8.3-8.3m-8.3 4.2l8.3-8.3m-8.3-52.8l9.1-9.1m-9.1 5.1l8.3-8.4m-10.1 6.1l10.1-10.1m-8.3 4.2l8.3-8.3m-8.3 4.2l4.2-4.2m-14.3 98.9l3 3m-3-6.4l3 3m-3-6.4l3 3m-3-6.4l3 3.1m-3-6.5l3 3m-2.9-6.3l2.9 2.9m1 13.2l4 4m-4-8l5.5 5.4m-5.5-9.5l5.5 5.4m-5.5-9.5l5.5 5.5m-9.5-13.6l3 3.1m1 .9l5.5 5.5m-9.2-13.2l3.1 3.1m.6.5l5.5 5.5m-8.3-12.4l8.3 8.3m-7.8-11.9l7.8 7.8m-6.7-10.7l2.1 2.2m0 0l4.6 4.5m-2.6-6.7l2.6 2.6" fill="none" stroke="#3c3c3b" stroke-width=".283" stroke-linecap="round" stroke-linejoin="round" stroke-miterlimit="10"/><path class="st7" d="M298.1 220.1v-4.2m-3.4 0h3.4m-3.4 4.2h3.4m-3.4 58.4h6.4m0 0v-7.4m-6.4 0h6.4m-3-14.9V252m-3.4 4.2h3.4m0-4.2v-2.7m-3.4 0h6.4m0 0V242m-6.4 0h6.4m-2.6 26.5v-9.6m-3.8 0h3.8m-3.8 9.6h3.8m-.4-41.5v-4.2m-3.4 0h3.4m-3.4 4.2h3.4m-3.4 57.8h3.5m4.9-18.6v-50.3m-4.6 26.1v-12.3m-3.8 0h3.8m-3.7 84.9v-98.7m-1.6 102.4V216M226 279.9V216m67.2 102.3h1.5v-3.7c.5 3.3 5.2 1.6 5.4-1.9V289c-.5-3.5-4.9-5.2-5.4-1.9m0 29.7H226m71.7-.7v-30.5m-2.9 1.5v27.5"/><path d="M303.1 124.4v160.4h-5v1.2h2v10.3h1.9v16.9h-1.2v2.1h-1.9m-5.7 3v6.2c0 1-.8 1.2-1.5 1.2l-5.3.1-59.1-1.5c-1.1 0-1.4-1.2-1.4-1.2v-43.2c0-2.1-1.5-2.1-1.5-2.1l-42.8-1.2c-.6 0-1.2-.9-1.2-1.6v.3-118.2c0-.7.5-1.6 1.2-1.6l42.8-1.2s1.5 0 1.5-2.1V109s.3-1.1 1.4-1.2l59.1-1.5 5.3.1c.7 0 1.5.3 1.5 1.2v6.2h1.5v3.7c.5-3.3 5-1.6 5.4 1.9v4.8l2.9.1" fill="none" stroke="#000" stroke-width=".992" stroke-linecap="round" stroke-linejoin="round" stroke-miterlimit="10"/><path class="st7" d="M293.2 108l-.1-.3m0 0l-.1-.4m0 0l-.2-.2m0 0l-.2-.3m0 0l-.2-.2m0 0h-.3m0 0l-.4-.1m0 0l-5.3-.1m-60.2 2.1l-.2.2m0 0l-.1.4m0 0v.3m0 0v43.4m0 0v.4m0 0l-.2.3m0 0l-.2.3m0 0l-.2.3m0 0l-.3.1m0 0l-.2.1m0 0l-.4.1m0 0l-42.4 1.1m0 0h-.3m0 0l-.3.2m0 0l-.3.1m0 0l-.3.3m0 0l-.1.3m0 0l-.1.3m0 0l-.1.3m0 0v13.4m2.3 2.2h54.5m0 0v-39.2m0 0l13.6-.3m0 0l.3-.1m0 0l.3-.1m0 0l.3-.2m0 0l.2-.2m0 0l.2-.3m0 0l.1-.4m0 0l.1-.3m0 0v-11m0 0v-.4m0 0l.1-.2m0 0l.2-.3m0 0l.2-.1m0 0l.3-.1m0 0l.3-.1m0 0l32.9-.8m0 0v-6.1m0 0l5.7-.1m0 0l.3-.1m0 0l.2-.1m0 0l.2-.2m0 0l.2-.2m0 0l.1-.3m0 0l.1-.3m0 0V108M182.8 215.8v-42.7m0 0v-.3m0 0v-.1m0 0v-.1m-2.3-2.2v.2m0 0v.2m0 0v.3m0 0v.4m0 0v.5m0 0v.6m0 0v.7m0 0v42.5m56.8-43.2v.1m0 0v.1m0 0v.3m0 0v42.7m13.6-82.7v.2m0 .1v.4m0 0v.4m0 0v.5m0 0v.5m0 0v.7m0 0v.8m0 0v.8m0 0v.9m0 0v1.1m0 0v1.1m0 0v1.2m0 0v1.2m0 0v1.4m0 0v1.4m0 0v1.5m0 0v1.6m0 0v1.6m0 0v1.8m0 0v1.8m0 0v1.8m0 0v1.9m0 0v2m0 0v2.1m0 0v2.1m0 0v2.2m0 0v2.2m0 0v2.2m0 0v2.3m0 0v2.4m0 0v2.4m0 0v2.5m0 0v2.5m0 0v2.5m0 0v2.6m0 0v2.6m0 0v2.6m0 0v2.7m0 0v2.7m0 0v2.6m0 0v2.7m0 0v2.7m0 0v2.8m0 0v2.7m0 0v4.1m32.5-39h-.3m0 0l-.2-.1m0 0l-.1-.2m0 0l-.2-.2m0 0v-.2m0 0v.2m0 0l-.1.1m0 0v.2m0 0l-.2.2m0 0l-.1.3m0 0l-.1.3m0 0l-.2.5m0 0l.2-.1m0 0l.3-.2m0 0l.2-.2m0 0l.2-.1m0 0l.2-.1m0 0l.2-.2m0 0l.1-.1m0 0l.1-.1m0 0h-.3m0 0l-.2-.2m0 0l-.1-.1m0 0l-.2-.2m0 0v-.2m.8-.3h-.3m0 0h-.2m0 0h-.1m0 0h-.2m.8 1v-.1m0 0v-.2m0 0v-.2m0 0v-.2m0 0v-.3m0 0v-3.7m0-4.5v-3.4m-1.5-.8v14.5m.7-1.8v-4m0-4.5v-3.4m-29.4 41.3h.2m0 0l.1.2m18.9 7.5l-.1-.4m0 0l-.1-.4m0 0l-.2-.3m0 0l-.2-.3m0 0l-.3-.3m0 0l-.3-.2m0 0l-.3-.2m0 0l-.4-.1m1.9 4.8v-2.6m-20-5.8v-.1m0 0v-.1m0 0l.2-.3m0 0l.1-.2m0 0l.2-.3m0 0l.2-.3m0 0l.1-.3m0 0l.1-.1m0 0h.1m0 0h.1m0-65.2l-.1.1m0 0l-.2.1m19.2 72.5h-.3m0 0h-.3m0 0h-.2m0 0h-.2m0 0h-.1m-.8-2.2v.3m0 0l.2.2m0 0v.3m0 0l.1.2m0 0l.1.2m0 0v.1m0 0l.2.2m0 0v.2m0 0l.1.1m0 0l.1.2m0 0v.2m0 0v-.2m0 0l-.2-.2m0 0l-.2-.2m0 0l-.2-.1m0 0l-.2-.1m0 0v.1m0 0v.1m0 0v.3m0 0v.2m0 0v.4m0 0v.5m0 0v.5m0 0v.4m0 0v.6m.8-.4v-.4m0 0v-.5m0 0v-.3m0 0v-.3m0 0v-.2m0 0v-.1m0 0v-.1m-.8-2.2v.3m0 0v.3m0 0v.3m0 0v.3m0 0v.1m0 0v.1m15.9-36.6h-3m3 1.1l-3-.1m3 1.3h-.6m-2.3-.1l-1.6-.1m-29.5-22.2l1.6-.1m0 0l1.8-.1m0 0l1.7-.2m0 0l1.7-.2m0 0l1.7-.2m0 0l1.6-.2m0 0l3.4-.5m0 0l3.3-.6m0 0l3.4-.6m0 0l3.3-.6m0 0l3.4-.5M253.5 126l2.1-.1m0 0l2-.1m0 0l2.1-.2m0 0l2-.2m0 0l2.1-.2m0 0l2.1-.2m0 0l4-.6m0 0l4.1-.5m0 0l4.1-.5m0 0l2.1-.2m0 0l2-.2m0 0l2.1-.1m0 0l2.1-.1m-34 82.6v.1m0 0h.1m0 0h.1m0 0l.3.1m0 0l.3.1m0 0h-.3m0 0l-.1.2m0 0l-.4.1m.8-65.1h-.3m0 0l-.2.1m0 0l-.2.1m0 0h-.1m1.1 69.6v-4.8m17 5.3l-17-.5m0 0l-.2.2m0 0l-.2.2m0 0l-.2.3m0 0l-.1.1m0 0l-.2.2m0 0l-.1.2m0 0l-.1.2m0 3.9v-5.1m0 0v-2.7m0 0v-2.9m0 0v-2.6m0 0v-2.8m0 0v-2.7m0 0v-2.7m0 0v-2.7m0 0v-2.7m0 0v-2.6m0 0V184m0 0v-2.5m0 0v-2.6m0 0v-2.4m0 0V174m0 0v-2.3m0 0v-2.4m0 0V167m0 0v-2.2m0 0v-2.2m0 0v-2.1m0 0v-2.1m0 0v-2m0 0v-2m0 0v-1.7m0 0v-1.9m0 0v-1.7m0 0v-1.6m0 0v-1.6m0 0v-1.6m0 0v-1.4m0 0v-1.3m0 0v-1.3m0 0v-1.2m0 0V138m0 0v-1m0 0v-1m0 0v-.8m0 0v-.8m0 0v-.7m0 0v-.6m0 0v-.4m0 0v-.5m0 0v-.3m0 0v-.2m1.1 9v-1.1m0 0v-1.2m0 0v-1.2m0 0v-1.3m0 0v-1.2m0 0v-1.3m-1.1-7.6h.1m0 0l.2.1m0 0l.2.1m0 0h.3m0 0h.3m0 0v-.6m0 0v-.6m0 0v-.6m0 0v-.6m0 0v-.7m0 0v-.5m0 0v-.5m0 0v-.5m0 0v-.4m0 0v-.5m0 0v-.3m0 0v-.3m0 0v-.3m0 0v-.2m-1.1 9.7l.1.1m0 0h.2m0 0h.2m0 0h.3m0 0h.3m0 0v-1.1m0 0V127m0 0v-1m-1.1 4.8v-.3m0 0l.1-.2m0 0l.2-.2m0 0l.2-.1m0 0l.3-.1m0 0h.3m0 0v-.2m0-.1v-.2m0 0v-.2m-1.1 1.9h.1m0 0h.2m0 0h.2m0 0h.3m0 0h.3m0 0v-.3m0 0v-.4m0 0v-.3m0 0v-.2m-1.1 1.6h.1m0 0h.2m0 0h.2m0 0h.3m0 0h.3m0 0v-.4m-1.1.7v.3m0 0l.1.2m0 0l.2.2m0 0l.2.1m0 0l.3.1m0 0h.3m0 0v-.2m0 0v-.3m0 0v-.4m0 0v-.3m-1.1 1.9h.1m0 0h.2m0 0h.2m0 0h.3m0 0h.3m0 0v-.2m0-.1v-.2m0 0v-.2m-1.1 79.5l18.1.4M253.4 144h-.3m0 0l-.3.1m0 0l-.4.3m27.9-1.2l-26.9.8m.1-10.6l26.8.2m-1 17l-25.9.7m0 0h-.3m0 0l-.3.1m0 0h-.2m0 0h-.2m1-4.4l26.9-.4m-27.9.1l.2.1m0 0l.2.1m0 0h.3m0 0l.3.1m26.9-.9l-26.9.2m0 0v.2m0 0v.3m0 0v.2m-.6-.9l-.1.2m0 0l-.1.1m0 0l-.1.2m0 0l-.1.1m0-1.5h.1m27.8-12.1l-26.8-.4m0-2.8l26.8-.4m0-.6l-26.8.3m25.8 21.4l-25.9.7m-1 .1h.2m0 0h.3m0 0h.2m0 0l.3-.1m0-5h-.1m0 0l-.2-.1m0 0h-.2m0 0l-.1-.1m.7-1.1v-.3m0 0l-.4.1m0 0h-.2m0 0l-.3.2m0 0l-.1.2m1-.6v-.2m0-.1v-.2m-.1 2.2l.1-.4m0 0v-.3m0 0v-.3m0 0v-.3m26.8-13.5h-26.8m26.8 12.8l-26.8.4m26.8-13.6h-26.8m39.7-18.1v-.4m0 0v-.3m0 0v-.4m0 0v-.3m0 0v-.2m0 0v-.2m0 2.3v-.5m0 .9v-.4m-1.1-.5h.3m0 0h.2m0 0h.2m0 0h.2m0 0h.1m0 0h.1m-1.1-.6v.2m0 0v.2m0 0v.2m0 .5h.3m0 0h.2m0 0h.2m0 0h.2m0 0h.1m0 0h.1m-1.1-.5v.5m0 0v.4m-5.7-.7l5.7-.2m-5.7.5h5.7m-54.8 57.1h-56.6m114 45.4V113.9m0 0h-8.3m0 0v102.2m-.5-51.7v.2m0 0v.3m0 0v.4m0 0v.3m0 0v.4m.5 0h-.5m0 0v.7m0 7.9v.3m.5 0h-.5m.5-28.7v69.7m17.4-8.3h-9.1m0 0v-8.5m0 0h3.1m0 0V195m0 0h-3.1m0 0v-9.3m0 0h9.1m0-60.4h-9.1m0 0v-11.4m0 0h-8.3m0 0v10m0 0h-3m0 0v4.2m0 0h3m0 0v14m0 0h-4.2m0 0v4.1m0 0h4.2m0 18.2h-4.2m0-.8v.8m4.2 2.3h-3m0 0v1.1m0 4.1v2.7m3 0h-3m3-35.6h-3m3-7.9h-3m0 0v7.9m11.3 64.7h4.1m0 3.9v-3.9m0 0v-4.6m-16.6-27.2v.4m1.2 0h-1.2m3.8 12.3v.1m0 0v.2m0 0v.3m0 4.1v.5m0 0v.5m0 0v.4m0 0v.4m0 0v.4m0 0v.3m0 0v.2m.4-7.4h-.4m.4 28.2h-.6m.6-5h-.6m.6-7.9h-.6m13-4.9v-3m-4.1 0h7.1m0 0v-6.3m-19.6-17.9v4.1m4.2 0h-4.2m4.2-4.1h-4.2m12.5 23.1h4.1m0 0v-5.2m-12.4-35.3h-7.1m0 0v13.2m7.1 0h-7.1m19.5 35.5V195m-1 0h1m-1 4.1h1m-18.5-75.4v26.7m6.1-26.7h-6.1m6.1 72.4h-.6m.6-4.1h-.6m.6-2.7h-.6m.6-4.1h-.6m.6-2.7h-.6m.6-4.1h-.6m0 37.6v-37.8m0 0h-4.6m0 0v6m0 0v-6m0 0h-3m0 0v1.8m0 0l-.2 1.9m0 0l-.3 1.9m0 0l-.4 1.8m0 0l-.4 1.7m0 0l-.6 1.8m0 0v2.8m0 .6v1.2m0 1v2.3m3 19v-24.9m0 0h1m0 0v8m0 .7V216m-4-18.2v-.8m0 17.5v-16.7m4 2v-.7m-4-6.6v-.1m0 0v-.1m0 0v-.1m0 2.5v-.1m0 0v-.1m0 0v-.1m0 0v-.1m0 0v-.2m0 0v-.2m0 0v-.1m0 0v-.1m0-1.5v-.2m0 0v-.1m10.1-77.8l.1-.2m10.5 85.2l.8-.7m-11.4-84.3l.1-.2m-5.4 64.3l.1.1m3.9-.1l.7.6m-9.5 18.2v19m10.1-109.6l-59.1 1.5m0 0h-.3m0 0l-.3.1m0 0l-.3.2m0 0l-.2.3"/><path class="st9" d="M49 216h11.4"/><path d="M66.1 216h5.8" fill="none" stroke="#1d1d1b" stroke-width=".425" stroke-miterlimit="10" stroke-dasharray="2.8892,5.7783"/><path d="M74.8 216h222.5" fill="none" stroke="#1d1d1b" stroke-width=".425" stroke-miterlimit="10" stroke-dasharray="23.1133,5.7783,2.8892,5.7783"/><path class="st9" d="M300.2 216h11.3"/><path class="st1" d="M26.2 170.3H209m-182.8 91H209"/><path class="st2" d="M33.6 174.4v83"/><path d="M31.1 175.2l2.5-4.4 2.5 4.4h-5zm0 81.5l2.5 4.4 2.5-4.4h-5z"/><text transform="translate(210.874 50.872)" class="st12 st13">11.5</text><text transform="translate(239.574 50.872)" class="st12 st14">(daA4200-30 cameras)</text><text transform="translate(210.874 66.461)" class="st12 st13">11.7</text><text transform="translate(239.574 66.461)" class="st12 st14">(other cameras)</text><text transform="translate(108.374 96.174)" class="st12 st13">Thread: 7.5</text><text transform="translate(33.873 114.171)" class="st12 st13">S-mount lens</text><text transform="rotate(-90 135.2 108.978)" class="st12 st13">M12 x 0.5</text><text transform="translate(318.688 315.218)" class="st12 st14">Not to scale</text><text transform="translate(318.688 328.418)" class="st12 st14">Dimensions in mm</text><text transform="translate(318.688 286.436)" class="st12 st14">Parts on board are</text><text transform="translate(318.688 299.636)" class="st12 st14">symbolic only</text><text transform="translate(210.65 35.282)" class="st12 st13">10.9</text><text transform="translate(239.35 35.282)" class="st12 st14">(daA1920-160 cameras)</text><text transform="translate(210.65 19.693)" class="st12 st13">10.7</text><text transform="translate(239.35 19.693)" class="st12 st14">(daA1600-60 cameras)</text></svg>