<svg style="background-color:#fff" version="1.1" id="Layer_1" xmlns="http://www.w3.org/2000/svg" x="0" y="0" viewBox="0 0 612 455.6" xml:space="preserve"><style>.st0{stroke:#000;stroke-width:.6;stroke-linecap:round;stroke-linejoin:round;stroke-miterlimit:10}.st0,.st1,.st2{fill:none}.st2{stroke:#000;stroke-width:.48;stroke-linecap:round;stroke-linejoin:round;stroke-miterlimit:10}.st3{font-family:Helvetica,Arial,sans-serif}.st4{font-size:10px}.st5{font-size:7px}</style><circle class="st0" cx="109.5" cy="161.3" r="1.8"/><circle class="st0" cx="109.5" cy="170.6" r="1.8"/><circle class="st0" cx="109.5" cy="307.1" r="1.8"/><path class="st0" d="M111.3 316.6c0-1.1-.8-1.8-1.8-1.8-1.1 0-1.8.7-1.8 1.8 0 1 .7 1.8 1.8 1.8 1 0 1.8-.9 1.8-1.8zm-2.7-258.3h5.6m0 0v-1.2m0 0h-5.6m0 0v1.2m0-1.2h5.7m-5.7.1h5.7m-5.7.2h5.7m-5.7.1h5.7m-5.7.1h5.7m-5.7.1h5.7m-5.7.1h5.7m-5.7.2h5.7m-5.7.1h5.7m-5.7.1h5.7m-5.7.1h5.7m-.1 2.2l1.4-.4m0 0l1-1.1m0 0l.4-1.3m0 0l-.4-1.4m0 0l-1-1m0 0l-1.4-.3"/><path d="M114.2 55zm0 0z"/><path class="st0" d="M108.6 67.7h5.6m0 0v-1.1m0 0h-5.6m0 0v1.1m0-1.1h5.7m-5.7.1h5.7m-5.7.1h5.7m-5.7.2h5.7m-5.7.1h5.7m-5.7.1h5.7m-5.7.1h5.7m-5.7.1h5.7m-5.7.2h5.7m-5.7.1h5.7m-.1 2.1l1.4-.3m0 0l1-1.1m0 0l.4-1.3m0 0l-.4-1.5m0 0l-1-.9m0 0l-1.4-.4"/><path d="M114.2 64.3zm0 0z"/><path class="st0" d="M108.6 77.2h5.6m0 0V76m0 0h-5.6m0 0v1.2m0-1.2h5.7m-5.7.1h5.7m-5.7.1h5.7m-5.7.1h5.7m-5.7.1h5.7m-5.7.2h5.7m-5.7.1h5.7m-5.7.1h5.7m-5.7.1h5.7m-5.7.1h5.7m-5.7.2h5.7m-.1 2.1l1.4-.3m0 0l1-1.1m0 0l.4-1.3m0 0l-.4-1.5m0 0l-1-.9m0 0l-1.4-.4"/><path d="M114.2 73.8zm0 0z"/><path class="st0" d="M108.6 86.5h5.6m0 0v-1.1m0 0h-5.6m0 0v1.1m0-1.1h5.7m-5.7.2h5.7m-5.7.1h5.7m-5.7.1h5.7m-5.7.1h5.7m-5.7.1h5.7m-5.7.2h5.7m-5.7.1h5.7m-5.7.1h5.7m-5.7.1h5.7m-.1 2.2l1.4-.4m0 0l1-1.1m0 0l.4-1.3m0 0l-.4-1.4m0 0l-1-1m0 0l-1.4-.3"/><path d="M114.2 83.2zm0 0z"/><path class="st0" d="M108.6 95.9h5.6m0 0v-1.1m0 0h-5.6m0 0v1.1m0-1.1h5.7m-5.7.1h5.7m-5.7.1h5.7m-5.7.2h5.7m-5.7.1h5.7m-5.7.1h5.7m-5.7.1h5.7m-5.7.1h5.7m-5.7.2h5.7m-5.7.1h5.7m-.1 2.3l1.4-.4m0 0l1-1.1m0 0l.4-1.3m0 0l-.4-1.4m0 0l-1-1m0 0l-1.4-.4"/><path d="M114.2 92.6zm0 0z"/><path class="st0" d="M108.6 105.4h5.6m0 0v-1.2m0 0h-5.6m0 0v1.2m0-1.2h5.7m-5.7.1h5.7m-5.7.1h5.7m-5.7.1h5.7m-5.7.1h5.7m-5.7.2h5.7m-5.7.1h5.7m-5.7.1h5.7m-5.7.1h5.7m-5.7.1h5.7m-5.7.2h5.7m-.1 2.1l1.4-.3m0 0l1-1.1m0 0l.4-1.3m0 0l-.4-1.5m0 0l-1-.9m0 0l-1.4-.4"/><path d="M114.2 102zm0 0z"/><path class="st0" d="M108.6 387.7h5.6"/><path d="M114.2 387.7l.1.1h-.1v-.1z"/><path class="st0" d="M114.2 387.7v-1.2"/><path d="M114.2 386.5l.1.1h-.1v-.1z"/><path class="st0" d="M114.2 386.5h-5.6"/><path d="M108.6 386.5l.1.1h-.1v-.1z"/><path class="st0" d="M108.6 386.5v1.2"/><path d="M108.6 387.7l.1.1h-.1v-.1z"/><path class="st0" d="M108.6 386.5h5.7m-5.7.1h5.7m-5.7.2h5.7m-5.7.1h5.7m-5.7.1h5.7m-5.7.1h5.7m-5.7.1h5.7m-5.7.2h5.7m-5.7.1h5.7m-5.7.1h5.7m-5.7.1h5.7m-.1 2.2l1.4-.4"/><path d="M115.6 389.5l.1.1h-.1v-.1z"/><path class="st0" d="M115.6 389.5l1-1.1"/><path d="M116.6 388.4l.1.1h-.1v-.1z"/><path class="st0" d="M116.6 388.4l.4-1.3"/><path d="M117 387.1l.1.1h-.1v-.1z"/><path class="st0" d="M117 387.1l-.4-1.4"/><path d="M116.6 385.7l.1.1h-.1v-.1z"/><path class="st0" d="M116.6 385.7l-1-1"/><path d="M115.6 384.7l.1.1h-.1v-.1z"/><path class="st0" d="M115.6 384.7l-1.4-.3"/><path d="M114.2 384.4l.1.1h-.1v-.1z"/><path d="M114.2 384.4l.1.1h-.1v-.1z"/><path class="st0" d="M108.6 397.1h5.6"/><path d="M114.2 397.1l.1.1h-.1v-.1z"/><path class="st0" d="M114.2 397.1V396"/><path d="M114.2 396l.1.1h-.1v-.1z"/><path class="st0" d="M114.2 396h-5.6"/><path d="M108.6 396l.1.1h-.1v-.1z"/><path class="st0" d="M108.6 396v1.1"/><path d="M108.6 397.1l.1.1h-.1v-.1z"/><path class="st0" d="M108.6 396h5.7m-5.7.1h5.7m-5.7.1h5.7m-5.7.2h5.7m-5.7.1h5.7m-5.7.1h5.7m-5.7.1h5.7m-5.7.1h5.7m-5.7.2h5.7"/><path class="st1" d="M108.6 397.1h5.7"/><path class="st0" d="M114.2 399.2l1.4-.3"/><path d="M115.6 398.9l.1.1h-.1v-.1z"/><path class="st0" d="M115.6 398.9l1-1.1"/><path d="M116.6 397.8l.1.1h-.1v-.1z"/><path class="st0" d="M116.6 397.8l.4-1.3"/><path d="M117 396.5l.1.1h-.1v-.1z"/><path class="st0" d="M117 396.5l-.4-1.5"/><path d="M116.6 395l.1.1h-.1v-.1z"/><path class="st0" d="M116.6 395l-1-.9"/><path d="M115.6 394.1l.1.1h-.1v-.1z"/><path class="st0" d="M115.6 394.1l-1.4-.4"/><path d="M114.2 393.7l.1.1h-.1v-.1z"/><path d="M114.2 393.7l.1.1h-.1v-.1z"/><path class="st0" d="M108.6 406.6h5.6"/><path d="M114.2 406.6l.1.1h-.1v-.1z"/><path class="st0" d="M114.2 406.6v-1.2"/><path d="M114.2 405.4l.1.1h-.1v-.1z"/><path class="st0" d="M114.2 405.4h-5.6"/><path d="M108.6 405.4l.1.1h-.1v-.1z"/><path class="st0" d="M108.6 405.4v1.2"/><path d="M108.6 406.6l.1.1h-.1v-.1z"/><path class="st0" d="M108.6 405.4h5.7m-5.7.1h5.7m-5.7.1h5.7m-5.7.1h5.7m-5.7.1h5.7m-5.7.2h5.7m-5.7.1h5.7m-5.7.1h5.7m-5.7.1h5.7m-5.7.1h5.7m-5.7.2h5.7m-.1 2.1l1.4-.3"/><path d="M115.6 408.4l.1.1h-.1v-.1z"/><path class="st0" d="M115.6 408.4l1-1.1"/><path d="M116.6 407.3l.1.1h-.1v-.1z"/><path class="st0" d="M116.6 407.3l.4-1.3"/><path d="M117 406l.1.1h-.1v-.1z"/><path class="st0" d="M117 406l-.4-1.5"/><path d="M116.6 404.5l.1.1h-.1v-.1z"/><path class="st0" d="M116.6 404.5l-1-.9"/><path d="M115.6 403.6l.1.1h-.1v-.1z"/><path class="st0" d="M115.6 403.6l-1.4-.4"/><path d="M114.2 403.2l.1.1h-.1v-.1z"/><path d="M114.2 403.2l.1.1h-.1v-.1z"/><path class="st0" d="M108.6 415.9h5.6"/><path d="M114.2 415.9l.1.1h-.1v-.1z"/><path class="st0" d="M114.2 415.9v-1.1"/><path d="M114.2 414.8l.1.1h-.1v-.1z"/><path class="st0" d="M114.2 414.8h-5.6"/><path d="M108.6 414.8l.1.1h-.1v-.1z"/><path class="st0" d="M108.6 414.8v1.1"/><path d="M108.6 415.9l.1.1h-.1v-.1z"/><path class="st0" d="M108.6 414.8h5.7m-5.7.2h5.7m-5.7.1h5.7m-5.7.1h5.7m-5.7.1h5.7m-5.7.1h5.7m-5.7.2h5.7m-5.7.1h5.7m-5.7.1h5.7m-5.7.1h5.7m-.1 2.2l1.4-.4"/><path d="M115.6 417.7l.1.1h-.1v-.1z"/><path class="st0" d="M115.6 417.7l1-1.1"/><path d="M116.6 416.6l.1.1h-.1v-.1z"/><path class="st0" d="M116.6 416.6l.4-1.3"/><path d="M117 415.3l.1.1h-.1v-.1z"/><path class="st0" d="M117 415.3l-.4-1.4"/><path d="M116.6 413.9l.1.1h-.1v-.1z"/><path class="st0" d="M116.6 413.9l-1-1"/><path d="M115.6 412.9l.1.1h-.1v-.1z"/><path class="st0" d="M115.6 412.9l-1.4-.3"/><path d="M114.2 412.6l.1.1h-.1v-.1z"/><path d="M114.2 412.6l.1.1h-.1v-.1z"/><path class="st0" d="M108.6 425.3h5.6"/><path d="M114.2 425.3l.1.1h-.1v-.1z"/><path class="st0" d="M114.2 425.3v-1.1"/><path d="M114.2 424.2l.1.1h-.1v-.1z"/><path class="st0" d="M114.2 424.2h-5.6"/><path d="M108.6 424.2l.1.1h-.1v-.1z"/><path class="st0" d="M108.6 424.2v1.1"/><path d="M108.6 425.3l.1.1h-.1v-.1z"/><path class="st0" d="M108.6 424.2h5.7m-5.7.1h5.7m-5.7.1h5.7m-5.7.2h5.7m-5.7.1h5.7m-5.7.1h5.7m-5.7.1h5.7m-5.7.1h5.7m-5.7.2h5.7m-5.7.1h5.7m-.1 2.3l1.4-.4"/><path d="M115.6 427.2l.1.1h-.1v-.1z"/><path class="st0" d="M115.6 427.2l1-1.1"/><path d="M116.6 426.1l.1.1h-.1v-.1z"/><path class="st0" d="M116.6 426.1l.4-1.3"/><path d="M117 424.8l.1.1h-.1v-.1z"/><path class="st0" d="M117 424.8l-.4-1.4"/><path d="M116.6 423.4l.1.1h-.1v-.1z"/><path class="st0" d="M116.6 423.4l-1-1"/><path d="M115.6 422.4l.1.1h-.1v-.1z"/><path class="st0" d="M115.6 422.4l-1.4-.4"/><path d="M114.2 422l.1.1h-.1v-.1z"/><path d="M114.2 422l.1.1h-.1v-.1z"/><path class="st0" d="M108.6 434.8h5.6"/><path d="M114.2 434.8l.1.1h-.1v-.1z"/><path class="st0" d="M114.2 434.8v-1.1"/><path d="M114.2 433.7l.1.1h-.1v-.1z"/><path class="st0" d="M114.2 433.7h-5.6"/><path d="M108.6 433.7l.1.1h-.1v-.1z"/><path class="st0" d="M108.6 433.7v1.1"/><path d="M108.6 434.8l.1.1h-.1v-.1z"/><path class="st0" d="M108.6 433.7h5.7m-5.7.1h5.7m-5.7.1h5.7m-5.7.1h5.7m-5.7.2h5.7m-5.7.1h5.7m-5.7.1h5.7m-5.7.1h5.7m-5.7.1h5.7m-5.7.2h5.7m-.1 2.1l1.4-.3"/><path d="M115.6 436.6l.1.1h-.1v-.1z"/><path class="st0" d="M115.6 436.6l1-1.1"/><path d="M116.6 435.5l.1.1h-.1v-.1z"/><path class="st0" d="M116.6 435.5l.4-1.3"/><path d="M117 434.2l.1.1h-.1v-.1z"/><path class="st0" d="M117 434.2l-.4-1.5"/><path d="M116.6 432.7l.1.1h-.1v-.1z"/><path class="st0" d="M116.6 432.7l-1-.9"/><path d="M115.6 431.8l.1.1h-.1v-.1z"/><path class="st0" d="M115.6 431.8l-1.4-.4"/><path d="M114.2 431.4l.1.1h-.1v-.1z"/><path d="M114.2 431.4l.1.1h-.1v-.1z"/><path class="st0" d="M252.4 57.7c0-1.1-.8-1.8-1.8-1.8-1.1 0-1.8.7-1.8 1.8 0 1 .7 1.8 1.8 1.8 1 0 1.8-.8 1.8-1.8zm0 9.4c0-1.1-.8-1.8-1.8-1.8-1.1 0-1.8.7-1.8 1.8 0 1 .7 1.8 1.8 1.8 1 0 1.8-.9 1.8-1.8zm0 9.5c0-1.1-.8-1.8-1.8-1.8-1.1 0-1.8.7-1.8 1.8 0 1 .7 1.8 1.8 1.8 1 0 1.8-.9 1.8-1.8zm0 9.3c0-1.1-.8-1.8-1.8-1.8-1.1 0-1.8.7-1.8 1.8 0 1 .7 1.8 1.8 1.8 1 0 1.8-.8 1.8-1.8zm0 9.5c0-1.1-.8-1.8-1.8-1.8-1.1 0-1.8.7-1.8 1.8 0 1 .7 1.8 1.8 1.8 1 0 1.8-.8 1.8-1.8zm0 9.4c0-1.1-.8-1.8-1.8-1.8-1.1 0-1.8.7-1.8 1.8 0 1 .7 1.8 1.8 1.8 1 0 1.8-.9 1.8-1.8zm0 28.2c0-1.1-.8-1.8-1.8-1.8-1.1 0-1.8.7-1.8 1.8 0 1 .7 1.8 1.8 1.8 1 0 1.8-.9 1.8-1.8zm0 9.4c0-1.1-.8-1.8-1.8-1.8-1.1 0-1.8.7-1.8 1.8 0 1 .7 1.8 1.8 1.8 1 0 1.8-.8 1.8-1.8zm0 9.4c0-1.1-.8-1.8-1.8-1.8-1.1 0-1.8.7-1.8 1.8 0 1 .7 1.8 1.8 1.8 1 0 1.8-.8 1.8-1.8zm0 9.5c0-1.1-.8-1.8-1.8-1.8-1.1 0-1.8.7-1.8 1.8 0 1 .7 1.8 1.8 1.8 1 0 1.8-.9 1.8-1.8zm0 9.3c0-1.1-.8-1.8-1.8-1.8-1.1 0-1.8.7-1.8 1.8 0 1 .7 1.8 1.8 1.8 1 0 1.8-.8 1.8-1.8zm0 9.5c0-1.1-.8-1.8-1.8-1.8-1.1 0-1.8.7-1.8 1.8 0 1 .7 1.8 1.8 1.8 1 0 1.8-.8 1.8-1.8zm0 70.6c0-1.1-.8-1.8-1.8-1.8-1.1 0-1.8.7-1.8 1.8 0 1 .7 1.8 1.8 1.8 1 0 1.8-.9 1.8-1.8zm0 9.3c0-1.1-.8-1.8-1.8-1.8-1.1 0-1.8.7-1.8 1.8 0 1 .7 1.8 1.8 1.8 1 0 1.8-.8 1.8-1.8zm0 9.5c0-1.1-.8-1.8-1.8-1.8-1.1 0-1.8.7-1.8 1.8 0 1 .7 1.8 1.8 1.8 1 0 1.8-.8 1.8-1.8zm0 9.4c0-1.1-.8-1.8-1.8-1.8-1.1 0-1.8.7-1.8 1.8 0 1 .7 1.8 1.8 1.8 1 0 1.8-.9 1.8-1.8zm0 9.5c0-1.1-.8-1.8-1.8-1.8-1.1 0-1.8.7-1.8 1.8 0 1 .7 1.8 1.8 1.8 1 0 1.8-.9 1.8-1.8zm0 9.3c0-1.1-.8-1.8-1.8-1.8-1.1 0-1.8.7-1.8 1.8 0 1 .7 1.8 1.8 1.8 1 0 1.8-.8 1.8-1.8zm0 28.2c0-1.1-.8-1.8-1.8-1.8-1.1 0-1.8.7-1.8 1.8 0 1 .7 1.8 1.8 1.8 1 0 1.8-.8 1.8-1.8zm0 9.5c0-1.1-.8-1.8-1.8-1.8-1.1 0-1.8.7-1.8 1.8 0 1 .7 1.8 1.8 1.8 1 0 1.8-.8 1.8-1.8zm0 9.4c0-1.1-.8-1.8-1.8-1.8-1.1 0-1.8.7-1.8 1.8 0 1 .7 1.8 1.8 1.8 1 0 1.8-.9 1.8-1.8zm0 9.4c0-1.1-.8-1.8-1.8-1.8-1.1 0-1.8.7-1.8 1.8 0 1 .7 1.8 1.8 1.8 1 0 1.8-.8 1.8-1.8zm0 9.4c0-1.1-.8-1.8-1.8-1.8-1.1 0-1.8.7-1.8 1.8 0 1 .7 1.8 1.8 1.8 1 0 1.8-.8 1.8-1.8zm0 9.4c0-1.1-.8-1.8-1.8-1.8-1.1 0-1.8.7-1.8 1.8 0 1 .7 1.8 1.8 1.8 1 0 1.8-.9 1.8-1.8zM407.7 67.1c0-1.1-.8-1.8-1.8-1.8-1.1 0-1.8.7-1.8 1.8 0 1 .7 1.8 1.8 1.8 1 0 1.8-.9 1.8-1.8zm0 9.5c0-1.1-.8-1.8-1.8-1.8-1.1 0-1.8.7-1.8 1.8 0 1 .7 1.8 1.8 1.8 1 0 1.8-.9 1.8-1.8zm0 9.3c0-1.1-.8-1.8-1.8-1.8-1.1 0-1.8.7-1.8 1.8 0 1 .7 1.8 1.8 1.8 1 0 1.8-.8 1.8-1.8zm0 9.5c0-1.1-.8-1.8-1.8-1.8-1.1 0-1.8.7-1.8 1.8 0 1 .7 1.8 1.8 1.8 1 0 1.8-.8 1.8-1.8zm0 9.4c0-1.1-.8-1.8-1.8-1.8-1.1 0-1.8.7-1.8 1.8 0 1 .7 1.8 1.8 1.8 1 0 1.8-.9 1.8-1.8zm0 9.4c0-1.1-.8-1.8-1.8-1.8-1.1 0-1.8.7-1.8 1.8 0 1 .7 1.8 1.8 1.8 1 0 1.8-.8 1.8-1.8zm0 9.4c0-1.1-.8-1.8-1.8-1.8-1.1 0-1.8.7-1.8 1.8 0 1 .7 1.8 1.8 1.8 1 0 1.8-.8 1.8-1.8zm0 9.4c0-1.1-.8-1.8-1.8-1.8-1.1 0-1.8.7-1.8 1.8 0 1 .7 1.8 1.8 1.8 1 0 1.8-.9 1.8-1.8zm0 9.4c0-1.1-.8-1.8-1.8-1.8-1.1 0-1.8.7-1.8 1.8 0 1 .7 1.8 1.8 1.8 1 0 1.8-.8 1.8-1.8zm0 9.4c0-1.1-.8-1.8-1.8-1.8-1.1 0-1.8.7-1.8 1.8 0 1 .7 1.8 1.8 1.8 1 0 1.8-.8 1.8-1.8zm0 9.5c0-1.1-.8-1.8-1.8-1.8-1.1 0-1.8.7-1.8 1.8 0 1 .7 1.8 1.8 1.8 1 0 1.8-.9 1.8-1.8zm0 9.3c0-1.1-.8-1.8-1.8-1.8-1.1 0-1.8.7-1.8 1.8 0 1 .7 1.8 1.8 1.8 1 0 1.8-.8 1.8-1.8zm0 89.4c0-1.1-.8-1.8-1.8-1.8-1.1 0-1.8.7-1.8 1.8 0 1 .7 1.8 1.8 1.8 1 0 1.8-.8 1.8-1.8zm0 9.5c0-1.1-.8-1.8-1.8-1.8-1.1 0-1.8.7-1.8 1.8 0 1 .7 1.8 1.8 1.8 1 0 1.8-.8 1.8-1.8zm0 9.4c0-1.1-.8-1.8-1.8-1.8-1.1 0-1.8.7-1.8 1.8 0 1 .7 1.8 1.8 1.8 1 0 1.8-.9 1.8-1.8zm0 9.5c0-1.1-.8-1.8-1.8-1.8-1.1 0-1.8.7-1.8 1.8 0 1 .7 1.8 1.8 1.8 1 0 1.8-.9 1.8-1.8zm0 9.3c0-1.1-.8-1.8-1.8-1.8-1.1 0-1.8.7-1.8 1.8 0 1 .7 1.8 1.8 1.8 1 0 1.8-.8 1.8-1.8zm0 9.4c0-1.1-.8-1.8-1.8-1.8-1.1 0-1.8.7-1.8 1.8 0 1 .7 1.8 1.8 1.8 1 0 1.8-.9 1.8-1.8zm0 9.5c0-1.1-.8-1.8-1.8-1.8-1.1 0-1.8.7-1.8 1.8 0 1 .7 1.8 1.8 1.8 1 0 1.8-.9 1.8-1.8zm0 9.3c0-1.1-.8-1.8-1.8-1.8-1.1 0-1.8.7-1.8 1.8 0 1 .7 1.8 1.8 1.8 1 0 1.8-.8 1.8-1.8zm0 9.5c0-1.1-.8-1.8-1.8-1.8-1.1 0-1.8.7-1.8 1.8 0 1 .7 1.8 1.8 1.8 1 0 1.8-.8 1.8-1.8zm0 9.4c0-1.1-.8-1.8-1.8-1.8-1.1 0-1.8.7-1.8 1.8 0 1 .7 1.8 1.8 1.8 1 0 1.8-.9 1.8-1.8zm0 9.4c0-1.1-.8-1.8-1.8-1.8-1.1 0-1.8.7-1.8 1.8 0 1 .7 1.8 1.8 1.8 1 0 1.8-.8 1.8-1.8zm0 9.4c0-1.1-.8-1.8-1.8-1.8-1.1 0-1.8.7-1.8 1.8 0 1 .7 1.8 1.8 1.8 1 0 1.8-.8 1.8-1.8zM6 34.2v89.4m0 0h112.9m0 0V34.2m0 0H6m235.3-23.5v178.8"/><path d="M241.3 189.5h.1v.1h-.1v-.1z"/><path class="st0" d="M241.3 189.5h174.1"/><path d="M415.4 189.5h.1v.1h-.1v-.1z"/><path class="st0" d="M194.2 81.2l-.1-2.1"/><path d="M194.1 79.1h.1v.1l-.1-.1z"/><path class="st0" d="M194.1 76.9v-1.3"/><path d="M194.1 75.6h.1v.1l-.1-.1z"/><path class="st0" d="M194.1 75.6v-1.4"/><path d="M194.1 74.2h.1v.1l-.1-.1z"/><path class="st0" d="M194 72.7l-.1-2.7"/><path d="M193.9 70h.1v.1l-.1-.1z"/><path d="M193.9 70h.1v.1l-.1-.1z"/><path class="st0" d="M193.8 67.3l-.3-2.5"/><path d="M193.5 64.8h.1v.1l-.1-.1z"/><path d="M193.5 64.8h.1v.1l-.1-.1z"/><path class="st0" d="M193.3 62.4l-.3-2.3"/><path d="M193 60.1h.1v.1l-.1-.1z"/><path d="M193 60.1h.1v.1l-.1-.1z"/><path class="st0" d="M192.8 58l-.2-2"/><path d="M192.6 56h.1v.1l-.1-.1z"/><path class="st0" d="M192.6 56l-.4-1.8"/><path d="M192.2 54.2h.1v.1l-.1-.1z"/><path class="st0" d="M191.8 52.7l-.3-1.2"/><path d="M191.5 51.5h.1v.1l-.1-.1z"/><path class="st0" d="M191.5 51.5l-.4-1.2"/><path d="M191.1 50.3h.1v.1l-.1-.1z"/><path class="st0" d="M191.1 50.3l-.5-.9"/><path d="M190.6 49.4h.1v.1l-.1-.1z"/><path class="st0" d="M190.6 49.4l-.3-.6"/><path d="M190.3 48.8h.1v.1l-.1-.1z"/><path class="st0" d="M188.7 48.8l.4-.3"/><path d="M189.1 48.5h.1v.1l-.1-.1z"/><path class="st0" d="M188.4 49.4l.3-.6"/><path d="M188.7 48.8h.1v.1l-.1-.1zm-.8 1.5h.1v.1l-.1-.1z"/><path class="st0" d="M186.8 54.2l.4-1.5"/><path d="M187.2 52.7h.1v.1l-.1-.1z"/><path class="st0" d="M186.4 56l.4-1.8"/><path d="M186.8 54.2h.1v.1l-.1-.1z"/><path class="st0" d="M186 60.1l.2-2.1"/><path d="M186.2 58h.1v.1l-.1-.1zm-.5 4.4h.1v.1l-.1-.1z"/><path class="st0" d="M185.5 64.8l.2-2.4"/><path d="M185.7 62.4h.1v.1l-.1-.1zm-.5 4.9h.1v.1l-.1-.1z"/><path class="st0" d="M185.1 70l.1-2.7"/><path d="M185.2 67.3h.1v.1l-.1-.1zm-.2 5.4h.1v.1l-.1-.1z"/><path class="st0" d="M184.9 75.6l.1-2.9"/><path d="M185 72.7h.1v.1l-.1-.1z"/><path class="st0" d="M184.8 81.2l.1-2.1"/><path d="M184.9 79.1h.1v.1l-.1-.1z"/><path class="st0" d="M184.9 82.7l-.1-1.5"/><path d="M184.8 81.2h.1v.1l-.1-.1zm.1 5.8h.1v.1l-.1-.1z"/><path class="st0" d="M185 89.8l-.1-2.8"/><path d="M184.9 87h.1v.1l-.1-.1z"/><path class="st0" d="M185.2 95.2l-.1-2.7"/><path d="M185.1 92.5h.1v.1l-.1-.1z"/><path class="st0" d="M185.7 100.1l-.2-2.4"/><path d="M185.5 97.7h.1v.1l-.1-.1z"/><path class="st0" d="M186.2 104.5l-.2-2.1"/><path d="M186 102.4h.1v.1l-.1-.1z"/><path class="st0" d="M186.8 108.2l-.4-1.8"/><path d="M186.4 106.4h.1v.1l-.1-.1z"/><path class="st0" d="M187.2 109.8l-.4-1.6"/><path d="M186.8 108.2h.1v.1l-.1-.1z"/><path class="st0" d="M188.4 113l-.5-.8"/><path d="M187.9 112.2h.1v.1l-.1-.1z"/><path class="st0" d="M188.7 113.6l-.3-.6"/><path d="M188.4 113h.1v.1l-.1-.1z"/><path class="st0" d="M189.1 114l-.4-.4"/><path d="M188.7 113.6h.1v.1l-.1-.1z"/><path class="st0" d="M189.1 114l.5.2"/><path d="M189.6 114.2h.1v.1l-.1-.1z"/><path class="st0" d="M190.6 113l.5-.8"/><path d="M191.1 112.2h.1v.1l-.1-.1z"/><path class="st0" d="M191.1 112.2l.4-1.1"/><path d="M191.5 111.1h.1v.1l-.1-.1z"/><path d="M191.5 111.1h.1v.1l-.1-.1z"/><path class="st0" d="M192.2 108.2l.4-1.8"/><path d="M192.6 106.4h.1v.1l-.1-.1z"/><path class="st0" d="M192.6 106.4l.2-1.9"/><path d="M192.8 104.5h.1v.1l-.1-.1z"/><path class="st0" d="M193 102.4l.3-2.3"/><path d="M193.3 100.1h.1v.1l-.1-.1z"/><path class="st0" d="M193.5 97.7l.3-2.5"/><path d="M193.8 95.2h.1v.1l-.1-.1z"/><path class="st0" d="M193.9 92.5l.1-2.7"/><path d="M194 89.8h.1v.1l-.1-.1z"/><path class="st0" d="M194.1 87v-2.2"/><path d="M194.1 84.8h.1v.1l-.1-.1z"/><path class="st0" d="M194.2 82.7v-1.5"/><path d="M194.2 81.2h.1v.1l-.1-.1z"/><path class="st0" d="M118.9 57.7H246"/><path d="M246 57.7h.1v.1l-.1-.1z"/><path class="st0" d="M118.9 396.5h65.9"/><path d="M184.8 396.5h.1v.1h-.1v-.1z"/><path class="st0" d="M184.8 396.5v-42.3"/><path d="M184.8 354.2h.1v.1h-.1v-.1z"/><path class="st0" d="M184.8 354.2H246"/><path d="M246 354.2h.1v.1h-.1v-.1z"/><path class="st0" d="M100 377.8h5.1"/><path d="M105.1 377.8l.1.1h-.1v-.1z"/><path class="st0" d="M110.1 377.8h5.1"/><path d="M115.2 377.8l.1.1h-.1v-.1z"/><path class="st0" d="M100 442.2v-5"/><path d="M100 437.2l.1.1h-.1v-.1z"/><path class="st0" d="M100 432.1v-5"/><path d="M100 427.1l.1.1h-.1v-.1z"/><path class="st0" d="M100 422v-5"/><path d="M100 417l.1.1h-.1v-.1z"/><path class="st0" d="M100 412v-5.1"/><path d="M100 406.9l.1.1h-.1v-.1z"/><path class="st0" d="M100 401.9v-5.1"/><path d="M100 396.8l.1.1h-.1v-.1z"/><path class="st0" d="M100 391.8v-5"/><path d="M100 386.8l.1.1h-.1v-.1z"/><path class="st0" d="M100 381.7v-3.9"/><path d="M100 377.8l.1.1h-.1v-.1z"/><path class="st0" d="M100 443.6h1.5"/><path d="M101.5 443.6l.1.1h-.1v-.1z"/><path class="st0" d="M106.5 443.6h5.1"/><path d="M111.6 443.6l.1.1h-.1v-.1z"/><path class="st0" d="M116.6 443.6h2.3"/><path d="M118.9 443.6l.1.1h-.1v-.1z"/><path class="st0" d="M203.6 377.8l-.1-.4"/><path d="M203.5 377.4h.1v.1h-.1v-.1z"/><path class="st0" d="M203.5 377.4l-.1-.5"/><path d="M203.4 376.9h.1v.1h-.1v-.1z"/><path class="st0" d="M203.4 376.9l-.3-.3"/><path d="M203.1 376.6h.1v.1h-.1v-.1z"/><path class="st0" d="M201.1 375l.6.4"/><path d="M201.7 375.4h.1v.1h-.1v-.1z"/><path class="st0" d="M200.2 374.8l.9.2"/><path d="M201.1 375h.1v.1h-.1v-.1zm-1.6-.6h.1v.1h-.1v-.1z"/><path class="st0" d="M196.5 373.7l1.1.2"/><path d="M197.6 373.9h.1v.1h-.1v-.1z"/><path class="st0" d="M195.4 373.4l1.1.3"/><path d="M196.5 373.7h.1v.1h-.1v-.1z"/><path class="st0" d="M194.4 373.3l1 .1"/><path d="M195.4 373.4h.1v.1h-.1v-.1zm-2.2-.2h.1v.1h-.1v-.1z"/><path class="st0" d="M189.6 373l1.2.1"/><path d="M190.8 373.1h.1v.1h-.1v-.1z"/><path class="st0" d="M188.2 373.1l1.4-.1"/><path d="M189.6 373h.1v.1h-.1v-.1z"/><path class="st0" d="M187 373.1h1.2"/><path d="M188.2 373.1h.1v.1h-.1v-.1zm-2.4.1h.1v.1h-.1v-.1z"/><path class="st0" d="M182.5 373.7l1.1-.3"/><path d="M183.6 373.4h.1v.1h-.1v-.1z"/><path class="st0" d="M181.4 373.9l1.1-.2"/><path d="M182.5 373.7h.1v.1h-.1v-.1z"/><path class="st0" d="M180.4 374.2l1-.3"/><path d="M181.4 373.9h.1v.1h-.1v-.1zm-1.9.5h.1v.1h-.1v-.1z"/><path class="st0" d="M176.7 375.7l.6-.3"/><path d="M177.3 375.4h.1v.1h-.1v-.1z"/><path class="st0" d="M176.2 376.1l.5-.4"/><path d="M176.7 375.7h.1v.1h-.1v-.1z"/><path class="st0" d="M175.9 376.6l.3-.5"/><path d="M176.2 376.1h.1v.1h-.1v-.1z"/><path class="st0" d="M175.5 378.1l-.1-.3"/><path d="M175.4 377.8h.1v.1h-.1v-.1z"/><path class="st0" d="M175.6 378.5l-.1-.4"/><path d="M175.5 378.1h.1v.1h-.1v-.1z"/><path class="st0" d="M175.9 378.8l-.3-.3"/><path d="M175.6 378.5h.1v.1h-.1v-.1z"/><path class="st0" d="M177.3 380l.6.4"/><path d="M177.9 380.4h.1v.1h-.1v-.1z"/><path class="st0" d="M177.9 380.4l.9.4"/><path d="M178.8 380.8h.1v.1h-.1v-.1z"/><path d="M178.8 380.8h.1v.1h-.1v-.1z"/><path class="st0" d="M181.4 381.5l1.1.2"/><path d="M182.5 381.7h.1v.1h-.1v-.1z"/><path class="st0" d="M182.5 381.7l1.1.3"/><path d="M183.6 382h.1v.1h-.1v-.1z"/><path class="st0" d="M183.6 382l1.2.1"/><path d="M184.8 382.1h.1v.1h-.1v-.1z"/><path d="M184.8 382.1h.1v.1h-.1v-.1z"/><path class="st0" d="M188.2 382.3l1.4.1"/><path d="M189.6 382.4h.1v.1h-.1v-.1z"/><path class="st0" d="M189.6 382.4l1.2-.1"/><path d="M190.8 382.3h.1v.1h-.1v-.1z"/><path class="st0" d="M190.8 382.3h1.2"/><path d="M192 382.3h.1v.1h-.1v-.1z"/><path d="M192 382.3h.1v.1h-.1v-.1z"/><path class="st0" d="M195.4 382l1.1-.3"/><path d="M196.5 381.7h.1v.1h-.1v-.1z"/><path class="st0" d="M196.5 381.7l1.1-.2"/><path d="M197.6 381.5h.1v.1h-.1v-.1z"/><path class="st0" d="M197.6 381.5l1-.3"/><path d="M198.6 381.2h.1v.1h-.1v-.1z"/><path d="M198.6 381.2h.1v.1h-.1v-.1z"/><path class="st0" d="M201.7 380l.6-.3"/><path d="M202.3 379.7h.1v.1h-.1v-.1z"/><path class="st0" d="M202.3 379.7l.5-.4"/><path d="M202.8 379.3h.1v.1h-.1v-.1z"/><path class="st0" d="M202.8 379.3l.3-.5"/><path d="M203.1 378.8h.1v.1h-.1v-.1z"/><path class="st0" d="M6 330.6v-5"/><path d="M6 325.6l.1.1H6v-.1z"/><path class="st0" d="M6 320.5v-5"/><path d="M6 315.5l.1.1H6v-.1z"/><path class="st0" d="M6 310.4v-5"/><path d="M6 305.4l.1.1H6v-.1z"/><path class="st0" d="M6 300.4v-2.7"/><path d="M6 297.7l.1.1H6v-.1z"/><path class="st0" d="M6 330.6h2.8"/><path d="M8.8 330.6h.1v.1h-.1v-.1z"/><path class="st0" d="M13.9 330.6h5"/><path d="M18.9 330.6h.1v.1h-.1v-.1z"/><path class="st0" d="M24 330.6h5"/><path d="M29 330.6h.1v.1H29v-.1z"/><path class="st0" d="M34 330.6h5.1"/><path d="M39.1 330.6l.1.1h-.1v-.1z"/><path class="st0" d="M44.1 330.6h5.1"/><path d="M49.2 330.6l.1.1h-.1v-.1z"/><path class="st0" d="M54.2 330.6h5"/><path d="M59.2 330.6l.1.1h-.1v-.1z"/><path class="st0" d="M64.3 330.6h5"/><path d="M69.3 330.6l.1.1h-.1v-.1z"/><path class="st0" d="M74.4 330.6h5"/><path d="M79.4 330.6l.1.1h-.1v-.1z"/><path class="st0" d="M84.4 330.6h5.1"/><path d="M89.5 330.6l.1.1h-.1v-.1z"/><path class="st0" d="M94.5 330.6h5.1"/><path d="M99.6 330.6l.1.1h-.1v-.1z"/><path class="st0" d="M104.6 330.6h5"/><path d="M109.6 330.6l.1.1h-.1v-.1z"/><path class="st0" d="M114.7 330.6h4.2"/><path d="M118.9 330.6l.1.1h-.1v-.1z"/><path class="st0" d="M118.9 330.6v-1.4"/><path d="M118.9 329.2l.1.1h-.1v-.1z"/><path class="st0" d="M118.9 324.1v-5"/><path d="M118.9 319.1l.1.1h-.1v-.1z"/><path class="st0" d="M118.9 314v-5"/><path d="M118.9 309l.1.1h-.1v-.1z"/><path class="st0" d="M118.9 304v-5.1"/><path d="M118.9 298.9l.1.1h-.1v-.1z"/><path class="st0" d="M10.3 297.7h5"/><path d="M15.3 297.7h.1v.1h-.1v-.1z"/><path class="st0" d="M20.4 297.7h5"/><path d="M25.4 297.7h.1v.1h-.1v-.1z"/><path class="st0" d="M30.4 297.7h5.1"/><path d="M35.5 297.7l.1.1h-.1v-.1z"/><path class="st0" d="M40.5 297.7h5.1"/><path d="M45.6 297.7l.1.1h-.1v-.1z"/><path class="st0" d="M50.6 297.7h5"/><path d="M55.6 297.7l.1.1h-.1v-.1z"/><path class="st0" d="M60.7 297.7h5"/><path d="M65.7 297.7l.1.1h-.1v-.1z"/><path class="st0" d="M70.8 297.7h5"/><path d="M75.8 297.7l.1.1h-.1v-.1z"/><path class="st0" d="M80.8 297.7h5.1"/><path d="M85.9 297.7l.1.1h-.1v-.1z"/><path class="st0" d="M90.9 297.7H96"/><path d="M96 297.7l.1.1H96v-.1z"/><path class="st0" d="M101 297.7h5"/><path d="M106 297.7l.1.1h-.1v-.1z"/><path class="st0" d="M111.1 297.7h5"/><path d="M116.1 297.7l.1.1h-.1v-.1z"/><path class="st0" d="M241.3 382.4v-5"/><path d="M241.3 377.4h.1v.1h-.1v-.1z"/><path class="st0" d="M241.3 372.4v-5.1"/><path d="M241.3 367.3h.1v.1h-.1v-.1z"/><path class="st0" d="M241.3 362.3v-5.1"/><path d="M241.3 357.2h.1v.1h-.1v-.1z"/><path class="st0" d="M241.3 352.2v-5"/><path d="M241.3 347.2h.1v.1h-.1v-.1z"/><path class="st0" d="M241.3 342.1v-5"/><path d="M241.3 337.1h.1v.1h-.1v-.1z"/><path class="st0" d="M241.3 332v-5"/><path d="M241.3 327h.1v.1h-.1v-.1z"/><path class="st0" d="M241.3 322v-5.1"/><path d="M241.3 316.9h.1v.1h-.1v-.1z"/><path class="st0" d="M241.3 311.9v-5.1"/><path d="M241.3 306.8h.1v.1h-.1v-.1z"/><path class="st0" d="M241.3 301.8v-5"/><path d="M241.3 296.8h.1v.1h-.1v-.1z"/><path class="st0" d="M241.3 291.7v-5"/><path d="M241.3 286.7h.1v.1h-.1v-.1z"/><path class="st0" d="M241.3 281.6v-5"/><path d="M241.3 276.6h.1v.1h-.1v-.1z"/><path class="st0" d="M241.3 271.6v-5.1"/><path d="M241.3 266.5h.1v.1h-.1v-.1z"/><path class="st0" d="M241.3 261.5v-5.1"/><path d="M241.3 256.4h.1v.1h-.1v-.1z"/><path class="st0" d="M241.3 251.4v-5"/><path d="M241.3 246.4h.1v.1h-.1v-.1z"/><path class="st0" d="M241.3 241.3v-5"/><path d="M241.3 236.3h.1v.1h-.1v-.1z"/><path class="st0" d="M241.3 231.2v-5"/><path d="M241.3 226.2h.1v.1h-.1v-.1z"/><path class="st0" d="M241.3 221.2v-5.1"/><path d="M241.3 216.1h.1v.1h-.1v-.1z"/><path class="st0" d="M241.3 211.1V206"/><path d="M241.3 206h.1v.1h-.1v-.1z"/><path class="st0" d="M244.2 382.4h5"/><path d="M249.2 382.4h.1v.1h-.1v-.1z"/><path class="st0" d="M254.2 382.4h5.1"/><path d="M259.3 382.4h.1v.1h-.1v-.1z"/><path class="st0" d="M264.3 382.4h5.1"/><path d="M269.4 382.4h.1v.1h-.1v-.1z"/><path class="st0" d="M274.4 382.4h5"/><path d="M279.4 382.4h.1v.1h-.1v-.1z"/><path class="st0" d="M284.5 382.4h5"/><path d="M289.5 382.4h.1v.1h-.1v-.1z"/><path class="st0" d="M294.6 382.4h5"/><path d="M299.6 382.4h.1v.1h-.1v-.1z"/><path class="st0" d="M304.6 382.4h5.1"/><path d="M309.7 382.4h.1v.1h-.1v-.1z"/><path class="st0" d="M314.7 382.4h5.1"/><path d="M319.8 382.4h.1v.1h-.1v-.1z"/><path class="st0" d="M324.8 382.4h5"/><path d="M329.8 382.4h.1v.1h-.1v-.1z"/><path class="st0" d="M334.9 382.4h5"/><path d="M339.9 382.4h.1v.1h-.1v-.1z"/><path class="st0" d="M345 382.4h5"/><path d="M350 382.4h.1v.1h-.1v-.1z"/><path class="st0" d="M355 382.4h5.1"/><path d="M360.1 382.4h.1v.1h-.1v-.1z"/><path class="st0" d="M365.1 382.4h5.1"/><path d="M370.2 382.4h.1v.1h-.1v-.1z"/><path class="st0" d="M375.2 382.4h5"/><path d="M380.2 382.4h.1v.1h-.1v-.1z"/><path class="st0" d="M385.3 382.4h5"/><path d="M390.3 382.4h.1v.1h-.1v-.1z"/><path class="st0" d="M395.4 382.4h5"/><path d="M400.4 382.4h.1v.1h-.1v-.1z"/><path class="st0" d="M405.4 382.4h5.1"/><path d="M410.5 382.4h.1v.1h-.1v-.1z"/><path class="st0" d="M415.4 382.4v-5.7"/><path d="M415.4 376.7h.1v.1h-.1v-.1z"/><path class="st0" d="M415.4 371.6v-5"/><path d="M415.4 366.6h.1v.1h-.1v-.1z"/><path class="st0" d="M415.4 361.6v-5.1"/><path d="M415.4 356.5h.1v.1h-.1v-.1z"/><path class="st0" d="M415.4 351.5v-5.1"/><path d="M415.4 346.4h.1v.1h-.1v-.1z"/><path class="st0" d="M415.4 341.4v-5"/><path d="M415.4 336.4h.1v.1h-.1v-.1z"/><path class="st0" d="M415.4 331.3v-5"/><path d="M415.4 326.3h.1v.1h-.1v-.1z"/><path class="st0" d="M415.4 321.2v-5"/><path d="M415.4 316.2h.1v.1h-.1v-.1z"/><path class="st0" d="M415.4 311.2v-5.1"/><path d="M415.4 306.1h.1v.1h-.1v-.1z"/><path class="st0" d="M415.4 301.1V296"/><path d="M415.4 296h.1v.1h-.1v-.1z"/><path class="st0" d="M415.4 291v-5"/><path d="M415.4 286h.1v.1h-.1v-.1z"/><path class="st0" d="M415.4 280.9v-5"/><path d="M415.4 275.9h.1v.1h-.1v-.1z"/><path class="st0" d="M415.4 270.8v-5"/><path d="M415.4 265.8h.1v.1h-.1v-.1z"/><path class="st0" d="M415.4 260.8v-5.1"/><path d="M415.4 255.7h.1v.1h-.1v-.1z"/><path class="st0" d="M415.4 250.7v-5.1"/><path d="M415.4 245.6h.1v.1h-.1v-.1z"/><path class="st0" d="M415.4 240.6v-5"/><path d="M415.4 235.6h.1v.1h-.1v-.1z"/><path class="st0" d="M415.4 230.5v-5"/><path d="M415.4 225.5h.1v.1h-.1v-.1z"/><path class="st0" d="M415.4 220.4v-5"/><path d="M415.4 215.4h.1v.1h-.1v-.1z"/><path class="st0" d="M415.4 210.4v-5.1"/><path d="M415.4 205.3h.1v.1h-.1v-.1z"/><path class="st0" d="M244.9 203.6h5"/><path d="M249.9 203.6h.1v.1h-.1v-.1z"/><path class="st0" d="M255 203.6h5"/><path d="M260 203.6h.1v.1h-.1v-.1z"/><path class="st0" d="M265 203.6h5.1"/><path d="M270.1 203.6h.1v.1h-.1v-.1z"/><path class="st0" d="M275.1 203.6h5.1"/><path d="M280.2 203.6h.1v.1h-.1v-.1z"/><path class="st0" d="M285.2 203.6h5"/><path d="M290.2 203.6h.1v.1h-.1v-.1z"/><path class="st0" d="M295.3 203.6h5"/><path d="M300.3 203.6h.1v.1h-.1v-.1z"/><path class="st0" d="M305.4 203.6h5"/><path d="M310.4 203.6h.1v.1h-.1v-.1z"/><path class="st0" d="M315.4 203.6h5.1"/><path d="M320.5 203.6h.1v.1h-.1v-.1z"/><path class="st0" d="M325.5 203.6h5.1"/><path d="M330.6 203.6h.1v.1h-.1v-.1z"/><path class="st0" d="M335.6 203.6h5"/><path d="M340.6 203.6h.1v.1h-.1v-.1z"/><path class="st0" d="M345.7 203.6h5"/><path d="M350.7 203.6h.1v.1h-.1v-.1z"/><path class="st0" d="M355.8 203.6h5"/><path d="M360.8 203.6h.1v.1h-.1v-.1z"/><path class="st0" d="M365.8 203.6h5.1"/><path d="M370.9 203.6h.1v.1h-.1v-.1z"/><path class="st0" d="M375.9 203.6h5.1"/><path d="M381 203.6h.1v.1h-.1v-.1z"/><path class="st0" d="M386 203.6h5"/><path d="M391 203.6h.1v.1h-.1v-.1z"/><path class="st0" d="M396.1 203.6h5"/><path d="M401.1 203.6h.1v.1h-.1v-.1z"/><path class="st0" d="M406.2 203.6h5"/><path d="M411.2 203.6h.1v.1h-.1v-.1z"/><path class="st0" d="M118.9 43.6H100m0 0v65.8m0 0v4.8m0 0h18.9M6 448.3v-5"/><path d="M6 443.3l.1.1H6v-.1z"/><path class="st0" d="M6 438.2v-5"/><path d="M6 433.2l.1.1H6v-.1z"/><path class="st0" d="M6 428.2v-5.1"/><path d="M6 423.1l.1.1H6v-.1z"/><path class="st0" d="M6 418.1V413"/><path d="M6 413l.1.1H6v-.1z"/><path class="st0" d="M6 408v-5"/><path d="M6 403l.1.1H6v-.1z"/><path class="st0" d="M6 397.9v-5"/><path d="M6 392.9l.1.1H6v-.1z"/><path class="st0" d="M6 387.8v-5"/><path d="M6 382.8l.1.1H6v-.1z"/><path class="st0" d="M6 377.8V373"/><path d="M6 373l.1.1H6v-.1zm0 75.3l.1.1H6v-.1z"/><path class="st0" d="M11.7 448.3h5.1"/><path d="M16.8 448.3h.1v.1h-.1v-.1z"/><path class="st0" d="M21.8 448.3h5"/><path d="M26.8 448.3h.1v.1h-.1v-.1z"/><path class="st0" d="M31.9 448.3h5"/><path d="M36.9 448.3l.1.1h-.1v-.1z"/><path class="st0" d="M42 448.3h5"/><path d="M47 448.3l.1.1H47v-.1z"/><path class="st0" d="M52 448.3h5.1"/><path d="M57.1 448.3l.1.1h-.1v-.1z"/><path class="st0" d="M62.1 448.3h5.1"/><path d="M67.2 448.3l.1.1h-.1v-.1z"/><path class="st0" d="M72.2 448.3h5"/><path d="M77.2 448.3l.1.1h-.1v-.1z"/><path class="st0" d="M82.3 448.3h5"/><path d="M87.3 448.3l.1.1h-.1v-.1z"/><path class="st0" d="M92.4 448.3h5"/><path d="M97.4 448.3l.1.1h-.1v-.1z"/><path class="st0" d="M102.4 448.3h5.1"/><path d="M107.5 448.3l.1.1h-.1v-.1z"/><path class="st0" d="M112.5 448.3h5.1"/><path d="M117.6 448.3l.1.1h-.1v-.1z"/><path class="st0" d="M118.9 444v-5"/><path d="M118.9 439l.1.1h-.1v-.1z"/><path class="st0" d="M118.9 433.9v-5"/><path d="M118.9 428.9l.1.1h-.1v-.1z"/><path class="st0" d="M118.9 423.8v-5"/><path d="M118.9 418.8l.1.1h-.1v-.1z"/><path class="st0" d="M118.9 413.8v-5.1"/><path d="M118.9 408.7l.1.1h-.1v-.1z"/><path class="st0" d="M118.9 403.7v-5.1"/><path d="M118.9 398.6l.1.1h-.1v-.1z"/><path class="st0" d="M118.9 393.6v-5"/><path d="M118.9 388.6l.1.1h-.1v-.1z"/><path class="st0" d="M118.9 383.5v-5"/><path d="M118.9 378.5l.1.1h-.1v-.1z"/><path class="st0" d="M6 373h5"/><path d="M11 373h.1v.1H11v-.1z"/><path class="st0" d="M16 373h5.1"/><path d="M21.1 373h.1v.1h-.1v-.1z"/><path class="st0" d="M26.1 373h5.1"/><path d="M31.2 373h.1v.1h-.1v-.1z"/><path class="st0" d="M36.2 373h5"/><path d="M41.2 373l.1.1h-.1v-.1z"/><path class="st0" d="M46.3 373h5"/><path d="M51.3 373l.1.1h-.1v-.1z"/><path class="st0" d="M56.4 373h5"/><path d="M61.4 373l.1.1h-.1v-.1z"/><path class="st0" d="M66.4 373h5.1"/><path d="M71.5 373l.1.1h-.1v-.1z"/><path class="st0" d="M76.5 373h5.1"/><path d="M81.6 373l.1.1h-.1v-.1z"/><path class="st0" d="M86.6 373h5"/><path d="M91.6 373l.1.1h-.1v-.1z"/><path class="st0" d="M96.7 373h5"/><path d="M101.7 373l.1.1h-.1v-.1z"/><path class="st0" d="M106.8 373h5"/><path d="M111.8 373l.1.1h-.1v-.1z"/><path class="st0" d="M116.8 373h2.1"/><path d="M118.9 373l.1.1h-.1v-.1z"/><path class="st0" d="M6 151.8v33"/><path d="M6 184.8l.1.1H6v-.1z"/><path class="st0" d="M6 184.8h112.9"/><path d="M118.9 184.8l.1.1h-.1v-.1z"/><path class="st0" d="M118.9 184.8v-33"/><path d="M118.9 151.8l.1.1h-.1v-.1z"/><path class="st0" d="M118.9 151.8H6"/><path d="M6 151.8l.1.1H6v-.1z"/><path class="st0" d="M203.6 213l-.1-.4"/><path d="M203.5 212.6h.1v.1h-.1v-.1z"/><path class="st0" d="M203.5 212.6l-.1-.4"/><path d="M203.4 212.2h.1v.1h-.1v-.1z"/><path class="st0" d="M203.4 212.2l-.3-.4"/><path d="M203.1 211.8h.1v.1h-.1v-.1z"/><path class="st0" d="M201.1 210.4l.6.3"/><path d="M201.7 210.7h.1v.1h-.1v-.1z"/><path class="st0" d="M200.2 210l.9.4"/><path d="M201.1 210.4h.1v.1h-.1v-.1zm-1.6-.6h.1v.1h-.1v-.1z"/><path class="st0" d="M196.5 208.9l1.1.3"/><path d="M197.6 209.2h.1v.1h-.1v-.1z"/><path class="st0" d="M195.4 208.8l1.1.1"/><path d="M196.5 208.9h.1v.1h-.1v-.1z"/><path class="st0" d="M194.4 208.7l1 .1"/><path d="M195.4 208.8h.1v.1h-.1v-.1zm-2.2-.4h.1v.1h-.1v-.1z"/><path class="st0" d="M189.6 208.3h1.2"/><path d="M190.8 208.3h.1v.1h-.1v-.1z"/><path class="st0" d="M188.2 208.3h1.4"/><path d="M189.6 208.3h.1v.1h-.1v-.1z"/><path class="st0" d="M187 208.4l1.2-.1"/><path d="M188.2 208.3h.1v.1h-.1v-.1zm-2.4.1h.1v.1h-.1v-.1z"/><path class="st0" d="M182.5 208.9l1.1-.1"/><path d="M183.6 208.8h.1v.1h-.1v-.1z"/><path class="st0" d="M181.4 209.2l1.1-.3"/><path d="M182.5 208.9h.1v.1h-.1v-.1z"/><path class="st0" d="M180.4 209.4l1-.2"/><path d="M181.4 209.2h.1v.1h-.1v-.1zm-1.9.6h.1v.1h-.1v-.1z"/><path class="st0" d="M176.7 211.1l.6-.4"/><path d="M177.3 210.7h.1v.1h-.1v-.1z"/><path class="st0" d="M176.2 211.4l.5-.3"/><path d="M176.7 211.1h.1v.1h-.1v-.1z"/><path class="st0" d="M175.9 211.8l.3-.4"/><path d="M176.2 211.4h.1v.1h-.1v-.1z"/><path class="st0" d="M175.5 213.4l-.1-.4"/><path d="M175.4 213h.1v.1h-.1v-.1z"/><path class="st0" d="M175.6 213.8l-.1-.4"/><path d="M175.5 213.4h.1v.1h-.1v-.1z"/><path class="st0" d="M175.9 214.2l-.3-.4"/><path d="M175.6 213.8h.1v.1h-.1v-.1z"/><path class="st0" d="M177.3 215.4l.6.2"/><path d="M177.9 215.6h.1v.1h-.1v-.1z"/><path class="st0" d="M177.9 215.6l.9.4"/><path d="M178.8 216h.1v.1h-.1v-.1z"/><path d="M178.8 216h.1v.1h-.1v-.1z"/><path class="st0" d="M181.4 216.8l1.1.3"/><path d="M182.5 217.1h.1v.1h-.1v-.1z"/><path class="st0" d="M182.5 217.1l1.1.1"/><path d="M183.6 217.2h.1v.1h-.1v-.1z"/><path class="st0" d="M183.6 217.2l1.2.2"/><path d="M184.8 217.4h.1v.1h-.1v-.1z"/><path d="M184.8 217.4h.1v.1h-.1v-.1z"/><path class="st0" d="M188.2 217.7h1.4"/><path d="M189.6 217.7h.1v.1h-.1v-.1z"/><path class="st0" d="M189.6 217.7h1.2"/><path d="M190.8 217.7h.1v.1h-.1v-.1z"/><path class="st0" d="M190.8 217.7h1.2"/><path d="M192 217.7h.1v.1h-.1v-.1z"/><path d="M192 217.7h.1v.1h-.1v-.1z"/><path class="st0" d="M195.4 217.2l1.1-.1"/><path d="M196.5 217.1h.1v.1h-.1v-.1z"/><path class="st0" d="M196.5 217.1l1.1-.3"/><path d="M197.6 216.8h.1v.1h-.1v-.1z"/><path class="st0" d="M197.6 216.8l1-.2"/><path d="M198.6 216.6h.1v.1h-.1v-.1z"/><path d="M198.6 216.6h.1v.1h-.1v-.1z"/><path class="st0" d="M201.7 215.4l.6-.4"/><path d="M202.3 215h.1v.1h-.1v-.1z"/><path class="st0" d="M202.3 215l.5-.4"/><path d="M202.8 214.6h.1v.1h-.1v-.1z"/><path class="st0" d="M202.8 214.6l.3-.4"/><path d="M203.1 214.2h.1v.1h-.1v-.1z"/><path class="st0" d="M246 180.1h-51.8"/><path d="M194.2 180.1h.1v.1h-.1v-.1z"/><path class="st0" d="M194.2 180.1v70.6"/><path d="M194.2 250.7h.1v.1h-.1v-.1z"/><path class="st0" d="M194.2 250.7H246"/><path d="M246 250.7h.1v.1h-.1v-.1z"/><path class="st0" d="M547.2 307.1v28.3"/><path d="M547.2 335.4l.1.1h-.1v-.1z"/><path class="st0" d="M547.2 335.4H580"/><path d="M580 335.4l.1.1h-.1v-.1z"/><path class="st0" d="M580 335.4v-28.3"/><path d="M580 307.1l.1.1h-.1v-.1z"/><path class="st0" d="M580 307.1h-32.8"/><path d="M547.2 307.1l.1.1h-.1v-.1z"/><path class="st0" d="M547.2 335.4l32.8-28.3"/><path d="M580 307.1l.1.1h-.1v-.1z"/><path class="st0" d="M547.2 406v28.2"/><path d="M547.2 434.2l.1.1h-.1v-.1z"/><path class="st0" d="M547.2 434.2H580"/><path d="M580 434.2l.1.1h-.1v-.1z"/><path class="st0" d="M580 434.2V406"/><path d="M580 406l.1.1h-.1v-.1z"/><path class="st0" d="M580 406h-32.8"/><path d="M547.2 406l.1.1h-.1v-.1z"/><path class="st0" d="M547.2 434.2L580 406"/><path d="M580 406l.1.1h-.1v-.1z"/><path class="st0" d="M547.2 114.2v28.2"/><path d="M547.2 142.4l.1.1h-.1v-.1z"/><path class="st0" d="M547.2 142.4H580"/><path d="M580 142.4l.1.1h-.1v-.1z"/><path class="st0" d="M580 142.4v-28.2m0 0h-32.8m0 28.2l32.8-28.2M405.9 133h141.3"/><path d="M547.2 133l.1.1h-.1v-.1z"/><path class="st0" d="M405.9 123.6h141.3M117.1 57.7h2.1m2.2 0h2.2m2.1 0h2.2m2.1 0h2.2"/><path d="M132.2 57.7h.1v.1l-.1-.1z"/><path class="st0" d="M134.4 57.7h2.1"/><path d="M136.5 57.7h.1v.1l-.1-.1z"/><path class="st0" d="M138.7 57.7h2.1"/><path d="M140.8 57.7h.1v.1l-.1-.1z"/><path class="st0" d="M143 57.7h2.2"/><path d="M145.2 57.7h.1v.1l-.1-.1z"/><path class="st0" d="M147.3 57.7h2.2"/><path d="M149.5 57.7h.1v.1l-.1-.1z"/><path class="st0" d="M151.6 57.7h2.2"/><path d="M153.8 57.7h.1v.1l-.1-.1z"/><path class="st0" d="M156 57.7h2.1"/><path d="M158.1 57.7h.1v.1l-.1-.1z"/><path class="st0" d="M160.3 57.7h2.1"/><path d="M162.4 57.7h.1v.1l-.1-.1z"/><path class="st0" d="M164.6 57.7h2.2"/><path d="M166.8 57.7h.1v.1l-.1-.1z"/><path class="st0" d="M168.9 57.7h2.2"/><path d="M171.1 57.7h.1v.1l-.1-.1z"/><path class="st0" d="M173.2 57.7h2.2"/><path d="M175.4 57.7h.1v.1l-.1-.1z"/><path class="st0" d="M177.6 57.7h2.1"/><path d="M179.7 57.7h.1v.1l-.1-.1z"/><path class="st0" d="M181.9 57.7h2.1"/><path d="M184 57.7h.1v.1l-.1-.1z"/><path class="st0" d="M186.2 57.7h2.2"/><path d="M188.4 57.7h.1v.1l-.1-.1z"/><path class="st0" d="M190.5 57.7h2.2"/><path d="M192.7 57.7h.1v.1l-.1-.1z"/><path class="st0" d="M194.8 57.7h2.2"/><path d="M197 57.7h.1v.1l-.1-.1z"/><path class="st0" d="M199.2 57.7h2.1"/><path d="M201.3 57.7h.1v.1l-.1-.1z"/><path class="st0" d="M203.5 57.7h2.1"/><path d="M205.6 57.7h.1v.1l-.1-.1z"/><path class="st0" d="M207.8 57.7h2.2"/><path d="M210 57.7h.1v.1l-.1-.1z"/><path class="st0" d="M212.1 57.7h2.2"/><path d="M214.3 57.7h.1v.1l-.1-.1z"/><path class="st0" d="M216.4 57.7h2.2"/><path d="M218.6 57.7h.1v.1l-.1-.1z"/><path class="st0" d="M220.8 57.7h2.1"/><path d="M222.9 57.7h.1v.1l-.1-.1z"/><path class="st0" d="M225.1 57.7h2.1"/><path d="M227.2 57.7h.1v.1l-.1-.1z"/><path class="st0" d="M229.4 57.7h2.2"/><path d="M231.6 57.7h.1v.1l-.1-.1z"/><path class="st0" d="M233.7 57.7h2.2"/><path d="M235.9 57.7h.1v.1l-.1-.1z"/><path class="st0" d="M117.1 67.1h133.5"/><path d="M250.6 67.1h.1v.1l-.1-.1z"/><path class="st0" d="M117.1 76.6h133.5"/><path d="M250.6 76.6h.1v.1l-.1-.1z"/><path class="st0" d="M117.1 85.9h133.5"/><path d="M250.6 85.9h.1v.1l-.1-.1z"/><path class="st0" d="M117.1 95.4h133.5"/><path d="M250.6 95.4h.1v.1l-.1-.1z"/><path class="st0" d="M117.1 104.8h133.5"/><path d="M250.6 104.8h.1v.1l-.1-.1z"/><circle class="st0" cx="118.9" cy="48.4" r="1.6"/><path class="st0" d="M120 48.4c0-.6-.5-1.1-1.1-1.1s-1.1.5-1.1 1.1c0 .5.5 1.1 1.1 1.1s1.1-.7 1.1-1.1z"/><circle class="st0" cx="118.9" cy="48.4" r=".6"/><path class="st0" d="M118.9 48.4h2.1m2.2 0h2.2m2.1 0h2.2"/><path d="M129.7 48.4h.1v.1l-.1-.1z"/><path class="st0" d="M131.8 48.4h2.2"/><path d="M134 48.4h.1v.1l-.1-.1z"/><path class="st0" d="M136.2 48.4h2.1"/><path d="M138.3 48.4h.1v.1l-.1-.1z"/><path class="st0" d="M140.5 48.4h2.1"/><path d="M142.6 48.4h.1v.1l-.1-.1z"/><path class="st0" d="M144.8 48.4h2.2"/><path d="M147 48.4h.1v.1l-.1-.1z"/><path class="st0" d="M149.1 48.4h2.2"/><path d="M151.3 48.4h.1v.1l-.1-.1z"/><path class="st0" d="M153.4 48.4h2.2"/><path d="M155.6 48.4h.1v.1l-.1-.1z"/><path class="st0" d="M157.8 48.4h2.1"/><path d="M159.9 48.4h.1v.1l-.1-.1z"/><path class="st0" d="M162.1 48.4h2.1"/><path d="M164.2 48.4h.1v.1l-.1-.1z"/><path class="st0" d="M166.4 48.4h2.2"/><path d="M168.6 48.4h.1v.1l-.1-.1z"/><path class="st0" d="M170.7 48.4h2.2"/><path d="M172.9 48.4h.1v.1l-.1-.1z"/><path class="st0" d="M175 48.4h2.2"/><path d="M177.2 48.4h.1v.1l-.1-.1z"/><path class="st0" d="M179.4 48.4h2.1"/><path d="M181.5 48.4h.1v.1l-.1-.1z"/><path class="st0" d="M183.7 48.4h2.1"/><path d="M185.8 48.4h.1v.1l-.1-.1z"/><path class="st0" d="M188 48.4h2.2"/><path d="M190.2 48.4h.1v.1l-.1-.1z"/><path class="st0" d="M192.3 48.4h2.2"/><path d="M194.5 48.4h.1v.1l-.1-.1z"/><path class="st0" d="M196.6 48.4h2.2"/><path d="M198.8 48.4h.1v.1l-.1-.1z"/><path class="st0" d="M201 48.4h2.1"/><path d="M203.1 48.4h.1v.1l-.1-.1z"/><path class="st0" d="M205.3 48.4h2.1"/><path d="M207.4 48.4h.1v.1l-.1-.1z"/><path class="st0" d="M209.6 48.4h2.2"/><path d="M211.8 48.4h.1v.1l-.1-.1z"/><path class="st0" d="M213.9 48.4h2.2"/><path d="M216.1 48.4h.1v.1l-.1-.1z"/><path class="st0" d="M218.2 48.4h2.2"/><path d="M220.4 48.4h.1v.1l-.1-.1z"/><path class="st0" d="M222.6 48.4h2.1"/><path d="M224.7 48.4h.1v.1l-.1-.1z"/><path class="st0" d="M226.9 48.4h2.1"/><path d="M229 48.4h.1v.1l-.1-.1z"/><path class="st0" d="M231.2 48.4h2.2"/><path d="M233.4 48.4h.1v.1l-.1-.1z"/><path class="st0" d="M235.5 48.4h1.1"/><path d="M236.6 48.4h.1v.1l-.1-.1z"/><path class="st0" d="M250.6 104.8H326"/><path d="M326 104.8h.1v.1l-.1-.1z"/><path class="st0" d="M326 104.8v65.8"/><path d="M326 170.6h.1v.1h-.1v-.1z"/><path class="st0" d="M109.5 161.3h28.2"/><path d="M137.7 161.3h.1v.1h-.1v-.1z"/><path class="st0" d="M137.7 161.3V133"/><path d="M137.7 133h.1v.1h-.1v-.1z"/><path class="st0" d="M137.7 133h112.9"/><path d="M250.6 133h.1v.1h-.1v-.1z"/><path class="st0" d="M109.5 170.6h37.7"/><path d="M147.2 170.6h.1v.1h-.1v-.1z"/><path class="st0" d="M147.2 170.6v-28.2"/><path d="M147.2 142.4h.1v.1h-.1v-.1z"/><path class="st0" d="M147.2 142.4h103.4"/><path d="M250.6 142.4h.1v.1h-.1v-.1z"/><path class="st0" d="M250.6 170.6h-65.8"/><path d="M184.8 170.6h.1v.1h-.1v-.1z"/><path class="st0" d="M250.6 67.1h155.3"/><path d="M405.9 67.1h.1v.1l-.1-.1z"/><path class="st0" d="M250.6 76.6h155.3"/><path d="M405.9 76.6h.1v.1l-.1-.1z"/><path class="st0" d="M326 170.6h79.9"/><path d="M405.9 170.6h.1v.1h-.1v-.1z"/><path class="st0" d="M405.9 325.9h141.3"/><path d="M547.2 325.9l.1.1h-.1v-.1z"/><path class="st0" d="M405.9 316.6h141.3"/><path d="M547.2 316.6l.1.1h-.1v-.1z"/><path class="st0" d="M250.6 297.7h5.1"/><path d="M255.7 297.7h.1v.1h-.1v-.1z"/><path class="st0" d="M260.7 297.7h5.1"/><path d="M265.8 297.7h.1v.1h-.1v-.1z"/><path class="st0" d="M269.8 297.7h5"/><path d="M274.8 297.7h.1v.1h-.1v-.1z"/><path class="st0" d="M279.9 297.7h5"/><path d="M284.9 297.7h.1v.1h-.1v-.1z"/><path class="st0" d="M290 297.7h5"/><path d="M295 297.7h.1v.1h-.1v-.1z"/><path class="st0" d="M300 297.7h5.1"/><path d="M305.1 297.7h.1v.1h-.1v-.1z"/><path class="st0" d="M310.1 297.7h5.1"/><path d="M315.2 297.7h.1v.1h-.1v-.1z"/><path class="st0" d="M320.2 297.7h4.8"/><path d="M325 297.7h.1v.1h-.1v-.1z"/><path class="st0" d="M325 363.6v-5"/><path d="M325 358.6h.1v.1h-.1v-.1z"/><path class="st0" d="M325 353.5v-5"/><path d="M325 348.5h.1v.1h-.1v-.1z"/><path class="st0" d="M325 343.4v-5"/><path d="M325 338.4h.1v.1h-.1v-.1z"/><path class="st0" d="M325 333.4v-5.1"/><path d="M325 328.3h.1v.1h-.1v-.1z"/><path class="st0" d="M325 323.3v-5.1"/><path d="M325 318.2h.1v.1h-.1v-.1z"/><path class="st0" d="M325 313.2v-5"/><path d="M325 308.2h.1v.1h-.1v-.1z"/><path class="st0" d="M325 303.1v-5.4"/><path d="M325 297.7h.1v.1h-.1v-.1z"/><path class="st0" d="M250.6 260h5.1"/><path d="M255.7 260h.1v.1h-.1v-.1z"/><path class="st0" d="M260.7 260h5.1"/><path d="M265.8 260h.1v.1h-.1v-.1z"/><path class="st0" d="M269.8 260h5"/><path d="M274.8 260h.1v.1h-.1v-.1z"/><path class="st0" d="M279.9 260h5"/><path d="M284.9 260h.1v.1h-.1v-.1z"/><path class="st0" d="M290 260h5"/><path d="M295 260h.1v.1h-.1v-.1z"/><path class="st0" d="M300 260h5.1"/><path d="M305.1 260h.1v.1h-.1v-.1z"/><path class="st0" d="M310.1 260h5.1"/><path d="M315.2 260h.1v.1h-.1v-.1z"/><path class="st0" d="M320.2 260h5"/><path d="M325.2 260h.1v.1h-.1v-.1z"/><path class="st0" d="M330.3 260h5"/><path d="M335.3 260h.1v.1h-.1v-.1z"/><path class="st0" d="M340.4 260h5"/><path d="M345.4 260h.1v.1h-.1v-.1z"/><path class="st0" d="M350.4 260h5.1"/><path d="M355.5 260h.1v.1h-.1v-.1z"/><path class="st0" d="M360.5 260h5.1"/><path d="M365.6 260h.1v.1h-.1v-.1z"/><path class="st0" d="M370.6 260h5"/><path d="M375.6 260h.1v.1h-.1v-.1z"/><path class="st0" d="M380.7 260h5"/><path d="M385.7 260h.1v.1h-.1v-.1z"/><path class="st0" d="M391.8 260h5"/><path d="M396.8 260h.1v.1h-.1v-.1z"/><path class="st0" d="M401.8 260h4.1"/><path d="M405.9 260h.1v.1h-.1v-.1z"/><path class="st0" d="M250.6 269.5h5.1"/><path d="M255.7 269.5h.1v.1h-.1v-.1z"/><path class="st0" d="M260.7 269.5h5.1"/><path d="M265.8 269.5h.1v.1h-.1v-.1z"/><path class="st0" d="M269.8 269.5h5"/><path d="M274.8 269.5h.1v.1h-.1v-.1z"/><path class="st0" d="M279.9 269.5h5"/><path d="M284.9 269.5h.1v.1h-.1v-.1z"/><path class="st0" d="M290 269.5h5"/><path d="M295 269.5h.1v.1h-.1v-.1z"/><path class="st0" d="M300 269.5h5.1"/><path d="M305.1 269.5h.1v.1h-.1v-.1z"/><path class="st0" d="M310.1 269.5h5.1"/><path d="M315.2 269.5h.1v.1h-.1v-.1z"/><path class="st0" d="M320.2 269.5h5"/><path d="M325.2 269.5h.1v.1h-.1v-.1z"/><path class="st0" d="M330.3 269.5h5"/><path d="M335.3 269.5h.1v.1h-.1v-.1z"/><path class="st0" d="M340.4 269.5h5"/><path d="M345.4 269.5h.1v.1h-.1v-.1z"/><path class="st0" d="M350.4 269.5h5.1"/><path d="M355.5 269.5h.1v.1h-.1v-.1z"/><path class="st0" d="M360.5 269.5h5.1"/><path d="M365.6 269.5h.1v.1h-.1v-.1z"/><path class="st0" d="M370.6 269.5h5"/><path d="M375.6 269.5h.1v.1h-.1v-.1z"/><path class="st0" d="M380.7 269.5h5"/><path d="M385.7 269.5h.1v.1h-.1v-.1z"/><path class="st0" d="M391.8 269.5h5"/><path d="M396.8 269.5h.1v.1h-.1v-.1z"/><path class="st0" d="M401.8 269.5h4.1"/><path d="M405.9 269.5h.1v.1h-.1v-.1z"/><path class="st0" d="M325 363.6h5"/><path d="M330 363.6h.1v.1h-.1v-.1z"/><path class="st0" d="M335.1 363.6h5"/><path d="M340.1 363.6h.1v.1h-.1v-.1z"/><path class="st0" d="M345.2 363.6h5"/><path d="M350.2 363.6h.1v.1h-.1v-.1z"/><path class="st0" d="M355.2 363.6h5.1"/><path d="M360.3 363.6h.1v.1h-.1v-.1z"/><path class="st0" d="M365.3 363.6h5.1"/><path d="M370.4 363.6h.1v.1h-.1v-.1z"/><path class="st0" d="M375.4 363.6h5"/><path d="M380.4 363.6h.1v.1h-.1v-.1z"/><path class="st0" d="M385.5 363.6h5"/><path d="M391.5 363.6h.1v.1h-.1v-.1z"/><path class="st0" d="M396.6 363.6h5"/><path d="M401.6 363.6h.1v.1h-.1v-.1z"/><path class="st0" d="M184.8 170.6v108.3"/><path d="M184.8 278.9h.1v.1h-.1v-.1z"/><path class="st0" d="M184.8 278.9h65.8"/><path d="M250.6 278.9h.1v.1h-.1v-.1z"/><path class="st0" d="M231.8 180.1h2.2"/><path d="M234 180.1h.1v.1h-.1v-.1z"/><path class="st0" d="M236.1 180.1h2.2"/><path d="M238.3 180.1h.1v.1h-.1v-.1z"/><path class="st0" d="M240.4 180.1h2.2"/><path d="M242.6 180.1h.1v.1h-.1v-.1z"/><path class="st0" d="M244.8 180.1h2.1"/><path d="M246.9 180.1h.1v.1h-.1v-.1z"/><path class="st0" d="M249.1 180.1h1.5"/><path d="M250.6 180.1h.1v.1h-.1v-.1z"/><path class="st0" d="M194.2 250.7v-2.2"/><path d="M194.2 248.5h.1v.1h-.1v-.1z"/><path class="st0" d="M194.2 246.4v-2.2"/><path d="M194.2 244.2h.1v.1h-.1v-.1z"/><path class="st0" d="M194.2 242v-2.1"/><path d="M194.2 239.9h.1v.1h-.1v-.1z"/><path class="st0" d="M194.2 237.7v-2.1"/><path d="M194.2 235.6h.1v.1h-.1v-.1z"/><path class="st0" d="M194.2 233.4v-2.2"/><path d="M194.2 231.2h.1v.1h-.1v-.1z"/><path class="st0" d="M194.2 229.1v-2.2"/><path d="M194.2 226.9h.1v.1h-.1v-.1z"/><path class="st0" d="M194.2 224.8v-2.2"/><path d="M194.2 222.6h.1v.1h-.1v-.1z"/><path class="st0" d="M194.2 220.4v-2.1"/><path d="M194.2 218.3h.1v.1h-.1v-.1z"/><path class="st0" d="M194.2 216.1V214"/><path d="M194.2 214h.1v.1h-.1v-.1z"/><path class="st0" d="M194.2 211.8v-2.2"/><path d="M194.2 209.6h.1v.1h-.1v-.1z"/><path class="st0" d="M194.2 207.5v-2.2"/><path d="M194.2 205.3h.1v.1h-.1v-.1z"/><path class="st0" d="M194.2 203.2V201"/><path d="M194.2 201h.1v.1h-.1v-.1z"/><path class="st0" d="M194.2 198.8v-2.1"/><path d="M194.2 196.7h.1v.1h-.1v-.1z"/><path class="st0" d="M194.2 194.5v-2.1"/><path d="M194.2 192.4h.1v.1h-.1v-.1z"/><path class="st0" d="M194.2 190.2V188"/><path d="M194.2 188h.1v.1h-.1v-.1z"/><path class="st0" d="M194.2 185.9v-2.2"/><path d="M194.2 183.7h.1v.1h-.1v-.1z"/><path class="st0" d="M194.2 181.6v-1.5"/><path d="M194.2 180.1h.1v.1h-.1v-.1z"/><path class="st0" d="M194.2 250.7h2.2"/><path d="M196.4 250.7h.1v.1h-.1v-.1z"/><path class="st0" d="M198.6 250.7h2.1"/><path d="M200.7 250.7h.1v.1h-.1v-.1z"/><path class="st0" d="M202.9 250.7h2.1"/><path d="M205 250.7h.1v.1h-.1v-.1z"/><path class="st0" d="M207.2 250.7h2.2"/><path d="M209.4 250.7h.1v.1h-.1v-.1z"/><path class="st0" d="M211.5 250.7h2.2"/><path d="M213.7 250.7h.1v.1h-.1v-.1z"/><path class="st0" d="M215.8 250.7h2.2"/><path d="M218 250.7h.1v.1h-.1v-.1z"/><path class="st0" d="M220.2 250.7h2.1"/><path d="M222.3 250.7h.1v.1h-.1v-.1z"/><path class="st0" d="M224.5 250.7h2.1"/><path d="M226.6 250.7h.1v.1h-.1v-.1z"/><path class="st0" d="M228.8 250.7h2.2"/><path d="M231 250.7h.1v.1h-.1v-.1z"/><path class="st0" d="M434.2 151.8h-28.3"/><path d="M405.9 151.8h.1v.1h-.1v-.1z"/><path class="st0" d="M434.2 151.8V166"/><path d="M434.2 166h.1v.1h-.1v-.1z"/><path class="st0" d="M434.2 166h-28.3"/><path d="M405.9 166h.1v.1h-.1v-.1z"/><path class="st0" d="M405.9 166v4.6"/><path d="M405.9 170.6h.1v.1h-.1v-.1z"/><path class="st0" d="M250.6 95.4h155.3"/><path d="M405.9 95.4h.1v.1l-.1-.1z"/><path class="st0" d="M250.6 288.4h5.1"/><path d="M255.7 288.4h.1v.1h-.1v-.1z"/><path class="st0" d="M260.7 288.4h5.1"/><path d="M265.8 288.4h.1v.1h-.1v-.1z"/><path class="st0" d="M269.8 288.4h5"/><path d="M274.8 288.4h.1v.1h-.1v-.1z"/><path class="st0" d="M279.9 288.4h5"/><path d="M284.9 288.4h.1v.1h-.1v-.1z"/><path class="st0" d="M290 288.4h5"/><path d="M295 288.4h.1v.1h-.1v-.1z"/><path class="st0" d="M300 288.4h5.1"/><path d="M305.1 288.4h.1v.1h-.1v-.1z"/><path class="st0" d="M310.1 288.4h5.1"/><path d="M315.2 288.4h.1v.1h-.1v-.1z"/><path class="st0" d="M320.2 288.4h5"/><path d="M325.2 288.4h.1v.1h-.1v-.1z"/><path class="st0" d="M330.3 288.4h5"/><path d="M335.3 288.4h.1v.1h-.1v-.1z"/><path class="st0" d="M340.4 288.4h5"/><path d="M345.4 288.4h.1v.1h-.1v-.1z"/><path class="st0" d="M350.4 288.4h5.1"/><path d="M355.5 288.4h.1v.1h-.1v-.1z"/><path class="st0" d="M360.5 288.4h5.1"/><path d="M365.6 288.4h.1v.1h-.1v-.1z"/><path class="st0" d="M370.6 288.4h5"/><path d="M375.6 288.4h.1v.1h-.1v-.1z"/><path class="st0" d="M380.7 288.4h5"/><path d="M385.7 288.4h.1v.1h-.1v-.1z"/><path class="st0" d="M391.8 288.4h5"/><path d="M396.8 288.4h.1v.1h-.1v-.1z"/><path class="st0" d="M401.8 288.4h4.1"/><path d="M405.9 288.4h.1v.1h-.1v-.1z"/><path class="st0" d="M236.6 57.7h2.2"/><path d="M238.8 57.7h.1v.1l-.1-.1z"/><path class="st0" d="M240.9 57.7h2.2"/><path d="M243.1 57.7h.1v.1l-.1-.1z"/><path class="st0" d="M245.2 57.7h2.2"/><path d="M247.4 57.7h.1v.1l-.1-.1z"/><path class="st0" d="M249.6 57.7h1"/><path d="M250.6 57.7h.1v.1l-.1-.1z"/><path class="st0" d="M236.6 54v-2.2"/><path d="M236.6 51.8h.1v.1l-.1-.1z"/><path class="st0" d="M236.6 49.7v-1.3"/><path d="M236.6 48.4h.1v.1l-.1-.1z"/><path class="st0" d="M236.6 54l3.7 3.7"/><path d="M240.3 57.7h.1v.1l-.1-.1z"/><path class="st0" d="M194.2 180.1h2.2"/><path d="M196.4 180.1h.1v.1h-.1v-.1z"/><path class="st0" d="M198.6 180.1h2.1"/><path d="M200.7 180.1h.1v.1h-.1v-.1z"/><path class="st0" d="M202.9 180.1h2.1"/><path d="M205 180.1h.1v.1h-.1v-.1z"/><path class="st0" d="M207.2 180.1h2.2"/><path d="M209.4 180.1h.1v.1h-.1v-.1z"/><path class="st0" d="M211.5 180.1h2.2"/><path d="M213.7 180.1h.1v.1h-.1v-.1z"/><path class="st0" d="M215.8 180.1h2.2"/><path d="M218 180.1h.1v.1h-.1v-.1z"/><path class="st0" d="M220.2 180.1h2.1"/><path d="M222.3 180.1h.1v.1h-.1v-.1z"/><path class="st0" d="M224.5 180.1h2.1"/><path d="M226.6 180.1h.1v.1h-.1v-.1z"/><path class="st0" d="M228.8 180.1h2.2"/><path d="M231 180.1h.1v.1h-.1v-.1z"/><path class="st0" d="M235.6 180.1l-3.8 3.7"/><path d="M231.8 183.8h.1v.1h-.1v-.1z"/><path class="st0" d="M231.8 189.5v-2.2"/><path d="M231.8 187.3h.1v.1h-.1v-.1z"/><path class="st0" d="M231.8 185.2v-1.4"/><path d="M231.8 183.8h.1v.1h-.1v-.1z"/><path class="st0" d="M203.6 189.5h2.2"/><path d="M205.8 189.5h.1v.1h-.1v-.1z"/><path class="st0" d="M207.9 189.5h2.2"/><path d="M210.1 189.5h.1v.1h-.1v-.1z"/><path class="st0" d="M212.2 189.5h2.2"/><path d="M214.4 189.5h.1v.1h-.1v-.1z"/><path class="st0" d="M216.6 189.5h2.1"/><path d="M218.7 189.5h.1v.1h-.1v-.1z"/><path class="st0" d="M220.9 189.5h2.1"/><path d="M223 189.5h.1v.1h-.1v-.1z"/><path class="st0" d="M225.2 189.5h2.2"/><path d="M227.4 189.5h.1v.1h-.1v-.1z"/><path class="st0" d="M229.5 189.5h2.3"/><path d="M231.8 189.5h.1v.1h-.1v-.1z"/><path class="st0" d="M203.6 241.2V239"/><path d="M203.6 239h.1v.1h-.1v-.1z"/><path class="st0" d="M203.6 236.9v-2.2"/><path d="M203.6 234.7h.1v.1h-.1v-.1z"/><path class="st0" d="M203.6 232.6v-2.2"/><path d="M203.6 230.4h.1v.1h-.1v-.1z"/><path class="st0" d="M203.6 228.2v-2.1"/><path d="M203.6 226.1h.1v.1h-.1v-.1z"/><path class="st0" d="M203.6 223.9v-2.1"/><path d="M203.6 221.8h.1v.1h-.1v-.1z"/><path class="st0" d="M203.6 219.6v-2.2"/><path d="M203.6 217.4h.1v.1h-.1v-.1z"/><path class="st0" d="M203.6 215.3v-2.2"/><path d="M203.6 213.1h.1v.1h-.1v-.1z"/><path class="st0" d="M203.6 211v-2.2"/><path d="M203.6 208.8h.1v.1h-.1v-.1z"/><path class="st0" d="M203.6 206.6v-2.1"/><path d="M203.6 204.5h.1v.1h-.1v-.1z"/><path class="st0" d="M203.6 202.3v-2.1"/><path d="M203.6 200.2h.1v.1h-.1v-.1z"/><path class="st0" d="M203.6 198v-2.2"/><path d="M203.6 195.8h.1v.1h-.1v-.1z"/><path class="st0" d="M203.6 193.7v-2.2"/><path d="M203.6 191.5h.1v.1h-.1v-.1z"/><path class="st0" d="M203.6 241.2h2.2"/><path d="M205.8 241.2h.1v.1h-.1v-.1z"/><path class="st0" d="M207.9 241.2h2.2"/><path d="M210.1 241.2h.1v.1h-.1v-.1z"/><path class="st0" d="M212.2 241.2h2.2"/><path d="M214.4 241.2h.1v.1h-.1v-.1z"/><path class="st0" d="M216.6 241.2h2.1"/><path d="M218.7 241.2h.1v.1h-.1v-.1z"/><path class="st0" d="M220.9 241.2h2.1"/><path d="M223 241.2h.1v.1h-.1v-.1z"/><path class="st0" d="M225.2 241.2h2.2"/><path d="M227.4 241.2h.1v.1h-.1v-.1z"/><path class="st0" d="M229.5 241.2h2.3"/><path d="M231.8 241.2h.1v.1h-.1v-.1z"/><path class="st0" d="M231.8 250.7h2.2"/><path d="M234 250.7h.1v.1h-.1v-.1z"/><path class="st0" d="M236.1 250.7h2.2"/><path d="M238.3 250.7h.1v.1h-.1v-.1z"/><path class="st0" d="M240.4 250.7h2.2"/><path d="M242.6 250.7h.1v.1h-.1v-.1z"/><path class="st0" d="M244.8 250.7h2.1"/><path d="M246.9 250.7h.1v.1h-.1v-.1z"/><path class="st0" d="M249.1 250.7h1.5"/><path d="M250.6 250.7h.1v.1h-.1v-.1z"/><path class="st0" d="M231.8 246.8v-2.1"/><path d="M231.8 244.7h.1v.1h-.1v-.1z"/><path class="st0" d="M231.8 242.5v-1.3"/><path d="M231.8 241.2h.1v.1h-.1v-.1z"/><path class="st0" d="M231.8 246.8l3.8 3.9"/><path d="M235.6 250.7h.1v.1h-.1v-.1z"/><path class="st0" d="M117.1 396.5h2.1"/><path d="M119.2 396.5l.1.1h-.1v-.1z"/><path class="st0" d="M121.4 396.5h2.2"/><path d="M123.6 396.5l.1.1h-.1v-.1z"/><path class="st0" d="M125.7 396.5h2.7"/><path d="M128.4 396.5h.1v.1h-.1v-.1z"/><path class="st0" d="M184.8 396.5v-2.2"/><path d="M184.8 394.3h.1v.1h-.1v-.1z"/><path class="st0" d="M184.8 392.2V390"/><path d="M184.8 390h.1v.1h-.1v-.1z"/><path class="st0" d="M184.8 387.8v-2.1"/><path d="M184.8 385.7h.1v.1h-.1v-.1z"/><path class="st0" d="M184.8 383.5v-2.1"/><path d="M184.8 381.4h.1v.1h-.1v-.1z"/><path class="st0" d="M184.8 379.2V377"/><path d="M184.8 377h.1v.1h-.1v-.1z"/><path class="st0" d="M184.8 374.9v-2.2"/><path d="M184.8 372.7h.1v.1h-.1v-.1z"/><path class="st0" d="M184.8 370.6v-2.2"/><path d="M184.8 368.4h.1v.1h-.1v-.1z"/><path class="st0" d="M184.8 366.2v-2.1"/><path d="M184.8 364.1h.1v.1h-.1v-.1z"/><path class="st0" d="M184.8 361.9v-2.1"/><path d="M184.8 359.8h.1v.1h-.1v-.1z"/><path class="st0" d="M184.8 357.6v-2.2"/><path d="M184.8 355.4h.1v.1h-.1v-.1z"/><path class="st0" d="M184.8 354.2h2.1"/><path d="M186.9 354.2h.1v.1h-.1v-.1z"/><path class="st0" d="M189.1 354.2h2.1"/><path d="M191.2 354.2h.1v.1h-.1v-.1z"/><path class="st0" d="M193.4 354.2h2.2"/><path d="M195.6 354.2h.1v.1h-.1v-.1z"/><path class="st0" d="M197.7 354.2h2.2"/><path d="M199.9 354.2h.1v.1h-.1v-.1z"/><path class="st0" d="M202 354.2h2.2"/><path d="M204.2 354.2h.1v.1h-.1v-.1z"/><path class="st0" d="M206.4 354.2h2.1"/><path d="M208.5 354.2h.1v.1h-.1v-.1z"/><path class="st0" d="M210.7 354.2h2.1"/><path d="M212.8 354.2h.1v.1h-.1v-.1z"/><path class="st0" d="M215 354.2h2.2"/><path d="M217.2 354.2h.1v.1h-.1v-.1z"/><path class="st0" d="M219.3 354.2h2.2"/><path d="M221.5 354.2h.1v.1h-.1v-.1z"/><path class="st0" d="M223.6 354.2h2.2"/><path d="M225.8 354.2h.1v.1h-.1v-.1z"/><path class="st0" d="M228 354.2h2.1"/><path d="M230.1 354.2h.1v.1h-.1v-.1z"/><path class="st0" d="M117.1 406h77.1"/><path d="M194.2 406h.1v.1h-.1v-.1z"/><path class="st0" d="M194.2 406v-42.4"/><path d="M194.2 363.6h.1v.1h-.1v-.1z"/><path class="st0" d="M194.2 363.6h56.4"/><path d="M250.6 363.6h.1v.1h-.1v-.1z"/><path class="st0" d="M128.4 396.5h2.1"/><path d="M130.5 396.5h.1v.1h-.1v-.1z"/><path class="st0" d="M132.7 396.5h2.1"/><path d="M134.8 396.5h.1v.1h-.1v-.1z"/><path class="st0" d="M137 396.5h2.2"/><path d="M139.2 396.5h.1v.1h-.1v-.1z"/><path class="st0" d="M141.3 396.5h2.2"/><path d="M143.5 396.5h.1v.1h-.1v-.1z"/><path class="st0" d="M145.6 396.5h2.2"/><path d="M147.8 396.5h.1v.1h-.1v-.1z"/><path class="st0" d="M150 396.5h2.1"/><path d="M152.1 396.5h.1v.1h-.1v-.1z"/><path class="st0" d="M154.3 396.5h2.1"/><path d="M156.4 396.5h.1v.1h-.1v-.1z"/><path class="st0" d="M158.6 396.5h2.2"/><path d="M160.8 396.5h.1v.1h-.1v-.1z"/><path class="st0" d="M162.9 396.5h2.2"/><path d="M165.1 396.5h.1v.1h-.1v-.1z"/><path class="st0" d="M167.2 396.5h2.2"/><path d="M169.4 396.5h.1v.1h-.1v-.1z"/><path class="st0" d="M171.6 396.5h2.1"/><path d="M173.7 396.5h.1v.1h-.1v-.1z"/><path class="st0" d="M175.9 396.5h2.1"/><path d="M178 396.5h.1v.1h-.1v-.1z"/><path class="st0" d="M180.2 396.5h2.2"/><path d="M182.4 396.5h.1v.1h-.1v-.1z"/><path class="st0" d="M124.5 396.5l3.9-3.7"/><path d="M128.4 392.8h.1v.1h-.1v-.1z"/><path class="st0" d="M128.4 392.8v-2.2"/><path d="M128.4 390.6h.1v.1h-.1v-.1z"/><path class="st0" d="M128.4 388.4v-1.3"/><path d="M128.4 387.1h.1v.1h-.1v-.1z"/><path class="st0" d="M128.4 387.1h2.1"/><path d="M130.5 387.1h.1v.1h-.1v-.1z"/><path class="st0" d="M132.7 387.1h2.1"/><path d="M134.8 387.1h.1v.1h-.1v-.1z"/><path class="st0" d="M137 387.1h2.2"/><path d="M139.2 387.1h.1v.1h-.1v-.1z"/><path class="st0" d="M141.3 387.1h2.2"/><path d="M143.5 387.1h.1v.1h-.1v-.1z"/><path class="st0" d="M145.6 387.1h2.2"/><path d="M147.8 387.1h.1v.1h-.1v-.1z"/><path class="st0" d="M150 387.1h2.1"/><path d="M152.1 387.1h.1v.1h-.1v-.1z"/><path class="st0" d="M154.3 387.1h2.1"/><path d="M156.4 387.1h.1v.1h-.1v-.1z"/><path class="st0" d="M158.6 387.1h2.2"/><path d="M160.8 387.1h.1v.1h-.1v-.1z"/><path class="st0" d="M162.9 387.1h2.2"/><path d="M165.1 387.1h.1v.1h-.1v-.1z"/><path class="st0" d="M167.2 387.1h2.2"/><path d="M169.4 387.1h.1v.1h-.1v-.1z"/><path class="st0" d="M171.6 387.1h2.1"/><path d="M173.7 387.1h.1v.1h-.1v-.1z"/><path class="st0" d="M175.4 387.1V385"/><path d="M175.4 385h.1v.1h-.1v-.1z"/><path class="st0" d="M175.4 382.8v-2.2"/><path d="M175.4 380.6h.1v.1h-.1v-.1z"/><path class="st0" d="M175.4 378.5v-2.2"/><path d="M175.4 376.3h.1v.1h-.1v-.1z"/><path class="st0" d="M175.4 374.2V372"/><path d="M175.4 372h.1v.1h-.1v-.1z"/><path class="st0" d="M175.4 369.8v-2.1"/><path d="M175.4 367.7h.1v.1h-.1v-.1z"/><path class="st0" d="M175.4 365.5v-2.1"/><path d="M175.4 363.4h.1v.1h-.1v-.1z"/><path class="st0" d="M175.4 361.2V359"/><path d="M175.4 359h.1v.1h-.1v-.1z"/><path class="st0" d="M175.4 356.9v-2.2"/><path d="M175.4 354.7h.1v.1h-.1v-.1z"/><path class="st0" d="M175.4 352.6v-2.2"/><path d="M175.4 350.4h.1v.1h-.1v-.1z"/><path class="st0" d="M175.4 348.2v-2.1"/><path d="M175.4 346.1h.1v.1h-.1v-.1z"/><path class="st0" d="M175.4 344.8h2.2"/><path d="M177.6 344.8h.1v.1h-.1v-.1z"/><path class="st0" d="M179.7 344.8h2.2"/><path d="M181.9 344.8h.1v.1h-.1v-.1z"/><path class="st0" d="M184 344.8h2.2"/><path d="M186.2 344.8h.1v.1h-.1v-.1z"/><path class="st0" d="M188.4 344.8h2.1"/><path d="M190.5 344.8h.1v.1h-.1v-.1z"/><path class="st0" d="M192.7 344.8h2.1"/><path d="M194.8 344.8h.1v.1h-.1v-.1z"/><path class="st0" d="M197 344.8h2.2"/><path d="M199.2 344.8h.1v.1h-.1v-.1z"/><path class="st0" d="M201.3 344.8h2.2"/><path d="M203.5 344.8h.1v.1h-.1v-.1z"/><path class="st0" d="M205.6 344.8h2.2"/><path d="M207.8 344.8h.1v.1h-.1v-.1z"/><path class="st0" d="M210 344.8h2.1"/><path d="M212.1 344.8h.1v.1h-.1v-.1z"/><path class="st0" d="M214.3 344.8h2.1"/><path d="M216.4 344.8h.1v.1h-.1v-.1z"/><path class="st0" d="M218.6 344.8h2.2"/><path d="M220.8 344.8h.1v.1h-.1v-.1z"/><path class="st0" d="M222.9 344.8h2.2"/><path d="M225.1 344.8h.1v.1h-.1v-.1z"/><path class="st0" d="M227.2 344.8h2.2"/><path d="M229.4 344.8h.1v.1h-.1v-.1z"/><path class="st0" d="M231.8 354.2h2.2"/><path d="M234 354.2h.1v.1h-.1v-.1z"/><path class="st0" d="M236.1 354.2h2.2"/><path d="M238.3 354.2h.1v.1h-.1v-.1z"/><path class="st0" d="M240.4 354.2h2.2"/><path d="M242.6 354.2h.1v.1h-.1v-.1z"/><path class="st0" d="M244.8 354.2h2.1"/><path d="M246.9 354.2h.1v.1h-.1v-.1z"/><path class="st0" d="M249.1 354.2h1.5"/><path d="M250.6 354.2h.1v.1h-.1v-.1z"/><path class="st0" d="M231.8 350.4v-2.2"/><path d="M231.8 348.2h.1v.1h-.1v-.1z"/><path class="st0" d="M231.8 346.1v-1.3"/><path d="M231.8 344.8h.1v.1h-.1v-.1z"/><path class="st0" d="M231.8 350.4l3.8 3.8"/><path d="M235.6 354.2h.1v.1h-.1v-.1z"/><path class="st0" d="M109.5 307.1h5.1"/><path d="M114.6 307.1l.1.1h-.1v-.1z"/><path class="st0" d="M119.6 307.1h5"/><path d="M124.6 307.1l.1.1h-.1v-.1z"/><path class="st0" d="M129.7 307.1h5"/><path d="M134.7 307.1h.1v.1h-.1v-.1z"/><path class="st0" d="M139.8 307.1h5"/><path d="M144.8 307.1h.1v.1h-.1v-.1z"/><path class="st0" d="M149.8 307.1h5.1"/><path d="M154.9 307.1h.1v.1h-.1v-.1z"/><path class="st0" d="M159.9 307.1h5.1"/><path d="M165 307.1h.1v.1h-.1v-.1z"/><path class="st0" d="M170 307.1h5"/><path d="M175 307.1h.1v.1h-.1v-.1z"/><path class="st0" d="M180.1 307.1h5"/><path d="M185.1 307.1h.1v.1h-.1v-.1z"/><path class="st0" d="M190.2 307.1h4"/><path d="M194.2 307.1h.1v.1h-.1v-.1z"/><path class="st0" d="M194.2 325.9v-5"/><path d="M194.2 320.9h.1v.1h-.1v-.1z"/><path class="st0" d="M194.2 315.8v-5"/><path d="M194.2 310.8h.1v.1h-.1v-.1z"/><path class="st0" d="M194.2 325.9h5.1"/><path d="M199.3 325.9h.1v.1h-.1v-.1z"/><path class="st0" d="M204.3 325.9h5.1"/><path d="M209.4 325.9h.1v.1h-.1v-.1z"/><path class="st0" d="M214.4 325.9h5"/><path d="M219.4 325.9h.1v.1h-.1v-.1z"/><path class="st0" d="M224.5 325.9h5"/><path d="M229.5 325.9h.1v.1h-.1v-.1z"/><path class="st0" d="M234.6 325.9h5"/><path d="M239.6 325.9h.1v.1h-.1v-.1z"/><path class="st0" d="M244.6 325.9h5.1"/><path d="M249.7 325.9h.1v.1h-.1v-.1z"/><path class="st0" d="M109.5 316.6h5.1"/><path d="M114.6 316.6l.1.1h-.1v-.1z"/><path class="st0" d="M119.6 316.6h5"/><path d="M124.6 316.6l.1.1h-.1v-.1z"/><path class="st0" d="M129.7 316.6h5"/><path d="M134.7 316.6h.1v.1h-.1v-.1z"/><path class="st0" d="M139.8 316.6h5"/><path d="M144.8 316.6h.1v.1h-.1v-.1z"/><path class="st0" d="M149.8 316.6h5.1"/><path d="M154.9 316.6h.1v.1h-.1v-.1z"/><path class="st0" d="M159.9 316.6h5.1"/><path d="M165 316.6h.1v.1h-.1v-.1z"/><path class="st0" d="M170 316.6h5"/><path d="M175 316.6h.1v.1h-.1v-.1z"/><path class="st0" d="M180.1 316.6h4.7"/><path d="M184.8 316.6h.1v.1h-.1v-.1z"/><path class="st0" d="M184.8 335.4v-5"/><path d="M184.8 330.4h.1v.1h-.1v-.1z"/><path class="st0" d="M184.8 325.3v-5"/><path d="M184.8 320.3h.1v.1h-.1v-.1z"/><path class="st0" d="M184.8 335.4h5"/><path d="M189.8 335.4h.1v.1h-.1v-.1z"/><path class="st0" d="M194.8 335.4h5.1"/><path d="M199.9 335.4h.1v.1h-.1v-.1z"/><path class="st0" d="M204.9 335.4h5.1"/><path d="M210 335.4h.1v.1h-.1v-.1z"/><path class="st0" d="M215 335.4h5"/><path d="M220 335.4h.1v.1h-.1v-.1z"/><path class="st0" d="M225.1 335.4h5"/><path d="M230.1 335.4h.1v.1h-.1v-.1z"/><path class="st0" d="M235.2 335.4h5"/><path d="M240.2 335.4h.1v.1h-.1v-.1z"/><path class="st0" d="M245.2 335.4h5.4"/><path d="M250.6 335.4h.1v.1h-.1v-.1z"/><path class="st0" d="M117.1 415.3h430.1"/><path d="M547.2 415.3l.1.1h-.1v-.1z"/><path class="st0" d="M117.1 424.8h430.1"/><path d="M547.2 424.8l.1.1h-.1v-.1z"/><path class="st2" d="M151.9 38.9L133 109.4"/><path d="M133 109.4h.1v.1l-.1-.1z"/><path class="st2" d="M151.9 38.9h28.2"/><path d="M180.1 38.9h.1v.1l-.1-.1z"/><path class="st2" d="M424.8 151.8l14.1-9.4"/><path d="M438.9 142.4h.1v.1h-.1v-.1z"/><path class="st2" d="M104.8 255.4h70.6"/><path d="M175.4 255.4h.1v.1h-.1v-.1z"/><path class="st2" d="M175.4 255.4l37.7-28.2"/><path d="M213.1 227.2h.1v.1h-.1v-.1z"/><path class="st2" d="M123.7 368.3h32.9"/><path d="M156.6 368.3h.1v.1h-.1v-.1z"/><path class="st2" d="M156.6 368.3l14.1 42.3"/><path d="M170.7 410.6h.1v.1h-.1v-.1z"/><path class="st0" d="M240.7 10.5h174.1"/><text transform="matrix(.9355 0 0 1 10.3 46.8)" class="st3 st4">Camera</text><text transform="matrix(.9355 0 0 1 100.946 59.85)" class="st3 st5">6</text><text transform="matrix(.9355 0 0 1 100.946 69.133)" class="st3 st5">5</text><text transform="matrix(.9355 0 0 1 100.946 78.177)" class="st3 st5">2</text><text transform="matrix(.9355 0 0 1 100.946 88.463)" class="st3 st5">3</text><text transform="matrix(.8107 0 0 1 100.946 97.883)" class="st3 st5">4</text><text transform="matrix(.9355 0 0 1 100.946 107.92)" class="st3 st5">1</text><text transform="matrix(.9355 0 0 1 101.94 390.435)" class="st3 st5">1</text><text transform="matrix(.9355 0 0 1 101.94 399.719)" class="st3 st5">2</text><text transform="matrix(.9355 0 0 1 101.94 408.763)" class="st3 st5">3</text><text transform="matrix(.9355 0 0 1 101.94 419.049)" class="st3 st5">4</text><text transform="matrix(.8107 0 0 1 101.94 428.469)" class="st3 st5">5</text><text transform="matrix(.9355 0 0 1 101.94 438.507)" class="st3 st5">6</text><text transform="matrix(.9355 0 0 1 152.519 37.83)" class="st3 st5">LIYCY (TP) 3x2x 0.14 mm</text><text transform="matrix(.9355 0 0 1 214.28 56.293)" class="st3 st5">wh</text><text transform="matrix(.9355 0 0 1 215.1 74.7)" class="st3 st5">pk</text><text transform="matrix(.9355 0 0 1 214.9 65.35)" class="st3 st5">gy</text><text transform="matrix(.9355 0 0 1 215.15 83.6)" class="st3 st5">gn</text><text transform="matrix(.9355 0 0 1 215 92.8)" class="st3 st5">ye</text><text transform="matrix(.9355 0 0 1 215.865 103.147)" class="st3 st5">bn</text><text transform="matrix(.9355 0 0 1 10.3 165.282)" class="st3 st4">Light</text><text transform="matrix(.9355 0 0 1 84.987 163.1)" class="st3 st5">Light +</text><text transform="matrix(.9355 0 0 1 84.987 172.911)" class="st3 st5">Light -</text><text transform="matrix(.9355 0 0 1 281.7 24.537)" class="st3 st4">Basler Strobe Controller</text><text transform="matrix(.9355 0 0 1 245.576 46.947)" class="st3 st4">Camera</text><text transform="matrix(.9355 0 0 1 356.951 46.947)" class="st3 st4">Power &amp; I/O</text><path class="st1" d="M255.4 51.6h55.2V59h-55.2v-7.4z"/><text transform="translate(255.412 56.61)" class="st3 st5">Camera GND</text><path class="st1" d="M255.4 60.9h55.2v7.4h-55.2v-7.4z"/><text transform="translate(255.412 65.911)" class="st3 st5">Opto GND</text><path class="st1" d="M255.4 69.9h55.2v7.4h-55.2v-7.4z"/><text transform="translate(255.412 74.961)" class="st3 st5">Opto In</text><path class="st1" d="M255.4 80.5h55.2v7.4h-55.2v-7.4z"/><text transform="translate(255.412 85.511)" class="st3 st5">SLP Comm</text><path class="st1" d="M255.4 89.1h55.2v7.4h-55.2v-7.4z"/><text transform="translate(255.412 94.111)" class="st3 st5">Camera I/O2</text><path class="st1" d="M255.4 98.3h55.2v7.4h-55.2v-7.4z"/><text transform="translate(255.412 103.361)" class="st3 st5">Camera Power</text><text transform="matrix(.9355 0 0 1 244.951 123.947)" class="st3 st4">Lighting</text><path class="st1" d="M367.2 60.6h55.2V68h-55.2v-7.4z"/><text transform="translate(367.154 65.622)" class="st3 st5">Opto GND</text><path class="st1" d="M376.2 69.7h55.2v7.4h-55.2v-7.4z"/><text transform="translate(376.154 74.672)" class="st3 st5">Opto In</text><path class="st1" d="M366.5 80.2h55.2v7.4h-55.2v-7.4z"/><text transform="translate(366.5 85.211)" class="st3 st5">Opto GND</text><path class="st1" d="M359.2 89.1h55.2v7.4h-55.2v-7.4z"/><text transform="translate(359.154 94.147)" class="st3 st5">Camera I/O2</text><path class="st1" d="M382.5 100.7h27.6v7.4h-27.6v-7.4z"/><text transform="translate(382.524 105.711)" class="st3 st5">GND</text><path class="st1" d="M381.3 110.3h27.6v7.4h-27.6v-7.4z"/><text transform="translate(381.3 115.311)" class="st3 st5">GPIO</text><path class="st1" d="M362.2 120.1h55.2v7.4h-55.2v-7.4z"/><text transform="translate(362.154 125.147)" class="st3 st5">Power GND</text><path class="st1" d="M363.2 129.1h55.2v7.4h-55.2v-7.4z"/><text transform="translate(363.154 134.147)" class="st3 st5">24 V Power</text><path class="st1" d="M383.9 138.1h27.6v7.4h-27.6v-7.4z"/><text transform="translate(383.941 143.147)" class="st3 st5">GND</text><path class="st1" d="M372.2 147.4h32.3v7.4h-32.3v-7.4z"/><text transform="translate(372.212 152.38)" class="st3 st5">24 V Out</text><path class="st1" d="M384.2 156.6h27.6v7.4h-27.6v-7.4z"/><text transform="translate(384.212 161.661)" class="st3 st5">GND</text><path class="st1" d="M352.5 164.4h55.2v7.4h-55.2v-7.4z"/><text transform="translate(352.512 169.411)" class="st3 st5">Camera Power</text><text transform="matrix(.9355 0 0 1 255.412 135.148)" class="st3 st5">Light +</text><text transform="matrix(.9355 0 0 1 255.412 144.148)" class="st3 st5">Light -</text><text transform="matrix(.9355 0 0 1 255.412 153.148)" class="st3 st5">Light Data</text><path class="st1" d="M255.4 158.6H283v7.4h-27.6v-7.4z"/><text transform="translate(255.412 163.661)" class="st3 st5">GND</text><path class="st1" d="M255.4 168.1h55.2v7.4h-55.2v-7.4z"/><text transform="translate(255.412 173.112)" class="st3 st5">SLP Comm</text><path class="st1" d="M255.4 177.9H283v7.4h-27.6v-7.4z"/><text transform="translate(255.412 182.911)" class="st3 st5">GND</text><path d="M411.4 75.6l31.1 6.1m-31.1 14.2l31.1-10" fill="none" stroke="#000" stroke-width=".565" stroke-linecap="round" stroke-linejoin="round" stroke-miterlimit="10"/><path class="st1" d="M446.2 76.9h55.2v25.9h-55.2V76.9z"/><text transform="translate(446.173 81.91)" class="st3 st5">Direct acces to</text><text transform="translate(446.173 90.31)" class="st3 st5">camera I/O2</text><path class="st1" d="M422.3 117.1h55.2v7.4h-55.2v-7.4z"/><text transform="translate(422.256 122.147)" class="st3 st5">Ground</text><path class="st1" d="M422.3 127.1h55.2v7.4h-55.2v-7.4z"/><text transform="translate(422.255 132.147)" class="st3 st5">24 VDC</text><path class="st1" d="M441.3 137.4h102.3v17.3H441.3v-17.3z"/><text transform="translate(441.255 142.364)" class="st3 st5">Connect to supply power to</text><text transform="translate(441.255 150.764)" class="st3 st5">ace/ace 2 GigE</text><path class="st1" d="M452.6 168h102.3v17.3H452.6V168z"/><text transform="translate(452.612 172.963)" class="st3 st5">Use as GPIO (ace USB only)</text><path class="st0" d="M449.6 170.3h-41.4"/><path class="st1" d="M534.7 103.6H637v11.1H534.7v-11.1z"/><text transform="translate(534.683 108.641)" class="st3 st5">External power supply</text><path class="st1" d="M549.8 117.4h27.6v7.4h-27.6v-7.4z"/><text transform="translate(549.68 122.447)" class="st3 st5">VDC</text><path class="st1" d="M562.4 134.1H590v7.4h-27.6v-7.4z"/><text transform="translate(562.266 139.111)" class="st3 st5">VAC</text><text transform="matrix(.9355 0 0 1 215.865 168.535)" class="st3 st5">bn</text><text transform="matrix(.9355 0 0 1 215.865 178.536)" class="st3 st5">wh</text><text transform="matrix(.9355 0 0 1 216.195 249.536)" class="st3 st5">wh</text><text transform="matrix(.9355 0 0 1 215.738 277.536)" class="st3 st5">bn</text><path class="st1" d="M102.4 239.7h78.1v20h-78.1v-20z"/><text transform="translate(102.4 244.712)" class="st3 st5">Daisy-chain connection</text><text transform="translate(102.4 253.112)" class="st3 st5">(optional)</text><text transform="matrix(.9355 0 0 1 281.8 217.098)" class="st3 st4">Basler Strobe Controller</text><text transform="matrix(.9355 0 0 1 245.678 239.508)" class="st3 st4">Camera</text><text transform="matrix(.9355 0 0 1 357.053 239.509)" class="st3 st4">Power &amp; I/O</text><path class="st1" d="M255.5 244.2h55.2v7.4h-55.2v-7.4z"/><text transform="translate(255.513 249.171)" class="st3 st5">Camera GND</text><path class="st1" d="M255.5 253.5h55.2v7.4h-55.2v-7.4z"/><text transform="translate(255.513 258.472)" class="st3 st5">Opto GND</text><path class="st1" d="M255.5 262.5h55.2v7.4h-55.2v-7.4z"/><text transform="translate(255.513 267.522)" class="st3 st5">Opto In</text><path class="st1" d="M255.5 273.1h55.2v7.4h-55.2v-7.4z"/><text transform="translate(255.513 278.072)" class="st3 st5">SLP Comm</text><path class="st1" d="M255.5 281.7h55.2v7.4h-55.2v-7.4z"/><text transform="translate(255.513 286.672)" class="st3 st5">Camera I/O2</text><path class="st1" d="M255.5 290.9h55.2v7.4h-55.2v-7.4z"/><text transform="translate(255.513 295.922)" class="st3 st5">Camera Power</text><text transform="matrix(.9355 0 0 1 245.053 316.509)" class="st3 st4">Lighting</text><path class="st1" d="M367.3 253.2h55.2v7.4h-55.2v-7.4z"/><text transform="translate(367.255 258.183)" class="st3 st5">Opto GND</text><path class="st1" d="M376.3 262.2h55.2v7.4h-55.2v-7.4z"/><text transform="translate(376.255 267.233)" class="st3 st5">Opto In</text><path class="st1" d="M366.6 272.8h55.2v7.4h-55.2v-7.4z"/><text transform="translate(366.601 277.772)" class="st3 st5">Opto GND</text><path class="st1" d="M359.3 281.7h55.2v7.4h-55.2v-7.4z"/><text transform="translate(359.255 286.708)" class="st3 st5">Camera I/O2</text><path class="st1" d="M382.6 293.3h27.6v7.4h-27.6v-7.4z"/><text transform="translate(382.625 298.272)" class="st3 st5">GND</text><path class="st1" d="M381.4 302.9H409v7.4h-27.6v-7.4z"/><text transform="translate(381.401 307.872)" class="st3 st5">GPIO</text><path class="st1" d="M362.3 312.7h55.2v7.4h-55.2v-7.4z"/><text transform="translate(362.255 317.708)" class="st3 st5">Power GND</text><path class="st1" d="M363.3 321.7h55.2v7.4h-55.2v-7.4z"/><text transform="translate(363.255 326.708)" class="st3 st5">24 V Power</text><path class="st1" d="M384 330.7h27.6v7.4H384v-7.4z"/><text transform="translate(384.042 335.708)" class="st3 st5">GND</text><path class="st1" d="M372.3 339.9h32.3v7.4h-32.3v-7.4z"/><text transform="translate(372.313 344.94)" class="st3 st5">24 V Out</text><path class="st1" d="M384.3 349.2h27.6v7.4h-27.6v-7.4z"/><text transform="translate(384.313 354.222)" class="st3 st5">GND</text><path class="st1" d="M352.6 357h55.2v7.4h-55.2V357z"/><text transform="translate(352.613 361.972)" class="st3 st5">Camera Power</text><text transform="matrix(.9355 0 0 1 255.514 327.708)" class="st3 st5">Light +</text><text transform="matrix(.9355 0 0 1 255.514 336.708)" class="st3 st5">Light -</text><text transform="matrix(.9355 0 0 1 255.514 345.708)" class="st3 st5">Light Data</text><path class="st1" d="M255.5 351.2h27.6v7.4h-27.6v-7.4z"/><text transform="translate(255.513 356.222)" class="st3 st5">GND</text><path class="st1" d="M255.5 360.7h55.2v7.4h-55.2v-7.4z"/><text transform="translate(255.513 365.673)" class="st3 st5">SLP Comm</text><path class="st1" d="M255.5 370.5h27.6v7.4h-27.6v-7.4z"/><text transform="translate(255.513 375.472)" class="st3 st5">GND</text><path class="st1" d="M534.7 297.1H637v11.1H534.7v-11.1z"/><text transform="translate(534.683 302.075)" class="st3 st5">External power supply</text><path class="st1" d="M550.7 310.8h27.6v7.4h-27.6v-7.4z"/><text transform="translate(549.68 315.802)" class="st3 st5">VDC</text><path class="st1" d="M563.3 327.5h27.6v7.4h-27.6v-7.4z"/><text transform="translate(562.267 332.467)" class="st3 st5">VAC</text><path class="st1" d="M534.7 396.2H637v11.1H534.7v-11.1z"/><text transform="translate(534.683 401.201)" class="st3 st5">External power supply</text><path class="st1" d="M549.7 408.8h27.6v7.4h-27.6v-7.4z"/><text transform="translate(549.68 413.802)" class="st3 st5">VDC</text><path class="st1" d="M562.3 425.5h27.6v7.4h-27.6v-7.4z"/><text transform="translate(562.267 431.467)" class="st3 st5">VAC</text><path class="st1" d="M422.3 310.6h55.2v7.4h-55.2v-7.4z"/><text transform="translate(422.255 314.634)" class="st3 st5">Ground</text><path class="st1" d="M422.3 319.6h55.2v7.4h-55.2v-7.4z"/><text transform="translate(422.255 324.635)" class="st3 st5">24 VDC</text><text transform="matrix(.9355 0 0 1 10.076 310.658)" class="st3 st4">Light</text><text transform="matrix(.9355 0 0 1 84.764 308.477)" class="st3 st5">Light +</text><text transform="matrix(.9355 0 0 1 84.764 318.287)" class="st3 st5">Light -</text><path class="st1" d="M7.3 287.6h78.1v10H7.3v-10z"/><text transform="translate(7.35 293.611)" class="st3 st5">Optional</text><path class="st1" d="M7.3 364.1h78.1v10H7.3v-10z"/><text transform="translate(7.35 369.109)" class="st3 st5">Optional</text><path class="st0" d="M414.9 10.8v178.8"/><text transform="matrix(.9355 0 0 1 10.076 426.495)" class="st3 st4">Basler</text><text transform="matrix(.9355 0 0 1 10.076 438.495)" class="st3 st4">Camera Light</text><path class="st0" d="M41.3 405.8L28 392.5"/><path d="M28 392.4h.1v.1H28v-.1z"/><path class="st0" d="M41.3 392.5L28 405.8"/><path d="M28 405.7h.1v.1H28v-.1z"/><circle class="st0" cx="34.7" cy="399.2" r="9.4"/><text transform="matrix(.9355 0 0 1 215.738 353.459)" class="st3 st5">wh</text><text transform="matrix(.9355 0 0 1 215.738 362.459)" class="st3 st5">bn</text><text transform="matrix(.9355 0 0 1 135.443 394.96)" class="st3 st5">wh</text><text transform="matrix(.9355 0 0 1 135.443 403.959)" class="st3 st5">bn</text><path class="st1" d="M78.8 55.3H134v7.4H78.8v-7.4z"/><text transform="translate(78.772 60.282)" class="st3 st5">GND</text><path class="st1" d="M47.8 73.6H103V81H47.8v-7.4z"/><text transform="translate(47.772 78.632)" class="st3 st5">Opto I/O Line 1</text><path class="st1" d="M77.8 83.2H133v7.4H77.8v-7.4z"/><text transform="translate(77.772 88.182)" class="st3 st5">GPIO</text><path class="st1" d="M47.8 92.8H103v7.4H47.8v-7.4z"/><text transform="translate(47.772 97.782)" class="st3 st5">Opto I/O Line 2</text><path class="st1" d="M67.8 102H123v7.4H67.8V102z"/><text transform="translate(67.772 107.032)" class="st3 st5">Power In</text><path class="st1" d="M50.8 64.6H106V72H50.8v-7.4z"/><text transform="translate(50.772 69.657)" class="st3 st5">GND Opto I/O</text><path class="st1" d="M57.5 385h55.2v7.4H57.5V385z"/><text transform="translate(57.514 389.988)" class="st3 st5">24 VDC Out</text><path class="st1" d="M77.5 404.3h55.2v7.4H77.5v-7.4z"/><text transform="translate(77.513 409.339)" class="st3 st5">GPIO</text><path class="st1" d="M62.5 412.9h55.2v7.4H62.5v-7.4z"/><text transform="translate(62.514 417.889)" class="st3 st5">24 VDC In</text><path class="st1" d="M80.5 422.5h55.2v7.4H80.5v-7.4z"/><text transform="translate(80.513 427.489)" class="st3 st5">GND</text><path class="st1" d="M77.5 432.7h55.2v7.4H77.5v-7.4z"/><text transform="translate(77.513 437.739)" class="st3 st5">GPIO</text><path class="st1" d="M79.5 394.4h55.2v7.4H79.5v-7.4z"/><text transform="translate(79.513 399.363)" class="st3 st5">GND</text></svg>