<svg style="background-color:#fff" version="1.1" id="Layer_1" xmlns="http://www.w3.org/2000/svg" x="0" y="0" viewBox="0 0 520 435" xml:space="preserve"><style>.st0{fill-rule:evenodd;clip-rule:evenodd;fill:#1d1d1b}.st2{fill:#80ff80}.st3{fill:none;stroke:#80ff80;stroke-miterlimit:3.864}.st4{fill-rule:evenodd;clip-rule:evenodd;fill:#b3b3b3}.st5{fill:none;stroke:#b3b3b3;stroke-width:3;stroke-miterlimit:3.864;stroke-dasharray:2,2}.st6{fill-rule:evenodd;clip-rule:evenodd;fill:#80ff80}.st7,.st8{fill:none;stroke:#1d1d1b;stroke-miterlimit:3.864}.st8{stroke:#999;stroke-width:1.8}.st9{fill:#e64614}.st10{fill:none}.st11{fill:#fff}.st12{font-family:Helvetica,Arial,sans-serif}.st13{font-size:8.012px}.st15{fill:none;stroke:#000;stroke-miterlimit:10}.st16{font-size:10px}.st17{fill:#1d1d1d}.st20{enable-background:new}</style><path class="st0" d="M500.6 413.1v-3.8l9.5 3.8-9.5 3.8v-3.8z"/><path d="M80.6 413.1h420.6" fill="none" stroke="#1d1d1b" stroke-width="2.5" stroke-miterlimit="3.864"/><path class="st2" d="M235.6 371.4h28.9v9.6h-28.9v-9.6z"/><path class="st3" d="M235.6 371.4h28.9v9.6h-28.9v-9.6z"/><path class="st4" d="M266 394h4.4l-4.4 11-4.4-11h4.4z"/><path class="st5" d="M266 384.3v10.4"/><path class="st6" d="M312.5 371.4h32v9.6h-32v-9.6z"/><path class="st3" d="M312.5 371.4h32v9.6h-32v-9.6z"/><path class="st4" d="M346.3 394h4.5l-4.5 11-4.4-11h4.4z"/><path class="st5" d="M346.3 384.3v10.4"/><path class="st6" d="M351 371.4h8.4v9.6H351v-9.6z"/><path class="st3" d="M351 371.4h8.4v9.6H351v-9.6z"/><path class="st4" d="M361.2 394h4.5l-4.5 11-4.4-11h4.4z"/><path class="st5" d="M361.2 384.3v10.4"/><path class="st2" d="M389.5 371.4h28.8v9.6h-28.8v-9.6z"/><path class="st3" d="M389.5 371.4h28.8v9.6h-28.8v-9.6z"/><path class="st4" d="M419.8 394h4.5l-4.5 11-4.4-11h4.4z"/><path class="st5" d="M419.8 384.3v10.4"/><path class="st7" d="M80.1 336.2h37.7m0-14.5v14.5m4.8-14.5v14.5m-4.8-14.5h4.8m0 14.5h33.6m0-14.5v14.5m4.8-14.5v14.5m-4.8-14.5h4.8m0 14.5h33.7m0-14.5v14.5m4.8-14.5v14.5m-4.8-14.5h4.8m72.1 0v14.5m4.8-14.5v14.5m-4.8-14.5h4.8m0 14.5H310m0-14.5v14.5m4.8-14.5v14.5m-4.8-14.5h4.8m0 14.5h33.7m0-14.5v14.5m4.8-14.5v14.5m-4.8-14.5h4.8m-153.8 14.5h33.6m0-14.4v14.4m4.8-14.4v14.4m-4.8-14.4h4.8m0 14.4h33.7m81.7 0H387m0-14.4v14.4"/><path class="st8" d="M93.6 243.2v146.6"/><path class="st0" d="M117.8 342.8l2.1 4.1 2-4.1h-4.1z"/><path class="st7" d="M117.8 342.8l2.1 4.1 2-4.1h-4.1zm-4.4-6.6h4.7"/><path class="st0" d="M156.2 342.8l2.1 4.1 2.1-4.1h-4.2z"/><path class="st7" d="M156.2 342.8l2.1 4.1 2.1-4.1h-4.2z"/><path class="st9" d="M119.9 349.4h8.1v8.1h-8.1v-8.1z"/><path class="st10" d="M119.9 349.4h8.1v8.1h-8.1v-8.1z"/><path class="st10" d="M121.3 348.3h4.5v8.8h-4.5v-8.8z"/><text transform="translate(121.261 356.792)" class="st11 st12 st13">0</text><path class="st9" d="M158.3 349.4h8.1v8.1h-8.1v-8.1z"/><path class="st10" d="M158.3 349.4h8.1v8.1h-8.1v-8.1z"/><path class="st10" d="M159.7 348.3h4.5v8.8h-4.5v-8.8z"/><text transform="translate(159.707 356.792)" class="st11 st12 st13">1</text><path class="st0" d="M194.7 342.8l2.1 4.1 2-4.1h-4.1z"/><path class="st7" d="M194.7 342.8l2.1 4.1 2-4.1h-4.1z"/><path class="st9" d="M196.8 349.4h8.1v8.1h-8.1v-8.1z"/><path class="st10" d="M196.8 349.4h8.1v8.1h-8.1v-8.1z"/><path class="st10" d="M198.2 348.3h4.5v8.8h-4.5v-8.8z"/><text transform="translate(198.168 356.791)" class="st11 st12 st13">1</text><path class="st0" d="M233.1 342.8l2.1 4.2 2.1-4.2h-4.2z"/><path class="st7" d="M233.1 342.8l2.1 4.2 2.1-4.2h-4.2z"/><path class="st9" d="M235.2 349.4h8.1v8.1h-8.1v-8.1z"/><path class="st10" d="M235.2 349.4h8.1v8.1h-8.1v-8.1z"/><path class="st10" d="M236.6 348.3h4.5v8.8h-4.5v-8.8z"/><text transform="translate(236.627 356.788)" class="st11 st12 st13">1</text><path class="st0" d="M271.6 342.8l2.1 4.2 2.1-4.2h-4.2z"/><path class="st7" d="M271.6 342.8l2.1 4.2 2.1-4.2h-4.2z"/><path class="st9" d="M273.7 349.5h8.1v8.1h-8.1v-8.1z"/><path class="st10" d="M273.7 349.5h8.1v8.1h-8.1v-8.1z"/><path class="st10" d="M275.1 348.4h4.5v8.8h-4.5v-8.8z"/><text transform="translate(275.085 356.868)" class="st11 st12 st13">2</text><path class="st0" d="M310 342.8l2.1 4.1 2.1-4.1H310z"/><path class="st7" d="M310 342.8l2.1 4.1 2.1-4.1H310z"/><path class="st9" d="M312.1 349.4h8.1v8.1h-8.1v-8.1z"/><path class="st10" d="M312.1 349.4h8.1v8.1h-8.1v-8.1z"/><path class="st10" d="M313.5 348.3h4.5v8.8h-4.5v-8.8z"/><text transform="translate(313.537 356.797)" class="st11 st12 st13">3</text><path class="st0" d="M348.5 342.8l2.1 4.1 2.1-4.1h-4.2z"/><path class="st7" d="M348.5 342.8l2.1 4.1 2.1-4.1h-4.2z"/><path class="st9" d="M350.6 349.4h8.1v8.1h-8.1v-8.1z"/><path class="st10" d="M350.6 349.4h8.1v8.1h-8.1v-8.1z"/><path class="st10" d="M352 348.3h4.5v8.8H352v-8.8z"/><text transform="translate(351.996 356.797)" class="st11 st12 st13">4</text><path class="st0" d="M387 342.8l2.1 4.2 2-4.2H387z"/><path class="st7" d="M387 342.8l2.1 4.2 2-4.2H387z"/><path class="st9" d="M389.1 349.4h8.1v8.1h-8.1v-8.1z"/><path class="st10" d="M389.1 349.4h8.1v8.1h-8.1v-8.1z"/><path class="st10" d="M390.5 348.3h4.5v8.8h-4.5v-8.8z"/><text transform="translate(390.459 356.781)" class="st11 st12 st13">5</text><path class="st2" d="M427.9 371.4h28.9v9.6h-28.9v-9.6z"/><path class="st3" d="M427.9 371.4h28.9v9.6h-28.9v-9.6z"/><path class="st4" d="M458.3 394h4.4l-4.4 11-4.4-11h4.4z"/><path class="st5" d="M458.3 384.3v10.4"/><path class="st7" d="M425.4 321.7v14.4m0-14.4h4.8m-43.2.1h4.8m0 0v14.4m0 0h33.6"/><path class="st0" d="M425.4 342.8l2.1 4.2 2.1-4.2h-4.2z"/><path class="st7" d="M425.4 342.8l2.1 4.2 2.1-4.2h-4.2z"/><path class="st9" d="M427.5 349.4h8.1v8.1h-8.1v-8.1z"/><path class="st10" d="M427.5 349.4h8.1v8.1h-8.1v-8.1z"/><path class="st10" d="M428.9 348.3h4.5v8.8h-4.5v-8.8z"/><text transform="translate(428.911 356.781)" class="st11 st12 st13">5</text><path class="st2" d="M158.7 371.4h28.9v9.6h-28.9v-9.6z"/><path class="st3" d="M158.7 371.4h28.9v9.6h-28.9v-9.6z"/><path class="st4" d="M189.2 394h4.4l-4.4 11-4.4-11h4.4z"/><path class="st5" d="M189.2 384.3v10.4"/><path class="st2" d="M197.2 371.4H226v9.6h-28.8v-9.6z"/><path class="st3" d="M197.2 371.4H226v9.6h-28.8v-9.6z"/><path class="st4" d="M227.7 394h4.4l-4.4 11-4.4-11h4.4z"/><path class="st5" d="M227.7 384.3v10.4"/><path class="st6" d="M120.3 371.4h14.1v9.6h-14.1v-9.6z"/><path class="st3" d="M120.3 371.4h14.1v9.6h-14.1v-9.6z"/><path class="st4" d="M136.2 394h4.4l-4.4 11-4.4-11h4.4z"/><path class="st5" d="M136.2 384.3v10.4"/><path class="st2" d="M274.1 371.5h28.8v9.6h-28.8v-9.6z"/><path class="st3" d="M274.1 371.5h28.8v9.6h-28.8v-9.6z"/><path class="st4" d="M304.5 394h4.4l-4.4 11.1-4.4-11.1h4.4z"/><path class="st5" d="M304.5 384.4v10.4"/><path class="st6" d="M466.4 371.4h14.1v9.6h-14.1v-9.6z"/><path class="st3" d="M466.4 371.4h14.1v9.6h-14.1v-9.6z"/><path class="st4" d="M482.3 394h4.4l-4.4 11-4.4-11h4.4z"/><path class="st5" d="M482.3 384.3v10.4"/><path class="st7" d="M463.9 321.7v14.4m4.8-14.4v14.4m-4.8-14.4h4.8m0 14.4h30.6m-69.1.1h33.7"/><path class="st0" d="M463.9 342.8l2.1 4.2 2-4.2h-4.1z"/><path class="st7" d="M463.9 342.8l2.1 4.2 2-4.2h-4.1z"/><path class="st9" d="M466 349.4h8.1v8.1H466v-8.1z"/><path class="st10" d="M466 349.4h8.1v8.1H466v-8.1z"/><path class="st10" d="M467.4 348.3h4.5v8.8h-4.5v-8.8z"/><text transform="translate(467.37 356.782)" class="st11 st12 st13">0</text><path class="st7" d="M430.2 321.7v14.5M80.1 278.5h36.3m-.7 0h14.8m-.5 0h18.5m11.4 0h34.8m59.4-14.5v14.5m-.4-14.5h65.5m-124.6 14.5h59.8m77-14.4v14.4m71.5-14.4v14.4M331 264.1h72.3m32-.1v14.5m-.4-14.5h64.4m-180.4.1v14.4m83.6 0h33.1m-287.5-14.4v14.4m12.1-14.4v14.4m-12.4-14.4h12.7m158 14.4h13.2"/><path class="st0" d="M466 317.1h2l-2 3.1-2-3.1h2z"/><path d="M466 317.3v-8.5" fill="none" stroke="#1d1d1b" stroke-linejoin="round" stroke-miterlimit="3.864"/><path class="st8" d="M489.1 243.2v146.6"/><path class="st15" d="M12.5 10h313.7v106H12.5V10z"/><path class="st2" d="M22.4 60.3h30v12h-30v-12z"/><path class="st3" d="M22.4 60.3h30v12h-30v-12z"/><path class="st4" d="M37.2 92.9h5.5l-5.5 13.7-5.5-13.7h5.5z"/><path class="st5" d="M37.2 80.8v13"/><path class="st0" d="M34.6 22.7l2.6 5.2 2.6-5.2h-5.2z"/><path class="st7" d="M34.6 22.7l2.6 5.2 2.6-5.2h-5.2z"/><path class="st9" d="M32.1 39.4h10.2v10.1H32.1V39.4z"/><path class="st9" d="M32.1 39.4h10.2v10.1H32.1V39.4z"/><path class="st10" d="M34.4 38H40v11h-5.6V38z"/><text transform="translate(34.4 48.188)" class="st11 st12 st16">0</text><path class="st15" d="M12.5 127.5h313.7v67.3H12.5v-67.3z"/><text transform="translate(283.502 428.759)" class="st17" font-size="11" font-family="Helvetica,Arial,sans-serif" font-weight="700">Time</text><text transform="translate(17 330.55)" class="st20"><tspan x="0" y="0" class="st17 st12 st16">Frame Start</tspan><tspan x="0" y="12" class="st17 st12 st16">trigger signal</tspan></text><text transform="translate(17 280.55)" class="st17 st12 st16">Line1 signal</text><text transform="translate(62.3 29.04)" class="st17 st12 st16">= Camera selects a sequence set</text><text transform="translate(62.3 47.574)" class="st17 st12 st16">= Sequence set used for image acquisition (index number)</text><text transform="translate(62.3 70.706)" class="st17 st12 st16">= Frame exposure and readout</text><text transform="translate(62.3 96.766)" class="st17 st12 st16">= Frame transmission</text><text transform="translate(22.363 161.75)" class="st17 st12 st16">SequenceSetTotalNumber = 6</text><text transform="translate(22.363 173.75)" class="st17 st12 st16">SequenceControlSource (Advance) = Line1</text><text transform="translate(22.363 185.75)" class="st17 st12 st16">SequenceControlSource (Reset) = Disabled</text><text transform="translate(22.541 144.5)" class="st17 st12 st16">Settings:</text><text transform="translate(72.234 225.788)" class="st20"><tspan x="0" y="0" class="st17 st12 st16">Sequencer</tspan><tspan x="0" y="12" class="st17 st12 st16">enabled</tspan></text><text transform="translate(463.9 225.788)" class="st20"><tspan x="0" y="0" class="st17 st12 st16">Sequencer</tspan><tspan x="0" y="12" class="st17 st12 st16">disabled</tspan></text><text transform="translate(422 292.966)" class="st20"><tspan x="0" y="0" class="st17 st12 st16">Sequence set</tspan><tspan x="0" y="12" class="st17 st12 st16">cycle restarts</tspan></text></svg>