<svg style="background-color:#fff" version="1.1" id="Layer_1" xmlns="http://www.w3.org/2000/svg" x="0" y="0" viewBox="0 0 914.4 540" xml:space="preserve"><style>.st1{enable-background:new}.st2{font-family:Helvetica,Arial,sans-serif}.st3{font-size:17.032px}.st4{stroke-linejoin:round}.st4,.st5,.st6{fill:none;stroke:#000;stroke-miterlimit:3.864}.st6{stroke-width:.5}.st7{fill:#fff}.st8,.st9{fill:none;stroke:#000}.st8{stroke-width:.669;stroke-miterlimit:3.864}.st9{stroke-linejoin:round}.st14{fill-rule:evenodd;clip-rule:evenodd}.st17,.st18{fill:none;stroke:#000;stroke-miterlimit:3.864}.st17{stroke-linejoin:round;stroke-width:3.000000e-03}.st18{stroke-width:.85}.st19{font-size:17.928px}</style><path d="M195.8 108.4h189v213.4h-189V108.4z" fill="#ededee"/><text transform="translate(597.829 269.59)" class="st1"><tspan x="0" y="0" class="st2 st3">6-pin</tspan><tspan x="0" y="20.4" class="st2 st3">receptacle</tspan></text><path class="st4" d="M589.5 297.8h26.6v160.4h-26.6V297.8z"/><text transform="translate(598.462 321.696)" class="st2 st3">1</text><text transform="translate(598.462 347.086)" class="st2 st3">2</text><text transform="translate(598.462 372.475)" class="st2 st3">3</text><text transform="translate(598.462 397.866)" class="st2 st3">4</text><text transform="translate(598.462 423.252)" class="st2 st3">5</text><text transform="translate(598.462 448.643)" class="st2 st3">6</text><path class="st4" d="M521.6 441.9H589m-250.2 0h182.8m-197.8-49.5v26.2m0-7.7l15.1 15.2m-.7-57.7h252M338.8 426v15.9m-15-42.3l15.3-15.3m-174.3 21h158.9"/><path class="st5" d="M338.8 368.5v16.4"/><path d="M334.6 441.9c0-2.4 1.9-4.3 4.3-4.3s4.3 1.9 4.3 4.3-1.9 4.3-4.3 4.3-4.3-1.9-4.3-4.3z"/><path class="st6" d="M334.6 441.9c0-2.4 1.9-4.3 4.3-4.3s4.3 1.9 4.3 4.3-1.9 4.3-4.3 4.3-4.3-1.9-4.3-4.3z"/><path d="M334.6 368.5c0-2.4 1.9-4.3 4.3-4.3s4.3 1.9 4.3 4.3-1.9 4.3-4.3 4.3c-2.4-.1-4.3-2-4.3-4.3z"/><path class="st6" d="M334.6 368.5c0-2.4 1.9-4.3 4.3-4.3s4.3 1.9 4.3 4.3-1.9 4.3-4.3 4.3c-2.4-.1-4.3-2-4.3-4.3z"/><path d="M440.8 441.9c0-2.4 1.9-4.3 4.3-4.3s4.3 1.9 4.3 4.3-1.9 4.3-4.3 4.3c-2.3 0-4.3-1.9-4.3-4.3z"/><path class="st6" d="M440.8 441.9c0-2.4 1.9-4.3 4.3-4.3s4.3 1.9 4.3 4.3-1.9 4.3-4.3 4.3c-2.3 0-4.3-1.9-4.3-4.3z"/><path d="M440.9 368.4c0-2.4 1.9-4.3 4.3-4.3s4.3 1.9 4.3 4.3-1.9 4.3-4.3 4.3-4.3-1.9-4.3-4.3z"/><path class="st6" d="M440.9 368.4c0-2.4 1.9-4.3 4.3-4.3s4.3 1.9 4.3 4.3-1.9 4.3-4.3 4.3-4.3-1.9-4.3-4.3z"/><path class="st5" d="M445.1 368.9V443"/><text transform="translate(50.776 411.182)" class="st2 st3">FPGA output</text><path class="st5" d="M42.8 390.6h105.6l16.4 14.7-16.8 15.1H42.8v-29.8z"/><path class="st7" d="M241.4 413.9v-17.2h51.4v17.2h-51.4z"/><path class="st5" d="M241.4 413.9v-17.2h51.4v17.2h-51.4z"/><path class="st4" d="M250.9 153.3H340"/><path d="M334.6 153.2c0-2.4 1.9-4.3 4.3-4.3s4.3 1.9 4.3 4.3-1.9 4.3-4.3 4.3-4.3-1.9-4.3-4.3z"/><path class="st6" d="M334.6 153.2c0-2.4 1.9-4.3 4.3-4.3s4.3 1.9 4.3 4.3-1.9 4.3-4.3 4.3-4.3-1.9-4.3-4.3z"/><path class="st4" d="M265.9 206.2h72.9"/><path class="st5" d="M338.8 368.5V75.6"/><path class="st7" d="M330.3 219.2h17.2v23h-17.2v-23z"/><path class="st8" d="M330.3 219.2h17.2v23h-17.2v-23z"/><path class="st4" d="M265.9 219.3v-26.2m0 7.7l-15.4-15.4m.3.3v-32.3m15.1 58.6l-15.3 15.3"/><path class="st9" d="M250.7 227.1h-3"/><path d="M244.9 227.1h-75.5" fill="none" stroke="#000" stroke-linejoin="round" stroke-dasharray="5.6986,2.8493"/><path class="st9" d="M168 227.1h-3"/><path d="M246.5 227.1c0-2.4 1.9-4.3 4.3-4.3s4.3 1.9 4.3 4.3-1.9 4.3-4.3 4.3c-2.3 0-4.3-2-4.3-4.3z"/><path class="st6" d="M246.5 227.1c0-2.4 1.9-4.3 4.3-4.3s4.3 1.9 4.3 4.3-1.9 4.3-4.3 4.3c-2.3 0-4.3-2-4.3-4.3z"/><path d="M246.5 153.3c0-2.4 1.9-4.3 4.3-4.3s4.3 1.9 4.3 4.3-1.9 4.3-4.3 4.3c-2.4-.1-4.3-2-4.3-4.3z"/><path class="st6" d="M246.5 153.3c0-2.4 1.9-4.3 4.3-4.3s4.3 1.9 4.3 4.3-1.9 4.3-4.3 4.3c-2.4-.1-4.3-2-4.3-4.3z"/><path class="st4" d="M250.8 227.1v84.8"/><path class="st7" d="M242.4 257.2h17.1v23.1h-17.1v-23.1z"/><path class="st8" d="M242.4 257.2h17.1v23.1h-17.1v-23.1z"/><path class="st7" d="M330.3 170.5h17.2v23h-17.2v-23z"/><path class="st8" d="M330.3 170.5h17.2v23h-17.2v-23z"/><path d="M334.5 206.2c0-2.4 1.9-4.3 4.3-4.3s4.3 1.9 4.3 4.3-1.9 4.3-4.3 4.3c-2.3 0-4.3-1.9-4.3-4.3z"/><path class="st6" d="M334.5 206.2c0-2.4 1.9-4.3 4.3-4.3s4.3 1.9 4.3 4.3-1.9 4.3-4.3 4.3c-2.3 0-4.3-1.9-4.3-4.3z"/><path class="st4" d="M338.8 425.6v48"/><text transform="translate(202.202 127.018)" class="st2 st3">Pull-up resistor</text><path d="M25.6 24.6h563.9v485.7H25.6V24.6z" fill="none" stroke="#000" stroke-width=".722" stroke-linejoin="round" stroke-miterlimit="3.864" stroke-dasharray="8,4"/><text transform="translate(49.89 62.377)" font-size="21.514" font-family="Helvetica,Arial,sans-serif" font-weight="700">Camera</text><path class="st14" d="M325.8 422l9.1-9v9h-9.1z"/><path d="M325.8 422l9.1-9v9h-9.1z" fill="none"/><path class="st14" d="M260.3 186.1l-9 9.1h9v-9.1z"/><path d="M260.3 186.1l-9 9.1h9v-9.1z" fill="none" stroke="#000" stroke-width=".028" stroke-linejoin="round" stroke-miterlimit="3.864"/><path class="st14" d="M457.6 412.6h-25l12.5-14.9 12.5 14.9z"/><path class="st17" d="M457.6 412.6h-25l12.5-14.9 12.5 14.9z"/><path class="st18" d="M437.8 398.4h14.5m-.4-.3l4.4 4.4m-22.5-8.3l4.4 4.4"/><path class="st14" d="M326.4 264.9h25l-12.5 14.8-12.5-14.8z"/><path class="st17" d="M326.4 264.9h25l-12.5 14.8-12.5-14.8z"/><path class="st18" d="M344.2 276.4h2.9v3.6H331v3.7h3.1"/><path class="st4" d="M832.4 441.9H616.1"/><path class="st5" d="M832.1 502.1v-60.7"/><path class="st4" d="M840.6 503h-17m3.1 3.7h10.7m-8.4 3.6h6.1m-487.5-36.7h-17M259 311.9h-17"/><text transform="translate(94.929 221.174)" class="st1"><tspan x="0" y="0" class="st2 st19">Further</tspan><tspan x="0" y="21.5" class="st2 st19">circuitry</tspan></text><text transform="translate(307.944 46.077)" class="st1"><tspan x="0" y="0" class="st2 st3">3.3 VDC</tspan><tspan x="0" y="20.4" class="st2 st3">(typical)</tspan></text><path class="st14" d="M771.3 368.4v-5.7l15.3 5.7-15.3 5.7v-5.7z"/><path d="M772.3 368.4H616.1" fill="none" stroke="#000" stroke-width="1.001" stroke-linejoin="round" stroke-miterlimit="3.864"/><path class="st5" d="M706.4 367.8V246.6"/><path class="st7" d="M697.8 291.2h18.4v55.4h-18.4v-55.4z"/><path class="st5" d="M697.8 291.2h18.4v55.4h-18.4v-55.4z"/><path d="M702 368.5c0-2.5 2.1-4.6 4.6-4.6s4.6 2.1 4.6 4.6-2.1 4.6-4.6 4.6c-2.6 0-4.6-2.1-4.6-4.6z"/><path class="st6" d="M702 368.5c0-2.5 2.1-4.6 4.6-4.6s4.6 2.1 4.6 4.6-2.1 4.6-4.6 4.6c-2.6 0-4.6-2.1-4.6-4.6z"/><text transform="translate(792.629 352.11)" class="st1"><tspan x="0" y="0" class="st2 st3">Voltage</tspan><tspan x="0" y="20.4" class="st2 st3">output</tspan><tspan x="0" y="40.9" class="st2 st3">signal</tspan></text><path class="st4" d="M885.8 503h-17m3.2 3.7h10.7m-8.4 3.6h6"/><path class="st5" d="M706.2 256.9v-25.2h171.1v272.2"/><text transform="translate(803.434 268.54)" class="st2 st3">3.3–24</text><text transform="translate(813.834 286.74)" class="st2 st3">VDC</text><path d="M888.9 270.4c0 6.6-5.4 12-12 12s-12-5.4-12-12 5.4-12 12-12c6.6.1 12 5.4 12 12z" fill-rule="evenodd" clip-rule="evenodd" fill="#fff" stroke="#000" stroke-linejoin="round" stroke-miterlimit="3.864"/><path class="st4" d="M870.4 268.5h13.1m-13.1 3.8h13.1"/><text transform="translate(880.298 255.9)" class="st2 st19">+</text><text transform="translate(880.259 295.375)" class="st2 st19">-</text></svg>