<svg version="1.1" id="Ebene_1" xmlns="http://www.w3.org/2000/svg" x="0" y="0" viewBox="0 0 579 464" style="background-color:#fff" xml:space="preserve"><style>.st0{fill:#f6f6f6}.st1,.st2{fill:none;stroke:#1a171b;stroke-width:.6;stroke-linecap:round;stroke-linejoin:round;stroke-miterlimit:10}.st2{stroke-width:.516}.st4{font-family:Helvetica,Arial,sans-serif}.st5{font-size:10px}.st6,.st7{fill:none;stroke:#000;stroke-width:.3;stroke-linecap:round;stroke-linejoin:round}.st7{stroke-miterlimit:10}.st11{font-size:14px}</style><path class="st0" d="M72.8 158.4h477.1v168.1H312l-.9.2-.9.5-.6.8-.1 1v34.2l-1.7 1.7h-60.6l-1.5-1.6v-21.5l-.3-.9-.6-1-.8-.6-1.1-.2-.9.2-1 .6-.6 1-.2.9v21.5l-1.5 1.5h-30.5l-1.6-1.6V332l-.2-1.4-.6-1.4-.8-1-1.2-1-1.3-.5-1.5-.2-1.4.2-1.3.5-1.1 1-1 1-.4 1.4-.3 1.4v19.2h-23.9v-21.5l-.2-1.2-.6-.9-1.1-.8-1.1-.2h-49.3l-1.2.2-1.1.8-.6.9-.2 1.2v21.7H72.8z"/><path class="st1" d="M72.8 158.4h477.1v168.1H312l-.9.2-.9.5-.6.8-.1 1v34.2l-1.7 1.7h-60.6l-1.5-1.6v-21.5l-.3-.9-.6-1-.8-.6-1.1-.2-.9.2-1 .6-.6 1-.2.9v21.5l-1.5 1.5h-30.5l-1.6-1.6V332l-.2-1.4-.6-1.4-.8-1-1.2-1-1.3-.5-1.5-.2-1.4.2-1.3.5-1.1 1-1 1-.4 1.4-.3 1.4v19.2h-23.9v-21.5l-.2-1.2-.6-.9-1.1-.8-1.1-.2h-49.3l-1.2.2-1.1.8-.6.9-.2 1.2v21.7H72.8z"/><path class="st1" d="M76.2 184.2l-.1-.3-.1.3zm-.1-.3l-.1-.1v.4zm-.1-.1l-.3.1.3.3zm-.3.1v.3h.3zm0 .3v.1l.3-.1zm0 .1l.3.1v-.2zm.3.1l.1-.1-.1-.1z"/><path class="st1" d="M76.1 184.3l.1-.1H76zm-5.9 164.6h4.6M32.2 50.2v-2.6m.1 3.2h1.8m-1.9-.6H67m-34.7 0v.6m1.8 0l1.1-.6"/><path class="st0" d="M67 50.2l.4.3.2.3V394v-.2l-1.2 13.9h2.7l1.1-13.7v-53.1h4.6l.7-.3.6-.6.1-.7V74.2l-.1-.7-.6-.6-.7-.1h-4.6V49l-.1-.7-.6-.5-.7-.2H32.2"/><path class="st1" d="M67 50.2l.4.3.2.3V394v-.2l-1.2 13.9h2.7l1.1-13.7v-53.1h4.6l.7-.3.6-.6.1-.7V74.2l-.1-.7-.6-.6-.7-.1h-4.6V49l-.1-.7-.6-.5-.7-.2H32.2"/><path class="st0" d="M65.5 192.1h101.2v48.4H65.5z"/><path class="st2" d="M65.5 192.1h101.2v48.4H65.5z"/><path class="st0" d="M65.5 272.3h101.2v48.4H65.5z"/><path class="st2" d="M65.5 272.3h101.2v48.4H65.5z"/><path d="M297.5 348.1h1.9v11.5h-1.9zm3 0h1.9v11.5h-1.9zm-12 0h1.9v11.5h-1.9zm6 0h1.9v11.5h-1.9zm-9 0h1.9v11.5h-1.9zm6 0h1.9v11.5h-1.9zm-15 0h1.9v11.5h-1.9zm6 0h1.9v11.5h-1.9zm-9 0h1.9v11.5h-1.9zm6 0h1.9v11.5h-1.9zm-15 0h1.9v11.5h-1.9zm6 0h1.9v11.5h-1.9zm-12 0h1.9v11.5h-1.9zm9 0h1.9v11.5h-1.9zm-18 0h1.9v11.5h-1.9zm6 0h1.9v11.5h-1.9zm-3 0h1.9v11.5h-1.9zm-6 0h1.9v11.5h-1.9zm60 0h1.9v11.5h-1.9zm-3 .1h1.9v9.5h-1.9zm-42 0h1.9v9.5h-1.9zm-30-.1h1.9v11.5h-1.9zm-6 0h1.9v11.5h-1.9zm-9 0h1.9v11.5h-1.9zm18 0h1.9v11.5h-1.9zm-6 0h1.9v11.5h-1.9zm9 0h1.9v11.5h-1.9zm-24 0h1.9v11.5h-1.9zm-3 0h1.9v11.5h-1.9zm12 0h1.9v11.5h-1.9zm-15 0h1.9v11.5h-1.9zm12 0h1.9v11.5h-1.9z" stroke="#000" stroke-width=".1" fill="none" stroke-linecap="round" stroke-linejoin="round" stroke-miterlimit="10"/><text transform="translate(265.257 20.682)" class="st4 st5">174.2</text><text transform="translate(291.777 132.812)" class="st4 st5">160</text><text transform="rotate(-90 129.17 106.346)" class="st4 st5">120</text><text transform="rotate(-90 415.944 -149.76)" class="st4 st5">68.8</text><path class="st6" d="M39.7 24.7h501.2"/><path d="M41.5 27.3l-9.8-2.6 9.8-2.6zm497.6 0l9.7-2.6-9.7-2.6z"/><path class="st6" d="M84.2 137.2h457.9"/><path d="M86 139.8l-9.8-2.6 9.8-2.6zm454.4 0l9.7-2.6-9.7-2.6z"/><text transform="translate(129.708 447.69)" class="st4 st5">46.1</text><path class="st6" d="M79.4 437.6h118.7"/><path d="M81.2 440.2l-9.7-2.6 9.7-2.7zm115.1 0l9.8-2.6-9.8-2.7z"/><path class="st6" d="M26.2 399.3V55.1"/><path d="M28.8 397.5l-2.6 9.7-2.7-9.7zm0-340.6l-2.6-9.8-2.7 9.8z"/><path class="st6" d="M554.6 356.6V166.3"/><path d="M557.2 354.8l-2.6 9.8-2.6-9.8zm0-186.7l-2.6-9.7-2.6 9.7z"/><path class="st7" d="M32.2 50.2V18.7"/><path fill="none" stroke="#000" stroke-width=".228" stroke-linecap="round" stroke-linejoin="round" stroke-miterlimit="10" d="M69.1 407.7H11.9"/><path class="st7" d="M549.9 159.4V13.7M70.2 445.2v-84.5m136.3 84.5v-84.5"/><path fill="none" stroke="#000" stroke-width=".274" stroke-linecap="round" stroke-linejoin="round" stroke-miterlimit="10" d="M69.1 47.6H11.9"/><path d="M573.4 158.4h-23.5m23.5 206.5H305.5" stroke-width=".292" stroke-miterlimit="10" fill="none" stroke="#000" stroke-linecap="round" stroke-linejoin="round"/><text transform="translate(445.178 425.248)" class="st4 st11">Not to scale</text><text transform="translate(444.478 444.65)" class="st4 st11">Dimensions in mm</text></svg>