<svg style="background-color:#fff" version="1.1" id="Layer_1" xmlns="http://www.w3.org/2000/svg" x="0" y="0" viewBox="0 0 180 210" xml:space="preserve"><style>.st3,.st5{fill:#bde4f7;stroke:#000;stroke-width:1.199;stroke-miterlimit:3.864}.st5{fill:none;stroke-width:2}.st6{enable-background:new}.st7{font-family:Helvetica,Arial,sans-serif}.st8{font-size:8px}.st9{fill:#f5f5f5}.st12{font-family:Helvetica,Arial,sans-serif;font-weight:700}.st13{font-size:11px}</style><path d="M91.5 74.3v24" fill="none" stroke="#f99d33" stroke-width="3" stroke-miterlimit="3.864"/><path d="M19.5 8.3h138v66h-138v-66z" fill="#0090d4" stroke="#000" stroke-width="1.199" stroke-miterlimit="3.864"/><path d="M76.7 45.7h30v28.4h-30V45.7z" fill="#e4e4e4" stroke="#000" stroke-miterlimit="3.864"/><path class="st3" d="M10.5 188.3v-42h30v42h-30zm6 0h18v12h-18v-12zm36 0v-42h30v42h-30zm6 0h18v12h-18v-12z"/><path d="M49.5 98.3h84.1v24H49.5v-24z" fill="#646464" stroke="#000" stroke-width="1.199" stroke-miterlimit="3.864"/><path class="st5" d="M79.5 122.3v12h-12v12m60-24v12h30v12"/><path class="st3" d="M97.5 188.3v-42h30v42h-30zm6 0h18v12h-18v-12zm36 0v-42h30v42h-30zm6 0h18v12h-18v-12z"/><path class="st5" d="M55.5 122.3v12h-30v12m78-24v12h12v12"/><text transform="translate(82.694 58.1)" class="st6"><tspan x="0" y="0" class="st7 st8">GigE</tspan><tspan x="-4.7" y="9.6" class="st7 st8">adapter</tspan></text><text transform="translate(53.104 113.2)" class="st9 st7" font-size="8.5">GigE network switch</text><text transform="translate(16.394 165.4)" class="st6"><tspan x="0" y="0" class="st7 st8">GigE</tspan><tspan x="-4.4" y="9.6" class="st7 st8">camera</tspan></text><text transform="translate(145.394 165.4)" class="st6"><tspan x="0" y="0" class="st7 st8">GigE</tspan><tspan x="-4.4" y="9.6" class="st7 st8">camera</tspan></text><text transform="translate(103.394 165.4)" class="st6"><tspan x="0" y="0" class="st7 st8">GigE</tspan><tspan x="-4.4" y="9.6" class="st7 st8">camera</tspan></text><text transform="translate(58.394 165.4)" class="st6"><tspan x="0" y="0" class="st7 st8">GigE</tspan><tspan x="-4.4" y="9.6" class="st7 st8">camera</tspan></text><text transform="translate(25.5 24.467)" class="st9 st7" font-size="12">Computer</text><text transform="translate(5.4 98.3)" class="st6"><tspan x="0" y="0" class="st12 st13">Single</tspan><tspan x="0" y="13.2" class="st12 st13">path</tspan></text><path d="M40.5 95.1l37.4-8.4" fill="none" stroke="#000" stroke-miterlimit="3.864"/><path d="M76.6 90l9.9-5.2-11.2-.5 1.3 5.7z"/></svg>