<svg style="background-color:#fff" version="1.1" id="Ebene_1" xmlns="http://www.w3.org/2000/svg" xmlns:xlink="http://www.w3.org/1999/xlink" x="0" y="0" viewBox="0 0 234.9 146.9" xml:space="preserve"><style>.st0{fill:none;stroke:#000;stroke-width:.999;stroke-linecap:round;stroke-linejoin:round;stroke-miterlimit:10}.st4{font-family:Helvetica,Arial,sans-serif}.st5{font-size:8.9993px}</style><path class="st0" d="M41.2 5v110.7m-6.7-2h7.2m-7.2-18h7.2m-7.2-18.2h7.2m-7.2-18h7.2m-7.2-18.2h7.2m-7.2-18h7.2M34.5 5h7.2"/><defs><path id="SVGID_1_" d="M41.1 58.9h193.8v1.3H41.1z"/></defs><clipPath id="SVGID_2_"><use xlink:href="#SVGID_1_" overflow="visible"/></clipPath><path d="M41.7 59.5h193" clip-path="url(#SVGID_2_)" fill="none" stroke="#000" stroke-width=".999" stroke-linecap="round" stroke-linejoin="round" stroke-miterlimit="10"/><defs><path id="SVGID_3_" d="M39.9 115.7H235v1.3H39.9z"/></defs><clipPath id="SVGID_4_"><use xlink:href="#SVGID_3_" overflow="visible"/></clipPath><path d="M40.5 116.3h194.2" clip-path="url(#SVGID_4_)" fill="none" stroke="#000" stroke-width=".999" stroke-linecap="round" stroke-linejoin="round" stroke-miterlimit="10"/><path class="st0" d="M217.2 123v-7.3m-34.5 7.3v-7.3m-34.8 7.3v-7.3M113 123v-7.3M78.5 123v-7.3m-35 7.3v-7.3"/><defs><path id="SVGID_5_" d="M42.4 58.4h192.5v35.9H42.4z"/></defs><clipPath id="SVGID_6_"><use xlink:href="#SVGID_5_" overflow="visible"/></clipPath><path d="M43.5 59.5H51l1.5.2h4l1.8.2H60l1.7.2h1.7l2 .2h1.8l1.7.3c5.7.6 10.7 1.5 16.3 2.5l2.2.2 1.5.3 2 .5 2 .2 1.7.5 1.7.5 1.7.2 2 .5 1.8.2 1.7.5 2 .5 1.7.5 1.7.5 2.3.5 1.5.2 2 .5 2 .5 1.7.7 2 .5 3.5 1 2 .5 1.7.5 2 .8 2 .5 1.5.5 2.2.5 1.7.7 2 .5 1.7.8 2 .5 1.7.5 2.3.5L149 80l2 .5 1.7.7 2 .5 2.2.5 1.7.5 2 .8c6 1.5 11.6 3.5 17.7 4.7l1.8.5 2 .5 2 .5 2.3.2 2 .5 1.7.3 2.3.5 4 .5 2.3.5 2 .2 2 .2h1.7l2 .2 2.3.2h10.7l4-.5 2.3-.2 2-.2 2-.5 2.2-.5 2.5-.5h.2" clip-path="url(#SVGID_6_)" fill="none" stroke="#000" stroke-width="1.999" stroke-linecap="round" stroke-linejoin="round" stroke-miterlimit="10"/><path class="st0" d="M45 97.5h95.2v15.2H45V97.5z"/><text transform="translate(47.443 107.507)" class="st4 st5">Simulated WD = 0.5 m</text><text transform="translate(18.222 7.723)" class="st4 st5">1.5</text><text transform="translate(18.222 43.963)" class="st4 st5">0.5</text><text transform="translate(18.222 62.267)" class="st4 st5">0.0</text><text transform="translate(15.225 80.266)" class="st4 st5">-0.5</text><text transform="translate(15.225 116.506)" class="st4 st5">-1.5</text><text transform="translate(110.443 133.487)" class="st4 st5" letter-spacing="62">2</text><text transform="translate(179.943 133.487)" class="st4 st5">4</text><text transform="translate(75.706 133.487)" class="st4 st5">1</text><text transform="translate(105.466 143.99)" class="st4 st5">Image Height [mm]</text><text transform="translate(214.726 133.487)" class="st4 st5">5</text><text transform="translate(145.189 133.487)" class="st4 st5">3</text><text transform="translate(15.23 98.507)" class="st4 st5">-1.0</text><text transform="translate(18.227 25.73)" class="st4 st5">1.0</text><text transform="translate(41.1 133.487)" class="st4 st5">0</text><text transform="rotate(-90 58.308 48.984)" class="st4" font-size="9">Optical Distortion [%]</text></svg>