<svg style="background-color:#fff" version="1.1" id="Layer_1" xmlns="http://www.w3.org/2000/svg" x="0" y="0" viewBox="0 0 450 171.9" xml:space="preserve"><style>.st2{fill:none;stroke:#000;stroke-miterlimit:3.864}.st7{enable-background:new}.st8{font-family:Helvetica,Arial,sans-serif}.st9{font-size:12px}</style><path d="M417.1 156.8v-4.5l6.5 4.5-6.5 4.5v-4.5z" fill-rule="evenodd" clip-rule="evenodd"/><path d="M137.7 156.8h279.9" fill="none" stroke="#000" stroke-width="1.5" stroke-miterlimit="3.864"/><path class="st2" d="M420.4 124h-73.3V99H169.5v25h-31.9m40.8-37.8h159.9"/><path d="M180.4 89.1l-10.9-2.9 10.9-2.9v5.8zm155.9 0l10.8-2.9-10.8-2.9v5.8z"/><path class="st2" d="M424.3 45.6H250.6V21.3h-7.8v24.3h-14.5V21.3h-11.2v24.3h-28.8V21.3h-18.8v24.3h-31.9"/><path d="M169.5 90.1v-8m177.6 8.4v-8" fill="none" stroke="#000" stroke-width=".5" stroke-miterlimit="3.864"/><text transform="translate(202.736 78.537)" font-size="13.5" font-family="Helvetica,Arial,sans-serif" font-weight="700" fill="#14487e">Input hold-off time</text><text transform="translate(12.077 29.068)" class="st7"><tspan x="0" y="0" class="st8 st9">Incoming input signal</tspan><tspan x="0" y="14.4" class="st8 st9">(unfiltered)</tspan></text><text transform="translate(12.078 102.777)" class="st7"><tspan x="0" y="0" class="st8 st9">Resulting input signal</tspan><tspan x="0" y="14.4" class="st8 st9">(filtered, not delayed)</tspan></text><text transform="translate(258.397 150.087)" class="st8" font-size="13">Time</text></svg>