<svg style="background-color:#fff" version="1.1" id="Layer_1" xmlns="http://www.w3.org/2000/svg" x="0" y="0" viewBox="0 0 1000 581.8" xml:space="preserve"><style>.st1{fill:none;stroke:#000;stroke-width:.5;stroke-miterlimit:10}.st2{font-family:Helvetica,Arial,sans-serif}.st3{font-size:14px}.st4{enable-background:new}</style><path d="M190 220.4V52l-59.9.5v-5.9h65.5v154h5.4c2.2 0 4 .2 4.3 4.4 0 .5.1 4.3.1 10.7h10.1v-45.2h26s.7 1.1 1.8 1.1.6-2.5 2.2-2.4c1.6.1 2.2 1.8 2.2 1.8s.1-.9 1.6-.8c1.4.1 1.3 1.3 2.1 1.2s.7-1.1 2-1.1c1.3.1 1.2.9 1.9.9s.6-1.1 1.3-1.1c.7.1 2.1.9 2.5.9s-.2-2.2 1.7-2.1c1.9.1 1.3 2.7 2.3 2.5s.9-.8.9-.8h318.4s.6.4 2 .2c1.4-.1 1.5-2.4 2.6-2.4s.9 2.4 1.8 2.4c.9.1.7-2 1.8-2s.9 2.3 2 2.4c1.1.1.5-2.4 1.8-2.4 1.2 0 .9 2.6 2 2.6s.9-2 2-1.9c1.1 0-.3 2.3 1.5 2.1 1.8-.1 1-2.2 2.5-2.1 1.5 0 .1 2.5 1.9 2.3 1.8-.1 1.4-1.2 1.4-1.2h336.6c.8 0 .7 1.6 1.5 1.6s.9-2.6 2.6-2.4c1.7.2.7 2.4 1.6 2.5.8.1.5-1.8 1.9-1.6 1.3.2.7 1.5 1.7 1.4.9-.1 1.2-.9 2.2-.9 1 .1 1.3 1.3 2 1.3s.7-1.8 1.8-1.7c1 .1 1.1 1.3 1.8 1.3.7-.1.9-.6 1-2.1 1.3-1.3 2.4-.1 2.4.5s.4 1.8 1.3 1.8 1.1-1.8 1.1-1.8h11.7c.9 0 1.1.9 1.1 1.4v251.9c0 .4 0 1.6-1.3 1.6h-35.3l-1.1.1h-.6v2.8l-2.7-1.4v-1.5h-.9v1.6h-3v-1.6h-.8v1.6h-3.1v-1.8h-.7v2h-3.1v-1.7h-1.3v2.8l-2.7-1.5v-1.4h-.9v.1s-336.3-.3-339.5 0-5.7 1.3-5.7 4.8v49.4l-3 3h-90.8l-2.9-2.9v-31.5c.1-6.9-8.2-6.8-8.2-.5v29.3l-.8 3.2-2.2 2.2h-46l-2.5-2.5v-48c-.3-3.4-3-6.3-7.3-6.6-3.6.2-8.3 1.9-8.3 5.9v30.2l-.9.9H394v-1.5h-1.3v2.4h-2.4v-2.2h-1.6v1.8h-2.2V461h-1.6v1.9h-2.1V461h-2v1.7H379v-1.5h-2v2.1h-2.1V462s-.6-1.4-1.5-1.5-.9 1.2-.9 1.2h-6.9v-32.4c0-1.4-.7-3.9-3.5-4h-74.9c-2.9.1-3.7 1.1-3.7 2.8v31.6l-1.1 1.2h-24.1v-1.2h-.9v2.3h-3.2v-2.3h-1.1v1.3h-2.5v-1h-.9v2h-3.1v-2h-.9v2H243v-1.3c-.4-1.5-1.1 0-1.1 0v1.3h-3.1v-1s0-.8-1-.7c-1 .1-1 .7-1 .7h-21.2l-.1-7.3h-10.1V471c0 3.2-3.1 5.1-5.6 4.9h-5.7v61.8h-4V371.5l-1.7-.5-1.3.5-1.9-2.8H167s-.2-2.2-2.1-2.2c-1.8 0-2.1 2.2-2.1 2.2h-5.7v-17.9h5.7s.3 2.2 2.1 2.2 2.1-2.2 2.1-2.2h18.1l1.9-2.8 1.3.5 1.7-.5v-29.7h-21v-15h21v-8.1h-7.8v-53.4h7.8v-6.4h-21v-15h21z" fill="#f6f6f6"/><path class="st1" d="M205.4 344.6H239v30.1h-33.6m-20.3-24v18m-18.1-18v18m-4.2-18v18m27.1-57.9H169m20.9-82.9H169m808.6 10.8h-58.5V175h58.5v63.7zm-58.6-8.5h-30.6v-4.6H919v4.6zm0-21h-30.6v-4.6H919v4.6zm0-21.1h-30.6v-4.6H919v4.6zm20.1 78.6c0-7.7 6.3-14 14-14s14 6.3 14 14-6.3 14-14 14-14-6.2-14-14zm-636.4 23.4c0-5 4-9 9-9s9 4 9 9-4 9-9 9-9-4.1-9-9zm636.4 88.6c0-7.7 6.3-14 14-14s14 6.3 14 14-6.3 14-14 14-14-6.3-14-14zm-364.4 78.1H478m-8.2 0h-51.6m66.1.6v16.8h-3.4v-16.8m7.9 0v16.8h-3.3v-16.8m7.9 0v16.8h-3.3v-16.8m7.9 0v16.8h-3.4v-16.8m8 0v16.8h-3.4v-16.8m8 0v13h-3.4v-13m8 0v16.8h-3.4v-16.8m8 0v16.8H513v-16.8m8 0v16.8h-3.4v-16.8m7.9 0v16.8h-3.3v-16.8m7.9 0v16.8h-3.3v-16.8m7.9 0v16.8h-3.4v-16.8m8 0v16.8h-3.4v-16.8m8 0v16.8h-3.4v-16.8m8 0v16.8h-3.4v-16.8m8 0v16.8h-3.4v-16.8m-119.7 0v16.8h-3.4v-16.8m-1.6 0v16.8h-3.4v-16.8m13 0v16.8h-3.4v-16.8m7.9 0v16.8h-3.3v-16.8m7.9 0v16.8h-3.3v-16.8m7.9 0v16.8h-3.4v-16.8m8 0v16.8h-3.4v-16.8m8 0v16.8h-3.4v-16.8m8 0v16.8h-3.4v-16.8m8 0v16.8h-3.4v-16.8m94.4 0v16.8h-3.4v-16.8m7.9 0v16.8h-3.3v-16.8m7.9 0v13h-3.3v-13m7.9 0v16.8H568v-16.8M258.4 345h18.8c1.4 0 2.6-1.2 2.6-2.6v-14.6c0-1.4-1.2-2.6-2.6-2.6h-18.8c-1.4 0-2.6 1.2-2.6 2.6v14.6c0 1.4 1.2 2.6 2.6 2.6zm57.9-103.4h21.9c1.9 0 3.4-1.5 3.4-3.4v-21.9c0-1.9-1.5-3.4-3.4-3.4h-21.9c-1.9 0-3.4 1.5-3.4 3.4v21.9c0 1.9 1.5 3.4 3.4 3.4zm15.6 67.2h13.3c1.1 0 2.1-.9 2.1-2.1v-13.3c0-1.1-.9-2.1-2.1-2.1h-13.3c-1.1 0-2.1.9-2.1 2.1v13.3c.1 1.2 1 2.1 2.1 2.1zm-17.3 78.1v-16.7h22v16.7h-22zm2.1-16.7v-7.5m6 7.5v-7.5m6 7.5v-7.5m6 7.5v-7.5m-18 32v-7.6m6 7.6v-7.6m6 7.6v-7.6m6 7.6v-7.6M275 226v-16.7h22V226h-22zm2.1-16.7v-7.6m6 7.6v-7.6m6 7.6v-7.6m6 7.6v-7.6m-18 32.1v-7.6m6 7.6v-7.6m6 7.6v-7.6m6 7.6v-7.6m-33.1 37v-18.8h24v18.8h-24zm2.3-18.7V236m6.5 8.5V236m6.6 8.5V236m6.5 8.5V236m-19.6 36v-8.5m6.5 8.5v-8.5m6.6 8.5v-8.5m6.5 8.5v-8.5m4.5-.2v-18.8h24v18.8h-24zm2.4-18.8V236m6.5 8.5V236m6.5 8.5V236m6.6 8.5V236m-19.6 36v-8.5m6.5 8.5v-8.5m6.5 8.5v-8.5m6.6 8.5v-8.5m582.9 78.9h-8.1v-22.7h8.1v22.7zm-.1-3.7h-8.1m8.1-15.3h-8.1m19.6 19h-8.1v-22.7h8.1v22.7zm0-3.7h-8.1m8.1-15.3h-8.1m-88.5 87.2H800v-22.7h8.1v22.7zm0-3.8H800m8.1-15.2H800m19.5 19h-8.1v-22.7h8.1v22.7zm0-3.8h-8m8-15.2h-8m35.6-52.2v8.1h-22.7v-8.1h22.7zm-3.8 0v8m-15.2-8v8m18.9-19.5v8.1h-22.7v-8.1H847zm-3.7 0v8.1m-15.2-8.1v8.1m19-19.5v8.1h-22.7v-8.1h22.7zm-3.8-.1v8.1m-15.2-8.1v8.1m46.1 14.9v8.1h-22.7v-8.1h22.7zm-3.7 0v8m-15.3-8v8m76.1-4.9v8.1H913v-8.1h18.3zm-3-.1v8.1m-12.4-8.1v8.1m6.3-99.2v12.1h-18.3v-12.1h18.3zm-2.9.1v12.1m-12.4-12.1v12.1m-62 137.1v8.1h-18.3v-8.1h18.3zm-3-.1v8.1m-12.4-8.1v8.1m15.3-19.5v8.1h-18.3v-8.1h18.3zm-2.9 0v8.1m-12.4-8.1v8.1m49.8 2.2v8.1H861v-8.1h18.3zm-3 0v8.1m-12.4-8.1v8.1m89.2-8.1v8.1h-18.3v-8.1h18.3zm-2.9 0v8.1m-12.4-8.1v8.1m-63.6-79.6v8.1h-22.7v-8.1h22.7zm-3.7 0v8.1m-15.3-8.1v8.1m19-19.6v8.1h-22.7v-8.1h22.7zm-3.7 0v8.1m-15.3-8.1v8.1m-42.1-109.2H805v-17.5h8.1v17.5zm0-2.9h-8m8-11.7h-8m19.5 14.6h-8.1v-17.5h8.1v17.5zm0-2.9h-8.1m8.1-11.7h-8.1m-4.3 144.1h-8.1v-17.5h8.1v17.5zm-.1-2.9H804m8.1-11.8H804m29.7-104.5v-8.1h17.5v8.1h-17.5zm2.8 0v-8.1m11.7 8.1v-8.1M0 0"/><circle class="st1" cx="875.1" cy="412" r="2.4"/><path class="st1" d="M885.2 412c0 1.3-1.1 2.4-2.4 2.4-1.3 0-2.4-1.1-2.4-2.4s1.1-2.4 2.4-2.4c1.3 0 2.4 1.1 2.4 2.4zm7.6 0c0 1.3-1.1 2.4-2.4 2.4-1.3 0-2.4-1.1-2.4-2.4s1.1-2.4 2.4-2.4c1.4 0 2.4 1.1 2.4 2.4zm-15.3 7.7c0 1.3-1.1 2.4-2.4 2.4-1.3 0-2.4-1.1-2.4-2.4s1.1-2.4 2.4-2.4c1.4 0 2.4 1.1 2.4 2.4zm7.7 0c0 1.3-1.1 2.4-2.4 2.4-1.3 0-2.4-1.1-2.4-2.4s1.1-2.4 2.4-2.4c1.3 0 2.4 1.1 2.4 2.4zm7.6 0c0 1.3-1.1 2.4-2.4 2.4-1.3 0-2.4-1.1-2.4-2.4s1.1-2.4 2.4-2.4c1.4 0 2.4 1.1 2.4 2.4zm82.6-18c0 1.9-1.5 3.4-3.4 3.4s-3.4-1.5-3.4-3.4 1.5-3.4 3.4-3.4 3.4 1.5 3.4 3.4zm0-11.5c0 1.9-1.5 3.4-3.4 3.4s-3.4-1.5-3.4-3.4 1.5-3.4 3.4-3.4 3.4 1.5 3.4 3.4zm0-11.5c0 1.9-1.5 3.4-3.4 3.4s-3.4-1.5-3.4-3.4 1.5-3.4 3.4-3.4 3.4 1.5 3.4 3.4zm0-11.5c0 1.9-1.5 3.4-3.4 3.4s-3.4-1.5-3.4-3.4 1.5-3.4 3.4-3.4 3.4 1.6 3.4 3.4zm0-11.4c0 1.9-1.5 3.4-3.4 3.4s-3.4-1.5-3.4-3.4 1.5-3.4 3.4-3.4 3.4 1.5 3.4 3.4zm0-11.5c0 1.9-1.5 3.4-3.4 3.4s-3.4-1.5-3.4-3.4 1.5-3.4 3.4-3.4 3.4 1.5 3.4 3.4zM308.6 193h-8.1v-18.3h8.1V193zm-.1-3h-8.1m8.1-12.4h-8.1M320 193h-8.1v-18.3h8.1V193zm0-3h-8.1m8.1-12.4h-8.1m19.5 15.4h-8.1v-18.3h8.1V193zm.1-3h-8.1m8.1-12.4h-8.1m92.2-3.1h11.3v5.1h-11.3v-5.1zm-15.7 0h11.3v5.1h-11.3v-5.1zm30.9 0h11.3v5.1h-11.3v-5.1zm15.3 0h11.3v5.1h-11.3v-5.1zm15.3 0h11.3v5.1h-11.3v-5.1zm15.3 0H488v5.1h-11.3v-5.1zm15.3 0h11.3v5.1H492v-5.1zm15.3 0h11.3v5.1h-11.3v-5.1zm15.3 0h11.3v5.1h-11.3v-5.1zm313.1 24.6h13.9v7.7h-13.9v-7.7zM915.3 324h13.9v7.7h-13.9V324zM355.7 185.9h440.9m0 0v239.7M355.7 185.9v239.7m0 0h230.4m-370.5-81v-19.1m-10.1 92.2h10.1m45.9 18.5c0 7.7-6.3 14-14 14s-14-6.3-14-14 6.3-14 14-14 14 6.2 14 14z"/><path class="st1" d="M249.4 446.4h-3.8v-8.3h-8.3v-3.9h8.3v-8.3h3.8v8.3h8.4v3.9h-8.4v8.3zm69.1-176.2v-8.1H336v8.1h-17.5zm2.9 0v-8.1m11.8 8.1v-8.1m-69.5 13h8.1v17.5h-8.1v-17.5zm0 2.9h8.1m-8.1 11.7h8.1m13.2 91h5.8v12.5H285v-12.5zm0 2h5.8m-5.8 8.4h5.8M285.9 281h13.6v7.6h-13.6V281zm17.4 23.8v13.6h-7.6v-13.6h7.6zm-87.7 69.9v79m-10.1-237.9v237.9"/><path class="st1" d="M190 220.4V52l-59.9.5v-5.9h65.5v154h5.4c2.2 0 4 .2 4.3 4.4 0 .5.1 4.3.1 10.7h10.1v-45.2h26s.7 1.1 1.8 1.1.6-2.5 2.2-2.4c1.6.1 2.2 1.8 2.2 1.8s.1-.9 1.6-.8c1.4.1 1.3 1.3 2.1 1.2s.7-1.1 2-1.1c1.3.1 1.2.9 1.9.9s.6-1.1 1.3-1.1c.7.1 2.1.9 2.5.9s-.2-2.2 1.7-2.1c1.9.1 1.3 2.7 2.3 2.5s.9-.8.9-.8h318.4s.6.4 2 .2c1.4-.1 1.5-2.4 2.6-2.4s.9 2.4 1.8 2.4c.9.1.7-2 1.8-2s.9 2.3 2 2.4c1.1.1.5-2.4 1.8-2.4 1.2 0 .9 2.6 2 2.6s.9-2 2-1.9c1.1 0-.3 2.3 1.5 2.1 1.8-.1 1-2.2 2.5-2.1 1.5 0 .1 2.5 1.9 2.3 1.8-.1 1.4-1.2 1.4-1.2h336.6c.8 0 .7 1.6 1.5 1.6s.9-2.6 2.6-2.4c1.7.2.7 2.4 1.6 2.5.8.1.5-1.8 1.9-1.6 1.3.2.7 1.5 1.7 1.4.9-.1 1.2-.9 2.2-.9 1 .1 1.3 1.3 2 1.3s.7-1.8 1.8-1.7c1 .1 1.1 1.3 1.8 1.3.7-.1.9-.6 1-2.1 1.3-1.3 2.4-.1 2.4.5s.4 1.8 1.3 1.8 1.1-1.8 1.1-1.8h11.7c.9 0 1.1.9 1.1 1.4v251.9c0 .4 0 1.6-1.3 1.6h-35.3l-1.1.1h-.6v2.8l-2.7-1.4v-1.5h-.9v1.6h-3v-1.6h-.8v1.6h-3.1v-1.8h-.7v2h-3.1v-1.7h-1.3v2.8l-2.7-1.5v-1.4h-.9v.1s-336.3-.3-339.5 0-5.7 1.3-5.7 4.8v49.4l-3 3h-90.8l-2.9-2.9v-31.5c.1-6.9-8.2-6.8-8.2-.5v29.3l-.8 3.2-2.2 2.2h-46l-2.5-2.5v-48c-.3-3.4-3-6.3-7.3-6.6-3.6.2-8.3 1.9-8.3 5.9v30.2l-.9.9H394v-1.5h-1.3v2.4h-2.4v-2.2h-1.6v1.8h-2.2V461h-1.6v1.9h-2.1V461h-2v1.7H379v-1.5h-2v2.1h-2.1V462s-.6-1.4-1.5-1.5-.9 1.2-.9 1.2h-6.9v-32.4c0-1.4-.7-3.9-3.5-4h-74.9c-2.9.1-3.7 1.1-3.7 2.8v31.6l-1.1 1.2h-24.1v-1.2h-.9v2.3h-3.2v-2.3h-1.1v1.3h-2.5v-1h-.9v2h-3.1v-2h-.9v2H243v-1.3c-.4-1.5-1.1 0-1.1 0v1.3h-3.1v-1s0-.8-1-.7c-1 .1-1 .7-1 .7h-21.2l-.1-7.3h-10.1V471c0 3.2-3.1 5.1-5.6 4.9h-5.7v61.8h-4V371.5l-1.7-.5-1.3.5-1.9-2.8H167s-.2-2.2-2.1-2.2c-1.8 0-2.1 2.2-2.1 2.2h-5.7v-17.9h5.7s.3 2.2 2.1 2.2 2.1-2.2 2.1-2.2h18.1l1.9-2.8 1.3.5 1.7-.5v-29.7h-21v-15h21v-8.1h-7.8v-53.4h7.8v-6.4h-21v-15h21zm0 97.9v-15m0-8.2v-53.3m0-6.4v-15m0 151.1v-23.6"/><path class="st1" d="M280.3 174.5h11.3v5.1h-11.3v-5.1zm487.4 0H779v5.1h-11.3v-5.1zm15.3 0h11.3v5.1H783v-5.1z"/><text transform="translate(273.608 103.45)" class="st2 st3">LED</text><text transform="translate(263.008 120.25)" class="st2 st3">Block 1</text><text transform="translate(451.149 103.45)" class="st2 st3">LEDs</text><text transform="translate(444.149 120.25)" class="st2 st3">Block 2</text><text transform="translate(757.393 103.45)" class="st2 st3">LEDs</text><text transform="translate(750.393 120.25)" class="st2 st3">Block 3</text><text transform="translate(894.066 103.45)" class="st4"><tspan x="0" y="0" class="st2 st3">PCIe power</tspan><tspan x="-18.3" y="16.8" class="st2 st3">connector (6-pin)</tspan></text><text transform="translate(404.308 526.45)" class="st2 st3">DMA 3900</text><text transform="translate(401.908 543.25)" class="st2 st3">PCIe 3.0 x4</text><text transform="translate(14.835 261.01)" class="st4"><tspan x="0" y="0" class="st2 st3">D-Sub Micro-D</tspan><tspan x="0" y="16.8" class="st2 st3">connector (15-pin)</tspan></text><text transform="translate(14.834 352.878)" class="st4"><tspan x="0" y="0" class="st2 st3">Micro-BNC</tspan><tspan x="0" y="16.8" class="st2 st3">connector</tspan></text><path d="M285.9 127.2v49.9m181.2-49.9v49.9m-28 272.2v59.2m334.2-381.3v49.9M944 127.2v75.3M99.6 358.6h52m-16-89.7h39" fill="none" stroke="#000" stroke-miterlimit="10"/></svg>