<svg style="background-color:#fff" version="1.1" id="Layer_1" xmlns="http://www.w3.org/2000/svg" x="0" y="0" viewBox="0 0 550 290" xml:space="preserve"><style>.st1{fill:#bde4f7;stroke-miterlimit:10}.st1,.st2{stroke:#1d1d1b}.st2,.st3{stroke-miterlimit:10}.st2,.st3{fill:none}.st3{stroke:#5a5a5a}.st4{fill:#5a5a5a}.st5{font-family:Helvetica,Arial,sans-serif}.st6{font-size:11px}.st7{font-family:Helvetica,Arial,sans-serif;font-weight:700}.st8{font-size:14px}.st9{enable-background:new}</style><path d="M444.5 204.6h34.8v69.6h-34.8v-69.6z" fill="#c8c8c8"/><path class="st1" d="M4.5 28.8h474.7v34.8H4.5V28.8z"/><path class="st2" d="M4.5 28.8h474.7v104.3H4.5V28.8zm0 34.7h474.7M4.5 98.3h474.7M61.9 28.8v104.3M96.7 28.8v104.3m34.7-104.3v104.3m34.8-104.3v104.3M201 28.8v104.3m34.8-104.3v104.3m34.8-104.3v104.3m34.7-104.3v104.3m34.8-104.3v104.3m34.8-104.3v104.3m34.8-104.3v104.3m34.8-104.3v104.3"/><path class="st1" d="M4.5 169.8h474.7v34.8H4.5v-34.8z"/><path class="st2" d="M4.5 169.8h474.7v104.3H4.5V169.8zm0 34.8h474.7M4.5 239.4h474.7M61.9 169.8v104.3m34.8-104.3v104.3m34.7-104.3v104.3m34.8-104.3v104.3M201 169.8v104.3m34.8-104.3v104.3m34.8-104.3v104.3m34.7-104.3v104.3m34.8-104.3v104.3m34.8-104.3v104.3m34.8-104.3v104.3m34.8-104.3v104.3"/><path class="st3" d="M461 89.6l-30.2 113.9"/><path class="st4" d="M428.5 200.9v11.2l5.6-9.7-5.6-1.5z"/><path class="st3" d="M426.2 89.6L396 203.5"/><path class="st4" d="M393.7 200.9v11.2l5.6-9.7-5.6-1.5z"/><path class="st3" d="M391.4 89.6l-30.2 113.9"/><path class="st4" d="M358.9 200.9v11.2l5.6-9.7-5.6-1.5z"/><path class="st3" d="M356.6 89.6l-30.2 113.9"/><path class="st4" d="M324.1 200.9l.1 11.2 5.5-9.7-5.6-1.5z"/><path class="st3" d="M321.8 89.6l-30.1 113.9"/><path class="st4" d="M289.4 200.9v11.2l5.6-9.7-5.6-1.5z"/><path class="st3" d="M287.1 89.6l-30.2 113.9"/><path class="st4" d="M254.6 200.9v11.2l5.6-9.7-5.6-1.5z"/><path class="st3" d="M252.3 89.6l-30.2 113.9"/><path class="st4" d="M219.8 200.9v11.2l5.6-9.7-5.6-1.5z"/><path class="st3" d="M217.5 89.6l-30.2 113.9"/><path class="st4" d="M185 200.9l.1 11.2 5.5-9.7-5.6-1.5z"/><path class="st3" d="M182.7 89.6l-30.2 113.9"/><path class="st4" d="M150.2 200.9l.1 11.2 5.6-9.7-5.7-1.5z"/><path class="st3" d="M148 89.6l-30.2 113.9"/><path class="st4" d="M115.5 200.9v11.2l5.6-9.7-5.6-1.5z"/><path class="st3" d="M113.2 89.6L83 203.5"/><path class="st4" d="M80.7 200.9v11.2l5.6-9.7-5.6-1.5z"/><text transform="translate(65.377 49.45)" class="st5 st6">Bit 11</text><text transform="translate(99.823 49.45)" class="st5 st6">Bit 10</text><text transform="translate(138.462 49.45)" class="st5 st6">Bit 9</text><text transform="translate(173.219 49.45)" class="st5 st6">Bit 8</text><text transform="translate(206.975 49.45)" class="st5 st6">Bit 7</text><text transform="translate(242.06 49.45)" class="st5 st6">Bit 6</text><text transform="translate(276.802 49.45)" class="st5 st6">Bit 5</text><text transform="translate(311.652 49.45)" class="st5 st6">Bit 4</text><text transform="translate(346.898 49.45)" class="st5 st6">Bit 3</text><text transform="translate(381.154 49.45)" class="st5 st6">Bit 2</text><text transform="translate(416.121 49.45)" class="st5 st6">Bit 1</text><text transform="translate(450.878 49.45)" class="st5 st6">Bit 0</text><text transform="translate(17.83 83.922)" class="st5 st6">Binary</text><text transform="translate(14.153 119.314)" class="st5 st6">Decimal</text><text transform="translate(74.523 86.22)" class="st7 st8">0</text><text transform="translate(109.288 86.22)" class="st7 st8">0</text><text transform="translate(144.053 86.22)" class="st7 st8">0</text><text transform="translate(178.818 86.22)" class="st7 st8">0</text><text transform="translate(213.583 86.22)" class="st7 st8">0</text><text transform="translate(248.347 86.22)" class="st7 st8">0</text><text transform="translate(283.112 86.22)" class="st7 st8">0</text><text transform="translate(317.877 86.22)" class="st7 st8">1</text><text transform="translate(352.642 86.22)" class="st7 st8">0</text><text transform="translate(387.406 86.22)" class="st7 st8">1</text><text transform="translate(422.172 86.22)" class="st7 st8">1</text><text transform="translate(456.937 86.22)" class="st7 st8">0</text><text transform="translate(74.609 120.314)" class="st5 st8">0</text><text transform="translate(109.374 120.314)" class="st5 st8">0</text><text transform="translate(144.139 120.314)" class="st5 st8">0</text><text transform="translate(178.903 120.314)" class="st5 st8">0</text><text transform="translate(213.668 120.314)" class="st5 st8">0</text><text transform="translate(248.433 120.314)" class="st5 st8">0</text><text transform="translate(283.197 120.314)" class="st5 st8">0</text><text transform="translate(314.032 120.314)" class="st5 st8">16</text><text transform="translate(352.727 120.314)" class="st5 st8">0</text><text transform="translate(387.492 120.314)" class="st5 st8">4</text><text transform="translate(422.257 120.314)" class="st5 st8">2</text><text transform="translate(457.022 120.314)" class="st5 st8">0</text><text transform="translate(67.47 21.274)" class="st7 st6">MSB</text><text transform="translate(451.924 21.274)" class="st7 st6">LSB</text><text transform="translate(65.377 190.49)" class="st5 st6">Bit 11</text><text transform="translate(99.823 190.49)" class="st5 st6">Bit 10</text><text transform="translate(138.462 190.49)" class="st5 st6">Bit 9</text><text transform="translate(173.219 190.49)" class="st5 st6">Bit 8</text><text transform="translate(206.975 190.49)" class="st5 st6">Bit 7</text><text transform="translate(242.06 190.49)" class="st5 st6">Bit 6</text><text transform="translate(276.802 190.49)" class="st5 st6">Bit 5</text><text transform="translate(311.652 190.49)" class="st5 st6">Bit 4</text><text transform="translate(346.898 190.49)" class="st5 st6">Bit 3</text><text transform="translate(381.154 190.49)" class="st5 st6">Bit 2</text><text transform="translate(416.121 190.49)" class="st5 st6">Bit 1</text><text transform="translate(450.878 190.49)" class="st5 st6">Bit 0</text><text transform="translate(17.83 224.961)" class="st5 st6">Binary</text><text transform="translate(14.153 260.353)" class="st5 st6">Decimal</text><text transform="translate(74.523 227.26)" class="st7 st8">0</text><text transform="translate(109.288 227.26)" class="st7 st8">0</text><text transform="translate(144.053 227.26)" class="st7 st8">0</text><text transform="translate(178.818 227.26)" class="st7 st8">0</text><text transform="translate(213.583 227.26)" class="st7 st8">0</text><text transform="translate(248.347 227.26)" class="st7 st8">0</text><text transform="translate(283.112 227.26)" class="st7 st8">1</text><text transform="translate(317.877 227.26)" class="st7 st8">0</text><text transform="translate(352.642 227.26)" class="st7 st8">1</text><text transform="translate(387.406 227.26)" class="st7 st8">1</text><text transform="translate(422.172 227.26)" class="st7 st8">0</text><text transform="translate(456.937 227.26)" class="st7 st8">0</text><text transform="translate(74.609 261.353)" class="st5 st8">0</text><text transform="translate(109.374 261.353)" class="st5 st8">0</text><text transform="translate(144.139 261.353)" class="st5 st8">0</text><text transform="translate(178.903 261.353)" class="st5 st8">0</text><text transform="translate(213.668 261.353)" class="st5 st8">0</text><text transform="translate(248.433 261.353)" class="st5 st8">0</text><text transform="translate(279.267 261.353)" class="st5 st8">32</text><text transform="translate(317.963 261.353)" class="st5 st8">0</text><text transform="translate(352.727 261.353)" class="st5 st8">8</text><text transform="translate(387.492 261.353)" class="st5 st8">4</text><text transform="translate(422.257 261.353)" class="st5 st8">0</text><text transform="translate(457.022 261.353)" class="st5 st8">0</text><text transform="translate(484.778 114.175)" class="st9"><tspan x="0" y="0" class="st5 st6">Original pixel</tspan><tspan x="0" y="13.2" class="st5 st6">value:</tspan></text><text transform="translate(516.078 127.375)" class="st7 st6">22</text><text transform="translate(484.777 255.214)" class="st9"><tspan x="0" y="0" class="st5 st6">New pixel</tspan><tspan x="0" y="13.2" class="st5 st6">value:</tspan></text><text transform="translate(516.077 268.414)" class="st7 st6">44</text></svg>