<svg version="1.1" id="Ebene_1" xmlns="http://www.w3.org/2000/svg" x="0" y="0" viewBox="0 0 977 381.9" style="background-color:#fff" xml:space="preserve"><style>.st1,.st2,.st3{fill:none;stroke:#000;stroke-linecap:round;stroke-linejoin:round}.st1{stroke-miterlimit:10;stroke-width:.4252}.st2{stroke-width:.2835}.st3{stroke-width:.283;stroke-miterlimit:10}.st5{font-family:Helvetica,Arial,sans-serif}.st6{font-size:14px}</style><g id="BCL-100x15x"><path class="st1" d="M237.2 259v-9.9m-33.3-23.4h9.9m70.4 23.4l.1.5.1 1-.1 1.4-.3 1.4-.5 1.5m0 0l-.5 1.1-.1 1.2.1.9.2.7v.2m-3.5-.1l-.1-.5-.1-1 .1-1.4.3-1.5.5-1.2m0 0l.5-1.2.1-1.1-.1-.9-.2-.7-.1-.3m62.4-56v1.4m0-1.4h4.6m-4.6 82.5v1.4m0 0h4.6m-4.6-1.4v-6.2m0-68.6v-6.3m0 6.3v1.4m0 65.7v1.5m4.6-67.2H343m0 65.7v-65.7m186.8-7.7v81.1m0-81.1v-1.4m-4.5 0h4.5m-4.5 83.9h4.5m0 0v-1.4m-4.5-52.6v1.4m-177.7 0V223m177.7-11.3v1.4m-177.7 0v-1.4m177.7-5.7v1.4m-177.7 0V206m177.7 25.5v1.4m-177.7 0v-1.4m177.7-2.8v1.4m-177.7 0v-1.4m177.7-25.5v1.4m-177.7 0v-1.4m177.7 14.1v1.5m-177.7 0v-1.5m177.7-2.8v1.4m-177.7 0v-1.4m177.7 31.2v1.4m-177.7 0v-1.4m177.7-5.7v1.4m-177.7 0V240m177.7 2.9v1.4m-177.7 0v-1.4m177.7-34.1v1.5m-177.7 0v-1.5m177.7 17v1.5m-177.7 0v-1.5m177.7 11.4v1.4m-177.7 0v-1.4m177.7-2.8v1.4m-177.7 0v-1.4m177.7-14.2v1.4m-177.7 0v-1.4m177.7 28.3v1.4m-177.7 0v-1.4m177.7 2.9v1.4m-177.7 0v-1.4m177.7 2.8v1.4m-177.7 0v-1.4m177.7 8.5v1.4m-177.7 0v-1.4m177.7-5.7v1.4m-177.7 0V257m177.7 2.9v1.4m-177.7 0v-1.4m177.7 5.6v1.5m-177.7 0v-1.5m177.7-45.3v-1.4m0 0H347.6m0 0v1.4m177.7-8.5v-1.4m0 0H347.6m0 0v1.4m177.7 5.6v-1.4m0 0H347.6m0 0v1.4m177.7-8.5v-1.4m0 0H347.6m0 0v1.4m177.7-5.6V194m-177.7 9.2V194m177.7 20.5v-1.4m0 0H347.6m0 0v1.4M525.3 194v-1.5m-177.7 0v1.5m177.7 0H347.6m0-1.5h177.7m0 33.3v-1.4m0 0H347.6m0 0v1.4m177.7-2.8v-1.4m0 0H347.6m0 0v1.4m177.7 5.7v-1.4m0 0H347.6m0 0v1.4M525.3 206v-1.4m0 0H347.6m0 0v1.4m177.7 25.5v-1.4m0 0H347.6m0 0v1.4m177.7 2.9v-1.5m0 0H347.6m0 0v1.5m177.7 9.9v1.4m-177.7-1.4h177.7m-177.7 1.4v-1.4m177.7 5.6v1.5m-177.7-1.5h177.7m-177.7 1.5v-1.5m177.7-8.5v1.5m-177.7-1.5h177.7m-177.7 1.5v-1.5m177.7 5.7v1.4m-177.7-1.4h177.7m-177.7 1.4v-1.4m177.7-11.3v1.4m-177.7-1.4h177.7m-177.7 1.4v-1.4m177.7 2.8v1.4m-177.7-1.4h177.7M347.6 240v-1.4m177.7 22.7v1.4m-177.7-1.4h177.7m-177.7 1.4v-1.4m177.7-8.5v1.4m-177.7-1.4h177.7m-177.7 1.4v-1.4m177.7 2.8v1.4m-177.7-1.4h177.7M347.6 257v-1.4m177.7 8.5v1.4m-177.7-1.4h177.7m-177.7 1.4v-1.4m177.7-5.7v1.5m-177.7-1.5h177.7m-177.7 1.5v-1.5m177.7 19.2v-1.4m-177.7 0v1.4m0 0h177.7m-177.7-1.4V267m177.7 9.2V267m-177.7 0h177.7m5.4-4.3h-.9m.9-48.2h-.9m.9 0v48.2M343 249.1h-58.8m-1 9.9H343m-62.4-9.9h-43.4m0 9.9h42.5m-65.9-33.3v-75.1m-9.9-1.3v76.4m0 0l.2 3.7.6 3.7 1.1 3.6 1.4 3.4 1.8 3.3 2.2 3.1 2.4 2.7 2.8 2.5 3.1 2.2 3.2 1.8 3.5 1.4 3.6 1.1 3.7.6 3.7.2m0-9.9l-3.1-.2-3-.6-2.9-1-2.7-1.4-2.5-1.7-2.3-2-2.1-2.3-1.7-2.5-1.3-2.8-1-2.9-.6-3-.2-3m576.7 37.4v-49m4.6-4.5h1.7m-2.3 4.2v-4.2m0 0h2.9m-3.7-.9l.8.9m2.9 4.2h-2.9m-.8.9l.8-.9m2.9-4.2v4.2m.8.9l-.8-.9m0-4.2l.8-.9m-4.5 6v-6m0 0h4.5m0 0v6m0 0h-4.5m-26.1-.6h23.2m0 0v49m0 0h-23.2m0 0v-49m45.2-20.1v82.2m-1.4-83.7l.3.1.2.1.3.1.2.2.2.2.1.2.1.3v.3m-5-1.5h3.6m-3.6 0v.6h-1.4v-.6m-1.4 0h1.4m-1.4 0v.6h-1.4v-.6m-10.6 0h10.6m-10.6 0v.6h-1.5v-.6m-1.4 0h1.4m-1.4 0v.6h-1.4v-.6m-1.4 0h1.4m-1.4 0v.6h-1.4v-.6m-1.5 0h1.5m-1.5 0v.6H783v-.6m-1.4 0h1.4m-1.4 0v.6h-1.4v-.6m-8.9 0h8.9m-8.9 0v.6h-7.4v-.6m-6.4 0h6.4m-7.8 1.5v-.3l.1-.3.1-.2.2-.2.2-.2.3-.1.2-.1.3-.1m-1.4 10.7V194m0 9.2h.7m0 0h.3l.2.2.2.2v.6l-.2.2-.2.1-.3.1m0 0h-.7m0 1.4v-1.4m0 1.4h.7m0 0l.3.1.2.1.2.2v.6l-.2.2-.2.2h-.3m0 0h-.7m0 1.4v-1.4m0 1.4h.7m0 0l.3.1.2.1.2.3v.5l-.2.3-.2.1-.3.1m0 0h-.7m0 1.4v-1.4m0 1.4h.7m0 0h.3l.2.2.2.2v.6l-.2.2-.2.1-.3.1m0 0h-.7m0 1.4v-1.4m0 1.4h.7m0 0l.3.1.2.1.2.2v.6l-.2.2-.2.2h-.3m0 0h-.7m0 1.4v-1.4m0 1.4h.7m0 0l.3.1.2.2.2.2v.5l-.2.3-.2.1-.3.1m0 0h-.7m0 1.4v-1.4m0 1.4h.7m0 0h.3l.2.2.2.2v.6l-.2.2-.2.1-.3.1m0 0h-.7m0 1.4v-1.4m0 1.4h.7m0 0l.3.1.2.1.2.3v.5l-.2.2-.2.2h-.3m0 0h-.7m0 1.4v-1.4m0 1.4h.7m0 0l.3.1.2.2.2.2v.5l-.2.3-.2.1-.3.1m0 0h-.7m0 1.4v-1.4m0 1.4h.7m0 0h.3l.2.2.2.2v.6l-.2.2-.2.1-.3.1m0 0h-.7m0 1.4v-1.4m0 1.4h.7m0 0l.3.1.2.1.2.3v.5l-.2.2-.2.2h-.3m0 0h-.7m0 1.5v-1.5m0 1.5h.7m0 0h.3l.2.2.2.2v.5l-.2.3-.2.1-.3.1m-.7 0h.7m-.7 0v1.4m.7 0h-.7m.7 0h.3l.2.2.2.2v.6l-.2.2-.2.2h-.3m-.7 0h.7m-.7 0v1.4m.7 0h-.7m.7 0l.3.1.2.1.2.3v.5l-.2.2-.2.2h-.3m-.7 0h.7m-.7 0v1.5m.7 0h-.7m.7 0h.3l.2.2.2.2v.5l-.2.3-.2.1-.3.1m-.7 0h.7m-.7 0v1.4m.7 0h-.7m.7 0h.3l.2.2.2.2v.6l-.2.2-.2.2h-.3m-.7 0h.7m-.7 0v1.4m.7 0h-.7m.7 0l.3.1.2.1.2.3v.5l-.2.2-.2.2h-.3m-.7 0h.7m-.7 0v1.5m.7 0h-.7m.7 0h.3l.2.2.2.2v.5l-.2.3-.2.1-.3.1m-.7 0h.7m-.7 0v1.4m.7 0h-.7m.7 0l.3.1.2.1.2.2v.6l-.2.2-.2.2h-.3m-.7 0h.7m-.7 0v1.4m.7 0h-.7m.7 0l.3.1.2.1.2.3v.5l-.2.2-.2.2h-.3m-.7 0h.7m-.7 0v1.5m.7 0h-.7m.7 0h.3l.2.2.2.2v.5l-.2.3-.2.1-.3.1m-.7 0h.7m-.7 0v1.4m.7 0h-.7m.7 0l.3.1.2.1.2.2v.6l-.2.2-.2.2h-.3m-.7 0h.7m-.7 0v1.4m.7 0h-.7m.7 0l.3.1.2.1.2.3v.5l-.2.2-.2.2-.3.1m-.7 0h.7m-.7 9.2V267m1.4 10.6h-.3l-.2-.1-.3-.2-.2-.1-.2-.2-.1-.3-.1-.3v-.2m7.8 1.4h-6.4m13.8 0v-.6h-7.4v.6m16.3 0h-8.9m10.3 0v-.6h-1.4v.6m1.4 0h1.4m1.4 0v-.6H783v.6m1.4 0h1.5m1.4 0v-.6h-1.4v.6m1.4 0h1.4m1.4 0v-.6h-1.4v.6m1.4 0h1.4m1.5 0v-.6h-1.5v.6m12.1 0H793m12 0v-.6h-1.4v.6m1.4 0h1.4m1.4 0v-.6h-1.4v.6m1.4 0h3.6m1.4-1.4v.2l-.1.3-.1.3-.2.2-.2.1-.3.2-.2.1h-.3M768 214.5h-.4m20.8 6.4v-2.8m0 0v2.8m0-3.6v4.3m-3.4 31.2h3.4m0 3.5v-2.8m0 0v2.8m0-3.5v4.2M768 214.5v48.2m17-5v2.2m0-2.9v-4.2m0-31.2v-4.3m0 0v2.2m0 0v2.8m0 0v4.3m0 0v2.8m0 0v4.2m0 0v2.9m0 0v4.2m0 0v2.9m0 0v4.2m0 0v2.9m0 0v4.2m0 0v2.8m0-40.4h3.4m-15.1 0H785m0 4.3v31.2m3.4 0H785m3.4 4.2v-4.2M785 257h3.4m-3.4 0v2.9m0 0h-11.7m0-2.2v2.2m0-9.2v4.2m0-11.3v4.2m0-11.3v4.2m0-11.3v4.2m0-11.3v4.3m0-9.3v2.2m0-2.2h15.1m0 4.3v-4.3m-3.4 4.3h3.4m2-7.1H768m14 0h8.5M768 262.7h22.5m-9-40.4h3.5m0-2.8h-3.5m0 2.8h3.5m-11.7 0h3.9m-3.9 0h3.9m0-2.8h-3.9m-1.9 2.8v1.4m1.9-4.2h-1.9m0-1.4h-1.7m1.7 0v1.4m0 2.8h1.9m-1.9 1.4v-1.4m-1.7 1.4h1.7m-1.7 0v-5.6m1.7 0h-1.7m1.7 1.4v-1.4m1.9 1.4h-1.9"/><circle class="st1" cx="779.4" cy="220.9" r="2.6"/><circle class="st1" cx="779.4" cy="220.9" r="1.7"/><path class="st1" d="M778.4 220h2v2h-2v-2zm3.1 37.8h3.5m0-2.8h-3.5m0 2.8h3.5m-11.7 0h3.9m-3.9 0h3.9m0-2.8h-3.9m-1.9 2.8v1.4m1.9-4.2h-1.9m0-1.4h-1.7m1.7 0v1.4m0 2.8h1.9m-1.9 1.4v-1.4m-1.7 1.4h1.7m-1.7 0v-5.6m1.7 0h-1.7m1.7 1.4v-1.4m1.9 1.4h-1.9"/><circle class="st1" cx="779.4" cy="256.4" r="2.6"/><circle class="st1" cx="779.4" cy="256.4" r="1.7"/><path class="st1" d="M778.4 255.4h2v2h-2v-2zm3.1-4.7h3.5m0-2.8h-3.5m0 2.8h3.5m-11.7 0h3.9m-3.9 0h3.9m0-2.8h-3.9m-1.9 2.8v1.4m1.9-4.2h-1.9m0-1.4h-1.7m1.7 0v1.4m0 2.8h1.9m-1.9 1.4v-1.4m-1.7 1.4h1.7m-1.7 0v-5.6m1.7 0h-1.7m1.7 1.4v-1.4m1.9 1.4h-1.9"/><circle class="st1" cx="779.4" cy="249.3" r="2.6"/><circle class="st1" cx="779.4" cy="249.3" r="1.7"/><path class="st1" d="M778.4 248.3h2v2h-2v-2zm3.1-4.7h3.5m0-2.8h-3.5m0 2.8h3.5m-11.7 0h3.9m-3.9 0h3.9m0-2.8h-3.9m-1.9 2.8v1.4m1.9-4.2h-1.9m0-1.4h-1.7m1.7 0v1.4m0 2.8h1.9m-1.9 1.4v-1.4m-1.7 1.4h1.7m-1.7 0v-5.6m1.7 0h-1.7m1.7 1.4v-1.4m1.9 1.4h-1.9"/><circle class="st1" cx="779.4" cy="242.2" r="2.6"/><circle class="st1" cx="779.4" cy="242.2" r="1.7"/><path class="st1" d="M778.4 241.2h2v2h-2v-2zm3.1-4.7h3.5m0-2.8h-3.5m0 2.8h3.5m-11.7 0h3.9m-3.9 0h3.9m0-2.8h-3.9m-1.9 2.8v1.4m1.9-4.2h-1.9m0-1.4h-1.7m1.7 0v1.4m0 2.8h1.9m-1.9 1.4v-1.4m-1.7 1.4h1.7m-1.7 0v-5.6m1.7 0h-1.7m1.7 1.4v-1.4m1.9 1.4h-1.9"/><circle class="st1" cx="779.4" cy="235.1" r="2.6"/><circle class="st1" cx="779.4" cy="235.1" r="1.7"/><path class="st1" d="M778.4 234.1h2v2h-2v-2zm3.1-4.7h3.5m0-2.8h-3.5m0 2.8h3.5m-11.7 0h3.9m-3.9 0h3.9m0-2.8h-3.9m-1.9 2.8v1.4m1.9-4.2h-1.9m0-1.4h-1.7m1.7 0v1.4m0 2.8h1.9m-1.9 1.4v-1.4m-1.7 1.4h1.7m-1.7 0v-5.6m1.7 0h-1.7m1.7 1.4v-1.4m1.9 1.4h-1.9"/><circle class="st1" cx="779.4" cy="228" r="2.6"/><circle class="st1" cx="779.4" cy="228" r="1.7"/><path class="st1" d="M778.4 227h2v2h-2v-2zM768 214.5v48.6M220.8 93.9h286.3M220.8 101h286.3m-286.3 42.5h286.3m-286.3 7.1h286.3m-284.9-36.9V101m0 42.5v-12.8m283.5-17V101m0 42.5v-12.8m18.4-35.4v53.9m0 0l-1.4 1.4m-15.6-56.7h15.6m-15.6 0v56.7m0 0h15.6m0-56.7l1.4 1.4m-19.8 35.3v-16.7m-280.7 16.7v-16.7m-18.4-20l-1.4 1.4m0 0v53.9m17-55.3h-15.6m-1.4 55.3l1.4 1.4m15.6 0h-15.6m15.6-56.7v56.7m283.5-19.8h2.8m0-17h-2.8m-283.5 17h2.8m0-17h-2.8M823 149.2v1.4m-17 0v-1.4m17 1.4h-17m17-55.3v53.9m-17 0V95.3m0 53.9h17m0-55.3v1.4m-17 0v-1.4m17 1.4h-17m0-1.4h17m-17 55.3v1.4m-39.7-1.4v1.4m0 0H806m0-1.4V95.3m0 53.9h-39.7m0-53.9v53.9M806 95.3v-1.4m0 0h-39.7m0 0v1.4m0 0H806m0 97.3v-42m-9.9 0v42"/><circle class="st1" cx="794.7" cy="122.6" r="3.4"/><path class="st1" d="M790.5 123.7c-.1-.3-.1-.7-.1-1.1 0-2.4 2-4.3 4.4-4.3s4.4 1.9 4.4 4.3-2 4.3-4.4 4.3c-.4 0-.7 0-1.1-.1"/><circle class="st1" cx="210.8" cy="110.8" r="6.4"/><circle class="st1" cx="210.8" cy="110.8" r="5"/><path class="st1" d="M212.2 108.4h-2.8l-1.4 2.4 1.4 2.4h2.8l1.4-2.4-1.4-2.4z"/><circle class="st1" cx="210.8" cy="133.7" r="6.4"/><circle class="st1" cx="210.8" cy="133.7" r="5"/><path class="st1" d="M212.2 131.3h-2.8l-1.4 2.4 1.4 2.4h2.8l1.4-2.4-1.4-2.4z"/><circle class="st1" cx="212.3" cy="122.1" r="1.8"/><path class="st1" d="M209.5 122.8c-.1-.2-.1-.5-.1-.7 0-1.6 1.3-2.8 2.8-2.8s2.8 1.3 2.8 2.8-1.3 2.8-2.8 2.8c-.2 0-.5 0-.7-.1"/><circle transform="matrix(.04971 -.9988 .9988 .04971 380.43 621.653)" class="st1" cx="516.9" cy="110.9" r="6.4"/><circle class="st1" cx="516.9" cy="110.8" r="5"/><path class="st1" d="M515.5 108.4h2.8l1.4 2.4-1.4 2.4h-2.8l-1.4-2.4 1.4-2.4z"/><circle transform="rotate(-20.06 516.844 133.707)" class="st1" cx="516.9" cy="133.7" r="6.4"/><circle class="st1" cx="516.9" cy="133.7" r="5"/><path class="st1" d="M515.5 131.3h2.8l1.4 2.4-1.4 2.4h-2.8l-1.4-2.4 1.4-2.4z"/><circle class="st1" cx="515.4" cy="122.1" r="1.8"/><path class="st1" d="M512.7 122.8c-.1-.2-.1-.5-.1-.7 0-1.6 1.3-2.8 2.8-2.8s2.8 1.3 2.8 2.8-1.3 2.8-2.8 2.8c-.2 0-.5 0-.7-.1"/><circle class="st1" cx="498.6" cy="109.4" r="5.4"/><circle class="st1" cx="498.6" cy="109.4" r="4"/><circle class="st1" cx="498.6" cy="135" r="5.4"/><circle class="st1" cx="498.6" cy="135" r="4"/><circle class="st1" cx="498.6" cy="122.2" r="5.4"/><circle class="st1" cx="498.6" cy="122.2" r="4"/><circle class="st1" cx="484.5" cy="109.4" r="5.4"/><circle class="st1" cx="484.5" cy="109.4" r="4"/><circle class="st1" cx="484.5" cy="135" r="5.4"/><circle class="st1" cx="484.5" cy="135" r="4"/><circle class="st1" cx="484.5" cy="122.2" r="5.4"/><circle class="st1" cx="484.5" cy="122.2" r="4"/><circle class="st1" cx="470.3" cy="109.4" r="5.4"/><circle class="st1" cx="470.3" cy="109.4" r="4"/><circle class="st1" cx="470.3" cy="135" r="5.4"/><circle class="st1" cx="470.3" cy="135" r="4"/><circle class="st1" cx="470.3" cy="122.2" r="5.4"/><circle class="st1" cx="470.3" cy="122.2" r="4"/><circle class="st1" cx="456.1" cy="109.4" r="5.4"/><circle class="st1" cx="456.1" cy="109.4" r="4"/><circle class="st1" cx="456.1" cy="135" r="5.4"/><circle class="st1" cx="456.1" cy="135" r="4"/><circle class="st1" cx="456.1" cy="122.2" r="5.4"/><circle class="st1" cx="456.1" cy="122.2" r="4"/><circle class="st1" cx="441.9" cy="109.4" r="5.4"/><circle class="st1" cx="441.9" cy="109.4" r="4"/><circle class="st1" cx="441.9" cy="135" r="5.4"/><circle class="st1" cx="441.9" cy="135" r="4"/><circle class="st1" cx="441.9" cy="122.2" r="5.4"/><circle class="st1" cx="441.9" cy="122.2" r="4"/><circle class="st1" cx="427.8" cy="109.4" r="5.4"/><circle class="st1" cx="427.8" cy="109.4" r="4"/><circle class="st1" cx="427.8" cy="135" r="5.4"/><circle class="st1" cx="427.8" cy="135" r="4"/><circle class="st1" cx="427.8" cy="122.2" r="5.4"/><circle class="st1" cx="427.8" cy="122.2" r="4"/><circle class="st1" cx="413.6" cy="109.4" r="5.4"/><circle class="st1" cx="413.6" cy="109.4" r="4"/><circle class="st1" cx="413.6" cy="135" r="5.4"/><circle class="st1" cx="413.6" cy="135" r="4"/><circle class="st1" cx="413.6" cy="122.2" r="5.4"/><circle class="st1" cx="413.6" cy="122.2" r="4"/><circle class="st1" cx="399.4" cy="109.4" r="5.4"/><circle class="st1" cx="399.4" cy="109.4" r="4"/><circle class="st1" cx="399.4" cy="135" r="5.4"/><circle class="st1" cx="399.4" cy="135" r="4"/><circle class="st1" cx="399.4" cy="122.2" r="5.4"/><circle class="st1" cx="399.4" cy="122.2" r="4"/><circle class="st1" cx="385.3" cy="109.4" r="5.4"/><circle class="st1" cx="385.3" cy="109.4" r="4"/><circle class="st1" cx="385.3" cy="135" r="5.4"/><circle class="st1" cx="385.3" cy="135" r="4"/><circle class="st1" cx="385.3" cy="122.2" r="5.4"/><circle class="st1" cx="385.3" cy="122.2" r="4"/><circle class="st1" cx="371.1" cy="109.4" r="5.4"/><circle class="st1" cx="371.1" cy="109.4" r="4"/><circle class="st1" cx="371.1" cy="135" r="5.4"/><circle class="st1" cx="371.1" cy="135" r="4"/><circle class="st1" cx="371.1" cy="122.2" r="5.4"/><circle class="st1" cx="371.1" cy="122.2" r="4"/><circle class="st1" cx="356.9" cy="109.4" r="5.4"/><circle class="st1" cx="356.9" cy="109.4" r="4"/><circle class="st1" cx="356.9" cy="135" r="5.4"/><circle class="st1" cx="356.9" cy="135" r="4"/><circle class="st1" cx="356.9" cy="122.2" r="5.4"/><circle class="st1" cx="356.9" cy="122.2" r="4"/><circle class="st1" cx="342.7" cy="109.4" r="5.4"/><circle class="st1" cx="342.7" cy="109.4" r="4"/><circle class="st1" cx="342.7" cy="135" r="5.4"/><circle class="st1" cx="342.7" cy="135" r="4"/><circle class="st1" cx="342.7" cy="122.2" r="5.4"/><circle class="st1" cx="342.7" cy="122.2" r="4"/><circle class="st1" cx="328.6" cy="109.4" r="5.4"/><circle class="st1" cx="328.6" cy="109.4" r="4"/><circle class="st1" cx="328.6" cy="135" r="5.4"/><circle class="st1" cx="328.6" cy="135" r="4"/><circle class="st1" cx="328.6" cy="122.2" r="5.4"/><circle class="st1" cx="328.6" cy="122.2" r="4"/><circle class="st1" cx="314.4" cy="109.4" r="5.4"/><circle class="st1" cx="314.4" cy="109.4" r="4"/><circle class="st1" cx="314.4" cy="135" r="5.4"/><circle class="st1" cx="314.4" cy="135" r="4"/><circle class="st1" cx="314.4" cy="122.2" r="5.4"/><circle class="st1" cx="314.4" cy="122.2" r="4"/><circle class="st1" cx="300.2" cy="109.4" r="5.4"/><circle class="st1" cx="300.2" cy="109.4" r="4"/><circle class="st1" cx="300.2" cy="135" r="5.4"/><circle class="st1" cx="300.2" cy="135" r="4"/><circle class="st1" cx="300.2" cy="122.2" r="5.4"/><circle class="st1" cx="300.2" cy="122.2" r="4"/><circle class="st1" cx="286" cy="109.4" r="5.4"/><circle class="st1" cx="286" cy="109.4" r="4"/><circle class="st1" cx="286" cy="135" r="5.4"/><circle class="st1" cx="286" cy="135" r="4"/><circle class="st1" cx="286" cy="122.2" r="5.4"/><circle class="st1" cx="286" cy="122.2" r="4"/><circle class="st1" cx="271.9" cy="109.4" r="5.4"/><circle class="st1" cx="271.9" cy="109.4" r="4"/><circle class="st1" cx="271.9" cy="135" r="5.4"/><circle class="st1" cx="271.9" cy="135" r="4"/><circle class="st1" cx="271.9" cy="122.2" r="5.4"/><circle class="st1" cx="271.9" cy="122.2" r="4"/><circle class="st1" cx="257.7" cy="109.4" r="5.4"/><circle class="st1" cx="257.7" cy="109.4" r="4"/><circle class="st1" cx="257.7" cy="135" r="5.4"/><circle class="st1" cx="257.7" cy="135" r="4"/><circle class="st1" cx="257.7" cy="122.2" r="5.4"/><circle class="st1" cx="257.7" cy="122.2" r="4"/><circle class="st1" cx="243.5" cy="109.4" r="5.4"/><circle class="st1" cx="243.5" cy="109.4" r="4"/><circle class="st1" cx="243.5" cy="135" r="5.4"/><circle class="st1" cx="243.5" cy="135" r="4"/><circle class="st1" cx="243.5" cy="122.2" r="5.4"/><circle class="st1" cx="243.5" cy="122.2" r="4"/><circle class="st1" cx="229.3" cy="109.4" r="5.4"/><circle class="st1" cx="229.3" cy="109.4" r="4"/><circle class="st1" cx="229.3" cy="135" r="5.4"/><circle class="st1" cx="229.3" cy="135" r="4"/><circle class="st1" cx="229.3" cy="122.2" r="5.4"/><circle class="st1" cx="229.3" cy="122.2" r="4"/></g><g id="Dimensions"><path class="st2" d="M350.5 337.1h172.7"/><path d="M352.2 339.6l-9.2-2.5 9.2-2.5v5zm169.3 0l9.2-2.5-9.2-2.5v5z"/><path class="st3" d="M530.7 262.7V340m66.2-306.2v66.8M756 276.4v49.4m57-49.4v49.4M343 277v63"/><path class="st2" d="M805.8 324.1h-41.6"/><path d="M804.1 321.6l9.3 2.5-9.3 2.4v-4.9zm-38.2 0l-9.2 2.5 9.2 2.4v-4.9z"/><path class="st2" d="M861.1 86.5V75.6"/><path d="M863.6 84.8l-2.5 9.2-2.5-9.2h5z"/><path class="st3" d="M823 93.8h40.9m-2.8 28.7V94"/><path class="st2" d="M861.1 130.1v10.4"/><path d="M858.6 131.7l2.5-9.2 2.5 9.2h-5z"/><path class="st3" d="M788.8 122.5h75.1"/><path class="st2" d="M559 270.1v-70"/><path d="M561.5 268.4l-2.5 9.2-2.5-9.2h5zm0-66.6l-2.5-9.3-2.5 9.3h5z"/><path class="st3" d="M525.3 192.5h36.6m-36.6 85.1h36.6m35-134.6v-39m0 46.5V143"/><path class="st2" d="M596.9 158v19.8"/><path d="M594.4 159.7l2.5-9.2 2.5 9.2h-5z"/><path class="st3" d="M521.8 150.5h77.9M220.9 71.9h18m-35.1 0h17.1"/><path class="st2" d="M196.2 71.9h-21.7"/><path d="M194.5 69.5l9.3 2.4-9.3 2.5v-4.9z"/><path class="st3" d="M220.9 93.6V69"/><path class="st2" d="M228.4 71.9h271.3"/><path d="M230.1 74.4l-9.2-2.5 9.2-2.4v4.9zm267.9 0l9.2-2.5-9.2-2.4v4.9z"/><path class="st3" d="M507.2 93.6V69M212 122.1h-77.6m2.8 28.5v-28.5"/><path class="st2" d="M137.2 175v-16.5"/><path d="M139.7 160.1l-2.5-9.2-2.5 9.2h5z"/><path class="st2" d="M137.2 97.8v16.6"/><path d="M134.7 112.7l2.5 9.2 2.5-9.2h-5z"/><path class="st3" d="M129.5 56.6H13.4"/><path class="st2" d="M206.4 117.3l-76.9-60.6"/><path d="M206.6 114.4l5.7 7.6-8.8-3.8 3.1-3.8z"/><path class="st3" d="M711.9 56.9h-92.5"/><path class="st2" d="M788.8 117.6L711.9 57"/><path d="M789 114.7l5.7 7.6-8.8-3.8 3.1-3.8z"/><path class="st3" d="M203.9 172.4h8.4"/><path class="st2" d="M196.4 172.4h-22.5"/><path d="M194.7 170l9.2 2.4-9.2 2.5V170z"/><path class="st2" d="M211.3 37.9h305.4"/><path d="M213 40.4l-9.2-2.5 9.2-2.4v4.9zm302 0l9.2-2.5-9.2-2.4v4.9z"/><path class="st3" d="M524.2 95.7V35M203.8 95.3V35"/><path class="st2" d="M596.9 108.2v27.3"/><path d="M594.4 109.9l2.5-9.2 2.5 9.2h-5zm0 23.9l2.5 9.2 2.5-9.2h-5z"/><path class="st3" d="M506.7 143.4h93m-94.1-42.7h94.1"/><path class="st2" d="M86.2 102.1v41"/><path d="M83.7 103.8l2.5-9.3 2.5 9.3h-5zm0 37.6l2.5 9.2 2.5-9.2h-5z"/><path class="st3" d="M205.4 150.6h-122m122-56.7h-122"/><path class="st2" d="M830.6 69.7h13.9"/><path d="M832.3 72.2l-9.3-2.5 9.3-2.4v4.9z"/><path class="st3" d="M794.7 69.7H823"/><path class="st2" d="M787.2 69.7h-10.5"/><path d="M785.5 67.3l9.2 2.4-9.2 2.5v-4.9z"/><path class="st3" d="M794.7 127.6V66.9"/><path class="st2" d="M773.8 46.8h41.7"/><path d="M775.5 49.3l-9.2-2.5 9.2-2.4v4.9zm38.3 0l9.2-2.5-9.2-2.4v4.9z"/><path class="st3" d="M823 93.4V43.9m-56.7 49.9V43.9"/><path class="st2" d="M219.8 172.4h288.1"/><path d="M221.5 174.9l-9.2-2.5 9.2-2.4v4.9zm284.7 0l9.2-2.5-9.2-2.4v4.9z"/><path class="st3" d="M212.3 122v53.2m303.1-52.7v52.7"/></g><path id="Middle_Lines" d="M206 122.1h12.9m-6.6 0v-6.9m295.8 6.8h14.6m-7.3 0v-7.3" fill="none" stroke="#000" stroke-width=".283" stroke-linecap="round" stroke-linejoin="round" stroke-miterlimit="10" stroke-dasharray="2.8346,1.4173,.5669,1.4173"/><g id="Text_1_"><text transform="translate(350.606 32.04)" class="st5 st6">113</text><text transform="translate(296.775 66.055)" class="st5 st6">101 (Emitting area)</text><text transform="translate(181.718 66.055)" class="st5 st6">6</text><text transform="translate(331.892 166.488)" class="st5 st6">107</text><text transform="rotate(-90 104.274 24.55)" class="st5 st6">20</text><text transform="rotate(-90 137.736 6.421)" class="st5 st6">10</text><text transform="rotate(-90 317.562 -241.38)" class="st5 st6">15</text><text transform="rotate(-90 335.862 -239.88)" class="st5 st6">(Emitting</text><text transform="rotate(-90 338.662 -253.88)" class="st5 st6">area)</text><text transform="rotate(-90 486.013 -370.558)" class="st5 st6">10</text><text transform="rotate(-90 384.152 -206.195)" class="st5 st6">2.5</text><text transform="translate(180.94 166.488)" class="st5 st6">3</text><text transform="translate(40.458 51.01)" class="st5 st6">2 x M2 x 6</text><text transform="translate(13.658 75.01)" class="st5 st6">(for optional parts)</text><text transform="translate(648.136 51.312)" class="st5 st6">M3 x 5</text><text transform="translate(625.936 75.312)" class="st5 st6">On both sides</text><text transform="translate(618.936 92.112)" class="st5 st6">(for installation)</text><text transform="translate(786.795 41.947)" class="st5 st6">20</text><text transform="translate(801.116 65.003)" class="st5 st6">10</text><text transform="translate(420.245 330.392)" class="st5 st6">66.2</text><text transform="translate(409.6 293.824)" class="st5 st6">Controller</text><text transform="translate(775.348 316.218)" class="st5 st6">20</text><text transform="rotate(-90 398.94 -153.32)" class="st5 st6">30</text><text transform="translate(201.915 278.007)" class="st5 st6">Cable length 500</text><text transform="translate(861.1 362.144)" class="st5 st6">Not to scale</text><text transform="translate(861.1 374.544)" class="st5 st6">Dimensions in mm</text><path d="M277 237.9h16-16z" fill="none"/></g><text transform="translate(625.936 216)" class="st5 st6">For pin connection</text><text transform="translate(625.936 232.8)" class="st5 st6">(refer to</text><text transform="translate(625.936 249.6)" class="st5 st6">camera</text><text transform="translate(625.936 266.4)" class="st5 st6">specifications)</text></svg>