<svg version="1.1" id="Layer_1" xmlns="http://www.w3.org/2000/svg" x="0" y="0" viewBox="0 0 649.5 218.9" style="background-color:#fff" xml:space="preserve"><style>.st1,.st11,.st2,.st6{fill:none;stroke:#000;stroke-miterlimit:3.8637}.st1{stroke-dasharray:12,2,2,2;stroke-width:.25}.st2{stroke-width:.5}.st6{stroke-width:.3402}.st11{stroke-width:.2268}.st13{font-family:Helvetica,Arial,sans-serif}.st14{font-size:10px}</style><path class="st1" d="M645.3 82.7H423.5"/><path class="st2" d="M619.9 56.6c0-2.4-1.9-4-4-4-2.4 0-4 1.6-4 4 0 2.1 1.6 4 4 4 2.1 0 4-1.9 4-4zm0 10.3c0-2.4-1.9-4-4-4-2.4 0-4 1.6-4 4 0 2.1 1.6 4 4 4 2.1 0 4-1.8 4-4zm0 41.7c0-2.4-1.9-4-4-4-2.4 0-4 1.6-4 4 0 2.1 1.6 4 4 4 2.1 0 4-1.9 4-4z"/><path d="M619.9 87.9c0-2.4-1.9-4-4-4-2.4 0-4 1.6-4 4 0 2.1 1.6 4 4 4 2.1 0 4-1.9 4-4zm0 10.4c0-2.4-1.9-4-4-4-2.4 0-4 1.6-4 4 0 2.1 1.6 4 4 4 2.1-.1 4-1.9 4-4zm0-20.7c0-2.4-1.9-4-4-4-2.4 0-4 1.6-4 4 0 2.1 1.6 4 4 4 2.1-.1 4-1.9 4-4zM423.5 73h27.4" fill="none" stroke="#000" stroke-width=".5" stroke-miterlimit="3.864"/><path d="M545.4 84.8S561 86 571 90c20.7 7.9 25.8 15.1 25.8 15.1m-51.4-17.9s12.3 2 25.4 9.4c14 7.7 20.2 15.6 20.2 15.6m-45.6-30.9l66.5-3.7m-66.5-.9l66.5-20.1m-66.5 22.5l66.5-12.2m-66.5 22.7s8.5 1.4 24.1 12.9c12 9.4 15.6 17.1 15.6 17.1" fill="none" stroke="#000" stroke-width=".391" stroke-miterlimit="3.864"/><path class="st2" d="M264.3 73h47.5m-48 19.5h47.9m111.8 0h27.4M152.2 61.4l2.9-2.3h55.1L213 61v44.8l-2.8 1.8h-55l-3-2.3V61.4zm2.7-2.3v48.5m55.3 0V59.1m-130.1-.5h55.1l2.8 1.9v44.8l-2.8 1.9H80.3m-.4-48.6v48.6m55.3 0V58.6"/><path d="M263.8 70.8V95" fill="none" stroke="#000" stroke-width=".425" stroke-miterlimit="3.864"/><path class="st2" d="M453.9 73h39.6m-39.6 19.5h39.7"/><path class="st6" d="M86.4 40.8h177.5"/><path d="M86.4 39.1v3.4l-6.2-1.7 6.2-1.7zm170.4 0v3.4l6.2-1.7-6.2-1.7z"/><path class="st6" d="M80.4 58.4V38.8m183.5 29.8V39.4"/><path class="st1" d="M450.9 70.1v26.8"/><path d="M453.9 70.1v26.8" fill="none" stroke="#000" stroke-width=".25" stroke-miterlimit="3.864" stroke-dasharray="12,2,2,2,2,2"/><path class="st6" d="M70.2 102.9V65.1m9.3 42H68.7"/><path d="M68.4 65.4h3.4l-1.6-6.5-1.8 6.5z"/><path class="st6" d="M79.5 58.6H68.7"/><path d="M71.8 100.1h-3.4l1.7 6.5 1.7-6.5z"/><path class="st1" d="M311.7 82.9l-236.6-.2"/><path class="st6" d="M80.4 177.3v-65.9m560.4 66V127M86.4 173.8h551.7"/><path d="M86.4 172v3.4l-6.2-1.6 6.2-1.8zm548.2 3.5V172l6.2 1.7-6.2 1.8z"/><path class="st6" d="M311.8 92.7V72.9m-21.9 35.6V31.1"/><path d="M288.1 98.7h3.5l-1.7-6.2-1.8 6.2zm3.5-31.1h-3.5l1.7 6.1 1.8-6.1z"/><path d="M138 99.1h14.2m0-32.5H138m75 0l50.8 4.2m-158 36.4V58.6m24.1 48.6V58.6M263.8 95L213 99.1" fill="none" stroke="#020405" stroke-width=".5" stroke-linecap="round" stroke-linejoin="round" stroke-miterlimit="10"/><path d="M106.1 58.6l24 16.2m-17.7-16l17.7 11.9m-11.7-11.9l11.7 7.9m-5.7-7.9l5.7 3.8m-24 0l24 16.2m-24-12.1l24 16.2m-24-12.2l24 16.2m-24-12.1l24 16.2m-24-12.2l24 16.2m-24-12.1l24 16.1m-24-12.1l24 16.2m-24-12.1l24 16.1m-24-12.1l18.1 12.2M106.1 99l12 8.2m-12-4.1l6 4.1m18-48.6l-24 16.2m17.7-16l-17.7 11.9m11.7-11.9l-11.7 7.9m5.7-7.9l-5.7 3.8m24 0l-24 16.2m24-12.1l-24 16.2m24-12.2l-24 16.2m24-12.1l-24 16.2m24-12.2l-24 16.2m24-12.1l-24 16.1m24-12.1l-24 16.2m24-12.1l-24 16.1m24-12.1L112 107.2m18.1-8.2l-12 8.2m12-4.1l-6 4.1" fill="none" stroke="#000" stroke-width=".25" stroke-miterlimit="3.864"/><path d="M311.8 62.5h111.7v42.3H311.8V62.5z" fill="none" stroke="#000" stroke-width=".309" stroke-miterlimit="3.864"/><path class="st11" d="M50.9 29.1l29.5 29.5"/><path class="st2" d="M609.8 39.9h31.1v83.3h-31.1V39.9z"/><path class="st6" d="M551.6 15.1h58.2"/><path d="M551.6 13.3v3.5l-6.2-1.7 6.2-1.8zm52 0v3.5l6.2-1.7-6.2-1.8z"/><path class="st6" d="M545.4 69.9V13.6"/><path class="st2" d="M493.6 71.1v23.4h33.5l3.8-1.8V73l-3.8-1.9h-33.5zm33.5 23.4V71.1m3.8 21.4h14.5V73h-14.5"/><path class="st6" d="M609.8 36.9V13.6"/><path class="st11" d="M579.9 152.7l29.5-29.4"/><path d="M367.7 135.2v-30.4" fill="none" stroke="#000" stroke-width=".227" stroke-miterlimit="3.864"/><text transform="translate(566.793 12.417)" class="st13 st14">30+5</text><text transform="translate(533.976 160.196)" class="st13 st14">TBL plug</text><text transform="translate(5.303 14.585)" class="st13 st14">Hirose</text><text transform="translate(5.303 25.585)" class="st13 st14">6-pin plug</text><text transform="translate(164.173 37.137)" class="st13 st14">36</text><text transform="rotate(-90 81.476 15.61)" class="st13 st14">Ø 11.6</text><text transform="rotate(-90 167.821 -118.03)" class="st13 st14">5.8</text><text transform="translate(311.334 145.588)" class="st13 st14">Label with order number</text><text transform="translate(311.334 156.588)" class="st13 st14">and manufacturing date</text><text transform="translate(350.88 86.93)" class="st13" font-size="7">2200...xx/yy</text><text transform="translate(354.712 188.271)" class="st13 st14">3000</text><text transform="translate(560.548 215.293)" class="st13 st14">Dimensions in mm</text></svg>