<svg style="background-color:#fff" version="1.1" id="Layer_1" xmlns="http://www.w3.org/2000/svg" x="0" y="0" viewBox="0 0 550 290" xml:space="preserve"><style>.st1{fill:#bde4f7;stroke-miterlimit:10}.st1,.st2{stroke:#1d1d1b}.st2,.st3{stroke-miterlimit:10}.st2,.st3{fill:none}.st3{stroke:#5a5a5a}.st4{fill:#5a5a5a}.st5{font-family:Helvetica,Arial,sans-serif}.st6{font-size:11px}.st7{font-family:Helvetica,Arial,sans-serif;font-weight:700}.st8{font-size:14px}.st9{enable-background:new}</style><path d="M409.7 204.6h69.6v69.6h-69.6v-69.6z" fill="#e6e6e6"/><path class="st1" d="M4.5 28.8h474.7v34.8H4.5V28.8z"/><path class="st2" d="M4.5 28.8h474.7v104.3H4.5V28.8zm0 34.7h474.7M4.5 98.3h474.7M61.9 28.8v104.3M96.7 28.8v104.3m34.7-104.3v104.3m34.8-104.3v104.3M201 28.8v104.3m34.8-104.3v104.3m34.8-104.3v104.3m34.7-104.3v104.3m34.8-104.3v104.3m34.8-104.3v104.3m34.8-104.3v104.3m34.8-104.3v104.3"/><path class="st1" d="M4.5 169.8h474.7v34.8H4.5v-34.8z"/><path class="st2" d="M4.5 169.8h474.7v104.3H4.5V169.8zm0 34.8h474.7M4.5 239.4h474.7M61.9 169.8v104.3m34.8-104.3v104.3m34.7-104.3v104.3m34.8-104.3v104.3M201 169.8v104.3m34.8-104.3v104.3m34.8-104.3v104.3m34.7-104.3v104.3m34.8-104.3v104.3m34.8-104.3v104.3m34.8-104.3v104.3m34.8-104.3v104.3"/><path class="st3" d="M391.4 89.6l-63.2 114.7"/><path class="st4" d="M326.6 201.2l-2.7 10.9 7.8-8.1-5.1-2.8z"/><path class="st3" d="M426.2 89.6L363 204.3"/><path class="st4" d="M361.4 201.2l-2.7 10.9 7.8-8.1-5.1-2.8z"/><path class="st3" d="M461 89.6l-63.2 114.7"/><path class="st4" d="M396.2 201.2l-2.7 10.9 7.8-8.1-5.1-2.8z"/><path class="st3" d="M356.6 89.6l-63.2 114.7"/><path class="st4" d="M291.8 201.2l-2.6 10.9 7.7-8.1-5.1-2.8z"/><path class="st3" d="M321.8 89.6l-63.1 114.7"/><path class="st4" d="M257.1 201.2l-2.7 10.9 7.8-8.1-5.1-2.8z"/><path class="st3" d="M287.1 89.6l-63.2 114.7"/><path class="st4" d="M222.3 201.2l-2.7 10.9 7.8-8.1-5.1-2.8z"/><path class="st3" d="M252.3 89.6l-63.2 114.7"/><path class="st4" d="M187.5 201.2l-2.7 10.9 7.8-8.1-5.1-2.8z"/><path class="st3" d="M217.5 89.6l-63.2 114.7"/><path class="st4" d="M152.7 201.2l-2.6 10.9 7.7-8.1-5.1-2.8z"/><path class="st3" d="M182.7 89.6l-63.2 114.7"/><path class="st4" d="M118 201.2l-2.7 10.9 7.7-8.1-5-2.8z"/><path class="st3" d="M148 89.6L84.8 204.3"/><path class="st4" d="M83.2 201.2l-2.7 10.9 7.8-8.1-5.1-2.8z"/><text transform="translate(65.377 49.45)" class="st5 st6">Bit 11</text><text transform="translate(99.823 49.45)" class="st5 st6">Bit 10</text><text transform="translate(138.462 49.45)" class="st5 st6">Bit 9</text><text transform="translate(173.219 49.45)" class="st5 st6">Bit 8</text><text transform="translate(206.975 49.45)" class="st5 st6">Bit 7</text><text transform="translate(242.06 49.45)" class="st5 st6">Bit 6</text><text transform="translate(276.802 49.45)" class="st5 st6">Bit 5</text><text transform="translate(311.652 49.45)" class="st5 st6">Bit 4</text><text transform="translate(346.898 49.45)" class="st5 st6">Bit 3</text><text transform="translate(381.154 49.45)" class="st5 st6">Bit 2</text><text transform="translate(416.121 49.45)" class="st5 st6">Bit 1</text><text transform="translate(450.878 49.45)" class="st5 st6">Bit 0</text><text transform="translate(65.377 191.45)" class="st5 st6">Bit 11</text><text transform="translate(99.823 191.45)" class="st5 st6">Bit 10</text><text transform="translate(138.462 191.45)" class="st5 st6">Bit 9</text><text transform="translate(173.219 191.45)" class="st5 st6">Bit 8</text><text transform="translate(206.975 191.45)" class="st5 st6">Bit 7</text><text transform="translate(242.06 191.45)" class="st5 st6">Bit 6</text><text transform="translate(276.802 191.45)" class="st5 st6">Bit 5</text><text transform="translate(311.652 191.45)" class="st5 st6">Bit 4</text><text transform="translate(346.898 191.45)" class="st5 st6">Bit 3</text><text transform="translate(381.154 191.45)" class="st5 st6">Bit 2</text><text transform="translate(416.121 191.45)" class="st5 st6">Bit 1</text><text transform="translate(450.878 191.45)" class="st5 st6">Bit 0</text><text transform="translate(14.153 83.922)" class="st5 st6">Binary</text><text transform="translate(14.153 119.314)" class="st5 st6">Decimal</text><text transform="translate(74.523 86.22)" class="st7 st8">0</text><text transform="translate(109.288 86.22)" class="st7 st8">0</text><text transform="translate(144.053 86.22)" class="st7 st8">0</text><text transform="translate(178.818 86.22)" class="st7 st8">0</text><text transform="translate(213.583 86.22)" class="st7 st8">1</text><text transform="translate(248.347 86.22)" class="st7 st8">1</text><text transform="translate(283.112 86.22)" class="st7 st8">0</text><text transform="translate(317.877 86.22)" class="st7 st8">1</text><text transform="translate(352.642 86.22)" class="st7 st8">0</text><text transform="translate(387.406 86.22)" class="st7 st8">1</text><text transform="translate(422.172 86.22)" class="st7 st8">1</text><text transform="translate(456.937 86.22)" class="st7 st8">0</text><text transform="translate(74.609 120.314)" class="st5 st8">0</text><text transform="translate(109.374 120.314)" class="st5 st8">0</text><text transform="translate(144.139 120.314)" class="st5 st8">0</text><text transform="translate(178.903 120.314)" class="st5 st8">0</text><text transform="translate(205.807 120.314)" class="st5 st8">128</text><text transform="translate(244.502 120.314)" class="st5 st8">64</text><text transform="translate(283.197 120.314)" class="st5 st8">0</text><text transform="translate(314.032 120.314)" class="st5 st8">16</text><text transform="translate(352.727 120.314)" class="st5 st8">0</text><text transform="translate(387.492 120.314)" class="st5 st8">4</text><text transform="translate(422.257 120.314)" class="st5 st8">2</text><text transform="translate(457.022 120.314)" class="st5 st8">0</text><text transform="translate(67.47 21.274)" class="st7 st6">MSB</text><text transform="translate(451.924 21.274)" class="st7 st6">LSB</text><text transform="translate(14.153 224.961)" class="st5 st6">Binary</text><text transform="translate(14.153 260.353)" class="st5 st6">Decimal</text><text transform="translate(74.523 227.26)" class="st7 st8">0</text><text transform="translate(109.288 227.26)" class="st7 st8">0</text><text transform="translate(144.053 227.26)" class="st7 st8">1</text><text transform="translate(178.818 227.26)" class="st7 st8">1</text><text transform="translate(213.583 227.26)" class="st7 st8">0</text><text transform="translate(248.347 227.26)" class="st7 st8">1</text><text transform="translate(283.112 227.26)" class="st7 st8">0</text><text transform="translate(317.877 227.26)" class="st7 st8">1</text><text transform="translate(352.642 227.26)" class="st7 st8">1</text><text transform="translate(387.406 227.26)" class="st7 st8">0</text><text transform="translate(422.172 227.26)" class="st7 st8">0</text><text transform="translate(456.937 227.26)" class="st7 st8">0</text><text transform="translate(74.609 261.353)" class="st5 st8">0</text><text transform="translate(109.374 261.353)" class="st5 st8">0</text><text transform="translate(136.277 261.353)" class="st5 st8">512</text><text transform="translate(171.042 261.353)" class="st5 st8">256</text><text transform="translate(213.668 261.353)" class="st5 st8">0</text><text transform="translate(244.502 261.353)" class="st5 st8">64</text><text transform="translate(283.197 261.353)" class="st5 st8">0</text><text transform="translate(314.032 261.353)" class="st5 st8">16</text><text transform="translate(352.727 261.353)" class="st5 st8">8</text><text transform="translate(387.492 261.353)" class="st5 st8">0</text><text transform="translate(422.257 261.353)" class="st5 st8">0</text><text transform="translate(457.022 261.353)" class="st5 st8">0</text><text transform="translate(484.778 114.175)" class="st9"><tspan x="0" y="0" class="st5 st6">Original pixel</tspan><tspan x="0" y="13.2" class="st5 st6">value:</tspan></text><text transform="translate(516.078 127.375)" class="st7 st6">214</text><text transform="translate(484.777 255.214)" class="st9"><tspan x="0" y="0" class="st5 st6">New pixel</tspan><tspan x="0" y="13.2" class="st5 st6">value:</tspan></text><text transform="translate(516.077 268.414)" class="st7 st6">856</text></svg>