<svg style="background-color:#fff" version="1.1" id="Layer_1" xmlns="http://www.w3.org/2000/svg" x="0" y="0" viewBox="0 0 550 118.8" xml:space="preserve"><style>.st1{fill:none;stroke:#000;stroke-miterlimit:3.864}.st2{fill:#f1f2f2}.st3{fill:none;stroke:#000;stroke-width:.567;stroke-miterlimit:3.864}.st4{fill-rule:evenodd;clip-rule:evenodd;fill:#fff}.st6{fill:#f9ccd1;stroke:#000;stroke-width:.567;stroke-miterlimit:3.864}.st7{fill:#fff}.st9{fill:none}.st10{font-family:Helvetica,Arial,sans-serif}.st11{font-size:8.5px}.st13{font-size:12px}.st14{font-size:10px}</style><path d="M105.9 28.5h371.6V84H105.9V28.5z" fill-rule="evenodd" clip-rule="evenodd" fill="#bde4f7" stroke="#000" stroke-width=".425" stroke-miterlimit="3.864"/><path class="st1" d="M476.8 28.5V84"/><path class="st2" d="M229.8 47h24.7v24.7h-24.7V47z"/><path class="st3" d="M229.8 47h24.7v24.7h-24.7V47z"/><path class="st2" d="M56.4 47h24.7v24.7H56.4V47z"/><path class="st3" d="M56.4 47h24.7v24.7H56.4V47z"/><path class="st2" d="M81.1 47h24.8v24.7H81.1V47z"/><path class="st3" d="M81.1 47h24.8v24.7H81.1V47z"/><path class="st2" d="M105.9 47h24.8v24.7h-24.8V47z"/><path class="st3" d="M105.9 47h24.8v24.7h-24.8V47z"/><path class="st2" d="M130.7 47h24.8v24.7h-24.8V47z"/><path class="st3" d="M130.7 47h24.8v24.7h-24.8V47z"/><path class="st2" d="M155.5 47h24.7v24.7h-24.7V47z"/><path class="st3" d="M155.5 47h24.7v24.7h-24.7V47z"/><path class="st2" d="M180.2 47H205v24.7h-24.8V47z"/><path class="st3" d="M180.2 47H205v24.7h-24.8V47z"/><path class="st2" d="M205 47h24.8v24.7H205V47z"/><path class="st3" d="M205 47h24.8v24.7H205V47z"/><path class="st2" d="M254.5 47h24.8v24.7h-24.8V47z"/><path class="st3" d="M254.5 47h24.8v24.7h-24.8V47z"/><path class="st2" d="M279.3 47h24.8v24.7h-24.8V47z"/><path class="st3" d="M279.3 47h24.8v24.7h-24.8V47z"/><path class="st2" d="M304.1 47h24.8v24.7h-24.8V47z"/><path class="st3" d="M304.1 47h24.8v24.7h-24.8V47z"/><path class="st4" d="M25.2 52.9v3.9h19.5v5.5H25.1v3.8L10 59.5l15.2-6.6z"/><path class="st1" d="M25.2 52.9v3.9h19.5v5.5H25.1v3.8L10 59.5l15.2-6.6z"/><path d="M328.9 47h24.7v24.7h-24.7V47z" fill="#f9ccd1"/><path class="st6" d="M328.9 47h24.7v24.7h-24.7V47zm24.7 0h24.8v24.7h-24.8V47z"/><path class="st6" d="M353.6 47h24.8v24.7h-24.8V47z"/><path class="st6" d="M378.4 47h24.8v24.7h-24.8V47z"/><path class="st6" d="M378.4 47h24.8v24.7h-24.8V47z"/><path class="st2" d="M427.9 47h24.8v24.7h-24.8V47z"/><path class="st3" d="M427.9 47h24.8v24.7h-24.8V47z"/><path class="st2" d="M452.7 47h24.8v24.7h-24.8V47z"/><path class="st3" d="M452.7 47h24.8v24.7h-24.8V47z"/><path class="st7" d="M477.5 47h24.8v24.7h-24.8V47z"/><path class="st3" d="M477.5 47h24.8v24.7h-24.8V47z"/><path class="st7" d="M502.3 47H527v24.7h-24.7V47z"/><path class="st3" d="M502.3 47H527v24.7h-24.7V47z"/><path class="st4" d="M526.9 47h7.7c-2.9 6.8 1.1 17.3 0 24.8-4.3-.1-7.7 0-7.7 0V47z"/><path class="st3" d="M526.9 47h7.7c-2.9 6.8 1.1 17.3 0 24.8-4.3-.1-7.7 0-7.7 0V47z"/><path d="M56.5 71.7h-6.6c2.5-6.8-.9-17.3 0-24.8 3.7.1 6.6 0 6.6 0v24.8z" fill-rule="evenodd" clip-rule="evenodd" fill="#f1f2f2"/><path class="st3" d="M56.5 71.7h-6.6c2.5-6.8-.9-17.3 0-24.8 3.7.1 6.6 0 6.6 0v24.8z"/><path class="st6" d="M403.2 47H428v24.7h-24.8V47z"/><path class="st6" d="M403.2 47H428v24.7h-24.8V47z"/><path class="st9" d="M263.1 54.6h14.6v9.6h-14.6v-9.6z"/><text transform="translate(263.06 63.538)" class="st10 st11">96</text><path class="st9" d="M288.1 54.6h14.6v9.6h-14.6v-9.6z"/><text transform="translate(288.147 63.54)" class="st10 st11">97</text><path class="st9" d="M313.2 54.6h17v9.6h-17v-9.6z"/><text transform="translate(313.176 63.538)" class="st10 st11">98</text><path class="st9" d="M337.1 54.6h14.6v9.6h-14.6v-9.6z"/><text transform="translate(337.074 63.539)" class="st10 st11">99</text><path class="st9" d="M358.4 54.6h19.5v9.6h-19.5v-9.6z"/><text transform="translate(358.4 63.538)" class="st10 st11">100</text><path class="st9" d="M383.1 54.6h19.5v9.6h-19.5v-9.6z"/><text transform="translate(383.146 63.538)" class="st10 st11">101</text><path class="st9" d="M407.5 54.6h21.9v9.6h-21.9v-9.6z"/><text transform="translate(407.503 63.538)" class="st10 st11">102</text><path class="st9" d="M432.5 54.6H452v9.6h-19.5v-9.6z"/><text transform="translate(432.486 63.539)" class="st10 st11">103</text><path class="st9" d="M457.2 54.6h19.5v9.6h-19.5v-9.6z"/><text transform="translate(457.241 63.538)" class="st10 st11">104</text><path class="st9" d="M481.6 54.6h19.5v9.6h-19.5v-9.6z"/><text transform="translate(481.634 63.538)" class="st10 st11">105</text><path class="st9" d="M506.4 54.6h19.5v9.6h-19.5v-9.6z"/><text transform="translate(506.377 63.538)" class="st10 st11">106</text><path class="st9" d="M238 54.6h14.6v9.6H238v-9.6z"/><text transform="translate(237.966 63.54)" class="st10 st11">95</text><path class="st9" d="M213.3 54.6h14.6v9.6h-14.6v-9.6z"/><text transform="translate(213.289 63.538)" class="st10 st11">94</text><path class="st9" d="M188.1 54.6h17v9.6h-17v-9.6z"/><text transform="translate(188.125 63.538)" class="st10 st11">93</text><path class="st9" d="M163.6 54.6h14.6v9.6h-14.6v-9.6z"/><text transform="translate(163.594 63.54)" class="st10 st11">92</text><path class="st9" d="M139 54.6h14.6v9.6H139v-9.6z"/><text transform="translate(138.987 63.538)" class="st10 st11">91</text><path class="st9" d="M114 54.6h14.6v9.6H114v-9.6z"/><text transform="translate(113.992 63.538)" class="st10 st11">90</text><path class="st9" d="M89.8 54.6h14.6v9.6H89.8v-9.6z"/><text transform="translate(89.757 63.538)" class="st10 st11">89</text><path class="st9" d="M64.4 54.6H79v9.6H64.4v-9.6z"/><text transform="translate(64.376 63.538)" class="st10 st11">88</text><path d="M531.2 94.4v-1.6l3.6 1.6-3.6 1.6v-1.6z" fill-rule="evenodd" clip-rule="evenodd"/><path class="st3" d="M56.5 94.4h474.9"/><text transform="translate(490.382 110)" class="st10 st13">Time</text><text transform="translate(242.163 41.554)" class="st10 st13">Receive window</text><text transform="translate(50.73 84.003)" class="st10 st14">Frames</text><text transform="translate(457.753 22.887)" class="st10" font-size="9">Start</text><path d="M353.6 17.5l-8.9 35.4" fill="none" stroke="#000" stroke-miterlimit="10"/><text transform="translate(292.772 13.5)" class="st10 st14">Frames with missing packets</text></svg>