<svg version="1.1" id="Ebene_1" xmlns="http://www.w3.org/2000/svg" x="0" y="0" viewBox="0 0 475 456" style="background-color:#fff" xml:space="preserve"><style>.st0{fill:#f6f6f6}.st1,.st2{fill:none;stroke:#1a171b;stroke-width:.6;stroke-linecap:round;stroke-linejoin:round;stroke-miterlimit:10}.st2{stroke:#000;stroke-width:.1}.st5{fill:#fff}.st6{fill:none;stroke:#000;stroke-width:.72;stroke-linecap:round;stroke-linejoin:round;stroke-miterlimit:10}.st7{font-family:Helvetica,Arial,sans-serif}.st8{font-size:10px}.st9{font-size:9.8084px}.st10,.st12{fill:none;stroke:#000;stroke-width:.3;stroke-linecap:round;stroke-linejoin:round}.st12{stroke-miterlimit:10}.st17{font-size:14px}</style><path class="st0" d="M74.8 157.4h313.1v166.1H313l-.9.2-.9.5-.6.8-.1 1v34.2l-1.7 1.7h-59.6l-1.5-1.6v-21.5l-.3-.9-.6-1-.8-.6-1.1-.2-.9.2-1 .6-.6 1-.2.9v21.5l-1.5 1.5h-30.5l-1.6-1.6V329l-.2-1.4-.6-1.4-.8-1-1.2-1-1.3-.5-1.5-.2-1.4.2-1.3.5-1.1 1-1 1-.4 1.4-.3 1.4v19.2h-23.9v-21.5l-.2-1.2-.6-.9-1.1-.8-1.1-.2h-49.3l-1.2.2-1.1.8-.6.9-.2 1.2v21.7H74.8z"/><path class="st1" d="M74.8 157.4h313.1v166.1H313l-.9.2-.9.5-.6.8-.1 1v34.2l-1.7 1.7h-59.6l-1.5-1.6v-21.5l-.3-.9-.6-1-.8-.6-1.1-.2-.9.2-1 .6-.6 1-.2.9v21.5l-1.5 1.5h-30.5l-1.6-1.6V329l-.2-1.4-.6-1.4-.8-1-1.2-1-1.3-.5-1.5-.2-1.4.2-1.3.5-1.1 1-1 1-.4 1.4-.3 1.4v19.2h-23.9v-21.5l-.2-1.2-.6-.9-1.1-.8-1.1-.2h-49.3l-1.2.2-1.1.8-.6.9-.2 1.2v21.7H74.8z"/><path class="st2" d="M118.8 324.1v-.1l-.2.1z"/><path class="st2" d="M118.8 324l-.2-.2v.3zm-.2-.2l-.2.2.2.1zm-.3.3l.1.2.2-.2zm.1.2h.2v-.2z"/><path class="st1" d="M76.2 181.2l-.1-.3-.1.3zm-.1-.3l-.1-.1v.4zm-.1-.1l-.3.1.3.3zm-.3.1v.3h.3zm0 .3v.1l.3-.1zm0 .1l.3.1v-.2zm.3.1l.1-.1-.1-.1z"/><path class="st1" d="M76.1 181.3l.1-.1H76zm-5.9 164.6h4.6M32.2 47.2v-2.6m.1 3.2h1.8m-1.9-.6H67m-34.7 0v.6m1.8 0l1.1-.6"/><path class="st0" d="M67 47.2l.4.3.2.3V391v-.2l-1.2 13.9h2.7l1.1-13.7v-53.1h4.6l.7-.3.6-.6.1-.7V71.2l-.1-.7-.6-.6-.7-.1h-4.6V46l-.1-.7-.6-.5-.7-.2H32.2"/><path class="st1" d="M67 47.2l.4.3.2.3V391v-.2l-1.2 13.9h2.7l1.1-13.7v-53.1h4.6l.7-.3.6-.6.1-.7V71.2l-.1-.7-.6-.6-.7-.1h-4.6V46l-.1-.7-.6-.5-.7-.2H32.2"/><path class="st0" d="M74.8 248.5h79.4v58.1H74.8z"/><path fill="none" stroke="#1a171b" stroke-width=".501" stroke-linecap="round" stroke-linejoin="round" stroke-miterlimit="10" d="M74.8 248.5h79.4v58.1H74.8z"/><path d="M298 345.1h1.8v11H298zm2.8 0h1.8v11h-1.8zm-11.4 0h1.8v11h-1.8zm5.7 0h1.8v11h-1.8zm-8.6 0h1.8v11h-1.8zm5.7 0h1.8v11h-1.8zm-14.3 0h1.8v11h-1.8zm5.7 0h1.8v11h-1.8zm-8.6 0h1.8v11H275zm5.8 0h1.8v11h-1.8zm-14.3 0h1.8v11h-1.8zm5.7 0h1.8v11h-1.8zm-11.5 0h1.8v11h-1.8zm8.6 0h1.8v11h-1.8zm-17.2 0h1.8v11h-1.8zm5.8 0h1.8v11h-1.8zm-2.9 0h1.8v11H255zm-5.7 0h1.8v11h-1.8zm57.2 0h1.8v11h-1.8zm-2.8.1h1.8v9h-1.8zm-40.1 0h1.8v9h-1.8zm-30.6-.1h1.8v11H233zm-5.8 0h1.8v11h-1.8zm-8.6 0h1.8v11h-1.8zm17.2 0h1.8v11h-1.8zm-5.7 0h1.8v11h-1.8zm8.6 0h1.8v11h-1.8zm-22.9 0h1.8v11h-1.8zm-2.9 0h1.8v11h-1.8zm11.5 0h1.8v11h-1.8zm-14.3 0h1.8v11h-1.8zm11.4 0h1.8v11h-1.8z" stroke-width=".095" stroke="#000" fill="none" stroke-linecap="round" stroke-linejoin="round" stroke-miterlimit="10"/><path class="st5" d="M96.2 333.1l-.4-2-.7-1.8-1.2-1.6-1.6-1-1.8-.9-1.9-.2-1.9.2-1.8.9-1.6 1-1.2 1.6-.7 1.8-.2 2 .2 2 .7 1.8 1.2 1.5 1.6 1.2 1.8.7 1.9.3 1.9-.3 1.8-.7 1.6-1.2 1.2-1.5.7-1.8z"/><path class="st6" d="M96.2 333.1l-.4-2-.7-1.8-1.2-1.6-1.6-1-1.8-.9-1.9-.2-1.9.2-1.8.9-1.6 1-1.2 1.6-.7 1.8-.2 2 .2 2 .7 1.8 1.2 1.5 1.6 1.2 1.8.7 1.9.3 1.9-.3 1.8-.7 1.6-1.2 1.2-1.5.7-1.8z"/><path class="st5" d="M96.2 170.7l-.4-2-.7-1.8-1.2-1.5-1.6-1.2-1.8-.7-1.9-.3-1.9.3-1.8.7-1.6 1.2-1.2 1.5-.7 1.8-.2 2 .2 2 .7 1.8 1.2 1.4 1.6 1.2 1.8.9 1.9.2 1.9-.2 1.8-.9 1.6-1.2 1.2-1.4.7-1.8z"/><path class="st6" d="M96.2 170.7l-.4-2-.7-1.8-1.2-1.5-1.6-1.2-1.8-.7-1.9-.3-1.9.3-1.8.7-1.6 1.2-1.2 1.5-.7 1.8-.2 2 .2 2 .7 1.8 1.2 1.4 1.6 1.2 1.8.9 1.9.2 1.9-.2 1.8-.9 1.6-1.2 1.2-1.4.7-1.8z"/><text transform="translate(212.32 17.682)" class="st7 st8">119.3</text><text transform="translate(219.31 130.812)" class="st7 st8">105.1</text><text transform="rotate(-90 127.67 104.846)" class="st7 st8">120</text><text transform="matrix(0 -1 1.0195 0 457.014 265.095)" class="st7 st9">68</text><path class="st10" d="M39.7 21.7h339.7"/><path d="M41.5 24.3l-9.8-2.6 9.8-2.6zm336.1 0l9.8-2.6-9.8-2.6z"/><path fill="none" stroke="#000" stroke-width=".261" stroke-linecap="round" stroke-linejoin="round" d="M83.1 134.2h297.6"/><path d="M84.7 136.4l-8.5-2.2 8.5-2.3zm294.4 0l8.5-2.2-8.5-2.3z"/><text transform="translate(129.708 444.69)" class="st7 st8">46.1</text><path class="st10" d="M79.4 434.6h120.7"/><path d="M81.2 437.2l-9.7-2.6 9.7-2.7zm117.1 0l9.8-2.6-9.8-2.7z"/><path class="st10" d="M26.2 396.3V52.1"/><path d="M28.8 394.5l-2.6 9.7-2.7-9.7zm0-340.6l-2.6-9.8-2.7 9.8z"/><path class="st10" d="M445.9 353.6V165.3"/><path d="M448.6 351.8l-2.7 9.8-2.6-9.8zm0-184.7l-2.7-9.7-2.6 9.7z"/><text transform="matrix(0 -1 1.0195 0 416.59 255.184)" class="st7 st9">55.3</text><path class="st10" d="M405.5 314.7V165.3"/><path d="M408.1 312.9l-2.6 9.7-2.6-9.7zm0-145.8l-2.6-9.7-2.6 9.7z"/><path class="st12" d="M32.2 47.2V15.7"/><path fill="none" stroke="#000" stroke-width=".228" stroke-linecap="round" stroke-linejoin="round" stroke-miterlimit="10" d="M69.1 404.7H11.9"/><path fill="none" stroke="#000" stroke-width=".261" stroke-linecap="round" stroke-linejoin="round" stroke-miterlimit="10" d="M387.4 158.4V10.7"/><path class="st12" d="M70.2 442.2v-84.5m137.9 84.5v-84.5"/><path fill="none" stroke="#000" stroke-width=".274" stroke-linecap="round" stroke-linejoin="round" stroke-miterlimit="10" d="M69.1 44.6H11.9"/><path d="M464.7 157.4h-76.5m76.5 204.5H266.8M416 323.5h-27.8" stroke-width=".292" stroke-miterlimit="10" fill="none" stroke="#000" stroke-linecap="round" stroke-linejoin="round"/><text transform="translate(355.103 409.085)" class="st7 st17">Not to scale</text><text transform="translate(354.403 428.486)" class="st7 st17">Dimensions in mm</text></svg>