<svg version="1.1" id="Layer_1" xmlns="http://www.w3.org/2000/svg" x="0" y="0" viewBox="0 0 881.3 265.3" style="background-color:#fff" xml:space="preserve"><style>.st1{stroke-width:.7087}.st1,.st6,.st7{fill:none;stroke:#000;stroke-miterlimit:3.8637}.st6{stroke-width:.3402}.st7{stroke-width:.25;stroke-dasharray:12,2,2,2}.st9{font-family:Helvetica,Arial,sans-serif}.st10{font-size:11.5px}.st11{font-size:9.2px}</style><g id="Kabel"><path class="st1" d="M239.8 115.9h520.9m-521.6 22.5h521.6m-649.9-35.8l3.4-2.7h63.4l3.2 2.2v51.6l-3.2 2.1h-63.2l-3.6-2.8v-50.4zm3.2-2.7v55.9m63.6 0V99.9m-149.7-.6h63.5l3.1 2.2v51.6l-3.1 2.1H28.1m-.3-55.9v55.9m63.6 0V99.3m147.8 14.1v27.8m525-25.3h51.5m-51.5 22.5h51.1m2.3-10.5c-2.1-4.3-5.9-8.3-1.9-12 4.5 1.4 3.4 6.6 1.9 12m-2.2 10.5c4.5-3.7 3.9-7.2 2.3-10.5m-3.6-6.9l29-2.6m-26.4 8.4l24.7-1.5m-23 5.5l23.9.9m-23.9 2.8l25.3 4.9"/><path d="M94.5 146h16.3m0-37.4H94.5m86.3 0l58.4 4.8M57.5 155.2V99.3m27.8 55.9V99.3m153.9 41.9l-58.4 4.8" fill="none" stroke="#020405" stroke-width=".709" stroke-linecap="round" stroke-linejoin="round" stroke-miterlimit="10"/><path d="M57.8 99.4L85.5 118M65 99.6l20.5 13.7M72 99.6l13.5 9.1m-6.6-9.1l6.6 4.4m-27.7 0l27.7 18.6m-27.7-13.9l27.7 18.6m-27.7-14l27.7 18.6M57.8 118l27.7 18.6m-27.7-14l27.7 18.6m-27.7-13.9l27.7 18.6m-27.7-14l27.7 18.6m-27.7-13.9l27.7 18.6m-27.7-14l20.8 14m-20.8-9.3l13.9 9.3m-13.9-4.7l7 4.7m20.7-55.8L57.8 118m20.4-18.4l-20.4 13.7m13.5-13.7l-13.5 9.1m6.6-9.1l-6.6 4.4m27.7 0l-27.7 18.6m27.7-13.9l-27.7 18.6m27.7-14l-27.7 18.6M85.5 118l-27.7 18.6m27.7-14l-27.7 18.6m27.7-13.9l-27.7 18.6m27.7-14l-27.7 18.6m27.7-13.9l-27.7 18.6m27.7-14l-20.8 14m20.8-9.3l-13.9 9.3m13.9-4.7l-7 4.7" fill="none" stroke="#000" stroke-width=".25" stroke-miterlimit="3.864"/><path class="st1" d="M287 115.8h81.6v68.8H287v-68.8z"/><path d="M502 112.2l32.4-10.8H684l32.4 10.8v30.2L684 153.2H534.4L502 142.4v-30.2z" fill="#fff" stroke="#000" stroke-width=".709" stroke-miterlimit="3.864"/><path d="M535.4 153.2v-51.8M683 153.2v-51.8" fill="none" stroke="#000" stroke-width=".709" stroke-miterlimit="3.864"/></g><g id="Bemassung"><path class="st6" d="M35.2 78.9h196m-196-34.5H498M28.3 99.8V12.6m211 98.3V77.2M507 78.9h201.1m-223.4 22.3h77.7m-77.7 52h49.7m-32.7-39.3V39.6m214.5 71.3V77.2M609.1 186.9v-33.7M51.8 188.9v-33.7"/><path class="st7" d="M760.7 112.7v30.7"/><path d="M764.2 112.7v30.7" fill="none" stroke="#000" stroke-width=".25" stroke-miterlimit="3.864" stroke-dasharray="12,2,2,2,2,2"/><path class="st6" d="M16.5 150.4v-43.5m10.8 48.3H14.8m12.5-55.8H14.8"/><path class="st7" d="M287 128.8l-254.8-.6"/><path class="st6" d="M35.2 16.9h801.6m7.4 100.4V13.2m-36.9 143.5V65.2M488 237.3V108.2"/><path class="st7" d="M881.3 128.8l-512.6-.6"/><path class="st6" d="M327.9 223.5v-33.6m0 32.6v-33.6m0 32.6v-33.6m0 32.6v-33.6m0 32.6v-33.6m0 32.6v-33.6"/></g><path id="Pfeile" d="M35.2 76.9v4l-7.2-2 7.2-2zm196 0v4l7-2-7-2zm-196-34.5v4l-7.2-2 7.2-2zm459.2 0v4l7-2-7-2zm14.3 34.5v4l-7.2-2 7.2-2zm197.5 0v4l8.9-2-8.9-2zM14.5 107.2h3.9l-1.9-7.5-2 7.5zm3.9 39.9h-3.9l1.9 7.5 2-7.5zM35.2 14.9v3.9L28 16.9l7.2-2zm801.6 3.9v-3.9l7.2 1.9-7.2 2zm-31.5 126.7h3.9l-1.9-7.1-2 7.1zm4-35.8h-4l1.9 7 2.1-7zM486 108.2h3.9l-1.9-7-2 7zm3.9 37.3H486l1.9 7 2-7z"/><text transform="translate(10.384 203.192)" class="st9 st10">Hirose 6-pin plug</text><text transform="translate(553.219 200.77)" class="st9 st10">Electronic board</text><text transform="translate(553.219 213.47)" class="st9 st10">molded onto the cable</text><text transform="translate(110.752 75.769)" class="st9 st11">36</text><text transform="translate(256.417 41.269)" class="st9 st11">~170</text><text transform="translate(589.366 75.769)" class="st9 st11">100 max.</text><text transform="rotate(-90 77.248 65.75)" class="st9 st11">11.6</text><text transform="rotate(-90 349.857 -135.086)" class="st9 st11">25 max.</text><text transform="rotate(-90 450.085 -353.515)" class="st9 st11">5.8</text><text transform="translate(255.651 235.784)" class="st9 st10">Label with order number,</text><text transform="translate(255.651 248.484)" class="st9 st10">manufacturing date, and</text><text transform="translate(255.651 261.084)" class="st9 st10">pin-to-wire color assignment</text><text transform="translate(306.512 131.88)" class="st9" font-size="8.05">2000...xx/yy</text><text transform="translate(349.805 12.135)" class="st9 st10">Length depending on order number</text><text transform="translate(822.07 161.634)" class="st9 st10">Open end</text><text transform="translate(772.967 256.069)" class="st9 st10">Dimensions in mm</text></svg>