<svg xmlns="http://www.w3.org/2000/svg" viewBox="0 0 384.5 175.4" style="background-color:#fff"><style>.st0{fill:#1a171b}.st1{stroke-width:.7}.st1,.st3{fill:none;stroke:#1a171b;stroke-miterlimit:10}.st4{font-family:Helvetica,Arial,sans-serif}.st5{font-size:8px}</style><g id="Ebene_1"><path class="st0" d="M9.4 84.8l-3.3-.9 3.3-.9zm364.8 0l3.2-.9-3.2-.9zM9.4 76.1l-3.3-.9 3.3-.9zm66.7 0l3.2-.9-3.2-.9zm255.8 56c0 1.6-1.3 2.9-2.8 2.9-1.6 0-2.9-1.3-2.9-2.9s1.3-2.9 2.9-2.9c1.5.1 2.8 1.4 2.8 2.9zm31.4 0c0 1.6-1.3 2.9-2.9 2.9s-2.9-1.3-2.9-2.9 1.3-2.9 2.9-2.9c1.6.1 2.9 1.4 2.9 2.9zm-15.7-10c0 1.6-1.3 2.9-2.9 2.9s-2.8-1.3-2.8-2.9 1.3-2.9 2.8-2.9c1.6.1 2.9 1.3 2.9 2.9zm0 18.9c0 1.6-1.3 2.9-2.9 2.9s-2.8-1.3-2.8-2.9c0-1.6 1.3-2.8 2.8-2.8 1.6 0 2.9 1.2 2.9 2.8zm-9 14.4c0 1.6-1.3 2.9-2.9 2.9s-2.8-1.3-2.8-2.9c0-1.6 1.3-2.8 2.8-2.8 1.7 0 2.9 1.3 2.9 2.8zm17.9 0c0 1.6-1.3 2.9-2.9 2.9s-2.8-1.3-2.8-2.9c0-1.6 1.3-2.8 2.8-2.8 1.6 0 2.9 1.3 2.9 2.8z"/><path class="st1" d="M353 36.1v13.1h-8.5l-1.7-1.5V36.2"/><path class="st1" d="M353 36.3V23.2h-8.5l-1.7 1.5v11.5"/><path class="st1" d="M315.7 34.5v-6.9l27.2-2.1v8.7m-27.2.4v10.1l27.2 2.1V34.2m10.1 2.1V23.7l1.8-1.8h9.9v14.3"/><path class="st1" d="M353 36v12.6l1.8 1.8h9.9V36.2m0-11.4h12.7v22.7h-12.7zM79.3 31.3H147m-67.6 9.8h65.9m5.3-4.8l1-5.9c1-5.9 3-7.5 4.5-9.5m-11 30.9c1.5-2 3.5-3.6 4.5-9.5l1-5.9m-4.5-.1l1-5.9c1-5.9 3-7.5 4.5-9.5m-11 30.9c1.5-2 3.5-3.6 4.5-9.5l1-5.9m5.4-5.1h67.6m-69.2 9.8h69.2m0-9.8h36.5v34h-36.5zm96.6 0H248m67.7 9.8h-60.2M6 36.1l73.3.2M6.1 39l73.2-1.7M6.1 41.9l73.2-3.6M6.1 33.6l73.2 1.7M6.1 30.7l73.2 3.6m0-3v9.8"/><path d="M377.4 48.2v38.7m-298-45.8V79M6.1 42.2V87m2.7-3.1h365.9M8.8 75.2h67.9" fill="none" stroke="#1a171b" stroke-miterlimit="10" stroke-width=".3"/><path class="st3" d="M344.8 112.6c-14.9 0-27 12.1-27 27 0 12.8 9 23.6 21 26.3.2 0 .5.1.7.2 1.7.3 3.5.5 5.3.5 14.9 0 27-12.1 27-27 0-15-12.1-27-27-27z"/><path class="st3" d="M351 165.8c-1.1-2.2-3.4-3.7-6-3.7s-4.9 1.5-6 3.7"/><path class="st1" d="M6.2 27.8l73.1 5.5"/></g><g id="Text"><text transform="translate(311.092 13.441)" class="st0 st4 st5">M8 6-pin male plug</text><text transform="translate(223.254 45.551)" class="st0 st4 st5">Label</text><text transform="translate(38.341 72.091)" class="st0 st4 st5">50</text><text transform="translate(149.541 81.492)" class="st0 st4 st5">5000, 10000</text><text transform="translate(324.739 172.144)" class="st0 st4 st5">1</text><text transform="translate(359.333 172.143)" class="st0 st4 st5">2</text><text transform="translate(371.368 131.65)" class="st0 st4 st5">3</text><text transform="translate(341.039 110.749)" class="st0 st4 st5">4</text><text transform="translate(311.95 131.65)" class="st0 st4 st5">5</text><text transform="translate(349.592 146.546)" class="st0 st4 st5">6</text></g></svg>