<svg style="background-color:#fff" version="1.1" id="Layer_1" xmlns="http://www.w3.org/2000/svg" x="0" y="0" viewBox="0 0 515.5 402.5" xml:space="preserve"><style>.st0{fill-rule:evenodd;clip-rule:evenodd;fill:#1d1d1b}.st2{fill:#80ff80}.st3{fill:none;stroke:#80ff80;stroke-miterlimit:3.864}.st4{fill-rule:evenodd;clip-rule:evenodd;fill:#b3b3b3}.st5,.st6,.st7{fill:none;stroke-miterlimit:3.864}.st5{stroke-width:3;stroke-dasharray:2,2;stroke:#b3b3b3}.st6{stroke:#1d1d1b}.st7{stroke:#999;stroke-width:1.8}.st8{fill:#e64614}.st9{fill:none}.st10{fill:#fff}.st11{font-family:Helvetica,Arial,sans-serif}.st12{font-size:7.968px}.st13{fill-rule:evenodd;clip-rule:evenodd;fill:#80ff80}.st15{fill:none;stroke:#000;stroke-miterlimit:10}.st16{font-size:10px}.st17{enable-background:new}.st18{fill:#1d1d1d}</style><path class="st0" d="M494.1 374.8V371l9.4 3.8-9.4 3.8v-3.8z"/><path d="M84.1 374.8h410.6" fill="none" stroke="#1d1d1b" stroke-width="2.5" stroke-miterlimit="3.864"/><path class="st2" d="M238.2 333.3h28.7v9.6h-28.7v-9.6z"/><path class="st3" d="M238.2 333.3h28.7v9.6h-28.7v-9.6z"/><path class="st4" d="M268.4 355.8h4.4l-4.4 10.9-4.4-10.9h4.4z"/><path class="st5" d="M268.4 346.2v10.3"/><path class="st6" d="M83.5 298.3H121m0-14.4v14.4m4.8-14.4v14.4m-4.8-14.4h4.8m0 14.4h33.4m0-14.4v14.4m4.8-14.4v14.4m-4.8-14.4h4.8m0 14.4h33.5m0-14.4v14.4m4.7-14.4v14.4m-4.7-14.4h4.7m71.8 0v14.4m4.7-14.4v14.4m-4.7-14.4h4.7m0 14.4h33.5m0-14.4v14.4m4.8-14.4v14.4m-4.8-14.4h4.8m0 14.4h33.5m0-14.4v14.4m4.7-14.4v14.4m-4.7-14.4h4.7m-153 14.5h33.5m0-14.4v14.4m4.8-14.4v14.4m-4.8-14.4h4.8m0 14.4H274m81.2-.1h33.5m0-14.3v14.3"/><path class="st7" d="M97 261.5v90.1"/><path class="st6" d="M116.6 298.3h4.7"/><path class="st0" d="M197.5 304.8l2 4.2 2.1-4.2h-4.1z"/><path class="st6" d="M197.5 304.8l2 4.2 2.1-4.2h-4.1z"/><path class="st8" d="M199.6 311.5h8v8h-8v-8z"/><path class="st9" d="M199.6 311.5h8v8h-8v-8z"/><path class="st9" d="M201.3 312h4.5v8.8h-4.5V312z"/><text transform="translate(200.947 318.498)" class="st10 st11 st12">1</text><path class="st0" d="M235.7 304.9l2.1 4.2 2.1-4.2h-4.2z"/><path class="st6" d="M235.7 304.9l2.1 4.2 2.1-4.2h-4.2z"/><path class="st8" d="M237.8 311.5h8.1v8h-8.1v-8z"/><path class="st9" d="M237.8 311.5h8.1v8h-8.1v-8z"/><path class="st9" d="M239.6 312h4.5v8.8h-4.5V312z"/><text transform="translate(239.196 318.495)" class="st10 st11 st12">1</text><path class="st13" d="M314.7 333.3h31.8v9.6h-31.8v-9.6z"/><path class="st3" d="M314.7 333.3h31.8v9.6h-31.8v-9.6z"/><path class="st4" d="M348.3 355.8h4.4l-4.4 11-4.4-11h4.4z"/><path class="st5" d="M348.3 346.2v10.3"/><path class="st0" d="M312.2 304.8l2.1 4.2 2.1-4.2h-4.2z"/><path class="st6" d="M312.2 304.8l2.1 4.2 2.1-4.2h-4.2z"/><path class="st8" d="M314.3 311.5h8.1v8h-8.1v-8z"/><path class="st9" d="M314.3 311.5h8.1v8h-8.1v-8z"/><path class="st9" d="M316.1 312h4.5v8.8h-4.5V312z"/><text transform="translate(315.685 318.505)" class="st10 st11 st12">3</text><path class="st13" d="M352.9 333.3h8.4v9.6h-8.4v-9.6z"/><path class="st3" d="M352.9 333.3h8.4v9.6h-8.4v-9.6z"/><path class="st4" d="M363.1 355.8h4.4l-4.4 11-4.3-11h4.3z"/><path class="st5" d="M363.1 346.2v10.3"/><path class="st0" d="M350.5 304.8l2 4.2 2.1-4.2h-4.1z"/><path class="st6" d="M350.5 304.8l2 4.2 2.1-4.2h-4.1z"/><path class="st8" d="M352.5 311.5h8.1v8h-8.1v-8z"/><path class="st9" d="M352.5 311.5h8.1v8h-8.1v-8z"/><path class="st9" d="M354.3 312h4.5v8.8h-4.5V312z"/><text transform="translate(353.933 318.505)" class="st10 st11 st12">4</text><path class="st2" d="M391.2 333.3h28.7v9.6h-28.7v-9.6z"/><path class="st3" d="M391.2 333.3h28.7v9.6h-28.7v-9.6z"/><path class="st4" d="M421.4 355.8h4.4l-4.4 10.9-4.4-10.9h4.4z"/><path class="st5" d="M421.4 346.1v10.4"/><path class="st0" d="M388.7 304.9l2.1 4.2 2.1-4.2h-4.2z"/><path class="st6" d="M388.7 304.9l2.1 4.2 2.1-4.2h-4.2z"/><path class="st8" d="M390.8 311.5h8.1v8h-8.1v-8z"/><path class="st9" d="M390.8 311.5h8.1v8h-8.1v-8z"/><path class="st9" d="M392.6 312h4.5v8.8h-4.5V312z"/><text transform="translate(392.185 318.488)" class="st10 st11 st12">5</text><path class="st2" d="M429.4 333.3h28.7v9.6h-28.7v-9.6z"/><path class="st3" d="M429.4 333.3h28.7v9.6h-28.7v-9.6z"/><path class="st4" d="M459.7 355.8h4.3l-4.3 10.9-4.4-10.9h4.4z"/><path class="st5" d="M459.7 346.1v10.4"/><path class="st6" d="M426.9 283.9v14.4m0-14.4h4.8m-43 .1h4.8m0 0v14.3m0 0h33.4"/><path class="st0" d="M427 304.9l2 4.2 2.1-4.2H427z"/><path class="st6" d="M427 304.9l2 4.2 2.1-4.2H427z"/><path class="st8" d="M429 311.5h8.1v8H429v-8z"/><path class="st9" d="M429 311.5h8.1v8H429v-8z"/><path class="st9" d="M430.8 312h4.5v8.8h-4.5V312z"/><text transform="translate(430.427 318.488)" class="st10 st11 st12">5</text><path class="st0" d="M159.2 304.8l2.1 4.2 2.1-4.2h-4.2z"/><path class="st6" d="M159.2 304.8l2.1 4.2 2.1-4.2h-4.2z"/><path class="st8" d="M161.3 311.5h8.1v8h-8.1v-8z"/><path class="st9" d="M161.3 311.5h8.1v8h-8.1v-8z"/><path class="st9" d="M163.1 312h4.5v8.8h-4.5V312z"/><text transform="translate(162.696 318.498)" class="st10 st11 st12">1</text><path class="st2" d="M161.7 333.3h28.7v9.6h-28.7v-9.6z"/><path class="st3" d="M161.7 333.3h28.7v9.6h-28.7v-9.6z"/><path class="st4" d="M192.1 355.8h4.3l-4.3 11-4.4-11h4.4z"/><path class="st5" d="M192.1 346.2v10.3"/><path class="st2" d="M200 333.3h28.6v9.6H200v-9.6z"/><path class="st3" d="M200 333.3h28.6v9.6H200v-9.6z"/><path class="st4" d="M230.3 355.8h4.4l-4.4 11-4.4-11h4.4z"/><path class="st5" d="M230.3 346.2v10.3"/><path class="st0" d="M121 304.8l2.1 4.2 2-4.2H121z"/><path class="st6" d="M121 304.8l2.1 4.2 2-4.2H121z"/><path class="st8" d="M123.1 311.5h8v8h-8v-8z"/><path class="st9" d="M123.1 311.5h8v8h-8v-8z"/><path class="st9" d="M124.9 312h4.5v8.8h-4.5V312z"/><text transform="translate(124.46 318.499)" class="st10 st11 st12">0</text><path class="st13" d="M123.5 333.3h14v9.6h-14v-9.6z"/><path class="st3" d="M123.5 333.3h14v9.6h-14v-9.6z"/><path class="st4" d="M139.3 355.8h4.4l-4.4 11-4.4-11h4.4z"/><path class="st5" d="M139.3 346.2v10.3"/><path class="st0" d="M274 304.9l2 4.2 2.1-4.2H274z"/><path class="st6" d="M274 304.9l2 4.2 2.1-4.2H274z"/><path class="st8" d="M276 311.5h8.1v8.1H276v-8.1z"/><path class="st9" d="M276 311.5h8.1v8.1H276v-8.1z"/><path class="st9" d="M277.8 312.1h4.5v8.8h-4.5v-8.8z"/><text transform="translate(277.444 318.574)" class="st10 st11 st12">2</text><path class="st2" d="M276.5 333.4h28.6v9.6h-28.6v-9.6z"/><path class="st3" d="M276.5 333.4h28.6v9.6h-28.6v-9.6z"/><path class="st4" d="M306.7 355.9h4.4l-4.4 10.9-4.4-10.9h4.4z"/><path class="st5" d="M306.7 346.2v10.4"/><path class="st6" d="M465.2 283.9v14.4m4.8-14.4v14.4m-4.8-14.4h4.8m0 14.4h21.5m-59.8 0h33.5"/><path class="st13" d="M467.7 333.3h14v9.6h-14v-9.6z"/><path class="st3" d="M467.7 333.3h14v9.6h-14v-9.6z"/><path class="st4" d="M483.5 355.8h4.4l-4.4 11-4.3-11h4.3z"/><path class="st5" d="M483.5 346.2v10.3"/><path class="st0" d="M465.2 304.9l2.1 4.2 2-4.2h-4.1z"/><path class="st6" d="M465.2 304.9l2.1 4.2 2-4.2h-4.1z"/><path class="st8" d="M467.3 311.5h8v8h-8v-8z"/><path class="st9" d="M467.3 311.5h8v8h-8v-8z"/><path class="st9" d="M469.1 312h4.5v8.8h-4.5V312z"/><text transform="translate(468.675 318.488)" class="st10 st11 st12">0</text><path class="st6" d="M431.7 283.9v14.4"/><path class="st0" d="M467.3 277.4h2l-2 5-2-5h2z"/><path d="M467.3 277.8v-10.9" fill="none" stroke="#1d1d1b" stroke-linejoin="round" stroke-miterlimit="3.864"/><path class="st7" d="M478.4 261.5v90.1"/><path class="st15" d="M12.5 12h313.7v106H12.5V12z"/><path class="st2" d="M22.4 62.3h30v12h-30v-12z"/><path class="st3" d="M22.4 62.3h30v12h-30v-12z"/><path class="st4" d="M37.2 94.9h5.5l-5.5 13.7-5.5-13.7h5.5z"/><path class="st5" d="M37.2 82.8v13"/><path class="st0" d="M34.6 24.7l2.6 5.2 2.6-5.2h-5.2z"/><path class="st6" d="M34.6 24.7l2.6 5.2 2.6-5.2h-5.2z"/><path class="st8" d="M32.1 41.4h10.2v10.1H32.1V41.4z"/><path class="st8" d="M32.1 41.4h10.2v10.1H32.1V41.4z"/><path class="st9" d="M34.4 40H40v11h-5.6V40z"/><text transform="translate(34.4 50.188)" class="st10 st11 st16">0</text><path class="st15" d="M12.5 132h313.7v78H12.5v-78z"/><text transform="translate(77.076 242.788)" class="st17"><tspan x="0" y="0" class="st18 st11 st16">Sequencer</tspan><tspan x="0" y="12" class="st18 st11 st16">enabled</tspan></text><text transform="translate(454.243 242.788)" class="st17"><tspan x="0" y="0" class="st18 st11 st16">Sequencer</tspan><tspan x="0" y="12" class="st18 st11 st16">disabled</tspan></text><text transform="translate(282.502 392.759)" class="st18" font-size="11" font-family="Helvetica,Arial,sans-serif" font-weight="700">Time</text><text transform="translate(271.2 246.22)" class="st17"><tspan x="0" y="0" class="st18 st11 st16">Sequence set cycle</tspan><tspan x="0" y="12" class="st18 st11 st16">restarts</tspan></text><text transform="translate(18.5 298.55)" class="st17"><tspan x="0" y="0" class="st18 st11 st16">Frame Start</tspan><tspan x="0" y="12" class="st18 st11 st16">trigger signal</tspan></text><text transform="translate(62.3 30.54)" class="st18 st11 st16">= Camera selects a sequence set</text><text transform="translate(62.3 49.074)" class="st18 st11 st16">= Sequence set used for image acquisition (index number)</text><text transform="translate(62.3 72.206)" class="st18 st11 st16">= Frame exposure and readout</text><text transform="translate(62.3 98.266)" class="st18 st11 st16">= Frame transmission</text><path d="M467.3 266.9L357.1 252" fill="#1d1d1d" stroke="#1d1d1b" stroke-linejoin="round" stroke-miterlimit="3.864"/><text transform="translate(22.363 164.25)" class="st18 st11 st16">SequenceSetTotalNumber = 6</text><text transform="translate(22.363 176.25)" class="st18 st11 st16">SequenceSetExecutions = 1 for sequence sets 0, 2, 3, and 4</text><text transform="translate(22.363 188.25)" class="st18 st11 st16">SequenceSetExecutions = 2 for sequence set 5</text><text transform="translate(22.363 200.25)" class="st18 st11 st16">SequenceSetExecutions = 3 for sequence set 1</text><text transform="translate(22.541 147)" class="st18 st11 st16">Settings:</text></svg>