<svg style="background-color:#fff" version="1.1" id="Layer_1" xmlns="http://www.w3.org/2000/svg" x="0" y="0" viewBox="0 0 550 142.5" xml:space="preserve"><style>.st1{fill:none;stroke:#000;stroke-miterlimit:3.864}.st3{font-family:Helvetica,Arial,sans-serif}.st5{fill:#f1f2f2}.st6{fill:none;stroke:#000;stroke-width:.567;stroke-miterlimit:3.864}.st7{fill-rule:evenodd;clip-rule:evenodd;fill:#fff}.st8{fill:#f9ccd1;stroke:#000;stroke-width:.567;stroke-miterlimit:3.864}.st9{fill:#fff}.st11{fill-rule:evenodd;clip-rule:evenodd}.st12{fill:none}.st13{font-size:12px}.st15{font-size:8.5px}</style><path d="M105.9 58.9h371.6V109H105.9V58.9z" fill-rule="evenodd" clip-rule="evenodd" fill="#bde4f7" stroke="#000" stroke-width=".425" stroke-miterlimit="3.864"/><path class="st1" d="M476.9 58.9V109"/><path d="M353.5 58.8h122.6v50.1H353.5V58.8z" fill-rule="evenodd" clip-rule="evenodd" fill="#0090d4" stroke="#000" stroke-width=".425" stroke-miterlimit="3.864"/><text transform="translate(459.107 54.22)" class="st3" font-size="9">Start</text><path class="st5" d="M229.8 72h24.7v24.7h-24.7V72z"/><path class="st6" d="M229.8 72h24.7v24.7h-24.7V72z"/><path class="st5" d="M56.4 72h24.7v24.7H56.4V72z"/><path class="st6" d="M56.4 72h24.7v24.7H56.4V72z"/><path class="st5" d="M81.1 72h24.8v24.7H81.1V72z"/><path class="st6" d="M81.1 72h24.8v24.7H81.1V72z"/><path class="st5" d="M105.9 72h24.8v24.7h-24.8V72z"/><path class="st6" d="M105.9 72h24.8v24.7h-24.8V72z"/><path class="st5" d="M130.7 72h24.8v24.7h-24.8V72z"/><path class="st6" d="M130.7 72h24.8v24.7h-24.8V72z"/><path class="st5" d="M155.5 72h24.7v24.7h-24.7V72z"/><path class="st6" d="M155.5 72h24.7v24.7h-24.7V72z"/><path class="st5" d="M180.2 72H205v24.7h-24.8V72z"/><path class="st6" d="M180.2 72H205v24.7h-24.8V72z"/><path class="st5" d="M205 72h24.8v24.7H205V72z"/><path class="st6" d="M205 72h24.8v24.7H205V72z"/><path class="st5" d="M254.5 72h24.8v24.7h-24.8V72z"/><path class="st6" d="M254.5 72h24.8v24.7h-24.8V72z"/><path class="st5" d="M279.3 72h24.8v24.7h-24.8V72z"/><path class="st6" d="M279.3 72h24.8v24.7h-24.8V72z"/><path class="st5" d="M304.1 72h24.8v24.7h-24.8V72z"/><path class="st6" d="M304.1 72h24.8v24.7h-24.8V72z"/><path class="st7" d="M25.2 77.9v3.9h19.5v5.5H25.1v3.8L10 84.5l15.2-6.6z"/><path class="st1" d="M25.2 77.9v3.9h19.5v5.5H25.1v3.8L10 84.5l15.2-6.6z"/><path class="st8" d="M328.9 72h24.7v24.7h-24.7V72z"/><path class="st8" d="M328.9 72h24.7v24.7h-24.7V72zm24.7 0h24.8v24.7h-24.8V72z"/><path class="st8" d="M353.6 72h24.8v24.7h-24.8V72z"/><path class="st5" d="M378.4 72h24.8v24.7h-24.8V72z"/><path class="st6" d="M378.4 72h24.8v24.7h-24.8V72z"/><path class="st5" d="M427.9 72h24.8v24.7h-24.8V72z"/><path class="st6" d="M427.9 72h24.8v24.7h-24.8V72z"/><path class="st5" d="M452.7 72h24.8v24.7h-24.8V72z"/><path class="st6" d="M452.7 72h24.8v24.7h-24.8V72z"/><path class="st9" d="M477.5 72h24.8v24.7h-24.8V72z"/><path class="st6" d="M477.5 72h24.8v24.7h-24.8V72z"/><path class="st9" d="M502.3 72H527v24.7h-24.7V72z"/><path class="st6" d="M502.3 72H527v24.7h-24.7V72z"/><path class="st7" d="M526.9 72h7.7c-2.9 6.8 1.1 17.3 0 24.8-4.3-.1-7.7 0-7.7 0V72z"/><path class="st6" d="M526.9 72h7.7c-2.9 6.8 1.1 17.3 0 24.8-4.3-.1-7.7 0-7.7 0V72z"/><path d="M56.5 96.7h-6.6c2.5-6.8-.9-17.3 0-24.8 3.7.1 6.6 0 6.6 0v24.8z" fill-rule="evenodd" clip-rule="evenodd" fill="#f1f2f2"/><path class="st6" d="M56.5 96.7h-6.6c2.5-6.8-.9-17.3 0-24.8 3.7.1 6.6 0 6.6 0v24.8z"/><path class="st5" d="M403.2 72H428v24.7h-24.8V72z"/><path class="st6" d="M403.2 72H428v24.7h-24.8V72z"/><path class="st11" d="M531.2 119.4v-1.6l3.6 1.6-3.6 1.6v-1.6z"/><path class="st6" d="M56.5 119.4h474.9"/><path class="st11" d="M351.5 38.6l2.2 12.9 2.2-12.9h-4.4z"/><path class="st6" d="M351.5 38.6l2.2 12.9 2.2-12.9h-4.4z"/><path class="st12" d="M351.5 38.6l2.2 12.9 2.2-12.9h-4.4z"/><text transform="translate(490.382 135)" class="st3 st13">Time</text><text transform="translate(310.842 17.5)"><tspan x="0" y="0" class="st3 st13">Resend request</tspan><tspan x="17.7" y="14.4" class="st3 st13">threshold</tspan></text><path class="st12" d="M261.7 78.9h14.6v9.6h-14.6v-9.6z"/><text transform="translate(261.723 87.893)" class="st3 st15">96</text><path class="st12" d="M286.8 78.9h14.6v9.6h-14.6v-9.6z"/><text transform="translate(286.81 87.894)" class="st3 st15">97</text><path class="st12" d="M311.8 78.9h17v9.6h-17v-9.6z"/><text transform="translate(311.838 87.893)" class="st3 st15">98</text><path class="st12" d="M335.7 78.9h14.6v9.6h-14.6v-9.6z"/><text transform="translate(335.737 87.893)" class="st3 st15">99</text><path class="st12" d="M357.1 78.9h19.5v9.6h-19.5v-9.6z"/><text transform="translate(357.063 87.893)" class="st3 st15">100</text><path class="st12" d="M381.8 78.9h19.5v9.6h-19.5v-9.6z"/><text transform="translate(381.808 87.893)" class="st3 st15">101</text><path class="st12" d="M406.2 78.9h21.9v9.6h-21.9v-9.6z"/><text transform="translate(406.166 87.893)" class="st3 st15">102</text><path class="st12" d="M431.1 78.9h19.5v9.6h-19.5v-9.6z"/><text transform="translate(431.149 87.893)" class="st3 st15">103</text><path class="st12" d="M455.9 78.9h19.5v9.6h-19.5v-9.6z"/><text transform="translate(455.904 87.892)" class="st3 st15">104</text><path class="st12" d="M480.3 78.9h19.5v9.6h-19.5v-9.6z"/><text transform="translate(480.296 87.893)" class="st3 st15">105</text><path class="st12" d="M505 78.9h19.5v9.6H505v-9.6z"/><text transform="translate(505.04 87.892)" class="st3 st15">106</text><path class="st12" d="M236.6 78.9h14.6v9.6h-14.6v-9.6z"/><text transform="translate(236.628 87.894)" class="st3 st15">95</text><path class="st12" d="M212 78.9h14.6v9.6H212v-9.6z"/><text transform="translate(211.952 87.893)" class="st3 st15">94</text><path class="st12" d="M186.8 78.9h17v9.6h-17v-9.6z"/><text transform="translate(186.788 87.893)" class="st3 st15">93</text><path class="st12" d="M162.3 78.9h14.6v9.6h-14.6v-9.6z"/><text transform="translate(162.256 87.894)" class="st3 st15">92</text><path class="st12" d="M137.6 78.9h14.6v9.6h-14.6v-9.6z"/><text transform="translate(137.65 87.892)" class="st3 st15">91</text><path class="st12" d="M112.7 78.9h14.6v9.6h-14.6v-9.6z"/><text transform="translate(112.655 87.893)" class="st3 st15">90</text><path class="st12" d="M88.4 78.9H103v9.6H88.4v-9.6z"/><text transform="translate(88.42 87.893)" class="st3 st15">89</text><path class="st12" d="M63 78.9h14.6v9.6H63v-9.6z"/><text transform="translate(63.038 87.893)" class="st3 st15">88</text><text transform="translate(48.253 111.003)" class="st3" font-size="10">Frames</text><path d="M353.7 58.9l-.2 50.1" fill="none" stroke="#f99d33" stroke-width="3.402" stroke-miterlimit="3.864"/></svg>