<svg style="background-color:#fff" version="1.1" id="Layer_1" xmlns="http://www.w3.org/2000/svg" x="0" y="0" viewBox="0 0 540 540" xml:space="preserve"><style>.st0{stroke-width:.85}.st0,.st2,.st3{fill:none;stroke:#000;stroke-miterlimit:3.864}.st2{stroke-width:.709}.st3{stroke-width:1.559;stroke-dasharray:2.835}.st7{font-family:Helvetica,Arial,sans-serif}.st8{font-size:12px}.st9{font-size:6.996px}.st10{fill:#68bd45}.st11{font-size:11px}.st14{fill:#e2001a}</style><path class="st0" d="M424 189.2l-9.8-3 9.8-3.1v6.1zm-265.2-6l9.8 3.1-9.8 3v-6.1zM71 23.7L84.5 28 71 32.1v-8.4z"/><path d="M51.2 501.8h453.2" fill="none" stroke="#000" stroke-width="2.5" stroke-miterlimit="3.864"/><path d="M501.5 506l15.7-4.2-15.7-4.2v8.4z"/><path class="st2" d="M50 149.8h5.5"/><path class="st3" d="M55.5 340.5h140.6m0-58.9h263m-263 0v58.9m263-58.9v58.9m0 0h58.1"/><path class="st2" d="M55.5 281.7v58.9h461.7M50 281.6h5.5"/><path class="st0" d="M203.8 323.1h19"/><path d="M205.5 325.6l-9.2-2.5 9.2-2.5v5z"/><path class="st0" d="M164.2 323.1h-29.9"/><path d="M162.5 320.6l9.2 2.5-9.2 2.5v-5z"/><path class="st0" d="M466.8 323.1h18.9"/><path d="M468.5 325.6l-9.2-2.5 9.2-2.5v5z"/><path class="st0" d="M404.1 323.1H375"/><path d="M402.5 320.6l9.2 2.5-9.2 2.5v-5z"/><path class="st3" d="M55.5 472.2h124.3m0-58.9h236m-236 0v58.9m236-58.9v58.9m0 0h101.4"/><path class="st2" d="M55.4 413.3v58.9h454.2M50 413.3h5.4m454.2 58.9h5.4"/><path class="st0" d="M187.5 454.8h18.9"/><path d="M189.1 457.3l-9.2-2.5 9.2-2.5v5z"/><path class="st0" d="M423.5 454.8h18.9"/><path d="M425.2 457.3l-9.2-2.5 9.2-2.5v5z"/><path class="st0" d="M404.1 454.8H375"/><path d="M402.4 452.3l9.2 2.5-9.2 2.5v-5z"/><path class="st0" d="M164 454.8h-29.7"/><path d="M162.3 452.3l9.2 2.5-9.2 2.5v-5z"/><path class="st2" d="M55.5 140.2v43.4"/><path d="M53.4 141.6l2.1-7.7 2.1 7.7h-4.2z"/><path d="M170.4 323.1h27.2m211.2 0h53.5M162.1 454.8h27.2m211.6 0h27.3" fill="none" stroke="#000" stroke-width=".567" stroke-miterlimit="3.864"/><path d="M517.2 208.9h-83l-59.1-59H208.3l-59 59H55.5" fill="none" stroke="#000" stroke-width="1.559" stroke-miterlimit="3.864"/><path d="M171.7 179.7v292.4m240-292.4v292.4" fill="none" stroke="#262626" stroke-width="1.001" stroke-miterlimit="3.864" stroke-dasharray="12.7559,7.0866"/><path class="st2" d="M55.5 149.8v59.1h461.7M50 173.4h5.5m-5.5 26h5.5"/><text transform="translate(39.348 213.807)" class="st7 st8">0</text><text transform="translate(39.348 344.307)" class="st7 st8">0</text><text transform="translate(39.348 285.307)" class="st7 st8">1</text><text transform="translate(39.348 474.307)" class="st7 st8">0</text><text transform="translate(39.348 415.307)" class="st7 st8">1</text><text transform="translate(96 32.122)" class="st7 st8">= Signal threshold</text><text transform="translate(97 54.071)" class="st7 st8">= Low-to-high propagation delay</text><text transform="translate(70.259 52.071)" class="st7 st8">t</text><text transform="translate(74.18 56.067)" class="st7 st9">PLH</text><text transform="translate(141.092 444.834)" class="st7 st8">t</text><text transform="translate(145.012 448.83)" class="st7 st9">PLH</text><text transform="translate(141.092 314.093)" class="st7 st8">t</text><text transform="translate(145.012 318.089)" class="st7 st9">PLH</text><text transform="translate(70.926 72.738)" class="st7 st8">t</text><text transform="translate(74.846 76.734)" class="st7 st9">PHL</text><text transform="translate(380.846 314.093)" class="st7 st8">t</text><text transform="translate(384.766 318.089)" class="st7 st9">PHL</text><text transform="translate(380.848 444.835)" class="st7 st8">t</text><text transform="translate(384.768 448.831)" class="st7 st9">PHL</text><text transform="translate(98 75.166)" class="st7 st8">= High-to-low propagation delay</text><text transform="translate(174.348 273.166)" class="st10 st7 st11">Fast edge</text><text transform="translate(54.97 251.666)" class="st7 st8">Internal line status</text><text transform="translate(55.07 266.066)" class="st7 st8">(opto-coupled line)</text><text transform="translate(54.97 120.666)" class="st7 st8">Analog signal</text><text transform="translate(54.97 384.666)" class="st7 st8">Internal line status</text><text transform="translate(54.77 399.066)" class="st7 st8">(GPIO line)</text><text transform="translate(488.16 526.5)" class="st8" font-family="Helvetica,Arial,sans-serif" font-weight="700">Time</text><text transform="rotate(-90 112.008 83.34)" class="st7 st8">Voltage</text><text transform="rotate(-90 184.054 155.387)" class="st7 st8">Logic level</text><text transform="rotate(-90 247.888 219.22)" class="st7 st8">Logic level</text><text transform="translate(414.96 406.833)" class="st10 st7 st11">Fast edge</text><path d="M55.8 14h229.3v74.7H55.8V14z" fill="none" stroke="#000" stroke-miterlimit="10"/><text transform="translate(414.961 274.166)" class="st14 st7 st11">Slow edge</text><text transform="translate(174.348 404.832)" class="st14 st7 st11">Slow edge</text></svg>