<svg style="background-color:#fff" version="1.1" id="Layer_1" xmlns="http://www.w3.org/2000/svg" x="0" y="0" viewBox="0 0 360 130" xml:space="preserve"><style>.st0,.st1{fill:none;stroke:#000;stroke-width:.359;stroke-linecap:round;stroke-linejoin:round;stroke-miterlimit:10}.st1{stroke-width:.502}.st2{font-family:Helvetica,Arial,sans-serif}.st3{font-size:12px}</style><path class="st0" d="M124.9 38.3h-.2m-.1 0h-.2m0 0h-.3m0 0h-.3m0 0h-.5m0 0h-.4m0 0h-.6m0 0h-.5m0 0h-.6m0 0h-.7m0 0h-.8m0 0h-.8m0 0h-.9m0 0h-.9m0 0h-.9m0 0h-1m0 0h-1.1m0 0H113m0 0h-1.2m0 0h-1.1m0 0h-1.2m0 0h-1.3m0 0h-1.3m0 0h-1.4m0 0h-1.3m0 0h-1.5m0 0h-1.5m0 0h-1.4m0 0h-1.5m0 0h-1.5m0 0h-1.6m0 0h-1.5m0 0h-1.6m0 0h-1.6m0 0h-1.6m0 0h-1.6m0 0h-1.6m0 0H84m0 0h-1.6m0 0h-1.5m0 0h-1.7m0 0h-1.6m0 0H76m0 0h-1.6m0 0h-1.6m0 0h-1.6m0 0h-1.6m0 0h-1.5m0 0h-1.5m0 0h-1.5m0 0h-1.5m0 0h-1.4m0 0h-1.5m0 0h-1.3m0 0h-1.3m0 0h-1.3m0 0h-1.4m0 0h-1.2m0 0h-1.1m0 0h-1.2m0 0h-1.1m0 0h-1.1m0 0h-1m0 0h-.9m0 0h-.9m0 0H46m0 0h-.8m0 0h-.7m0 0h-.8m0 0h-.6m0 0h-.5m0 0H42m0 0h-.4m0 0h-.5m0 0h-.3m0 0h-.3m0 0h-.2m-.2 0H40"/><path class="st1" d="M148.6 39.4H13.2m136.5 0h-.3m0 0h-.2m0 0h-.3m0 0h-.3m6.8 0h-5.7m6.1 0h-.1m0 0h-.2m0 0h-.1m-142.2 0h-.5m0 0h-.4m0 0h-.6m0 0h-.4m0 0h-.4m0 0h-.5m0 0h-.2m0 0h-.4m0 0h-.3m0 0h-.1m0 0h-.2m0 0h-.1m0 0"/><path class="st0" d="M13.2 39.7v.2m0 0v.3m0 0v.2m0 0h135.4m0 0v-.2m0 0v-.3m0 0v-.2m1.9.7l-.1-.2m0 0v-.3m0 0l-.2-.2m0 0l-.1-.1m0-.1l-.2-.1m0 0h-.2m-1.1 1h.3m0 0h.4m0 0h.3m0 0h.3m0 0h.3m0 0h.3m5.6 0v-.2m0 0v-.3m0 0l-.1-.2m0 0l-.2-.1m0 0l-.1-.1m0 0l-.2-.1m0 0h-.1m-4.9 1h5.6"/><path class="st1" d="M156.8 40.4v-.2m0 0v-.3m0 0l-.2-.2m0 0l-.1-.1m0 0l-.2-.1m0 0l-.2-.1m0 0h-.3"/><path class="st0" d="M156.1 40.4h.2m0 0h.2m0 0h.2m0 0h.1m0 0"/><path class="st1" d="M8 40.4v-.2m0 0l.1-.3m0 0l.2-.2m0 0l.1-.1m0 0l.3-.1m0 0l.1-.1m0 0h.3"/><path class="st0" d="M8 40.4h.1m0 0h.2m0 0h.2m0 0h.2m0 0H9m0 0h.4m0 0h.3m0 0h.5m0 0h.4m0 0h.5m0 0h.5m0 0h.5m0 0h.5m0 0h.6"/><path class="st1" d="M40 38.3v.3m0 0l-.1.2m0 0l-.1.2m0 0l-.2.1m-.1.1l-.3.2m0 0H39m87 0h-.3m0 0l-.3-.2m-.2-.2l-.2-.2m0 0l-.1-.2m0 0v-.3"/><path class="st0" d="M40.8 9.1h.2m.1 0h.2m0 0h.3m0 0h.3m0 0h.5m0 0h.4m0 0h.5m0 0h.6m0 0h.6m0 0h.7m0 0h.8m0 0h.8m0 0h.9m0 0h.9m0 0h.9m0 0h1.1m0 0h1m0 0h1.1m0 0h1.1m0 0h1.3m0 0h1.2m0 0h1.3m0 0h1.3m0 0h1.3m0 0h1.4m0 0H63m0 0h1.4m0 0h1.5m0 0h1.5m0 0h1.5m0 0h1.6m0 0H72m0 0h1.6m0 0h1.6m0 0h1.6m0 0h1.7m0 0h1.6m0 0h1.6m0 0h1.5m0 0h1.6m0 0h1.7m0 0h1.6m0 0h1.6m0 0h1.6m0 0h1.6m0 0h1.5m0 0h1.5m0 0h1.5m0 0H99m0 0h1.5m0 0h1.4m0 0h1.4m0 0h1.4m0 0h1.3m0 0h1.3m0 0h1.4m0 0h1.1m0 0h1.2m0 0h1.2m0 0h1m0 0h1.2m0 0h1m0 0h.9m0 0h.9m0 0h.9m0 0h.8m0 0h.8m0 0h.7m0 0h.6m0 0h.5m0 0h.6m0 0h.5m0 0h.4m0 0h.3m0 0h.3m0 0h.2m.1 0h.2M52.2 84.9l-.2.2m0 0l-.1.2m-.1 0l-.1.2m.4.1H52m0-.2l.2-.1m.1 0l.2-.2m60.7.4l-.1-.2m0 0l-.2-.2m0 0l-.1-.2m0 0l-.2-.1m-.2.3V85m0 .1l.2.2m.2.1l.2.1m0 .1h-.2m36.2 0v-.3m0-.1v-.3m0-.1h-36.5"/><path class="st1" d="M113 85.7h36"/><path class="st0" d="M150.1 85.7h.1m0 0l.2-.1m0 0h.2m0 0l.1-.3m0 0l.1-.1m0 0v-.3m0-.1h-.2m0 0h-.3m0 0h-.3m0 0h-.3m0 0h-.4m0 0h-.3"/><path class="st1" d="M149 85.7h.3m0 0h.3m0 0h.3m0 0h.2"/><path class="st0" d="M156.3 85.7h.2m0 0l.2-.1m0 0h.1m0 0l.1-.3m0 0l.1-.1m0 0v-.3m0 0l.1-.1m0 0h-6.3"/><path class="st1" d="M150.1 85.7h6.2m.5 0h.2m0 0l.3-.1m0 0h.2m0 0l.1-.3m0 0l.1-.1m0 0l.1-.3m0 0"/><path class="st0" d="M157.8 84.8h-.2m0 0h-.3m0 0h-.2"/><path class="st1" d="M156.3 85.7h.3m0 0h.1m0 0h.1m-148.7 0h-.2m0 0l-.3-.1m-.1 0l-.2-.3m-.1-.1l-.1-.3m0 0"/><path class="st0" d="M13.2 85.6v-.3m0-.1v-.3m0-.1h-.6m0 0H12m0 0h-.5m0 0h-.6m0 0h-.6m0 0h-.5m0 0h-.4m0 0h-.6m0 0h-.3m0 0h-.4m0 0h-.3m0 0h-.3m0 0h-.2m-.2 0"/><path class="st1" d="M8.1 85.7h.1m0 0h.2m0 0h.2m0 0h.2m0 0h.3m0 0h.4m0 0h.3m0 0h.4m0 0h.5m0 0h.4m0 0h.6m0 0h.4m0 0h.5m0 0h.6"/><path class="st0" d="M52.4 84.8H13.2"/><path class="st1" d="M13.2 85.7h38.7"/><path class="st0" d="M54.3 84.8v-.2m0 0v-.2m0 0h-.5m0 0l-.5.1m0 0l-.4.1m0 0l-.5.2m.1.3l.5-.1m0 0l.4-.1m0 0l.4-.1m0 0h.5m56.3 0v-.2m0 0v-.2m0 0H54.3m0 .4h56.3m1.9 0l-.5-.2m0 0l-.4-.1m0 0l-.5-.1m0 0h-.5m0 .4h.4m0 0l.5.1m0 0l.4.1m0 0l.5.1m-1.8.6"/><path class="st1" d="M110.6 85.7h.4m0 0h.4m0 0h.4m0 0h.4m0 0h.4m0 0h.4"/><path class="st0" d="M112.8 85.6h-.3m0 0h-.4m0 0h-.4m0 0h-.3m0 0h-.4m0 0h-.4m-56.3.1"/><path class="st1" d="M54.3 85.7h56.3"/><path class="st0" d="M110.6 85.6H54.3"/><path class="st1" d="M51.9 85.7h.4m0 0h.4m0 0h.4m0 0h.4m0 0h.3m0 0h.5"/><path class="st0" d="M54.3 85.6h-.5m0 0h-.3m0 0h-.4m0 0h-.3m0 0h-.4m0 0h-.3"/><path class="st1" d="M123 8.1h-.2m0 0h-.2m0 0h-.3m0 0h-.3m0 0h-.5m0 0h-.5m0 0h-.4m0 0h-.6m0 0h-.7m0 0h-.7m0 0h-.8m0 0h-.8m0 0h-.8m0 0h-.9m0 0h-1m0 0h-1m0 0h-1m0 0h-1.2m0 0h-1m0 0h-1.3m0 0h-1.2m0 0h-1.2m0 0H105m0 0h-1.3m0 0h-1.4m0 0h-1.4m0 0h-1.4m0 0H98m0 0h-1.5m0 0H95m0 0h-1.5m0 0H92m0 0h-1.6m0 0h-1.6m0 0h-1.6m0 0h-1.6m0 0H84m0 0h-1.6m0 0h-1.5m0 0h-1.6m0 0h-1.6m0 0h-1.6m0 0h-1.6m0 0H73m0 0h-1.6m0 0h-1.5m0 0h-1.5m0 0h-1.5m0 0h-1.5m0 0H64m0 0h-1.4m0 0h-1.3m0 0h-1.4m0 0h-1.3m0 0h-1.3m0 0h-1.2m0 0h-1.2m0 0h-1.1m0 0h-1.2m0 0h-1m0 0h-1m0 0h-1m0 0h-.9m0 0h-.9m0 0h-.7m0 0h-.8m0 0h-.7m0 0h-.7m0 0h-.5m0 0h-.5m0 0h-.6m0 0H43m0 0h-.4m0 0h-.2m0 0h-.3m-.1 0h-.2m81.2 0h.3m0 0l.2.1m0 0l.2.1m0 0l.1.2m0 0l.2.2m0 0l.1.2m0 0v.2m-83.3 0v-.2m0 0l.2-.2m0 0l.1-.2m0 0l.1-.2m0 0l.2-.1m0 0l.2-.1m0 0h.2m116.1 73l-1.1-40.7"/><path class="st0" d="M156.1 40.4l1.1 40.7"/><path class="st1" d="M157.2 81.1h.2m0 0h.2m0 0h.1m0 0h.1m0 0h.1m0 0"/><path class="st0" d="M150.9 81.1l-.4-40.7m-1.9 0l.5 40.7"/><path class="st1" d="M150.9 81.1h-.2m0 0h-.3m0 0h-.3m0 0h-.4m0 0h-.3m0 0h-.3"/><path class="st0" d="M149.1 81.1l-.1 3.7"/><path class="st1" d="M157.8 84.8l.1-3.7"/><path class="st0" d="M157.2 81.1l-.1 3.7m-6.3 0l.1-3.7"/><path class="st1" d="M150.9 81.1h6.3m-144 0h135.9M7 81.1l.1 3.7"/><path class="st0" d="M13.2 81.1v3.7"/><path class="st1" d="M7.2 81.1h.2m0 0h.3m0 0H8m0 0h.4m0 0h.4m0 0h.4m0 0h.5m0 0h.5m0 0h.6m0 0h.6m0 0h.6m0 0h.6m0 0h.6"/><path class="st0" d="M13.2 81.1V40.4"/><path class="st1" d="M7 81.1l1-40.7"/><path class="st0" d="M110.6 84.8v.8m-56.3-.8v.8"/><path class="st1" d="M124.1 9.1l.8 29.2M40.8 9.1L40 38.3m112.8 47.4v1.1M12.2 85.7v1.1m7.8 0h-.7m0 0h-.7m0 0h-.7m0 0h-.6m0 0h-.6m0 0h-.6m0 0h-.6m0 0h-.6m0 0h-.4m0 0H14m0 0h-.4m0 0h-.4m0 0h-.3m0 0h-.3m0 0h-.1m0 0h-.2m0 0h-.1m0 0"/><path class="st0" d="M20 85.7v1.1"/><path class="st1" d="M144.9 86.8h-36.1m-24.9 0H69.1m-7.3 0h-.3m-7.2 0H20"/><path class="st0" d="M144.9 85.7v1.1"/><path class="st1" d="M152.8 86.8h-.1m0 0h-.1m0 0h-.1m0 0h-.2m0 0h-.3m0 0h-.3m0 0h-.4m0 0h-.4m0 0h-.5m0 0h-.4m0 0h-.6m0 0h-.6m0 0h-.6m0 0h-.6m0 0h-.6m0 0h-.7m0 0h-.7m0 0h-.7m0 0h-36.1m-24.9 0H69.1m-7.3 0h-.3m-7.2 0H20"/><path class="st0" d="M144.9 86.8v-1.1M20 86.8v-1.1"/><path class="st1" d="M144.9 86.8h.7m0 0h.7m0 0h.7m0 0h.6m0 0h.6m0 0h.6m0 0h.6m0 0h.6m0 0h.4m0 0h.5m0 0h.4m0 0h.4m0 0h.3m0 0h.3m0 0h.2m0 0h.1m0 0h.1m0 0h.1m-140.6 0h.1m0 0h.2m0 0h.1m0 0h.3m0 0h.3m0 0h.4m0 0h.4m0 0h.5m0 0h.4m0 0h.6m0 0h.6m0 0h.6m0 0h.6m0 0h.6m0 0h.7m0 0h.7m0 0h.7m132.8 0v-1.1M12.2 86.8v-1.1m96.8 1.1v.6m6.2 1h2.6m0-1.6v1.6m30.2 3.1h1.4m0-1.2v1.2m-23.1-2.6h.3m0-1.8v2.5m0 0h2.8m0-2.8v2.8m-4.7-.7h1.6m0-1.8v1.8m10.3 1.7v1.7m0 0H148m0-1.7v1.7m-34.8-2.7h.7m8-2.8v2.8m0 0h2.8m0-2.5v2.5M74 86.8V89m39.1.2v.2m10.3-2.3h.2m0 0h.2m0 0h.2m0 0h.3m0 0h.3m0 0h.4m0 0h.3m0 0h.4m0 0h.4m0 0h.4m0 0h.3m0 0h.5m0 0h.2m0 0h.3m0 0h.3m0 0h.2m0 0h.1m0 0h.1m0-.3v.3m-5.2-.3v.3m6.3-.3v4.1m0 0h7m-59.2-4.1v2.5m38.8 3.7h12.6m0-3.4V93m-91.3-6.2v2.6m0 0H42m0-2.6v2.6m-22 1.2V93m0 0h3m16.2 0h9.5m1.9 0h.2m-2.6-6.2v2.6m0 0h.5m5-2.6v.8m-14.5 8.9h8.1m3.3 0h.2m27.9-2.7v.3m-27.3-4.5h.2m-28.6 1v21.2m0 0h16.2m0-22.4v22.4m8.7-25v2.8m-5.3-2.8v2.8m0 0h5.3m13.7 5.1h11.6m-11.6 0v.8m12.4 0H61.6m41.7 0H76.6m26.7 0v-.8m-25.9 0h25.9M79 93l2.8-3M79 93l-1.9 2.1m-1.8.8h.3m0 0l.4-.1m0 0l.3-.1m0 0l.2-.2m0 0l.3-.2m0 0l.3-.2"/><path class="st0" d="M47.3 95.4h1.2"/><path class="st1" d="M49.2 94.4H49m-.1.1l-.2.1m-.1.1v.3m0 0l-.1.2m0 0v.2m-.7-1h1.4m-1.6.1l-.2.1m0 0"/><path class="st0" d="M48.5 96.4h-1.2"/><path class="st1" d="M48.5 96.4v-1m12.7-9l.2.1m0 .1l.1.2m-7.3.7l-.2.1m.3-.8l.1-.2m0 0l.2-.1m0 0"/><path class="st0" d="M60.6 87.9v-1.5"/><path class="st1" d="M60.7 87.9h.3m0 0l.2.1m0 0l.2.1m.1.2v.2m0 0v-1.6m7.2-.5l.2.1m.1.1l.1.2m.3.8l-.2-.1m-7.3-.7l.1-.2m.1-.1"/><path class="st0" d="M68.1 87.9v-1.5"/><path class="st1" d="M68.1 87.9h.2m0 0h.3m.1.1l.2.1m.2.2v.2m0 0v-1.6"/><path class="st0" d="M84.8 87.9v-1.5"/><path class="st1" d="M107.8 87.9h-23"/><path class="st0" d="M107.8 87.9v-1.5"/><path class="st1" d="M83.9 86.8v-.2m.1-.1l.3-.1m-.4 2.1v-1.6m0 1.6v-.2m.1-.2l.2-.1m0 0l.2-.1m0 0h.3m32.3 6.5h.2m.1.1l.2.1m-1.8-.2h1.3m-1.3 0h.2m.1.1l.2.1m0 .1l.1.3m0 0l.1.2m0 0v.2"/><path class="st0" d="M116.4 95.4h1.2"/><path class="st1" d="M117 97.5h.2m.1-.1l.2-.1m-64.8 4.4l.1.2m0 0l.2.1m-.6-1.1l.2.1m59.7 0l.2-.1m0 0h.2m-.8 1.1l.2-.1m0 0l.1-.2m0 0"/><path class="st0" d="M53.8 102.1v-1.5"/><path class="st1" d="M52.7 100v.2m.1.1l.2.1m.1.1l.2.1m0 0h.2m0 0h.3m-1.1 1V100"/><path class="st0" d="M111.1 102.1v-1.5"/><path class="st1" d="M111.1 100.6H53.8m-1.1-1.3v.7m-.5-.9h60.5m-60 0"/><path class="st0" d="M112.2 99.3H52.7"/><path class="st1" d="M75.9 99.1h.2m0 0h.2M48.7 87.3h.5m1.4 10.2v.3m0 0l.1.3m0 0l.1.3m0 0l.2.2m0 0l.2.2m0 0l.3.2m0 0l.3.1m0 0h.4m60.6 0h.3m0 0l.2-.1m0 0l.3-.2m0 0l.3-.2m0 0l.1-.2m0 0l.2-.3m0 0l.1-.3m0 0v-.3m-37.8 1.4v-.2m0 0v-.2m0 0v-.2m0 0V98m0 0v-.3m0 0v-.2m0-.3v.3m1.4-3.4h3.8"/><path class="st0" d="M76.5 97.5h5.2"/><path class="st1" d="M81.7 94.3v.3m0 2.6v.3m0 1.4v-.2m0 0v-.2m0 0v-.2m0 0V98m0 0v-.3m0 0v-.2m-33 0v.4m0 0l.2.5m0 0l.1.4m0 0l.2.4m0 0l.2.4m0 0l.3.3m0 0l.4.3m0 0l.3.2m0 0l.4.2m0 0l.4.2m0 0h.4m0 0l.6.1m0 0"/><path class="st0" d="M52.2 100.9v-1.8"/><path class="st1" d="M82.1 99.1h.2m29.9.2v.7m0 1.6V100m-2.6-12.7l-.3.1m0 0h-.4m-61.3 10l-.2-.1m1.8.2h-1.4m1.4 0H49m-.1-.1l-.2-.1m0 0l-.1-.2m0 0v-.2m0 0l-.1-.2m0 0v-.3"/><path class="st0" d="M112.7 100.9v-1.8"/><path class="st1" d="M111.1 100.6h.3m0 0h.3m.1-.1l.2-.1m.2-.2v-.2m-61.9-2.5h.2m-1.3 0h.9"/><path class="st0" d="M50.1 97.5v-3.1"/><path class="st1" d="M49.2 94.4h.9m.2 0h.2m62.3-5.2h.3m0 0l.2.1m0 0l.3.1m0 0l.3.2m0 0l.1.3m0 0l.2.2m0 0l.1.3m0 0v.4m1.9 3.2v-3.2m0 0v-.6m0 0l-.2-.4m0 0l-.1-.4m0 0l-.3-.4m0 0l-.2-.4m0 0l-.3-.4m-1 9.3v.3m0 0l-.1.3m0 0l-.1.3m0 0l-.2.2m0 0l-.2.2m-1 .3h.3m0 0l.3-.1m.1 0l.3-.2m.6-1.3v-4.3m-61.9-3.8h-.4m0 0l-.3.1m0 0l-.3.2m0 0l-.2.2m0 0l-.2.2m0 0l-.1.3m0 0l-.1.3m0 0v.3m22.2 2.5l.1.4m0 0v.4m0 0l.2.3m0 0l.3.3m0 0l.1.4m0 0l.3.1m0 0l.3.2m0 0l.4.2m0 0l.4.1m0 0h.3"/><path class="st0" d="M110.4 87.7v-.4"/><path class="st1" d="M110.4 87.3h-.2m0 0h-.3m0 0h-.2m-.2 0h.2m-.2.2l-.2.1m-36.5 5.9V91m0 0v-.3m0 0l-.1-.3m0 0l-.1-.3m0 0l-.2-.2m0 0l-.3-.2m0 0l-.2-.2m0 0l-.3-.1m0 0h-.3m3.4 1.6v-.4m0 0l-.2-.5m0 0l-.1-.4m0 0l-.2-.4m0 0l-.2-.4m0 0l-.3-.3m0 0l-.3-.3m0 0l-.4-.2m0 0l-.4-.3m0 0l-.5-.1m0 0h-.3m0 0l-.5-.1m3.9 6.4H75m-.3-.3v-.2m-22.5-5.9h1.6m15.8 0h1.7m-1.7 1.8h1.7m-1.7 0h-7.8m-.3 0h-7.7m-1.6 0h1.6m-.7-1.8H53"/><path class="st0" d="M51.9 87.6v-.3"/><path class="st1" d="M53 87.5l-.2-.1m-.1-.1h-.3m-.2 0H52m-.1 0l-.3-.1m0 0l-.2-.1m0 0l-.3-.1m0 0l-.2-.2m-2 0l.1.3m0 0l.2.4m0 0l.2.3m0 0l.2.3m0 0l.4.3m.6 9.1v-3.1m11.2-5.9v-1.6m0 2.3v-.7m-.3.7v-.7m-7.2.7v-.7m0 0v-1.6"/><path class="st0" d="M53.8 87.6v1.8"/><path class="st1" d="M54.1 89.4H54m-.2 0"/><path class="st0" d="M61.5 89.2h-7.2"/><path class="st1" d="M60.6 87.9h-5.3m-1 .6v-.2m.1-.1l.2-.1m0 0V88m0 0l.3-.1m0 0h.2m0 0h.2"/><path class="st0" d="M55.3 87.9v-1.5"/><path class="st1" d="M52.2 87.6l-.6.1m0 0h-.4m0 0l-.4.1m0 0l-.4.3m0 0l-.3.2m0 0l-.4.3m0 0l-.3.3m0 0l-.2.4m0 0l-.2.4m0 0l-.1.4m0 0l-.2.5m0 0v.4"/><path class="st0" d="M62.9 87.9v-1.5"/><path class="st1" d="M62.9 87.9h5.2m1 1.3v-.7m0 .9"/><path class="st0" d="M69.6 89.4v-1.8m-7.8 1.6h7.3"/><path class="st1" d="M61.8 88.5l.1-.2m.3-.3l.2-.1m0 0h.2m0 0h.3M75.5 94h-.2m6.5-4l.2-.2m0 0l.3-.2m0 0l.2-.1m0 0l.2-.1m0 0h.3m-1 4.4h-3.8m4.1-.2l-.3.2m-3.5-.2h3.8m-.3.2v.9m0 2.5v1.9m.3-1.9v1.6"/><path class="st0" d="M82.3 98.8h22.2"/><path class="st1" d="M106.8 96.6l-2.3 2.2m3.8-2.2h-1.5m3.7 2.2l-2.2-2.2"/><path class="st0" d="M110.5 98.8h3"/><path class="st1" d="M82.3 93.6v1.1m-33.6-7.3v.2m0 0v.2m0 0v.2m0 0v.3m0 0v.3m0 0v.3"/><path class="st0" d="M48.7 88.9h.7"/><path class="st1" d="M50.6 94.4V91m-1.9 3.4V91m67.5 3.4V94m-1.9.4v3.1m.1 0h.2m.1 0"/><path class="st0" d="M114.8 97.5v-3.1"/><path class="st1" d="M114.4 94.4h.2m.1 0"/><path class="st0" d="M117.6 96.4h-1.2"/><path class="st1" d="M115.7 97.5h.2m.1-.1l.2-.1m0 0v-.2m0 0l.1-.2m0 0l.1-.2m0 0v-.3m.6 1.1h-1.3m0-3.1h-.9m-.5 0V94m-1.5 6.9l.4-.1m0 0h.4m0 0l.4-.2m0 0l.5-.2m0 0l.3-.2m0 0l.4-.3m0 0l.3-.3m0 0l.2-.4m0 0l.2-.4m0 0l.1-.4m0 0l.2-.5m0 0v-.4M48.7 91v-2.1m62.2 1l3 3m2.5 3.5v-1m-.7 2.1h-.9m-37.1-5.8l-2 2.2m39.5-2.3l.3.3m0 0l.2.4m0 0l.2.4m0 0l.1.4m0 0l.2.4m0 0v.5m-4-5.4l3 3m-5.4-2.2h.3m0 0l.2.1m0 0l.4.2m0 0l.2.2M83 87.6h.3m26.1 0h.4m4.5 6.4v-.3m0 0l-.1-.3m0 0l-.2-.3m0 0l-.1-.2m-1.7-4.3l-.4-.3m0 0l-.3-.2m0 0l-.4-.3m0 0l-.4-.1m0 0h-.5m0 0l-.4-.1m3 1.6h.4m0 0l.4-.1m0 0l.4-.2m0 0l.4-.2m0 0l.4-.2m0 0l.3-.3m0 0l.3-.3m0 0l.2-.3m0 0l.3-.5m0 0l.1-.3m-32.2.7l-.2.1m-.1 0h-.2"/><path class="st0" d="M83.3 89.4v-1.8"/><path class="st1" d="M108.4 86.4l.2.1m.1.1v.2m.7.8h-.2m0 0h-.2m-.2-.2"/><path class="st0" d="M83.9 89.2h24.9"/><path class="st1" d="M108.8 89.2v-.7m-1-.6h.2m0 0h.2m0 0l.3.1m0 0l.2.1m0 .2l.1.2m-24.9.7v-.7m24.9 0v-1.6m.4 2.5h-.2m-.2 0"/><path class="st0" d="M109.4 89.4v-1.8"/><path class="st1" d="M109.4 89.4H83.3m-8.6 4.1V91m34.7-1.6h.4m4.2-2.6l-.2.2m0 0l-.2.1m0 0l-.3.1m0 0l-.2.1m0 0h-.3m-2.4 0h2.4M83 89.4h.3m-.3-1.8l-.4.1m0 0h-.4m0 0l-.4.1m0 0l-.3.1m0 0l-.4.3m0 0l-.2.2m0 0l-.4.3"/><path class="st0" d="M81.8 90l-1.3-1.3M79 93l-1.3-1.3m3.5-1.6l-2 2.2"/><path class="st1" d="M79.3 92.4l.1.2m1.8-2.5l.2.1m-.8-.7l-1.1-1m1.1 1l.6.6m-3.5 1.6l.2-.1m0-.2v-.2m-.6-.5v-.2m0 0v-.2m0-.1l.1-.2m0 0l.2-.2m0 0l.1-.2m.7-.7l-.7.7m.7-.7l.2-.2m.1-.1l.2-.1m0 0l.3-.1m.8.5h.2m0 0l.2-.1m-1.9 3l.7.5m-.7-.5l-1.1-1m2.1-.9l-.7.7m-.3 1.2v-.2m-.1 0v-.2m0 0l.1-.2m0 0l.1-.2m0 0l.1-.2m0 0l.1-.2m.7-.7l.2-.2m0 0l.1-.2m0 0h.3m.1-.1h.2m.1 0"/><path class="st0" d="M78.8 90.6l-1.1-1m1.8.3l-1.1-1"/><path class="st1" d="M52 89.4l-.3.2m0 0l-.2.2m0 0l-.3.3m0 0l-.2.2m0 0l-.2.4m0 0v.3m0 0v.4m0 6.1v-6.1m.7 7.4l-.3-.2m0 0l-.2-.2m0 0l-.2-.3m0 0v-.3m0 0v-.3"/><path class="st0" d="M51.5 98.8H76"/><path class="st1" d="M76 97.2v1.6m37.9-8.6l-.3-.2m0 0l-.2-.2m0 0l-.2-.3m-61.7 9.3l.1.2m0 0h.3m0 0l.2.1m0 0h.2m24 0v-1.9m0 .3h.2m5.2 0h.3M61.8 87.1h-.3m12.7 2.2H78m-24-1.7v-.2m.3-.3H54m49.3 8.4H76.6m-2.6 0H61.6m41.7 1.7v-1.7m-41.7 1.7h41.7m-41.7-1.7v1.7m23.1-10.8h-.3m23.4 0h-23m23.6 0h-.2m0 0h-.2m0 0h-.2m-39.7 0h-5.2m5.8 0h-.2m0 0h-.2m0 0h-.2m-5.2 0h-.2m0 0h-.2m0 0h-.3m-14.9 10v.3m0 .1v.2m0 0v.2m0-1.8v1m0-1.6v.2m0 0v.3m13.3-8.9h-5.3m5.9 0H61m0 0h-.3m-5.4 0h-.2m0 0h-.2m0 0h-.3m63 10.8V97m0 0v-.2m0-.1v-.3m0-1.1V95m0 0v-.2m0 1.6v-1m-63.8 6.7h57.3m-58 0h.2m0 0h.2m0 0h.3m57.3 0h.3m0 0h.2m0 0h.2"/><path class="st0" d="M151.3 88.7h-.1m0 0h-.2m0 0h-.2m0 0h-.3m0 0h-.3m0 0h-.4m0 0h-.5m0 0h-.4m0 0h-.5m0 0h-.6m0 0h-.7m0 0h-.6m0 0h-.8m0 0h-.6m0 0h-.8m0 0h-.8m0 0h-.8m0 0h-.8m0 0h-.8m0 0h-.8m0 0h-.7m0 0h-.8m0 0h-.8m0 0h-.8m0 0h-.7m0 0h-.7m0 0h-.8m0 0h-.6m0 0h-.7m0 0h-.5m0 0h-.5m0 0h-.6m0 0h-.4m0 0h-.4m0 0h-.3m0 0h-.3m0 0h-.2m0 0h-.1m0 0h-.1m0 0"/><path class="st1" d="M148.4 90.6h-.1m0 0h-.2m0 0h-.2m0 0h-.2m0 0h-.4m0 0h-.3m0 0h-.5m0 0h-.4m0 0h-.5m0 0h-.7m0 0h-.5m0 0h-.6m0 0h-.6m0 0h-.7m0 0h-.7m0 0h-.7m0 0h-.7m0 0h-.7m0 0h-.7m0 0h-.6m0 0h-.7m0 0h-.5m0 0h-.7m0 0h-.5m0 0h-.5m0 0h-.5m0 0h-.5m0 0h-.3m0 0h-.3m0 0h-.3m0 0h-.2m0 0h-.2m0 0h-.1m-2.8-1.9l-.1-.2m0 0l-.1-.3m0 0v-.3m0 0l.1-.2m0 0l.1-.3m0 0l.2-.2m0 0l.2-.1m0 0l.3-.2m0 0l.3-.1m0 0h.2m18.6 0h.2m0 0l.3.1m0 0l.2.2m0 0l.2.1m0 0l.2.2m0 0l.2.3m0 0l.1.2m0 0v.3m0 0l-.1.3m0 0l-.1.2m-18.2 1.9l-.4-.1m0 0l-.5-.1m0 0l-.4-.2m0 0l-.4-.1m0 0l-.3-.3m0 0l-.4-.3m0 0l-.2-.3m0 0l-.2-.5m21 0l-.3.5m0 0l-.2.3m0 0l-.3.3m0 0l-.4.3m0 0l-.4.1m0 0l-.4.2m0 0l-.4.1m0 0l-.5.1"/><path class="st0" d="M34.4 88.7h-.2m0 0h-.3m0 0h-.4m0 0h-.3m0 0h-.4m0 0h-.6m0 0h-.5m0 0h-.5m0 0h-.7m0 0h-.7m0 0h-.7m0 0h-.7m0 0h-.7m0 0h-.8m0 0h-.8m0 0h-.8m0 0h-.8m0 0h-.7m0 0H23m0 0h-.8m0 0h-.8m0 0h-.8m0 0h-.7m0 0h-.8m0 0h-.6m0 0h-.7m0 0h-.7m0 0h-.5m0 0h-.5m0 0h-.6m0 0h-.4m0 0h-.3m0 0h-.4m0 0h-.3m0 0h-.2m0 0h-.2m0 0h-.1"/><path class="st1" d="M31.8 90.6h-.1m0 0h-.2m0 0h-.2m0 0h-.2m0 0h-.4m0 0h-.3m0 0h-.5m0 0h-.5m0 0h-.5m0 0h-.6m0 0h-.5m0 0h-.6m0 0h-.7m0 0h-.6m0 0h-.7m0 0h-.7m0 0h-.7m0 0H23m0 0h-.6m0 0h-.7m0 0h-.6m0 0h-.6m0 0h-.6m0 0h-.6m0 0h-.5m0 0h-.4m0 0h-.5m0 0h-.3m0 0h-.4m0 0H17m0 0h-.2m0 0h-.2m0 0h-.1m-2.9-1.9l-.1-.2m0 0l-.1-.3m0 0l.1-.3m0 0l.1-.2m0 0l.1-.3m0 0l.2-.2m0 0l.1-.1m0 0l.3-.2m0 0l.3-.1m0 0h.3m18.5 0h.3m0 0l.3.1m0 0l.2.2m0 0l.2.1m0 0l.2.2m0 0l.1.3m0 0l.1.2m0 0l.1.3m0 0l-.1.3m0 0l-.1.2m-18.2 1.9l-.4-.1m0 0l-.5-.1m0 0l-.4-.2m0 0l-.4-.1m0 0l-.3-.3m0 0l-.4-.3m0 0l-.2-.3m0 0l-.3-.5m21.1 0l-.3.5m0 0l-.2.3m0 0l-.4.3m0 0l-.3.3m0 0l-.4.1m0 0l-.4.2m0 0l-.5.1m0 0l-.4.1"/><text transform="translate(211.333 44)" class="st2 st3">USB 3.0 connector</text><text transform="translate(228.667 96.378)"><tspan x="0" y="0" class="st2 st3">S-mount camera shown</tspan><tspan x="0" y="14.4" class="st2 st3">as an example</tspan></text><path d="M205.7 47L91.2 92.7" fill="none" stroke="#000" stroke-miterlimit="10"/></svg>