<svg style="background-color:#fff" version="1.1" id="Layer_1" xmlns="http://www.w3.org/2000/svg" x="0" y="0" viewBox="0 0 364 125" xml:space="preserve"><style>.st1{font-family:Helvetica,Arial,sans-serif}.st2{font-size:12px}.st4{fill:none;stroke:#000;stroke-width:.709;stroke-miterlimit:3.864}</style><text transform="translate(11 65.3)"><tspan x="0" y="0" class="st1 st2">Hardware Frame Start </tspan><tspan x="0" y="14.4" class="st1 st2">trigger signal</tspan></text><text transform="translate(184.665 96.827)" class="st1 st2">Exposure</text><text transform="translate(171.665 111.827)" class="st1" font-size="10">= ExposureTime</text><text transform="translate(125.5 21)" class="st1 st2">This rise in the trigger signal is ignored.</text><text transform="translate(125.5 35.4)" class="st1 st2">A FrameStartOvertrigger event is generated.</text><path class="st4" d="M211.8 41.3l13.5 20.2"/><path d="M222.8 61.5l5.9 5.3-2.5-7.6-3.4 2.3z"/><path class="st4" d="M118.7 81.7h36m0-24v24m0-24h42m0 0v24m0 0h36.8m.2-24v24m0-24h124.7"/><path d="M158.5 101.4h98.8" fill="none" stroke="#000" stroke-width=".227" stroke-miterlimit="3.864"/><path d="M161.4 99.6v3.7l-6.6-1.8 6.6-1.9zm94.9 0v3.7l6.5-1.8-6.5-1.9z"/></svg>