<svg version="1.1" id="Layer_1" xmlns="http://www.w3.org/2000/svg" x="0" y="0" viewBox="0 0 627.9 420.8" style="background-color:#fff" xml:space="preserve"><style>.st0{fill:#5b5b5b}.st1{font-family:Helvetica,Arial,sans-serif}.st2{font-size:20px}.st3{fill:#188fcf}.st4,.st5{fill:none;stroke:#15487e;stroke-width:7.5;stroke-miterlimit:10}.st5{stroke:#188fcf;stroke-width:12}.st6{fill:#f59d21}</style><g id="Text"><text transform="translate(90.39 381)" class="st0 st1 st2">High accuracy</text><text transform="translate(90.39 405)" class="st0 st1 st2">Low precision</text><circle class="st3" cx="153.8" cy="292.7" r="13.8"/><circle class="st4" cx="153.8" cy="292.7" r="37.6"/><circle class="st5" cx="153.8" cy="292.7" r="60.2"/><ellipse class="st6" cx="148.8" cy="287.9" rx="4.6" ry="5"/><ellipse class="st6" cx="135" cy="287.1" rx="4.6" ry="5"/><ellipse class="st6" cx="151.8" cy="305.1" rx="4.6" ry="5"/><ellipse class="st6" cx="172.5" cy="290.9" rx="4.6" ry="5"/><ellipse class="st6" cx="161" cy="296.3" rx="4.6" ry="5"/><ellipse class="st6" cx="136.5" cy="306.3" rx="4.6" ry="5"/><ellipse class="st6" cx="159.5" cy="281.7" rx="4.6" ry="5"/><text transform="translate(92.6 170.85)" class="st0 st1 st2">Low accuracy</text><text transform="translate(92.6 194.85)" class="st0 st1 st2">Low precision</text><circle class="st3" cx="153.8" cy="77.5" r="13.8"/><circle class="st4" cx="153.8" cy="77.5" r="37.6"/><circle class="st5" cx="153.8" cy="77.5" r="60.2"/><ellipse class="st6" cx="145.7" cy="86.8" rx="4.6" ry="5"/><ellipse class="st6" cx="109.7" cy="71.9" rx="4.6" ry="5"/><ellipse class="st6" cx="197.8" cy="111.7" rx="4.6" ry="5"/><ellipse class="st6" cx="158" cy="131.6" rx="4.6" ry="5"/><ellipse class="st6" cx="183.2" cy="65.7" rx="4.6" ry="5"/><ellipse class="st6" cx="139.6" cy="46.6" rx="4.6" ry="5"/><ellipse class="st6" cx="114.3" cy="123.2" rx="4.6" ry="5"/><text transform="translate(399.3 381)" class="st0 st1 st2">High accuracy</text><text transform="translate(399.3 405)" class="st0 st1 st2">High precision</text><circle class="st3" cx="462.7" cy="292.7" r="13.8"/><circle class="st4" cx="462.7" cy="292.7" r="37.6"/><circle transform="rotate(-45.001 462.669 292.667)" class="st5" cx="462.7" cy="292.7" r="60.2"/><ellipse class="st6" cx="463.6" cy="298.6" rx="4.6" ry="5"/><ellipse class="st6" cx="457.5" cy="285.2" rx="4.6" ry="5"/><ellipse class="st6" cx="467.4" cy="287.9" rx="4.6" ry="5"/><ellipse class="st6" cx="466.6" cy="294" rx="4.6" ry="5"/><ellipse class="st6" cx="454.4" cy="294" rx="4.6" ry="5"/><ellipse class="st6" cx="462" cy="290.2" rx="4.6" ry="5"/><text transform="translate(399.3 170.85)" class="st0 st1 st2">Low accuracy</text><text transform="translate(399.3 194.85)" class="st0 st1 st2">High precision</text><circle class="st3" cx="462.7" cy="77.5" r="13.8"/><circle class="st4" cx="462.7" cy="77.5" r="37.6"/><circle transform="rotate(-45.001 462.671 77.516)" class="st5" cx="462.7" cy="77.5" r="60.2"/><ellipse class="st6" cx="423.7" cy="45.1" rx="4.6" ry="5"/><ellipse class="st6" cx="435.2" cy="43.5" rx="4.6" ry="5"/><ellipse class="st6" cx="427.6" cy="35.9" rx="4.6" ry="5"/><ellipse class="st6" cx="419.1" cy="38.2" rx="4.6" ry="5"/><ellipse class="st6" cx="423.7" cy="54.3" rx="4.6" ry="5"/><ellipse class="st6" cx="414.5" cy="47.4" rx="4.6" ry="5"/></g></svg>