<svg style="background-color:#fff" version="1.1" id="Layer_1" xmlns="http://www.w3.org/2000/svg" x="0" y="0" viewBox="0 0 980 660" xml:space="preserve"><style>.st1{fill:none;stroke:#000;stroke-linejoin:round;stroke-miterlimit:3.864}.st2{stroke-width:.5}.st2,.st3{fill:none;stroke:#000;stroke-miterlimit:3.864}.st4{fill:#fff}.st5{fill:none;stroke:#000;stroke-width:.669;stroke-miterlimit:3.864}.st6{fill-rule:evenodd;clip-rule:evenodd}.st10,.st9{fill:none;stroke:#000;stroke-miterlimit:3.864}.st9{stroke-linejoin:round;stroke-width:3.000000e-03}.st10{stroke-width:.85}.st11{font-family:Helvetica,Arial,sans-serif}.st12{font-size:19.58px}</style><path d="M231.1 133.3h232.7V396H231.1V133.3z" fill="#ededee"/><path class="st1" d="M298.8 188.6h109.7"/><path d="M401.9 188.6c0-2.9 2.4-5.3 5.3-5.3s5.3 2.4 5.3 5.3-2.4 5.3-5.3 5.3c-3-.1-5.3-2.4-5.3-5.3z"/><path class="st2" d="M401.9 188.6c0-2.9 2.4-5.3 5.3-5.3s5.3 2.4 5.3 5.3-2.4 5.3-5.3 5.3c-3-.1-5.3-2.4-5.3-5.3z"/><path class="st1" d="M317.4 253.8h89.7"/><path class="st3" d="M407.1 453.5V92.9"/><path class="st4" d="M396.6 269.7h21.1v28.4h-21.1v-28.4z"/><path class="st5" d="M396.6 269.7h21.1v28.4h-21.1v-28.4z"/><path class="st3" d="M192.6 260.9H72.5L54.4 279l18.5 18.6h119.7v-36.7z"/><path class="st1" d="M317.3 269.9v-32.3m0 9.5l-19-19"/><path class="st6" d="M310.2 228.8L299 240h11.2v-11.2z"/><path d="M310.2 228.8L299 240h11.2v-11.2z" fill="none" stroke="#000" stroke-width=".028" stroke-linejoin="round" stroke-miterlimit="3.864"/><path class="st1" d="M298.8 228.5v-39.7m18.5 72.1l-18.8 18.9m.2-.3H193.1"/><path d="M293.5 279.5c0-2.9 2.4-5.3 5.3-5.3s5.3 2.4 5.3 5.3-2.4 5.3-5.3 5.3c-2.9-.1-5.3-2.4-5.3-5.3z"/><path class="st2" d="M293.5 279.5c0-2.9 2.4-5.3 5.3-5.3s5.3 2.4 5.3 5.3-2.4 5.3-5.3 5.3c-2.9-.1-5.3-2.4-5.3-5.3z"/><path d="M293.4 188.6c0-2.9 2.4-5.3 5.3-5.3s5.3 2.4 5.3 5.3-2.4 5.3-5.3 5.3c-2.9-.1-5.3-2.4-5.3-5.3z"/><path class="st2" d="M293.4 188.6c0-2.9 2.4-5.3 5.3-5.3s5.3 2.4 5.3 5.3-2.4 5.3-5.3 5.3c-2.9-.1-5.3-2.4-5.3-5.3z"/><path class="st1" d="M298.8 279.5v104.4"/><path class="st4" d="M288.4 316.6h21.1V345h-21.1v-28.4z"/><path class="st5" d="M288.4 316.6h21.1V345h-21.1v-28.4z"/><path class="st4" d="M396.7 209.8h21.1v28.3h-21.1v-28.3z"/><path class="st5" d="M396.7 209.8h21.1v28.3h-21.1v-28.3z"/><path d="M401.8 253.8c0-2.9 2.4-5.3 5.3-5.3s5.3 2.4 5.3 5.3-2.4 5.3-5.3 5.3-5.3-2.4-5.3-5.3z"/><path class="st2" d="M401.8 253.8c0-2.9 2.4-5.3 5.3-5.3s5.3 2.4 5.3 5.3-2.4 5.3-5.3 5.3-5.3-2.4-5.3-5.3z"/><path d="M21.5 32.1h694.3v596.1H21.5V32.1z" fill="none" stroke="#000" stroke-width=".672" stroke-linejoin="round" stroke-miterlimit="3.864" stroke-dasharray="8,4"/><path class="st6" d="M391.8 331.6h30.8l-15.4 18.2-15.4-18.2z"/><path class="st9" d="M391.8 331.6h30.8l-15.4 18.2-15.4-18.2z"/><path class="st10" d="M413.8 345.8h3.6v4.5h-19.9v4.5h3.8"/><text transform="translate(369.701 57.65)" class="st11 st12">3.3 VDC</text><text transform="translate(369.401 78.45)" class="st11 st12">(typical)</text><text transform="translate(732.05 298.1)"><tspan x="0" y="0" class="st11 st12">6-pin</tspan><tspan x="0" y="23.5" class="st11 st12">receptacle</tspan></text><path class="st1" d="M715.8 341.2h32.5v197.5h-32.5V341.2z"/><text transform="translate(726.403 371.744)" class="st11 st12">1</text><text transform="translate(726.403 403.033)" class="st11 st12">2</text><text transform="translate(726.403 434.327)" class="st11 st12">3</text><text transform="translate(726.403 465.615)" class="st11 st12">4</text><text transform="translate(726.403 496.904)" class="st11 st12">5</text><text transform="translate(726.403 528.193)" class="st11 st12">6</text><text transform="translate(55.443 73.903)" font-size="23.495" font-family="Helvetica,Arial,sans-serif" font-weight="700">Camera</text><text transform="translate(854.377 420.354)" class="st11 st12">Logic gate</text><text transform="translate(241.687 157.425)" class="st11 st12">Input buffer</text><text transform="translate(77.742 286.515)" class="st11 st12">FPGA input</text><path class="st1" d="M308 384h-18.6m127 175h-18.6m234.4-39h82.7m-307.8 0h225m-243.5-61v32.2m0-9.4l18.7 18.7"/><path class="st6" d="M391.9 496.4l11.2-11.2v11.2h-11.2z"/><path d="M391.9 496.4l11.2-11.2v11.2h-11.2z" fill="none"/><path class="st1" d="M407.1 500.3V520m-18.5-52.1l18.8-18.8"/><path class="st3" d="M407.1 429.6v20.2"/><path d="M401.9 520c0-2.9 2.4-5.3 5.3-5.3s5.3 2.4 5.3 5.3-2.4 5.3-5.3 5.3-5.3-2.4-5.3-5.3z"/><path class="st2" d="M401.9 520c0-2.9 2.4-5.3 5.3-5.3s5.3 2.4 5.3 5.3-2.4 5.3-5.3 5.3-5.3-2.4-5.3-5.3z"/><path d="M401.9 429.6c0-2.9 2.4-5.3 5.3-5.3s5.3 2.4 5.3 5.3-2.4 5.3-5.3 5.3c-3-.1-5.3-2.4-5.3-5.3z"/><path class="st2" d="M401.9 429.6c0-2.9 2.4-5.3 5.3-5.3s5.3 2.4 5.3 5.3-2.4 5.3-5.3 5.3c-3-.1-5.3-2.4-5.3-5.3z"/><path d="M532.7 519.9c0-2.9 2.4-5.3 5.3-5.3s5.3 2.4 5.3 5.3-2.4 5.3-5.3 5.3c-3 0-5.3-2.4-5.3-5.3z"/><path class="st2" d="M532.7 519.9c0-2.9 2.4-5.3 5.3-5.3s5.3 2.4 5.3 5.3-2.4 5.3-5.3 5.3c-3 0-5.3-2.4-5.3-5.3z"/><path d="M532.6 429.5c0-3 2.4-5.3 5.3-5.3 3 0 5.4 2.4 5.4 5.3 0 3-2.4 5.4-5.4 5.4-2.9 0-5.3-2.4-5.3-5.4z"/><path class="st2" d="M532.6 429.5c0-3 2.4-5.3 5.3-5.3 3 0 5.4 2.4 5.4 5.3 0 3-2.4 5.4-5.4 5.4-2.9 0-5.3-2.4-5.3-5.4z"/><path class="st3" d="M538 430.2v92.5"/><path class="st1" d="M407.1 499.9V559"/><path class="st6" d="M553.6 485.7h-31.2l15.6-18.5 15.6 18.5z"/><path class="st9" d="M553.6 485.7h-31.2l15.6-18.5 15.6 18.5z"/><path class="st10" d="M528.8 468H547m-.5-.3l5.5 5.4m-28.2-10.3l5.5 5.5"/><path class="st1" d="M867.2 520h-119"/><path class="st3" d="M867.2 613.7V520"/><path class="st1" d="M863.4 457.9H748.2"/><path class="st4" d="M863 458.2c0-2.9 2.4-5.3 5.3-5.3s5.3 2.4 5.3 5.3-2.4 5.3-5.3 5.3c-3-.1-5.3-2.4-5.3-5.3z"/><path d="M863 458.2c0-2.9 2.4-5.3 5.3-5.3s5.3 2.4 5.3 5.3-2.4 5.3-5.3 5.3c-3-.1-5.3-2.4-5.3-5.3z" fill="none" stroke="#000" stroke-width="1.001" stroke-miterlimit="3.864"/><path d="M897.8 481.5v-47.2l-23.6 23.6 23.6 23.6z" fill-rule="evenodd" clip-rule="evenodd" fill="#fff"/><path d="M897.8 481.5v-47.2l-23.6 23.6 23.6 23.6z" fill="none" stroke="#000" stroke-width="1.001" stroke-linejoin="round" stroke-miterlimit="3.864"/><path class="st1" d="M876.4 613.7h-18.5m3.4 4H873m-9.1 4h6.5M715.8 458.2h-58.1v-28.7H406.4"/></svg>