<svg style="background-color:#fff" version="1.1" id="Layer_1" xmlns="http://www.w3.org/2000/svg" x="0" y="0" viewBox="0 0 200 190" xml:space="preserve"><style>.st2,.st3{fill:none;stroke:#1a1a18;stroke-width:.283;stroke-linecap:round;stroke-linejoin:round}.st3{stroke-miterlimit:10}.st5{font-family:Helvetica,Arial,sans-serif}.st6{font-size:14.889px}</style><path d="M154.6 147c0 2.8-2.3 5.1-5.1 5.1H11.3c-2.8 0-5.1-2.3-5.1-5.1V8.8c0-2.8 2.3-5.1 5.1-5.1h138.1c2.8 0 5.1 2.3 5.1 5.1l.1 138.2z" fill="#fff"/><path d="M154.6 147c0 2.8-2.3 5.1-5.1 5.1H11.3c-2.8 0-5.1-2.3-5.1-5.1V8.8c0-2.8 2.3-5.1 5.1-5.1h138.1c2.8 0 5.1 2.3 5.1 5.1l.1 138.2h0z" fill="none" stroke="#1a1a18" stroke-width=".567" stroke-linecap="round" stroke-linejoin="round" stroke-miterlimit="10"/><path class="st2" d="M64.4 117.5c0-1.9 1.5-3.5 3.5-3.5 1.9 0 3.5 1.5 3.5 3.5 0 1.9-1.5 3.5-3.5 3.5-1.9-.1-3.5-1.6-3.5-3.5zm68 1.6c0 11.8-9.6 21.4-21.4 21.4s-21.4-9.6-21.4-21.4c0-11.8 9.6-21.4 21.4-21.4s21.4 9.6 21.4 21.4z"/><path class="st2" d="M128.8 119.1c0 9.9-8 17.9-17.9 17.9S93 129 93 119.1s8-17.9 17.9-17.9 17.9 8 17.9 17.9z"/><path class="st2" d="M136.7 119.1c0 14.2-11.5 25.7-25.7 25.7s-25.7-11.5-25.7-25.7S96.8 93.4 111 93.4c14.1-.1 25.7 11.5 25.7 25.7z"/><path class="st2" d="M107.8 119.1c0-1.9 1.5-3.5 3.5-3.5 1.9 0 3.5 1.5 3.5 3.5 0 1.9-1.5 3.5-3.5 3.5s-3.5-1.6-3.5-3.5zm-10 0c0-1.9 1.5-3.5 3.5-3.5 1.9 0 3.5 1.5 3.5 3.5 0 1.9-1.5 3.5-3.5 3.5s-3.5-1.6-3.5-3.5zm16.8-7.4c0-1.9 1.5-3.5 3.5-3.5 1.9 0 3.5 1.5 3.5 3.5 0 1.9-1.5 3.5-3.5 3.5-1.9 0-3.5-1.6-3.5-3.5zm-10.5-1.6c0-1.9 1.5-3.5 3.5-3.5 1.9 0 3.5 1.5 3.5 3.5 0 1.9-1.5 3.5-3.5 3.5s-3.5-1.6-3.5-3.5zm10.5 16.4c0 1.9 1.5 3.5 3.5 3.5 1.9 0 3.5-1.5 3.5-3.5 0-1.9-1.5-3.5-3.5-3.5-1.9 0-3.5 1.6-3.5 3.5zm-2.2 3.7c0 .8.7 1.5 1.5 1.5s1.5-.7 1.5-1.5-.7-1.5-1.5-1.5-1.5.7-1.5 1.5zm-12.1-4.9c0 .8.7 1.5 1.5 1.5s1.5-.7 1.5-1.5-.7-1.5-1.5-1.5-1.5.7-1.5 1.5zm12.1-17.3c0-.8.7-1.5 1.5-1.5s1.5.7 1.5 1.5-.7 1.5-1.5 1.5-1.5-.7-1.5-1.5zm-12.1 4.9c0-.8.7-1.5 1.5-1.5s1.5.7 1.5 1.5-.7 1.5-1.5 1.5-1.5-.7-1.5-1.5zm3.8 15.2c0 1.9 1.5 3.5 3.5 3.5 1.9 0 3.5-1.5 3.5-3.5 0-1.9-1.5-3.5-3.5-3.5s-3.5 1.6-3.5 3.5zm20.1-12.2v-.7H123l-3.6 2.6h-1.8c-.5 0-.8-.1-.8.4v1.9c0 .5.3.4.8.4h1.8l3.6 2.6h1.2v-.7l-.1-.1c-1-.7-1.7-1.8-1.7-3.1 0-1.5.7-2.7 1.8-3.3z"/><path class="st2" d="M125.7 122.1c-1.4 6.7-7.4 11.7-14.5 11.7-8.2 0-14.8-6.6-14.8-14.8s6.6-14.8 14.8-14.8c7.1 0 13.1 5 14.5 11.7-1.5.2-2.7 1.5-2.7 3 0 1.8 1.2 3.1 2.7 3.2z"/><path class="st3" d="M39 48.1c0 5.3-4.3 9.6-9.7 9.6-5.3 0-9.7-4.3-9.7-9.6s4.3-9.7 9.7-9.7c5.3.1 9.7 4.4 9.7 9.7z"/><path class="st3" d="M34.6 48.1c0 2.9-2.4 5.3-5.3 5.3S24 51 24 48.1s2.4-5.3 5.3-5.3c2.9.1 5.3 2.4 5.3 5.3zm106.9 0c0 5.3-4.3 9.6-9.6 9.6s-9.7-4.3-9.7-9.6 4.3-9.7 9.7-9.7c5.3.1 9.6 4.4 9.6 9.7z"/><path class="st3" d="M137.1 48.1c0 2.9-2.4 5.3-5.3 5.3s-5.3-2.4-5.3-5.3 2.4-5.3 5.3-5.3c3 .1 5.3 2.4 5.3 5.3zM39.8 11.9h81.4v72.7H39.8V11.9z"/><path class="st3" d="M109.6 15.7h8.1v10.4h-8.1V15.7zm-65.3 0h8.1v10.4h-8.1V15.7zm47.6 3.6h7.2v6.3h3v3.9h11.2v39.3H47.5l.2-39h11.2v-4.2h3v-6.3h7.2v-4.5h22.8v4.5"/><path d="M117.3 112.3l44.4-39.4m-44.4 53.4l44.4 13.7m-54.1-12l-27.1 28.6m30.3-37.3l-46.4-39m36.6 38.4L55.3 133m52.3-22.4l-3.4-44.5" fill="none" stroke="#000" stroke-miterlimit="10"/><text transform="translate(44.3 139.225)" class="st5 st6">4</text><text transform="translate(69.602 169.538)" class="st5 st6">3</text><text transform="translate(165.894 147.1)" class="st5 st6">2</text><text transform="translate(164.894 75.1)" class="st5 st6">1</text><text transform="translate(100 62.193)" class="st5 st6">5</text><text transform="translate(52.4 82.193)" class="st5 st6">6</text><circle class="st2" cx="67.9" cy="117.5" r="6.3"/></svg>