<svg style="background-color:#fff" version="1.1" id="Ebene_1" xmlns="http://www.w3.org/2000/svg" x="0" y="0" viewBox="0 0 563.4 267.5" xml:space="preserve"><style>.st0,.st1{fill:none;stroke:#000}.st0{stroke-linecap:round;stroke-linejoin:round;stroke-miterlimit:10;stroke-width:.4252}.st1{stroke-width:.2835}.st1,.st8{stroke-miterlimit:10}.st8,.st9{fill:none;stroke:#000;stroke-width:.2835;stroke-linecap:round;stroke-linejoin:round}.st11{fill:#020203}.st12{font-family:Helvetica,Arial,sans-serif}.st13{font-size:16px}.st14{font-size:12px}.st15{font-size:11.9906px}</style><g id="Lens"><path class="st0" d="M236.2 101.5l1.7-1.9m-11.3 1.9l11.2-11.3M217 101.5l28.3-28.3m-37.9 28.3l35-34.8m.4-.5l2.9-2.9M198 101.5l47.7-47.8m-57.3 47.8l54-54m-63.6 54l54-54m-63.5 54l59-59M93.2 101.1l62.4-62.3m-62 52.5l52.5-52.5M94.5 80.7l42-41.9M96.4 69.4l30-30M97.5 58.7l20-19.9M91.6 55.1l9.2-9m.9-1.1l6.2-6.2M85.8 51.5l11.4-11.7m-14.8 5.4l5.4-5.4m-12.7 3.1l3.1-3.1m81.6 61.7l18.7-18.7m0-.2l42.7-42.5m-71 61.4l18.7-18.7m9.6-9.6l33.1-33.1m-71 61.4l18.9-18.7m19-19.2L203 39.2m-71.9 62.3l18.8-18.7m21.2-21.4l22.3-22.2m-71.9 62.3l18.8-18.7m21.3-21.4l22.3-22.2M112 101.5l26.2-26.2m13.9-13.9l22.2-22.2m-71.8 62.3l35.7-35.7m4.3-4.4l21.8-21.7M78.2 163.2l-5.3-5.4m14.9 5.4l-6.8-6.7m15 5.4l-12.5-12.4m24.4 14.7l-6.2-6.2m-3.4-3.3l-8.5-8.5m27.7 18L93.2 140m33.2 23.6l-35.6-35.5m45.7 36.1l-47.1-47.1m56.7 47.1l-57.4-57.3m139.6 53.6l-59-59m62 52.6l-52.5-52.6m62.5 53l-52.9-53m57.3 47.8L198 101.5m47.7 38.2l-2.9-2.9m-2.2-2.1l-33.2-33.2m32 22.4l-.7-.6m-5.6-5.7L217 101.5m16.2 6.7l-6.6-6.7m-71 62.7l-26.4-26.3m-2.8-2.9l-33.5-33.5m71.4 61.9l-25.5-25.5m-12.4-12.5l-23.9-23.9m71.8 62.4l-26-26m-21.2-21.4l-15.1-15m71.9 62.4l-26-26m-21.2-21.4l-15.2-15m71.9 62.4l-26-26m-21.3-21.4l-15-15m71.9 62.4l-26-26m-21.3-21.4l-15.1-15m71 61.5l-32.1-32.2m-14.2-14.3l-15.1-15m71 61.5l-41.7-41.8m-4.8-4.7l-14.9-15m77.8-20.3l.2-.2v.8m0 0l-.2-.6M97.9 59h1v-.3m-.1 0c-3.7 13.9-5.6 28.3-5.7 42.7m.1.1h144.7m0 0l-.1-18.9m0 0h.8l5.5-3.2v-2.3h1.2V66.7h-4.7v-.5h5.1V47.5l-1.3 2.2m0 0l-1.2-2.2m0 0h-2.6m0 0l-1.2 2.2-1.3-2.2m0 0h-2.6m0 0l-1.2 2.2"/><path class="st0" d="M97.9 59l-7.5-4.7h-2.2v-2h-2.4v-7.1H75.1V42l2.2-2.2h23.5v8.5h.9v-8.5l1.2-1h22.8l1.2 1v2.9h1.8v-2.6l1.2-1.3h33.6l1.2 1.3v-.3l.7-.6h41.9l.6.6v.3h18.3l2.1 2.2v5.2h4.6l1.4 2.2m11 27.4v24.4h.4V66.2m-.4 35.3h-4.5m3.3-1.7V79.4m0 20.4h-3.3v1.7h-2.2V82.6m0 18.9h-.7m-162.8 0H81m16.9-39.1V59m109.2-19.8l-.2-.3M75.1 101.5V45.2m90.5-6l.2-.3m41.1 0h-41.1M90.4 84l2 .4m-4.2-.4h2.2m2 5.3v-4.9m-2 4.3h-2.2V88h4.2m0 1.3l-2-.6m-2.2 12.8V88.7m2.2 12.8V88.7m0-4.7V54.3M88.2 84V54.3m-2.4 47.2V52.3m148.5-2.6l1.2-2.2m3.8 2.2l1.3-2.2m3.8 2.2l1.3-2.2m-11.8 72.9h-.8m0 0l.2-18.9m0 0H88.6m0 0c0 14.5 1.9 28.9 5.7 42.9"/><path class="st0" d="M94.3 144.5h-.2v-.4h-.8l-7.7 4.7h-2.1v2H81v7H70.4v3.3l2.1 2.1H96v-8.5h3.9v-4h1.8v12.5l1.2 1h22.8l1.2-1v-2.8h1.8v2.6l1.2 1.2h33.6l1.2-1.2v.2l.7.7h41.9l.6-.7v-.2h18.3l2.1-2.2v-5.3h2.1m0 0l1.3-2.1m0 0l1.2 2.1h2.6m0 0l1.3-2.1 1.3 2.1"/><path class="st0" d="M238.1 155.5h2.5l1.2-2.1m0 0l1.4 2.1m0 0h2.5v-18.7h-5.1V126h-1.2v-2.3l-5.5-3.3M81 150.8v-49.3H70.4v56.3m13.1-9v-47.3H81m2.5 0h2.1v47.3m7.7-8.1v3.4m-4.7-42.6h-3m8.5 42.6v-.2m151.6-42.4h-.4m-11.4 18.9v-18.9m11.8 35.3v-35.3m-15.2 54h-.1m-38.2 9.6v.4l-.2.2m0 .5l-.5 1.2-.3.3m0 .3l-1.1 1-.4.3h-.1m0 .1l-1.5.9-.4.1-.3.1-1.7.6h-.8l-1.9.1h-.2l-.4-.1h-.2l-1.8-.4-.4-.2h-.4l-1.5-.8m0-.1l-.1-.2-.4-.1-1.2-1.1m0-.2l-.4-.3-.6-1.2m0-.4l-.1-.2-.2-.8m31.8-.9l.4-.3m33.3-62.4V126m-4.6-24.5v1.8h3.4v20.4m-73.6 40.5l-.4-.3m41.5.3h-41.1m9.5 0v1.7m.1-1.7v2.3m.6-2.3v3.5m.4-3.5v4m1.2-4v5.1m.4-5.1v5.2m.1-5.2v5.5m1.5-5.5v6.3m.4-6.3v6.3m.4-6.3v6.5m1.8-6.5v6.9m.2-6.9v6.9m.4-6.9v7m.2-7v7m1.9-7v6.9m.1-6.9v6.9m.4-6.9v6.9m.3-6.9v6.9m1.7-6.9v6.3m.3-6.3v6.2m.4-6.2v6.1m1.5-6.1v5.2m.1-5.2v5.1m.4-5.1v4.8m1.1-4.8v3.8m.3-3.8v3.2m.5-3.2v2m.2-2v1.3m49.6-12.1l-1.2 2.1m-3.8-2.1l-1.3 2.1m-3.8-2.1l-1.2 2.1m-55.4 8.7v.9m17.1-.9v.9M85.8 45.2v-9.5m350.8 157h7.2v-1m0 0h-.3l-.1-.4m-1.9 0h1.9m-1.9 0v.4h-.4l-.3-.4m-1.6 0h1.6m-1.6 0v.4h-.3l-.4-.4m-1.4 0h1.4m-1.4 0l.3.4h-.3l-.5-.4m-.8 0h.8m-.8 0l.4.4h-.1l-.6-.4m-.2 0h.2m-.2 0l.4.4m7.8-19.5h.3m-8.1 0l-.4.5m0 0h.2m0 0l.6-.5h.1l-.4.5m0 0h.8m0 0l.5-.5h.3l-.3.5m0 0h1.4m0 0l.4-.5h.3v.5m0 0h1.6m0 0l.3-.5h.4v.5m0 0h1.9m0 0l.1-.5m.3 0v-.8h-7.2m6.8 1.3v18.6m-1.9-18.6v18.6m-.7-18.6v18.6m-1.6-18.6v18.6m-.7-18.6v18.6m-1.4-18.6v18.6m-.5-18.6v18.6m-.8-18.6v18.6m-.5-18.6v18.6m.8-19.1v.2m0 19.2v.1m1-19.5v19.5m4.4-19.5v19.5m-4.9 1l-.9-1m.9-20.3l-.9.8m3.9-8.4v7.6m1.7-7.5h2.5m0 0v-1m-57.4-36.5l.1-.8-.1-1.1-.6-.8-.8-.4m1.4 3.2c.7 1.6 1.5 3.2 2.4 4.8m1.6 2.8l.2-.8-.4-1-.7-.8-.8-.2m1.8 2.9c.9 1.5 1.9 3 3 4.4m2.1 2.7l-.2-.9-.4-.9-.8-.7-.8-.2m2.2 2.7c1.1 1.4 2.3 2.7 3.6 4"/><path class="st0" d="M401.6 147.6l-.2-.8-.6-1-.8-.5-.9-.1m2.5 2.4c1.3 1.2 2.7 2.3 4.1 3.4"/><path class="st0" d="M408.4 153l-.3-.8-.7-.8-.9-.4h-.8m2.8 2c1.5 1 3 1.9 4.5 2.8m3 1.7l-.3-.9-.8-.6-1-.3-.9.1m3.1 1.7c1.6.8 3.2 1.5 4.9 2.2m3.1 1l-.5-.7-.9-.5-.9-.2-.9.3m3.3 1.2c1.7.6 3.4 1 5.1 1.5m3.3.6l-.6-.7-.9-.4H430l-.7.4m3.3.7c1.8.3 3.5.6 5.3.7m3.4.2l-.6-.5-1.1-.3-1 .1-.6.6m5.8-118.8c-31.1 0-56.4 25.2-56.4 56.4 0 31.1 25.2 56.4 56.4 56.4"/><path class="st0" d="M443.8 39.6c-34 0-61.6 27.6-61.6 61.6s27.6 61.6 61.6 61.6m0-124.3h-1.9m-5.3.4c-1.1.1-2.2.3-3.4.5m-5.2 1.1l-3.3.9m-5 1.9c-1 .4-2.1.9-3.1 1.4m-4.7 2.6c-1 .6-1.9 1.2-2.9 1.8m-4.3 3.1c-.9.7-1.8 1.4-2.6 2.2m-3.8 3.8c-.8.8-1.5 1.7-2.3 2.5m-3.3 4.2c-.7.9-1.3 1.9-1.9 2.8m-2.7 4.7c-.5 1-1 2-1.5 3.1m-1.9 4.9c-.4 1.1-.7 2.1-1 3.2m-1.3 5.2l-.6 3.3m-.6 5.4c-.1 1.1-.1 2.3-.1 3.4m.2 5.4c.1 1.1.2 2.3.4 3.4m3.4 13.6c.4 1.1.8 2.1 1.3 3.1m2.4 4.9c.5 1 1.1 2 1.7 2.9m3 4.4l2.1 2.7m3.6 4c.8.8 1.6 1.6 2.5 2.4m4.1 3.3c.9.7 1.8 1.4 2.8 2m4.5 2.9c1 .6 2 1.1 3 1.6m4.9 2.1c1.1.4 2.1.8 3.2 1.2m5.1 1.4c1.1.3 2.2.5 3.3.7m5.3.8c1.1.1 2.3.2 3.4.2m2.5-124.4v-1m-1.9 0l.8.6 1.1.1m-1.9-.7c-1.8.1-3.6.2-5.3.4"/><path class="st0" d="M433.2 39.3l.7.4 1.1.2.9-.4.7-.6m-3.4.5c-1.8.3-3.5.7-5.2 1.1m-3.3 1l.8.3 1-.2.9-.4.6-.7m-3.3 1c-1.7.5-3.4 1.2-5 1.8m-3.2 1.4l.9.2 1-.3.8-.5.4-.9m-3 1.5c-1.6.8-3.2 1.6-4.7 2.5m-3 1.8h1l.9-.2.7-.8.3-.8m-2.8 1.9c-1.5 1-2.9 2-4.3 3.2m-2.7 2h.9l.9-.5.7-.8.1-.8m-2.5 2.2c-1.3 1.2-2.6 2.4-3.8 3.7m-2.3 2.6l.8-.3.8-.6.5-.9v-.8m-2.1 2.6c-1.2 1.4-2.2 2.8-3.3 4.2m-2 2.8l.8-.3.8-.7.3-.9v-1m-1.8 2.9c-1 1.5-1.8 3.1-2.7 4.6m-1.4 3.1l.6-.4.7-.8.3-1-.2-.9m-1.4 3.1c-.7 1.6-1.4 3.3-2 5m-1.1 3.2l.6-.5.6-.8.1-1.1-.3-.8m-1 3.2c-.5 1.7-.9 3.4-1.3 5.2"/><path class="st0" d="M381.7 92.1l.6-.5.4-1-.1-1.1-.3-.8m-.5 3.5c-.3 1.8-.4 3.5-.5 5.3m-.2 3.4l.4-.7.3-1.1-.1-.9-.6-.7m0 3.4c0 1.8.1 3.6.2 5.3m.4 3.5l.4-.8.1-1.1-.4-1-.5-.5m62.5-64.5c-32.8 0-59.5 26.6-59.5 59.5 0 32.8 26.6 59.5 59.5 59.5M386 122.9l-1 .4m-3.3-13.6l.9-.3m-.9.3c.6 4.7 1.8 9.2 3.4 13.6"/><path class="st0" d="M425.5 146.9l.7-1.9.4-1.3m.1 0c1.6.6 3.2 1.2 4.8 1.6m-1.1 3.4l.7-2 .4-1.3m-.4 1.3c4.1 1.2 8.4 1.8 12.7 1.8m0-89.7c-23.4 0-42.5 19-42.5 42.5s19 42.5 42.4 42.5"/><path class="st0" d="M443.8 54c-22.6 0-42 16-46.3 38.2s7.8 44.3 28.7 52.7"/><path class="st0" d="M443.8 51.9c-27.3 0-49.3 22.1-49.3 49.3 0 27.3 22.1 49.3 49.3 49.3m-61.5-37.1l-.1-.1v-.1m1.6 6.6v-.3m101.1 28.9l.3-.1m4.5-4.3l.1-.3M463.9 41.8l.2.1m-6.6-1.9h.4m-6 151.7l.4-.4m-.3 0h.3m-.3 0l-.5.4.2-.4m-.8 0h.8m-.8 0l-.5.4h-.2l.2-.4m-1.4 0h1.4m-1.4 0l-.2.4h-.4l.1-.4m-1.8 0h1.8m-1.8 0l-.2.4h-.4v-.4m-1.9 0h1.9m-1.9 0l-.2.4h-.2"/><path class="st0" d="M443.8 191.7v1h7.3m-7.3-20.5v-.8h7.3m-7.3.8h.2l.2.5m0 0h1.9m0 0v-.5h.4l.2.5m0 0h1.8m0 0l-.1-.5h.4l.2.5m0 0h1.4m0 0l-.2-.5h.2l.5.5m0 0h.8m0 0l-.2-.5.5.5m0 0h.3m0 0l-.4-.5m.4.5v18.6m-.6-18.6v18.6m-.8-18.6v18.6m-.5-18.6v18.6m-1.4-18.6v18.6m-.5-18.6v18.6m-1.8-18.6v18.6m-.6-18.6v18.6m-1.9-18.6v18.6m1.9-19.1v19.5m4.3-19.5v19.5m1.1-19.5v.2m0 19.2v.1m-3.4-27.9v7.6m3 21.3l.8-1m-.8-20.3l.8.8m-8.1-28.5c23.4 0 42.5-19 42.5-42.5s-19-42.5-42.4-42.5m17-.1l.4-1.2m-.3 1.3c-1.6-.6-3.2-1.2-4.8-1.6m-.2-.1l.6-1.3"/><path class="st0" d="M443.8 150.6c27.3 0 49.3-22.1 49.3-49.3C493.1 74 471 52 443.8 52"/><path class="st0" d="M443.8 157.6c31.1 0 56.4-25.2 56.4-56.4 0-31.1-25.2-56.4-56.4-56.4"/><path class="st0" d="M443.8 162.9c34 0 61.6-27.6 61.6-61.6s-27.6-61.6-61.6-61.6"/><path class="st0" d="M443.8 148.4c22.6 0 42-16 46.3-38.2s-7.8-44.3-28.7-52.7m41.3 65.5c.6-1.7 1.2-3.4 1.6-5.1m-1.3 54.7l10.4-10.2m-8.9 6.9l.6.2.2-.3m-2 1.2l1.2-1.1m-1.2 1.1l.4.3-.1.1h-.7m-.8.8l.8-.8m-.8.8l.5.2-.1.1h-.7m-.4.4l.4-.4m-.4.4l.5.1h-.6m0 .2v-.2m12.1-11.7v.5l-.1.2.1-.7m-.4.4l.3-.4m-.3.4l-.1.7-.2.1v-.5m-.8.6l.8-.6m-.8.6v.7l-.2.2-.2-.5m-1 1.1l1-1.1m-1 1.1l.1.6-.3.2-.3-.4m-1.3 1.2l1.3-1.2m-1.3 1.2l.1.6-.2.3-.4-.2m-1.4 1.2l1.4-1.2m-1.4 1.2l.3.4-.4.3-.4-.1m-1.4 1.3l1.4-1.3m-1.4 1.3l.4.3m-17.1-11.9l10.4-10.1m-10.4 11.9h.1m0 0v-.7.5m0 0l.6-.4m0 0v-.6l.1-.2.1.6m0 0l.8-.8m0 0v-.7l.2-.2.2.4m0 0l1.1-1m0 0v-.6l.3-.2.3.2m0 0l1.2-1.2m0 0l-.2-.5.4-.3.4.3m0 0l1.4-1.4m0 0l-.3-.4.3-.3.5.2m0 0l1.3-1.2m0 0l-.3-.3.3-.3h.5m0 0l1.1-.9m0 0l-.4-.3.1-.1h.7m0 0l.7-.7m0 0l-.6-.1.1-.2h.7m0 0l.4-.4m0 0h-.5v-.1h.5m-53.6 16.7c1.1-.1 2.3-.1 3.4-.2m5.3-.8c1.1-.2 2.2-.4 3.3-.7m5.1-1.5c1.1-.4 2.1-.8 3.2-1.2m4.9-2.2c1-.5 2-1 3-1.6m4.5-2.9c.9-.6 1.8-1.3 2.7-2m10.2-9.8l2.1-2.7m3-4.4c.6-1 1.2-1.9 1.7-2.9m2.3-4.9c.4-1 .9-2.1 1.3-3.2m1.6-5c.3-1.1.6-2.2.8-3.3m.9-5.3c.1-1.1.3-2.2.3-3.4m.2-5.3c0-1.1-.1-2.3-.1-3.4m-.6-5.4l-.6-3.3m-1.3-5.2c-.3-1.1-.7-2.2-1.1-3.2m-2-5l-1.5-3m-2.7-4.7c-.6-1-1.2-1.9-1.9-2.8m-3.3-4.2c-.7-.9-1.5-1.7-2.3-2.5m-3.8-3.7c-.8-.7-1.7-1.5-2.6-2.2m-4.4-3.1c-.9-.6-1.9-1.2-2.9-1.8m-4.7-2.5c-1-.5-2.1-.9-3.1-1.4m-13.5-3.8c-1.1-.2-2.2-.3-3.4-.5m-5.4-.4h-1.5m46.1 118.3l13.7 14M491.4 156l13.1 13.3M492 155.4l12.9 13.5m-11.7-14.7l13.1 13.4m-12.5-13.9l13 13.3m-11.6-14.7l13 13.5m-12.5-14l13 13.3M497 150.6l13 13.3M497.5 150l13 13.5m-11.9-14.4l12.9 13.3M499 148.7l12.9 13.3m-12.2-14l13 13.4m-13.5-13.7l.3.2m13.2 13.6l.2.3m-13-14.1l13.1 13.4m-13.2-13.9v.1m.5-.1l13.1 13.5m-25.1-2.3v.1m13.5 13.9h.1m-13-13.9l12.9 13.4m-12.9-14l.2.2m13.1 13.5l.3.3m-13.4-13.6l13 13.3m-12.2-14.1l13 13.3M467.3 44.2l.2-1.1"/><path class="st0" d="M467.5 43.1l.4.8 1 .6.9.2.8-.2m4.8 2.6c-1.5-.9-3.1-1.7-4.7-2.5m4.7 2.4l.4.8.6.7 1 .4.9-.1m4.4 3.2c-1.4-1.1-2.8-2.1-4.3-3.1"/><path class="st0" d="M482.6 51.9l.2.9.7.8.9.4h.8m3.9 3.9c-1.2-1.3-2.5-2.5-3.9-3.7m3.9 3.6l.2.8.4 1 .8.5.9.3m3.3 4.2c-1-1.4-2.1-2.9-3.3-4.2m3.3 4.2v.8l.4.9.6.7.8.4m2.8 4.7c-.8-1.6-1.7-3.1-2.7-4.6m2.6 4.5l-.1.8.3 1.1.7.7.6.5m2.2 5c-.6-1.7-1.3-3.3-2-5m1.9 4.9l-.3.8.1 1.1.6.8.6.5m1.4 5.3c-.4-1.7-.8-3.5-1.3-5.2m1.3 5.2l-.4.6v1.1l.4 1 .5.5m.7 5.5c-.1-1.8-.3-3.6-.6-5.3"/><path class="st0" d="M506.4 97.1l-.5.7-.2 1.1.3.9.5.7m-.1 5.4c.1-1.8.2-3.6.2-5.3m-.3 5.3l-.6.7-.2.9.1.9.4.9m-.9 5.3c.4-1.7.7-3.5.9-5.3m-.9 5.2l-.7.6-.4.9v1l.2.8m-1.6 5.1l-.8.5-.5.8-.2 1 .2.8m-2.2 4.9c.8-1.6 1.6-3.2 2.3-4.8m-2.4 4.8l-.8.4-.7.6-.3 1.1.2.8m-3 4.5c1.1-1.4 2-2.9 3-4.4m-3 4.4l-1 .3-.6.6-.6.8v1m-.8-.7l.8.7m-10.8 9l.7.8M450 163.5l-.7-.4-1.1-.1-.9.3-.7.5m3.5-.2c1.8-.2 3.5-.4 5.3-.8m3.2-.8l-.8-.2h-.9l-1 .4-.5.7m3.3-.8c1.7-.4 3.4-.9 5.1-1.5m3.2-1.1l-.8-.3-1.1.1-.8.6-.6.7m3.3-1.1c1.7-.7 3.3-1.4 4.9-2.2m2.9-1.6l-.8-.1-.9.2-.9.7-.4.7m3.1-1.5c1.5-.9 3.1-1.8 4.5-2.8m2.7-2.1h-.8l-1 .4-.6.7-.3.8M450.7 38.9c-1.8-.2-3.6-.3-5.3-.4m5.2.3l.7.7 1 .2h.9l.8-.4m-.1 1.1l.1-1.1m13.6 3.9c-4.4-1.8-8.9-3.1-13.5-3.8m28.1 111.4c3.7-2.9 7.1-6.2 10.1-9.8m-48.5 22.9c1 0 1.9 0 2.9-.1m-2.9-124.6l.9-.3.5-.4m12.1 15.3l-.7 1.9m4.7 1.7l.7-2"/><path class="st0" d="M443.8 160.7c32.8 0 59.5-26.6 59.5-59.5 0-32.8-26.6-59.5-59.5-59.5m12.8 14.1c-4.1-1.2-8.4-1.8-12.7-1.8M503 172.6h-1.7m12.1-10.2v-1.7m-14.8-13.5h1.7m-12.1 10.1v1.8m2.3-16l5.9 6.3m-12.1-.5l6 6.3m10-8l13.1 13.5m-25.2-1.6l13.1 13.5M420 190.9l3.2.7m1.7.3l.2.1m1.7.3l1.7.4 4.7.5m1.8.3h.3m1.6.1l.1.2 6.5.1m1.6 0h.3m1.6 0l6.6-.5m1.6-.2h.3m1.6-.2l5.6-1 .9-.3m1.6-.4h.3m1.6-.4l3.9-1 2.3-.9m1.6-.5l.3-.1m10.8-4.6l1-.4 4.8-2.9m1.4-.8l.2-.1m1.4-.8l5.4-3.9m1.3-1l.3-.1m1.2-1.1l4.9-4.2.1-.1m1.1-1.2l.3-.2m1.1-1.2l3.3-3.5 1.1-1.3m1.1-1.3l.1-.2m1.1-1.2l2-2.6"/></g><g id="Mittellinien"><path class="st1" d="M370.7 101.1h7.1"/><path d="M380.7 101.1h2" fill="none" stroke="#000" stroke-width=".283" stroke-miterlimit="10" stroke-dasharray=".5719,2.8596"/><path d="M384.1 101.1h122.1" fill="none" stroke="#000" stroke-width=".283" stroke-miterlimit="10" stroke-dasharray="14.2981,2.8596,.5719,2.8596"/><path class="st1" d="M507.6 101.1h7.1m-459.8 0H62"/><path d="M64.7 101.1h1.9" fill="none" stroke="#000" stroke-width=".283" stroke-miterlimit="10" stroke-dasharray=".5444,2.722"/><path d="M68 101.1h175" fill="none" stroke="#000" stroke-width=".283" stroke-miterlimit="10" stroke-dasharray="13.6101,2.722,.5444,2.722"/><path class="st1" d="M244.4 101.1h7.1m192.3-71.5v7.1"/><path d="M443.8 39.4v1.9" fill="none" stroke="#000" stroke-width=".283" stroke-miterlimit="10" stroke-dasharray=".546,2.7301"/><path d="M443.8 42.7v136.2" fill="none" stroke="#000" stroke-width=".283" stroke-miterlimit="10" stroke-dasharray="13.6504,2.7301,.546,2.7301"/><path class="st1" d="M443.8 180.3v7.1"/></g><g id="Bemassung"><path class="st1" d="M18.6 48v107.7"/><path d="M16.1 49.7l2.5-9.3 2.4 9.3h-4.9zm0 104.4l2.5 9.2 2.4-9.2h-4.9z"/><path class="st1" d="M43.8 53.7V150"/><path d="M41.4 55.3l2.4-9.2 2.5 9.2h-4.9zm0 93l2.4 9.2 2.5-9.2h-4.9z"/><path class="st8" d="M70.4 158.1H39.8M74.4 45.2H39.8m37.7-5.3H14.2m57.9 123.4H14.2"/><path class="st9" d="M286.1 55.7v91.2"/><path d="M283.6 57.4l2.5-9.3 2.4 9.3h-4.9zm0 87.9l2.5 9.2 2.4-9.2h-4.9z"/><path class="st8" d="M246 47.4h45.4m-45.7 108.3h45.7"/><path class="st9" d="M221 200.9H78.2"/><path d="M219.3 198.5l9.2 2.4-9.2 2.5v-4.9zm-139.4 0l-9.2 2.4 9.2 2.5v-4.9z"/><path class="st9" d="M252.7 200.9h21.1"/><path d="M254.4 203.4l-9.2-2.5 9.2-2.4v4.9z"/><path class="st8" d="M245.7 147.7v57.4"/><path class="st9" d="M293.8 225.2H236"/><path d="M292.1 222.8l9.2 2.4-9.2 2.5v-4.9zm-54.4 0l-9.2 2.4 9.2 2.5v-4.9z"/><path class="st8" d="M228.1 161.6v67.8"/><path class="st9" d="M274.3 18.5h-19.9"/><path d="M256.1 16.1l-9.2 2.4 9.2 2.5v-4.9z"/><path class="st8" d="M302.1 229.4V100.2m-56.9-81.7h-15.3m-1.6 23.4V14.2M246 54.3V14.2"/><path class="st9" d="M220.7 18.3H83.9"/><path d="M219 15.8l9.2 2.4-9.2 2.5v-4.9zm-134.4 0l-9.2 2.4 9.2 2.5v-4.9z"/><path class="st8" d="M75.1 41.9L75 15"/><path class="st9" d="M306.5 89.2l26.3-71.1h5.2"/><path d="M309.4 88.5l-5.5 7.7.8-9.5 4.7 1.8z"/><path class="st8" d="M70.2 157.6l.2 47.3m174.8-4h-18.4"/><path d="M298.9 97.6l7 7m-7 0l7-7m-7 0l7 7m-7 0l7-7" fill="none" stroke="#000" stroke-width=".992" stroke-miterlimit="10"/><path class="st1" d="M494 191.6l6.5 10.2h34.8"/><path d="M492.5 195.2l-3.9-12.1 9.4 8.6-5.5 3.5z"/></g><g id="Text"><text transform="matrix(1 0 -.00479 1 137.9 131.986)" class="st11 st12 st13">Mod</text><text transform="rotate(-90 64.452 49.772)" class="st11 st12 st14">Ø 29</text><text transform="rotate(-90 202.576 -64.775)" class="st11 st12 st14">1-32 UN-2A</text><text transform="rotate(-90 207.425 -74.326)" class="st11 st12 st14">(C-mount)</text><text transform="rotate(-90 86.496 45.97)" class="st11 st12 st14">M27 x 0.5</text><text transform="translate(147.686 14.68)" class="st11 st12 st14">36</text><text transform="translate(229.467 14.844)" class="st11 st12 st14">4.1</text><text transform="translate(342.315 20.637)" class="st11 st12 st14">Sensor position</text><text transform="translate(229.695 197.151)" class="st11 st12 st14">4.1</text><text transform="translate(140.132 197.184)" class="st11 st12 st14">37.1</text><text transform="translate(246.624 222.399)" class="st11 st12 st14">17.526</text><text transform="translate(248.024 235.899)" class="st11 st12 st14">(in air)</text><text transform="translate(148.61 76.294)" class="st11 st12 st13">Inf.</text><text transform="translate(510.312 198.69)" class="st11 st12 st14">R22</text></g><text transform="translate(462.36 247.665)" class="st12 st15">Not to scale</text><text transform="translate(462.13 263.065)" class="st12 st15">Dimensions in mm</text></svg>