<svg style="background-color:#fff" version="1.1" id="Layer_1" xmlns="http://www.w3.org/2000/svg" x="0" y="0" viewBox="0 0 550 290" xml:space="preserve"><style>.st1{fill:#bde4f7;stroke-miterlimit:10}.st1,.st2{stroke:#1d1d1b}.st2,.st3{stroke-miterlimit:10}.st2,.st3{fill:none}.st3{stroke:#5a5a5a}.st4{fill:#5a5a5a}.st5{fill:none;stroke:#5a5a5a;stroke-miterlimit:10;stroke-dasharray:10.0828,3.0248}.st6{font-family:Helvetica,Arial,sans-serif}.st7{font-size:11px}.st8{font-family:Helvetica,Arial,sans-serif;font-weight:700}.st9{font-size:14px}.st10{enable-background:new}.st11{font-size:10px}</style><path d="M444.5 204.6h34.8v69.6h-34.8v-69.6z" fill="#e6e6e6"/><path class="st1" d="M4.5 28.8h474.7v34.8H4.5V28.8z"/><path class="st2" d="M4.5 28.8h474.7v104.3H4.5V28.8zm0 34.7h474.7M4.5 98.3h474.7M61.9 28.8v104.3M96.7 28.8v104.3m34.7-104.3v104.3m34.8-104.3v104.3M201 28.8v104.3m34.8-104.3v104.3m34.8-104.3v104.3m34.7-104.3v104.3m34.8-104.3v104.3m34.8-104.3v104.3m34.8-104.3v104.3m34.8-104.3v104.3"/><path class="st1" d="M4.5 169.8h474.7v34.8H4.5v-34.8z"/><path class="st2" d="M4.5 169.8h474.7v104.3H4.5V169.8zm0 34.8h474.7M4.5 239.4h474.7M61.9 169.8v104.3m34.8-104.3v104.3m34.7-104.3v104.3m34.8-104.3v104.3M201 169.8v104.3m34.8-104.3v104.3m34.8-104.3v104.3m34.7-104.3v104.3m34.8-104.3v104.3m34.8-104.3v104.3m34.8-104.3v104.3m34.8-104.3v104.3"/><path class="st3" d="M391.4 89.6l-63.2 114.7"/><path class="st4" d="M326.6 201.2l-2.7 10.9 7.8-8.1-5.1-2.8z"/><path class="st3" d="M356.6 89.6l-63.2 114.7"/><path class="st4" d="M291.8 201.2l-2.6 10.9 7.7-8.1-5.1-2.8z"/><path class="st3" d="M462.4 89.6L460 94"/><path class="st5" d="M458.5 96.6l-56.1 102"/><path class="st3" d="M401.6 200l-2.4 4.3"/><path class="st4" d="M397.6 201.2l-2.7 10.9 7.8-8.1-5.1-2.8z"/><path class="st3" d="M427.6 89.6l-2.4 4.4"/><path class="st5" d="M423.7 96.6l-56.1 102"/><path class="st3" d="M366.8 200l-2.4 4.3"/><path class="st4" d="M362.8 201.2l-2.6 10.9 7.7-8.1-5.1-2.8z"/><path class="st3" d="M321.8 89.6l-63.1 114.7"/><path class="st4" d="M257.1 201.2l-2.7 10.9 7.8-8.1-5.1-2.8z"/><path class="st3" d="M287.1 89.6l-63.2 114.7"/><path class="st4" d="M222.3 201.2l-2.7 10.9 7.8-8.1-5.1-2.8z"/><path class="st3" d="M252.3 89.6l-63.2 114.7"/><path class="st4" d="M187.5 201.2l-2.7 10.9 7.8-8.1-5.1-2.8z"/><path class="st3" d="M217.5 89.6l-63.2 114.7"/><path class="st4" d="M152.7 201.2l-2.6 10.9 7.7-8.1-5.1-2.8z"/><path class="st3" d="M182.7 89.6l-63.2 114.7"/><path class="st4" d="M118 201.2l-2.7 10.9 7.7-8.1-5-2.8z"/><path class="st3" d="M148 89.6L84.8 204.3"/><path class="st4" d="M83.2 201.2l-2.7 10.9 7.8-8.1-5.1-2.8z"/><text transform="translate(65.377 49.45)" class="st6 st7">Bit 11</text><text transform="translate(99.823 49.45)" class="st6 st7">Bit 10</text><text transform="translate(138.462 49.45)" class="st6 st7">Bit 9</text><text transform="translate(173.219 49.45)" class="st6 st7">Bit 8</text><text transform="translate(206.975 49.45)" class="st6 st7">Bit 7</text><text transform="translate(242.06 49.45)" class="st6 st7">Bit 6</text><text transform="translate(276.802 49.45)" class="st6 st7">Bit 5</text><text transform="translate(311.652 49.45)" class="st6 st7">Bit 4</text><text transform="translate(346.898 49.45)" class="st6 st7">Bit 3</text><text transform="translate(381.154 49.45)" class="st6 st7">Bit 2</text><text transform="translate(416.121 49.45)" class="st6 st7">Bit 1</text><text transform="translate(450.878 49.45)" class="st6 st7">Bit 0</text><text transform="translate(14.153 83.922)" class="st6 st7">Binary</text><text transform="translate(14.153 119.314)" class="st6 st7">Decimal</text><text transform="translate(74.523 86.22)" class="st8 st9">0</text><text transform="translate(109.288 86.22)" class="st8 st9">0</text><text transform="translate(144.053 86.22)" class="st8 st9">1</text><text transform="translate(178.818 86.22)" class="st8 st9">0</text><text transform="translate(213.583 86.22)" class="st8 st9">1</text><text transform="translate(248.347 86.22)" class="st8 st9">1</text><text transform="translate(283.112 86.22)" class="st8 st9">0</text><text transform="translate(317.877 86.22)" class="st8 st9">1</text><text transform="translate(352.642 86.22)" class="st8 st9">0</text><text transform="translate(387.406 86.22)" class="st8 st9">1</text><text transform="translate(422.172 86.22)" class="st8 st9">1</text><text transform="translate(456.937 86.22)" class="st8 st9">0</text><text transform="translate(74.609 120.314)" class="st6 st9">0</text><text transform="translate(109.374 120.314)" class="st6 st9">0</text><text transform="translate(136.277 120.314)" class="st6 st9">512</text><text transform="translate(178.903 120.314)" class="st6 st9">0</text><text transform="translate(205.807 120.314)" class="st6 st9">128</text><text transform="translate(244.502 120.314)" class="st6 st9">64</text><text transform="translate(283.197 120.314)" class="st6 st9">0</text><text transform="translate(314.032 120.314)" class="st6 st9">16</text><text transform="translate(352.727 120.314)" class="st6 st9">0</text><text transform="translate(387.492 120.314)" class="st6 st9">4</text><text transform="translate(422.257 120.314)" class="st6 st9">2</text><text transform="translate(457.022 120.314)" class="st6 st9">0</text><text transform="translate(67.47 21.274)" class="st8 st7">MSB</text><text transform="translate(451.924 21.274)" class="st8 st7">LSB</text><text transform="translate(484.778 106.603)" class="st10"><tspan x="0" y="0" class="st6 st11">Original pixel</tspan><tspan x="0" y="12" class="st6 st11">value (12 bit):</tspan></text><text transform="translate(484.778 130.603)" class="st8 st11">726</text><text transform="translate(67.863 190.49)" class="st6 st7">Bit 7</text><text transform="translate(102.948 190.49)" class="st6 st7">Bit 6</text><text transform="translate(137.69 190.49)" class="st6 st7">Bit 5</text><text transform="translate(172.54 190.49)" class="st6 st7">Bit 4</text><text transform="translate(207.787 190.49)" class="st6 st7">Bit 3</text><text transform="translate(242.042 190.49)" class="st6 st7">Bit 2</text><text transform="translate(277.01 190.49)" class="st6 st7">Bit 1</text><text transform="translate(311.766 190.49)" class="st6 st7">Bit 0</text><text transform="translate(14.153 224.961)" class="st6 st7">Binary</text><text transform="translate(14.153 260.353)" class="st6 st7">Decimal</text><text transform="translate(74.523 227.26)" class="st8 st9">1</text><text transform="translate(109.288 227.26)" class="st8 st9">0</text><text transform="translate(144.053 227.26)" class="st8 st9">1</text><text transform="translate(178.818 227.26)" class="st8 st9">1</text><text transform="translate(213.583 227.26)" class="st8 st9">0</text><text transform="translate(248.347 227.26)" class="st8 st9">1</text><text transform="translate(283.112 227.26)" class="st8 st9">0</text><text transform="translate(317.877 227.26)" class="st8 st9">1</text><text transform="translate(353.944 227.26)" class="st8 st9">-</text><text transform="translate(388.709 227.26)" class="st8 st9">-</text><text transform="translate(423.474 227.26)" class="st8 st9">-</text><text transform="translate(458.239 227.26)" class="st8 st9">-</text><text transform="translate(66.748 261.353)" class="st6 st9">128</text><text transform="translate(109.374 261.353)" class="st6 st9">0</text><text transform="translate(140.208 261.353)" class="st6 st9">32</text><text transform="translate(174.973 261.353)" class="st6 st9">16</text><text transform="translate(213.668 261.353)" class="st6 st9">0</text><text transform="translate(248.433 261.353)" class="st6 st9">4</text><text transform="translate(283.197 261.353)" class="st6 st9">0</text><text transform="translate(317.963 261.353)" class="st6 st9">1</text><text transform="translate(354.727 261.353)" class="st6 st9">-</text><text transform="translate(389.491 261.353)" class="st6 st9">-</text><text transform="translate(424.257 261.353)" class="st6 st9">-</text><text transform="translate(459.022 261.353)" class="st6 st9">-</text><text transform="translate(484.777 242.642)" class="st10"><tspan x="0" y="0" class="st6 st7">New pixel</tspan><tspan x="0" y="13.2" class="st6 st7">value (8 bit):</tspan></text><text transform="translate(484.777 269.042)" class="st8 st7">181</text><text transform="translate(484.778 65.544)" class="st10"><tspan x="0" y="0" class="st6 st11">Original pixel</tspan><tspan x="0" y="12" class="st6 st11">value (8 bit):</tspan></text><text transform="translate(484.778 89.544)" class="st8 st11">45</text></svg>