<svg style="background-color:#fff" version="1.1" id="Ebene_1" xmlns="http://www.w3.org/2000/svg" x="0" y="0" viewBox="0 0 238.9 189.4" xml:space="preserve"><style>.st0{fill:#f6f6f6}.st1{stroke-width:.4252;stroke-linecap:round;stroke-linejoin:round;stroke-miterlimit:10}.st1,.st3,.st4{fill:none;stroke:#000}.st3{stroke-linecap:round;stroke-linejoin:round;stroke-miterlimit:10;stroke-width:.5669}.st4{stroke-width:.2835}.st4,.st5{stroke-miterlimit:10}.st5,.st9{fill:none;stroke:#000;stroke-width:.2835;stroke-linecap:round;stroke-linejoin:round}.st10{font-family:Helvetica,Arial,sans-serif;font-style:italic}.st11{font-size:8.4737px}.st12{font-family:Helvetica,Arial,sans-serif}.st13{font-size:4.2369px}.st14{font-size:7.9088px}</style><g id="Lens_1_"><path class="st0" d="M122.3 112.8l.9 1.4.8-1.4.9 1.4.8-1.4.9 1.4.8-1.4.9 1.4.8-1.4.9 1.4.8-1.4.9 1.4.8-1.4v-4.2h8.6l1.4-1.4v-6.4h-24.1v7.1H21.3l-.9 1.4-.9-1.4-.8 1.4-.8-1.4-.9 1.4-.8-1.4-.9 1.4-.9-1.4-.8 1.4-.8-1.4-.9 1.4-.5-1.4-1.2.6v10.1l.8.8h26.5l.6-.6.5.6h26.3l.5-.8.9.8h32.1l.9-.8.8.8h17.5l1.4-1.4v-5.2h3.3zm0-69.4l.9-1.4.8 1.4.9-1.4.8 1.4.9-1.4.8 1.4.9-1.4.8 1.4.9-1.4.8 1.4.9-1.4.8 1.4v4.1h8.6l1.4 1.4v6.4h-24.1v-7.1h-98l-.9-1.4-.8 1.4-.9-1.4-.9 1.4-.8-1.4-.8 1.4-.9-1.4-.9 1.4-.8-1.4-.8 1.4-.9-1.4-.8 1.4V37.6l.8-.9h26.5l.6.6.5-.6h26.3l.5.9.9-.9h32.1l.9.9.8-.9h17.5l1.4 1.4v5.3h3.3z"/><path class="st0" d="M21.4 48.3h1.7v1.5l5.6 3.8c-3.6 5.1-6.2 11.1-7.2 17.4m-.1 14.4V108h1.7v-1.5l5.6-3.8c-3.7-5.2-6.2-11.2-7.3-17.6v.3zm121 15.4h-1.9v-2.3l-3-2.1c1.5-5.9 2.9-12 2.9-18.3s-1.4-12.5-2.9-18.3l3-2.1V55h1.9v45.8z"/><path class="st1" d="M21.2 78.1c0-9.2 2.9-17.5 7.8-24.5m-.1 0l-5.6-3.8"/><path d="M21.3 107.8V48.3" fill="none" stroke="#000" stroke-width=".992" stroke-linejoin="round" stroke-miterlimit="10"/><path class="st1" d="M23.4 64.7V48.3"/><path class="st3" d="M20.8 48.3h97.6V55h23.9"/><path class="st1" d="M21.2 78.1c0 9.2 2.9 17.5 7.8 24.5m-.1.1l-5.6 3.8m.1-14.9v16.3M118.3 55v45.8m24.1.1h-1.8v-2.3l-3-2.1c1.5-5.9 2.9-12 2.9-18.3 0-6.4-1.4-12.5-2.9-18.3l3-2.1v-2.6h1.8v45.7z"/><path class="st4" d="M140.6 98.5V57.6"/><path class="st0" d="M50.7 36.7v-3.6H54V28l-.9-.5h-9.4l-1 .5v5.1h3.4v3.6h4.6z"/><path class="st5" d="M42.7 33.1H54"/><path class="st3" d="M50.7 36.7v-3.6H54V28l-.9-.5h-9.4l-1 .5v5.1h3.4v3.6"/><path class="st0" d="M80.6 36.7v-3.6h3.3V28l-.9-.5h-9.4l-1 .5v5.1H76v3.6h4.6z"/><path class="st5" d="M72.6 33.1h11.3"/><path class="st3" d="M80.6 36.7v-3.6h3.3V28l-.9-.5h-9.4l-1 .5v5.1H76v3.6M10.2 48.3l.8-1.4.9 1.4.8-1.4.8 1.4.9-1.4.9 1.4.8-1.4.8 1.4.9-1.4.9 1.4.8-1.4.9 1.4m101.9 64.5l.9 1.4.8-1.4.9 1.4.8-1.4.9 1.4.8-1.4.9 1.4.8-1.4.9 1.4.8-1.4.9 1.4.8-1.4v-4.2h8.6l1.4-1.4v-6.4h-24.1v7.1H21.3l-.9 1.4-.9-1.4-.8 1.4-.8-1.4-.9 1.4-.8-1.4-.9 1.4-.9-1.4-.8 1.4-.8-1.4-.9 1.4-.5-1.4-1.2.6v10.1l.8.8h26.5l.6-.6.5.6h26.3l.5-.8.9.8h32.1l.9-.8.8.8h17.5l1.4-1.4v-5.2h3.3z"/><path class="st3" d="M122.3 43.4l.9-1.4.8 1.4.9-1.4.8 1.4.9-1.4.8 1.4.9-1.4.8 1.4.9-1.4.8 1.4.9-1.4.8 1.4v4.1h8.6l1.4 1.4v6.4h-24.1v-7.1h-98l-.9-1.4-.8 1.4-.9-1.4-.9 1.4-.8-1.4-.8 1.4-.9-1.4-.9 1.4-.8-1.4-.8 1.4-.9-1.4-.8 1.4V37.6l.8-.9h26.5l.6.6.5-.6h26.3l.5.9.9-.9h32.1l.9.9.8-.9h17.5l1.4 1.4v5.3h3.3z"/><path class="st3" d="M122.3 43.4l.9-1.4.8 1.4.9-1.4.8 1.4.9-1.4.8 1.4.9-1.4.8 1.4.9-1.4.8 1.4.9-1.4.8 1.4"/></g><g id="Grau"><path d="M.1 78h149.8" fill="none" stroke="#000" stroke-width=".283" stroke-linecap="round" stroke-linejoin="round" stroke-miterlimit="10" stroke-dasharray="7.0923,2.3642,1.1821,2.3642"/><path class="st5" d="M45.3 89.1v74.1m0 6.5v5.6M27.4 18.4v114.4m0 14v16.9m-6.1-55.8v67.4m81-81.7v57.6m0 6.9v5.3m25-137.1v105.1m0 15.5v16m39.5-151.7v168.2M56.6 18.4v144.8m0 6.3v5.8m70.7-5.8v5.8m-8.3-164v31.8m23.4-20.5v27.2m-1.7 107.9v17.7m0-74.6V149M27.4 169.7v5.6m74.9-5.8v5.8"/><path d="M43.2 66.5h4.1m-4.1 22.9h4.1M100 62.5h4.1M100 93.4h4.1" fill="none" stroke="#000" stroke-width=".709" stroke-miterlimit="10"/><path d="M45.3 66.5v22.8m56.8-26.8v30.8" fill="none" stroke="#000" stroke-width="1.417" stroke-linejoin="round" stroke-miterlimit="10"/><path class="st3" d="M10.2 48.1v60.4"/><path class="st5" d="M11.9 48.1l.9 59.8m-2.4-59.8l1 59.8m2.1-59.8l.9 59.8m.9-59.6l.9 59.6m.7-59.6l1 59.6m.8-59.8l.8 59.8m17.8 23.5h-9.9"/></g><g id="Bemassung"><path class="st9" d="M21.2 166.1h115.5"/><path d="M135.8 167.4l4.6-1.3-4.6-1.2v2.5z"/><path class="st9" d="M56.7 154.9h66.9"/><path d="M122.8 156.1l4.6-1.2-4.6-1.2v2.4z"/><path class="st9" d="M127.4 154.9h35.8"/><path d="M162.4 156.2l4.6-1.3-4.6-1.2v2.5z"/><path class="st9" d="M140.8 131.4h22.3"/><path d="M162.4 132.6l4.6-1.2-4.6-1.3v2.5z"/><path class="st9" d="M21.3 131.4h2.5"/><path d="M22.9 132.6l4.6-1.2-4.6-1.3v2.5z"/><path class="st9" d="M21.4 144.4h20.1"/><path d="M40.7 145.6l4.6-1.2-4.6-1.3v2.5z"/><path class="st9" d="M140.6 144.4h-34.4"/><path d="M107.1 143.2l-4.6 1.2 4.6 1.3v-2.5z"/><path class="st9" d="M122.7 8.4h40.1"/><path d="M123.6 9.7l-4.7-1.3 4.7-1.2v2.5zm38.3 0l4.6-1.3-4.6-1.2v2.5z"/><path class="st9" d="M122.7 23.7h15.7"/><path d="M123.6 24.9l-4.7-1.2 4.7-1.3v2.5zm14.1 0l4.6-1.2-4.6-1.3v2.5z"/><path class="st9" d="M146.4 23.6h16.3"/><path d="M147.3 24.9l-4.6-1.3 4.6-1.2v2.5zm14.6 0l4.6-1.3-4.6-1.2v2.5z"/><path class="st4" d="M166.4 23.6h22.9m-94.6.1h24.1"/></g><g id="Text"><text transform="translate(29.377 127.166)" class="st10 st11">s</text><text transform="translate(33.568 130.152)" class="st12 st13">F</text><text transform="translate(27.216 140.1)" class="st10 st11">s</text><text transform="translate(31.407 143.09)" class="st12 st13">EP</text><text transform="translate(87.511 152.68)" class="st10 st11">i</text><text transform="translate(147.043 152.502)" class="st10 st11">f&apos;</text><text transform="translate(77.781 164.512)" class="st10 st11">d</text><text transform="translate(30.765 72.668)" class="st10 st11">d</text><text transform="translate(34.955 75.654)" class="st12 st13">EP</text><text transform="translate(87.257 72.668)" class="st10 st11">d</text><text transform="translate(91.448 75.654)" class="st12 st13">AP</text><text transform="translate(116.115 139.507)" class="st10 st11">s&apos;</text><text transform="translate(120.606 142.495)" class="st12 st13">AP</text><text transform="translate(18.216 186.836)" class="st12 st14">S</text><text transform="translate(25.694 186.836)" class="st12 st14">F</text><text transform="translate(138.112 186.836)" class="st12 st14">S</text><text transform="translate(143.411 186.836)" class="st10 st14">&apos;</text><text transform="translate(164.095 186.836)" class="st12 st14">F</text><text transform="translate(168.895 186.836)" class="st10 st14">&apos;</text><text transform="translate(173.363 186.836)" class="st12 st14">(= O</text><text transform="translate(188.964 186.836)" class="st10 st14">&apos;</text><text transform="translate(190.464 186.836)" class="st12 st14">for O @ -Inf.)</text><text transform="translate(42.736 186.836)" class="st12 st14">P</text><text transform="translate(53.895 186.836)" class="st12 st14">H</text><text transform="translate(124.552 186.836)" class="st12 st14">H</text><text transform="translate(130.252 186.836)" class="st10 st14">&apos;</text><text transform="translate(99.844 186.836)" class="st12 st14">P</text><text transform="translate(105.144 186.836)" class="st10 st14">&apos;</text><text transform="translate(147.043 127.166)" class="st10 st11">s&apos;</text><text transform="translate(151.534 130.154)" class="st12 st13">F</text><text transform="translate(173.422 22.07)" class="st12 st14">MBL</text><text transform="translate(94.725 22.07)" class="st12 st14">MSD</text><text transform="translate(137.618 6.787)" class="st12 st14">FB</text></g></svg>