<svg style="background-color:#fff" version="1.1" id="Ebene_1" xmlns="http://www.w3.org/2000/svg" x="0" y="0" viewBox="0 0 737 303.3" xml:space="preserve"><style>.st0,.st1,.st8{stroke-miterlimit:10}.st0{fill:none;stroke:#000;stroke-linecap:round;stroke-linejoin:round;stroke-width:.4252}.st1,.st8{stroke-width:.2835}.st1{fill:none;stroke:#000}.st8{stroke-linecap:round;stroke-linejoin:round}.st10,.st8,.st9{fill:none;stroke:#000}.st9{stroke-linecap:round;stroke-linejoin:round;stroke-width:.2835}.st10{stroke-width:.9921;stroke-miterlimit:10}.st11{fill:#020203}.st12{font-family:Helvetica,Arial,sans-serif}.st13{font-size:18px}.st14{font-size:12px}.st15{font-size:11.9906px}</style><g id="lens"><path class="st0" d="M415.1 141.9l3.2-3.3m-12.7 3.3l13-13m-22.5 13l22.9-23m-32.5 23l33.1-33.1M377 141.9l43.4-43.5m.4-.3l8.2-8.3m-61.6 52.1l52.2-52.1m-61.7 52.1l53.6-53.6m-63.2 53.6l54-54m-63.5 54l56.9-57m-66.5 57l66.5-66.6m-76 66.6l76-76.2m-85.5 76.2L395 57.1m-94.4 84.8l88.2-88.3M291 141.9l88.3-88.3m-97.9 88.3L368 55.4m-96 86.5l89.2-89.4m-98.8 89.4l89.2-89.4m-63.8 6.6l6.6-6.6M186 141.9L273.9 54m-97.3 87.9l88.1-88.3M167 141.9l88.1-88.3m-97.7 88.3l86.9-87m-96.5 87l88.3-88.3m-97.8 88.3l88.2-88.3m-95.3 85.9l83.7-83.9m.9-.8l1.3-1.2m-85.6 76l77-77.1m-76 66.6L199 52.5m-64.8 55.4l55.2-55.4m-52.8 43.4l43.3-43.4m-46 36.5l36.4-36.5m-42.8 33.2l31-30.8M124.7 79l21.6-21.6m-21.6 12.1l11.2-11.2m-19.7 10.3l11.1-11.2m125.5 84.5l22.2-22.2m.9-1l66.3-66.2m-98.8 89.4l22-22.2m10.5-10.5l53.7-53.7m-95.8 86.4l22.1-22.2m20-20.1l46.5-46.4m-98.2 88.7l22.1-22.2m21.2-21.3l46.1-45.9m-99 89.4l22.2-22.2m21.3-21.3L304 52.5m-98.8 89.4l30.3-30.5m13-13l38.8-38.6m-91.7 82.1l39.9-40.1m3.4-3.4l44.3-44.1m-219 166.2l-5.4-5.4m15 5.4l-4.7-4.6m8.6-1.1l-7.3-7.2m8.3-1.3l-7-7m16.4 7l-10.5-10.5m20.1 10.5l-14.4-14.6m44 34.6l-5.2-5.2m-14.8-14.8l-26.9-26.9m55.5 46.1l-4.2-4.4m-14.8-14.8l-38.4-38.4m67.8 58.4l-9.6-9.8m-10.4-10.2l-48.8-48.9m81 71.4l-22.2-22.1m-.4-.4l-59-59m91.4 81.8L81 141.9m96.9 87.2l-87.3-87.2m96.9 87.2l-87.4-87.2m96.8 87.2l-87.2-87.2m96.8 87.2l-87.3-87.2m97.9 88.1l-1.3-1.2m-.9-.8l-86.1-86.1m97.7 88.1l-88.2-88.1m97.8 88.1l-88.3-88.1m97.9 88.1l-88.3-88.1m97.7 88.1L167 141.9m97.7 88.1l-88.1-88.1m116.2 87.6l-5-5m62.4 5l-87.8-87.6m97.2 87.6L272 141.9m96 86.4l-86.6-86.4m97.9 88.1L291 141.9m97.8 88.1l-88.2-88.1m94.4 84.8l-84.8-84.8m84.9 75.3l-75.4-75.3m75.4 65.7l-65.9-65.7m66.5 56.8l-56.9-56.8m63.1 53.4l-53.6-53.4m63.6 54l-54-54m61.7 52l-52.2-52m61.6 52l-8.2-8.3m-.4-.2L377 141.9m42.6 32.9l-33.1-32.9m32.5 22.8l-22.9-22.8m22.5 12.9l-13-12.9m12.7 3.2l-3.2-3.2M274.3 230L231 186.7m-4.4-4.2L186 141.9m97.9 88.1l-43.4-43.3m-13.9-13.8l-31-31m91.7 82.1L250 186.7m-21.2-21.2l-23.6-23.6m97.2 87.6l-42.8-42.8m-21.2-21.2l-23.8-23.6m97.4 87.6l-42.8-42.8m-21.4-21.2l-23.6-23.6m97.2 87.6l-42.8-42.8m-21.2-21.2l-23.6-23.6m95.8 86.3l-49.8-49.9M267 165.5l-23.6-23.6m97.2 87.6l-60.8-60.7m-3.3-3.3l-23.7-23.6m-21-88.3h-6.5m0 0h-8.7l-.8.8v3h-.9v-2.7l-2-2.2h-49.6l-10.1 4.9h-14.9v.9H132v-.9h-12.8l-2.2 2.1v3.7h-3l-1.2 1.2v3.9l.7.6.4-.5"/><path class="st0" d="M113.9 68.4l1.1 1 1.1-1 1.1 1 1-1 1.1 1 1.1-1m0 0l.9 1v-1.5h3.4v16.5h2.7l-.3.2v.9l10.6 5.5m0 0c-4.4 16.6-6.6 33.7-6.6 50.9m0 0h287.2m2.4-46.9c-1.6 15.5-2.4 31.1-2.4 46.8"/><path class="st0" d="M420.8 95v6h1.2l8.1-3.4V94h.7v-3l-1.3-1.2H417v-.7l-.7-.7m0 0l-.3.3-.6-.8m0 0h-.7l-.7.8-.8-.8h-.5m0 0l-.8.8-.9-.8m0 0h-.5l-.8.8m0 0l-.8-.8m0 0h-.6m0 0l-.8.8-.6-.8m0 0h-.7l-.7.8m0 0l-.8-.8m0 0h-.5l-.8.8-.9-.8h-.5l-.8.8-.8-.8h-.4v1.9h-4.3V57.9l-4.2-4.3h-20.7l-2.1 2.2V61h-.7v-5.9l-2.6-2.6h-31l-3 3h-6.8l-2.9-3h-31.3l-2.6 2.6v6.3h-.5v-7l-1-.8h-.8l-.7.7h-2.7m-1.2 2l-.5.4-.6.1m0 0h-.5m0 0l-.6-.1-.5-.4m0 0l-1.2-1.1v-.9h-2.7l-.7-.7h-22.5V57l-6.8-.2v-3.2h-12.5"/><path class="st0" d="M430.1 97.6v44.3h.7V94m-.7 47.9H422V101m0 40.9h-1.2V101m-2.5 40.9h2.5m-293.7 0V90.5l3.6 1.6v-1.4l-3.6-1.6v-3.6m-2.4 56.4V84.4m2.7 5.1h.4m-6.5-20.1v72.5m-1.4 0v-21.3l.1-6.5V95.7l.1-5.4V77.1l.2-3.1v-5.1l.1-.5m-1.6 73.5v-14.3l.1-6.8V96.1l.1-5.4v-9.3l.2-3.6v-8.1l.1-.3m-1.6 72.5v-14.5l.1-6.8v-19.1l.2-5.8V80.9l.1-3.8v-7.2l.1-1v-.5m-1.6 73.5v-7.3l.1-7v-25.7l.2-5.8V81.4l.1-3.6v-7.1l.2-1v-.3m-1.7 72.5v-7.3l.2-7.2v-19.7l.1-6.2V85.3l.1-4.4v-9.2l.2-1.8v-1.5m-1.6 73.5l.1-7.3V108l.1-6.1V85.7l.2-4.3v-6.7l.1-2.3v-3m-1.6 72.5l.1-7.3v-20.5l.1-6.4V90.3l.2-5V74l.1-2.3v-3.3m-1.1 73.5V68.3m114.1-14.7h-1.6m6.5 0h-1.7m14.2 0h1l1 .1h2.6l1.2-.1h1m34.4 0h-.4l-.7.1h-9.7l-.7-.1h-.4"/><path class="st0" d="M127.1 90.5v-.9l.3-.1m153.3-33l-.6.2-.4.1m-2.7-2.5h5.1m112.1 155.1h.9v-2.7l.6-.7v-12.1h4.3v1.3m0 0l.1-.3m0 0l.8 1h.6m0 0l.8-1m0 0l.8 1h.5l.8-1 .7 1h.7l.8-1 .7 1h.6l.7-1m0 0l.8 1m0 0h.6l.8-1 .8 1h.5l.8-1 .7 1h.7l.8-1 .7.9 1.2-1.3v-.6h12.5l1.3-1.3v-2.9h-.7V186l-8.1-3.3h-1.2v5.9m-2.5-46.8c0 15.6.8 31.2 2.4 46.8m-2.4-46.7H76.8m0-.1c0 17.2 2.2 34.3 6.6 50.9"/><path class="st0" d="M83.4 192.6l-10.5 5.6v.8l.2.3h-2.7v16.6h-3.3v-.7m0 0l-1.1-1m-5.3 1l1.1-1 1.1 1 1.1-1 .9 1 1.1-1m-5.3 1l-1.1-1-.1.2"/><path class="st0" d="M59.5 214.4l-.9 1.1v3.7l1.2 1.3h17.9v-14.2h60.8v.4h-5.1v7.1l1.2 1.4h2.1v5.9H117v3l2.2 2.2H132v-.8h6.3v.8h14.9l5.9 2.8h55.7l.1-.1v-2.7h.9v2.9l.8.8h69.7l1-.8v-7h.5v6.4l1.1.9h34.4l1.3-1.3h6.8l1.3 1.3H367l1-.9v-6h.7v5.3l2.1 2.1h20.7l4.2-4.1v-8l-.6-.5v-2.7h-.9l-1.2-1.4m0 0l-.3-.4-.1-.7m0 0v-.5m0 0l.1-.6.3-.5m0 0l1.2-1.2m-335.6 6.1v-73.6"/><path class="st0" d="M58.7 207.6l.1 1.8.2 1.3.1 1.3v.9l.1.7.2.5.1.3m.1-.2v-.2l.2-1.1v-7.3l.1-3.8v-14l.1-5.4v-19.2l.2-7v-14.3m0 0h-1.1m1.6 73.3v-1.5l.2-1.9v-5.7l.1-3.7v-19.7l.1-6.1v-20.3l.2-7.3v-7.1m0 0h-1.1m1.6 72.3v-1.3l.1-1.8v-9.3l.2-4.2v-15.2l.1-6.1v-20.1l.1-7.2v-7.1m0 0h-1m1.6 73.3v-1.5l.1-1.9v-9.4l.2-4.4v-21.4l.1-6.5V149l.1-7.1m0 0h-1.1m1.7 72.3v-3.1l.1-2.4v-11.1l.1-4.7v-16.6l.2-6.3v-21l.1-7.1m0 0h-1.1m1.5 73.3l.1-.4v-3l.2-2.4V198l.1-4.7v-23.2l.1-6.7v-21.5m0 0h-.9m1.5 72.3l.1-.2v-5.3l.2-3.1v-12.7l.1-5.1V170l.1-6.8v-21.3m0 0h-1.1m1.7 73.3v-73.3h-.6m.6 0h3.3v57.4m0-57.4h2.5v56.3m0-56.3h3.9m341.5 0h12.5m-10 40.8v-40.8m1.2 40.8v-40.8m8.1 44.1v-23.1l-3.4-.6v-3.1l3.4.6v-17.9m.7 47.8v-47.8m-.7 19.6h-3.4m-31 56.4V206m-262.3.7v-.4m-16.4 0v14.8m112.1 8.9h.9m-7.7 0h.8m110.1-.5l1.2 1.1m95.7-69.1v-1.7m-108.4 70.8l1.2-1.1m-159.6 1.2l-1.9-.8-1.7-.8m235.4-19.8v5.4m-104.7 15.9h31.3m-32.6-1.1l1.3 1.1m44 0h31m0 0l1.2-1.1m-153.7 1.2h-49.6m51.3-1.6l-.8.8-.9.8m404 .4h.9m-.8 0l-1.2-1m1.9 1h2.3m0-177.5c-2.3 0-4.6.1-6.8.3M602 55.5c-3 .6-6 1.4-8.9 2.4m-10.5 4c-2.8 1.3-5.5 2.8-8.2 4.4m-9.2 6.4c-2.4 1.9-4.7 4-6.9 6.1m-7.6 8.4c-1.9 2.4-3.7 4.9-5.3 7.5m-5.4 10c-1.3 2.8-2.4 5.7-3.4 8.6m-3 10.8c-.6 3-1.1 6.1-1.4 9.1m-.4 11.3c.1 3.1.4 6.2.8 9.2m2.2 11.1c.8 3 1.8 5.9 2.9 8.8m16.5 27c2.1 2.3 4.2 4.5 6.5 6.6m8.8 7c2.5 1.8 5.1 3.4 7.8 4.9m10.3 4.8c2.9 1.1 5.8 2.1 8.8 2.9m11 2.3c3.1.4 6.1.7 9.2.8"/><path class="st0" d="M612 52.9l1.3 1 1.8.9 1.2.3h2.6l1.2-.3m-8.2-1.9c-3 .3-6 .7-8.9 1.3"/><path class="st0" d="M591.7 57.3l1.1.5 1.4.3 1.7.2 1.1-.1.9-.3 1-.2.9-.4 1.5-1 1-1.1.8-1.1m-11.5 3.1c-2.8 1-5.6 2.1-8.4 3.3M573 66l1.2.3h1.5l1.6-.3.9-.2 1-.4.9-.6.7-.5 1.2-1.4.8-1.2.4-1.2M572.9 66c-2.6 1.6-5 3.3-7.4 5.1m-8.9 7.9l1.4-.1 1.3-.3 1.7-.7.9-.4.8-.7.7-.6.7-.9.8-1.4.4-1.5.2-1.2m-8.8 7.7c-2.1 2.1-4.1 4.4-6 6.7m0 0l.1 1.4-.1 1.4-.5 1.7-.4.9-.6.8-.7.8-.6.7-1.4 1.1-1.3.5-1.3.4m-.1-.1c-1.6 2.6-3 5.2-4.3 7.9m.1.1l.4 1.2.2 1.5v1.7l-.3 1-.3.9-.5.9-.4.9-1.2 1.3-1.2.8-1.1.7m0-.1c-.9 2.9-1.7 5.8-2.4 8.7m.1 0l.5 1.1.6 1.5.4 1.6v1l-.2 1-.1 1.1-.3.8-.9 1.6-.8 1.1-1 .8m-.1.1c-.3 3-.4 6-.3 9m0 0l1 .9.8 1.2.8 1.7.1.9.3 1v1l-.1 1-.5 1.6-.6 1.3-.7 1.1m-.1 0c.4 3 1 5.9 1.8 8.8m.1 0l1 .7 1.1 1.1 1.1 1.3.4.8.4 1 .3 1 .1 1v1.7l-.4 1.4-.4 1.2m-.1 0c1.1 2.8 2.4 5.5 3.8 8.2m.1 0l1.2.4 1.2.7 1.4 1.1.6.8.7.8.4 1 .4.8.3 1.7.1 1.5-.2 1.2m-.1 0c1.7 2.5 3.6 4.8 5.6 7.1m.1.1l1.2.1 1.4.3 1.6.8.8.5.8.7.7.8.5.8.7 1.7.4 1.3.2 1.2m-.1 0c2.3 2 4.6 3.9 7 5.6m.1.1l1.2-.1h1.5l1.7.4 1 .4.8.4.9.6.7.7 1.1 1.4.7 1.2.4 1.2m-.1 0c2.7 1.4 5.4 2.7 8.2 3.8m0 .1l1.2-.5 1.5-.3h1.7l1 .1.9.3 1 .4.9.4 1.4 1.1.9 1.1.7 1.1m-.1 0c2.9.8 5.8 1.4 8.8 1.9m0 0l1.1-.7 1.4-.7 1.6-.4 1.1-.1.9.1 1.1.1.9.3 1.5.7 1.2.8 1 .9"/><path class="st0" d="M620 57.4c-46.6 0-84.4 37.8-84.5 84.4 0 46.6 37.8 84.4 84.4 84.5"/><path class="st0" d="M620 59.5c-45.4 0-82.3 36.8-82.3 82.3 0 45.4 36.8 82.3 82.3 82.3m-88.9-90.6l1.2-1.1m-.6 21.9l.8-1.3m4.4 21.3l.6-1.5m-.7 1.5c.1.3.2.5.3.8m3.8 8.2c1.8 3.5 3.9 6.8 6.1 10m13.3 14.9l-.2-1.6m17.1 13.6l-.6-1.5m19.9 9.3l-1-1.3"/><path class="st0" d="M620 64.4c-42.8 0-77.4 34.7-77.4 77.4 0 42.8 34.6 77.4 77.4 77.4"/><path class="st0" d="M620 84.4c-31.7 0-57.4 25.7-57.4 57.4s25.7 57.4 57.4 57.5m-53.6-37.2h.2"/><path class="st0" d="M620.1 214.4l-7.2-.4-7-1.1-6.7-1.6-6.5-2.3-6.4-3-6-3.6-5.8-4.2-5.4-4.9-4.9-5.2-4.3-5.8-3.8-6.2-3-6.5-2.4-6.8-1.6-6.6-1.1-6.7-.4-7.1.3-7.1 1-7 1.7-7.1 2.4-6.8 3.1-6.7 3.8-6.2 4.2-5.6 4.7-5.3 5.1-4.6 5.6-4 5.9-3.8 6.5-3.1 6.7-2.5 7-1.7 7.2-1.1 7.3-.4"/><path class="st0" d="M620 91c-28.1 0-50.8 22.7-50.8 50.8s22.7 50.8 50.8 50.8m-53.4-30.5l.7-.4m.5 3.6l.9-.3 1.6-.7m-2.5 1l-.1.1"/><path class="st0" d="M620 68.3c-40.6 0-73.5 32.9-73.5 73.5s32.9 73.5 73.5 73.5M609.8 28.5l.3 18.6m.4.6v-.2m-.7-19l.4-.4m.3 19.6l-.4-.6m.1-19l-.4.4m.4 18.6l.4.6m-.8-19.2h.6m-.2 18.6h.4l-.2-18.6m.4-.3v-.1m-.4.4l.4-.4m.2 19.4l-.4-.4m.6.4h-.2m-.1-19.4l-.3.4m.3 18.6l.3.4m-.6-19h1m-.7 18.6h1l-.3-18.6m0 0l.4-.4m.3 19.4l-.4-.4m.1-19l.3-.1m.4 19.5h-.4m.1-.4l-.3-18.6m.2-.5l-.2.5m.3 18.6l.3.4m-.6-19l1.4-.1m-1.1 18.7h1.3l-.2-18.7m0 0l.4-.4m.2 19.5l-.4-.4m.2-19.1h.4m.3 19.5h-.5m.5-.4l-.5-18.7m.2-.4l-.2.4m.5 18.7v.4m-.5-19.1h1.8m-1.3 18.7h1.6l-.3-18.7m0 0l.3-.4m.2 19.5l-.2-.4m0-19.1h.4m.4 19.5h-.6m.6-.4l-.3-18.7m-.1-.4l.1.4m.3 18.7v.4m-.3-19.1h1.9M617 47.1l1.9-.1-.3-18.6m0 0l.1-.4m.3 19.5l-.1-.5m-.2-19h.4m.3 19.5h-.4m.7-.5l-.3-18.6m-.3-.4l.3.4m.3 18.6l-.3.5m-23 180.4c.3.1.6.2.8.2m-20.1-7.9c.3.1.5.3.8.4m-17.7-12.4l.6.6m-29.2-54.6c0 .3.1.6.1.9m-.6-21.6c0 .3-.1.6-.1.9m4.4-21.2c-.1.3-.2.5-.3.8m9.2-19.5c-.2.2-.3.5-.5.7m-8.4 18.1l1.5-.8m20.4-34.2l-.6.6m-12.3 15.6l1.4-.4m11.5-15.8h1.5m14.8-12.8c-.2.1-.5.3-.7.5m.7-.4l1.7.3m17.2-9c-.3.1-.5.2-.8.3m.8-.2l1.4.5m18.9-4.7c-.3 0-.6 0-.9.1m.9 0l1.3 1m5.3-25.5h.7m-9.1-1.3l9.1-.1m-.4 20h.4m-8.7 1.5l14.5-.3"/><path class="st0" d="M611.4 48.5l-1.3-1.4-.3-18.6 1.2-1.4m3.4 26.8v-5.6m6.8-19.9h-1.1V27h5.4"/><path class="st0" d="M621.2 28.4v-.6h.4l.4.6m0 0l1.5-.2m0 0l-.2-.4h.4l.4.4m0 0h1.3m0 0l-.3-.4h.3l.4.4m0 0h.6m0 0l-.2-.4.5.4m-5.5.2l.2 18.6h-1.3V28.4M627 47l-.4.4h-.2l.4-.4m-.8 0h.8m-.8 0l-.4.4h-.2l.2-.4m-1.2 0h1.2m-1.2 0l-.4.4h-.3l.2-.4m-1.7 0h1.7m-1.7 0l-.4.4h-.4V47m12.2 6.6l.9 1.2m-1-1.2c-.3 0-.6-.1-.9-.1m-8.9-.8l-1.5 1.2-.9.5-1.2.4m12.5-1.3l.9.9 1 1.1 1.5.8 1 .4.9.3 1.1.1h.9l1.8-.1 1.3-.6 1.3-.5m8.5 2.8l.5 1.3.8 1.2 1.2 1.2.8.5 1 .6.9.2 1 .3 1.7.3 1.4-.2 1.3-.4m7.6 4.9l.3 1.2.5 1.4.9 1.4.7.7.7.7.9.7.8.4 1.7.5 1.4.3h1.3m-17.5-22.6l12.6 7.3m-10.5-7.5l.1.5.3.1m-1.5-1.3l1.1.7m-1.1-.7v.5l-.3-.1-.1-.7m-.7-.2l.7.2m-.7-.2l.1.5-.1-.1-.1-.6m-.2-.1l.2.1m14.6 8.4l-.6.1.6-.1m-.4-.1l.4.1m-.4-.1l-.6.1-.1-.1.4-.2m-.8-.5l.8.5m-.8-.5l-.6.1-.2-.1.4-.3m-1.2-.7l1.2.7m-1.2-.7l-.6.2-.4-.2.3-.4m-1.5-.8l1.5.8m-1.5-.8l-.4.3-.4-.3.1-.4m-1.6-.9l1.6.9m-1.6-.9l-.3.2-.4-.1v-.5m-1.5-.8l1.5.8m-1.5-.8l-.2.2-.4-.1v-.6m-1.4-.8l1.4.8m-1.4-.8l-.1.4m8.2-18.7l12.6 7.1m-14.2-6.6l.7-.1-.4.3m0 0l.5.2m0 0l.7-.1.1.1-.4.3m0 0l1.1.7m0 0l.5-.3.3.3-.3.2m0 0l1.4.8m0 0l.5-.2.3.2-.1.5m0 0l1.6.8m0 0l.4-.3.2.3v.4m0 0l1.7.9m0 0l.2-.3.3.2.1.5m0 0l1.5.8m0 0l.2-.4.2.3.2.5m0 0l1.2.7m0 0v-.4l.3.1.1.6m0 0l.8.4m0 0v-.4h.1l.2.7m0 0l.4.1m0 0l-.2-.6.2.6m12.5 56l-.4 1.6m.4-1.6c-.1-.3-.3-.5-.4-.8M620 215.3c40.6 0 73.5-32.9 73.5-73.5S660.6 68.3 620 68.3"/><path class="st0" d="M620 192.7c28.1 0 50.8-22.7 50.8-50.8S648.1 91 620 91"/><path class="st0" d="M620 198.2c18.5 0 35.8-9.1 46.4-24.3 10.5-15.2 12.9-34.7 6.4-52m-1.7.7l1.6-.7m-1.6.7c-.4-1.1-.8-2.1-1.3-3.1m1.7-.7l-1.7.7m1.6-.8c-9.1-20.2-29.2-33.3-51.4-33.3"/><path class="st0" d="M620 221.1c43.8 0 79.3-35.5 79.3-79.3S663.8 62.5 620 62.5"/><path class="st0" d="M620.2 221.1c-43.8 0-79.3-35.5-79.3-79.3s35.5-79.3 79.3-79.3"/><path class="st0" d="M620 226.3c46.6 0 84.4-37.8 84.5-84.4S666.7 57.4 620 57.4"/><path class="st0" d="M620 224.1c45.4 0 82.3-36.8 82.3-82.3S665.5 59.6 620 59.5m7.8 170.2c3-.3 6.1-.7 9.1-1.3m11-2.9c2.9-1 5.8-2.1 8.6-3.4m10-5.3c2.6-1.6 5.2-3.4 7.6-5.3m8.4-7.4c2.2-2.2 4.2-4.5 6.2-6.9m6.5-9.2c1.6-2.6 3.1-5.3 4.4-8.1m4.2-10.4c1-2.9 1.8-5.9 2.4-8.9m1.7-11.2c.3-3.1.4-6.2.3-9.2m-.9-11.3c-.5-3-1.1-6.1-1.8-9.1m-3.5-10.7c-1.1-2.9-2.4-5.7-3.9-8.4m-5.9-9.6c-1.8-2.5-3.7-4.9-5.7-7.3m-7.9-8c-2.3-2-4.7-4-7.2-5.8m-9.6-5.9c-2.7-1.5-5.5-2.8-8.4-3.9m-10.7-3.6c-3-.8-6-1.4-9-1.9m-11.3-1.1H620m0 177.5c2.2 0 4.5-.1 6.7-.3"/><path class="st0" d="M626.8 230.9l.8-1 1.2-.8 1.5-.8 1-.4.9-.1 1.1-.2 1 .2 1.7.2 1.4.6 1 .6m0 0c2.9-.6 5.9-1.4 8.7-2.3m0 0l.7-1 .9-1.2 1.4-1.1.8-.6.9-.4 1-.2.9-.3h1.8l1.4.1 1.1.4m0 0c2.7-1.3 5.4-2.7 8-4.2m0 0l.4-1.2.7-1.3.9-1.5.7-.7.8-.5.9-.6.9-.4 1.7-.5 1.5-.1 1.2.1m0 0c2.4-1.9 4.6-3.9 6.8-6m0 .1v-1.3l.4-1.4.6-1.7.4-.8.7-.8.7-.8.8-.5 1.6-.8 1.4-.5 1.2-.2m0 0c1.9-2.4 3.6-4.8 5.2-7.4m.1.1l-.3-1.4V187l.3-1.8.2-.9.4-1 .6-.8.6-.8 1.3-1.2 1.3-.7 1.1-.5m0 0c1.3-2.7 2.4-5.5 3.4-8.4m0 0l-.6-1.1-.2-1.4-.2-1.8v-.9l.3-1 .3-1.1.4-.8 1-1.5 1-.9 1.1-.8m-.1 0c.6-2.9 1-5.9 1.3-8.9m.1 0l-.8-1-.7-1.3-.5-1.6-.1-1v-1.1l.1-1 .1-1 .7-1.6.8-1.2.8-1m0 0c-.1-3-.3-6-.7-9m-.1.1l-.9-.8-1-1.1-.9-1.6-.3-.8-.3-1.1-.1-.9-.1-1 .2-1.7.6-1.4.5-1.2m0 0c-.8-2.9-1.7-5.8-2.8-8.6m0 .1l-1.1-.5-1.2-.8-1.2-1.4-.6-.8-.5-.8-.4-1.1-.1-.8-.3-1.8.1-1.4.4-1.3m0 0c-1.4-2.6-3-5.2-4.7-7.7m0 0l-1.2-.2-1.4-.6-1.5-.9-.6-.7-.8-.8-.6-.8-.4-.8-.5-1.8-.3-1.3v-1.4m0 0c-2-2.2-4.1-4.4-6.3-6.4m-9.2-7.3c-2.5-1.7-5-3.3-7.7-4.8m-10.6-5c-2.8-1.1-5.6-2.1-8.5-2.9m-11.6-2.4c-3-.4-6-.7-9-.8m47.9 66.2l.7-.4m1.3 3.2l-.8.3m-.5-3.5h.3m1.2 3.1l-.2.1M620 199.3c31.7 0 57.4-25.7 57.4-57.4S651.7 84.5 620 84.4"/><path class="st0" d="M620.1 69.4l6.9.4 6.9 1 6.6 1.6 6.2 2.1 6.2 2.7 5.9 3.4 5.7 4.1 5.3 4.4 5 5.1 4.3 5.6 3.8 5.9 3.2 6.2 2.6 6.5 1.9 6.5 1.2 6.5.6 6.7v7.2l-.6 7.4-1.5 7.3-2.3 7.1-3 6.8-3.6 6.5-4.2 6-4.7 5.6-5.2 4.8-5.6 4.4-6.1 3.7-6.5 3.4-7 2.6-7.2 1.9-7.4 1.2-7.4.4"/><path class="st0" d="M620 219.3c42.8 0 77.4-34.7 77.4-77.4 0-42.8-34.6-77.4-77.4-77.4m1.4-17.1l-.2-19.6m1 19.2l-.2-18.6m1.9 18.6l-.4-18.8m.9 18.8l-.3-18.8M626 47l-.2-18.8m1 18.8l-.4-18.8m-.2-.2v-.2m80.2 91.5c-.1-.3-.1-.6-.2-.8m3.1 21.3v-.9m-2.8-19.5l-.8 1.3m1.7 39.7c.1-.3.1-.6.2-.8m1.7-19.7l-1.1 1.2m-.8 19.3l-1.3.9m-5.4 18.8c.1-.3.2-.5.4-.8m-.3.8l-1.5.7m-9.6 16.9c.2-.2.4-.5.5-.7m-.5.7l-1.6.2M675 212.2c.2-.2.5-.4.7-.5m-.7.5l-1.6-.1M657.3 223c.3-.1.5-.2.8-.4m-20.6 6.8c.3-.1.6-.1.8-.2m19-6.2l-1.6-.5m-18.1 6.9l-1.4-.8M653.5 59c-.3-.1-.5-.2-.8-.3m.9.4l.6 1.4m17.5 8.5c-.2-.2-.5-.3-.7-.5m16.1 14.4l-.6-.6M671.8 69l.3 1.6m15.1 12.3l-.2 1.6m-14.7-49l.2-.1m-9.9 16.5l9.5-16.2m-8.8 16.4l9.3-16.2m-9.2 16.9l.3-.4m0 0l9.3-16.2.3-.4m-8.5 17.3l9.3-16.2m-8.8 16.4l9.3-16.2m-7.9 17l9.3-16.2m-8.7 16.7l9.4-16.2m-7.9 17l9.5-16.2m-9.5 16.7l9.9-17m-9.2 16.9l9.4-16.2m-7.8 17.1l9.5-16.2m-8.8 16.6l9.4-16.2m-7.9 17l9.4-16.2M674 58.3l9.3-16.2M675.2 59l9.3-16.2m-8.9 16.5l9.3-16.2m-8.5 16.7l9.3-16.3m0-.2l.1-.2m-8.7 17l9.3-16.2m-9.3 16.2l9.3-16.2M625.5 27l1.3 1.2m-.9 20l1.2-1.2m-4.2 6.3v-5.1m37.6 15.3l4.9-8.7m2.9 11.9l4.4-7.6m-10-5.8l-.4-1.7m13 9l1.8-.5m8.9-18l.4 1.8m-13-8.9l-1.7.4M627.1 47l-.3-18.8m35.5 23.4l9.4-16.2m5.4 24.7l9.3-16.2m5 1.3l-2.7-1.7m-1.2-1l-.3-.1m-1.2-.9l-2.7-1.8-2.7-1.5m-1.4-.8l-.3-.1m-1.3-.8l-2.7-1.5-2.8-1.4m-1.5-.6l-.2-.2m-1.4-.7l-2.9-1.2-2.9-1.2m-1.5-.5h-.3m-1.5-.6l-2.8-1-3.1-1m-1.5-.4h-.3m-1.5-.5l-2.9-.8-3.1-.6m-1.7-.4h-.2m-1.5-.3l-3.1-.6-3.1-.3m-1.6-.3h-.2m-1.6-.1l-3.1-.4h-3.1m-1.6-.2h-.3m-1.6 0l-3.1-.1-3.1.1m-1.7.2h-.2m-1.5.1l-3.2.2-3.2.4m-1.4.1l-.3.1m-1.6.2l-3.1.4M715 68.5c-6.8-8.8-14.7-16.7-23.6-23.3"/></g><g id="Mittellinien"><path class="st1" d="M501.4 142h7"/><path d="M511.2 142h1.9" fill="none" stroke="#000" stroke-width=".283" stroke-miterlimit="10" stroke-dasharray=".5485,2.7426"/><path d="M514.5 142h215.8" fill="none" stroke="#000" stroke-width=".283" stroke-miterlimit="10" stroke-dasharray="13.713,2.7426,.5485,2.7426"/><path class="st1" d="M731.7 142h7.1m-645.3 0h7.1"/><path d="M103.3 142h1.9" fill="none" stroke="#000" stroke-width=".283" stroke-miterlimit="10" stroke-dasharray=".5504,2.7522"/><path d="M106.6 142h315.7" fill="none" stroke="#000" stroke-width=".283" stroke-miterlimit="10" stroke-dasharray="13.7609,2.7522,.5504,2.7522"/><path class="st1" d="M423.7 142h7.1M620.1 34.7v7.1"/><path d="M620.1 44.5v1.9" fill="none" stroke="#000" stroke-width=".283" stroke-miterlimit="10" stroke-dasharray=".54,2.7"/><path d="M620.1 47.7v193.1" fill="none" stroke="#000" stroke-width=".283" stroke-miterlimit="10" stroke-dasharray="13.4998,2.7,.54,2.7"/><path class="st1" d="M620.1 242.1v7.1"/></g><g id="Bemassung"><path class="st1" d="M15.7 59.2v164.5"/><path d="M13.3 61.4l2.4-9.2 2.5 9.2h-4.9zm0 159.6l2.4 9.3 2.5-9.3h-4.9z"/><path class="st1" d="M40.7 76v130.5"/><path d="M38.3 77.7l2.4-9.2 2.5 9.2h-4.9zm0 127.2l2.4 9.2 2.5-9.2h-4.9z"/><path class="st8" d="M59.1 214.2H36.7m76.1-145.8H36.7m155.6-15.9H11.2M193 230.6H11.4"/><path class="st9" d="M463.5 96.5v91.3"/><path d="M461.1 98.2l2.4-9.2 2.5 9.2h-4.9zm0 87.9l2.4 9.2 2.5-9.2h-4.9z"/><path class="st8" d="M415.5 87.7h52.2M416 195.6h51.7"/><path class="st9" d="M388.2 263.3H66.9"/><path d="M386.5 260.8l9.3 2.5-9.3 2.5v-5zm-317.9 0l-9.2 2.5 9.2 2.5v-5z"/><path class="st9" d="M438.1 263.3h17.7"/><path d="M439.8 265.8l-9.2-2.5 9.2-2.5v5z"/><path class="st8" d="M431.1 189.8v77.7"/><path class="st9" d="M461 287.6h-57.7"/><path d="M459.4 285.1l9.2 2.5-9.2 2.5v-5zm-54.5 0l-9.2 2.5 9.2 2.5v-5z"/><path class="st8" d="M395.7 220.6v71.2"/><path class="st9" d="M462.2 21.7h-22.7"/><path d="M460.5 19.2l9.2 2.5-9.2 2.4v-4.9zm-19.3 0l-9.2 2.5 9.2 2.4v-4.9z"/><path class="st8" d="M469.3 291.8V17.3m-37.8 4.4h-35.8m.3 40.7V17.3m35.1 74.5V17.3"/><path class="st9" d="M387.7 21.4H121.5"/><path d="M386 18.9l9.2 2.5-9.2 2.5v-5zm-262.8 0l-9.2 2.5 9.2 2.5v-5z"/><path class="st8" d="M113.2 68.4v-50m304 71V36.9"/><path class="st9" d="M472.8 129.8L506.1 8h5.3"/><path d="M475.6 128.8l-4.8 8.3.1-9.6 4.7 1.3z"/><path class="st8" d="M58.6 215.3v52.2m372-4.2h-36.5"/><path class="st9" d="M424.9 41.2h32.7"/><path d="M426.6 43.7l-9.2-2.5 9.2-2.4v4.9z"/><path class="st9" d="M388.5 41.2h-36.9"/><path d="M386.9 38.8l9.2 2.4-9.2 2.5v-4.9z"/><path class="st8" d="M417.4 41.2h-21.5"/><path class="st10" d="M465.9 138.5l6.9 6.9m-6.9 0l6.9-6.9m-6.9 0l6.9 6.9m-6.9 0l6.9-6.9"/><path class="st1" d="M697.2 65.6l-46.9 45.6"/><path d="M693.3 64.8l11.1-6.2-6.5 10.9-4.6-4.7z"/><path class="st1" d="M620.7 142.3l13.8-14.8"/><path class="st10" d="M465.9 138.5l6.9 6.9m-6.9 0l6.9-6.9"/></g><g id="Text"><text transform="matrix(1 0 -.00479 1 236.98 182.648)" class="st11 st12 st13">Mod</text><text transform="rotate(-90 83.451 71.606)" class="st11 st12 st14">Ø 42</text><text transform="rotate(-90 310.846 -132.213)" class="st11 st12 st14">1-32 UN-2A</text><text transform="rotate(-90 315.695 -141.764)" class="st11 st12 st14">(C-mount)</text><text transform="rotate(-90 105.353 67.946)" class="st11 st12 st14">M34 x 0.5</text><text transform="translate(253.437 17.811)" class="st11 st12 st14">66.5</text><text transform="translate(403.062 17.975)" class="st11 st12 st14">8.2</text><text transform="translate(515.402 11.845)" class="st11 st12 st14">Sensor position</text><text transform="translate(404.853 37.526)" class="st11 st12 st14">5</text><text transform="translate(404.668 259.526)" class="st11 st12 st14">8.2</text><text transform="translate(442.305 17.975)" class="st11 st12 st14">9.3</text><text transform="translate(231 259.56)" class="st11 st12 st14">79.3</text><text transform="translate(413.867 284.774)" class="st11 st12 st14">17.526</text><text transform="translate(415.267 298.274)" class="st11 st12 st14">(in air)</text><text transform="translate(244.243 114.573)" class="st11 st12 st13">Inf.</text><text transform="translate(627.155 123.447)" class="st11 st12 st14">R28.1</text></g><text transform="translate(634.295 283.047)" class="st12 st15">Not to scale</text><text transform="translate(634.066 298.447)" class="st12 st15">Dimensions in mm</text></svg>