<svg style="background-color:#fff" version="1.1" id="Ebene_1" xmlns="http://www.w3.org/2000/svg" x="0" y="0" viewBox="0 0 603.8 275" xml:space="preserve"><style>.st0,.st1{fill:none;stroke:#000}.st0{stroke-linecap:round;stroke-linejoin:round;stroke-miterlimit:10;stroke-width:.4252}.st1{stroke-width:.2835}.st1,.st8{stroke-miterlimit:10}.st8,.st9{fill:none;stroke:#000;stroke-width:.2835;stroke-linecap:round;stroke-linejoin:round}.st11{fill:#020203}.st12{font-family:Helvetica,Arial,sans-serif}.st13{font-size:15.75px}.st14{font-size:12px}.st15{font-size:11.9906px}</style><g id="lens"><path class="st0" d="M252.3 120.3l5.8-6m-15.4 6l14.4-14.5m-23.9 14.5l24.9-25m-34.4 25l33.2-33.4m-42.8 33.4l31.6-31.6m1.4-1.4l1.2-1.3m-43.8 34.3l39.7-39.9M195 120.3l50.7-50.8m-60.2 50.8l54-54m-63.6 54L228.2 68m.1-.1l1.6-1.6m-63.6 54l60.8-60.8m-137 60.8l62.6-62.8m-72.2 62.8l62.7-62.8m-64.8 55.2l55.3-55.2M79 102.6l45.1-45.1M80.2 91.9l34.3-34.4M81.6 81l17-17m2.7-2.7l3.7-3.8M77.6 75.3l16.8-16.7m-18.1 8.6l8.5-8.6m-14.9 5.2l5.4-5.2m81.6 61.7l18.5-18.7m3.8-3.8l39.2-39.2m-71.1 61.7l18.5-18.7m13.4-13.3L209 58.6m-71.3 61.7l18.6-18.7m21.2-21.2L199.9 58m-71.8 62.3l18.7-18.7M168 80.4L190.5 58m-71.8 62.3l20.1-20.3m19.7-19.6L180.9 58m-71.8 62.3l29.7-29.9m10.1-10L171.3 58m-71.8 62.3L138.8 81m.5-.6l23-22.9M65.8 181.8l-5.3-5.2m14.8 5.2l-6.7-6.6m16.2 6.6l-15.5-15.5m21.6 12L73 160.6m32 22.3l-3.7-3.6m-7.2-7.2l-21.2-21.3m73.3 63.8l-9.4-9.4m-22.3-22.3l-13.2-13.2m-.3-.4L71.6 140m82.2 72.6l-17-17m-12.7-12.7l-53.2-53.2m82.9 73.4l-12.7-12.8m-7.4-7.4l-62.8-62.6m78.7 68.9l-69.1-68.9m72.2 62.6l-62.6-62.6m137 60.6l-60.8-60.6m63.2 53.6l-53.6-53.6m62.9 53.3l-53.3-53.3m60.2 50.6L195 120.3m50.7 41l-41.2-41m43.8 34.1l-1.2-1.2m-1.4-1.4l-31.6-31.5m42.8 33.2l-33.2-33.2m34.4 24.8l-24.9-24.8m23.9 14.3l-14.4-14.3m15.4 5.8l-5.8-5.8m-90 62.6L135 155.6m-8.5-8.5l-27-26.8m71.8 62.2l-26.8-26.9m-18-18.1l-17.4-17.2m71.8 62.2L154 155.6m-21.1-21.2l-14.2-14.1m71.8 62.2l-26.9-26.9m-21.3-21.2l-14.2-14.1m71.8 62.2l-26.8-26.9m-21.2-21.2l-14.2-14.1m71.3 61.5l-29.4-29.3m-18.1-18.1l-14.2-14.1m71.1 61.5l-38.8-38.9m-8.7-8.5l-14-14.1M170.7 58l-.6.6-1.1-1.1h-37.4l-.9 1.1-1.1-1.1h-27.3l-1 1.1v9.7h-2.7v-9.7H67.8l-2.2 2.1v3.1h10.7v6.5h.5v3.8l5 7.4m165.3 7.8h-1.4v-5.5l-.4-.4v-1.9l-1.7-1.7v-3.3l1.7-1.7v-1.9l.4-.4v-4.2l-2.1-2h-.3l-1.2 1.7-1.4-1.7h-2l-1.2 1.7-1.4-1.7h-2l-1.3 1.7-1.3-1.7h-2l-1.3 1.7-1.3-1.7h1.4v-5.6l-2.2-2.1h-18.2l-.5-.6M81.8 81.4c-2.4 12.8-3.6 25.8-3.6 38.8m0 .1h180.2m0-.1c0-7.4-1-14.7-3-21.9"/><path class="st0" d="M255.4 98.4l2.7-2.7v-7.6L256 86h-8.9v3.3M207.4 58l-.6-.5m21.5 10.4v-1.6m17 8.5v6.7m.4 2.3V72.5M68.6 120.3h-3V63.8M170.7 58l.5-.5m35.6 0h-35.6M76.8 75.2v-1.1m0 1.1l3.5 5m0 1v-1m0 1l-3.5-4.8m0 43.9V76.4m-.5 43.9v-50m.5 6.1v-1.2m181.3 37.9V95.7M228.2 68l1.3-1.7m3.3 1.7l1.3-1.7m3.4 1.7l1.2-1.7m3.4 1.7l1.2-1.7m-35.9 116.2l.5-.7h18.2l2.2-2v-5.5h.9l1.3-1.9 1.3 1.9h2l1.4-1.9 1.2 1.9h2l1.4-1.9 1.2 1.9h2.6l2.1-2.2V151h1.4v3.4h8.9l2.1-2v-7.7l-2.7-2.6m-125.8 40.8l1.1-1.1.9 1.1h9.5v10.4h-3l-1.3 1.3v18.7l1.3 1.3h14.5l1.2-1.3v-18.7l-1.2-1.3h-3v-10.4H169l1.1-1.1.6.7m84.7-40.4c2-7.1 3-14.5 3-21.9m0 .1H70.5m0-.1c0 13 1.2 26 3.6 38.8m0 0l-4.8 7.4v3.8h-.7v6.4H57.9v3.2l2.2 2h30.8v-9.7h6.3v-2.8h3.9l.2.1v12.4l1 1.1h27.3m77.2 0l.4-.4m-36 .4l-.4-.4m36 .4h-35.6M57.9 120.3h12.6m126.7 62.6l-.5 1.1-.3.1m0 .3l-1 1.2-.6.1-.1.2m0 .1l-1.5.8h-.4l-.3.1m0 .2l-1.7.4h-.7l-.1.1h-1.9l-.2-.1h-.6l-1.8-.4m0-.2l-.4-.1h-.3l-1.5-.8m0-.1l-.2-.2-.4-.1-1.1-1.2m0-.3l-.3-.3-.5-.9m-122.9-6.3v-56.3m10.7 49.9v-49.9m.7 46.1v-46.1m188.8 24.4v-17.3m-61.7 55.5v1.5m-1-1.5v2.7m-.7-2.7v3.1m-1.5-3.1v3.9m-.7-3.9v4.2m-1.7-4.2v4.6m-.8-4.6v4.7m-1.9-4.7v4.7m-.8-4.7v4.6m-1.8-4.6v4.2m-.7-4.2v3.9m-1.5-3.9v3.1m-.6-3.1v2.7m-1.1-2.7v1.5m58.2-11.9l-1.4 1.8m-3.2-1.8l-1.4 1.8m-3.3-1.8l-1.3 1.8M443.9 63c-31.1 0-56.4 25.2-56.4 56.4 0 31.1 25.2 56.4 56.4 56.4"/><path class="st0" d="M443.9 57.7c-34 0-61.6 27.6-61.6 61.6s27.6 61.6 61.6 61.6m-.1-123.2v-.5m0 0l-.7-.6m.1 0c-1.8 0-3.6.1-5.3.3"/><path class="st0" d="M437.7 57l-.6.6-1 .2h-.9l-.8-.4m.1-.1c-1.8.3-3.5.6-5.2 1m-.2.1l-.5.7-.9.5h-1l-.8-.3m0 0c-4.5 1.3-8.9 3.2-12.9 5.5m-.1.1l-.4.8-.7.7-.9.2h-.8m0-.1c-1.5 1-3 2-4.4 3.1m-.1.1l-.3.8-.5.8-1 .5h-.8m0 0c-1.4 1.2-2.7 2.4-3.9 3.7m0-.1l-.1.9-.6.9-.8.6-.9.2m.1-.1c-1.2 1.3-2.3 2.7-3.4 4.2m-.1 0l.2.9-.5.9-.8.7-.8.2m.1.1c-1 1.5-1.9 3-2.7 4.6m-.1-.1l.2 1-.3.9-.7.8-.8.4m.1 0c-.8 1.6-1.5 3.3-2.1 4.9m0 0l.3.9-.2 1-.5.8-.7.5m0 0c-.5 1.7-1 3.4-1.4 5.2m-.1.1l.4.8v1l-.4.9-.5.5m0 0c-.3 1.8-.5 3.5-.6 5.3m-.1.1l.4.7.3 1.1-.3.9-.5.7m0 0c0 1.8 0 3.6.1 5.3m-.1.1l.6.7.3.9-.1 1-.4.8m0-.1c.2 1.8.5 3.5.8 5.3m0 .1l.7.5.4.9v1l-.3.8m0 0c.5 1.7 1 3.4 1.6 5.1m-.1 0l.8.6.5.8.2.9-.3 1m.1-.1c.7 1.6 1.4 3.3 2.3 4.8m-.1.1l.8.4.7.7.2 1-.1.9m.1-.1c.9 1.5 1.9 3 2.9 4.5m0 .1l.8.2.8.7.4.8v1m.1-.1c1.1 1.4 2.3 2.7 3.5 4m-.1.1l1 .1.8.6.5.8.1.9m.1-.1c3.4 3.2 7.2 6.1 11.3 8.5m0 0h.8l.9.3.8.7.5.8m0-.2c1.6.8 3.2 1.6 4.9 2.3"/><path class="st0" d="M419.9 177.3l.8-.1 1 .1.8.6.5.6m.1 0c1.7.6 3.4 1.1 5.1 1.6m-.1.1l.9-.4h1l.8.5.7.5m0 0c1.7.4 3.5.6 5.3.8m0 .2l.7-.6 1-.1 1 .3.7.6m0-.1c1.2.1 2.4.1 3.7.1m-.1 0v-.9m.1-124.5h-.7m-5.4.3c-1.1.1-2.3.2-3.4.4m-5.2 1.1l-3.3.9M413 64.8c-1 .6-2 1.1-2.9 1.8m-4.4 3c-.9.7-1.8 1.4-2.6 2.1m-4 3.7c-.8.8-1.6 1.6-2.3 2.5m-3.4 4.2c-.7.9-1.3 1.8-1.9 2.8m-2.7 4.5c-.5 1-1.1 2-1.5 3m-2.2 5c-.4 1.1-.8 2.1-1.1 3.2m-1.4 5.2c-.2 1.1-.5 2.2-.6 3.3m-.6 5.4c-.1 1.1-.1 2.3-.2 3.4m.1 5.3c.1 1.1.2 2.3.3 3.4m.8 5.3c.2 1.1.5 2.2.8 3.3m1.6 5.1c.4 1.1.8 2.1 1.2 3.2m2.3 4.8c.5 1 1.1 2 1.7 3m2.8 4.5c.7.9 1.3 1.8 2 2.7m3.6 4l2.4 2.4m11.3 8.5c1 .6 2 1.1 3 1.6m4.8 2.3c1 .4 2.1.8 3.2 1.2m5.1 1.6c1.1.3 2.2.5 3.3.8m5.3.7c1.1.1 2.3.2 3.4.3m-37-14l.4.2.2-.4M416.5 63l-.1-.6 5.7-2.4.2.5m21.6 20c-21.4 0-38.8 17.4-38.8 38.8s17.4 38.8 38.8 38.8"/><path class="st0" d="M443.9 73.2c-14 0-27.3 6.4-36.1 17.4-8.7 11-12 25.3-8.9 39m0 .1l4.8-1.4m.2 0c.3 1.4.7 2.7 1.1 4.1m-5.1 1.5l5-1.4m-4.8 1.2c6.2 18.9 23.9 31.7 43.8 31.7"/><path class="st0" d="M443.9 69.3c-27.6 0-50 22.4-50 50s22.4 50 50 50m-44-35.4l-3.6.9m2.6-5.1l-3.7 1"/><path class="st0" d="M443.9 59.9c-32.8 0-59.5 26.6-59.5 59.5 0 32.8 26.6 59.5 59.5 59.5M416.4 62.4l-.4.2.3.5"/><path class="st0" d="M403.6 168.1l1.6 1.3.3-.4m-.3.4l3.4 2.5m-5.4-4l.2-.4m5.2 4.4l.4-.4m95.2-34.8l.4.1.2-1.1m33.4-9.1v-14.5M537 111l.4.6v.1l-.4-.4m0 .8v-.8m0 .8l.4.4v.3l-.4-.3m0 1.2v-1.2m0 1.2l.4.4v.3h-.4m0 1.6v-1.6m0 1.6l.4.3v.4h-.4m0 1.9v-1.9m0 1.9l.4.1v.4l-.4.3m0 1.8v-1.8m0 1.8l.4.1v.4l-.4.3m0 0v1.7m0 0l.4-.1v.4l-.4.4m0 0v1.4m0 0l.4-.3v.3l-.4.5m0 0v.9m0 0l.4-.4v.2l-.4.5m0 0v.4m0 0l.4-.4-.4.4m-20-1.3v-14.5m1.2 3.9l-.4.3v.4m.4-.7v-1.6m0 0h-.4v-.3l.4-.4m0 0v-1.2m0 0l-.4.3v-.3l.4-.4m0 0v-.8m0 0l-.4.4v-.1l.4-.6m0 16.9l-.4-.4.4.4m0-.4v.4m0-.4l-.4-.5v-.2l.4.4m0-.9v.9m0-.9l-.4-.5v-.3l.4.3m0-1.4v1.4m0-1.4l-.4-.4v-.4l.4.1m0-1.7v1.7m0-1.7l-.4-.3v-.4l.4-.1m0-1.8v1.8m0-1.8l-.4-.3v-.4l.4-.1m0 0v-1.9m0 0h-.4M500.4 193l10.8-9.7m0-1.8v-.1m0 .1v.5l-.2.2v-.7m-.4.4l.4-.4m-.4.4v.7l-.1.1-.1-.5m-.8.7l.8-.7m-.8.7v.6l-.3.2-.2-.4m-1 1l1-1m-1 1v.6l-.3.3-.3-.5m-1.3 1.3l1.3-1.3m-1.3 1.3l.1.5-.4.3-.3-.3m-1.4 1.2l1.4-1.2m-1.4 1.2l.2.4-.4.3-.4-.1m-1.3 1.2l1.3-1.2m-1.3 1.2l.2.2-.2.3h-.6m-1.1 1l1.1-1m-1.1 1l.4.2-.2.2h-.6m-.8.6l.8-.6m-.8.6l.6.2-.3.1h-.5m-.4.4l.4-.4m-.4.4h.5v.1h-.7m-12.4-15.6l10.7-9.7m-3.3 4.6l-.4-.2-.4.3m.8-.1l1.4-1.3m0 0l-.3-.2.3-.3.5.1m0 0l1.1-1m0 0l-.4-.2.3-.2.5.1m0 0l.8-.8m0 0l-.4-.2.1-.1h.6m0 0l.5-.4m0 0h-.7.7m0 0h.2m-12.7 11.3l.1-.6v.5m0 0l.4-.4m0 0v-.5l.3-.2v.4m0 0l.8-.6m0 0v-.6l.3-.3.1.5m0 0l1.1-1m0 0v-.5l.2-.3.3.3m0 0l1.4-1.2m0 0l-.2-.5.4-.2.3.1m0 0l1.5-1.2m0 0l-.3-.4m-38.7 9l-.8-.4h-1l-.9.3-.7.7m11.9-2.6l-.8-.3h-1l-.9.6-.6.7m11.5-4.2l-.9-.2-1 .3-.8.5-.5.9m10.8-5.7l-1-.1-.9.4-.7.6-.3.8m9.8-7.1l-.9.1-.9.4-.5.8-.3.8m8.8-8.3l-.8.2-.9.6-.5.8-.1.9m7.5-9.5l-.9.2-.7.7-.4.9v1m6.2-10.5l-.8.4-.7.8-.2.9.1 1m6.5-19.9l-.6.7-.4.9v1l.4.8m-61.4 49.3l1 .2.6.4m0 0c1.8 0 3.6-.2 5.3-.4m3.4-.4c1.8-.3 3.5-.7 5.2-1.1m3.3-.9c1.7-.5 3.4-1.1 5-1.8m3.2-1.4c1.6-.8 3.2-1.6 4.7-2.5m2.9-1.8c1.5-1 2.9-2 4.3-3.1m2.7-2.2c1.3-1.2 2.6-2.4 3.9-3.7m2.2-2.6c1.2-1.4 2.3-2.8 3.3-4.2m1.9-2.8c1-1.5 1.9-3 2.7-4.6m1.5-3.1c2-4.3 3.4-8.8 4.4-13.4m.6-3.3c.3-1.8.5-3.5.6-5.3m-.1.1l-.5-.9-.1-.9.2-.9.6-.7m0-.1c0-1.8 0-3.6-.2-5.3m-.1 0l-.5-.7-.3-.9.1-1 .4-.8m.1-.1c-.2-1.8-.5-3.5-.9-5.3m-.1.1l-.7-.5-.4-.9v-1.1l.3-.8m0 0c-.5-1.7-1-3.4-1.6-5.1m0 .1l-.8-.6-.6-.8-.1-.9.1-1m.1 0c-.7-1.6-1.5-3.2-2.3-4.8m-.1.1l-.8-.4-.7-.8-.2-1 .1-.8m0 0c-.9-1.5-1.9-3-3-4.4m-.1 0l-.8-.3-.8-.7-.4-.9v-.8m0-.1c-1.1-1.4-2.3-2.7-3.6-4m-.1 0l-.8-.1-.8-.5-.5-.9-.3-.8m.1 0c-1.3-1.2-2.7-2.4-4.1-3.4m-.1-.1h-.8l-.9-.4-.7-.7-.3-.9m.1 0c-1.5-1-3-2-4.5-2.8m-.1 0l-.9.1-.9-.3-.8-.6-.4-.9m0 .1c-1.6-.8-3.2-1.5-4.9-2.2m0 0l-.9.3-1-.2-.8-.5-.5-.7m.1-.1c-1.7-.6-3.4-1.1-5.1-1.5m-.1.1l-.9.3h-.9l-.9-.4-.7-.7m.1 0c-1.8-.3-3.5-.6-5.3-.8m-.1.1l-.8.4-.9.2-1-.3-.7-.5m.1-.1c-.9 0-1.9-.1-2.8-.1m0 101.6c21.4 0 38.8-17.4 38.8-38.8s-17.4-38.8-38.8-38.8"/><path class="st0" d="M443.9 178.8c32.8 0 59.5-26.6 59.5-59.5 0-32.8-26.6-59.5-59.5-59.5"/><path class="st0" d="M443.9 181c34 0 61.6-27.6 61.6-61.6s-27.6-61.6-61.6-61.6m0 124.2h1.6m5.3-.3c1.1-.1 2.2-.3 3.4-.5m5.2-1.1l3.3-.9m5-1.8c1-.4 2.1-.9 3.1-1.4m4.7-2.5c1-.6 1.9-1.2 2.9-1.8m4.3-3.2c.9-.7 1.8-1.4 2.6-2.2m3.9-3.6c.8-.8 1.5-1.7 2.3-2.5m3.3-4.3c.7-.9 1.3-1.9 1.9-2.8m2.7-4.6l1.5-3m4.4-13.4l.6-3.3m.6-5.4c.1-1.1.1-2.3.1-3.4m-.2-5.4c-.1-1.1-.2-2.3-.3-3.4m-1-5.2c-.2-1.1-.5-2.2-.8-3.3m-1.6-5.1c-.4-1.1-.8-2.1-1.3-3.2m-2.3-4.8c-.5-1-1.1-2-1.7-2.9m-3-4.5l-2.1-2.7m-3.6-4l-2.4-2.4m-4.1-3.4c-.9-.7-1.8-1.4-2.7-2m-4.6-2.8c-1-.6-2-1.1-3-1.6m-4.9-2.2c-1.1-.4-2.1-.8-3.2-1.2m-5.1-1.5c-1.1-.3-2.2-.5-3.3-.7m-5.3-.8c-1.1-.1-2.3-.2-3.4-.2"/><path class="st0" d="M443.9 175.7c31.1 0 56.4-25.2 56.4-56.4 0-31.1-25.2-56.4-56.4-56.4"/><path class="st0" d="M443.9 169.4c27.6 0 50-22.4 50-50s-22.4-50-50-50m43.8 35.5c-6.2-18.9-23.9-31.7-43.8-31.7m43.8 31.8l3.6-1"/><path class="st0" d="M443.9 165.4c14 0 27.3-6.4 36.1-17.4 8.7-11 12-25.3 8.9-39"/><path class="st0" d="M483.9 110.5l4.9-1.5 3.7-.9m-8.6 2.3c-.3-1.4-.7-2.7-1.1-4.1m-.1 0l5-1.3m10.4 63l12.5 13.9m-12.8-13.6l12.6 13.9M497 169.1l12.6 13.8m-13-13.5l12.5 13.9m-13.6-12.9l12.6 13.9M495 170.8l12.5 13.9m-13.9-12.6l12.6 13.9m-13.1-13.4l12.5 13.9m-14-12.7l12.6 13.9m-13.1-13.3l12.5 13.9m-13.9-12.7l12.6 13.9m-13.1-13.4l12.5 13.9m-13.6-12.9l12.5 13.9m-12.9-13.5l12.5 13.9m-13.3-13.3l12.5 13.9m-12.8-13.6l12.6 13.9m-13.1-13.4l12.5 13.9m-12.4-14.5v.1m13 14.3l.1.1m-12.7-14.9l.3.1m12.7 14.2l.1.1m-2.2-24.3l.2.3m12.7 14l.2.3m.4-.6h.2m7-70.7H537m-18.8.8H537m-18.8.4H537m-18.8 1.2H537m-18.8.7H537m-18.8 1.6H537m-18.8.7H537m-18.8 1.9H537m-18.8.8H537m-18.8 1.8H537m-18.8.8H537m-18.8 1.7H537m-18.8.7H537m-18.8 1.4H537m-18.8.5H537m-18.8.9H537m-18.8.3H537m0 .4h-18.8H537m-19.2-11.2h19.6m-.4-4.2h.4m-.2-.9h.2m-34.6 30.6l.9-3.2.9-2.2m-1.1 2l.2.2m1.1-3.3l-.4-.1m33.8-9l-1.2 1.3m1.2-15.8l-1.2-1.2m-20 1.2l1.2-1.2m-1.2 15.7l1.2 1.3m-11.8-12.8H517m-10.6 8.5H517M500.4 193l-1.8-.2m12.6-9.5v-1.9m-14.3-13.9l1.9.1m-12.6 9.6l-.1 1.7m2.8-15.9l5.8 6.5m-12.1-.8l5.8 6.5m10.4-7.6l12.4 13.8m-25.1-2.5l12.5 13.9m19.6-81.9H537m-18.8 17H537m-34.2 14.3l-.5-.1m1.6 49.9l2.4-2.1m1.2-1.1l.3-.3m1.2-1.1l1.2-1 3.3-3.5m1-1.3l.3-.2m1.1-1.1l.1-.1 3.9-5m1-1.4l.1-.3m1-1.3l3.5-5.4m.8-1.5l.1-.1m.7-1.5l2.7-5 .3-.8m.6-1.5l.2-.3m.5-1.5l1.6-3.7.7-2.3m.6-1.7v-.2m.5-1.5l.7-2.4.9-4m.3-1.6l.1-.2m.3-1.5l.3-1 .6-5.5m.2-1.6v-.3m.1-1.6l.3-6.5m0-1.6v-.3m0-1.6l-.4-6.4v-.1m-.3-1.6v-.3m-.3-1.6l-.6-4.7-.4-1.8m-.5-1.5v-.2m-.4-1.7l-.8-3.2"/></g><g id="Mittellinien"><path class="st1" d="M370.7 119.6h7.1"/><path d="M380.7 119.6h2" fill="none" stroke="#000" stroke-width=".283" stroke-miterlimit="10" stroke-dasharray=".5719,2.8596"/><path d="M384.1 119.6h122.1" fill="none" stroke="#000" stroke-width=".283" stroke-miterlimit="10" stroke-dasharray="14.2981,2.8596,.5719,2.8596"/><path class="st1" d="M507.6 119.6h7.1m-459.8.8H62"/><path d="M64.7 120.4h1.9" fill="none" stroke="#000" stroke-width=".283" stroke-miterlimit="10" stroke-dasharray=".5444,2.722"/><path d="M68 120.4h175" fill="none" stroke="#000" stroke-width=".283" stroke-miterlimit="10" stroke-dasharray="13.6101,2.722,.5444,2.722"/><path class="st1" d="M244.4 120.4h7.1M443.8 48v7.1"/><path d="M443.8 57.8v1.9" fill="none" stroke="#000" stroke-width=".283" stroke-miterlimit="10" stroke-dasharray=".546,2.7301"/><path d="M443.8 61.1v136.2" fill="none" stroke="#000" stroke-width=".283" stroke-miterlimit="10" stroke-dasharray="13.6504,2.7301,.546,2.7301"/><path class="st1" d="M443.8 198.7v7.1"/></g><g id="Bemassung"><path class="st1" d="M18.6 66.4v107.8"/><path d="M16.1 67.9l2.5-9.2 2.4 9.2h-4.9zm0 104.6l2.5 9.2 2.4-9.2h-4.9z"/><path class="st1" d="M43.8 72.1v96.3"/><path d="M41.4 73l2.4-9.3 2.5 9.3h-4.9zm-.1 94.5l2.4 9.2 2.5-9.2h-4.9z"/><path class="st8" d="M70.4 176.6H39.8M74.5 63.8H39.9m37.6-5.3H14.2m57.9 123.3H14.2"/><path class="st9" d="M291.5 74.1v91.3"/><path d="M289 75.8l2.5-9.2 2.4 9.2H289zm0 87.9l2.5 9.2 2.4-9.2H289z"/><path class="st8" d="M243.4 66.4h53.4m-53.1 107.9h53.1"/><path class="st9" d="M221 233.2H65.2"/><path d="M219.3 230.8l9.2 2.4-9.2 2.5v-4.9zm-152.1 0l-9.2 2.4 9.2 2.5v-4.9z"/><path class="st9" d="M265.1 233.2h21.1"/><path d="M266.8 235.7l-9.2-2.5 9.2-2.4v4.9z"/><path class="st8" d="M258.1 151v86.4"/><path class="st9" d="M293.8 257.5H236"/><path d="M292.1 255.1l9.2 2.4-9.2 2.5v-4.9zm-54.4 0l-9.2 2.4 9.2 2.5v-4.9z"/><path class="st8" d="M228.1 180.1v81.6"/><path class="st9" d="M294 18.5h-27.9"/><path d="M292.3 16.1l9.2 2.4-9.2 2.5v-4.9zm-24.5 0l-9.3 2.4 9.3 2.5v-4.9z"/><path class="st9" d="M274.3 43.8h-21"/><path d="M255 41.3l-9.2 2.5 9.2 2.4v-4.9z"/><path class="st9" d="M200.7 43.8h19.9"/><path d="M218.9 46.2l9.2-2.4-9.2-2.5v4.9z"/><path class="st8" d="M302.1 261.7V15.1m-56 28.7h-17.3m29.7-25.3h-29.7m-.5 41.8V14.2M246 72.7V39.6m12.2 48.5V14.2"/><path class="st9" d="M220.7 18.3H72.9"/><path d="M219 15.8l9.2 2.4-9.2 2.5v-4.9zm-144.4 0l-9.2 2.4 9.2 2.5v-4.9z"/><path class="st8" d="M65.6 63.8V15.6"/><path class="st9" d="M306.5 107.6l26.3-71h5.2"/><path d="M309.4 106.9l-5.5 7.8.8-9.5 4.7 1.7z"/><path class="st8" d="M58 179.9v57.5m199.6-4.2h-30.8"/><path d="M298.9 116.1l7 6.9m-7 0l7-6.9m-7 0l7 6.9m-7 0l7-6.9" fill="none" stroke="#000" stroke-width=".992" stroke-miterlimit="10"/><path class="st1" d="M526.1 185.3l7.9 6.4h34.7"/><path d="M525.8 189.3l-7.5-10.3 11.6 5.2-4.1 5.1z"/></g><g id="Text"><text transform="matrix(1 0 -.00479 1 137.9 150.411)" class="st11 st12 st13">Mod</text><text transform="rotate(-90 73.665 58.985)" class="st11 st12 st14">Ø 29</text><text transform="rotate(-90 214.481 -58.256)" class="st11 st12 st14">1-32 UN-2A</text><text transform="rotate(-90 219.33 -67.806)" class="st11 st12 st14">(C-mount)</text><text transform="rotate(-90 95.709 55.183)" class="st11 st12 st14">M27 x 0.5</text><text transform="translate(140.62 14.68)" class="st11 st12 st14">38.3</text><text transform="translate(268.385 14.68)" class="st11 st12 st14">10.5</text><text transform="translate(229.467 40.072)" class="st11 st12 st14">4.1</text><text transform="translate(342.315 39.062)" class="st11 st12 st14">Sensor position</text><text transform="translate(239.053 229.466)" class="st11 st12 st14">7</text><text transform="translate(137.927 229.499)" class="st11 st12 st14">40.1</text><text transform="translate(246.624 254.713)" class="st11 st12 st14">17.526</text><text transform="translate(248.024 268.213)" class="st11 st12 st14">(in air)</text><text transform="translate(148.61 94.719)" class="st11 st12 st13">Inf.</text><text transform="translate(538.755 188.52)" class="st11 st12 st14">R22.3</text><text transform="translate(240.159 14.68)" class="st11 st12 st14">7</text></g><text transform="translate(502.397 253.544)" class="st12 st15">Not to scale</text><text transform="translate(502.168 268.944)" class="st12 st15">Dimensions in mm</text></svg>