<svg style="background-color:#fff" version="1.1" id="Ebene_1" xmlns="http://www.w3.org/2000/svg" xmlns:xlink="http://www.w3.org/1999/xlink" x="0" y="0" viewBox="0 0 234.5 147.2" xml:space="preserve"><style>.st0{fill:none;stroke:#000;stroke-width:.999;stroke-linecap:round;stroke-linejoin:round;stroke-miterlimit:10}.st4{font-family:Helvetica,Arial,sans-serif}.st5{font-size:9.0031px}</style><path class="st0" d="M40.7 5.5v110.8m-6.7-2.1h7.2m-7.2-18h7.2M34 78h7.2M34 60h7.2M34 41.8h7.2m-7.2-18h7.2M34 5.5h7.2"/><defs><path id="SVGID_1_" d="M40.6 59.4h193.9v1.3H40.6z"/></defs><clipPath id="SVGID_2_"><use xlink:href="#SVGID_1_" overflow="visible"/></clipPath><path d="M41.2 60h193" clip-path="url(#SVGID_2_)" fill="none" stroke="#000" stroke-width=".999" stroke-linecap="round" stroke-linejoin="round" stroke-miterlimit="10"/><defs><path id="SVGID_3_" d="M39.4 116.2h195.1v1.3H39.4z"/></defs><clipPath id="SVGID_4_"><use xlink:href="#SVGID_3_" overflow="visible"/></clipPath><path d="M40 116.8h194.2" clip-path="url(#SVGID_4_)" fill="none" stroke="#000" stroke-width=".999" stroke-linecap="round" stroke-linejoin="round" stroke-miterlimit="10"/><path class="st0" d="M216.7 123.5v-7.2m-34.5 7.2v-7.2m-34.7 7.2v-7.2m-35 7.2v-7.2M78 123.5v-7.2m-35 7.2v-7.2"/><defs><path id="SVGID_5_" d="M41.9 58.9h192.5v28.5H41.9z"/></defs><clipPath id="SVGID_6_"><use xlink:href="#SVGID_5_" overflow="visible"/></clipPath><path d="M43 60h7.7c5.2-.1 9.8.4 15 .2h2l1.7.2h3.8l2.2.3H81l2 .2h1.7l1.8.2h2l2 .2h3.8l2 .2 1.7.5h2l1.7.3h2.2l1.5.2 2.3.2 1.7.2h1.7l2 .2 1.8.2 2.2.3h1.5l2.4.4h1.7l2 .5h1.7l2.3.5h1.5l2.2.3 1.7.2 2 .2 1.9.3 2 .5 1.7.3h2.3l1.5.2 2.2.5 1.8.2 2 .2 1.7.3 2.2.2 1.5.5 2.3.2 1.7.2 2 .3 1.8.5 2 .2 1.7.2 2.3.5 1.5.2 2.2.5 1.7.2 2 .5 1.9.6 2.2.5 1.5.2 2.3.5 1.7.5 2 .5 1.7.5 2 .2 2 .2 2 .5 1.5.5 2.3.5 2 .5 1.7.5 2.3.2 1.7.5c5.6 1.7 12 2.7 17.3 4.7l2.2.5 1.5.5 2.3.5 2 .5" clip-path="url(#SVGID_6_)" fill="none" stroke="#000" stroke-width="1.999" stroke-linecap="round" stroke-linejoin="round" stroke-miterlimit="10"/><path class="st0" d="M44.5 98.8h95V114h-95V98.8z"/><text transform="translate(46.724 109.01)" class="st4 st5">Simulated WD = 1.0 m</text><text transform="translate(17.986 7.726)" class="st4 st5">0.6</text><text transform="translate(17.986 44.27)" class="st4 st5">0.2</text><text transform="translate(17.986 62.267)" class="st4 st5">0.0</text><text transform="translate(14.988 80.507)" class="st4 st5">-0.2</text><text transform="translate(14.988 116.745)" class="st4 st5">-0.6</text><text transform="translate(75.461 133.731)" class="st4 st5">1</text><text transform="translate(105.225 144.228)" class="st4 st5">Image Height [mm]</text><text transform="translate(214.487 133.731)" class="st4 st5">5</text><text transform="translate(145.01 133.731)" class="st4 st5">3</text><text transform="translate(14.987 98.51)" class="st4 st5">-0.4</text><text transform="translate(17.985 25.973)" class="st4 st5">0.4</text><text transform="translate(109.874 133.732)" class="st4 st5">2</text><text transform="translate(179.147 133.732)" class="st4 st5">4</text><text transform="translate(40.604 133.732)" class="st4 st5">0</text><text transform="rotate(-90 55.37 45.122)" class="st4" font-size="9">Optical Distortion [%]</text></svg>