<svg style="background-color:#fff" version="1.1" id="Ebene_1" xmlns="http://www.w3.org/2000/svg" xmlns:xlink="http://www.w3.org/1999/xlink" x="0" y="0" viewBox="0 0 356 167.4" xml:space="preserve"><style>.st0,.st7{fill:none;stroke:#000;stroke-width:.999;stroke-linecap:round;stroke-linejoin:round;stroke-miterlimit:10}.st7{stroke-width:1.999}.st8{font-family:Helvetica,Arial,sans-serif}.st9{font-size:9.0014px}.st10{fill:none;stroke:#000;stroke-width:.5;stroke-linecap:round;stroke-linejoin:round;stroke-miterlimit:10}</style><path class="st0" d="M33.8 5v128.8M26.5 4.7h7.7m-7.7 31.8h7.7m-7.7 31.8h7.7M26.5 100h7.7m-7.7 32h7.7"/><defs><path id="SVGID_1_" d="M32.6 133.7h323.3v1.3H32.6z"/></defs><clipPath id="SVGID_2_"><use xlink:href="#SVGID_1_" overflow="visible"/></clipPath><path d="M33.2 134.3h322.5" clip-path="url(#SVGID_2_)" fill="none" stroke="#000" stroke-width=".999" stroke-linecap="round" stroke-linejoin="round" stroke-miterlimit="10"/><path class="st0" d="M326.7 141.8v-8m-58 8v-8m-58.2 8v-8m-58 8v-8m-58.3 8v-8m-58 8v-8"/><defs><path id="SVGID_3_" d="M35.1 54.4h320.8v29.8H35.1z"/></defs><clipPath id="SVGID_4_"><use xlink:href="#SVGID_3_" overflow="visible"/></clipPath><path d="M36.2 55.5l11 .2h11c40.6.8 81.2 2.9 121.3 9.8l11 1.5 11 1.7 11 1.7 11 1.5 11 2 11.3 1.7 11 1.7 10.7 1.3 11.3 1.3 11 1 11 .5 11 .7 22 .5 11 .3 11-.3" clip-path="url(#SVGID_4_)" fill="none" stroke="#777" stroke-width="1.999" stroke-linecap="round" stroke-linejoin="round" stroke-miterlimit="10"/><path d="M36.2 55.5l7 .2m7 0h7m7 .3h7m7 .3l2 .2h5m7 .5l7 .2m7 .3l7 .5m7 .5l4.3.2 2.7.3m7 .5h1l5.8.5m7 .8l7 .5m7 .7l6.5.5h.5m7 .7l3.5.3 3.5.5m7 .5l.5.2 6.2.6m7 .7l7 .8m7 .7l5.8.5 1.2.3m7 .5l2.8.2 4.2.5m6.7.8h.3l6.8.7m7 .8l6.9.7m7.1 1l5.2.8 1.5.2m7 .7l2.5.3 4.5.8m7 1l6.8 1.2m7 1l6.9 1.3m6.8 1.2l5 .7 2 .6m6.8.9l2.2.6 4.8.9" fill="none" stroke="#777" stroke-width="1.999" stroke-linecap="round" stroke-linejoin="round" stroke-miterlimit="10"/><defs><path id="SVGID_5_" d="M35.1 76.7h320.8V102H35.1z"/></defs><clipPath id="SVGID_6_"><use xlink:href="#SVGID_5_" overflow="visible"/></clipPath><path d="M36.2 77.8h11.1l10.9.2h11l11 .2 11 .3 11 .5 11.3.7 11 .6 10.7.7 11.3 1 22 2.5 11 1.2 11 1.3 11 1.5 11 1.5 11 1.3 11 1.5 11.2 1.5 11 1.5 10.8 1 11.2.9 11 1.1 11 .4 11 .8 22 .5 11 .3h11" clip-path="url(#SVGID_6_)" fill="none" stroke="#bbb" stroke-width="1.999" stroke-linecap="round" stroke-linejoin="round" stroke-miterlimit="10"/><path d="M36.2 77.8h7m7 0h7m7 .2h5l2 .2m7 .3h2l5 .3m7 .2l7 .3m7 .2l7 .2m7 .6l4.3.2h2.7m7 .5h1l6 .5m6.8.8l7 .4m7 .8l6.5.5h.5m7 .5l3.5.3 3.5.5m7 .4h.5l6.5.6m7 .5l7 .7m6.7.5l5.8.5 1.2.2m7 .6l2.8.2 4.2.5m7 .5l7 .8m7 .7l7 .8m6.8.7l5.2.5 1.8.3m6.9.7l2.3.3 4.8.7m7 .8l6.7.9m7 1.1l7 1m7 1l4.5.5 2.3.5m6.9 1l1.8.2 5.3.8" fill="none" stroke="#bbb" stroke-width="1.999" stroke-linecap="round" stroke-linejoin="round" stroke-miterlimit="10"/><defs><path id="SVGID_7_" d="M35.1 25.7h320.8v29.5H35.1z"/></defs><clipPath id="SVGID_8_"><use xlink:href="#SVGID_7_" overflow="visible"/></clipPath><path d="M36.2 26.8l11.1.2h21.9l11 .2 11 .6 11 .7 11.3.8 11 .7 10.7 1 11.3 1.3 11 1.2 11 1.8 11 1.5 11 1.7 11 1.5 11 2 11 1.7 11 1.8 11.2 1.8 11 1.5 10.8 1.5 11.2.9 11 1.1 11 .7 11 .5 22 .5h22" clip-path="url(#SVGID_8_)" fill="none" stroke="#000" stroke-width="1.999" stroke-linecap="round" stroke-linejoin="round" stroke-miterlimit="10"/><path class="st7" d="M36.2 26.8h7m7 .2h7m7 .2l5 .3h2m7 .3h2l5 .2m7 .5l7 .2m7 .6l7 .5m7 .4l4.3.3 2.7.3m6.8.5l1.2.2 5.8.5m7 .8l7 .4m7 .8l6.5.5h.5m7 .8l3.5.5 3.2.2m7 1h.8l6.2.5m7 .8l7 .7m7 .8l5.8.7h1.2m6.8.8l3 .2 4 .5m6.9.5h.3l6.8.8m7 .7l6.9.8m7.1.7l5.2.8 1.5.2m7 .8l2.5.5 4.5.4m7 1.1l6.8 1m7 .9l6.9 1.1m6.8 1l5 .7 2 .5m7 1.2l2 .3 4.8.8"/><text transform="rotate(-90 46.882 39.158)" class="st8 st9">SFR</text><text transform="rotate(-90 36.632 28.908)" class="st8 st9">[%]</text><text transform="translate(13.245 104.039)" class="st8 st9">20</text><text transform="translate(13.245 71.994)" class="st8 st9">40</text><text transform="translate(13.245 39.77)" class="st8 st9">60</text><text transform="translate(13.245 7.724)" class="st8 st9">80</text><text transform="translate(18.763 136.004)" class="st8 st9">0</text><text transform="translate(152.506 164.502)" class="st8 st9">Image Height [mm]</text><text transform="translate(72.7 19.246)" class="st8 st9">60 LP/mm</text><text transform="translate(80.494 95.506)" class="st8 st9">120 LP/mm</text><text transform="translate(84.212 47.988)" class="st8 st9">90 LP/mm</text><path class="st10" d="M67.7 16.5l-25.7 7"/><path d="M42.5 22L38 24.8h5.2l-.7-2.8"/><path class="st10" d="M81.2 45.2l-38 7.8"/><path d="M44 51.5L39 54l5.5.2-.5-2.7"/><path class="st10" d="M75.5 91l-33-11.3"/><path d="M44 78.8l-5.5-.6 4.5 3 1-2.4"/><path class="st0" d="M39 103.5h73.7v27.8H39v-27.8z"/><path class="st7" d="M43 111.8h18"/><text transform="translate(64.965 115.26)" class="st8 st9">Sagittal</text><path class="st7" d="M43 123.3h7m7 0h4"/><text transform="translate(65.465 126.78)" class="st8 st9">Tangential</text><text transform="translate(33.745 151.783)" class="st8 st9">0</text><text transform="translate(91.44 151.783)" class="st8 st9">1</text><text transform="translate(150.059 151.783)" class="st8 st9">2</text><text transform="translate(208.23 151.783)" class="st8 st9">3</text><text transform="translate(265.555 151.783)" class="st8 st9">4</text><text transform="translate(324.091 151.784)" class="st8 st9">5</text></svg>