<svg style="background-color:#fff" version="1.1" id="Layer_1" xmlns="http://www.w3.org/2000/svg" x="0" y="0" viewBox="0 0 1000 335" xml:space="preserve"><style>.st0{fill:none;stroke:#000;stroke-miterlimit:3.864}.st1{fill-rule:evenodd;clip-rule:evenodd}.st2,.st3{fill:none;stroke:#000;stroke-miterlimit:3.864}.st2{stroke-linejoin:round}.st3{stroke-width:.5}.st5{font-family:Helvetica,Arial,sans-serif}.st6{font-size:18.021px}.st7{enable-background:new}.st8{font-size:18.026px}.st10,.st13{fill:none;stroke:#000;stroke-linejoin:round;stroke-miterlimit:3.864}.st10{stroke-width:.5}.st13{stroke-dasharray:8,4}.st14{font-size:18.975px}</style><path class="st0" d="M279.8 213.3v-38.9"/><path class="st1" d="M328.3 193.9v-6l15 6-15 6v-6z"/><path class="st2" d="M304 201.2h20.6l-10.3-7.3h15m198.6 61.7h39.8m-194.1-40.8h138.6m-151.9-34.9v29.7m.2-8.5l13.5 13.5m152.3-13.2v-27.1m2 82.1v-27m38.8 26.4v-54.4m-193.6-27.3h286.1"/><path d="M521.7 175.5c0-2.7 2.2-4.9 4.9-4.9s4.9 2.2 4.9 4.9-2.2 4.9-4.9 4.9-4.9-2.2-4.9-4.9z"/><path class="st3" d="M521.7 175.5c0-2.7 2.2-4.9 4.9-4.9s4.9 2.2 4.9 4.9-2.2 4.9-4.9 4.9-4.9-2.2-4.9-4.9z"/><path class="st1" d="M364 211.4l6.9-6.8v6.8H364z"/><path class="st2" d="M364 211.4l6.9-6.8v6.8H364zm-3.7-23.5l13.6-13.6M512.3 200v29.8m.2-15.1l13.5 13.5"/><path d="M516.7 229.8l10.9-10.9v10.9h-10.9z" fill-rule="evenodd" clip-rule="evenodd" fill="#fff"/><path class="st2" d="M516.7 229.8l10.9-10.9v10.9h-10.9zm-4.4-15.5l13.6-13.6"/><text transform="translate(478.743 204.724)" class="st5 st6">Q1</text><text transform="translate(660.434 31.07)" class="st7"><tspan x="0" y="0" class="st5 st6">6-pin</tspan><tspan x="0" y="21.6" class="st5 st6">receptacle</tspan></text><path class="st2" d="M659.8 65.4h30.1v182.2h-30.1V65.4z"/><text transform="translate(669.611 93.544)" class="st5 st6">1</text><text transform="translate(669.611 122.41)" class="st5 st6">2</text><text transform="translate(669.611 151.275)" class="st5 st6">3</text><text transform="translate(669.611 180.137)" class="st5 st6">4</text><text transform="translate(669.611 209.002)" class="st5 st6">5</text><text transform="translate(669.611 237.866)" class="st5 st6">6</text><path class="st2" d="M566 201.2h94.1"/><text transform="translate(271.164 151.5)" class="st5 st8">Optocoupler</text><path class="st0" d="M785.8 305.2v-104"/><path class="st2" d="M786.2 201.7h-96.3m104.9 103.5h-18m3.4 3.9h11.3m-8.9 3.9h6.4m186.4-7.8h-18m3.4 3.9h11.3m-8.9 3.9h6.4"/><path class="st0" d="M785.4 51.6V25h181v280.2"/><text transform="translate(893.806 74.41)" class="st5 st8">3.3–24</text><text transform="translate(904.806 93.71)" class="st5 st8">VDC</text><path d="M981.1 76.1c0 7-5.7 12.6-12.6 12.6-7 0-12.7-5.7-12.7-12.6 0-7 5.7-12.6 12.7-12.6 7-.1 12.6 5.6 12.6 12.6z" fill-rule="evenodd" clip-rule="evenodd" fill="#fff" stroke="#000" stroke-linejoin="round" stroke-miterlimit="3.864"/><path class="st2" d="M961.5 74.1h13.9m-13.9 4h13.9M785.3 34.2v138.2"/><path class="st0" d="M770.9 123.5h29.2"/><path class="st1" d="M770.9 102h29.2l-14.6 19.7-14.6-19.7z"/><path class="st2" d="M770.9 102h29.2l-14.6 19.7-14.6-19.7z"/><path class="st1" d="M819.9 105.3l-2.5-3.3 10.9-3-5.9 9.7-2.5-3.4z"/><path class="st10" d="M807.3 114.7l13.2-9.8"/><path class="st1" d="M818.7 93.4l-2.6-3.3 11-3-5.9 9.7-2.5-3.4z"/><path class="st10" d="M806.1 102.8l13.1-9.8"/><text transform="translate(842.085 95.952)" class="st7"><tspan x="0" y="0" class="st5 st6">LED</tspan><tspan x="0" y="21.6" class="st5 st6">output</tspan></text><path class="st2" d="M786.1 173.9l-96.2.3"/><path d="M762.4 164v19.4H704V164h58.4z" fill="#fff"/><path class="st0" d="M762.4 164v19.4H704V164h58.4zm-492.3 35.1h19.5"/><path class="st1" d="M270.1 187.5h19.5l-9.8 9.7-9.7-9.7z"/><path class="st2" d="M270.1 187.5h19.5l-9.8 9.7-9.7-9.7z"/><path class="st2" d="M249.4 162.7h150.7v63H249.4v-63z"/><path class="st0" d="M244 174.8h35.9l-.1-.3v39"/><path class="st2" d="M241.4 213.6h38.7"/><path d="M141.5 213.6h99.9" fill="none" stroke="#000" stroke-width=".9" stroke-linejoin="round" stroke-miterlimit="3.864" stroke-dasharray="8,4"/><path class="st13" d="M141.5 174.7h102.6"/><text transform="translate(59.324 188.037)" class="st7"><tspan x="0" y="0" class="st5 st14">Further</tspan><tspan x="0" y="22.8" class="st5 st14">circuitry</tspan></text><path class="st13" d="M19.8 67.6h640v249h-640v-249z"/><text transform="translate(37.969 105.653)" font-size="22.77" font-family="Helvetica,Arial,sans-serif" font-weight="700">Camera</text><path class="st0" d="M606.3 174.1v27.1"/><path class="st1" d="M616.1 194.7h-19.5l9.7-11.6 9.8 11.6z"/><path d="M616.1 194.7h-19.5l9.7-11.6 9.8 11.6z" fill="none" stroke="#000" stroke-width=".003" stroke-linejoin="round" stroke-miterlimit="3.864"/><path d="M600.6 183.6h11.3m-.3-.2l3.4 3.4m-17.6-6.4l3.5 3.4" fill="none" stroke="#000" stroke-width=".85" stroke-miterlimit="3.864"/><path d="M601.4 174.1c0-2.7 2.2-4.9 4.9-4.9s4.9 2.2 4.9 4.9-2.2 4.9-4.9 4.9-4.9-2.2-4.9-4.9z"/><path class="st3" d="M601.4 174.1c0-2.7 2.2-4.9 4.9-4.9s4.9 2.2 4.9 4.9-2.2 4.9-4.9 4.9-4.9-2.2-4.9-4.9z"/><path d="M601.4 201.2c0-2.7 2.2-4.9 4.9-4.9s4.9 2.2 4.9 4.9-2.2 4.9-4.9 4.9c-2.8-.1-4.9-2.2-4.9-4.9z"/><path class="st3" d="M601.4 201.2c0-2.7 2.2-4.9 4.9-4.9s4.9 2.2 4.9 4.9-2.2 4.9-4.9 4.9c-2.8-.1-4.9-2.2-4.9-4.9z"/><text transform="translate(969.671 61.238)" class="st5 st14">+</text><text transform="translate(969.631 103.017)" class="st5 st14">-</text></svg>