<svg version="1.1" id="Ebene_1" xmlns="http://www.w3.org/2000/svg" x="0" y="0" viewBox="0 0 94.8 107" style="background-color:#fff" xml:space="preserve"><style>.st0{stroke:#000;stroke-linecap:round;stroke-linejoin:round;stroke-miterlimit:10;stroke-width:1.08}.st0,.st2{fill:none}.st3{font-family:Helvetica,Arial,sans-serif}.st4{font-size:14px}</style><path class="st0" d="M43.1 75.1c3.4.8 7 .8 10.4 0m-8.6-1.2v-.3"/><path class="st0" d="M53.4 75.1c10.1-2.5 16.7-11.9 15.4-22-1.3-10-10.1-17.6-20.6-17.6-10.5 0-19.3 7.5-20.6 17.6-1.3 10 5.3 19.5 15.4 22"/><path class="st0" d="M51.6 73.7c0-1.8-1.5-3.3-3.4-3.3s-3.4 1.5-3.4 3.3m8.1-18.1c0-2.5-2.1-4.5-4.7-4.5s-4.7 2-4.7 4.5 2.1 4.5 4.7 4.5c2.6.1 4.7-2 4.7-4.5"/><path class="st0" d="M45.5 55.6c0 1.5 1.2 2.6 2.7 2.6 1.5 0 2.7-1.2 2.7-2.6 0-1.5-1.2-2.6-2.7-2.6-1.5 0-2.7 1.2-2.7 2.6m6.1 18v.3m-6.8.1v-.3m-1.5 1.4h.9l.7-.9m8.7.9h-1.3l-.7-.9m0-.5v.3m-6.1-31.8c0 1.5 1.2 2.6 2.7 2.6 1.5 0 2.7-1.2 2.7-2.6 0-1.5-1.2-2.6-2.7-2.6-1.5 0-2.7 1.2-2.7 2.6m-10.6 4.7c0 1.5 1.2 2.6 2.7 2.6 1.5 0 2.7-1.2 2.7-2.6 0-1.5-1.2-2.6-2.7-2.6-1.5 0-2.7 1.2-2.7 2.6m-3.2 10.6c0 1.5 1.2 2.6 2.7 2.6 1.5 0 2.7-1.2 2.7-2.6 0-1.5-1.2-2.6-2.7-2.6-1.5 0-2.7 1.1-2.7 2.6m6.4 9.7c0 1.5 1.2 2.6 2.7 2.6 1.5 0 2.7-1.2 2.7-2.6 0-1.5-1.2-2.6-2.7-2.6-1.5-.1-2.7 1.1-2.7 2.6m15.1 0c0 1.5 1.2 2.6 2.7 2.6 1.5 0 2.7-1.2 2.7-2.6 0-1.5-1.2-2.6-2.7-2.6-1.4-.1-2.7 1.1-2.7 2.6m6.1-9.7c0 1.5 1.2 2.6 2.7 2.6 1.5 0 2.7-1.2 2.7-2.6 0-1.5-1.2-2.6-2.7-2.6-1.4 0-2.7 1.1-2.7 2.6m-3.2-10.6c0 1.5 1.2 2.6 2.7 2.6 1.5 0 2.7-1.2 2.7-2.6 0-1.5-1.2-2.6-2.7-2.6-1.4 0-2.7 1.2-2.7 2.6M41.6 44l1.7-1.9h-1.7V44"/><path class="st0" d="M37.4 61c1.3-1 1.9-2.6 1.7-4.1-.2-1.6-1.3-2.9-2.8-3.5m.7-2l-.6 1.8m.4-1.8c1.6.3 3.2-.3 4.3-1.5 1.1-1.2 1.4-2.8.9-4.3m2.2-.9c-.6.2-1.2.5-1.8.8m1.9-.9c.8 1.4 2.4 2.2 4 2.2s3.1-.8 4-2.2m1.8.8c-.6-.3-1.2-.6-1.8-.8m2.1.9c-.5 1.5-.2 3.2.9 4.3 1.1 1.2 2.7 1.8 4.3 1.5m.5 2c-.1-.6-.3-1.2-.6-1.8m.7 1.9c-1.5.6-2.6 2-2.8 3.5-.2 1.6.4 3.1 1.7 4.1m-1.2 1.7c.4-.5.8-1 1.1-1.6m-1 2c-1.5-.7-3.2-.6-4.6.3-1.4.9-2.2 2.4-2.1 3.9m-5.8-.3c1.8.4 3.7.4 5.5 0"/><path class="st0" d="M45.5 67.3c.1-1.6-.8-3.1-2.1-3.9-1.4-.9-3.1-1-4.6-.3m-1.2-2c.3.6.7 1.1 1.1 1.6m24.2-11.3l.6.3 1-.3v-.3l-.6-1.2-.7-.3-.6.3v.9l.3.6m-3.2 14.7v-.6l2.2-4.1h.7l-2.3 4.4h2.6v.3h-3.2m-19.3-24v-.6h.6v-1.6h.6v1.6h2.3v.6l-2.3 2.5H41v-2.5h-.6M33 53.3l.6.3.6-.3h.7m0 .6v-.6"/><path class="st0" d="M34.9 53.9l-1.3.3-1.3-.3-.3-.9.3-.6.7-.7m0 0"/><path class="st0" d="M33 51.7l-.7-.3-.3-.9.3-.9 1.3-.7 1.3.4m0 0v.9"/><path class="st0" d="M34.9 50.2l-1.3-.6-.6.3-.4.9.4.6h.6m0 0h.3v.7h-.3m0 0l-.6.3-.4.6.4.3m.9 9.3V62h3.2v.6m0 0l-1.2 1.3-1 .9v1l.3.6.3.3 1-.3.3-.3m0 .6v-.6"/><path class="st0" d="M36.8 66.7l-1.3.3-.9-.3-.4-.9v-1l1-.9 1.3-1.3m0 0h-2.6m17.7 9.7v-5h.7v3.8m0 0l1.3-.7m0 0v.7m0 0l-1.3 1.2m0 0h-.7m2.6-29.9l-.6-1.2.6-1.3 1-.3 1.6.3"/><path class="st0" d="M56.8 39.9v.6h-.3m0 0l-.4-.3h-.9l-.7.3-.3.7.3.6 1 .3h1m0 0v2.5h-2.9V44h2.2v-1.3"/><path class="st0" d="M55.8 42.7h-.6l-1-.3m8 9.7l-.6-1.3.6-1.2 1-.7 1.3.7.6 1.5-.6 2.2-1.6.9-.7-.3m0 0v-.6"/><path class="st0" d="M62.2 53.3l.7.3 1-.6.6-.9-1.3.3-1-.3m10.3 9.6V57m-48.2-7.1v4.3m-2.9-5.9h1.3M73.8 63l-.9-.4-.4-.9m2.6 1.3h-1.3M22.7 48.3l1.2.3.4 1.3"/><path class="st0" d="M15.6 55.6c0 17.5 14.6 31.6 32.7 31.6 18 0 32.7-14.1 32.7-31.6C80.9 38.2 66.3 24 48.3 24c-18.1 0-32.7 14.2-32.7 31.6"/><path class="st0" d="M79 55.6c0-16.4-13.8-29.7-30.7-29.8-17 0-30.7 13.3-30.7 29.7s13.7 29.7 30.7 29.8C65.2 85.4 79 72.1 79 55.6"/><path class="st0" d="M76.1 55.6c0-14.9-12.5-26.9-27.8-26.9-15.4 0-27.8 12.1-27.8 26.9 0 14.9 12.5 26.9 27.8 27 15.3 0 27.8-12.1 27.8-27"/><path class="st0" d="M19.8 55.6c0 15.2 12.7 27.6 28.5 27.6 15.7 0 28.5-12.3 28.5-27.6C76.8 40.4 64.1 28 48.3 28c-15.8.1-28.5 12.4-28.5 27.6"/><path class="st0" d="M69.3 55.6c0-11.3-9.4-20.4-21.1-20.4-11.6 0-21.1 9.1-21.1 20.4 0 11.3 9.4 20.4 21.1 20.4 11.7 0 21.1-9.1 21.1-20.4"/><path d="M10.8 75.1l22.7-17.5M17.8 84.7l22.6-17.5m44 7.9L61.8 57.6m16.7 27.1L55.8 67.2M36.9 46.4L14.3 28.9m45 17.5l22.6-17.5M47.9 42l-.5-28.7m2 80.5l-1-37.8" fill="none" stroke-width=".5" stroke="#000" stroke-linecap="round" stroke-linejoin="round" stroke-miterlimit="10"/><path class="st2" d="M43.4 1.1h36.1v10.4H43.4z"/><text transform="translate(43.408 11.094)" class="st3 st4">5</text><path class="st2" d="M83.7 19.2h19.6v15.9H83.7z"/><text transform="translate(83.7 29.202)" class="st3 st4">6</text><path class="st2" d="M85.9 75.4h15.4v15.1H85.9z"/><text transform="translate(85.899 85.4)" class="st3 st4">7</text><path class="st2" d="M78.4 85.2h14.2v11.2H78.4z"/><text transform="translate(78.407 95.253)" class="st3 st4">1</text><path class="st2" d="M45.4 95.9h27.4V112H45.4z"/><text transform="translate(45.427 105.966)" class="st3 st4">8</text><path class="st2" d="M8.7 85.7h13.8v15.7H8.7z"/><text transform="translate(8.726 95.725)" class="st3 st4">2</text><path class="st2" d="M1.3 75h13.9v11.8H1.3z"/><text transform="translate(1.261 85.023)" class="st3 st4">3</text><path class="st2" d="M4.8 18.9h16.7v14.7H4.8z"/><text transform="translate(4.835 28.884)" class="st3 st4">4</text></svg>