<svg version="1.1" id="Ebene_1" xmlns="http://www.w3.org/2000/svg" x="0" y="0" viewBox="0 0 1380 842.8" style="background-color:#fff" xml:space="preserve"><style>.st1{fill:none;stroke:#000;stroke-width:.5;stroke-linecap:round;stroke-linejoin:round}.st3{fill:#1a1a18}.st4{font-family:Helvetica,Arial,sans-serif}.st5{font-size:32px}.st7{fill:#1d1d1b}.st8,.st9{fill:none;stroke:#000;stroke-linecap:round;stroke-linejoin:round}.st9{stroke-width:1.41}</style><g id="ens_C10-1214-2M"><path fill="#f2f2f2" stroke="#000" stroke-width="3.2" stroke-linecap="round" stroke-linejoin="round" d="M268.6 236l-16.2 27.8h-55.2v420.9h55.2l16.2 27.4H290l1.1-1 1.4 1h39.7v-9.8h3.2v9.8h76.7l1-1v-9.9H424v10.9h243.7l5.6-5.2v-15.5h33.4v14.4l6.4 6.3h44.3l6.6-6.3v-51.7h2.5l1.1-1v-42.6h10.9v4.2h26.7l6.7-6.7v-8.7h13.3l2.1-2.1V351.4l-2.1-2.5h-13.3v-8.8l-6.7-6.7h-26.7v4.6h-10.9v-42.6l-1.1-1.4H764v-51.3l-6.6-6.7h-44.3l-6.4 6.7v14.4h-33.4v-15.5l-5.6-5.6H424v11.3h-10.9v-10.2l-1-1.1h-76.7v9.9h-3.2V236h-39.7l-1.4 1.1-1.1-1.1h-21.4" id="Outline"/><path class="st1" d="M825.5 598.4v-250m2.1 247.5V350.5m-22.1 263.3V332.9m6.7 274.2V339.6m-33.4 274.2V332.9m-11.9 320.2V293.6m1.1 358.1V294.6m-54.5 416.5V235.7m-6.3 468.7V242.3m50.6 468.8V235.7"/><path fill="none" stroke="#000" stroke-width="2.11" stroke-linecap="round" stroke-linejoin="round" d="M764.4 704.4V242.3"/><path class="st1" d="M668.2 711.1V235.7m5.6 469.8V240.9M424.9 711.1V235.7M413 711.1V235.7m1 474.3V236.7m-77.6 474.4V235.7m-42.8 475.4V235.7M292.2 710V236.7m41.1 474.4V235.7m-63.6 475.4V235.7m-16.1 447.6V263m37.5 448.1V235.7m-92.7 447.6V263m629.2 332.9l-2.1 2.5m2.1-247.9l-2.1-2.1h-13.3m0 250h13.3m-13.3 8.7l-6.7 6.7m6.7-274.2l-6.7-6.7h-26.7m0 280.9h26.7M768 337.1h10.8M768 609.2h10.8M768 651.7l-1.1 1.4m1.1-358.5l-1.1-1h-2.5m0 359.5h2.5m-59.7-410.8l6.3-6.6m-6.3 468.7l6.3 6.7m0-475.4h44.3m-44.3 475.4h44.3l6.6-6.7m0-462.1l-6.6-6.6m-84 469.8l-5.6 5.6m5.6-470.2l-5.6-5.2H424.9m0 475.4h243.3m5.6-454.7h33.4M673.8 690h33.4M414 710l-1 1.1m1-474.4l-1-1h-76.6m0 475.4H413m1-464.6h10.9M414 699.8h10.9m-91.6-454.3h3.1m-3.1 455.7h3.1m-44.2-464.5l1.4-1M292.2 710l1.4 1.1m0-475.4h39.7m-39.7 475.4h39.7M253.6 263l16.1-27.3m-16.1 447.6l16.1 27.8m0-475.4h21.4m-21.4 475.4h21.4l1.1-1.1m0-473.3l-1.1-1M198.4 263h55.2m-55.2 420.3h55.2"/></g><g id="bemaßung"><g id="text"><text transform="translate(471.28 70.55)" class="st3 st4 st5">51.5</text><text transform="matrix(.93 0 0 1 821.65 70.55)" class="st3 st4 st5">17.526</text><text transform="matrix(.93 0 0 1 864.82 133.6)" class="st3 st4 st5">12.1</text><path class="st3" d="M1117.9 785.4v-22.9h2.9l11.2 18v-18h2.7v22.9h-2.9l-11.2-18v18h-2.7zm20.2-8.3c0-3.1.8-5.3 2.4-6.8 1.3-1.2 3.1-1.9 4.8-1.8 2-.1 3.9.8 5.2 2.2 1.4 1.7 2.1 3.9 2 6.2.1 1.7-.2 3.4-.9 5-.6 1.2-1.5 2.2-2.6 2.8-1.1.7-2.4 1-3.7 1-2 .1-3.9-.7-5.2-2.2-1.3-1.5-2-3.6-2-6.4zm2.7 0c-.1 1.7.3 3.4 1.3 4.8 1.4 1.8 4 2.1 5.8.7.3-.2.5-.5.7-.7 1-1.4 1.4-3.1 1.3-4.9.1-1.7-.3-3.3-1.3-4.7-1.4-1.8-4-2.1-5.8-.7-.3.2-.5.5-.7.7-1 1.4-1.4 3.1-1.3 4.8zm20.5 5.8l.4 2.5c-.7.2-1.3.2-2 .3-.8 0-1.5-.1-2.2-.5-.5-.3-.9-.7-1.1-1.3-.3-1.1-.4-2.2-.3-3.3V771h-1.9v-2.2h1.9v-4.1l2.6-1.7v5.8h2.6v2.2h-2.6v9.7c0 .5 0 1 .1 1.5.1.2.2.4.4.5.3.1.6.2.9.2.5.1.8 0 1.2 0zm16.6 0l.4 2.5c-.7.2-1.3.2-2 .3-.8 0-1.5-.1-2.2-.5-.5-.3-.9-.7-1.1-1.3-.3-1.1-.4-2.2-.3-3.3V771h-1.9v-2.2h1.9v-4.1l2.6-1.7v5.8h2.6v2.2h-2.6v9.7c0 .5 0 1 .1 1.5.1.2.2.4.4.5.3.1.6.2.9.2.4.1.8 0 1.2 0zm1.5-5.8c0-3.1.8-5.3 2.4-6.8 1.3-1.2 3.1-1.9 4.8-1.8 2-.1 3.9.8 5.2 2.2 1.4 1.7 2.1 3.9 2 6.2.1 1.7-.2 3.4-.9 5-.6 1.2-1.5 2.2-2.6 2.8-1.1.7-2.4 1-3.7 1-2 .1-3.9-.7-5.2-2.2-1.3-1.5-1.9-3.6-2-6.4zm2.7 0c-.1 1.7.3 3.4 1.3 4.8.8 1 2 1.6 3.3 1.6 1.3 0 2.5-.6 3.2-1.6 1-1.4 1.4-3.1 1.3-4.9.1-1.7-.3-3.3-1.3-4.7-.8-1-2-1.6-3.2-1.6-1.3 0-2.5.6-3.3 1.6-.9 1.4-1.4 3.1-1.3 4.8zm22.1 3.3l2.6-.4c.1 2 1.7 3.6 3.7 3.5h.3c1 .1 1.9-.2 2.7-.8.5-.5.9-1.1.9-1.8 0-.6-.3-1.2-.8-1.5-.8-.4-1.7-.8-2.7-1-1.4-.3-2.7-.8-4-1.3-.7-.3-1.3-.9-1.7-1.6-.4-.7-.6-1.4-.6-2.2 0-1.4.6-2.8 1.8-3.6.5-.4 1.1-.6 1.7-.8.7-.2 1.5-.3 2.3-.3 1.1 0 2.2.2 3.2.6.8.3 1.5.8 2 1.5.5.8.8 1.7.9 2.6l-2.6.4c-.1-.8-.4-1.5-1-2-.7-.5-1.5-.8-2.4-.7-.9-.1-1.8.1-2.6.6-.5.4-.8.9-.8 1.5 0 .4.1.7.3 1 .3.3.6.6 1 .8.3.1 1 .4 2.3.7 1.3.3 2.6.8 3.9 1.3.7.3 1.3.8 1.7 1.5.4.7.7 1.6.6 2.4 0 2-1.2 3.8-3 4.6-1 .5-2.1.7-3.3.7-1.6.1-3.3-.4-4.6-1.3-1-1.4-1.6-2.8-1.8-4.4zm26-1.1l2.6.4c-.2 1.7-.9 3.3-2.2 4.5-1.2 1.1-2.7 1.7-4.3 1.6-2 .1-3.8-.7-5.1-2.2-1.4-1.8-2.1-4.1-1.9-6.4 0-1.6.2-3.2.8-4.7.5-1.3 1.4-2.3 2.5-3 1.1-.7 2.4-1 3.7-1 1.5-.1 3 .4 4.1 1.4 1.1 1 1.8 2.4 2 3.9l-2.5.4c-.2-1-.6-1.8-1.3-2.5-.6-.6-1.4-.9-2.2-.8-1.3 0-2.4.5-3.2 1.5-.9 1.4-1.4 3.1-1.2 4.8 0 2.2.4 3.8 1.2 4.9.7 1 1.9 1.5 3.1 1.5 1 0 1.9-.3 2.6-1 .7-1 1.2-2.1 1.3-3.3zm14.9 4c-.8.8-1.8 1.4-2.8 1.9-.9.4-1.9.6-2.9.5-1.4.1-2.8-.4-3.9-1.3-.9-.9-1.4-2.1-1.4-3.4 0-.8.2-1.5.5-2.2.3-.6.8-1.2 1.3-1.6.6-.4 1.2-.7 1.9-.9.8-.2 1.5-.3 2.3-.4 1.6-.2 3.2-.5 4.7-1v-.7c.1-.9-.2-1.7-.7-2.4-.8-.7-1.9-1.1-3-1-1-.1-1.9.2-2.7.7-.7.7-1.2 1.5-1.3 2.5l-2.6-.4c.2-1 .6-2 1.2-2.9.6-.7 1.4-1.3 2.3-1.6 1.1-.4 2.3-.6 3.5-.6 1.1 0 2.2.1 3.2.5.7.2 1.3.7 1.8 1.3.4.6.7 1.2.8 1.9.1.9.2 1.7.1 2.6v3.8c0 1.7 0 3.3.2 5 .1.7.3 1.4.7 2h-2.7c-.3-.8-.5-1.5-.5-2.3zm-.2-6.2c-1.4.5-2.8.9-4.3 1.1-.8.1-1.5.3-2.3.6-.4.2-.8.5-1 .9-.2.4-.4.9-.4 1.3 0 .7.3 1.4.8 1.9.6.5 1.5.8 2.3.8.9 0 1.9-.2 2.7-.7.8-.5 1.4-1.2 1.7-2 .3-.9.5-1.9.4-2.8l.1-1.1zm6.6 8.3v-22.9h2.6v22.9h-2.6zm17.2-5.4l2.7.4c-.3 1.6-1.2 3-2.4 4-3 2.2-7.2 1.8-9.8-.8-1.4-1.8-2.1-4-2-6.3-.1-2.3.6-4.7 2-6.5 1.3-1.5 3.2-2.4 5.2-2.3 1.9-.1 3.8.8 5.1 2.3 1.4 1.8 2.1 4.1 2 6.4v.8H1260c0 1.5.5 3 1.4 4.2.8.9 2 1.5 3.2 1.5.9 0 1.8-.3 2.5-.8.8-.9 1.4-1.8 1.6-2.9zm-8.5-4.5h8.6c0-1.1-.4-2.2-1-3.1-.7-1-2-1.6-3.2-1.6-1.1 0-2.2.5-3 1.3-.9.9-1.4 2.1-1.4 3.4zm-142.3 48.3v-22.9h7.3c1.3 0 2.5.1 3.8.3 1.2.3 2.2.8 3.1 1.6 1.2 1.1 2 2.4 2.5 3.9.6 1.8.9 3.6.8 5.5 0 1.6-.2 3.1-.6 4.6-.3 1.2-.8 2.3-1.5 3.3-1 1.6-2.6 2.8-4.5 3.2-1.1.3-2.3.4-3.4.4l-7.5.1zm2.8-2.7h4.6c1.1 0 2.2-.1 3.3-.4.7-.2 1.4-.6 1.9-1.2.7-.8 1.3-1.8 1.6-2.9.4-1.4.6-2.9.6-4.4.1-1.9-.3-3.8-1.1-5.5-.6-1.1-1.5-2.1-2.7-2.6-1.2-.4-2.4-.5-3.6-.5h-4.5l-.1 17.5zm18.4-17v-3.2h2.6v3.2h-2.6zm0 19.7v-16.6h2.6v16.6h-2.6zm6.6 0v-16.6h2.3v2.3c.5-.8 1.1-1.5 1.9-2 .8-.5 1.8-.8 2.8-.7 1 0 2 .2 2.8.8.7.5 1.3 1.3 1.6 2.1.9-1.8 2.8-2.9 4.8-2.9 1.3-.1 2.6.4 3.5 1.4.9 1.2 1.4 2.7 1.2 4.2v11.4h-2.6v-10.5c0-.8 0-1.6-.3-2.4-.2-.5-.5-.9-.9-1.2-.5-.3-1-.5-1.6-.5-1 0-2 .4-2.7 1.2-.8 1.1-1.2 2.4-1.1 3.7v9.6h-2.6V813c.1-1-.2-2-.6-2.8-.5-.7-1.3-1-2.1-.9-.7 0-1.4.2-2 .6-.6.4-1.1 1.1-1.4 1.8-.3 1.1-.5 2.3-.4 3.5v8.6h-2.6zm35.3-5.3l2.7.4c-.3 1.6-1.2 3-2.4 4-1.3 1-2.8 1.5-4.4 1.4-2 .1-4-.7-5.4-2.2-1.4-1.8-2.1-4-2-6.3-.1-2.3.6-4.6 2-6.5 1.3-1.5 3.2-2.4 5.2-2.3 1.9-.1 3.8.8 5.1 2.3 1.4 1.8 2.1 4.1 2 6.4v.8h-11.5c0 1.5.5 3 1.4 4.2.8.9 2 1.5 3.2 1.5.9 0 1.8-.3 2.4-.8.9-1 1.4-1.9 1.7-2.9zm-8.6-4.6h8.6c0-1.1-.4-2.2-1-3.2-.8-1-2-1.6-3.2-1.6-1.1 0-2.2.5-3 1.3-.9 1-1.3 2.2-1.4 3.5zm14.6 9.9v-16.6h2.4v2.4c1-1.8 2.9-2.8 4.9-2.7.9 0 1.8.2 2.6.5.7.3 1.3.8 1.8 1.4.4.6.7 1.3.8 2.1.1.9.2 1.8.1 2.7v10.2h-2.5v-10.1c0-.9-.1-1.7-.3-2.6-.2-.6-.6-1-1.1-1.4-.5-.3-1.2-.5-1.8-.5-1.1 0-2.1.4-2.9 1.2-.8.8-1.2 2.2-1.2 4.3v9.1h-2.8zm15.5-5l2.6-.4c.1 2 1.8 3.5 3.7 3.5h.3c1 .1 1.9-.2 2.7-.8.5-.5.9-1.1.9-1.8 0-.6-.3-1.2-.8-1.5-.8-.4-1.7-.8-2.7-1-1.4-.3-2.7-.8-4-1.3-.7-.3-1.3-.9-1.7-1.6-.4-.7-.6-1.4-.6-2.2 0-1.4.6-2.8 1.8-3.6.5-.4 1.1-.6 1.7-.8.7-.2 1.5-.3 2.3-.3 1.1 0 2.2.2 3.2.6.8.3 1.5.8 2 1.5.5.8.8 1.7.9 2.6l-2.6.4c-.1-.8-.4-1.5-1-2-.7-.5-1.5-.8-2.4-.7-.9-.1-1.8.1-2.6.6-.5.4-.8.9-.8 1.5 0 .4.1.7.3 1 .3.3.6.6 1 .8.3.1 1 .3 2.3.7 1.3.3 2.6.8 3.9 1.3.7.3 1.3.8 1.7 1.5.4.7.7 1.6.6 2.4 0 2-1.2 3.8-3 4.6-1 .5-2.1.7-3.3.7-1.6.1-3.3-.4-4.6-1.3-.9-1.5-1.6-2.9-1.8-4.4zm16-14.7v-3.2h2.6v3.2h-2.6zm0 19.7v-16.6h2.6v16.6h-2.6zm5.6-8.3c0-3.1.8-5.4 2.4-6.8 1.3-1.2 3.1-1.9 4.8-1.8 2-.1 3.9.8 5.2 2.2 1.4 1.7 2.1 3.9 2 6.2.1 1.7-.2 3.4-.9 5-.6 1.2-1.5 2.2-2.6 2.9-1.1.7-2.4 1-3.7 1-2 .1-3.9-.7-5.2-2.2-1.3-1.6-2-3.7-2-6.5zm2.7 0c-.1 1.7.3 3.4 1.3 4.8 1.4 1.8 4 2.1 5.8.7.3-.2.5-.5.7-.7 1-1.4 1.4-3.1 1.3-4.8.1-1.7-.3-3.3-1.3-4.7-1.4-1.8-4-2.1-5.8-.7-.3.2-.5.4-.7.7-1 1.3-1.4 3-1.3 4.7zm14.8 8.3v-16.6h2.4v2.4c1-1.7 2.9-2.8 4.9-2.7.9 0 1.8.2 2.6.5.7.3 1.3.8 1.8 1.4.4.6.7 1.3.8 2.1.1.9.2 1.8.2 2.7v10.2h-2.6v-10.1c0-.9-.1-1.7-.3-2.6-.2-.6-.6-1-1.1-1.4-.5-.3-1.2-.5-1.8-.5-1.1 0-2.1.4-2.9 1.2-.8.8-1.2 2.2-1.2 4.3v9.1h-2.8zm15.5-5l2.6-.4c.1 2 1.8 3.5 3.7 3.5h.3c1 .1 1.9-.2 2.7-.8.5-.5.9-1.1.9-1.8 0-.6-.3-1.2-.8-1.5-.8-.4-1.7-.8-2.7-1-1.4-.3-2.7-.8-4-1.3-.7-.3-1.3-.9-1.7-1.6-.4-.7-.6-1.4-.6-2.2 0-1.4.6-2.8 1.8-3.6.5-.4 1.1-.6 1.7-.8.7-.2 1.5-.3 2.3-.3 1.1 0 2.2.2 3.2.6.8.3 1.5.8 2 1.5.5.8.8 1.7.9 2.6l-2.6.4c-.1-.8-.4-1.5-1-2-.7-.5-1.5-.8-2.4-.7-.9-.1-1.8.1-2.6.6-.5.4-.8.9-.8 1.5 0 .4.1.7.3 1 .3.3.6.6 1 .8.3.1 1 .3 2.3.7 1.3.3 2.6.8 3.9 1.3.7.3 1.3.8 1.7 1.5.4.7.6 1.6.6 2.4 0 .9-.3 1.9-.8 2.7-.5.8-1.3 1.5-2.2 1.9-1 .5-2.1.7-3.3.7-1.6.1-3.3-.4-4.6-1.3-.9-1.4-1.6-2.8-1.8-4.4zm24.2-14.7v-3.2h2.7v3.2h-2.7zm0 19.7v-16.6h2.7v16.6h-2.7zm6.6 0v-16.6h2.3v2.4c1-1.8 2.9-2.8 4.9-2.7.9 0 1.8.2 2.6.5.7.3 1.3.8 1.8 1.4.4.6.7 1.3.8 2.1.1.9.2 1.8.1 2.7v10.2h-2.6v-10.1c0-.9-.1-1.7-.3-2.6-.2-.6-.6-1-1.1-1.4-.5-.3-1.2-.5-1.8-.5-1.1 0-2.1.4-2.9 1.2-.8.8-1.2 2.2-1.2 4.3v9.1h-2.6zm24.9 0v-16.6h2.3v2.3c.5-.8 1.1-1.5 1.9-2 .8-.5 1.8-.8 2.8-.7 1 0 2 .2 2.8.8.7.5 1.3 1.3 1.6 2.1.9-1.8 2.8-2.9 4.8-2.9 1.3-.1 2.6.4 3.5 1.4.9 1.2 1.4 2.7 1.2 4.2v11.4h-2.6v-10.5c0-.8-.1-1.6-.3-2.4-.2-.5-.5-.9-.9-1.2-.5-.3-1-.5-1.6-.5-1 0-2 .4-2.7 1.2-.8 1.1-1.2 2.4-1.1 3.7v9.6h-2.6V813c.1-1-.2-2-.6-2.8-.5-.7-1.3-1-2.1-.9-.7 0-1.4.2-2 .6-.6.4-1.1 1.1-1.3 1.8-.3 1.1-.5 2.3-.4 3.5v8.6h-2.7zm24.7 0v-16.6h2.3v2.3c.5-.8 1.1-1.5 1.9-2 .8-.5 1.8-.8 2.8-.7 1 0 2 .2 2.8.8.7.5 1.3 1.3 1.6 2.1.9-1.8 2.8-2.9 4.8-2.9 1.3-.1 2.6.4 3.5 1.4.9 1.2 1.4 2.7 1.2 4.2v11.4h-2.6v-10.5c0-.8-.1-1.6-.3-2.4-.2-.5-.5-.9-.9-1.2-.5-.3-1-.5-1.6-.5-1 0-2 .4-2.7 1.2-.8 1.1-1.2 2.4-1.1 3.7v9.6h-2.6V813c.1-1-.2-2-.6-2.8-.5-.7-1.3-1-2.1-.9-.7 0-1.4.2-2 .6-.6.4-1.1 1.1-1.4 1.8-.3 1.1-.5 2.3-.4 3.5v8.6h-2.6z"/><text transform="matrix(.93 0 0 1 1161.39 191.83)" class="st3 st4 st5">Sensor Position</text><text transform="matrix(.93 0 0 1 779.26 152.86)" class="st3 st4 st5">5.4</text><text transform="matrix(.93 0 0 1 781.67 201.4)" class="st3 st4 st5">4</text><text transform="translate(217.15 202.86)" class="st3 st4 st5" letter-spacing="-4">5</text><text transform="rotate(-90 280.645 220.715)" class="st3 st4 st5">Ø</text><text transform="rotate(-90 268.2 208.27)" class="st7 st4 st5">38</text><text transform="rotate(-90 344.75 201.08)" class="st3 st4 st5">M35.5x0.5</text><text transform="rotate(-90 850.57 -349.21)" class="st3 st4 st5">Ø</text><text transform="rotate(-90 838.125 -361.655)" class="st7 st4 st5">43</text><text transform="rotate(-90 707.77 -193.07)" class="st3 st4 st5">Ø</text><text transform="rotate(-90 695.325 -205.515)" class="st7 st4 st5">22.6</text><path class="st3" d="M1068.3 548.5v2.8h-17.9c.7.8 1.4 1.7 1.9 2.7.6 1 1.1 2 1.5 3h-2.8c-.7-1.5-1.6-2.9-2.7-4.1-.9-1-1.9-1.9-3.1-2.5v-1.8l23.1-.1zm-14.8-12.3l-4.3-.2-3.8-.8V532l3.8.8 4.3 1.7v1.7zm0 4.4l-4.3-.2-3.8-.8v-3.2l3.8.8 4.3 1.6v1.8zm7.9-10.4h-2.8v-8.6h2.8v8.6zm.8-10.9l-.4-2.8c1.3-.2 2.5-.8 3.4-1.7.7-.8 1.1-1.8 1.1-2.8 0-1.3-.5-2.5-1.4-3.4-.9-.9-2.1-1.4-3.4-1.4-1.2 0-2.3.4-3.2 1.3-.8.9-1.3 2-1.3 3.2 0 .7.1 1.3.3 2l-2.5-.3v-.5c0-1.1-.3-2.3-.9-3.2-.6-1-1.7-1.5-2.9-1.4-1 0-1.9.4-2.6 1-.7.7-1 1.7-1 2.7 0 1 .3 2 1 2.7.8.8 1.9 1.3 3.1 1.4l-.5 2.8c-1.7-.2-3.2-1.1-4.4-2.3-1.1-1.3-1.6-2.9-1.6-4.5 0-1.2.3-2.4.8-3.5.5-1 1.3-1.8 2.2-2.4.9-.6 1.9-.8 3-.8 1 0 1.9.3 2.7.8.9.6 1.5 1.4 1.9 2.4.2-1.3.9-2.4 1.9-3.2 1.1-.8 2.4-1.2 3.7-1.1 1.9 0 3.8.8 5.1 2.2 1.4 1.5 2.2 3.5 2.1 5.5.1 1.8-.6 3.6-1.8 5-.9 1.3-2.6 2.1-4.4 2.3zm3.4-32.6h2.7v15.1c-.7 0-1.4-.1-2-.3-1.1-.4-2.1-1.1-3-1.9-1.3-1.1-2.4-2.4-3.5-3.7-1.4-1.9-3.1-3.6-4.8-5-1-.8-2.1-1.2-3.4-1.3-1.1 0-2.1.4-2.8 1.2-1.5 1.9-1.5 4.6.1 6.4.9.9 2.1 1.3 3.4 1.2l-.3 2.9c-1.9-.1-3.6-.9-4.9-2.2-1.2-1.5-1.8-3.3-1.7-5.2-.1-1.9.6-3.8 1.8-5.2 1.2-1.3 2.8-2 4.5-1.9.9 0 1.8.2 2.7.6 1 .5 2 1.1 2.8 1.9 1.4 1.4 2.8 2.8 4 4.3 1.4 1.7 2.4 2.8 2.9 3.3l1.5 1.2v-11.4zm-20.2-28.1v-3h13.2c1.9-.1 3.7.2 5.5.8 1.4.5 2.6 1.5 3.3 2.8.9 1.6 1.4 3.5 1.3 5.4.1 1.8-.3 3.6-1.1 5.3-.7 1.3-1.8 2.4-3.2 2.9-1.8.7-3.8.9-5.7.9h-13.2v-3h13.2c1.5.1 3-.1 4.4-.5.9-.4 1.7-1 2.2-1.9.5-1 .8-2.2.8-3.3 0-2.2-.5-3.8-1.5-4.8-1-.9-3-1.4-5.8-1.4l-13.4-.2zm22.9-8h-22.9v-3.1l18-12h-18v-2.9h22.9v3.1l-18 12h18v2.9zm-6.9-21.7h-2.8v-8.6h2.8v8.6zm4.2-25.8h2.7v15.1c-.7 0-1.4-.1-2-.3-1.1-.4-2.1-1.1-3-1.9-1.3-1.1-2.4-2.3-3.5-3.7-1.4-1.9-3-3.6-4.8-5-1-.8-2.1-1.2-3.4-1.3-1.1 0-2.1.4-2.8 1.2-.8.8-1.2 2-1.1 3.1-.1 1.2.4 2.4 1.2 3.3.9.8 2.1 1.3 3.4 1.2l-.3 2.9c-1.9-.1-3.6-.9-4.9-2.2-1.2-1.5-1.8-3.3-1.7-5.2-.1-1.9.6-3.8 1.8-5.2 1.2-1.3 2.8-2 4.5-1.9.9 0 1.8.2 2.7.6 1 .5 2 1.1 2.8 1.9 1.4 1.4 2.8 2.8 4 4.3 1.4 1.7 2.4 2.8 2.9 3.3l1.5 1.2v-11.4zm2.7-1.6l-22.9-8.8v-3.3l22.9-9.4v3.5l-6.9 2.7v9.6l6.9 2.5v3.2zm-9.4-6.6v-7.8l-6.3 2.4c-1.9.7-3.5 1.3-4.8 1.6 1.5.3 2.9.7 4.4 1.2l6.7 2.6zm54.5 140.7c-2.1 1.6-4.4 3-6.9 3.9-2.6 1.1-5.4 1.6-8.2 1.6-2.4 0-4.8-.4-7.1-1.2-2.8-1-5.5-2.5-7.9-4.3v-2c2.2 1.3 3.7 2.1 4.6 2.5 1.4.6 3 1.1 4.5 1.5 1.9.4 3.9.7 5.9.7 5.3-.1 10.5-1.7 15-4.7l.1 2zm-14.7-21.9l.8-3c2.2.5 4.2 1.7 5.7 3.4 1.3 1.7 2.1 3.9 2 6.1.1 2.1-.4 4.2-1.5 6-1.1 1.6-2.6 2.8-4.4 3.5-1.9.8-4 1.2-6.1 1.2-2.2.1-4.3-.4-6.2-1.4-1.7-.9-3.1-2.2-4-3.9-.9-1.7-1.4-3.6-1.4-5.6-.1-2.1.5-4.1 1.8-5.8 1.2-1.6 3-2.8 4.9-3.3l.7 3c-1.4.4-2.7 1.2-3.6 2.3-.8 1.1-1.2 2.4-1.1 3.8-.1 1.6.4 3.1 1.3 4.4.8 1.2 2 2 3.4 2.5s2.9.7 4.4.7c1.7 0 3.5-.3 5.1-.8 1.4-.5 2.5-1.4 3.3-2.7.7-1.2 1.1-2.5 1.1-3.9 0-1.6-.5-3.1-1.5-4.3-1.4-1.1-3-2-4.7-2.2zm1.1-5.4h-2.8v-8.6h2.8v8.6zm6.9-12h-22.9v-4.6l16.2-5.4c1.5-.5 2.6-.9 3.4-1.1-.8-.3-2.1-.7-3.7-1.2l-15.9-5.5v-4.1h22.9v2.9h-19.2l19.2 6.7v2.7l-19.5 6.6h19.5v3zm-8.3-25.3c-3.1 0-5.3-.9-6.8-2.6-1.2-1.5-1.9-3.3-1.8-5.2-.1-2.1.7-4.1 2.2-5.6 1.7-1.5 3.9-2.3 6.2-2.2 1.7-.1 3.4.3 5 1 1.2.6 2.2 1.6 2.8 2.8.7 1.2 1 2.6 1 4 .1 2.1-.7 4.2-2.2 5.6-1.5 1.5-3.6 2.2-6.4 2.2zm0-2.9c1.7.1 3.4-.4 4.8-1.4 1.9-1.7 2.1-4.6.5-6.5-.1-.2-.3-.3-.5-.5-1.4-1-3.1-1.5-4.9-1.4-1.7-.1-3.3.4-4.7 1.4-1.9 1.7-2.1 4.6-.5 6.5.1.2.3.3.5.5 1.4 1 3.1 1.5 4.8 1.4zm8.3-26.8h-2.4c1.8 1.1 2.9 3.1 2.8 5.3 0 .9-.2 1.9-.6 2.7-.3.7-.8 1.4-1.4 1.9-.6.4-1.3.7-2.1.9-.9.1-1.7.2-2.6.2h-10.3v-2.8h9.2c1 0 2 0 3-.2.7-.2 1.3-.6 1.7-1.1.4-.6.7-1.4.6-2.1 0-.8-.2-1.7-.7-2.4-.4-.7-1-1.3-1.8-1.6-1-.3-2.1-.5-3.2-.5h-8.9v-2.8h16.6l.1 2.5zm0-7h-16.6v-2.5h2.4c-1.8-1.2-2.8-3.2-2.7-5.3 0-.9.2-1.9.5-2.8.3-.7.8-1.4 1.4-1.9.6-.4 1.3-.7 2.1-.9.9-.1 1.8-.2 2.7-.1h10.2v2.8h-10.1c-.9 0-1.7.1-2.6.3-.6.2-1 .6-1.3 1.2-.4.6-.5 1.3-.5 2 0 1.1.4 2.3 1.1 3.1.8.9 2.2 1.3 4.3 1.3h9.1v2.8zm-2.5-23.9l2.5-.4c.2.7.2 1.4.3 2.1 0 .8-.1 1.6-.5 2.4-.3.5-.7.9-1.3 1.2-1.1.3-2.2.4-3.3.3h-9.6v2.1h-2.2V416h-4.1l-1.7-2.8h5.8v-2.8h2.2v2.8h9.7c.5 0 1 0 1.5-.1.2-.1.4-.3.6-.5.2-.3.2-.7.2-1 0-.4-.1-.8-.1-1.2zm9.2-4.6v2c-4.5-2.9-9.7-4.6-15-4.7-2 0-3.9.2-5.8.7-1.5.3-3.1.8-4.5 1.5-.9.4-2.5 1.3-4.7 2.5v-2c2.4-1.8 5.1-3.3 7.9-4.3 5-1.7 10.4-1.6 15.3.4 2.4 1 4.7 2.3 6.8 3.9zm-150.1-36.5h6.7v210.6h-6.7z"/></g><g id="arrows"><path class="st8" d="M69.7 291.3V658"/><path d="M61 297.3l8.7-32.5 8.7 32.5zm0 354.8l8.7 32.5 8.7-32.5z"/><path class="st8" d="M149.8 305.9v338.8"/><path d="M141.1 311.8l8.7-32.5 8.7 32.5zm0 327l8.7 32.5 8.7-32.5z"/><path class="st8" d="M1114.8 363.9v223.5"/><path d="M1106.1 369.8l8.7-32.5 8.8 32.5zm0 211.7l8.7 32.5 8.8-32.5z"/><path class="st8" d="M868.8 376.7v196"/><path d="M860 382.6l8.8-32.5 8.7 32.5zm0 184.2l8.8 32.5 8.7-32.5z"/><path class="st8" d="M223.8 81.7h517.4"/><path d="M229.7 90.4l-32.5-8.7 32.5-8.7zm505.5 0l32.6-8.7-32.6-8.7z"/><path class="st8" d="M675.4 145.1h65.7"/><path d="M735.1 153.8l32.6-8.7-32.6-8.8z"/><path class="st8" d="M675.4 194.1h65.7"/><path d="M735.1 202.8l32.6-8.7-32.6-8.7z"/><path class="st8" d="M102.9 193.2h65.7"/><path d="M162.7 201.9l32.5-8.7-32.5-8.7z"/><path class="st8" d="M344.6 193.2h-65.7"/><path d="M284.9 184.5l-32.6 8.7 32.6 8.7z"/><path class="st8" d="M905.6 193.2h-65.7"/><path d="M845.9 184.5l-32.6 8.7 32.6 8.7z"/><path class="st8" d="M794.3 81.7h140.6"/><path d="M800.3 90.4l-32.5-8.7 32.5-8.7zm128.7 0l32.5-8.7L929 73z"/><path class="st8" d="M857.5 145.1h79.3"/><path d="M863.4 153.8l-32.5-8.7 32.5-8.8zm67.5 0l32.5-8.7-32.5-8.8z"/><path class="st8" d="M1168.5 262.2v424.4"/><path d="M1159.8 268.2l8.7-32.5 8.7 32.5zm0 412.5l8.7 32.5 8.7-32.5z"/><path class="st8" d="M980.1 452.9l161-261.1h11"/><path d="M990.6 452.4l-24.5 23.1 9.7-32.3z"/></g><g id="lines"><path class="st9" d="M171.5 474.1h-17.9"/><path d="M197.2 263.8H59.9m137.3 420.9H59.9" stroke-width="1.49" fill="none" stroke="#000" stroke-linecap="round" stroke-linejoin="round"/><path class="st9" d="M252.4 263.8v-81.9m515.2 113.5V76.7m0 218.7V76.7m194.1 397.4V76.7M827.3 351.4V133"/><path d="M757.8 712.1h418.8M757.8 236h418.8" stroke-width="1.5" fill="none" stroke="#000" stroke-linecap="round" stroke-linejoin="round"/><path class="st9" d="M825.2 348.9H885m-59.8 250.4H885"/><path d="M805.2 614.7h320.5M805.2 333.4h320.5" stroke-width="2.02" fill="none" stroke="#000" stroke-linecap="round" stroke-linejoin="round"/><path class="st9" d="M811.9 348.9v-167"/><path d="M195.1 277.5h-64.3m66.4 393.1h-66.4" stroke-width="1.53" fill="none" stroke="#000" stroke-linecap="round" stroke-linejoin="round"/><path class="st9" d="M961.7 474.1V133"/><path class="st8" d="M667.7 474.1h-15.8m-3.9 0h-.7m-4.2 0h-32m-3.9 0h-.7m-3.8 0h-32m-3.9 0h-.7m-4.2 0h-32m-3.9 0h-.7m-3.9 0h-32m-3.9 0h-.6m-4.3 0h-32m-3.8 0h-.7m-3.9 0H424m412.8 0h-16.5m-4.2 0h-.7m-4.2 0h-33.1m-4.2 0h-.7m-4.2 0h-33.1m-4.2 0h-.7m-4.2 0h-33.4m-4.2 0h-.8m-3.8 0h-16.9m-243.7 0h-17.6m-4.5 0h-.7m-4.3 0h-35.5m-4.5 0h-.8m-4.5 0h-35.2m-4.5 0h-.8m-4.5 0h-35.5m-4.3 0h-.7m-4.5 0h-35.5m-4.6 0h-.7m-4.2 0H181m-4.5 0h-.7"/><path class="st9" d="M197.2 263.8V76.7"/></g></g></svg>