<svg version="1.1" id="Ebene_1" xmlns="http://www.w3.org/2000/svg" x="0" y="0" viewBox="0 0 96.5 86.1" style="background-color:#fff" xml:space="preserve"><style>.st0{fill:none;stroke-width:1.08;stroke-linecap:round;stroke-linejoin:round;stroke:#000;stroke-miterlimit:10}.st4{font-family:Helvetica,Arial,sans-serif}.st5{font-size:14px}.st6{fill:none}</style><path class="st0" d="M50.6 37.9c0 1.1.9 1.9 2.1 1.9m-8.2-7.4v5.7m13.8 1.8h-5.8m-7.8-7.2c1.5-1.8 1.5-4.3 0-6.1M58.4 40c1.9 1.4 4.6 1.4 6.5 0m-25.1 6.4V49m4.7-22.8v.6m20.8 13.1h-.6m-24.9 6.6c0-.6-.5-1-1.1-1m5.8-19.1c0-.7-.4-1.4-1-1.8-.6-.4-1.4-.5-2.1-.3m23.8 15.8c.8 0 1.5-.3 1.9-.9.5-.6.6-1.3.4-2m-14.8 8.3c-1.1 0-2.1.9-2.1 1.9m-14-1.9h2.2m11.8 7.4v-5.6m-13.8-1.9c-1.9-1.4-4.6-1.4-6.5 0m20.2 7.3c-1.5 1.8-1.5 4.3 0 6.1M29.8 45.5h.4m20.4 13.6v-.3M29.7 45.5c-.8 0-1.5.3-1.9.9-.5.6-.6 1.3-.4 2m22.9 10.9c0 .7.4 1.4 1 1.8.6.4 1.4.5 2.1.3m0-37.2c-.7-.2-1.5-.1-2.1.3-.6.4-1 1.1-1 1.8M30.2 40c1.9 1.4 4.6 1.4 6.5 0m.5-10.4c0 1.7 1.5 3.1 3.4 3.1s3.4-1.4 3.4-3.1c0-1.7-1.5-3.1-3.4-3.1s-3.4 1.4-3.4 3.1m14.1 0c0 1.7 1.5 3.1 3.4 3.1s3.4-1.4 3.4-3.1c0-1.7-1.5-3.1-3.4-3.1s-3.4 1.4-3.4 3.1m7 6.5c0 1.7 1.5 3.1 3.4 3.1s3.4-1.4 3.4-3.1c0-1.7-1.5-3.1-3.4-3.1s-3.4 1.4-3.4 3.1m0 13.1c0 1.7 1.5 3.1 3.4 3.1s3.4-1.4 3.4-3.1c0-1.7-1.5-3.1-3.4-3.1s-3.4 1.4-3.4 3.1m-7 6.5c0 1.7 1.5 3.1 3.4 3.1s3.4-1.4 3.4-3.1c0-1.7-1.5-3.1-3.4-3.1s-3.4 1.4-3.4 3.1m-14.1 0c0-1.7 1.5-3.1 3.4-3.1S44 54 44 55.7c0 1.7-1.5 3.1-3.4 3.1s-1.9-4.1-3.4-3.1m-7-6.5c0 1.7 1.5 3.1 3.4 3.1s3.4-1.4 3.4-3.1c0-1.7-1.5-3.1-3.4-3.1s-3.4 1.4-3.4 3.1m0-13.1c0 1.7 1.5 3.1 3.4 3.1s3.4-1.4 3.4-3.1c0-1.7-1.5-3.1-3.4-3.1s-3.4 1.4-3.4 3.1m37.1 1.1c-2-6.2-7.2-11-13.9-12.9m-2.8 2.5v-.6m-.1.4c-1.5 1.8-1.5 4.3 0 6.1m.1 5.4v-5.7M53.5 61c6.7-1.8 11.9-6.7 13.9-12.9"/><path class="st0" d="M67.5 48.3c.2-.7.1-1.4-.4-2-.5-.6-1.2-.9-1.9-.9m-.5.1h.6m-.4-.1c-1.9-1.4-4.6-1.4-6.5 0m-5.9.1h5.8m-30.5 2.6c2 6.2 7.2 11 13.9 12.9m-.2.4c.7.2 1.5.1 2.1-.3.6-.4 1-1.1 1-1.8m-.1-.5v.3m.2-.3c1.5-1.8 1.5-4.3 0-6.1m-.2-1.9v2.1m0-1.9c0-.6-.5-1-1.1-1m-2.7-.1h2.9m-3.8-1c0 .6.5 1 1.1 1m.8-25.6C35 26.2 29.8 31 27.8 37.2m-.4.1c-.2.7-.1 1.4.4 2 .5.6 1.2.9 1.9.9m.5-.3h-.4m12.8 0h-6m5.9 0c1.1 0 2.1-.9 2.1-1.9m22.7 10.1c1.1-3.6 1.1-7.4 0-10.9M41.7 61c3.8 1.1 7.9 1.1 11.8 0M27.8 37.2c-1.1 3.6-1.1 7.4 0 10.9m25.7-23.8c-3.8-1.1-7.9-1.1-11.8 0m5.7 2.5v13.3m17.3 2.7H50.3m-2.9 15.7V45.2m-16.9-2.4h14.4"/><path class="st0" d="M44.9 32.4v11H30.5v.9h2.9m3.2.9c-.9-.6-1.9-.9-3-.9m3 .9h11.8v13.3h.9v-2.6m1-3c-.6.8-1 1.8-1 2.8m1-2.8v-11h14.4V41h-3.2m-2.9-.9c.9.6 1.9.9 3 .9m-3-.9H46.8V26.8h-1v3m-.9 2.6c.6-.8 1-1.8 1-2.8M30.5 43.4v-.6m17.9 15.7h-1m17.3-16.6v.9m-17.9-16h.6"/><path class="st0" d="M80 42.7c0-16.6-14.5-30.1-32.4-30.1S15.2 26.1 15.2 42.7s14.5 30.1 32.4 30.1S80 59.3 80 42.7"/><path class="st0" d="M17.1 42.7C17.1 58.3 30.7 71 47.6 71s30.5-12.7 30.5-28.3c0-15.6-13.7-28.3-30.5-28.3-16.9-.1-30.5 12.6-30.5 28.3"/><path class="st0" d="M19.9 42.7c0 14.2 12.4 25.6 27.6 25.7 15.3 0 27.6-11.5 27.7-25.6C75.2 28.5 62.9 17 47.6 17S19.9 28.5 19.9 42.7"/><path class="st0" d="M75.9 42.7c0-14.5-12.7-26.2-28.3-26.2-15.6 0-28.3 11.7-28.3 26.2S32 68.9 47.6 68.9c15.6 0 28.3-11.7 28.3-26.2"/><path class="st0" d="M26.6 42.7c0 10.7 9.4 19.4 20.9 19.4 11.6 0 20.9-8.7 20.9-19.4S59 23.3 47.5 23.3c-11.5-.1-20.8 8.6-20.9 19.4"/><path transform="rotate(-180 45.185 47.447)" d="M43.6 45.8h3.2V49h-3.2z" stroke="#000" stroke-miterlimit="10"/><path d="M55.3 29.1l22.6-17.5M62.2 35.7l22.6-17.6M10.2 67.7l22.6-17.6M18.2 74.7l22.6-17.6m-.5-27.7L17.7 11.9M33.4 36L10.7 18.4m74.6 49L62.7 49.9M78.4 74L55.7 56.4" fill="none" stroke-width=".5" stroke-linecap="round" stroke-linejoin="round" stroke="#000" stroke-miterlimit="10"/><text transform="translate(9.766 85.485)" class="st4 st5">1</text><path class="st6" d="M1 66.4h8.7v15.1H1z"/><text transform="translate(.968 76.423)" class="st4 st5">2</text><path class="st6" d="M1.1 11h9.2v11.3H1.1z"/><text transform="translate(1.064 21.009)" class="st4 st5">3</text><path class="st6" d="M9.8 1.5h14.6v18H9.8z"/><text transform="translate(9.766 11.54)" class="st4 st5">4</text><path class="st6" d="M78.5 1.1h16.2v13.1H78.5z"/><text transform="translate(78.468 11.125)" class="st4 st5">5</text><path class="st6" d="M86.9 11.1h12.3v14.3H86.9z"/><text transform="translate(86.947 21.104)" class="st4 st5">6</text><path class="st6" d="M86.7 66.2h15V83h-15z"/><text transform="translate(86.745 76.215)" class="st4 st5">7</text><path class="st6" d="M79.2 74.5h15.4v16.8H79.2z"/><text transform="translate(79.153 84.572)" class="st4 st5">8</text></svg>