<svg style="background-color:#fff" version="1.1" id="Layer_1" xmlns="http://www.w3.org/2000/svg" x="0" y="0" viewBox="0 0 581.1 411" xml:space="preserve"><style>.st0{fill:#f6f6f6}.st1{fill:none;stroke:#000;stroke-width:.425}.st4{stroke-linecap:round;stroke-linejoin:round}.st12,.st13,.st4,.st5,.st7{fill:none;stroke:#000;stroke-width:.283}.st12,.st13,.st7{stroke-miterlimit:10}.st12{stroke-dasharray:.4588,1.8352}.st13{stroke-linecap:round;stroke-linejoin:round}.st14{fill:#040406}.st15{font-family:Helvetica,Arial,sans-serif}.st16{font-size:15px}.st17{font-size:16px}.st18{fill:#1a1a18}.st20,.st21{fill:none;stroke:#1a1a18}.st23{fill:none}.st20{stroke-miterlimit:10;stroke-width:.85}.st21,.st23{stroke-width:.4252;stroke-linecap:round;stroke-linejoin:round}.st23{stroke:#000;stroke-width:.2835}.st24{fill:#040306}</style><path class="st0" d="M283.7 71.9h1c.4 0 3.8-3.9 3.8-4.2V60c0-.4-3.5-4.2-3.8-4.2h-1v-4H41v4h-1c-.4 0-3.8 3.9-3.8 4.2v7.6c0 .4 3.5 4.2 3.8 4.2h1v129.8h-1c-.4 0-3.8 3.9-3.8 4.2v7.6c0 .4 3.5 4.2 3.8 4.2h1v4h242.7v-4h1c.4 0 3.8-3.9 3.8-4.2v-7.6c0-.4-3.5-4.2-3.8-4.2h-1V71.9z"/><path class="st1" d="M166 102.7c0 2-1.6 3.6-3.6 3.6s-3.6-1.6-3.6-3.6 1.6-3.6 3.6-3.6 3.6 1.6 3.6 3.6z"/><path d="M283.7 71.9h1c.4 0 3.8-3.9 3.8-4.2V60c0-.4-3.5-4.2-3.8-4.2h-1v-4H41v4h-1c-.4 0-3.8 3.9-3.8 4.2v7.6c0 .4 3.5 4.2 3.8 4.2h1v129.8h-1c-.4 0-3.8 3.9-3.8 4.2v7.6c0 .4 3.5 4.2 3.8 4.2h1v4h242.7v-4h1c.4 0 3.8-3.9 3.8-4.2v-7.6c0-.4-3.5-4.2-3.8-4.2h-1V71.9z" fill="none" stroke="#000" stroke-width=".85" stroke-linecap="round" stroke-linejoin="round"/><circle class="st1" cx="162.4" cy="170.8" r="3.6"/><path d="M43.9 221.7V51.6m237 170.1V51.6m-237 3h237m-4.3 8.5c0-2.2 1.4-5 4.2-5h.1-237c2.8 0 4.2 2.8 4.2 5M41 71.9V55.8m242.7 16.1V55.8M43.9 218.9h237m-237-59.5h237m-237 22.7h237m-237-90.8h237M43.9 114h237m-4.3 96.4c0 2.2 1.4 5 4.2 5h.1-237c2.8 0 4.2-2.8 4.2-5m-7.1-8.8v16.2m242.7-16.2v16.2" fill="none" stroke="#000" stroke-width=".425" stroke-linecap="round" stroke-linejoin="round"/><path class="st0" d="M283.8 381.6v-80.8c0-2.1-1.1-4-2.9-5l.1-3.2h-5v-7.7h-6.4s-4.8-4.9-5.7-5.8c-.6-.6-1.5-.6-1.5-.6h-6.8v-3.7h-4.7c-2.9 0-3.2 2.5-3.5 3.7-1.1 0-1.9 1.1-1.9 1.1l-3.7 6.6v6.5H86.4v-6.5l-3.7-6.6s-.7-1.1-1.9-1.1c-.3-1.2-.6-3.7-3.5-3.7h-4.7v3.7h-6.8s-.9 0-1.5.6c-.9.9-11.4 11.3-11.4 11.3s-1.1 1.2-1.2 2.1v.2H44v3.2c-1.7 1-2.9 2.9-2.9 5.1v80.8h-1l-3.4 3.4-.4.9v7.5l.4.9 3.4 3.4h1v2.8h242.7v-2.8h1l3.4-3.4.4-.9v-7.5l-.4-.9-3.4-3.4h-1v-.2z"/><path class="st4" d="M256 292.5v-7.7h20v7.5m-28.6-14.1h8.2m-177.5 5.6c-.9.9-3.5 3.3-3.5 3.3m-8.7-8.9l8.8 8.8m-2.1-8.8l5.5 5.5m2.7-5.5h-8.1"/><circle class="st4" cx="57" cy="290.9" r="1.6"/><circle class="st4" cx="82.1" cy="287.1" r="1.6"/><circle class="st4" cx="270.9" cy="290.9" r="1.6"/><path class="st4" d="M247.4 287.1c0 .9-.7 1.6-1.6 1.6-.9 0-1.6-.7-1.6-1.6s.7-1.6 1.6-1.6c.9 0 1.6.7 1.6 1.6z"/><path class="st5" d="M241.9 292.5H276m-189.6 0H51.8m-10.7 89.1v16.3M44 295.7v105m239.8-19.1v16.3m-2.9-102.2v105M44 295.7h236.9"/><path d="M283.8 381.6v-80.8c0-2.1-1.1-4-2.9-5l.1-3.2h-5v-7.7h-6.4 0s-4.8-4.9-5.7-5.8c-.6-.6-1.5-.6-1.5-.6h-6.8v-3.7h-4.7c-2.9 0-3.2 2.5-3.5 3.7-1.1 0-1.9 1.1-1.9 1.1l-3.7 6.6v6.5H86.4v-6.5l-3.7-6.6s-.7-1.1-1.9-1.1c-.3-1.2-.6-3.7-3.5-3.7h-4.7v3.7h-6.8s-.9 0-1.5.6c-.9.9-11.4 11.3-11.4 11.3s-1.1 1.2-1.2 2.1v.2H44v3.2c-1.7 1-2.9 2.9-2.9 5.1v80.8h-1l-3.4 3.4-.4.9v7.5l.4.9 3.4 3.4h1v2.8h242.7v-2.8h1l3.4-3.4.4-.9v-7.5l-.4-.9-3.4-3.4h-1v-.2h0z" fill="none" stroke="#000" stroke-width=".85"/><path class="st5" d="M44.3 305.2h236.6M44.3 317.4h236.6M44.3 340.3h236.6m-236.6 15h236.6M44.3 378.8h236.6"/><path class="st7" d="M162.4 225.3v-7"/><path d="M162.4 213.2v-3.8" fill="none" stroke="#000" stroke-width=".283" stroke-miterlimit="10" stroke-dasharray="1.2609,5.0436"/><path d="M162.4 206.9v-93.3" fill="none" stroke="#000" stroke-width=".283" stroke-miterlimit="10" stroke-dasharray="12.609,5.0436,1.2609,5.0436"/><path class="st7" d="M162.4 111.1V104m126.2 32.7h-7.1"/><path d="M275.7 136.7h-4.3" fill="none" stroke="#000" stroke-width=".283" stroke-miterlimit="10" stroke-dasharray="1.4495,5.7979"/><path d="M268.5 136.7H51" fill="none" stroke="#000" stroke-width=".283" stroke-miterlimit="10" stroke-dasharray="14.4949,5.7979,1.4495,5.7979"/><path class="st7" d="M48.1 136.7h-7m131 34.1h-7"/><path class="st12" d="M163.2 170.8h-1.3"/><path class="st7" d="M160.9 170.8h-7.1m16.5-68.1h-7.1"/><path class="st12" d="M161.4 102.7H160"/><path class="st7" d="M159.1 102.7H152"/><path class="st4" d="M152.5 29.9H51.4"/><path d="M150.3 26.6l12.2 3.3-12.2 3.3v-6.6zm-96.7 0l-12.3 3.3 12.3 3.3v-6.6z"/><path class="st13" d="M41.3 26.8v27.1m121.2-27.1v72.3"/><path class="st4" d="M314.9 59.7v152.4"/><path d="M312 61.7l2.9-10.8 2.9 10.8H312zm0 148.5l2.9 10.7 2.9-10.7H312z"/><path class="st13" d="M317.4 51h-34.1m34.1 170h-34.1"/><path class="st4" d="M22.5 200.6v-19.7"/><path d="M25.8 183.1l-3.3-12.3-3.3 12.3h6.6z"/><path class="st4" d="M22.5 73v19.8"/><path d="M19.2 90.5l3.3 12.3 3.3-12.3h-6.6z"/><path class="st13" d="M20 170.8h142.3M20 102.8h142.3"/><path class="st4" d="M51.2 251h222.4"/><path d="M53.4 254.3L41.1 251l12.3-3.3v6.6zm218 0l12.3-3.3-12.3-3.3v6.6z"/><path class="st13" d="M41.2 221.5v33.4m242.6-33.4v33.4M41.1 136.8H20m2.5 34v-68"/><path class="st7" d="M169.8 95.6l62.9-65.7h164"/><path d="M173.7 96.2l-10.9 6.6 6.2-11.1 4.7 4.5z"/><path class="st14" d="M22.5 135.4c.9 0 1.6.7 1.6 1.6 0 .9-.7 1.6-1.6 1.6s-1.6-.7-1.6-1.6c0-.9.7-1.6 1.6-1.6z"/><text transform="translate(87.842 20.316)" class="st14 st15 st16">42.5</text><text transform="rotate(-90 227.107 -82.762)" class="st14 st15 st16">60</text><text transform="rotate(-90 90.675 73.53)" class="st14 st15 st16">12</text><text transform="rotate(-90 72.016 54.87)" class="st14 st15 st16">12</text><text transform="translate(154.19 244.977)" class="st14 st15 st16">85</text><text transform="translate(292.29 20.316)" class="st14 st15 st17">2 x M3</text><text transform="translate(437.86 378.821)" class="st18 st15 st16">Not to scale</text><text transform="translate(437.86 396.821)" class="st18 st15 st16">Dimensions in mm</text><path d="M533.5 119.2v-16h-1.9v-9h-7.9v9h-2.4v-9h-7.9v9H511v-9h-7.9v9h-2.4v-9H493v9h-2.4v-9h-7.9v9h-2.4v-9h-7.9v9H470v-9h-7.9v9h-2.4v-9H452v9h-2.4v-9h-7.9v9h-2.4v-9h-7.9v9H429v-9h-7.9v9h-2.4v-9h-7.9v9H404v16.1h-13.9v5.5h-.6v-6.5c0-.3-.3-.6-.7-.6h-2.4c-.4 0-.7.3-.7.6v9.2c0 .3-.1.5-.3.6l-2 1c-.2.1-.4.4-.4.7v11.6c0 .2.1.4.3.6l2.1 1.1c.2.1.4.4.4.6 0 .3-.1.5-.3.6l-2 1c-.2.1-.4.4-.4.7 0 .2.1.4.3.6l2.1 1c.2.1.4.4.4.6 0 .3-.1.5-.3.6l-2 1c-.2.1-.4.4-.4.7 0 .2.1.4.3.6l2.1 1.1c.2.1.4.4.4.6 0 .3-.1.5-.3.6l-2 1c-.2.1-.4.4-.4.7 0 .2.1.4.3.6l2.1 1.1c.2.1.4.4.4.6 0 .3-.1.5-.3.6l-2 1c-.2.1-.4.4-.4.7 0 .2.1.4.3.6l2.1 1.1c.2.1.4.4.4.6 0 .3-.1.5-.3.6l-2 1c-.2.1-.4.4-.4.7v13.5c0 .2.1.4.3.6l2.1 1.1c.2.1.4.4.4.6 0 .3-.1.5-.3.6l-2 1c-.2.1-.4.4-.4.7 0 .2.1.4.3.6l2.1 1c.2.1.4.4.4.6 0 .3-.1.5-.3.6l-2 1c-.2.1-.4.4-.4.7 0 .2.1.4.3.6l2.1 1.1c.2.1.4.4.4.6 0 .3-.1.5-.3.6l-2 1c-.2.1-.4.4-.4.7 0 .2.1.4.3.6l2.1 1.1c.2.1.4.4.4.6 0 .3-.1.5-.3.6l-2 1c-.2.1-.4.4-.4.7 0 .2.1.4.3.6l2.1 1.1c.2.1.4.4.4.6 0 .3-.1.5-.3.6l-2 1c-.2.1-.4.4-.4.7 0 .2.1.4.3.6l2.1 1c.2.1.4.4.4.6V218c0 1.7 1.4 3 3.1 3h158.2c1.7 0 3.1-1.4 3.1-3v-15.1c0-.3.1-.5.4-.6l2.1-1c.2-.1.3-.3.3-.6s-.2-.5-.4-.7l-2-1c-.2-.1-.3-.3-.3-.6s.1-.5.4-.6l2.1-1.1c.2-.1.3-.3.3-.6s-.2-.5-.4-.7l-2-1c-.2-.1-.3-.3-.3-.6s.1-.5.4-.6l2.1-1.1c.2-.1.3-.3.3-.6s-.2-.5-.4-.7l-2-1c-.2-.1-.3-.3-.3-.6s.1-.5.4-.6l2.1-1.1c.2-.1.3-.3.3-.6s-.2-.5-.4-.7l-2-1c-.2-.1-.3-.3-.3-.6s.1-.5.4-.6l2.1-1c.2-.1.3-.3.3-.6s-.2-.5-.4-.7l-2-1c-.2-.1-.3-.3-.3-.6s.1-.5.4-.6l2.1-1.1c.2-.1.3-.3.3-.6v-13.5c0-.3-.2-.5-.4-.7l-2-1c-.2-.1-.3-.3-.3-.6s.1-.5.4-.6l2.1-1.1c.2-.1.3-.3.3-.6s-.2-.5-.4-.7l-2-1c-.2-.1-.3-.3-.3-.6s.1-.5.4-.6l2.1-1.1c.2-.1.3-.3.3-.6s-.2-.5-.4-.7l-2-1c-.2-.1-.3-.3-.3-.6s.1-.5.4-.6l2.1-1.1c.2-.1.3-.3.3-.6s-.2-.5-.4-.7l-2-1c-.2-.1-.3-.3-.3-.6s.1-.5.4-.6l2.1-1c.2-.1.3-.3.3-.6s-.2-.5-.4-.7l-2-1c-.2-.1-.3-.3-.3-.6s.1-.5.4-.6l2.1-1.1c.2-.1.3-.3.3-.6v-11.6c0-.3-.2-.5-.4-.7l-2-1c-.2-.1-.4-.4-.4-.6v-9.2c0-.3-.3-.6-.7-.6h-2.4c-.4 0-.7.3-.7.6v6.5h-.6v-5.5l-14.3-.1z" fill="#f5f5f5"/><path class="st20" d="M533.5 119.2v-16h-1.9v-9h-7.9v9h-2.4v-9h-7.9v9H511v-9h-7.9v9h-2.4v-9H493v9h-2.4v-9h-7.9v9h-2.4v-9h-7.9v9H470v-9h-7.9v9h-2.4v-9H452v9h-2.4v-9h-7.9v9h-2.4v-9h-7.9v9H429v-9h-7.9v9h-2.4v-9h-7.9v9H404v16.1h-13.9v5.5h-.6v-6.5c0-.3-.3-.6-.7-.6h-2.4c-.4 0-.7.3-.7.6v9.2c0 .3-.1.5-.3.6l-2 1c-.2.1-.4.4-.4.7v11.6c0 .2.1.4.3.6l2.1 1.1c.2.1.4.4.4.6 0 .3-.1.5-.3.6l-2 1c-.2.1-.4.4-.4.7 0 .2.1.4.3.6l2.1 1c.2.1.4.4.4.6 0 .3-.1.5-.3.6l-2 1c-.2.1-.4.4-.4.7 0 .2.1.4.3.6l2.1 1.1c.2.1.4.4.4.6 0 .3-.1.5-.3.6l-2 1c-.2.1-.4.4-.4.7 0 .2.1.4.3.6l2.1 1.1c.2.1.4.4.4.6 0 .3-.1.5-.3.6l-2 1c-.2.1-.4.4-.4.7 0 .2.1.4.3.6l2.1 1.1c.2.1.4.4.4.6 0 .3-.1.5-.3.6l-2 1c-.2.1-.4.4-.4.7v13.5c0 .2.1.4.3.6l2.1 1.1c.2.1.4.4.4.6 0 .3-.1.5-.3.6l-2 1c-.2.1-.4.4-.4.7 0 .2.1.4.3.6l2.1 1c.2.1.4.4.4.6 0 .3-.1.5-.3.6l-2 1c-.2.1-.4.4-.4.7 0 .2.1.4.3.6l2.1 1.1c.2.1.4.4.4.6 0 .3-.1.5-.3.6l-2 1c-.2.1-.4.4-.4.7 0 .2.1.4.3.6l2.1 1.1c.2.1.4.4.4.6 0 .3-.1.5-.3.6l-2 1c-.2.1-.4.4-.4.7 0 .2.1.4.3.6l2.1 1.1c.2.1.4.4.4.6 0 .3-.1.5-.3.6l-2 1c-.2.1-.4.4-.4.7 0 .2.1.4.3.6l2.1 1c.2.1.4.4.4.6V218c0 1.7 1.4 3 3.1 3h158.2c1.7 0 3.1-1.4 3.1-3v-15.1c0-.3.1-.5.4-.6l2.1-1c.2-.1.3-.3.3-.6s-.2-.5-.4-.7l-2-1c-.2-.1-.3-.3-.3-.6s.1-.5.4-.6l2.1-1.1c.2-.1.3-.3.3-.6s-.2-.5-.4-.7l-2-1c-.2-.1-.3-.3-.3-.6s.1-.5.4-.6l2.1-1.1c.2-.1.3-.3.3-.6s-.2-.5-.4-.7l-2-1c-.2-.1-.3-.3-.3-.6s.1-.5.4-.6l2.1-1.1c.2-.1.3-.3.3-.6s-.2-.5-.4-.7l-2-1c-.2-.1-.3-.3-.3-.6s.1-.5.4-.6l2.1-1c.2-.1.3-.3.3-.6s-.2-.5-.4-.7l-2-1c-.2-.1-.3-.3-.3-.6s.1-.5.4-.6l2.1-1.1c.2-.1.3-.3.3-.6v-13.5c0-.3-.2-.5-.4-.7l-2-1c-.2-.1-.3-.3-.3-.6s.1-.5.4-.6l2.1-1.1c.2-.1.3-.3.3-.6s-.2-.5-.4-.7l-2-1c-.2-.1-.3-.3-.3-.6s.1-.5.4-.6l2.1-1.1c.2-.1.3-.3.3-.6s-.2-.5-.4-.7l-2-1c-.2-.1-.3-.3-.3-.6s.1-.5.4-.6l2.1-1.1c.2-.1.3-.3.3-.6s-.2-.5-.4-.7l-2-1c-.2-.1-.3-.3-.3-.6s.1-.5.4-.6l2.1-1c.2-.1.3-.3.3-.6s-.2-.5-.4-.7l-2-1c-.2-.1-.3-.3-.3-.6s.1-.5.4-.6l2.1-1.1c.2-.1.3-.3.3-.6v-11.6c0-.3-.2-.5-.4-.7l-2-1c-.2-.1-.4-.4-.4-.6v-9.2c0-.3-.3-.6-.7-.6h-2.4c-.4 0-.7.3-.7.6v6.5h-.6v-5.5l-14.3-.1z"/><ellipse class="st21" cx="395.2" cy="210" rx="8.1" ry="7.8"/><ellipse class="st21" cx="541.3" cy="210" rx="8.1" ry="7.8"/><path class="st21" d="M418.8 111.2c0 2.2-7.9 2.5-7.9 0v-8.1h7.9v8.1zm10.3 0c0 2.2-7.9 2.5-7.9 0v-8.1h7.9v8.1zm10.2 0c0 2.2-7.9 2.5-7.9 0v-8.1h7.9v8.1zm10.3 0c0 2.2-7.9 2.5-7.9 0v-8.1h7.9v8.1zm10.2 0c0 2.2-7.9 2.5-7.9 0v-8.1h7.9v8.1zm10.3 0c0 2.2-7.9 2.5-7.9 0v-8.1h7.9v8.1zM386 127.4v74.8m0-74.8c0-1.6 1.3-2.7 3-2.7h.7m160.8 2.7v74.8m0-74.8c0-1.6-1.3-2.7-3-2.7h-.7m-142.6-5.5h129.3m-143.2 5.5h155.9M420 103.2v14.5m10.2-14.5v14.5m-20.5-14.5v14.5m30.8-14.5v14.5m10.3-14.5v14.5m10.2-14.5v14.5m10.3-14.5v14.5m-67.1 0h129.3"/><ellipse class="st21" cx="401.6" cy="177.3" rx="8.1" ry="7.8"/><path class="st21" d="M400.6 175.4l.8-3.2h.5l.8 3.2.8.8 3.2.8v.6l-3.2.7-.8.8-.8 3.3h-.5l-.8-3.3-.8-.8-3.3-.7v-.6l3.3-.8.8-.8zm141.7 32.8l-.7-3.3h-.6l-.8 3.3-.8.8-3.2.8v.5l3.2.8.8.7.8 3.3h.6l.7-3.3.9-.7 3.2-.8v-.5l-3.2-.8-.9-.8zm-146 0l-.8-3.3h-.6l-.7 3.3-.8.8-3.3.8v.5l3.3.8.8.7.7 3.3h.6l.8-3.3.8-.7 3.2-.8v-.5l-3.2-.8-.8-.8z"/><path class="st20" d="M531.6 103.2h-59.1"/><path d="M531.6 103.2v8.5h-59.1v-8.5" fill="none" stroke="#1a1a18" stroke-width=".425" stroke-miterlimit="10"/><path class="st23" d="M359 209.8v-82.7"/><path d="M362.3 207.6l-3.3 12.3-3.3-12.3h6.6zm0-78.2l-3.3-12.3-3.3 12.3h6.6z"/><path class="st23" d="M359 83.9v-29"/><path d="M362.3 81.7L359 93.9l-3.3-12.2h6.6z"/><path class="st13" d="M359 117.1V93.9m-3.2 0h65.3m-65.3 23.2h47m-47 102.9H406"/><text transform="rotate(-90 264.915 -80.865)" class="st24 st15 st17">37.5</text><text transform="rotate(-90 228.014 -117.766)" class="st24 st15 st17">7</text></svg>