<svg version="1.1" id="Ebene_1" xmlns="http://www.w3.org/2000/svg" x="0" y="0" viewBox="0 0 424 115" style="background-color:#fff" xml:space="preserve"><style>.st0{font-family:Helvetica,Arial,sans-serif}.st1{font-size:10px}.st2{fill:none;stroke:#000;stroke-width:.7;stroke-miterlimit:10}</style><text transform="translate(369.058 16.579)" class="st0 st1">Micro BNC</text><text transform="translate(369.058 28.579)" class="st0 st1">(HD-BNC)</text><text transform="translate(7.132 16.579)" class="st0 st1">Micro BNC</text><text transform="translate(7.132 28.579)" class="st0 st1">(HD-BNC)</text><path d="M14.9 104.2l-6.4-1.8 6.4-1.8zm382.2 0l6.4-1.8-6.4-1.8z"/><text transform="translate(159.157 98.819)" class="st0 st1">3000, 5000, 10000</text><path class="st2" d="M46 41.8h67.4v16H46zm67.4 3.5h60.8m-60.8 8.8h59.3m4.8-4.4l.9-5.4c.9-5.4 2.7-6.8 4.1-8.6m-9.9 28c1.3-1.8 3.2-3.2 4-8.6s.9-5.4.9-5.4m-4 0l.9-5.4c.9-5.4 2.7-6.8 4-8.6m-9.8 28c1.3-1.8 3.1-3.2 4-8.6l.9-5.4m4.8-4.4h119.9m-121.3 8.8h121.3m.4-12.3H366v16h-67.4v-16zm-256.3-.4H46v16.7h-3.7V41.4zm-18.4 1.4h18.4v13.9H23.9V42.8zm-10.5.3h10.4v13.3H13.4V43.1z"/><path class="st2" d="M8.4 41.7h5.1v16.1H8.4zm357.6-.3h3.7v16.7H366zm3.7 1.4h18.4v13.9h-18.4zm18.4.3h10.4v13.3h-10.4zm10.4-1.4h5.1v16.1h-5.1z"/><path d="M8.4 57.8v47.4m2.6-2.8h390m2.6-44.6v47.4" stroke-width=".3" fill="none" stroke="#000" stroke-miterlimit="10"/></svg>