<svg style="background-color:#fff" version="1.1" id="Ebene_1" xmlns="http://www.w3.org/2000/svg" x="0" y="0" viewBox="0 0 595.3 272.1" xml:space="preserve"><style>.st0,.st1{fill:none;stroke:#000}.st0{stroke-linecap:round;stroke-linejoin:round;stroke-miterlimit:10;stroke-width:.4252}.st1{stroke-width:.2835}.st1,.st8{stroke-miterlimit:10}.st8,.st9{fill:none;stroke:#000;stroke-width:.2835;stroke-linecap:round;stroke-linejoin:round}.st11{fill:#020203}.st12{font-family:Helvetica,Arial,sans-serif}.st13{font-size:16px}.st14{font-size:12px}.st15{font-size:11.9906px}</style><g id="Lens"><path class="st0" d="M237.4 119.1l4.4-4.3m-14 4.3l13.8-13.8m14.1-14.1l.5-.6m2.4-2.4l1-.8m-41.3 31.7l40.1-39.9m.1-.3l1.1-1.1m-50.8 41.3l47.8-47.9m-57.4 47.9l50.1-50.2m-59.7 50.2l53-52.9m.2-.3l.8-.8m-63.4 54l52.2-52.4m-61.8 52.4l60.5-60.5m-110 43.2l45.3-45.5m-42.6 33.3L157 56.3m-36.5 27l26.9-27M115 79.2l22.8-22.9m-27.9 18.5l18.5-18.5m-21.6 12.1l4.3-4.4m.8-.8l6.9-6.9M102.6 63l5.5-5.6m-14.8 5.3l5.4-5.3m62.3 61.7l16.4-16.3m4.8-4.9l40.5-40.5m-71.3 61.7l16.4-16.3m14.4-14.5l31.2-31.1M142 119.1l16.2-16.3m21.3-21.2l25.1-25.3m-72.2 62.8l16.3-16.3m21.2-21.2l23.5-23.5m-70.6 61l19.1-19m18.4-18.5l25.3-25.3m-65.8 56.2l22.1-22m9-8.9L176 56.3M69.9 180.7l-5.3-5.3m14.9 5.3l-6.6-6.6m8.5-1.1l-4.3-4.2m8.3-1.2l-4.3-4.3m13.9 4.3l-9.7-9.7m33.5 23.9l-6.9-6.8m-7.4-7.4l-13-13.1m67.6 58.2l-10.2-10.3m-20.5-20.6l-34.9-34.7m72.4 62.7l-17-17m-11.1-11L91.1 135m74.8 65.3l-12.8-12.7m-5.7-5.8l-57.3-57.3m71.5 62l-67.4-67.4m101.2 91.5l-6.2-6m15.7 6L189.2 195m17 7.4l-12.9-12.9m12.9 3.5l-3.5-3.5m28.4-10l-19-18.9m20.3 10.8l-10.8-10.8m-10.1-10l-31.3-31.5m63.4 54l-12.5-12.5m-10.5-10.7l-31-30.8m59.7 50.1l-8.6-8.6m-28.8-28.8l-12.7-12.7m57.4 47.8l-14.8-14.8m-29.7-29.7l-3.3-3.3m50.8 41.2l-10.4-10.4m10.4.9l-1-.9m-92.2 31.9l-26-26.1m-5.2-5.1l-31.4-31.5m72.2 62.7l-26.2-26.1m-14.6-14.6l-21.8-22m72.2 62.7l-26.2-26.1m-21.2-21.3l-15.4-15.3m79.3 69.5L169 155.7m-21.3-21.3l-15.3-15.3m72.2 62.7l-26-26.1m-21.4-21.3L142 119.1m71.4 61.8L188 155.7m-21.2-21.3l-15.4-15.3m71.3 61.6l-34.3-34.2m-12-12.1L161 119.1m50.5 40.9l-23.1-23.1m-2.5-2.5l-15.3-15.3m59.1-61.7h-16l-1.1-1.1h-11.9v3.3h-.4v-1.5h-11.9v1.2h-.4v-3h-5.1l-1.1 1.1-1.1-1.1H142l-1 1.1v2.7h-1.8v-2.7l-1.1-1.1H113l-1.1 1.1v13.3h-.8V57.4h-17l-2.2 2.2v3.1h8.5v-1.9h2.2v3.9h2.1v2.4h2.1v7.7h5.9v2.9h2.3V81l9.3 3.8h.8m.1 0c-3.6 11-5.4 22.6-5.4 34.2m-.1.1h122.1m.5-21.6l8.5-2.8v-2.2h1.2v-1.3h4.2v-3h3l.4-.4V87l-2.6-1.4v-.1l2.6 1.2V84h-1.2v-5.1h1.2v-2.7l-1.9.9v-.2l1.9-1v-3.4l-1.2-1.3h-9.1v-4.1l-2-2h-.7l-.5 1.1m0 0l-.7-1.1m0 0h-2.2m0 0l-.5 1.1m-13-8.8l2.2 2.2v7.1h4.3v-1.6h2.4l.6 1.1.7-1.1h2.1l.7 1.1M115 88.7V81m0 7.7l4.3 1.4m0 2.8v-2.8m0 2.8l-4.3-1.3m0 0v27.5m-2.3 0V77.7m-5.9 41.4V74.8m-2.1 44.3v-52m-2.1 52V64.7m-2.2 54.4V62.7m-8.5 56.4V62.7m96.5-4.6v-1.4m6.9 1.4v-1.4m4.9 0v1.4"/><path class="st0" d="M188 56.3h.4l.7.2h.7l1.1.1h2.3l1.2.1 1.2-.1h2.3l.9-.1h.8l.7-.2h.4m41.1 62.8h17.8m-17.3 0V97.5m8.5 4.6v17m0-17l-3 .8m0 0v-2.8m0 0l3-.7m0 0v-4.7m8.8-8v.3m0-10.8v-.3m-1.9 1.2v-.2m-6.9 23.7h-2.6v-.5m3.8 19V92.5m4.2 26.6V91.2m-8.4 9.4h.4m2.6 0v1.5M115 89v2.6m78.3-33.5v-1.4m65.9 62.4V88.2m.4 30.9V87.8m-1.2-8.9h1.2V84m-13.5-17.8l.5-1.1m-3.9 1.1l.5-1.1m-4 1.1l.7-1.1m-18.8 80.6v-2.1l-8.5-3m-.5-21.5H89.9m0-.1c0 11.6 1.8 23.2 5.4 34.2m0 .1h-.8l-9.2 3.9v3.4H83v2.7h-5.9v7.7h-2.2v2.5h-2v3.8h-2.2v-1.9h-8.5v3.3l2.2 2h17v-13.1h30.5v13.1l1.1 1.1h25.1l1.1-1.1V178h1.8v2.7l1 1.1h11.1v9.5h-3l-1.2 1.4v18.6l1.2 1.4h14.4l1.4-1.4v-18.6l-1.4-1.4h-2.9v-9.5h19.1l1.1-1.1 1.1 1.1h3.1l2.2-.9 2.1.9h3.3v7.7h-3l-1.4 1.2v18.7l1.4 1.2H205l1.2-1.2v-18.7l-1.2-1.2h-2.9v-7.7h10.5l1.1-1.1h16l2.2-2v-7.3h4.3v1.7h.7l.7-1.2.5 1.2h2.2l.6-1.2m0 0l.7 1.2m0 0h2l.7-1.2.7 1.2h2.2l.5-1.2m0 0l.3.4"/><path class="st0" d="M248 172.3l1.3-1.3v-4.1h9.1l1.2-1.2v-15.4l-.4-.4h-17.4v10.7h-30.3v-10.7h15v-3h-4.2v-1.2h-1.2M186 181.8h4.3M62.2 119.1v56.3m0-56.3h8.5v56.3m0-56.3h2.2v54.4m2-2.5v-51.9h-2"/><path class="st0" d="M77.1 163.3v-44.2h-2.2m8.1 41.5v-41.5h-5.9m8.2 38.1v-38.1H83m2.3 0h4.6m169.7 0h-3.4m-43.6 0v21.5m8.5-21.5v24.5m38.1-24.5v30.8m-17.4-30.8v30.8m17.8-30.8v31.2m-37.3-31.2v26.6m4.2-26.6v27.8m21.2 25l-.5 1.2m-2.9-1.2l-.7 1.2m-2.7-1.2l-.6 1.2m-2.7-1.2l-.7 1.2m216.7 8.4l-1.2.1-.8.6m2-125.4h-2.4m0 0c-1.1 0-2.3.1-3.4.2M434 59.9c-1.1.4-2.1.7-3.2 1.1m-4.9 2.2c-1 .5-2 1-3 1.6m-4.6 2.8c-.9.6-1.9 1.3-2.8 2m-4 3.4c-.8.8-1.7 1.5-2.5 2.3m-3.6 4l-2.1 2.7m-3 4.4c-.6 1-1.2 1.9-1.7 2.9m-2.4 4.9c-.5 1-.9 2.1-1.3 3.1m-1.7 5.1c-.3 1.1-.6 2.2-.8 3.3m-.9 5.3c-.2 1.1-.3 2.2-.4 3.4m-.2 5.3c0 1.1 0 2.3.1 3.4m.5 5.3l.6 3.3m1.3 5.3c.3 1.1.7 2.2 1 3.2m2 5c.5 1 1 2.1 1.5 3.1m2.6 4.6c.6 1 1.2 1.9 1.9 2.8m9.4 10.5c.8.8 1.7 1.5 2.6 2.2m4.3 3.2c.9.6 1.9 1.2 2.9 1.8m4.7 2.5c1 .5 2.1 1 3.1 1.4m5 1.9c1.1.3 2.2.7 3.3 1m5.2 1.1c1.1.2 2.2.4 3.4.5m5.3.3h2M437.4 58.8l3.4-.7m1.1-.3l-1.1.3m3-.5v-.2h.4m-.4 0l-1.9.4m2.3-.4v.2m9.4 123.9v-.3M447.8 57l.7.6 1.1.1.9-.3.7-.5m-3.4.1c-4.7.4-9.3 1.4-13.8 2.9m-3.2 1.2l.8.3 1.1-.2.8-.5.6-.8m-3.3 1.1c-1.7.6-3.3 1.4-4.9 2.2m-3 1.7l.9.1 1-.3.8-.6.4-.9m-3.1 1.6c-1.6.9-3.1 1.8-4.5 2.8m-2.8 2h.9l.8-.4.7-.7.4-.8m-2.8 1.9c-1.4 1.1-2.8 2.2-4.1 3.4m-2.5 2.4l.9-.1.8-.6.6-.8.2-.8m-2.5 2.3c-1.3 1.3-2.5 2.6-3.6 4m-2.1 2.6l.8-.3.8-.5.4-.9.2-1m-2.2 2.7c-1.1 1.4-2.1 2.9-3 4.4m-1.7 3l.8-.4.7-.6.2-1v-.9m-1.7 2.9c-.9 1.6-1.6 3.2-2.4 4.8m-1.3 3.2l.8-.5.6-.9.1-.9-.1-.9m-1.4 3.1c-.6 1.7-1.2 3.4-1.7 5.1m-.8 3.4l.6-.7.6-.8v-1.1l-.3-.8m-.9 3.3c-.4 1.7-.7 3.5-1 5.3"/><path class="st0" d="M391.1 114.4l.6-.7.3-.9v-1.1l-.6-.7m-.3 3.3c-.1 1.8-.2 3.6-.2 5.3m.1 3.6l.4-.8.3-1-.3-.9-.5-.8m.1 3.4c.1 1.8.3 3.6.5 5.3m.6 3.4l.4-.8v-.9l-.4-1-.6-.7m.6 3.4c.3 1.7.8 3.5 1.3 5.2m1 3.2l.3-.8-.2-1-.4-.9-.7-.5m1 3.2c.6 1.7 1.3 3.3 2 5m1.5 3.1l.1-1-.2-.9-.6-.8-.8-.4m1.5 3c.8 1.6 1.7 3.1 2.7 4.6m1.9 2.9v-.8l-.4-.9-.7-.7-.8-.4m1.8 2.8c2.7 3.8 5.9 7.4 9.4 10.5m2.6 2.2l-.2-.8-.6-.8-.9-.4-.9-.2m2.6 2.2c1.4 1.1 2.8 2.2 4.3 3.2m2.8 1.8l-.3-.8-.6-.7-1-.3h-.9m2.9 1.8c1.5.9 3.1 1.8 4.7 2.5m3 1.4l-.4-.7-.8-.6-.9-.2-1 .2m3.2 1.3c1.6.7 3.3 1.3 5 1.9m3.3 1l-.5-.7-1-.4-.9-.2-.8.3m3.2.9c1.7.5 3.5.8 5.2 1.1m3.3.6l-.5-.6-1-.4-1 .2-.7.4m3.3.3c1.8.2 3.6.3 5.3.4m2 .1v-.7m-49.1-22.8l.3.3"/><path class="st0" d="M453.6 57.8c-34 0-61.6 27.6-61.6 61.6s27.6 61.6 61.6 61.6"/><path class="st0" d="M453.6 60c-32.8 0-59.5 26.6-59.5 59.5 0 32.8 26.6 59.5 59.5 59.5"/><path class="st0" d="M453.6 63.1c-31.1 0-56.4 25.2-56.4 56.4 0 31.1 25.2 56.4 56.4 56.4"/><path class="st0" d="M453.6 65c-30.1 0-54.5 24.4-54.5 54.5s24.4 54.5 54.5 54.5"/><path class="st0" d="M453.6 67.6c-28.7 0-51.9 23.2-51.9 51.9s23.2 51.9 51.9 51.9"/><path class="st0" d="M453.6 75.3c-24.4 0-44.2 19.8-44.2 44.2s19.8 44.2 44.2 44.2"/><path class="st0" d="M453.6 78c-22.9 0-41.5 18.6-41.5 41.5s18.6 41.5 41.5 41.5m-31.4-17.6c.9 1.1 1.8 2.2 2.8 3.2m-.3-5.3c.9 1.1 1.8 2.2 2.8 3.2"/><path class="st0" d="M453.6 85.2c-18.9 0-34.2 15.3-34.2 34.2s15.3 34.2 34.2 34.2"/><path class="st0" d="M453.6 81.5c-14.4 0-27.6 8.2-34 21.1s-4.9 28.4 3.8 39.9m-.1 0l1.3-1.1m1.5 4.3l1.4-1.1m-1.4 1.1c7.2 7.5 17.1 11.8 27.5 11.8m-30.3-15l-2.6 2.3m2.7 3.2l2.7-2.3m-19.3 15.6l2.3 2.5m-2.3-2.5l-.8-.9-1.2-1.4m-.3-.3h.1m49 22.5v1m56.9-36.5c2-4.3 3.4-8.8 4.4-13.4m9.1-17.1v-3m0 11.5v3m1.2 0l-.4-.3v.2m.4-1.1v1.2m0-1.2l-.4-.4v-.3l.4.1m0-1.2v1.2m-.4-9.7l.4-.3m0 0v-1.4m0 0l-.4.1v-.3l.4-.4m0 0v-.9m0 0l-.4.2v-.2l.4-.4m0 0v-.4m0 0l-.4.2.4-.4m0 16.9l-.4-.4v-.1l.4.5m0-.8v.7m0-.7l-.4-.5m22.4.1v-14.5m-1.3 15l.4-.4v-.1m-.4.5v.7m0-16.1v-.6m0 .6l.4.4v.2l-.4-.3m0 1.1v-1.1m0 1.1l.4.5v.3l-.4-.1m0 1.5v-1.5m0 1.5l.4.4v.2h-.4m0 1.8V116m0 1.8l.4.3v.4l-.4.1m0 0v1.9m0 0l.4.1v.4l-.4.3m0 0v1.7m0 0h.4v.5l-.4.2m0 0v1.5m0 0l.4-.1v.2l-.4.6m0 0v1.1m0 0l.4-.3m-20.4 0v-14.5m1.3 15.7l-.5-.4.5.4m0-.7v.7m0-.7l-.5-.4v-.1l.5.3m0-1.1v1.1m0-1.1l-.5-.6v-.2l.5.1m0-1.5v1.5m0-1.5l-.5-.2v-.5h.5m0-1.7v1.7m0-1.7l-.5-.3v-.4l.5-.1m0 0v-1.9m0 0l-.5-.1v-.4l.5-.3m0 0V116m0 0h-.5v-.2l.5-.4m0 0v-1.5m0 0l-.5.1v-.3l.5-.5m0 0v-1.1m0 0l-.5.3v-.2l.5-.4m0 0v-.6m0 0l-.5.4.5-.6m-73.6 42.7c18.9 0 34.2-15.3 34.2-34.2s-15.3-34.2-34.2-34.2"/><path class="st0" d="M453.6 157.5c14.4 0 27.6-8.2 34-21.1s4.9-28.4-3.8-39.9m-1.3 1.2l1.4-1.2m-1.4 1.1c-.9-1.1-1.8-2.2-2.8-3.2m.1 0l1.4-1.2m-.1 0c-7.2-7.5-17.1-11.8-27.5-11.8m62.2 30.1c-.2-1.8-.5-3.5-.9-5.3m-61.3 76h1.4m5.3-.4c1.1-.1 2.2-.3 3.4-.5m5.3-1l3.3-.9m5-1.9c1-.4 2.1-.9 3.1-1.4m4.7-2.4c1-.6 1.9-1.2 2.9-1.8m4.3-3.1c.9-.7 1.8-1.4 2.6-2.2m3.9-3.7c.8-.8 1.5-1.7 2.3-2.5m3.3-4.2c.7-.9 1.3-1.9 1.9-2.8m2.7-4.7l1.5-3m4.5-13.4l.6-3.3m.5-5.4c.1-1.1.1-2.3.1-3.4m-.1-5.3c-.1-1.1-.2-2.3-.3-3.4m-.9-5.3c-.2-1.1-.5-2.2-.8-3.3m-1.7-5.1c-.4-1.1-.8-2.1-1.3-3.2m-2.3-4.8c-.5-1-1.1-2-1.7-2.9m-2.9-4.5l-2.1-2.7m-3.6-3.9l-2.4-2.4m-4.1-3.5c-.9-.7-1.8-1.4-2.7-2m-4.6-2.8c-1-.6-2-1.1-3-1.6m-4.8-2.3c-1.1-.4-2.1-.8-3.2-1.2m-5.2-1.4c-1.1-.3-2.2-.5-3.3-.7m-5.3-.8c-1.1-.1-2.3-.2-3.4-.3M455 182.2c1.8 0 3.6-.2 5.3-.3"/><path class="st0" d="M463.8 181.4l-.8-.4h-1l-.9.2-.7.7m3.3-.5c1.8-.3 3.5-.7 5.2-1.1m3.4-1l-.8-.2-1.1.1-.8.4-.6.7m3.2-1c1.7-.5 3.4-1.1 5-1.8m3.2-1.3l-.8-.1-1 .1-.8.6-.5.8m3.1-1.4c1.6-.8 3.2-1.6 4.7-2.5m3-1.8h-1l-.9.3-.7.7-.4.8m2.9-1.8c1.5-1 2.9-2 4.3-3.1m2.7-2.1h-.9l-.9.5-.5.8-.3.8m2.6-2.2c1.3-1.2 2.6-2.4 3.9-3.7m2.3-2.5l-1 .2-.8.5-.4 1-.1.8m2.2-2.5c1.2-1.4 2.3-2.8 3.3-4.2m2-2.8l-.9.3-.7.7-.4.9v1m1.9-3c1-1.5 1.9-3 2.7-4.6m1.6-3l-.8.4-.7.8-.1 1 .1.9m6.5-19.8l-.7.7-.4.8.2 1.1.2.8m.7-3.4c.3-1.8.5-3.5.6-5.3m.1-3.5l-.6.8-.2 1 .2.9.5.8m.1-3.5c0-1.8 0-3.6-.2-5.3m-.4-3.3l-.4.6-.1 1.1.4 1 .6.6m-2.1-12l-.4.8.2 1.1.4.8.6.7m-.8-3.4c-.5-1.7-1-3.4-1.6-5.1m-1.3-3.1l-.2.8.2 1.1.5.8.8.4m-1.3-3.1c-.7-1.6-1.5-3.2-2.3-4.8m-1.7-3l-.1.9.3 1 .7.8.8.2m-1.7-2.9c-.9-1.5-1.9-3-3-4.4m-2.1-2.7v.9l.6.9.6.7 1 .1m-2.2-2.7c-1.1-1.4-2.3-2.7-3.6-4"/><path class="st0" d="M496.2 73.4l.1.9.5.8.9.6.9.1m-2.5-2.4c-1.3-1.2-2.7-2.4-4.1-3.5m-2.7-1.9l.3.8.6.8 1 .4h.8m-2.7-2.1c-1.5-1-3-2-4.5-2.9m-3.1-1.5l.4.8.8.6 1 .2h.9m-3-1.7c-1.6-.8-3.2-1.5-4.9-2.2m-3.1-1.1l.4.7.9.6 1 .1.8-.3m-3.2-1.1c-1.7-.6-3.4-1.1-5.1-1.5m-3.3-.8l.5.7.9.4h1l.8-.2m-3.3-.8c-1.8-.3-3.5-.6-5.3-.8m-3.4-.2l.8.5.9.3 1-.1.8-.4m-3.5-.4c-1 0-2-.1-2.9-.1m1.4 125.5l-.5-.4-.9-.3m32.5-87c-.9-1.1-1.8-2.2-2.8-3.2m.6 5.2l2.6-2.2m-2.7-3.2l-2.6 2.1"/><path class="st0" d="M453.6 181.1c34 0 61.6-27.6 61.6-61.6s-27.6-61.6-61.6-61.6"/><path class="st0" d="M453.6 178.9c32.8 0 59.5-26.6 59.5-59.5S486.4 60 453.6 60"/><path class="st0" d="M453.6 175.8c31.1 0 56.4-25.2 56.4-56.4 0-31.1-25.2-56.4-56.4-56.4"/><path class="st0" d="M453.6 173.9c30.1 0 54.5-24.4 54.5-54.5s-24.4-54.5-54.5-54.5"/><path class="st0" d="M453.6 171.4c28.7 0 51.9-23.2 51.9-51.9s-23.2-51.9-51.9-51.9"/><path class="st0" d="M453.6 163.7c24.4 0 44.2-19.8 44.2-44.2S478 75.3 453.6 75.3"/><path class="st0" d="M453.6 161c22.9 0 41.5-18.6 41.5-41.5S476.5 78 453.6 78m73.6 33h18.7m-18.7.8h18.7m-18.7 1.4h18.7m-18.7.7h18.7m-18.7 1.5h18.7m-18.7.6h18.7m-18.7 1.8h18.7m-18.7.8h18.7m-18.7 1.9h18.7m-18.7.8h18.7m-18.7 1.7h18.7m-18.7.7h18.7m-18.7 1.5h18.7m-18.7.7h18.7m-18.7 1.1h18.7m-19.2-.2h.3m19 0h.3m-19.6-14.6h.4m18.9 0h.3m-21.1-1.2h1.9m-1.9.2h1.9m-1.9.4h1.3m-1.3.4h1.1m-1.1.9h.7m-.7.6h.7m-.7 1.4h.7m-.7 10h.7m-.7.6h.7m-.7 1.2h.7m-.7.4h1.1m-1.5-.5h.4m-.4-14.6h.3m-11.9 27.1l1.1-3.2m-1.1 3.2l-.4 1.1m-.7 2.2l.1-.3h-.1m.1 0l.6-1.9m11.2-28l1.2-1.2m-1.2 15.7l1.2 1.3m22-1.3l-1.3 1.3m1.3-15.8l-1.3-1.2m-20 1.2l1.3-1.2m-1.3 15.7l1.3 1.3m-11-12.8h9.7m-9.7 8.5h9.7m1.3 4.3h18.7m-20.7-17h20.7m-20.7 17h2m-12.9 7.9h-.2m-2 6.5h-.1m30.9 5.8l.9-3.4m.4-1.6l.2-.3m.4-1.6l.4-1.5.9-5.1m.3-1.7v-.2m.4-1.7l.5-6.7m.2-1.8v-.2m0-1.6V114m-.2-1.8l-.1-.2m-.1-1.6l-.6-5.2-.2-1.6m-.3-1.6l-.1-.3m-.3-1.7l-.7-3.3m-6.5 62.6c1.7-3.6 3.2-7.3 4.5-11.1"/></g><g id="Mittellinien"><path class="st1" d="M380.6 119.6h7.1"/><path d="M390.6 119.6h2" fill="none" stroke="#000" stroke-width=".283" stroke-miterlimit="10" stroke-dasharray=".5719,2.8596"/><path d="M394 119.6h122.1" fill="none" stroke="#000" stroke-width=".283" stroke-miterlimit="10" stroke-dasharray="14.2981,2.8596,.5719,2.8596"/><path class="st1" d="M517.6 119.6h7m-467.7-.4H64"/><path d="M66.8 119.2h2" fill="none" stroke="#000" stroke-width=".283" stroke-miterlimit="10" stroke-dasharray=".5681,2.8405"/><path d="M70.2 119.2h182.7" fill="none" stroke="#000" stroke-width=".283" stroke-miterlimit="10" stroke-dasharray="14.2025,2.8405,.5681,2.8405"/><path class="st1" d="M254.3 119.2h7.1M453.7 48v7.1"/><path d="M453.7 57.8v1.9" fill="none" stroke="#000" stroke-width=".283" stroke-miterlimit="10" stroke-dasharray=".546,2.7301"/><path d="M453.7 61.1v136.2" fill="none" stroke="#000" stroke-width=".283" stroke-miterlimit="10" stroke-dasharray="13.6504,2.7301,.546,2.7301"/><path class="st1" d="M453.7 198.7v7.1"/></g><g id="Bemassung"><path class="st1" d="M20.6 65.2V173"/><path d="M18.1 66.9l2.4-9.3 2.5 9.3h-4.9zm0 104.4l2.4 9.2 2.5-9.2h-4.9z"/><path class="st1" d="M45.8 70.9v96.3"/><path d="M43.4 72.5l2.4-9.2 2.5 9.2h-4.9zm0 93l2.4 9.2 2.5-9.2h-4.9z"/><path class="st8" d="M62.2 175.3H41.8M92.3 63H41.8m52.5-5.5H16.2m47.6 123H16.2"/><path class="st9" d="M296.3 72.9v91.2"/><path d="M293.8 74.6l2.5-9.3 2.5 9.3h-5zm0 87.9l2.5 9.2 2.5-9.2h-5z"/><path class="st8" d="M247 64.9h54.6m-54 108h54"/><path class="st9" d="M224.1 232H70"/><path d="M222.4 229.5l9.2 2.5-9.2 2.5v-5zm-150.7 0l-9.2 2.5 9.2 2.5v-5z"/><path class="st9" d="M266.6 232h21.1"/><path d="M268.3 234.5l-9.2-2.5 9.2-2.5v5z"/><path class="st8" d="M259.6 152.6v83.6"/><path class="st9" d="M297.2 256.3h-57.8"/><path d="M295.5 253.8l9.2 2.5-9.2 2.5v-5zm-54.4 0l-9.2 2.5 9.2 2.5v-5z"/><path class="st8" d="M231.5 178.8v81.7"/><path class="st9" d="M297.6 17.3h-30.1"/><path d="M295.9 14.8l9.2 2.5-9.2 2.5v-5zm-26.7 0l-9.2 2.5 9.2 2.5v-5z"/><path class="st9" d="M277.9 42.5h-20.7"/><path d="M258.9 40.1l-9.2 2.4 9.2 2.5v-4.9z"/><path class="st9" d="M204.9 42.5h19.9"/><path d="M223.1 45l9.2-2.5-9.2-2.4V45z"/><path class="st8" d="M305.5 260.5V13.9m-55.8 28.6h-17.6M260 17.3h-27.9m-.1 41.8V13m17.6 54.4v-29m10 47.3V13"/><path class="st9" d="M224.9 17H100.6"/><path d="M223.2 14.6l9.2 2.4-9.2 2.5v-4.9zm-120.9 0L93 17l9.3 2.5v-4.9z"/><path class="st8" d="M92.3 59.5V14"/><path class="st9" d="M309.6 106.4l26.3-71.1h5.2"/><path d="M312.5 105.7l-5.5 7.7.9-9.5 4.6 1.8z"/><path class="st8" d="M61.7 178.7v57.5m197.4-4.2h-29.2"/><path d="M302 114.8l7 7m-7 0l7-7m-7 0l7 7m-7 0l7-7" fill="none" stroke="#000" stroke-width=".992" stroke-miterlimit="10"/><path class="st1" d="M550.7 155.6l6.6 3H592"/><path d="M551.4 159.5l-9.8-8 12.6 2-2.8 6z"/></g><g id="Text"><text transform="matrix(1 0 -.00479 1 147.31 152)" class="st11 st12 st13">Mod</text><text transform="rotate(-90 74.047 57.383)" class="st11 st12 st14">Ø 29</text><text transform="rotate(-90 216.281 -61.275)" class="st11 st12 st14">1-32 UN-2A</text><text transform="rotate(-90 221.131 -70.825)" class="st11 st12 st14">(C-mount)</text><text transform="rotate(-90 96.092 53.582)" class="st11 st12 st14">M27 x 0.5</text><text transform="translate(150.54 13.46)" class="st11 st12 st14">32.9</text><text transform="translate(278.204 13.46)" class="st11 st12 st14">11</text><text transform="translate(204.556 38.853)" class="st11 st12 st14">4.1</text><text transform="translate(345.433 37.843)" class="st11 st12 st14">Sensor position</text><text transform="translate(236.273 228.247)" class="st11 st12 st14">6.5</text><text transform="translate(147.849 228.28)" class="st11 st12 st14">39.9</text><text transform="translate(250.025 253.494)" class="st11 st12 st14">17.526</text><text transform="translate(251.425 266.994)" class="st11 st12 st14">(in air)</text><text transform="translate(153.68 97.074)" class="st11 st12 st13">Inf.</text><text transform="translate(562.08 155.424)" class="st11 st12 st14">R22.1</text><text transform="translate(236.512 13.46)" class="st11 st12 st14">6.5</text></g><text transform="translate(495.315 251.824)" class="st12 st15">Not to scale</text><text transform="translate(495.085 267.224)" class="st12 st15">Dimensions in mm</text></svg>