<svg version="1.1" id="Layer_1" xmlns="http://www.w3.org/2000/svg" x="0" y="0" viewBox="0 0 566 170.5" style="background-color:#fff" xml:space="preserve"><style>.st1{stroke-width:.4013}.st1,.st2,.st3,.st4{fill:none;stroke:#000;stroke-miterlimit:3.8637}.st2{stroke-width:.3413}.st3{stroke-width:.273}.st4{stroke-width:.2007;stroke-dasharray:9.6313,1.6052,1.6052,1.6052}.st6{fill:none;stroke:#020405;stroke-width:.4013;stroke-linecap:round;stroke-linejoin:round;stroke-miterlimit:10}.st7,.st8{fill:none;stroke:#000;stroke-width:.2007;stroke-miterlimit:3.864}.st8{stroke-width:.1822}.st9{font-family:Helvetica,Arial,sans-serif}.st10{font-size:8.0261px}.st11{font-size:6.4208px}</style><path class="st1" d="M212.1 77.6h149.4M212.1 93.3h136m0 0h13.7M122.1 68.4l2.3-1.9h44.3l2.2 1.5v36l-2.2 1.4h-44.1l-2.5-1.9V68.4zm2.3-2v39m44.3 0v-39M64.2 66h44.3l2.2 1.6v36l-2.2 1.4H64.4m-.2-39v39m44.3 0V66"/><path class="st2" d="M211.7 75.9v19.3"/><path class="st1" d="M364.5 77.6h48.9m-48.9 15.7h48.6"/><path class="st3" d="M69.3 51.8h142.5"/><path d="M69.3 50.4v2.8l-5-1.4 5-1.4zm136.8 0v2.8l5-1.4-5-1.4z"/><path class="st3" d="M64.5 62.4V13.5m147.3 60.6V50.6"/><path class="st4" d="M361.8 75.3v21.5"/><path d="M364.3 75.3v21.5" fill="none" stroke="#000" stroke-width=".201" stroke-miterlimit="3.864" stroke-dasharray="9.6313,1.6052,1.6052,1.6052,1.6052,1.6052"/><path class="st3" d="M56.3 101.7V71.3m7.5 33.7h-8.7"/><path d="M54.8 71.6h2.8l-1.4-5.2-1.4 5.2z"/><path class="st3" d="M63.8 66.1h-8.7"/><path d="M57.7 99.4h-2.8l1.4 5.2 1.4-5.2z"/><path class="st4" d="M243 86.6l-182.8-.4"/><path class="st3" d="M69.3 16.5h490.6"/><path d="M69.3 15.1v2.7l-5-1.4c0 .1 5-1.3 5-1.3z"/><path class="st3" d="M561 78.6V13.9"/><path d="M555 17.9v-2.7l5 1.4c-.1-.1-5 1.3-5 1.3z"/><path class="st3" d="M243 93.4V77.6m105.1 15.8V77.6"/><path class="st4" d="M565 86.6l-216.9-.4"/><path class="st3" d="M395.5 106.1V44"/><path d="M394.1 98.2h2.7l-1.4-4.9-1.3 4.9zm2.7-24.9h-2.7l1.4 5 1.3-5z"/><path class="st6" d="M110.7 98.6h11.4m0-26.1h-11.4m60.2 0l40.8 3.4M84.9 105V66m19.4 39V66m107.4 29.2l-40.8 3.4"/><path class="st7" d="M85.1 66.1L104.5 79M90.2 66.2l14.3 9.6M95 66.2l9.5 6.3m-4.7-6.3l4.7 3.1m-19.4 0l19.3 13m-19.3-9.8l19.3 13m-19.3-9.7l19.3 13M85.1 79l19.3 13m-19.3-9.7l19.3 13m-19.3-9.8l19.3 13m-19.3-9.7l19.3 13M85.1 92l19.3 13m-19.3-9.7l14.5 9.7m-14.5-6.5l9.7 6.5m-9.7-3.2l4.8 3.2m14.6-38.9L85.1 79m14.3-12.8l-14.3 9.6m9.4-9.6l-9.4 6.3m4.6-6.3l-4.6 3.1m19.4 0l-19.3 13m19.3-9.8l-19.3 13m19.3-9.7l-19.3 13m19.3-9.8L85.1 92m19.4-9.7l-19.3 13m19.3-9.8l-19.3 13m19.3-9.7l-19.3 13m19.3-9.8l-19.3 13m19.3-9.7L89.9 105m14.6-6.5l-9.7 6.5m9.7-3.2l-4.9 3.2"/><path class="st2" d="M243 77.6h105v54.7H243V77.6z"/><path class="st8" d="M40.8 42.4L64.5 66"/><path class="st1" d="M503 102.7l-2.3 1.9h-44.3l-2.2-1.5V67l2.2-1.4h44.1l2.5 1.9v35.2zm-2.3 1.9v-39m-44.3 0v39m104.5.4h-44.3l-2.2-1.6v-36l2.2-1.4h44.1m.2 39V66m-44.3 0v39"/><path class="st6" d="M514.4 72.4H503m0 26.1h11.4m-60.2 0l-40.8-3.4M540.2 66v39m-19.4-39v39M413.4 75.8l40.8-3.4"/><path class="st7" d="M540 104.9L520.7 92m14.2 12.8l-14.3-9.6m9.5 9.6l-9.5-6.3m4.7 6.3l-4.7-3.1m19.4 0l-19.3-13m19.3 9.8l-19.3-13m19.3 9.7l-19.3-13M540 92l-19.3-13m19.3 9.7l-19.3-13m19.3 9.8l-19.3-13m19.3 9.7l-19.3-13M540 79l-19.3-13m19.3 9.7L525.5 66m14.5 6.5l-9.7-6.5m9.7 3.2l-4.8-3.2m-14.5 38.9L540 92m-14.3 12.8l14.3-9.6m-9.4 9.6l9.4-6.3m-4.6 6.3l4.6-3.1m-19.3 0l19.3-13m-19.3 9.8l19.3-13m-19.3 9.7l19.3-13M520.7 92L540 79m-19.3 9.7l19.3-13m-19.3 9.8l19.3-13m-19.3 9.7l19.3-13M520.7 79L540 66m-19.3 9.7l14.5-9.7m-14.5 6.5l9.7-6.5m-9.7 3.2l4.9-3.2"/><path class="st2" d="M413 75.9v19.3"/><g id="text"><text transform="translate(4.229 30.757)" class="st9 st10">Hirose</text><text transform="translate(4.229 39.586)" class="st9 st10">6-pin plug</text><text transform="translate(122.108 48.857)" class="st9 st11">36 mm</text><text transform="rotate(-90 76.51 23.674)" class="st9 st11">11.6 mm</text><text transform="rotate(-90 231.663 -160.612)" class="st9 st11">5.8 mm</text><text transform="translate(244.873 109.588)" class="st9 st10">Label with order number,</text><text transform="translate(244.873 118.417)" class="st9 st10">manufacturing date, and</text><text transform="translate(244.873 127.245)" class="st9 st10">pin-to-wire color assignment</text><text transform="translate(277.578 88.02)" class="st9" font-size="5.618">2000...xx/yy</text><text transform="translate(189.827 12.472)" class="st9 st10">Length depending on order number</text></g><path class="st8" d="M526.1 128.8l23.7-23.6"/><path fill="none" d="M505.4 131.6h60.1v21.1h-60.1z"/><text transform="translate(505.35 137.308)"><tspan x="0" y="0" class="st9 st10">Hirose </tspan><tspan x="0" y="9.6" class="st9 st10">6-pin plug</tspan></text></svg>