<svg version="1.1" id="Layer_1" xmlns="http://www.w3.org/2000/svg" x="0" y="0" viewBox="0 0 400 200.7" style="background-color:#fff" xml:space="preserve"><style>.st1{fill:#fff;stroke:#000;stroke-width:.425;stroke-miterlimit:10}.st2{font-family:Helvetica,Arial,sans-serif}.st3{font-size:7px}.st4,.st5,.st6{fill:none;stroke:#000;stroke-miterlimit:10}.st4{stroke-linecap:round;stroke-linejoin:round;stroke-width:.5}.st5,.st6{stroke-width:.283}.st6{stroke-linecap:round;stroke-linejoin:round}.st7{fill-rule:evenodd;clip-rule:evenodd;fill:#1a171b}.st11{font-size:8.9999px}.st13,.st14{stroke-width:.283}.st13{fill:none;stroke:#000;stroke-miterlimit:10;stroke-dasharray:.733,1.467}.st14{stroke-dasharray:2.933,1.467,.733,1.467}.st14,.st15,.st17{fill:none;stroke:#000;stroke-miterlimit:10}.st15{stroke-dasharray:.858,1.716;stroke-width:.283}.st17{stroke-width:.425;stroke-linecap:round;stroke-linejoin:round}</style><ellipse class="st1" cx="292.6" cy="56.6" rx="5.2" ry="5.1"/><ellipse class="st1" cx="370.3" cy="56.6" rx="5.2" ry="5.1"/><path class="st1" d="M297.8 134.2c0-2.8-2.3-5.1-5.2-5.1s-5.2 2.3-5.2 5.1 2.3 5.1 5.2 5.1c2.9.1 5.2-2.2 5.2-5.1zm67.3 0c0-2.8 2.3-5.1 5.2-5.1s5.2 2.3 5.2 5.1-2.3 5.1-5.2 5.1c-2.9.1-5.2-2.2-5.2-5.1z"/><text transform="translate(160.342 186.637)" class="st2 st3">Not to scale</text><text transform="translate(160.342 195.9)" class="st2 st3">Dimensions in mm</text><text transform="translate(160.342 177.373)" class="st2 st3">Parts on the board are symbolic only</text><path class="st4" d="M342.9 102.7V88.2h-23.2v14.5h23.2"/><path class="st4" d="M299.3 125.9V65h64v60.9h-64m-18.5-29.3v16.1m-.2-15.6l.2-.5m-.2 15.6V97.1m.2 15.6l-.2-.5m0-26.3v-3.5m.2 3.9l-.2-.4m.2-3.9v4.3m-.2-3.9l.2-.4m0-10h.3m-.5 8.8v-3.4m.2 3.9l-.2-.5m.2-3.8v4.3m-.2-3.9l.2-.4m0 41.7h.3m49.4-56.1v-1.1h-2.2v1.1h2.2M280.8 72l-.7.8.5.5m.5-1.3l.3.4m-.6 8.9l.5.3m.9-5.3v5.3h-.9"/><path class="st4" d="M281.8 76.8l.3-.2.1-.3m-.4.5h-.5m0 0l-.5.2m-.7 3.8l.2.6.4.2m0 0h.6m-.5 4.7l.5.2m.5 0h-.5m.9.4l-.1-.3-.3-.1m.4.4v-5.2h-.9m0 0l-.5.3m-.7 3.9l.2.4.4.2m0 0h.6m-1.2 25.7V97.1m1.2-.8l-.5.3m-.1-.3h.6m-.6 0l-.4.2-.2.6m1 21.6l.3-.3m-.6.3l-.7-.8.5-.4m.8.9l.7-.6m-1.4-42.1l-.4.2-.2.4m0 38.2v-2.3m0-15.1v-3.7m0-.4v-7.1m0-3.5v-1.6m0-3.4v-1.1m1.7-.6h-1.1m.9 39.5h.2m0 0l.3.1.1.2m0-40.2l-.1.2-.3.2m-.2 39.5h-.9m1.4-42.2h.1m-2.1 41.5l.2.5.4.2m.7-42.8l.7.6m-1.5.3l.7.6m0 0c.3.2.6.3.9.3m2.4 16.1h-2.4V88m0 2.6v-.3m0-15.1v1.1m2.4 5.3h-2.4m0 .1h2.4m-2.4 5.2V88m-1.5-6.3h.6m-.6-4.9h.6m-1.2 4v-3.4m.6-.6l-.4.1-.2.5m4.5-4.4h-2.4v2.2m-2.1 7.2v3.5m.6-4.2l-.4.2-.2.5m2.1 8.5v-.2m0 27.1h2.4m-2.4-1.2c-.3 0-.7.1-.9.3m.9.9h-.1m-1.5-.3l.7-.5m.9-22.9v-3.2m0 26.9v-2.6m0-19.4v19.4m-.4-18.9l.3-.1.1-.2m-1.4 16.7l.5.2m.5 0h-.5m.9.4l-.1-.3-.3-.1m0-16.6h-.5m-1.2 15.9l.2.6.4.1m0 0h.6m.9-17.1v-1.7m0 .9l-.1-.1-.3-.1-.3-.1m-.1-1.3l.4.3m-1.2.5l.9.5m.7-2.5l-.1.2h-.3m-.4-.4l.4.4m-.4-.4h-.4l-.2.2m0 .5v-.5m0 .5l.2.4.4.3m.4.3l.3.2.1.2m-2.1-.7V93m.1-.2l-.1.2m0 .4l.2.5.3.3m-.4-1.4l.6-.8m54-29.4v-1.1h-2.2v1.1h2.2m2.1-3.4v1.3h2.4v-1.3h-2.4m2.3-.9v-1.2H337v1.2h2.2m-2.2 3.2v1.1h2.2v-1.1H337m9.9-2.1v1.1h2.1v-1.1h-2.1m2.1 3.2v-1.1h-2.1v1.1h2.1m1.8-3.4v1.3h2.4v-1.3h-2.4m.1 2.3v1.1h2.2v-1.1h-2.2m5.7-7.7h-2.2v4h2.2v-4m.7 6.7v-1.1h-2.2v1.1h2.2m0 2.1v-1.1h-2.2v1.1h2.2m15.9 5.6h-1.1v2.2h1.1v-2.2m-84-.9v3.3h6v-3.3h-6m7.7 5.9h-1.1v2.2h1.1v-2.2m-4.2 5.6h-1.3v2.5h1.3v-2.5m2.2 2.7h-1.2v2.2h1.2v-2.2m.9-2h1.1v-2.1h-1.1v2.1m1.1 2h-1.1v2.2h1.1v-2.2m-.5 4.9v-1.2h-2.2v1.2h2.2m.4 1.3h-2.2v4h2.2v-4m-3.3 4.4h-5v7.6h5v-7.6m-3.8 9.4v1.1h2.2v-1.1h-2.2m7.1-8.1h-2.2v4h2.2v-4m0 5.8h-2.2v3.9h2.2v-3.9m70.1-.7h-1.3v2.2h1.3v-2.2m-1.3 6.3h1.3v-2.1h-1.3v2.1m2.1-.1h3.3v-6.1h-3.3v6.1m-73.1 4.1h2.2v-3.9h-2.2v3.9m-4.2-29.9h-1.2v2.2h1.2v-2.2m76.5 28.1h-1.3v2.2h1.3V107m4.1-38.3h-4.9v7.7h4.9v-7.7m0 38.4h-3.3v6h3.3v-6m-74.6 3.7h-1.2v2.1h1.2v-2.1m69.2 2.5h1.3v-2.2h-1.3v2.2m-70.9 5.5h2.3v-3.9h-2.3v3.9m-5.5 1.5v3.2h6v-3.2h-6m19.9 14.9h-1.2v2.1h1.2v-2.1m56.8-13.4h3.2v-6.1h-3.2v6.1m4.3 0h3.2v-6.1h-3.2v6.1m-64.4 7.6v-1.1h-2.2v1.1h2.2m4.2 0v-1.1h-2.2v1.1h2.2m-16.3-49.8h1.2v-2.3h-1.2v2.3m29-26.5V55h3.6v-1.9h-3.6M312 128.3v1.1h2.2v-1.1H312m5.2-75.2V55h3.6v-1.9h-3.6m-4.6 7.5v-2h-3.7v2h3.7m59.3 39.2h1.9v-3.6h-1.9v3.6m-55.7 28.5v1.1h2.2v-1.1h-2.2m1.9-70v-1.9h-3.6v1.9h3.6m-1.9 72.2v1.2h2.2v-1.2h-2.2m6.4 1.2v-1.2h-2.2v1.2h2.2m-3.2-71.6h2v-3.7h-2v3.7m1 68.2v1.1h2.2v-1.1h-2.2m4.3 0v1.1h2.2v-1.1h-2.2m-14.6 9.2h2.3v-4h-2.3v4m12.2-77.4h1.8v-3.7h-1.8v3.7m2.4 70.4v1.2h2.2v-1.2h-2.2m.3-70.4h1.9v-3.7H325v3.7m4 68.2v1.1h2.2v-1.1H329m11.6-66.2h1.9v-3.6h-1.9v3.6m-11.7 68.3v1.3h2.4v-1.3h-2.4m14.4-68.3h1.9v-3.6h-1.9v3.6m-10.2 66.2v1.1h2.2v-1.1h-2.2m33.5-34.7v1.2h2.3v-1.2h-2.3m-18.4-35.8h1.8v-3.7h-1.8v3.7M333 130.4v1.3h2.4v-1.3H333m18.3-72.6h1.9v-3.7h-1.9v3.7m-58 46.1h-4.9v8h4.9v-8m46.3 25.5v-1.1h-2.1v1.1h2.1m4.2 0v-1.1h-2.2v1.1h2.2m-35.9 3.6h1.2v-2.2h-1.2v2.2m5.4 4.5h2.1v-4h-2.1v4m53.3-41.6v1.2h2.3v-1.2h-2.3m-52.4 36.3v-2h-3.6v2h3.6m2.1 5.3h2.3v-4h-2.3v4m12.6-84.6v4.4h5.7v-4.4h-5.7m41.9 40.7v1.2h2.3v-1.2h-2.3m-33.4 36.6v2h3.6v-2h-3.6m-12.1 3.7v-1.1h-2.2v1.1h2.2m-32.5-50.1h-4.3v5.7h4.3v-5.7m79.4 20.2h1.2v-2.3h-1.2v2.3m-29.4 26.2v2h3.6v-2h-3.6m-13.5 7.8v-3.2h-6.1v3.2h6.1m36.9-46.2h7.4V81h-7.4v10.8m-36.7 42.1v-1.2h-2.3v1.2h2.3m-25.8 3.3h3.3v-6.1h-3.3v6.1m42.6.1V136h-2.4v1.3h2.4m-2.3-3.5v1.2h2.3v-1.2H344m15.4 4.5c0 .9.8 1.7 1.7 1.7.9 0 1.7-.8 1.7-1.7s-.8-1.7-1.7-1.7c-1 0-1.7.8-1.7 1.7m-37.9-4.5h-1.9v3.6h1.9v-3.6m29.1-3.6v3.3h6v-3.3h-6m-9.2 7.7v-4.4h-5.6v4.4h5.6m6.5-1.3h1.2v-2.2h-1.2v2.2m-44.5-82.2c0 .9.8 1.7 1.7 1.7.9 0 1.7-.8 1.7-1.7s-.8-1.7-1.7-1.7c-1 0-1.7.8-1.7 1.7m29.5 79H331v3.7h1.9v-3.7m23.7 4.5v-3.3h-6v3.3h6m18.1-31.9h-2.8v7.6h2.8V106m-14.5-54.4h-3.1v7.7h3.1v-7.7m-48.9 1.3v2.3h4v-2.3h-4m31.8 3.3v-3.3h-6v3.3h6M303 61.5v1.1h2.2v-1.1H303m4-1.1v-1.1h-2.2v1.1h2.2m.2 1.1v1.1h2.2v-1.1h-2.2m4.3 0v1.1h2.1v-1.1h-2.1m-1.2-5.1v1.1h2.2v-1.1h-2.2m5.3 2.8v1.3h2.4v-1.3h-2.4m.1 2.3v1.1h2.2v-1.1h-2.2m6.4 1.1v-1.1h-2v1.1h2m4.2 0v-1.1h-2.2v1.1h2.2m4.3-2.1v-1.3h-2.4v1.3h2.4m4.2-.1v-1.1h-2.2v1.1h2.2m-47.4 73.8c0 2.9 2.3 5.2 5.2 5.2s5.2-2.3 5.2-5.2-2.3-5.2-5.2-5.2c-2.9 0-5.2 2.3-5.2 5.2m0-77.5c0 2.9 2.3 5.2 5.2 5.2 2.9 0 5.2-2.3 5.2-5.2s-2.3-5.2-5.2-5.2c-2.9 0-5.2 2.3-5.2 5.2m77.5 77.5c0 2.9 2.3 5.2 5.2 5.2 2.9 0 5.2-2.3 5.2-5.2s-2.3-5.2-5.2-5.2c-2.8 0-5.2 2.3-5.2 5.2m.1-77.6c0 2.9 2.3 5.2 5.2 5.2 2.9 0 5.2-2.3 5.2-5.2s-2.3-5.2-5.2-5.2c-2.9 0-5.2 2.3-5.2 5.2m-14.7 85.3c-.1-.8-.8-1.4-1.7-1.4-.8 0-1.6.6-1.7 1.4m0-.1l-.1.1m-.4.2c.1 0 .2 0 .3-.1m-57 .1h56.7m-61.8-5.2c0 2.9 2.3 5.2 5.2 5.2m-5.2-88.2v83m5.2-88.3c-2.9 0-5.2 2.3-5.2 5.2m37.5-5.1h-32.4m32.8.2c-.1-.1-.2-.1-.3-.1m.3.1l.1.1m.1-.1c.1.8.8 1.4 1.7 1.4.8 0 1.6-.6 1.7-1.4m0 .1l.1-.1m.4-.2c-.1 0-.2 0-.3.1m46.5-.1h-46.3m51.6 5.2c0-2.9-2.3-5.2-5.2-5.2m5.2 88.2v-83m-5.3 88.2c2.9 0 5.2-2.3 5.2-5.2m-27.2 5.2h22m-22.4-.1c.1.1.2.1.3.1m-.2-.1l-.1-.1M62.3 127.5v-1.2h-2.2v1.2h2.2m-1.4 3v-1.2h-2.2v1.2h2.2m-.8-5.8v-1.2h-2.3v1.2h2.3m-1.8 2.8v-1.2H56v1.2h2.3m46.9-39.6v-1.2H103v1.2h2.2M98 123.2h1.2V121H98v2.2M86.7 90.5h1.2v-2.2h-1.2v2.2M55.2 52.3H54v2.2h1.2v-2.2m37.3-.2v1.2h2.2v-1.2h-2.2m2.7 2.6H94v2.2h1.2v-2.2M99 81.2h-1.9v3.6H99v-3.6M55.2 64.3H54v2.3h1.2v-2.3M107.1 86v1.9h3.6V86h-3.6M55.2 56.3h-1.1v2.2h1.1v-2.2M40.3 69.1h1.2v-2.3h-1.2v2.3m41.1 24.1v1.9h3.5v-1.9h-3.5M92 77.9h1.2v-2.1H92v2.1m-36.8-5.5H54v2.2h1.2v-2.2m24.6-22.9v1.2h2.1v-1.2h-2.1m17.5 43.6h1.9v-3.6h-1.9v3.6m-21.7-2.9h1.2V88h-1.2v2.2M42.3 78.8V80h2.2v-1.2h-2.2m8.2 0V80h2.2v-1.2h-2.2m33.4 46.9v5.3h3.7v-5.3h-3.7M40.3 77.3h1.1v-2.2h-1.1v2.2m61.8 12.2h-1.9v3.6h1.9v-3.6M39 100.1h-1.2v2.2H39v-2.2m7.4-21.3V80h2.2v-1.2h-2.2m47.6.5h1.2v-2.2H94v2.2m-42 45.4v-1.2h-2.2v1.2H52M39 88h-1.2v2.2H39V88m68.7 11.8v-5h-7.6v5h7.6M79.6 107h-1.8v3.6h1.8V107m-41.8 7.4H39v-2.2h-1.2v2.2m37.8-16.1h1.2v-2.2h-1.2v2.2m34.2-6h1.2v-2.1h-1.2v2.1M85.4 101h-4.8v7.9h4.8V101m15.6 6h-4.8v7.9h4.8V107m-25.4-4.7h1.2v-2.2h-1.2v2.2m33 6.5v-3.2h-6v3.2h6M94.8 115h-3.2v6h3.2v-6m-17-18.2H79v-2.2h-1.2v2.2m38.4-33.1h-3.6v3h3.6v-3M90 120.2v-3.3h-6v3.3h6m-7.5.6h-4.8v7.8h4.8v-7.8M77.8 101H79v-2.3h-1.2v2.3M42.3 63.8v14.1H53V63.8H42.3m63.1 55.7h-3.3v6h3.3v-6m-51.9 14.3v3.3h6v-3.3h-6m36.1-37h-1.2v2.3h1.2v-2.3M56.2 86.5h34.7V51.8H56.2v34.7m12.2 39.6h-4.8v7.9h4.8v-7.9m27-22.2h1.2v-2.3h-1.2v2.3m7-30.8h3.6v-2.9h-3.6v2.9m7.4 1.8H106v8.9h3.8v-8.9m-30.2 59.2v3.2h6v-3.2h-6m-2.8-25.9h-1.2v2.2h1.2v-2.2m7 4.4v1.2H86v-1.2h-2.2M107 73.1h3.6v-2.9H107v2.9M40.6 84.7h6.9v-3.6h-6.9v3.6m48.7 3.6v5.9h4.5v-5.9h-4.5m-1.4 45.8v3.2h6v-3.2h-6m-11.1-21.9h-1.2v2.2h1.2v-2.2m13.3 3.7v-1.2h-2.2v1.2h2.2m-34.3 14.6v-1.2h-2.2v1.2h2.2m-7.5-45.8h6.9v-3.6h-6.9v3.6m57.9 52.1h5v-7.5h-5v7.5m-51.9-9.3v-1.2H52v1.2h2.3m49.1-34.7h5.1v-3.4h-5.1v3.4M56 124.7v-1.2h-2.2v1.2H56m35.6-29.1v4.3h5.7v-4.3h-5.7m9.6 21.3H100v2.2h1.2v-2.2M74.6 87.8H39.9v34.7h34.7V87.8m-10.5 36.9v-1.2h-2.3v1.2h2.3m42.8-23.7v3.6h2.9V101h-2.9m-41.3 34.3v1.1h2.2v-1.1h-2.2m21.2-29.2v5.3h3.7v-5.3h-3.7m-5.1 25v-1.2h-2.2v1.2h2.2m20.5-21v5.3h3.7v-5.3h-3.7m-8.8 22.6h1.2v-2.2h-1.2v2.2m-11.2-19.9h-4.3v5.6h4.3v-5.6m-12.5 17.1v5.3h3.6v-5.3h-3.6m25.9 7h1.2v-2.2h-1.2v2.2m9.3-4v-5.4H96v5.4h8.9m-28.1-16.7h-1.2v2.2h1.2v-2.2m16.4-61.5H92v2.2h1.2v-2.2M92 82.1h1.2v-2.2H92v2.2m-15.2 10h-1.2v2.1h1.2v-2.1m3.8 4.1v3.2h6v-3.2h-6m2.3 14.2v1.1h2.2v-1.1h-2.2M53.8 49.6c0-.9-.8-1.7-1.7-1.7s-1.7.8-1.7 1.7.8 1.7 1.7 1.7c1 0 1.7-.8 1.7-1.7M111 63.8V53.2H96.8v10.6H111m14.8 57c0-.9-.8-1.7-1.7-1.7-.9 0-1.7.8-1.7 1.7 0 .9.8 1.7 1.7 1.7 1 0 1.7-.8 1.7-1.7M92.4 49.2v2h3.8v-2h-3.8M55.2 60.3h-1.1v2.2h1.1v-2.2M41.6 85.6v1.1h2.2v-1.1h-2.2m36.1 7.2H79v-2.4h-1.3v2.4m31.6 5.2h1.2v-2.2h-1.2V98m-23.4 17.8v-1.1h-2.1v1.1h2.1M93 62.7h2.2v-3.9H93v3.9m-45.1 24v-1.1h-2.2v1.1h2.2m32.4 2v-1.1h-2.2v1.1h2.2m-42.5 17.6H39v-2.1h-1.2v2.1m50.1 6.3v1.2h2.2v-1.2h-2.2M63.6 49.5v1.2h2.2v-1.2h-2.2M41.4 71h-1.1v2.1h1.1V71m8.4 14.6v1.1H52v-1.1h-2.2m34.6 3.1v-1.1h-2.2v1.1h2.2m-7.6 15.5h-1.2v2.1h1.2v-2.1m18.3 2.2h-3.3v6h3.3v-6M67.7 49.5v1.2h2.1v-1.2h-2.1M55.2 68.4h-1.1v2.2h1.1v-2.2M92 86.2h1.2V84H92v2.2M85.1 92v-2.2h-3.9V92h3.9m-6.2 10.9h-1.1v2.1h1.1v-2.1m31.6 7.8h-3.3v6h3.3v-6m-36.6-60v-1.2h-2.2v1.2h2.2M94 74.1l.8-.8-1.5-1.5-.8.8 1.5 1.5m0 11.1h2.3v-4H94v4m2.4 4.6h-1.1V92h1.1v-2.2m-2.9 15.1v-3.3h-6v3.3h6M39 116.2h-1.2v2.2H39v-2.2m61.1 7h1.1v-2.1h-1.1v2.1m2.6-6.4v1.1h2.1v-1.1h-2.1m10.2 4.9v-3.3h-6v3.3h6m-37.3 1h1.2v-2.2h-1.2v2.2m-2.5 1.9v-1.1h-2.2v1.1h2.2m-6.7-1.1v1.1h2.2v-1.1h-2.2m-5 13h1.2v-2.2h-1.2v2.2M90 124.4v-3.2h-6v3.2h6m-14 4.4v-3.2h-6v3.2h6m17.3-.3h1.3v-2.4h-1.3v2.4m5-3.4v1.3h2.3v-1.3h-2.3m13.4-.3v-1.9h-3.6v1.9h3.6m-.7 2.7v-1.1h-2.2v1.1h2.2m-33.1 3.1h-3.2v6h3.2v-6m6.7 1.4v1.2h2.2V132h-2.2m-5.1 0v1.2h2.2V132h-2.2m12.5-5.7h-3.3v6H92v-6m-8.2-76.8v1.2h2.1v-1.2h-2.1m14.7 84.6v3.2h6v-3.2h-6M55.2 76.5h-1.1v2.1h1.1v-2.1m15.2 59.7v1.2h2.2v-1.2h-2.2m5.3-86.7v1.2h2.2v-1.2h-2.2M37.8 94.2H39v-2.1h-1.2v2.1m57.5-21.5l.8-.8-1.5-1.5-.8.8 1.5 1.5M37.8 98.3H39v-2.2h-1.2v2.2m63.4-13.4h-1.1V87h1.1v-2.1m-63.4 25.5H39v-2.2h-1.2v2.2m50-17.8h-1.1v2.1h1.1v-2.1m16.5 11.8v-3.3h-6v3.3h6m-66.5 18H39v-2.1h-1.2v2.1m11.1 9.2c0-2.8-2.3-5.1-5.1-5.1s-5.1 2.3-5.1 5.1 2.3 5.1 5.1 5.1 5.1-2.3 5.1-5.1m0-76.9c0-2.8-2.3-5.1-5.1-5.1s-5.1 2.3-5.1 5.1 2.3 5.1 5.1 5.1 5.1-2.2 5.1-5.1m76.8 0c0-2.8-2.3-5.1-5.1-5.1s-5.1 2.3-5.1 5.1 2.3 5.1 5.1 5.1c2.8.1 5.1-2.2 5.1-5.1m0 76.9c0-2.8-2.3-5.1-5.1-5.1s-5.1 2.3-5.1 5.1 2.3 5.1 5.1 5.1 5.1-2.3 5.1-5.1m-59 7.6c-.1-.8-.8-1.5-1.7-1.5-.8 0-1.6.6-1.7 1.5m3.5.1l-.1-.1m.1.1c.1.1.2.1.3.1m56.2.1H67.2m56.1 0c2.8 0 5.1-2.3 5.1-5.1m0-82.4v18.9m0 44.5v18.9m0-82.3c0-2.8-2.3-5.1-5.1-5.1m-32.1 0h32.1m-32.1 0c-.1 0-.3 0-.3.1m-3.6.1c.1.8.8 1.5 1.7 1.5.8 0 1.6-.6 1.7-1.5m-3.5-.1c-.1-.1-.2-.1-.3-.1m-45.9 0h45.8m-45.8 0c-2.8 0-5.1 2.3-5.1 5.1m-.1 82.3V52m0 82.3c0 2.8 2.3 5.1 5.1 5.1m21.9.1H41m21.8 0c.1 0 .3 0 .3-.1m.2-.2l-.1.1m55.6-50.4v.4m0 3.4v.3m13.1-23h.3m-.3 46.3h.3m.1-42.1v37.9m-.1-38.3l.1.4m-.1 38.3V73.8m.1 38.3l-.1.4m.7-41.7l-.7-.8m-1.3 45.4l.7.6.3.3m-.2-42.7l.5.2m-1-.2h.5m-.9-.4l.1.3.3.1m-.4-.4v39.9m.4-.3l-.3.1-.1.2m.4-.3h.5m.5-.3l-.5.3m.6-39.2l.4.2.2.4m-1.2-.6h.6m.6 38.5V74.2m-13.4 14.6c0-.3-.2-.5-.5-.5m.5.5l-.1.3-.4.2m-1.5-3.5h-3.7m0 0v-3.4h.1m-.2-5.8v1.2m0 0l.1.2.2.1m0 0h1.3m0 0l.2-.1m.1-.5l-.1.2m.1-2.2v2m0 33.5l.1.2.5.9m.9.2c.1 0 .2 0 .2-.1.1-.1.1-.2.1-.2m-1.8-1.2v.2m1.9-28.6v-7.9m-3.6 7.9h3.6m-.2 6.9h1.7m-1.7 3.4h1.7m0 0l.4.1.1.4m11.3-20v-2.3M119 88.2h-1.5m10.5 21.1v2.2h-.3v-2.2h.3m3.7 3.5h.6m-1.5-41.9h.1m-13.4 26.6v-3.8m0-5.5v-2.4m14.1-15.5l.3-.3m.5 1.2l.5-.4m0 41.3l-.2.4-.4.3m-.7-42.5l-.7.6m-.1 1.3c.3 0 .7-.1.9-.3m.7-.7l-.7.6m-16.1 3.6l.2-.2m-2.1 1.4v-1.4m3.7-.7c0-.2-.1-.3-.3-.3m9.5 37l.1.3v.4l-.2.2m.1-.9c-.1-.3-.4-.4-.7-.4-.3 0-.6.1-.7.3"/><path class="st4" d="M125 111.5v-.2l.2-.2m2.5.7v-.3m-9.1-18.6v-.2m0-3.4v-.2m-1.3 3.8h1.3m-3.5 3.9h.7m3-3.8v.7m-3.5 6.5l.3.1.2.2m10.6 8.2c-.2 0-.3.1-.3.3m1.9.3h1.3m-1.6 0v-.2m-2 2.4h-2.9m-.4-.3c0 .2.2.3.3.3m5.3 0h1v-2.2m-13.2-5.2l-.2.2-.3.1m10.7 7.5c0 .2.2.3.3.3m2.7-.7h.3v-2.2m-6.9.4v1.5m3.6.7c0-.2-.2-.3-.3-.3m-11.8-7.2h1.4m-1.6 11h17.1m-8-22.4c-.2 0-.3.2-.3.3m3.2-.3c.2 0 .3-.1.3-.3m5.7 21.8c-.3-.2-.6-.4-.9-.4m1.4 2.2l.7-.8-.5-.4m-17.3-11.4v-2.8m-1.2 0v2.8m0-3.5h1.4m0 0l.5.3m-1.9-3h1.9m-2.1-24.3v-2.3h17.1M126 95.6c0 .2.2.3.3.3m-10.5 8.2l.2-.4"/><path class="st4" d="M116 103.7l-.2.4-.5.3m2.2 2.7h-3.6l-.1-3.1m8.6-9.1c0 .2.2.3.3.3m-9 20.2v-2.3m17.1 2.3v-2.3M119 93.7c.3 0 .5-.2.5-.5m-3 19.1h.6m-3.4-39.1v2m2.8-1.1c-.1 0-.3.1-.3.2m0 0l-.4.9m1.3-1.1h-.6m9.2 35.2h-2.9M128 93h-.3v2.3h.3V93m-.3 2.5v-.2m-2-2.3h-2.9m4.6-.6h-1m1.6.6h1.3m-1.6 0v-.2m-11.7 8.1l-.2-.4m.2.4l-.2-.4m9.9-5.2h-2.9m3.6-2.9c-.2 0-.3.1-.3.3m1.3 3.2c.2 0 .3-.2.3-.3m-13.8 8.8v-.7m1.2.7v-.7m17.3 11.4l-.7-.6m-.8.9h-.1m-3.1-22.6c0-.2-.2-.3-.3-.3m-11.2 19.6c.1.1.2.2.3.2m-2.5-4.1h1.3m-1.6 1.5v-1.2m1.9 1.2v-.8m-.1-.3l.1.3m-.3-.7l.2.1m-1.8.2l.1-.2.2-.1m1.6 2.6v-1.1m-1.9 1.5v-1.5m1.4-8.8v-.7m-1.2.7v-.7M129 93v2.3h.3V93m-1.3 2.3h1m-2.6.6h1m-5-2.5v1.5m3.6.7c0-.2-.2-.3-.3-.3m-8.2 11.8v4.8m0-14.4h-1.7m-2 6.5v-3.4l.1-3.1m2.1 6.2v-2.8m0 0v2.8m11.4 8.4c.2 0 .3-.2.3-.3m-8.9-23.6v.7m-3 15.2v-3.6m-.7-3.7v.7m0 2.7v4.2m0 2.7v.7h.4m.3 0v-.7m0-9.6v-.7m-.7 0v-1.3h-1.4v-8.8h2.1v-.9m2.8 3.3h-1.3v3.8m-2.2 14.9v.4m.4.4v-.8h.3m1.9-18.5v-.2m.9 3.8l.2.1m-.2-3.9l.2-.2m-5.1 22.3v1.9m3.8-19.4h1.5m3.8 15.6c-.2 0-.3.2-.3.3m3.2-.3c.2 0 .3-.1.3-.3m-10.9-27v.4m0 3.4v.9m0-8.6V82m0-3.1h-1.4v.8h1.4m.4-2v.8m-.4 0h1.8m-1.1 3.9V82m1.1-3.5l.4.4v2.7l-.4.4h-1.8m0 0h-1.4"/><path class="st4" d="M115.1 97.4h-1.4v.9h.2m-.2 1.3h.2m-.1.9l-.1-.9m.2 5.4h-.2v-.9m0 2.2h.2m1.2.9h-1.4v-.9m.1-22.1l-.1-.9h.1m-.1-1.3v-.9h1.4m-1.3 20.8l-.1.8m12.7 9.4h1m.3-3c0-.2-.2-.3-.3-.3m0-.1h-1m-8.7-15.8v-.2"/><path class="st5" d="M43.9 162.1v-30.5m76.4 30.5v-30.5"/><path class="st6" d="M45.6 160.1h73.3m-81.2 14.8h89m-86.5 15.3h89.1m-.8-14.2v-41.2m-92.8 56.5v-59.4m97.2 59.3v-80.3m56.2-63.6h-64.3m64.1 92.4h-65.7m45.7-7.6h-48.6m31-73.4H91.2m78.3-4h-56m54.3 2.2v73.3"/><path class="st5" d="M43.9 162.1v-30.5m76.4 30.5v-30.5"/><path class="st6" d="M15.3 34.3H44"/><path class="st7" d="M35.7 34.2l-5.9-1v2z"/><path fill="none" stroke="#000" stroke-width=".283" stroke-miterlimit="10" stroke-dasharray="3.431,1.716,.858,1.716" d="M43.9 132v6.9"/><path class="st5" d="M43.9 139.7v2.9"/><path fill="none" stroke="#000" stroke-width=".283" stroke-miterlimit="10" stroke-dasharray="3.296,1.648,.824,1.648" d="M118.7 132h6.6"/><path class="st5" d="M126.1 132h2.8"/><path fill="none" stroke="#000" stroke-width=".283" stroke-miterlimit="10" stroke-dasharray="3.432,1.716,.858,1.716" d="M120.3 130.3v6.9"/><path class="st5" d="M120.3 138v2.9M43.9 55.2V58"/><path class="st7" d="M132.7 190.1l-6-1v2zm-4.3-15.1l-6-1v2zm-8.1-14.9l-6-1v2zM103.7 58.4l3.8-4.7-1.8-1z"/><path class="st6" d="M149.8 64.6v97.2"/><path class="st7" d="M149.8 131.6l1-6h-2zm0-72.5l1 5.9h-2zm0 80.5l1 5.9h-2zM35.9 190.1l6-1v2zm.3-15.1l5.9-1v2zm7.8-14.9l6-1v2zM167.8 55.2l1 5.9h-2zm0 76.8l-1-6h2z"/><path class="st6" d="M187.1 49v88.8"/><path class="st7" d="M187.1 47.4l1 5.9h-2zm0 92.2l-1-6h2z"/><text transform="translate(73.712 188.336)" class="st2 st11">28.3</text><text transform="translate(77.465 173.018)" class="st2 st11">27</text><path class="st6" d="M48.2 34.3h51.3M35.7 52.4V32.6m8.2 22.6V32.1"/><path class="st7" d="M103.5 34.2l-6-1v2zm-59.6 0l5.9-1v2z"/><text transform="translate(66.114 32.43)" class="st2 st11">17.6</text><text transform="translate(15.355 32.43)" class="st2 st11">2.3</text><text transform="rotate(-90 154.781 7.398)" class="st2 st11">2.3</text><path class="st6" d="M118 34.4l-12.7 21.1M118 34.4h42.3"/><text transform="translate(117.56 31.479)" class="st2 st11">I/O Center</text><text transform="rotate(-90 133.492 -31.91)" class="st2 st11">22.4</text><text transform="rotate(-90 140.877 -43.048)" class="st2 st11">27</text><text transform="rotate(-90 127.152 -20.944)" class="st2 st11">21.3</text><text transform="translate(73.712 158.114)" class="st2 st11">22.4</text><path class="st6" d="M103.5 67.3V32.1"/><path fill="none" stroke="#000" stroke-width=".283" stroke-miterlimit="10" stroke-dasharray=".701,1.402" d="M44 59.4v1.4"/><path class="st5" d="M44 61.5v2.8m-8.1-9.6h2.9"/><path class="st13" d="M40.2 54.7h1.5"/><path class="st14" d="M42.4 54.7h5.9"/><path class="st5" d="M49 54.7h2.9m68.7-7.8v2.8"/><path class="st13" d="M120.6 51.2v1.5"/><path class="st14" d="M120.6 53.4v5.9"/><path class="st5" d="M120.6 60v2.8m-76.8 62.3v2.9"/><path class="st15" d="M43.8 129.7v1.7"/><path class="st5" d="M111.6 132.3h2.9"/><path fill="none" stroke="#000" stroke-width=".283" stroke-miterlimit="10" stroke-dasharray=".824,1.648" d="M116.1 132.3h1.7"/><path class="st5" d="M120.3 123.4v2.9"/><path class="st15" d="M120.3 128v1.7"/><path class="st5" d="M35.7 131.7h2.9"/><path class="st13" d="M40 131.7h1.5"/><path class="st14" d="M42.2 131.7h5.9"/><path class="st5" d="M48.8 131.7h2.9"/><path class="st17" d="M245.2 59.7v68.5h-.3v-5m0-34.6V64.8"/><path class="st17" d="M244.9 64.8v-5.1h.3m-8.7 4h-7.2V124h7.2m8.7-30.6v.2m1.6-22.8h-1.6m0 46.2h1.6m3.2-3.8V74.6m-3 42l-.2.4m.2-.4v-.5m2.7-41.7l.3.2m-.6-.2h.3m-.5-.5l.1.4.1.1m0 39.1l-.1.1-.1.2m.2-.3h.3m.3-.3l-.3.3m-.5-24v-.6m0 .6v.5m-1.9-3.5h1.9m-4.9 0h.6m.3 0h2.1m-3-3.3h.6m.3 0h2.1m1.3-5.8l-.9 1.2-.4.2m.7-4.8c0-.6-.5-1-1-1m0 41.9c.6 0 1-.5 1-1m-.7-30.7h1.9v-7.3M246 90h-.8m2.8 0h1.2m-1.2 3.4h1.2m0 0v.5m0 0v-4.4m-3.7 1.2v2m.5.7h-.8m2.8-4.5h1.2m.4 21.1h.1v2.3h-.1zm-4.1-19.3l.1-.5.4-.2m0 3.4l-.4-.2-.1-.5m1.5-20.9v-.2m1 40.3c0-.2-.1-.5-.2-.7m-.1-34.6c.2-.2.3-.4.3-.7m1.2 22.3v-3.7H248m1.2-5.6v-2.4M247 71.1l-.2-.3m.2.3v.5m-.5 6.5l.8.7m.5-2.2l-1.1 1.2-.2.3m2.1-.7c.4-.4.6-.9.6-1.5m-1.4 35.3l-1.1-1.2-.2-.3m.5 5c.6 0 1-.5 1-1m-1 1h-1.8m.8-21.1h-.8m2.8 3.9h-1.3m1.3 14.4v.6m-.2-11.5h.2v.2m1.2 8.8h.4m-.4 2.3h.4m-1.6-7.5v.2h-.2m-.8 0h2.2m-2.2 11.1h-1.8m1.8-1.3h-1.8m1-13.2v2.8m1.1-3.4h1.9m0 0v.2m0 0v-3h-1.9m1.9-24.2c0-1.2-1-2.2-2.2-2.2m2.2 33v.2m0-.6v.4m-4 3h4m-2.2 8.3c1.2 0 2.2-1 2.2-2.2m-2.2-41h-1.8m-.3 0h-.6m2.7-1.1h-1.8m-.3 0h-.6m4.9 22.1v.6m0-20.6v2m-1.2-2v.1m0 .6v1.3m1.6 17.8h.1V96h-.1zm-.4 0h.4m-.4 2.3h.4m-.4 5.6v-.4M247 105l-.5-.1-.3-.5m1.2 4.5l-.9.8m2.1.7l-.9-1.3-.3-.2m1.8 3c0-.5-.2-1-.5-1.4m-2.5-8.9l.3-.5.5-.1m2.2 6.8v4.1m-4-13.7h2.1m0 2.8h-.3m2.2 6.8v-3m0-3.2v2.8m-1.2.4v-3.6m-1.3-3.7v.7m0 2.8v4m0 2.8v.7h.6m.7 0v-.7m0-9.6v-.7m0 0v-11"/><path class="st17" d="M246.7 108.5h-.7v1.3l1.8 2.1m-.5-3.4h.7v1.2m0 2.9c0-.2-.1-.5-.2-.7m-2.6-2.1h.8m-.5-19.8v-.2m1.5-16.7h-1.8m-.3 0h-.6m3.7 1c0-.6-.5-1-1-1m-1 20.5v-3.8h-.8m2.8 23.9v.1m1.2-1.9v1.9M248 74.6h-2.8m-.3 0h-.6m2.4 8.1v.5m0 3.3v.9m0-4.7h2v-3.5H246v-1.3l1.8-2m-.1-.1c.2-.2.2-.4.2-.7m.1 3.1v1.1m0 3.9v-.5m0 4.7h-2.8m-.3 0h-2.8m3.1 8.8h2.8m1.2-13v3.3m-3.7 7.1v-.2m-9-36.3h-1.1v-.5m1.1 1.5h-1.3v1.3h1.3m0-2.8h-2.3m2.3-3.9h-2.3v3.9"/><path class="st17" d="M236.5 58.3h-1.1v1.1h1.1m0 .8h-1.1v1.2h1.1m0 7.7h-1.1m1.1-2.1h-1.1v2.1m5.7 18.6v.7m-.8-33.2h.8v-2.1h-.8m1.8 34.1v1.4m-1.8-29.3h1.1v-2.2h-1.1m0 10.5h.8m-.8 2.2h.8v-2.2m-4.6 35.6h-1.1v-.1m-.8-6h-1.4v6h3.3m3.8-22.3h.8v-1.2h-.8m0-3.7h1.1m-1.1 2.2h1.1v-2.2m-1.1 27.2h1.1v-2.2h-1.1m0-10h1.1v-2.1h-1.1m0 24.1h1.1m-1.1 2.2h1.1v-2.2m-4.9-7.6h-1.1v.1m1.1-30.4h-3.6m2.5-7.5h-2.5V75m3.6 36.4h-3.3m3.3-6h-3.3v6m3.3.1h-1.1v-.1m7.6 11.8v3"/><path class="st17" d="M240.3 78.6h1.9v-14h-1.9m2.7 61.5h.5v-2.9m-3.2-70.6h4"/><path class="st17" d="M241.4 87.2h2.9V52.6m-2.6 82h1.3v-7.9h-1.6m-4.9-12.7h-3.3v6h3.3m4.9 17.9h2.1v-3.2h-.1m-3.1-52.8h1.6"/><path class="st17" d="M240.3 85.4h1.6v-3.5m-1.5 55.9h1.3v-3.7h-1.4m3.1-4.2h.5m-.4 7.5h.4v-7.5m-7.4-35.2h-1.9v3.6h1.9m3.8 25h.8v-.1m-.8 0h4.6V88.6h-4.6m0 36.7h.8v-.1m-6.5-67.9v-.7"/><path class="st17" d="M241.7 135.8h.7v-1.2m-5.9-77.3h-1.9v3.6h.8m1.1 65.4h-1.1v1.2h1.1m0-33.1h-1v.3m-1.3 37.9v-1m2.3-39.5h-1v1.2h1m0 6.8h-1v2.3h1m-.3 33.7h-3v-.2m11.1-71.3h.6m.3 0h11.5V54h-12.4m-7.8 25.7h-2.1v10.6h2.1m3.8 47.7h.1v-3.4h-.1m-7.1-5.4v6m3.3-3.5h-1v.8m1 5.5h-.3v-3.4h.3m3.8-82.5h1.9V50h-1.9m-3.8 78.4h-3.3v3.2h3.3m3.8-68.3h1.1v-2.2h-1.1m0 26.3h1.1v-1.1h-1.1m-5.9 46.3v-1m2.1.9h-1v.1m1-81h-.3v.3"/><path class="st17" d="M236.5 132.6h-3.3v3.3h3m4.1-47.5h1.1v.2m-1.1 16.3h1.1m-1.1 2.2h1.1v-2.2m-1.1-53.4h1.1v-1.2h-1.1m0 23.6h1.1v-2.1h-1.1m0 47.3h1.1V117h-1.1m0 8.2h1.1v-1.1h-1.1m0 3.4h1.1v-1.2h-1.1m2.7-1.2h.4v-1.9"/><path class="st17" d="M243 129.5h.4v-3.3h-3.1m0 6.6h1.3v-1.3h-1.3m0-.7h1.1m-1.1 2.1h1.1m0-2.1v.7m0 1.3v.1m.3 4.4h1.7v-6h-.4m.4-1.8v1.8m-6.9-26.9v7.5m3.8-32.5h1.1v-.8m-1 59.4h1v-.2m-4.9-87.2v7.5m3.8 34.7h1.1m-1.1 2.2h1.1v-2.2m-1.1 4.1h1.1m-1.1 2.1h1.1v-2.1m-4.9-45h-3.3v3.2h1m6.1 32.6h1.1v-.3m-1.1 21.5h1.1m-1.1 2.2h1.1v-2.2m-1.1 12.1h1.1m-1.1 2.2h1.1V121m-4.9 19.1h3.8V47.6h-3.8v92.5"/><path class="st6" d="M233.6 19.9h21.2M189 35.1h65.8m1.7 19.7V19.2M240 47.6V33m-3.5 14.6V33m-7.3 30.7V38.5m0-9.3V18.4"/><path fill="none" stroke="#fff" stroke-width="1.417" stroke-miterlimit="10" stroke-dasharray="5.669,2.835,1.417,2.835" d="M220.5 93.9H262"/><path fill="none" stroke="#000" stroke-width=".283" stroke-miterlimit="10" stroke-dasharray="5.669,2.835,1.417,2.835" d="M220.5 93.9H262"/><path class="st7" d="M256.3 19.9l-6-1v1.9zm-27.1 0l6-1v1.9zm7.4 15.2l-5.9-1v2zm2.8 0l5.9-1v2z"/><text transform="translate(191.302 32.076)" class="st2 st11">max. 1.1</text><text transform="translate(240.129 16.487)" class="st2 st11">8</text><path class="st6" d="M245 161.7h29.7v-.1l17.3-26.4"/><path class="st7" d="M292.9 134l-4.1 4.4 1.7 1.1z"/><path class="st6" d="M326.5 35.2h48.8m2.8 17.6V32.7m-53.6 18.9v-18"/><path class="st7" d="M378.1 35.3l-6.1-1v2zm-53.7 0l6.1-1v2z"/><text transform="translate(341.805 33.342)" class="st2 st11">15.5</text><path class="st6" d="M350.8 162.8h25m2.3 2v-28.3m-29.5 28.3v-24.2"/><path class="st7" d="M378 162.9l-6.1-1v2zm-29.4 0l6.1-1v2z"/><text transform="translate(357.423 160.668)" class="st2 st11">8.5</text><text transform="translate(246.791 158.653)" class="st2 st11">4 x</text><text transform="translate(261.299 158.653)" class="st2 st11">Ø</text><text transform="translate(268.3 158.653)" class="st2 st11">3</text><path class="st6" d="M292.4 168.8h37.9v-.1l17.3-26.4"/><path class="st7" d="M348.5 141.1l-4.1 4.4 1.6 1.1z"/><text transform="translate(293.646 165.741)" class="st2 st11">2 x</text><text transform="translate(308.153 165.741)" class="st2 st11">R 0.5</text></svg>