<svg version="1.1" id="Ebene_1" xmlns="http://www.w3.org/2000/svg" x="0" y="0" viewBox="0 0 1456 842.8" style="background-color:#fff" xml:space="preserve"><style>.st1{fill:none;stroke:#000;stroke-width:.5;stroke-linecap:round;stroke-linejoin:round}.st3{fill:#1a1a18}.st4{font-family:Helvetica,Arial,sans-serif}.st5{font-size:32px}.st6{fill:#1d1d1b}.st11,.st13,.st7,.st9{fill:none;stroke:#000;stroke-linecap:round;stroke-linejoin:round}.st9{stroke-width:.55}.st11{stroke-width:.51}.st13{stroke-width:.53}</style><g id="C10-0814-2M"><path fill="#f2f2f2" stroke="#000" stroke-width="3" stroke-linecap="round" stroke-linejoin="round" d="M251.9 761.2l-4.5-3.2V164.5l3.3-3h59.8l73.8 73.5H404l1.3 1 1-1h36.8l1 1v8.7h3V235h72.8l1 1v9.7h10.3V236l1.4-1h230.1l5.3 5.3V255h31.8v-13.7l6.3-6.3h41.8l6.3 6.3v49.1h3.3v41.4h10.4v-4.3h25.4l6.3 6.3v8.4H930V580h-30.4v8.3l-6.3 6.4h-25.4v-4h-10.4v41.4h-3.3v49.1l-6.3 6.3h-41.8l-6.3-6.3v-13.7H768v14.7l-5.3 5.3H532.6l-1.4-1.3v-9.4h-10.3v9.4l-1 1.3h-72.8v-9.7h-3v8.4l-1 1.3h-36.8l-1-1.3-1.3 1.3h-19.7l-72.6 73.7z"/><path class="st1" d="M931.3 580.2V342.3m-36.7 252.6V327.6m6.4 260.9V334m-31.8 260.9V327.6m-10.3 304.7V290.2m-51.5 397.2V235.1m-6.3 446.3V241.5m48.1 445.9V235.1m6.3 446.3V241.5M533.8 687.4V235.1m-1.3 451.3V236.1M764 687.4V235.1M521.2 687.4V235.1m1 451.3V236.1m-73.9 451.3V235.1m321 447.3v-442m-361.7 447V235.1m-1 451.3V236.1m37.7 451.3V235.1m1 451.3V236.1m-40 451.3V235.1m-19.8 452.3V235.1M251.9 761.2V161.6m-3.3 596.3V164.6m63.1 596.6V161.6M901 342.3h30.3M901 580.2h30.3m-30.3 8.3l-6.4 6.4M901 334l-6.4-6.4h-25.4m0 267.3h25.4M858.9 332h10.3m-10.3 258.8h10.3m-13.7-300.6h3.4m-3.4 342.1h3.4m-57.8-390.8l6.3-6.4m-6.3 446.3l6.3 6m0-452.3h41.8m-41.8 452.3h41.8l6.3-6m0-439.9l-6.3-6.4m-79.9 20h31.8m-31.8 412.6h31.8M532.5 236.1l1.3-1m-1.3 451.3l1.3 1m0-452.3H764M533.8 687.4H764m-241.8-1l-1 1m1-451.3l-1-1h-72.9m0 452.3h72.9m248.1-5l-5.3 5m5.3-447l-5.3-5.3m-241.8 10.7h10.3M522.2 677h10.3m-87.2-432.5h3m-3 433.5h3m-41.7-441.9l1-1m-1 451.3l1 1m0-452.3h36.7m-36.7 452.3h36.7l1-1m0-450.3l-1-1m-37.7 451.3l-1.3 1m1.3-451.3l-1.3-1h-19.8m0 452.3h19.8M248.6 164.6l3.3-3m-3.3 596.3l3.3 3.3h59.8m0-599.6h-59.8m133.6 525.8l-73.8 73.8m73.8-526.1l-73.8-73.5m222.1 299.7h15.1m3.7 0h.6m3.7 0h30.4m3.7 0h.6m3.7 0h30.4m3.7 0h.7m3.6 0h30.4m3.7 0h.7m3.6 0h30.4m3.7 0h.7m3.7 0H741m3.6 0h.7m3.7 0h15m-518.1 0h.7"/><path fill="none" stroke="#000" stroke-width=".61" stroke-linecap="round" stroke-linejoin="round" d="M236 461.3h44.3"/><path class="st1" d="M284.3 461.3h.4m4 0h30m3.7 0h.7m3.7 0h30.3m3.7 0h.7m3.7 0h30.4m3.6 0h.7m3.7 0h30m4 0h.7m3.7 0h30.1m3.6 0h.7m4 0h30.1m3.7 0h.6m3.7 0h15.3m230.2 0h15m4 0h.7m3.7 0h30.1m3.6 0h.7m3.7 0h30m3.7 0h.7m4 0h30m3.7 0h.7m3.7 0h30m3.7 0h.7m3.6 0h15.1"/></g><g id="bemaßung"><g id="text_arial"><text transform="rotate(-90 295.065 196.295)" class="st3 st4 st5">Ø</text><text transform="rotate(-90 282.62 183.85)" class="st6 st4 st5">57</text><text transform="translate(533.88 80.55)" class="st3 st4 st5">58</text><text transform="matrix(.93 0 0 1 905.56 80.55)" class="st3 st4 st5">17.526</text><text transform="matrix(.93 0 0 1 871.27 171.26)" class="st3 st4 st5">6.9</text><text transform="matrix(.93 0 0 1 956.11 148.26)" class="st3 st4 st5">10.6</text><path class="st3" d="M1186.9 785.4v-22.9h2.9l11.2 18v-18h2.7v22.9h-2.9l-11.2-18v18h-2.7zm20.2-8.3c0-3.1.8-5.3 2.4-6.8 1.3-1.2 3.1-1.9 4.8-1.8 2-.1 3.9.8 5.2 2.2 1.4 1.7 2.1 3.9 2 6.2.1 1.7-.2 3.4-.9 5-.6 1.2-1.5 2.2-2.6 2.8-1.1.7-2.4 1-3.7 1-2 .1-3.9-.7-5.2-2.2-1.3-1.5-2-3.6-2-6.4zm2.7 0c-.1 1.7.3 3.4 1.3 4.8 1.4 1.8 4 2.1 5.8.7.3-.2.5-.5.7-.7 1-1.4 1.4-3.1 1.3-4.9.1-1.7-.3-3.3-1.3-4.7-1.4-1.8-4-2.1-5.8-.7-.3.2-.5.5-.7.7-1 1.4-1.4 3.1-1.3 4.8zm20.5 5.8l.4 2.5c-.7.2-1.3.2-2 .3-.8 0-1.5-.1-2.2-.5-.5-.3-.9-.7-1.1-1.3-.3-1.1-.4-2.2-.3-3.3V771h-1.9v-2.2h1.9v-4.1l2.6-1.7v5.8h2.6v2.2h-2.6v9.7c0 .5 0 1 .1 1.5.1.2.2.4.4.5.3.1.6.2.9.2.5.1.9 0 1.2 0zm16.6 0l.4 2.5c-.7.2-1.3.2-2 .3-.8 0-1.5-.1-2.2-.5-.5-.3-.9-.7-1.1-1.3-.3-1.1-.4-2.2-.3-3.3V771h-1.9v-2.2h1.9v-4.1l2.6-1.7v5.8h2.6v2.2h-2.6v9.7c0 .5 0 1 .1 1.5.1.2.2.4.4.5.3.1.6.2.9.2.4.1.8 0 1.2 0zm1.6-5.8c0-3.1.8-5.3 2.4-6.8 1.3-1.2 3.1-1.9 4.8-1.8 2-.1 3.9.8 5.2 2.2 1.4 1.7 2.1 3.9 2 6.2.1 1.7-.2 3.4-.9 5-.6 1.2-1.5 2.2-2.6 2.8-1.1.7-2.4 1-3.7 1-2 .1-3.9-.7-5.2-2.2-1.4-1.5-2-3.6-2-6.4zm2.6 0c-.1 1.7.3 3.4 1.3 4.8 1.4 1.8 4 2.1 5.8.7.3-.2.5-.5.7-.7 1-1.4 1.4-3.1 1.3-4.9.1-1.7-.3-3.3-1.3-4.7-1.4-1.8-4-2.1-5.8-.7-.3.2-.5.5-.7.7-.9 1.4-1.4 3.1-1.3 4.8zm22.1 3.3l2.6-.4c.1 2 1.7 3.6 3.7 3.5h.3c1 .1 1.9-.2 2.7-.8.5-.5.9-1.1.9-1.8 0-.6-.3-1.2-.8-1.5-.8-.4-1.7-.8-2.7-1-1.4-.3-2.7-.8-4-1.3-.7-.3-1.3-.9-1.7-1.6-.4-.7-.6-1.4-.6-2.2 0-1.4.6-2.8 1.8-3.6.5-.4 1.1-.6 1.7-.8.7-.2 1.5-.3 2.3-.3 1.1 0 2.2.2 3.2.6.8.3 1.5.8 2 1.5.5.8.8 1.7.9 2.6l-2.6.4c-.1-.8-.4-1.5-1-2-.7-.5-1.5-.8-2.4-.7-.9-.1-1.8.1-2.6.6-.5.4-.8.9-.8 1.5 0 .4.1.7.3 1 .3.3.6.6 1 .8.3.1 1 .4 2.3.7 1.3.3 2.6.8 3.9 1.3.7.3 1.3.8 1.7 1.5.4.7.7 1.6.6 2.4 0 2-1.2 3.8-3 4.6-1 .5-2.1.7-3.3.7-1.6.1-3.3-.4-4.6-1.3-.9-1.4-1.6-2.8-1.8-4.4zm26-1.1l2.6.4c-.2 1.7-.9 3.3-2.2 4.5-1.2 1.1-2.7 1.7-4.3 1.6-2 .1-3.8-.7-5.1-2.2-1.4-1.8-2.1-4.1-1.9-6.4 0-1.6.2-3.2.8-4.7.5-1.3 1.4-2.3 2.5-3 1.1-.7 2.4-1 3.7-1 1.5-.1 3 .4 4.1 1.4 1.1 1 1.8 2.4 2 3.9l-2.5.4c-.2-1-.6-1.8-1.3-2.5-.6-.6-1.4-.9-2.2-.8-1.3 0-2.4.5-3.2 1.5-.9 1.4-1.4 3.1-1.2 4.8 0 2.2.4 3.8 1.2 4.9.7 1 1.9 1.5 3.1 1.5 1 0 1.9-.3 2.6-1 .7-1 1.2-2.1 1.3-3.3zm14.9 4c-.8.8-1.8 1.4-2.8 1.9-.9.4-1.9.6-2.9.5-1.4.1-2.8-.4-3.9-1.3-.9-.9-1.4-2.1-1.4-3.4 0-.8.2-1.5.5-2.2.3-.6.8-1.2 1.3-1.6.6-.4 1.2-.7 1.9-.9.8-.2 1.5-.3 2.3-.4 1.6-.2 3.1-.5 4.7-1v-.7c.1-.9-.2-1.7-.7-2.4-.8-.7-1.9-1.1-3-1-1-.1-1.9.2-2.7.7-.7.7-1.2 1.5-1.3 2.5l-2.6-.4c.2-1 .6-2 1.2-2.9.6-.7 1.4-1.3 2.3-1.6 1.1-.4 2.3-.6 3.5-.6 1.1 0 2.2.1 3.2.5.7.2 1.3.7 1.8 1.3.4.6.7 1.2.8 1.9.1.9.2 1.7.1 2.6v3.8c0 1.7 0 3.3.2 5 .1.7.3 1.4.7 2h-2.7c-.3-.8-.5-1.5-.5-2.3zm-.2-6.2c-1.4.5-2.8.9-4.3 1.1-.8.1-1.5.3-2.3.6-.4.2-.8.5-1 .9-.2.4-.4.9-.4 1.3 0 .7.3 1.4.8 1.9.6.5 1.5.8 2.3.8.9 0 1.9-.2 2.7-.7.8-.5 1.4-1.2 1.7-2 .3-.9.5-1.9.4-2.8l.1-1.1zm6.6 8.3v-22.9h2.6v22.9h-2.6zm17.2-5.4l2.7.4c-.3 1.6-1.2 3-2.4 4-3 2.2-7.2 1.8-9.8-.8-1.4-1.8-2.1-4-2-6.3-.1-2.3.6-4.6 2-6.5 1.3-1.5 3.2-2.4 5.2-2.3 1.9 0 3.8.8 5 2.3 1.4 1.8 2.1 4.1 2 6.4v.8H1329c0 1.5.5 3 1.4 4.2.8.9 2 1.5 3.2 1.5.9 0 1.8-.3 2.5-.8.8-.9 1.4-1.8 1.6-2.9zm-8.5-4.5h8.6c0-1.1-.4-2.2-1-3.1-.8-1-2-1.6-3.3-1.6-1.1 0-2.2.5-3 1.3-.8.9-1.3 2.1-1.3 3.4zm-142.3 48.3v-22.9h7.3c1.3 0 2.5.1 3.8.3 1.2.3 2.2.8 3.1 1.6 1.2 1.1 2 2.4 2.5 3.9.6 1.8.9 3.6.8 5.5 0 1.6-.2 3.1-.6 4.6-.3 1.2-.8 2.3-1.5 3.3-.5.8-1.2 1.5-1.9 2.1-.8.5-1.6.9-2.6 1.2-1.1.3-2.3.4-3.4.4h-7.5zm2.8-2.7h4.6c1.1 0 2.2-.1 3.3-.4.7-.2 1.4-.6 1.9-1.2.7-.8 1.3-1.8 1.6-2.9.4-1.4.6-2.9.6-4.4.1-1.9-.3-3.8-1.1-5.5-.6-1.1-1.5-2-2.7-2.6-1.2-.4-2.4-.5-3.7-.5h-4.5v17.5zm18.4-17v-3.2h2.6v3.2h-2.6zm0 19.7v-16.6h2.6v16.6h-2.6zm6.6 0v-16.6h2.3v2.3c.5-.8 1.1-1.5 1.9-2 .8-.5 1.8-.8 2.8-.7 1 0 2 .2 2.8.8.7.5 1.3 1.3 1.6 2.1.9-1.8 2.8-2.9 4.8-2.9 1.3-.1 2.6.4 3.5 1.4.9 1.2 1.4 2.7 1.2 4.2v11.4h-2.6v-10.5c0-.8 0-1.6-.3-2.4-.2-.5-.5-.9-.9-1.2-.5-.3-1-.5-1.6-.5-1 0-2 .4-2.7 1.2-.8 1.1-1.2 2.4-1.1 3.7v9.6h-2.6V813c.1-1-.2-2-.6-2.8-.5-.7-1.3-1-2.1-.9-.7 0-1.4.2-2 .6-.6.4-1.1 1.1-1.4 1.8-.3 1.1-.5 2.3-.4 3.5v8.6h-2.6zm35.4-5.3l2.7.4c-.3 1.6-1.2 3-2.4 4-1.3 1-2.8 1.5-4.4 1.4-2 .1-4-.7-5.4-2.2-1.4-1.8-2.1-4-2-6.3-.1-2.3.6-4.6 2-6.5 1.3-1.5 3.2-2.4 5.2-2.3 1.9-.1 3.8.8 5.1 2.3 1.4 1.8 2.1 4.1 2 6.4v.8h-11.5c0 1.5.5 3 1.4 4.2.8.9 2 1.5 3.2 1.5.9 0 1.8-.3 2.4-.8.8-1 1.4-1.9 1.7-2.9zm-8.6-4.6h8.6c0-1.1-.4-2.2-1-3.2-.8-1-2-1.6-3.2-1.6-1.1 0-2.2.5-3 1.3-.9 1-1.4 2.2-1.4 3.5zm14.5 9.9v-16.6h2.4v2.4c1-1.8 2.9-2.8 4.9-2.7.9 0 1.8.2 2.6.5.7.3 1.3.8 1.8 1.4.4.6.7 1.3.8 2.1.1.9.2 1.8.1 2.7v10.2h-2.5v-10.1c0-.9-.1-1.7-.3-2.6-.2-.6-.6-1-1.1-1.4-.5-.3-1.2-.5-1.8-.5-1.1 0-2.1.4-2.9 1.2-.8.8-1.2 2.2-1.2 4.3v9.1h-2.8zm15.5-5l2.6-.4c.1 2 1.8 3.5 3.7 3.5h.3c1 .1 1.9-.2 2.7-.8.5-.5.9-1.1.9-1.8 0-.6-.3-1.2-.8-1.5-.8-.4-1.7-.8-2.7-1-1.4-.3-2.7-.8-4-1.3-.7-.3-1.3-.9-1.7-1.6-.4-.7-.6-1.4-.6-2.2 0-1.4.6-2.8 1.8-3.6.5-.4 1.1-.6 1.7-.8.7-.2 1.5-.3 2.3-.3 1.1 0 2.2.2 3.2.6.8.3 1.5.8 2 1.5.5.8.8 1.7.9 2.6l-2.6.4c-.1-.8-.4-1.5-1-2-.7-.5-1.5-.8-2.4-.7-.9-.1-1.8.1-2.6.6-.5.4-.8.9-.8 1.5 0 .4.1.7.3 1 .3.3.6.6 1 .8.3.1 1 .3 2.3.7 1.3.3 2.6.8 3.9 1.3.7.3 1.3.8 1.7 1.5.4.7.7 1.6.6 2.4 0 2-1.2 3.8-3 4.6-1 .5-2.1.7-3.3.7-1.6.1-3.3-.4-4.6-1.3-.9-1.5-1.6-2.9-1.8-4.4zm16-14.7v-3.2h2.6v3.2h-2.6zm0 19.7v-16.6h2.6v16.6h-2.6zm5.6-8.3c0-3.1.8-5.4 2.4-6.8 1.3-1.2 3.1-1.9 4.8-1.8 2-.1 3.9.8 5.2 2.2 1.4 1.7 2.1 3.9 2 6.2.1 1.7-.2 3.4-.9 5-.6 1.2-1.5 2.2-2.6 2.9-1.1.7-2.4 1-3.7 1-2 .1-3.9-.7-5.2-2.2-1.3-1.6-2-3.7-2-6.5zm2.7 0c-.1 1.7.3 3.4 1.3 4.8 1.4 1.8 4 2.1 5.8.7.3-.2.5-.5.7-.7 1-1.4 1.4-3.1 1.3-4.8.1-1.7-.3-3.3-1.3-4.7-1.4-1.8-4-2.1-5.8-.7-.3.2-.5.4-.7.7-1 1.3-1.4 3-1.3 4.7zm14.8 8.3v-16.6h2.4v2.4c1-1.7 2.9-2.8 4.9-2.7.9 0 1.8.2 2.6.5.7.3 1.3.8 1.8 1.4.4.6.7 1.3.8 2.1.1.9.2 1.8.2 2.7v10.2h-2.6v-10.1c0-.9-.1-1.7-.3-2.6-.2-.6-.6-1-1.1-1.4-.5-.3-1.2-.5-1.8-.5-1.1 0-2.1.4-2.9 1.2-.8.8-1.2 2.2-1.2 4.3v9.1h-2.8zm15.5-5l2.6-.4c.1 2 1.8 3.5 3.7 3.5h.3c1 .1 1.9-.2 2.7-.8.5-.5.9-1.1.9-1.8 0-.6-.3-1.2-.8-1.5-.8-.4-1.7-.8-2.7-1-1.4-.3-2.7-.8-4-1.3-.7-.3-1.3-.9-1.7-1.6-.4-.7-.6-1.4-.6-2.2 0-1.4.6-2.8 1.8-3.6.5-.4 1.1-.6 1.7-.8.7-.2 1.5-.3 2.3-.3 1.1 0 2.2.2 3.2.6.8.3 1.5.8 2 1.5.5.8.8 1.7.9 2.6l-2.6.4c-.1-.8-.4-1.5-1-2-.7-.5-1.5-.8-2.4-.7-.9-.1-1.8.1-2.6.6-.5.4-.8.9-.8 1.5 0 .4.1.7.3 1 .3.3.6.6 1 .8.3.1 1 .3 2.3.7 1.3.3 2.6.8 3.9 1.3.7.3 1.3.8 1.7 1.5.4.7.6 1.6.6 2.4 0 2-1.2 3.8-3 4.6-1 .5-2.1.7-3.3.7-1.6.1-3.3-.4-4.6-1.3-.9-1.4-1.6-2.8-1.8-4.4zm24.2-14.7v-3.2h2.7v3.2h-2.7zm0 19.7v-16.6h2.7v16.6h-2.7zm6.6 0v-16.6h2.3v2.4c1-1.8 2.9-2.8 4.9-2.7.9 0 1.8.2 2.6.5.7.3 1.3.8 1.8 1.4.4.6.7 1.3.8 2.1.1.9.2 1.8.1 2.7v10.2h-2.6v-10.1c0-.9-.1-1.7-.3-2.6-.2-.6-.6-1-1.1-1.4-.5-.3-1.2-.5-1.8-.5-1.1 0-2.1.4-2.9 1.2-.8.8-1.2 2.2-1.2 4.3v9.1h-2.6zm24.9 0v-16.6h2.3v2.3c.5-.8 1.1-1.5 1.9-2 .8-.5 1.8-.8 2.8-.7 1 0 2 .2 2.8.8.7.5 1.3 1.3 1.6 2.1.9-1.8 2.8-2.9 4.8-2.9 1.3-.1 2.6.4 3.5 1.4.9 1.2 1.4 2.7 1.2 4.2v11.4h-2.6v-10.5c0-.8-.1-1.6-.3-2.4-.2-.5-.5-.9-.9-1.2-.5-.3-1-.5-1.6-.5-1 0-2 .4-2.7 1.2-.8 1.1-1.2 2.4-1.1 3.7v9.6h-2.6V813c.1-1-.2-2-.6-2.8-.5-.7-1.3-1-2.1-.9-.7 0-1.4.2-2 .6-.6.4-1.1 1.1-1.4 1.8-.3 1.1-.5 2.3-.4 3.5v8.6h-2.6zm24.8 0v-16.6h2.3v2.3c.5-.8 1.1-1.5 1.9-2 .8-.5 1.8-.8 2.8-.7 1 0 2 .2 2.8.8.7.5 1.3 1.3 1.6 2.1.9-1.8 2.8-2.9 4.8-2.9 1.3-.1 2.6.4 3.5 1.4.9 1.2 1.4 2.7 1.2 4.2v11.4h-2.6v-10.5c0-.8 0-1.6-.3-2.4-.2-.5-.5-.9-.9-1.2-.5-.3-1-.5-1.6-.5-1 0-2 .4-2.7 1.2-.8 1.1-1.2 2.4-1.1 3.7v9.6h-2.6V813c.1-1-.2-2-.6-2.8-.5-.7-1.3-1-2.1-.9-.7 0-1.4.2-2 .6-.6.4-1.1 1.1-1.4 1.8-.3 1.1-.5 2.3-.4 3.5v8.6h-2.6z"/><text transform="matrix(.93 0 0 1 868.99 217.21)" class="st3 st4 st5">4</text><text transform="rotate(-90 360.12 171.26)" class="st3 st4 st5">M55x0.75</text><text transform="rotate(-90 895.06 -403.7)" class="st3 st4 st5">Ø</text><text transform="rotate(-90 882.615 -416.145)" class="st6 st4 st5">43</text><text transform="rotate(-90 745.865 -254.505)" class="st3 st4 st5">Ø</text><text transform="rotate(-90 733.42 -266.95)" class="st6 st4 st5">22.6</text><path class="st3" d="M1040.6 359.3h6.7v210.6h-6.7z"/><text transform="matrix(.93 0 0 1 1220.94 206.1)" class="st3 st4 st5">Sensor Position</text><path class="st7" d="M1143.8 354.1v214"/><path d="M1135 360l8.7-32.5 8.8 32.5zm0 202.2l8.7 32.5 8.8-32.5z"/><path class="st7" d="M1055.4 431.9l144.8-235.5h11"/><path d="M1065.9 431.4l-24.4 23.2 9.6-32.3z"/></g><g id="lines"><path class="st1" d="M236 171.9h-46.8M236 750.3h-46.8"/><path d="M249.7 161.5H98.8m150.9 599.7H98.8" stroke-width=".68" fill="none" stroke="#000" stroke-linecap="round" stroke-linejoin="round"/><path class="st9" d="M246.4 164.5v-84"/><path class="st1" d="M856.5 290.4V95.7"/><path fill="none" stroke="#000" stroke-width=".52" stroke-linecap="round" stroke-linejoin="round" d="M856.5 290.4V80.5"/><path class="st11" d="M1040.9 461.1V80.5"/><path d="M929 580h43.8M929 342.2h43.8" stroke-width=".4" fill="none" stroke="#000" stroke-linecap="round" stroke-linejoin="round"/><path class="st13" d="M892.3 594.7h264.2"/><path class="st9" d="M761.7 687.5h509.6M761.7 235h509.6"/><path class="st13" d="M892.3 327.5h264.2"/><path class="st1" d="M856.5 290.4v-92.5"/><path class="st11" d="M898.6 333.8V191.6"/><path class="st1" d="M929 342.2V155.8m111.9 305.3V155.8M929 342.2V155.8M246.4 750.3H236m10.4-578.4H236"/></g><g id="arrows_BPD"><path class="st7" d="M112 189.7v544.9"/><path d="M103.3 195.6l8.7-32.5 8.8 32.5zm0 533.1l8.7 32.5 8.8-32.5z"/><path class="st7" d="M199.8 198.4v525.4"/><path d="M191.1 204.4l8.7-32.5 8.7 32.5zm0 513.4l8.7 32.5 8.7-32.5z"/><path class="st7" d="M1259.9 260.7V659"/><path d="M1251.2 266.6l8.7-32.5 8.8 32.5zm0 386.4l8.7 32.5 8.8-32.5z"/><path class="st7" d="M965.2 369.9v184.7"/><path d="M956.5 375.9l8.7-32.6 8.7 32.6zm0 172.8l8.7 32.5 8.7-32.5z"/><path class="st7" d="M273.1 91.7h557.1"/><path d="M279 100.4l-32.5-8.7L279 83zm545.3 0l32.5-8.7-32.5-8.7z"/><path class="st7" d="M765.7 164.9h65.6"/><path d="M825.4 173.6l32.5-8.7-32.5-8.8z"/><path class="st7" d="M765.7 207.4h65.6"/><path d="M825.4 216.1l32.5-8.7-32.5-8.7z"/><path class="st7" d="M990.8 207.4h-65.7"/><path d="M931.1 198.7l-32.5 8.7 32.5 8.7z"/><path class="st7" d="M882.8 91.7h130.9"/><path d="M888.7 100.4l-32.5-8.7 32.5-8.7zm119 0l32.6-8.7-32.6-8.7z"/><path class="st7" d="M955.6 164.9h58.7"/><path d="M961.5 173.6l-32.5-8.7 32.5-8.8zm46.9 0l32.5-8.7-32.5-8.8z"/><path class="st3" d="M1181.3 538v2.8h-17.9c.7.8 1.4 1.7 1.9 2.7.6 1 1.1 2 1.4 3h-2.7c-.7-1.5-1.6-2.9-2.7-4.1-.9-1-1.9-1.9-3.1-2.5V538h23.1zm-14.8-12.3l-4.3-.2-3.8-.8v-3.2l3.8.8 4.3 1.6v1.8zm0 4.4l-4.3-.2-3.8-.8v-3.2l3.8.8 4.3 1.6v1.8zm7.9-10.3h-2.8v-8.6h2.8v8.6zm.9-11l-.4-2.8c1.3-.2 2.5-.7 3.4-1.6.7-.8 1.1-1.8 1.1-2.8 0-1.3-.5-2.5-1.4-3.4-.9-.9-2.1-1.4-3.4-1.4-2.4-.1-4.4 1.8-4.5 4.2v.3c0 .7.1 1.3.3 2l-2.5-.3v-.5c0-1.1-.3-2.3-.9-3.2-.6-1-1.7-1.5-2.9-1.4-1 0-1.9.4-2.6 1-.7.7-1 1.7-1 2.7 0 1 .3 2 1 2.7.8.8 1.9 1.3 3.1 1.4l-.5 2.8c-1.7-.2-3.3-1.1-4.4-2.3-1.1-1.3-1.6-2.9-1.6-4.5 0-1.2.3-2.4.8-3.5.5-1 1.3-1.8 2.2-2.4.9-.6 1.9-.8 3-.8 1 0 1.9.3 2.7.8.9.6 1.5 1.4 1.9 2.4.2-1.3.9-2.4 1.9-3.2 1.1-.8 2.4-1.2 3.7-1.1 1.9 0 3.8.8 5.1 2.2 1.4 1.5 2.2 3.5 2.1 5.5.1 1.8-.6 3.6-1.8 5-1 1.3-2.7 2.1-4.4 2.2zm3.3-32.6h2.7v15.1c-.7 0-1.4-.1-2-.3-1.1-.4-2.1-1.1-3-1.9-1.3-1.1-2.4-2.4-3.5-3.7-1.4-1.8-3.1-3.5-4.8-5-1-.8-2.1-1.2-3.4-1.3-1.1 0-2.1.4-2.8 1.2-.8.8-1.2 2-1.2 3.1-.1 1.2.4 2.4 1.2 3.3.9.8 2.1 1.3 3.4 1.2l-.3 2.9c-1.9-.1-3.6-.9-4.9-2.2-1.2-1.5-1.8-3.3-1.7-5.2-.1-1.9.6-3.8 1.8-5.2 1.2-1.3 2.8-2 4.5-1.9.9 0 1.8.2 2.7.6 1 .5 2 1.1 2.8 1.9 1.4 1.4 2.8 2.8 4 4.3 1.4 1.7 2.4 2.8 2.9 3.3l1.5 1.2.1-11.4zm-20.2-28v-3h13.2c1.9-.1 3.7.2 5.5.8 1.4.5 2.6 1.5 3.3 2.8.9 1.6 1.4 3.5 1.3 5.4.1 1.8-.3 3.6-1.1 5.3-.7 1.3-1.8 2.4-3.2 2.9-1.8.7-3.8 1-5.7.9h-13.2v-3h13.2c1.5.1 3-.1 4.4-.6.9-.4 1.7-1 2.2-1.9.5-1 .8-2.2.8-3.3 0-2.2-.5-3.8-1.5-4.8s-3-1.4-5.8-1.4l-13.4-.1zm22.9-8.1h-22.9V437l18-12h-18v-2.9h22.9v3.1l-18 12h18v2.9zm-6.9-21.7h-2.8v-8.6h2.8v8.6zm4.2-25.7h2.7v15.1c-.7 0-1.4-.1-2-.3-1.1-.4-2.1-1.1-3-1.9-1.3-1.1-2.4-2.4-3.5-3.7-1.4-1.8-3.1-3.5-4.8-5-1-.8-2.1-1.3-3.4-1.3-1.1 0-2.1.4-2.8 1.2-.8.8-1.2 2-1.2 3.1-.1 1.2.4 2.4 1.2 3.3.9.8 2.1 1.3 3.4 1.2l-.3 2.9c-1.9-.1-3.6-.9-4.9-2.2-1.2-1.5-1.8-3.3-1.7-5.2-.1-1.9.6-3.8 1.8-5.2 1.2-1.3 2.8-2 4.5-1.9.9 0 1.8.2 2.7.6 1 .5 2 1.1 2.8 1.9 1.4 1.4 2.8 2.8 4 4.3 1.4 1.7 2.4 2.8 2.9 3.3l1.5 1.2.1-11.4zm2.7-1.7l-22.9-8.8V379l22.9-9.4v3.5l-6.9 2.7v9.6l6.9 2.5v3.1zm-9.4-6.6v-7.8l-6.3 2.4c-1.9.7-3.5 1.3-4.8 1.6 1.5.3 2.9.7 4.4 1.2l6.7 2.6zm54.5 140.8c-2.1 1.6-4.4 3-6.9 3.9-4.9 2-10.3 2.1-15.3.4-2.8-1-5.5-2.5-7.9-4.3v-2c2.2 1.3 3.7 2.1 4.6 2.5 1.4.6 3 1.1 4.5 1.5 1.9.4 3.9.7 5.9.7 5.3-.1 10.5-1.7 15-4.7l.1 2zm-14.7-22l.8-3c2.2.5 4.2 1.7 5.7 3.4 1.3 1.7 2.1 3.9 2 6.1.1 2.1-.4 4.2-1.5 6-1.1 1.6-2.6 2.8-4.4 3.5-1.9.8-4 1.2-6.1 1.2-2.2.1-4.3-.4-6.3-1.4-1.7-.9-3.1-2.2-4-3.9-.9-1.7-1.4-3.6-1.4-5.5-.1-2.1.5-4.1 1.8-5.8 1.2-1.6 3-2.8 4.9-3.3l.7 3c-1.4.4-2.7 1.2-3.6 2.3-.8 1.1-1.2 2.4-1.1 3.8-.1 1.6.4 3.1 1.3 4.4.8 1.2 2 2.1 3.4 2.5 1.4.5 2.9.7 4.4.7 1.7 0 3.5-.3 5.1-.9 1.4-.5 2.5-1.4 3.3-2.6.7-1.2 1.1-2.5 1.1-3.9 0-1.6-.5-3.1-1.5-4.3-1.4-1.2-2.9-2-4.6-2.3zm1.1-5.3h-2.8v-8.6h2.8v8.6zm6.9-12h-22.9v-4.6l16.2-5.4c1.5-.5 2.6-.9 3.4-1.1-.8-.3-2.1-.7-3.7-1.2l-15.9-5.5V464h22.9v3h-19.2l19.2 6.6v2.7l-19.5 6.6h19.5v3zm-8.3-25.4c-3.1 0-5.3-.9-6.8-2.6-1.2-1.5-1.9-3.3-1.8-5.2-.1-2.1.7-4.1 2.2-5.6 1.7-1.5 3.9-2.3 6.2-2.2 1.7-.1 3.4.3 5 1 1.2.6 2.2 1.6 2.8 2.8.7 1.2 1 2.6 1 4 .1 2.1-.7 4.2-2.2 5.6-1.5 1.5-3.6 2.2-6.4 2.2zm0-2.9c1.7.1 3.4-.4 4.8-1.4 1.9-1.7 2.1-4.6.4-6.6-.1-.2-.3-.3-.4-.4-1.4-1-3.1-1.5-4.9-1.4-1.7-.1-3.3.4-4.7 1.4-1.9 1.7-2.1 4.6-.5 6.5.1.2.3.3.5.5 1.4 1.1 3.1 1.6 4.8 1.4zm8.3-26.8h-2.4c1.8 1.1 2.9 3.1 2.8 5.3 0 .9-.2 1.9-.6 2.7-.3.7-.8 1.4-1.4 1.9-.6.4-1.3.7-2.1.9-.9.1-1.7.2-2.6.2h-10.3V439h9.2c1 0 2 0 3-.2.7-.1 1.3-.5 1.7-1.1.4-.6.7-1.4.6-2.1 0-.8-.2-1.7-.7-2.4-.4-.7-1-1.3-1.8-1.6-1-.4-2.1-.5-3.2-.5h-8.9v-2.8h16.6l.1 2.5zm0-6.9h-16.6v-2.5h2.4c-1.8-1.2-2.8-3.2-2.7-5.3 0-.9.2-1.9.5-2.8.3-.7.8-1.4 1.4-1.9.6-.4 1.3-.7 2.1-.9.9-.1 1.8-.2 2.7-.1h10.2v2.8h-10.1c-.9 0-1.7.1-2.6.3-.6.2-1.1.6-1.4 1.2-.4.6-.5 1.3-.5 2 0 1.1.4 2.2 1.1 3.1.8.9 2.2 1.3 4.3 1.3h9.1l.1 2.8zm-2.5-23.9l2.5-.4c.2.7.2 1.4.3 2.1 0 .8-.1 1.6-.5 2.4-.3.5-.7.9-1.3 1.2-1.1.3-2.2.4-3.3.4h-9.6v2.1h-2.2v-2.1h-4.1l-1.7-2.8h5.8V400h2.2v2.8h9.7c.5 0 1 0 1.5-.1.2-.1.4-.3.6-.5.2-.3.2-.7.2-1 0-.4-.1-.8-.1-1.2zm9.2-4.6v2c-4.5-2.9-9.7-4.6-15-4.7-2 0-3.9.2-5.8.7-1.5.4-3.1.9-4.5 1.5-1.6.8-3.2 1.6-4.7 2.5v-2c2.4-1.8 5-3.3 7.9-4.4 5-1.7 10.4-1.6 15.3.4 2.4 1 4.7 2.3 6.8 4z"/></g></g></svg>