<svg version="1.1" id="Ebene_1" xmlns="http://www.w3.org/2000/svg" x="0" y="0" viewBox="0 0 1200 366.1" style="background-color:#fff" xml:space="preserve"><style>.st1,.st2,.st3{fill:none;stroke:#000;stroke-linecap:round;stroke-linejoin:round}.st1{stroke-miterlimit:10;stroke-width:.4252}.st2{stroke-width:.2835}.st3{stroke-width:.283;stroke-miterlimit:10}.st5{font-family:Helvetica,Arial,sans-serif}.st6{font-size:14px}</style><g id="BCL-200x15x"><path class="st1" d="M252.4 268.4v-9.9m-33.3-23.4h9.9m70.4 23.4l.1.5.1 1-.1 1.4-.3 1.4-.5 1.5m0 0l-.5 1.1-.1 1.2.1.9.2.7v.2m-3.5-.1l-.1-.5-.1-1 .1-1.4.3-1.5.5-1.2m0 0l.5-1.2.1-1.1-.1-.9-.2-.7-.1-.3m62.4-56v1.4m0-1.4h4.6m-4.6 82.5v1.4m0 0h4.6m-4.6-1.4v-6.2m0-68.6v-6.3m0 6.3v1.4m0 65.7v1.5m4.6-67.2h-4.6m0 65.7v-65.7m186.8-7.7V285m0-81.1v-1.4m-4.5 0h4.5m-4.5 83.9h4.5m0 0V285m-4.5-52.6v1.4m-177.7 0v-1.4m177.7-11.3v1.4m-177.7 0v-1.4m177.7-5.7v1.4m-177.7 0v-1.4m177.7 25.5v1.4m-177.7 0v-1.4m177.7-2.8v1.4m-177.7 0v-1.4m177.7-25.5v1.4m-177.7 0v-1.4m177.7 14.1v1.5m-177.7 0v-1.5m177.7-2.8v1.4m-177.7 0v-1.4m177.7 31.2v1.4m-177.7 0v-1.4m177.7-5.7v1.4m-177.7 0v-1.4m177.7 2.9v1.4m-177.7 0v-1.4m177.7-34.1v1.5m-177.7 0v-1.5m177.7 17v1.5m-177.7 0v-1.5m177.7 11.4v1.4m-177.7 0v-1.4m177.7-2.8v1.4m-177.7 0v-1.4m177.7-14.2v1.4m-177.7 0v-1.4m177.7 28.3v1.4m-177.7 0v-1.4m177.7 2.9v1.4m-177.7 0v-1.4m177.7 2.8v1.4m-177.7 0v-1.4m177.7 8.5v1.4m-177.7 0v-1.4m177.7-5.7v1.4m-177.7 0v-1.4m177.7 2.9v1.4m-177.7 0v-1.4m177.7 5.6v1.5m-177.7 0v-1.5m177.7-45.3v-1.4m0 0H362.8m0 0v1.4m177.7-8.5v-1.4m0 0H362.8m0 0v1.4m177.7 5.6v-1.4m0 0H362.8m0 0v1.4m177.7-8.5v-1.4m0 0H362.8m0 0v1.4m177.7-5.6v-9.2m-177.7 9.2v-9.2m177.7 20.5v-1.4m0 0H362.8m0 0v1.4m177.7-20.5v-1.5m-177.7 0v1.5m177.7 0H362.8m0-1.5h177.7m0 33.3v-1.4m0 0H362.8m0 0v1.4m177.7-2.8V231m0 0H362.8m0 0v1.4m177.7 5.7v-1.4m0 0H362.8m0 0v1.4m177.7-22.7V214m0 0H362.8m0 0v1.4m177.7 25.5v-1.4m0 0H362.8m0 0v1.4m177.7 2.9v-1.5m0 0H362.8m0 0v1.5m177.7 9.9v1.4m-177.7-1.4h177.7m-177.7 1.4v-1.4m177.7 5.6v1.5m-177.7-1.5h177.7m-177.7 1.5v-1.5m177.7-8.5v1.5m-177.7-1.5h177.7m-177.7 1.5v-1.5m177.7 5.7v1.4m-177.7-1.4h177.7m-177.7 1.4v-1.4m177.7-11.3v1.4m-177.7-1.4h177.7m-177.7 1.4v-1.4m177.7 2.8v1.4M362.8 248h177.7m-177.7 1.4V248m177.7 22.7v1.4m-177.7-1.4h177.7m-177.7 1.4v-1.4m177.7-8.5v1.4m-177.7-1.4h177.7m-177.7 1.4v-1.4m177.7 2.8v1.4M362.8 265h177.7m-177.7 1.4V265m177.7 8.5v1.4m-177.7-1.4h177.7m-177.7 1.4v-1.4m177.7-5.7v1.5m-177.7-1.5h177.7m-177.7 1.5v-1.5M540.5 287v-1.4m-177.7 0v1.4m0 0h177.7m-177.7-1.4v-9.2m177.7 9.2v-9.2m-177.7 0h177.7m5.4-4.3h-.9m.9-48.2h-.9m.9 0v48.2m-187.7-13.6h-58.8m-1 9.9h59.8m-62.4-9.9h-43.4m0 9.9h42.5M229 235.1v-75.2m-9.9-1.3v76.5m0 0l.2 3.7.6 3.7 1.1 3.6 1.4 3.4 1.8 3.3 2.2 3.1 2.4 2.7 2.8 2.5 3.1 2.2 3.2 1.8 3.5 1.4 3.6 1.1 3.7.6 3.7.2m0-9.9l-3.1-.2-3-.6-2.9-1-2.7-1.4-2.5-1.7-2.3-2-2.1-2.3-1.7-2.5-1.3-2.8-1-2.9-.6-3-.2-3m784.7 37.4v-49m4.6-4.5h1.7m-2.3 4.2V219m0 0h2.9m-3.7-.9l.8.9m2.9 4.2h-2.9m-.8.9l.8-.9m2.9-4.2v4.2m.8.9l-.8-.9m0-4.2l.8-.9m-4.5 6v-6m0 0h4.5m0 0v6m0 0h-4.5m-26.1-.6h23.2m0 0v49m0 0h-23.2m0 0v-49m45.2-20.1v82.2m-1.4-83.7l.3.1.2.1.3.1.2.2.2.2.1.2.1.3v.3m-5-1.5h3.6m-3.6 0v.6h-1.4v-.6m-1.4 0h1.4m-1.4 0v.6h-1.4v-.6m-10.6 0h10.6m-10.6 0v.6h-1.5v-.6m-1.4 0h1.4m-1.4 0v.6h-1.4v-.6m-1.4 0h1.4m-1.4 0v.6h-1.4v-.6m-1.5 0h1.5m-1.5 0v.6h-1.4v-.6m-1.4 0h1.4m-1.4 0v.6h-1.4v-.6m-8.9 0h8.9m-8.9 0v.6h-7.4v-.6m-6.4 0h6.4m-7.8 1.5v-.3l.1-.3.1-.2.2-.2.2-.2.3-.1.2-.1.3-.1m-1.4 10.7v-9.2m0 9.2h.7m0 0h.3l.2.2.2.2v.6l-.2.2-.2.1-.3.1m0 0h-.7m0 1.4V214m0 1.4h.7m0 0l.3.1.2.1.2.2v.6l-.2.2-.2.2h-.3m0 0h-.7m0 1.4v-1.4m0 1.4h.7m0 0l.3.1.2.1.2.3v.5l-.2.3-.2.1-.3.1m0 0h-.7m0 1.4v-1.4m0 1.4h.7m0 0h.3l.2.2.2.2v.6l-.2.2-.2.1-.3.1m0 0h-.7m0 1.4v-1.4m0 1.4h.7m0 0l.3.1.2.1.2.2v.6l-.2.2-.2.2h-.3m0 0h-.7m0 1.4v-1.4m0 1.4h.7m0 0l.3.1.2.2.2.2v.5l-.2.3-.2.1-.3.1m0 0h-.7m0 1.4v-1.4m0 1.4h.7m0 0h.3l.2.2.2.2v.6l-.2.2-.2.1-.3.1m0 0h-.7m0 1.4V231m0 1.4h.7m0 0l.3.1.2.1.2.3v.5l-.2.2-.2.2h-.3m0 0h-.7m0 1.4v-1.4m0 1.4h.7m0 0l.3.1.2.2.2.2v.5l-.2.3-.2.1-.3.1m0 0h-.7m0 1.4v-1.4m0 1.4h.7m0 0h.3l.2.2.2.2v.6l-.2.2-.2.1-.3.1m0 0h-.7m0 1.4v-1.4m0 1.4h.7m0 0l.3.1.2.1.2.3v.5l-.2.2-.2.2h-.3m0 0h-.7m0 1.5v-1.5m0 1.5h.7m0 0h.3l.2.2.2.2v.5l-.2.3-.2.1-.3.1m-.7 0h.7m-.7 0v1.4m.7 0h-.7m.7 0h.3l.2.2.2.2v.6l-.2.2-.2.2h-.3m-.7 0h.7m-.7 0v1.4m.7 0h-.7m.7 0l.3.1.2.1.2.3v.5l-.2.2-.2.2h-.3m-.7 0h.7m-.7 0v1.5m.7 0h-.7m.7 0h.3l.2.2.2.2v.5l-.2.3-.2.1-.3.1m-.7 0h.7m-.7 0v1.4m.7 0h-.7m.7 0h.3l.2.2.2.2v.6l-.2.2-.2.2h-.3m-.7 0h.7m-.7 0v1.4m.7 0h-.7m.7 0l.3.1.2.1.2.3v.5l-.2.2-.2.2h-.3m-.7 0h.7m-.7 0v1.5m.7 0h-.7m.7 0h.3l.2.2.2.2v.5l-.2.3-.2.1-.3.1m-.7 0h.7m-.7 0v1.4m.7 0h-.7m.7 0l.3.1.2.1.2.2v.6l-.2.2-.2.2h-.3m-.7 0h.7m-.7 0v1.4m.7 0h-.7m.7 0l.3.1.2.1.2.3v.5l-.2.2-.2.2h-.3m-.7 0h.7m-.7 0v1.5m.7 0h-.7m.7 0h.3l.2.2.2.2v.5l-.2.3-.2.1-.3.1m-.7 0h.7m-.7 0v1.4m.7 0h-.7m.7 0l.3.1.2.1.2.2v.6l-.2.2-.2.2h-.3m-.7 0h.7m-.7 0v1.4m.7 0h-.7m.7 0l.3.1.2.1.2.3v.5l-.2.2-.2.2-.3.1m-.7 0h.7m-.7 9.2v-9.2m1.4 10.6h-.3l-.2-.1-.3-.2-.2-.1-.2-.2-.1-.3-.1-.3v-.2m7.8 1.4h-6.4m13.8 0v-.6h-7.4v.6m16.3 0h-8.9m10.3 0v-.6h-1.4v.6m1.4 0h1.4m1.4 0v-.6h-1.4v.6m1.4 0h1.5m1.4 0v-.6h-1.4v.6m1.4 0h1.4m1.4 0v-.6h-1.4v.6m1.4 0h1.4m1.5 0v-.6h-1.5v.6m12.1 0h-10.6m12 0v-.6h-1.4v.6m1.4 0h1.4m1.4 0v-.6h-1.4v.6m1.4 0h3.6m1.4-1.4v.2l-.1.3-.1.3-.2.2-.2.1-.3.2-.2.1h-.3m-43.4-63.1h-.4m20.8 6.4v-2.8m0 0v2.8m0-3.6v4.3m-3.4 31.2h3.4m0 3.5v-2.8m0 0v2.8m0-3.5v4.2m-20.4-42.5v48.2m17-5v2.2m0-2.9v-4.2m0-31.2v-4.3m0 0v2.2m0 0v2.8m0 0v4.3m0 0v2.8m0 0v4.2m0 0v2.9m0 0v4.2m0 0v2.9m0 0v4.2m0 0v2.9m0 0v4.2m0 0v2.8m0-40.4h3.4m-15.1 0h11.7m0 4.3v31.2m3.4 0h-3.4m3.4 4.2v-4.2m-3.4 4.2h3.4m-3.4 0v2.9m0 0h-11.7m0-2.2v2.2m0-9.2v4.2m0-11.3v4.2m0-11.3v4.2m0-11.3v4.2m0-11.3v4.3m0-9.3v2.2m0-2.2h15.1m0 4.3v-4.3m-3.4 4.3h3.4m2-7.1h-22.4m14 0h8.5m-22.5 48.2h22.5m-9-40.4h3.5m0-2.8h-3.5m0 2.8h3.5m-11.7 0h3.9m-3.9 0h3.9m0-2.8h-3.9m-1.9 2.8v1.4m1.9-4.2h-1.9m0-1.4h-1.7m1.7 0v1.4m0 2.8h1.9m-1.9 1.4v-1.4m-1.7 1.4h1.7m-1.7 0v-5.6m1.7 0h-1.7m1.7 1.4v-1.4m1.9 1.4h-1.9"/><circle class="st1" cx="1002.6" cy="230.3" r="2.6"/><circle class="st1" cx="1002.6" cy="230.3" r="1.7"/><path class="st1" d="M1001.6 229.3h2v2h-2v-2zm3.1 37.9h3.5m0-2.8h-3.5m0 2.8h3.5m-11.7 0h3.9m-3.9 0h3.9m0-2.8h-3.9m-1.9 2.8v1.4m1.9-4.2h-1.9m0-1.4h-1.7m1.7 0v1.4m0 2.8h1.9m-1.9 1.4v-1.4m-1.7 1.4h1.7m-1.7 0V263m1.7 0h-1.7m1.7 1.4V263m1.9 1.4h-1.9"/><circle class="st1" cx="1002.6" cy="265.8" r="2.6"/><circle class="st1" cx="1002.6" cy="265.8" r="1.7"/><path class="st1" d="M1001.6 264.8h2v2h-2v-2zm3.1-4.7h3.5m0-2.8h-3.5m0 2.8h3.5m-11.7 0h3.9m-3.9 0h3.9m0-2.8h-3.9m-1.9 2.8v1.4m1.9-4.2h-1.9m0-1.4h-1.7m1.7 0v1.4m0 2.8h1.9m-1.9 1.4v-1.4m-1.7 1.4h1.7m-1.7 0v-5.6m1.7 0h-1.7m1.7 1.4v-1.4m1.9 1.4h-1.9"/><circle class="st1" cx="1002.6" cy="258.7" r="2.6"/><circle class="st1" cx="1002.6" cy="258.7" r="1.7"/><path class="st1" d="M1001.6 257.7h2v2h-2v-2zm3.1-4.7h3.5m0-2.8h-3.5m0 2.8h3.5m-11.7 0h3.9m-3.9 0h3.9m0-2.8h-3.9m-1.9 2.8v1.4m1.9-4.2h-1.9m0-1.4h-1.7m1.7 0v1.4m0 2.8h1.9m-1.9 1.4V253m-1.7 1.4h1.7m-1.7 0v-5.6m1.7 0h-1.7m1.7 1.4v-1.4m1.9 1.4h-1.9"/><circle class="st1" cx="1002.6" cy="251.6" r="2.6"/><circle class="st1" cx="1002.6" cy="251.6" r="1.7"/><path class="st1" d="M1001.6 250.6h2v2h-2v-2zm3.1-4.7h3.5m0-2.8h-3.5m0 2.8h3.5m-11.7 0h3.9m-3.9 0h3.9m0-2.8h-3.9m-1.9 2.8v1.4m1.9-4.2h-1.9m0-1.4h-1.7m1.7 0v1.4m0 2.8h1.9m-1.9 1.4v-1.4m-1.7 1.4h1.7m-1.7 0v-5.6m1.7 0h-1.7m1.7 1.4v-1.4m1.9 1.4h-1.9"/><circle class="st1" cx="1002.6" cy="244.5" r="2.6"/><circle class="st1" cx="1002.6" cy="244.5" r="1.7"/><path class="st1" d="M1001.6 243.5h2v2h-2v-2zm3.1-4.7h3.5m0-2.8h-3.5m0 2.8h3.5m-11.7 0h3.9m-3.9 0h3.9m0-2.8h-3.9m-1.9 2.8v1.4m1.9-4.2h-1.9m0-1.4h-1.7m1.7 0v1.4m0 2.8h1.9m-1.9 1.4v-1.4m-1.7 1.4h1.7m-1.7 0v-5.6m1.7 0h-1.7m1.7 1.4v-1.4m1.9 1.4h-1.9"/><circle class="st1" cx="1002.6" cy="237.4" r="2.6"/><circle class="st1" cx="1002.6" cy="237.4" r="1.7"/><path class="st1" d="M1001.6 236.4h2v2h-2v-2zm-10.4-12.5v48.6M236 103.2h569.8M236 110.3h569.8M236 152.8h569.8M236 159.9h569.8m-568.4-36.8v-12.8m0 42.5v-12.7m567-17v-12.8m0 42.5v-12.7m18.4-35.5v53.9m0 0l-1.4 1.4m-15.6-56.7h15.6m-15.6 0v56.7m0 0h15.6m0-56.7l1.4 1.4M803 139.9v-16.7m-564.2 16.7v-16.7m-18.4-20l-1.4 1.4m0 0v53.9m17-55.3h-15.6m-1.4 55.3l1.4 1.4m15.6 0h-15.6m15.6-56.7v56.7m567-19.8h2.8m0-17H803m-567 17h2.8m0-17H236m810.2 35.4v1.4m-17 0v-1.4m17 1.4h-17m17-55.3v53.9m-17 0v-53.9m0 53.9h17m0-55.3v1.4m-17 0v-1.4m17 1.4h-17m0-1.4h17m-17 55.3v1.4m-39.7-1.4v1.4m0 0h39.7m0-1.4v-53.9m0 53.9h-39.7m0-53.9v53.9m39.7-53.9v-1.4m0 0h-39.7m0 0v1.4m0 0h39.7m0 97.3v-42m-9.9 0v42"/><circle class="st1" cx="1017.9" cy="132" r="3.4"/><path class="st1" d="M1013.7 133c-.1-.3-.1-.7-.1-1.1 0-2.4 2-4.3 4.4-4.3s4.4 1.9 4.4 4.3-2 4.3-4.4 4.3c-.4 0-.7 0-1.1-.1"/><circle class="st1" cx="226" cy="120.2" r="6.4"/><circle class="st1" cx="226" cy="120.2" r="5"/><path class="st1" d="M227.4 117.8h-2.8l-1.4 2.4 1.4 2.4h2.8l1.4-2.4-1.4-2.4z"/><circle class="st1" cx="226" cy="143.1" r="6.4"/><circle class="st1" cx="226" cy="143.1" r="5"/><path class="st1" d="M227.4 140.7h-2.8l-1.4 2.4 1.4 2.4h2.8l1.4-2.4-1.4-2.4z"/><circle class="st1" cx="227.5" cy="131.5" r="1.8"/><path class="st1" d="M224.7 132.2c-.1-.2-.1-.5-.1-.7 0-1.6 1.3-2.8 2.8-2.8s2.8 1.3 2.8 2.8-1.3 2.8-2.8 2.8c-.2 0-.5 0-.7-.1"/><circle class="st1" cx="815.6" cy="120.2" r="6.4"/><circle class="st1" cx="815.6" cy="120.2" r="5"/><path class="st1" d="M814.2 117.8h2.8l1.4 2.4-1.4 2.4h-2.8l-1.4-2.4 1.4-2.4z"/><circle class="st1" cx="815.6" cy="143.1" r="6.4"/><circle class="st1" cx="815.6" cy="143.1" r="5"/><path class="st1" d="M814.2 140.7h2.8l1.4 2.4-1.4 2.4h-2.8l-1.4-2.4 1.4-2.4z"/><circle class="st1" cx="814.1" cy="131.5" r="1.8"/><path class="st1" d="M811.3 132.2c-.1-.2-.1-.5-.1-.7 0-1.6 1.3-2.8 2.8-2.8s2.8 1.3 2.8 2.8-1.3 2.8-2.8 2.8c-.2 0-.5 0-.7-.1"/><circle class="st1" cx="797.3" cy="118.8" r="5.4"/><circle class="st1" cx="797.3" cy="118.8" r="4"/><circle class="st1" cx="797.3" cy="144.4" r="5.4"/><circle class="st1" cx="797.3" cy="144.4" r="4"/><circle class="st1" cx="797.3" cy="131.6" r="5.4"/><circle class="st1" cx="797.3" cy="131.6" r="4"/><circle transform="matrix(.04971 -.9988 .9988 .04971 369.59 626.259)" class="st1" cx="513.9" cy="118.9" r="5.4"/><circle class="st1" cx="513.9" cy="118.8" r="4"/><circle transform="rotate(-25.468 513.952 144.515)" class="st1" cx="513.9" cy="144.5" r="5.4"/><circle class="st1" cx="513.9" cy="144.4" r="4"/><circle transform="rotate(-20.06 513.844 131.607)" class="st1" cx="513.9" cy="131.6" r="5.4"/><circle class="st1" cx="513.9" cy="131.6" r="4"/><circle class="st1" cx="528" cy="118.8" r="5.4"/><circle class="st1" cx="528" cy="118.8" r="4"/><circle class="st1" cx="528" cy="144.4" r="5.4"/><circle class="st1" cx="528" cy="144.4" r="4"/><circle class="st1" cx="528" cy="131.6" r="5.4"/><circle class="st1" cx="528" cy="131.6" r="4"/><circle class="st1" cx="542.2" cy="118.8" r="5.4"/><circle class="st1" cx="542.2" cy="118.8" r="4"/><circle class="st1" cx="542.2" cy="144.4" r="5.4"/><circle class="st1" cx="542.2" cy="144.4" r="4"/><circle class="st1" cx="542.2" cy="131.6" r="5.4"/><circle class="st1" cx="542.2" cy="131.6" r="4"/><circle class="st1" cx="556.4" cy="118.8" r="5.4"/><circle class="st1" cx="556.4" cy="118.8" r="4"/><circle class="st1" cx="556.4" cy="144.4" r="5.4"/><circle class="st1" cx="556.4" cy="144.4" r="4"/><circle class="st1" cx="556.4" cy="131.6" r="5.4"/><circle class="st1" cx="556.4" cy="131.6" r="4"/><circle class="st1" cx="570.5" cy="118.8" r="5.4"/><circle class="st1" cx="570.5" cy="118.8" r="4"/><circle class="st1" cx="570.5" cy="144.4" r="5.4"/><circle class="st1" cx="570.5" cy="144.4" r="4"/><circle class="st1" cx="570.5" cy="131.6" r="5.4"/><circle class="st1" cx="570.5" cy="131.6" r="4"/><circle class="st1" cx="584.7" cy="118.8" r="5.4"/><circle class="st1" cx="584.7" cy="118.8" r="4"/><circle class="st1" cx="584.7" cy="144.4" r="5.4"/><circle class="st1" cx="584.7" cy="144.4" r="4"/><circle class="st1" cx="584.7" cy="131.6" r="5.4"/><circle class="st1" cx="584.7" cy="131.6" r="4"/><circle class="st1" cx="598.9" cy="118.8" r="5.4"/><circle class="st1" cx="598.9" cy="118.8" r="4"/><circle class="st1" cx="598.9" cy="144.4" r="5.4"/><circle class="st1" cx="598.9" cy="144.4" r="4"/><circle class="st1" cx="598.9" cy="131.6" r="5.4"/><circle class="st1" cx="598.9" cy="131.6" r="4"/><circle class="st1" cx="613.1" cy="118.8" r="5.4"/><circle class="st1" cx="613.1" cy="118.8" r="4"/><circle class="st1" cx="613.1" cy="144.4" r="5.4"/><circle class="st1" cx="613.1" cy="144.4" r="4"/><circle class="st1" cx="613.1" cy="131.6" r="5.4"/><circle class="st1" cx="613.1" cy="131.6" r="4"/><circle class="st1" cx="627.2" cy="118.8" r="5.4"/><circle class="st1" cx="627.2" cy="118.8" r="4"/><circle class="st1" cx="627.2" cy="144.4" r="5.4"/><circle class="st1" cx="627.2" cy="144.4" r="4"/><circle class="st1" cx="627.2" cy="131.6" r="5.4"/><circle class="st1" cx="627.2" cy="131.6" r="4"/><circle class="st1" cx="641.4" cy="118.8" r="5.4"/><circle class="st1" cx="641.4" cy="118.8" r="4"/><circle class="st1" cx="641.4" cy="144.4" r="5.4"/><circle class="st1" cx="641.4" cy="144.4" r="4"/><circle class="st1" cx="641.4" cy="131.6" r="5.4"/><circle class="st1" cx="641.4" cy="131.6" r="4"/><circle class="st1" cx="655.6" cy="118.8" r="5.4"/><circle class="st1" cx="655.6" cy="118.8" r="4"/><circle class="st1" cx="655.6" cy="144.4" r="5.4"/><circle class="st1" cx="655.6" cy="144.4" r="4"/><circle class="st1" cx="655.6" cy="131.6" r="5.4"/><circle class="st1" cx="655.6" cy="131.6" r="4"/><circle class="st1" cx="669.8" cy="118.8" r="5.4"/><circle class="st1" cx="669.8" cy="118.8" r="4"/><circle class="st1" cx="669.8" cy="144.4" r="5.4"/><circle class="st1" cx="669.8" cy="144.4" r="4"/><circle class="st1" cx="669.8" cy="131.6" r="5.4"/><circle class="st1" cx="669.8" cy="131.6" r="4"/><circle class="st1" cx="683.9" cy="118.8" r="5.4"/><circle class="st1" cx="683.9" cy="118.8" r="4"/><circle class="st1" cx="683.9" cy="144.4" r="5.4"/><circle class="st1" cx="683.9" cy="144.4" r="4"/><circle class="st1" cx="683.9" cy="131.6" r="5.4"/><circle class="st1" cx="683.9" cy="131.6" r="4"/><circle class="st1" cx="698.1" cy="118.8" r="5.4"/><circle class="st1" cx="698.1" cy="118.8" r="4"/><circle class="st1" cx="698.1" cy="144.4" r="5.4"/><circle class="st1" cx="698.1" cy="144.4" r="4"/><circle class="st1" cx="698.1" cy="131.6" r="5.4"/><circle class="st1" cx="698.1" cy="131.6" r="4"/><circle class="st1" cx="712.3" cy="118.8" r="5.4"/><circle class="st1" cx="712.3" cy="118.8" r="4"/><circle class="st1" cx="712.3" cy="144.4" r="5.4"/><circle class="st1" cx="712.3" cy="144.4" r="4"/><circle class="st1" cx="712.3" cy="131.6" r="5.4"/><circle class="st1" cx="712.3" cy="131.6" r="4"/><circle class="st1" cx="726.5" cy="118.8" r="5.4"/><circle class="st1" cx="726.5" cy="118.8" r="4"/><circle class="st1" cx="726.5" cy="144.4" r="5.4"/><circle class="st1" cx="726.5" cy="144.4" r="4"/><circle class="st1" cx="726.5" cy="131.6" r="5.4"/><circle class="st1" cx="726.5" cy="131.6" r="4"/><circle class="st1" cx="740.6" cy="118.8" r="5.4"/><circle class="st1" cx="740.6" cy="118.8" r="4"/><circle class="st1" cx="740.6" cy="144.4" r="5.4"/><circle class="st1" cx="740.6" cy="144.4" r="4"/><circle class="st1" cx="740.6" cy="131.6" r="5.4"/><circle class="st1" cx="740.6" cy="131.6" r="4"/><circle class="st1" cx="754.8" cy="118.8" r="5.4"/><circle class="st1" cx="754.8" cy="118.8" r="4"/><circle class="st1" cx="754.8" cy="144.4" r="5.4"/><circle class="st1" cx="754.8" cy="144.4" r="4"/><circle class="st1" cx="754.8" cy="131.6" r="5.4"/><circle class="st1" cx="754.8" cy="131.6" r="4"/><circle class="st1" cx="769" cy="118.8" r="5.4"/><circle class="st1" cx="769" cy="118.8" r="4"/><circle class="st1" cx="769" cy="144.4" r="5.4"/><circle class="st1" cx="769" cy="144.4" r="4"/><circle class="st1" cx="769" cy="131.6" r="5.4"/><circle class="st1" cx="769" cy="131.6" r="4"/><circle class="st1" cx="783.1" cy="118.8" r="5.4"/><circle class="st1" cx="783.1" cy="118.8" r="4"/><circle class="st1" cx="783.1" cy="144.4" r="5.4"/><circle class="st1" cx="783.1" cy="144.4" r="4"/><circle class="st1" cx="783.1" cy="131.6" r="5.4"/><circle class="st1" cx="783.1" cy="131.6" r="4"/><circle class="st1" cx="499.7" cy="118.8" r="5.4"/><circle class="st1" cx="499.7" cy="118.8" r="4"/><circle class="st1" cx="499.7" cy="144.4" r="5.4"/><circle class="st1" cx="499.7" cy="144.4" r="4"/><circle class="st1" cx="499.7" cy="131.6" r="5.4"/><circle class="st1" cx="499.7" cy="131.6" r="4"/><circle class="st1" cx="485.5" cy="118.8" r="5.4"/><circle class="st1" cx="485.5" cy="118.8" r="4"/><circle class="st1" cx="485.5" cy="144.4" r="5.4"/><circle class="st1" cx="485.5" cy="144.4" r="4"/><circle class="st1" cx="485.5" cy="131.6" r="5.4"/><circle class="st1" cx="485.5" cy="131.6" r="4"/><circle class="st1" cx="471.3" cy="118.8" r="5.4"/><circle class="st1" cx="471.3" cy="118.8" r="4"/><circle class="st1" cx="471.3" cy="144.4" r="5.4"/><circle class="st1" cx="471.3" cy="144.4" r="4"/><circle class="st1" cx="471.3" cy="131.6" r="5.4"/><circle class="st1" cx="471.3" cy="131.6" r="4"/><circle class="st1" cx="457.2" cy="118.8" r="5.4"/><circle class="st1" cx="457.2" cy="118.8" r="4"/><circle class="st1" cx="457.2" cy="144.4" r="5.4"/><circle class="st1" cx="457.2" cy="144.4" r="4"/><circle class="st1" cx="457.2" cy="131.6" r="5.4"/><circle class="st1" cx="457.2" cy="131.6" r="4"/><circle class="st1" cx="443" cy="118.8" r="5.4"/><circle class="st1" cx="443" cy="118.8" r="4"/><circle class="st1" cx="443" cy="144.4" r="5.4"/><circle class="st1" cx="443" cy="144.4" r="4"/><circle class="st1" cx="443" cy="131.6" r="5.4"/><circle class="st1" cx="443" cy="131.6" r="4"/><circle class="st1" cx="428.8" cy="118.8" r="5.4"/><circle class="st1" cx="428.8" cy="118.8" r="4"/><circle class="st1" cx="428.8" cy="144.4" r="5.4"/><circle class="st1" cx="428.8" cy="144.4" r="4"/><circle class="st1" cx="428.8" cy="131.6" r="5.4"/><circle class="st1" cx="428.8" cy="131.6" r="4"/><circle class="st1" cx="414.6" cy="118.8" r="5.4"/><circle class="st1" cx="414.6" cy="118.8" r="4"/><circle class="st1" cx="414.6" cy="144.4" r="5.4"/><circle class="st1" cx="414.6" cy="144.4" r="4"/><circle class="st1" cx="414.6" cy="131.6" r="5.4"/><circle class="st1" cx="414.6" cy="131.6" r="4"/><circle class="st1" cx="400.5" cy="118.8" r="5.4"/><circle class="st1" cx="400.5" cy="118.8" r="4"/><circle class="st1" cx="400.5" cy="144.4" r="5.4"/><circle class="st1" cx="400.5" cy="144.4" r="4"/><circle class="st1" cx="400.5" cy="131.6" r="5.4"/><circle class="st1" cx="400.5" cy="131.6" r="4"/><circle class="st1" cx="386.3" cy="118.8" r="5.4"/><circle class="st1" cx="386.3" cy="118.8" r="4"/><circle class="st1" cx="386.3" cy="144.4" r="5.4"/><circle class="st1" cx="386.3" cy="144.4" r="4"/><circle class="st1" cx="386.3" cy="131.6" r="5.4"/><circle class="st1" cx="386.3" cy="131.6" r="4"/><circle class="st1" cx="372.1" cy="118.8" r="5.4"/><circle class="st1" cx="372.1" cy="118.8" r="4"/><circle class="st1" cx="372.1" cy="144.4" r="5.4"/><circle class="st1" cx="372.1" cy="144.4" r="4"/><circle class="st1" cx="372.1" cy="131.6" r="5.4"/><circle class="st1" cx="372.1" cy="131.6" r="4"/><circle class="st1" cx="357.9" cy="118.8" r="5.4"/><circle class="st1" cx="357.9" cy="118.8" r="4"/><circle class="st1" cx="357.9" cy="144.4" r="5.4"/><circle class="st1" cx="357.9" cy="144.4" r="4"/><circle class="st1" cx="357.9" cy="131.6" r="5.4"/><circle class="st1" cx="357.9" cy="131.6" r="4"/><circle class="st1" cx="343.8" cy="118.8" r="5.4"/><circle class="st1" cx="343.8" cy="118.8" r="4"/><circle class="st1" cx="343.8" cy="144.4" r="5.4"/><circle class="st1" cx="343.8" cy="144.4" r="4"/><circle class="st1" cx="343.8" cy="131.6" r="5.4"/><circle class="st1" cx="343.8" cy="131.6" r="4"/><circle class="st1" cx="329.6" cy="118.8" r="5.4"/><circle class="st1" cx="329.6" cy="118.8" r="4"/><circle class="st1" cx="329.6" cy="144.4" r="5.4"/><circle class="st1" cx="329.6" cy="144.4" r="4"/><circle class="st1" cx="329.6" cy="131.6" r="5.4"/><circle class="st1" cx="329.6" cy="131.6" r="4"/><circle class="st1" cx="315.4" cy="118.8" r="5.4"/><circle class="st1" cx="315.4" cy="118.8" r="4"/><circle class="st1" cx="315.4" cy="144.4" r="5.4"/><circle class="st1" cx="315.4" cy="144.4" r="4"/><circle class="st1" cx="315.4" cy="131.6" r="5.4"/><circle class="st1" cx="315.4" cy="131.6" r="4"/><circle class="st1" cx="301.2" cy="118.8" r="5.4"/><circle class="st1" cx="301.2" cy="118.8" r="4"/><circle class="st1" cx="301.2" cy="144.4" r="5.4"/><circle class="st1" cx="301.2" cy="144.4" r="4"/><circle class="st1" cx="301.2" cy="131.6" r="5.4"/><circle class="st1" cx="301.2" cy="131.6" r="4"/><circle class="st1" cx="287.1" cy="118.8" r="5.4"/><circle class="st1" cx="287.1" cy="118.8" r="4"/><circle class="st1" cx="287.1" cy="144.4" r="5.4"/><circle class="st1" cx="287.1" cy="144.4" r="4"/><circle class="st1" cx="287.1" cy="131.6" r="5.4"/><circle class="st1" cx="287.1" cy="131.6" r="4"/><circle class="st1" cx="272.9" cy="118.8" r="5.4"/><circle class="st1" cx="272.9" cy="118.8" r="4"/><circle class="st1" cx="272.9" cy="144.4" r="5.4"/><circle class="st1" cx="272.9" cy="144.4" r="4"/><circle class="st1" cx="272.9" cy="131.6" r="5.4"/><circle class="st1" cx="272.9" cy="131.6" r="4"/><circle class="st1" cx="258.7" cy="118.8" r="5.4"/><circle class="st1" cx="258.7" cy="118.8" r="4"/><circle class="st1" cx="258.7" cy="144.4" r="5.4"/><circle class="st1" cx="258.7" cy="144.4" r="4"/><circle class="st1" cx="258.7" cy="131.6" r="5.4"/><circle class="st1" cx="258.7" cy="131.6" r="4"/><circle class="st1" cx="244.6" cy="118.8" r="5.4"/><circle class="st1" cx="244.6" cy="118.8" r="4"/><circle class="st1" cx="244.6" cy="144.4" r="5.4"/><circle class="st1" cx="244.6" cy="144.4" r="4"/><circle class="st1" cx="244.6" cy="131.6" r="5.4"/><circle class="st1" cx="244.6" cy="131.6" r="4"/></g><g id="Dimensions"><path class="st2" d="M365.8 346.5h172.6"/><path d="M367.4 349l-9.2-2.5 9.2-2.5v5zm169.3 0l9.2-2.5-9.2-2.5v5z"/><path class="st3" d="M545.9 272.1v77.3M895.6 43.2V110m83.6 175.8v49.4m57-49.4v49.4m-678-48.8v63"/><path class="st2" d="M1029 333.4h-41.6"/><path d="M1027.3 331l9.3 2.4-9.3 2.5V331zm-38.2 0l-9.2 2.4 9.2 2.5V331z"/><path class="st2" d="M1084.3 95.9V85"/><path d="M1086.8 94.2l-2.5 9.2-2.4-9.2h4.9z"/><path class="st3" d="M1046.3 103.2h40.8m-2.8 28.7v-28.5"/><path class="st2" d="M1084.3 139.4v10.5"/><path d="M1081.9 141.1l2.4-9.2 2.5 9.2h-4.9z"/><path class="st3" d="M1012 131.9h75.1"/><path class="st2" d="M574.2 279.5v-70.1"/><path d="M576.7 277.8l-2.5 9.2-2.4-9.2h4.9zm0-66.7l-2.5-9.2-2.4 9.2h4.9z"/><path class="st3" d="M540.5 201.9h36.6M540.5 287h36.6m318.5-134.6v-39m0 46.5v-7.5"/><path class="st2" d="M895.6 167.4v19.8"/><path d="M893.1 169.1l2.5-9.2 2.5 9.2h-5z"/><path class="st3" d="M820.5 159.9h77.9M236.1 81.3h18m-35.1 0h17.1"/><path class="st2" d="M211.4 81.3h-21.7"/><path d="M209.8 78.8l9.2 2.5-9.2 2.5v-5z"/><path class="st3" d="M236.1 103V78.4"/><path class="st2" d="M243.7 81.3h554.7"/><path d="M245.3 83.8l-9.2-2.5 9.2-2.5v5zm551.4 0l9.2-2.5-9.2-2.5v5z"/><path class="st3" d="M805.9 103V78.4m-578.7 53.1h-77.6m2.8 28.5v-28.5"/><path class="st2" d="M152.4 184.4v-16.6"/><path d="M154.9 169.5l-2.5-9.2-2.4 9.2h4.9z"/><path class="st2" d="M152.4 107.2v16.5"/><path d="M150 122l2.4 9.3 2.5-9.3H150z"/><path class="st3" d="M144.7 66H28.6"/><path class="st2" d="M221.6 126.7L144.7 66"/><path d="M221.8 123.7l5.7 7.7-8.7-3.8 3-3.9z"/><path class="st3" d="M935.1 227.9h-92.5"/><path class="st2" d="M1013 137.5l-77.9 90.8"/><path d="M1010 137.2l7.9-5.4-4.1 8.6-3.8-3.2z"/><path class="st3" d="M219.1 181.8h8.4"/><path class="st2" d="M211.6 181.8h-22.5"/><path d="M209.9 179.3l9.2 2.5-9.2 2.5v-5z"/><path class="st2" d="M226.5 47.3h588.9"/><path d="M228.2 49.8l-9.2-2.5 9.2-2.5v5zm585.5 0l9.2-2.5-9.2-2.5v5z"/><path class="st3" d="M822.9 105.1V44.4M219 104.7V44.4"/><path class="st2" d="M895.6 117.6v27.3"/><path d="M893.1 119.3l2.5-9.3 2.5 9.3h-5zm0 23.9l2.5 9.2 2.5-9.2h-5z"/><path class="st3" d="M805.4 152.8h93M804.2 110h94.2"/><path class="st2" d="M101.4 111.4v41.1"/><path d="M99 113.1l2.4-9.2 2.5 9.2H99zm0 37.7l2.4 9.2 2.5-9.2H99z"/><path class="st3" d="M220.6 160h-122m122-56.8h-122"/><path class="st2" d="M1053.8 79.1h13.9"/><path d="M1055.5 81.6l-9.2-2.5 9.2-2.5v5z"/><path class="st3" d="M1017.9 79.1h28.4"/><path class="st2" d="M1010.4 79.1h-10.5"/><path d="M1008.7 76.6l9.2 2.5-9.2 2.5v-5z"/><path class="st3" d="M1017.9 136.9V76.3"/><path class="st2" d="M997.1 56.2h41.6"/><path d="M998.7 58.7l-9.2-2.5 9.2-2.5v5zm38.3 0l9.3-2.5-9.3-2.5v5z"/><path class="st3" d="M1046.3 102.8V53.3m-56.8 49.9V53.3"/><path class="st2" d="M235.1 181.8h571.5"/><path d="M236.7 184.3l-9.2-2.5 9.2-2.5v5zm568.2 0l9.2-2.5-9.2-2.5v5z"/><path class="st3" d="M227.5 131.4v53.2m586.6-52.8v52.8"/></g><path id="Middle_Lines" d="M221.2 131.5h12.9m-6.6 0v-7m579.3 6.9h14.6m-7.3 0v-7.3" fill="none" stroke="#000" stroke-width=".283" stroke-linecap="round" stroke-linejoin="round" stroke-miterlimit="10" stroke-dasharray="2.8346,1.4173,.5669,1.4173"/><g id="Text_1_"><text transform="translate(512.964 41.404)" class="st5 st6">213</text><text transform="translate(464.34 75.42)" class="st5 st6">201 (Emitting area)</text><text transform="translate(196.928 75.42)" class="st5 st6">6</text><text transform="translate(512.963 175.852)" class="st5 st6">207</text><text transform="rotate(-90 116.56 21.626)" class="st5 st6">20</text><text transform="rotate(-90 150.024 3.498)" class="st5 st6">10</text><text transform="rotate(-90 471.582 -386.035)" class="st5 st6">15</text><text transform="rotate(-90 489.882 -384.535)" class="st5 st6">(Emitting</text><text transform="rotate(-90 492.682 -398.535)" class="st5 st6">area)</text><text transform="rotate(-90 602.3 -477.48)" class="st5 st6">10</text><text transform="rotate(-90 538.171 -350.85)" class="st5 st6">2.5</text><text transform="translate(196.151 175.852)" class="st5 st6">3</text><text transform="translate(55.668 60.374)" class="st5 st6">2 x M2 x 6</text><text transform="translate(28.868 84.374)" class="st5 st6">(for optional parts)</text><text transform="translate(871.346 222.251)" class="st5 st6">M3 x 5</text><text transform="translate(849.146 246.251)" class="st5 st6">On both sides</text><text transform="translate(842.146 263.051)" class="st5 st6">(for installation)</text><text transform="translate(1010.005 51.312)" class="st5 st6">20</text><text transform="translate(1024.326 74.367)" class="st5 st6">10</text><text transform="translate(435.455 339.756)" class="st5 st6">66.2</text><text transform="translate(424.8 303.188)" class="st5 st6">Controller</text><text transform="translate(998.558 325.583)" class="st5 st6">20</text><text transform="rotate(-90 411.226 -156.243)" class="st5 st6">30</text><text transform="translate(217.126 287.371)" class="st5 st6">Cable length 500</text><text transform="translate(1084.35 339.756)" class="st5 st6">Not to scale</text><text transform="translate(1081.9 354.4)" class="st5 st6">Dimensions in mm</text></g><text transform="translate(1050.9 229.9)" class="st5 st6">For pin connection</text><text transform="translate(1050.9 246.7)" class="st5 st6">(refer to</text><text transform="translate(1050.9 263.5)" class="st5 st6">camera</text><text transform="translate(1050.9 280.3)" class="st5 st6">specifications)</text></svg>