<svg version="1.1" id="Layer_1" xmlns="http://www.w3.org/2000/svg" xmlns:xlink="http://www.w3.org/1999/xlink" x="0" y="0" viewBox="0 0 768 576" style="background-color:#fff" xml:space="preserve"><style>.st1{fill:#fff}.st2{stroke-opacity:.15;stroke-dasharray:42.6667,0}.st2,.st3{fill:none;stroke:#262626;stroke-width:2.6667;stroke-miterlimit:5.3333}.st4{fill:#262626}.st5{font-family:Helvetica,Arial,sans-serif}.st6{font-size:18px}.st8,.st9{fill:none;stroke:#0071bc;stroke-width:2.6667;stroke-linejoin:round;stroke-miterlimit:5.3333}.st9{stroke:#d85218}.st12{font-size:14px}</style><path d="M0 0h768v576H0z" fill="none"/><path shape-rendering="crispEdges" class="st1" d="M99.8 512.6H695V43.2H99.8v469.4z"/><path class="st2" d="M99.8 512.6V43.2m119.1 469.4V43.2m119 469.4V43.2M457 512.6V43.2m119 469.4V43.2m119 469.4V43.2"/><path class="st3" d="M99.8 512.6v-6m119.1 6v-6m119 6v-6m119.1 6v-6m119 6v-6m119 6v-6"/><text transform="translate(78.507 541.31)" class="st4 st5 st6">1</text><text transform="translate(89.174 541.31)" class="st4 st5 st6">0</text><text transform="translate(99.84 541.31)" class="st4 st5 st6">0</text><text transform="translate(110.507 541.31)" class="st4 st5 st6">0</text><text transform="translate(197.547 541.31)" class="st4 st5 st6">2</text><text transform="translate(208.214 541.31)" class="st4 st5 st6">0</text><text transform="translate(218.88 541.31)" class="st4 st5 st6">0</text><text transform="translate(229.547 541.31)" class="st4 st5 st6">0</text><text transform="translate(316.587 541.31)" class="st4 st5 st6">3</text><text transform="translate(327.254 541.31)" class="st4 st5 st6">0</text><text transform="translate(337.92 541.31)" class="st4 st5 st6">0</text><text transform="translate(348.587 541.31)" class="st4 st5 st6">0</text><text transform="translate(435.627 541.31)" class="st4 st5 st6">4</text><text transform="translate(446.294 541.31)" class="st4 st5 st6">0</text><text transform="translate(456.96 541.31)" class="st4 st5 st6">0</text><text transform="translate(467.627 541.31)" class="st4 st5 st6">0</text><text transform="translate(554.667 541.31)" class="st4 st5 st6">5</text><text transform="translate(565.334 541.31)" class="st4 st5 st6">0</text><text transform="translate(576 541.31)" class="st4 st5 st6">0</text><text transform="translate(586.667 541.31)" class="st4 st5 st6">0</text><text transform="translate(673.707 541.31)" class="st4 st5 st6">6</text><text transform="translate(684.374 541.31)" class="st4 st5 st6">0</text><text transform="translate(695.04 541.31)" class="st4 st5 st6">0</text><text transform="translate(705.707 541.31)" class="st4 st5 st6">0</text><path class="st2" d="M99.8 512.6H695m-595.2-67H695M99.8 378.5H695m-595.2-67H695M99.8 244.4H695M99.8 177.3H695m-595.2-67H695M99.8 43.2H695"/><path class="st3" d="M99.8 512.6h6m-6-67h6m-6-67.1h6m-6-67h6m-6-67.1h6m-6-67.1h6m-6-67h6m-6-67.1h6"/><text transform="translate(79.832 519.974)" class="st4 st5 st6">0</text><text transform="translate(79.832 452.91)" class="st4 st5 st6">1</text><text transform="translate(79.832 385.848)" class="st4 st5 st6">2</text><text transform="translate(79.832 318.785)" class="st4 st5 st6">3</text><text transform="translate(79.832 251.722)" class="st4 st5 st6">4</text><text transform="translate(79.832 184.658)" class="st4 st5 st6">5</text><text transform="translate(79.832 117.596)" class="st4 st5 st6">6</text><text transform="translate(79.832 50.533)" class="st4 st5 st6">7</text><path d="M99.8 512.6H695m-595.2 0V43.2" fill="none" stroke="#262626" stroke-width="2.667" stroke-linecap="square" stroke-miterlimit="5.333" stroke-dasharray="42.6667,0"/><path class="st8" d="M140.3 510.4l3-3.1 3-2.3 3-2.8 3-2.3 3-.3 3 .8 3-.3 3 .4 3-.1 3-.1 3-.5 3 .1h3l3-.3 3-.1 3-.3 3-.1 3-1.5h3l3-.1 3 .1 3-.7 3 .7 3-.3 3-.1 3-.4 3 .1h3l3-.4 3-.3 3-1.6h3l3-1.2 3-.4 3-.7 3 1.5 3-.7 3 .8 3 .1 3 .5 3-.8 3-.1 3-.3 3-.3 3-.4 3-.9 3 .3 3-1.3 3-.1 3-.7 3 .7 3-1.3 3 .8 3-.3 3 .3 3-.5 3 .1 3-.3 3-.7 3-.7 3-1.7 3 .4 3-.9h3l3-.8 3 1.6 3-.8 3 .3 3-.4 3 .9 3-.5 3-.1h3l3-.4 3-.9 3-2 3 .3 3-1.3h3l3-.9 3 1.7 3-1.2 3 .5 3-.3 3 .9 3-.9 3-.1 3-.1 3-.9 3-1.2 3-2.4 3 .1 3-.9h3l3-1.2 3 2.3 3-.7 3 .1 3-.5 3 1.6 3-.8 3-.5 3-.1h3l3-1.2 3-2.4 3 .7 3-1.6 3-.1 3-1.3 3 2 3-1.5 3 .5 3-1.2 3 1.3 3-.8 3-.5h3l3-.1 3-1.3 3-2.5 3 .4 3-1.1 3-.1 3-1.7 3 1.7 3-.5 3 .1 3-.8 3 2 3-.3 3-.9 3-.3 3-.4 3-1.3 3-3.2 3 .5 3-1.5 3 .3 3-2 3 2.3 3-1.1 3 .4 3-1.6 3 1.9 3-.5 3-1.2 3-.3h3l3-1.9 3-2.5 3-.4 3-.8 3-.3 3-1.5 3 .9 3 .4h3l3-.9 3 2.3 3 .4 3-1.1 3-.4 3-.4 3-2.1 3-3.2 3-.5 3-1.6h3l3-1.9 3 1.1h3l3 .4 3-1.7 3 1.9 3 .5 3-1.6 3-.8 3-.1 3-3.1 3-2.4 3-1.6 3-.8 3-.9 3-.8h3"/><path class="st9" d="M134.4 502.6l6-9.7 6-9.7 6-9.9 6-10.2 6-.4 6-.8 6-.8 6-.9 6-.3 6-.5 6-.5 6-1.2 6-.8 6-1.5 6-.8 6-.9 6-.5 6-.8 6-1.1 6-1.6 6-2 6-1.6 6-1.6 6-1.2 6-1.3 6-.9 6-1.7 6-2.4 6-2.8 6-3.2 6-3.2 6-3.8 6-3.8 6-4.2 6-4.6 6-4.6 6-4.6 6-4.4 6-4.3 6-4.2 6-5.2 6-4.8 6-5 6-4.7 6-5.6 6-6 6-7 6-5.9 6-5.6 6-3 6-1.3 6 .1 6 .1h6l6-.3h6l6 .8 6 1.5 6 2.4 6 1.5 6 1.5 6 .4 6-.4 6-1.6 6-.3 6-.8 6 .5h6l6-.4 6-2 6-2.1 6-3 6-3.4 6-2 6-1.7 6-2.5 6-3.6 6-3.5 6-4.4 6-5.2 6-4.8 6-7 6-7.4 6-9.1 6-9 6-8.9 6-9.3 6-10.1 6-9.9 6-10.1 6-13 6-8.9 6-8.3 6-9.1"/><defs><path id="SVGID_1_" d="M0 0h768v576H0z"/></defs><clipPath id="SVGID_2_"><use xlink:href="#SVGID_1_" overflow="visible"/></clipPath><g clip-path="url(#SVGID_2_)"><path shape-rendering="crispEdges" class="st1" d="M118.7 113.7H335V62H118.7v51.7z"/><path d="M118.7 113.7H335M118.7 62H335m-216.3 51.7V62M335 113.7V62" fill="none" stroke="#262626" stroke-width=".667" stroke-linecap="square" stroke-miterlimit="5.333" stroke-dasharray="21.3333,0"/><path class="st8" d="M124.1 74.9h35.3"/><path class="st9" d="M124.1 100.8h35.3"/><text transform="translate(168.51 79.242)" class="st5 st12">LongRange</text><text transform="translate(168.51 104.38)" class="st5 st12">LongRange + FastMode</text></g><text transform="rotate(-90 213.886 150.295)" class="st5 st6">Temporal Noise [mm]</text><text transform="translate(346.053 563.567)" class="st5 st6">Distance [mm]</text></svg>