<svg version="1.1" id="Ebene_1" xmlns="http://www.w3.org/2000/svg" x="0" y="0" viewBox="0 0 1208.6 873.9" style="background-color:#fff" xml:space="preserve"><style>.st1,.st2{stroke-width:.4252;stroke-miterlimit:10}.st1{fill:none;stroke:#000;stroke-linecap:round;stroke-linejoin:round}.st2{stroke-dasharray:3.6,1.8}.st2,.st3,.st4,.st5{fill:none;stroke:#000;stroke-linecap:round;stroke-linejoin:round}.st3{stroke-miterlimit:10;stroke-dasharray:3.6,1.8;stroke-dashoffset:1;stroke-width:.4252}.st4{stroke-width:.2835}.st5{stroke-width:.283;stroke-miterlimit:10}.st7{font-family:Helvetica,Arial,sans-serif}.st8{font-size:14px}</style><g id="BCBL-120x120"><path class="st1" d="M409.6 698.1v-9.9m-33.3-23.4h9.9m144.1 23.4l.1.5.1 1-.1 1.4-.3 1.4-.5 1.5m0 0l-.5 1.1-.1 1.2.1.9.2.7v.2m-3.5-.1l-.1-.5-.1-1 .1-1.4.3-1.5.5-1.2m0 0l.5-1.2.1-1.1-.1-.9-.2-.7-.1-.3m125.5-56v1.4m0-1.4h4.6m-4.6 82.5v1.4m0 0h4.6m-4.6-1.4v-6.2m0-68.6v-6.3m0 6.3v1.4m0 65.7v1.5m4.6-67.2h-4.6m0 65.7v-65.7m186.8-7.7v81.1m0-81.1v-1.4m-4.5 0h4.5m-4.5 83.9h4.5m0 0v-1.4m-4.5-52.6v1.4m-177.7 0v-1.4m177.7-11.3v1.4m-177.7 0v-1.4m177.7-5.7v1.4m-177.7 0v-1.4m177.7 25.5v1.4m-177.7 0v-1.4m177.7-2.8v1.4m-177.7 0v-1.4m177.7-25.5v1.4m-177.7 0v-1.4m177.7 14.1v1.5m-177.7 0v-1.5m177.7-2.8v1.4m-177.7 0v-1.4m177.7 31.2v1.4m-177.7 0v-1.4m177.7-5.7v1.4m-177.7 0v-1.4m177.7 2.9v1.4m-177.7 0V682m177.7-34.1v1.5m-177.7 0v-1.5m177.7 17v1.5m-177.7 0v-1.5m177.7 11.4v1.4m-177.7 0v-1.4m177.7-2.8v1.4m-177.7 0v-1.4m177.7-14.2v1.4m-177.7 0v-1.4m177.7 28.3v1.4m-177.7 0v-1.4m177.7 2.9v1.4m-177.7 0v-1.4m177.7 2.8v1.4m-177.7 0v-1.4m177.7 8.5v1.4m-177.7 0v-1.4m177.7-5.7v1.4m-177.7 0v-1.4m177.7 2.9v1.4m-177.7 0V699m177.7 5.6v1.5m-177.7 0v-1.5m177.7-45.3v-1.4m0 0H656.8m0 0v1.4m177.7-8.5v-1.4m0 0H656.8m0 0v1.4m177.7 5.6V655m0 0H656.8m0 0v1.4m177.7-8.5v-1.4m0 0H656.8m0 0v1.4m177.7-5.6v-9.2m-177.7 9.2v-9.2m177.7 20.5v-1.4m0 0H656.8m0 0v1.4m177.7-20.5v-1.5m-177.7 0v1.5m177.7 0H656.8m0-1.5h177.7m0 33.3v-1.4m0 0H656.8m0 0v1.4m177.7-2.8v-1.4m0 0H656.8m0 0v1.4m177.7 5.7v-1.4m0 0H656.8m0 0v1.4m177.7-22.7v-1.4m0 0H656.8m0 0v1.4m177.7 25.5v-1.4m0 0H656.8m0 0v1.4m177.7 2.9V672m0 0H656.8m0 0v1.5m177.7 9.9v1.4m-177.7-1.4h177.7m-177.7 1.4v-1.4m177.7 5.6v1.5M656.8 689h177.7m-177.7 1.5V689m177.7-8.5v1.5m-177.7-1.5h177.7M656.8 682v-1.5m177.7 5.7v1.4m-177.7-1.4h177.7m-177.7 1.4v-1.4m177.7-11.3v1.4m-177.7-1.4h177.7m-177.7 1.4v-1.4m177.7 2.8v1.4m-177.7-1.4h177.7m-177.7 1.4v-1.4m177.7 22.7v1.4m-177.7-1.4h177.7m-177.7 1.4v-1.4m177.7-8.5v1.4m-177.7-1.4h177.7m-177.7 1.4v-1.4m177.7 2.8v1.4m-177.7-1.4h177.7m-177.7 1.4v-1.4m177.7 8.5v1.4m-177.7-1.4h177.7m-177.7 1.4v-1.4m177.7-5.7v1.5m-177.7-1.5h177.7M656.8 699v-1.5m177.7 19.2v-1.4m-177.7 0v1.4m0 0h177.7m-177.7-1.4v-9.2m177.7 9.2v-9.2m-177.7 0h177.7m5.4-4.3h-.9m.9-48.2h-.9m.9 0v48.2m-187.7-13.6H530.3m-1 9.9h122.9m-125.5-9.9H409.6m0 9.9h116.2m-139.6-33.3V531.3m-9.9 0v133.5m0 0l.2 3.7.6 3.7 1.1 3.6 1.4 3.4 1.8 3.3 2.2 3.1 2.4 2.7 2.8 2.5 3.1 2.2 3.2 1.8 3.5 1.4 3.6 1.1 3.7.6 3.7.2m0-9.9l-3.1-.2-3-.6-2.9-1-2.7-1.4-2.5-1.7-2.3-2-2.1-2.3-1.7-2.5-1.3-2.8-1-2.9-.6-3-.2-3m664.4 37.4v-49m4.6-4.5h1.7m-2.3 4.2v-4.2m0 0h2.9m-3.7-.9l.8.9m2.9 4.2h-2.9m-.8.9l.8-.9m2.9-4.2v4.2m.8.9l-.8-.9m0-4.2l.8-.9m-4.5 6v-6m0 0h4.5m0 0v6m0 0h-4.5m-26.1-.6h23.2m0 0v49m0 0h-23.2m0 0v-49m45.2-20.1v82.2m-1.4-83.7l.3.1.2.1.3.1.2.2.2.2.1.2.1.3v.3m-5-1.5h3.6m-3.6 0v.6h-1.4v-.6m-1.4 0h1.4m-1.4 0v.6h-1.4v-.6m-10.6 0h10.6m-10.6 0v.6h-1.5v-.6m-1.4 0h1.4m-1.4 0v.6h-1.4v-.6m-1.4 0h1.4m-1.4 0v.6h-1.4v-.6m-1.5 0h1.5m-1.5 0v.6h-1.4v-.6m-1.4 0h1.4m-1.4 0v.6h-1.4v-.6m-8.9 0h8.9m-8.9 0v.6h-7.4v-.6m-6.4 0h6.4m-7.8 1.5v-.3l.1-.3.1-.2.2-.2.2-.2.3-.1.2-.1.3-.1m-1.4 10.7v-9.2m0 9.2h.7m0 0h.3l.2.2.2.2v.6l-.2.2-.2.1-.3.1m0 0h-.7m0 1.4v-1.4m0 1.4h.7m0 0l.3.1.2.1.2.2v.6l-.2.2-.2.2h-.3m0 0h-.7m0 1.4v-1.4m0 1.4h.7m0 0l.3.1.2.1.2.3v.5l-.2.3-.2.1-.3.1m0 0h-.7m0 1.4v-1.4m0 1.4h.7m0 0h.3l.2.2.2.2v.6l-.2.2-.2.1-.3.1m0 0h-.7m0 1.4v-1.4m0 1.4h.7m0 0l.3.1.2.1.2.2v.6l-.2.2-.2.2h-.3m0 0h-.7m0 1.4V655m0 1.4h.7m0 0l.3.1.2.2.2.2v.5l-.2.3-.2.1-.3.1m0 0h-.7m0 1.4v-1.4m0 1.4h.7m0 0h.3l.2.2.2.2v.6l-.2.2-.2.1-.3.1m0 0h-.7m0 1.4v-1.4m0 1.4h.7m0 0l.3.1.2.1.2.3v.5l-.2.2-.2.2h-.3m0 0h-.7m0 1.4v-1.4m0 1.4h.7m0 0l.3.1.2.2.2.2v.5l-.2.3-.2.1-.3.1m0 0h-.7m0 1.4v-1.4m0 1.4h.7m0 0h.3l.2.2.2.2v.6l-.2.2-.2.1-.3.1m0 0h-.7m0 1.4v-1.4m0 1.4h.7m0 0l.3.1.2.1.2.3v.5l-.2.2-.2.2h-.3m0 0h-.7m0 1.5V672m0 1.5h.7m0 0h.3l.2.2.2.2v.5l-.2.3-.2.1-.3.1m-.7 0h.7m-.7 0v1.4m.7 0h-.7m.7 0h.3l.2.2.2.2v.6l-.2.2-.2.2h-.3m-.7 0h.7m-.7 0v1.4m.7 0h-.7m.7 0l.3.1.2.1.2.3v.5l-.2.2-.2.2h-.3m-.7 0h.7m-.7 0v1.5m.7 0h-.7m.7 0h.3l.2.2.2.2v.5l-.2.3-.2.1-.3.1m-.7 0h.7m-.7 0v1.4m.7 0h-.7m.7 0h.3l.2.2.2.2v.6l-.2.2-.2.2h-.3m-.7 0h.7m-.7 0v1.4m.7 0h-.7m.7 0l.3.1.2.1.2.3v.5l-.2.2-.2.2h-.3m-.7 0h.7m-.7 0v1.5m.7 0h-.7m.7 0h.3l.2.2.2.2v.5l-.2.3-.2.1-.3.1m-.7 0h.7m-.7 0v1.4m.7 0h-.7m.7 0l.3.1.2.1.2.2v.6l-.2.2-.2.2h-.3m-.7 0h.7m-.7 0v1.4m.7 0h-.7m.7 0l.3.1.2.1.2.3v.5l-.2.2-.2.2h-.3m-.7 0h.7m-.7 0v1.5m.7 0h-.7m.7 0h.3l.2.2.2.2v.5l-.2.3-.2.1-.3.1m-.7 0h.7m-.7 0v1.4m.7 0h-.7m.7 0l.3.1.2.1.2.2v.6l-.2.2-.2.2h-.3m-.7 0h.7m-.7 0v1.4m.7 0h-.7m.7 0l.3.1.2.1.2.3v.5l-.2.2-.2.2-.3.1m-.7 0h.7m-.7 9.2v-9.2m1.4 10.6h-.3l-.2-.1-.3-.2-.2-.1-.2-.2-.1-.3-.1-.3v-.2m7.8 1.4h-6.4m13.8 0v-.6h-7.4v.6m16.3 0h-8.9m10.3 0v-.6h-1.4v.6m1.4 0h1.4m1.4 0v-.6h-1.4v.6m1.4 0h1.5m1.4 0v-.6h-1.4v.6m1.4 0h1.4m1.4 0v-.6h-1.4v.6m1.4 0h1.4m1.5 0v-.6h-1.5v.6m12.1 0h-10.6m12 0v-.6h-1.4v.6m1.4 0h1.4m1.4 0v-.6h-1.4v.6m1.4 0h3.6m1.4-1.4v.2l-.1.3-.1.3-.2.2-.2.1-.3.2-.2.1h-.3m-43.4-63.1h-.4m20.8 6.4v-2.8m0 0v2.8m0-3.6v4.3m-3.4 31.2h3.4m0 3.5v-2.8m0 0v2.8m0-3.5v4.2m-20.4-42.5v48.2m17-5v2.2m0-2.9v-4.2m0-31.2v-4.3m0 0v2.2m0 0v2.8m0 0v4.3m0 0v2.8m0 0v4.2m0 0v2.9m0 0v4.2m0 0v2.9m0 0v4.2m0 0v2.9m0 0v4.2m0 0v2.8m0-40.4h3.4m-15.1 0h11.7m0 4.3v31.2m3.4 0h-3.4m3.4 4.2v-4.2m-3.4 4.2h3.4m-3.4 0v2.9m0 0h-11.7m0-2.2v2.2m0-9.2v4.2m0-11.3v4.2m0-11.3v4.2m0-11.3v4.2m0-11.3v4.3m0-9.3v2.2m0-2.2h15.1m0 4.3v-4.3m-3.4 4.3h3.4m2-7.1h-22.4m14 0h8.5m-22.5 48.2h22.5M580.5 524.4h1.4m0 0v-3.5m0 0h3.5m0 0v-1.5m0 0h-3.5m0 0v-3.5m-1.4 0v3.5m-3.6 0v1.5m0 0h3.6m0 0v3.5m0-5h-3.6m5-3.5h-1.4"/><circle class="st1" cx="581.2" cy="520.1" r="6.2"/><path class="st1" d="M265.6 524.4h1.4m0 0v-3.5m0 0h3.5m0 0v-1.5m0 0H267m0 0v-3.5m-1.4 0v3.5m-3.6 0v1.5m0 0h3.6m0 0v3.5m0-5H262m5-3.5h-1.4"/><circle class="st1" cx="266.2" cy="520.1" r="6.2"/><path class="st1" d="M581.9 158.4h-1.4m1.4 3.5v-3.5m3.5 3.5h-3.5m3.5 1.5v-1.5m-3.5 1.5h3.5m-3.5 3.5v-3.5m-1.4 0v3.5m-3.6-5v1.5m3.6-1.5h-3.6m3.6-3.5v3.5m-3.6 1.5h3.6m0 3.5h1.4"/><circle class="st1" cx="581.2" cy="162.7" r="6.2"/><path class="st1" d="M424.4 158.4H423m1.4 3.5v-3.5m3.5 3.5h-3.5m3.5 1.5v-1.5m-3.5 1.5h3.5m-3.5 3.5v-3.5m-1.4 0v3.5m-3.6-5v1.5m3.6-1.5h-3.6m3.6-3.5v3.5m-3.6 1.5h3.6m0 3.5h1.4"/><circle class="st1" cx="423.6" cy="162.7" r="6.2"/><path class="st1" d="M267 158.4h-1.4m1.4 3.5v-3.5m3.5 3.5H267m3.5 1.5v-1.5m-3.5 1.5h3.5m-3.5 3.5v-3.5m-1.4 0v3.5m-3.6-5v1.5m3.6-1.5H262m3.6-3.5v3.5m-3.6 1.5h3.6m0 3.5h1.4"/><circle class="st1" cx="266.2" cy="162.7" r="6.2"/><circle class="st1" cx="330.1" cy="135.7" r="5.2"/><circle class="st1" cx="517.3" cy="135.7" r="5.2"/><path class="st1" d="M424.4 524.4H423m1.4-3.5v3.5m3.5-3.5h-3.5m3.5-1.5v1.5m-3.5-1.5h3.5m-3.5-3.5v3.5m-1.4 0v-3.5m-3.6 5v-1.5m3.6 1.5h-3.6m3.6 3.5v-3.5m-3.6-1.5h3.6m0-3.5h1.4"/><circle class="st1" cx="423.6" cy="520.1" r="6.2"/><circle class="st1" cx="330.1" cy="547.1" r="5.2"/><circle class="st1" cx="517.3" cy="547.1" r="5.2"/><path class="st1" d="M1041.6 661.4h3.5m0-2.8h-3.5m0 2.8h3.5m-11.7 0h3.9m-3.9 0h3.9m0-2.8h-3.9m-1.9 2.8v1.4m1.9-4.2h-1.9m0-1.4h-1.7m1.7 0v1.4m0 2.8h1.9m-1.9 1.4v-1.4m-1.7 1.4h1.7m-1.7 0v-5.6m1.7 0h-1.7m1.7 1.4v-1.4m1.9 1.4h-1.9"/><circle class="st1" cx="1039.5" cy="660" r="2.6"/><circle class="st1" cx="1039.5" cy="660" r="1.7"/><path class="st1" d="M1038.5 659h2v2h-2v-2zm3.1 37.9h3.5m0-2.8h-3.5m0 2.8h3.5m-11.7 0h3.9m-3.9 0h3.9m0-2.8h-3.9m-1.9 2.8v1.4m1.9-4.2h-1.9m0-1.4h-1.7m1.7 0v1.4m0 2.8h1.9m-1.9 1.4v-1.4m-1.7 1.4h1.7m-1.7 0v-5.6m1.7 0h-1.7m1.7 1.4v-1.4m1.9 1.4h-1.9"/><circle class="st1" cx="1039.5" cy="695.5" r="2.6"/><circle class="st1" cx="1039.5" cy="695.5" r="1.7"/><path class="st1" d="M1038.5 694.5h2v2h-2v-2zm3.1-4.7h3.5m0-2.8h-3.5m0 2.8h3.5m-11.7 0h3.9m-3.9 0h3.9m0-2.8h-3.9m-1.9 2.8v1.4m1.9-4.2h-1.9m0-1.4h-1.7m1.7 0v1.4m0 2.8h1.9m-1.9 1.4v-1.4m-1.7 1.4h1.7m-1.7 0v-5.6m1.7 0h-1.7m1.7 1.4v-1.4m1.9 1.4h-1.9"/><circle class="st1" cx="1039.5" cy="688.4" r="2.6"/><circle class="st1" cx="1039.5" cy="688.4" r="1.7"/><path class="st1" d="M1038.5 687.4h2v2h-2v-2zm3.1-4.7h3.5m0-2.8h-3.5m0 2.8h3.5m-11.7 0h3.9m-3.9 0h3.9m0-2.8h-3.9m-1.9 2.8v1.4m1.9-4.2h-1.9m0-1.4h-1.7m1.7 0v1.4m0 2.8h1.9m-1.9 1.4v-1.4m-1.7 1.4h1.7m-1.7 0v-5.6m1.7 0h-1.7m1.7 1.4v-1.4m1.9 1.4h-1.9"/><circle class="st1" cx="1039.5" cy="681.3" r="2.6"/><circle class="st1" cx="1039.5" cy="681.3" r="1.7"/><path class="st1" d="M1038.5 680.3h2v2h-2v-2zm3.1-4.7h3.5m0-2.8h-3.5m0 2.8h3.5m-11.7 0h3.9m-3.9 0h3.9m0-2.8h-3.9m-1.9 2.8v1.4m1.9-4.2h-1.9m0-1.4h-1.7m1.7 0v1.4m0 2.8h1.9m-1.9 1.4v-1.4m-1.7 1.4h1.7m-1.7 0v-5.6m1.7 0h-1.7m1.7 1.4v-1.4m1.9 1.4h-1.9"/><circle class="st1" cx="1039.5" cy="674.2" r="2.6"/><circle class="st1" cx="1039.5" cy="674.2" r="1.7"/><path class="st1" d="M1038.5 673.2h2v2h-2v-2zm3.1-4.7h3.5m0-2.8h-3.5m0 2.8h3.5m-11.7 0h3.9m-3.9 0h3.9m0-2.8h-3.9m-1.9 2.8v1.4m1.9-4.2h-1.9m0-1.4h-1.7m1.7 0v1.4m0 2.8h1.9m-1.9 1.4v-1.4m-1.7 1.4h1.7m-1.7 0v-5.6m1.7 0h-1.7m1.7 1.4v-1.4m1.9 1.4h-1.9"/><circle class="st1" cx="1039.5" cy="667.1" r="2.6"/><circle class="st1" cx="1039.5" cy="667.1" r="1.7"/><path class="st1" d="M1038.5 666.1h2v2h-2v-2zm-10.4-12.5v48.6"/><path class="st2" d="M252.2 174.1h343.2"/><path class="st3" d="M252.2 174.1v334.6"/><path class="st2" d="M252.2 508.7h343.2"/><path class="st3" d="M595.4 174.1v334.6"/><path class="st1" d="M252.1 124.5v27m124.1 408.4H253.6m340.4 0H386.2m207.8 0l1.3-1.4m0 0v-27m0-407v27m0-27l-1.3-1.4m-340.4 0H594m-340.4 0l-1.5 1.4m0 434v-27m0 27l1.5 1.4m344.6-407.1v-1.3m0 380v-1.3m-1.4 1.3h1.4m0-380h-1.4m-346.1 0h-1.3m0 378.7v1.3m0-380v1.3m0 378.7h1.3m347.5-1.3V152.8m-1.4-1.3H250.7m0 380h346.1M249.4 152.8v377.4M1066 124.5v27m-2.8-27v27m2.8-28.4v1.4m-2.8 0v-1.4m0 0h2.8m-2.8 435.4v-27m2.8 27v-27m0 27v1.4m-2.8-1.4h2.8m-2.8 1.4v-1.4m2.8 1.4h-2.8m-31.3-28.4h31.3m-31.3 0v-380m34.1 380h-2.8m2.8-380v380m-2.8-380h2.8m-2.8 380v-380m-39.8 1.3v-1.3m0 0h8.5m-8.5 378.7V152.8m0 378.7v-1.3m8.5 1.3h-8.5m0-1.3h8.5m26.6-378.7v-.8m-26.6 0h26.6m-26.6.8v-.8m21.8 503.1v-6m0 0h4.6m0 0v6m0 0h-4.6m11-21.6v-72.3m-10-28.4v100.1m3.9-480.1h4.6"/></g><g id="Dimensions"><path class="st4" d="M659.7 776.2h172.7"/><path d="M661.4 778.7l-9.2-2.5 9.2-2.5v5zm169.3 0l9.2-2.5-9.2-2.5v5z"/><path class="st5" d="M839.9 701.8v77.3m-187.7-63v63"/><path class="st4" d="M1065.9 763.1h-41.6"/><path d="M1064.2 760.7l9.3 2.4-9.3 2.5v-4.9zm-38.2 0l-9.2 2.4 9.2 2.5v-4.9z"/><path class="st5" d="M1016.5 715.7l.3 50.2m56.4-50.2l.3 50.2"/><path class="st4" d="M1002.9 524.2v-366"/><path d="M1005.4 522.5l-2.5 9.2-2.5-9.2h5zm0-362.6l-2.5-9.2-2.5 9.2h5z"/><path class="st5" d="M1031.9 150.7h-31.8m2.8 381v-9.6m0 38.1v-28.5"/><path class="st4" d="M1002.9 567.7v10.5"/><path d="M1000.4 569.4l2.5-9.2 2.5 9.2h-5z"/><path class="st5" d="M1023.4 531.7h-23.3m63 28.5h-63"/><path class="st4" d="M868.2 709.2v-70.1"/><path d="M870.7 707.5l-2.5 9.2-2.5-9.2h5zm0-66.7l-2.5-9.2-2.5 9.2h5z"/><path class="st5" d="M834.5 631.6h36.6m-36.6 85.1h36.6M639.6 547.4v-16.8m0 29.3v-12.5"/><path class="st4" d="M639.6 567.4v31.8"/><path d="M637.1 569.1l2.5-9.2 2.5 9.2h-5z"/><path class="st5" d="M593.9 559.9h48.5M252.3 100.5h18m-20.8 0h2.8"/><path class="st4" d="M242 100.5h-21.8"/><path d="M240.3 98l9.2 2.5-9.2 2.5v-5z"/><path class="st5" d="M252.3 174.2V97.6"/><path class="st4" d="M259.8 100.5h328"/><path d="M261.5 103l-9.2-2.5 9.2-2.5v5zm324.6 0l9.2-2.5-9.2-2.5v5z"/><path class="st5" d="M595.3 174.2V97.6"/><path class="st4" d="M220.8 512.7v-331"/><path d="M223.3 511l-2.5 9.2-2.5-9.2h5zm0-327.6l-2.5-9.2-2.5 9.2h5z"/><path class="st5" d="M252.3 174.2H218m48.2 346H218"/><path class="st4" d="M220.8 552.4v-24.7"/><path d="M223.3 550.7l-2.5 9.2-2.5-9.2h5zm0-21.3l-2.5-9.2-2.5 9.2h5z"/><path class="st5" d="M192.6 602.7H116"/><path class="st4" d="M322.6 550.5l-130 52.2"/><path d="M320.1 548.8l9.5-1.1-7.7 5.7-1.8-4.6z"/><path class="st5" d="M249.5 608.7H330"/><path class="st4" d="M242 608.7h-22.5"/><path d="M240.3 606.2l9.2 2.5-9.2 2.5v-5z"/><path class="st5" d="M330 548.6v62.9m-80.5-80.4v80.4"/><path class="st4" d="M257 66.5h333.7"/><path d="M258.7 69l-9.2-2.5 9.2-2.5v5zM589 69l9.2-2.5L589 64v5z"/><path class="st5" d="M598.2 152.9V63.6m-348.7 89.3V63.6"/><path class="st4" d="M639.6 143.1v396.8"/><path d="M637.1 144.8l2.5-9.2 2.5 9.2h-5zm0 393.4l2.5 9.2 2.5-9.2h-5z"/><path class="st5" d="M517.4 547.4h125M517.3 135.6h125.1"/><path class="st4" d="M169.8 130.6v421.8"/><path d="M167.3 132.3l2.5-9.2 2.5 9.2h-5zm0 418.4l2.5 9.2 2.5-9.2h-5z"/><path class="st5" d="M253.7 559.9H167m86.7-436.8H167"/><path class="st4" d="M1073.5 100.2h23.3"/><path d="M1075.2 102.7l-9.2-2.5 9.2-2.5v5z"/><path class="st5" d="M1063.1 100.2h2.9"/><path class="st4" d="M1055.6 100.2h-10.5"/><path d="M1053.9 97.7l9.2 2.5-9.2 2.5v-5z"/><path class="st5" d="M1063.1 122.6V97.4"/><path class="st4" d="M1030.9 77.3h27.6"/><path d="M1032.6 79.8l-9.2-2.5 9.2-2.5v5zm24.2 0l9.2-2.5-9.2-2.5v5z"/><path class="st5" d="M1066 122.6V74.4m-42.6 76.3V74.4"/><path class="st4" d="M337.5 608.7h172.4"/><path d="M339.2 611.2l-9.2-2.5 9.2-2.5v5zm169 0l9.2-2.5-9.2-2.5v5z"/><path class="st5" d="M517.4 547.8v63.7"/></g><path id="Middle_Lines" d="M323.6 547.4h12.9m-6.6 0v-7m180.2 7h14.6m-7.3 0v-7.3m7.2-404.5h-14.9m7.6 7.2v-14.5m-187.4.1v13.8m7.4-6.6h-14.7" fill="none" stroke="#000" stroke-width=".283" stroke-linecap="round" stroke-linejoin="round" stroke-miterlimit="10" stroke-dasharray="2.8346,1.4173,.5669,1.4173"/><g id="Text_1_"><text transform="translate(404.545 58.409)" class="st7 st8">123</text><text transform="translate(365.649 92.425)" class="st7 st8">121 (Emitting area)</text><text transform="translate(224.726 92.425)" class="st7 st8">1</text><text transform="translate(423.86 602.558)" class="st7 st8">66</text><text transform="rotate(-90 253.01 90.126)" class="st7 st8">154</text><text transform="rotate(-90 296.693 84.516)" class="st7 st8">118 (Emitting area)</text><text transform="rotate(-90 377.591 169.244)" class="st7 st8">18</text><text transform="rotate(-90 483.803 -147.639)" class="st7 st8">145</text><text transform="rotate(-90 719.15 -277.283)" class="st7 st8">134</text><text transform="rotate(-90 775.456 -220.977)" class="st7 st8">10</text><text transform="rotate(-90 610.807 -20.636)" class="st7 st8">4.5</text><text transform="translate(277.646 602.558)" class="st7 st8">28.5</text><text transform="translate(125.972 596.888)" class="st7 st8">4 x Ø 3.6</text><text transform="translate(106.172 620.888)" class="st7 st8">(for insallation)</text><text transform="translate(1036.89 71.417)" class="st7 st8">15</text><text transform="translate(1078.642 94.094)" class="st7 st8">1</text><text transform="translate(729.44 769.46)" class="st7 st8">66.2</text><text transform="translate(719.44 731.45)" class="st7 st8">Controller</text><text transform="translate(1035.444 755.287)" class="st7 st8">20</text><text transform="rotate(-90 770.735 -90.72)" class="st7 st8">30</text><text transform="translate(488.111 718.077)" class="st7 st8">Cable length 500</text><text transform="translate(1072.2 832.664)" class="st7 st8">Not to scale</text><text transform="translate(1071.5 852.065)" class="st7 st8">Dimensions in mm</text></g><text transform="translate(890.957 654.815)" class="st7 st8">For pin connection</text><text transform="translate(890.957 671.615)" class="st7 st8">(refer to</text><text transform="translate(890.957 688.415)" class="st7 st8">camera</text><text transform="translate(890.957 705.215)" class="st7 st8">specifications)</text></svg>