<svg version="1.1" id="Layer_1" xmlns="http://www.w3.org/2000/svg" x="0" y="0" viewBox="0 0 566 170.5" style="background-color:#fff" xml:space="preserve"><style>.st1{stroke-width:.5}.st1,.st2,.st3,.st4{fill:none;stroke:#000;stroke-miterlimit:3.8637}.st2{stroke-width:.4252}.st3{stroke-width:.3402}.st4{stroke-width:.25;stroke-dasharray:12,2,2,2}.st9{font-family:Helvetica,Arial,sans-serif}.st10{font-size:10px}.st11{font-size:8px}</style><g id="Ebene_1"><path class="st1" d="M263.2 95.3h186.2m-186.2 19.6h169.5m0 0h17.1M151.1 83.8l2.9-2.4h55.2l2.7 1.9v44.9l-2.7 1.8h-55l-3.1-2.4V83.8zm2.8-2.4V130m55.3 0V81.4M79 80.9h55.2l2.7 2v44.8l-2.7 1.8h-55m-.3-48.6v48.6m55.3 0V80.9"/><path class="st2" d="M262.7 93.2v24.1"/><path class="st1" d="M453.1 95.3H514m-60.9 19.6h60.6"/><path class="st3" d="M85.3 63.2h177.5"/><path d="M85.3 61.4v3.5l-6.2-1.7 6.2-1.8zm170.4 0v3.5l6.2-1.7-6.2-1.8z"/><path class="st3" d="M79.3 76.4V15.5M262.8 91V61.7"/><path class="st4" d="M449.8 92.5v26.8"/><path d="M452.8 92.5v26.8" fill="none" stroke="#000" stroke-width=".25" stroke-miterlimit="3.864" stroke-dasharray="12,2,2,2,2,2"/><path class="st3" d="M69.1 125.3V87.5m9.4 42H67.6"/><path d="M67.3 87.8h3.5l-1.7-6.5-1.8 6.5z"/><path class="st3" d="M78.5 81H67.6"/><path d="M70.8 122.5h-3.5L69 129l1.8-6.5z"/><path class="st4" d="M301.7 106.5L74 106"/><path class="st2" d="M515.7 105.8c-1.8-3.8-5.2-7.2-1.7-10.5 3.9 1.3 3 5.8 1.7 10.5m-2 9.1c3.9-3.2 3.4-6.2 2-9.1"/><path d="M512.6 99.8l25.3-2.3m-23 7.3l21.5-1.3m-20 4.8l20.7.7m-20.7 2.5l22 4.3" fill="none"/><path class="st3" d="M85.3 19.2h453.3"/><path d="M85.3 17.5v3.4l-6.2-1.7 6.2-1.7z"/><path class="st3" d="M538.8 96.5V16"/><path d="M532.4 20.9v-3.4l6.2 1.7-6.2 1.7z"/><path class="st3" d="M301.7 115V95.3m131 19.7V95.3"/><path class="st4" d="M547.9 106.5l-115.2-.5"/><path class="st3" d="M491.7 130.8V53.5"/><path d="M490 121h3.4l-1.7-6.1-1.7 6.1zm3.4-31.1H490l1.7 6.2 1.7-6.2z"/><path d="M136.9 121.5h14.2m0-32.5h-14.2m75 0l50.8 4.2m-158 36.3V80.9m24.2 48.6V80.9m133.8 36.4l-50.8 4.2" fill="none" stroke="#020405" stroke-width=".5" stroke-linecap="round" stroke-linejoin="round" stroke-miterlimit="10"/><path d="M105 81l24.1 16.1m-17.8-16l17.8 12m-11.8-12l11.8 7.9m-5.8-7.9l5.8 3.9M105 85l24.1 16.2M105 89l24.1 16.2M105 93.1l24.1 16.2M105 97.1l24.1 16.2M105 101.2l24.1 16.2M105 105.2l24.1 16.2M105 109.3l24.1 16.2M105 113.3l24.1 16.2M105 117.4l18.1 12.1m-18.1-8.1l12.1 8.1m-12.1-4l6 4M129.1 81L105 97.1m17.8-16l-17.8 12m11.7-12L105 89m5.7-7.9L105 85m24.1 0L105 101.2M129.1 89L105 105.2m24.1-12.1L105 109.3m24.1-12.2L105 113.3m24.1-12.1L105 117.4m24.1-12.2L105 121.4m24.1-12.1L105 125.5m24.1-12.2L105 129.5m24.1-12.1L111 129.5m18.1-8.1l-12.1 8.1m12.1-4l-6.1 4" fill="none" stroke="#000" stroke-width=".25" stroke-miterlimit="3.864"/><path class="st2" d="M301.7 95.3h130.9v68.2H301.7V95.3z"/><path d="M49.8 51.5l29.5 29.4" fill="none" stroke="#000" stroke-width=".227" stroke-miterlimit="3.864"/></g><g id="text"><text transform="translate(4.228 36.948)" class="st9 st10">Hirose</text><text transform="translate(4.228 47.948)" class="st9 st10">6-pin plug</text><text transform="translate(151.099 59.5)" class="st9 st11">36 mm</text><text transform="rotate(-90 92.62 27.83)" class="st9 st11">11.6 mm</text><text transform="rotate(-90 287.433 -200.28)" class="st9 st11">5.8 mm</text><text transform="translate(304.057 135.167)"><tspan x="0" y="0" class="st9 st10">Label with order number, </tspan><tspan x="0" y="12" class="st9 st10">manufacturing date and </tspan><tspan x="0" y="24" class="st9 st10">pin-to-wire color assignment</tspan></text><text transform="translate(344.806 108.293)" class="st9" font-size="7">2000...xx/yy</text><text transform="translate(235.473 14.166)" class="st9 st10">Length depending on order number</text><text transform="translate(519.643 134.167)" class="st9 st10">Open end</text></g></svg>