<?xml version="1.0" encoding="utf-8"?>
<!-- Generator: Adobe Illustrator 23.1.0, SVG Export Plug-In . SVG Version: 6.00 Build 0)  -->
<svg version="1.1" id="Ebene_1" xmlns="http://www.w3.org/2000/svg" xmlns:xlink="http://www.w3.org/1999/xlink" x="0px" y="0px"
	 viewBox="0 0 113.4 99.1" style="enable-background:new 0 0 113.4 99.1;" xml:space="preserve">
<style type="text/css">
	.st0{fill-rule:evenodd;clip-rule:evenodd;fill:#F3C736;}
	.st1{fill-rule:evenodd;clip-rule:evenodd;}
</style>
<g>
	<polygon class="st0" points="110,95.7 3.4,95.7 56.7,3.4 110,95.7 	"/>
	<path class="st1" d="M9.4,92.3l47.3-82l47.3,82H9.4L9.4,92.3z M110,99.1l-106.6,0c-2.6,0-4.2-2.8-2.9-5.1L53.8,1.7
		c1.3-2.3,4.6-2.3,5.9,0L112.9,94C114.2,96.3,112.6,99.1,110,99.1L110,99.1z"/>
	<path class="st1" d="M64.2,63.4l0-0.1l8.3-1.9L72,59.6l-8.2,2.5c-0.1-0.2-0.2-0.4-0.3-0.6l14.2-7.7l-1.2-2l-13.8,8.5
		c-0.1-0.2-0.3-0.4-0.4-0.5l6.3-5.8l-1.4-1.4l-5.8,6.3c-0.2-0.1-0.4-0.3-0.5-0.4l8.5-13.8l-2-1.2l-7.7,14.2
		c-0.2-0.1-0.4-0.2-0.6-0.3l2.5-8.2L60,48.8l-1.9,8.3c-0.2,0-0.4-0.1-0.7-0.1l0.5-16.2h-2.3L56,57.1c-0.2,0-0.5,0.1-0.7,0.1
		l-1.9-8.3l-1.8,0.5l2.5,8.2c-0.2,0.1-0.4,0.2-0.6,0.3l-7.7-14.2l-2,1.2l8.5,13.8c-0.2,0.1-0.4,0.3-0.5,0.4l-5.8-6.3l-1.3,1.4
		l6.3,5.8c-0.1,0.2-0.3,0.4-0.4,0.5l-13.8-8.5l-1.2,2l14.2,7.7c-0.1,0.2-0.2,0.4-0.3,0.6l-8.2-2.5l-0.5,1.8l8.3,1.9
		c0,0.2-0.1,0.4-0.1,0.7l-16.2-0.5v2.3l16.2-0.5c0,0.2,0.1,0.5,0.1,0.7l-8.3,1.9l0.5,1.8l8.2-2.5c0.1,0.2,0.2,0.4,0.3,0.6l-14.2,7.7
		l1.2,2l13.8-8.5c0.1,0.2,0.3,0.4,0.4,0.5l-6.3,5.8l1.4,1.4l5.8-6.3c0.2,0.1,0.4,0.3,0.5,0.4l-8.5,13.8l2,1.2l7.7-14.2
		c0.2,0.1,0.4,0.2,0.6,0.3L51.6,80l1.8,0.5l1.9-8.3c0.2,0,0.4,0.1,0.7,0.1l-0.5,16.2h2.3l-0.5-16.2c0.2,0,0.5-0.1,0.7-0.1l1.9,8.3
		l1.8-0.5l-2.5-8.2c0.2-0.1,0.4-0.2,0.6-0.3l7.7,14.2l2-1.2l-8.5-13.8c0.2-0.1,0.4-0.3,0.5-0.4l5.8,6.3l1.3-1.4l-6.3-5.8
		c0.1-0.2,0.3-0.4,0.4-0.5l13.8,8.5l1.2-2l-14.2-7.7c0.1-0.2,0.2-0.4,0.3-0.6l8.2,2.5l0.5-1.8L64.2,66l0-0.1H90v-2.5H64.2L64.2,63.4
		z"/>
</g>
</svg>
