<svg xmlns="http://www.w3.org/2000/svg" width="20" height="20"><style>.st2{fill:#fff}</style><g id="Ebene_1"><path class="st2" d="M10 0c5.2 0 8 1.5 8.5 2.1-.5.7-3.3 2.2-8.5 2.2S2 2.8 1.5 2.2C2 1.5 4.8 0 10 0z"/><path class="st2" d="M10 5.7c3.7 0 6.8-.7 8.5-1.8v3.3c-.5.6-3.3 2.1-8.5 2.1S2 7.8 1.5 7.2V3.9C3.2 5 6.3 5.7 10 5.7zm8.5 12.2c-.5.6-3.3 2.1-8.5 2.1s-8-1.5-8.5-2.1v-4c1.7 1.1 4.8 1.8 8.5 1.8s6.8-.7 8.5-1.8v4z"/><path class="st2" d="M18.5 12.1c-.5.7-3.3 2.1-8.5 2.1s-8-1.5-8.5-2.1V8.9c1.7 1.1 4.8 1.8 8.5 1.8s6.8-.7 8.5-1.8v3.2z"/></g></svg>