<svg xmlns="http://www.w3.org/2000/svg" width="20" height="20"><style>.st3{fill-rule:evenodd;clip-rule:evenodd;fill:#fff}</style><g id="Ebene_1"><g id="Welcome_2_"><g id="Artboard-23-Copy-15_1_"><path id="Combined-Shape_2_" d="M.1 20s-.7-1.9 1-2.4 3.4-1.1 3.4-3.1c0 0-1.7-.8-1.7-3.8 0-2.7 1.3-4.2 3.5-4.2s3.4 1.7 3.4 4.6c0 0-.4 2.8-1.6 3.5.1.5-.2 2.2 3.6 2.8 1.2.1 1.2 1.3 1.2 2.6H.1zm13.8 0H20c0-1.1 0-2.1-1.1-2.2-3.3-.5-3.1-2-3.1-2.4 1-.6 1.4-3 1.4-3 0-2.5-1.1-3.9-2.9-3.9-1.9 0-3 1.4-3 3.6 0 2.6 1.5 3.2 1.5 3.2 0 .8-.3 1.2-.6 1.4 0 0 1.3.3 1.6 1.4.2.8.1 1.9.1 1.9z" fill="#14487e"/></g></g><path class="st3" d="M17.2 2.7c.4.4.5.9.5 1.4 0 .5-.2 1-.6 1.3-.4.4-.9.5-1.4.5-.5 0-1-.2-1.3-.6-.4-.4-.5-.9-.5-1.4 0-.5.2-1 .6-1.3.4-.4.9-.5 1.4-.5.4 0 .9.2 1.3.6zm1.4 3.4c.1.1.1.2 0 .3l-.7.6c-.1.1-.2.1-.3 0-.2-.2-.3-.4-.5-.5-.1.1-.3.1-.4.2-.1.1-.3.1-.4.1 0 .2.1 1-.3.9-.2 0-1.1.1-1.1-.3v-.7c-.3-.1-.6-.2-.8-.4l-.5.5s-.2.1-.3 0l-.6-.6s-.1-.2 0-.3c.2-.2.4-.3.5-.5-.1-.1-.1-.3-.2-.4v-.4h-.7c-.1 0-.2-.1-.2-.2v-.9c0-.1.1-.2.2-.2h.7c.1-.3.2-.6.4-.8l-.5-.5c-.1-.1-.1-.2 0-.3l.6-.7s.2-.1.3 0c.2.2.3.4.5.5.1-.1.3-.1.4-.2s.3-.1.4-.1V.5c0-.1.1-.2.2-.2.3 0 1.1-.1 1.1.3v.7c.3.1.6.2.8.4l.5-.5s.2-.1.3 0c.2.2.9.7.6 1l-.5.5c.1.3.3.5.3.8h.7c.1 0 .2.1.2.2 0 .3.1 1.1-.3 1.1h-.7c-.1.3-.2.6-.4.8l.7.5z"/><path class="st3" d="M10.2 1.9c.3.2.5.6.6.9.1.4 0 .8-.2 1.1-.2.3-.6.5-1 .6-.4.1-.8 0-1.1-.2-.3-.2-.5-.6-.6-1-.1-.3 0-.7.2-1.1.2-.3.6-.5.9-.6.5 0 .9 0 1.2.3zm1.6 2.3c.1.1.1.2 0 .2l-.3.6c-.1.1-.2.1-.2 0-.2-.1-.3-.2-.5-.3-.1.1-.2.1-.3.2-.1.1-.2.1-.3.2 0 .1.2.7 0 .7-.1 0-.8.2-.9 0l-.1-.5c-.2-.1-.4-.1-.6-.2l-.3.5s-.1.1-.2 0c-.3-.1-.4-.2-.6-.4 0 0-.1-.1 0-.2.1-.2.2-.3.3-.5-.1-.1-.2-.1-.3-.2 0-.1-.1-.2-.1-.3l-.6.1c-.1 0-.2-.1-.2-.2l-.1-.6c0-.1 0-.2.1-.2.2-.1.4-.1.6-.1 0-.2.1-.5.1-.7L6.9 2c-.1-.1-.1-.2 0-.2l.4-.5s.1-.1.2 0c.2.1.3.2.5.3 0-.2.1-.3.2-.3.1-.1.2-.1.3-.2L8.4.5c0-.1 0-.2.1-.2.2 0 .8-.3.9 0 0 .2.1.4.1.5.2 0 .5.1.7.1l.3-.5s.1-.1.2 0c.2.1.8.4.6.6l-.3.6c.2.2.3.4.4.6l.5-.1c.1 0 .2 0 .2.1 0 .2.3.8 0 .9-.2 0-.4.1-.5.1 0 .2-.1.5-.1.7l.3.3z"/></g></svg>